<svg xmlns="http://www.w3.org/2000/svg" xmlns:xlink="http://www.w3.org/1999/xlink" xmlns:inkscape="http://www.inkscape.org/namespaces/inkscape" version="1.1" width="312.942" height="102.126" viewBox="0 0 312.942 102.126">
<defs>
<path id="font_1_27" d="M.6380005 0 .3769989 .69433596H.2889862L.027999878 0H.101989749L.1789856 .20410156H.46998597L.54599 0H.6380005M.44799806 .26010133H.19999695C.25099183 .40316773 .21398926 .29811097 .2649994 .44119264 .28599549 .5002289 .31698609 .5852661 .32398988 .62228396H.32499696C.32699586 .60827639 .33399964 .5832672 .35699464 .5172272L.44799806 .26010133Z"/>
<path id="font_1_77" d="M.43499757 0V.29804994C.43499757 .36405946 .41999818 .45507813 .2979889 .45507813 .20799256 .45507813 .15899658 .3870697 .15299988 .3790741V.45007325H.08099365V0H.15899658V.2450409C.15899658 .31105042 .18399048 .3940735 .2599945 .3940735 .35598756 .3940735 .35699464 .32305909 .35699464 .29104615V0H.43499757Z"/>
<path id="font_1_66" d="M.1559906 0V.44433595H.08099365V0H.1559906M.1639862 .5662689V.65527346H.07499695V.5662689H.1639862Z"/>
<path id="font_1_75" d="M.71299746 0V.29804994C.71299746 .36506654 .69699099 .45507813 .57598879 .45507813 .5159912 .45507813 .46398927 .427063 .4269867 .37306214 .40098573 .44906617 .33099366 .45507813 .29899598 .45507813 .22698975 .45507813 .17999268 .41407777 .15299988 .37806703V.45007325H.08099365V0H.15899658V.2450409C.15899658 .31304933 .18598938 .3940735 .2599945 .3940735 .35299684 .3940735 .35798646 .3290558 .35798646 .29104615V0H.43598939V.2450409C.43598939 .31304933 .46299745 .3940735 .5369873 .3940735 .6299896 .3940735 .6349945 .3290558 .6349945 .29104615V0H.71299746Z"/>
<path id="font_1_28" d="M.40899659 .00024414063V.28903199C.40899659 .39094544 .33599855 .4609375 .24398804 .4609375 .1789856 .4609375 .13398743 .44493104 .08699036 .41792298L.09298706 .3519745C.14498902 .38894654 .19499207 .40193177 .24398804 .40193177 .29100038 .40193177 .33099366 .361969 .33099366 .2880249V.24505615C.18099976 .24305725 .053985597 .20106507 .053985597 .11317444 .053985597 .07022095 .08099365-.0107421879 .16799927-.0107421879 .18199158-.0107421879 .27598573-.008743286 .33399964 .036254884V.00024414063H.40899659M.33099366 .13214112C.33099366 .11317444 .33099366 .0881958 .29699708 .069229129 .2679901 .051254274 .22999573 .050247194 .21899414 .050247194 .17098999 .050247194 .12599182 .07322693 .12599182 .11515808 .12599182 .18507385 .28799439 .19206238 .33099366 .19406128V.13214112Z"/>
<path id="font_1_72" d="M.1559906 0V.69433596H.08099365V0H.1559906Z"/>
<path id="font_1_95" d="M.61698916 0 .4189911 .32637025C.5219879 .35636903 .58898928 .42736817 .58898928 .50834658 .58898928 .6073303 .47999574 .69433596 .33699037 .69433596H.09599304V0H.18199158V.3173828H.33999635L.5279999 0H.61698916M.5079956 .50834658C.5079956 .43736268 .44400025 .3783722 .32598878 .3783722H.18199158V.6383209H.32598878C.44198609 .6383209 .5079956 .5793457 .5079956 .50834658Z"/>
<path id="font_1_50" d="M.4139862 .21875C.4139862 .25274659 .41299439 .32781983 .37399293 .38790895 .33299256 .4499359 .27198792 .4609375 .23599243 .4609375 .125 .4609375 .034988405 .3548584 .034988405 .22573853 .034988405 .09411621 .1309967-.0107421879 .25099183-.0107421879 .31399537-.0107421879 .37098695 .013244629 .4099884 .041244508L.4039917 .1060791C.34098817 .054244996 .2749939 .050247194 .2519989 .050247194 .17199707 .050247194 .10798645 .121032718 .10499573 .21875H.4139862M.35699464 .27374269H.10998535C.12599182 .34985353 .1789856 .39993287 .23599243 .39993287 .28799439 .39993287 .34399415 .36587525 .35699464 .27374269Z"/>
<path id="font_1_84" d="M.47999574 .22315979C.47999574 .34309388 .4169922 .45507813 .32099916 .45507813 .26098634 .45507813 .20298767 .43406678 .15699768 .3950653V.44407655H.08198547V-.19335938H.1599884V.04624939C.19099427 .01725769 .23498535-.0107421879 .29499818-.0107421879 .3919983-.0107421879 .47999574 .0872345 .47999574 .22315979M.4019928 .22315979C.4019928 .12020874 .33099366 .050247194 .2559967 .050247194 .21699524 .050247194 .18998719 .070236209 .16999817 .097229007 .1599884 .112213138 .1599884 .114212039 .1599884 .13220215V.33309938C.18399048 .36808778 .22299195 .3910675 .2659912 .3910675 .34199525 .3910675 .4019928 .31510926 .4019928 .22315979Z"/>
<path id="font_1_105" d="M.33198548 .027252198 .31599427 .086257938C.2899933 .06524658 .2579956 .053253175 .22599793 .053253175 .18899536 .053253175 .1749878 .08325195 .1749878 .13627625V.38632203H.31599427V.44433595H.1749878V.57128909H.10598755V.44433595H.018997193V.38632203H.102996829V.119262699C.102996829 .059249879 .116989139-.0107421879 .18598938-.0107421879 .2559967-.0107421879 .30699159 .014251709 .33198548 .027252198Z"/>
<path id="font_1_74" d="M.7739868 0V.69433596H.6599884L.5299988 .35516358C.49499513 .26411439 .44799806 .14006043 .43699647 .09303284H.43598939C.43099977 .11404419 .4189911 .15106201 .4039917 .19308472L.24699402 .60728457 .21299744 .69433596H.099990848V0H.17799378V.62028506H.1789856C.18499756 .5882721 .22499085 .47921754 .25099183 .41119386L.39898683 .022003174H.47200013L.6049957 .37016297 .6529999 .4972229C.6629944 .5262451 .6899872 .59828189 .69499209 .6212921L.69599917 .62028506V0H.7739868Z"/>
<path id="font_1_71" d="M.49899293 0V.06599426L.23199463 .06399536H.18299866V.69433596H.09399414V0H.49899293Z"/>
<path id="font_1_120" d="M.4019928 0V.06199646H.25498963C.24299622 .06199646 .23098755 .06098938 .21899414 .06098938H.13398743L.3999939 .40533448V.44433595H.041992189V.3853302H.18099976C.19299317 .3853302 .20498657 .38632203 .21699524 .38632203H.29499818L.027999878 .040985109V0H.4019928Z"/>
<path id="font_1_96" d="M.32699586 .38806153V.45507813C.23799134 .45407105 .18299866 .4050598 .1519928 .35905458V.45007325H.08198547V0H.15699768V.21403504C.15699768 .31404115 .22898865 .38606263 .32699586 .38806153Z"/>
<path id="font_1_47" d="M.43399049-.0001373291V.69433596H.35899354V.39985658C.30599977 .44407655 .25 .45507813 .21299744 .45507813 .11399841 .45507813 .035995485 .35107423 .035995485 .22210694 .035995485 .09111023 .11299133-.0107421879 .20799256-.0107421879 .24099732-.0107421879 .2999878-.0017547608 .35598756 .052246095V.00024414063L.43399049-.0001373291M.35598756 .13911438C.35598756 .12512207 .35499574 .1071167 .32299806 .078125 .2999878 .05821228 .2749939 .050247194 .24899292 .050247194 .18699646 .050247194 .11399841 .09712219 .11399841 .22109986 .11399841 .35307313 .19999695 .3940735 .25898744 .3940735 .3039856 .39385987 .33399964 .37086488 .35598756 .3388672V.13911438Z"/>
<path id="font_1_97" d="M.49899293 .18856812C.49899293 .25358583 .46798707 .30158998 .44599916 .32559205 .39898683 .3755951 .3659973 .38459779 .27398683 .40760804 .21598816 .4216156 .19999695 .42562867 .16999817 .4516449 .16299439 .45765687 .1349945 .48667909 .1349945 .53071597 .1349945 .58976748 .18899536 .6498108 .2809906 .6498108 .36499024 .6498108 .41299439 .6167908 .44999696 .5857544L.46499635 .66581729C.4099884 .69880679 .35499574 .7158203 .28199769 .7158203 .14299011 .7158203 .055999757 .6177826 .055999757 .5187073 .055999757 .47566224 .069992069 .43362428 .10998535 .39160157 .1519928 .34658814 .19599915 .33459474 .25498963 .32058717 .33999635 .29959107 .34999085 .29658509 .37799073 .27157594 .397995 .25457765 .41999818 .22157288 .41999818 .17855835 .41999818 .11254883 .36499024 .046524049 .27398683 .046524049 .23298645 .046524049 .14299011 .056533815 .05899048 .12754822L.04399109 .046524049C.13198853-.008468628 .21199036-.022460938 .2749939-.022460938 .40699769-.022460938 .49899293 .07853699 .49899293 .18856812Z"/>
<path id="font_1_70" d="M.47099305 0 .2809906 .27212525 .44898988 .4441986H.35899354L.1559906 .23609925V.69433596H.083999637V0H.15299988V.1410675L.23298645 .22410584 .3889923 0H.47099305Z"/>
<path id="font_1_34" d="M.6100006 .18806458C.6100006 .27511598 .522995 .3461609 .4169922 .36317445 .5079956 .3861847 .58299258 .44421388 .58299258 .5202637 .58299258 .61231997 .47599793 .69433596 .33399964 .69433596H.09700012V0H.36099244C.5049896 .000076293948 .6100006 .09007263 .6100006 .18806458M.5049896 .5192108C.5049896 .45913697 .43399049 .3910675 .29599 .3910675H.17999268V.6383209H.30599977C.4169922 .6380768 .5049896 .58506777 .5049896 .5190735V.5192108M.5289917 .18902588C.5289917 .11401367 .44099427 .055999757 .33299256 .055999757H.17999268V.33007813H.32499696C.43099977 .32998658 .5289917 .2689972 .5289917 .18899536V.18902588Z"/>
<path id="font_1_49" d="M.55400088 0V.070999149H.42799378C.41600038 .070999149 .4039917 .069992069 .3919983 .069992069H.18299866V.32910157H.5130005V.39009095H.18299866V.6269684H.32099916C.33299256 .6269684 .34498597 .62597659 .35699464 .62597659H.5399933V.69096377H.09399414V0H.55400088Z"/>
<path id="font_1_91" d="M.43399049-.19335938V.45507813H.35899354V.3870697C.34899903 .4000702 .2999878 .45507813 .22200012 .45507813 .12199402 .45507813 .035995485 .35609437 .035995485 .22116089 .035995485 .09422302 .10899353-.0107421879 .20498657-.0107421879 .26098634-.0107421879 .31399537 .012252808 .35598756 .050247194V-.19335938H.43399049M.35899354 .14019776C.35899354 .12220764 .35899354 .12020874 .34899903 .10722351 .32299806 .06724548 .28599549 .050247194 .25 .050247194 .17399597 .050247194 .11399841 .12820435 .11399841 .22116089 .11399841 .32310487 .18598938 .3910675 .25898744 .3910675 .32798768 .3910675 .35899354 .32009889 .35899354 .28012086V.14019776Z"/>
<path id="font_1_109" d="M.43499757 .00024414063V.44433595H.35699464V.15426636C.35699464 .07925415 .30099488 .04425049 .23699951 .04425049 .1659851 .04425049 .15899658 .070251468 .15899658 .11326599V.44433595H.08099365V.10926819C.08099365 .037246705 .10398865-.0107421879 .18699646-.0107421879 .23999024-.0107421879 .31098939 .0052490236 .3600006 .04824829V.00024414063H.43499757Z"/>
<path id="font_1_81" d="M.46899415 .22009278C.46899415 .3539734 .36898805 .4609375 .25 .4609375 .1269989 .4609375 .02999878 .35098268 .02999878 .22009278 .02999878 .08821106 .13198853-.0107421879 .24899292-.0107421879 .36898805-.0107421879 .46899415 .09020996 .46899415 .22009278M.3909912 .23008728C.3909912 .112197879 .32299806 .053253175 .24899292 .053253175 .17999268 .053253175 .10798645 .109191898 .10798645 .23008728 .10798645 .35098268 .18399048 .39993287 .24899292 .39993287 .31900025 .39993287 .3909912 .34797669 .3909912 .23008728Z"/>
<path id="font_1_112" d="M.44599916 .44433595H.37098695L.2919922 .23617554C.2709961 .18113709 .23999024 .10006714 .23199463 .05303955H.23098755C.22499085 .08906555 .19898987 .15811157 .18899536 .18513489L.09199524 .44433595H.01399231L.18598938 0H.27398683L.44599916 .44433595Z"/>
<path id="font_1_42" d="M.58699038 .04525757 .58099368 .114227298C.5519867 .09423828 .522995 .07524109 .4889984 .06524658 .45700074 .054244996 .42199708 .053253175 .3880005 .053253175 .32299806 .053253175 .2639923 .08824158 .22299195 .13922119 .1769867 .19819641 .15499878 .27217103 .15499878 .3471527 .15499878 .42211915 .1769867 .49710084 .22299195 .55607607 .2639923 .60705569 .32299806 .64204409 .3880005 .64204409 .41799928 .64204409 .44898988 .63905337 .47799684 .63005068 .5079956 .62106326 .5359955 .60606387 .56199648 .58807376L.57598879 .67004397C.54599 .6820526 .5149994 .6920471 .48298646 .6980438 .45199586 .7040405 .41999818 .7060547 .3880005 .7060547 .2999878 .7060547 .21899414 .66604617 .1599884 .60105898 .09799194 .53108218 .06599426 .4401245 .06599426 .3471527 .06599426 .2541809 .09799194 .16320801 .1599884 .09423828 .21899414 .029251099 .2999878-.0107421879 .3880005-.0107421879 .4229889-.0107421879 .45799256-.009750366 .49198915 .00024414063 .526001 .009246826 .5569916 .027252198 .58699038 .04525757Z"/>
<path id="font_1_35" d="M.47999574 .22306824C.47999574 .34707643 .4119873 .45507813 .31799317 .45507813 .2789917 .45503236 .21699524 .44500733 .15699768 .39595033V.69433596H.08198547V-.000045776369L.1599884 .00024414063V.04624939C.18399048 .024246216 .22698975-.0107421879 .2939911-.0107421879 .3939972-.0107421879 .47999574 .08920288 .47999574 .22306824M.4019928 .22306824C.4019928 .09320068 .31799317 .050247194 .25698854 .050247194 .21798706 .050247194 .18499756 .068237308 .1599884 .11418152V.33496095C.17599488 .35906983 .21199036 .3940735 .2669983 .3940735 .32598878 .3940735 .4019928 .35107423 .4019928 .22306824Z"/>
<path id="font_1_118" d="M.44599916 .44433595H.37098695C.24099732 .12605286 .23899842 .08001709 .23799134 .056991579H.23699951C.23098755 .124053958 .15098572 .31021119 .14698792 .31921388L.09298706 .44433595H.01399231L.20799256 0 .17199707-.09005737C.1459961-.14808655 .1289978-.14808655 .114990238-.14808655 .09899902-.14808655 .066986087-.14408875 .036987306-.13208008L.042999269-.19708252C.06498718-.2020874 .09298706-.20507813 .114990238-.20507813 .1499939-.20483399 .18699646-.19282532 .22799683-.09082031L.44599916 .44433595Z"/>
<path id="font_1_62" d="M.61299136 0V.69433596H.5239868V.3910675H.18299866V.69433596H.09399414V0H.18299866V.33007813H.5239868V0H.61299136Z"/>
<path id="font_1_98" d="M.3600006 .12817383C.3600006 .18313599 .32299806 .21710205 .32099916 .22009278 .28199769 .25506593 .25498963 .26106263 .20498657 .27005006 .1499939 .28103639 .10398865 .29103089 .10398865 .33998109 .10398865 .40193177 .17599488 .40193177 .18899536 .40193177 .22099304 .40193177 .27398683 .39793397 .33099366 .3639679L.34298707 .42892457C.29100038 .45292665 .25 .4609375 .19898987 .4609375 .17399597 .4609375 .032989503 .4609375 .032989503 .32998658 .032989503 .28103639 .06199646 .24906922 .08699036 .23008728 .117996219 .20809937 .13999939 .20411682 .19499207 .19311524 .23098755 .18612671 .2889862 .1741333 .2889862 .1211853 .2889862 .052246095 .20999146 .052246095 .19499207 .052246095 .11399841 .052246095 .057998659 .08921814 .039993287 .10121155L.027999878 .0332489C.05999756 .01725769 .114990238-.0107421879 .19599915-.0107421879 .21398926-.0107421879 .2689972-.0107421879 .31199647 .021255494 .34298707 .04525757 .3600006 .08522034 .3600006 .12817383Z"/>
<path id="font_1_119" d="M.55999758 0V.06599426H.46398927L.20098877 .06399536H.16899109L.55400088 .6533356V.69433596H.068984989V.6323242H.2689972C.2809906 .6323242 .29299928 .6333313 .30499269 .6333313H.44099427L.055999757 .042999269V0H.55999758Z"/>
<path id="font_1_114" d="M.66799929 .44433595H.59498599L.5309906 .23216248C.519989 .19613648 .48999024 .09706116 .4850006 .054031373H.48399354C.47999574 .08505249 .45498658 .17411804 .43798829 .23117066L.37298585 .44433595H.30299378L.24598694 .25619508C.23498535 .22116089 .20098877 .1060791 .19699097 .055038454H.19599915C.19099427 .10307312 .1579895 .216156 .14199829 .27119447L.08999634 .44433595H.01399231L.15098572 0H.22999573L.2919922 .20614624C.30599977 .252182 .33399964 .35125733 .33699037 .3882904H.33799745C.33999635 .36026 .35699464 .291214 .36999513 .2481842L.44299317 0H.5309906L.66799929 .44433595Z"/>
<path id="font_1_113" d="M.92900088 .69433596H.8569946L.7659912 .38017274C.73999026 .2911377 .69200137 .123046878 .68699648 .072021488H.6859894C.6859894 .072021488 .6799927 .12504578 .6139984 .35316468L.5159912 .69433596H.43499757L.34498597 .38217164C.32299806 .30514527 .272995 .13005066 .2679901 .074020389H.2669983C.2630005 .11404419 .23599243 .21209717 .22799683 .24511719L.18099976 .41218568 .099990848 .69433596H.01399231L.21699524 0H.2979889L.397995 .3471527C.4189911 .42019654 .46199037 .56925967 .46798707 .6212921H.46899415C.47299195 .5912781 .49699403 .49623109 .5239868 .40118409L.6389923 0H.7259979L.92900088 .69433596Z"/>
<path id="font_1_55" d="M.34700013 .62709048V.69407656C.33499146 .69706729 .3039856 .7050781 .2669983 .7050781 .17298889 .7050781 .100997928 .634079 .100997928 .5342102V.44433595H.026992798V.38632203H.100997928V0H.17599488V.38632203H.28599549V.44433595H.17298889V.5631714C.17298889 .63708499 .23999024 .6440735 .2659912 .6440735 .28599549 .6440735 .31298829 .6420746 .34700013 .62709048Z"/>
</defs>
<path transform="matrix(1,0,0,-1,160.809,7.9820024)" stroke-width=".3985" stroke-linecap="butt" stroke-miterlimit="10" stroke-linejoin="miter" fill="none" stroke="#000000" d=""/>
<path transform="matrix(1,0,0,-1,160.809,7.9820024)" stroke-width=".3985" stroke-linecap="butt" stroke-miterlimit="10" stroke-linejoin="miter" fill="none" stroke="#0000ff" d="M-19.85545-6.91348-59.93092-20.86742"/>
<path transform="matrix(-.94437,.32881,.32881,.94437,100.87808,28.849423)" d="M1.99252 0-1.19551 1.59401 0 0-1.19551-1.59401" fill="#0000ff"/>
<path transform="matrix(1,0,0,-1,160.809,7.9820024)" stroke-width=".3985" stroke-linecap="butt" stroke-miterlimit="10" stroke-linejoin="miter" fill="none" stroke="#000000" d=""/>
<path transform="matrix(1,0,0,-1,160.809,7.9820024)" stroke-width=".3985" stroke-linecap="butt" stroke-miterlimit="10" stroke-linejoin="miter" fill="none" stroke="#0000ff" d="M19.85545-6.91348 57.47093-20.01088"/>
<path transform="matrix(.94437,.32881,.32881,-.94437,218.27994,27.992882)" d="M1.99252 0-1.19551 1.59401 0 0-1.19551-1.59401" fill="#0000ff"/>
<path transform="matrix(1,0,0,-1,160.809,7.9820024)" stroke-width=".3985" stroke-linecap="butt" stroke-miterlimit="10" stroke-linejoin="miter" fill="none" stroke="#000000" d=""/>
<path transform="matrix(1,0,0,-1,160.809,7.9820024)" stroke-width=".3985" stroke-linecap="butt" stroke-miterlimit="10" stroke-linejoin="miter" fill="none" stroke="#0000ff" d="M-96.3522-37.02576-115.26465-48.01207"/>
<path transform="matrix(-.86467,.50227,.50227,.86467,45.544359,55.994054)" d="M1.99252 0-1.19551 1.59401 0 0-1.19551-1.59401" fill="#0000ff"/>
<path transform="matrix(1,0,0,-1,160.809,7.9820024)" stroke-width=".3985" stroke-linecap="butt" stroke-miterlimit="10" stroke-linejoin="miter" fill="none" stroke="#000000" d=""/>
<path transform="matrix(1,0,0,-1,160.809,7.9820024)" stroke-width=".3985" stroke-linecap="butt" stroke-miterlimit="10" stroke-linejoin="miter" fill="none" stroke="#0000ff" d="M-79.77586-37.02576-77.91946-46.87488"/>
<path transform="matrix(.1852,.98265,.98265,-.1852,82.88955,54.856885)" d="M1.99252 0-1.19551 1.59401 0 0-1.19551-1.59401" fill="#0000ff"/>
<path transform="matrix(1,0,0,-1,160.809,7.9820024)" stroke-width=".3985" stroke-linecap="butt" stroke-miterlimit="10" stroke-linejoin="miter" fill="none" stroke="#000000" d=""/>
<path transform="matrix(1,0,0,-1,160.809,7.9820024)" stroke-width=".3985" stroke-linecap="butt" stroke-miterlimit="10" stroke-linejoin="miter" fill="none" stroke="#0000ff" d="M-66.47115-37.02576-47.55872-48.01207"/>
<path transform="matrix(.86467,.50227,.50227,-.86467,113.25029,55.994054)" d="M1.99252 0-1.19551 1.59401 0 0-1.19551-1.59401" fill="#0000ff"/>
<path transform="matrix(1,0,0,-1,160.809,7.9820024)" stroke-width=".3985" stroke-linecap="butt" stroke-miterlimit="10" stroke-linejoin="miter" fill="none" stroke="#000000" d=""/>
<path transform="matrix(1,0,0,-1,160.809,7.9820024)" stroke-width=".3985" stroke-linecap="butt" stroke-miterlimit="10" stroke-linejoin="miter" fill="none" stroke="#0000ff" d="M67.56259-36.02757 47.66185-47.06464"/>
<path transform="matrix(-.8745,.485,.485,.8745,208.47086,55.046644)" d="M1.99252 0-1.19551 1.59401 0 0-1.19551-1.59401" fill="#0000ff"/>
<path transform="matrix(1,0,0,-1,160.809,7.9820024)" stroke-width=".3985" stroke-linecap="butt" stroke-miterlimit="10" stroke-linejoin="miter" fill="none" stroke="#000000" d=""/>
<path transform="matrix(1,0,0,-1,160.809,7.9820024)" stroke-width=".3985" stroke-linecap="butt" stroke-miterlimit="10" stroke-linejoin="miter" fill="none" stroke="#0000ff" d="M83.01183-36.02757 85.31075-47.06227"/>
<path transform="matrix(.20393,.97894,.97894,-.20393,246.11974,55.044275)" d="M1.99252 0-1.19551 1.59401 0 0-1.19551-1.59401" fill="#0000ff"/>
<path transform="matrix(1,0,0,-1,160.809,7.9820024)" stroke-width=".3985" stroke-linecap="butt" stroke-miterlimit="10" stroke-linejoin="miter" fill="none" stroke="#000000" d=""/>
<path transform="matrix(1,0,0,-1,160.809,7.9820024)" stroke-width=".3985" stroke-linecap="butt" stroke-miterlimit="10" stroke-linejoin="miter" fill="none" stroke="#0000ff" d="M95.26076-36.02757 116.81381-47.981"/>
<path transform="matrix(.8745,.485,.485,-.8745,277.6228,55.963)" d="M1.99252 0-1.19551 1.59401 0 0-1.19551-1.59401" fill="#0000ff"/>
<path transform="matrix(1,0,0,-1,160.809,7.9820024)" stroke-width=".3985" stroke-linecap="butt" stroke-miterlimit="10" stroke-linejoin="miter" fill="none" stroke="#000000" d=""/>
<path transform="matrix(1,0,0,-1,160.809,7.9820024)" stroke-width=".3985" stroke-linecap="butt" stroke-miterlimit="10" stroke-linejoin="miter" fill="none" stroke="#0000ff" d="M-130.20967-64.37437V-75.18712"/>
<path transform="matrix(0,1,1,0,30.599335,83.16912)" d="M1.99252 0-1.19551 1.59401 0 0-1.19551-1.59401" fill="#0000ff"/>
<path transform="matrix(1,0,0,-1,160.809,7.9820024)" stroke-width=".3985" stroke-linecap="butt" stroke-miterlimit="10" stroke-linejoin="miter" fill="none" stroke="#000000" d=""/>
<path transform="matrix(1,0,0,-1,160.809,7.9820024)" stroke-width=".3985" stroke-linecap="butt" stroke-miterlimit="10" stroke-linejoin="miter" fill="none" stroke="#0000ff" d="M-76.06888-64.55437V-75.30167"/>
<path transform="matrix(0,1,1,0,84.74013,83.28367)" d="M1.99252 0-1.19551 1.59401 0 0-1.19551-1.59401" fill="#0000ff"/>
<path transform="matrix(1,0,0,-1,160.809,7.9820024)" stroke-width=".3985" stroke-linecap="butt" stroke-miterlimit="10" stroke-linejoin="miter" fill="none" stroke="#000000" d=""/>
<path transform="matrix(1,0,0,-1,160.809,7.9820024)" stroke-width=".3985" stroke-linecap="butt" stroke-miterlimit="10" stroke-linejoin="miter" fill="none" stroke="#0000ff" d="M-32.61368-64.37437V-74.24347"/>
<path transform="matrix(0,1,1,0,128.19533,82.22547)" d="M1.99252 0-1.19551 1.59401 0 0-1.19551-1.59401" fill="#0000ff"/>
<path transform="matrix(1,0,0,-1,160.809,7.9820024)" stroke-width=".3985" stroke-linecap="butt" stroke-miterlimit="10" stroke-linejoin="miter" fill="none" stroke="#000000" d=""/>
<path transform="matrix(1,0,0,-1,160.809,7.9820024)" stroke-width=".3985" stroke-linecap="butt" stroke-miterlimit="10" stroke-linejoin="miter" fill="none" stroke="#0000ff" d="M24.1836-65.35619 16.85745-75.73203"/>
<path transform="matrix(-.57674,.81686,.81686,.57674,177.66648,83.71401)" d="M1.99252 0-1.19551 1.59401 0 0-1.19551-1.59401" fill="#0000ff"/>
<path transform="matrix(1,0,0,-1,160.809,7.9820024)" stroke-width=".3985" stroke-linecap="butt" stroke-miterlimit="10" stroke-linejoin="miter" fill="none" stroke="#000000" d=""/>
<path transform="matrix(1,0,0,-1,160.809,7.9820024)" stroke-width=".3985" stroke-linecap="butt" stroke-miterlimit="10" stroke-linejoin="miter" fill="none" stroke="#0000ff" d="M36.4164-65.35619 43.74252-75.73203"/>
<path transform="matrix(.57674,.81686,.81686,-.57674,204.55152,83.71401)" d="M1.99252 0-1.19551 1.59401 0 0-1.19551-1.59401" fill="#0000ff"/>
<path transform="matrix(1,0,0,-1,160.809,7.9820024)" stroke-width=".3985" stroke-linecap="butt" stroke-miterlimit="10" stroke-linejoin="miter" fill="none" stroke="#000000" d=""/>
<path transform="matrix(1,0,0,-1,160.809,7.9820024)" stroke-width=".3985" stroke-linecap="butt" stroke-miterlimit="10" stroke-linejoin="miter" fill="none" stroke="#0000ff" d="M87.31723-64.37437V-75.30167"/>
<path transform="matrix(0,1,1,0,248.12624,83.28367)" d="M1.99252 0-1.19551 1.59401 0 0-1.19551-1.59401" fill="#0000ff"/>
<path transform="matrix(1,0,0,-1,160.809,7.9820024)" stroke-width=".3985" stroke-linecap="butt" stroke-miterlimit="10" stroke-linejoin="miter" fill="none" stroke="#000000" d=""/>
<path transform="matrix(1,0,0,-1,160.809,7.9820024)" stroke-width=".3985" stroke-linecap="butt" stroke-miterlimit="10" stroke-linejoin="miter" fill="none" stroke="#0000ff" d="M132.52336-64.4398V-75.30714"/>
<path transform="matrix(0,1,1,0,293.33238,83.28914)" d="M1.99252 0-1.19551 1.59401 0 0-1.19551-1.59401" fill="#0000ff"/>
<path transform="matrix(1,0,0,-1,160.809,7.9820024)" d="M-19.65619-7.4815H19.65621V7.4815299H-19.65619Z" fill="#ffffff"/>
<use data-text="A" xlink:href="#font_1_27" transform="matrix(10.90909,0,0,-10.90909,144.789,11.707001)"/>
<use data-text="n" xlink:href="#font_1_77" transform="matrix(10.90909,0,0,-10.90909,152.06537,11.707001)"/>
<use data-text="i" xlink:href="#font_1_66" transform="matrix(10.90909,0,0,-10.90909,157.70537,11.707001)"/>
<use data-text="m" xlink:href="#font_1_75" transform="matrix(10.90909,0,0,-10.90909,160.31264,11.707001)"/>
<use data-text="a" xlink:href="#font_1_28" transform="matrix(10.90909,0,0,-10.90909,168.97446,11.707001)"/>
<use data-text="l" xlink:href="#font_1_72" transform="matrix(10.90909,0,0,-10.90909,174.22173,11.707001)"/>
<path transform="matrix(1,0,0,-1,79.399,36.328004)" d="M-19.39983-8.4797H19.399842V8.47971H-19.39983Z" fill="#ffffff"/>
<use data-text="R" xlink:href="#font_1_95" transform="matrix(10.90909,0,0,-10.90909,63.635004,39.055009)"/>
<use data-text="e" xlink:href="#font_1_50" transform="matrix(10.90909,0,0,-10.90909,70.68228,39.055009)"/>
<use data-text="p" xlink:href="#font_1_84" transform="matrix(10.90909,0,0,-10.90909,75.52591,39.055009)"/>
<use data-text="t" xlink:href="#font_1_105" transform="matrix(10.90909,0,0,-10.90909,81.16591,39.055009)"/>
<use data-text="i" xlink:href="#font_1_66" transform="matrix(10.90909,0,0,-10.90909,85.104099,39.055009)"/>
<use data-text="l" xlink:href="#font_1_72" transform="matrix(10.90909,0,0,-10.90909,87.711368,39.055009)"/>
<use data-text="e" xlink:href="#font_1_50" transform="matrix(10.90909,0,0,-10.90909,90.318637,39.055009)"/>
<path transform="matrix(1,0,0,-1,242.22,36.328004)" d="M-23.6217-7.4815H23.62172V7.4815299H-23.6217Z" fill="#ffffff"/>
<use data-text="M" xlink:href="#font_1_74" transform="matrix(10.90909,0,0,-10.90909,222.235,40.05401)"/>
<use data-text="a" xlink:href="#font_1_28" transform="matrix(10.90909,0,0,-10.90909,231.78046,40.05401)"/>
<use data-text="m" xlink:href="#font_1_75" transform="matrix(10.90909,0,0,-10.90909,237.02773,40.05401)"/>
<use data-text="m" xlink:href="#font_1_75" transform="matrix(10.90909,0,0,-10.90909,245.68955,40.05401)"/>
<use data-text="a" xlink:href="#font_1_28" transform="matrix(10.90909,0,0,-10.90909,254.35137,40.05401)"/>
<use data-text="l" xlink:href="#font_1_72" transform="matrix(10.90909,0,0,-10.90909,259.59864,40.05401)"/>
<path transform="matrix(1,0,0,-1,30.601014,64.675)" d="M-17.42526-7.4815H17.42526V7.4815299H-17.42526Z" fill="#ffffff"/>
<use data-text="L" xlink:href="#font_1_71" transform="matrix(10.90909,0,0,-10.90909,16.812014,68.40001)"/>
<use data-text="i" xlink:href="#font_1_66" transform="matrix(10.90909,0,0,-10.90909,22.724741,68.40001)"/>
<use data-text="z" xlink:href="#font_1_120" transform="matrix(10.90909,0,0,-10.90909,25.332015,68.40001)"/>
<use data-text="a" xlink:href="#font_1_28" transform="matrix(10.90909,0,0,-10.90909,30.077469,68.40001)"/>
<use data-text="r" xlink:href="#font_1_96" transform="matrix(10.90909,0,0,-10.90909,35.019289,68.40001)"/>
<use data-text="d" xlink:href="#font_1_47" transform="matrix(10.90909,0,0,-10.90909,38.7502,68.40001)"/>
<path transform="matrix(1,0,0,-1,84.741008,64.675)" d="M-17.0489-7.6615H17.04892V7.6615107H-17.0489Z" fill="#ffffff"/>
<use data-text="S" xlink:href="#font_1_97" transform="matrix(10.90909,0,0,-10.90909,71.329,68.46001)"/>
<use data-text="n" xlink:href="#font_1_77" transform="matrix(10.90909,0,0,-10.90909,77.394458,68.46001)"/>
<use data-text="a" xlink:href="#font_1_28" transform="matrix(10.90909,0,0,-10.90909,83.034458,68.46001)"/>
<use data-text="k" xlink:href="#font_1_70" transform="matrix(10.90909,0,0,-10.90909,88.28172,68.46001)"/>
<use data-text="e" xlink:href="#font_1_50" transform="matrix(10.90909,0,0,-10.90909,93.310817,68.46001)"/>
<path transform="matrix(1,0,0,-1,128.19602,64.675)" d="M-13.2634-7.4815H13.26341V7.4815299H-13.2634Z" fill="#ffffff"/>
<use data-text="B" xlink:href="#font_1_34" transform="matrix(10.90909,0,0,-10.90909,118.569019,68.40001)"/>
<use data-text="i" xlink:href="#font_1_66" transform="matrix(10.90909,0,0,-10.90909,125.84538,68.40001)"/>
<use data-text="r" xlink:href="#font_1_96" transform="matrix(10.90909,0,0,-10.90909,128.45265,68.40001)"/>
<use data-text="d" xlink:href="#font_1_47" transform="matrix(10.90909,0,0,-10.90909,132.18357,68.40001)"/>
<path transform="matrix(1,0,0,-1,191.10901,64.675)" d="M-19.07802-8.46333H19.078032V8.46334H-19.07802Z" fill="#ffffff"/>
<use data-text="E" xlink:href="#font_1_49" transform="matrix(10.90909,0,0,-10.90909,175.667,67.38501)"/>
<use data-text="q" xlink:href="#font_1_91" transform="matrix(10.90909,0,0,-10.90909,182.17974,67.38501)"/>
<use data-text="u" xlink:href="#font_1_109" transform="matrix(10.90909,0,0,-10.90909,187.81974,67.38501)"/>
<use data-text="i" xlink:href="#font_1_66" transform="matrix(10.90909,0,0,-10.90909,193.45973,67.38501)"/>
<use data-text="n" xlink:href="#font_1_77" transform="matrix(10.90909,0,0,-10.90909,196.067,67.38501)"/>
<use data-text="e" xlink:href="#font_1_50" transform="matrix(10.90909,0,0,-10.90909,201.707,67.38501)"/>
<path transform="matrix(1,0,0,-1,248.126,64.675)" d="M-19.06165-7.4815H19.06165V7.4815299H-19.06165Z" fill="#ffffff"/>
<use data-text="B" xlink:href="#font_1_34" transform="matrix(10.90909,0,0,-10.90909,232.70001,68.40001)"/>
<use data-text="o" xlink:href="#font_1_81" transform="matrix(10.90909,0,0,-10.90909,239.97638,68.40001)"/>
<use data-text="v" xlink:href="#font_1_112" transform="matrix(10.90909,0,0,-10.90909,245.43093,68.40001)"/>
<use data-text="i" xlink:href="#font_1_66" transform="matrix(10.90909,0,0,-10.90909,250.46,68.40001)"/>
<use data-text="n" xlink:href="#font_1_77" transform="matrix(10.90909,0,0,-10.90909,253.06728,68.40001)"/>
<use data-text="e" xlink:href="#font_1_50" transform="matrix(10.90909,0,0,-10.90909,258.70729,68.40001)"/>
<path transform="matrix(1,0,0,-1,293.331,64.675)" d="M-19.11075-7.54695H19.110762V7.54697H-19.11075Z" fill="#ffffff"/>
<use data-text="C" xlink:href="#font_1_42" transform="matrix(10.90909,0,0,-10.90909,277.857,68.46501)"/>
<use data-text="a" xlink:href="#font_1_28" transform="matrix(10.90909,0,0,-10.90909,284.8279,68.46501)"/>
<use data-text="n" xlink:href="#font_1_77" transform="matrix(10.90909,0,0,-10.90909,290.0752,68.46501)"/>
<use data-text="i" xlink:href="#font_1_66" transform="matrix(10.90909,0,0,-10.90909,295.7152,68.46501)"/>
<use data-text="n" xlink:href="#font_1_77" transform="matrix(10.90909,0,0,-10.90909,298.32249,68.46501)"/>
<use data-text="e" xlink:href="#font_1_50" transform="matrix(10.90909,0,0,-10.90909,303.9625,68.46501)"/>
<path transform="matrix(1,0,0,-1,30.601014,93.021)" d="M-30.10179-7.6615H30.101813V7.6615107H-30.10179Z" fill="#ffffff"/>
<use data-text="S" xlink:href="#font_1_97" transform="matrix(10.90909,0,0,-10.90909,4.136013,96.80601)"/>
<use data-text="a" xlink:href="#font_1_28" transform="matrix(10.90909,0,0,-10.90909,10.2014679,96.80601)"/>
<use data-text="l" xlink:href="#font_1_72" transform="matrix(10.90909,0,0,-10.90909,15.44874,96.80601)"/>
<use data-text="a" xlink:href="#font_1_28" transform="matrix(10.90909,0,0,-10.90909,18.056014,96.80601)"/>
<use data-text="m" xlink:href="#font_1_75" transform="matrix(10.90909,0,0,-10.90909,23.303286,96.80601)"/>
<use data-text="a" xlink:href="#font_1_28" transform="matrix(10.90909,0,0,-10.90909,31.965104,96.80601)"/>
<use data-text="n" xlink:href="#font_1_77" transform="matrix(10.90909,0,0,-10.90909,37.212377,96.80601)"/>
<use data-text="d" xlink:href="#font_1_47" transform="matrix(10.90909,0,0,-10.90909,42.852376,96.80601)"/>
<use data-text="e" xlink:href="#font_1_50" transform="matrix(10.90909,0,0,-10.90909,48.492376,96.80601)"/>
<use data-text="r" xlink:href="#font_1_96" transform="matrix(10.90909,0,0,-10.90909,53.33601,96.80601)"/>
<path transform="matrix(1,0,0,-1,84.741008,93.021)" d="M-17.00528-7.54695H17.00528V7.54697H-17.00528Z" fill="#ffffff"/>
<use data-text="C" xlink:href="#font_1_42" transform="matrix(10.90909,0,0,-10.90909,71.372,96.812007)"/>
<use data-text="o" xlink:href="#font_1_81" transform="matrix(10.90909,0,0,-10.90909,78.34291,96.812007)"/>
<use data-text="b" xlink:href="#font_1_35" transform="matrix(10.90909,0,0,-10.90909,83.797458,96.812007)"/>
<use data-text="r" xlink:href="#font_1_96" transform="matrix(10.90909,0,0,-10.90909,89.131999,96.812007)"/>
<use data-text="a" xlink:href="#font_1_28" transform="matrix(10.90909,0,0,-10.90909,92.86291,96.812007)"/>
<path transform="matrix(1,0,0,-1,128.19602,93.021)" d="M-19.4162-8.60515H19.416209V8.60515H-19.4162Z" fill="#ffffff"/>
<use data-text="C" xlink:href="#font_1_42" transform="matrix(10.90909,0,0,-10.90909,112.416019,95.754009)"/>
<use data-text="a" xlink:href="#font_1_28" transform="matrix(10.90909,0,0,-10.90909,119.386928,95.754009)"/>
<use data-text="n" xlink:href="#font_1_77" transform="matrix(10.90909,0,0,-10.90909,124.6342,95.754009)"/>
<use data-text="a" xlink:href="#font_1_28" transform="matrix(10.90909,0,0,-10.90909,130.2742,95.754009)"/>
<use data-text="r" xlink:href="#font_1_96" transform="matrix(10.90909,0,0,-10.90909,135.21602,95.754009)"/>
<use data-text="y" xlink:href="#font_1_118" transform="matrix(10.90909,0,0,-10.90909,138.94693,95.754009)"/>
<path transform="matrix(1,0,0,-1,171.09401,93.021)" d="M-16.4489-7.4815H16.4489V7.4815299H-16.4489Z" fill="#ffffff"/>
<use data-text="H" xlink:href="#font_1_62" transform="matrix(10.90909,0,0,-10.90909,158.28202,96.746)"/>
<use data-text="o" xlink:href="#font_1_81" transform="matrix(10.90909,0,0,-10.90909,166.00565,96.746)"/>
<use data-text="r" xlink:href="#font_1_96" transform="matrix(10.90909,0,0,-10.90909,171.15474,96.746)"/>
<use data-text="s" xlink:href="#font_1_98" transform="matrix(10.90909,0,0,-10.90909,174.88565,96.746)"/>
<use data-text="e" xlink:href="#font_1_50" transform="matrix(10.90909,0,0,-10.90909,179.06383,96.746)"/>
<path transform="matrix(1,0,0,-1,211.12401,93.021)" d="M-16.54707-7.4815H16.547081V7.4815299H-16.54707Z" fill="#ffffff"/>
<use data-text="Z" xlink:href="#font_1_119" transform="matrix(10.90909,0,0,-10.90909,198.21302,96.746)"/>
<use data-text="e" xlink:href="#font_1_50" transform="matrix(10.90909,0,0,-10.90909,204.87847,96.746)"/>
<use data-text="b" xlink:href="#font_1_35" transform="matrix(10.90909,0,0,-10.90909,209.7221,96.746)"/>
<use data-text="r" xlink:href="#font_1_96" transform="matrix(10.90909,0,0,-10.90909,215.05666,96.746)"/>
<use data-text="a" xlink:href="#font_1_28" transform="matrix(10.90909,0,0,-10.90909,218.78757,96.746)"/>
<path transform="matrix(1,0,0,-1,248.126,93.021)" d="M-13.42159-7.54695H13.421599V7.54697H-13.42159Z" fill="#ffffff"/>
<use data-text="C" xlink:href="#font_1_42" transform="matrix(10.90909,0,0,-10.90909,238.34001,96.812007)"/>
<use data-text="o" xlink:href="#font_1_81" transform="matrix(10.90909,0,0,-10.90909,245.31093,96.812007)"/>
<use data-text="w" xlink:href="#font_1_114" transform="matrix(10.90909,0,0,-10.90909,250.46002,96.812007)"/>
<path transform="matrix(1,0,0,-1,293.331,93.021)" d="M-14.33249-7.54149H14.332511V7.54151H-14.33249Z" fill="#ffffff"/>
<use data-text="W" xlink:href="#font_1_113" transform="matrix(10.90909,0,0,-10.90909,282.63499,96.80601)"/>
<use data-text="o" xlink:href="#font_1_81" transform="matrix(10.90909,0,0,-10.90909,292.62773,96.80601)"/>
<use data-text="l" xlink:href="#font_1_72" transform="matrix(10.90909,0,0,-10.90909,298.08229,96.80601)"/>
<use data-text="f" xlink:href="#font_1_55" transform="matrix(10.90909,0,0,-10.90909,300.68955,96.80601)"/>
</svg>
