<svg xmlns="http://www.w3.org/2000/svg" xmlns:xlink="http://www.w3.org/1999/xlink" xmlns:inkscape="http://www.inkscape.org/namespaces/inkscape" version="1.1" width="144.923" height="99.89" viewBox="0 0 144.923 99.89">
<defs>
<path id="font_1_27" d="M.6569977 0 .3889923 .69433596H.29699708L.0289917 0H.10798645L.18399048 .19921875H.48098756L.55799868 0H.6569977M.45700074 .25820924H.20799256L.33198548 .62031558 .45700074 .25820924Z"/>
<path id="font_1_49" d="M.57299807 0V.07598877H.47299195L.19099427 .07398987V.32714845H.5299988V.39213563H.19099427V.62309268H.22898865L.47299195 .62109377H.5589905V.6910858H.09498596V0H.57299807Z"/>
<path id="font_1_54" d="M.54499819 .62109377V.6910858H.09498596V0H.19099427V.31292726H.5019989V.3779297H.19099427V.62309268H.22499085L.46199037 .62109377H.54499819Z"/>
<path id="font_1_58" d="M.61499026 .038253786V.30033876H.397995V.23535156H.5309906V.07725525C.48799134 .06425476 .44299317 .057250978 .397995 .057250978 .33299256 .057250978 .272995 .09126282 .23098755 .14228821 .18399048 .20033264 .1619873 .27334596 .1619873 .3473053 .1619873 .4222412 .18399048 .49517823 .23098755 .5521393 .272995 .60310366 .33299256 .6370697 .397995 .6370697 .43299867 .6370697 .46798707 .6330719 .5 .6220856 .5339966 .61009219 .5629883 .5911102 .59098818 .5681305L.60598757 .6560669C.57398989 .67207339 .5399933 .6860657 .5049896 .69407656 .46998597 .70207217 .43399049 .7050781 .397995 .7050781 .30899049 .7050781 .22399903 .66607668 .16299439 .60009768 .099990848 .53215029 .06599426 .44122315 .06599426 .3473053 .06599426 .25434876 .099990848 .16329956 .16299439 .0942688 .22399903 .028244019 .30899049-.0107421879 .397995-.0107421879 .47299195-.0107421879 .5469971 .0062561037 .61499026 .038253786Z"/>
<path id="font_1_69" d="M.67099 0 .38198854 .42019654 .6559906 .69433596H.55799868L.18899536 .32614137V.69433596H.09799194V0H.18899536V.22810364L.32299806 .36116029 .57199099 0H.67099Z"/>
<path id="font_1_62" d="M.6309967 0V.69433596H.5349884V.39311219H.19099427V.69433596H.09498596V0H.19099427V.328125H.5349884V0H.6309967Z"/>
<path id="font_1_65" d="M.19099427 0V.69433596H.09498596V0H.19099427Z"/>
<path id="font_1_67" d="M.39898683 .14866638V.69433596H.30599977V.15167237C.30599977 .13464356 .30599977 .042526246 .18699646 .042526246 .13398743 .042526246 .085998538 .06855774 .056991579 .099594119L.042999269 .01953125C.114990238-.016464234 .17999268-.022460938 .21899414-.022460938 .32199098-.022460938 .39898683 .03253174 .39898683 .14866638Z"/>
<path id="font_1_42" d="M.6029968 .04525757 .5970001 .11923218C.5669861 .099243167 .5369873 .08024597 .5029907 .069244388 .46899415 .059249879 .43399049 .057250978 .397995 .057250978 .33299256 .057250978 .272995 .0912323 .23098755 .14222718 .18399048 .20021057 .1619873 .2731781 .1619873 .3471527 .1619873 .4221344 .18399048 .4951172 .23098755 .5520935 .272995 .6030731 .33299256 .6370697 .397995 .6370697 .42999269 .6370697 .46099855 .6340637 .4909973 .6250763 .5219879 .6160736 .5499878 .6000824 .57598879 .5820923L.59199526 .67007449C.5609894 .6820679 .5289917 .69207766 .49598695 .69706729 .46398927 .70306399 .43099977 .7050781 .397995 .7050781 .30899049 .7050781 .22399903 .66607668 .16299439 .6000824 .099990848 .5321045 .06599426 .4411316 .06599426 .3471527 .06599426 .25419618 .099990848 .16322327 .16299439 .09423828 .22399903 .028244019 .30899049-.0107421879 .397995-.0107421879 .43399049-.0107421879 .46998597-.008743286 .5049896 .00024414063 .5399933 .009246826 .57199099 .027252198 .6029968 .04525757Z"/>
<path id="font_1_46" d="M.68499758 .341156C.68499758 .5372772 .5439911 .69433596 .36999513 .69433596H.09700012V0H.36999513C.5439911 0 .68499758 .15205384 .68499758 .341156M.59199526 .341156C.59199526 .1660614 .48098756 .05899048 .34498597 .05899048H.18998719V.6353302H.34399415C.48199464 .6353302 .59199526 .5222626 .59199526 .341156Z"/>
<path id="font_1_71" d="M.5159912 0V.069992069H.47200013L.22898865 .067993167H.19099427V.69433596H.09498596V0H.5159912Z"/>
<path id="font_1_74" d="M.79499819 0V.69433596H.6749878L.54100039 .3521576C.5149994 .28512574 .46099855 .14706421 .44898988 .09803772H.44799806C.43798829 .13905335 .3919983 .26011659 .37298585 .308136L.23999024 .64930728 .22200012 .69433596H.101989749V0H.18399048V.61628726H.18499756C.19699097 .5649872 .25498963 .41600038 .2659912 .3880005L.37599183 .10598755 .40899659 .021987915H.4850006L.6230011 .37399293C.6380005 .41099549 .69898989 .56900027 .71199038 .6159973H.71299746V0H.79499819Z"/>
</defs>
<path transform="matrix(1,0,0,-1,72.461,6.1689989)" d="M-43.14748-36.06079-56.06631-48.97963C-60.32669-53.23999-59.7166-59.40273-54.70366-62.74466L-30.33675-78.98936C-25.32379-82.3313-16.37595-85.0404-10.35086-85.0404H-3.82251C2.20255-85.0404 4.90263-80.6722 2.20839-75.2836L-2.20839-66.45042C-4.90263-61.06183-10.54024-53.23999-14.80052-48.97963L-27.71968-36.06079C-31.97995-31.80042-38.88712-31.80042-43.14748-36.06079Z" fill="#9999ff"/>
<path transform="matrix(1,0,0,-1,72.461,6.1689989)" stroke-width="16.36383" stroke-linecap="round" stroke-miterlimit="10" stroke-linejoin="miter" fill="none" stroke="#9999ff" d="M-43.14748-36.06079-56.06631-48.97963C-60.32669-53.23999-59.7166-59.40273-54.70366-62.74466L-30.33675-78.98936C-25.32379-82.3313-16.37595-85.0404-10.35086-85.0404H-3.82251C2.20255-85.0404 4.90263-80.6722 2.20839-75.2836L-2.20839-66.45042C-4.90263-61.06183-10.54024-53.23999-14.80052-48.97963L-27.71968-36.06079C-31.97995-31.80042-38.88712-31.80042-43.14748-36.06079Z"/>
<path transform="matrix(1,0,0,-1,72.461,6.1689989)" d="M30.55518-38.10378 26.13841-46.93663C23.44417-52.32532 23.44417-61.0619 26.13841-66.45059L30.55518-75.28343C33.24942-80.67212 40.31764-85.0404 46.34273-85.0404H52.87108C58.89615-85.0404 61.59624-80.6722 58.902-75.2836L40.31181-38.1036C37.61757-32.71501 33.24942-32.71509 30.55518-38.10378Z" fill="#9999ff"/>
<path transform="matrix(1,0,0,-1,72.461,6.1689989)" stroke-width="16.36383" stroke-linecap="round" stroke-miterlimit="10" stroke-linejoin="miter" fill="none" stroke="#9999ff" d="M30.55518-38.10378 26.13841-46.93663C23.44417-52.32532 23.44417-61.0619 26.13841-66.45059L30.55518-75.28343C33.24942-80.67212 40.31764-85.0404 46.34273-85.0404H52.87108C58.89615-85.0404 61.59624-80.6722 58.902-75.2836L40.31181-38.1036C37.61757-32.71501 33.24942-32.71509 30.55518-38.10378Z"/>
<path transform="matrix(1,0,0,-1,72.461,6.1689989)" stroke-width=".3985" stroke-linecap="butt" stroke-miterlimit="10" stroke-linejoin="miter" fill="none" stroke="#000000" d=""/>
<path transform="matrix(1,0,0,-1,72.461,6.1689989)" stroke-width=".3985" stroke-linecap="butt" stroke-miterlimit="10" stroke-linejoin="miter" fill="none" stroke="#0000ff" d="M-4.58278-3.66623-29.2949-23.43591"/>
<path transform="matrix(-.78082,.62466,.62466,.78082,43.1661,29.604899)" d="M1.99252 0-1.19551 1.59401 0 0-1.19551-1.59401" fill="#0000ff"/>
<path transform="matrix(1,0,0,-1,72.461,6.1689989)" stroke-width=".3985" stroke-linecap="butt" stroke-miterlimit="10" stroke-linejoin="miter" fill="none" stroke="#000000" d=""/>
<path transform="matrix(1,0,0,-1,72.461,6.1689989)" stroke-width=".3985" stroke-linecap="butt" stroke-miterlimit="10" stroke-linejoin="miter" fill="none" stroke="#0000ff" d="M4.58278-3.66623 29.2949-23.43591"/>
<path transform="matrix(.78082,.62466,.62466,-.78082,101.7559,29.604899)" d="M1.99252 0-1.19551 1.59401 0 0-1.19551-1.59401" fill="#0000ff"/>
<path transform="matrix(1,0,0,-1,72.461,6.1689989)" stroke-width=".3985" stroke-linecap="butt" stroke-miterlimit="10" stroke-linejoin="miter" fill="none" stroke="#000000" d=""/>
<path transform="matrix(1,0,0,-1,72.461,6.1689989)" stroke-width=".3985" stroke-linecap="butt" stroke-miterlimit="10" stroke-linejoin="miter" fill="none" stroke="#0000ff" d="M-39.58325-32.49655-58.22163-51.13493"/>
<path transform="matrix(-.7071,.7071,.7071,.7071,14.239368,57.30393)" d="M1.99252 0-1.19551 1.59401 0 0-1.19551-1.59401" fill="#0000ff"/>
<path transform="matrix(1,0,0,-1,72.461,6.1689989)" stroke-width=".3985" stroke-linecap="butt" stroke-miterlimit="10" stroke-linejoin="miter" fill="none" stroke="#000000" d=""/>
<path transform="matrix(1,0,0,-1,72.461,6.1689989)" stroke-width=".3985" stroke-linecap="butt" stroke-miterlimit="10" stroke-linejoin="miter" fill="none" stroke="#0000ff" d="M-35.43349-34.21541V-48.83247"/>
<path transform="matrix(0,1,1,0,37.027509,55.00147)" d="M1.99252 0-1.19551 1.59401 0 0-1.19551-1.59401" fill="#0000ff"/>
<path transform="matrix(1,0,0,-1,72.461,6.1689989)" stroke-width=".3985" stroke-linecap="butt" stroke-miterlimit="10" stroke-linejoin="miter" fill="none" stroke="#000000" d=""/>
<path transform="matrix(1,0,0,-1,72.461,6.1689989)" stroke-width=".3985" stroke-linecap="butt" stroke-miterlimit="10" stroke-linejoin="miter" fill="none" stroke="#0000ff" d="M-31.28375-32.49655-12.64536-51.13493"/>
<path transform="matrix(.7071,.7071,.7071,-.7071,59.81564,57.30393)" d="M1.99252 0-1.19551 1.59401 0 0-1.19551-1.59401" fill="#0000ff"/>
<path transform="matrix(1,0,0,-1,72.461,6.1689989)" stroke-width=".3985" stroke-linecap="butt" stroke-miterlimit="10" stroke-linejoin="miter" fill="none" stroke="#000000" d=""/>
<path transform="matrix(1,0,0,-1,72.461,6.1689989)" stroke-width=".3985" stroke-linecap="butt" stroke-miterlimit="10" stroke-linejoin="miter" fill="none" stroke="#0000ff" d="M-9.71176-61.94376-17.74402-78.00822"/>
<path transform="matrix(-.44717,.89436,.89436,.44717,54.71698,84.177219)" d="M1.99252 0-1.19551 1.59401 0 0-1.19551-1.59401" fill="#0000ff"/>
<path transform="matrix(1,0,0,-1,72.461,6.1689989)" stroke-width=".3985" stroke-linecap="butt" stroke-miterlimit="10" stroke-linejoin="miter" fill="none" stroke="#000000" d=""/>
<path transform="matrix(1,0,0,-1,72.461,6.1689989)" stroke-width=".3985" stroke-linecap="butt" stroke-miterlimit="10" stroke-linejoin="miter" fill="none" stroke="#0000ff" d="M-4.46162-61.94376 3.57062-78.00822"/>
<path transform="matrix(.44717,.89436,.89436,-.44717,76.03162,84.177219)" d="M1.99252 0-1.19551 1.59401 0 0-1.19551-1.59401" fill="#0000ff"/>
<path transform="matrix(1,0,0,-1,72.461,6.1689989)" stroke-width=".3985" stroke-linecap="butt" stroke-miterlimit="10" stroke-linejoin="miter" fill="none" stroke="#000000" d=""/>
<path transform="matrix(1,0,0,-1,72.461,6.1689989)" stroke-width=".3985" stroke-linecap="butt" stroke-miterlimit="10" stroke-linejoin="miter" fill="none" stroke="#0000ff" d="M32.80843-33.59694 24.77618-49.66142"/>
<path transform="matrix(-.44717,.89436,.89436,.44717,97.23718,55.830419)" d="M1.99252 0-1.19551 1.59401 0 0-1.19551-1.59401" fill="#0000ff"/>
<path transform="matrix(1,0,0,-1,72.461,6.1689989)" stroke-width=".3985" stroke-linecap="butt" stroke-miterlimit="10" stroke-linejoin="miter" fill="none" stroke="#000000" d=""/>
<path transform="matrix(1,0,0,-1,72.461,6.1689989)" stroke-width=".3985" stroke-linecap="butt" stroke-miterlimit="10" stroke-linejoin="miter" fill="none" stroke="#0000ff" d="M38.05858-33.59694 46.09082-49.66142"/>
<path transform="matrix(.44717,.89436,.89436,-.44717,118.55182,55.830419)" d="M1.99252 0-1.19551 1.59401 0 0-1.19551-1.59401" fill="#0000ff"/>
<path transform="matrix(1,0,0,-1,72.461,6.1689989)" stroke-width=".3985" stroke-linecap="butt" stroke-miterlimit="10" stroke-linejoin="miter" fill="none" stroke="#000000" d=""/>
<path transform="matrix(1,0,0,-1,72.461,6.1689989)" stroke-width=".3985" stroke-linecap="butt" stroke-miterlimit="10" stroke-linejoin="miter" fill="none" stroke="#0000ff" d="M46.98183-61.94376 38.94957-78.00822"/>
<path transform="matrix(-.44717,.89436,.89436,.44717,111.41057,84.177219)" d="M1.99252 0-1.19551 1.59401 0 0-1.19551-1.59401" fill="#0000ff"/>
<path transform="matrix(1,0,0,-1,72.461,6.1689989)" stroke-width=".3985" stroke-linecap="butt" stroke-miterlimit="10" stroke-linejoin="miter" fill="none" stroke="#000000" d=""/>
<path transform="matrix(1,0,0,-1,72.461,6.1689989)" stroke-width=".3985" stroke-linecap="butt" stroke-miterlimit="10" stroke-linejoin="miter" fill="none" stroke="#0000ff" d="M52.23198-61.94376 60.26422-78.0082"/>
<path transform="matrix(.44717,.89438,.89438,-.44717,132.72522,84.1772)" d="M1.99252 0-1.19551 1.59401 0 0-1.19551-1.59401" fill="#0000ff"/>
<path transform="matrix(1,0,0,-1,72.461,6.1689989)" d="M5.66934 0C5.66934 3.13112 3.13112 5.66934 0 5.66934-3.13112 5.66934-5.66934 3.13112-5.66934 0-5.66934-3.13112-3.13112-5.66934 0-5.66934 3.13112-5.66934 5.66934-3.13112 5.66934 0ZM0 0"/>
<use data-text="A" xlink:href="#font_1_27" transform="matrix(8.96638,0,0,-8.96638,69.381,9.279999)" fill="#ffffff"/>
<path transform="matrix(1,0,0,-1,37.028,34.515)" d="M5.66934 0C5.66934 3.13112 3.13112 5.66934 0 5.66934-3.13112 5.66934-5.66934 3.13112-5.66934 0-5.66934-3.13112-3.13112-5.66934 0-5.66934 3.13112-5.66934 5.66934-3.13112 5.66934 0ZM0 0"/>
<use data-text="E" xlink:href="#font_1_49" transform="matrix(8.96638,0,0,-8.96638,34.262,37.613)" fill="#ffffff"/>
<path transform="matrix(1,0,0,-1,107.894,34.515)" d="M5.66934 0C5.66934 3.13112 3.13112 5.66934 0 5.66934-3.13112 5.66934-5.66934 3.13112-5.66934 0-5.66934-3.13112-3.13112-5.66934 0-5.66934 3.13112-5.66934 5.66934-3.13112 5.66934 0ZM0 0"/>
<use data-text="F" xlink:href="#font_1_54" transform="matrix(8.96638,0,0,-8.96638,105.254,37.613)" fill="#ffffff"/>
<path transform="matrix(1,0,0,-1,8.681999,62.862)" d="M5.66934 0C5.66934 3.13112 3.13112 5.66934 0 5.66934-3.13112 5.66934-5.66934 3.13112-5.66934 0-5.66934-3.13112-3.13112-5.66934 0-5.66934 3.13112-5.66934 5.66934-3.13112 5.66934 0ZM0 0"/>
<use data-text="G" xlink:href="#font_1_58" transform="matrix(8.96638,0,0,-8.96638,5.610999,65.973)" fill="#ffffff"/>
<path transform="matrix(1,0,0,-1,37.028,62.862)" d="M5.66934 0C5.66934 3.13112 3.13112 5.66934 0 5.66934-3.13112 5.66934-5.66934 3.13112-5.66934 0-5.66934-3.13112-3.13112-5.66934 0-5.66934 3.13112-5.66934 5.66934-3.13112 5.66934 0ZM0 0"/>
<use data-text="K" xlink:href="#font_1_69" transform="matrix(8.96638,0,0,-8.96638,33.822999,65.973)" fill="#ffffff"/>
<path transform="matrix(1,0,0,-1,65.375,62.862)" d="M5.66934 0C5.66934 3.13112 3.13112 5.66934 0 5.66934-3.13112 5.66934-5.66934 3.13112-5.66934 0-5.66934-3.13112-3.13112-5.66934 0-5.66934 3.13112-5.66934 5.66934-3.13112 5.66934 0ZM0 0"/>
<use data-text="H" xlink:href="#font_1_62" transform="matrix(8.96638,0,0,-8.96638,62.115,65.973)" fill="#ffffff"/>
<path transform="matrix(1,0,0,-1,51.200998,91.208)" d="M5.66934 0C5.66934 3.13112 3.13112 5.66934 0 5.66934-3.13112 5.66934-5.66934 3.13112-5.66934 0-5.66934-3.13112-3.13112-5.66934 0-5.66934 3.13112-5.66934 5.66934-3.13112 5.66934 0ZM0 0"/>
<use data-text="I" xlink:href="#font_1_65" transform="matrix(8.96638,0,0,-8.96638,49.914999,94.32)" fill="#ffffff"/>
<path transform="matrix(1,0,0,-1,79.548,91.208)" d="M5.66934 0C5.66934 3.13112 3.13112 5.66934 0 5.66934-3.13112 5.66934-5.66934 3.13112-5.66934 0-5.66934-3.13112-3.13112-5.66934 0-5.66934 3.13112-5.66934 5.66934-3.13112 5.66934 0ZM0 0"/>
<use data-text="J" xlink:href="#font_1_67" transform="matrix(8.96638,0,0,-8.96638,77.368999,94.221)" fill="#ffffff"/>
<path transform="matrix(1,0,0,-1,93.721,62.862)" d="M5.66934 0C5.66934 3.13112 3.13112 5.66934 0 5.66934-3.13112 5.66934-5.66934 3.13112-5.66934 0-5.66934-3.13112-3.13112-5.66934 0-5.66934 3.13112-5.66934 5.66934-3.13112 5.66934 0ZM0 0"/>
<use data-text="C" xlink:href="#font_1_42" transform="matrix(8.96638,0,0,-8.96638,90.776,65.973)" fill="#ffffff"/>
<path transform="matrix(1,0,0,-1,122.06799,62.862)" d="M5.66934 0C5.66934 3.13112 3.13112 5.66934 0 5.66934-3.13112 5.66934-5.66934 3.13112-5.66934 0-5.66934-3.13112-3.13112-5.66934 0-5.66934 3.13112-5.66934 5.66934-3.13112 5.66934 0ZM0 0"/>
<use data-text="D" xlink:href="#font_1_46" transform="matrix(8.96638,0,0,-8.96638,118.73699,65.973)" fill="#ffffff"/>
<path transform="matrix(1,0,0,-1,107.894,91.208)" d="M5.66934 0C5.66934 3.13112 3.13112 5.66934 0 5.66934-3.13112 5.66934-5.66934 3.13112-5.66934 0-5.66934-3.13112-3.13112-5.66934 0-5.66934 3.13112-5.66934 5.66934-3.13112 5.66934 0ZM0 0"/>
<use data-text="L" xlink:href="#font_1_71" transform="matrix(8.96638,0,0,-8.96638,105.383998,94.32)" fill="#ffffff"/>
<path transform="matrix(1,0,0,-1,136.241,91.208)" d="M5.66934 0C5.66934 3.13112 3.13112 5.66934 0 5.66934-3.13112 5.66934-5.66934 3.13112-5.66934 0-5.66934-3.13112-3.13112-5.66934 0-5.66934 3.13112-5.66934 5.66934-3.13112 5.66934 0ZM0 0"/>
<use data-text="M" xlink:href="#font_1_74" transform="matrix(8.96638,0,0,-8.96638,132.215,94.32)" fill="#ffffff"/>
</svg>
