<svg xmlns="http://www.w3.org/2000/svg" xmlns:xlink="http://www.w3.org/1999/xlink" xmlns:inkscape="http://www.inkscape.org/namespaces/inkscape" version="1.1" width="277.436" height="132.038" viewBox="0 0 277.436 132.038">
<defs>
<path id="font_1_104" d="M.6439972 .6230469V.68803408H.035995485V.6230469H.16999817C.18199158 .6230469 .19400025 .6240387 .20599365 .6240387H.29599V0H.3849945V.6240387H.47399903C.48599244 .6240387 .49798585 .6230469 .5099945 .6230469H.6439972Z"/>
<path id="font_1_96" d="M.32699586 .38806153V.45507813C.23799134 .45407105 .18299866 .4050598 .1519928 .35905458V.45007325H.08198547V0H.15699768V.21403504C.15699768 .31404115 .22898865 .38606263 .32699586 .38806153Z"/>
<path id="font_1_128" d="M.40899659 .00024414063V.28903199C.40899659 .39094544 .33599855 .4609375 .24398804 .4609375 .1789856 .4609375 .13398743 .44493104 .08699036 .41792298L.09298706 .3519745C.14498902 .38894654 .19499207 .40193177 .24398804 .40193177 .29100038 .40193177 .33099366 .361969 .33099366 .2880249V.24505615C.18099976 .24305725 .053985597 .20106507 .053985597 .11317444 .053985597 .07022095 .08099365-.0107421879 .16799927-.0107421879 .18199158-.0107421879 .27598573-.008743286 .33399964 .036254884V.00024414063H.40899659M.33099366 .13214112C.33099366 .11317444 .33099366 .0881958 .29699708 .069229129 .2679901 .051254274 .22999573 .050247194 .21899414 .050247194 .17098999 .050247194 .12599182 .07322693 .12599182 .11515808 .12599182 .18507385 .28799439 .19206238 .33099366 .19406128V.13214112M.3809967 .69433596H.30299378L.16999817 .52734377H.23098755L.3809967 .69433596Z"/>
<path id="font_1_66" d="M.1559906 0V.44433595H.08099365V0H.1559906M.1639862 .5662689V.65527346H.07499695V.5662689H.1639862Z"/>
<path id="font_1_231" d="M.5119934 .5371094V.60110476H.43399049V.69433596H.35899354V.60110476H.20698548V.5371094H.35899354V.39985658C.30599977 .44407655 .25 .45507813 .21299744 .45507813 .11399841 .45507813 .035995485 .35108949 .035995485 .22216797 .035995485 .0912323 .11299133-.0107421879 .20799256-.0107421879 .24099732-.0107421879 .2999878-.0017547608 .35598756 .052246095V.00024414063H.43399049V.5371094H.5119934M.35598756 .13911438C.35598756 .12512207 .35499574 .1071167 .32299806 .078125 .2999878 .05821228 .2749939 .050247194 .24899292 .050247194 .18699646 .050247194 .11399841 .09712219 .11399841 .22109986 .11399841 .35307313 .19999695 .3940735 .25898744 .3940735 .3039856 .39385987 .33399964 .37086488 .35598756 .3388672V.13911438Z"/>
<path id="font_1_146" d="M.40899659 .00024414063V.28903199C.40899659 .39094544 .33599855 .4609375 .24398804 .4609375 .1789856 .4609375 .13398743 .44493104 .08699036 .41792298L.09298706 .3519745C.14498902 .38894654 .19499207 .40193177 .24398804 .40193177 .29100038 .40193177 .33099366 .361969 .33099366 .2880249V.24505615C.18099976 .24305725 .053985597 .20106507 .053985597 .11317444 .053985597 .07022095 .08099365-.0107421879 .16799927-.0107421879 .18199158-.0107421879 .27598573-.008743286 .33399964 .036254884V.00024414063H.40899659M.33099366 .13214112C.33099366 .11317444 .33099366 .0881958 .29699708 .069229129 .2679901 .051254274 .22999573 .050247194 .21899414 .050247194 .17098999 .050247194 .12599182 .07322693 .12599182 .11515808 .12599182 .18507385 .28799439 .19206238 .33099366 .19406128V.13214112M.3959961 .5253906 .269989 .6593933H.20999146L.083999637 .5253906H.14299011L.23999024 .62239077 .33699037 .5253906H.3959961M.3829956 .81640627H.27198792L.09700012 .694397H.18598938L.3829956 .81640627Z"/>
<path id="font_1_105" d="M.33198548 .027252198 .31599427 .086257938C.2899933 .06524658 .2579956 .053253175 .22599793 .053253175 .18899536 .053253175 .1749878 .08325195 .1749878 .13627625V.38632203H.31599427V.44433595H.1749878V.57128909H.10598755V.44433595H.018997193V.38632203H.102996829V.119262699C.102996829 .059249879 .116989139-.0107421879 .18598938-.0107421879 .2559967-.0107421879 .30699159 .014251709 .33198548 .027252198Z"/>
<path id="font_1_111" d="M.6519928 .69433596H.57398989L.44099427 .3521576C.4249878 .31114198 .34999085 .11804199 .34098817 .072021488H.33999635C.33198548 .11204529 .2889862 .22209168 .27999879 .24610901L.10699463 .69433596H.01399231L.2869873 0H.3789978L.6519928 .69433596Z"/>
<path id="font_1_261" d="M.4139862 .21875C.4139862 .25274659 .41299439 .32781983 .37399293 .38790895 .33299256 .4499359 .27198792 .4609375 .23599243 .4609375 .125 .4609375 .034988405 .3548584 .034988405 .22573853 .034988405 .09411621 .1309967-.0107421879 .25099183-.0107421879 .31399537-.0107421879 .37098695 .013244629 .4099884 .041244508L.4039917 .1060791C.34098817 .054244996 .2749939 .050247194 .2519989 .050247194 .17199707 .050247194 .10798645 .121032718 .10499573 .21875H.4139862M.35699464 .27374269H.10998535C.12599182 .34985353 .1789856 .39993287 .23599243 .39993287 .28799439 .39993287 .34399415 .36587525 .35699464 .27374269M.3769989 .5253906 .2519989 .6972656H.19198609L.066986087 .5253906H.12599182L.22200012 .6483002 .31799317 .5253906H.3769989M.2659912-.2000122V-.11100769H.1769867V-.2000122H.2659912Z"/>
<path id="font_1_76" d="M.61099246 0V.69433596H.5329895V.07102966H.5319977L.46499635 .20809937 .21998596 .69433596H.09599304V0H.17399597V.623291H.1749878L.24198914 .4862213 .4869995 0H.61099246Z"/>
<path id="font_1_28" d="M.40899659 .00024414063V.28903199C.40899659 .39094544 .33599855 .4609375 .24398804 .4609375 .1789856 .4609375 .13398743 .44493104 .08699036 .41792298L.09298706 .3519745C.14498902 .38894654 .19499207 .40193177 .24398804 .40193177 .29100038 .40193177 .33099366 .361969 .33099366 .2880249V.24505615C.18099976 .24305725 .053985597 .20106507 .053985597 .11317444 .053985597 .07022095 .08099365-.0107421879 .16799927-.0107421879 .18199158-.0107421879 .27598573-.008743286 .33399964 .036254884V.00024414063H.40899659M.33099366 .13214112C.33099366 .11317444 .33099366 .0881958 .29699708 .069229129 .2679901 .051254274 .22999573 .050247194 .21899414 .050247194 .17098999 .050247194 .12599182 .07322693 .12599182 .11515808 .12599182 .18507385 .28799439 .19206238 .33099366 .19406128V.13214112Z"/>
<path id="font_1_75" d="M.71299746 0V.29804994C.71299746 .36506654 .69699099 .45507813 .57598879 .45507813 .5159912 .45507813 .46398927 .427063 .4269867 .37306214 .40098573 .44906617 .33099366 .45507813 .29899598 .45507813 .22698975 .45507813 .17999268 .41407777 .15299988 .37806703V.45007325H.08099365V0H.15899658V.2450409C.15899658 .31304933 .18598938 .3940735 .2599945 .3940735 .35299684 .3940735 .35798646 .3290558 .35798646 .29104615V0H.43598939V.2450409C.43598939 .31304933 .46299745 .3940735 .5369873 .3940735 .6299896 .3940735 .6349945 .3290558 .6349945 .29104615V0H.71299746Z"/>
<path id="font_1_74" d="M.7739868 0V.69433596H.6599884L.5299988 .35516358C.49499513 .26411439 .44799806 .14006043 .43699647 .09303284H.43598939C.43099977 .11404419 .4189911 .15106201 .4039917 .19308472L.24699402 .60728457 .21299744 .69433596H.099990848V0H.17799378V.62028506H.1789856C.18499756 .5882721 .22499085 .47921754 .25099183 .41119386L.39898683 .022003174H.47200013L.6049957 .37016297 .6529999 .4972229C.6629944 .5262451 .6899872 .59828189 .69499209 .6212921L.69599917 .62028506V0H.7739868Z"/>
<path id="font_1_644" d="M.44599916 .44433595H.37098695C.24099732 .12605286 .23899842 .08001709 .23799134 .056991579H.23699951C.23098755 .124053958 .15098572 .31021119 .14698792 .31921388L.09298706 .44433595H.01399231L.20799256 0 .17199707-.09005737C.1459961-.14808655 .1289978-.14808655 .114990238-.14808655 .09899902-.14808655 .066986087-.14408875 .036987306-.13208008L.042999269-.19708252C.06498718-.2020874 .09298706-.20507813 .114990238-.20507813 .1499939-.20483399 .18699646-.19282532 .22799683-.09082031L.44599916 .44433595M.397995 .6699219H.33699037C.33599855 .6357727 .32398988 .61177065 .2979889 .61177065 .2749939 .61177065 .2539978 .6257782 .22698975 .6447754 .20799256 .6579132 .18798828 .6699219 .16299439 .6699219 .115997318 .6697693 .066986087 .6287689 .06498718 .55078127H.12599182C.1269989 .58491519 .13899231 .60891726 .16499329 .60891726 .18798828 .60891726 .20899964 .59490969 .23599243 .5759125 .25498963 .56277468 .2749939 .55078127 .2999878 .55078127 .34700013 .5509186 .3959961 .59191897 .397995 .6699219Z"/>
<path id="font_1_109" d="M.43499757 .00024414063V.44433595H.35699464V.15426636C.35699464 .07925415 .30099488 .04425049 .23699951 .04425049 .1659851 .04425049 .15899658 .070251468 .15899658 .11326599V.44433595H.08099365V.10926819C.08099365 .037246705 .10398865-.0107421879 .18699646-.0107421879 .23999024-.0107421879 .31098939 .0052490236 .3600006 .04824829V.00024414063H.43499757Z"/>
<path id="font_1_77" d="M.43499757 0V.29804994C.43499757 .36405946 .41999818 .45507813 .2979889 .45507813 .20799256 .45507813 .15899658 .3870697 .15299988 .3790741V.45007325H.08099365V0H.15899658V.2450409C.15899658 .31105042 .18399048 .3940735 .2599945 .3940735 .35598756 .3940735 .35699464 .32305909 .35699464 .29104615V0H.43499757Z"/>
<path id="font_1_59" d="M.4850006 .39207459 .47399903 .45507813C.4039917 .45507813 .34599305 .43606568 .31599427 .4230652 .29499818 .44006349 .26098634 .45507813 .22099304 .45507813 .1349945 .45507813 .06199646 .3830719 .06199646 .29206849 .06199646 .25506593 .07499695 .21907044 .09498596 .19306946 .06599426 .15206909 .06599426 .11306763 .06599426 .108062747 .06599426 .08207703 .07499695 .05307007 .09199524 .032073976 .039993287 .0010681152 .027999878-.04496765 .027999878-.070999149 .027999878-.14605713 .1269989-.20605469 .24899292-.20605469 .37199403-.20605469 .47099305-.14706421 .47099305-.069992069 .47099305 .06906128 .3039856 .06906128 .2649994 .06906128H.1769867C.1639862 .06906128 .11898804 .06906128 .11898804 .121917728 .11898804 .13290406 .12298584 .14889527 .12998963 .15789795 .15098572 .14289856 .18399048 .12890625 .22099304 .12890625 .31098939 .12890625 .3809967 .20289612 .3809967 .29190064 .3809967 .3399048 .35899354 .3768921 .34799195 .39190675L.35198976 .39089967C.37399293 .39089967 .4019928 .39489747 .42599488 .39489747 .44400025 .39489747 .4850006 .39190675 .4850006 .39190675V.39207459M.31098939 .29190064C.31098939 .2138977 .2639923 .18589783 .22099304 .18589783 .18399048 .1860199 .13198853 .20903015 .13198853 .29203797 .13198853 .37506105 .18399048 .3980713 .22099304 .3980713 .2639923 .3980713 .31098939 .37005616 .31098939 .29203797V.29190064M.40098573-.07203674C.40098573-.11605835 .33198548-.14906311 .25-.14906311 .16899109-.14894104 .09799194-.11793518 .09799194-.07093811 .09799194-.06793213 .09799194-.0029296876 .17599488-.0029296876H.2659912C.28799439-.0029296876 .40098573-.0029296876 .40098573-.07192993V-.07203674Z"/>
<path id="font_1_90" d="M.67900088 .34466554C.67900088 .5547638 .5339966 .7158203 .36799623 .7158203 .19799805 .7158203 .055999757 .5527649 .055999757 .34466554 .055999757 .13256836 .20399475-.022460938 .36698915-.022460938 .3829956-.022460938 .41999818-.021469117 .46299745-.004470825L.548996-.125H.6519928L.5329895 .03253174C.6419983 .11756897 .67900088 .23962403 .67900088 .34466554M.59298709 .34466554C.59298709 .27964784 .58099368 .17059326 .4909973 .08854675L.4119873 .19360352H.32299806L.42399598 .05053711C.42399598 .05053711 .39698792 .041534425 .36799623 .041534425 .25 .041534425 .14199829 .1585846 .14199829 .34466554 .14199829 .53175356 .25099183 .6518097 .36698915 .6518097 .4869995 .6518097 .59298709 .52975466 .59298709 .34466554Z"/>
<path id="font_1_430" d="M.46899415 .22009278C.46899415 .3539734 .36898805 .4609375 .25 .4609375 .1269989 .4609375 .02999878 .35098268 .02999878 .22009278 .02999878 .08821106 .13198853-.0107421879 .24899292-.0107421879 .36898805-.0107421879 .46899415 .09020996 .46899415 .22009278M.3909912 .23008728C.3909912 .112197879 .32299806 .053253175 .24899292 .053253175 .17999268 .053253175 .10798645 .109191898 .10798645 .23008728 .10798645 .35098268 .18399048 .39993287 .24899292 .39993287 .31900025 .39993287 .3909912 .34797669 .3909912 .23008728M.4059906 .5253906 .27999879 .6593933H.21998596L.09399414 .5253906H.15299988L.25 .62239077 .34700013 .5253906H.4059906M.3929901 .81640627H.28199769L.10699463 .694397H.19599915L.3929901 .81640627Z"/>
<path id="font_1_43" d="M.4149933 .040252687 .40899659 .10719299C.35798646 .067230228 .3039856 .053253175 .25299073 .053253175 .16999817 .053253175 .11399841 .1251831 .11399841 .2230835 .11399841 .3010254 .15098572 .39692689 .25698854 .39692689 .30899049 .39692689 .34298707 .38893128 .397995 .3529663L.4099884 .41792298C.35099793 .4519348 .31698609 .4609375 .2559967 .4609375 .116989139 .4609375 .035995485 .33998109 .035995485 .22209168 .035995485 .09820557 .1269989-.0107421879 .2519989-.0107421879 .30599977-.0107421879 .36099244 .003250122 .4149933 .040252687Z"/>
<path id="font_1_83" d="M.58200076 .4921875C.58200076 .59928897 .48298646 .69433596 .34498597 .69433596H.09599304V0H.18499756V.2890625H.35198976C.47599793 .2890625 .58200076 .38008119 .58200076 .4921875M.5009918 .4921875C.5009918 .41311646 .43798829 .34706117 .32299806 .34706117H.18199158V.6383209H.32299806C.43299867 .6383209 .5009918 .5772705 .5009918 .4921875Z"/>
<path id="font_1_62" d="M.61299136 0V.69433596H.5239868V.3910675H.18299866V.69433596H.09399414V0H.18299866V.33007813H.5239868V0H.61299136Z"/>
<path id="font_1_42" d="M.58699038 .04525757 .58099368 .114227298C.5519867 .09423828 .522995 .07524109 .4889984 .06524658 .45700074 .054244996 .42199708 .053253175 .3880005 .053253175 .32299806 .053253175 .2639923 .08824158 .22299195 .13922119 .1769867 .19819641 .15499878 .27217103 .15499878 .3471527 .15499878 .42211915 .1769867 .49710084 .22299195 .55607607 .2639923 .60705569 .32299806 .64204409 .3880005 .64204409 .41799928 .64204409 .44898988 .63905337 .47799684 .63005068 .5079956 .62106326 .5359955 .60606387 .56199648 .58807376L.57598879 .67004397C.54599 .6820526 .5149994 .6920471 .48298646 .6980438 .45199586 .7040405 .41999818 .7060547 .3880005 .7060547 .2999878 .7060547 .21899414 .66604617 .1599884 .60105898 .09799194 .53108218 .06599426 .4401245 .06599426 .3471527 .06599426 .2541809 .09799194 .16320801 .1599884 .09423828 .21899414 .029251099 .2999878-.0107421879 .3880005-.0107421879 .4229889-.0107421879 .45799256-.009750366 .49198915 .00024414063 .526001 .009246826 .5569916 .027252198 .58699038 .04525757Z"/>
<path id="font_1_168" d="M.40899659 .00024414063V.28903199C.40899659 .39094544 .33599855 .4609375 .24398804 .4609375 .1789856 .4609375 .13398743 .44493104 .08699036 .41792298L.09298706 .3519745C.14498902 .38894654 .19499207 .40193177 .24398804 .40193177 .29100038 .40193177 .33099366 .361969 .33099366 .2880249V.24505615C.18099976 .24305725 .053985597 .20106507 .053985597 .11317444 .053985597 .07022095 .08099365-.0107421879 .16799927-.0107421879 .18199158-.0107421879 .27598573-.008743286 .33399964 .036254884V.00024414063H.40899659M.33099366 .13214112C.33099366 .11317444 .33099366 .0881958 .29699708 .069229129 .2679901 .051254274 .22999573 .050247194 .21899414 .050247194 .17098999 .050247194 .12599182 .07322693 .12599182 .11515808 .12599182 .18507385 .28799439 .19206238 .33099366 .19406128V.13214112M.30999757 .52734377 .1769867 .69433596H.09899902L.24899292 .52734377H.30999757Z"/>
<path id="font_1_432" d="M.46899415 .22009278C.46899415 .3539734 .36898805 .4609375 .25 .4609375 .1269989 .4609375 .02999878 .35098268 .02999878 .22009278 .02999878 .08821106 .13198853-.0107421879 .24899292-.0107421879 .36898805-.0107421879 .46899415 .09020996 .46899415 .22009278M.3909912 .23008728C.3909912 .112197879 .32299806 .053253175 .24899292 .053253175 .17999268 .053253175 .10798645 .109191898 .10798645 .23008728 .10798645 .35098268 .18399048 .39993287 .24899292 .39993287 .31900025 .39993287 .3909912 .34797669 .3909912 .23008728M.40499879 .5253906 .27999879 .6972656H.21998596L.09498596 .5253906H.1539917L.25 .6483002 .34599305 .5253906H.40499879M.2939911-.2000122V-.11100769H.20498657V-.2000122H.2939911Z"/>
<path id="font_1_148" d="M.40899659 .00024414063V.28903199C.40899659 .39094544 .33599855 .4609375 .24398804 .4609375 .1789856 .4609375 .13398743 .44493104 .08699036 .41792298L.09298706 .3519745C.14498902 .38894654 .19499207 .40193177 .24398804 .40193177 .29100038 .40193177 .33099366 .361969 .33099366 .2880249V.24505615C.18099976 .24305725 .053985597 .20106507 .053985597 .11317444 .053985597 .07022095 .08099365-.0107421879 .16799927-.0107421879 .18199158-.0107421879 .27598573-.008743286 .33399964 .036254884V.00024414063H.40899659M.33099366 .13214112C.33099366 .11317444 .33099366 .0881958 .29699708 .069229129 .2679901 .051254274 .22999573 .050247194 .21899414 .050247194 .17098999 .050247194 .12599182 .07322693 .12599182 .11515808 .12599182 .18507385 .28799439 .19206238 .33099366 .19406128V.13214112M.394989 .5253906 .269989 .6972656H.20999146L.084991458 .5253906H.14399719L.23999024 .6483002 .33599855 .5253906H.394989M.28399659-.2000122V-.11100769H.19499207V-.2000122H.28399659Z"/>
<path id="font_1_144" d="M.40899659 .00024414063V.28903199C.40899659 .39094544 .33599855 .4609375 .24398804 .4609375 .1789856 .4609375 .13398743 .44493104 .08699036 .41792298L.09298706 .3519745C.14498902 .38894654 .19499207 .40193177 .24398804 .40193177 .29100038 .40193177 .33099366 .361969 .33099366 .2880249V.24505615C.18099976 .24305725 .053985597 .20106507 .053985597 .11317444 .053985597 .07022095 .08099365-.0107421879 .16799927-.0107421879 .18199158-.0107421879 .27598573-.008743286 .33399964 .036254884V.00024414063H.40899659M.33099366 .13214112C.33099366 .11317444 .33099366 .0881958 .29699708 .069229129 .2679901 .051254274 .22999573 .050247194 .21899414 .050247194 .17098999 .050247194 .12599182 .07322693 .12599182 .11515808 .12599182 .18507385 .28799439 .19206238 .33099366 .19406128V.13214112M.394989 .5253906 .269989 .6972656H.20999146L.084991458 .5253906H.14399719L.23999024 .6483002 .33599855 .5253906H.394989Z"/>
<path id="font_1_34" d="M.6100006 .18806458C.6100006 .27511598 .522995 .3461609 .4169922 .36317445 .5079956 .3861847 .58299258 .44421388 .58299258 .5202637 .58299258 .61231997 .47599793 .69433596 .33399964 .69433596H.09700012V0H.36099244C.5049896 .000076293948 .6100006 .09007263 .6100006 .18806458M.5049896 .5192108C.5049896 .45913697 .43399049 .3910675 .29599 .3910675H.17999268V.6383209H.30599977C.4169922 .6380768 .5049896 .58506777 .5049896 .5190735V.5192108M.5289917 .18902588C.5289917 .11401367 .44099427 .055999757 .33299256 .055999757H.17999268V.33007813H.32499696C.43099977 .32998658 .5289917 .2689972 .5289917 .18899536V.18902588Z"/>
<path id="font_1_354" d="M.1559906 0V.44433595H.08099365V0H.1559906M.1559906 .52734377 .022994996 .69433596H-.055007936L.09498596 .52734377H.1559906Z"/>
<path id="font_1_63" d="M.43499757 0V.29804994C.43499757 .36405946 .41999818 .45507813 .2979889 .45507813 .23599243 .45507813 .18798828 .42407228 .1559906 .3830719V.69433596H.08099365V0H.15899658V.2450409C.15899658 .31105042 .18399048 .3940735 .2599945 .3940735 .35598756 .3940735 .35699464 .32305909 .35699464 .29104615V0H.43499757Z"/>
<path id="font_1_82" d="M.42399598 0V.057998659H.29899598V.6777344H.2789917C.21998596 .6166992 .13699341 .6137085 .08898926 .6117096V.55371096C.12199402 .55470278 .16999817 .55670168 .21998596 .57769778V.057998659H.09498596V0H.42399598Z"/>
<path id="font_1_427" d="M.67900088 .34466554C.67900088 .5547638 .5339966 .7158203 .36799623 .7158203 .19799805 .7158203 .055999757 .5527649 .055999757 .34466554 .055999757 .13256836 .20399475-.022460938 .36698915-.022460938 .5339966-.022460938 .67900088 .13456726 .67900088 .34466554M.58999636 .35968019C.58999636 .1645813 .48199464 .042526246 .36799623 .042526246 .25 .042526246 .14498902 .16758728 .14498902 .35968019 .14498902 .5427704 .25498963 .6518097 .36698915 .6518097 .48298646 .6518097 .58999636 .5387573 .58999636 .35968019M.5239868 .73535159 .397995 .8701172H.33799745L.21199036 .73535159H.2709961L.36799623 .832901 .46499635 .73535159H.5239868Z"/>
<path id="font_1_71" d="M.49899293 0V.06599426L.23199463 .06399536H.18299866V.69433596H.09399414V0H.49899293Z"/>
<path id="font_1_257" d="M.4139862 .21875C.4139862 .25274659 .41299439 .32781983 .37399293 .38790895 .33299256 .4499359 .27198792 .4609375 .23599243 .4609375 .125 .4609375 .034988405 .3548584 .034988405 .22573853 .034988405 .09411621 .1309967-.0107421879 .25099183-.0107421879 .31399537-.0107421879 .37098695 .013244629 .4099884 .041244508L.4039917 .1060791C.34098817 .054244996 .2749939 .050247194 .2519989 .050247194 .17199707 .050247194 .10798645 .121032718 .10499573 .21875H.4139862M.35699464 .27374269H.10998535C.12599182 .34985353 .1789856 .39993287 .23599243 .39993287 .28799439 .39993287 .34399415 .36587525 .35699464 .27374269M.3769989 .5253906 .2519989 .6972656H.19198609L.066986087 .5253906H.12599182L.22200012 .6483002 .31799317 .5253906H.3769989Z"/>
<path id="font_1_46" d="M.6649933 .341156C.6649933 .5352783 .5299988 .69433596 .35798646 .69433596H.09599304V0H.35899354C.5289917 0 .6649933 .15205384 .6649933 .341156M.57899478 .341156C.57899478 .17106629 .47499085 .055999757 .33499146 .055999757H.18199158V.6383209H.33499146C.47499085 .6383209 .57899478 .5172577 .57899478 .341156Z"/>
<path id="font_1_619" d="M.43499757 .00024414063V.44433595H.35699464V.15426636C.35699464 .07925415 .30099488 .04425049 .23699951 .04425049 .1659851 .04425049 .15899658 .070251468 .15899658 .11326599V.44433595H.08099365V.10926819C.08099365 .037246705 .10398865-.0107421879 .18699646-.0107421879 .23999024-.0107421879 .31098939 .0052490236 .3600006 .04824829V.00024414063H.43499757M.4249878 .6699219H.3639984C.36299134 .6357727 .35099793 .61177065 .32499696 .61177065 .3019867 .61177065 .2809906 .6257782 .2539978 .6447754 .23498535 .6579132 .21499634 .6699219 .18998719 .6699219 .14299011 .6697693 .09399414 .6287689 .09199524 .55078127H.15299988C.1539917 .58491519 .1659851 .60891726 .19198609 .60891726 .21499634 .60891726 .23599243 .59490969 .2630005 .5759125 .28199769 .56277468 .3019867 .55078127 .32699586 .55078127 .37399293 .5509186 .4229889 .59191897 .4249878 .6699219Z"/>
</defs>
<path transform="matrix(1,0,0,-1,189.024,8.646996)" stroke-width=".3985" stroke-linecap="butt" stroke-miterlimit="10" stroke-linejoin="miter" fill="none" stroke="#000000" d=""/>
<path transform="matrix(1,0,0,-1,189.024,8.646996)" stroke-width=".3985" stroke-linecap="butt" stroke-miterlimit="10" stroke-linejoin="miter" fill="none" stroke="#0000ff" d="M-16.73245-8.3462-37.54861-18.72943"/>
<path transform="matrix(-.8948,.44632,.44632,.8948,151.47539,27.376425)" d="M1.99252 0-1.19551 1.59401 0 0-1.19551-1.59401" fill="#0000ff"/>
<path transform="matrix(1,0,0,-1,189.024,8.646996)" stroke-width=".3985" stroke-linecap="butt" stroke-miterlimit="10" stroke-linejoin="miter" fill="none" stroke="#000000" d=""/>
<path transform="matrix(1,0,0,-1,189.024,8.646996)" stroke-width=".3985" stroke-linecap="butt" stroke-miterlimit="10" stroke-linejoin="miter" fill="none" stroke="#0000ff" d="M-3.90732-8.3462-8.33472-17.80331"/>
<path transform="matrix(-.42397,.90564,.90564,.42397,180.68929,26.450306)" d="M1.99252 0-1.19551 1.59401 0 0-1.19551-1.59401" fill="#0000ff"/>
<path transform="matrix(1,0,0,-1,189.024,8.646996)" stroke-width=".3985" stroke-linecap="butt" stroke-miterlimit="10" stroke-linejoin="miter" fill="none" stroke="#000000" d=""/>
<path transform="matrix(1,0,0,-1,189.024,8.646996)" stroke-width=".3985" stroke-linecap="butt" stroke-miterlimit="10" stroke-linejoin="miter" fill="none" stroke="#0000ff" d="M4.43889-8.3462 12.10077-22.75238"/>
<path transform="matrix(.46954,.88287,.88287,-.46954,201.12477,31.399367)" d="M1.99252 0-1.19551 1.59401 0 0-1.19551-1.59401" fill="#0000ff"/>
<path transform="matrix(1,0,0,-1,189.024,8.646996)" stroke-width=".3985" stroke-linecap="butt" stroke-miterlimit="10" stroke-linejoin="miter" fill="none" stroke="#000000" d=""/>
<path transform="matrix(1,0,0,-1,189.024,8.646996)" stroke-width=".3985" stroke-linecap="butt" stroke-miterlimit="10" stroke-linejoin="miter" fill="none" stroke="#0000ff" d="M16.73245-8.3462 36.1817-18.04762"/>
<path transform="matrix(.8948,.44632,.44632,-.8948,225.2057,26.694617)" d="M1.99252 0-1.19551 1.59401 0 0-1.19551-1.59401" fill="#0000ff"/>
<path transform="matrix(1,0,0,-1,189.024,8.646996)" stroke-width=".3985" stroke-linecap="butt" stroke-miterlimit="10" stroke-linejoin="miter" fill="none" stroke="#000000" d=""/>
<path transform="matrix(1,0,0,-1,189.024,8.646996)" stroke-width=".3985" stroke-linecap="butt" stroke-miterlimit="10" stroke-linejoin="miter" fill="none" stroke="#0000ff" d="M-66.70183-37.07484-78.63823-47.62773"/>
<path transform="matrix(-.74915,.66231,.66231,.74915,110.38577,56.274728)" d="M1.99252 0-1.19551 1.59401 0 0-1.19551-1.59401" fill="#0000ff"/>
<path transform="matrix(1,0,0,-1,189.024,8.646996)" stroke-width=".3985" stroke-linecap="butt" stroke-miterlimit="10" stroke-linejoin="miter" fill="none" stroke="#000000" d=""/>
<path transform="matrix(1,0,0,-1,189.024,8.646996)" stroke-width=".3985" stroke-linecap="butt" stroke-miterlimit="10" stroke-linejoin="miter" fill="none" stroke="#0000ff" d="M-56.3483-37.07484-55.58778-50.86891"/>
<path transform="matrix(.05502,.99844,.99844,-.05502,133.4362,59.515909)" d="M1.99252 0-1.19551 1.59401 0 0-1.19551-1.59401" fill="#0000ff"/>
<path transform="matrix(1,0,0,-1,189.024,8.646996)" stroke-width=".3985" stroke-linecap="butt" stroke-miterlimit="10" stroke-linejoin="miter" fill="none" stroke="#000000" d=""/>
<path transform="matrix(1,0,0,-1,189.024,8.646996)" stroke-width=".3985" stroke-linecap="butt" stroke-miterlimit="10" stroke-linejoin="miter" fill="none" stroke="#0000ff" d="M-46.95712-37.07484-36.13129-46.64586"/>
<path transform="matrix(.74915,.66232,.66232,-.74915,152.89272,55.292837)" d="M1.99252 0-1.19551 1.59401 0 0-1.19551-1.59401" fill="#0000ff"/>
<path transform="matrix(1,0,0,-1,189.024,8.646996)" stroke-width=".3985" stroke-linecap="butt" stroke-miterlimit="10" stroke-linejoin="miter" fill="none" stroke="#000000" d=""/>
<path transform="matrix(1,0,0,-1,189.024,8.646996)" stroke-width=".3985" stroke-linecap="butt" stroke-miterlimit="10" stroke-linejoin="miter" fill="none" stroke="#0000ff" d="M-99.95592-64.4398-115.1322-75.06593"/>
<path transform="matrix(-.81915,.57355,.57355,.81915,73.891819,83.71291)" d="M1.99252 0-1.19551 1.59401 0 0-1.19551-1.59401" fill="#0000ff"/>
<path transform="matrix(1,0,0,-1,189.024,8.646996)" stroke-width=".3985" stroke-linecap="butt" stroke-miterlimit="10" stroke-linejoin="miter" fill="none" stroke="#000000" d=""/>
<path transform="matrix(1,0,0,-1,189.024,8.646996)" stroke-width=".3985" stroke-linecap="butt" stroke-miterlimit="10" stroke-linejoin="miter" fill="none" stroke="#0000ff" d="M-86.33566-64.4398-81.4259-79.31311"/>
<path transform="matrix(.31345,.94957,.94957,-.31345,107.5981,87.960109)" d="M1.99252 0-1.19551 1.59401 0 0-1.19551-1.59401" fill="#0000ff"/>
<path transform="matrix(1,0,0,-1,189.024,8.646996)" stroke-width=".3985" stroke-linecap="butt" stroke-miterlimit="10" stroke-linejoin="miter" fill="none" stroke="#000000" d=""/>
<path transform="matrix(1,0,0,-1,189.024,8.646996)" stroke-width=".3985" stroke-linecap="butt" stroke-miterlimit="10" stroke-linejoin="miter" fill="none" stroke="#0000ff" d="M-77.8295-64.4398-62.65321-75.06593"/>
<path transform="matrix(.81915,.57355,.57355,-.81915,126.37077,83.71291)" d="M1.99252 0-1.19551 1.59401 0 0-1.19551-1.59401" fill="#0000ff"/>
<path transform="matrix(1,0,0,-1,189.024,8.646996)" stroke-width=".3985" stroke-linecap="butt" stroke-miterlimit="10" stroke-linejoin="miter" fill="none" stroke="#000000" d=""/>
<path transform="matrix(1,0,0,-1,189.024,8.646996)" stroke-width=".3985" stroke-linecap="butt" stroke-miterlimit="10" stroke-linejoin="miter" fill="none" stroke="#0000ff" d="M-140.57404-93.8721-151.447-102.44885"/>
<path transform="matrix(-.7851,.6193,.6193,.7851,37.576997,111.09583)" d="M1.99252 0-1.19551 1.59401 0 0-1.19551-1.59401" fill="#0000ff"/>
<path transform="matrix(1,0,0,-1,189.024,8.646996)" stroke-width=".3985" stroke-linecap="butt" stroke-miterlimit="10" stroke-linejoin="miter" fill="none" stroke="#000000" d=""/>
<path transform="matrix(1,0,0,-1,189.024,8.646996)" stroke-width=".3985" stroke-linecap="butt" stroke-miterlimit="10" stroke-linejoin="miter" fill="none" stroke="#0000ff" d="M-130.01772-93.8721-131.00975-107.5647"/>
<path transform="matrix(-.07225,.99736,.99736,.07225,58.014268,116.21169)" d="M1.99252 0-1.19551 1.59401 0 0-1.19551-1.59401" fill="#0000ff"/>
<path transform="matrix(1,0,0,-1,189.024,8.646996)" stroke-width=".3985" stroke-linecap="butt" stroke-miterlimit="10" stroke-linejoin="miter" fill="none" stroke="#000000" d=""/>
<path transform="matrix(1,0,0,-1,189.024,8.646996)" stroke-width=".3985" stroke-linecap="butt" stroke-miterlimit="10" stroke-linejoin="miter" fill="none" stroke="#0000ff" d="M-118.18172-93.8721-107.30875-102.44885"/>
<path transform="matrix(.7851,.6193,.6193,-.7851,81.715259,111.09583)" d="M1.99252 0-1.19551 1.59401 0 0-1.19551-1.59401" fill="#0000ff"/>
<path transform="matrix(1,0,0,-1,189.024,8.646996)" d="M-21.91988-8.14696H21.919892V8.14697H-21.91988Z" fill="#ffffff"/>
<use data-text="T" xlink:href="#font_1_104" transform="matrix(10.90909,0,0,-10.90909,170.74,13.037994)"/>
<use data-text="r" xlink:href="#font_1_96" transform="matrix(10.90909,0,0,-10.90909,177.26364,13.037994)"/>
<use data-text="&#x00e1;" xlink:href="#font_1_128" transform="matrix(10.90909,0,0,-10.90909,180.99456,13.037994)"/>
<use data-text="i" xlink:href="#font_1_66" transform="matrix(10.90909,0,0,-10.90909,186.24182,13.037994)"/>
<use data-text="&#x0111;" xlink:href="#font_1_231" transform="matrix(10.90909,0,0,-10.90909,192.48181,13.037994)"/>
<use data-text="&#x1ea5;" xlink:href="#font_1_146" transform="matrix(10.90909,0,0,-10.90909,198.12181,13.037994)"/>
<use data-text="t" xlink:href="#font_1_105" transform="matrix(10.90909,0,0,-10.90909,203.36908,13.037994)"/>
<path transform="matrix(1,0,0,-1,132.195,36.993997)" d="M-25.60172-8.5288H25.601729V8.52879H-25.60172Z" fill="#ffffff"/>
<use data-text="V" xlink:href="#font_1_111" transform="matrix(10.90909,0,0,-10.90909,110.23001,39.704996)"/>
<use data-text="i" xlink:href="#font_1_66" transform="matrix(10.90909,0,0,-10.90909,117.50638,39.704996)"/>
<use data-text="&#x1ec7;" xlink:href="#font_1_261" transform="matrix(10.90909,0,0,-10.90909,120.11365,39.704996)"/>
<use data-text="t" xlink:href="#font_1_105" transform="matrix(10.90909,0,0,-10.90909,124.95728,39.704996)"/>
<use data-text="N" xlink:href="#font_1_76" transform="matrix(10.90909,0,0,-10.90909,132.5282,39.704996)"/>
<use data-text="a" xlink:href="#font_1_28" transform="matrix(10.90909,0,0,-10.90909,140.25183,39.704996)"/>
<use data-text="m" xlink:href="#font_1_75" transform="matrix(10.90909,0,0,-10.90909,145.49909,39.704996)"/>
<path transform="matrix(1,0,0,-1,175.754,36.993997)" d="M-10.92336-8.5397H10.923369V8.539721H-10.92336Z" fill="#ffffff"/>
<use data-text="M" xlink:href="#font_1_74" transform="matrix(10.90909,0,0,-10.90909,168.466,39.660997)"/>
<use data-text="&#x1ef9;" xlink:href="#font_1_644" transform="matrix(10.90909,0,0,-10.90909,178.01146,39.660997)"/>
<path transform="matrix(1,0,0,-1,204.1,36.993997)" d="M-3.636-3.636H3.636V3.636H-3.636Z" fill="#ffffff"/>
<path transform="matrix(1,0,0,-1,245.853,36.993997)" d="M-31.08363-9.21062H31.083642V9.21061H-31.08363Z" fill="#ffffff"/>
<use data-text="T" xlink:href="#font_1_104" transform="matrix(10.90909,0,0,-10.90909,218.40599,40.32099)"/>
<use data-text="r" xlink:href="#font_1_96" transform="matrix(10.90909,0,0,-10.90909,224.92963,40.32099)"/>
<use data-text="u" xlink:href="#font_1_109" transform="matrix(10.90909,0,0,-10.90909,228.66054,40.32099)"/>
<use data-text="n" xlink:href="#font_1_77" transform="matrix(10.90909,0,0,-10.90909,234.30054,40.32099)"/>
<use data-text="g" xlink:href="#font_1_59" transform="matrix(10.90909,0,0,-10.90909,239.94054,40.32099)"/>
<use data-text="Q" xlink:href="#font_1_90" transform="matrix(10.90909,0,0,-10.90909,249.0278,40.32099)"/>
<use data-text="u" xlink:href="#font_1_109" transform="matrix(10.90909,0,0,-10.90909,257.0569,40.32099)"/>
<use data-text="&#x1ed1;" xlink:href="#font_1_430" transform="matrix(10.90909,0,0,-10.90909,262.6969,40.32099)"/>
<use data-text="c" xlink:href="#font_1_43" transform="matrix(10.90909,0,0,-10.90909,268.4569,40.32099)"/>
<path transform="matrix(1,0,0,-1,100.133,65.34)" d="M-22.95625-7.54695H22.956273V7.54697H-22.95625Z" fill="#ffffff"/>
<use data-text="T" xlink:href="#font_1_104" transform="matrix(10.90909,0,0,-10.90909,80.813,69.131)"/>
<use data-text="P" xlink:href="#font_1_83" transform="matrix(10.90909,0,0,-10.90909,88.242099,69.131)"/>
<use data-text="H" xlink:href="#font_1_62" transform="matrix(10.90909,0,0,-10.90909,95.213008,69.131)"/>
<use data-text="C" xlink:href="#font_1_42" transform="matrix(10.90909,0,0,-10.90909,102.93664,69.131)"/>
<use data-text="M" xlink:href="#font_1_74" transform="matrix(10.90909,0,0,-10.90909,109.90755,69.131)"/>
<path transform="matrix(1,0,0,-1,133.758,65.34)" d="M-3.636-3.636H3.636V3.636H-3.636Z" fill="#ffffff"/>
<path transform="matrix(1,0,0,-1,164.258,65.34)" d="M-19.83075-8.5288H19.83075V8.52879H-19.83075Z" fill="#ffffff"/>
<use data-text="H" xlink:href="#font_1_62" transform="matrix(10.90909,0,0,-10.90909,148.064,68.050998)"/>
<use data-text="&#x00e0;" xlink:href="#font_1_168" transform="matrix(10.90909,0,0,-10.90909,155.78763,68.050998)"/>
<use data-text="N" xlink:href="#font_1_76" transform="matrix(10.90909,0,0,-10.90909,164.66762,68.050998)"/>
<use data-text="&#x1ed9;" xlink:href="#font_1_432" transform="matrix(10.90909,0,0,-10.90909,172.39125,68.050998)"/>
<use data-text="i" xlink:href="#font_1_66" transform="matrix(10.90909,0,0,-10.90909,177.8458,68.050998)"/>
<path transform="matrix(1,0,0,-1,59.647996,93.687)" d="M-39.17282-8.63242H39.17282V8.632431H-39.17282Z" fill="#ffffff"/>
<use data-text="Q" xlink:href="#font_1_90" transform="matrix(10.90909,0,0,-10.90909,24.111996,96.50099)"/>
<use data-text="u" xlink:href="#font_1_109" transform="matrix(10.90909,0,0,-10.90909,32.141088,96.50099)"/>
<use data-text="&#x1ead;" xlink:href="#font_1_148" transform="matrix(10.90909,0,0,-10.90909,37.781087,96.50099)"/>
<use data-text="n" xlink:href="#font_1_77" transform="matrix(10.90909,0,0,-10.90909,43.02836,96.50099)"/>
<use data-text="T" xlink:href="#font_1_104" transform="matrix(10.90909,0,0,-10.90909,52.301088,96.50099)"/>
<use data-text="&#x00e2;" xlink:href="#font_1_144" transform="matrix(10.90909,0,0,-10.90909,59.501089,96.50099)"/>
<use data-text="n" xlink:href="#font_1_77" transform="matrix(10.90909,0,0,-10.90909,64.74837,96.50099)"/>
<use data-text="B" xlink:href="#font_1_34" transform="matrix(10.90909,0,0,-10.90909,74.02109,96.50099)"/>
<use data-text="&#x00ec;" xlink:href="#font_1_354" transform="matrix(10.90909,0,0,-10.90909,81.297458,96.50099)"/>
<use data-text="n" xlink:href="#font_1_77" transform="matrix(10.90909,0,0,-10.90909,83.904727,96.50099)"/>
<use data-text="h" xlink:href="#font_1_63" transform="matrix(10.90909,0,0,-10.90909,89.54472,96.50099)"/>
<path transform="matrix(1,0,0,-1,109.490009,93.687)" d="M-3.636-3.636H3.636V3.636H-3.636Z" fill="#ffffff"/>
<path transform="matrix(1,0,0,-1,140.617,93.687)" d="M-20.45804-8.63242H20.458048V8.632431H-20.45804Z" fill="#ffffff"/>
<use data-text="Q" xlink:href="#font_1_90" transform="matrix(10.90909,0,0,-10.90909,123.795009,96.50099)"/>
<use data-text="u" xlink:href="#font_1_109" transform="matrix(10.90909,0,0,-10.90909,131.8241,96.50099)"/>
<use data-text="&#x1ead;" xlink:href="#font_1_148" transform="matrix(10.90909,0,0,-10.90909,137.46411,96.50099)"/>
<use data-text="n" xlink:href="#font_1_77" transform="matrix(10.90909,0,0,-10.90909,142.71137,96.50099)"/>
<use data-text="1" xlink:href="#font_1_82" transform="matrix(10.90909,0,0,-10.90909,151.9841,96.50099)"/>
<path transform="matrix(1,0,0,-1,23.712006,122.033)" d="M-23.2126-9.50517H23.21262V9.505179H-23.2126Z" fill="#ffffff"/>
<use data-text="&#x00d4;" xlink:href="#font_1_427" transform="matrix(10.90909,0,0,-10.90909,4.1360056,125.65499)"/>
<use data-text="n" xlink:href="#font_1_77" transform="matrix(10.90909,0,0,-10.90909,12.165096,125.65499)"/>
<use data-text="g" xlink:href="#font_1_59" transform="matrix(10.90909,0,0,-10.90909,17.805096,125.65499)"/>
<use data-text="L" xlink:href="#font_1_71" transform="matrix(10.90909,0,0,-10.90909,26.892369,125.65499)"/>
<use data-text="&#x00ea;" xlink:href="#font_1_257" transform="matrix(10.90909,0,0,-10.90909,32.805097,125.65499)"/>
<use data-text="n" xlink:href="#font_1_77" transform="matrix(10.90909,0,0,-10.90909,37.64873,125.65499)"/>
<path transform="matrix(1,0,0,-1,57.59401,122.033)" d="M-3.636-3.636H3.636V3.636H-3.636Z" fill="#ffffff"/>
<path transform="matrix(1,0,0,-1,95.583,122.033)" d="M-27.31995-9.50517H27.31995V9.505179H-27.31995Z" fill="#ffffff"/>
<use data-text="&#x00d4;" xlink:href="#font_1_427" transform="matrix(10.90909,0,0,-10.90909,71.9,125.65499)"/>
<use data-text="n" xlink:href="#font_1_77" transform="matrix(10.90909,0,0,-10.90909,79.92909,125.65499)"/>
<use data-text="g" xlink:href="#font_1_59" transform="matrix(10.90909,0,0,-10.90909,85.56909,125.65499)"/>
<use data-text="D" xlink:href="#font_1_46" transform="matrix(10.90909,0,0,-10.90909,94.656368,125.65499)"/>
<use data-text="&#x0169;" xlink:href="#font_1_619" transform="matrix(10.90909,0,0,-10.90909,102.53273,125.65499)"/>
<use data-text="n" xlink:href="#font_1_77" transform="matrix(10.90909,0,0,-10.90909,108.17273,125.65499)"/>
<use data-text="g" xlink:href="#font_1_59" transform="matrix(10.90909,0,0,-10.90909,113.81273,125.65499)"/>
</svg>
