<svg xmlns="http://www.w3.org/2000/svg" xmlns:xlink="http://www.w3.org/1999/xlink" xmlns:inkscape="http://www.inkscape.org/namespaces/inkscape" version="1.1" width="193.756" height="69.048" viewBox="0 0 193.756 69.048">
<defs>
<path id="font_1_96" d="M.4169922 .38305665 .43299867 .45507813C.3600006 .45407105 .2869873 .4180603 .23298645 .35905458L.25299073 .45007325H.1789856L.08299255 0H.16299439L.20799256 .21302796C.23098755 .31803895 .32598878 .38204957 .4169922 .38305665Z"/>
<path id="font_1_104" d="M.79499819 .61816409 .80999758 .6881561H.18299866L.16799927 .61816409H.22898865L.43499757 .62016299 .30299378 0H.39898683L.5309906 .62016299 .7350006 .61816409H.79499819Z"/>
<path id="font_2_1" d="M.35899354 .6349335C.35899354 .66503909 .35499574 .66503909 .32499696 .66503909 .25898744 .60058596 .15699768 .60058596 .12098694 .60058596V.5615845C.14698792 .5615845 .21299744 .5615845 .272995 .58958438V.08496094C.272995 .051986696 .272995 .038986207 .16999817 .038986207H.1269989V0C.18199158 .0039978029 .2599945 .0039978029 .31599427 .0039978029 .37199403 .0039978029 .44999696 .0039978029 .5049896 0V.038986207H.46199037C.35899354 .038986207 .35899354 .051986696 .35899354 .08496094V.6349335Z"/>
<path id="font_2_2" d="M.5379944 .18702698H.5009918C.49899293 .17301941 .4889984 .10699463 .47399903 .09599304 .46699525 .08999634 .38598634 .08999634 .37199403 .08999634H.18499756L.31298829 .19403076C.34700013 .22103882 .43598939 .28504945 .46699525 .31506349 .49699403 .3450775 .5379944 .39608766 .5379944 .46710206 .5379944 .5920563 .4249878 .66503909 .29100038 .66503909 .1619873 .66503909 .07199097 .58006289 .07199097 .48609925 .07199097 .43510438 .114990238 .42910768 .12599182 .42910768 .15098572 .42910768 .17999268 .44709779 .17999268 .48310853 .17999268 .50509646 .16699219 .5371094 .12298584 .5371094 .1459961 .5880585 .20698548 .6260376 .27598573 .6260376 .3809967 .6260376 .43699647 .5480957 .43699647 .46710206 .43699647 .39608766 .3899994 .32305909 .31999208 .25904847L.08299255 .041992189C.07299805 .03199768 .07199097 .0309906 .07199097 0H.5069885L.5379944 .18702698Z"/>
<path id="font_3_88" d="M.18499756 0V.085998538H.09899902V0H.18499756Z"/>
<path id="font_4_75" d="M.7599945 0 .82299807 .29606629C.83898928 .37408448 .83299258 .45410157 .70999148 .45410157 .6259918 .45410157 .56399539 .40509034 .5329895 .37309266 .5289917 .4001007 .5149994 .45410157 .4149933 .45410157 .35798646 .45410157 .29899598 .4310913 .24299622 .37808229L.25898744 .45109559H.1789856L.08299255 0H.16999817L.22200012 .24305725C.23599243 .30906678 .27999879 .38809205 .35699464 .38809205 .45999146 .38809205 .44599916 .31806947 .43899537 .2890625L.37799073 0H.46499635L.5169983 .24305725C.5309906 .30906678 .57499697 .38809205 .6519928 .38809205 .7549896 .38809205 .7409973 .31806947 .73399356 .2890625L.6729889 0H.7599945Z"/>
</defs>
<path transform="matrix(1,0,0,-1,96.878,6.168995)" d="M5.66934 0C5.66934 3.13112 3.13112 5.66934 0 5.66934-3.13112 5.66934-5.66934 3.13112-5.66934 0-5.66934-3.13112-3.13112-5.66934 0-5.66934 3.13112-5.66934 5.66934-3.13112 5.66934 0ZM0 0"/>
<use data-text="r" xlink:href="#font_1_96" transform="matrix(8.96638,0,0,-8.96638,94.847,8.208996)" fill="#ffffff"/>
<path transform="matrix(1,0,0,-1,96.878,6.168995)" d="M-85.04034-35.0045-96.37906-62.37964H-73.70163Z"/>
<use data-text="T" xlink:href="#font_1_104" transform="matrix(8.96638,0,0,-8.96638,6.6159975,65.448)" fill="#ffffff"/>
<use data-text="1" xlink:href="#font_2_1" transform="matrix(5.97758,0,0,-5.97758,12.909997,66.445)" fill="#ffffff"/>
<path transform="matrix(1,0,0,-1,96.878,6.168995)" stroke-width=".3985" stroke-linecap="butt" stroke-miterlimit="10" stroke-linejoin="miter" fill="none" stroke="#000000" d="M0-5.86859-83.15187-33.8477"/>
<path transform="matrix(-.94774,.3189,.3189,.94774,13.726128,40.016695)" d="M1.99252 0-1.19551 1.59401 0 0-1.19551-1.59401"/>
<path transform="matrix(1,0,0,-1,96.878,6.168995)" d="M-28.34673-35.0045-39.68544-62.37964H-17.00801Z"/>
<use data-text="T" xlink:href="#font_1_104" transform="matrix(8.96638,0,0,-8.96638,63.309,65.448)" fill="#ffffff"/>
<use data-text="2" xlink:href="#font_2_2" transform="matrix(5.97758,0,0,-5.97758,69.603,66.445)" fill="#ffffff"/>
<path transform="matrix(1,0,0,-1,96.878,6.168995)" stroke-width=".3985" stroke-linecap="butt" stroke-miterlimit="10" stroke-linejoin="miter" fill="none" stroke="#000000" d="M0-5.86859-26.94443-33.06761"/>
<path transform="matrix(-.70374,.7104,.7104,.70374,69.93357,39.236597)" d="M1.99252 0-1.19551 1.59401 0 0-1.19551-1.59401"/>
<path transform="matrix(1,0,0,-1,96.878,6.168995)" d="M28.34688-34.49652 17.00816-61.87164H39.6856Z"/>
<use data-text="." xlink:href="#font_3_88" transform="matrix(8.96638,0,0,-8.96638,121.378,63.247999)" fill="#ffffff"/>
<use data-text="." xlink:href="#font_3_88" transform="matrix(8.96638,0,0,-8.96638,123.94238,63.247999)" fill="#ffffff"/>
<use data-text="." xlink:href="#font_3_88" transform="matrix(8.96638,0,0,-8.96638,126.50677,63.247999)" fill="#ffffff"/>
<path transform="matrix(1,0,0,-1,96.878,6.168995)" stroke-width=".3985" stroke-linecap="butt" stroke-miterlimit="10" stroke-linejoin="miter" fill="none" stroke="#000000" d="M0-5.86859 26.93207-32.5723"/>
<path transform="matrix(.71008,.70406,.70406,-.71008,123.81007,38.741296)" d="M1.99252 0-1.19551 1.59401 0 0-1.19551-1.59401"/>
<path transform="matrix(1,0,0,-1,96.878,6.168995)" d="M85.0405-34.50946 73.70178-61.88458H96.37921Z"/>
<use data-text="T" xlink:href="#font_1_104" transform="matrix(8.96638,0,0,-8.96638,175.954,65.448)" fill="#ffffff"/>
<use data-text="m" xlink:href="#font_4_75" transform="matrix(5.97758,0,0,-5.97758,182.248,66.445)" fill="#ffffff"/>
<path transform="matrix(1,0,0,-1,96.878,6.168995)" stroke-width=".3985" stroke-linecap="butt" stroke-miterlimit="10" stroke-linejoin="miter" fill="none" stroke="#000000" d="M0-5.86859 83.14885-33.36252"/>
<path transform="matrix(.9494,.31392,.31392,-.9494,180.02686,39.531515)" d="M1.99252 0-1.19551 1.59401 0 0-1.19551-1.59401"/>
</svg>
