<svg xmlns="http://www.w3.org/2000/svg" xmlns:xlink="http://www.w3.org/1999/xlink" xmlns:inkscape="http://www.inkscape.org/namespaces/inkscape" version="1.1" width="84.246" height="44.317" viewBox="0 0 84.246 44.317">
<defs>
<path id="font_1_49" d="M.5019989 .041992189V.13505554C.5019989 .154068 .5019989 .17707825 .46499635 .17707825 .42799378 .17707825 .42799378 .154068 .42799378 .13505554V.06498718H.16799927V.2841797H.2939911C.2939911 .24613953 .2939911 .22712708 .33099366 .22712708 .36799623 .22712708 .36799623 .25013734 .36799623 .26916505V.36418153C.36799623 .38319398 .36799623 .40621949 .33099366 .40621949 .2939911 .40621949 .2939911 .38720704 .2939911 .34916688H.16799927V.5463257H.4059906V.49227906C.4059906 .4732666 .4059906 .45025636 .44299317 .45025636 .47999574 .45025636 .47999574 .4732666 .47999574 .49227906V.5693207C.47999574 .60232546 .47200013 .6113281 .43798829 .6113281H.06498718C.049987794 .6113281 .021987915 .6113281 .021987915 .5793152 .021987915 .5463257 .04899597 .5463257 .06498718 .5463257H.09399414V.06498718H.06498718C.049987794 .06498718 .021987915 .06498718 .021987915 .032989503 .021987915 0 .04899597 0 .06498718 0H.45999146C.49299623 0 .5019989 .0079956059 .5019989 .041992189Z"/>
<path id="font_1_103" d="M0 0Z"/>
<path id="font_1_67" d="M.47898866 .57832339C.47898866 .6113281 .45199586 .6113281 .43598939 .6113281H.25099183C.23498535 .6113281 .20899964 .6113281 .20899964 .57832339 .20899964 .5463257 .23599243 .5463257 .25099183 .5463257H.33299256V.13926697C.33299256 .060256959 .25498963 .054244996 .23498535 .054244996 .22499085 .054244996 .18099976 .055252077 .15299988 .07624817 .15699768 .08226013 .1599884 .087249759 .1599884 .102264408 .1599884 .12626648 .14199829 .14826966 .11399841 .14826966 .085998538 .14826966 .066986087 .12826538 .066986087 .100250247 .066986087 .03425598 .13398743-.0107421879 .23498535-.0107421879 .32099916-.0107421879 .40699769 .040252687 .40699769 .1352539V.5463257H.43598939C.45098878 .5463257 .47898866 .5463257 .47898866 .57832339Z"/>
<path id="font_1_27" d="M.49598695 .03199768C.49598695 .06498718 .46998597 .06498718 .45399476 .06498718H.43598939L.31799317 .5860138C.31098939 .6159973 .30099488 .625 .2669983 .625H.25698854C.22299195 .625 .21299744 .6170044 .20599365 .5860138L.08799744 .06498718H.069992069C.054992677 .06498718 .027999878 .06498718 .027999878 .032989503 .027999878 0 .053985597 0 .069992069 0H.1789856C.19400025 0 .22099304 0 .22099304 .03199768 .22099304 .06498718 .19898987 .06498718 .1639862 .06498718L.18499756 .15917969H.33898927L.3600006 .06498718C.32499696 .06498718 .30299378 .06498718 .30299378 .03199768 .30299378 0 .32998658 0 .34498597 0H.45399476C.46899415 0 .49598695 0 .49598695 .03199768M.32398988 .22416687H.19898987C.22499085 .3391266 .2579956 .49305726 .2619934 .5320282H.2630005C.2649994 .50904849 .2749939 .46105958 .27598573 .45407105L.32398988 .22416687Z"/>
<path id="font_1_42" d="M.48399354 .16920471C.48399354 .2032013 .45700074 .2032013 .44699098 .2032013 .44198609 .2032013 .4119873 .2032013 .4099884 .17720032 .4019928 .056243898 .29699708 .054244996 .28599549 .054244996 .19599915 .054244996 .11399841 .1612091 .11399841 .30516053 .11399841 .45410157 .19898987 .5570679 .2849884 .5570679 .30699159 .5570679 .3909912 .5480652 .4099884 .42411805 .4139862 .39912416 .43899537 .39912416 .44699098 .39912416 .48399354 .39912416 .48399354 .42211915 .48399354 .44110108V.58006289C.48399354 .59506228 .48399354 .6220703 .45199586 .6220703 .42999269 .6220703 .42399598 .61006167 .4079895 .57606509 .3849945 .59506228 .33999635 .6220703 .2809906 .6220703 .15098572 .6220703 .039993287 .48608399 .039993287 .30615235 .039993287 .1262207 .1499939-.0107421879 .28199769-.0107421879 .394989-.0107421879 .48399354 .07424927 .48399354 .16920471Z"/>
<path id="font_1_62" d="M.5059967 .03199768C.5059967 .06498718 .47999574 .06498718 .46398927 .06498718H.43998719V.5463257H.46398927C.47898866 .5463257 .5059967 .5463257 .5059967 .57832339 .5059967 .6113281 .47999574 .6113281 .46398927 .6113281H.34199525C.32598878 .6113281 .2999878 .6113281 .2999878 .57832339 .2999878 .5463257 .32699586 .5463257 .34199525 .5463257H.3659973V.35014344H.1579895V.5463257H.18199158C.19699097 .5463257 .22399903 .5463257 .22399903 .57832339 .22399903 .6113281 .19799805 .6113281 .18199158 .6113281H.05999756C.04499817 .6113281 .017990113 .6113281 .017990113 .5793152 .017990113 .5463257 .04399109 .5463257 .05999756 .5463257H.083999637V.06498718H.05999756C.04499817 .06498718 .017990113 .06498718 .017990113 .032989503 .017990113 0 .04399109 0 .05999756 0H.18199158C.19699097 0 .22399903 0 .22399903 .03199768 .22399903 .06498718 .19799805 .06498718 .18199158 .06498718H.1579895V.28515626H.3659973V.06498718H.34199525C.32598878 .06498718 .2999878 .06498718 .2999878 .03199768 .2999878 0 .32699586 0 .34199525 0H.46398927C.47898866 0 .5059967 0 .5059967 .03199768Z"/>
<path id="font_1_65" d="M.44999696 .03199768C.44999696 .06498718 .42199708 .06498718 .40699769 .06498718H.29899598V.5463257H.40699769C.42099 .5463257 .44999696 .5463257 .44999696 .57832339 .44999696 .6113281 .42199708 .6113281 .40699769 .6113281H.116989139C.102996829 .6113281 .07398987 .6113281 .07398987 .5793152 .07398987 .5463257 .101989749 .5463257 .116989139 .5463257H.22499085V.06498718H.116989139C.102996829 .06498718 .07398987 .06498718 .07398987 .032989503 .07398987 0 .101989749 0 .116989139 0H.40699769C.42099 0 .44999696 0 .44999696 .03199768Z"/>
<path id="font_1_71" d="M.48799134 .041992189V.1340332C.48799134 .15304566 .48799134 .17706299 .45098878 .17706299 .4139862 .17706299 .4139862 .15304566 .4139862 .1340332V.06498718H.17999268V.5463257H.23498535C.25 .5463257 .27799989 .5463257 .27799989 .57832339 .27799989 .6113281 .25099183 .6113281 .23498535 .6113281H.069992069C.054992677 .6113281 .027999878 .6113281 .027999878 .5793152 .027999878 .5463257 .053985597 .5463257 .069992069 .5463257H.10598755V.06498718H.069992069C.054992677 .06498718 .027999878 .06498718 .027999878 .032989503 .027999878 0 .053985597 0 .069992069 0H.44599916C.47898866 0 .48799134 .0079956059 .48799134 .041992189Z"/>
</defs>
<path transform="matrix(1,0,0,-1,42.147,7.9850008)" stroke-width=".3985" stroke-linecap="butt" stroke-miterlimit="10" stroke-linejoin="miter" fill="none" stroke="#000000" d=""/>
<path transform="matrix(1,0,0,-1,42.147,7.9850008)" stroke-width=".3985" stroke-linecap="butt" stroke-miterlimit="10" stroke-linejoin="miter" fill="none" stroke="#0000ff" d="M-7.2273-6.83981-21.26958-20.12923"/>
<path transform="matrix(-.72627,.68733,.68733,.72627,20.87744,28.114232)" d="M1.99252 0-1.19551 1.59401 0 0-1.19551-1.59401" fill="#0000ff"/>
<path transform="matrix(1,0,0,-1,42.147,7.9850008)" stroke-width=".3985" stroke-linecap="butt" stroke-miterlimit="10" stroke-linejoin="miter" fill="none" stroke="#000000" d=""/>
<path transform="matrix(1,0,0,-1,42.147,7.9850008)" stroke-width=".3985" stroke-linecap="butt" stroke-miterlimit="10" stroke-linejoin="miter" fill="none" stroke="#0000ff" d="M.00636-7.48518 .0161-18.86911"/>
<path transform="matrix(.00084,.99998,.99998,-.00084,42.16308,26.85411)" d="M1.99252 0-1.19551 1.59401 0 0-1.19551-1.59401" fill="#0000ff"/>
<path transform="matrix(1,0,0,-1,42.147,7.9850008)" stroke-width=".3985" stroke-linecap="butt" stroke-miterlimit="10" stroke-linejoin="miter" fill="none" stroke="#000000" d=""/>
<path transform="matrix(1,0,0,-1,42.147,7.9850008)" stroke-width=".3985" stroke-linecap="butt" stroke-miterlimit="10" stroke-linejoin="miter" fill="none" stroke="#0000ff" d="M7.2273-6.83981 21.28502-20.14383"/>
<path transform="matrix(.72627,.68733,.68733,-.72627,63.432,28.12883)" d="M1.99252 0-1.19551 1.59401 0 0-1.19551-1.59401" fill="#0000ff"/>
<path transform="matrix(1,0,0,-1,42.147,7.9850008)" d="M0 7.08669H4.18246C8.09639 7.08669 11.26917 3.91391 11.26917 0 11.26917-3.91391 8.09639-7.08669 4.18246-7.08669H-4.18246C-8.09639-7.08669-11.26917-3.91391-11.26917 0-11.26917 3.91391-8.09639 7.08669-4.18246 7.08669Z" fill="#ccccff"/>
<path transform="matrix(1,0,0,-1,42.147,7.9850008)" stroke-width=".79701" stroke-linecap="butt" stroke-miterlimit="10" stroke-linejoin="miter" fill="none" stroke="#8080ff" d="M0 7.08669H4.18246C8.09639 7.08669 11.26917 3.91391 11.26917 0 11.26917-3.91391 8.09639-7.08669 4.18246-7.08669H-4.18246C-8.09639-7.08669-11.26917-3.91391-11.26917 0-11.26917 3.91391-8.09639 7.08669-4.18246 7.08669Z"/>
<use data-text="E" xlink:href="#font_1_49" transform="matrix(8.96638,0,0,-8.96638,35.086,10.675003)"/>
<use data-text=" " xlink:href="#font_1_103" transform="matrix(8.96638,0,0,-8.96638,39.79335,10.675003)"/>
<use data-text="J" xlink:href="#font_1_67" transform="matrix(8.96638,0,0,-8.96638,44.5007,10.675003)"/>
<path transform="matrix(1,0,0,-1,12.195,36.332)" d="M0 7.08669H4.20972C8.12364 7.08669 11.29642 3.91391 11.29642 0 11.29642-3.91391 8.12364-7.08669 4.20972-7.08669H-4.20972C-8.12364-7.08669-11.29642-3.91391-11.29642 0-11.29642 3.91391-8.12364 7.08669-4.20972 7.08669Z" fill="#ccccff"/>
<path transform="matrix(1,0,0,-1,12.195,36.332)" stroke-width=".79701" stroke-linecap="butt" stroke-miterlimit="10" stroke-linejoin="miter" fill="none" stroke="#8080ff" d="M0 7.08669H4.20972C8.12364 7.08669 11.29642 3.91391 11.29642 0 11.29642-3.91391 8.12364-7.08669 4.20972-7.08669H-4.20972C-8.12364-7.08669-11.29642-3.91391-11.29642 0-11.29642 3.91391-8.12364 7.08669-4.20972 7.08669Z"/>
<use data-text="A" xlink:href="#font_1_27" transform="matrix(8.96638,0,0,-8.96638,5.134,39.085)"/>
<use data-text=" " xlink:href="#font_1_103" transform="matrix(8.96638,0,0,-8.96638,9.84135,39.085)"/>
<use data-text="C" xlink:href="#font_1_42" transform="matrix(8.96638,0,0,-8.96638,14.548699,39.085)"/>
<path transform="matrix(1,0,0,-1,42.170999,36.332)" d="M0 7.08669H4.16148C8.07541 7.08669 11.24818 3.91391 11.24818 0 11.24818-3.91391 8.07541-7.08669 4.16148-7.08669H-4.16148C-8.07541-7.08669-11.24818-3.91391-11.24818 0-11.24818 3.91391-8.07541 7.08669-4.16148 7.08669Z" fill="#ccccff"/>
<path transform="matrix(1,0,0,-1,42.170999,36.332)" stroke-width=".79701" stroke-linecap="butt" stroke-miterlimit="10" stroke-linejoin="miter" fill="none" stroke="#8080ff" d="M0 7.08669H4.16148C8.07541 7.08669 11.24818 3.91391 11.24818 0 11.24818-3.91391 8.07541-7.08669 4.16148-7.08669H-4.16148C-8.07541-7.08669-11.24818-3.91391-11.24818 0-11.24818 3.91391-8.07541 7.08669-4.16148 7.08669Z"/>
<use data-text="H" xlink:href="#font_1_62" transform="matrix(8.96638,0,0,-8.96638,35.109998,39.071)"/>
<use data-text=" " xlink:href="#font_1_103" transform="matrix(8.96638,0,0,-8.96638,39.81735,39.071)"/>
<use data-text="I" xlink:href="#font_1_65" transform="matrix(8.96638,0,0,-8.96638,44.5247,39.071)"/>
<path transform="matrix(1,0,0,-1,72.099,36.332)" d="M0 7.08669H4.16148C8.07541 7.08669 11.24818 3.91391 11.24818 0 11.24818-3.91391 8.07541-7.08669 4.16148-7.08669H-4.16148C-8.07541-7.08669-11.24818-3.91391-11.24818 0-11.24818 3.91391-8.07541 7.08669-4.16148 7.08669Z" fill="#ccccff"/>
<path transform="matrix(1,0,0,-1,72.099,36.332)" stroke-width=".79701" stroke-linecap="butt" stroke-miterlimit="10" stroke-linejoin="miter" fill="none" stroke="#8080ff" d="M0 7.08669H4.16148C8.07541 7.08669 11.24818 3.91391 11.24818 0 11.24818-3.91391 8.07541-7.08669 4.16148-7.08669H-4.16148C-8.07541-7.08669-11.24818-3.91391-11.24818 0-11.24818 3.91391-8.07541 7.08669-4.16148 7.08669Z"/>
<use data-text="L" xlink:href="#font_1_71" transform="matrix(8.96638,0,0,-8.96638,65.038,39.071)"/>
<use data-text=" " xlink:href="#font_1_103" transform="matrix(8.96638,0,0,-8.96638,69.74535,39.071)"/>
<use data-text=" " xlink:href="#font_1_103" transform="matrix(8.96638,0,0,-8.96638,74.452709,39.071)"/>
</svg>
