<svg xmlns="http://www.w3.org/2000/svg" xmlns:xlink="http://www.w3.org/1999/xlink" xmlns:inkscape="http://www.inkscape.org/namespaces/inkscape" version="1.1" width="221.013" height="126.548" viewBox="0 0 221.013 126.548">
<defs>
<path id="font_1_97" d="M.49899293 .18856812C.49899293 .25358583 .46798707 .30158998 .44599916 .32559205 .39898683 .3755951 .3659973 .38459779 .27398683 .40760804 .21598816 .4216156 .19999695 .42562867 .16999817 .4516449 .16299439 .45765687 .1349945 .48667909 .1349945 .53071597 .1349945 .58976748 .18899536 .6498108 .2809906 .6498108 .36499024 .6498108 .41299439 .6167908 .44999696 .5857544L.46499635 .66581729C.4099884 .69880679 .35499574 .7158203 .28199769 .7158203 .14299011 .7158203 .055999757 .6177826 .055999757 .5187073 .055999757 .47566224 .069992069 .43362428 .10998535 .39160157 .1519928 .34658814 .19599915 .33459474 .25498963 .32058717 .33999635 .29959107 .34999085 .29658509 .37799073 .27157594 .397995 .25457765 .41999818 .22157288 .41999818 .17855835 .41999818 .11254883 .36499024 .046524049 .27398683 .046524049 .23298645 .046524049 .14299011 .056533815 .05899048 .12754822L.04399109 .046524049C.13198853-.008468628 .21199036-.022460938 .2749939-.022460938 .40699769-.022460938 .49899293 .07853699 .49899293 .18856812Z"/>
<path id="font_1_111" d="M.6519928 .69433596H.57398989L.44099427 .3521576C.4249878 .31114198 .34999085 .11804199 .34098817 .072021488H.33999635C.33198548 .11204529 .2889862 .22209168 .27999879 .24610901L.10699463 .69433596H.01399231L.2869873 0H.3789978L.6519928 .69433596Z"/>
<path id="font_1_83" d="M.58200076 .4921875C.58200076 .59928897 .48298646 .69433596 .34498597 .69433596H.09599304V0H.18499756V.2890625H.35198976C.47599793 .2890625 .58200076 .38008119 .58200076 .4921875M.5009918 .4921875C.5009918 .41311646 .43798829 .34706117 .32299806 .34706117H.18199158V.6383209H.32299806C.43299867 .6383209 .5009918 .5772705 .5009918 .4921875Z"/>
<path id="font_1_76" d="M.61099246 0V.69433596H.5329895V.07102966H.5319977L.46499635 .20809937 .21998596 .69433596H.09599304V0H.17399597V.623291H.1749878L.24198914 .4862213 .4869995 0H.61099246Z"/>
<path id="font_1_75" d="M.71299746 0V.29804994C.71299746 .36506654 .69699099 .45507813 .57598879 .45507813 .5159912 .45507813 .46398927 .427063 .4269867 .37306214 .40098573 .44906617 .33099366 .45507813 .29899598 .45507813 .22698975 .45507813 .17999268 .41407777 .15299988 .37806703V.45007325H.08099365V0H.15899658V.2450409C.15899658 .31304933 .18598938 .3940735 .2599945 .3940735 .35299684 .3940735 .35798646 .3290558 .35798646 .29104615V0H.43598939V.2450409C.43598939 .31304933 .46299745 .3940735 .5369873 .3940735 .6299896 .3940735 .6349945 .3290558 .6349945 .29104615V0H.71299746Z"/>
<path id="font_1_28" d="M.40899659 .00024414063V.28903199C.40899659 .39094544 .33599855 .4609375 .24398804 .4609375 .1789856 .4609375 .13398743 .44493104 .08699036 .41792298L.09298706 .3519745C.14498902 .38894654 .19499207 .40193177 .24398804 .40193177 .29100038 .40193177 .33099366 .361969 .33099366 .2880249V.24505615C.18099976 .24305725 .053985597 .20106507 .053985597 .11317444 .053985597 .07022095 .08099365-.0107421879 .16799927-.0107421879 .18199158-.0107421879 .27598573-.008743286 .33399964 .036254884V.00024414063H.40899659M.33099366 .13214112C.33099366 .11317444 .33099366 .0881958 .29699708 .069229129 .2679901 .051254274 .22999573 .050247194 .21899414 .050247194 .17098999 .050247194 .12599182 .07322693 .12599182 .11515808 .12599182 .18507385 .28799439 .19206238 .33099366 .19406128V.13214112Z"/>
<path id="font_1_105" d="M.33198548 .027252198 .31599427 .086257938C.2899933 .06524658 .2579956 .053253175 .22599793 .053253175 .18899536 .053253175 .1749878 .08325195 .1749878 .13627625V.38632203H.31599427V.44433595H.1749878V.57128909H.10598755V.44433595H.018997193V.38632203H.102996829V.119262699C.102996829 .059249879 .116989139-.0107421879 .18598938-.0107421879 .2559967-.0107421879 .30699159 .014251709 .33198548 .027252198Z"/>
<path id="font_1_46" d="M.6649933 .341156C.6649933 .5352783 .5299988 .69433596 .35798646 .69433596H.09599304V0H.35899354C.5289917 0 .6649933 .15205384 .6649933 .341156M.57899478 .341156C.57899478 .17106629 .47499085 .055999757 .33499146 .055999757H.18199158V.6383209H.33499146C.47499085 .6383209 .57899478 .5172577 .57899478 .341156Z"/>
<path id="font_1_50" d="M.4139862 .21875C.4139862 .25274659 .41299439 .32781983 .37399293 .38790895 .33299256 .4499359 .27198792 .4609375 .23599243 .4609375 .125 .4609375 .034988405 .3548584 .034988405 .22573853 .034988405 .09411621 .1309967-.0107421879 .25099183-.0107421879 .31399537-.0107421879 .37098695 .013244629 .4099884 .041244508L.4039917 .1060791C.34098817 .054244996 .2749939 .050247194 .2519989 .050247194 .17199707 .050247194 .10798645 .121032718 .10499573 .21875H.4139862M.35699464 .27374269H.10998535C.12599182 .34985353 .1789856 .39993287 .23599243 .39993287 .28799439 .39993287 .34399415 .36587525 .35699464 .27374269Z"/>
<path id="font_1_63" d="M.43499757 0V.29804994C.43499757 .36405946 .41999818 .45507813 .2979889 .45507813 .23599243 .45507813 .18798828 .42407228 .1559906 .3830719V.69433596H.08099365V0H.15899658V.2450409C.15899658 .31105042 .18399048 .3940735 .2599945 .3940735 .35598756 .3940735 .35699464 .32305909 .35699464 .29104615V0H.43499757Z"/>
<path id="font_1_81" d="M.46899415 .22009278C.46899415 .3539734 .36898805 .4609375 .25 .4609375 .1269989 .4609375 .02999878 .35098268 .02999878 .22009278 .02999878 .08821106 .13198853-.0107421879 .24899292-.0107421879 .36898805-.0107421879 .46899415 .09020996 .46899415 .22009278M.3909912 .23008728C.3909912 .112197879 .32299806 .053253175 .24899292 .053253175 .17999268 .053253175 .10798645 .109191898 .10798645 .23008728 .10798645 .35098268 .18399048 .39993287 .24899292 .39993287 .31900025 .39993287 .3909912 .34797669 .3909912 .23008728Z"/>
<path id="font_1_77" d="M.43499757 0V.29804994C.43499757 .36405946 .41999818 .45507813 .2979889 .45507813 .20799256 .45507813 .15899658 .3870697 .15299988 .3790741V.45007325H.08099365V0H.15899658V.2450409C.15899658 .31105042 .18399048 .3940735 .2599945 .3940735 .35598756 .3940735 .35699464 .32305909 .35699464 .29104615V0H.43499757Z"/>
<path id="font_1_98" d="M.3600006 .12817383C.3600006 .18313599 .32299806 .21710205 .32099916 .22009278 .28199769 .25506593 .25498963 .26106263 .20498657 .27005006 .1499939 .28103639 .10398865 .29103089 .10398865 .33998109 .10398865 .40193177 .17599488 .40193177 .18899536 .40193177 .22099304 .40193177 .27398683 .39793397 .33099366 .3639679L.34298707 .42892457C.29100038 .45292665 .25 .4609375 .19898987 .4609375 .17399597 .4609375 .032989503 .4609375 .032989503 .32998658 .032989503 .28103639 .06199646 .24906922 .08699036 .23008728 .117996219 .20809937 .13999939 .20411682 .19499207 .19311524 .23098755 .18612671 .2889862 .1741333 .2889862 .1211853 .2889862 .052246095 .20999146 .052246095 .19499207 .052246095 .11399841 .052246095 .057998659 .08921814 .039993287 .10121155L.027999878 .0332489C.05999756 .01725769 .114990238-.0107421879 .19599915-.0107421879 .21398926-.0107421879 .2689972-.0107421879 .31199647 .021255494 .34298707 .04525757 .3600006 .08522034 .3600006 .12817383Z"/>
<path id="font_1_43" d="M.4149933 .040252687 .40899659 .10719299C.35798646 .067230228 .3039856 .053253175 .25299073 .053253175 .16999817 .053253175 .11399841 .1251831 .11399841 .2230835 .11399841 .3010254 .15098572 .39692689 .25698854 .39692689 .30899049 .39692689 .34298707 .38893128 .397995 .3529663L.4099884 .41792298C.35099793 .4519348 .31698609 .4609375 .2559967 .4609375 .116989139 .4609375 .035995485 .33998109 .035995485 .22209168 .035995485 .09820557 .1269989-.0107421879 .2519989-.0107421879 .30599977-.0107421879 .36099244 .003250122 .4149933 .040252687Z"/>
</defs>
<path transform="matrix(.8,0,0,-.8,77.5376,9.657593)" d="M-6.66876-3.876H6.66878V11.44701H-6.66876Z" fill="#ffffff"/>
<use data-text="S" xlink:href="#font_1_97" transform="matrix(8.727272,0,0,-8.727272,75.1112,9.657593)"/>
<path transform="matrix(.8,0,0,-.8,124.6184,32.334398)" d="M-10.75972-3.636H10.759729V11.207021H-10.75972Z" fill="#ffffff"/>
<use data-text="V" xlink:href="#font_1_111" transform="matrix(8.727272,0,0,-8.727272,118.9192,32.334398)"/>
<use data-text="P" xlink:href="#font_1_83" transform="matrix(8.727272,0,0,-8.727272,124.74029,32.334398)"/>
<path transform="matrix(.8,0,0,-.8,158.9432,55.011995)" d="M-10.60701-3.636H10.60701V11.207021H-10.60701Z" fill="#ffffff"/>
<use data-text="P" xlink:href="#font_1_83" transform="matrix(8.727272,0,0,-8.727272,153.36641,55.011995)"/>
<use data-text="P" xlink:href="#font_1_83" transform="matrix(8.727272,0,0,-8.727272,158.94313,55.011995)"/>
<path transform="matrix(.8,0,0,-.8,189.31522,77.6888)" d="M-10.98337-3.636H10.98337V11.207021H-10.98337Z" fill="#ffffff"/>
<use data-text="N" xlink:href="#font_1_76" transform="matrix(8.727272,0,0,-8.727272,183.43762,77.6888)"/>
<use data-text="P" xlink:href="#font_1_83" transform="matrix(8.727272,0,0,-8.727272,189.61653,77.6888)"/>
<path transform="matrix(.8,0,0,-.8,210.46402,100.3664)" d="M-7.49786-3.636H7.49788V11.207021H-7.49786Z" fill="#ffffff"/>
<use data-text="N" xlink:href="#font_1_76" transform="matrix(8.727272,0,0,-8.727272,207.37442,100.3664)"/>
<path transform="matrix(.8,0,0,-.8,210.46402,123.043209)" d="M-12.55974-3.75601H12.55975V9.86518H-12.55974Z" fill="#ffffff"/>
<use data-text="m" xlink:href="#font_1_75" transform="matrix(8.727272,0,0,-8.727272,203.32482,123.043209)"/>
<use data-text="a" xlink:href="#font_1_28" transform="matrix(8.727272,0,0,-8.727272,210.25426,123.043209)"/>
<use data-text="t" xlink:href="#font_1_105" transform="matrix(8.727272,0,0,-8.727272,214.45209,123.043209)"/>
<path transform="matrix(.8,0,0,-.8,210.46402,100.3664)" stroke-width=".3985" stroke-linecap="butt" stroke-miterlimit="10" stroke-linejoin="miter" fill="none" stroke="#000000" d="M0-3.83525V-18.28238"/>
<path transform="matrix(.8,0,0,-.8,168.16707,100.366909)" d="M-11.9652-3.75601H11.9652V11.20702H-11.9652Z" fill="#ffffff"/>
<use data-text="D" xlink:href="#font_1_46" transform="matrix(8.727272,0,0,-8.727272,161.50388,100.366909)"/>
<use data-text="e" xlink:href="#font_1_50" transform="matrix(8.727272,0,0,-8.727272,167.80496,100.366909)"/>
<use data-text="t" xlink:href="#font_1_105" transform="matrix(8.727272,0,0,-8.727272,171.67989,100.366909)"/>
<path transform="matrix(.8,0,0,-.8,168.16707,123.04371)" d="M-10.847-3.75601H10.847V11.20702H-10.847Z" fill="#ffffff"/>
<use data-text="t" xlink:href="#font_1_105" transform="matrix(8.727272,0,0,-8.727272,162.39827,123.0437)"/>
<use data-text="h" xlink:href="#font_1_63" transform="matrix(8.727272,0,0,-8.727272,165.54882,123.0437)"/>
<use data-text="e" xlink:href="#font_1_50" transform="matrix(8.727272,0,0,-8.727272,170.0608,123.0437)"/>
<path transform="matrix(.8,0,0,-.8,168.16707,100.366909)" stroke-width=".3985" stroke-linecap="butt" stroke-miterlimit="10" stroke-linejoin="miter" fill="none" stroke="#000000" d="M0-3.95526V-16.94054"/>
<path transform="matrix(.8,0,0,-.8,189.31522,77.6888)" stroke-width=".3985" stroke-linecap="butt" stroke-miterlimit="10" stroke-linejoin="miter" fill="none" stroke="#000000" d="M0-3.83525-26.43587-16.94054"/>
<path transform="matrix(.8,0,0,-.8,189.31522,77.6888)" stroke-width=".3985" stroke-linecap="butt" stroke-miterlimit="10" stroke-linejoin="miter" fill="none" stroke="#000000" d="M0-3.83525 26.43588-16.94054"/>
<path transform="matrix(.8,0,0,-.8,128.57096,77.6893)" d="M-7.12149-3.636H7.12151V11.207021H-7.12149Z" fill="#ffffff"/>
<use data-text="P" xlink:href="#font_1_83" transform="matrix(8.727272,0,0,-8.727272,125.78295,77.68931)"/>
<path transform="matrix(.8,0,0,-.8,128.57096,100.366909)" d="M-9.18333-3.75601H9.183351V8.66515H-9.18333Z" fill="#ffffff"/>
<use data-text="o" xlink:href="#font_1_81" transform="matrix(8.727272,0,0,-8.727272,124.133358,100.366909)"/>
<use data-text="n" xlink:href="#font_1_77" transform="matrix(8.727272,0,0,-8.727272,128.49698,100.366909)"/>
<path transform="matrix(.8,0,0,-.8,128.57096,77.6893)" stroke-width=".3985" stroke-linecap="butt" stroke-miterlimit="10" stroke-linejoin="miter" fill="none" stroke="#000000" d="M0-3.83525V-19.48239"/>
<path transform="matrix(.8,0,0,-.8,158.9432,55.011995)" stroke-width=".3985" stroke-linecap="butt" stroke-miterlimit="10" stroke-linejoin="miter" fill="none" stroke="#000000" d="M0-3.83525-37.9656-16.94054"/>
<path transform="matrix(.8,0,0,-.8,158.9432,55.011995)" stroke-width=".3985" stroke-linecap="butt" stroke-miterlimit="10" stroke-linejoin="miter" fill="none" stroke="#000000" d="M0-3.83525 37.9656-16.94054"/>
<path transform="matrix(.8,0,0,-.8,90.293689,55.012506)" d="M-7.27423-3.636H7.27423V11.207021H-7.27423Z" fill="#ffffff"/>
<use data-text="V" xlink:href="#font_1_111" transform="matrix(8.727272,0,0,-8.727272,87.382488,55.012506)"/>
<path transform="matrix(.8,0,0,-.8,90.293689,77.68931)" d="M-10.3179-3.75601H10.3179V9.86518H-10.3179Z" fill="#ffffff"/>
<use data-text="s" xlink:href="#font_1_98" transform="matrix(8.727272,0,0,-8.727272,84.94809,77.68931)"/>
<use data-text="a" xlink:href="#font_1_28" transform="matrix(8.727272,0,0,-8.727272,88.290637,77.68931)"/>
<use data-text="t" xlink:href="#font_1_105" transform="matrix(8.727272,0,0,-8.727272,92.48845,77.68931)"/>
<path transform="matrix(.8,0,0,-.8,90.293689,55.012506)" stroke-width=".3985" stroke-linecap="butt" stroke-miterlimit="10" stroke-linejoin="miter" fill="none" stroke="#000000" d="M0-3.83525V-18.28238"/>
<path transform="matrix(.8,0,0,-.8,124.6184,32.334398)" stroke-width=".3985" stroke-linecap="butt" stroke-miterlimit="10" stroke-linejoin="miter" fill="none" stroke="#000000" d="M0-3.83525-42.90683-16.94054"/>
<path transform="matrix(.8,0,0,-.8,124.6184,32.334398)" stroke-width=".3985" stroke-linecap="butt" stroke-miterlimit="10" stroke-linejoin="miter" fill="none" stroke="#000000" d="M0-3.83525 42.90683-16.94054"/>
<path transform="matrix(.8,0,0,-.8,30.456383,32.335538)" d="M-10.98337-3.636H10.98337V11.207021H-10.98337Z" fill="#ffffff"/>
<use data-text="N" xlink:href="#font_1_76" transform="matrix(8.727272,0,0,-8.727272,24.578783,32.33554)"/>
<use data-text="P" xlink:href="#font_1_83" transform="matrix(8.727272,0,0,-8.727272,30.757689,32.33554)"/>
<path transform="matrix(.8,0,0,-.8,50.841184,55.012338)" d="M-7.49786-3.636H7.49788V11.207021H-7.49786Z" fill="#ffffff"/>
<use data-text="N" xlink:href="#font_1_76" transform="matrix(8.727272,0,0,-8.727272,47.751585,55.01233)"/>
<path transform="matrix(.8,0,0,-.8,50.841184,77.68994)" d="M-10.65063-3.75601H10.650649V9.86518H-10.65063Z" fill="#ffffff"/>
<use data-text="c" xlink:href="#font_1_43" transform="matrix(8.727272,0,0,-8.727272,45.229986,77.68993)"/>
<use data-text="a" xlink:href="#font_1_28" transform="matrix(8.727272,0,0,-8.727272,49.104894,77.68993)"/>
<use data-text="t" xlink:href="#font_1_105" transform="matrix(8.727272,0,0,-8.727272,53.302709,77.68993)"/>
<path transform="matrix(.8,0,0,-.8,50.841184,55.012338)" stroke-width=".3985" stroke-linecap="butt" stroke-miterlimit="10" stroke-linejoin="miter" fill="none" stroke="#000000" d="M0-3.83525V-18.28238"/>
<path transform="matrix(.8,0,0,-.8,10.071423,55.01364)" d="M-11.9652-3.75601H11.9652V11.20702H-11.9652Z" fill="#ffffff"/>
<use data-text="D" xlink:href="#font_1_46" transform="matrix(8.727272,0,0,-8.727272,3.4082223,55.01364)"/>
<use data-text="e" xlink:href="#font_1_50" transform="matrix(8.727272,0,0,-8.727272,9.709312,55.01364)"/>
<use data-text="t" xlink:href="#font_1_105" transform="matrix(8.727272,0,0,-8.727272,13.584221,55.01364)"/>
<path transform="matrix(.8,0,0,-.8,10.071423,77.690448)" d="M-10.847-3.75601H10.847V11.20702H-10.847Z" fill="#ffffff"/>
<use data-text="t" xlink:href="#font_1_105" transform="matrix(8.727272,0,0,-8.727272,4.3026239,77.690448)"/>
<use data-text="h" xlink:href="#font_1_63" transform="matrix(8.727272,0,0,-8.727272,7.453171,77.690448)"/>
<use data-text="e" xlink:href="#font_1_50" transform="matrix(8.727272,0,0,-8.727272,11.965172,77.690448)"/>
<path transform="matrix(.8,0,0,-.8,10.071423,55.01364)" stroke-width=".3985" stroke-linecap="butt" stroke-miterlimit="10" stroke-linejoin="miter" fill="none" stroke="#000000" d="M0-3.95526V-16.94054"/>
<path transform="matrix(.8,0,0,-.8,30.456383,32.335538)" stroke-width=".3985" stroke-linecap="butt" stroke-miterlimit="10" stroke-linejoin="miter" fill="none" stroke="#000000" d="M0-3.83525-25.48132-16.94054"/>
<path transform="matrix(.8,0,0,-.8,30.456383,32.335538)" stroke-width=".3985" stroke-linecap="butt" stroke-miterlimit="10" stroke-linejoin="miter" fill="none" stroke="#000000" d="M0-3.83525 25.48132-16.94054"/>
<path transform="matrix(.8,0,0,-.8,77.5376,9.657593)" stroke-width=".3985" stroke-linecap="butt" stroke-miterlimit="10" stroke-linejoin="miter" fill="none" stroke="#000000" d="M0-4.07526-58.85175-16.94054"/>
<path transform="matrix(.8,0,0,-.8,77.5376,9.657593)" stroke-width=".3985" stroke-linecap="butt" stroke-miterlimit="10" stroke-linejoin="miter" fill="none" stroke="#000000" d="M0-4.07526 58.85176-16.94054"/>
</svg>
