<svg xmlns="http://www.w3.org/2000/svg" xmlns:xlink="http://www.w3.org/1999/xlink" xmlns:inkscape="http://www.inkscape.org/namespaces/inkscape" version="1.1" width="170.916" height="72.663" viewBox="0 0 170.916 72.663">
<defs>
<path id="font_1_107" d="M.47200013 .041992189V.070999149C.47200013 .08999634 .47200013 .11300659 .43499757 .11300659 .397995 .11300659 .397995 .09199524 .397995 .06498718H.17298889C.22599793 .11099243 .33799745 .2000122 .36299134 .2230072 .3999939 .25901795 .47200013 .32603456 .47200013 .42504884 .47200013 .5440521 .37298585 .6220703 .24899292 .6220703 .13198853 .621994 .051986696 .5419922 .051986696 .45700074 .051986696 .4169922 .083999637 .40699769 .09899902 .40699769 .11898804 .40704347 .14498902 .42404176 .14498902 .45404054 .14498902 .47505189 .13699341 .48205567 .13198853 .4870453 .14898682 .53105166 .19299317 .5570679 .24398804 .5570679 .32398988 .5570679 .397995 .51104739 .397995 .42504884 .397995 .35502626 .34399415 .2950287 .3039856 .26202394L.066986087 .06199646C.05899048 .054992677 .051986696 .04798889 .051986696 .032989503 .051986696 0 .07899475 0 .09498596 0H.42999269C.46299745 0 .47200013 .0079956059 .47200013 .041992189Z"/>
<path id="font_1_103" d="M0 0Z"/>
<path id="font_1_121" d="M.47599793 .30516053C.47599793 .49108888 .37399293 .6220703 .2619934 .6220703 .14898682 .6220703 .04798889 .4880829 .04798889 .30615235 .04798889 .120224 .1499939-.0107421879 .2619934-.0107421879 .375-.0107421879 .47599793 .12322998 .47599793 .30516053M.4019928 .31614686C.4019928 .17120362 .33999635 .054244996 .2619934 .054244996 .18399048 .054244996 .12199402 .1722107 .12199402 .31614686 .12199402 .46110536 .18998719 .5570679 .2619934 .5570679 .33399964 .5570679 .4019928 .46009828 .4019928 .31614686Z"/>
<path id="font_1_51" d="M.47999574 .17506409C.47999574 .25805665 .4039917 .3120575 .34098817 .33006288 .39898683 .34706117 .46598817 .39205934 .46598817 .46105958 .46598817 .5430603 .38198854 .6220703 .2619934 .6220703 .14199829 .6220703 .057998659 .5430603 .057998659 .46105958 .057998659 .39205934 .125 .34606935 .18299866 .33006288 .117996219 .31129457 .04399109 .25628663 .04399109 .17527771 .04399109 .07725525 .13598633-.0107421879 .2619934-.0107421879 .3880005-.0107421879 .47999574 .07826233 .47999574 .17527771V.17506409M.3919983 .46029664C.3919983 .40530396 .33198548 .3623047 .2619934 .3623047 .19198609 .36213685 .13198853 .40512086 .13198853 .46009828 .13198853 .51008608 .18598938 .5570679 .2619934 .5570679 .33799745 .5570679 .3919983 .51008608 .3919983 .46009828V.46029664M.4059906 .1762085C.4059906 .11022949 .34298707 .054244996 .2619934 .054244996 .18099976 .05429077 .117996219 .11029053 .117996219 .17630005 .117996219 .23728943 .1749878 .29730226 .2619934 .29730226 .34999085 .29730226 .4059906 .23728943 .4059906 .17630005V.1762085Z"/>
<path id="font_1_57" d="M.49499513 .19996643C.49499513 .23295594 .46798707 .23295594 .45298768 .23295594H.3789978V.5819855C.3789978 .6159973 .37098695 .625 .33599855 .625H.30699159C.28199769 .625 .27598573 .6239929 .2630005 .6029968L.037994386 .2469635C.0289917 .23396302 .0289917 .23196411 .0289917 .21096802 .0289917 .18196106 .032989503 .16796875 .070999149 .16796875H.31900025V.06498718H.25898744C.24499512 .06498718 .21699524 .06498718 .21699524 .032989503 .21699524 0 .24398804 0 .25898744 0H.43899537C.45298768 0 .48098756 0 .48098756 .03199768 .48098756 .06498718 .45399476 .06498718 .43899537 .06498718H.3789978V.16796875H.45298768C.46699525 .16796875 .49499513 .16796875 .49499513 .19996643M.31900025 .23295594H.10398865L.31900025 .57398989V.23295594Z"/>
<path id="font_1_101" d="M.47399903 .19306946C.47399903 .30607606 .3849945 .3960724 .272995 .3960724 .21798706 .3960724 .16699219 .3770752 .12599182 .34106446 .14099121 .47406007 .22999573 .5570679 .31999208 .5570679 .32899476 .5570679 .35398866 .5570679 .36999513 .5410614 .3639984 .5340576 .36099244 .52305606 .36099244 .5140686 .36099244 .49105836 .37799073 .46806336 .40699769 .46806336 .43399049 .46806336 .45399476 .48706056 .45399476 .5170593 .45399476 .5630646 .42199708 .6220703 .31999208 .6220703 .18499756 .6220703 .049987794 .4990692 .049987794 .30014039 .049987794 .0642395 .16099549-.0107421879 .2649994-.0107421879 .37399293-.0107421879 .47399903 .07223511 .47399903 .19316101V.19306946M.3999939 .19316101C.3999939 .111206058 .33599855 .054244996 .2639923 .054244996 .16799927 .054244996 .13398743 .16117859 .13398743 .22213745 .13398743 .2790985 .19099427 .33007813 .2679901 .33007813 .34799195 .33007813 .3999939 .2651062 .3999939 .19316101Z"/>
<path id="font_1_106" d="M.47999574 .17529297C.47999574 .2572937 .41799928 .31329347 .37098695 .33428956 .44400025 .386261 .45098878 .4521942 .45098878 .4791565 .45098878 .5560608 .375 .6220703 .2619934 .6220703 .13899231 .6220703 .07299805 .5730591 .07299805 .50512698 .07299805 .4751587 .09498596 .45718385 .11999512 .45718385 .14498902 .45718385 .1659851 .4771576 .1659851 .50312808 .1659851 .5121155 .16299439 .5231018 .1579895 .53009036 .19099427 .5570679 .2559967 .5570679 .2619934 .5570679 .33198548 .5570679 .3769989 .5201111 .3769989 .4791565 .3769989 .45118714 .3639984 .41023255 .32499696 .38526917 .29899598 .36828614 .2809906 .3672943 .23399353 .36428834 .19499207 .3623047 .1749878 .36029054 .1749878 .33029176 .1749878 .29730226 .20199585 .29730226 .21699524 .29730226H.25898744C.3619995 .29730226 .4059906 .22727967 .4059906 .17626953 .4059906 .11326599 .34899903 .054244996 .2630005 .054244996 .23699951 .054244996 .16099549 .058258058 .12599182 .10626221L.12799073 .10926819C.13398743 .118255618 .13398743 .120269779 .13598633 .13026428 .13598633 .13026428 .13699341 .13327027 .13699341 .13726807 .13699341 .16227722 .116989139 .18327332 .09098816 .18327332 .066986087 .18327332 .04399109 .16827393 .04399109 .13426209 .04399109 .04624939 .13798523-.0107421879 .2630005-.0107421879 .3929901-.0107421879 .47999574 .08026123 .47999574 .17527771V.17529297Z"/>
</defs>
<path transform="matrix(1,0,0,-1,85.463,7.9850008)" stroke-width=".3985" stroke-linecap="butt" stroke-miterlimit="10" stroke-linejoin="miter" fill="none" stroke="#000000" d=""/>
<path transform="matrix(1,0,0,-1,85.463,7.9850008)" stroke-width=".3985" stroke-linecap="butt" stroke-miterlimit="10" stroke-linejoin="miter" fill="none" stroke="#0000ff" d="M-11.63858-7.47485-30.82028-19.79428"/>
<path transform="matrix(-.84137,.54036,.54036,.84137,54.642728,27.77927)" d="M1.99252 0-1.19551 1.59401 0 0-1.19551-1.59401" fill="#0000ff"/>
<path transform="matrix(1,0,0,-1,85.463,7.9850008)" stroke-width=".3985" stroke-linecap="butt" stroke-miterlimit="10" stroke-linejoin="miter" fill="none" stroke="#000000" d=""/>
<path transform="matrix(1,0,0,-1,85.463,7.9850008)" stroke-width=".3985" stroke-linecap="butt" stroke-miterlimit="10" stroke-linejoin="miter" fill="none" stroke="#0000ff" d="M11.63858-7.47485 30.82028-19.79428"/>
<path transform="matrix(.84137,.54036,.54036,-.84137,116.283267,27.77927)" d="M1.99252 0-1.19551 1.59401 0 0-1.19551-1.59401" fill="#0000ff"/>
<path transform="matrix(1,0,0,-1,85.463,7.9850008)" stroke-width=".3985" stroke-linecap="butt" stroke-miterlimit="10" stroke-linejoin="miter" fill="none" stroke="#000000" d=""/>
<path transform="matrix(1,0,0,-1,85.463,7.9850008)" stroke-width=".3985" stroke-linecap="butt" stroke-miterlimit="10" stroke-linejoin="miter" fill="none" stroke="#0000ff" d="M-49.96483-35.832-59.15558-47.63628"/>
<path transform="matrix(-.61433,.78902,.78902,.61433,26.307438,55.62126)" d="M1.99252 0-1.19551 1.59401 0 0-1.19551-1.59401" fill="#0000ff"/>
<path transform="matrix(1,0,0,-1,85.463,7.9850008)" stroke-width=".3985" stroke-linecap="butt" stroke-miterlimit="10" stroke-linejoin="miter" fill="none" stroke="#000000" d=""/>
<path transform="matrix(1,0,0,-1,85.463,7.9850008)" stroke-width=".3985" stroke-linecap="butt" stroke-miterlimit="10" stroke-linejoin="miter" fill="none" stroke="#0000ff" d="M-38.30894-35.832-29.11821-47.63628"/>
<path transform="matrix(.61433,.78902,.78902,-.61433,56.344766,55.62126)" d="M1.99252 0-1.19551 1.59401 0 0-1.19551-1.59401" fill="#0000ff"/>
<path transform="matrix(1,0,0,-1,85.463,7.9850008)" stroke-width=".3985" stroke-linecap="butt" stroke-miterlimit="10" stroke-linejoin="miter" fill="none" stroke="#000000" d=""/>
<path transform="matrix(1,0,0,-1,85.463,7.9850008)" stroke-width=".3985" stroke-linecap="butt" stroke-miterlimit="10" stroke-linejoin="miter" fill="none" stroke="#0000ff" d="M38.30974-35.832 29.12025-47.63622"/>
<path transform="matrix(-.61426,.78905,.78905,.61426,114.58327,55.62122)" d="M1.99252 0-1.19551 1.59401 0 0-1.19551-1.59401" fill="#0000ff"/>
<path transform="matrix(1,0,0,-1,85.463,7.9850008)" stroke-width=".3985" stroke-linecap="butt" stroke-miterlimit="10" stroke-linejoin="miter" fill="none" stroke="#000000" d=""/>
<path transform="matrix(1,0,0,-1,85.463,7.9850008)" stroke-width=".3985" stroke-linecap="butt" stroke-miterlimit="10" stroke-linejoin="miter" fill="none" stroke="#0000ff" d="M49.96404-35.832 59.15352-47.63622"/>
<path transform="matrix(.61426,.78905,.78905,-.61426,144.6165,55.62122)" d="M1.99252 0-1.19551 1.59401 0 0-1.19551-1.59401" fill="#0000ff"/>
<path transform="matrix(1,0,0,-1,85.463,7.9850008)" d="M0 7.08669H11.24359C15.1575 7.08669 18.33028 3.91391 18.33028 0 18.33028-3.91391 15.1575-7.08669 11.24359-7.08669H-11.24359C-15.1575-7.08669-18.33028-3.91391-18.33028 0-18.33028 3.91391-15.1575 7.08669-11.24359 7.08669Z" fill="#ccccff"/>
<path transform="matrix(1,0,0,-1,85.463,7.9850008)" stroke-width=".79701" stroke-linecap="butt" stroke-miterlimit="10" stroke-linejoin="miter" fill="none" stroke="#8080ff" d="M0 7.08669H11.24359C15.1575 7.08669 18.33028 3.91391 18.33028 0 18.33028-3.91391 15.1575-7.08669 11.24359-7.08669H-11.24359C-15.1575-7.08669-18.33028-3.91391-18.33028 0-18.33028 3.91391-15.1575 7.08669-11.24359 7.08669Z"/>
<use data-text="2" xlink:href="#font_1_107" transform="matrix(8.96638,0,0,-8.96638,71.34,10.774002)"/>
<use data-text="2" xlink:href="#font_1_107" transform="matrix(8.96638,0,0,-8.96638,76.04735,10.774002)"/>
<use data-text=" " xlink:href="#font_1_103" transform="matrix(8.96638,0,0,-8.96638,80.7547,10.774002)"/>
<use data-text=" " xlink:href="#font_1_103" transform="matrix(8.96638,0,0,-8.96638,85.46205,10.774002)"/>
<use data-text=" " xlink:href="#font_1_103" transform="matrix(8.96638,0,0,-8.96638,90.1694,10.774002)"/>
<use data-text=" " xlink:href="#font_1_103" transform="matrix(8.96638,0,0,-8.96638,94.876758,10.774002)"/>
<path transform="matrix(1,0,0,-1,41.325998,36.331)" d="M0 7.08669H11.2649C15.1788 7.08669 18.35158 3.91391 18.35158 0 18.35158-3.91391 15.1788-7.08669 11.2649-7.08669H-11.2649C-15.1788-7.08669-18.35158-3.91391-18.35158 0-18.35158 3.91391-15.1788 7.08669-11.2649 7.08669Z" fill="#ccccff"/>
<path transform="matrix(1,0,0,-1,41.325998,36.331)" stroke-width=".79701" stroke-linecap="butt" stroke-miterlimit="10" stroke-linejoin="miter" fill="none" stroke="#8080ff" d="M0 7.08669H11.2649C15.1788 7.08669 18.35158 3.91391 18.35158 0 18.35158-3.91391 15.1788-7.08669 11.2649-7.08669H-11.2649C-15.1788-7.08669-18.35158-3.91391-18.35158 0-18.35158 3.91391-15.1788 7.08669-11.2649 7.08669Z"/>
<use data-text="0" xlink:href="#font_1_121" transform="matrix(8.96638,0,0,-8.96638,27.203997,39.071004)"/>
<use data-text="8" xlink:href="#font_1_51" transform="matrix(8.96638,0,0,-8.96638,31.911347,39.071004)"/>
<use data-text=" " xlink:href="#font_1_103" transform="matrix(8.96638,0,0,-8.96638,36.618696,39.071004)"/>
<use data-text=" " xlink:href="#font_1_103" transform="matrix(8.96638,0,0,-8.96638,41.326047,39.071004)"/>
<use data-text=" " xlink:href="#font_1_103" transform="matrix(8.96638,0,0,-8.96638,46.033399,39.071004)"/>
<use data-text=" " xlink:href="#font_1_103" transform="matrix(8.96638,0,0,-8.96638,50.74075,39.071004)"/>
<path transform="matrix(1,0,0,-1,129.599,36.331)" d="M0 7.08669H11.2649C15.1788 7.08669 18.35158 3.91391 18.35158 0 18.35158-3.91391 15.1788-7.08669 11.2649-7.08669H-11.2649C-15.1788-7.08669-18.35158-3.91391-18.35158 0-18.35158 3.91391-15.1788 7.08669-11.2649 7.08669Z" fill="#ccccff"/>
<path transform="matrix(1,0,0,-1,129.599,36.331)" stroke-width=".79701" stroke-linecap="butt" stroke-miterlimit="10" stroke-linejoin="miter" fill="none" stroke="#8080ff" d="M0 7.08669H11.2649C15.1788 7.08669 18.35158 3.91391 18.35158 0 18.35158-3.91391 15.1788-7.08669 11.2649-7.08669H-11.2649C-15.1788-7.08669-18.35158-3.91391-18.35158 0-18.35158 3.91391-15.1788 7.08669-11.2649 7.08669Z"/>
<use data-text="2" xlink:href="#font_1_107" transform="matrix(8.96638,0,0,-8.96638,115.477,39.071004)"/>
<use data-text="8" xlink:href="#font_1_51" transform="matrix(8.96638,0,0,-8.96638,120.18435,39.071004)"/>
<use data-text=" " xlink:href="#font_1_103" transform="matrix(8.96638,0,0,-8.96638,124.8917,39.071004)"/>
<use data-text=" " xlink:href="#font_1_103" transform="matrix(8.96638,0,0,-8.96638,129.59905,39.071004)"/>
<use data-text=" " xlink:href="#font_1_103" transform="matrix(8.96638,0,0,-8.96638,134.3064,39.071004)"/>
<use data-text=" " xlink:href="#font_1_103" transform="matrix(8.96638,0,0,-8.96638,139.01375,39.071004)"/>
<path transform="matrix(1,0,0,-1,19.255997,64.678)" d="M0 7.08669H11.27084C15.18477 7.08669 18.35754 3.91391 18.35754 0 18.35754-3.91391 15.18477-7.08669 11.27084-7.08669H-11.27084C-15.18477-7.08669-18.35754-3.91391-18.35754 0-18.35754 3.91391-15.18477 7.08669-11.27084 7.08669Z" fill="#ccccff"/>
<path transform="matrix(1,0,0,-1,19.255997,64.678)" stroke-width=".79701" stroke-linecap="butt" stroke-miterlimit="10" stroke-linejoin="miter" fill="none" stroke="#8080ff" d="M0 7.08669H11.27084C15.18477 7.08669 18.35754 3.91391 18.35754 0 18.35754-3.91391 15.18477-7.08669 11.27084-7.08669H-11.27084C-15.18477-7.08669-18.35754-3.91391-18.35754 0-18.35754 3.91391-15.18477 7.08669-11.27084 7.08669Z"/>
<use data-text="0" xlink:href="#font_1_121" transform="matrix(8.96638,0,0,-8.96638,5.133997,67.431)"/>
<use data-text="4" xlink:href="#font_1_57" transform="matrix(8.96638,0,0,-8.96638,9.841347,67.431)"/>
<use data-text=" " xlink:href="#font_1_103" transform="matrix(8.96638,0,0,-8.96638,14.5486969,67.431)"/>
<use data-text=" " xlink:href="#font_1_103" transform="matrix(8.96638,0,0,-8.96638,19.256047,67.431)"/>
<use data-text="0" xlink:href="#font_1_121" transform="matrix(8.96638,0,0,-8.96638,23.963398,67.431)"/>
<use data-text="6" xlink:href="#font_1_101" transform="matrix(8.96638,0,0,-8.96638,28.670746,67.431)"/>
<path transform="matrix(1,0,0,-1,63.396997,64.678)" d="M0 7.08669H11.2649C15.1788 7.08669 18.35158 3.91391 18.35158 0 18.35158-3.91391 15.1788-7.08669 11.2649-7.08669H-11.2649C-15.1788-7.08669-18.35158-3.91391-18.35158 0-18.35158 3.91391-15.1788 7.08669-11.2649 7.08669Z" fill="#ccccff"/>
<path transform="matrix(1,0,0,-1,63.396997,64.678)" stroke-width=".79701" stroke-linecap="butt" stroke-miterlimit="10" stroke-linejoin="miter" fill="none" stroke="#8080ff" d="M0 7.08669H11.2649C15.1788 7.08669 18.35158 3.91391 18.35158 0 18.35158-3.91391 15.1788-7.08669 11.2649-7.08669H-11.2649C-15.1788-7.08669-18.35158-3.91391-18.35158 0-18.35158 3.91391-15.1788 7.08669-11.2649 7.08669Z"/>
<use data-text="2" xlink:href="#font_1_107" transform="matrix(8.96638,0,0,-8.96638,49.274995,67.417)"/>
<use data-text="0" xlink:href="#font_1_121" transform="matrix(8.96638,0,0,-8.96638,53.982347,67.417)"/>
<use data-text=" " xlink:href="#font_1_103" transform="matrix(8.96638,0,0,-8.96638,58.689699,67.417)"/>
<use data-text=" " xlink:href="#font_1_103" transform="matrix(8.96638,0,0,-8.96638,63.39705,67.417)"/>
<use data-text=" " xlink:href="#font_1_103" transform="matrix(8.96638,0,0,-8.96638,68.1044,67.417)"/>
<use data-text=" " xlink:href="#font_1_103" transform="matrix(8.96638,0,0,-8.96638,72.81175,67.417)"/>
<path transform="matrix(1,0,0,-1,107.531,64.678)" d="M0 7.08669H11.2649C15.1788 7.08669 18.35158 3.91391 18.35158 0 18.35158-3.91391 15.1788-7.08669 11.2649-7.08669H-11.2649C-15.1788-7.08669-18.35158-3.91391-18.35158 0-18.35158 3.91391-15.1788 7.08669-11.2649 7.08669Z" fill="#ccccff"/>
<path transform="matrix(1,0,0,-1,107.531,64.678)" stroke-width=".79701" stroke-linecap="butt" stroke-miterlimit="10" stroke-linejoin="miter" fill="none" stroke="#8080ff" d="M0 7.08669H11.2649C15.1788 7.08669 18.35158 3.91391 18.35158 0 18.35158-3.91391 15.1788-7.08669 11.2649-7.08669H-11.2649C-15.1788-7.08669-18.35158-3.91391-18.35158 0-18.35158 3.91391-15.1788 7.08669-11.2649 7.08669Z"/>
<use data-text="2" xlink:href="#font_1_107" transform="matrix(8.96638,0,0,-8.96638,93.409,67.417)"/>
<use data-text="6" xlink:href="#font_1_101" transform="matrix(8.96638,0,0,-8.96638,98.11635,67.417)"/>
<use data-text=" " xlink:href="#font_1_103" transform="matrix(8.96638,0,0,-8.96638,102.8237,67.417)"/>
<use data-text=" " xlink:href="#font_1_103" transform="matrix(8.96638,0,0,-8.96638,107.53105,67.417)"/>
<use data-text=" " xlink:href="#font_1_103" transform="matrix(8.96638,0,0,-8.96638,112.2384,67.417)"/>
<use data-text=" " xlink:href="#font_1_103" transform="matrix(8.96638,0,0,-8.96638,116.945758,67.417)"/>
<path transform="matrix(1,0,0,-1,151.666,64.678)" d="M0 7.08669H11.2649C15.1788 7.08669 18.35158 3.91391 18.35158 0 18.35158-3.91391 15.1788-7.08669 11.2649-7.08669H-11.2649C-15.1788-7.08669-18.35158-3.91391-18.35158 0-18.35158 3.91391-15.1788 7.08669-11.2649 7.08669Z" fill="#ccccff"/>
<path transform="matrix(1,0,0,-1,151.666,64.678)" stroke-width=".79701" stroke-linecap="butt" stroke-miterlimit="10" stroke-linejoin="miter" fill="none" stroke="#8080ff" d="M0 7.08669H11.2649C15.1788 7.08669 18.35158 3.91391 18.35158 0 18.35158-3.91391 15.1788-7.08669 11.2649-7.08669H-11.2649C-15.1788-7.08669-18.35158-3.91391-18.35158 0-18.35158 3.91391-15.1788 7.08669-11.2649 7.08669Z"/>
<use data-text="3" xlink:href="#font_1_106" transform="matrix(8.96638,0,0,-8.96638,137.544,67.417)"/>
<use data-text="2" xlink:href="#font_1_107" transform="matrix(8.96638,0,0,-8.96638,142.25136,67.417)"/>
<use data-text=" " xlink:href="#font_1_103" transform="matrix(8.96638,0,0,-8.96638,146.95871,67.417)"/>
<use data-text=" " xlink:href="#font_1_103" transform="matrix(8.96638,0,0,-8.96638,151.66606,67.417)"/>
<use data-text=" " xlink:href="#font_1_103" transform="matrix(8.96638,0,0,-8.96638,156.37342,67.417)"/>
<use data-text=" " xlink:href="#font_1_103" transform="matrix(8.96638,0,0,-8.96638,161.08077,67.417)"/>
</svg>
