<svg xmlns="http://www.w3.org/2000/svg" xmlns:xlink="http://www.w3.org/1999/xlink" xmlns:inkscape="http://www.inkscape.org/namespaces/inkscape" version="1.1" width="141.249" height="101.229" viewBox="0 0 141.249 101.229">
<defs>
<path id="font_1_27" d="M.6569977 0 .3889923 .69433596H.29699708L.0289917 0H.10798645L.18399048 .19921875H.48098756L.55799868 0H.6569977M.45700074 .25820924H.20799256L.33198548 .62031558 .45700074 .25820924Z"/>
<path id="font_2_72" d="M.46998597 .036987306C.46998597 .07398987 .44198609 .07499695 .4229889 .07499695H.3039856V.563324C.3039856 .59931948 .29699708 .6113281 .25698854 .6113281H.102996829C.083999637 .6113281 .054992677 .61032107 .054992677 .5733185 .054992677 .537323 .084991458 .5363159 .101989749 .5363159H.22099304V.07499695H.102996829C.083999637 .07499695 .054992677 .07398987 .054992677 .036987306 .054992677 .0009918213 .084991458 0 .101989749 0H.4229889C.44099427 0 .46998597 .0009918213 .46998597 .036987306Z"/>
<path id="font_2_52" d="M.48799134 .37986756C.48799134 .41986085 .44699098 .421875 .43099977 .421875H.09298706C.07699585 .421875 .035995485 .41986085 .035995485 .37986756 .035995485 .3388672 .07398987 .3378601 .08799744 .3378601H.43598939C.44999696 .3378601 .48799134 .3388672 .48799134 .37986756M.48799134 .23144531C.48799134 .27244569 .44999696 .27345277 .43598939 .27345277H.08799744C.07398987 .27345277 .035995485 .27244569 .035995485 .23144531 .035995485 .19145203 .07699585 .18945313 .09298706 .18945313H.43099977C.44699098 .18945313 .48799134 .19145203 .48799134 .23144531Z"/>
<path id="font_2_121" d="M.47599793 .30516053C.47599793 .4920807 .37199403 .6220703 .2619934 .6220703 .1499939 .6220703 .04798889 .48908998 .04798889 .30615235 .04798889 .11923218 .1519928-.0107421879 .2619934-.0107421879 .37399293-.0107421879 .47599793 .1222229 .47599793 .30516053M.3939972 .31614686C.3939972 .17720032 .33499146 .06425476 .2619934 .06425476 .18899536 .06425476 .12998963 .17720032 .12998963 .31614686 .12998963 .45309449 .19299317 .5470581 .2619934 .5470581 .32998658 .5470581 .3939972 .45309449 .3939972 .31614686Z"/>
<path id="font_1_49" d="M.57299807 0V.07598877H.47299195L.19099427 .07398987V.32714845H.5299988V.39213563H.19099427V.62309268H.22898865L.47299195 .62109377H.5589905V.6910858H.09498596V0H.57299807Z"/>
<path id="font_2_82" d="M.44499208 .036987306C.44499208 .07398987 .41799928 .07499695 .39898683 .07499695H.31799317V.5740051C.31799317 .59303286 .31599427 .6220703 .2809906 .6220703 .2579956 .6220703 .25 .6080475 .24398804 .59402468 .20999146 .5159302 .1619873 .5049286 .14498902 .5029297 .12599182 .5019226 .101989749 .4979248 .101989749 .46492005 .101989749 .43392945 .12298584 .42791749 .14099121 .42791749 .15899658 .42791749 .19499207 .43292237 .23498535 .46192933V.07499695H.1539917C.1349945 .07499695 .10699463 .07398987 .10699463 .036987306 .10699463 .0009918213 .13598633 0 .1539917 0H.39898683C.4169922 0 .44499208 .0009918213 .44499208 .036987306Z"/>
<path id="font_1_54" d="M.54499819 .62109377V.6910858H.09498596V0H.19099427V.31292726H.5019989V.3779297H.19099427V.62309268H.22499085L.46199037 .62109377H.54499819Z"/>
<path id="font_1_58" d="M.61499026 .038253786V.30033876H.397995V.23535156H.5309906V.07725525C.48799134 .06425476 .44299317 .057250978 .397995 .057250978 .33299256 .057250978 .272995 .09126282 .23098755 .14228821 .18399048 .20033264 .1619873 .27334596 .1619873 .3473053 .1619873 .4222412 .18399048 .49517823 .23098755 .5521393 .272995 .60310366 .33299256 .6370697 .397995 .6370697 .43299867 .6370697 .46798707 .6330719 .5 .6220856 .5339966 .61009219 .5629883 .5911102 .59098818 .5681305L.60598757 .6560669C.57398989 .67207339 .5399933 .6860657 .5049896 .69407656 .46998597 .70207217 .43399049 .7050781 .397995 .7050781 .30899049 .7050781 .22399903 .66607668 .16299439 .60009768 .099990848 .53215029 .06599426 .44122315 .06599426 .3473053 .06599426 .25434876 .099990848 .16329956 .16299439 .0942688 .22399903 .028244019 .30899049-.0107421879 .397995-.0107421879 .47299195-.0107421879 .5469971 .0062561037 .61499026 .038253786Z"/>
<path id="font_2_107" d="M.47399903 .04798889V.07299805C.47399903 .09599304 .47399903 .1210022 .43399049 .1210022 .3959961 .1210022 .3919983 .102996829 .3919983 .07499695H.18899536C.24598694 .12399292 .32699586 .18800354 .3659973 .22302246 .42900086 .27902223 .47399903 .34403993 .47399903 .42404176 .47399903 .5450592 .37298585 .6220703 .24899292 .6220703 .1289978 .6220703 .049987794 .5380554 .049987794 .4510498 .049987794 .40904237 .08198547 .3970337 .100997928 .3970337 .125 .3970337 .1519928 .41604615 .1519928 .44804383 .1519928 .4600525 .14698792 .47305299 .13999939 .48205567 .15499878 .5210571 .19599915 .5470581 .24398804 .5470581 .31999208 .5470581 .3919983 .50505068 .3919983 .42404176 .3919983 .35803224 .34498597 .3030243 .28199769 .25201417L.066986087 .069992069C.055999757 .06098938 .049987794 .054992677 .049987794 .037994386 .049987794 .0009918213 .07798767 0 .09700012 0H.42799378C.46598817 0 .47399903 .009994507 .47399903 .04798889Z"/>
<path id="font_1_69" d="M.67099 0 .38198854 .42019654 .6559906 .69433596H.55799868L.18899536 .32614137V.69433596H.09799194V0H.18899536V.22810364L.32299806 .36116029 .57199099 0H.67099Z"/>
<path id="font_1_62" d="M.6309967 0V.69433596H.5349884V.39311219H.19099427V.69433596H.09498596V0H.19099427V.328125H.5349884V0H.6309967Z"/>
<path id="font_1_65" d="M.19099427 0V.69433596H.09498596V0H.19099427Z"/>
<path id="font_2_106" d="M.48199464 .1769867C.48199464 .24499512 .43998719 .3019867 .37998963 .33399964 .42900086 .37113954 .45399476 .42510987 .45399476 .47709657 .45399476 .552063 .37998963 .6220703 .2630005 .6220703 .13999939 .6220703 .069992069 .57006838 .069992069 .5000763 .069992069 .46209718 .09899902 .44610597 .12199402 .44610597 .1459961 .44610597 .17199707 .46609498 .17199707 .4980774 .17199707 .509079 .16899109 .5170746 .1659851 .5230713 .19599915 .5470581 .2559967 .5470581 .2639923 .5470581 .32499696 .5470581 .37098695 .5160675 .37098695 .47608949 .37098695 .44810487 .35798646 .41711427 .33299256 .39712525 .30299378 .37313844 .27999879 .36914063 .24699402 .36914063 .18399048 .36914063 .16899109 .36112977 .16899109 .32913209 .16899109 .29212953 .19699097 .2911377 .21598816 .2911377H.26098634C.35198976 .2912445 .39898683 .23124695 .39898683 .1772461 .39898683 .12124634 .34700013 .06425476 .2639923 .06425476 .22799683 .06425476 .16099549 .07325745 .13398743 .11224365 .13899231 .118255618 .14399719 .12724304 .14399719 .14324951 .14399719 .17124939 .12199402 .19424439 .09298706 .19424439 .066986087 .19424439 .041992189 .1772461 .041992189 .14024353 .041992189 .050247194 .13899231-.0107421879 .2639923-.0107421879 .39698792-.0107421879 .48199464 .08325195 .48199464 .1772461V.1769867Z"/>
<path id="font_1_67" d="M.39898683 .14866638V.69433596H.30599977V.15167237C.30599977 .13464356 .30599977 .042526246 .18699646 .042526246 .13398743 .042526246 .085998538 .06855774 .056991579 .099594119L.042999269 .01953125C.114990238-.016464234 .17999268-.022460938 .21899414-.022460938 .32199098-.022460938 .39898683 .03253174 .39898683 .14866638Z"/>
<path id="font_1_42" d="M.6029968 .04525757 .5970001 .11923218C.5669861 .099243167 .5369873 .08024597 .5029907 .069244388 .46899415 .059249879 .43399049 .057250978 .397995 .057250978 .33299256 .057250978 .272995 .0912323 .23098755 .14222718 .18399048 .20021057 .1619873 .2731781 .1619873 .3471527 .1619873 .4221344 .18399048 .4951172 .23098755 .5520935 .272995 .6030731 .33299256 .6370697 .397995 .6370697 .42999269 .6370697 .46099855 .6340637 .4909973 .6250763 .5219879 .6160736 .5499878 .6000824 .57598879 .5820923L.59199526 .67007449C.5609894 .6820679 .5289917 .69207766 .49598695 .69706729 .46398927 .70306399 .43099977 .7050781 .397995 .7050781 .30899049 .7050781 .22399903 .66607668 .16299439 .6000824 .099990848 .5321045 .06599426 .4411316 .06599426 .3471527 .06599426 .25419618 .099990848 .16322327 .16299439 .09423828 .22399903 .028244019 .30899049-.0107421879 .397995-.0107421879 .43399049-.0107421879 .46998597-.008743286 .5049896 .00024414063 .5399933 .009246826 .57199099 .027252198 .6029968 .04525757Z"/>
<path id="font_1_46" d="M.68499758 .341156C.68499758 .5372772 .5439911 .69433596 .36999513 .69433596H.09700012V0H.36999513C.5439911 0 .68499758 .15205384 .68499758 .341156M.59199526 .341156C.59199526 .1660614 .48098756 .05899048 .34498597 .05899048H.18998719V.6353302H.34399415C.48199464 .6353302 .59199526 .5222626 .59199526 .341156Z"/>
</defs>
<path transform="matrix(1,0,0,-1,69.949,8.094994)" stroke-width=".3985" stroke-linecap="butt" stroke-miterlimit="10" stroke-linejoin="miter" fill="none" stroke="#000000" d=""/>
<path transform="matrix(1,0,0,-1,69.949,8.094994)" stroke-width=".3985" stroke-linecap="butt" stroke-miterlimit="10" stroke-linejoin="miter" fill="none" stroke="#0000ff" d="M-4.58278-3.66623-29.2949-23.43591"/>
<path transform="matrix(-.78082,.62466,.62466,.78082,40.6541,31.530894)" d="M1.99252 0-1.19551 1.59401 0 0-1.19551-1.59401" fill="#0000ff"/>
<path transform="matrix(1,0,0,-1,69.949,8.094994)" stroke-width=".3985" stroke-linecap="butt" stroke-miterlimit="10" stroke-linejoin="miter" fill="none" stroke="#000000" d=""/>
<path transform="matrix(1,0,0,-1,69.949,8.094994)" stroke-width=".3985" stroke-linecap="butt" stroke-miterlimit="10" stroke-linejoin="miter" fill="none" stroke="#0000ff" d="M4.58278-3.66623 29.2949-23.43591"/>
<path transform="matrix(.78082,.62466,.62466,-.78082,99.2439,31.530894)" d="M1.99252 0-1.19551 1.59401 0 0-1.19551-1.59401" fill="#0000ff"/>
<path transform="matrix(1,0,0,-1,69.949,8.094994)" stroke-width=".3985" stroke-linecap="butt" stroke-miterlimit="10" stroke-linejoin="miter" fill="none" stroke="#000000" d=""/>
<path transform="matrix(1,0,0,-1,69.949,8.094994)" stroke-width=".3985" stroke-linecap="butt" stroke-miterlimit="10" stroke-linejoin="miter" fill="none" stroke="#0000ff" d="M-39.58325-32.49655-58.22163-51.13493"/>
<path transform="matrix(-.7071,.7071,.7071,.7071,11.727367,59.229925)" d="M1.99252 0-1.19551 1.59401 0 0-1.19551-1.59401" fill="#0000ff"/>
<path transform="matrix(1,0,0,-1,69.949,8.094994)" stroke-width=".3985" stroke-linecap="butt" stroke-miterlimit="10" stroke-linejoin="miter" fill="none" stroke="#000000" d=""/>
<path transform="matrix(1,0,0,-1,69.949,8.094994)" stroke-width=".3985" stroke-linecap="butt" stroke-miterlimit="10" stroke-linejoin="miter" fill="none" stroke="#0000ff" d="M-35.43349-34.21541V-48.83247"/>
<path transform="matrix(0,1,1,0,34.515508,56.927465)" d="M1.99252 0-1.19551 1.59401 0 0-1.19551-1.59401" fill="#0000ff"/>
<path transform="matrix(1,0,0,-1,69.949,8.094994)" stroke-width=".3985" stroke-linecap="butt" stroke-miterlimit="10" stroke-linejoin="miter" fill="none" stroke="#000000" d=""/>
<path transform="matrix(1,0,0,-1,69.949,8.094994)" stroke-width=".3985" stroke-linecap="butt" stroke-miterlimit="10" stroke-linejoin="miter" fill="none" stroke="#0000ff" d="M-31.28375-32.49655-12.64536-51.13493"/>
<path transform="matrix(.7071,.7071,.7071,-.7071,57.30364,59.229925)" d="M1.99252 0-1.19551 1.59401 0 0-1.19551-1.59401" fill="#0000ff"/>
<path transform="matrix(1,0,0,-1,69.949,8.094994)" stroke-width=".3985" stroke-linecap="butt" stroke-miterlimit="10" stroke-linejoin="miter" fill="none" stroke="#000000" d=""/>
<path transform="matrix(1,0,0,-1,69.949,8.094994)" stroke-width=".3985" stroke-linecap="butt" stroke-miterlimit="10" stroke-linejoin="miter" fill="none" stroke="#0000ff" d="M-9.71176-61.94376-17.74402-78.00822"/>
<path transform="matrix(-.44717,.89436,.89436,.44717,52.20498,86.10321)" d="M1.99252 0-1.19551 1.59401 0 0-1.19551-1.59401" fill="#0000ff"/>
<path transform="matrix(1,0,0,-1,69.949,8.094994)" stroke-width=".3985" stroke-linecap="butt" stroke-miterlimit="10" stroke-linejoin="miter" fill="none" stroke="#000000" d=""/>
<path transform="matrix(1,0,0,-1,69.949,8.094994)" stroke-width=".3985" stroke-linecap="butt" stroke-miterlimit="10" stroke-linejoin="miter" fill="none" stroke="#0000ff" d="M-4.46162-61.94376 3.57062-78.00822"/>
<path transform="matrix(.44717,.89436,.89436,-.44717,73.519618,86.10321)" d="M1.99252 0-1.19551 1.59401 0 0-1.19551-1.59401" fill="#0000ff"/>
<path transform="matrix(1,0,0,-1,69.949,8.094994)" stroke-width=".3985" stroke-linecap="butt" stroke-miterlimit="10" stroke-linejoin="miter" fill="none" stroke="#000000" d=""/>
<path transform="matrix(1,0,0,-1,69.949,8.094994)" stroke-width=".3985" stroke-linecap="butt" stroke-miterlimit="10" stroke-linejoin="miter" fill="none" stroke="#0000ff" d="M32.80843-33.59694 24.77618-49.66142"/>
<path transform="matrix(-.44717,.89436,.89436,.44717,94.725177,57.756414)" d="M1.99252 0-1.19551 1.59401 0 0-1.19551-1.59401" fill="#0000ff"/>
<path transform="matrix(1,0,0,-1,69.949,8.094994)" stroke-width=".3985" stroke-linecap="butt" stroke-miterlimit="10" stroke-linejoin="miter" fill="none" stroke="#000000" d=""/>
<path transform="matrix(1,0,0,-1,69.949,8.094994)" stroke-width=".3985" stroke-linecap="butt" stroke-miterlimit="10" stroke-linejoin="miter" fill="none" stroke="#0000ff" d="M38.05858-33.59694 46.09082-49.66142"/>
<path transform="matrix(.44717,.89436,.89436,-.44717,116.03982,57.756414)" d="M1.99252 0-1.19551 1.59401 0 0-1.19551-1.59401" fill="#0000ff"/>
<path transform="matrix(1,0,0,-1,69.949,8.094994)" d="M5.66934 0C5.66934 3.13112 3.13112 5.66934 0 5.66934-3.13112 5.66934-5.66934 3.13112-5.66934 0-5.66934-3.13112-3.13112-5.66934 0-5.66934 3.13112-5.66934 5.66934-3.13112 5.66934 0ZM0 0"/>
<use data-text="A" xlink:href="#font_1_27" transform="matrix(8.96638,0,0,-8.96638,66.868999,11.205994)" fill="#ffffff"/>
<use data-text="l" xlink:href="#font_2_72" transform="matrix(8.96638,0,0,-8.96638,76.550998,10.833992)"/>
<use data-text="=" xlink:href="#font_2_52" transform="matrix(8.96638,0,0,-8.96638,81.25835,10.833992)"/>
<use data-text="0" xlink:href="#font_2_121" transform="matrix(8.96638,0,0,-8.96638,85.9657,10.833992)"/>
<path transform="matrix(1,0,0,-1,34.516,36.440996)" d="M5.66934 0C5.66934 3.13112 3.13112 5.66934 0 5.66934-3.13112 5.66934-5.66934 3.13112-5.66934 0-5.66934-3.13112-3.13112-5.66934 0-5.66934 3.13112-5.66934 5.66934-3.13112 5.66934 0ZM0 0"/>
<use data-text="E" xlink:href="#font_1_49" transform="matrix(8.96638,0,0,-8.96638,31.749999,39.53899)" fill="#ffffff"/>
<use data-text="l" xlink:href="#font_2_72" transform="matrix(8.96638,0,0,-8.96638,41.086,39.229997)"/>
<use data-text="=" xlink:href="#font_2_52" transform="matrix(8.96638,0,0,-8.96638,45.79335,39.229997)"/>
<use data-text="1" xlink:href="#font_2_82" transform="matrix(8.96638,0,0,-8.96638,50.5007,39.229997)"/>
<path transform="matrix(1,0,0,-1,105.381999,36.440996)" d="M5.66934 0C5.66934 3.13112 3.13112 5.66934 0 5.66934-3.13112 5.66934-5.66934 3.13112-5.66934 0-5.66934-3.13112-3.13112-5.66934 0-5.66934 3.13112-5.66934 5.66934-3.13112 5.66934 0ZM0 0"/>
<use data-text="F" xlink:href="#font_1_54" transform="matrix(8.96638,0,0,-8.96638,102.741,39.53899)" fill="#ffffff"/>
<use data-text="l" xlink:href="#font_2_72" transform="matrix(8.96638,0,0,-8.96638,111.951999,39.229997)"/>
<use data-text="=" xlink:href="#font_2_52" transform="matrix(8.96638,0,0,-8.96638,116.65935,39.229997)"/>
<use data-text="1" xlink:href="#font_2_82" transform="matrix(8.96638,0,0,-8.96638,121.3667,39.229997)"/>
<path transform="matrix(1,0,0,-1,6.1689989,64.787998)" d="M5.66934 0C5.66934 3.13112 3.13112 5.66934 0 5.66934-3.13112 5.66934-5.66934 3.13112-5.66934 0-5.66934-3.13112-3.13112-5.66934 0-5.66934 3.13112-5.66934 5.66934-3.13112 5.66934 0ZM0 0"/>
<use data-text="G" xlink:href="#font_1_58" transform="matrix(8.96638,0,0,-8.96638,3.0979987,67.898998)" fill="#ffffff"/>
<use data-text="l" xlink:href="#font_2_72" transform="matrix(8.96638,0,0,-8.96638,12.738998,67.57599)"/>
<use data-text="=" xlink:href="#font_2_52" transform="matrix(8.96638,0,0,-8.96638,17.446349,67.57599)"/>
<use data-text="2" xlink:href="#font_2_107" transform="matrix(8.96638,0,0,-8.96638,22.153698,67.57599)"/>
<path transform="matrix(1,0,0,-1,34.516,64.787998)" d="M5.66934 0C5.66934 3.13112 3.13112 5.66934 0 5.66934-3.13112 5.66934-5.66934 3.13112-5.66934 0-5.66934-3.13112-3.13112-5.66934 0-5.66934 3.13112-5.66934 5.66934-3.13112 5.66934 0ZM0 0"/>
<use data-text="K" xlink:href="#font_1_69" transform="matrix(8.96638,0,0,-8.96638,31.31,67.898998)" fill="#ffffff"/>
<use data-text="l" xlink:href="#font_2_72" transform="matrix(8.96638,0,0,-8.96638,41.086,67.57599)"/>
<use data-text="=" xlink:href="#font_2_52" transform="matrix(8.96638,0,0,-8.96638,45.79335,67.57599)"/>
<use data-text="2" xlink:href="#font_2_107" transform="matrix(8.96638,0,0,-8.96638,50.5007,67.57599)"/>
<path transform="matrix(1,0,0,-1,62.862,64.787998)" d="M5.66934 0C5.66934 3.13112 3.13112 5.66934 0 5.66934-3.13112 5.66934-5.66934 3.13112-5.66934 0-5.66934-3.13112-3.13112-5.66934 0-5.66934 3.13112-5.66934 5.66934-3.13112 5.66934 0ZM0 0"/>
<use data-text="H" xlink:href="#font_1_62" transform="matrix(8.96638,0,0,-8.96638,59.603,67.898998)" fill="#ffffff"/>
<use data-text="l" xlink:href="#font_2_72" transform="matrix(8.96638,0,0,-8.96638,69.432,67.57599)"/>
<use data-text="=" xlink:href="#font_2_52" transform="matrix(8.96638,0,0,-8.96638,74.13935,67.57599)"/>
<use data-text="2" xlink:href="#font_2_107" transform="matrix(8.96638,0,0,-8.96638,78.8467,67.57599)"/>
<path transform="matrix(1,0,0,-1,48.688997,93.133998)" d="M5.66934 0C5.66934 3.13112 3.13112 5.66934 0 5.66934-3.13112 5.66934-5.66934 3.13112-5.66934 0-5.66934-3.13112-3.13112-5.66934 0-5.66934 3.13112-5.66934 5.66934-3.13112 5.66934 0ZM0 0"/>
<use data-text="I" xlink:href="#font_1_65" transform="matrix(8.96638,0,0,-8.96638,47.401998,96.244998)" fill="#ffffff"/>
<use data-text="l" xlink:href="#font_2_72" transform="matrix(8.96638,0,0,-8.96638,55.290998,95.87299)"/>
<use data-text="=" xlink:href="#font_2_52" transform="matrix(8.96638,0,0,-8.96638,59.99835,95.87299)"/>
<use data-text="3" xlink:href="#font_2_106" transform="matrix(8.96638,0,0,-8.96638,64.7057,95.87299)"/>
<path transform="matrix(1,0,0,-1,77.034999,93.133998)" d="M5.66934 0C5.66934 3.13112 3.13112 5.66934 0 5.66934-3.13112 5.66934-5.66934 3.13112-5.66934 0-5.66934-3.13112-3.13112-5.66934 0-5.66934 3.13112-5.66934 5.66934-3.13112 5.66934 0ZM0 0"/>
<use data-text="J" xlink:href="#font_1_67" transform="matrix(8.96638,0,0,-8.96638,74.856998,96.146999)" fill="#ffffff"/>
<use data-text="l" xlink:href="#font_2_72" transform="matrix(8.96638,0,0,-8.96638,83.63699,95.87299)"/>
<use data-text="=" xlink:href="#font_2_52" transform="matrix(8.96638,0,0,-8.96638,88.344348,95.87299)"/>
<use data-text="3" xlink:href="#font_2_106" transform="matrix(8.96638,0,0,-8.96638,93.0517,95.87299)"/>
<path transform="matrix(1,0,0,-1,91.209,64.787998)" d="M5.66934 0C5.66934 3.13112 3.13112 5.66934 0 5.66934-3.13112 5.66934-5.66934 3.13112-5.66934 0-5.66934-3.13112-3.13112-5.66934 0-5.66934 3.13112-5.66934 5.66934-3.13112 5.66934 0ZM0 0"/>
<use data-text="C" xlink:href="#font_1_42" transform="matrix(8.96638,0,0,-8.96638,88.263,67.898998)" fill="#ffffff"/>
<use data-text="l" xlink:href="#font_2_72" transform="matrix(8.96638,0,0,-8.96638,97.779,67.57599)"/>
<use data-text="=" xlink:href="#font_2_52" transform="matrix(8.96638,0,0,-8.96638,102.48635,67.57599)"/>
<use data-text="2" xlink:href="#font_2_107" transform="matrix(8.96638,0,0,-8.96638,107.1937,67.57599)"/>
<path transform="matrix(1,0,0,-1,119.55499,64.787998)" d="M5.66934 0C5.66934 3.13112 3.13112 5.66934 0 5.66934-3.13112 5.66934-5.66934 3.13112-5.66934 0-5.66934-3.13112-3.13112-5.66934 0-5.66934 3.13112-5.66934 5.66934-3.13112 5.66934 0ZM0 0"/>
<use data-text="D" xlink:href="#font_1_46" transform="matrix(8.96638,0,0,-8.96638,116.22399,67.898998)" fill="#ffffff"/>
<use data-text="l" xlink:href="#font_2_72" transform="matrix(8.96638,0,0,-8.96638,126.125,67.57599)"/>
<use data-text="=" xlink:href="#font_2_52" transform="matrix(8.96638,0,0,-8.96638,130.83235,67.57599)"/>
<use data-text="2" xlink:href="#font_2_107" transform="matrix(8.96638,0,0,-8.96638,135.5397,67.57599)"/>
</svg>
