<svg xmlns="http://www.w3.org/2000/svg" xmlns:xlink="http://www.w3.org/1999/xlink" xmlns:inkscape="http://www.inkscape.org/namespaces/inkscape" version="1.1" width="97.378" height="69.031" viewBox="0 0 97.378 69.031">
<defs>
<path id="font_1_32" d="M.44699098 .4357605C.44699098 .45777894 .43499757 .46377564 .4229889 .4697876L.30999757 .52783206 .42199708 .5848694C.43299867 .5908661 .44699098 .59788516 .44699098 .6198883 .44699098 .64190676 .42999269 .6569214 .41099549 .6569214 .40098573 .6569214 .39698792 .6549225 .3849945 .6469116L.28399659 .5768585 .29299928 .713974C.29299928 .73898318 .27198792 .75 .25698854 .75 .23799134 .75 .21998596 .73698428 .21998596 .713974L.22898865 .5768585 .12799073 .6459198C.11299133 .6569214 .11099243 .6569214 .101989749 .6569214 .08299255 .6569214 .06599426 .64190676 .06599426 .6198883 .06599426 .59788516 .07798767 .59187319 .08999634 .58587649L.20298767 .52783206 .09098816 .47077943C.07998657 .4647827 .06599426 .45777894 .06599426 .4357605 .06599426 .41374208 .08299255 .39872743 .101989749 .39872743 .11199951 .39872743 .11399841 .39872743 .13398743 .412735L.22898865 .47879029 .21998596 .34169007C.21998596 .31666566 .24099732 .30566407 .2559967 .30566407 .2749939 .30566407 .29299928 .31866456 .29299928 .34169007L.2919922 .35069276 .28399659 .47879029 .3849945 .409729C.3999939 .39872743 .4019928 .39872743 .41099549 .39872743 .42999269 .39872743 .44699098 .41374208 .44699098 .4357605Z"/>
<path id="font_1_89" d="M.7409973 .25045777C.7409973 .27246095 .7220001 .27246095 .70599368 .27246095H.42099V.55784609C.42099 .57380679 .42099 .59277346 .39898683 .59277346 .37799073 .59277346 .37799073 .57180789 .37799073 .55784609V.27246095H.09199524C.07798767 .27246095 .056991579 .27246095 .056991579 .25144959 .056991579 .22944641 .07598877 .22944641 .09199524 .22944641H.37799073V-.056777955C.37799073-.072784427 .37799073-.091796878 .3999939-.091796878 .42099-.091796878 .42099-.07078552 .42099-.056777955V.22944641H.70599368C.7200012 .22944641 .7409973 .22944641 .7409973 .25045777Z"/>
<path id="font_1_64" d="M.2849884 .19091797V.2529297H.010986328V.19091797H.2849884Z"/>
<path id="font_1_28" d="M.42199708 .00024414063V.28903199C.42199708 .38793946 .34899903 .4609375 .25 .4609375 .18499756 .4609375 .13699341 .44392396 .08898926 .41693116L.09498596 .34597779C.14498902 .38294984 .19400025 .39793397 .24899292 .39793397 .30499269 .39793397 .33898927 .3529663 .33898927 .2880249V.24606323C.16699219 .24206543 .053985597 .19706726 .053985597 .11616516 .053985597 .069229129 .084991458-.0107421879 .17199707-.0107421879 .19198609-.0107421879 .2789917-.008743286 .34199525 .038253786V.00024414063H.42199708M.33898927 .14013672C.33898927 .119155887 .33898927 .094192508 .30299378 .07322693 .27799989 .058242799 .24499512 .054244996 .22499085 .054244996 .17399597 .054244996 .1309967 .07821655 .1309967 .11816406 .1309967 .18907166 .32598878 .19206238 .33898927 .19206238V.14013672Z"/>
<path id="font_1_35" d="M.49398805 .22306824C.49398805 .34407044 .42799378 .45507813 .32998658 .45507813 .30299378 .45507813 .23098755 .45007325 .16299439 .3970642V.69433596H.08299255V.000076293948L.1659851 .00024414063V.04725647C.1789856 .0332489 .22999573-.0107421879 .3039856-.0107421879 .4079895-.0107421879 .49398805 .09022522 .49398805 .22315979V.22306824M.41099549 .22315979C.41099549 .09422302 .32499696 .054244996 .2639923 .054244996 .19999695 .054244996 .17098999 .10722351 .1659851 .11621094V.33410646C.18099976 .35508729 .21699524 .39007569 .27398683 .39007569 .33399964 .39007569 .41099549 .34809876 .41099549 .22315979Z"/>
<path id="font_1_43" d="M.4269867 .037246705 .42099 .10820007C.37298585 .07522583 .31999208 .057250978 .2599945 .057250978 .1749878 .057250978 .11898804 .12818909 .11898804 .22309876 .11898804 .3000183 .15699768 .39292909 .2639923 .39292909 .32699586 .39292909 .35899354 .38093568 .40899659 .3469696L.42199708 .41693116C.3659973 .44892884 .33499146 .4609375 .2630005 .4609375 .12098694 .4609375 .035995485 .3409729 .035995485 .22209168 .035995485 .09820557 .1289978-.0107421879 .25898744-.0107421879 .32899476-.0107421879 .38198854 .010253906 .4269867 .037246705Z"/>
<path id="font_1_47" d="M.44699098 .00024414063V.69433596H.36698915V.4000702C.31098939 .44706727 .24699402 .45507813 .21499634 .45507813 .11399841 .45507813 .035995485 .35009767 .035995485 .22216797 .035995485 .0932312 .11299133-.0107421879 .21099854-.0107421879 .24099732-.0107421879 .3039856-.003753662 .3639984 .052246095V.00024414063H.44699098M.3639984 .14120484C.3639984 .12220764 .3639984 .12020874 .35299684 .10621643 .32598878 .070236209 .2919922 .054244996 .2559967 .054244996 .19099427 .054244996 .11898804 .10122681 .11898804 .22116089 .11898804 .34909059 .20399475 .39007569 .2669983 .39007569 .31298829 .39007569 .34498597 .36408998 .3639984 .33810426V.14120484Z"/>
</defs>
<path transform="matrix(1,0,0,-1,48.689,6.1689989)" stroke-width=".3985" stroke-linecap="butt" stroke-miterlimit="10" stroke-linejoin="miter" fill="none" stroke="#000000" d=""/>
<path transform="matrix(1,0,0,-1,48.689,6.1689989)" stroke-width=".3985" stroke-linecap="butt" stroke-miterlimit="10" stroke-linejoin="miter" fill="none" stroke="#0000ff" d="M-4.14975-4.14975-22.78812-22.78812"/>
<path transform="matrix(-.7071,.7071,.7071,.7071,25.900879,28.957119)" d="M1.99252 0-1.19551 1.59401 0 0-1.19551-1.59401" fill="#0000ff"/>
<path transform="matrix(1,0,0,-1,48.689,6.1689989)" stroke-width=".3985" stroke-linecap="butt" stroke-miterlimit="10" stroke-linejoin="miter" fill="none" stroke="#000000" d=""/>
<path transform="matrix(1,0,0,-1,48.689,6.1689989)" stroke-width=".3985" stroke-linecap="butt" stroke-miterlimit="10" stroke-linejoin="miter" fill="none" stroke="#0000ff" d="M4.14975-4.14975 22.78812-22.78812"/>
<path transform="matrix(.7071,.7071,.7071,-.7071,71.47712,28.957119)" d="M1.99252 0-1.19551 1.59401 0 0-1.19551-1.59401" fill="#0000ff"/>
<path transform="matrix(1,0,0,-1,48.689,6.1689989)" stroke-width=".3985" stroke-linecap="butt" stroke-miterlimit="10" stroke-linejoin="miter" fill="none" stroke="#000000" d=""/>
<path transform="matrix(1,0,0,-1,48.689,6.1689989)" stroke-width=".3985" stroke-linecap="butt" stroke-miterlimit="10" stroke-linejoin="miter" fill="none" stroke="#0000ff" d="M-30.97186-33.59694-39.00412-49.66142"/>
<path transform="matrix(-.44717,.89436,.89436,.44717,9.684879,55.830419)" d="M1.99252 0-1.19551 1.59401 0 0-1.19551-1.59401" fill="#0000ff"/>
<path transform="matrix(1,0,0,-1,48.689,6.1689989)" stroke-width=".3985" stroke-linecap="butt" stroke-miterlimit="10" stroke-linejoin="miter" fill="none" stroke="#000000" d=""/>
<path transform="matrix(1,0,0,-1,48.689,6.1689989)" stroke-width=".3985" stroke-linecap="butt" stroke-miterlimit="10" stroke-linejoin="miter" fill="none" stroke="#0000ff" d="M-25.72173-33.59694-17.68947-49.66142"/>
<path transform="matrix(.44717,.89436,.89436,-.44717,30.999529,55.830419)" d="M1.99252 0-1.19551 1.59401 0 0-1.19551-1.59401" fill="#0000ff"/>
<path transform="matrix(1,0,0,-1,48.689,6.1689989)" stroke-width=".3985" stroke-linecap="butt" stroke-miterlimit="10" stroke-linejoin="miter" fill="none" stroke="#000000" d=""/>
<path transform="matrix(1,0,0,-1,48.689,6.1689989)" stroke-width=".3985" stroke-linecap="butt" stroke-miterlimit="10" stroke-linejoin="miter" fill="none" stroke="#0000ff" d="M25.72173-33.59694 17.68947-49.66142"/>
<path transform="matrix(-.44717,.89436,.89436,.44717,66.37847,55.830419)" d="M1.99252 0-1.19551 1.59401 0 0-1.19551-1.59401" fill="#0000ff"/>
<path transform="matrix(1,0,0,-1,48.689,6.1689989)" stroke-width=".3985" stroke-linecap="butt" stroke-miterlimit="10" stroke-linejoin="miter" fill="none" stroke="#000000" d=""/>
<path transform="matrix(1,0,0,-1,48.689,6.1689989)" stroke-width=".3985" stroke-linecap="butt" stroke-miterlimit="10" stroke-linejoin="miter" fill="none" stroke="#0000ff" d="M30.97186-33.59694 39.00412-49.66142"/>
<path transform="matrix(.44717,.89436,.89436,-.44717,87.693119,55.830419)" d="M1.99252 0-1.19551 1.59401 0 0-1.19551-1.59401" fill="#0000ff"/>
<path transform="matrix(1,0,0,-1,48.689,6.1689989)" d="M5.66934 0C5.66934 3.13112 3.13112 5.66934 0 5.66934-3.13112 5.66934-5.66934 3.13112-5.66934 0-5.66934-3.13112-3.13112-5.66934 0-5.66934 3.13112-5.66934 5.66934-3.13112 5.66934 0ZM0 0"/>
<use data-text="*" xlink:href="#font_1_32" transform="matrix(8.96638,0,0,-8.96638,46.385,9.530998)" fill="#ffffff"/>
<path transform="matrix(1,0,0,-1,20.342,34.515)" d="M5.66934 0C5.66934 3.13112 3.13112 5.66934 0 5.66934-3.13112 5.66934-5.66934 3.13112-5.66934 0-5.66934-3.13112-3.13112-5.66934 0-5.66934 3.13112-5.66934 5.66934-3.13112 5.66934 0ZM0 0"/>
<use data-text="+" xlink:href="#font_1_89" transform="matrix(8.96638,0,0,-8.96638,16.759999,36.760999)" fill="#ffffff"/>
<path transform="matrix(1,0,0,-1,77.035,34.515)" d="M5.66934 0C5.66934 3.13112 3.13112 5.66934 0 5.66934-3.13112 5.66934-5.66934 3.13112-5.66934 0-5.66934-3.13112-3.13112-5.66934 0-5.66934 3.13112-5.66934 5.66934-3.13112 5.66934 0ZM0 0"/>
<use data-text="-" xlink:href="#font_1_64" transform="matrix(8.96638,0,0,-8.96638,75.498,35.649999)" fill="#ffffff"/>
<path transform="matrix(1,0,0,-1,6.1689989,62.862)" d="M5.66934 0C5.66934 3.13112 3.13112 5.66934 0 5.66934-3.13112 5.66934-5.66934 3.13112-5.66934 0-5.66934-3.13112-3.13112-5.66934 0-5.66934 3.13112-5.66934 5.66934-3.13112 5.66934 0ZM0 0"/>
<use data-text="a" xlink:href="#font_1_28" transform="matrix(8.96638,0,0,-8.96638,3.9549988,64.879)" fill="#ffffff"/>
<path transform="matrix(1,0,0,-1,34.516,62.862)" d="M5.66934 0C5.66934 3.13112 3.13112 5.66934 0 5.66934-3.13112 5.66934-5.66934 3.13112-5.66934 0-5.66934-3.13112-3.13112-5.66934 0-5.66934 3.13112-5.66934 5.66934-3.13112 5.66934 0ZM0 0"/>
<use data-text="b" xlink:href="#font_1_35" transform="matrix(8.96638,0,0,-8.96638,32.135,65.923999)" fill="#ffffff"/>
<path transform="matrix(1,0,0,-1,62.862,62.862)" d="M5.66934 0C5.66934 3.13112 3.13112 5.66934 0 5.66934-3.13112 5.66934-5.66934 3.13112-5.66934 0-5.66934-3.13112-3.13112-5.66934 0-5.66934 3.13112-5.66934 5.66934-3.13112 5.66934 0ZM0 0"/>
<use data-text="c" xlink:href="#font_1_43" transform="matrix(8.96638,0,0,-8.96638,60.813,64.879)" fill="#ffffff"/>
<path transform="matrix(1,0,0,-1,91.209,62.862)" d="M5.66934 0C5.66934 3.13112 3.13112 5.66934 0 5.66934-3.13112 5.66934-5.66934 3.13112-5.66934 0-5.66934-3.13112-3.13112-5.66934 0-5.66934 3.13112-5.66934 5.66934-3.13112 5.66934 0ZM0 0"/>
<use data-text="d" xlink:href="#font_1_47" transform="matrix(8.96638,0,0,-8.96638,88.828,65.923999)" fill="#ffffff"/>
</svg>
