<svg xmlns="http://www.w3.org/2000/svg" xmlns:xlink="http://www.w3.org/1999/xlink" xmlns:inkscape="http://www.inkscape.org/namespaces/inkscape" version="1.1" width="139.898" height="102.403" viewBox="0 0 139.898 102.403">
<defs>
<path id="font_1_27" d="M.6569977 0 .3889923 .69433596H.29699708L.0289917 0H.10798645L.18399048 .19921875H.48098756L.55799868 0H.6569977M.45700074 .25820924H.20799256L.33198548 .62031558 .45700074 .25820924Z"/>
<path id="font_1_49" d="M.57299807 0V.07598877H.47299195L.19099427 .07398987V.32714845H.5299988V.39213563H.19099427V.62309268H.22898865L.47299195 .62109377H.5589905V.6910858H.09498596V0H.57299807Z"/>
<path id="font_1_54" d="M.54499819 .62109377V.6910858H.09498596V0H.19099427V.31292726H.5019989V.3779297H.19099427V.62309268H.22499085L.46199037 .62109377H.54499819Z"/>
<path id="font_1_58" d="M.61499026 .038253786V.30033876H.397995V.23535156H.5309906V.07725525C.48799134 .06425476 .44299317 .057250978 .397995 .057250978 .33299256 .057250978 .272995 .09126282 .23098755 .14228821 .18399048 .20033264 .1619873 .27334596 .1619873 .3473053 .1619873 .4222412 .18399048 .49517823 .23098755 .5521393 .272995 .60310366 .33299256 .6370697 .397995 .6370697 .43299867 .6370697 .46798707 .6330719 .5 .6220856 .5339966 .61009219 .5629883 .5911102 .59098818 .5681305L.60598757 .6560669C.57398989 .67207339 .5399933 .6860657 .5049896 .69407656 .46998597 .70207217 .43399049 .7050781 .397995 .7050781 .30899049 .7050781 .22399903 .66607668 .16299439 .60009768 .099990848 .53215029 .06599426 .44122315 .06599426 .3473053 .06599426 .25434876 .099990848 .16329956 .16299439 .0942688 .22399903 .028244019 .30899049-.0107421879 .397995-.0107421879 .47299195-.0107421879 .5469971 .0062561037 .61499026 .038253786Z"/>
<path id="font_1_69" d="M.67099 0 .38198854 .42019654 .6559906 .69433596H.55799868L.18899536 .32614137V.69433596H.09799194V0H.18899536V.22810364L.32299806 .36116029 .57199099 0H.67099Z"/>
<path id="font_1_62" d="M.6309967 0V.69433596H.5349884V.39311219H.19099427V.69433596H.09498596V0H.19099427V.328125H.5349884V0H.6309967Z"/>
<path id="font_1_65" d="M.19099427 0V.69433596H.09498596V0H.19099427Z"/>
<path id="font_1_67" d="M.39898683 .14866638V.69433596H.30599977V.15167237C.30599977 .13464356 .30599977 .042526246 .18699646 .042526246 .13398743 .042526246 .085998538 .06855774 .056991579 .099594119L.042999269 .01953125C.114990238-.016464234 .17999268-.022460938 .21899414-.022460938 .32199098-.022460938 .39898683 .03253174 .39898683 .14866638Z"/>
<path id="font_1_42" d="M.6029968 .04525757 .5970001 .11923218C.5669861 .099243167 .5369873 .08024597 .5029907 .069244388 .46899415 .059249879 .43399049 .057250978 .397995 .057250978 .33299256 .057250978 .272995 .0912323 .23098755 .14222718 .18399048 .20021057 .1619873 .2731781 .1619873 .3471527 .1619873 .4221344 .18399048 .4951172 .23098755 .5520935 .272995 .6030731 .33299256 .6370697 .397995 .6370697 .42999269 .6370697 .46099855 .6340637 .4909973 .6250763 .5219879 .6160736 .5499878 .6000824 .57598879 .5820923L.59199526 .67007449C.5609894 .6820679 .5289917 .69207766 .49598695 .69706729 .46398927 .70306399 .43099977 .7050781 .397995 .7050781 .30899049 .7050781 .22399903 .66607668 .16299439 .6000824 .099990848 .5321045 .06599426 .4411316 .06599426 .3471527 .06599426 .25419618 .099990848 .16322327 .16299439 .09423828 .22399903 .028244019 .30899049-.0107421879 .397995-.0107421879 .43399049-.0107421879 .46998597-.008743286 .5049896 .00024414063 .5399933 .009246826 .57199099 .027252198 .6029968 .04525757Z"/>
<path id="font_1_46" d="M.68499758 .341156C.68499758 .5372772 .5439911 .69433596 .36999513 .69433596H.09700012V0H.36999513C.5439911 0 .68499758 .15205384 .68499758 .341156M.59199526 .341156C.59199526 .1660614 .48098756 .05899048 .34498597 .05899048H.18998719V.6353302H.34399415C.48199464 .6353302 .59199526 .5222626 .59199526 .341156Z"/>
<path id="font_1_71" d="M.5159912 0V.069992069H.47200013L.22898865 .067993167H.19099427V.69433596H.09498596V0H.5159912Z"/>
<path id="font_1_74" d="M.79499819 0V.69433596H.6749878L.54100039 .3521576C.5149994 .28512574 .46099855 .14706421 .44898988 .09803772H.44799806C.43798829 .13905335 .3919983 .26011659 .37298585 .308136L.23999024 .64930728 .22200012 .69433596H.101989749V0H.18399048V.61628726H.18499756C.19699097 .5649872 .25498963 .41600038 .2659912 .3880005L.37599183 .10598755 .40899659 .021987915H.4850006L.6230011 .37399293C.6380005 .41099549 .69898989 .56900027 .71199038 .6159973H.71299746V0H.79499819Z"/>
</defs>
<path transform="matrix(1,0,0,-1,69.949,8.681999)" stroke-width="16.36383" stroke-linecap="round" stroke-miterlimit="10" stroke-linejoin="miter" fill="none" stroke="#9999ff" d="M0 0-35.43349-28.3468"/>
<path transform="matrix(1,0,0,-1,69.949,8.681999)" stroke-width="16.36383" stroke-linecap="round" stroke-miterlimit="10" stroke-linejoin="miter" fill="none" stroke="#9999ff" d="M-35.43349-28.3468-7.0867-56.69362"/>
<path transform="matrix(1,0,0,-1,69.949,8.681999)" stroke-width="16.36383" stroke-linecap="round" stroke-miterlimit="10" stroke-linejoin="miter" fill="none" stroke="#9999ff" d="M-7.0867-56.69362-21.2601-85.0404"/>
<path transform="matrix(1,0,0,-1,69.949,8.681999)" stroke-width="16.36383" stroke-linecap="round" stroke-miterlimit="10" stroke-linejoin="miter" fill="none" stroke="#9999ff" d="M35.43349-28.3468 49.6069-56.69362"/>
<path transform="matrix(1,0,0,-1,69.949,8.681999)" stroke-width="16.36383" stroke-linecap="round" stroke-miterlimit="10" stroke-linejoin="miter" fill="none" stroke="#9999ff" d="M49.6069-56.69362 35.43349-85.0404"/>
<path transform="matrix(1,0,0,-1,69.949,8.681999)" stroke-width=".3985" stroke-linecap="butt" stroke-miterlimit="10" stroke-linejoin="miter" fill="none" stroke="#000000" d=""/>
<path transform="matrix(1,0,0,-1,69.949,8.681999)" stroke-width=".3985" stroke-linecap="butt" stroke-miterlimit="10" stroke-linejoin="miter" fill="none" stroke="#0000ff" d="M-4.58278-3.66623-29.2949-23.43591"/>
<path transform="matrix(-.78082,.62466,.62466,.78082,40.6541,32.117898)" d="M1.99252 0-1.19551 1.59401 0 0-1.19551-1.59401" fill="#0000ff"/>
<path transform="matrix(1,0,0,-1,69.949,8.681999)" stroke-width=".3985" stroke-linecap="butt" stroke-miterlimit="10" stroke-linejoin="miter" fill="none" stroke="#000000" d=""/>
<path transform="matrix(1,0,0,-1,69.949,8.681999)" stroke-width=".3985" stroke-linecap="butt" stroke-miterlimit="10" stroke-linejoin="miter" fill="none" stroke="#0000ff" d="M4.58278-3.66623 29.2949-23.43591"/>
<path transform="matrix(.78082,.62466,.62466,-.78082,99.2439,32.117898)" d="M1.99252 0-1.19551 1.59401 0 0-1.19551-1.59401" fill="#0000ff"/>
<path transform="matrix(1,0,0,-1,69.949,8.681999)" stroke-width=".3985" stroke-linecap="butt" stroke-miterlimit="10" stroke-linejoin="miter" fill="none" stroke="#000000" d=""/>
<path transform="matrix(1,0,0,-1,69.949,8.681999)" stroke-width=".3985" stroke-linecap="butt" stroke-miterlimit="10" stroke-linejoin="miter" fill="none" stroke="#0000ff" d="M-39.58325-32.49655-58.22163-51.13493"/>
<path transform="matrix(-.7071,.7071,.7071,.7071,11.727367,59.81693)" d="M1.99252 0-1.19551 1.59401 0 0-1.19551-1.59401" fill="#0000ff"/>
<path transform="matrix(1,0,0,-1,69.949,8.681999)" stroke-width=".3985" stroke-linecap="butt" stroke-miterlimit="10" stroke-linejoin="miter" fill="none" stroke="#000000" d=""/>
<path transform="matrix(1,0,0,-1,69.949,8.681999)" stroke-width=".3985" stroke-linecap="butt" stroke-miterlimit="10" stroke-linejoin="miter" fill="none" stroke="#0000ff" d="M-35.43349-34.21541V-48.83247"/>
<path transform="matrix(0,1,1,0,34.515508,57.51447)" d="M1.99252 0-1.19551 1.59401 0 0-1.19551-1.59401" fill="#0000ff"/>
<path transform="matrix(1,0,0,-1,69.949,8.681999)" stroke-width=".3985" stroke-linecap="butt" stroke-miterlimit="10" stroke-linejoin="miter" fill="none" stroke="#000000" d=""/>
<path transform="matrix(1,0,0,-1,69.949,8.681999)" stroke-width=".3985" stroke-linecap="butt" stroke-miterlimit="10" stroke-linejoin="miter" fill="none" stroke="#0000ff" d="M-31.28375-32.49655-12.64536-51.13493"/>
<path transform="matrix(.7071,.7071,.7071,-.7071,57.30364,59.81693)" d="M1.99252 0-1.19551 1.59401 0 0-1.19551-1.59401" fill="#0000ff"/>
<path transform="matrix(1,0,0,-1,69.949,8.681999)" stroke-width=".3985" stroke-linecap="butt" stroke-miterlimit="10" stroke-linejoin="miter" fill="none" stroke="#000000" d=""/>
<path transform="matrix(1,0,0,-1,69.949,8.681999)" stroke-width=".3985" stroke-linecap="butt" stroke-miterlimit="10" stroke-linejoin="miter" fill="none" stroke="#0000ff" d="M-9.71176-61.94376-17.74402-78.00822"/>
<path transform="matrix(-.44717,.89436,.89436,.44717,52.20498,86.690219)" d="M1.99252 0-1.19551 1.59401 0 0-1.19551-1.59401" fill="#0000ff"/>
<path transform="matrix(1,0,0,-1,69.949,8.681999)" stroke-width=".3985" stroke-linecap="butt" stroke-miterlimit="10" stroke-linejoin="miter" fill="none" stroke="#000000" d=""/>
<path transform="matrix(1,0,0,-1,69.949,8.681999)" stroke-width=".3985" stroke-linecap="butt" stroke-miterlimit="10" stroke-linejoin="miter" fill="none" stroke="#0000ff" d="M-4.46162-61.94376 3.57062-78.00822"/>
<path transform="matrix(.44717,.89436,.89436,-.44717,73.519618,86.690219)" d="M1.99252 0-1.19551 1.59401 0 0-1.19551-1.59401" fill="#0000ff"/>
<path transform="matrix(1,0,0,-1,69.949,8.681999)" stroke-width=".3985" stroke-linecap="butt" stroke-miterlimit="10" stroke-linejoin="miter" fill="none" stroke="#000000" d=""/>
<path transform="matrix(1,0,0,-1,69.949,8.681999)" stroke-width=".3985" stroke-linecap="butt" stroke-miterlimit="10" stroke-linejoin="miter" fill="none" stroke="#0000ff" d="M32.80843-33.59694 24.77618-49.66142"/>
<path transform="matrix(-.44717,.89436,.89436,.44717,94.725177,58.34342)" d="M1.99252 0-1.19551 1.59401 0 0-1.19551-1.59401" fill="#0000ff"/>
<path transform="matrix(1,0,0,-1,69.949,8.681999)" stroke-width=".3985" stroke-linecap="butt" stroke-miterlimit="10" stroke-linejoin="miter" fill="none" stroke="#000000" d=""/>
<path transform="matrix(1,0,0,-1,69.949,8.681999)" stroke-width=".3985" stroke-linecap="butt" stroke-miterlimit="10" stroke-linejoin="miter" fill="none" stroke="#0000ff" d="M38.05858-33.59694 46.09082-49.66142"/>
<path transform="matrix(.44717,.89436,.89436,-.44717,116.03982,58.34342)" d="M1.99252 0-1.19551 1.59401 0 0-1.19551-1.59401" fill="#0000ff"/>
<path transform="matrix(1,0,0,-1,69.949,8.681999)" stroke-width=".3985" stroke-linecap="butt" stroke-miterlimit="10" stroke-linejoin="miter" fill="none" stroke="#000000" d=""/>
<path transform="matrix(1,0,0,-1,69.949,8.681999)" stroke-width=".3985" stroke-linecap="butt" stroke-miterlimit="10" stroke-linejoin="miter" fill="none" stroke="#0000ff" d="M46.98183-61.94376 38.94957-78.00822"/>
<path transform="matrix(-.44717,.89436,.89436,.44717,108.89857,86.690219)" d="M1.99252 0-1.19551 1.59401 0 0-1.19551-1.59401" fill="#0000ff"/>
<path transform="matrix(1,0,0,-1,69.949,8.681999)" stroke-width=".3985" stroke-linecap="butt" stroke-miterlimit="10" stroke-linejoin="miter" fill="none" stroke="#000000" d=""/>
<path transform="matrix(1,0,0,-1,69.949,8.681999)" stroke-width=".3985" stroke-linecap="butt" stroke-miterlimit="10" stroke-linejoin="miter" fill="none" stroke="#0000ff" d="M52.23198-61.94376 60.26422-78.0082"/>
<path transform="matrix(.44717,.89438,.89438,-.44717,130.21323,86.6902)" d="M1.99252 0-1.19551 1.59401 0 0-1.19551-1.59401" fill="#0000ff"/>
<path transform="matrix(1,0,0,-1,69.949,8.681999)" d="M5.66934 0C5.66934 3.13112 3.13112 5.66934 0 5.66934-3.13112 5.66934-5.66934 3.13112-5.66934 0-5.66934-3.13112-3.13112-5.66934 0-5.66934 3.13112-5.66934 5.66934-3.13112 5.66934 0ZM0 0"/>
<use data-text="A" xlink:href="#font_1_27" transform="matrix(8.96638,0,0,-8.96638,66.868999,11.792999)" fill="#ffffff"/>
<path transform="matrix(1,0,0,-1,34.516,37.028)" d="M5.66934 0C5.66934 3.13112 3.13112 5.66934 0 5.66934-3.13112 5.66934-5.66934 3.13112-5.66934 0-5.66934-3.13112-3.13112-5.66934 0-5.66934 3.13112-5.66934 5.66934-3.13112 5.66934 0ZM0 0"/>
<use data-text="E" xlink:href="#font_1_49" transform="matrix(8.96638,0,0,-8.96638,31.749999,40.126)" fill="#ffffff"/>
<path transform="matrix(1,0,0,-1,105.381999,37.028)" d="M5.66934 0C5.66934 3.13112 3.13112 5.66934 0 5.66934-3.13112 5.66934-5.66934 3.13112-5.66934 0-5.66934-3.13112-3.13112-5.66934 0-5.66934 3.13112-5.66934 5.66934-3.13112 5.66934 0ZM0 0"/>
<use data-text="F" xlink:href="#font_1_54" transform="matrix(8.96638,0,0,-8.96638,102.741,40.126)" fill="#ffffff"/>
<path transform="matrix(1,0,0,-1,6.1689989,65.375)" d="M5.66934 0C5.66934 3.13112 3.13112 5.66934 0 5.66934-3.13112 5.66934-5.66934 3.13112-5.66934 0-5.66934-3.13112-3.13112-5.66934 0-5.66934 3.13112-5.66934 5.66934-3.13112 5.66934 0ZM0 0"/>
<use data-text="G" xlink:href="#font_1_58" transform="matrix(8.96638,0,0,-8.96638,3.0979987,68.486)" fill="#ffffff"/>
<path transform="matrix(1,0,0,-1,34.516,65.375)" d="M5.66934 0C5.66934 3.13112 3.13112 5.66934 0 5.66934-3.13112 5.66934-5.66934 3.13112-5.66934 0-5.66934-3.13112-3.13112-5.66934 0-5.66934 3.13112-5.66934 5.66934-3.13112 5.66934 0ZM0 0"/>
<use data-text="K" xlink:href="#font_1_69" transform="matrix(8.96638,0,0,-8.96638,31.31,68.486)" fill="#ffffff"/>
<path transform="matrix(1,0,0,-1,62.862,65.375)" d="M5.66934 0C5.66934 3.13112 3.13112 5.66934 0 5.66934-3.13112 5.66934-5.66934 3.13112-5.66934 0-5.66934-3.13112-3.13112-5.66934 0-5.66934 3.13112-5.66934 5.66934-3.13112 5.66934 0ZM0 0"/>
<use data-text="H" xlink:href="#font_1_62" transform="matrix(8.96638,0,0,-8.96638,59.603,68.486)" fill="#ffffff"/>
<path transform="matrix(1,0,0,-1,48.688997,93.721)" d="M5.66934 0C5.66934 3.13112 3.13112 5.66934 0 5.66934-3.13112 5.66934-5.66934 3.13112-5.66934 0-5.66934-3.13112-3.13112-5.66934 0-5.66934 3.13112-5.66934 5.66934-3.13112 5.66934 0ZM0 0"/>
<use data-text="I" xlink:href="#font_1_65" transform="matrix(8.96638,0,0,-8.96638,47.401998,96.833)" fill="#ffffff"/>
<path transform="matrix(1,0,0,-1,77.034999,93.721)" d="M5.66934 0C5.66934 3.13112 3.13112 5.66934 0 5.66934-3.13112 5.66934-5.66934 3.13112-5.66934 0-5.66934-3.13112-3.13112-5.66934 0-5.66934 3.13112-5.66934 5.66934-3.13112 5.66934 0ZM0 0"/>
<use data-text="J" xlink:href="#font_1_67" transform="matrix(8.96638,0,0,-8.96638,74.856998,96.734)" fill="#ffffff"/>
<path transform="matrix(1,0,0,-1,91.209,65.375)" d="M5.66934 0C5.66934 3.13112 3.13112 5.66934 0 5.66934-3.13112 5.66934-5.66934 3.13112-5.66934 0-5.66934-3.13112-3.13112-5.66934 0-5.66934 3.13112-5.66934 5.66934-3.13112 5.66934 0ZM0 0"/>
<use data-text="C" xlink:href="#font_1_42" transform="matrix(8.96638,0,0,-8.96638,88.263,68.486)" fill="#ffffff"/>
<path transform="matrix(1,0,0,-1,119.55499,65.375)" d="M5.66934 0C5.66934 3.13112 3.13112 5.66934 0 5.66934-3.13112 5.66934-5.66934 3.13112-5.66934 0-5.66934-3.13112-3.13112-5.66934 0-5.66934 3.13112-5.66934 5.66934-3.13112 5.66934 0ZM0 0"/>
<use data-text="D" xlink:href="#font_1_46" transform="matrix(8.96638,0,0,-8.96638,116.22399,68.486)" fill="#ffffff"/>
<path transform="matrix(1,0,0,-1,105.381999,93.721)" d="M5.66934 0C5.66934 3.13112 3.13112 5.66934 0 5.66934-3.13112 5.66934-5.66934 3.13112-5.66934 0-5.66934-3.13112-3.13112-5.66934 0-5.66934 3.13112-5.66934 5.66934-3.13112 5.66934 0ZM0 0"/>
<use data-text="L" xlink:href="#font_1_71" transform="matrix(8.96638,0,0,-8.96638,102.870998,96.833)" fill="#ffffff"/>
<path transform="matrix(1,0,0,-1,133.728,93.721)" d="M5.66934 0C5.66934 3.13112 3.13112 5.66934 0 5.66934-3.13112 5.66934-5.66934 3.13112-5.66934 0-5.66934-3.13112-3.13112-5.66934 0-5.66934 3.13112-5.66934 5.66934-3.13112 5.66934 0ZM0 0"/>
<use data-text="M" xlink:href="#font_1_74" transform="matrix(8.96638,0,0,-8.96638,129.702,96.833)" fill="#ffffff"/>
</svg>
