<svg xmlns="http://www.w3.org/2000/svg" xmlns:xlink="http://www.w3.org/1999/xlink" xmlns:inkscape="http://www.inkscape.org/namespaces/inkscape" version="1.1" width="320.636" height="76.118" viewBox="0 0 320.636 76.118">
<path transform="matrix(1,0,0,-1,6.169,6.1689989)" stroke-width=".3985" stroke-linecap="butt" stroke-miterlimit="10" stroke-linejoin="miter" fill="none" stroke="#000000" d=""/>
<path transform="matrix(1,0,0,-1,6.169,6.1689989)" stroke-width=".3985" stroke-linecap="butt" stroke-miterlimit="10" stroke-linejoin="miter" fill="none" stroke="#0000ff" d="M0-4.69489V-15.99008"/>
<path transform="matrix(0,1,1,0,6.169,22.159079)" d="M1.99252 0-1.19551 1.59401 0 0-1.19551-1.59401" fill="#0000ff"/>
<path transform="matrix(1,0,0,-1,6.169,6.1689989)" stroke-width=".3985" stroke-linecap="butt" stroke-miterlimit="10" stroke-linejoin="miter" fill="none" stroke="#000000" d=""/>
<path transform="matrix(1,0,0,-1,6.169,6.1689989)" stroke-width=".3985" stroke-linecap="butt" stroke-miterlimit="10" stroke-linejoin="miter" fill="none" stroke="#0000ff" d="M0-27.37242V-38.66762"/>
<path transform="matrix(0,1,1,0,6.169,44.83662)" d="M1.99252 0-1.19551 1.59401 0 0-1.19551-1.59401" fill="#0000ff"/>
<path transform="matrix(1,0,0,-1,6.169,6.1689989)" stroke-width=".3985" stroke-linecap="butt" stroke-miterlimit="10" stroke-linejoin="miter" fill="none" stroke="#000000" d=""/>
<path transform="matrix(1,0,0,-1,6.169,6.1689989)" stroke-width=".3985" stroke-linecap="butt" stroke-miterlimit="10" stroke-linejoin="miter" fill="none" stroke="#0000ff" d="M0-50.04996V-64.74678"/>
<path transform="matrix(0,1,1,0,6.169,70.91578)" d="M1.99252 0-1.19551 1.59401 0 0-1.19551-1.59401" fill="#0000ff"/>
<path transform="matrix(1,0,0,-1,6.169,6.1689989)" stroke-width=".3985" stroke-linecap="butt" stroke-miterlimit="10" stroke-linejoin="miter" fill="none" stroke="#000000" d=""/>
<path transform="matrix(1,0,0,-1,6.169,6.1689989)" stroke-width=".3985" stroke-linecap="butt" stroke-miterlimit="10" stroke-linejoin="miter" fill="none" stroke="#0000ff" d="M23.78058-49.55519 16.07953-64.95728"/>
<path transform="matrix(-.44717,.89436,.89436,.44717,22.248532,71.12628)" d="M1.99252 0-1.19551 1.59401 0 0-1.19551-1.59401" fill="#0000ff"/>
<path transform="matrix(1,0,0,-1,6.169,6.1689989)" stroke-width=".3985" stroke-linecap="butt" stroke-miterlimit="10" stroke-linejoin="miter" fill="none" stroke="#000000" d=""/>
<path transform="matrix(1,0,0,-1,6.169,6.1689989)" stroke-width=".3985" stroke-linecap="butt" stroke-miterlimit="10" stroke-linejoin="miter" fill="none" stroke="#0000ff" d="M27.98074-49.55519 35.6818-64.95728"/>
<path transform="matrix(.44717,.89436,.89436,-.44717,41.8508,71.12628)" d="M1.99252 0-1.19551 1.59401 0 0-1.19551-1.59401" fill="#0000ff"/>
<path transform="matrix(1,0,0,-1,6.169,6.1689989)" stroke-width=".3985" stroke-linecap="butt" stroke-miterlimit="10" stroke-linejoin="miter" fill="none" stroke="#000000" d=""/>
<path transform="matrix(1,0,0,-1,6.169,6.1689989)" stroke-width=".3985" stroke-linecap="butt" stroke-miterlimit="10" stroke-linejoin="miter" fill="none" stroke="#0000ff" d="M35.11935-26.87766 28.87173-39.37288"/>
<path transform="matrix(-.44717,.89436,.89436,.44717,35.04073,45.541879)" d="M1.99252 0-1.19551 1.59401 0 0-1.19551-1.59401" fill="#0000ff"/>
<path transform="matrix(1,0,0,-1,6.169,6.1689989)" stroke-width=".3985" stroke-linecap="butt" stroke-miterlimit="10" stroke-linejoin="miter" fill="none" stroke="#000000" d=""/>
<path transform="matrix(1,0,0,-1,6.169,6.1689989)" stroke-width=".3985" stroke-linecap="butt" stroke-miterlimit="10" stroke-linejoin="miter" fill="none" stroke="#0000ff" d="M39.3195-26.87766 47.02057-42.27974"/>
<path transform="matrix(.44717,.89436,.89436,-.44717,53.189569,48.44874)" d="M1.99252 0-1.19551 1.59401 0 0-1.19551-1.59401" fill="#0000ff"/>
<path transform="matrix(1,0,0,-1,6.169,6.1689989)" stroke-width=".3985" stroke-linecap="butt" stroke-miterlimit="10" stroke-linejoin="miter" fill="none" stroke="#000000" d=""/>
<path transform="matrix(1,0,0,-1,6.169,6.1689989)" stroke-width=".3985" stroke-linecap="butt" stroke-miterlimit="10" stroke-linejoin="miter" fill="none" stroke="#0000ff" d="M80.47441-26.87766 72.77336-42.27974"/>
<path transform="matrix(-.44717,.89436,.89436,.44717,78.94236,48.44874)" d="M1.99252 0-1.19551 1.59401 0 0-1.19551-1.59401" fill="#0000ff"/>
<path transform="matrix(1,0,0,-1,6.169,6.1689989)" stroke-width=".3985" stroke-linecap="butt" stroke-miterlimit="10" stroke-linejoin="miter" fill="none" stroke="#000000" d=""/>
<path transform="matrix(1,0,0,-1,6.169,6.1689989)" stroke-width=".3985" stroke-linecap="butt" stroke-miterlimit="10" stroke-linejoin="miter" fill="none" stroke="#0000ff" d="M84.67456-26.87766 92.37563-42.27974"/>
<path transform="matrix(.44717,.89436,.89436,-.44717,98.54463,48.44874)" d="M1.99252 0-1.19551 1.59401 0 0-1.19551-1.59401" fill="#0000ff"/>
<path transform="matrix(1,0,0,-1,6.169,6.1689989)" stroke-width=".3985" stroke-linecap="butt" stroke-miterlimit="10" stroke-linejoin="miter" fill="none" stroke="#000000" d=""/>
<path transform="matrix(1,0,0,-1,6.169,6.1689989)" stroke-width=".3985" stroke-linecap="butt" stroke-miterlimit="10" stroke-linejoin="miter" fill="none" stroke="#0000ff" d="M56.57715-3.3198 41.94817-17.94879"/>
<path transform="matrix(-.7071,.7071,.7071,.7071,48.11717,24.117789)" d="M1.99252 0-1.19551 1.59401 0 0-1.19551-1.59401" fill="#0000ff"/>
<path transform="matrix(1,0,0,-1,6.169,6.1689989)" stroke-width=".3985" stroke-linecap="butt" stroke-miterlimit="10" stroke-linejoin="miter" fill="none" stroke="#000000" d=""/>
<path transform="matrix(1,0,0,-1,6.169,6.1689989)" stroke-width=".3985" stroke-linecap="butt" stroke-miterlimit="10" stroke-linejoin="miter" fill="none" stroke="#0000ff" d="M63.21678-3.3198 77.84578-17.94879"/>
<path transform="matrix(.70709,.7071,.7071,-.70709,84.01478,24.117789)" d="M1.99252 0-1.19551 1.59401 0 0-1.19551-1.59401" fill="#0000ff"/>
<path transform="matrix(1,0,0,-1,6.169,6.1689989)" stroke-width=".3985" stroke-linecap="butt" stroke-miterlimit="10" stroke-linejoin="miter" fill="none" stroke="#000000" d=""/>
<path transform="matrix(1,0,0,-1,6.169,6.1689989)" stroke-width=".3985" stroke-linecap="butt" stroke-miterlimit="10" stroke-linejoin="miter" fill="none" stroke="#0000ff" d="M127.81288-25.99731 111.15733-42.65285"/>
<path transform="matrix(-.70709,.7071,.7071,.70709,117.32633,48.82185)" d="M1.99252 0-1.19551 1.59401 0 0-1.19551-1.59401" fill="#0000ff"/>
<path transform="matrix(1,0,0,-1,6.169,6.1689989)" stroke-width=".3985" stroke-linecap="butt" stroke-miterlimit="10" stroke-linejoin="miter" fill="none" stroke="#000000" d=""/>
<path transform="matrix(1,0,0,-1,6.169,6.1689989)" stroke-width=".3985" stroke-linecap="butt" stroke-miterlimit="10" stroke-linejoin="miter" fill="none" stroke="#0000ff" d="M131.1327-27.37242V-42.06924"/>
<path transform="matrix(0,1,1,0,137.30171,48.23824)" d="M1.99252 0-1.19551 1.59401 0 0-1.19551-1.59401" fill="#0000ff"/>
<path transform="matrix(1,0,0,-1,6.169,6.1689989)" stroke-width=".3985" stroke-linecap="butt" stroke-miterlimit="10" stroke-linejoin="miter" fill="none" stroke="#000000" d=""/>
<path transform="matrix(1,0,0,-1,6.169,6.1689989)" stroke-width=".3985" stroke-linecap="butt" stroke-miterlimit="10" stroke-linejoin="miter" fill="none" stroke="#0000ff" d="M134.4525-25.99731 151.10805-42.65286"/>
<path transform="matrix(.7071,.7071,.7071,-.7071,157.27706,48.821859)" d="M1.99252 0-1.19551 1.59401 0 0-1.19551-1.59401" fill="#0000ff"/>
<path transform="matrix(1,0,0,-1,6.169,6.1689989)" stroke-width=".3985" stroke-linecap="butt" stroke-miterlimit="10" stroke-linejoin="miter" fill="none" stroke="#000000" d=""/>
<path transform="matrix(1,0,0,-1,6.169,6.1689989)" stroke-width=".3985" stroke-linecap="butt" stroke-miterlimit="10" stroke-linejoin="miter" fill="none" stroke="#0000ff" d="M195.84549-25.99731 179.18996-42.65285"/>
<path transform="matrix(-.7071,.7071,.7071,.7071,185.35897,48.82185)" d="M1.99252 0-1.19551 1.59401 0 0-1.19551-1.59401" fill="#0000ff"/>
<path transform="matrix(1,0,0,-1,6.169,6.1689989)" stroke-width=".3985" stroke-linecap="butt" stroke-miterlimit="10" stroke-linejoin="miter" fill="none" stroke="#000000" d=""/>
<path transform="matrix(1,0,0,-1,6.169,6.1689989)" stroke-width=".3985" stroke-linecap="butt" stroke-miterlimit="10" stroke-linejoin="miter" fill="none" stroke="#0000ff" d="M199.1653-27.37242V-42.06924"/>
<path transform="matrix(0,1,1,0,205.3343,48.23824)" d="M1.99252 0-1.19551 1.59401 0 0-1.19551-1.59401" fill="#0000ff"/>
<path transform="matrix(1,0,0,-1,6.169,6.1689989)" stroke-width=".3985" stroke-linecap="butt" stroke-miterlimit="10" stroke-linejoin="miter" fill="none" stroke="#000000" d=""/>
<path transform="matrix(1,0,0,-1,6.169,6.1689989)" stroke-width=".3985" stroke-linecap="butt" stroke-miterlimit="10" stroke-linejoin="miter" fill="none" stroke="#0000ff" d="M202.4851-25.99731 219.14067-42.65286"/>
<path transform="matrix(.70709,.7071,.7071,-.70709,225.30968,48.821859)" d="M1.99252 0-1.19551 1.59401 0 0-1.19551-1.59401" fill="#0000ff"/>
<path transform="matrix(1,0,0,-1,6.169,6.1689989)" stroke-width=".3985" stroke-linecap="butt" stroke-miterlimit="10" stroke-linejoin="miter" fill="none" stroke="#000000" d=""/>
<path transform="matrix(1,0,0,-1,6.169,6.1689989)" stroke-width=".3985" stroke-linecap="butt" stroke-miterlimit="10" stroke-linejoin="miter" fill="none" stroke="#0000ff" d="M286.55564-48.67485 269.9001-65.33038"/>
<path transform="matrix(-.7071,.7071,.7071,.7071,276.0691,71.49938)" d="M1.99252 0-1.19551 1.59401 0 0-1.19551-1.59401" fill="#0000ff"/>
<path transform="matrix(1,0,0,-1,6.169,6.1689989)" stroke-width=".3985" stroke-linecap="butt" stroke-miterlimit="10" stroke-linejoin="miter" fill="none" stroke="#000000" d=""/>
<path transform="matrix(1,0,0,-1,6.169,6.1689989)" stroke-width=".3985" stroke-linecap="butt" stroke-miterlimit="10" stroke-linejoin="miter" fill="none" stroke="#0000ff" d="M289.87544-50.04996V-64.74678"/>
<path transform="matrix(0,1,1,0,296.04444,70.91578)" d="M1.99252 0-1.19551 1.59401 0 0-1.19551-1.59401" fill="#0000ff"/>
<path transform="matrix(1,0,0,-1,6.169,6.1689989)" stroke-width=".3985" stroke-linecap="butt" stroke-miterlimit="10" stroke-linejoin="miter" fill="none" stroke="#000000" d=""/>
<path transform="matrix(1,0,0,-1,6.169,6.1689989)" stroke-width=".3985" stroke-linecap="butt" stroke-miterlimit="10" stroke-linejoin="miter" fill="none" stroke="#0000ff" d="M293.19526-48.67485 309.85078-65.33038"/>
<path transform="matrix(.70709,.7071,.7071,-.70709,316.01979,71.49938)" d="M1.99252 0-1.19551 1.59401 0 0-1.19551-1.59401" fill="#0000ff"/>
<path transform="matrix(1,0,0,-1,6.169,6.1689989)" stroke-width=".3985" stroke-linecap="butt" stroke-miterlimit="10" stroke-linejoin="miter" fill="none" stroke="#000000" d=""/>
<path transform="matrix(1,0,0,-1,6.169,6.1689989)" stroke-width=".3985" stroke-linecap="butt" stroke-miterlimit="10" stroke-linejoin="miter" fill="none" stroke="#0000ff" d="M263.87809-25.99731 247.22255-42.65285"/>
<path transform="matrix(-.7071,.7071,.7071,.7071,253.39156,48.82185)" d="M1.99252 0-1.19551 1.59401 0 0-1.19551-1.59401" fill="#0000ff"/>
<path transform="matrix(1,0,0,-1,6.169,6.1689989)" stroke-width=".3985" stroke-linecap="butt" stroke-miterlimit="10" stroke-linejoin="miter" fill="none" stroke="#000000" d=""/>
<path transform="matrix(1,0,0,-1,6.169,6.1689989)" stroke-width=".3985" stroke-linecap="butt" stroke-miterlimit="10" stroke-linejoin="miter" fill="none" stroke="#0000ff" d="M267.19789-27.37242V-42.06924"/>
<path transform="matrix(0,1,1,0,273.36689,48.23824)" d="M1.99252 0-1.19551 1.59401 0 0-1.19551-1.59401" fill="#0000ff"/>
<path transform="matrix(1,0,0,-1,6.169,6.1689989)" stroke-width=".3985" stroke-linecap="butt" stroke-miterlimit="10" stroke-linejoin="miter" fill="none" stroke="#000000" d=""/>
<path transform="matrix(1,0,0,-1,6.169,6.1689989)" stroke-width=".3985" stroke-linecap="butt" stroke-miterlimit="10" stroke-linejoin="miter" fill="none" stroke="#0000ff" d="M270.51774-25.99731 285.1467-40.62631"/>
<path transform="matrix(.7071,.7071,.7071,-.7071,291.3157,46.795309)" d="M1.99252 0-1.19551 1.59401 0 0-1.19551-1.59401" fill="#0000ff"/>
<path transform="matrix(1,0,0,-1,6.169,6.1689989)" stroke-width=".3985" stroke-linecap="butt" stroke-miterlimit="10" stroke-linejoin="miter" fill="none" stroke="#000000" d=""/>
<path transform="matrix(1,0,0,-1,6.169,6.1689989)" stroke-width=".3985" stroke-linecap="butt" stroke-miterlimit="10" stroke-linejoin="miter" fill="none" stroke="#0000ff" d="M194.71019-1.48502 137.478-20.56244"/>
<path transform="matrix(-.94864,.31621,.31621,.94864,143.647,26.73144)" d="M1.99252 0-1.19551 1.59401 0 0-1.19551-1.59401" fill="#0000ff"/>
<path transform="matrix(1,0,0,-1,6.169,6.1689989)" stroke-width=".3985" stroke-linecap="butt" stroke-miterlimit="10" stroke-linejoin="miter" fill="none" stroke="#000000" d=""/>
<path transform="matrix(1,0,0,-1,6.169,6.1689989)" stroke-width=".3985" stroke-linecap="butt" stroke-miterlimit="10" stroke-linejoin="miter" fill="none" stroke="#0000ff" d="M199.1653-4.69489V-15.99008"/>
<path transform="matrix(0,1,1,0,205.3343,22.159079)" d="M1.99252 0-1.19551 1.59401 0 0-1.19551-1.59401" fill="#0000ff"/>
<path transform="matrix(1,0,0,-1,6.169,6.1689989)" stroke-width=".3985" stroke-linecap="butt" stroke-miterlimit="10" stroke-linejoin="miter" fill="none" stroke="#000000" d=""/>
<path transform="matrix(1,0,0,-1,6.169,6.1689989)" stroke-width=".3985" stroke-linecap="butt" stroke-miterlimit="10" stroke-linejoin="miter" fill="none" stroke="#0000ff" d="M203.6204-1.48502 260.8526-20.56244"/>
<path transform="matrix(.94864,.31621,.31621,-.94864,267.0216,26.73144)" d="M1.99252 0-1.19551 1.59401 0 0-1.19551-1.59401" fill="#0000ff"/>
<path transform="matrix(1,0,0,-1,6.169,6.1689989)" d="M5.66934 0C5.66934 3.13112 3.13112 5.66934 0 5.66934-3.13112 5.66934-5.66934 3.13112-5.66934 0-5.66934-3.13112-3.13112-5.66934 0-5.66934 3.13112-5.66934 5.66934-3.13112 5.66934 0ZM0 0"/>
<path transform="matrix(1,0,0,-1,6.169,28.845999)" d="M5.66934 0C5.66934 3.13112 3.13112 5.66934 0 5.66934-3.13112 5.66934-5.66934 3.13112-5.66934 0-5.66934-3.13112-3.13112-5.66934 0-5.66934 3.13112-5.66934 5.66934-3.13112 5.66934 0ZM0 0"/>
<path transform="matrix(1,0,0,-1,6.169,51.523)" d="M5.66934 0C5.66934 3.13112 3.13112 5.66934 0 5.66934-3.13112 5.66934-5.66934 3.13112-5.66934 0-5.66934-3.13112-3.13112-5.66934 0-5.66934 3.13112-5.66934 5.66934-3.13112 5.66934 0ZM0 0"/>
<path transform="matrix(1,0,0,-1,6.169,74.201)" d="M-1.41731-1.41731H1.41733V1.41733H-1.41731Z" fill="#0000ff"/>
<path transform="matrix(1,0,0,-1,66.065,6.1689989)" d="M5.66934 0C5.66934 3.13112 3.13112 5.66934 0 5.66934-3.13112 5.66934-5.66934 3.13112-5.66934 0-5.66934-3.13112-3.13112-5.66934 0-5.66934 3.13112-5.66934 5.66934-3.13112 5.66934 0ZM0 0"/>
<path transform="matrix(1,0,0,-1,43.388,28.845999)" d="M5.66934 0C5.66934 3.13112 3.13112 5.66934 0 5.66934-3.13112 5.66934-5.66934 3.13112-5.66934 0-5.66934-3.13112-3.13112-5.66934 0-5.66934 3.13112-5.66934 5.66934-3.13112 5.66934 0ZM0 0"/>
<path transform="matrix(1,0,0,-1,32.05,51.523)" d="M5.66934 0C5.66934 3.13112 3.13112 5.66934 0 5.66934-3.13112 5.66934-5.66934 3.13112-5.66934 0-5.66934-3.13112-3.13112-5.66934 0-5.66934 3.13112-5.66934 5.66934-3.13112 5.66934 0ZM0 0"/>
<path transform="matrix(1,0,0,-1,20.711,74.201)" d="M-1.41731-1.41731H1.41733V1.41733H-1.41731Z" fill="#0000ff"/>
<path transform="matrix(1,0,0,-1,43.388,74.201)" d="M-1.41731-1.41731H1.41733V1.41733H-1.41731Z" fill="#0000ff"/>
<path transform="matrix(1,0,0,-1,54.726999,51.523)" d="M-1.41731-1.41731H1.41733V1.41733H-1.41731Z" fill="#0000ff"/>
<path transform="matrix(1,0,0,-1,88.743,28.845999)" d="M5.66934 0C5.66934 3.13112 3.13112 5.66934 0 5.66934-3.13112 5.66934-5.66934 3.13112-5.66934 0-5.66934-3.13112-3.13112-5.66934 0-5.66934 3.13112-5.66934 5.66934-3.13112 5.66934 0ZM0 0"/>
<path transform="matrix(1,0,0,-1,77.404,51.523)" d="M-1.41731-1.41731H1.41733V1.41733H-1.41731Z" fill="#0000ff"/>
<path transform="matrix(1,0,0,-1,100.081,51.523)" d="M-1.41731-1.41731H1.41733V1.41733H-1.41731Z" fill="#0000ff"/>
<path transform="matrix(1,0,0,-1,205.332,6.1689989)" d="M5.66934 0C5.66934 3.13112 3.13112 5.66934 0 5.66934-3.13112 5.66934-5.66934 3.13112-5.66934 0-5.66934-3.13112-3.13112-5.66934 0-5.66934 3.13112-5.66934 5.66934-3.13112 5.66934 0ZM0 0"/>
<path transform="matrix(1,0,0,-1,137.3,28.845999)" d="M5.66934 0C5.66934 3.13112 3.13112 5.66934 0 5.66934-3.13112 5.66934-5.66934 3.13112-5.66934 0-5.66934-3.13112-3.13112-5.66934 0-5.66934 3.13112-5.66934 5.66934-3.13112 5.66934 0ZM0 0"/>
<path transform="matrix(1,0,0,-1,114.623,51.523)" d="M-1.41731-1.41731H1.41733V1.41733H-1.41731Z" fill="#0000ff"/>
<path transform="matrix(1,0,0,-1,137.3,51.523)" d="M-1.41731-1.41731H1.41733V1.41733H-1.41731Z" fill="#0000ff"/>
<path transform="matrix(1,0,0,-1,159.97801,51.523)" d="M-1.41731-1.41731H1.41733V1.41733H-1.41731Z" fill="#0000ff"/>
<path transform="matrix(1,0,0,-1,205.332,28.845999)" d="M5.66934 0C5.66934 3.13112 3.13112 5.66934 0 5.66934-3.13112 5.66934-5.66934 3.13112-5.66934 0-5.66934-3.13112-3.13112-5.66934 0-5.66934 3.13112-5.66934 5.66934-3.13112 5.66934 0ZM0 0"/>
<path transform="matrix(1,0,0,-1,182.655,51.523)" d="M-1.41731-1.41731H1.41733V1.41733H-1.41731Z" fill="#0000ff"/>
<path transform="matrix(1,0,0,-1,205.332,51.523)" d="M-1.41731-1.41731H1.41733V1.41733H-1.41731Z" fill="#0000ff"/>
<path transform="matrix(1,0,0,-1,228.009,51.523)" d="M-1.41731-1.41731H1.41733V1.41733H-1.41731Z" fill="#0000ff"/>
<path transform="matrix(1,0,0,-1,273.364,28.845999)" d="M5.66934 0C5.66934 3.13112 3.13112 5.66934 0 5.66934-3.13112 5.66934-5.66934 3.13112-5.66934 0-5.66934-3.13112-3.13112-5.66934 0-5.66934 3.13112-5.66934 5.66934-3.13112 5.66934 0ZM0 0"/>
<path transform="matrix(1,0,0,-1,250.686,51.523)" d="M-1.41731-1.41731H1.41733V1.41733H-1.41731Z" fill="#0000ff"/>
<path transform="matrix(1,0,0,-1,273.364,51.523)" d="M-1.41731-1.41731H1.41733V1.41733H-1.41731Z" fill="#0000ff"/>
<path transform="matrix(1,0,0,-1,296.04103,51.523)" d="M5.66934 0C5.66934 3.13112 3.13112 5.66934 0 5.66934-3.13112 5.66934-5.66934 3.13112-5.66934 0-5.66934-3.13112-3.13112-5.66934 0-5.66934 3.13112-5.66934 5.66934-3.13112 5.66934 0ZM0 0"/>
<path transform="matrix(1,0,0,-1,273.364,74.201)" d="M-1.41731-1.41731H1.41733V1.41733H-1.41731Z" fill="#0000ff"/>
<path transform="matrix(1,0,0,-1,296.04103,74.201)" d="M-1.41731-1.41731H1.41733V1.41733H-1.41731Z" fill="#0000ff"/>
<path transform="matrix(1,0,0,-1,318.71803,74.201)" d="M-1.41731-1.41731H1.41733V1.41733H-1.41731Z" fill="#0000ff"/>
</svg>
