<svg xmlns="http://www.w3.org/2000/svg" xmlns:xlink="http://www.w3.org/1999/xlink" xmlns:inkscape="http://www.inkscape.org/namespaces/inkscape" version="1.1" width="284.63" height="131.943" viewBox="0 0 284.63 131.943">
<defs>
<path id="font_1_82" d="M.43699647 0V.06199646H.30899049V.67578127H.28799439C.22099304 .6108246 .125 .6108246 .08999634 .6108246V.5488281C.117996219 .5488281 .16899109 .5488281 .22399903 .5718231V.06199646H.09599304V0H.43699647Z"/>
<path id="font_1_56" d="M.46199037 .20275879C.46199037 .32676698 .37298585 .42578126 .2669983 .42578126 .2539978 .42578126 .20498657 .42578126 .1579895 .3857727V.58628848H.4269867V.6542969H.08099365V.2817688H.15299988C.18499756 .35577394 .24598694 .3607788 .2649994 .3607788 .30599977 .3607788 .3659973 .32977296 .3659973 .20375061 .3659973 .08163452 .2939911 .042526246 .23399353 .042526246 .18199158 .042526246 .11399841 .067596439 .07499695 .13476563L.038986207 .0756073C.054992677 .05355835 .12199402-.022460938 .23498535-.022460938 .3600006-.022460938 .46199037 .07762146 .46199037 .20275879Z"/>
<path id="font_2_47" d="M.44699098 .00024414063 .59498599 .69433596H.5149994L.45199586 .4000702C.4059906 .44706727 .34399415 .45507813 .31199647 .45507813 .21099854 .45507813 .10998535 .35009767 .08299255 .22216797 .055999757 .0932312 .11099243-.0107421879 .20899964-.0107421879 .23899842-.0107421879 .30299378-.003753662 .375 .052246095L.3639984 .00024414063H.44699098M.3939972 .14120484C.3899994 .12220764 .3899994 .12020874 .37599183 .10621643 .34098817 .070236209 .30299378 .054244996 .2669983 .054244996 .20199585 .054244996 .13999939 .10122681 .1659851 .22116089 .19299317 .34909059 .2869873 .39007569 .34999085 .39007569 .3959961 .39007569 .42199708 .36408998 .43598939 .33810426L.3939972 .14120484Z"/>
<path id="font_2_50" d="M.47399903 .21931458C.47999574 .25030519 .49499513 .32615663 .46899415 .3859558 .43998719 .44892884 .3789978 .4609375 .34098817 .4609375 .22499085 .4609375 .10998535 .35406495 .08299255 .22631836 .054992677 .0942688 .1309967-.0107421879 .2559967-.0107421879 .3039856-.0107421879 .3639984 .0012512207 .42999269 .038253786L.43899537 .10726929C.3659973 .06225586 .30499269 .054244996 .269989 .054244996 .18699646 .054244996 .13899231 .12727356 .1559906 .21931458H.47399903M.42599488 .2783203H.17399597C.20399475 .34210206 .2639923 .39593507 .32699586 .39593507 .3639984 .39593507 .42900086 .37898255 .42599488 .2783203Z"/>
<path id="font_2_72" d="M.1619873 0 .30999757 .69433596H.22999573L.08198547 0H.1619873Z"/>
<path id="font_2_105" d="M.34799195 .026245118 .34399415 .089263919C.31399537 .06925964 .27598573 .057250978 .24499512 .057250978 .20599365 .057250978 .20098877 .09225464 .21199036 .14427185L.2619934 .38232423H.4059906L.4189911 .44433595H.2749939L.3019867 .57128909H.22799683L.20098877 .44433595H.11299133L.099990848 .38232423H.18499756L.1309967 .12626648C.117996219 .06724548 .114990238-.0107421879 .18798828-.0107421879 .23199463-.0107421879 .28599549-.0017547608 .34799195 .026245118Z"/>
<path id="font_1_101" d="M.46998597 .22270203C.46998597 .27876283 .46199037 .32881166 .42799378 .3828125 .3880005 .44587709 .35299684 .46289063 .30599977 .46289063 .2679901 .46289063 .19400025 .45188905 .13198853 .38079835 .14299011 .5148468 .21099854 .61376956 .31799317 .61376956 .33799745 .61376956 .375 .6127777 .42599488 .5927887V.655777C.37799073 .6737671 .33898927 .67578127 .31698609 .67578127 .17298889 .67578127 .042999269 .53582766 .042999269 .32080079 .042999269 .046539308 .1639862-.022460938 .2579956-.022460938 .31900025-.022460938 .36299134-.00047302247 .40299989 .044540407 .45098878 .097579959 .46998597 .14363098 .46998597 .22270203M.3829956 .22270203C.3829956 .18367005 .3829956 .1426239 .35699464 .099594119 .33799745 .06956482 .30999757 .042526246 .2579956 .042526246 .15098572 .042526246 .13598633 .18566895 .1329956 .21870423 .1329956 .23271179 .1329956 .23472595 .13398743 .24572754 .13398743 .32180787 .18199158 .39788819 .2630005 .39788819 .30099488 .39788819 .33499146 .38380433 .36099244 .33680726 .3809967 .30078126 .3829956 .26875306 .3829956 .22270203Z"/>
<path id="font_1_51" d="M.46998597 .18099976C.46998597 .24398804 .43199159 .31698609 .32998658 .35398866 .3929901 .37199403 .45599366 .42599488 .45599366 .5009918 .45599366 .59277346 .36999513 .67578127 .25698854 .67578127 .13999939 .67578127 .056991579 .59077456 .056991579 .5007782 .056991579 .425766 .11999512 .3717804 .18299866 .35377503 .07699585 .31576539 .042999269 .23977661 .042999269 .18077088 .042999269 .07055664 .13798523-.022460938 .2559967-.022460938 .37799073-.022460938 .46998597 .07255554 .46998597 .18063355V.18099976M.38198854 .49975587C.38198854 .43774415 .33898927 .3857422 .2559967 .3857422 .17799378 .3857422 .1309967 .43374635 .1309967 .49975587 .1309967 .5667572 .1789856 .61376956 .2559967 .61376956 .33799745 .61376956 .38198854 .5637665 .38198854 .49975587M.38398744 .18063355C.38398744 .087524417 .32299806 .042526246 .25698854 .042526246 .18598938 .042526246 .1289978 .090530399 .1289978 .18052674 .1289978 .287735 .20498657 .32073976 .2559967 .32073976 .31298829 .32073976 .38398744 .28373719 .38398744 .18074036V.18063355Z"/>
<path id="font_1_106" d="M.46998597 .18063355C.46998597 .25968934 .4119873 .32572938 .32998658 .35273744 .3999939 .3887329 .44198609 .4537506 .44198609 .52275088 .44198609 .60876467 .35699464 .67578127 .2539978 .67578127 .16999817 .67578127 .09899902 .6327667 .056991579 .5697632L.09599304 .51275637C.13999939 .5997772 .21598816 .61376956 .25299073 .61376956 .3039856 .61376956 .35398866 .58576968 .35398866 .52275088 .35398866 .4857483 .33299256 .3997345 .22499085 .38974 .20599365 .3877411 .18998719 .386734 .17098999 .3857422V.32073976H.24598694C.34298707 .32073976 .37399293 .24168396 .37399293 .18164063 .37399293 .10256958 .32699586 .042526246 .25099183 .042526246 .16899109 .042526246 .09298706 .08757019 .054992677 .14160156 .04699707 .10157776 .04699707 .09957886 .042999269 .077560428 .09199524 .01852417 .16799927-.022460938 .25299073-.022460938 .3789978-.022460938 .46998597 .07556152 .46998597 .18063355Z"/>
<path id="font_1_100" d="M.46998597 .58529666V.6542969H.042999269V.57928469H.23899842C.25099183 .57928469 .2630005 .58029177 .2749939 .58029177H.397995C.24198914 .41627503 .15499878 .215271 .15499878-.0107421879H.24499512C.24499512 .24726868 .35499574 .45828248 .46998597 .58529666Z"/>
<path id="font_1_78" d="M.46998597 .3334961C.46998597 .6057739 .35299684 .67578127 .2599945 .67578127 .20298767 .67578127 .1539917 .6567688 .10899353 .6077728 .05999756 .5527191 .042999269 .5066681 .042999269 .43159486 .042999269 .36253358 .055999757 .31448365 .08999634 .26342774 .125 .20942688 .15899658 .19042969 .20698548 .19042969 .29299928 .19042969 .35398866 .24041748 .3809967 .2734375 .36499024 .09449768 .2769928 .042526246 .21099854 .042526246 .18299866 .042526246 .14498902 .04852295 .10699463 .08050537L.07398987 .024536133C.11898804-.011474609 .1639862-.022460938 .21099854-.022460938 .34498597-.022460938 .46998597 .11647034 .46998597 .3334961M.3789978 .40957643C.3789978 .3274994 .32798768 .25541688 .25 .25541688 .19599915 .25541688 .17199707 .28445436 .1559906 .30947877 .1309967 .34951783 .12998963 .38955689 .12998963 .43159486 .12998963 .4746399 .1309967 .51768496 .16299439 .5617218 .1749878 .57873538 .20098877 .61376956 .2599945 .61376956 .3639984 .61376956 .3769989 .46862794 .37799073 .43260194 .3789978 .42658998 .3789978 .4165802 .3789978 .40957643Z"/>
<path id="font_1_107" d="M.46199037 0V.07499695H.27398683C.2619934 .07499695 .25 .07398987 .23799134 .07398987H.12799073L.2919922 .22293091C.39698792 .30889894 .46199037 .36286927 .46199037 .45983888 .46199037 .5747833 .3789978 .67578127 .24299622 .67578127 .13699341 .67578127 .07398987 .6147766 .042999269 .5158081L.08898926 .45783998C.114990238 .5747833 .16699219 .6077728 .22898865 .6077728 .31799317 .6077728 .37399293 .5397949 .37399293 .45783998 .37399293 .36686708 .30999757 .30889894 .23599243 .24291992L.050994874 .067993167V0H.46199037Z"/>
<path id="font_1_57" d="M.48399354 .16699219V.23197937H.38398744V.6542969H.2869873L.0289917 .23197937V.16699219H.2999878V0H.38398744V.16699219H.48399354M.30599977 .23197937H.11199951L.17298889 .33206178C.20298767 .38308717 .30499269 .55722048 .30599977 .6082611V.23197937Z"/>
</defs>
<path transform="matrix(1,0,0,-1,163.767,16.639992)" stroke-width=".3985" stroke-linecap="butt" stroke-miterlimit="10" stroke-linejoin="miter" fill="none" stroke="#000000" d=""/>
<path transform="matrix(1,0,0,-1,163.767,16.639992)" stroke-width=".3985" stroke-linecap="butt" stroke-miterlimit="10" stroke-linejoin="miter" fill="none" stroke="#0000ff" d="M-5.4563-2.16486-64.13676-25.44714"/>
<path transform="matrix(-.92947,.36877,.36877,.92947,99.63024,42.08713)" d="M1.99252 0-1.19551 1.59401 0 0-1.19551-1.59401" fill="#0000ff"/>
<path transform="matrix(1,0,0,-1,163.767,16.639992)" stroke-width=".3985" stroke-linecap="butt" stroke-miterlimit="10" stroke-linejoin="miter" fill="none" stroke="#000000" d=""/>
<path transform="matrix(1,0,0,-1,163.767,16.639992)" stroke-width=".3985" stroke-linecap="butt" stroke-miterlimit="10" stroke-linejoin="miter" fill="none" stroke="#0000ff" d="M5.4563-2.16486 64.13676-25.44714"/>
<path transform="matrix(.92947,.36877,.36877,-.92947,227.90375,42.08713)" d="M1.99252 0-1.19551 1.59401 0 0-1.19551-1.59401" fill="#0000ff"/>
<path transform="matrix(1,0,0,-1,163.767,16.639992)" stroke-width=".3985" stroke-linecap="butt" stroke-miterlimit="10" stroke-linejoin="miter" fill="none" stroke="#000000" d=""/>
<path transform="matrix(1,0,0,-1,163.767,16.639992)" stroke-width=".3985" stroke-linecap="butt" stroke-miterlimit="10" stroke-linejoin="miter" fill="none" stroke="#0000ff" d="M-76.34207-31.58215-107.79129-52.35999"/>
<path transform="matrix(-.8343,.55121,.55121,.8343,55.975709,68.99996)" d="M1.99252 0-1.19551 1.59401 0 0-1.19551-1.59401" fill="#0000ff"/>
<path transform="matrix(1,0,0,-1,163.767,16.639992)" stroke-width=".3985" stroke-linecap="butt" stroke-miterlimit="10" stroke-linejoin="miter" fill="none" stroke="#000000" d=""/>
<path transform="matrix(1,0,0,-1,163.767,16.639992)" stroke-width=".3985" stroke-linecap="butt" stroke-miterlimit="10" stroke-linejoin="miter" fill="none" stroke="#0000ff" d="M-66.54807-31.58215-35.09885-52.35999"/>
<path transform="matrix(.8343,.55121,.55121,-.8343,128.66815,68.99996)" d="M1.99252 0-1.19551 1.59401 0 0-1.19551-1.59401" fill="#0000ff"/>
<path transform="matrix(1,0,0,-1,163.767,16.639992)" stroke-width=".3985" stroke-linecap="butt" stroke-miterlimit="10" stroke-linejoin="miter" fill="none" stroke="#000000" d=""/>
<path transform="matrix(1,0,0,-1,163.767,16.639992)" stroke-width=".3985" stroke-linecap="butt" stroke-miterlimit="10" stroke-linejoin="miter" fill="none" stroke="#0000ff" d="M66.97462-32.14908 44.10501-51.6005"/>
<path transform="matrix(-.76169,.64784,.64784,.76169,207.87203,68.24047)" d="M1.99252 0-1.19551 1.59401 0 0-1.19551-1.59401" fill="#0000ff"/>
<path transform="matrix(1,0,0,-1,163.767,16.639992)" stroke-width=".3985" stroke-linecap="butt" stroke-miterlimit="10" stroke-linejoin="miter" fill="none" stroke="#000000" d=""/>
<path transform="matrix(1,0,0,-1,163.767,16.639992)" stroke-width=".3985" stroke-linecap="butt" stroke-miterlimit="10" stroke-linejoin="miter" fill="none" stroke="#0000ff" d="M75.91553-32.14908 98.78514-51.6005"/>
<path transform="matrix(.76169,.64784,.64784,-.76169,262.55213,68.24047)" d="M1.99252 0-1.19551 1.59401 0 0-1.19551-1.59401" fill="#0000ff"/>
<path transform="matrix(1,0,0,-1,163.767,16.639992)" stroke-width=".3985" stroke-linecap="butt" stroke-miterlimit="10" stroke-linejoin="miter" fill="none" stroke="#000000" d=""/>
<path transform="matrix(1,0,0,-1,163.767,16.639992)" stroke-width=".3985" stroke-linecap="butt" stroke-miterlimit="10" stroke-linejoin="miter" fill="none" stroke="#0000ff" d="M-118.8211-60.49588-141.69072-79.9473"/>
<path transform="matrix(-.76169,.64784,.64784,.76169,22.076294,96.58727)" d="M1.99252 0-1.19551 1.59401 0 0-1.19551-1.59401" fill="#0000ff"/>
<path transform="matrix(1,0,0,-1,163.767,16.639992)" stroke-width=".3985" stroke-linecap="butt" stroke-miterlimit="10" stroke-linejoin="miter" fill="none" stroke="#000000" d=""/>
<path transform="matrix(1,0,0,-1,163.767,16.639992)" stroke-width=".3985" stroke-linecap="butt" stroke-miterlimit="10" stroke-linejoin="miter" fill="none" stroke="#0000ff" d="M-109.88022-60.49588-87.01059-79.9473"/>
<path transform="matrix(.76169,.64784,.64784,-.76169,76.7564,96.58727)" d="M1.99252 0-1.19551 1.59401 0 0-1.19551-1.59401" fill="#0000ff"/>
<path transform="matrix(1,0,0,-1,163.767,16.639992)" stroke-width=".3985" stroke-linecap="butt" stroke-miterlimit="10" stroke-linejoin="miter" fill="none" stroke="#000000" d=""/>
<path transform="matrix(1,0,0,-1,163.767,16.639992)" stroke-width=".3985" stroke-linecap="butt" stroke-miterlimit="10" stroke-linejoin="miter" fill="none" stroke="#0000ff" d="M-31.16457-61.94376-41.0136-81.64178"/>
<path transform="matrix(-.44717,.89436,.89436,.44717,122.7534,98.28177)" d="M1.99252 0-1.19551 1.59401 0 0-1.19551-1.59401" fill="#0000ff"/>
<path transform="matrix(1,0,0,-1,163.767,16.639992)" stroke-width=".3985" stroke-linecap="butt" stroke-miterlimit="10" stroke-linejoin="miter" fill="none" stroke="#000000" d=""/>
<path transform="matrix(1,0,0,-1,163.767,16.639992)" stroke-width=".3985" stroke-linecap="butt" stroke-miterlimit="10" stroke-linejoin="miter" fill="none" stroke="#0000ff" d="M-25.91441-61.94376-17.88216-78.00822"/>
<path transform="matrix(.44717,.89436,.89436,-.44717,145.88484,94.64821)" d="M1.99252 0-1.19551 1.59401 0 0-1.19551-1.59401" fill="#0000ff"/>
<path transform="matrix(1,0,0,-1,163.767,16.639992)" stroke-width=".3985" stroke-linecap="butt" stroke-miterlimit="10" stroke-linejoin="miter" fill="none" stroke="#000000" d=""/>
<path transform="matrix(1,0,0,-1,163.767,16.639992)" stroke-width=".3985" stroke-linecap="butt" stroke-miterlimit="10" stroke-linejoin="miter" fill="none" stroke="#0000ff" d="M35.4918-61.94376 25.64278-81.64178"/>
<path transform="matrix(-.44717,.89436,.89436,.44717,189.40978,98.28177)" d="M1.99252 0-1.19551 1.59401 0 0-1.19551-1.59401" fill="#0000ff"/>
<path transform="matrix(1,0,0,-1,163.767,16.639992)" stroke-width=".3985" stroke-linecap="butt" stroke-miterlimit="10" stroke-linejoin="miter" fill="none" stroke="#000000" d=""/>
<path transform="matrix(1,0,0,-1,163.767,16.639992)" stroke-width=".3985" stroke-linecap="butt" stroke-miterlimit="10" stroke-linejoin="miter" fill="none" stroke="#0000ff" d="M40.74194-61.94376 48.7742-78.00822"/>
<path transform="matrix(.44717,.89436,.89436,-.44717,212.5412,94.64821)" d="M1.99252 0-1.19551 1.59401 0 0-1.19551-1.59401" fill="#0000ff"/>
<path transform="matrix(1,0,0,-1,163.767,16.639992)" stroke-width=".3985" stroke-linecap="butt" stroke-miterlimit="10" stroke-linejoin="miter" fill="none" stroke="#000000" d=""/>
<path transform="matrix(1,0,0,-1,163.767,16.639992)" stroke-width=".3985" stroke-linecap="butt" stroke-miterlimit="10" stroke-linejoin="miter" fill="none" stroke="#0000ff" d="M102.14818-61.94376 92.29915-81.64178"/>
<path transform="matrix(-.44717,.89436,.89436,.44717,256.06617,98.28177)" d="M1.99252 0-1.19551 1.59401 0 0-1.19551-1.59401" fill="#0000ff"/>
<path transform="matrix(1,0,0,-1,163.767,16.639992)" stroke-width=".3985" stroke-linecap="butt" stroke-miterlimit="10" stroke-linejoin="miter" fill="none" stroke="#000000" d=""/>
<path transform="matrix(1,0,0,-1,163.767,16.639992)" stroke-width=".3985" stroke-linecap="butt" stroke-miterlimit="10" stroke-linejoin="miter" fill="none" stroke="#0000ff" d="M107.39833-61.94376 117.24736-81.64178"/>
<path transform="matrix(.44717,.89436,.89436,-.44717,281.01435,98.28177)" d="M1.99252 0-1.19551 1.59401 0 0-1.19551-1.59401" fill="#0000ff"/>
<path transform="matrix(1,0,0,-1,163.767,16.639992)" stroke-width=".3985" stroke-linecap="butt" stroke-miterlimit="10" stroke-linejoin="miter" fill="none" stroke="#000000" d=""/>
<path transform="matrix(1,0,0,-1,163.767,16.639992)" stroke-width=".3985" stroke-linecap="butt" stroke-miterlimit="10" stroke-linejoin="miter" fill="none" stroke="#0000ff" d="M-150.30391-90.29056-160.15296-109.98859"/>
<path transform="matrix(-.44717,.89436,.89436,.44717,3.6140443,126.62858)" d="M1.99252 0-1.19551 1.59401 0 0-1.19551-1.59401" fill="#0000ff"/>
<path transform="matrix(1,0,0,-1,163.767,16.639992)" stroke-width=".3985" stroke-linecap="butt" stroke-miterlimit="10" stroke-linejoin="miter" fill="none" stroke="#000000" d=""/>
<path transform="matrix(1,0,0,-1,163.767,16.639992)" stroke-width=".3985" stroke-linecap="butt" stroke-miterlimit="10" stroke-linejoin="miter" fill="none" stroke="#0000ff" d="M-145.05377-90.29056-135.20475-109.98859"/>
<path transform="matrix(.44717,.89436,.89436,-.44717,28.562256,126.62858)" d="M1.99252 0-1.19551 1.59401 0 0-1.19551-1.59401" fill="#0000ff"/>
<path transform="matrix(1,0,0,-1,163.767,16.639992)" stroke-width=".3985" stroke-linecap="butt" stroke-miterlimit="10" stroke-linejoin="miter" fill="none" stroke="#000000" d=""/>
<path transform="matrix(1,0,0,-1,163.767,16.639992)" stroke-width=".3985" stroke-linecap="butt" stroke-miterlimit="10" stroke-linejoin="miter" fill="none" stroke="#0000ff" d="M-83.64754-90.29056-93.49657-109.98859"/>
<path transform="matrix(-.44717,.89436,.89436,.44717,70.27043,126.62858)" d="M1.99252 0-1.19551 1.59401 0 0-1.19551-1.59401" fill="#0000ff"/>
<path transform="matrix(1,0,0,-1,163.767,16.639992)" stroke-width=".3985" stroke-linecap="butt" stroke-miterlimit="10" stroke-linejoin="miter" fill="none" stroke="#000000" d=""/>
<path transform="matrix(1,0,0,-1,163.767,16.639992)" stroke-width=".3985" stroke-linecap="butt" stroke-miterlimit="10" stroke-linejoin="miter" fill="none" stroke="#0000ff" d="M-78.39738-90.29056-68.54836-109.98859"/>
<path transform="matrix(.44717,.89436,.89436,-.44717,95.218639,126.62858)" d="M1.99252 0-1.19551 1.59401 0 0-1.19551-1.59401" fill="#0000ff"/>
<path transform="matrix(1,0,0,-1,163.767,16.639992)" stroke-width=".3985" stroke-linecap="butt" stroke-miterlimit="10" stroke-linejoin="miter" fill="none" stroke="#000000" d=""/>
<path transform="matrix(1,0,0,-1,163.767,16.639992)" stroke-width=".3985" stroke-linecap="butt" stroke-miterlimit="10" stroke-linejoin="miter" fill="none" stroke="#0000ff" d="M-16.99115-90.29056-26.8402-109.98859"/>
<path transform="matrix(-.44717,.89436,.89436,.44717,136.9268,126.62858)" d="M1.99252 0-1.19551 1.59401 0 0-1.19551-1.59401" fill="#0000ff"/>
<path transform="matrix(1,0,0,-1,163.767,16.639992)" stroke-width=".3985" stroke-linecap="butt" stroke-miterlimit="10" stroke-linejoin="miter" fill="none" stroke="#000000" d=""/>
<path transform="matrix(1,0,0,-1,163.767,16.639992)" stroke-width=".3985" stroke-linecap="butt" stroke-miterlimit="10" stroke-linejoin="miter" fill="none" stroke="#0000ff" d="M-11.74101-90.29056-1.89197-109.98859"/>
<path transform="matrix(.44717,.89436,.89436,-.44717,161.87503,126.62858)" d="M1.99252 0-1.19551 1.59401 0 0-1.19551-1.59401" fill="#0000ff"/>
<path transform="matrix(1,0,0,-1,163.767,16.639992)" stroke-width=".3985" stroke-linecap="butt" stroke-miterlimit="10" stroke-linejoin="miter" fill="none" stroke="#000000" d=""/>
<path transform="matrix(1,0,0,-1,163.767,16.639992)" stroke-width=".3985" stroke-linecap="butt" stroke-miterlimit="10" stroke-linejoin="miter" fill="none" stroke="#0000ff" d="M49.6652-90.29056 39.81618-109.98859"/>
<path transform="matrix(-.44717,.89436,.89436,.44717,203.58318,126.62858)" d="M1.99252 0-1.19551 1.59401 0 0-1.19551-1.59401" fill="#0000ff"/>
<path transform="matrix(1,0,0,-1,163.767,16.639992)" stroke-width=".3985" stroke-linecap="butt" stroke-miterlimit="10" stroke-linejoin="miter" fill="none" stroke="#000000" d=""/>
<path transform="matrix(1,0,0,-1,163.767,16.639992)" stroke-width=".3985" stroke-linecap="butt" stroke-miterlimit="10" stroke-linejoin="miter" fill="none" stroke="#0000ff" d="M54.91536-90.29056 64.76439-109.98859"/>
<path transform="matrix(.44717,.89436,.89436,-.44717,228.53139,126.62858)" d="M1.99252 0-1.19551 1.59401 0 0-1.19551-1.59401" fill="#0000ff"/>
<path transform="matrix(1,0,0,-1,163.767,16.639992)" d="M5.66934 0C5.66934 3.13112 3.13112 5.66934 0 5.66934-3.13112 5.66934-5.66934 3.13112-5.66934 0-5.66934-3.13112-3.13112-5.66934 0-5.66934 3.13112-5.66934 5.66934-3.13112 5.66934 0ZM0 0"/>
<use data-text="1" xlink:href="#font_1_82" transform="matrix(8.96638,0,0,-8.96638,159.159,19.571991)" fill="#ffffff"/>
<use data-text="5" xlink:href="#font_1_56" transform="matrix(8.96638,0,0,-8.96638,163.76772,19.571991)" fill="#ffffff"/>
<use data-text="d" xlink:href="#font_2_47" transform="matrix(8.96638,0,0,-8.96638,170.087,19.701996)"/>
<use data-text="e" xlink:href="#font_2_50" transform="matrix(8.96638,0,0,-8.96638,175.60134,19.701996)"/>
<use data-text="l" xlink:href="#font_2_72" transform="matrix(8.96638,0,0,-8.96638,180.21903,19.701996)"/>
<use data-text="e" xlink:href="#font_2_50" transform="matrix(8.96638,0,0,-8.96638,183.17794,19.701996)"/>
<use data-text="t" xlink:href="#font_2_105" transform="matrix(8.96638,0,0,-8.96638,187.79563,19.701996)"/>
<use data-text="e" xlink:href="#font_2_50" transform="matrix(8.96638,0,0,-8.96638,191.73186,19.701996)"/>
<use data-text="d" xlink:href="#font_2_47" transform="matrix(8.96638,0,0,-8.96638,196.34955,19.701996)"/>
<path transform="matrix(1,0,0,-1,92.323,44.985994)" d="M5.66934 0C5.66934 3.13112 3.13112 5.66934 0 5.66934-3.13112 5.66934-5.66934 3.13112-5.66934 0-5.66934-3.13112-3.13112-5.66934 0-5.66934 3.13112-5.66934 5.66934-3.13112 5.66934 0ZM0 0"/>
<use data-text="6" xlink:href="#font_1_101" transform="matrix(8.96638,0,0,-8.96638,90.019,47.91799)" fill="#ffffff"/>
<path transform="matrix(1,0,0,-1,235.212,44.985994)" d="M5.66934 0C5.66934 3.13112 3.13112 5.66934 0 5.66934-3.13112 5.66934-5.66934 3.13112-5.66934 0-5.66934-3.13112-3.13112-5.66934 0-5.66934 3.13112-5.66934 5.66934-3.13112 5.66934 0ZM0 0"/>
<use data-text="1" xlink:href="#font_1_82" transform="matrix(8.96638,0,0,-8.96638,230.60301,47.91799)" fill="#ffffff"/>
<use data-text="8" xlink:href="#font_1_51" transform="matrix(8.96638,0,0,-8.96638,235.21173,47.91799)" fill="#ffffff"/>
<path transform="matrix(1,0,0,-1,49.418,73.33299)" d="M5.66934 0C5.66934 3.13112 3.13112 5.66934 0 5.66934-3.13112 5.66934-5.66934 3.13112-5.66934 0-5.66934-3.13112-3.13112-5.66934 0-5.66934 3.13112-5.66934 5.66934-3.13112 5.66934 0ZM0 0"/>
<use data-text="3" xlink:href="#font_1_106" transform="matrix(8.96638,0,0,-8.96638,47.114,76.26499)" fill="#ffffff"/>
<path transform="matrix(1,0,0,-1,135.228,73.33299)" d="M5.66934 0C5.66934 3.13112 3.13112 5.66934 0 5.66934-3.13112 5.66934-5.66934 3.13112-5.66934 0-5.66934-3.13112-3.13112-5.66934 0-5.66934 3.13112-5.66934 5.66934-3.13112 5.66934 0ZM0 0"/>
<use data-text="7" xlink:href="#font_1_100" transform="matrix(8.96638,0,0,-8.96638,132.924,76.21599)" fill="#ffffff"/>
<path transform="matrix(1,0,0,-1,201.884,73.33299)" d="M5.66934 0C5.66934 3.13112 3.13112 5.66934 0 5.66934-3.13112 5.66934-5.66934 3.13112-5.66934 0-5.66934-3.13112-3.13112-5.66934 0-5.66934 3.13112-5.66934 5.66934-3.13112 5.66934 0ZM0 0"/>
<use data-text="1" xlink:href="#font_1_82" transform="matrix(8.96638,0,0,-8.96638,197.27501,76.26499)" fill="#ffffff"/>
<use data-text="6" xlink:href="#font_1_101" transform="matrix(8.96638,0,0,-8.96638,201.88373,76.26499)" fill="#ffffff"/>
<path transform="matrix(1,0,0,-1,268.539,73.33299)" d="M5.66934 0C5.66934 3.13112 3.13112 5.66934 0 5.66934-3.13112 5.66934-5.66934 3.13112-5.66934 0-5.66934-3.13112-3.13112-5.66934 0-5.66934 3.13112-5.66934 5.66934-3.13112 5.66934 0ZM0 0"/>
<use data-text="1" xlink:href="#font_1_82" transform="matrix(8.96638,0,0,-8.96638,263.931,76.26499)" fill="#ffffff"/>
<use data-text="9" xlink:href="#font_1_78" transform="matrix(8.96638,0,0,-8.96638,268.53974,76.26499)" fill="#ffffff"/>
<path transform="matrix(1,0,0,-1,16.091004,101.67899)" d="M5.66934 0C5.66934 3.13112 3.13112 5.66934 0 5.66934-3.13112 5.66934-5.66934 3.13112-5.66934 0-5.66934-3.13112-3.13112-5.66934 0-5.66934 3.13112-5.66934 5.66934-3.13112 5.66934 0ZM0 0"/>
<use data-text="2" xlink:href="#font_1_107" transform="matrix(8.96638,0,0,-8.96638,13.786003,104.70999)" fill="#ffffff"/>
<path transform="matrix(1,0,0,-1,82.745998,101.67899)" d="M5.66934 0C5.66934 3.13112 3.13112 5.66934 0 5.66934-3.13112 5.66934-5.66934 3.13112-5.66934 0-5.66934-3.13112-3.13112-5.66934 0-5.66934 3.13112-5.66934 5.66934-3.13112 5.66934 0ZM0 0"/>
<use data-text="4" xlink:href="#font_1_57" transform="matrix(8.96638,0,0,-8.96638,80.44199,104.61099)" fill="#ffffff"/>
<path transform="matrix(1,0,0,-1,121.05499,101.67899)" d="M-1.41731-1.41731H1.41733V1.41733H-1.41731Z" fill="#0000ff"/>
<path transform="matrix(1,0,0,-1,149.402,101.67899)" d="M5.66934 0C5.66934 3.13112 3.13112 5.66934 0 5.66934-3.13112 5.66934-5.66934 3.13112-5.66934 0-5.66934-3.13112-3.13112-5.66934 0-5.66934 3.13112-5.66934 5.66934-3.13112 5.66934 0ZM0 0"/>
<use data-text="1" xlink:href="#font_1_82" transform="matrix(8.96638,0,0,-8.96638,144.793,104.61099)" fill="#ffffff"/>
<use data-text="3" xlink:href="#font_1_106" transform="matrix(8.96638,0,0,-8.96638,149.40172,104.61099)" fill="#ffffff"/>
<path transform="matrix(1,0,0,-1,187.711,101.67899)" d="M-1.41731-1.41731H1.41733V1.41733H-1.41731Z" fill="#0000ff"/>
<path transform="matrix(1,0,0,-1,216.057,101.67899)" d="M5.66934 0C5.66934 3.13112 3.13112 5.66934 0 5.66934-3.13112 5.66934-5.66934 3.13112-5.66934 0-5.66934-3.13112-3.13112-5.66934 0-5.66934 3.13112-5.66934 5.66934-3.13112 5.66934 0ZM0 0"/>
<use data-text="1" xlink:href="#font_1_82" transform="matrix(8.96638,0,0,-8.96638,211.44802,104.660999)" fill="#ffffff"/>
<use data-text="7" xlink:href="#font_1_100" transform="matrix(8.96638,0,0,-8.96638,216.05673,104.660999)" fill="#ffffff"/>
<path transform="matrix(1,0,0,-1,254.366,101.67899)" d="M-1.41731-1.41731H1.41733V1.41733H-1.41731Z" fill="#0000ff"/>
<path transform="matrix(1,0,0,-1,282.713,101.67899)" d="M-1.41731-1.41731H1.41733V1.41733H-1.41731Z" fill="#0000ff"/>
<path transform="matrix(1,0,0,-1,1.9169922,130.026)" d="M-1.41731-1.41731H1.41733V1.41733H-1.41731Z" fill="#0000ff"/>
<path transform="matrix(1,0,0,-1,30.263993,130.026)" d="M-1.41731-1.41731H1.41733V1.41733H-1.41731Z" fill="#0000ff"/>
<path transform="matrix(1,0,0,-1,68.573,130.026)" d="M-1.41731-1.41731H1.41733V1.41733H-1.41731Z" fill="#0000ff"/>
<path transform="matrix(1,0,0,-1,96.919,130.026)" d="M-1.41731-1.41731H1.41733V1.41733H-1.41731Z" fill="#0000ff"/>
<path transform="matrix(1,0,0,-1,135.228,130.026)" d="M-1.41731-1.41731H1.41733V1.41733H-1.41731Z" fill="#0000ff"/>
<path transform="matrix(1,0,0,-1,163.575,130.026)" d="M-1.41731-1.41731H1.41733V1.41733H-1.41731Z" fill="#0000ff"/>
<path transform="matrix(1,0,0,-1,201.884,130.026)" d="M-1.41731-1.41731H1.41733V1.41733H-1.41731Z" fill="#0000ff"/>
<path transform="matrix(1,0,0,-1,230.23,130.026)" d="M-1.41731-1.41731H1.41733V1.41733H-1.41731Z" fill="#0000ff"/>
</svg>
