<svg xmlns="http://www.w3.org/2000/svg" xmlns:xlink="http://www.w3.org/1999/xlink" xmlns:inkscape="http://www.inkscape.org/namespaces/inkscape" version="1.1" width="141.356" height="121.472" viewBox="0 0 141.356 121.472">
<defs>
<path id="font_1_57" d="M.48399354 .16699219V.23197937H.38398744V.6542969H.2869873L.0289917 .23197937V.16699219H.2999878V0H.38398744V.16699219H.48399354M.30599977 .23197937H.11199951L.17298889 .33206178C.20298767 .38308717 .30499269 .55722048 .30599977 .6082611V.23197937Z"/>
<path id="font_1_106" d="M.46998597 .18063355C.46998597 .25968934 .4119873 .32572938 .32998658 .35273744 .3999939 .3887329 .44198609 .4537506 .44198609 .52275088 .44198609 .60876467 .35699464 .67578127 .2539978 .67578127 .16999817 .67578127 .09899902 .6327667 .056991579 .5697632L.09599304 .51275637C.13999939 .5997772 .21598816 .61376956 .25299073 .61376956 .3039856 .61376956 .35398866 .58576968 .35398866 .52275088 .35398866 .4857483 .33299256 .3997345 .22499085 .38974 .20599365 .3877411 .18998719 .386734 .17098999 .3857422V.32073976H.24598694C.34298707 .32073976 .37399293 .24168396 .37399293 .18164063 .37399293 .10256958 .32699586 .042526246 .25099183 .042526246 .16899109 .042526246 .09298706 .08757019 .054992677 .14160156 .04699707 .10157776 .04699707 .09957886 .042999269 .077560428 .09199524 .01852417 .16799927-.022460938 .25299073-.022460938 .3789978-.022460938 .46998597 .07556152 .46998597 .18063355Z"/>
<path id="font_1_56" d="M.46199037 .20275879C.46199037 .32676698 .37298585 .42578126 .2669983 .42578126 .2539978 .42578126 .20498657 .42578126 .1579895 .3857727V.58628848H.4269867V.6542969H.08099365V.2817688H.15299988C.18499756 .35577394 .24598694 .3607788 .2649994 .3607788 .30599977 .3607788 .3659973 .32977296 .3659973 .20375061 .3659973 .08163452 .2939911 .042526246 .23399353 .042526246 .18199158 .042526246 .11399841 .067596439 .07499695 .13476563L.038986207 .0756073C.054992677 .05355835 .12199402-.022460938 .23498535-.022460938 .3600006-.022460938 .46199037 .07762146 .46199037 .20275879Z"/>
<path id="font_1_82" d="M.43699647 0V.06199646H.30899049V.67578127H.28799439C.22099304 .6108246 .125 .6108246 .08999634 .6108246V.5488281C.117996219 .5488281 .16899109 .5488281 .22399903 .5718231V.06199646H.09599304V0H.43699647Z"/>
<path id="font_1_100" d="M.46998597 .58529666V.6542969H.042999269V.57928469H.23899842C.25099183 .57928469 .2630005 .58029177 .2749939 .58029177H.397995C.24198914 .41627503 .15499878 .215271 .15499878-.0107421879H.24499512C.24499512 .24726868 .35499574 .45828248 .46998597 .58529666Z"/>
<path id="font_1_107" d="M.46199037 0V.07499695H.27398683C.2619934 .07499695 .25 .07398987 .23799134 .07398987H.12799073L.2919922 .22293091C.39698792 .30889894 .46199037 .36286927 .46199037 .45983888 .46199037 .5747833 .3789978 .67578127 .24299622 .67578127 .13699341 .67578127 .07398987 .6147766 .042999269 .5158081L.08898926 .45783998C.114990238 .5747833 .16699219 .6077728 .22898865 .6077728 .31799317 .6077728 .37399293 .5397949 .37399293 .45783998 .37399293 .36686708 .30999757 .30889894 .23599243 .24291992L.050994874 .067993167V0H.46199037Z"/>
<path id="font_1_78" d="M.46998597 .3334961C.46998597 .6057739 .35299684 .67578127 .2599945 .67578127 .20298767 .67578127 .1539917 .6567688 .10899353 .6077728 .05999756 .5527191 .042999269 .5066681 .042999269 .43159486 .042999269 .36253358 .055999757 .31448365 .08999634 .26342774 .125 .20942688 .15899658 .19042969 .20698548 .19042969 .29299928 .19042969 .35398866 .24041748 .3809967 .2734375 .36499024 .09449768 .2769928 .042526246 .21099854 .042526246 .18299866 .042526246 .14498902 .04852295 .10699463 .08050537L.07398987 .024536133C.11898804-.011474609 .1639862-.022460938 .21099854-.022460938 .34498597-.022460938 .46998597 .11647034 .46998597 .3334961M.3789978 .40957643C.3789978 .3274994 .32798768 .25541688 .25 .25541688 .19599915 .25541688 .17199707 .28445436 .1559906 .30947877 .1309967 .34951783 .12998963 .38955689 .12998963 .43159486 .12998963 .4746399 .1309967 .51768496 .16299439 .5617218 .1749878 .57873538 .20098877 .61376956 .2599945 .61376956 .3639984 .61376956 .3769989 .46862794 .37799073 .43260194 .3789978 .42658998 .3789978 .4165802 .3789978 .40957643Z"/>
</defs>
<path transform="matrix(1,0,0,-1,63.592,6.1689989)" stroke-width=".3985" stroke-linecap="butt" stroke-miterlimit="10" stroke-linejoin="miter" fill="none" stroke="#000000" d=""/>
<path transform="matrix(1,0,0,-1,63.592,6.1689989)" stroke-width=".3985" stroke-linecap="butt" stroke-miterlimit="10" stroke-linejoin="miter" fill="none" stroke="#0000ff" d="M-4.47044-3.80226-27.34007-23.2537"/>
<path transform="matrix(-.76169,.64784,.64784,.76169,36.251939,29.422678)" d="M1.99252 0-1.19551 1.59401 0 0-1.19551-1.59401" fill="#0000ff"/>
<path transform="matrix(1,0,0,-1,63.592,6.1689989)" stroke-width=".3985" stroke-linecap="butt" stroke-miterlimit="10" stroke-linejoin="miter" fill="none" stroke="#000000" d=""/>
<path transform="matrix(1,0,0,-1,63.592,6.1689989)" stroke-width=".3985" stroke-linecap="butt" stroke-miterlimit="10" stroke-linejoin="miter" fill="none" stroke="#0000ff" d="M4.47044-3.80226 27.34007-23.2537"/>
<path transform="matrix(.76169,.64784,.64784,-.76169,90.93206,29.422678)" d="M1.99252 0-1.19551 1.59401 0 0-1.19551-1.59401" fill="#0000ff"/>
<path transform="matrix(1,0,0,-1,63.592,6.1689989)" stroke-width=".3985" stroke-linecap="butt" stroke-miterlimit="10" stroke-linejoin="miter" fill="none" stroke="#000000" d=""/>
<path transform="matrix(1,0,0,-1,63.592,6.1689989)" stroke-width=".3985" stroke-linecap="butt" stroke-miterlimit="10" stroke-linejoin="miter" fill="none" stroke="#0000ff" d="M-35.95325-33.59694-43.9855-49.66142"/>
<path transform="matrix(-.44717,.89436,.89436,.44717,19.606499,55.830419)" d="M1.99252 0-1.19551 1.59401 0 0-1.19551-1.59401" fill="#0000ff"/>
<path transform="matrix(1,0,0,-1,63.592,6.1689989)" stroke-width=".3985" stroke-linecap="butt" stroke-miterlimit="10" stroke-linejoin="miter" fill="none" stroke="#000000" d=""/>
<path transform="matrix(1,0,0,-1,63.592,6.1689989)" stroke-width=".3985" stroke-linecap="butt" stroke-miterlimit="10" stroke-linejoin="miter" fill="none" stroke="#0000ff" d="M-30.70311-33.59694-20.85408-53.29498"/>
<path transform="matrix(.44717,.89436,.89436,-.44717,42.73792,59.463979)" d="M1.99252 0-1.19551 1.59401 0 0-1.19551-1.59401" fill="#0000ff"/>
<path transform="matrix(1,0,0,-1,63.592,6.1689989)" stroke-width=".3985" stroke-linecap="butt" stroke-miterlimit="10" stroke-linejoin="miter" fill="none" stroke="#000000" d=""/>
<path transform="matrix(1,0,0,-1,63.592,6.1689989)" stroke-width=".3985" stroke-linecap="butt" stroke-miterlimit="10" stroke-linejoin="miter" fill="none" stroke="#0000ff" d="M30.70311-33.59694 20.85408-53.29498"/>
<path transform="matrix(-.44717,.89436,.89436,.44717,84.446079,59.463979)" d="M1.99252 0-1.19551 1.59401 0 0-1.19551-1.59401" fill="#0000ff"/>
<path transform="matrix(1,0,0,-1,63.592,6.1689989)" stroke-width=".3985" stroke-linecap="butt" stroke-miterlimit="10" stroke-linejoin="miter" fill="none" stroke="#000000" d=""/>
<path transform="matrix(1,0,0,-1,63.592,6.1689989)" stroke-width=".3985" stroke-linecap="butt" stroke-miterlimit="10" stroke-linejoin="miter" fill="none" stroke="#0000ff" d="M35.95325-33.59694 43.9855-49.66142"/>
<path transform="matrix(.44717,.89436,.89436,-.44717,107.5775,55.830419)" d="M1.99252 0-1.19551 1.59401 0 0-1.19551-1.59401" fill="#0000ff"/>
<path transform="matrix(1,0,0,-1,63.592,6.1689989)" stroke-width=".3985" stroke-linecap="butt" stroke-miterlimit="10" stroke-linejoin="miter" fill="none" stroke="#000000" d=""/>
<path transform="matrix(1,0,0,-1,63.592,6.1689989)" stroke-width=".3985" stroke-linecap="butt" stroke-miterlimit="10" stroke-linejoin="miter" fill="none" stroke="#0000ff" d="M-50.12666-61.94376-59.9757-81.64178"/>
<path transform="matrix(-.44717,.89436,.89436,.44717,3.6162987,87.810779)" d="M1.99252 0-1.19551 1.59401 0 0-1.19551-1.59401" fill="#0000ff"/>
<path transform="matrix(1,0,0,-1,63.592,6.1689989)" stroke-width=".3985" stroke-linecap="butt" stroke-miterlimit="10" stroke-linejoin="miter" fill="none" stroke="#000000" d=""/>
<path transform="matrix(1,0,0,-1,63.592,6.1689989)" stroke-width=".3985" stroke-linecap="butt" stroke-miterlimit="10" stroke-linejoin="miter" fill="none" stroke="#0000ff" d="M-44.87651-61.94376-36.84427-78.0082"/>
<path transform="matrix(.44717,.89438,.89438,-.44717,26.74773,84.1772)" d="M1.99252 0-1.19551 1.59401 0 0-1.19551-1.59401" fill="#0000ff"/>
<path transform="matrix(1,0,0,-1,63.592,6.1689989)" stroke-width=".3985" stroke-linecap="butt" stroke-miterlimit="10" stroke-linejoin="miter" fill="none" stroke="#000000" d=""/>
<path transform="matrix(1,0,0,-1,63.592,6.1689989)" stroke-width=".3985" stroke-linecap="butt" stroke-miterlimit="10" stroke-linejoin="miter" fill="none" stroke="#0000ff" d="M-35.95325-90.29056-45.80229-109.98859"/>
<path transform="matrix(-.44717,.89436,.89436,.44717,17.789708,116.157588)" d="M1.99252 0-1.19551 1.59401 0 0-1.19551-1.59401" fill="#0000ff"/>
<path transform="matrix(1,0,0,-1,63.592,6.1689989)" stroke-width=".3985" stroke-linecap="butt" stroke-miterlimit="10" stroke-linejoin="miter" fill="none" stroke="#000000" d=""/>
<path transform="matrix(1,0,0,-1,63.592,6.1689989)" stroke-width=".3985" stroke-linecap="butt" stroke-miterlimit="10" stroke-linejoin="miter" fill="none" stroke="#0000ff" d="M-30.70311-90.29056-20.85408-109.98859"/>
<path transform="matrix(.44717,.89436,.89436,-.44717,42.73792,116.157588)" d="M1.99252 0-1.19551 1.59401 0 0-1.19551-1.59401" fill="#0000ff"/>
<path transform="matrix(1,0,0,-1,63.592,6.1689989)" stroke-width=".3985" stroke-linecap="butt" stroke-miterlimit="10" stroke-linejoin="miter" fill="none" stroke="#000000" d=""/>
<path transform="matrix(1,0,0,-1,63.592,6.1689989)" stroke-width=".3985" stroke-linecap="butt" stroke-miterlimit="10" stroke-linejoin="miter" fill="none" stroke="#0000ff" d="M44.87651-61.94376 35.02748-81.64178"/>
<path transform="matrix(-.44717,.89436,.89436,.44717,98.61948,87.810779)" d="M1.99252 0-1.19551 1.59401 0 0-1.19551-1.59401" fill="#0000ff"/>
<path transform="matrix(1,0,0,-1,63.592,6.1689989)" stroke-width=".3985" stroke-linecap="butt" stroke-miterlimit="10" stroke-linejoin="miter" fill="none" stroke="#000000" d=""/>
<path transform="matrix(1,0,0,-1,63.592,6.1689989)" stroke-width=".3985" stroke-linecap="butt" stroke-miterlimit="10" stroke-linejoin="miter" fill="none" stroke="#0000ff" d="M50.12666-61.94376 58.15892-78.00822"/>
<path transform="matrix(.44717,.89436,.89436,-.44717,121.750919,84.177219)" d="M1.99252 0-1.19551 1.59401 0 0-1.19551-1.59401" fill="#0000ff"/>
<path transform="matrix(1,0,0,-1,63.592,6.1689989)" stroke-width=".3985" stroke-linecap="butt" stroke-miterlimit="10" stroke-linejoin="miter" fill="none" stroke="#000000" d=""/>
<path transform="matrix(1,0,0,-1,63.592,6.1689989)" stroke-width=".3985" stroke-linecap="butt" stroke-miterlimit="10" stroke-linejoin="miter" fill="none" stroke="#0000ff" d="M59.04991-90.29056 49.20088-109.98859"/>
<path transform="matrix(-.44717,.89436,.89436,.44717,112.79288,116.157588)" d="M1.99252 0-1.19551 1.59401 0 0-1.19551-1.59401" fill="#0000ff"/>
<path transform="matrix(1,0,0,-1,63.592,6.1689989)" stroke-width=".3985" stroke-linecap="butt" stroke-miterlimit="10" stroke-linejoin="miter" fill="none" stroke="#000000" d=""/>
<path transform="matrix(1,0,0,-1,63.592,6.1689989)" stroke-width=".3985" stroke-linecap="butt" stroke-miterlimit="10" stroke-linejoin="miter" fill="none" stroke="#0000ff" d="M64.30006-90.29056 74.14911-109.98859"/>
<path transform="matrix(.44717,.89436,.89436,-.44717,137.7411,116.157588)" d="M1.99252 0-1.19551 1.59401 0 0-1.19551-1.59401" fill="#0000ff"/>
<path transform="matrix(1,0,0,-1,63.592,6.1689989)" d="M5.66934 0C5.66934 3.13112 3.13112 5.66934 0 5.66934-3.13112 5.66934-5.66934 3.13112-5.66934 0-5.66934-3.13112-3.13112-5.66934 0-5.66934 3.13112-5.66934 5.66934-3.13112 5.66934 0ZM0 0"/>
<use data-text="4" xlink:href="#font_1_57" transform="matrix(8.96638,0,0,-8.96638,61.287,9.100998)" fill="#ffffff"/>
<path transform="matrix(1,0,0,-1,30.264,34.515)" d="M5.66934 0C5.66934 3.13112 3.13112 5.66934 0 5.66934-3.13112 5.66934-5.66934 3.13112-5.66934 0-5.66934-3.13112-3.13112-5.66934 0-5.66934 3.13112-5.66934 5.66934-3.13112 5.66934 0ZM0 0"/>
<use data-text="3" xlink:href="#font_1_106" transform="matrix(8.96638,0,0,-8.96638,27.959,37.447)" fill="#ffffff"/>
<path transform="matrix(1,0,0,-1,96.919,34.515)" d="M5.66934 0C5.66934 3.13112 3.13112 5.66934 0 5.66934-3.13112 5.66934-5.66934 3.13112-5.66934 0-5.66934-3.13112-3.13112-5.66934 0-5.66934 3.13112-5.66934 5.66934-3.13112 5.66934 0ZM0 0"/>
<use data-text="5" xlink:href="#font_1_56" transform="matrix(8.96638,0,0,-8.96638,94.615,37.349)" fill="#ffffff"/>
<path transform="matrix(1,0,0,-1,16.091,62.862)" d="M5.66934 0C5.66934 3.13112 3.13112 5.66934 0 5.66934-3.13112 5.66934-5.66934 3.13112-5.66934 0-5.66934-3.13112-3.13112-5.66934 0-5.66934 3.13112-5.66934 5.66934-3.13112 5.66934 0ZM0 0"/>
<use data-text="1" xlink:href="#font_1_82" transform="matrix(8.96638,0,0,-8.96638,13.785999,65.892)" fill="#ffffff"/>
<path transform="matrix(1,0,0,-1,44.436998,62.862)" d="M-1.41731-1.41731H1.41733V1.41733H-1.41731Z" fill="#0000ff"/>
<path transform="matrix(1,0,0,-1,82.746,62.862)" d="M-1.41731-1.41731H1.41733V1.41733H-1.41731Z" fill="#0000ff"/>
<path transform="matrix(1,0,0,-1,111.091999,62.862)" d="M5.66934 0C5.66934 3.13112 3.13112 5.66934 0 5.66934-3.13112 5.66934-5.66934 3.13112-5.66934 0-5.66934-3.13112-3.13112-5.66934 0-5.66934 3.13112-5.66934 5.66934-3.13112 5.66934 0ZM0 0"/>
<use data-text="7" xlink:href="#font_1_100" transform="matrix(8.96638,0,0,-8.96638,108.787998,65.744998)" fill="#ffffff"/>
<path transform="matrix(1,0,0,-1,1.9169998,91.208)" d="M-1.41731-1.41731H1.41733V1.41733H-1.41731Z" fill="#0000ff"/>
<path transform="matrix(1,0,0,-1,30.264,91.208)" d="M5.66934 0C5.66934 3.13112 3.13112 5.66934 0 5.66934-3.13112 5.66934-5.66934 3.13112-5.66934 0-5.66934-3.13112-3.13112-5.66934 0-5.66934 3.13112-5.66934 5.66934-3.13112 5.66934 0ZM0 0"/>
<use data-text="2" xlink:href="#font_1_107" transform="matrix(8.96638,0,0,-8.96638,27.959,94.239)" fill="#ffffff"/>
<path transform="matrix(1,0,0,-1,16.091,119.555)" d="M-1.41731-1.41731H1.41733V1.41733H-1.41731Z" fill="#0000ff"/>
<path transform="matrix(1,0,0,-1,44.436998,119.555)" d="M-1.41731-1.41731H1.41733V1.41733H-1.41731Z" fill="#0000ff"/>
<path transform="matrix(1,0,0,-1,96.919,91.208)" d="M-1.41731-1.41731H1.41733V1.41733H-1.41731Z" fill="#0000ff"/>
<path transform="matrix(1,0,0,-1,125.266,91.208)" d="M5.66934 0C5.66934 3.13112 3.13112 5.66934 0 5.66934-3.13112 5.66934-5.66934 3.13112-5.66934 0-5.66934-3.13112-3.13112-5.66934 0-5.66934 3.13112-5.66934 5.66934-3.13112 5.66934 0ZM0 0"/>
<use data-text="9" xlink:href="#font_1_78" transform="matrix(8.96638,0,0,-8.96638,122.961,94.14)" fill="#ffffff"/>
<path transform="matrix(1,0,0,-1,111.091999,119.555)" d="M-1.41731-1.41731H1.41733V1.41733H-1.41731Z" fill="#0000ff"/>
<path transform="matrix(1,0,0,-1,139.439,119.555)" d="M-1.41731-1.41731H1.41733V1.41733H-1.41731Z" fill="#0000ff"/>
</svg>
