<svg xmlns="http://www.w3.org/2000/svg" xmlns:xlink="http://www.w3.org/1999/xlink" xmlns:inkscape="http://www.inkscape.org/namespaces/inkscape" version="1.1" width="264.623" height="98.796" viewBox="0 0 264.623 98.796">
<path transform="matrix(1,0,0,-1,154.989,6.169998)" stroke-width=".3985" stroke-linecap="butt" stroke-miterlimit="10" stroke-linejoin="miter" fill="none" stroke="#000000" d=""/>
<path transform="matrix(1,0,0,-1,154.989,6.169998)" stroke-width=".3985" stroke-linecap="butt" stroke-miterlimit="10" stroke-linejoin="miter" fill="none" stroke="#0000ff" d="M-143.83463-72.23271-152.42668-89.41682"/>
<path transform="matrix(1,0,0,-1,154.989,6.169998)" stroke-width=".3985" stroke-linecap="butt" stroke-miterlimit="10" stroke-linejoin="miter" fill="none" stroke="#000000" d=""/>
<path transform="matrix(1,0,0,-1,154.989,6.169998)" stroke-width=".3985" stroke-linecap="butt" stroke-miterlimit="10" stroke-linejoin="miter" fill="none" stroke="#0000ff" d="M-139.63449-72.23271-131.04244-89.41682"/>
<path transform="matrix(1,0,0,-1,154.989,6.169998)" stroke-width=".3985" stroke-linecap="butt" stroke-miterlimit="10" stroke-linejoin="miter" fill="none" stroke="#000000" d=""/>
<path transform="matrix(1,0,0,-1,154.989,6.169998)" stroke-width=".3985" stroke-linecap="butt" stroke-miterlimit="10" stroke-linejoin="miter" fill="none" stroke="#0000ff" d="M-98.47955-72.23271-107.07162-89.41682"/>
<path transform="matrix(1,0,0,-1,154.989,6.169998)" stroke-width=".3985" stroke-linecap="butt" stroke-miterlimit="10" stroke-linejoin="miter" fill="none" stroke="#000000" d=""/>
<path transform="matrix(1,0,0,-1,154.989,6.169998)" stroke-width=".3985" stroke-linecap="butt" stroke-miterlimit="10" stroke-linejoin="miter" fill="none" stroke="#0000ff" d="M-94.27942-72.23271-85.68738-89.41682"/>
<path transform="matrix(1,0,0,-1,154.989,6.169998)" stroke-width=".3985" stroke-linecap="butt" stroke-miterlimit="10" stroke-linejoin="miter" fill="none" stroke="#000000" d=""/>
<path transform="matrix(1,0,0,-1,154.989,6.169998)" stroke-width=".3985" stroke-linecap="butt" stroke-miterlimit="10" stroke-linejoin="miter" fill="none" stroke="#0000ff" d="M-122.37685-48.67485-138.41475-64.71277"/>
<path transform="matrix(1,0,0,-1,154.989,6.169998)" stroke-width=".3985" stroke-linecap="butt" stroke-miterlimit="10" stroke-linejoin="miter" fill="none" stroke="#000000" d=""/>
<path transform="matrix(1,0,0,-1,154.989,6.169998)" stroke-width=".3985" stroke-linecap="butt" stroke-miterlimit="10" stroke-linejoin="miter" fill="none" stroke="#0000ff" d="M-115.73721-48.67485-99.69931-64.71277"/>
<path transform="matrix(1,0,0,-1,154.989,6.169998)" stroke-width=".3985" stroke-linecap="butt" stroke-miterlimit="10" stroke-linejoin="miter" fill="none" stroke="#000000" d=""/>
<path transform="matrix(1,0,0,-1,154.989,6.169998)" stroke-width=".3985" stroke-linecap="butt" stroke-miterlimit="10" stroke-linejoin="miter" fill="none" stroke="#0000ff" d="M-53.1245-72.23271-61.71655-89.41682"/>
<path transform="matrix(1,0,0,-1,154.989,6.169998)" stroke-width=".3985" stroke-linecap="butt" stroke-miterlimit="10" stroke-linejoin="miter" fill="none" stroke="#000000" d=""/>
<path transform="matrix(1,0,0,-1,154.989,6.169998)" stroke-width=".3985" stroke-linecap="butt" stroke-miterlimit="10" stroke-linejoin="miter" fill="none" stroke="#0000ff" d="M-48.92436-72.23271-40.3323-89.41682"/>
<path transform="matrix(1,0,0,-1,154.989,6.169998)" stroke-width=".3985" stroke-linecap="butt" stroke-miterlimit="10" stroke-linejoin="miter" fill="none" stroke="#000000" d=""/>
<path transform="matrix(1,0,0,-1,154.989,6.169998)" stroke-width=".3985" stroke-linecap="butt" stroke-miterlimit="10" stroke-linejoin="miter" fill="none" stroke="#0000ff" d="M-7.76944-72.23271-16.3615-89.41682"/>
<path transform="matrix(1,0,0,-1,154.989,6.169998)" stroke-width=".3985" stroke-linecap="butt" stroke-miterlimit="10" stroke-linejoin="miter" fill="none" stroke="#000000" d=""/>
<path transform="matrix(1,0,0,-1,154.989,6.169998)" stroke-width=".3985" stroke-linecap="butt" stroke-miterlimit="10" stroke-linejoin="miter" fill="none" stroke="#0000ff" d="M-3.56929-72.23271 5.02272-89.41682"/>
<path transform="matrix(1,0,0,-1,154.989,6.169998)" stroke-width=".3985" stroke-linecap="butt" stroke-miterlimit="10" stroke-linejoin="miter" fill="none" stroke="#000000" d=""/>
<path transform="matrix(1,0,0,-1,154.989,6.169998)" stroke-width=".3985" stroke-linecap="butt" stroke-miterlimit="10" stroke-linejoin="miter" fill="none" stroke="#0000ff" d="M-31.66672-48.67485-47.70462-64.71277"/>
<path transform="matrix(1,0,0,-1,154.989,6.169998)" stroke-width=".3985" stroke-linecap="butt" stroke-miterlimit="10" stroke-linejoin="miter" fill="none" stroke="#000000" d=""/>
<path transform="matrix(1,0,0,-1,154.989,6.169998)" stroke-width=".3985" stroke-linecap="butt" stroke-miterlimit="10" stroke-linejoin="miter" fill="none" stroke="#0000ff" d="M-25.02708-48.67485-8.98918-64.71277"/>
<path transform="matrix(1,0,0,-1,154.989,6.169998)" stroke-width=".3985" stroke-linecap="butt" stroke-miterlimit="10" stroke-linejoin="miter" fill="none" stroke="#000000" d=""/>
<path transform="matrix(1,0,0,-1,154.989,6.169998)" stroke-width=".3985" stroke-linecap="butt" stroke-miterlimit="10" stroke-linejoin="miter" fill="none" stroke="#0000ff" d="M-77.9021-24.77759-114.8569-43.25499"/>
<path transform="matrix(1,0,0,-1,154.989,6.169998)" stroke-width=".3985" stroke-linecap="butt" stroke-miterlimit="10" stroke-linejoin="miter" fill="none" stroke="#000000" d=""/>
<path transform="matrix(1,0,0,-1,154.989,6.169998)" stroke-width=".3985" stroke-linecap="butt" stroke-miterlimit="10" stroke-linejoin="miter" fill="none" stroke="#0000ff" d="M-69.50183-24.77759-32.54703-43.25499"/>
<path transform="matrix(1,0,0,-1,154.989,6.169998)" stroke-width=".3985" stroke-linecap="butt" stroke-miterlimit="10" stroke-linejoin="miter" fill="none" stroke="#000000" d=""/>
<path transform="matrix(1,0,0,-1,154.989,6.169998)" stroke-width=".3985" stroke-linecap="butt" stroke-miterlimit="10" stroke-linejoin="miter" fill="none" stroke="#0000ff" d="M37.58559-72.23271 28.99355-89.41682"/>
<path transform="matrix(1,0,0,-1,154.989,6.169998)" stroke-width=".3985" stroke-linecap="butt" stroke-miterlimit="10" stroke-linejoin="miter" fill="none" stroke="#000000" d=""/>
<path transform="matrix(1,0,0,-1,154.989,6.169998)" stroke-width=".3985" stroke-linecap="butt" stroke-miterlimit="10" stroke-linejoin="miter" fill="none" stroke="#0000ff" d="M41.78574-72.23271 50.37779-89.41682"/>
<path transform="matrix(1,0,0,-1,154.989,6.169998)" stroke-width=".3985" stroke-linecap="butt" stroke-miterlimit="10" stroke-linejoin="miter" fill="none" stroke="#000000" d=""/>
<path transform="matrix(1,0,0,-1,154.989,6.169998)" stroke-width=".3985" stroke-linecap="butt" stroke-miterlimit="10" stroke-linejoin="miter" fill="none" stroke="#0000ff" d="M48.92436-49.55519 41.78574-63.83244"/>
<path transform="matrix(1,0,0,-1,154.989,6.169998)" stroke-width=".3985" stroke-linecap="butt" stroke-miterlimit="10" stroke-linejoin="miter" fill="none" stroke="#000000" d=""/>
<path transform="matrix(1,0,0,-1,154.989,6.169998)" stroke-width=".3985" stroke-linecap="butt" stroke-miterlimit="10" stroke-linejoin="miter" fill="none" stroke="#0000ff" d="M53.1245-49.55519 61.71655-66.7393"/>
<path transform="matrix(1,0,0,-1,154.989,6.169998)" stroke-width=".3985" stroke-linecap="butt" stroke-miterlimit="10" stroke-linejoin="miter" fill="none" stroke="#000000" d=""/>
<path transform="matrix(1,0,0,-1,154.989,6.169998)" stroke-width=".3985" stroke-linecap="butt" stroke-miterlimit="10" stroke-linejoin="miter" fill="none" stroke="#0000ff" d="M94.27942-49.55519 85.68738-66.7393"/>
<path transform="matrix(1,0,0,-1,154.989,6.169998)" stroke-width=".3985" stroke-linecap="butt" stroke-miterlimit="10" stroke-linejoin="miter" fill="none" stroke="#000000" d=""/>
<path transform="matrix(1,0,0,-1,154.989,6.169998)" stroke-width=".3985" stroke-linecap="butt" stroke-miterlimit="10" stroke-linejoin="miter" fill="none" stroke="#0000ff" d="M98.47955-49.55519 107.07162-66.7393"/>
<path transform="matrix(1,0,0,-1,154.989,6.169998)" stroke-width=".3985" stroke-linecap="butt" stroke-miterlimit="10" stroke-linejoin="miter" fill="none" stroke="#000000" d=""/>
<path transform="matrix(1,0,0,-1,154.989,6.169998)" stroke-width=".3985" stroke-linecap="butt" stroke-miterlimit="10" stroke-linejoin="miter" fill="none" stroke="#0000ff" d="M70.38214-25.99731 54.34425-42.03523"/>
<path transform="matrix(1,0,0,-1,154.989,6.169998)" stroke-width=".3985" stroke-linecap="butt" stroke-miterlimit="10" stroke-linejoin="miter" fill="none" stroke="#000000" d=""/>
<path transform="matrix(1,0,0,-1,154.989,6.169998)" stroke-width=".3985" stroke-linecap="butt" stroke-miterlimit="10" stroke-linejoin="miter" fill="none" stroke="#0000ff" d="M77.02179-25.99731 93.05968-42.03523"/>
<path transform="matrix(1,0,0,-1,154.989,6.169998)" stroke-width=".3985" stroke-linecap="butt" stroke-miterlimit="10" stroke-linejoin="miter" fill="none" stroke="#000000" d=""/>
<path transform="matrix(1,0,0,-1,154.989,6.169998)" stroke-width=".3985" stroke-linecap="butt" stroke-miterlimit="10" stroke-linejoin="miter" fill="none" stroke="#0000ff" d="M-4.48839-1.38103-69.21355-21.29648"/>
<path transform="matrix(1,0,0,-1,154.989,6.169998)" stroke-width=".3985" stroke-linecap="butt" stroke-miterlimit="10" stroke-linejoin="miter" fill="none" stroke="#000000" d=""/>
<path transform="matrix(1,0,0,-1,154.989,6.169998)" stroke-width=".3985" stroke-linecap="butt" stroke-miterlimit="10" stroke-linejoin="miter" fill="none" stroke="#0000ff" d="M4.48839-1.38103 69.21355-21.29648"/>
<path transform="matrix(1,0,0,-1,154.989,6.169998)" d="M5.66934 0C5.66934 3.13112 3.13112 5.66934 0 5.66934-3.13112 5.66934-5.66934 3.13112-5.66934 0-5.66934-3.13112-3.13112-5.66934 0-5.66934 3.13112-5.66934 5.66934-3.13112 5.66934 0ZM0 0"/>
<path transform="matrix(1,0,0,-1,81.288,28.846999)" d="M5.66934 0C5.66934 3.13112 3.13112 5.66934 0 5.66934-3.13112 5.66934-5.66934 3.13112-5.66934 0-5.66934-3.13112-3.13112-5.66934 0-5.66934 3.13112-5.66934 5.66934-3.13112 5.66934 0ZM0 0"/>
<path transform="matrix(1,0,0,-1,35.933,51.524)" d="M5.66934 0C5.66934 3.13112 3.13112 5.66934 0 5.66934-3.13112 5.66934-5.66934 3.13112-5.66934 0-5.66934-3.13112-3.13112-5.66934 0-5.66934 3.13112-5.66934 5.66934-3.13112 5.66934 0ZM0 0"/>
<path transform="matrix(1,0,0,-1,13.255997,74.201)" d="M5.66934 0C5.66934 3.13112 3.13112 5.66934 0 5.66934-3.13112 5.66934-5.66934 3.13112-5.66934 0-5.66934-3.13112-3.13112-5.66934 0-5.66934 3.13112-5.66934 5.66934-3.13112 5.66934 0ZM0 0"/>
<path transform="matrix(1,0,0,-1,1.9169922,96.879)" d="M-1.41731-1.41731H1.41733V1.41733H-1.41731Z" fill="#0000ff"/>
<path transform="matrix(1,0,0,-1,24.595002,96.879)" d="M-1.41731-1.41731H1.41733V1.41733H-1.41731Z" fill="#0000ff"/>
<path transform="matrix(1,0,0,-1,58.61,74.201)" d="M5.66934 0C5.66934 3.13112 3.13112 5.66934 0 5.66934-3.13112 5.66934-5.66934 3.13112-5.66934 0-5.66934-3.13112-3.13112-5.66934 0-5.66934 3.13112-5.66934 5.66934-3.13112 5.66934 0ZM0 0"/>
<path transform="matrix(1,0,0,-1,47.271997,96.879)" d="M-1.41731-1.41731H1.41733V1.41733H-1.41731Z" fill="#0000ff"/>
<path transform="matrix(1,0,0,-1,69.949,96.879)" d="M-1.41731-1.41731H1.41733V1.41733H-1.41731Z" fill="#0000ff"/>
<path transform="matrix(1,0,0,-1,126.642,51.524)" d="M5.66934 0C5.66934 3.13112 3.13112 5.66934 0 5.66934-3.13112 5.66934-5.66934 3.13112-5.66934 0-5.66934-3.13112-3.13112-5.66934 0-5.66934 3.13112-5.66934 5.66934-3.13112 5.66934 0ZM0 0"/>
<path transform="matrix(1,0,0,-1,103.965,74.201)" d="M5.66934 0C5.66934 3.13112 3.13112 5.66934 0 5.66934-3.13112 5.66934-5.66934 3.13112-5.66934 0-5.66934-3.13112-3.13112-5.66934 0-5.66934 3.13112-5.66934 5.66934-3.13112 5.66934 0ZM0 0"/>
<path transform="matrix(1,0,0,-1,92.626,96.879)" d="M-1.41731-1.41731H1.41733V1.41733H-1.41731Z" fill="#0000ff"/>
<path transform="matrix(1,0,0,-1,115.304,96.879)" d="M-1.41731-1.41731H1.41733V1.41733H-1.41731Z" fill="#0000ff"/>
<path transform="matrix(1,0,0,-1,149.319,74.201)" d="M5.66934 0C5.66934 3.13112 3.13112 5.66934 0 5.66934-3.13112 5.66934-5.66934 3.13112-5.66934 0-5.66934-3.13112-3.13112-5.66934 0-5.66934 3.13112-5.66934 5.66934-3.13112 5.66934 0ZM0 0"/>
<path transform="matrix(1,0,0,-1,137.981,96.879)" d="M-1.41731-1.41731H1.41733V1.41733H-1.41731Z" fill="#0000ff"/>
<path transform="matrix(1,0,0,-1,160.658,96.879)" d="M-1.41731-1.41731H1.41733V1.41733H-1.41731Z" fill="#0000ff"/>
<path transform="matrix(1,0,0,-1,228.69,28.846999)" d="M5.66934 0C5.66934 3.13112 3.13112 5.66934 0 5.66934-3.13112 5.66934-5.66934 3.13112-5.66934 0-5.66934-3.13112-3.13112-5.66934 0-5.66934 3.13112-5.66934 5.66934-3.13112 5.66934 0ZM0 0"/>
<path transform="matrix(1,0,0,-1,206.012,51.524)" d="M5.66934 0C5.66934 3.13112 3.13112 5.66934 0 5.66934-3.13112 5.66934-5.66934 3.13112-5.66934 0-5.66934-3.13112-3.13112-5.66934 0-5.66934 3.13112-5.66934 5.66934-3.13112 5.66934 0ZM0 0"/>
<path transform="matrix(1,0,0,-1,194.674,74.201)" d="M5.66934 0C5.66934 3.13112 3.13112 5.66934 0 5.66934-3.13112 5.66934-5.66934 3.13112-5.66934 0-5.66934-3.13112-3.13112-5.66934 0-5.66934 3.13112-5.66934 5.66934-3.13112 5.66934 0ZM0 0"/>
<path transform="matrix(1,0,0,-1,183.33499,96.879)" d="M-1.41731-1.41731H1.41733V1.41733H-1.41731Z" fill="#0000ff"/>
<path transform="matrix(1,0,0,-1,206.012,96.879)" d="M-1.41731-1.41731H1.41733V1.41733H-1.41731Z" fill="#0000ff"/>
<path transform="matrix(1,0,0,-1,217.351,74.201)" d="M-1.41731-1.41731H1.41733V1.41733H-1.41731Z" fill="#0000ff"/>
<path transform="matrix(1,0,0,-1,251.367,51.524)" d="M5.66934 0C5.66934 3.13112 3.13112 5.66934 0 5.66934-3.13112 5.66934-5.66934 3.13112-5.66934 0-5.66934-3.13112-3.13112-5.66934 0-5.66934 3.13112-5.66934 5.66934-3.13112 5.66934 0ZM0 0"/>
<path transform="matrix(1,0,0,-1,240.028,74.201)" d="M-1.41731-1.41731H1.41733V1.41733H-1.41731Z" fill="#0000ff"/>
<path transform="matrix(1,0,0,-1,262.706,74.201)" d="M-1.41731-1.41731H1.41733V1.41733H-1.41731Z" fill="#0000ff"/>
</svg>
