<svg xmlns="http://www.w3.org/2000/svg" xmlns:xlink="http://www.w3.org/1999/xlink" xmlns:inkscape="http://www.inkscape.org/namespaces/inkscape" version="1.1" width="97.378" height="121.472" viewBox="0 0 97.378 121.472">
<defs>
<path id="font_1_27" d="M.6569977 0 .3889923 .69433596H.29699708L.0289917 0H.10798645L.18399048 .19921875H.48098756L.55799868 0H.6569977M.45700074 .25820924H.20799256L.33198548 .62031558 .45700074 .25820924Z"/>
<path id="font_1_49" d="M.57299807 0V.07598877H.47299195L.19099427 .07398987V.32714845H.5299988V.39213563H.19099427V.62309268H.22898865L.47299195 .62109377H.5589905V.6910858H.09498596V0H.57299807Z"/>
<path id="font_1_54" d="M.54499819 .62109377V.6910858H.09498596V0H.19099427V.31292726H.5019989V.3779297H.19099427V.62309268H.22499085L.46199037 .62109377H.54499819Z"/>
<path id="font_1_58" d="M.61499026 .038253786V.30033876H.397995V.23535156H.5309906V.07725525C.48799134 .06425476 .44299317 .057250978 .397995 .057250978 .33299256 .057250978 .272995 .09126282 .23098755 .14228821 .18399048 .20033264 .1619873 .27334596 .1619873 .3473053 .1619873 .4222412 .18399048 .49517823 .23098755 .5521393 .272995 .60310366 .33299256 .6370697 .397995 .6370697 .43299867 .6370697 .46798707 .6330719 .5 .6220856 .5339966 .61009219 .5629883 .5911102 .59098818 .5681305L.60598757 .6560669C.57398989 .67207339 .5399933 .6860657 .5049896 .69407656 .46998597 .70207217 .43399049 .7050781 .397995 .7050781 .30899049 .7050781 .22399903 .66607668 .16299439 .60009768 .099990848 .53215029 .06599426 .44122315 .06599426 .3473053 .06599426 .25434876 .099990848 .16329956 .16299439 .0942688 .22399903 .028244019 .30899049-.0107421879 .397995-.0107421879 .47299195-.0107421879 .5469971 .0062561037 .61499026 .038253786Z"/>
<path id="font_1_62" d="M.6309967 0V.69433596H.5349884V.39311219H.19099427V.69433596H.09498596V0H.19099427V.328125H.5349884V0H.6309967Z"/>
<path id="font_1_42" d="M.6029968 .04525757 .5970001 .11923218C.5669861 .099243167 .5369873 .08024597 .5029907 .069244388 .46899415 .059249879 .43399049 .057250978 .397995 .057250978 .33299256 .057250978 .272995 .0912323 .23098755 .14222718 .18399048 .20021057 .1619873 .2731781 .1619873 .3471527 .1619873 .4221344 .18399048 .4951172 .23098755 .5520935 .272995 .6030731 .33299256 .6370697 .397995 .6370697 .42999269 .6370697 .46099855 .6340637 .4909973 .6250763 .5219879 .6160736 .5499878 .6000824 .57598879 .5820923L.59199526 .67007449C.5609894 .6820679 .5289917 .69207766 .49598695 .69706729 .46398927 .70306399 .43099977 .7050781 .397995 .7050781 .30899049 .7050781 .22399903 .66607668 .16299439 .6000824 .099990848 .5321045 .06599426 .4411316 .06599426 .3471527 .06599426 .25419618 .099990848 .16322327 .16299439 .09423828 .22399903 .028244019 .30899049-.0107421879 .397995-.0107421879 .43399049-.0107421879 .46998597-.008743286 .5049896 .00024414063 .5399933 .009246826 .57199099 .027252198 .6029968 .04525757Z"/>
<path id="font_1_46" d="M.68499758 .341156C.68499758 .5372772 .5439911 .69433596 .36999513 .69433596H.09700012V0H.36999513C.5439911 0 .68499758 .15205384 .68499758 .341156M.59199526 .341156C.59199526 .1660614 .48098756 .05899048 .34498597 .05899048H.18998719V.6353302H.34399415C.48199464 .6353302 .59199526 .5222626 .59199526 .341156Z"/>
<path id="font_1_65" d="M.19099427 0V.69433596H.09498596V0H.19099427Z"/>
<path id="font_1_67" d="M.39898683 .14866638V.69433596H.30599977V.15167237C.30599977 .13464356 .30599977 .042526246 .18699646 .042526246 .13398743 .042526246 .085998538 .06855774 .056991579 .099594119L.042999269 .01953125C.114990238-.016464234 .17999268-.022460938 .21899414-.022460938 .32199098-.022460938 .39898683 .03253174 .39898683 .14866638Z"/>
</defs>
<path transform="matrix(1,0,0,-1,48.689,1.9169998)" stroke-width=".3985" stroke-linecap="butt" stroke-miterlimit="10" stroke-linejoin="miter" fill="none" stroke="#000000" d=""/>
<path transform="matrix(1,0,0,-1,48.689,1.9169998)" stroke-width=".3985" stroke-linecap="butt" stroke-miterlimit="10" stroke-linejoin="miter" fill="none" stroke="#0000ff" d="M0-3.6091V-22.47818"/>
<path transform="matrix(0,-1,-1,-0,48.689,5.5261)" d="M1.99252 0-1.19551 1.59401 0 0-1.19551-1.59401" fill="#0000ff"/>
<path transform="matrix(1,0,0,-1,48.689,1.9169998)" stroke-width=".3985" stroke-linecap="butt" stroke-miterlimit="10" stroke-linejoin="miter" fill="none" stroke="#000000" d=""/>
<path transform="matrix(1,0,0,-1,48.689,1.9169998)" stroke-width=".3985" stroke-linecap="butt" stroke-miterlimit="10" stroke-linejoin="miter" fill="none" stroke="#0000ff" d="M-5.55867-33.90547-24.19704-52.54385"/>
<path transform="matrix(.7071,-.7071,-.7071,-.7071,43.13033,35.82247)" d="M1.99252 0-1.19551 1.59401 0 0-1.19551-1.59401" fill="#0000ff"/>
<path transform="matrix(1,0,0,-1,48.689,1.9169998)" stroke-width=".3985" stroke-linecap="butt" stroke-miterlimit="10" stroke-linejoin="miter" fill="none" stroke="#000000" d=""/>
<path transform="matrix(1,0,0,-1,48.689,1.9169998)" stroke-width=".3985" stroke-linecap="butt" stroke-miterlimit="10" stroke-linejoin="miter" fill="none" stroke="#0000ff" d="M5.55867-33.90547 24.19704-52.54385"/>
<path transform="matrix(-.7071,-.7071,-.7071,.7071,54.24767,35.82247)" d="M1.99252 0-1.19551 1.59401 0 0-1.19551-1.59401" fill="#0000ff"/>
<path transform="matrix(1,0,0,-1,48.689,1.9169998)" stroke-width=".3985" stroke-linecap="butt" stroke-miterlimit="10" stroke-linejoin="miter" fill="none" stroke="#000000" d=""/>
<path transform="matrix(1,0,0,-1,48.689,1.9169998)" stroke-width=".3985" stroke-linecap="butt" stroke-miterlimit="10" stroke-linejoin="miter" fill="none" stroke="#0000ff" d="M-31.86287-63.72578-39.89513-79.79027"/>
<path transform="matrix(.44717,-.89436,-.89436,-.44717,16.82613,65.64278)" d="M1.99252 0-1.19551 1.59401 0 0-1.19551-1.59401" fill="#0000ff"/>
<path transform="matrix(1,0,0,-1,48.689,1.9169998)" stroke-width=".3985" stroke-linecap="butt" stroke-miterlimit="10" stroke-linejoin="miter" fill="none" stroke="#000000" d=""/>
<path transform="matrix(1,0,0,-1,48.689,1.9169998)" stroke-width=".3985" stroke-linecap="butt" stroke-miterlimit="10" stroke-linejoin="miter" fill="none" stroke="#0000ff" d="M-24.83072-63.72578-16.79846-79.79027"/>
<path transform="matrix(-.44717,-.89436,-.89436,.44717,23.858279,65.64278)" d="M1.99252 0-1.19551 1.59401 0 0-1.19551-1.59401" fill="#0000ff"/>
<path transform="matrix(1,0,0,-1,48.689,1.9169998)" stroke-width=".3985" stroke-linecap="butt" stroke-miterlimit="10" stroke-linejoin="miter" fill="none" stroke="#000000" d=""/>
<path transform="matrix(1,0,0,-1,48.689,1.9169998)" stroke-width=".3985" stroke-linecap="butt" stroke-miterlimit="10" stroke-linejoin="miter" fill="none" stroke="#0000ff" d="M24.83072-63.72578 16.79846-79.79027"/>
<path transform="matrix(.44717,-.89436,-.89436,-.44717,73.51972,65.64278)" d="M1.99252 0-1.19551 1.59401 0 0-1.19551-1.59401" fill="#0000ff"/>
<path transform="matrix(1,0,0,-1,48.689,1.9169998)" stroke-width=".3985" stroke-linecap="butt" stroke-miterlimit="10" stroke-linejoin="miter" fill="none" stroke="#000000" d=""/>
<path transform="matrix(1,0,0,-1,48.689,1.9169998)" stroke-width=".3985" stroke-linecap="butt" stroke-miterlimit="10" stroke-linejoin="miter" fill="none" stroke="#0000ff" d="M31.86287-63.72578 39.89513-79.79027"/>
<path transform="matrix(-.44717,-.89436,-.89436,.44717,80.551868,65.64278)" d="M1.99252 0-1.19551 1.59401 0 0-1.19551-1.59401" fill="#0000ff"/>
<path transform="matrix(1,0,0,-1,48.689,1.9169998)" stroke-width=".3985" stroke-linecap="butt" stroke-miterlimit="10" stroke-linejoin="miter" fill="none" stroke="#000000" d=""/>
<path transform="matrix(1,0,0,-1,48.689,1.9169998)" stroke-width=".3985" stroke-linecap="butt" stroke-miterlimit="10" stroke-linejoin="miter" fill="none" stroke="#0000ff" d="M-17.68947-92.0726-25.72173-108.13705"/>
<path transform="matrix(.44717,-.89436,-.89436,-.44717,30.999529,93.9896)" d="M1.99252 0-1.19551 1.59401 0 0-1.19551-1.59401" fill="#0000ff"/>
<path transform="matrix(1,0,0,-1,48.689,1.9169998)" stroke-width=".3985" stroke-linecap="butt" stroke-miterlimit="10" stroke-linejoin="miter" fill="none" stroke="#000000" d=""/>
<path transform="matrix(1,0,0,-1,48.689,1.9169998)" stroke-width=".3985" stroke-linecap="butt" stroke-miterlimit="10" stroke-linejoin="miter" fill="none" stroke="#0000ff" d="M-10.65732-92.0726-2.62508-108.13705"/>
<path transform="matrix(-.44717,-.89436,-.89436,.44717,38.031679,93.9896)" d="M1.99252 0-1.19551 1.59401 0 0-1.19551-1.59401" fill="#0000ff"/>
<path transform="matrix(1,0,0,-1,48.689,1.9169998)" d="M-1.41731-1.41731H1.41733V1.41733H-1.41731Z" fill="#0000ff"/>
<path transform="matrix(1,0,0,-1,48.689,30.263)" d="M5.66934 0C5.66934 3.13112 3.13112 5.66934 0 5.66934-3.13112 5.66934-5.66934 3.13112-5.66934 0-5.66934-3.13112-3.13112-5.66934 0-5.66934 3.13112-5.66934 5.66934-3.13112 5.66934 0ZM0 0"/>
<use data-text="A" xlink:href="#font_1_27" transform="matrix(8.96638,0,0,-8.96638,45.609,33.375)" fill="#ffffff"/>
<path transform="matrix(1,0,0,-1,20.342,58.61)" d="M5.66934 0C5.66934 3.13112 3.13112 5.66934 0 5.66934-3.13112 5.66934-5.66934 3.13112-5.66934 0-5.66934-3.13112-3.13112-5.66934 0-5.66934 3.13112-5.66934 5.66934-3.13112 5.66934 0ZM0 0"/>
<use data-text="E" xlink:href="#font_1_49" transform="matrix(8.96638,0,0,-8.96638,17.575999,61.708)" fill="#ffffff"/>
<path transform="matrix(1,0,0,-1,77.035,58.61)" d="M5.66934 0C5.66934 3.13112 3.13112 5.66934 0 5.66934-3.13112 5.66934-5.66934 3.13112-5.66934 0-5.66934-3.13112-3.13112-5.66934 0-5.66934 3.13112-5.66934 5.66934-3.13112 5.66934 0ZM0 0"/>
<use data-text="F" xlink:href="#font_1_54" transform="matrix(8.96638,0,0,-8.96638,74.395008,61.708)" fill="#ffffff"/>
<path transform="matrix(1,0,0,-1,6.1689989,86.956)" d="M5.66934 0C5.66934 3.13112 3.13112 5.66934 0 5.66934-3.13112 5.66934-5.66934 3.13112-5.66934 0-5.66934-3.13112-3.13112-5.66934 0-5.66934 3.13112-5.66934 5.66934-3.13112 5.66934 0ZM0 0"/>
<use data-text="G" xlink:href="#font_1_58" transform="matrix(8.96638,0,0,-8.96638,3.0979987,90.068)" fill="#ffffff"/>
<path transform="matrix(1,0,0,-1,34.516,86.956)" d="M5.66934 0C5.66934 3.13112 3.13112 5.66934 0 5.66934-3.13112 5.66934-5.66934 3.13112-5.66934 0-5.66934-3.13112-3.13112-5.66934 0-5.66934 3.13112-5.66934 5.66934-3.13112 5.66934 0ZM0 0"/>
<use data-text="H" xlink:href="#font_1_62" transform="matrix(8.96638,0,0,-8.96638,31.255999,90.068)" fill="#ffffff"/>
<path transform="matrix(1,0,0,-1,62.862,86.956)" d="M5.66934 0C5.66934 3.13112 3.13112 5.66934 0 5.66934-3.13112 5.66934-5.66934 3.13112-5.66934 0-5.66934-3.13112-3.13112-5.66934 0-5.66934 3.13112-5.66934 5.66934-3.13112 5.66934 0ZM0 0"/>
<use data-text="C" xlink:href="#font_1_42" transform="matrix(8.96638,0,0,-8.96638,59.917,90.068)" fill="#ffffff"/>
<path transform="matrix(1,0,0,-1,91.209,86.956)" d="M5.66934 0C5.66934 3.13112 3.13112 5.66934 0 5.66934-3.13112 5.66934-5.66934 3.13112-5.66934 0-5.66934-3.13112-3.13112-5.66934 0-5.66934 3.13112-5.66934 5.66934-3.13112 5.66934 0ZM0 0"/>
<use data-text="D" xlink:href="#font_1_46" transform="matrix(8.96638,0,0,-8.96638,87.878,90.068)" fill="#ffffff"/>
<path transform="matrix(1,0,0,-1,20.342,115.303)" d="M5.66934 0C5.66934 3.13112 3.13112 5.66934 0 5.66934-3.13112 5.66934-5.66934 3.13112-5.66934 0-5.66934-3.13112-3.13112-5.66934 0-5.66934 3.13112-5.66934 5.66934-3.13112 5.66934 0ZM0 0"/>
<use data-text="I" xlink:href="#font_1_65" transform="matrix(8.96638,0,0,-8.96638,19.056,118.414)" fill="#ffffff"/>
<path transform="matrix(1,0,0,-1,48.689,115.303)" d="M5.66934 0C5.66934 3.13112 3.13112 5.66934 0 5.66934-3.13112 5.66934-5.66934 3.13112-5.66934 0-5.66934-3.13112-3.13112-5.66934 0-5.66934 3.13112-5.66934 5.66934-3.13112 5.66934 0ZM0 0"/>
<use data-text="J" xlink:href="#font_1_67" transform="matrix(8.96638,0,0,-8.96638,46.51,118.315)" fill="#ffffff"/>
</svg>
