<svg xmlns="http://www.w3.org/2000/svg" xmlns:xlink="http://www.w3.org/1999/xlink" xmlns:inkscape="http://www.inkscape.org/namespaces/inkscape" version="1.1" width="239.11" height="97.378" viewBox="0 0 239.11 97.378">
<defs>
<path id="font_1_106" d="M.46998597 .18063355C.46998597 .25968934 .4119873 .32572938 .32998658 .35273744 .3999939 .3887329 .44198609 .4537506 .44198609 .52275088 .44198609 .60876467 .35699464 .67578127 .2539978 .67578127 .16999817 .67578127 .09899902 .6327667 .056991579 .5697632L.09599304 .51275637C.13999939 .5997772 .21598816 .61376956 .25299073 .61376956 .3039856 .61376956 .35398866 .58576968 .35398866 .52275088 .35398866 .4857483 .33299256 .3997345 .22499085 .38974 .20599365 .3877411 .18998719 .386734 .17098999 .3857422V.32073976H.24598694C.34298707 .32073976 .37399293 .24168396 .37399293 .18164063 .37399293 .10256958 .32699586 .042526246 .25099183 .042526246 .16899109 .042526246 .09298706 .08757019 .054992677 .14160156 .04699707 .10157776 .04699707 .09957886 .042999269 .077560428 .09199524 .01852417 .16799927-.022460938 .25299073-.022460938 .3789978-.022460938 .46998597 .07556152 .46998597 .18063355Z"/>
<path id="font_1_121" d="M.47200013 .324646C.47200013 .419693 .46499635 .50772097 .41799928 .5867615 .3849945 .6417694 .32299806 .67578127 .25698854 .67578127 .20698548 .67578127 .13598633 .6567688 .09098816 .5787506 .04399109 .49972535 .040985109 .39367677 .040985109 .324646 .040985109 .2746277 .040985109 .1605835 .085998538 .07954407 .13598633-.008468628 .21199036-.022460938 .2559967-.022460938 .31399537-.022460938 .38598634 .0015258789 .42900086 .08454895 .46699525 .15757752 .47200013 .24461365 .47200013 .324646M.3889923 .33665467C.3889923 .26863099 .3889923 .19960022 .3659973 .13456726 .34298707 .0655365 .29599 .042526246 .25698854 .042526246 .12399292 .042526246 .12399292 .24261475 .12399292 .33665467 .12399292 .39968873 .12399292 .45069886 .13899231 .5027313 .1579895 .5717468 .19898987 .6107788 .2559967 .6107788 .3889923 .6107788 .3889923 .4296875 .3889923 .33665467Z"/>
<path id="font_1_100" d="M.46998597 .58529666V.6542969H.042999269V.57928469H.23899842C.25099183 .57928469 .2630005 .58029177 .2749939 .58029177H.397995C.24198914 .41627503 .15499878 .215271 .15499878-.0107421879H.24499512C.24499512 .24726868 .35499574 .45828248 .46998597 .58529666Z"/>
<path id="font_1_82" d="M.43699647 0V.06199646H.30899049V.67578127H.28799439C.22099304 .6108246 .125 .6108246 .08999634 .6108246V.5488281C.117996219 .5488281 .16899109 .5488281 .22399903 .5718231V.06199646H.09599304V0H.43699647Z"/>
<path id="font_1_56" d="M.46199037 .20275879C.46199037 .32676698 .37298585 .42578126 .2669983 .42578126 .2539978 .42578126 .20498657 .42578126 .1579895 .3857727V.58628848H.4269867V.6542969H.08099365V.2817688H.15299988C.18499756 .35577394 .24598694 .3607788 .2649994 .3607788 .30599977 .3607788 .3659973 .32977296 .3659973 .20375061 .3659973 .08163452 .2939911 .042526246 .23399353 .042526246 .18199158 .042526246 .11399841 .067596439 .07499695 .13476563L.038986207 .0756073C.054992677 .05355835 .12199402-.022460938 .23498535-.022460938 .3600006-.022460938 .46199037 .07762146 .46199037 .20275879Z"/>
<path id="font_1_101" d="M.46998597 .22270203C.46998597 .27876283 .46199037 .32881166 .42799378 .3828125 .3880005 .44587709 .35299684 .46289063 .30599977 .46289063 .2679901 .46289063 .19400025 .45188905 .13198853 .38079835 .14299011 .5148468 .21099854 .61376956 .31799317 .61376956 .33799745 .61376956 .375 .6127777 .42599488 .5927887V.655777C.37799073 .6737671 .33898927 .67578127 .31698609 .67578127 .17298889 .67578127 .042999269 .53582766 .042999269 .32080079 .042999269 .046539308 .1639862-.022460938 .2579956-.022460938 .31900025-.022460938 .36299134-.00047302247 .40299989 .044540407 .45098878 .097579959 .46998597 .14363098 .46998597 .22270203M.3829956 .22270203C.3829956 .18367005 .3829956 .1426239 .35699464 .099594119 .33799745 .06956482 .30999757 .042526246 .2579956 .042526246 .15098572 .042526246 .13598633 .18566895 .1329956 .21870423 .1329956 .23271179 .1329956 .23472595 .13398743 .24572754 .13398743 .32180787 .18199158 .39788819 .2630005 .39788819 .30099488 .39788819 .33499146 .38380433 .36099244 .33680726 .3809967 .30078126 .3829956 .26875306 .3829956 .22270203Z"/>
<path id="font_1_51" d="M.46998597 .18099976C.46998597 .24398804 .43199159 .31698609 .32998658 .35398866 .3929901 .37199403 .45599366 .42599488 .45599366 .5009918 .45599366 .59277346 .36999513 .67578127 .25698854 .67578127 .13999939 .67578127 .056991579 .59077456 .056991579 .5007782 .056991579 .425766 .11999512 .3717804 .18299866 .35377503 .07699585 .31576539 .042999269 .23977661 .042999269 .18077088 .042999269 .07055664 .13798523-.022460938 .2559967-.022460938 .37799073-.022460938 .46998597 .07255554 .46998597 .18063355V.18099976M.38198854 .49975587C.38198854 .43774415 .33898927 .3857422 .2559967 .3857422 .17799378 .3857422 .1309967 .43374635 .1309967 .49975587 .1309967 .5667572 .1789856 .61376956 .2559967 .61376956 .33799745 .61376956 .38198854 .5637665 .38198854 .49975587M.38398744 .18063355C.38398744 .087524417 .32299806 .042526246 .25698854 .042526246 .18598938 .042526246 .1289978 .090530399 .1289978 .18052674 .1289978 .287735 .20498657 .32073976 .2559967 .32073976 .31298829 .32073976 .38398744 .28373719 .38398744 .18074036V.18063355Z"/>
<path id="font_1_107" d="M.46199037 0V.07499695H.27398683C.2619934 .07499695 .25 .07398987 .23799134 .07398987H.12799073L.2919922 .22293091C.39698792 .30889894 .46199037 .36286927 .46199037 .45983888 .46199037 .5747833 .3789978 .67578127 .24299622 .67578127 .13699341 .67578127 .07398987 .6147766 .042999269 .5158081L.08898926 .45783998C.114990238 .5747833 .16699219 .6077728 .22898865 .6077728 .31799317 .6077728 .37399293 .5397949 .37399293 .45783998 .37399293 .36686708 .30999757 .30889894 .23599243 .24291992L.050994874 .067993167V0H.46199037Z"/>
<path id="font_1_57" d="M.48399354 .16699219V.23197937H.38398744V.6542969H.2869873L.0289917 .23197937V.16699219H.2999878V0H.38398744V.16699219H.48399354M.30599977 .23197937H.11199951L.17298889 .33206178C.20298767 .38308717 .30499269 .55722048 .30599977 .6082611V.23197937Z"/>
<path id="font_1_78" d="M.46998597 .3334961C.46998597 .6057739 .35299684 .67578127 .2599945 .67578127 .20298767 .67578127 .1539917 .6567688 .10899353 .6077728 .05999756 .5527191 .042999269 .5066681 .042999269 .43159486 .042999269 .36253358 .055999757 .31448365 .08999634 .26342774 .125 .20942688 .15899658 .19042969 .20698548 .19042969 .29299928 .19042969 .35398866 .24041748 .3809967 .2734375 .36499024 .09449768 .2769928 .042526246 .21099854 .042526246 .18299866 .042526246 .14498902 .04852295 .10699463 .08050537L.07398987 .024536133C.11898804-.011474609 .1639862-.022460938 .21099854-.022460938 .34498597-.022460938 .46998597 .11647034 .46998597 .3334961M.3789978 .40957643C.3789978 .3274994 .32798768 .25541688 .25 .25541688 .19599915 .25541688 .17199707 .28445436 .1559906 .30947877 .1309967 .34951783 .12998963 .38955689 .12998963 .43159486 .12998963 .4746399 .1309967 .51768496 .16299439 .5617218 .1749878 .57873538 .20098877 .61376956 .2599945 .61376956 .3639984 .61376956 .3769989 .46862794 .37799073 .43260194 .3789978 .42658998 .3789978 .4165802 .3789978 .40957643Z"/>
</defs>
<path transform="matrix(1,0,0,-1,105.382,6.1689989)" stroke-width=".3985" stroke-linecap="butt" stroke-miterlimit="10" stroke-linejoin="miter" fill="none" stroke="#000000" d=""/>
<path transform="matrix(1,0,0,-1,105.382,6.1689989)" stroke-width=".3985" stroke-linecap="butt" stroke-miterlimit="10" stroke-linejoin="miter" fill="none" stroke="#ffffff" d="M-5.25015-2.62508-49.66139-24.83066"/>
<path transform="matrix(-.89438,.4472,.4472,.89438,55.720617,30.999659)" d="M1.99252 0-1.19551 1.59401 0 0-1.19551-1.59401" fill="#ffffff"/>
<path transform="matrix(1,0,0,-1,105.382,6.1689989)" stroke-width=".3985" stroke-linecap="butt" stroke-miterlimit="10" stroke-linejoin="miter" fill="none" stroke="#000000" d=""/>
<path transform="matrix(1,0,0,-1,105.382,6.1689989)" stroke-width=".3985" stroke-linecap="butt" stroke-miterlimit="10" stroke-linejoin="miter" fill="none" stroke="#ffffff" d="M5.25015-2.62508 49.66139-24.83066"/>
<path transform="matrix(.89438,.4472,.4472,-.89438,155.0434,30.999659)" d="M1.99252 0-1.19551 1.59401 0 0-1.19551-1.59401" fill="#ffffff"/>
<path transform="matrix(1,0,0,-1,105.382,6.1689989)" stroke-width=".3985" stroke-linecap="butt" stroke-miterlimit="10" stroke-linejoin="miter" fill="none" stroke="#000000" d=""/>
<path transform="matrix(1,0,0,-1,105.382,6.1689989)" stroke-width=".3985" stroke-linecap="butt" stroke-miterlimit="10" stroke-linejoin="miter" fill="none" stroke="#0000ff" d="M-50.825-28.3468H48.83247"/>
<path transform="matrix(1,0,0,-1,154.21448,34.5158)" d="M1.99252 0-1.19551 1.59401 0 0-1.19551-1.59401" fill="#0000ff"/>
<path transform="matrix(1,0,0,-1,105.382,6.1689989)" stroke-width=".3985" stroke-linecap="butt" stroke-miterlimit="10" stroke-linejoin="miter" fill="none" stroke="#000000" d=""/>
<path transform="matrix(1,0,0,-1,105.382,6.1689989)" stroke-width=".3985" stroke-linecap="butt" stroke-miterlimit="10" stroke-linejoin="miter" fill="none" stroke="#0000ff" d="M-59.31868-33.59694-67.35092-49.66142"/>
<path transform="matrix(-.44717,.89436,.89436,.44717,38.031084,55.830419)" d="M1.99252 0-1.19551 1.59401 0 0-1.19551-1.59401" fill="#0000ff"/>
<path transform="matrix(1,0,0,-1,105.382,6.1689989)" stroke-width=".3985" stroke-linecap="butt" stroke-miterlimit="10" stroke-linejoin="miter" fill="none" stroke="#000000" d=""/>
<path transform="matrix(1,0,0,-1,105.382,6.1689989)" stroke-width=".3985" stroke-linecap="butt" stroke-miterlimit="10" stroke-linejoin="miter" fill="none" stroke="#ffffff" d="M-54.06853-33.59694-46.03629-49.66142"/>
<path transform="matrix(.44717,.89436,.89436,-.44717,59.345716,55.830419)" d="M1.99252 0-1.19551 1.59401 0 0-1.19551-1.59401" fill="#ffffff"/>
<path transform="matrix(1,0,0,-1,105.382,6.1689989)" stroke-width=".3985" stroke-linecap="butt" stroke-miterlimit="10" stroke-linejoin="miter" fill="none" stroke="#000000" d=""/>
<path transform="matrix(1,0,0,-1,105.382,6.1689989)" stroke-width=".3985" stroke-linecap="butt" stroke-miterlimit="10" stroke-linejoin="miter" fill="none" stroke="#0000ff" d="M51.44345-30.97188 7.03221-53.17747"/>
<path transform="matrix(-.89438,.4472,.4472,.89438,112.414218,59.34647)" d="M1.99252 0-1.19551 1.59401 0 0-1.19551-1.59401" fill="#0000ff"/>
<path transform="matrix(1,0,0,-1,105.382,6.1689989)" stroke-width=".3985" stroke-linecap="butt" stroke-miterlimit="10" stroke-linejoin="miter" fill="none" stroke="#000000" d=""/>
<path transform="matrix(1,0,0,-1,105.382,6.1689989)" stroke-width=".3985" stroke-linecap="butt" stroke-miterlimit="10" stroke-linejoin="miter" fill="none" stroke="#000000" d=""/>
<path transform="matrix(1,0,0,-1,105.382,6.1689989)" stroke-width=".3985" stroke-linecap="butt" stroke-miterlimit="10" stroke-linejoin="miter" fill="none" stroke="#0000ff" d="M61.94376-30.97188 106.355-53.17747"/>
<path transform="matrix(.89438,.4472,.4472,-.89438,211.737,59.34647)" d="M1.99252 0-1.19551 1.59401 0 0-1.19551-1.59401" fill="#0000ff"/>
<path transform="matrix(1,0,0,-1,105.382,6.1689989)" stroke-width=".3985" stroke-linecap="butt" stroke-miterlimit="10" stroke-linejoin="miter" fill="none" stroke="#000000" d=""/>
<path transform="matrix(1,0,0,-1,105.382,6.1689989)" stroke-width=".3985" stroke-linecap="butt" stroke-miterlimit="10" stroke-linejoin="miter" fill="none" stroke="#0000ff" d="M5.86859-56.69362H48.83247"/>
<path transform="matrix(1,0,0,-1,154.21448,62.862619)" d="M1.99252 0-1.19551 1.59401 0 0-1.19551-1.59401" fill="#0000ff"/>
<path transform="matrix(1,0,0,-1,105.382,6.1689989)" stroke-width=".3985" stroke-linecap="butt" stroke-miterlimit="10" stroke-linejoin="miter" fill="none" stroke="#000000" d=""/>
<path transform="matrix(1,0,0,-1,105.382,6.1689989)" stroke-width=".3985" stroke-linecap="butt" stroke-miterlimit="10" stroke-linejoin="miter" fill="none" stroke="#0000ff" d="M-75.01677-60.84335-93.65514-79.48174"/>
<path transform="matrix(-.7071,.7071,.7071,.7071,11.72686,85.65074)" d="M1.99252 0-1.19551 1.59401 0 0-1.19551-1.59401" fill="#0000ff"/>
<path transform="matrix(1,0,0,-1,105.382,6.1689989)" stroke-width=".3985" stroke-linecap="butt" stroke-miterlimit="10" stroke-linejoin="miter" fill="none" stroke="#000000" d=""/>
<path transform="matrix(1,0,0,-1,105.382,6.1689989)" stroke-width=".3985" stroke-linecap="butt" stroke-miterlimit="10" stroke-linejoin="miter" fill="none" stroke="#000000" d=""/>
<path transform="matrix(1,0,0,-1,105.382,6.1689989)" stroke-width=".3985" stroke-linecap="butt" stroke-miterlimit="10" stroke-linejoin="miter" fill="none" stroke="#0000ff" d="M-66.71725-60.84335-48.07887-79.48174"/>
<path transform="matrix(.7071,.7071,.7071,-.7071,57.303136,85.65074)" d="M1.99252 0-1.19551 1.59401 0 0-1.19551-1.59401" fill="#0000ff"/>
<path transform="matrix(1,0,0,-1,105.382,6.1689989)" stroke-width=".3985" stroke-linecap="butt" stroke-miterlimit="10" stroke-linejoin="miter" fill="none" stroke="#000000" d=""/>
<path transform="matrix(1,0,0,-1,105.382,6.1689989)" stroke-width=".3985" stroke-linecap="butt" stroke-miterlimit="10" stroke-linejoin="miter" fill="none" stroke="#0000ff" d="M-93.3452-85.0404H-78.72813"/>
<path transform="matrix(1,0,0,-1,26.653878,91.2094)" d="M1.99252 0-1.19551 1.59401 0 0-1.19551-1.59401" fill="#0000ff"/>
<path transform="matrix(1,0,0,-1,105.382,6.1689989)" stroke-width=".3985" stroke-linecap="butt" stroke-miterlimit="10" stroke-linejoin="miter" fill="none" stroke="#000000" d=""/>
<path transform="matrix(1,0,0,-1,105.382,6.1689989)" stroke-width=".3985" stroke-linecap="butt" stroke-miterlimit="10" stroke-linejoin="miter" fill="none" stroke="#0000ff" d="M-2.62508-61.94376-10.65732-78.00822"/>
<path transform="matrix(-.44717,.89436,.89436,.44717,94.724689,84.177219)" d="M1.99252 0-1.19551 1.59401 0 0-1.19551-1.59401" fill="#0000ff"/>
<path transform="matrix(1,0,0,-1,105.382,6.1689989)" stroke-width=".3985" stroke-linecap="butt" stroke-miterlimit="10" stroke-linejoin="miter" fill="none" stroke="#000000" d=""/>
<path transform="matrix(1,0,0,-1,105.382,6.1689989)" stroke-width=".3985" stroke-linecap="butt" stroke-miterlimit="10" stroke-linejoin="miter" fill="none" stroke="#000000" d=""/>
<path transform="matrix(1,0,0,-1,105.382,6.1689989)" stroke-width=".3985" stroke-linecap="butt" stroke-miterlimit="10" stroke-linejoin="miter" fill="none" stroke="#0000ff" d="M-8.3048-85.0404H6.31227"/>
<path transform="matrix(1,0,0,-1,111.694278,91.2094)" d="M1.99252 0-1.19551 1.59401 0 0-1.19551-1.59401" fill="#0000ff"/>
<path transform="matrix(1,0,0,-1,105.382,6.1689989)" stroke-width=".3985" stroke-linecap="butt" stroke-miterlimit="10" stroke-linejoin="miter" fill="none" stroke="#000000" d=""/>
<path transform="matrix(1,0,0,-1,105.382,6.1689989)" stroke-width=".3985" stroke-linecap="butt" stroke-miterlimit="10" stroke-linejoin="miter" fill="none" stroke="#0000ff" d="M54.06853-61.94376 46.03629-78.00822"/>
<path transform="matrix(-.44717,.89436,.89436,.44717,151.41829,84.177219)" d="M1.99252 0-1.19551 1.59401 0 0-1.19551-1.59401" fill="#0000ff"/>
<path transform="matrix(1,0,0,-1,105.382,6.1689989)" stroke-width=".3985" stroke-linecap="butt" stroke-miterlimit="10" stroke-linejoin="miter" fill="none" stroke="#000000" d=""/>
<path transform="matrix(1,0,0,-1,105.382,6.1689989)" stroke-width=".3985" stroke-linecap="butt" stroke-miterlimit="10" stroke-linejoin="miter" fill="none" stroke="#0000ff" d="M59.31868-61.94376 67.35092-78.00822"/>
<path transform="matrix(.44717,.89436,.89436,-.44717,172.73293,84.177219)" d="M1.99252 0-1.19551 1.59401 0 0-1.19551-1.59401" fill="#0000ff"/>
<path transform="matrix(1,0,0,-1,105.382,6.1689989)" stroke-width=".3985" stroke-linecap="butt" stroke-miterlimit="10" stroke-linejoin="miter" fill="none" stroke="#000000" d=""/>
<path transform="matrix(1,0,0,-1,105.382,6.1689989)" stroke-width=".3985" stroke-linecap="butt" stroke-miterlimit="10" stroke-linejoin="miter" fill="none" stroke="#0000ff" d="M110.76215-61.94376 102.72989-78.00822"/>
<path transform="matrix(-.44717,.89436,.89436,.44717,208.1119,84.177219)" d="M1.99252 0-1.19551 1.59401 0 0-1.19551-1.59401" fill="#0000ff"/>
<path transform="matrix(1,0,0,-1,105.382,6.1689989)" stroke-width=".3985" stroke-linecap="butt" stroke-miterlimit="10" stroke-linejoin="miter" fill="none" stroke="#000000" d=""/>
<path transform="matrix(1,0,0,-1,105.382,6.1689989)" stroke-width=".3985" stroke-linecap="butt" stroke-miterlimit="10" stroke-linejoin="miter" fill="none" stroke="#0000ff" d="M116.0123-61.94376 124.04456-78.00822"/>
<path transform="matrix(.44717,.89436,.89436,-.44717,229.42658,84.177219)" d="M1.99252 0-1.19551 1.59401 0 0-1.19551-1.59401" fill="#0000ff"/>
<path transform="matrix(1,0,0,-1,48.689004,34.516)" d="M5.66934 0C5.66934 3.13112 3.13112 5.66934 0 5.66934-3.13112 5.66934-5.66934 3.13112-5.66934 0-5.66934-3.13112-3.13112-5.66934 0-5.66934 3.13112-5.66934 5.66934-3.13112 5.66934 0ZM0 0"/>
<use data-text="3" xlink:href="#font_1_106" transform="matrix(8.96638,0,0,-8.96638,44.08,37.447999)" fill="#ffffff"/>
<use data-text="0" xlink:href="#font_1_121" transform="matrix(8.96638,0,0,-8.96638,48.68872,37.447999)" fill="#ffffff"/>
<path transform="matrix(1,0,0,-1,162.07501,34.516)" d="M5.66934 0C5.66934 3.13112 3.13112 5.66934 0 5.66934-3.13112 5.66934-5.66934 3.13112-5.66934 0-5.66934-3.13112-3.13112-5.66934 0-5.66934 3.13112-5.66934 5.66934-3.13112 5.66934 0ZM0 0"/>
<use data-text="7" xlink:href="#font_1_100" transform="matrix(8.96638,0,0,-8.96638,157.46602,37.447999)" fill="#ffffff"/>
<use data-text="0" xlink:href="#font_1_121" transform="matrix(8.96638,0,0,-8.96638,162.07474,37.447999)" fill="#ffffff"/>
<path transform="matrix(1,0,0,-1,34.516008,62.862)" d="M5.66934 0C5.66934 3.13112 3.13112 5.66934 0 5.66934-3.13112 5.66934-5.66934 3.13112-5.66934 0-5.66934-3.13112-3.13112-5.66934 0-5.66934 3.13112-5.66934 5.66934-3.13112 5.66934 0ZM0 0"/>
<use data-text="1" xlink:href="#font_1_82" transform="matrix(8.96638,0,0,-8.96638,29.907006,65.794)" fill="#ffffff"/>
<use data-text="5" xlink:href="#font_1_56" transform="matrix(8.96638,0,0,-8.96638,34.515726,65.794)" fill="#ffffff"/>
<path transform="matrix(1,0,0,-1,105.382,62.862)" d="M5.66934 0C5.66934 3.13112 3.13112 5.66934 0 5.66934-3.13112 5.66934-5.66934 3.13112-5.66934 0-5.66934-3.13112-3.13112-5.66934 0-5.66934 3.13112-5.66934 5.66934-3.13112 5.66934 0ZM0 0"/>
<use data-text="5" xlink:href="#font_1_56" transform="matrix(8.96638,0,0,-8.96638,100.773,65.794)" fill="#ffffff"/>
<use data-text="0" xlink:href="#font_1_121" transform="matrix(8.96638,0,0,-8.96638,105.38172,65.794)" fill="#ffffff"/>
<path transform="matrix(1,0,0,-1,162.07501,62.862)" d="M5.66934 0C5.66934 3.13112 3.13112 5.66934 0 5.66934-3.13112 5.66934-5.66934 3.13112-5.66934 0-5.66934-3.13112-3.13112-5.66934 0-5.66934 3.13112-5.66934 5.66934-3.13112 5.66934 0ZM0 0"/>
<use data-text="6" xlink:href="#font_1_101" transform="matrix(8.96638,0,0,-8.96638,157.46602,65.794)" fill="#ffffff"/>
<use data-text="0" xlink:href="#font_1_121" transform="matrix(8.96638,0,0,-8.96638,162.07474,65.794)" fill="#ffffff"/>
<path transform="matrix(1,0,0,-1,218.768,62.862)" d="M5.66934 0C5.66934 3.13112 3.13112 5.66934 0 5.66934-3.13112 5.66934-5.66934 3.13112-5.66934 0-5.66934-3.13112-3.13112-5.66934 0-5.66934 3.13112-5.66934 5.66934-3.13112 5.66934 0ZM0 0"/>
<use data-text="8" xlink:href="#font_1_51" transform="matrix(8.96638,0,0,-8.96638,214.15901,65.794)" fill="#ffffff"/>
<use data-text="5" xlink:href="#font_1_56" transform="matrix(8.96638,0,0,-8.96638,218.76773,65.794)" fill="#ffffff"/>
<path transform="matrix(1,0,0,-1,6.1690065,91.209)" d="M5.66934 0C5.66934 3.13112 3.13112 5.66934 0 5.66934-3.13112 5.66934-5.66934 3.13112-5.66934 0-5.66934-3.13112-3.13112-5.66934 0-5.66934 3.13112-5.66934 5.66934-3.13112 5.66934 0ZM0 0"/>
<use data-text="5" xlink:href="#font_1_56" transform="matrix(8.96638,0,0,-8.96638,3.8650065,94.042)" fill="#ffffff"/>
<path transform="matrix(1,0,0,-1,34.516008,91.209)" d="M5.66934 0C5.66934 3.13112 3.13112 5.66934 0 5.66934-3.13112 5.66934-5.66934 3.13112-5.66934 0-5.66934-3.13112-3.13112-5.66934 0-5.66934 3.13112-5.66934 5.66934-3.13112 5.66934 0ZM0 0"/>
<use data-text="1" xlink:href="#font_1_82" transform="matrix(8.96638,0,0,-8.96638,29.907006,94.141)" fill="#ffffff"/>
<use data-text="0" xlink:href="#font_1_121" transform="matrix(8.96638,0,0,-8.96638,34.515726,94.141)" fill="#ffffff"/>
<path transform="matrix(1,0,0,-1,62.862005,91.209)" d="M5.66934 0C5.66934 3.13112 3.13112 5.66934 0 5.66934-3.13112 5.66934-5.66934 3.13112-5.66934 0-5.66934-3.13112-3.13112-5.66934 0-5.66934 3.13112-5.66934 5.66934-3.13112 5.66934 0ZM0 0"/>
<use data-text="2" xlink:href="#font_1_107" transform="matrix(8.96638,0,0,-8.96638,58.253004,94.141)" fill="#ffffff"/>
<use data-text="0" xlink:href="#font_1_121" transform="matrix(8.96638,0,0,-8.96638,62.86172,94.141)" fill="#ffffff"/>
<path transform="matrix(1,0,0,-1,91.209,91.209)" d="M5.66934 0C5.66934 3.13112 3.13112 5.66934 0 5.66934-3.13112 5.66934-5.66934 3.13112-5.66934 0-5.66934-3.13112-3.13112-5.66934 0-5.66934 3.13112-5.66934 5.66934-3.13112 5.66934 0ZM0 0"/>
<use data-text="3" xlink:href="#font_1_106" transform="matrix(8.96638,0,0,-8.96638,86.6,94.141)" fill="#ffffff"/>
<use data-text="5" xlink:href="#font_1_56" transform="matrix(8.96638,0,0,-8.96638,91.20872,94.141)" fill="#ffffff"/>
<path transform="matrix(1,0,0,-1,119.55501,91.209)" d="M5.66934 0C5.66934 3.13112 3.13112 5.66934 0 5.66934-3.13112 5.66934-5.66934 3.13112-5.66934 0-5.66934-3.13112-3.13112-5.66934 0-5.66934 3.13112-5.66934 5.66934-3.13112 5.66934 0ZM0 0"/>
<use data-text="4" xlink:href="#font_1_57" transform="matrix(8.96638,0,0,-8.96638,114.94601,94.141)" fill="#ffffff"/>
<use data-text="0" xlink:href="#font_1_121" transform="matrix(8.96638,0,0,-8.96638,119.554729,94.141)" fill="#ffffff"/>
<path transform="matrix(1,0,0,-1,147.901,91.209)" d="M5.66934 0C5.66934 3.13112 3.13112 5.66934 0 5.66934-3.13112 5.66934-5.66934 3.13112-5.66934 0-5.66934-3.13112-3.13112-5.66934 0-5.66934 3.13112-5.66934 5.66934-3.13112 5.66934 0ZM0 0"/>
<use data-text="5" xlink:href="#font_1_56" transform="matrix(8.96638,0,0,-8.96638,143.293,94.042)" fill="#ffffff"/>
<use data-text="5" xlink:href="#font_1_56" transform="matrix(8.96638,0,0,-8.96638,147.90172,94.042)" fill="#ffffff"/>
<path transform="matrix(1,0,0,-1,176.248,91.209)" d="M5.66934 0C5.66934 3.13112 3.13112 5.66934 0 5.66934-3.13112 5.66934-5.66934 3.13112-5.66934 0-5.66934-3.13112-3.13112-5.66934 0-5.66934 3.13112-5.66934 5.66934-3.13112 5.66934 0ZM0 0"/>
<use data-text="6" xlink:href="#font_1_101" transform="matrix(8.96638,0,0,-8.96638,171.639,94.141)" fill="#ffffff"/>
<use data-text="5" xlink:href="#font_1_56" transform="matrix(8.96638,0,0,-8.96638,176.24773,94.141)" fill="#ffffff"/>
<path transform="matrix(1,0,0,-1,204.594,91.209)" d="M5.66934 0C5.66934 3.13112 3.13112 5.66934 0 5.66934-3.13112 5.66934-5.66934 3.13112-5.66934 0-5.66934-3.13112-3.13112-5.66934 0-5.66934 3.13112-5.66934 5.66934-3.13112 5.66934 0ZM0 0"/>
<use data-text="8" xlink:href="#font_1_51" transform="matrix(8.96638,0,0,-8.96638,199.986,94.141)" fill="#ffffff"/>
<use data-text="0" xlink:href="#font_1_121" transform="matrix(8.96638,0,0,-8.96638,204.59471,94.141)" fill="#ffffff"/>
<path transform="matrix(1,0,0,-1,232.94101,91.209)" d="M5.66934 0C5.66934 3.13112 3.13112 5.66934 0 5.66934-3.13112 5.66934-5.66934 3.13112-5.66934 0-5.66934-3.13112-3.13112-5.66934 0-5.66934 3.13112-5.66934 5.66934-3.13112 5.66934 0ZM0 0"/>
<use data-text="9" xlink:href="#font_1_78" transform="matrix(8.96638,0,0,-8.96638,228.33202,94.141)" fill="#ffffff"/>
<use data-text="0" xlink:href="#font_1_121" transform="matrix(8.96638,0,0,-8.96638,232.94074,94.141)" fill="#ffffff"/>
</svg>
