<svg xmlns="http://www.w3.org/2000/svg" xmlns:xlink="http://www.w3.org/1999/xlink" xmlns:inkscape="http://www.inkscape.org/namespaces/inkscape" version="1.1" width="223.578" height="123.398" viewBox="0 0 223.578 123.398">
<defs>
<path id="font_1_57" d="M.48399354 .16699219V.23197937H.38398744V.6542969H.2869873L.0289917 .23197937V.16699219H.2999878V0H.38398744V.16699219H.48399354M.30599977 .23197937H.11199951L.17298889 .33206178C.20298767 .38308717 .30499269 .55722048 .30599977 .6082611V.23197937Z"/>
<path id="font_2_63" d="M.5130005 .036987306C.5130005 .07398987 .4850006 .07499695 .46598817 .07499695H.43099977V.29315187C.43099977 .39720155 .37799073 .4412079 .29599 .4412079 .24099732 .4412079 .19999695 .41819764 .17599488 .39920045V.5632019C.17599488 .59931948 .16899109 .6113281 .1289978 .6113281H.057998659C.038986207 .6113281 .010986328 .61032107 .010986328 .5733185 .010986328 .537323 .040985109 .5363159 .056991579 .5363159H.09298706V.07499695H.057998659C.038986207 .07499695 .010986328 .07398987 .010986328 .036987306 .010986328 .0009918213 .040985109 0 .056991579 0H.21199036C.22898865 0 .25898744 .0009918213 .25898744 .036987306 .25898744 .07398987 .22999573 .07499695 .21099854 .07499695H.17599488V.2401123C.17599488 .33117677 .24398804 .36621095 .2899933 .36621095 .33699037 .36621095 .34799195 .34118653 .34799195 .28814698V.07499695H.31799317C.29899598 .07499695 .269989 .07398987 .269989 .036987306 .269989 .0009918213 .30099488 0 .31799317 0H.46699525C.48298646 0 .5130005 .0009918213 .5130005 .036987306Z"/>
<path id="font_2_52" d="M.48799134 .37986756C.48799134 .41986085 .44699098 .421875 .43099977 .421875H.09298706C.07699585 .421875 .035995485 .41986085 .035995485 .37986756 .035995485 .3388672 .07398987 .3378601 .08799744 .3378601H.43598939C.44999696 .3378601 .48799134 .3388672 .48799134 .37986756M.48799134 .23144531C.48799134 .27244569 .44999696 .27345277 .43598939 .27345277H.08799744C.07398987 .27345277 .035995485 .27244569 .035995485 .23144531 .035995485 .19145203 .07699585 .18945313 .09298706 .18945313H.43099977C.44699098 .18945313 .48799134 .19145203 .48799134 .23144531Z"/>
<path id="font_2_57" d="M.49699403 .20202637C.49699403 .23902893 .46899415 .24003601 .44999696 .24003601H.38198854V.5750427C.38198854 .6130371 .37399293 .6230469 .33399964 .6230469H.30699159C.27999879 .6230469 .27398683 .6210327 .25898744 .5990448L.036987306 .25003053C.026992798 .23603821 .026992798 .23303223 .026992798 .21102906 .026992798 .17303467 .037994386 .16503906 .07398987 .16503906H.31199647V.07499695H.25898744C.23999024 .07499695 .21199036 .07398987 .21199036 .036987306 .21199036 .0009918213 .24099732 0 .25898744 0H.43399049C.45199586 0 .48098756 .0009918213 .48098756 .036987306 .48098756 .07398987 .45399476 .07499695 .43399049 .07499695H.38198854V.16503906H.44999696C.46798707 .16503906 .49699403 .16603089 .49699403 .20202637M.30999757 .24003601H.115997318L.30999757 .54504397V.24003601Z"/>
<path id="font_1_82" d="M.43699647 0V.06199646H.30899049V.67578127H.28799439C.22099304 .6108246 .125 .6108246 .08999634 .6108246V.5488281C.117996219 .5488281 .16899109 .5488281 .22399903 .5718231V.06199646H.09599304V0H.43699647Z"/>
<path id="font_1_100" d="M.46998597 .58529666V.6542969H.042999269V.57928469H.23899842C.25099183 .57928469 .2630005 .58029177 .2749939 .58029177H.397995C.24198914 .41627503 .15499878 .215271 .15499878-.0107421879H.24499512C.24499512 .24726868 .35499574 .45828248 .46998597 .58529666Z"/>
<path id="font_2_107" d="M.47399903 .04798889V.07299805C.47399903 .09599304 .47399903 .1210022 .43399049 .1210022 .3959961 .1210022 .3919983 .102996829 .3919983 .07499695H.18899536C.24598694 .12399292 .32699586 .18800354 .3659973 .22302246 .42900086 .27902223 .47399903 .34403993 .47399903 .42404176 .47399903 .5450592 .37298585 .6220703 .24899292 .6220703 .1289978 .6220703 .049987794 .5380554 .049987794 .4510498 .049987794 .40904237 .08198547 .3970337 .100997928 .3970337 .125 .3970337 .1519928 .41604615 .1519928 .44804383 .1519928 .4600525 .14698792 .47305299 .13999939 .48205567 .15499878 .5210571 .19599915 .5470581 .24398804 .5470581 .31999208 .5470581 .3919983 .50505068 .3919983 .42404176 .3919983 .35803224 .34498597 .3030243 .28199769 .25201417L.066986087 .069992069C.055999757 .06098938 .049987794 .054992677 .049987794 .037994386 .049987794 .0009918213 .07798767 0 .09700012 0H.42799378C.46598817 0 .47399903 .009994507 .47399903 .04798889Z"/>
<path id="font_1_51" d="M.46998597 .18099976C.46998597 .24398804 .43199159 .31698609 .32998658 .35398866 .3929901 .37199403 .45599366 .42599488 .45599366 .5009918 .45599366 .59277346 .36999513 .67578127 .25698854 .67578127 .13999939 .67578127 .056991579 .59077456 .056991579 .5007782 .056991579 .425766 .11999512 .3717804 .18299866 .35377503 .07699585 .31576539 .042999269 .23977661 .042999269 .18077088 .042999269 .07055664 .13798523-.022460938 .2559967-.022460938 .37799073-.022460938 .46998597 .07255554 .46998597 .18063355V.18099976M.38198854 .49975587C.38198854 .43774415 .33898927 .3857422 .2559967 .3857422 .17799378 .3857422 .1309967 .43374635 .1309967 .49975587 .1309967 .5667572 .1789856 .61376956 .2559967 .61376956 .33799745 .61376956 .38198854 .5637665 .38198854 .49975587M.38398744 .18063355C.38398744 .087524417 .32299806 .042526246 .25698854 .042526246 .18598938 .042526246 .1289978 .090530399 .1289978 .18052674 .1289978 .287735 .20498657 .32073976 .2559967 .32073976 .31298829 .32073976 .38398744 .28373719 .38398744 .18074036V.18063355Z"/>
<path id="font_2_106" d="M.48199464 .1769867C.48199464 .24499512 .43998719 .3019867 .37998963 .33399964 .42900086 .37113954 .45399476 .42510987 .45399476 .47709657 .45399476 .552063 .37998963 .6220703 .2630005 .6220703 .13999939 .6220703 .069992069 .57006838 .069992069 .5000763 .069992069 .46209718 .09899902 .44610597 .12199402 .44610597 .1459961 .44610597 .17199707 .46609498 .17199707 .4980774 .17199707 .509079 .16899109 .5170746 .1659851 .5230713 .19599915 .5470581 .2559967 .5470581 .2639923 .5470581 .32499696 .5470581 .37098695 .5160675 .37098695 .47608949 .37098695 .44810487 .35798646 .41711427 .33299256 .39712525 .30299378 .37313844 .27999879 .36914063 .24699402 .36914063 .18399048 .36914063 .16899109 .36112977 .16899109 .32913209 .16899109 .29212953 .19699097 .2911377 .21598816 .2911377H.26098634C.35198976 .2912445 .39898683 .23124695 .39898683 .1772461 .39898683 .12124634 .34700013 .06425476 .2639923 .06425476 .22799683 .06425476 .16099549 .07325745 .13398743 .11224365 .13899231 .118255618 .14399719 .12724304 .14399719 .14324951 .14399719 .17124939 .12199402 .19424439 .09298706 .19424439 .066986087 .19424439 .041992189 .1772461 .041992189 .14024353 .041992189 .050247194 .13899231-.0107421879 .2639923-.0107421879 .39698792-.0107421879 .48199464 .08325195 .48199464 .1772461V.1769867Z"/>
<path id="font_1_106" d="M.46998597 .18063355C.46998597 .25968934 .4119873 .32572938 .32998658 .35273744 .3999939 .3887329 .44198609 .4537506 .44198609 .52275088 .44198609 .60876467 .35699464 .67578127 .2539978 .67578127 .16999817 .67578127 .09899902 .6327667 .056991579 .5697632L.09599304 .51275637C.13999939 .5997772 .21598816 .61376956 .25299073 .61376956 .3039856 .61376956 .35398866 .58576968 .35398866 .52275088 .35398866 .4857483 .33299256 .3997345 .22499085 .38974 .20599365 .3877411 .18998719 .386734 .17098999 .3857422V.32073976H.24598694C.34298707 .32073976 .37399293 .24168396 .37399293 .18164063 .37399293 .10256958 .32699586 .042526246 .25099183 .042526246 .16899109 .042526246 .09298706 .08757019 .054992677 .14160156 .04699707 .10157776 .04699707 .09957886 .042999269 .077560428 .09199524 .01852417 .16799927-.022460938 .25299073-.022460938 .3789978-.022460938 .46998597 .07556152 .46998597 .18063355Z"/>
<path id="font_1_107" d="M.46199037 0V.07499695H.27398683C.2619934 .07499695 .25 .07398987 .23799134 .07398987H.12799073L.2919922 .22293091C.39698792 .30889894 .46199037 .36286927 .46199037 .45983888 .46199037 .5747833 .3789978 .67578127 .24299622 .67578127 .13699341 .67578127 .07398987 .6147766 .042999269 .5158081L.08898926 .45783998C.114990238 .5747833 .16699219 .6077728 .22898865 .6077728 .31799317 .6077728 .37399293 .5397949 .37399293 .45783998 .37399293 .36686708 .30999757 .30889894 .23599243 .24291992L.050994874 .067993167V0H.46199037Z"/>
<path id="font_2_82" d="M.44499208 .036987306C.44499208 .07398987 .41799928 .07499695 .39898683 .07499695H.31799317V.5740051C.31799317 .59303286 .31599427 .6220703 .2809906 .6220703 .2579956 .6220703 .25 .6080475 .24398804 .59402468 .20999146 .5159302 .1619873 .5049286 .14498902 .5029297 .12599182 .5019226 .101989749 .4979248 .101989749 .46492005 .101989749 .43392945 .12298584 .42791749 .14099121 .42791749 .15899658 .42791749 .19499207 .43292237 .23498535 .46192933V.07499695H.1539917C.1349945 .07499695 .10699463 .07398987 .10699463 .036987306 .10699463 .0009918213 .13598633 0 .1539917 0H.39898683C.4169922 0 .44499208 .0009918213 .44499208 .036987306Z"/>
<path id="font_1_56" d="M.46199037 .20275879C.46199037 .32676698 .37298585 .42578126 .2669983 .42578126 .2539978 .42578126 .20498657 .42578126 .1579895 .3857727V.58628848H.4269867V.6542969H.08099365V.2817688H.15299988C.18499756 .35577394 .24598694 .3607788 .2649994 .3607788 .30599977 .3607788 .3659973 .32977296 .3659973 .20375061 .3659973 .08163452 .2939911 .042526246 .23399353 .042526246 .18199158 .042526246 .11399841 .067596439 .07499695 .13476563L.038986207 .0756073C.054992677 .05355835 .12199402-.022460938 .23498535-.022460938 .3600006-.022460938 .46199037 .07762146 .46199037 .20275879Z"/>
<path id="font_1_121" d="M.47200013 .324646C.47200013 .419693 .46499635 .50772097 .41799928 .5867615 .3849945 .6417694 .32299806 .67578127 .25698854 .67578127 .20698548 .67578127 .13598633 .6567688 .09098816 .5787506 .04399109 .49972535 .040985109 .39367677 .040985109 .324646 .040985109 .2746277 .040985109 .1605835 .085998538 .07954407 .13598633-.008468628 .21199036-.022460938 .2559967-.022460938 .31399537-.022460938 .38598634 .0015258789 .42900086 .08454895 .46699525 .15757752 .47200013 .24461365 .47200013 .324646M.3889923 .33665467C.3889923 .26863099 .3889923 .19960022 .3659973 .13456726 .34298707 .0655365 .29599 .042526246 .25698854 .042526246 .12399292 .042526246 .12399292 .24261475 .12399292 .33665467 .12399292 .39968873 .12399292 .45069886 .13899231 .5027313 .1579895 .5717468 .19898987 .6107788 .2559967 .6107788 .3889923 .6107788 .3889923 .4296875 .3889923 .33665467Z"/>
<path id="font_1_101" d="M.46998597 .22270203C.46998597 .27876283 .46199037 .32881166 .42799378 .3828125 .3880005 .44587709 .35299684 .46289063 .30599977 .46289063 .2679901 .46289063 .19400025 .45188905 .13198853 .38079835 .14299011 .5148468 .21099854 .61376956 .31799317 .61376956 .33799745 .61376956 .375 .6127777 .42599488 .5927887V.655777C.37799073 .6737671 .33898927 .67578127 .31698609 .67578127 .17298889 .67578127 .042999269 .53582766 .042999269 .32080079 .042999269 .046539308 .1639862-.022460938 .2579956-.022460938 .31900025-.022460938 .36299134-.00047302247 .40299989 .044540407 .45098878 .097579959 .46998597 .14363098 .46998597 .22270203M.3829956 .22270203C.3829956 .18367005 .3829956 .1426239 .35699464 .099594119 .33799745 .06956482 .30999757 .042526246 .2579956 .042526246 .15098572 .042526246 .13598633 .18566895 .1329956 .21870423 .1329956 .23271179 .1329956 .23472595 .13398743 .24572754 .13398743 .32180787 .18199158 .39788819 .2630005 .39788819 .30099488 .39788819 .33499146 .38380433 .36099244 .33680726 .3809967 .30078126 .3829956 .26875306 .3829956 .22270203Z"/>
</defs>
<path transform="matrix(1,0,0,-1,87.535,8.095001)" stroke-width=".3985" stroke-linecap="butt" stroke-miterlimit="10" stroke-linejoin="miter" fill="none" stroke="#000000" d=""/>
<path transform="matrix(1,0,0,-1,87.535,8.095001)" stroke-width=".3985" stroke-linecap="butt" stroke-miterlimit="10" stroke-linejoin="miter" fill="none" stroke="#0000ff" d="M-5.4563-2.16486-65.98875-26.18193"/>
<path transform="matrix(1,0,0,-1,87.535,8.095001)" stroke-width=".3985" stroke-linecap="butt" stroke-miterlimit="10" stroke-linejoin="miter" fill="none" stroke="#000000" d=""/>
<path transform="matrix(1,0,0,-1,87.535,8.095001)" stroke-width=".3985" stroke-linecap="butt" stroke-miterlimit="10" stroke-linejoin="miter" fill="none" stroke="#0000ff" d="M5.4563-2.16486 65.98875-26.18193"/>
<path transform="matrix(1,0,0,-1,87.535,8.095001)" stroke-width=".3985" stroke-linecap="butt" stroke-miterlimit="10" stroke-linejoin="miter" fill="none" stroke="#000000" d=""/>
<path transform="matrix(1,0,0,-1,87.535,8.095001)" stroke-width=".3985" stroke-linecap="butt" stroke-miterlimit="10" stroke-linejoin="miter" fill="none" stroke="#0000ff" d="M-74.07014-33.59694-84.81017-55.07701"/>
<path transform="matrix(1,0,0,-1,87.535,8.095001)" stroke-width=".3985" stroke-linecap="butt" stroke-miterlimit="10" stroke-linejoin="miter" fill="none" stroke="#000000" d=""/>
<path transform="matrix(1,0,0,-1,87.535,8.095001)" stroke-width=".3985" stroke-linecap="butt" stroke-miterlimit="10" stroke-linejoin="miter" fill="none" stroke="#0000ff" d="M-68.82-33.59694-59.89674-51.44345"/>
<path transform="matrix(1,0,0,-1,87.535,8.095001)" stroke-width=".3985" stroke-linecap="butt" stroke-miterlimit="10" stroke-linejoin="miter" fill="none" stroke="#000000" d=""/>
<path transform="matrix(1,0,0,-1,87.535,8.095001)" stroke-width=".3985" stroke-linecap="butt" stroke-miterlimit="10" stroke-linejoin="miter" fill="none" stroke="#0000ff" d="M-59.89674-61.94376-70.63678-83.42383"/>
<path transform="matrix(1,0,0,-1,87.535,8.095001)" stroke-width=".3985" stroke-linecap="butt" stroke-miterlimit="10" stroke-linejoin="miter" fill="none" stroke="#000000" d=""/>
<path transform="matrix(1,0,0,-1,87.535,8.095001)" stroke-width=".3985" stroke-linecap="butt" stroke-miterlimit="10" stroke-linejoin="miter" fill="none" stroke="#0000ff" d="M-54.64659-61.94376-43.90656-83.42383"/>
<path transform="matrix(1,0,0,-1,87.535,8.095001)" stroke-width=".3985" stroke-linecap="butt" stroke-miterlimit="10" stroke-linejoin="miter" fill="none" stroke="#000000" d=""/>
<path transform="matrix(1,0,0,-1,87.535,8.095001)" stroke-width=".3985" stroke-linecap="butt" stroke-miterlimit="10" stroke-linejoin="miter" fill="none" stroke="#0000ff" d="M66.54807-31.58215 33.4365-53.45827"/>
<path transform="matrix(1,0,0,-1,87.535,8.095001)" stroke-width=".3985" stroke-linecap="butt" stroke-miterlimit="10" stroke-linejoin="miter" fill="none" stroke="#000000" d=""/>
<path transform="matrix(1,0,0,-1,87.535,8.095001)" stroke-width=".3985" stroke-linecap="butt" stroke-miterlimit="10" stroke-linejoin="miter" fill="none" stroke="#0000ff" d="M76.34207-31.58215 109.45366-53.45827"/>
<path transform="matrix(1,0,0,-1,87.535,8.095001)" stroke-width=".3985" stroke-linecap="butt" stroke-miterlimit="10" stroke-linejoin="miter" fill="none" stroke="#000000" d=""/>
<path transform="matrix(1,0,0,-1,87.535,8.095001)" stroke-width=".3985" stroke-linecap="butt" stroke-miterlimit="10" stroke-linejoin="miter" fill="none" stroke="#0000ff" d="M24.06905-60.49588-.31825-81.23813"/>
<path transform="matrix(1,0,0,-1,87.535,8.095001)" stroke-width=".3985" stroke-linecap="butt" stroke-miterlimit="10" stroke-linejoin="miter" fill="none" stroke="#000000" d=""/>
<path transform="matrix(1,0,0,-1,87.535,8.095001)" stroke-width=".3985" stroke-linecap="butt" stroke-miterlimit="10" stroke-linejoin="miter" fill="none" stroke="#0000ff" d="M33.00993-60.49588 57.39722-81.23813"/>
<path transform="matrix(1,0,0,-1,87.535,8.095001)" stroke-width=".3985" stroke-linecap="butt" stroke-miterlimit="10" stroke-linejoin="miter" fill="none" stroke="#000000" d=""/>
<path transform="matrix(1,0,0,-1,87.535,8.095001)" stroke-width=".3985" stroke-linecap="butt" stroke-miterlimit="10" stroke-linejoin="miter" fill="none" stroke="#0000ff" d="M111.72559-61.94376 100.98555-83.42383"/>
<path transform="matrix(1,0,0,-1,87.535,8.095001)" stroke-width=".3985" stroke-linecap="butt" stroke-miterlimit="10" stroke-linejoin="miter" fill="none" stroke="#000000" d=""/>
<path transform="matrix(1,0,0,-1,87.535,8.095001)" stroke-width=".3985" stroke-linecap="butt" stroke-miterlimit="10" stroke-linejoin="miter" fill="none" stroke="#0000ff" d="M116.97574-61.94376 127.71576-83.42383"/>
<path transform="matrix(1,0,0,-1,87.535,8.095001)" stroke-width=".3985" stroke-linecap="butt" stroke-miterlimit="10" stroke-linejoin="miter" fill="none" stroke="#000000" d=""/>
<path transform="matrix(1,0,0,-1,87.535,8.095001)" stroke-width=".3985" stroke-linecap="butt" stroke-miterlimit="10" stroke-linejoin="miter" fill="none" stroke="#0000ff" d="M-7.41377-90.29056-18.1538-111.77063"/>
<path transform="matrix(1,0,0,-1,87.535,8.095001)" stroke-width=".3985" stroke-linecap="butt" stroke-miterlimit="10" stroke-linejoin="miter" fill="none" stroke="#000000" d=""/>
<path transform="matrix(1,0,0,-1,87.535,8.095001)" stroke-width=".3985" stroke-linecap="butt" stroke-miterlimit="10" stroke-linejoin="miter" fill="none" stroke="#0000ff" d="M-2.16362-90.29056 8.5764-111.77063"/>
<path transform="matrix(1,0,0,-1,87.535,8.095001)" stroke-width=".3985" stroke-linecap="butt" stroke-miterlimit="10" stroke-linejoin="miter" fill="none" stroke="#000000" d=""/>
<path transform="matrix(1,0,0,-1,87.535,8.095001)" stroke-width=".3985" stroke-linecap="butt" stroke-miterlimit="10" stroke-linejoin="miter" fill="none" stroke="#0000ff" d="M59.2426-90.29056 48.50258-111.77063"/>
<path transform="matrix(1,0,0,-1,87.535,8.095001)" stroke-width=".3985" stroke-linecap="butt" stroke-miterlimit="10" stroke-linejoin="miter" fill="none" stroke="#000000" d=""/>
<path transform="matrix(1,0,0,-1,87.535,8.095001)" stroke-width=".3985" stroke-linecap="butt" stroke-miterlimit="10" stroke-linejoin="miter" fill="none" stroke="#0000ff" d="M64.49274-90.29056 75.23279-111.77063"/>
<path transform="matrix(1,0,0,-1,87.535,8.095001)" d="M5.66934 0C5.66934 3.13112 3.13112 5.66934 0 5.66934-3.13112 5.66934-5.66934 3.13112-5.66934 0-5.66934-3.13112-3.13112-5.66934 0-5.66934 3.13112-5.66934 5.66934-3.13112 5.66934 0ZM0 0"/>
<use data-text="4" xlink:href="#font_1_57" transform="matrix(8.96638,0,0,-8.96638,82.926,11.027)" fill="#ffffff"/>
<use data-text="4" xlink:href="#font_1_57" transform="matrix(8.96638,0,0,-8.96638,87.53472,11.027)" fill="#ffffff"/>
<use data-text="h" xlink:href="#font_2_63" transform="matrix(8.96638,0,0,-8.96638,94.136,10.8880009)"/>
<use data-text="=" xlink:href="#font_2_52" transform="matrix(8.96638,0,0,-8.96638,98.84335,10.8880009)"/>
<use data-text="4" xlink:href="#font_2_57" transform="matrix(8.96638,0,0,-8.96638,103.550708,10.8880009)"/>
<path transform="matrix(1,0,0,-1,16.091004,36.441)" d="M5.66934 0C5.66934 3.13112 3.13112 5.66934 0 5.66934-3.13112 5.66934-5.66934 3.13112-5.66934 0-5.66934-3.13112-3.13112-5.66934 0-5.66934 3.13112-5.66934 5.66934-3.13112 5.66934 0ZM0 0"/>
<use data-text="1" xlink:href="#font_1_82" transform="matrix(8.96638,0,0,-8.96638,11.482003,39.422998)" fill="#ffffff"/>
<use data-text="7" xlink:href="#font_1_100" transform="matrix(8.96638,0,0,-8.96638,16.090722,39.422998)" fill="#ffffff"/>
<use data-text="h" xlink:href="#font_2_63" transform="matrix(8.96638,0,0,-8.96638,22.660004,39.230005)"/>
<use data-text="=" xlink:href="#font_2_52" transform="matrix(8.96638,0,0,-8.96638,27.367354,39.230005)"/>
<use data-text="2" xlink:href="#font_2_107" transform="matrix(8.96638,0,0,-8.96638,32.074705,39.230005)"/>
<path transform="matrix(1,0,0,-1,158.979,36.441)" d="M5.66934 0C5.66934 3.13112 3.13112 5.66934 0 5.66934-3.13112 5.66934-5.66934 3.13112-5.66934 0-5.66934-3.13112-3.13112-5.66934 0-5.66934 3.13112-5.66934 5.66934-3.13112 5.66934 0ZM0 0"/>
<use data-text="7" xlink:href="#font_1_100" transform="matrix(8.96638,0,0,-8.96638,154.37001,39.373)" fill="#ffffff"/>
<use data-text="8" xlink:href="#font_1_51" transform="matrix(8.96638,0,0,-8.96638,158.97873,39.373)" fill="#ffffff"/>
<use data-text="h" xlink:href="#font_2_63" transform="matrix(8.96638,0,0,-8.96638,165.581,39.181)"/>
<use data-text="=" xlink:href="#font_2_52" transform="matrix(8.96638,0,0,-8.96638,170.28835,39.181)"/>
<use data-text="3" xlink:href="#font_2_106" transform="matrix(8.96638,0,0,-8.96638,174.9957,39.181)"/>
<path transform="matrix(1,0,0,-1,1.9170075,64.788)" d="M-1.41731-1.41731H1.41733V1.41733H-1.41731Z" fill="#0000ff"/>
<path transform="matrix(1,0,0,-1,30.264004,64.788)" d="M5.66934 0C5.66934 3.13112 3.13112 5.66934 0 5.66934-3.13112 5.66934-5.66934 3.13112-5.66934 0-5.66934-3.13112-3.13112-5.66934 0-5.66934 3.13112-5.66934 5.66934-3.13112 5.66934 0ZM0 0"/>
<use data-text="3" xlink:href="#font_1_106" transform="matrix(8.96638,0,0,-8.96638,25.655003,67.72)" fill="#ffffff"/>
<use data-text="2" xlink:href="#font_1_107" transform="matrix(8.96638,0,0,-8.96638,30.263722,67.72)" fill="#ffffff"/>
<use data-text="h" xlink:href="#font_2_63" transform="matrix(8.96638,0,0,-8.96638,36.834005,67.576007)"/>
<use data-text="=" xlink:href="#font_2_52" transform="matrix(8.96638,0,0,-8.96638,41.541357,67.576007)"/>
<use data-text="1" xlink:href="#font_2_82" transform="matrix(8.96638,0,0,-8.96638,46.248708,67.576007)"/>
<path transform="matrix(1,0,0,-1,16.091004,93.134)" d="M-1.41731-1.41731H1.41733V1.41733H-1.41731Z" fill="#0000ff"/>
<path transform="matrix(1,0,0,-1,44.437005,93.134)" d="M-1.41731-1.41731H1.41733V1.41733H-1.41731Z" fill="#0000ff"/>
<path transform="matrix(1,0,0,-1,116.074008,64.788)" d="M5.66934 0C5.66934 3.13112 3.13112 5.66934 0 5.66934-3.13112 5.66934-5.66934 3.13112-5.66934 0-5.66934-3.13112-3.13112-5.66934 0-5.66934 3.13112-5.66934 5.66934-3.13112 5.66934 0ZM0 0"/>
<use data-text="5" xlink:href="#font_1_56" transform="matrix(8.96638,0,0,-8.96638,111.465007,67.72)" fill="#ffffff"/>
<use data-text="0" xlink:href="#font_1_121" transform="matrix(8.96638,0,0,-8.96638,116.07372,67.72)" fill="#ffffff"/>
<use data-text="h" xlink:href="#font_2_63" transform="matrix(8.96638,0,0,-8.96638,122.644008,67.576007)"/>
<use data-text="=" xlink:href="#font_2_52" transform="matrix(8.96638,0,0,-8.96638,127.35136,67.576007)"/>
<use data-text="2" xlink:href="#font_2_107" transform="matrix(8.96638,0,0,-8.96638,132.05872,67.576007)"/>
<path transform="matrix(1,0,0,-1,201.884,64.788)" d="M5.66934 0C5.66934 3.13112 3.13112 5.66934 0 5.66934-3.13112 5.66934-5.66934 3.13112-5.66934 0-5.66934-3.13112-3.13112-5.66934 0-5.66934 3.13112-5.66934 5.66934-3.13112 5.66934 0ZM0 0"/>
<use data-text="8" xlink:href="#font_1_51" transform="matrix(8.96638,0,0,-8.96638,197.27501,67.72)" fill="#ffffff"/>
<use data-text="8" xlink:href="#font_1_51" transform="matrix(8.96638,0,0,-8.96638,201.88373,67.72)" fill="#ffffff"/>
<use data-text="h" xlink:href="#font_2_63" transform="matrix(8.96638,0,0,-8.96638,208.45401,67.576007)"/>
<use data-text="=" xlink:href="#font_2_52" transform="matrix(8.96638,0,0,-8.96638,213.16136,67.576007)"/>
<use data-text="1" xlink:href="#font_2_82" transform="matrix(8.96638,0,0,-8.96638,217.86872,67.576007)"/>
<path transform="matrix(1,0,0,-1,82.746,93.134)" d="M5.66934 0C5.66934 3.13112 3.13112 5.66934 0 5.66934-3.13112 5.66934-5.66934 3.13112-5.66934 0-5.66934-3.13112-3.13112-5.66934 0-5.66934 3.13112-5.66934 5.66934-3.13112 5.66934 0ZM0 0"/>
<use data-text="4" xlink:href="#font_1_57" transform="matrix(8.96638,0,0,-8.96638,78.137,96.066)" fill="#ffffff"/>
<use data-text="8" xlink:href="#font_1_51" transform="matrix(8.96638,0,0,-8.96638,82.74572,96.066)" fill="#ffffff"/>
<use data-text="h" xlink:href="#font_2_63" transform="matrix(8.96638,0,0,-8.96638,89.316,95.923007)"/>
<use data-text="=" xlink:href="#font_2_52" transform="matrix(8.96638,0,0,-8.96638,94.02335,95.923007)"/>
<use data-text="1" xlink:href="#font_2_82" transform="matrix(8.96638,0,0,-8.96638,98.730709,95.923007)"/>
<path transform="matrix(1,0,0,-1,149.40201,93.134)" d="M5.66934 0C5.66934 3.13112 3.13112 5.66934 0 5.66934-3.13112 5.66934-5.66934 3.13112-5.66934 0-5.66934-3.13112-3.13112-5.66934 0-5.66934 3.13112-5.66934 5.66934-3.13112 5.66934 0ZM0 0"/>
<use data-text="6" xlink:href="#font_1_101" transform="matrix(8.96638,0,0,-8.96638,144.79302,96.066)" fill="#ffffff"/>
<use data-text="2" xlink:href="#font_1_107" transform="matrix(8.96638,0,0,-8.96638,149.40174,96.066)" fill="#ffffff"/>
<use data-text="h" xlink:href="#font_2_63" transform="matrix(8.96638,0,0,-8.96638,155.972,95.923007)"/>
<use data-text="=" xlink:href="#font_2_52" transform="matrix(8.96638,0,0,-8.96638,160.67935,95.923007)"/>
<use data-text="1" xlink:href="#font_2_82" transform="matrix(8.96638,0,0,-8.96638,165.3867,95.923007)"/>
<path transform="matrix(1,0,0,-1,187.711,93.134)" d="M-1.41731-1.41731H1.41733V1.41733H-1.41731Z" fill="#0000ff"/>
<path transform="matrix(1,0,0,-1,216.057,93.134)" d="M-1.41731-1.41731H1.41733V1.41733H-1.41731Z" fill="#0000ff"/>
<path transform="matrix(1,0,0,-1,68.573009,121.481)" d="M-1.41731-1.41731H1.41733V1.41733H-1.41731Z" fill="#0000ff"/>
<path transform="matrix(1,0,0,-1,96.91901,121.481)" d="M-1.41731-1.41731H1.41733V1.41733H-1.41731Z" fill="#0000ff"/>
<path transform="matrix(1,0,0,-1,135.228,121.481)" d="M-1.41731-1.41731H1.41733V1.41733H-1.41731Z" fill="#0000ff"/>
<path transform="matrix(1,0,0,-1,163.57501,121.481)" d="M-1.41731-1.41731H1.41733V1.41733H-1.41731Z" fill="#0000ff"/>
</svg>
