<svg xmlns="http://www.w3.org/2000/svg" xmlns:xlink="http://www.w3.org/1999/xlink" xmlns:inkscape="http://www.inkscape.org/namespaces/inkscape" version="1.1" width="83.205" height="144.15" viewBox="0 0 83.205 144.15">
<defs>
<path id="font_1_82" d="M.43699647 0V.06199646H.30899049V.67578127H.28799439C.22099304 .6108246 .125 .6108246 .08999634 .6108246V.5488281C.117996219 .5488281 .16899109 .5488281 .22399903 .5718231V.06199646H.09599304V0H.43699647Z"/>
<path id="font_1_107" d="M.46199037 0V.07499695H.27398683C.2619934 .07499695 .25 .07398987 .23799134 .07398987H.12799073L.2919922 .22293091C.39698792 .30889894 .46199037 .36286927 .46199037 .45983888 .46199037 .5747833 .3789978 .67578127 .24299622 .67578127 .13699341 .67578127 .07398987 .6147766 .042999269 .5158081L.08898926 .45783998C.114990238 .5747833 .16699219 .6077728 .22898865 .6077728 .31799317 .6077728 .37399293 .5397949 .37399293 .45783998 .37399293 .36686708 .30999757 .30889894 .23599243 .24291992L.050994874 .067993167V0H.46199037Z"/>
<path id="font_1_106" d="M.46998597 .18063355C.46998597 .25968934 .4119873 .32572938 .32998658 .35273744 .3999939 .3887329 .44198609 .4537506 .44198609 .52275088 .44198609 .60876467 .35699464 .67578127 .2539978 .67578127 .16999817 .67578127 .09899902 .6327667 .056991579 .5697632L.09599304 .51275637C.13999939 .5997772 .21598816 .61376956 .25299073 .61376956 .3039856 .61376956 .35398866 .58576968 .35398866 .52275088 .35398866 .4857483 .33299256 .3997345 .22499085 .38974 .20599365 .3877411 .18998719 .386734 .17098999 .3857422V.32073976H.24598694C.34298707 .32073976 .37399293 .24168396 .37399293 .18164063 .37399293 .10256958 .32699586 .042526246 .25099183 .042526246 .16899109 .042526246 .09298706 .08757019 .054992677 .14160156 .04699707 .10157776 .04699707 .09957886 .042999269 .077560428 .09199524 .01852417 .16799927-.022460938 .25299073-.022460938 .3789978-.022460938 .46998597 .07556152 .46998597 .18063355Z"/>
<path id="font_1_57" d="M.48399354 .16699219V.23197937H.38398744V.6542969H.2869873L.0289917 .23197937V.16699219H.2999878V0H.38398744V.16699219H.48399354M.30599977 .23197937H.11199951L.17298889 .33206178C.20298767 .38308717 .30499269 .55722048 .30599977 .6082611V.23197937Z"/>
<path id="font_1_56" d="M.46199037 .20275879C.46199037 .32676698 .37298585 .42578126 .2669983 .42578126 .2539978 .42578126 .20498657 .42578126 .1579895 .3857727V.58628848H.4269867V.6542969H.08099365V.2817688H.15299988C.18499756 .35577394 .24598694 .3607788 .2649994 .3607788 .30599977 .3607788 .3659973 .32977296 .3659973 .20375061 .3659973 .08163452 .2939911 .042526246 .23399353 .042526246 .18199158 .042526246 .11399841 .067596439 .07499695 .13476563L.038986207 .0756073C.054992677 .05355835 .12199402-.022460938 .23498535-.022460938 .3600006-.022460938 .46199037 .07762146 .46199037 .20275879Z"/>
<path id="font_1_101" d="M.46998597 .22270203C.46998597 .27876283 .46199037 .32881166 .42799378 .3828125 .3880005 .44587709 .35299684 .46289063 .30599977 .46289063 .2679901 .46289063 .19400025 .45188905 .13198853 .38079835 .14299011 .5148468 .21099854 .61376956 .31799317 .61376956 .33799745 .61376956 .375 .6127777 .42599488 .5927887V.655777C.37799073 .6737671 .33898927 .67578127 .31698609 .67578127 .17298889 .67578127 .042999269 .53582766 .042999269 .32080079 .042999269 .046539308 .1639862-.022460938 .2579956-.022460938 .31900025-.022460938 .36299134-.00047302247 .40299989 .044540407 .45098878 .097579959 .46998597 .14363098 .46998597 .22270203M.3829956 .22270203C.3829956 .18367005 .3829956 .1426239 .35699464 .099594119 .33799745 .06956482 .30999757 .042526246 .2579956 .042526246 .15098572 .042526246 .13598633 .18566895 .1329956 .21870423 .1329956 .23271179 .1329956 .23472595 .13398743 .24572754 .13398743 .32180787 .18199158 .39788819 .2630005 .39788819 .30099488 .39788819 .33499146 .38380433 .36099244 .33680726 .3809967 .30078126 .3829956 .26875306 .3829956 .22270203Z"/>
</defs>
<path transform="matrix(1,0,0,-1,13.256,6.168991)" stroke-width=".3985" stroke-linecap="butt" stroke-miterlimit="10" stroke-linejoin="miter" fill="none" stroke="#000000" d=""/>
<path transform="matrix(1,0,0,-1,13.256,6.168991)" stroke-width=".3985" stroke-linecap="butt" stroke-miterlimit="10" stroke-linejoin="miter" fill="none" stroke="#0000ff" d="M-2.10005-4.20012-10.69211-21.38423"/>
<path transform="matrix(1,0,0,-1,13.256,6.168991)" stroke-width=".3985" stroke-linecap="butt" stroke-miterlimit="10" stroke-linejoin="miter" fill="none" stroke="#000000" d=""/>
<path transform="matrix(1,0,0,-1,13.256,6.168991)" stroke-width=".3985" stroke-linecap="butt" stroke-miterlimit="10" stroke-linejoin="miter" fill="none" stroke="#0000ff" d="M2.10005-4.20012 9.2387-18.47737"/>
<path transform="matrix(1,0,0,-1,13.256,6.168991)" stroke-width=".3985" stroke-linecap="butt" stroke-miterlimit="10" stroke-linejoin="miter" fill="none" stroke="#000000" d=""/>
<path transform="matrix(1,0,0,-1,13.256,6.168991)" stroke-width=".3985" stroke-linecap="butt" stroke-miterlimit="10" stroke-linejoin="miter" fill="none" stroke="#0000ff" d="M9.2387-26.87766 .64662-44.06177"/>
<path transform="matrix(1,0,0,-1,13.256,6.168991)" stroke-width=".3985" stroke-linecap="butt" stroke-miterlimit="10" stroke-linejoin="miter" fill="none" stroke="#000000" d=""/>
<path transform="matrix(1,0,0,-1,13.256,6.168991)" stroke-width=".3985" stroke-linecap="butt" stroke-miterlimit="10" stroke-linejoin="miter" fill="none" stroke="#0000ff" d="M13.43881-26.87766 20.57745-41.1549"/>
<path transform="matrix(1,0,0,-1,13.256,6.168991)" stroke-width=".3985" stroke-linecap="butt" stroke-miterlimit="10" stroke-linejoin="miter" fill="none" stroke="#000000" d=""/>
<path transform="matrix(1,0,0,-1,13.256,6.168991)" stroke-width=".3985" stroke-linecap="butt" stroke-miterlimit="10" stroke-linejoin="miter" fill="none" stroke="#0000ff" d="M20.57745-49.55519 11.9854-66.7393"/>
<path transform="matrix(1,0,0,-1,13.256,6.168991)" stroke-width=".3985" stroke-linecap="butt" stroke-miterlimit="10" stroke-linejoin="miter" fill="none" stroke="#000000" d=""/>
<path transform="matrix(1,0,0,-1,13.256,6.168991)" stroke-width=".3985" stroke-linecap="butt" stroke-miterlimit="10" stroke-linejoin="miter" fill="none" stroke="#0000ff" d="M24.77757-49.55519 31.91621-63.83244"/>
<path transform="matrix(1,0,0,-1,13.256,6.168991)" stroke-width=".3985" stroke-linecap="butt" stroke-miterlimit="10" stroke-linejoin="miter" fill="none" stroke="#000000" d=""/>
<path transform="matrix(1,0,0,-1,13.256,6.168991)" stroke-width=".3985" stroke-linecap="butt" stroke-miterlimit="10" stroke-linejoin="miter" fill="none" stroke="#0000ff" d="M31.91621-72.23271 23.32416-89.41682"/>
<path transform="matrix(1,0,0,-1,13.256,6.168991)" stroke-width=".3985" stroke-linecap="butt" stroke-miterlimit="10" stroke-linejoin="miter" fill="none" stroke="#000000" d=""/>
<path transform="matrix(1,0,0,-1,13.256,6.168991)" stroke-width=".3985" stroke-linecap="butt" stroke-miterlimit="10" stroke-linejoin="miter" fill="none" stroke="#0000ff" d="M36.11635-72.23271 43.25499-86.50996"/>
<path transform="matrix(1,0,0,-1,13.256,6.168991)" stroke-width=".3985" stroke-linecap="butt" stroke-miterlimit="10" stroke-linejoin="miter" fill="none" stroke="#000000" d=""/>
<path transform="matrix(1,0,0,-1,13.256,6.168991)" stroke-width=".3985" stroke-linecap="butt" stroke-miterlimit="10" stroke-linejoin="miter" fill="none" stroke="#0000ff" d="M43.25499-94.91025 34.66292-112.09436"/>
<path transform="matrix(1,0,0,-1,13.256,6.168991)" stroke-width=".3985" stroke-linecap="butt" stroke-miterlimit="10" stroke-linejoin="miter" fill="none" stroke="#000000" d=""/>
<path transform="matrix(1,0,0,-1,13.256,6.168991)" stroke-width=".3985" stroke-linecap="butt" stroke-miterlimit="10" stroke-linejoin="miter" fill="none" stroke="#0000ff" d="M47.45511-94.91025 54.59375-109.1875"/>
<path transform="matrix(1,0,0,-1,13.256,6.168991)" stroke-width=".3985" stroke-linecap="butt" stroke-miterlimit="10" stroke-linejoin="miter" fill="none" stroke="#000000" d=""/>
<path transform="matrix(1,0,0,-1,13.256,6.168991)" stroke-width=".3985" stroke-linecap="butt" stroke-miterlimit="10" stroke-linejoin="miter" fill="none" stroke="#0000ff" d="M54.59375-117.58777 46.00168-134.7719"/>
<path transform="matrix(1,0,0,-1,13.256,6.168991)" stroke-width=".3985" stroke-linecap="butt" stroke-miterlimit="10" stroke-linejoin="miter" fill="none" stroke="#000000" d=""/>
<path transform="matrix(1,0,0,-1,13.256,6.168991)" stroke-width=".3985" stroke-linecap="butt" stroke-miterlimit="10" stroke-linejoin="miter" fill="none" stroke="#0000ff" d="M58.79388-117.58777 67.38594-134.7719"/>
<path transform="matrix(1,0,0,-1,13.256,6.168991)" d="M5.66934 0C5.66934 3.13112 3.13112 5.66934 0 5.66934-3.13112 5.66934-5.66934 3.13112-5.66934 0-5.66934-3.13112-3.13112-5.66934 0-5.66934 3.13112-5.66934 5.66934-3.13112 5.66934 0ZM0 0"/>
<use data-text="1" xlink:href="#font_1_82" transform="matrix(8.96638,0,0,-8.96638,10.952,9.199997)" fill="#ffffff"/>
<path transform="matrix(1,0,0,-1,1.9169998,28.845992)" d="M-1.41731-1.41731H1.41733V1.41733H-1.41731Z" fill="#0000ff"/>
<path transform="matrix(1,0,0,-1,24.595,28.845992)" d="M5.66934 0C5.66934 3.13112 3.13112 5.66934 0 5.66934-3.13112 5.66934-5.66934 3.13112-5.66934 0-5.66934-3.13112-3.13112-5.66934 0-5.66934 3.13112-5.66934 5.66934-3.13112 5.66934 0ZM0 0"/>
<use data-text="2" xlink:href="#font_1_107" transform="matrix(8.96638,0,0,-8.96638,22.289999,31.876992)" fill="#ffffff"/>
<path transform="matrix(1,0,0,-1,13.256,51.52399)" d="M-1.41731-1.41731H1.41733V1.41733H-1.41731Z" fill="#0000ff"/>
<path transform="matrix(1,0,0,-1,35.933,51.52399)" d="M5.66934 0C5.66934 3.13112 3.13112 5.66934 0 5.66934-3.13112 5.66934-5.66934 3.13112-5.66934 0-5.66934-3.13112-3.13112-5.66934 0-5.66934 3.13112-5.66934 5.66934-3.13112 5.66934 0ZM0 0"/>
<use data-text="3" xlink:href="#font_1_106" transform="matrix(8.96638,0,0,-8.96638,33.628999,54.455995)" fill="#ffffff"/>
<path transform="matrix(1,0,0,-1,24.595,74.20099)" d="M-1.41731-1.41731H1.41733V1.41733H-1.41731Z" fill="#0000ff"/>
<path transform="matrix(1,0,0,-1,47.272,74.20099)" d="M5.66934 0C5.66934 3.13112 3.13112 5.66934 0 5.66934-3.13112 5.66934-5.66934 3.13112-5.66934 0-5.66934-3.13112-3.13112-5.66934 0-5.66934 3.13112-5.66934 5.66934-3.13112 5.66934 0ZM0 0"/>
<use data-text="4" xlink:href="#font_1_57" transform="matrix(8.96638,0,0,-8.96638,44.967,77.132999)" fill="#ffffff"/>
<path transform="matrix(1,0,0,-1,35.933,96.87799)" d="M-1.41731-1.41731H1.41733V1.41733H-1.41731Z" fill="#0000ff"/>
<path transform="matrix(1,0,0,-1,58.61,96.87799)" d="M5.66934 0C5.66934 3.13112 3.13112 5.66934 0 5.66934-3.13112 5.66934-5.66934 3.13112-5.66934 0-5.66934-3.13112-3.13112-5.66934 0-5.66934 3.13112-5.66934 5.66934-3.13112 5.66934 0ZM0 0"/>
<use data-text="5" xlink:href="#font_1_56" transform="matrix(8.96638,0,0,-8.96638,56.306,99.71199)" fill="#ffffff"/>
<path transform="matrix(1,0,0,-1,47.272,119.55499)" d="M-1.41731-1.41731H1.41733V1.41733H-1.41731Z" fill="#0000ff"/>
<path transform="matrix(1,0,0,-1,69.949,119.55499)" d="M5.66934 0C5.66934 3.13112 3.13112 5.66934 0 5.66934-3.13112 5.66934-5.66934 3.13112-5.66934 0-5.66934-3.13112-3.13112-5.66934 0-5.66934 3.13112-5.66934 5.66934-3.13112 5.66934 0ZM0 0"/>
<use data-text="6" xlink:href="#font_1_101" transform="matrix(8.96638,0,0,-8.96638,67.645,122.48699)" fill="#ffffff"/>
<path transform="matrix(1,0,0,-1,58.61,142.23299)" d="M-1.41731-1.41731H1.41733V1.41733H-1.41731Z" fill="#0000ff"/>
<path transform="matrix(1,0,0,-1,81.287998,142.23299)" d="M-1.41731-1.41731H1.41733V1.41733H-1.41731Z" fill="#0000ff"/>
</svg>
