<svg xmlns="http://www.w3.org/2000/svg" xmlns:xlink="http://www.w3.org/1999/xlink" xmlns:inkscape="http://www.inkscape.org/namespaces/inkscape" version="1.1" width="264.623" height="98.796" viewBox="0 0 264.623 98.796">
<path transform="matrix(1,0,0,-1,154.989,6.169998)" stroke-width=".3985" stroke-linecap="butt" stroke-miterlimit="10" stroke-linejoin="miter" fill="none" stroke="#000000" d=""/>
<path transform="matrix(1,0,0,-1,154.989,6.169998)" stroke-width=".3985" stroke-linecap="butt" stroke-miterlimit="10" stroke-linejoin="miter" fill="none" stroke="#0000ff" d="M-143.83463-72.23271-151.53569-87.6348"/>
<path transform="matrix(-.44717,.89436,.89436,.44717,3.453308,93.8048)" d="M1.99252 0-1.19551 1.59401 0 0-1.19551-1.59401" fill="#0000ff"/>
<path transform="matrix(1,0,0,-1,154.989,6.169998)" stroke-width=".3985" stroke-linecap="butt" stroke-miterlimit="10" stroke-linejoin="miter" fill="none" stroke="#000000" d=""/>
<path transform="matrix(1,0,0,-1,154.989,6.169998)" stroke-width=".3985" stroke-linecap="butt" stroke-miterlimit="10" stroke-linejoin="miter" fill="none" stroke="#0000ff" d="M-139.63449-72.23271-131.93343-87.6348"/>
<path transform="matrix(.44717,.89436,.89436,-.44717,23.055573,93.8048)" d="M1.99252 0-1.19551 1.59401 0 0-1.19551-1.59401" fill="#0000ff"/>
<path transform="matrix(1,0,0,-1,154.989,6.169998)" stroke-width=".3985" stroke-linecap="butt" stroke-miterlimit="10" stroke-linejoin="miter" fill="none" stroke="#000000" d=""/>
<path transform="matrix(1,0,0,-1,154.989,6.169998)" stroke-width=".3985" stroke-linecap="butt" stroke-miterlimit="10" stroke-linejoin="miter" fill="none" stroke="#0000ff" d="M-98.47955-72.23271-106.18063-87.6348"/>
<path transform="matrix(-.44717,.89436,.89436,.44717,48.808366,93.8048)" d="M1.99252 0-1.19551 1.59401 0 0-1.19551-1.59401" fill="#0000ff"/>
<path transform="matrix(1,0,0,-1,154.989,6.169998)" stroke-width=".3985" stroke-linecap="butt" stroke-miterlimit="10" stroke-linejoin="miter" fill="none" stroke="#000000" d=""/>
<path transform="matrix(1,0,0,-1,154.989,6.169998)" stroke-width=".3985" stroke-linecap="butt" stroke-miterlimit="10" stroke-linejoin="miter" fill="none" stroke="#0000ff" d="M-94.27942-72.23271-86.57837-87.6348"/>
<path transform="matrix(.44717,.89436,.89436,-.44717,68.41063,93.8048)" d="M1.99252 0-1.19551 1.59401 0 0-1.19551-1.59401" fill="#0000ff"/>
<path transform="matrix(1,0,0,-1,154.989,6.169998)" stroke-width=".3985" stroke-linecap="butt" stroke-miterlimit="10" stroke-linejoin="miter" fill="none" stroke="#000000" d=""/>
<path transform="matrix(1,0,0,-1,154.989,6.169998)" stroke-width=".3985" stroke-linecap="butt" stroke-miterlimit="10" stroke-linejoin="miter" fill="none" stroke="#0000ff" d="M-122.37685-48.67485-137.00583-63.30385"/>
<path transform="matrix(-.7071,.7071,.7071,.7071,17.98317,69.47385)" d="M1.99252 0-1.19551 1.59401 0 0-1.19551-1.59401" fill="#0000ff"/>
<path transform="matrix(1,0,0,-1,154.989,6.169998)" stroke-width=".3985" stroke-linecap="butt" stroke-miterlimit="10" stroke-linejoin="miter" fill="none" stroke="#000000" d=""/>
<path transform="matrix(1,0,0,-1,154.989,6.169998)" stroke-width=".3985" stroke-linecap="butt" stroke-miterlimit="10" stroke-linejoin="miter" fill="none" stroke="#0000ff" d="M-115.73721-48.67485-101.10823-63.30385"/>
<path transform="matrix(.7071,.7071,.7071,-.7071,53.880769,69.47385)" d="M1.99252 0-1.19551 1.59401 0 0-1.19551-1.59401" fill="#0000ff"/>
<path transform="matrix(1,0,0,-1,154.989,6.169998)" stroke-width=".3985" stroke-linecap="butt" stroke-miterlimit="10" stroke-linejoin="miter" fill="none" stroke="#000000" d=""/>
<path transform="matrix(1,0,0,-1,154.989,6.169998)" stroke-width=".3985" stroke-linecap="butt" stroke-miterlimit="10" stroke-linejoin="miter" fill="none" stroke="#0000ff" d="M-53.1245-72.23271-60.82556-87.6348"/>
<path transform="matrix(-.44717,.89436,.89436,.44717,94.16344,93.8048)" d="M1.99252 0-1.19551 1.59401 0 0-1.19551-1.59401" fill="#0000ff"/>
<path transform="matrix(1,0,0,-1,154.989,6.169998)" stroke-width=".3985" stroke-linecap="butt" stroke-miterlimit="10" stroke-linejoin="miter" fill="none" stroke="#000000" d=""/>
<path transform="matrix(1,0,0,-1,154.989,6.169998)" stroke-width=".3985" stroke-linecap="butt" stroke-miterlimit="10" stroke-linejoin="miter" fill="none" stroke="#0000ff" d="M-48.92436-72.23271-41.2233-87.6348"/>
<path transform="matrix(.44717,.89436,.89436,-.44717,113.7657,93.8048)" d="M1.99252 0-1.19551 1.59401 0 0-1.19551-1.59401" fill="#0000ff"/>
<path transform="matrix(1,0,0,-1,154.989,6.169998)" stroke-width=".3985" stroke-linecap="butt" stroke-miterlimit="10" stroke-linejoin="miter" fill="none" stroke="#000000" d=""/>
<path transform="matrix(1,0,0,-1,154.989,6.169998)" stroke-width=".3985" stroke-linecap="butt" stroke-miterlimit="10" stroke-linejoin="miter" fill="none" stroke="#0000ff" d="M-7.76944-72.23271-15.4705-87.6348"/>
<path transform="matrix(-.44717,.89436,.89436,.44717,139.5185,93.8048)" d="M1.99252 0-1.19551 1.59401 0 0-1.19551-1.59401" fill="#0000ff"/>
<path transform="matrix(1,0,0,-1,154.989,6.169998)" stroke-width=".3985" stroke-linecap="butt" stroke-miterlimit="10" stroke-linejoin="miter" fill="none" stroke="#000000" d=""/>
<path transform="matrix(1,0,0,-1,154.989,6.169998)" stroke-width=".3985" stroke-linecap="butt" stroke-miterlimit="10" stroke-linejoin="miter" fill="none" stroke="#0000ff" d="M-3.56929-72.23271 4.13173-87.6348"/>
<path transform="matrix(.44717,.89436,.89436,-.44717,159.12073,93.8048)" d="M1.99252 0-1.19551 1.59401 0 0-1.19551-1.59401" fill="#0000ff"/>
<path transform="matrix(1,0,0,-1,154.989,6.169998)" stroke-width=".3985" stroke-linecap="butt" stroke-miterlimit="10" stroke-linejoin="miter" fill="none" stroke="#000000" d=""/>
<path transform="matrix(1,0,0,-1,154.989,6.169998)" stroke-width=".3985" stroke-linecap="butt" stroke-miterlimit="10" stroke-linejoin="miter" fill="none" stroke="#0000ff" d="M-31.66672-48.67485-46.2957-63.30385"/>
<path transform="matrix(-.7071,.7071,.7071,.7071,108.6933,69.47385)" d="M1.99252 0-1.19551 1.59401 0 0-1.19551-1.59401" fill="#0000ff"/>
<path transform="matrix(1,0,0,-1,154.989,6.169998)" stroke-width=".3985" stroke-linecap="butt" stroke-miterlimit="10" stroke-linejoin="miter" fill="none" stroke="#000000" d=""/>
<path transform="matrix(1,0,0,-1,154.989,6.169998)" stroke-width=".3985" stroke-linecap="butt" stroke-miterlimit="10" stroke-linejoin="miter" fill="none" stroke="#0000ff" d="M-25.02708-48.67485-10.3981-63.30385"/>
<path transform="matrix(.7071,.7071,.7071,-.7071,144.5909,69.47385)" d="M1.99252 0-1.19551 1.59401 0 0-1.19551-1.59401" fill="#0000ff"/>
<path transform="matrix(1,0,0,-1,154.989,6.169998)" stroke-width=".3985" stroke-linecap="butt" stroke-miterlimit="10" stroke-linejoin="miter" fill="none" stroke="#000000" d=""/>
<path transform="matrix(1,0,0,-1,154.989,6.169998)" stroke-width=".3985" stroke-linecap="butt" stroke-miterlimit="10" stroke-linejoin="miter" fill="none" stroke="#0000ff" d="M-77.9021-24.77759-113.07486-42.36398"/>
<path transform="matrix(-.89436,.44717,.44717,.89436,41.91414,48.533979)" d="M1.99252 0-1.19551 1.59401 0 0-1.19551-1.59401" fill="#0000ff"/>
<path transform="matrix(1,0,0,-1,154.989,6.169998)" stroke-width=".3985" stroke-linecap="butt" stroke-miterlimit="10" stroke-linejoin="miter" fill="none" stroke="#000000" d=""/>
<path transform="matrix(1,0,0,-1,154.989,6.169998)" stroke-width=".3985" stroke-linecap="butt" stroke-miterlimit="10" stroke-linejoin="miter" fill="none" stroke="#0000ff" d="M-69.50183-24.77759-34.32907-42.36398"/>
<path transform="matrix(.89436,.44717,.44717,-.89436,120.65993,48.533979)" d="M1.99252 0-1.19551 1.59401 0 0-1.19551-1.59401" fill="#0000ff"/>
<path transform="matrix(1,0,0,-1,154.989,6.169998)" stroke-width=".3985" stroke-linecap="butt" stroke-miterlimit="10" stroke-linejoin="miter" fill="none" stroke="#000000" d=""/>
<path transform="matrix(1,0,0,-1,154.989,6.169998)" stroke-width=".3985" stroke-linecap="butt" stroke-miterlimit="10" stroke-linejoin="miter" fill="none" stroke="#0000ff" d="M37.58559-72.23271 29.88454-87.6348"/>
<path transform="matrix(-.44717,.89436,.89436,.44717,184.87354,93.8048)" d="M1.99252 0-1.19551 1.59401 0 0-1.19551-1.59401" fill="#0000ff"/>
<path transform="matrix(1,0,0,-1,154.989,6.169998)" stroke-width=".3985" stroke-linecap="butt" stroke-miterlimit="10" stroke-linejoin="miter" fill="none" stroke="#000000" d=""/>
<path transform="matrix(1,0,0,-1,154.989,6.169998)" stroke-width=".3985" stroke-linecap="butt" stroke-miterlimit="10" stroke-linejoin="miter" fill="none" stroke="#0000ff" d="M41.78574-72.23271 49.4868-87.6348"/>
<path transform="matrix(.44717,.89436,.89436,-.44717,204.4758,93.8048)" d="M1.99252 0-1.19551 1.59401 0 0-1.19551-1.59401" fill="#0000ff"/>
<path transform="matrix(1,0,0,-1,154.989,6.169998)" stroke-width=".3985" stroke-linecap="butt" stroke-miterlimit="10" stroke-linejoin="miter" fill="none" stroke="#000000" d=""/>
<path transform="matrix(1,0,0,-1,154.989,6.169998)" stroke-width=".3985" stroke-linecap="butt" stroke-miterlimit="10" stroke-linejoin="miter" fill="none" stroke="#0000ff" d="M48.92436-49.55519 42.67673-62.05042"/>
<path transform="matrix(-.44717,.89436,.89436,.44717,197.66573,68.22041)" d="M1.99252 0-1.19551 1.59401 0 0-1.19551-1.59401" fill="#0000ff"/>
<path transform="matrix(1,0,0,-1,154.989,6.169998)" stroke-width=".3985" stroke-linecap="butt" stroke-miterlimit="10" stroke-linejoin="miter" fill="none" stroke="#000000" d=""/>
<path transform="matrix(1,0,0,-1,154.989,6.169998)" stroke-width=".3985" stroke-linecap="butt" stroke-miterlimit="10" stroke-linejoin="miter" fill="none" stroke="#0000ff" d="M53.1245-49.55519 60.82556-64.95728"/>
<path transform="matrix(.44717,.89436,.89436,-.44717,215.81456,71.12728)" d="M1.99252 0-1.19551 1.59401 0 0-1.19551-1.59401" fill="#0000ff"/>
<path transform="matrix(1,0,0,-1,154.989,6.169998)" stroke-width=".3985" stroke-linecap="butt" stroke-miterlimit="10" stroke-linejoin="miter" fill="none" stroke="#000000" d=""/>
<path transform="matrix(1,0,0,-1,154.989,6.169998)" stroke-width=".3985" stroke-linecap="butt" stroke-miterlimit="10" stroke-linejoin="miter" fill="none" stroke="#0000ff" d="M94.27942-49.55519 86.57837-64.95728"/>
<path transform="matrix(-.44717,.89436,.89436,.44717,241.56737,71.12728)" d="M1.99252 0-1.19551 1.59401 0 0-1.19551-1.59401" fill="#0000ff"/>
<path transform="matrix(1,0,0,-1,154.989,6.169998)" stroke-width=".3985" stroke-linecap="butt" stroke-miterlimit="10" stroke-linejoin="miter" fill="none" stroke="#000000" d=""/>
<path transform="matrix(1,0,0,-1,154.989,6.169998)" stroke-width=".3985" stroke-linecap="butt" stroke-miterlimit="10" stroke-linejoin="miter" fill="none" stroke="#0000ff" d="M98.47955-49.55519 106.18063-64.95728"/>
<path transform="matrix(.44717,.89436,.89436,-.44717,261.16963,71.12728)" d="M1.99252 0-1.19551 1.59401 0 0-1.19551-1.59401" fill="#0000ff"/>
<path transform="matrix(1,0,0,-1,154.989,6.169998)" stroke-width=".3985" stroke-linecap="butt" stroke-miterlimit="10" stroke-linejoin="miter" fill="none" stroke="#000000" d=""/>
<path transform="matrix(1,0,0,-1,154.989,6.169998)" stroke-width=".3985" stroke-linecap="butt" stroke-miterlimit="10" stroke-linejoin="miter" fill="none" stroke="#0000ff" d="M70.38214-25.99731 55.75314-40.62631"/>
<path transform="matrix(-.70709,.7071,.7071,.70709,210.74214,46.796308)" d="M1.99252 0-1.19551 1.59401 0 0-1.19551-1.59401" fill="#0000ff"/>
<path transform="matrix(1,0,0,-1,154.989,6.169998)" stroke-width=".3985" stroke-linecap="butt" stroke-miterlimit="10" stroke-linejoin="miter" fill="none" stroke="#000000" d=""/>
<path transform="matrix(1,0,0,-1,154.989,6.169998)" stroke-width=".3985" stroke-linecap="butt" stroke-miterlimit="10" stroke-linejoin="miter" fill="none" stroke="#0000ff" d="M77.02179-25.99731 91.65079-40.62631"/>
<path transform="matrix(.70709,.7071,.7071,-.70709,246.63979,46.796308)" d="M1.99252 0-1.19551 1.59401 0 0-1.19551-1.59401" fill="#0000ff"/>
<path transform="matrix(1,0,0,-1,154.989,6.169998)" stroke-width=".3985" stroke-linecap="butt" stroke-miterlimit="10" stroke-linejoin="miter" fill="none" stroke="#000000" d=""/>
<path transform="matrix(1,0,0,-1,154.989,6.169998)" stroke-width=".3985" stroke-linecap="butt" stroke-miterlimit="10" stroke-linejoin="miter" fill="none" stroke="#0000ff" d="M-4.48839-1.38103-67.3092-20.71051"/>
<path transform="matrix(-.95575,.29408,.29408,.95575,87.6798,26.880509)" d="M1.99252 0-1.19551 1.59401 0 0-1.19551-1.59401" fill="#0000ff"/>
<path transform="matrix(1,0,0,-1,154.989,6.169998)" stroke-width=".3985" stroke-linecap="butt" stroke-miterlimit="10" stroke-linejoin="miter" fill="none" stroke="#000000" d=""/>
<path transform="matrix(1,0,0,-1,154.989,6.169998)" stroke-width=".3985" stroke-linecap="butt" stroke-miterlimit="10" stroke-linejoin="miter" fill="none" stroke="#0000ff" d="M4.48839-1.38103 67.3092-20.71051"/>
<path transform="matrix(.95575,.29408,.29408,-.95575,222.29819,26.880509)" d="M1.99252 0-1.19551 1.59401 0 0-1.19551-1.59401" fill="#0000ff"/>
<path transform="matrix(1,0,0,-1,154.989,6.169998)" d="M5.66934 0C5.66934 3.13112 3.13112 5.66934 0 5.66934-3.13112 5.66934-5.66934 3.13112-5.66934 0-5.66934-3.13112-3.13112-5.66934 0-5.66934 3.13112-5.66934 5.66934-3.13112 5.66934 0ZM0 0"/>
<path transform="matrix(1,0,0,-1,81.288,28.846999)" d="M5.66934 0C5.66934 3.13112 3.13112 5.66934 0 5.66934-3.13112 5.66934-5.66934 3.13112-5.66934 0-5.66934-3.13112-3.13112-5.66934 0-5.66934 3.13112-5.66934 5.66934-3.13112 5.66934 0ZM0 0"/>
<path transform="matrix(1,0,0,-1,35.933,51.524)" d="M5.66934 0C5.66934 3.13112 3.13112 5.66934 0 5.66934-3.13112 5.66934-5.66934 3.13112-5.66934 0-5.66934-3.13112-3.13112-5.66934 0-5.66934 3.13112-5.66934 5.66934-3.13112 5.66934 0ZM0 0"/>
<path transform="matrix(1,0,0,-1,13.255997,74.201)" d="M5.66934 0C5.66934 3.13112 3.13112 5.66934 0 5.66934-3.13112 5.66934-5.66934 3.13112-5.66934 0-5.66934-3.13112-3.13112-5.66934 0-5.66934 3.13112-5.66934 5.66934-3.13112 5.66934 0ZM0 0"/>
<path transform="matrix(1,0,0,-1,1.9169922,96.879)" d="M-1.41731-1.41731H1.41733V1.41733H-1.41731Z" fill="#0000ff"/>
<path transform="matrix(1,0,0,-1,24.595002,96.879)" d="M-1.41731-1.41731H1.41733V1.41733H-1.41731Z" fill="#0000ff"/>
<path transform="matrix(1,0,0,-1,58.61,74.201)" d="M5.66934 0C5.66934 3.13112 3.13112 5.66934 0 5.66934-3.13112 5.66934-5.66934 3.13112-5.66934 0-5.66934-3.13112-3.13112-5.66934 0-5.66934 3.13112-5.66934 5.66934-3.13112 5.66934 0ZM0 0"/>
<path transform="matrix(1,0,0,-1,47.271997,96.879)" d="M-1.41731-1.41731H1.41733V1.41733H-1.41731Z" fill="#0000ff"/>
<path transform="matrix(1,0,0,-1,69.949,96.879)" d="M-1.41731-1.41731H1.41733V1.41733H-1.41731Z" fill="#0000ff"/>
<path transform="matrix(1,0,0,-1,126.642,51.524)" d="M5.66934 0C5.66934 3.13112 3.13112 5.66934 0 5.66934-3.13112 5.66934-5.66934 3.13112-5.66934 0-5.66934-3.13112-3.13112-5.66934 0-5.66934 3.13112-5.66934 5.66934-3.13112 5.66934 0ZM0 0"/>
<path transform="matrix(1,0,0,-1,103.965,74.201)" d="M5.66934 0C5.66934 3.13112 3.13112 5.66934 0 5.66934-3.13112 5.66934-5.66934 3.13112-5.66934 0-5.66934-3.13112-3.13112-5.66934 0-5.66934 3.13112-5.66934 5.66934-3.13112 5.66934 0ZM0 0"/>
<path transform="matrix(1,0,0,-1,92.626,96.879)" d="M-1.41731-1.41731H1.41733V1.41733H-1.41731Z" fill="#0000ff"/>
<path transform="matrix(1,0,0,-1,115.304,96.879)" d="M-1.41731-1.41731H1.41733V1.41733H-1.41731Z" fill="#0000ff"/>
<path transform="matrix(1,0,0,-1,149.319,74.201)" d="M5.66934 0C5.66934 3.13112 3.13112 5.66934 0 5.66934-3.13112 5.66934-5.66934 3.13112-5.66934 0-5.66934-3.13112-3.13112-5.66934 0-5.66934 3.13112-5.66934 5.66934-3.13112 5.66934 0ZM0 0"/>
<path transform="matrix(1,0,0,-1,137.981,96.879)" d="M-1.41731-1.41731H1.41733V1.41733H-1.41731Z" fill="#0000ff"/>
<path transform="matrix(1,0,0,-1,160.658,96.879)" d="M-1.41731-1.41731H1.41733V1.41733H-1.41731Z" fill="#0000ff"/>
<path transform="matrix(1,0,0,-1,228.69,28.846999)" d="M5.66934 0C5.66934 3.13112 3.13112 5.66934 0 5.66934-3.13112 5.66934-5.66934 3.13112-5.66934 0-5.66934-3.13112-3.13112-5.66934 0-5.66934 3.13112-5.66934 5.66934-3.13112 5.66934 0ZM0 0"/>
<path transform="matrix(1,0,0,-1,206.012,51.524)" d="M5.66934 0C5.66934 3.13112 3.13112 5.66934 0 5.66934-3.13112 5.66934-5.66934 3.13112-5.66934 0-5.66934-3.13112-3.13112-5.66934 0-5.66934 3.13112-5.66934 5.66934-3.13112 5.66934 0ZM0 0"/>
<path transform="matrix(1,0,0,-1,194.674,74.201)" d="M5.66934 0C5.66934 3.13112 3.13112 5.66934 0 5.66934-3.13112 5.66934-5.66934 3.13112-5.66934 0-5.66934-3.13112-3.13112-5.66934 0-5.66934 3.13112-5.66934 5.66934-3.13112 5.66934 0ZM0 0"/>
<path transform="matrix(1,0,0,-1,183.33499,96.879)" d="M-1.41731-1.41731H1.41733V1.41733H-1.41731Z" fill="#0000ff"/>
<path transform="matrix(1,0,0,-1,206.012,96.879)" d="M-1.41731-1.41731H1.41733V1.41733H-1.41731Z" fill="#0000ff"/>
<path transform="matrix(1,0,0,-1,217.351,74.201)" d="M-1.41731-1.41731H1.41733V1.41733H-1.41731Z" fill="#0000ff"/>
<path transform="matrix(1,0,0,-1,251.367,51.524)" d="M5.66934 0C5.66934 3.13112 3.13112 5.66934 0 5.66934-3.13112 5.66934-5.66934 3.13112-5.66934 0-5.66934-3.13112-3.13112-5.66934 0-5.66934 3.13112-5.66934 5.66934-3.13112 5.66934 0ZM0 0"/>
<path transform="matrix(1,0,0,-1,240.028,74.201)" d="M-1.41731-1.41731H1.41733V1.41733H-1.41731Z" fill="#0000ff"/>
<path transform="matrix(1,0,0,-1,262.706,74.201)" d="M-1.41731-1.41731H1.41733V1.41733H-1.41731Z" fill="#0000ff"/>
</svg>
