<svg xmlns="http://www.w3.org/2000/svg" xmlns:xlink="http://www.w3.org/1999/xlink" xmlns:inkscape="http://www.inkscape.org/namespaces/inkscape" version="1.1" width="375.12" height="262.08" viewBox="0 0 375.12 262.08">
<defs>
<clipPath id="clip_1">
<path transform="matrix(.24,0,0,.24,0,0)" d="M0 0H1562.5V1090.4636H0Z" clip-rule="evenodd"/>
</clipPath>
<clipPath id="clip_2">
<path transform="matrix(.24,0,0,.24,0,0)" d="M0 0H1562.5V1084.4885H0Z" clip-rule="evenodd"/>
</clipPath>
<path id="font_3_62" d="M.067871097-.19921875V.7158203H.26171876V.6425781H.15576172V-.12597656H.26171876V-.19921875H.067871097Z"/>
<path id="font_3_19" d="M.041503908 .35327149C.041503908 .43784587 .05021159 .50591537 .06762695 .55747988 .08504232 .6090444 .11092123 .6488139 .14526367 .67678835 .17960613 .70476278 .22281902 .71875 .27490235 .71875 .3133138 .71875 .34700523 .711024 .37597657 .6955719 .4049479 .6801198 .4288737 .6578369 .4477539 .62872317 .46663413 .5996094 .4814453 .56414797 .4921875 .52233889 .5029297 .48053996 .5083008 .42418418 .5083008 .35327149 .5083008 .26934815 .49967448 .2016042 .48242188 .15003968 .46516929 .098475139 .43937174 .058624269 .4050293 .03048706 .37068687 .0023498536 .3273112-.01171875 .27490235-.01171875 .20589192-.01171875 .1516927 .013005574 .11230469 .062454225 .065104167 .12198385 .041503908 .21892293 .041503908 .35327149M.13183594 .35351563C.13183594 .23639934 .14558919 .15845235 .1730957 .11967468 .20060222 .08090719 .23453777 .061523439 .27490235 .061523439 .31526695 .061523439 .34920249 .08098856 .37670899 .11991882 .40421549 .15884908 .41796876 .23671468 .41796876 .35351563 .41796876 .47095744 .40421549 .5489807 .37670899 .58758547 .34920249 .6262004 .3149414 .6455078 .27392579 .6455078 .2335612 .6455078 .20133464 .62847396 .1772461 .5944061 .14697266 .5509288 .13183594 .47063194 .13183594 .35351563Z"/>
<path id="font_3_64" d="M.21289063-.19921875H.019042969V-.12597656H.125V.6425781H.019042969V.7158203H.21289063V-.19921875Z"/>
<path id="font_3_20" d="M.3725586 0H.28466798V.5600586C.26350913 .5398763 .23575847 .51969406 .20141602 .49951173 .16707357 .47932945 .13623047 .46419273 .10888672 .45410157V.5390625C.15804036 .5621745 .20100911 .59016928 .23779297 .6230469 .2745768 .6559245 .3006185 .6878255 .31591798 .71875H.3725586V0Z"/>
<path id="font_3_21" d="M.50341799 .084472659V0H.030273438C.029622397 .021148682 .033040365 .041483564 .040527345 .06100464 .052571615 .09321085 .07185873 .124928798 .09838867 .15615845 .12491862 .1873881 .1632487 .22350057 .2133789 .26449586 .29117839 .3282369 .34375 .37872825 .37109376 .41596986 .3984375 .45321147 .41210938 .48841859 .41210938 .5215912 .41210938 .5563914 .3996582 .5857442 .37475587 .60964968 .34985353 .6335551 .3173828 .6455078 .27734376 .6455078 .23502605 .6455078 .20117188 .6328125 .17578125 .6074219 .15039063 .58203127 .13753255 .546875 .13720703 .5019531L.046875 .5112457C.053059896 .5787811 .07633463 .630249 .11669922 .6656494 .1570638 .7010498 .21126302 .71875 .27929688 .71875 .34798179 .71875 .40234376 .69970199 .4423828 .66160586 .48242188 .6235097 .5024414 .57629397 .5024414 .5199585 .5024414 .4913025 .49658204 .46313478 .48486329 .43545533 .47314454 .40777589 .45369468 .3786316 .42651368 .34802247 .39933268 .3174235 .35416667 .27542115 .29101563 .22201538 .23828125 .17779541 .20442708 .14779663 .18945313 .13201905 .17447917 .116251628 .16210938 .10040283 .15234375 .084472659H.50341799Z"/>
<path id="font_3_22" d="M.041992189 .19042969 .12988281 .20214844C.13997396 .15234375 .15714519 .11645508 .18139649 .09448242 .20564778 .072509769 .2351888 .061523439 .27001954 .061523439 .3113607 .061523439 .3462728 .07582092 .37475587 .10441589 .40323893 .13301087 .41748048 .1684316 .41748048 .2106781 .41748048 .25098167 .40429688 .2842102 .3779297 .31036378 .3515625 .3365275 .31803385 .34960938 .27734376 .34960938 .2607422 .34960938 .24007161 .34635417 .21533203 .33984376L.22509766 .4169922C.23095703 .41634117 .23567708 .41601563 .23925781 .41601563 .27669273 .41601563 .31038413 .42569987 .34033204 .44506837 .37027995 .46443687 .3852539 .4942932 .3852539 .53463748 .3852539 .56658938 .37434898 .59305319 .35253907 .61402896 .33072917 .63501486 .30257163 .6455078 .2680664 .6455078 .23388672 .6455078 .20540364 .6347656 .18261719 .61328127 .15983074 .5917969 .1451823 .5595703 .13867188 .51660159L.05078125 .53222659C.061523439 .591451 .0859375 .63734439 .12402344 .6699066 .16210938 .7024689 .20947266 .71875 .26611329 .71875 .30517579 .71875 .34114585 .71039327 .37402345 .6936798 .40690104 .67696639 .43204753 .6541646 .4494629 .62527468 .46687828 .59639486 .47558595 .5657247 .47558595 .53326418 .47558595 .5024312 .46728517 .47435508 .4506836 .44903565 .43408204 .4237264 .40950523 .40360514 .37695313 .38867188 .41927085 .37890626 .45214845 .35864259 .47558595 .32788087 .49902345 .29711915 .5107422 .2586263 .5107422 .21240235 .5107422 .14990235 .48795573 .09692383 .4423828 .053466798 .3968099 .010009766 .33919273-.01171875 .26953126-.01171875 .20670574-.01171875 .15454102 .007044474 .11303711 .044570924 .0715332 .082097377 .047851564 .13071697 .041992189 .19042969Z"/>
<path id="font_3_85" d="M.064941409 0V.5185547H.14404297V.4404297C.16422527 .4770101 .18286133 .50112918 .19995117 .51278689 .21704102 .5244446 .23583985 .53027346 .25634767 .53027346 .28597007 .53027346 .31608073 .520874 .3466797 .5020752L.31640626 .42089845C.29492188 .43359376 .2734375 .4399414 .25195313 .4399414 .23274739 .4399414 .2154948 .43415324 .20019531 .4225769 .18489583 .41101075 .17399089 .3949636 .16748047 .37443543 .15771485 .3431549 .15283203 .3089396 .15283203 .27178956V0H.064941409Z"/>
<path id="font_3_82" d="M.033203126 .25927735C.033203126 .355306 .059895833 .42643229 .11328125 .47265626 .15787761 .5110677 .21223958 .53027346 .2763672 .53027346 .34765626 .53027346 .40592448 .5069173 .45117188 .46020509 .49641929 .41349284 .51904299 .34895835 .51904299 .26660157 .51904299 .1998698 .5090332 .14737956 .48901368 .10913086 .46899415 .070882167 .43986003 .041178388 .40161134 .020019532 .36336265-.0011393229 .3216146-.01171875 .2763672-.01171875 .20377605-.01171875 .1451009 .011555989 .1003418 .05810547 .055582685 .104654949 .033203126 .17171224 .033203126 .25927735M.123535159 .25952149C.123535159 .19335938 .13802083 .14381917 .16699219 .11090088 .19596355 .07798258 .23242188 .061523439 .2763672 .061523439 .31998698 .061523439 .35628257 .078063968 .3852539 .11114502 .41422526 .14422608 .42871095 .19465637 .42871095 .2624359 .42871095 .32632957 .4141439 .3747355 .38500978 .4076538 .35587565 .4405721 .31966148 .45703126 .2763672 .45703126 .23242188 .45703126 .19596355 .44065348 .16699219 .40789796 .13802083 .37514244 .123535159 .3256836 .123535159 .25952149Z"/>
<path id="font_3_90" d="M.1616211 0 .0029296876 .5185547H.09375L.17626953 .21928406 .20703125 .107910159C.20833333 .11343384 .21728516 .14904277 .23388672 .21473694L.31640626 .5185547H.40673829L.484375 .21783448 .5102539 .118652347 .54003909 .21876526 .62890627 .5185547H.71435549L.5522461 0H.4609375L.37841798 .31071473 .35839845 .39892579 .25341798 0H.1616211Z"/>
<path id="font_3_70" d="M.40429688 .19042969 .49072267 .17919922C.48128257 .11947632 .45711265 .07272339 .4182129 .03894043 .37931315 .005167643 .33154298-.01171875 .27490235-.01171875 .2039388-.01171875 .14689128 .011474609 .103759769 .057861329 .060628255 .10424805 .0390625 .17073567 .0390625 .25732423 .0390625 .3133138 .048339845 .3623047 .06689453 .40429688 .08544922 .44628907 .11368815 .4777832 .15161133 .4987793 .1895345 .5197754 .23079427 .53027346 .27539063 .53027346 .33170573 .53027346 .37776695 .51598617 .41357423 .4874115 .4493815 .45884706 .47233073 .4182841 .48242188 .36572267L.39697267 .35253907C.38883464 .38720704 .37443034 .4132894 .35375978 .43078614 .3330892 .44828288 .30810548 .45703126 .2788086 .45703126 .23453777 .45703126 .1985677 .4412384 .17089844 .4096527 .14322917 .37807719 .12939453 .32811485 .12939453 .25976563 .12939453 .19043987 .14274089 .1400655 .1694336 .10864258 .1961263 .07722982 .23095703 .061523439 .27392579 .061523439 .308431 .061523439 .3372396 .07206217 .36035157 .09313965 .38346354 .114217128 .39811198 .14664714 .40429688 .19042969Z"/>
<path id="font_3_79" d="M.063964847 0V.7158203H.15185547V0H.063964847Z"/>
<path id="font_3_88" d="M.40576173 0V.076171878C.36539714 .017578125 .31054688-.01171875 .24121094-.01171875 .21061199-.01171875 .18204753-.005859375 .15551758 .005859375 .12898763 .017578125 .10929362 .03230794 .09643555 .050048829 .08357748 .06778971 .07454427 .08951823 .06933594 .115234378 .06575521 .13248699 .063964847 .15983074 .063964847 .19726563V.5185547H.15185547V.23095703C.15185547 .1850586 .15364583 .15413411 .15722656 .1381836 .16276042 .11507162 .17447917 .09692383 .19238281 .083740238 .21028646 .07055664 .23242188 .063964847 .25878907 .063964847 .28515626 .063964847 .30989585 .0707194 .3330078 .084228519 .35611979 .09773763 .3724772 .116129558 .38208009 .1394043 .39168296 .16267903 .39648438 .19645183 .39648438 .24072266V.5185547H.484375V0H.40576173Z"/>
<path id="font_3_80" d="M.06591797 0V.5185547H.14453125V.44628907C.1608073 .47153727 .18245442 .4918467 .20947266 .5072174 .23649089 .5225881 .2672526 .53027346 .3017578 .53027346 .34016929 .53027346 .37166343 .52233889 .39624024 .5064697 .42081706 .49061076 .43815104 .46843467 .4482422 .4399414 .4892578 .5001628 .54264327 .53027346 .60839846 .53027346 .65983077 .53027346 .69938156 .5160319 .7270508 .48754884 .75472006 .45906578 .7685547 .4152018 .7685547 .35595704V0H.68115237V.3270111C.68115237 .36220805 .678304 .38754273 .6726074 .40301515 .6669108 .4184977 .6565755 .43096415 .64160159 .44041444 .6266276 .44986473 .6090495 .45458985 .5888672 .45458985 .5524089 .45458985 .52213546 .44244895 .49804688 .4181671 .47395835 .39389549 .46191407 .3550364 .46191407 .30158998V0H.37402345V.33728028C.37402345 .37638346 .36686198 .40571086 .35253907 .42526246 .33821617 .44481407 .31477867 .45458985 .28222657 .45458985 .25748698 .45458985 .23461914 .44806925 .21362305 .43502809 .19262696 .42199708 .17740886 .40293376 .16796875 .37783814 .15852864 .3527527 .1538086 .31658427 .1538086 .2693329V0H.06591797Z"/>
<path id="font_3_81" d="M.06591797 0V.5185547H.14501953V.4453125C.18310547 .5019531 .23811849 .53027346 .3100586 .53027346 .3413086 .53027346 .3700358 .5246582 .39624024 .51342776 .42244468 .50219729 .44205729 .48746745 .45507813 .46923829 .46809898 .45100913 .47721354 .42936198 .48242188 .40429688 .4856771 .38802085 .4873047 .35953776 .4873047 .31884767V0H.39941407V.31576539C.39941407 .35161338 .3959961 .37841798 .38916017 .3961792 .38232423 .41394044 .37019859 .42811585 .3527832 .43870545 .33536784 .44929505 .3149414 .45458985 .2915039 .45458985 .254069 .45458985 .22176107 .44269309 .19458008 .41889955 .1673991 .39511619 .1538086 .34998576 .1538086 .2835083V0H.06591797Z"/>
</defs>
<g clip-path="url(#clip_1)">
<path transform="matrix(.7170172,0,0,.7170172,0,0)" d="M0 0H523V365H0Z" fill="#ffffff"/>
</g>
<g clip-path="url(#clip_2)">
<path transform="matrix(.7170172,0,0,.7170172,.3585086,.3585086)" d="M201 121H281V201H201Z" fill="#dae8fc"/>
<path transform="matrix(.7170172,0,0,.7170172,.3585086,.3585086)" stroke-width="1" stroke-linecap="butt" stroke-miterlimit="4" stroke-linejoin="miter" fill="none" stroke="#000000" d="M201 121H281V201H201Z"/>
<use data-text="[" xlink:href="#font_3_62" transform="matrix(11.472275,0,0,-11.472275,160.04047,119.74187)"/>
<use data-text="0" xlink:href="#font_3_19" transform="matrix(11.472275,0,0,-11.472275,163.22977,119.74187)"/>
<use data-text="]" xlink:href="#font_3_64" transform="matrix(11.472275,0,0,-11.472275,169.60836,119.74187)"/>
<use data-text="[" xlink:href="#font_3_62" transform="matrix(11.472275,0,0,-11.472275,172.79764,119.74187)"/>
<use data-text="0" xlink:href="#font_3_19" transform="matrix(11.472275,0,0,-11.472275,175.98693,119.74187)"/>
<use data-text="]" xlink:href="#font_3_64" transform="matrix(11.472275,0,0,-11.472275,182.36551,119.74187)"/>
<path transform="matrix(.7170172,0,0,.7170172,.3585086,.3585086)" d="M281 121H361V201H281Z" fill="#dae8fc"/>
<path transform="matrix(.7170172,0,0,.7170172,.3585086,.3585086)" stroke-width="1" stroke-linecap="butt" stroke-miterlimit="4" stroke-linejoin="miter" fill="none" stroke="#000000" d="M281 121H361V201H281Z"/>
<use data-text="[" xlink:href="#font_3_62" transform="matrix(11.472275,0,0,-11.472275,217.40184,119.74187)"/>
<use data-text="0" xlink:href="#font_3_19" transform="matrix(11.472275,0,0,-11.472275,220.59114,119.74187)"/>
<use data-text="]" xlink:href="#font_3_64" transform="matrix(11.472275,0,0,-11.472275,226.96973,119.74187)"/>
<use data-text="[" xlink:href="#font_3_62" transform="matrix(11.472275,0,0,-11.472275,230.15901,119.74187)"/>
<use data-text="1" xlink:href="#font_3_20" transform="matrix(11.472275,0,0,-11.472275,233.3483,119.74187)"/>
<use data-text="]" xlink:href="#font_3_64" transform="matrix(11.472275,0,0,-11.472275,239.72689,119.74187)"/>
<path transform="matrix(.7170172,0,0,.7170172,.3585086,.3585086)" d="M361 121H441V201H361Z" fill="#dae8fc"/>
<path transform="matrix(.7170172,0,0,.7170172,.3585086,.3585086)" stroke-width="1" stroke-linecap="butt" stroke-miterlimit="4" stroke-linejoin="miter" fill="none" stroke="#000000" d="M361 121H441V201H361Z"/>
<use data-text="[" xlink:href="#font_3_62" transform="matrix(11.472275,0,0,-11.472275,274.7632,119.74187)"/>
<use data-text="0" xlink:href="#font_3_19" transform="matrix(11.472275,0,0,-11.472275,277.9525,119.74187)"/>
<use data-text="]" xlink:href="#font_3_64" transform="matrix(11.472275,0,0,-11.472275,284.3311,119.74187)"/>
<use data-text="[" xlink:href="#font_3_62" transform="matrix(11.472275,0,0,-11.472275,287.5204,119.74187)"/>
<use data-text="2" xlink:href="#font_3_21" transform="matrix(11.472275,0,0,-11.472275,290.7097,119.74187)"/>
<use data-text="]" xlink:href="#font_3_64" transform="matrix(11.472275,0,0,-11.472275,297.08827,119.74187)"/>
<path transform="matrix(.7170172,0,0,.7170172,.3585086,.3585086)" d="M441 121H521V201H441Z" fill="#dae8fc"/>
<path transform="matrix(.7170172,0,0,.7170172,.3585086,.3585086)" stroke-width="1" stroke-linecap="butt" stroke-miterlimit="4" stroke-linejoin="miter" fill="none" stroke="#000000" d="M441 121H521V201H441Z"/>
<use data-text="[" xlink:href="#font_3_62" transform="matrix(11.472275,0,0,-11.472275,332.1246,119.74187)"/>
<use data-text="0" xlink:href="#font_3_19" transform="matrix(11.472275,0,0,-11.472275,335.31388,119.74187)"/>
<use data-text="]" xlink:href="#font_3_64" transform="matrix(11.472275,0,0,-11.472275,341.69248,119.74187)"/>
<use data-text="[" xlink:href="#font_3_62" transform="matrix(11.472275,0,0,-11.472275,344.88175,119.74187)"/>
<use data-text="3" xlink:href="#font_3_22" transform="matrix(11.472275,0,0,-11.472275,348.07106,119.74187)"/>
<use data-text="]" xlink:href="#font_3_64" transform="matrix(11.472275,0,0,-11.472275,354.44966,119.74187)"/>
<path transform="matrix(.7170172,0,0,.7170172,.3585086,.3585086)" d="M201 201H281V281H201Z" fill="#d5e8d4"/>
<path transform="matrix(.7170172,0,0,.7170172,.3585086,.3585086)" stroke-width="1" stroke-linecap="butt" stroke-miterlimit="4" stroke-linejoin="miter" fill="none" stroke="#000000" d="M201 201H281V281H201Z"/>
<use data-text="[" xlink:href="#font_3_62" transform="matrix(11.472275,0,0,-11.472275,160.04047,177.10324)"/>
<use data-text="1" xlink:href="#font_3_20" transform="matrix(11.472275,0,0,-11.472275,163.22977,177.10324)"/>
<use data-text="]" xlink:href="#font_3_64" transform="matrix(11.472275,0,0,-11.472275,169.60836,177.10324)"/>
<use data-text="[" xlink:href="#font_3_62" transform="matrix(11.472275,0,0,-11.472275,172.79764,177.10324)"/>
<use data-text="0" xlink:href="#font_3_19" transform="matrix(11.472275,0,0,-11.472275,175.98693,177.10324)"/>
<use data-text="]" xlink:href="#font_3_64" transform="matrix(11.472275,0,0,-11.472275,182.36551,177.10324)"/>
<path transform="matrix(.7170172,0,0,.7170172,.3585086,.3585086)" d="M281 201H361V281H281Z" fill="#d5e8d4"/>
<path transform="matrix(.7170172,0,0,.7170172,.3585086,.3585086)" stroke-width="1" stroke-linecap="butt" stroke-miterlimit="4" stroke-linejoin="miter" fill="none" stroke="#000000" d="M281 201H361V281H281Z"/>
<use data-text="[" xlink:href="#font_3_62" transform="matrix(11.472275,0,0,-11.472275,217.40184,177.10324)"/>
<use data-text="1" xlink:href="#font_3_20" transform="matrix(11.472275,0,0,-11.472275,220.59114,177.10324)"/>
<use data-text="]" xlink:href="#font_3_64" transform="matrix(11.472275,0,0,-11.472275,226.96973,177.10324)"/>
<use data-text="[" xlink:href="#font_3_62" transform="matrix(11.472275,0,0,-11.472275,230.15901,177.10324)"/>
<use data-text="1" xlink:href="#font_3_20" transform="matrix(11.472275,0,0,-11.472275,233.3483,177.10324)"/>
<use data-text="]" xlink:href="#font_3_64" transform="matrix(11.472275,0,0,-11.472275,239.72689,177.10324)"/>
<path transform="matrix(.7170172,0,0,.7170172,.3585086,.3585086)" d="M361 201H441V281H361Z" fill="#d5e8d4"/>
<path transform="matrix(.7170172,0,0,.7170172,.3585086,.3585086)" stroke-width="1" stroke-linecap="butt" stroke-miterlimit="4" stroke-linejoin="miter" fill="none" stroke="#000000" d="M361 201H441V281H361Z"/>
<use data-text="[" xlink:href="#font_3_62" transform="matrix(11.472275,0,0,-11.472275,274.7632,177.10324)"/>
<use data-text="1" xlink:href="#font_3_20" transform="matrix(11.472275,0,0,-11.472275,277.9525,177.10324)"/>
<use data-text="]" xlink:href="#font_3_64" transform="matrix(11.472275,0,0,-11.472275,284.3311,177.10324)"/>
<use data-text="[" xlink:href="#font_3_62" transform="matrix(11.472275,0,0,-11.472275,287.5204,177.10324)"/>
<use data-text="2" xlink:href="#font_3_21" transform="matrix(11.472275,0,0,-11.472275,290.7097,177.10324)"/>
<use data-text="]" xlink:href="#font_3_64" transform="matrix(11.472275,0,0,-11.472275,297.08827,177.10324)"/>
<path transform="matrix(.7170172,0,0,.7170172,.3585086,.3585086)" d="M441 201H521V281H441Z" fill="#d5e8d4"/>
<path transform="matrix(.7170172,0,0,.7170172,.3585086,.3585086)" stroke-width="1" stroke-linecap="butt" stroke-miterlimit="4" stroke-linejoin="miter" fill="none" stroke="#000000" d="M441 201H521V281H441Z"/>
<use data-text="[" xlink:href="#font_3_62" transform="matrix(11.472275,0,0,-11.472275,332.1246,177.10324)"/>
<use data-text="1" xlink:href="#font_3_20" transform="matrix(11.472275,0,0,-11.472275,335.31388,177.10324)"/>
<use data-text="]" xlink:href="#font_3_64" transform="matrix(11.472275,0,0,-11.472275,341.69248,177.10324)"/>
<use data-text="[" xlink:href="#font_3_62" transform="matrix(11.472275,0,0,-11.472275,344.88175,177.10324)"/>
<use data-text="3" xlink:href="#font_3_22" transform="matrix(11.472275,0,0,-11.472275,348.07106,177.10324)"/>
<use data-text="]" xlink:href="#font_3_64" transform="matrix(11.472275,0,0,-11.472275,354.44966,177.10324)"/>
<path transform="matrix(.7170172,0,0,.7170172,.3585086,.3585086)" d="M201 281H281V361H201Z" fill="#fff2cc"/>
<path transform="matrix(.7170172,0,0,.7170172,.3585086,.3585086)" stroke-width="1" stroke-linecap="butt" stroke-miterlimit="4" stroke-linejoin="miter" fill="none" stroke="#000000" d="M201 281H281V361H201Z"/>
<use data-text="[" xlink:href="#font_3_62" transform="matrix(11.472275,0,0,-11.472275,160.04047,234.46462)"/>
<use data-text="2" xlink:href="#font_3_21" transform="matrix(11.472275,0,0,-11.472275,163.22977,234.46462)"/>
<use data-text="]" xlink:href="#font_3_64" transform="matrix(11.472275,0,0,-11.472275,169.60836,234.46462)"/>
<use data-text="[" xlink:href="#font_3_62" transform="matrix(11.472275,0,0,-11.472275,172.79764,234.46462)"/>
<use data-text="0" xlink:href="#font_3_19" transform="matrix(11.472275,0,0,-11.472275,175.98693,234.46462)"/>
<use data-text="]" xlink:href="#font_3_64" transform="matrix(11.472275,0,0,-11.472275,182.36551,234.46462)"/>
<path transform="matrix(.7170172,0,0,.7170172,.3585086,.3585086)" d="M281 281H361V361H281Z" fill="#fff2cc"/>
<path transform="matrix(.7170172,0,0,.7170172,.3585086,.3585086)" stroke-width="1" stroke-linecap="butt" stroke-miterlimit="4" stroke-linejoin="miter" fill="none" stroke="#000000" d="M281 281H361V361H281Z"/>
<use data-text="[" xlink:href="#font_3_62" transform="matrix(11.472275,0,0,-11.472275,217.40184,234.46462)"/>
<use data-text="2" xlink:href="#font_3_21" transform="matrix(11.472275,0,0,-11.472275,220.59114,234.46462)"/>
<use data-text="]" xlink:href="#font_3_64" transform="matrix(11.472275,0,0,-11.472275,226.96973,234.46462)"/>
<use data-text="[" xlink:href="#font_3_62" transform="matrix(11.472275,0,0,-11.472275,230.15901,234.46462)"/>
<use data-text="1" xlink:href="#font_3_20" transform="matrix(11.472275,0,0,-11.472275,233.3483,234.46462)"/>
<use data-text="]" xlink:href="#font_3_64" transform="matrix(11.472275,0,0,-11.472275,239.72689,234.46462)"/>
<path transform="matrix(.7170172,0,0,.7170172,.3585086,.3585086)" d="M361 281H441V361H361Z" fill="#fff2cc"/>
<path transform="matrix(.7170172,0,0,.7170172,.3585086,.3585086)" stroke-width="1" stroke-linecap="butt" stroke-miterlimit="4" stroke-linejoin="miter" fill="none" stroke="#000000" d="M361 281H441V361H361Z"/>
<use data-text="[" xlink:href="#font_3_62" transform="matrix(11.472275,0,0,-11.472275,274.7632,234.46462)"/>
<use data-text="2" xlink:href="#font_3_21" transform="matrix(11.472275,0,0,-11.472275,277.9525,234.46462)"/>
<use data-text="]" xlink:href="#font_3_64" transform="matrix(11.472275,0,0,-11.472275,284.3311,234.46462)"/>
<use data-text="[" xlink:href="#font_3_62" transform="matrix(11.472275,0,0,-11.472275,287.5204,234.46462)"/>
<use data-text="2" xlink:href="#font_3_21" transform="matrix(11.472275,0,0,-11.472275,290.7097,234.46462)"/>
<use data-text="]" xlink:href="#font_3_64" transform="matrix(11.472275,0,0,-11.472275,297.08827,234.46462)"/>
<path transform="matrix(.7170172,0,0,.7170172,.3585086,.3585086)" d="M441 281H521V361H441Z" fill="#fff2cc"/>
<path transform="matrix(.7170172,0,0,.7170172,.3585086,.3585086)" stroke-width="1" stroke-linecap="butt" stroke-miterlimit="4" stroke-linejoin="miter" fill="none" stroke="#000000" d="M441 281H521V361H441Z"/>
<use data-text="[" xlink:href="#font_3_62" transform="matrix(11.472275,0,0,-11.472275,332.1246,234.46462)"/>
<use data-text="2" xlink:href="#font_3_21" transform="matrix(11.472275,0,0,-11.472275,335.31388,234.46462)"/>
<use data-text="]" xlink:href="#font_3_64" transform="matrix(11.472275,0,0,-11.472275,341.69248,234.46462)"/>
<use data-text="[" xlink:href="#font_3_62" transform="matrix(11.472275,0,0,-11.472275,344.88175,234.46462)"/>
<use data-text="3" xlink:href="#font_3_22" transform="matrix(11.472275,0,0,-11.472275,348.07106,234.46462)"/>
<use data-text="]" xlink:href="#font_3_64" transform="matrix(11.472275,0,0,-11.472275,354.44966,234.46462)"/>
<path transform="matrix(.7170172,0,0,.7170172,.3585086,.3585086)" d="M201 121H281V201H201Z" fill="#dae8fc"/>
<path transform="matrix(.7170172,0,0,.7170172,.3585086,.3585086)" stroke-width="1" stroke-linecap="butt" stroke-miterlimit="4" stroke-linejoin="miter" fill="none" stroke="#000000" d="M201 121H281V201H201Z"/>
<use data-text="[" xlink:href="#font_3_62" transform="matrix(11.472275,0,0,-11.472275,160.04047,119.74187)"/>
<use data-text="0" xlink:href="#font_3_19" transform="matrix(11.472275,0,0,-11.472275,163.22977,119.74187)"/>
<use data-text="]" xlink:href="#font_3_64" transform="matrix(11.472275,0,0,-11.472275,169.60836,119.74187)"/>
<use data-text="[" xlink:href="#font_3_62" transform="matrix(11.472275,0,0,-11.472275,172.79764,119.74187)"/>
<use data-text="0" xlink:href="#font_3_19" transform="matrix(11.472275,0,0,-11.472275,175.98693,119.74187)"/>
<use data-text="]" xlink:href="#font_3_64" transform="matrix(11.472275,0,0,-11.472275,182.36551,119.74187)"/>
<path transform="matrix(.7170172,0,0,.7170172,.3585086,.3585086)" d="M281 121H361V201H281Z" fill="#dae8fc"/>
<path transform="matrix(.7170172,0,0,.7170172,.3585086,.3585086)" stroke-width="1" stroke-linecap="butt" stroke-miterlimit="4" stroke-linejoin="miter" fill="none" stroke="#000000" d="M281 121H361V201H281Z"/>
<use data-text="[" xlink:href="#font_3_62" transform="matrix(11.472275,0,0,-11.472275,217.40184,119.74187)"/>
<use data-text="0" xlink:href="#font_3_19" transform="matrix(11.472275,0,0,-11.472275,220.59114,119.74187)"/>
<use data-text="]" xlink:href="#font_3_64" transform="matrix(11.472275,0,0,-11.472275,226.96973,119.74187)"/>
<use data-text="[" xlink:href="#font_3_62" transform="matrix(11.472275,0,0,-11.472275,230.15901,119.74187)"/>
<use data-text="1" xlink:href="#font_3_20" transform="matrix(11.472275,0,0,-11.472275,233.3483,119.74187)"/>
<use data-text="]" xlink:href="#font_3_64" transform="matrix(11.472275,0,0,-11.472275,239.72689,119.74187)"/>
<path transform="matrix(.7170172,0,0,.7170172,.3585086,.3585086)" d="M361 121H441V201H361Z" fill="#dae8fc"/>
<path transform="matrix(.7170172,0,0,.7170172,.3585086,.3585086)" stroke-width="1" stroke-linecap="butt" stroke-miterlimit="4" stroke-linejoin="miter" fill="none" stroke="#000000" d="M361 121H441V201H361Z"/>
<use data-text="[" xlink:href="#font_3_62" transform="matrix(11.472275,0,0,-11.472275,274.7632,119.74187)"/>
<use data-text="0" xlink:href="#font_3_19" transform="matrix(11.472275,0,0,-11.472275,277.9525,119.74187)"/>
<use data-text="]" xlink:href="#font_3_64" transform="matrix(11.472275,0,0,-11.472275,284.3311,119.74187)"/>
<use data-text="[" xlink:href="#font_3_62" transform="matrix(11.472275,0,0,-11.472275,287.5204,119.74187)"/>
<use data-text="2" xlink:href="#font_3_21" transform="matrix(11.472275,0,0,-11.472275,290.7097,119.74187)"/>
<use data-text="]" xlink:href="#font_3_64" transform="matrix(11.472275,0,0,-11.472275,297.08827,119.74187)"/>
<path transform="matrix(.7170172,0,0,.7170172,.3585086,.3585086)" d="M441 121H521V201H441Z" fill="#dae8fc"/>
<path transform="matrix(.7170172,0,0,.7170172,.3585086,.3585086)" stroke-width="1" stroke-linecap="butt" stroke-miterlimit="4" stroke-linejoin="miter" fill="none" stroke="#000000" d="M441 121H521V201H441Z"/>
<use data-text="[" xlink:href="#font_3_62" transform="matrix(11.472275,0,0,-11.472275,332.1246,119.74187)"/>
<use data-text="0" xlink:href="#font_3_19" transform="matrix(11.472275,0,0,-11.472275,335.31388,119.74187)"/>
<use data-text="]" xlink:href="#font_3_64" transform="matrix(11.472275,0,0,-11.472275,341.69248,119.74187)"/>
<use data-text="[" xlink:href="#font_3_62" transform="matrix(11.472275,0,0,-11.472275,344.88175,119.74187)"/>
<use data-text="3" xlink:href="#font_3_22" transform="matrix(11.472275,0,0,-11.472275,348.07106,119.74187)"/>
<use data-text="]" xlink:href="#font_3_64" transform="matrix(11.472275,0,0,-11.472275,354.44966,119.74187)"/>
<path transform="matrix(.7170172,0,0,.7170172,.3585086,.3585086)" d="M201 201H281V281H201Z" fill="#d5e8d4"/>
<path transform="matrix(.7170172,0,0,.7170172,.3585086,.3585086)" stroke-width="1" stroke-linecap="butt" stroke-miterlimit="4" stroke-linejoin="miter" fill="none" stroke="#000000" d="M201 201H281V281H201Z"/>
<use data-text="[" xlink:href="#font_3_62" transform="matrix(11.472275,0,0,-11.472275,160.04047,177.10324)"/>
<use data-text="1" xlink:href="#font_3_20" transform="matrix(11.472275,0,0,-11.472275,163.22977,177.10324)"/>
<use data-text="]" xlink:href="#font_3_64" transform="matrix(11.472275,0,0,-11.472275,169.60836,177.10324)"/>
<use data-text="[" xlink:href="#font_3_62" transform="matrix(11.472275,0,0,-11.472275,172.79764,177.10324)"/>
<use data-text="0" xlink:href="#font_3_19" transform="matrix(11.472275,0,0,-11.472275,175.98693,177.10324)"/>
<use data-text="]" xlink:href="#font_3_64" transform="matrix(11.472275,0,0,-11.472275,182.36551,177.10324)"/>
<path transform="matrix(.7170172,0,0,.7170172,.3585086,.3585086)" d="M281 201H361V281H281Z" fill="#d5e8d4"/>
<path transform="matrix(.7170172,0,0,.7170172,.3585086,.3585086)" stroke-width="1" stroke-linecap="butt" stroke-miterlimit="4" stroke-linejoin="miter" fill="none" stroke="#000000" d="M281 201H361V281H281Z"/>
<use data-text="[" xlink:href="#font_3_62" transform="matrix(11.472275,0,0,-11.472275,217.40184,177.10324)"/>
<use data-text="1" xlink:href="#font_3_20" transform="matrix(11.472275,0,0,-11.472275,220.59114,177.10324)"/>
<use data-text="]" xlink:href="#font_3_64" transform="matrix(11.472275,0,0,-11.472275,226.96973,177.10324)"/>
<use data-text="[" xlink:href="#font_3_62" transform="matrix(11.472275,0,0,-11.472275,230.15901,177.10324)"/>
<use data-text="1" xlink:href="#font_3_20" transform="matrix(11.472275,0,0,-11.472275,233.3483,177.10324)"/>
<use data-text="]" xlink:href="#font_3_64" transform="matrix(11.472275,0,0,-11.472275,239.72689,177.10324)"/>
<path transform="matrix(.7170172,0,0,.7170172,.3585086,.3585086)" d="M441 201H521V281H441Z" fill="#d5e8d4"/>
<path transform="matrix(.7170172,0,0,.7170172,.3585086,.3585086)" stroke-width="1" stroke-linecap="butt" stroke-miterlimit="4" stroke-linejoin="miter" fill="none" stroke="#000000" d="M441 201H521V281H441Z"/>
<use data-text="[" xlink:href="#font_3_62" transform="matrix(11.472275,0,0,-11.472275,332.1246,177.10324)"/>
<use data-text="1" xlink:href="#font_3_20" transform="matrix(11.472275,0,0,-11.472275,335.31388,177.10324)"/>
<use data-text="]" xlink:href="#font_3_64" transform="matrix(11.472275,0,0,-11.472275,341.69248,177.10324)"/>
<use data-text="[" xlink:href="#font_3_62" transform="matrix(11.472275,0,0,-11.472275,344.88175,177.10324)"/>
<use data-text="3" xlink:href="#font_3_22" transform="matrix(11.472275,0,0,-11.472275,348.07106,177.10324)"/>
<use data-text="]" xlink:href="#font_3_64" transform="matrix(11.472275,0,0,-11.472275,354.44966,177.10324)"/>
<path transform="matrix(.7170172,0,0,.7170172,.3585086,.3585086)" d="M201 281H281V361H201Z" fill="#fff2cc"/>
<path transform="matrix(.7170172,0,0,.7170172,.3585086,.3585086)" stroke-width="1" stroke-linecap="butt" stroke-miterlimit="4" stroke-linejoin="miter" fill="none" stroke="#000000" d="M201 281H281V361H201Z"/>
<use data-text="[" xlink:href="#font_3_62" transform="matrix(11.472275,0,0,-11.472275,160.04047,234.46462)"/>
<use data-text="2" xlink:href="#font_3_21" transform="matrix(11.472275,0,0,-11.472275,163.22977,234.46462)"/>
<use data-text="]" xlink:href="#font_3_64" transform="matrix(11.472275,0,0,-11.472275,169.60836,234.46462)"/>
<use data-text="[" xlink:href="#font_3_62" transform="matrix(11.472275,0,0,-11.472275,172.79764,234.46462)"/>
<use data-text="0" xlink:href="#font_3_19" transform="matrix(11.472275,0,0,-11.472275,175.98693,234.46462)"/>
<use data-text="]" xlink:href="#font_3_64" transform="matrix(11.472275,0,0,-11.472275,182.36551,234.46462)"/>
<path transform="matrix(.7170172,0,0,.7170172,.3585086,.3585086)" d="M281 281H361V361H281Z" fill="#fff2cc"/>
<path transform="matrix(.7170172,0,0,.7170172,.3585086,.3585086)" stroke-width="1" stroke-linecap="butt" stroke-miterlimit="4" stroke-linejoin="miter" fill="none" stroke="#000000" d="M281 281H361V361H281Z"/>
<use data-text="[" xlink:href="#font_3_62" transform="matrix(11.472275,0,0,-11.472275,217.40184,234.46462)"/>
<use data-text="2" xlink:href="#font_3_21" transform="matrix(11.472275,0,0,-11.472275,220.59114,234.46462)"/>
<use data-text="]" xlink:href="#font_3_64" transform="matrix(11.472275,0,0,-11.472275,226.96973,234.46462)"/>
<use data-text="[" xlink:href="#font_3_62" transform="matrix(11.472275,0,0,-11.472275,230.15901,234.46462)"/>
<use data-text="1" xlink:href="#font_3_20" transform="matrix(11.472275,0,0,-11.472275,233.3483,234.46462)"/>
<use data-text="]" xlink:href="#font_3_64" transform="matrix(11.472275,0,0,-11.472275,239.72689,234.46462)"/>
<path transform="matrix(.7170172,0,0,.7170172,.3585086,.3585086)" d="M361 281H441V361H361Z" fill="#fff2cc"/>
<path transform="matrix(.7170172,0,0,.7170172,.3585086,.3585086)" stroke-width="1" stroke-linecap="butt" stroke-miterlimit="4" stroke-linejoin="miter" fill="none" stroke="#000000" d="M361 281H441V361H361Z"/>
<use data-text="[" xlink:href="#font_3_62" transform="matrix(11.472275,0,0,-11.472275,274.7632,234.46462)"/>
<use data-text="2" xlink:href="#font_3_21" transform="matrix(11.472275,0,0,-11.472275,277.9525,234.46462)"/>
<use data-text="]" xlink:href="#font_3_64" transform="matrix(11.472275,0,0,-11.472275,284.3311,234.46462)"/>
<use data-text="[" xlink:href="#font_3_62" transform="matrix(11.472275,0,0,-11.472275,287.5204,234.46462)"/>
<use data-text="2" xlink:href="#font_3_21" transform="matrix(11.472275,0,0,-11.472275,290.7097,234.46462)"/>
<use data-text="]" xlink:href="#font_3_64" transform="matrix(11.472275,0,0,-11.472275,297.08827,234.46462)"/>
<path transform="matrix(.7170172,0,0,.7170172,.3585086,.3585086)" d="M441 281H521V361H441Z" fill="#fff2cc"/>
<path transform="matrix(.7170172,0,0,.7170172,.3585086,.3585086)" stroke-width="1" stroke-linecap="butt" stroke-miterlimit="4" stroke-linejoin="miter" fill="none" stroke="#000000" d="M441 281H521V361H441Z"/>
<use data-text="[" xlink:href="#font_3_62" transform="matrix(11.472275,0,0,-11.472275,332.1246,234.46462)"/>
<use data-text="2" xlink:href="#font_3_21" transform="matrix(11.472275,0,0,-11.472275,335.31388,234.46462)"/>
<use data-text="]" xlink:href="#font_3_64" transform="matrix(11.472275,0,0,-11.472275,341.69248,234.46462)"/>
<use data-text="[" xlink:href="#font_3_62" transform="matrix(11.472275,0,0,-11.472275,344.88175,234.46462)"/>
<use data-text="3" xlink:href="#font_3_22" transform="matrix(11.472275,0,0,-11.472275,348.07106,234.46462)"/>
<use data-text="]" xlink:href="#font_3_64" transform="matrix(11.472275,0,0,-11.472275,354.44966,234.46462)"/>
<path transform="matrix(.7170172,0,0,.7170172,0,0)" stroke-width="2" stroke-linecap="butt" stroke-miterlimit="10" stroke-linejoin="miter" fill="none" stroke="#b0b0b0" d="M161 241C161 241 227.66666 241 361 241"/>
<path transform="matrix(.7170172,0,0,.7170172,0,0)" stroke-width="2" stroke-linecap="butt" stroke-miterlimit="10" stroke-linejoin="miter" fill="none" stroke="#b0b0b0" d="M401 201C401 201 401 161 401 81"/>
<path transform="matrix(.7170172,0,0,.7170172,.3585086,.3585086)" d="M361 201H441V281H361Z" fill="#d5e8d4"/>
<path transform="matrix(.7170172,0,0,.7170172,.3585086,.3585086)" stroke-width="3" stroke-linecap="butt" stroke-miterlimit="4" stroke-linejoin="miter" fill="none" stroke="#000000" d="M361 201H441V281H361Z"/>
<use data-text="[" xlink:href="#font_3_62" transform="matrix(11.472275,0,0,-11.472275,274.7632,177.10324)"/>
<use data-text="1" xlink:href="#font_3_20" transform="matrix(11.472275,0,0,-11.472275,277.9525,177.10324)"/>
<use data-text="]" xlink:href="#font_3_64" transform="matrix(11.472275,0,0,-11.472275,284.3311,177.10324)"/>
<use data-text="[" xlink:href="#font_3_62" transform="matrix(11.472275,0,0,-11.472275,287.5204,177.10324)"/>
<use data-text="2" xlink:href="#font_3_21" transform="matrix(11.472275,0,0,-11.472275,290.7097,177.10324)"/>
<use data-text="]" xlink:href="#font_3_64" transform="matrix(11.472275,0,0,-11.472275,297.08827,177.10324)"/>
<path transform="matrix(-.000000000000000043904644,.7170172,.7170172,.000000000000000043904644,222.63384,-221.91683)" stroke-width="1" stroke-linecap="butt" stroke-miterlimit="10" stroke-linejoin="miter" fill="none" stroke="#000000" d="M371-109H366C362.66667-109 361-105.666667 361-99V41C361 47.666669 359.33335 51 356 51H353.5C351.83335 51 352.66667 51 356 51H358.5C360.16667 51 361 54.333333 361 61V201C361 207.66667 362.66667 211 366 211H371"/>
<use data-text="r" xlink:href="#font_3_85" transform="matrix(11.472275,0,0,-11.472275,89.06698,177.10324)"/>
<use data-text="o" xlink:href="#font_3_82" transform="matrix(11.472275,0,0,-11.472275,92.887248,177.10324)"/>
<use data-text="w" xlink:href="#font_3_90" transform="matrix(11.472275,0,0,-11.472275,99.26583,177.10324)"/>
<use data-text="c" xlink:href="#font_3_70" transform="matrix(11.472275,0,0,-11.472275,269.3968,51.625238)"/>
<use data-text="o" xlink:href="#font_3_82" transform="matrix(11.472275,0,0,-11.472275,275.13294,51.625238)"/>
<use data-text="l" xlink:href="#font_3_79" transform="matrix(11.472275,0,0,-11.472275,281.5115,51.625238)"/>
<use data-text="u" xlink:href="#font_3_88" transform="matrix(11.472275,0,0,-11.472275,284.05836,51.625238)"/>
<use data-text="m" xlink:href="#font_3_80" transform="matrix(11.472275,0,0,-11.472275,290.43696,51.625238)"/>
<use data-text="n" xlink:href="#font_3_81" transform="matrix(11.472275,0,0,-11.472275,299.99336,51.625238)"/>
<path transform="matrix(.013227419,0,0,-.0136444759,255.99369,15.772333)" d="M234 637C232 637 229.33333 637 226 637 209.33333 637 199.33333 637.3333 196 638 192.66667 638.6667 191 642.3333 191 649 191 667 194.66667 678 202 682 203.33333 682.6667 235.66666 683 299 683 350.33335 683 379.66667 683 387 683 394.33335 683 399 681 401 677 541.6667 346.3333 613.3333 176.66667 616 168L670 381C705.3333 521.6667 723 596.6667 723 606 723 624 701.6667 634.3333 659 637 643 637 635 640.6667 635 648 635 649.3333 635.6667 653.3333 637 660 639.6667 670.6667 641.6667 677 643 679 644.3333 681 647.6667 682.3333 653 683 655 683 665.3333 682.6667 684 682 702.6667 681.3333 730.3333 680.6667 767 680 800.3333 680 825.6667 680.3333 843 681 860.3333 681.6667 870.3333 682 873 682 883 682 888 678.6667 888 672 888 657.3333 885.3333 647.3333 880 642 878.6667 638.6667 871.3333 637 858 637 810.6667 634.3333 781 621 769 597L620 7C618.6667 2.333333 611.6667 0 599 0 589.6667 0 584 .6666666 582 2 580 4 537 105 453 305L326 604 261 344C217.66666 173.33333 196 85 196 79 199.33333 57 223.33333 46 268 46H278C282 42.666669 284 40 284 38 284 36 283.33335 29.666668 282 19 279.33335 10.333333 276 4 272 0H259C238.33333 1.3333334 202.33335 2 151 2 132.33333 2 115.333339 2 100 2 84.666667 2 72.333339 2 63 2 53.666666 2 48 1.6666668 46 1 36 1 31 4 31 10 31 12.666667 32 18 34 26 36 34 37.666669 38.666669 39 40 40.333333 44 48 46 62 46 107.333339 48 136.66667 61 150 85 152.66667 89 176.33333 181.33333 221 362L289 634C287.66667 634.6667 269.33335 635.6667 234 637Z"/>
<path transform="matrix(.013227419,0,0,-.0136444759,255.99369,15.772333)" stroke-width="0" stroke-linecap="butt" stroke-miterlimit="4" stroke-linejoin="miter" fill="none" stroke="#000000" stroke-opacity=".1686" d="M234 637C232 637 229.33333 637 226 637 209.33333 637 199.33333 637.3333 196 638 192.66667 638.6667 191 642.3333 191 649 191 667 194.66667 678 202 682 203.33333 682.6667 235.66666 683 299 683 350.33335 683 379.66667 683 387 683 394.33335 683 399 681 401 677 541.6667 346.3333 613.3333 176.66667 616 168L670 381C705.3333 521.6667 723 596.6667 723 606 723 624 701.6667 634.3333 659 637 643 637 635 640.6667 635 648 635 649.3333 635.6667 653.3333 637 660 639.6667 670.6667 641.6667 677 643 679 644.3333 681 647.6667 682.3333 653 683 655 683 665.3333 682.6667 684 682 702.6667 681.3333 730.3333 680.6667 767 680 800.3333 680 825.6667 680.3333 843 681 860.3333 681.6667 870.3333 682 873 682 883 682 888 678.6667 888 672 888 657.3333 885.3333 647.3333 880 642 878.6667 638.6667 871.3333 637 858 637 810.6667 634.3333 781 621 769 597L620 7C618.6667 2.333333 611.6667 0 599 0 589.6667 0 584 .6666666 582 2 580 4 537 105 453 305L326 604 261 344C217.66666 173.33333 196 85 196 79 199.33333 57 223.33333 46 268 46H278C282 42.666669 284 40 284 38 284 36 283.33335 29.666668 282 19 279.33335 10.333333 276 4 272 0H259C238.33333 1.3333334 202.33335 2 151 2 132.33333 2 115.333339 2 100 2 84.666667 2 72.333339 2 63 2 53.666666 2 48 1.6666668 46 1 36 1 31 4 31 10 31 12.666667 32 18 34 26 36 34 37.666669 38.666669 39 40 40.333333 44 48 46 62 46 107.333339 48 136.66667 61 150 85 152.66667 89 176.33333 181.33333 221 362L289 634C287.66667 634.6667 269.33335 635.6667 234 637Z"/>
<path transform="matrix(.009351785,0,0,-.009646645,267.05183,17.819005)" d="M34 159C34 231.66667 62.666666 297 120 355 177.33335 413 239.33333 442 306 442 343.33335 442 372.66667 434 394 418 415.33335 402 426.33335 381 427 355 427 335.66667 420.66667 319.33335 408 306 395.33335 292.66667 379.33335 285.66667 360 285 347.33335 285 337.33335 288.33335 330 295 322.66667 301.66667 319 311.66667 319 325 319 338.33335 322.66667 349.66667 330 359 337.33335 368.33335 344.66667 375.33335 352 380 359.33335 384.66667 364 386.66667 366 386H367C367 387.33335 365 389.33335 361 392 357 394.66667 350 397.33335 340 400 330 402.66667 318.66667 404 306 404 286 404 267 399.33335 249 390 235 384 220.66667 373.66667 206 359 176.66667 329.66667 155.33333 288.33335 142 235 128.66667 181.66666 121.666667 143 121 119 121 88.33333 129.66667 65.333339 147 50 161.66667 34 181 26 205 26H209C283.6667 26 345.33335 54.333333 394 111 400 117.666667 404 121 406 121 408.66667 121 413 118 419 112 425 106 428.33335 101.333339 429 98 429.66667 94.666667 426.66667 89.666667 420 83 413.33335 76.333339 403.66667 67 391 55 378.33335 43 363.33335 33 346 25 328.66667 17 307.33335 8.666667 282 0 256.66667-8.666667 230-12.333333 202-11 152-11 111.66667 5 81 37 50.333333 69 34.666669 109.666667 34 159Z"/>
<path transform="matrix(.009351785,0,0,-.009646645,267.05183,17.819005)" stroke-width="0" stroke-linecap="butt" stroke-miterlimit="4" stroke-linejoin="miter" fill="none" stroke="#000000" stroke-opacity=".1176" d="M34 159C34 231.66667 62.666666 297 120 355 177.33335 413 239.33333 442 306 442 343.33335 442 372.66667 434 394 418 415.33335 402 426.33335 381 427 355 427 335.66667 420.66667 319.33335 408 306 395.33335 292.66667 379.33335 285.66667 360 285 347.33335 285 337.33335 288.33335 330 295 322.66667 301.66667 319 311.66667 319 325 319 338.33335 322.66667 349.66667 330 359 337.33335 368.33335 344.66667 375.33335 352 380 359.33335 384.66667 364 386.66667 366 386H367C367 387.33335 365 389.33335 361 392 357 394.66667 350 397.33335 340 400 330 402.66667 318.66667 404 306 404 286 404 267 399.33335 249 390 235 384 220.66667 373.66667 206 359 176.66667 329.66667 155.33333 288.33335 142 235 128.66667 181.66666 121.666667 143 121 119 121 88.33333 129.66667 65.333339 147 50 161.66667 34 181 26 205 26H209C283.6667 26 345.33335 54.333333 394 111 400 117.666667 404 121 406 121 408.66667 121 413 118 419 112 425 106 428.33335 101.333339 429 98 429.66667 94.666667 426.66667 89.666667 420 83 413.33335 76.333339 403.66667 67 391 55 378.33335 43 363.33335 33 346 25 328.66667 17 307.33335 8.666667 282 0 256.66667-8.666667 230-12.333333 202-11 152-11 111.66667 5 81 37 50.333333 69 34.666669 109.666667 34 159Z"/>
<path transform="matrix(.009351785,0,0,-.009646645,271.10115,17.819005)" d="M201-11C151-11 110.66667 5.333332 80 38 49.333333 70.66667 34 110 34 156 34 199.33335 44 240.33333 64 279 84 317.66667 111.33333 351.33335 146 380 196.66667 420.66667 248.33333 441 301 441 322.33335 441 335.66667 440.66667 341 440 349.66667 438 358.33335 435.66667 367 433 375.66667 430.33335 387.33335 425 402 417 416.66667 409 428.66667 399 438 387 447.33335 375 456 358.66667 464 338 472 317.33335 476 294 476 268 476 196.66666 447.33335 132.33335 390 75 332.66667 17.666665 269.6667-11 201-11ZM121 120C121 86.666667 129.66667 62.666669 147 48 164.33333 33.333333 184 26 206 26 235.33333 26 263 36.666666 289 58 315 79.333339 335.66667 107.33333 351 142 357 156 364.66667 180.66666 374 216 383.33335 251.33335 388 282 388 308 388 337.33335 382 359.66667 370 375 354 395 332.66667 405 306 405 264 405 227 385.66667 195 347 170.33333 317.66667 152 278.66667 140 230 128 181.33333 121.666667 144.66667 121 120Z"/>
<path transform="matrix(.009351785,0,0,-.009646645,271.10115,17.819005)" stroke-width="0" stroke-linecap="butt" stroke-miterlimit="4" stroke-linejoin="miter" fill="none" stroke="#000000" stroke-opacity=".1176" d="M201-11C151-11 110.66667 5.333332 80 38 49.333333 70.66667 34 110 34 156 34 199.33335 44 240.33333 64 279 84 317.66667 111.33333 351.33335 146 380 196.66667 420.66667 248.33333 441 301 441 322.33335 441 335.66667 440.66667 341 440 349.66667 438 358.33335 435.66667 367 433 375.66667 430.33335 387.33335 425 402 417 416.66667 409 428.66667 399 438 387 447.33335 375 456 358.66667 464 338 472 317.33335 476 294 476 268 476 196.66666 447.33335 132.33335 390 75 332.66667 17.666665 269.6667-11 201-11ZM121 120C121 86.666667 129.66667 62.666669 147 48 164.33333 33.333333 184 26 206 26 235.33333 26 263 36.666666 289 58 315 79.333339 335.66667 107.33333 351 142 357 156 364.66667 180.66666 374 216 383.33335 251.33335 388 282 388 308 388 337.33335 382 359.66667 370 375 354 395 332.66667 405 306 405 264 405 227 385.66667 195 347 170.33333 317.66667 152 278.66667 140 230 128 181.33333 121.666667 144.66667 121 120Z"/>
<path transform="matrix(.009351785,0,0,-.009646645,275.63679,17.819005)" d="M117 59C117 37 125.33333 26 142 26 166.66667 26 187.66667 61 205 131 209 144.33333 212.33333 151.33333 215 152 216.33333 152.66667 219.66667 153 225 153H229C235 153 239 153 241 153 243 153 244.66667 152.33333 246 151 247.33333 149.66667 248 147.33333 248 144 247.33333 140 246.33333 134.66667 245 128 243.66667 121.333339 240 108.66667 234 90 228 71.33333 221.33333 55.666669 214 43 206.66667 30.333333 196.33333 18 183 6 169.66667-6 154.33333-11.666667 137-11 113-11 90.66667-3.666667 70 11 49.333333 25.666668 38.666669 50.333333 38 85 38 93 38.333333 98.666667 39 102L104 360C146 530 167 617.6667 167 623 167 625 166.66667 626.6667 166 628 165.33333 629.3333 164 630.6667 162 632 160 633.3333 158.33333 634 157 634 155.66667 634 153 634.3333 149 635 145 635.6667 142.33333 636 141 636 139.66667 636 136.66667 636.3333 132 637 127.333339 637.6667 124 637.6667 122 637 115.333339 637 111 637 109 637 107 637 104.333339 637.3333 101 638 97.666667 638.6667 95.666667 639.6667 95 641 94.333339 642.3333 94 644.3333 94 647 94 648.3333 94.666667 653 96 661 99.333339 673.6667 103 680.6667 107 682 111 683.3333 135 685.3333 179 688 189 688.6667 200.33333 689.3333 213 690 225.66667 690.6667 235.66667 691.6667 243 693 250.33333 694.3333 254 694.6667 254 694 262 694 266 691.3333 266 686 266 678.6667 241.66667 578.6667 193 386 144.33333 193.33333 119.333339 92.333339 118 83 118 81.666667 118 79 118 75 118 71 117.666667 67.666667 117 65V59Z"/>
<path transform="matrix(.009351785,0,0,-.009646645,275.63679,17.819005)" stroke-width="0" stroke-linecap="butt" stroke-miterlimit="4" stroke-linejoin="miter" fill="none" stroke="#000000" stroke-opacity=".1176" d="M117 59C117 37 125.33333 26 142 26 166.66667 26 187.66667 61 205 131 209 144.33333 212.33333 151.33333 215 152 216.33333 152.66667 219.66667 153 225 153H229C235 153 239 153 241 153 243 153 244.66667 152.33333 246 151 247.33333 149.66667 248 147.33333 248 144 247.33333 140 246.33333 134.66667 245 128 243.66667 121.333339 240 108.66667 234 90 228 71.33333 221.33333 55.666669 214 43 206.66667 30.333333 196.33333 18 183 6 169.66667-6 154.33333-11.666667 137-11 113-11 90.66667-3.666667 70 11 49.333333 25.666668 38.666669 50.333333 38 85 38 93 38.333333 98.666667 39 102L104 360C146 530 167 617.6667 167 623 167 625 166.66667 626.6667 166 628 165.33333 629.3333 164 630.6667 162 632 160 633.3333 158.33333 634 157 634 155.66667 634 153 634.3333 149 635 145 635.6667 142.33333 636 141 636 139.66667 636 136.66667 636.3333 132 637 127.333339 637.6667 124 637.6667 122 637 115.333339 637 111 637 109 637 107 637 104.333339 637.3333 101 638 97.666667 638.6667 95.666667 639.6667 95 641 94.333339 642.3333 94 644.3333 94 647 94 648.3333 94.666667 653 96 661 99.333339 673.6667 103 680.6667 107 682 111 683.3333 135 685.3333 179 688 189 688.6667 200.33333 689.3333 213 690 225.66667 690.6667 235.66667 691.6667 243 693 250.33333 694.3333 254 694.6667 254 694 262 694 266 691.3333 266 686 266 678.6667 241.66667 578.6667 193 386 144.33333 193.33333 119.333339 92.333339 118 83 118 81.666667 118 79 118 75 118 71 117.666667 67.666667 117 65V59Z"/>
<path transform="matrix(.009351785,0,0,-.009646645,278.42359,17.819005)" d="M21 287C21 292.33335 24 302.66667 30 318 36 333.33335 44.333333 350.66667 55 370 65.666667 389.33335 80.33333 406 99 420 117.66667 434 137.33333 441.33335 158 442 188.66667 442 211.66667 433.66667 227 417 242.33333 400.33335 250 380.66667 250 358 250 346 238.66667 308.66667 216 246 193.33333 183.33333 182 136.33333 182 105 182 76.33333 186.66667 56.333337 196 45 205.33333 33.666666 219.33333 27.666666 238 27 256.66667 26.333334 274.33335 32 291 44 307.66667 56 320 67.333339 328 78L339 95C340.33335 97.666667 353 148.33333 377 247 397 327 409 373.66667 413 387 417 400.33335 421.66667 410 427 416 438.33335 426 450.33335 431 463 431 474.33335 431 482.66667 427.66667 488 421 493.33335 414.33335 496 408 496 402L420 84C419.33335 80.666667 419 75.333339 419 68 419 51.333333 421.33335 40.333333 426 35 430.66667 29.666666 437.66667 26.666666 447 26 461.66667 28 473.33335 38.333333 482 57 490.66667 75.66667 500.66667 105 512 145 513.3333 150.33333 520 153 532 153 544.6667 153 551 150 551 144 550.3333 140.66667 549.6667 136 549 130 548.3333 124 545.3333 113.333339 540 98 534.6667 82.666667 529 68.333339 523 55 517 41.666666 508.66667 29 498 17 487.33335 5 475.33335-3.333333 462-8 456.66667-9.333333 448.66667-10 438-10 394-10 363.66667 8.666664 347 46 345.66667 45.333333 342 42 336 36 330 30 324 25 318 21 312 17 304.66667 12 296 6 287.33335 0 277.66667-4 267-6 256.33335-8 245-9.666667 233-11 203.66667-11 177.66667-5 155 7 120.33333 27.666668 103 63 103 113 103 151 114.666667 200.66666 138 262 161.33333 323.33335 173 362.33335 173 379 173 379.66667 173 380.33335 173 381 173 387 173 391 173 393 173 395 171.66667 397.33335 169 400 166.33333 402.66667 162.66667 404 158 404H154C138.66667 404 124.666667 397.66667 112 385 99.333339 372.33335 89.333339 358.66667 82 344 74.666667 329.33335 69 315.33335 65 302 61 288.66667 58.333333 281.33335 57 280 55.666669 278.66667 50.333337 278 41 278H27C23 282 21 285 21 287Z"/>
<path transform="matrix(.009351785,0,0,-.009646645,278.42359,17.819005)" stroke-width="0" stroke-linecap="butt" stroke-miterlimit="4" stroke-linejoin="miter" fill="none" stroke="#000000" stroke-opacity=".1176" d="M21 287C21 292.33335 24 302.66667 30 318 36 333.33335 44.333333 350.66667 55 370 65.666667 389.33335 80.33333 406 99 420 117.66667 434 137.33333 441.33335 158 442 188.66667 442 211.66667 433.66667 227 417 242.33333 400.33335 250 380.66667 250 358 250 346 238.66667 308.66667 216 246 193.33333 183.33333 182 136.33333 182 105 182 76.33333 186.66667 56.333337 196 45 205.33333 33.666666 219.33333 27.666666 238 27 256.66667 26.333334 274.33335 32 291 44 307.66667 56 320 67.333339 328 78L339 95C340.33335 97.666667 353 148.33333 377 247 397 327 409 373.66667 413 387 417 400.33335 421.66667 410 427 416 438.33335 426 450.33335 431 463 431 474.33335 431 482.66667 427.66667 488 421 493.33335 414.33335 496 408 496 402L420 84C419.33335 80.666667 419 75.333339 419 68 419 51.333333 421.33335 40.333333 426 35 430.66667 29.666666 437.66667 26.666666 447 26 461.66667 28 473.33335 38.333333 482 57 490.66667 75.66667 500.66667 105 512 145 513.3333 150.33333 520 153 532 153 544.6667 153 551 150 551 144 550.3333 140.66667 549.6667 136 549 130 548.3333 124 545.3333 113.333339 540 98 534.6667 82.666667 529 68.333339 523 55 517 41.666666 508.66667 29 498 17 487.33335 5 475.33335-3.333333 462-8 456.66667-9.333333 448.66667-10 438-10 394-10 363.66667 8.666664 347 46 345.66667 45.333333 342 42 336 36 330 30 324 25 318 21 312 17 304.66667 12 296 6 287.33335 0 277.66667-4 267-6 256.33335-8 245-9.666667 233-11 203.66667-11 177.66667-5 155 7 120.33333 27.666668 103 63 103 113 103 151 114.666667 200.66666 138 262 161.33333 323.33335 173 362.33335 173 379 173 379.66667 173 380.33335 173 381 173 387 173 391 173 393 173 395 171.66667 397.33335 169 400 166.33333 402.66667 162.66667 404 158 404H154C138.66667 404 124.666667 397.66667 112 385 99.333339 372.33335 89.333339 358.66667 82 344 74.666667 329.33335 69 315.33335 65 302 61 288.66667 58.333333 281.33335 57 280 55.666669 278.66667 50.333337 278 41 278H27C23 282 21 285 21 287Z"/>
<path transform="matrix(.009351785,0,0,-.009646645,283.7728,17.819005)" d="M21 287C21.666666 291 22.666666 296.33335 24 303 25.333334 309.66667 29.333333 322.33335 36 341 42.666669 359.66667 49.333333 375.33335 56 388 62.666669 400.66667 73.333339 413 88 425 102.666667 437 117.333339 442.66667 132 442 146.66667 441.33335 161 439 175 435 189 431 199 425 205 417 211 409 216.33333 401.66667 221 395 225.66667 388.33335 228.33333 382 229 376L231 369C231 367.66667 231.33333 367 232 367L243 378C283 420.66667 330 442 384 442 395.33335 442 405.66667 441.33335 415 440 424.33335 438.66667 433 436.33335 441 433 449 429.66667 455.33335 426.33335 460 423 464.66667 419.66667 469.66667 415.66667 475 411 480.33335 406.33335 483.66667 402 485 398 486.33335 394 489 389.66667 493 385 497 380.33335 498.33335 376.33335 497 373 495.66667 369.66667 496.66667 366.66667 500 364 503.33335 361.33335 504 359 502 357L510 367C552 417 601.6667 442 659 442 695 442 724 433 746 415 768 397 779.3333 370.66667 780 336 780 302 767.3333 249.33335 742 178 716.6667 106.666667 704 64 704 50 704.6667 40.666666 706.3333 34.333333 709 31 711.6667 27.666666 716.6667 26 724 26 742.6667 26 760 36 776 56 792 76 805 103.33333 815 138 817 145.33333 819 149.66667 821 151 823 152.33333 828.3333 153 837 153 850.3333 153 857 150.33333 857 145 857 144.33333 855.6667 139.33333 853 130 847.6667 110.666667 840.3333 91.66667 831 73 821.6667 54.333333 806.3333 35.666669 785 17 763.6667-1.6666679 740.6667-10.666667 716-10 684.6667-10 662-1 648 17 634 35 627 53.666666 627 73 627 85.666667 639 125.666667 663 193 687 260.33335 699.3333 311 700 345 700 384.33335 685.3333 404 656 404H651C593.6667 404 545.3333 370.33335 506 303L499 291 466 157C444 69.666667 431.33335 22.666668 428 16 419.33335-2 405-11 385-11 376.33335-11 369.33335-8.666667 364-4 358.66667 .666667 355 4.6666667 353 8 351 11.333334 350 14.666666 350 18 350 25.333334 361.33335 73 384 161L420 307C422 317 423 329.66667 423 345 423 384.33335 408.33335 404 379 404H374C316.66667 404 268.33335 370.33335 229 303L222 291 189 157C167 69.666667 154.33333 22.666668 151 16 142.33333-2 128-11 108-11 99.333339-11 92.333339-9 87-5 81.666667-1 78 3 76 7 74 11 73.333339 14.333333 74 17 74 25.666668 86.666667 80.33333 112 181 138 283.6667 151 337.33335 151 342 153 352 154 361 154 369 154 393 145.66667 405 129 405 114.333339 405 102 395.66667 92 377 82 358.33335 74.333339 338 69 316 63.666669 294 59.666669 282 57 280 55.666669 278.66667 50.333337 278 41 278H27C23 282 21 285 21 287Z"/>
<path transform="matrix(.009351785,0,0,-.009646645,283.7728,17.819005)" stroke-width="0" stroke-linecap="butt" stroke-miterlimit="4" stroke-linejoin="miter" fill="none" stroke="#000000" stroke-opacity=".1176" d="M21 287C21.666666 291 22.666666 296.33335 24 303 25.333334 309.66667 29.333333 322.33335 36 341 42.666669 359.66667 49.333333 375.33335 56 388 62.666669 400.66667 73.333339 413 88 425 102.666667 437 117.333339 442.66667 132 442 146.66667 441.33335 161 439 175 435 189 431 199 425 205 417 211 409 216.33333 401.66667 221 395 225.66667 388.33335 228.33333 382 229 376L231 369C231 367.66667 231.33333 367 232 367L243 378C283 420.66667 330 442 384 442 395.33335 442 405.66667 441.33335 415 440 424.33335 438.66667 433 436.33335 441 433 449 429.66667 455.33335 426.33335 460 423 464.66667 419.66667 469.66667 415.66667 475 411 480.33335 406.33335 483.66667 402 485 398 486.33335 394 489 389.66667 493 385 497 380.33335 498.33335 376.33335 497 373 495.66667 369.66667 496.66667 366.66667 500 364 503.33335 361.33335 504 359 502 357L510 367C552 417 601.6667 442 659 442 695 442 724 433 746 415 768 397 779.3333 370.66667 780 336 780 302 767.3333 249.33335 742 178 716.6667 106.666667 704 64 704 50 704.6667 40.666666 706.3333 34.333333 709 31 711.6667 27.666666 716.6667 26 724 26 742.6667 26 760 36 776 56 792 76 805 103.33333 815 138 817 145.33333 819 149.66667 821 151 823 152.33333 828.3333 153 837 153 850.3333 153 857 150.33333 857 145 857 144.33333 855.6667 139.33333 853 130 847.6667 110.666667 840.3333 91.66667 831 73 821.6667 54.333333 806.3333 35.666669 785 17 763.6667-1.6666679 740.6667-10.666667 716-10 684.6667-10 662-1 648 17 634 35 627 53.666666 627 73 627 85.666667 639 125.666667 663 193 687 260.33335 699.3333 311 700 345 700 384.33335 685.3333 404 656 404H651C593.6667 404 545.3333 370.33335 506 303L499 291 466 157C444 69.666667 431.33335 22.666668 428 16 419.33335-2 405-11 385-11 376.33335-11 369.33335-8.666667 364-4 358.66667 .666667 355 4.6666667 353 8 351 11.333334 350 14.666666 350 18 350 25.333334 361.33335 73 384 161L420 307C422 317 423 329.66667 423 345 423 384.33335 408.33335 404 379 404H374C316.66667 404 268.33335 370.33335 229 303L222 291 189 157C167 69.666667 154.33333 22.666668 151 16 142.33333-2 128-11 108-11 99.333339-11 92.333339-9 87-5 81.666667-1 78 3 76 7 74 11 73.333339 14.333333 74 17 74 25.666668 86.666667 80.33333 112 181 138 283.6667 151 337.33335 151 342 153 352 154 361 154 369 154 393 145.66667 405 129 405 114.333339 405 102 395.66667 92 377 82 358.33335 74.333339 338 69 316 63.666669 294 59.666669 282 57 280 55.666669 278.66667 50.333337 278 41 278H27C23 282 21 285 21 287Z"/>
<path transform="matrix(.009351785,0,0,-.009646645,291.98368,17.819005)" d="M21 287C21.666666 291 22.666666 296.33335 24 303 25.333334 309.66667 29.333333 322.33335 36 341 42.666669 359.66667 49.333333 375.33335 56 388 62.666669 400.66667 73.666667 413 89 425 104.333339 437 119.666667 442.66667 135 442 159 442 179 436 195 424 211 412 221 400.66667 225 390 229 379.33335 231 372.33335 231 369 231 367.66667 231.33333 367 232 367L243 378C283.66667 420.66667 330 442 382 442 418 442 447 433 469 415 491 397 502.33335 370.66667 503 336 503.66667 301.33335 491 249 465 179 439 109 426.33335 66.666667 427 52 427 34.666666 432.66667 26 444 26 448 26 451 26.333334 453 27 472.33335 30.333334 489.66667 43 505 65 520.3333 87 532 113.666667 540 145 541.3333 150.33333 548 153 560 153 573.3333 153 580 150.33333 580 145 580 144.33333 578.6667 139.33333 576 130 570.6667 110.666667 563.3333 91.66667 554 73 544.6667 54.333333 529.3333 35.666669 508 17 486.66667-1.6666679 463.66667-10.666667 439-10 407.66667-10 385-1 371 17 357 35 350 53.666666 350 73 350 85.666667 362 125.666667 386 193 410 260.33335 422.33335 311 423 345 423 384.33335 408.33335 404 379 404H374C316.66667 404 268.33335 370.33335 229 303L222 291 189 157C167 69.666667 154.33333 22.666668 151 16 142.33333-2 128-11 108-11 99.333339-11 92.333339-9 87-5 81.666667-1 78 3 76 7 74 11 73.333339 14.333333 74 17 74 25.666668 86.666667 80 112 180 137.33333 280 150.66667 334.33335 152 343 152.66667 346.33335 153 354 153 366 153 392 145 405 129 405 103.666667 405 82.66667 371.6667 66 305 62 291.66667 60 284.66667 60 284 58.666669 280 52.333337 278 41 278H27C23 282 21 285 21 287Z"/>
<path transform="matrix(.009351785,0,0,-.009646645,291.98368,17.819005)" stroke-width="0" stroke-linecap="butt" stroke-miterlimit="4" stroke-linejoin="miter" fill="none" stroke="#000000" stroke-opacity=".1176" d="M21 287C21.666666 291 22.666666 296.33335 24 303 25.333334 309.66667 29.333333 322.33335 36 341 42.666669 359.66667 49.333333 375.33335 56 388 62.666669 400.66667 73.666667 413 89 425 104.333339 437 119.666667 442.66667 135 442 159 442 179 436 195 424 211 412 221 400.66667 225 390 229 379.33335 231 372.33335 231 369 231 367.66667 231.33333 367 232 367L243 378C283.66667 420.66667 330 442 382 442 418 442 447 433 469 415 491 397 502.33335 370.66667 503 336 503.66667 301.33335 491 249 465 179 439 109 426.33335 66.666667 427 52 427 34.666666 432.66667 26 444 26 448 26 451 26.333334 453 27 472.33335 30.333334 489.66667 43 505 65 520.3333 87 532 113.666667 540 145 541.3333 150.33333 548 153 560 153 573.3333 153 580 150.33333 580 145 580 144.33333 578.6667 139.33333 576 130 570.6667 110.666667 563.3333 91.66667 554 73 544.6667 54.333333 529.3333 35.666669 508 17 486.66667-1.6666679 463.66667-10.666667 439-10 407.66667-10 385-1 371 17 357 35 350 53.666666 350 73 350 85.666667 362 125.666667 386 193 410 260.33335 422.33335 311 423 345 423 384.33335 408.33335 404 379 404H374C316.66667 404 268.33335 370.33335 229 303L222 291 189 157C167 69.666667 154.33333 22.666668 151 16 142.33333-2 128-11 108-11 99.333339-11 92.333339-9 87-5 81.666667-1 78 3 76 7 74 11 73.333339 14.333333 74 17 74 25.666668 86.666667 80 112 180 137.33333 280 150.66667 334.33335 152 343 152.66667 346.33335 153 354 153 366 153 392 145 405 129 405 103.666667 405 82.66667 371.6667 66 305 62 291.66667 60 284.66667 60 284 58.666669 280 52.333337 278 41 278H27C23 282 21 285 21 287Z"/>
<path transform="matrix(.7170172,0,0,.7170172,.3585086,.3585086)" stroke-width="1" stroke-linecap="butt" stroke-miterlimit="10" stroke-linejoin="miter" fill="none" stroke="#000000" d="M101 121H96C92.666667 121 91 124.333339 91 131V231C91 237.66667 89.333339 241 86 241H83.5C81.833339 241 82.666667 241 86 241H88.5C90.166667 241 91 244.33333 91 251V351C91 357.66667 92.666667 361 96 361H101"/>
<path transform="matrix(.013602648,0,0,-.0136444759,22.955784,177.1012)" d="M234 637C232 637 229.33333 637 226 637 209.33333 637 199.33333 637.3333 196 638 192.66667 638.6667 191 642.3333 191 649 191 667 194.66667 678 202 682 203.33333 682.6667 235.66666 683 299 683 350.33335 683 379.66667 683 387 683 394.33335 683 399 681 401 677 541.6667 346.3333 613.3333 176.66667 616 168L670 381C705.3333 521.6667 723 596.6667 723 606 723 624 701.6667 634.3333 659 637 643 637 635 640.6667 635 648 635 649.3333 635.6667 653.3333 637 660 639.6667 670.6667 641.6667 677 643 679 644.3333 681 647.6667 682.3333 653 683 655 683 665.3333 682.6667 684 682 702.6667 681.3333 730.3333 680.6667 767 680 800.3333 680 825.6667 680.3333 843 681 860.3333 681.6667 870.3333 682 873 682 883 682 888 678.6667 888 672 888 657.3333 885.3333 647.3333 880 642 878.6667 638.6667 871.3333 637 858 637 810.6667 634.3333 781 621 769 597L620 7C618.6667 2.333333 611.6667 0 599 0 589.6667 0 584 .6666666 582 2 580 4 537 105 453 305L326 604 261 344C217.66666 173.33333 196 85 196 79 199.33333 57 223.33333 46 268 46H278C282 42.666669 284 40 284 38 284 36 283.33335 29.666668 282 19 279.33335 10.333333 276 4 272 0H259C238.33333 1.3333334 202.33335 2 151 2 132.33333 2 115.333339 2 100 2 84.666667 2 72.333339 2 63 2 53.666666 2 48 1.6666668 46 1 36 1 31 4 31 10 31 12.666667 32 18 34 26 36 34 37.666669 38.666669 39 40 40.333333 44 48 46 62 46 107.333339 48 136.66667 61 150 85 152.66667 89 176.33333 181.33333 221 362L289 634C287.66667 634.6667 269.33335 635.6667 234 637Z"/>
<path transform="matrix(.013602648,0,0,-.0136444759,22.955784,177.1012)" stroke-width="0" stroke-linecap="butt" stroke-miterlimit="4" stroke-linejoin="miter" fill="none" stroke="#000000" stroke-opacity=".1686" d="M234 637C232 637 229.33333 637 226 637 209.33333 637 199.33333 637.3333 196 638 192.66667 638.6667 191 642.3333 191 649 191 667 194.66667 678 202 682 203.33333 682.6667 235.66666 683 299 683 350.33335 683 379.66667 683 387 683 394.33335 683 399 681 401 677 541.6667 346.3333 613.3333 176.66667 616 168L670 381C705.3333 521.6667 723 596.6667 723 606 723 624 701.6667 634.3333 659 637 643 637 635 640.6667 635 648 635 649.3333 635.6667 653.3333 637 660 639.6667 670.6667 641.6667 677 643 679 644.3333 681 647.6667 682.3333 653 683 655 683 665.3333 682.6667 684 682 702.6667 681.3333 730.3333 680.6667 767 680 800.3333 680 825.6667 680.3333 843 681 860.3333 681.6667 870.3333 682 873 682 883 682 888 678.6667 888 672 888 657.3333 885.3333 647.3333 880 642 878.6667 638.6667 871.3333 637 858 637 810.6667 634.3333 781 621 769 597L620 7C618.6667 2.333333 611.6667 0 599 0 589.6667 0 584 .6666666 582 2 580 4 537 105 453 305L326 604 261 344C217.66666 173.33333 196 85 196 79 199.33333 57 223.33333 46 268 46H278C282 42.666669 284 40 284 38 284 36 283.33335 29.666668 282 19 279.33335 10.333333 276 4 272 0H259C238.33333 1.3333334 202.33335 2 151 2 132.33333 2 115.333339 2 100 2 84.666667 2 72.333339 2 63 2 53.666666 2 48 1.6666668 46 1 36 1 31 4 31 10 31 12.666667 32 18 34 26 36 34 37.666669 38.666669 39 40 40.333333 44 48 46 62 46 107.333339 48 136.66667 61 150 85 152.66667 89 176.33333 181.33333 221 362L289 634C287.66667 634.6667 269.33335 635.6667 234 637Z"/>
<path transform="matrix(.0096170729,0,0,-.009646645,34.3276,179.14789)" d="M21 287C21.666666 289 22.333334 291.66667 23 295 23.666666 298.33335 25.333334 305.66667 28 317 30.666666 328.33335 34 338.66667 38 348 42 357.33335 47 368.33335 53 381 59 393.66667 65.666667 403.66667 73 411 80.333339 418.33335 89 425.66667 99 433 109 440.33335 120 443.33335 132 442 151.33333 442 168.33333 438 183 430 197.66667 422 208 414.66667 214 408 220 401.33335 223.66667 394.66667 225 388 226.33333 384 227.33333 382 228 382 228.66667 382 231.33333 384.33335 236 389 268 423.66667 305 441 347 441H350C382 441 406 427.33335 422 400 427.33335 387.33335 430 375 430 363 430 343 425.66667 327 417 315 408.33335 303 399.66667 295.33335 391 292 382.33335 288.66667 374 287.33335 366 288 352.66667 288 342 291.66667 334 299 326 306.33335 322 316 322 328 322 360 340.66667 381.33335 378 392 363.33335 400.66667 351.33335 405 342 405 304.66667 405 270.33335 380.33335 239 331 232.33333 320.33335 227.33333 309.33335 224 298 220.66667 286.66667 209.33333 242.33335 190 165 167.33333 71.666667 154.33333 22 151 16 142.33333-2 128-11 108-11 99.333339-11 92.333339-9 87-5 81.666667-1 78 3 76 7 74 11 73.333339 14.333333 74 17 74 25.666668 87.33333 83 114 189 140.66667 295 154 354 154 366 154 392 145.33333 405 128 405 114 405 102 395.66667 92 377 82 358.33335 74 338 68 316 62 294 58.333333 282 57 280 55.666669 278.66667 50.333337 278 41 278H27C23 282 21 285 21 287Z"/>
<path transform="matrix(.0096170729,0,0,-.009646645,34.3276,179.14789)" stroke-width="0" stroke-linecap="butt" stroke-miterlimit="4" stroke-linejoin="miter" fill="none" stroke="#000000" stroke-opacity=".1216" d="M21 287C21.666666 289 22.333334 291.66667 23 295 23.666666 298.33335 25.333334 305.66667 28 317 30.666666 328.33335 34 338.66667 38 348 42 357.33335 47 368.33335 53 381 59 393.66667 65.666667 403.66667 73 411 80.333339 418.33335 89 425.66667 99 433 109 440.33335 120 443.33335 132 442 151.33333 442 168.33333 438 183 430 197.66667 422 208 414.66667 214 408 220 401.33335 223.66667 394.66667 225 388 226.33333 384 227.33333 382 228 382 228.66667 382 231.33333 384.33335 236 389 268 423.66667 305 441 347 441H350C382 441 406 427.33335 422 400 427.33335 387.33335 430 375 430 363 430 343 425.66667 327 417 315 408.33335 303 399.66667 295.33335 391 292 382.33335 288.66667 374 287.33335 366 288 352.66667 288 342 291.66667 334 299 326 306.33335 322 316 322 328 322 360 340.66667 381.33335 378 392 363.33335 400.66667 351.33335 405 342 405 304.66667 405 270.33335 380.33335 239 331 232.33333 320.33335 227.33333 309.33335 224 298 220.66667 286.66667 209.33333 242.33335 190 165 167.33333 71.666667 154.33333 22 151 16 142.33333-2 128-11 108-11 99.333339-11 92.333339-9 87-5 81.666667-1 78 3 76 7 74 11 73.333339 14.333333 74 17 74 25.666668 87.33333 83 114 189 140.66667 295 154 354 154 366 154 392 145.33333 405 128 405 114 405 102 395.66667 92 377 82 358.33335 74 338 68 316 62 294 58.333333 282 57 280 55.666669 278.66667 50.333337 278 41 278H27C23 282 21 285 21 287Z"/>
<path transform="matrix(.0096170729,0,0,-.009646645,38.664899,179.14789)" d="M201-11C151-11 110.66667 5.333332 80 38 49.333333 70.66667 34 110 34 156 34 199.33335 44 240.33333 64 279 84 317.66667 111.33333 351.33335 146 380 196.66667 420.66667 248.33333 441 301 441 322.33335 441 335.66667 440.66667 341 440 349.66667 438 358.33335 435.66667 367 433 375.66667 430.33335 387.33335 425 402 417 416.66667 409 428.66667 399 438 387 447.33335 375 456 358.66667 464 338 472 317.33335 476 294 476 268 476 196.66666 447.33335 132.33335 390 75 332.66667 17.666665 269.6667-11 201-11ZM121 120C121 86.666667 129.66667 62.666669 147 48 164.33333 33.333333 184 26 206 26 235.33333 26 263 36.666666 289 58 315 79.333339 335.66667 107.33333 351 142 357 156 364.66667 180.66666 374 216 383.33335 251.33335 388 282 388 308 388 337.33335 382 359.66667 370 375 354 395 332.66667 405 306 405 264 405 227 385.66667 195 347 170.33333 317.66667 152 278.66667 140 230 128 181.33333 121.666667 144.66667 121 120Z"/>
<path transform="matrix(.0096170729,0,0,-.009646645,38.664899,179.14789)" stroke-width="0" stroke-linecap="butt" stroke-miterlimit="4" stroke-linejoin="miter" fill="none" stroke="#000000" stroke-opacity=".1216" d="M201-11C151-11 110.66667 5.333332 80 38 49.333333 70.66667 34 110 34 156 34 199.33335 44 240.33333 64 279 84 317.66667 111.33333 351.33335 146 380 196.66667 420.66667 248.33333 441 301 441 322.33335 441 335.66667 440.66667 341 440 349.66667 438 358.33335 435.66667 367 433 375.66667 430.33335 387.33335 425 402 417 416.66667 409 428.66667 399 438 387 447.33335 375 456 358.66667 464 338 472 317.33335 476 294 476 268 476 196.66666 447.33335 132.33335 390 75 332.66667 17.666665 269.6667-11 201-11ZM121 120C121 86.666667 129.66667 62.666669 147 48 164.33333 33.333333 184 26 206 26 235.33333 26 263 36.666666 289 58 315 79.333339 335.66667 107.33333 351 142 357 156 364.66667 180.66666 374 216 383.33335 251.33335 388 282 388 308 388 337.33335 382 359.66667 370 375 354 395 332.66667 405 306 405 264 405 227 385.66667 195 347 170.33333 317.66667 152 278.66667 140 230 128 181.33333 121.666667 144.66667 121 120Z"/>
<path transform="matrix(.0096170729,0,0,-.009646645,43.329179,179.14789)" d="M580 385C580 399 586.3333 412 599 424 611.6667 436 625.6667 442.33335 641 443 653 443 664 437 674 425 684 413 689.3333 394 690 368 690 348.66667 683.6667 310.33335 671 253 661 215.66666 652 185 644 161 636 137 624.3333 110 609 80 593.6667 50 575.3333 27.333334 554 12 532.6667-3.333334 508.66667-11 482-11 452.66667-11 426.66667-5.666667 404 5 381.33335 15.666667 365 30 355 48 354.33335 47.333333 353.33335 46 352 44 324.66667 7.333332 291.33335-11 252-11 234.66667-11 218-9 202-5 186-1 170.33333 5.333333 155 14 139.66667 22.666668 127.333339 35.666666 118 53 108.666667 70.333339 104 91.33333 104 116 104 152 115.33333 200.66666 138 262 160.66667 323.33335 172.33333 362.33335 173 379 173 379.66667 173 380.33335 173 381 173 387 173 391 173 393 173 395 171.66667 397.33335 169 400 166.33333 402.66667 162.66667 404 158 404H154C138.66667 404 124.666667 397.66667 112 385 99.333339 372.33335 89.333339 358.66667 82 344 74.666667 329.33335 69 315.33335 65 302 61 288.66667 58.333333 281.33335 57 280 55.666669 278.66667 50.333337 278 41 278H27C23 282 21 285 21 287 21 291 23.666666 300.33335 29 315 34.333333 329.66667 42 346.66667 52 366 62 385.33335 76.666667 402.66667 96 418 115.333339 433.33335 137 441 161 441 189.66667 441 211.66667 432.66667 227 416 242.33333 399.33335 250 380 250 358 250 346 239 310 217 250 195 190 184 143.66667 184 111 184 80.33333 191 58.666669 205 46 219 33.333333 236.66667 26.666666 258 26 286.66667 26 312 46.333333 334 87L339 96V119C339 121 339 124 339 128 339 132 339.33335 134.66667 340 136 340.66667 137.33333 341 139.66667 341 143 341 146.33333 341.33335 149.33333 342 152 342.66667 154.66667 343.66667 159 345 165 346.33335 171 347.33335 176.66667 348 182 348.66667 187.33333 350.66667 195.33333 354 206 357.33335 216.66667 360 227.33333 362 238 364 248.66667 367.66667 263 373 281 392.33335 357 403.33335 398 406 404 414.66667 422 429 431 449 431 461.66667 431 470.33335 427.66667 475 421 479.66667 414.33335 482.33335 408 483 402 483 393.33335 473.33335 350.6667 454 274 434.66667 197.33333 424 153.33333 422 142 420.66667 134.66667 420 123 420 107V100C420 90 421 80.333339 423 71 425 61.666666 431.33335 52 442 42 452.66667 32 467.66667 26.666666 487 26 534.3333 26 572 66.666667 600 148 606 163.33333 612.6667 185 620 213 627.3333 241 631.3333 261 632 273 632 295 627.6667 312.33335 619 325 610.3333 337.66667 601.6667 348.33335 593 357 584.3333 365.66667 580 375 580 385Z"/>
<path transform="matrix(.0096170729,0,0,-.009646645,43.329179,179.14789)" stroke-width="0" stroke-linecap="butt" stroke-miterlimit="4" stroke-linejoin="miter" fill="none" stroke="#000000" stroke-opacity=".1216" d="M580 385C580 399 586.3333 412 599 424 611.6667 436 625.6667 442.33335 641 443 653 443 664 437 674 425 684 413 689.3333 394 690 368 690 348.66667 683.6667 310.33335 671 253 661 215.66666 652 185 644 161 636 137 624.3333 110 609 80 593.6667 50 575.3333 27.333334 554 12 532.6667-3.333334 508.66667-11 482-11 452.66667-11 426.66667-5.666667 404 5 381.33335 15.666667 365 30 355 48 354.33335 47.333333 353.33335 46 352 44 324.66667 7.333332 291.33335-11 252-11 234.66667-11 218-9 202-5 186-1 170.33333 5.333333 155 14 139.66667 22.666668 127.333339 35.666666 118 53 108.666667 70.333339 104 91.33333 104 116 104 152 115.33333 200.66666 138 262 160.66667 323.33335 172.33333 362.33335 173 379 173 379.66667 173 380.33335 173 381 173 387 173 391 173 393 173 395 171.66667 397.33335 169 400 166.33333 402.66667 162.66667 404 158 404H154C138.66667 404 124.666667 397.66667 112 385 99.333339 372.33335 89.333339 358.66667 82 344 74.666667 329.33335 69 315.33335 65 302 61 288.66667 58.333333 281.33335 57 280 55.666669 278.66667 50.333337 278 41 278H27C23 282 21 285 21 287 21 291 23.666666 300.33335 29 315 34.333333 329.66667 42 346.66667 52 366 62 385.33335 76.666667 402.66667 96 418 115.333339 433.33335 137 441 161 441 189.66667 441 211.66667 432.66667 227 416 242.33333 399.33335 250 380 250 358 250 346 239 310 217 250 195 190 184 143.66667 184 111 184 80.33333 191 58.666669 205 46 219 33.333333 236.66667 26.666666 258 26 286.66667 26 312 46.333333 334 87L339 96V119C339 121 339 124 339 128 339 132 339.33335 134.66667 340 136 340.66667 137.33333 341 139.66667 341 143 341 146.33333 341.33335 149.33333 342 152 342.66667 154.66667 343.66667 159 345 165 346.33335 171 347.33335 176.66667 348 182 348.66667 187.33333 350.66667 195.33333 354 206 357.33335 216.66667 360 227.33333 362 238 364 248.66667 367.66667 263 373 281 392.33335 357 403.33335 398 406 404 414.66667 422 429 431 449 431 461.66667 431 470.33335 427.66667 475 421 479.66667 414.33335 482.33335 408 483 402 483 393.33335 473.33335 350.6667 454 274 434.66667 197.33333 424 153.33333 422 142 420.66667 134.66667 420 123 420 107V100C420 90 421 80.333339 423 71 425 61.666666 431.33335 52 442 42 452.66667 32 467.66667 26.666666 487 26 534.3333 26 572 66.666667 600 148 606 163.33333 612.6667 185 620 213 627.3333 241 631.3333 261 632 273 632 295 627.6667 312.33335 619 325 610.3333 337.66667 601.6667 348.33335 593 357 584.3333 365.66667 580 375 580 385Z"/>
</g>
</svg>
