<svg xmlns="http://www.w3.org/2000/svg" xmlns:xlink="http://www.w3.org/1999/xlink" xmlns:inkscape="http://www.inkscape.org/namespaces/inkscape" version="1.1" width="808.07998" height="390.96" viewBox="0 0 808.07998 390.96">
<defs>
<clipPath id="clip_1">
<path transform="matrix(.24,0,0,.24,0,0)" d="M0 0H3366.6666V1626.4235H0Z" clip-rule="evenodd"/>
</clipPath>
<clipPath id="clip_2">
<path transform="matrix(.24,0,0,.24,0,0)" d="M0 0H3366.6666V1626.4235H0Z" clip-rule="evenodd"/>
</clipPath>
<path id="font_3_62" d="M.067871097-.19921875V.7158203H.26171876V.6425781H.15576172V-.12597656H.26171876V-.19921875H.067871097Z"/>
<path id="font_3_19" d="M.041503908 .35327149C.041503908 .43784587 .05021159 .50591537 .06762695 .55747988 .08504232 .6090444 .11092123 .6488139 .14526367 .67678835 .17960613 .70476278 .22281902 .71875 .27490235 .71875 .3133138 .71875 .34700523 .711024 .37597657 .6955719 .4049479 .6801198 .4288737 .6578369 .4477539 .62872317 .46663413 .5996094 .4814453 .56414797 .4921875 .52233889 .5029297 .48053996 .5083008 .42418418 .5083008 .35327149 .5083008 .26934815 .49967448 .2016042 .48242188 .15003968 .46516929 .098475139 .43937174 .058624269 .4050293 .03048706 .37068687 .0023498536 .3273112-.01171875 .27490235-.01171875 .20589192-.01171875 .1516927 .013005574 .11230469 .062454225 .065104167 .12198385 .041503908 .21892293 .041503908 .35327149M.13183594 .35351563C.13183594 .23639934 .14558919 .15845235 .1730957 .11967468 .20060222 .08090719 .23453777 .061523439 .27490235 .061523439 .31526695 .061523439 .34920249 .08098856 .37670899 .11991882 .40421549 .15884908 .41796876 .23671468 .41796876 .35351563 .41796876 .47095744 .40421549 .5489807 .37670899 .58758547 .34920249 .6262004 .3149414 .6455078 .27392579 .6455078 .2335612 .6455078 .20133464 .62847396 .1772461 .5944061 .14697266 .5509288 .13183594 .47063194 .13183594 .35351563Z"/>
<path id="font_3_64" d="M.21289063-.19921875H.019042969V-.12597656H.125V.6425781H.019042969V.7158203H.21289063V-.19921875Z"/>
<path id="font_3_20" d="M.3725586 0H.28466798V.5600586C.26350913 .5398763 .23575847 .51969406 .20141602 .49951173 .16707357 .47932945 .13623047 .46419273 .10888672 .45410157V.5390625C.15804036 .5621745 .20100911 .59016928 .23779297 .6230469 .2745768 .6559245 .3006185 .6878255 .31591798 .71875H.3725586V0Z"/>
<path id="font_3_21" d="M.50341799 .084472659V0H.030273438C.029622397 .021148682 .033040365 .041483564 .040527345 .06100464 .052571615 .09321085 .07185873 .124928798 .09838867 .15615845 .12491862 .1873881 .1632487 .22350057 .2133789 .26449586 .29117839 .3282369 .34375 .37872825 .37109376 .41596986 .3984375 .45321147 .41210938 .48841859 .41210938 .5215912 .41210938 .5563914 .3996582 .5857442 .37475587 .60964968 .34985353 .6335551 .3173828 .6455078 .27734376 .6455078 .23502605 .6455078 .20117188 .6328125 .17578125 .6074219 .15039063 .58203127 .13753255 .546875 .13720703 .5019531L.046875 .5112457C.053059896 .5787811 .07633463 .630249 .11669922 .6656494 .1570638 .7010498 .21126302 .71875 .27929688 .71875 .34798179 .71875 .40234376 .69970199 .4423828 .66160586 .48242188 .6235097 .5024414 .57629397 .5024414 .5199585 .5024414 .4913025 .49658204 .46313478 .48486329 .43545533 .47314454 .40777589 .45369468 .3786316 .42651368 .34802247 .39933268 .3174235 .35416667 .27542115 .29101563 .22201538 .23828125 .17779541 .20442708 .14779663 .18945313 .13201905 .17447917 .116251628 .16210938 .10040283 .15234375 .084472659H.50341799Z"/>
<path id="font_3_22" d="M.041992189 .19042969 .12988281 .20214844C.13997396 .15234375 .15714519 .11645508 .18139649 .09448242 .20564778 .072509769 .2351888 .061523439 .27001954 .061523439 .3113607 .061523439 .3462728 .07582092 .37475587 .10441589 .40323893 .13301087 .41748048 .1684316 .41748048 .2106781 .41748048 .25098167 .40429688 .2842102 .3779297 .31036378 .3515625 .3365275 .31803385 .34960938 .27734376 .34960938 .2607422 .34960938 .24007161 .34635417 .21533203 .33984376L.22509766 .4169922C.23095703 .41634117 .23567708 .41601563 .23925781 .41601563 .27669273 .41601563 .31038413 .42569987 .34033204 .44506837 .37027995 .46443687 .3852539 .4942932 .3852539 .53463748 .3852539 .56658938 .37434898 .59305319 .35253907 .61402896 .33072917 .63501486 .30257163 .6455078 .2680664 .6455078 .23388672 .6455078 .20540364 .6347656 .18261719 .61328127 .15983074 .5917969 .1451823 .5595703 .13867188 .51660159L.05078125 .53222659C.061523439 .591451 .0859375 .63734439 .12402344 .6699066 .16210938 .7024689 .20947266 .71875 .26611329 .71875 .30517579 .71875 .34114585 .71039327 .37402345 .6936798 .40690104 .67696639 .43204753 .6541646 .4494629 .62527468 .46687828 .59639486 .47558595 .5657247 .47558595 .53326418 .47558595 .5024312 .46728517 .47435508 .4506836 .44903565 .43408204 .4237264 .40950523 .40360514 .37695313 .38867188 .41927085 .37890626 .45214845 .35864259 .47558595 .32788087 .49902345 .29711915 .5107422 .2586263 .5107422 .21240235 .5107422 .14990235 .48795573 .09692383 .4423828 .053466798 .3968099 .010009766 .33919273-.01171875 .26953126-.01171875 .20670574-.01171875 .15454102 .007044474 .11303711 .044570924 .0715332 .082097377 .047851564 .13071697 .041992189 .19042969Z"/>
<path id="font_3_85" d="M.064941409 0V.5185547H.14404297V.4404297C.16422527 .4770101 .18286133 .50112918 .19995117 .51278689 .21704102 .5244446 .23583985 .53027346 .25634767 .53027346 .28597007 .53027346 .31608073 .520874 .3466797 .5020752L.31640626 .42089845C.29492188 .43359376 .2734375 .4399414 .25195313 .4399414 .23274739 .4399414 .2154948 .43415324 .20019531 .4225769 .18489583 .41101075 .17399089 .3949636 .16748047 .37443543 .15771485 .3431549 .15283203 .3089396 .15283203 .27178956V0H.064941409Z"/>
<path id="font_3_82" d="M.033203126 .25927735C.033203126 .355306 .059895833 .42643229 .11328125 .47265626 .15787761 .5110677 .21223958 .53027346 .2763672 .53027346 .34765626 .53027346 .40592448 .5069173 .45117188 .46020509 .49641929 .41349284 .51904299 .34895835 .51904299 .26660157 .51904299 .1998698 .5090332 .14737956 .48901368 .10913086 .46899415 .070882167 .43986003 .041178388 .40161134 .020019532 .36336265-.0011393229 .3216146-.01171875 .2763672-.01171875 .20377605-.01171875 .1451009 .011555989 .1003418 .05810547 .055582685 .104654949 .033203126 .17171224 .033203126 .25927735M.123535159 .25952149C.123535159 .19335938 .13802083 .14381917 .16699219 .11090088 .19596355 .07798258 .23242188 .061523439 .2763672 .061523439 .31998698 .061523439 .35628257 .078063968 .3852539 .11114502 .41422526 .14422608 .42871095 .19465637 .42871095 .2624359 .42871095 .32632957 .4141439 .3747355 .38500978 .4076538 .35587565 .4405721 .31966148 .45703126 .2763672 .45703126 .23242188 .45703126 .19596355 .44065348 .16699219 .40789796 .13802083 .37514244 .123535159 .3256836 .123535159 .25952149Z"/>
<path id="font_3_90" d="M.1616211 0 .0029296876 .5185547H.09375L.17626953 .21928406 .20703125 .107910159C.20833333 .11343384 .21728516 .14904277 .23388672 .21473694L.31640626 .5185547H.40673829L.484375 .21783448 .5102539 .118652347 .54003909 .21876526 .62890627 .5185547H.71435549L.5522461 0H.4609375L.37841798 .31071473 .35839845 .39892579 .25341798 0H.1616211Z"/>
<path id="font_3_73" d="M.08691406 0V.4501953H.009277344V.5185547H.08691406V.5736084C.08691406 .6083577 .09000651 .6341756 .096191409 .651062 .104654949 .6737874 .11954752 .69221499 .14086914 .7063446 .16219075 .72047427 .1920573 .72753909 .23046875 .72753909 .25520835 .72753909 .2825521 .7246094 .3125 .71875L.2993164 .64208987C.28108726 .64534506 .26383464 .64697268 .2475586 .64697268 .22086589 .64697268 .20198567 .6412964 .19091797 .62994387 .17985027 .6185913 .1743164 .5973511 .1743164 .56622317V.5185547H.27539063V.4501953H.1743164V0H.08691406Z"/>
<path id="font_3_86" d="M.030761719 .15527344 .11767578 .16894531C.122558597 .13426717 .1361491 .107691448 .15844727 .08921814 .18074544 .070755008 .21191406 .061523439 .25195313 .061523439 .29231773 .061523439 .32226563 .06967672 .34179688 .08598328 .36132813 .10230001 .37109376 .12143453 .37109376 .14338684 .37109376 .16309102 .36246745 .17859395 .34521485 .18989563 .33317057 .1976471 .30322267 .20749919 .2553711 .2194519 .19091797 .23573812 .14624024 .24982707 .12133789 .26171876 .09643555 .27361045 .077555339 .29006449 .064697269 .31108094 .05183919 .33209739 .045410158 .35531108 .045410158 .38072206 .045410158 .40385438 .05069987 .4252777 .061279298 .44499208 .07185873 .46470643 .08626302 .4810791 .10449219 .4941101 .11816406 .5042114 .13680013 .5127614 .16040039 .51976016 .18400066 .526769 .20930989 .53027346 .23632813 .53027346 .27701823 .53027346 .31274415 .52437338 .34350587 .51257327 .37426759 .50078329 .39697267 .48480735 .4116211 .4646454 .42626954 .44449363 .4363607 .4175415 .44189454 .38378907L.35595704 .3720703C.35205079 .39876304 .34073893 .41959635 .32202149 .4345703 .30330406 .44954429 .27685548 .45703126 .24267578 .45703126 .2023112 .45703126 .17350261 .45038859 .15625 .43710328 .13899739 .42382813 .1303711 .40827943 .1303711 .39045716 .1303711 .37912498 .13395183 .3689219 .14111328 .35984803 .14827474 .35045878 .1595052 .34268699 .17480469 .3365326 .18359375 .33328758 .20947266 .32583619 .2524414 .31417848 .31461589 .29758708 .35799156 .28400675 .38256837 .2734375 .40714518 .26286827 .42643229 .24749756 .4404297 .22732544 .4544271 .2071635 .46142579 .18212383 .46142579 .15220642 .46142579 .12292989 .45288087 .09536234 .43579103 .069503787 .41870118 .043655397 .39404298 .02365621 .3618164 .009506226 .32958985-.0046437585 .2931315-.01171875 .2524414-.01171875 .1850586-.01171875 .13370769 .002319336 .09838867 .030395508 .063069667 .05847168 .040527345 .100097659 .030761719 .15527344Z"/>
<path id="font_3_72" d="M.42089845 .16699219 .51171877 .15576172C.49739585 .10270182 .47086589 .061523439 .4321289 .032226564 .39339195 .0029296876 .34391276-.01171875 .2836914-.01171875 .20784505-.01171875 .14770508 .01163737 .103271488 .05834961 .05883789 .10506185 .036621095 .17057292 .036621095 .2548828 .036621095 .3421224 .05908203 .40983073 .104003909 .4580078 .14892578 .5061849 .20719402 .53027346 .2788086 .53027346 .34814454 .53027346 .40478517 .5067088 .44873048 .45957948 .49267579 .41246034 .51464846 .34616599 .51464846 .2606964 .51464846 .25549827 .51448568 .247701 .51416018 .23730469H.1274414C.13069661 .1805013 .14680989 .13700359 .17578125 .10681152 .20475261 .07661947 .24088542 .061523439 .2841797 .061523439 .31640626 .061523439 .34391276 .0699056 .36669923 .08666992 .3894857 .10344442 .4075521 .1302185 .42089845 .16699219M.13232422 .31054688H.421875C.41796876 .3534546 .40690104 .38563539 .38867188 .40708924 .3606771 .4403839 .3243815 .45703126 .27978517 .45703126 .23942058 .45703126 .20548503 .44374085 .17797852 .41716004 .150472 .3905894 .1352539 .35505168 .13232422 .31054688Z"/>
<path id="font_3_87" d="M.2578125 .07763672 .2705078 0C.24576824-.0045572917 .22363281-.0068359377 .20410156-.0068359377 .17220052-.0068359377 .14746094-.0017903646 .12988281 .008300781 .11230469 .018391928 .0999349 .031656904 .09277344 .048095704 .08561198 .06453451 .08203125 .099121097 .08203125 .15185547V.4501953H.017578125V.5185547H.08203125V.6473236L.1694336 .7001953V.5185547H.2578125V.4501953H.1694336V.14697266C.1694336 .121907558 .17097982 .10579427 .17407227 .09863281 .17716472 .09147135 .18221028 .08577474 .18920899 .08154297 .19620769 .077311199 .20621746 .07519531 .21923828 .07519531 .2290039 .07519531 .24186199 .07600912 .2578125 .07763672Z"/>
<path id="font_3_70" d="M.40429688 .19042969 .49072267 .17919922C.48128257 .11947632 .45711265 .07272339 .4182129 .03894043 .37931315 .005167643 .33154298-.01171875 .27490235-.01171875 .2039388-.01171875 .14689128 .011474609 .103759769 .057861329 .060628255 .10424805 .0390625 .17073567 .0390625 .25732423 .0390625 .3133138 .048339845 .3623047 .06689453 .40429688 .08544922 .44628907 .11368815 .4777832 .15161133 .4987793 .1895345 .5197754 .23079427 .53027346 .27539063 .53027346 .33170573 .53027346 .37776695 .51598617 .41357423 .4874115 .4493815 .45884706 .47233073 .4182841 .48242188 .36572267L.39697267 .35253907C.38883464 .38720704 .37443034 .4132894 .35375978 .43078614 .3330892 .44828288 .30810548 .45703126 .2788086 .45703126 .23453777 .45703126 .1985677 .4412384 .17089844 .4096527 .14322917 .37807719 .12939453 .32811485 .12939453 .25976563 .12939453 .19043987 .14274089 .1400655 .1694336 .10864258 .1961263 .07722982 .23095703 .061523439 .27392579 .061523439 .308431 .061523439 .3372396 .07206217 .36035157 .09313965 .38346354 .114217128 .39811198 .14664714 .40429688 .19042969Z"/>
<path id="font_3_79" d="M.063964847 0V.7158203H.15185547V0H.063964847Z"/>
<path id="font_3_88" d="M.40576173 0V.076171878C.36539714 .017578125 .31054688-.01171875 .24121094-.01171875 .21061199-.01171875 .18204753-.005859375 .15551758 .005859375 .12898763 .017578125 .10929362 .03230794 .09643555 .050048829 .08357748 .06778971 .07454427 .08951823 .06933594 .115234378 .06575521 .13248699 .063964847 .15983074 .063964847 .19726563V.5185547H.15185547V.23095703C.15185547 .1850586 .15364583 .15413411 .15722656 .1381836 .16276042 .11507162 .17447917 .09692383 .19238281 .083740238 .21028646 .07055664 .23242188 .063964847 .25878907 .063964847 .28515626 .063964847 .30989585 .0707194 .3330078 .084228519 .35611979 .09773763 .3724772 .116129558 .38208009 .1394043 .39168296 .16267903 .39648438 .19645183 .39648438 .24072266V.5185547H.484375V0H.40576173Z"/>
<path id="font_3_80" d="M.06591797 0V.5185547H.14453125V.44628907C.1608073 .47153727 .18245442 .4918467 .20947266 .5072174 .23649089 .5225881 .2672526 .53027346 .3017578 .53027346 .34016929 .53027346 .37166343 .52233889 .39624024 .5064697 .42081706 .49061076 .43815104 .46843467 .4482422 .4399414 .4892578 .5001628 .54264327 .53027346 .60839846 .53027346 .65983077 .53027346 .69938156 .5160319 .7270508 .48754884 .75472006 .45906578 .7685547 .4152018 .7685547 .35595704V0H.68115237V.3270111C.68115237 .36220805 .678304 .38754273 .6726074 .40301515 .6669108 .4184977 .6565755 .43096415 .64160159 .44041444 .6266276 .44986473 .6090495 .45458985 .5888672 .45458985 .5524089 .45458985 .52213546 .44244895 .49804688 .4181671 .47395835 .39389549 .46191407 .3550364 .46191407 .30158998V0H.37402345V.33728028C.37402345 .37638346 .36686198 .40571086 .35253907 .42526246 .33821617 .44481407 .31477867 .45458985 .28222657 .45458985 .25748698 .45458985 .23461914 .44806925 .21362305 .43502809 .19262696 .42199708 .17740886 .40293376 .16796875 .37783814 .15852864 .3527527 .1538086 .31658427 .1538086 .2693329V0H.06591797Z"/>
<path id="font_3_81" d="M.06591797 0V.5185547H.14501953V.4453125C.18310547 .5019531 .23811849 .53027346 .3100586 .53027346 .3413086 .53027346 .3700358 .5246582 .39624024 .51342776 .42244468 .50219729 .44205729 .48746745 .45507813 .46923829 .46809898 .45100913 .47721354 .42936198 .48242188 .40429688 .4856771 .38802085 .4873047 .35953776 .4873047 .31884767V0H.39941407V.31576539C.39941407 .35161338 .3959961 .37841798 .38916017 .3961792 .38232423 .41394044 .37019859 .42811585 .3527832 .43870545 .33536784 .44929505 .3149414 .45458985 .2915039 .45458985 .254069 .45458985 .22176107 .44269309 .19458008 .41889955 .1673991 .39511619 .1538086 .34998576 .1538086 .2835083V0H.06591797Z"/>
</defs>
<g clip-path="url(#clip_1)">
<path transform="matrix(.71886119,0,0,.71886119,0,0)" d="M0 0H1124V543H0Z" fill="#ffffff"/>
</g>
<g clip-path="url(#clip_2)">
<path transform="matrix(.71886119,0,0,.71886119,.35943059,.35943059)" d="M401 71H481V151H401Z" fill="#dae8fc"/>
<path transform="matrix(.71886119,0,0,.71886119,.35943059,.35943059)" stroke-width="1" stroke-linecap="butt" stroke-miterlimit="4" stroke-linejoin="miter" fill="none" stroke="#000000" d="M401 71H481V151H401Z"/>
<use data-text="[" xlink:href="#font_3_62" transform="matrix(11.501779,0,0,-11.501779,304.2243,84.10676)"/>
<use data-text="0" xlink:href="#font_3_19" transform="matrix(11.501779,0,0,-11.501779,307.42179,84.10676)"/>
<use data-text="]" xlink:href="#font_3_64" transform="matrix(11.501779,0,0,-11.501779,313.81678,84.10676)"/>
<use data-text="[" xlink:href="#font_3_62" transform="matrix(11.501779,0,0,-11.501779,317.01426,84.10676)"/>
<use data-text="0" xlink:href="#font_3_19" transform="matrix(11.501779,0,0,-11.501779,320.21177,84.10676)"/>
<use data-text="]" xlink:href="#font_3_64" transform="matrix(11.501779,0,0,-11.501779,326.60676,84.10676)"/>
<path transform="matrix(.71886119,0,0,.71886119,.35943059,.35943059)" d="M481 71H561V151H481Z" fill="#d5e8d4"/>
<path transform="matrix(.71886119,0,0,.71886119,.35943059,.35943059)" stroke-width="1" stroke-linecap="butt" stroke-miterlimit="4" stroke-linejoin="miter" fill="none" stroke="#000000" d="M481 71H561V151H481Z"/>
<use data-text="[" xlink:href="#font_3_62" transform="matrix(11.501779,0,0,-11.501779,361.7332,84.10676)"/>
<use data-text="0" xlink:href="#font_3_19" transform="matrix(11.501779,0,0,-11.501779,364.93067,84.10676)"/>
<use data-text="]" xlink:href="#font_3_64" transform="matrix(11.501779,0,0,-11.501779,371.32566,84.10676)"/>
<use data-text="[" xlink:href="#font_3_62" transform="matrix(11.501779,0,0,-11.501779,374.52317,84.10676)"/>
<use data-text="1" xlink:href="#font_3_20" transform="matrix(11.501779,0,0,-11.501779,377.72065,84.10676)"/>
<use data-text="]" xlink:href="#font_3_64" transform="matrix(11.501779,0,0,-11.501779,384.11564,84.10676)"/>
<path transform="matrix(.71886119,0,0,.71886119,.35943059,.35943059)" d="M561 71H641V151H561Z" fill="#fff2cc"/>
<path transform="matrix(.71886119,0,0,.71886119,.35943059,.35943059)" stroke-width="1" stroke-linecap="butt" stroke-miterlimit="4" stroke-linejoin="miter" fill="none" stroke="#000000" d="M561 71H641V151H561Z"/>
<use data-text="[" xlink:href="#font_3_62" transform="matrix(11.501779,0,0,-11.501779,419.24208,84.10676)"/>
<use data-text="0" xlink:href="#font_3_19" transform="matrix(11.501779,0,0,-11.501779,422.43959,84.10676)"/>
<use data-text="]" xlink:href="#font_3_64" transform="matrix(11.501779,0,0,-11.501779,428.83457,84.10676)"/>
<use data-text="[" xlink:href="#font_3_62" transform="matrix(11.501779,0,0,-11.501779,432.03205,84.10676)"/>
<use data-text="2" xlink:href="#font_3_21" transform="matrix(11.501779,0,0,-11.501779,435.22956,84.10676)"/>
<use data-text="]" xlink:href="#font_3_64" transform="matrix(11.501779,0,0,-11.501779,441.62455,84.10676)"/>
<path transform="matrix(.71886119,0,0,.71886119,.35943059,.35943059)" d="M641 71H721V151H641Z" fill="#e1d5e7"/>
<path transform="matrix(.71886119,0,0,.71886119,.35943059,.35943059)" stroke-width="1" stroke-linecap="butt" stroke-miterlimit="4" stroke-linejoin="miter" fill="none" stroke="#000000" d="M641 71H721V151H641Z"/>
<use data-text="[" xlink:href="#font_3_62" transform="matrix(11.501779,0,0,-11.501779,476.75099,84.10676)"/>
<use data-text="0" xlink:href="#font_3_19" transform="matrix(11.501779,0,0,-11.501779,479.94847,84.10676)"/>
<use data-text="]" xlink:href="#font_3_64" transform="matrix(11.501779,0,0,-11.501779,486.34346,84.10676)"/>
<use data-text="[" xlink:href="#font_3_62" transform="matrix(11.501779,0,0,-11.501779,489.54096,84.10676)"/>
<use data-text="3" xlink:href="#font_3_22" transform="matrix(11.501779,0,0,-11.501779,492.73844,84.10676)"/>
<use data-text="]" xlink:href="#font_3_64" transform="matrix(11.501779,0,0,-11.501779,499.13343,84.10676)"/>
<path transform="matrix(.71886119,0,0,.71886119,.35943059,.35943059)" d="M401 151H481V231H401Z" fill="#dae8fc"/>
<path transform="matrix(.71886119,0,0,.71886119,.35943059,.35943059)" stroke-width="1" stroke-linecap="butt" stroke-miterlimit="4" stroke-linejoin="miter" fill="none" stroke="#000000" d="M401 151H481V231H401Z"/>
<use data-text="[" xlink:href="#font_3_62" transform="matrix(11.501779,0,0,-11.501779,304.2243,141.61565)"/>
<use data-text="1" xlink:href="#font_3_20" transform="matrix(11.501779,0,0,-11.501779,307.42179,141.61565)"/>
<use data-text="]" xlink:href="#font_3_64" transform="matrix(11.501779,0,0,-11.501779,313.81678,141.61565)"/>
<use data-text="[" xlink:href="#font_3_62" transform="matrix(11.501779,0,0,-11.501779,317.01426,141.61565)"/>
<use data-text="0" xlink:href="#font_3_19" transform="matrix(11.501779,0,0,-11.501779,320.21177,141.61565)"/>
<use data-text="]" xlink:href="#font_3_64" transform="matrix(11.501779,0,0,-11.501779,326.60676,141.61565)"/>
<path transform="matrix(.71886119,0,0,.71886119,.35943059,.35943059)" d="M481 151H561V231H481Z" fill="#d5e8d4"/>
<path transform="matrix(.71886119,0,0,.71886119,.35943059,.35943059)" stroke-width="1" stroke-linecap="butt" stroke-miterlimit="4" stroke-linejoin="miter" fill="none" stroke="#000000" d="M481 151H561V231H481Z"/>
<use data-text="[" xlink:href="#font_3_62" transform="matrix(11.501779,0,0,-11.501779,361.7332,141.61565)"/>
<use data-text="1" xlink:href="#font_3_20" transform="matrix(11.501779,0,0,-11.501779,364.93067,141.61565)"/>
<use data-text="]" xlink:href="#font_3_64" transform="matrix(11.501779,0,0,-11.501779,371.32566,141.61565)"/>
<use data-text="[" xlink:href="#font_3_62" transform="matrix(11.501779,0,0,-11.501779,374.52317,141.61565)"/>
<use data-text="1" xlink:href="#font_3_20" transform="matrix(11.501779,0,0,-11.501779,377.72065,141.61565)"/>
<use data-text="]" xlink:href="#font_3_64" transform="matrix(11.501779,0,0,-11.501779,384.11564,141.61565)"/>
<path transform="matrix(.71886119,0,0,.71886119,.35943059,.35943059)" d="M641 151H721V231H641Z" fill="#e1d5e7"/>
<path transform="matrix(.71886119,0,0,.71886119,.35943059,.35943059)" stroke-width="1" stroke-linecap="butt" stroke-miterlimit="4" stroke-linejoin="miter" fill="none" stroke="#000000" d="M641 151H721V231H641Z"/>
<use data-text="[" xlink:href="#font_3_62" transform="matrix(11.501779,0,0,-11.501779,476.75099,141.61565)"/>
<use data-text="1" xlink:href="#font_3_20" transform="matrix(11.501779,0,0,-11.501779,479.94847,141.61565)"/>
<use data-text="]" xlink:href="#font_3_64" transform="matrix(11.501779,0,0,-11.501779,486.34346,141.61565)"/>
<use data-text="[" xlink:href="#font_3_62" transform="matrix(11.501779,0,0,-11.501779,489.54096,141.61565)"/>
<use data-text="3" xlink:href="#font_3_22" transform="matrix(11.501779,0,0,-11.501779,492.73844,141.61565)"/>
<use data-text="]" xlink:href="#font_3_64" transform="matrix(11.501779,0,0,-11.501779,499.13343,141.61565)"/>
<path transform="matrix(.71886119,0,0,.71886119,.35943059,.35943059)" d="M401 231H481V311H401Z" fill="#dae8fc"/>
<path transform="matrix(.71886119,0,0,.71886119,.35943059,.35943059)" stroke-width="1" stroke-linecap="butt" stroke-miterlimit="4" stroke-linejoin="miter" fill="none" stroke="#000000" d="M401 231H481V311H401Z"/>
<use data-text="[" xlink:href="#font_3_62" transform="matrix(11.501779,0,0,-11.501779,304.2243,199.12454)"/>
<use data-text="2" xlink:href="#font_3_21" transform="matrix(11.501779,0,0,-11.501779,307.42179,199.12454)"/>
<use data-text="]" xlink:href="#font_3_64" transform="matrix(11.501779,0,0,-11.501779,313.81678,199.12454)"/>
<use data-text="[" xlink:href="#font_3_62" transform="matrix(11.501779,0,0,-11.501779,317.01426,199.12454)"/>
<use data-text="0" xlink:href="#font_3_19" transform="matrix(11.501779,0,0,-11.501779,320.21177,199.12454)"/>
<use data-text="]" xlink:href="#font_3_64" transform="matrix(11.501779,0,0,-11.501779,326.60676,199.12454)"/>
<path transform="matrix(.71886119,0,0,.71886119,.35943059,.35943059)" d="M481 231H561V311H481Z" fill="#d5e8d4"/>
<path transform="matrix(.71886119,0,0,.71886119,.35943059,.35943059)" stroke-width="1" stroke-linecap="butt" stroke-miterlimit="4" stroke-linejoin="miter" fill="none" stroke="#000000" d="M481 231H561V311H481Z"/>
<use data-text="[" xlink:href="#font_3_62" transform="matrix(11.501779,0,0,-11.501779,361.7332,199.12454)"/>
<use data-text="2" xlink:href="#font_3_21" transform="matrix(11.501779,0,0,-11.501779,364.93067,199.12454)"/>
<use data-text="]" xlink:href="#font_3_64" transform="matrix(11.501779,0,0,-11.501779,371.32566,199.12454)"/>
<use data-text="[" xlink:href="#font_3_62" transform="matrix(11.501779,0,0,-11.501779,374.52317,199.12454)"/>
<use data-text="1" xlink:href="#font_3_20" transform="matrix(11.501779,0,0,-11.501779,377.72065,199.12454)"/>
<use data-text="]" xlink:href="#font_3_64" transform="matrix(11.501779,0,0,-11.501779,384.11564,199.12454)"/>
<path transform="matrix(.71886119,0,0,.71886119,.35943059,.35943059)" d="M561 231H641V311H561Z" fill="#fff2cc"/>
<path transform="matrix(.71886119,0,0,.71886119,.35943059,.35943059)" stroke-width="1" stroke-linecap="butt" stroke-miterlimit="4" stroke-linejoin="miter" fill="none" stroke="#000000" d="M561 231H641V311H561Z"/>
<use data-text="[" xlink:href="#font_3_62" transform="matrix(11.501779,0,0,-11.501779,419.24208,199.12454)"/>
<use data-text="2" xlink:href="#font_3_21" transform="matrix(11.501779,0,0,-11.501779,422.43959,199.12454)"/>
<use data-text="]" xlink:href="#font_3_64" transform="matrix(11.501779,0,0,-11.501779,428.83457,199.12454)"/>
<use data-text="[" xlink:href="#font_3_62" transform="matrix(11.501779,0,0,-11.501779,432.03205,199.12454)"/>
<use data-text="2" xlink:href="#font_3_21" transform="matrix(11.501779,0,0,-11.501779,435.22956,199.12454)"/>
<use data-text="]" xlink:href="#font_3_64" transform="matrix(11.501779,0,0,-11.501779,441.62455,199.12454)"/>
<path transform="matrix(.71886119,0,0,.71886119,.35943059,.35943059)" d="M641 231H721V311H641Z" fill="#e1d5e7"/>
<path transform="matrix(.71886119,0,0,.71886119,.35943059,.35943059)" stroke-width="1" stroke-linecap="butt" stroke-miterlimit="4" stroke-linejoin="miter" fill="none" stroke="#000000" d="M641 231H721V311H641Z"/>
<use data-text="[" xlink:href="#font_3_62" transform="matrix(11.501779,0,0,-11.501779,476.75099,199.12454)"/>
<use data-text="2" xlink:href="#font_3_21" transform="matrix(11.501779,0,0,-11.501779,479.94847,199.12454)"/>
<use data-text="]" xlink:href="#font_3_64" transform="matrix(11.501779,0,0,-11.501779,486.34346,199.12454)"/>
<use data-text="[" xlink:href="#font_3_62" transform="matrix(11.501779,0,0,-11.501779,489.54096,199.12454)"/>
<use data-text="3" xlink:href="#font_3_22" transform="matrix(11.501779,0,0,-11.501779,492.73844,199.12454)"/>
<use data-text="]" xlink:href="#font_3_64" transform="matrix(11.501779,0,0,-11.501779,499.13343,199.12454)"/>
<path transform="matrix(.71886119,0,0,.71886119,0,0)" stroke-width="2" stroke-linecap="butt" stroke-miterlimit="10" stroke-linejoin="miter" fill="none" stroke="#000000" d="M1 351C1 351 374.3333 351 1121 351"/>
<path transform="matrix(.71886119,0,0,.71886119,.35943059,.35943059)" d="M1 391H81V471H1Z" fill="#b0b0b0"/>
<path transform="matrix(.71886119,0,0,.71886119,.35943059,.35943059)" stroke-width="1" stroke-linecap="butt" stroke-miterlimit="4" stroke-linejoin="miter" fill="none" stroke="#000000" d="M1 391H81V471H1Z"/>
<path transform="matrix(.71886119,0,0,.71886119,.35943059,.35943059)" d="M1041 391H1121V471H1041Z" fill="#b0b0b0"/>
<path transform="matrix(.71886119,0,0,.71886119,.35943059,.35943059)" stroke-width="1" stroke-linecap="butt" stroke-miterlimit="4" stroke-linejoin="miter" fill="none" stroke="#000000" d="M1041 391H1121V471H1041Z"/>
<path transform="matrix(.71886119,0,0,.71886119,0,0)" stroke-width="2" stroke-linecap="butt" stroke-miterlimit="10" stroke-linejoin="miter" fill="none" stroke="#b0b0b0" d="M361 191C361 191 427.66667 191 561 191"/>
<path transform="matrix(.71886119,0,0,.71886119,0,0)" stroke-width="2" stroke-linecap="butt" stroke-miterlimit="10" stroke-linejoin="miter" fill="none" stroke="#b0b0b0" d="M601 151C601 151 601 111 601 31"/>
<path transform="matrix(.71886119,0,0,.71886119,.35943059,.35943059)" d="M561 151H641V231H561Z" fill="#fff2cc"/>
<path transform="matrix(.71886119,0,0,.71886119,.35943059,.35943059)" stroke-width="3" stroke-linecap="butt" stroke-miterlimit="4" stroke-linejoin="miter" fill="none" stroke="#000000" d="M561 151H641V231H561Z"/>
<use data-text="[" xlink:href="#font_3_62" transform="matrix(11.501779,0,0,-11.501779,419.24208,141.61565)"/>
<use data-text="1" xlink:href="#font_3_20" transform="matrix(11.501779,0,0,-11.501779,422.43959,141.61565)"/>
<use data-text="]" xlink:href="#font_3_64" transform="matrix(11.501779,0,0,-11.501779,428.83457,141.61565)"/>
<use data-text="[" xlink:href="#font_3_62" transform="matrix(11.501779,0,0,-11.501779,432.03205,141.61565)"/>
<use data-text="2" xlink:href="#font_3_21" transform="matrix(11.501779,0,0,-11.501779,435.22956,141.61565)"/>
<use data-text="]" xlink:href="#font_3_64" transform="matrix(11.501779,0,0,-11.501779,441.62455,141.61565)"/>
<path transform="matrix(.71886119,0,0,.71886119,0,0)" stroke-width="2" stroke-linecap="butt" stroke-miterlimit="10" stroke-linejoin="miter" fill="none" stroke="#b0b0b0" d="M680.58 511C680.58 511 680.7367 497.66667 681.05 471"/>
<use data-text="r" xlink:href="#font_3_85" transform="matrix(11.501779,0,0,-11.501779,233.06827,141.61565)"/>
<use data-text="o" xlink:href="#font_3_82" transform="matrix(11.501779,0,0,-11.501779,236.89836,141.61565)"/>
<use data-text="w" xlink:href="#font_3_90" transform="matrix(11.501779,0,0,-11.501779,243.29335,141.61565)"/>
<use data-text="o" xlink:href="#font_3_82" transform="matrix(11.501779,0,0,-11.501779,475.94227,382.43415)"/>
<use data-text="f" xlink:href="#font_3_73" transform="matrix(11.501779,0,0,-11.501779,482.33726,382.43415)"/>
<use data-text="f" xlink:href="#font_3_73" transform="matrix(11.501779,0,0,-11.501779,485.32676,382.43415)"/>
<use data-text="s" xlink:href="#font_3_86" transform="matrix(11.501779,0,0,-11.501779,488.52427,382.43415)"/>
<use data-text="e" xlink:href="#font_3_72" transform="matrix(11.501779,0,0,-11.501779,494.27516,382.43415)"/>
<use data-text="t" xlink:href="#font_3_87" transform="matrix(11.501779,0,0,-11.501779,500.67015,382.43415)"/>
<path transform="matrix(.71886119,0,0,.71886119,.35943059,.35943059)" d="M81 391H161V471H81Z" fill="#dae8fc"/>
<path transform="matrix(.71886119,0,0,.71886119,.35943059,.35943059)" stroke-width="1" stroke-linecap="butt" stroke-miterlimit="4" stroke-linejoin="miter" fill="none" stroke="#000000" d="M81 391H161V471H81Z"/>
<use data-text="[" xlink:href="#font_3_62" transform="matrix(11.501779,0,0,-11.501779,74.18872,314.14234)"/>
<use data-text="0" xlink:href="#font_3_19" transform="matrix(11.501779,0,0,-11.501779,77.386219,314.14234)"/>
<use data-text="]" xlink:href="#font_3_64" transform="matrix(11.501779,0,0,-11.501779,83.781208,314.14234)"/>
<use data-text="[" xlink:href="#font_3_62" transform="matrix(11.501779,0,0,-11.501779,86.9787,314.14234)"/>
<use data-text="0" xlink:href="#font_3_19" transform="matrix(11.501779,0,0,-11.501779,90.176189,314.14234)"/>
<use data-text="]" xlink:href="#font_3_64" transform="matrix(11.501779,0,0,-11.501779,96.57118,314.14234)"/>
<path transform="matrix(.71886119,0,0,.71886119,.35943059,.35943059)" d="M321 391H401V471H321Z" fill="#d5e8d4"/>
<path transform="matrix(.71886119,0,0,.71886119,.35943059,.35943059)" stroke-width="1" stroke-linecap="butt" stroke-miterlimit="4" stroke-linejoin="miter" fill="none" stroke="#000000" d="M321 391H401V471H321Z"/>
<use data-text="[" xlink:href="#font_3_62" transform="matrix(11.501779,0,0,-11.501779,246.7154,314.14234)"/>
<use data-text="0" xlink:href="#font_3_19" transform="matrix(11.501779,0,0,-11.501779,249.91289,314.14234)"/>
<use data-text="]" xlink:href="#font_3_64" transform="matrix(11.501779,0,0,-11.501779,256.3079,314.14234)"/>
<use data-text="[" xlink:href="#font_3_62" transform="matrix(11.501779,0,0,-11.501779,259.50538,314.14234)"/>
<use data-text="1" xlink:href="#font_3_20" transform="matrix(11.501779,0,0,-11.501779,262.70286,314.14234)"/>
<use data-text="]" xlink:href="#font_3_64" transform="matrix(11.501779,0,0,-11.501779,269.09785,314.14234)"/>
<path transform="matrix(.71886119,0,0,.71886119,.35943059,.35943059)" d="M561 391H641V471H561Z" fill="#fff2cc"/>
<path transform="matrix(.71886119,0,0,.71886119,.35943059,.35943059)" stroke-width="1" stroke-linecap="butt" stroke-miterlimit="4" stroke-linejoin="miter" fill="none" stroke="#000000" d="M561 391H641V471H561Z"/>
<use data-text="[" xlink:href="#font_3_62" transform="matrix(11.501779,0,0,-11.501779,419.24208,314.14234)"/>
<use data-text="0" xlink:href="#font_3_19" transform="matrix(11.501779,0,0,-11.501779,422.43959,314.14234)"/>
<use data-text="]" xlink:href="#font_3_64" transform="matrix(11.501779,0,0,-11.501779,428.83457,314.14234)"/>
<use data-text="[" xlink:href="#font_3_62" transform="matrix(11.501779,0,0,-11.501779,432.03205,314.14234)"/>
<use data-text="2" xlink:href="#font_3_21" transform="matrix(11.501779,0,0,-11.501779,435.22956,314.14234)"/>
<use data-text="]" xlink:href="#font_3_64" transform="matrix(11.501779,0,0,-11.501779,441.62455,314.14234)"/>
<path transform="matrix(.71886119,0,0,.71886119,.35943059,.35943059)" d="M801 391H881V471H801Z" fill="#e1d5e7"/>
<path transform="matrix(.71886119,0,0,.71886119,.35943059,.35943059)" stroke-width="1" stroke-linecap="butt" stroke-miterlimit="4" stroke-linejoin="miter" fill="none" stroke="#000000" d="M801 391H881V471H801Z"/>
<use data-text="[" xlink:href="#font_3_62" transform="matrix(11.501779,0,0,-11.501779,591.76876,314.14234)"/>
<use data-text="0" xlink:href="#font_3_19" transform="matrix(11.501779,0,0,-11.501779,594.96627,314.14234)"/>
<use data-text="]" xlink:href="#font_3_64" transform="matrix(11.501779,0,0,-11.501779,601.3612,314.14234)"/>
<use data-text="[" xlink:href="#font_3_62" transform="matrix(11.501779,0,0,-11.501779,604.5587,314.14234)"/>
<use data-text="3" xlink:href="#font_3_22" transform="matrix(11.501779,0,0,-11.501779,607.7562,314.14234)"/>
<use data-text="]" xlink:href="#font_3_64" transform="matrix(11.501779,0,0,-11.501779,614.1512,314.14234)"/>
<path transform="matrix(.71886119,0,0,.71886119,.35943059,.35943059)" d="M161 391H241V471H161Z" fill="#dae8fc"/>
<path transform="matrix(.71886119,0,0,.71886119,.35943059,.35943059)" stroke-width="1" stroke-linecap="butt" stroke-miterlimit="4" stroke-linejoin="miter" fill="none" stroke="#000000" d="M161 391H241V471H161Z"/>
<use data-text="[" xlink:href="#font_3_62" transform="matrix(11.501779,0,0,-11.501779,131.69762,314.14234)"/>
<use data-text="1" xlink:href="#font_3_20" transform="matrix(11.501779,0,0,-11.501779,134.89511,314.14234)"/>
<use data-text="]" xlink:href="#font_3_64" transform="matrix(11.501779,0,0,-11.501779,141.29009,314.14234)"/>
<use data-text="[" xlink:href="#font_3_62" transform="matrix(11.501779,0,0,-11.501779,144.48758,314.14234)"/>
<use data-text="0" xlink:href="#font_3_19" transform="matrix(11.501779,0,0,-11.501779,147.68508,314.14234)"/>
<use data-text="]" xlink:href="#font_3_64" transform="matrix(11.501779,0,0,-11.501779,154.08007,314.14234)"/>
<path transform="matrix(.71886119,0,0,.71886119,.35943059,.35943059)" d="M401 391H481V471H401Z" fill="#d5e8d4"/>
<path transform="matrix(.71886119,0,0,.71886119,.35943059,.35943059)" stroke-width="1" stroke-linecap="butt" stroke-miterlimit="4" stroke-linejoin="miter" fill="none" stroke="#000000" d="M401 391H481V471H401Z"/>
<use data-text="[" xlink:href="#font_3_62" transform="matrix(11.501779,0,0,-11.501779,304.2243,314.14234)"/>
<use data-text="1" xlink:href="#font_3_20" transform="matrix(11.501779,0,0,-11.501779,307.42179,314.14234)"/>
<use data-text="]" xlink:href="#font_3_64" transform="matrix(11.501779,0,0,-11.501779,313.81678,314.14234)"/>
<use data-text="[" xlink:href="#font_3_62" transform="matrix(11.501779,0,0,-11.501779,317.01426,314.14234)"/>
<use data-text="1" xlink:href="#font_3_20" transform="matrix(11.501779,0,0,-11.501779,320.21177,314.14234)"/>
<use data-text="]" xlink:href="#font_3_64" transform="matrix(11.501779,0,0,-11.501779,326.60676,314.14234)"/>
<path transform="matrix(.71886119,0,0,.71886119,.35943059,.35943059)" d="M881 391H961V471H881Z" fill="#e1d5e7"/>
<path transform="matrix(.71886119,0,0,.71886119,.35943059,.35943059)" stroke-width="1" stroke-linecap="butt" stroke-miterlimit="4" stroke-linejoin="miter" fill="none" stroke="#000000" d="M881 391H961V471H881Z"/>
<use data-text="[" xlink:href="#font_3_62" transform="matrix(11.501779,0,0,-11.501779,649.27767,314.14234)"/>
<use data-text="1" xlink:href="#font_3_20" transform="matrix(11.501779,0,0,-11.501779,652.47518,314.14234)"/>
<use data-text="]" xlink:href="#font_3_64" transform="matrix(11.501779,0,0,-11.501779,658.8701,314.14234)"/>
<use data-text="[" xlink:href="#font_3_62" transform="matrix(11.501779,0,0,-11.501779,662.0676,314.14234)"/>
<use data-text="3" xlink:href="#font_3_22" transform="matrix(11.501779,0,0,-11.501779,665.26516,314.14234)"/>
<use data-text="]" xlink:href="#font_3_64" transform="matrix(11.501779,0,0,-11.501779,671.6601,314.14234)"/>
<path transform="matrix(.71886119,0,0,.71886119,.35943059,.35943059)" d="M241 391H321V471H241Z" fill="#dae8fc"/>
<path transform="matrix(.71886119,0,0,.71886119,.35943059,.35943059)" stroke-width="1" stroke-linecap="butt" stroke-miterlimit="4" stroke-linejoin="miter" fill="none" stroke="#000000" d="M241 391H321V471H241Z"/>
<use data-text="[" xlink:href="#font_3_62" transform="matrix(11.501779,0,0,-11.501779,189.2065,314.14234)"/>
<use data-text="2" xlink:href="#font_3_21" transform="matrix(11.501779,0,0,-11.501779,192.40399,314.14234)"/>
<use data-text="]" xlink:href="#font_3_64" transform="matrix(11.501779,0,0,-11.501779,198.79898,314.14234)"/>
<use data-text="[" xlink:href="#font_3_62" transform="matrix(11.501779,0,0,-11.501779,201.99648,314.14234)"/>
<use data-text="0" xlink:href="#font_3_19" transform="matrix(11.501779,0,0,-11.501779,205.19397,314.14234)"/>
<use data-text="]" xlink:href="#font_3_64" transform="matrix(11.501779,0,0,-11.501779,211.58896,314.14234)"/>
<path transform="matrix(.71886119,0,0,.71886119,.35943059,.35943059)" d="M481 391H561V471H481Z" fill="#d5e8d4"/>
<path transform="matrix(.71886119,0,0,.71886119,.35943059,.35943059)" stroke-width="1" stroke-linecap="butt" stroke-miterlimit="4" stroke-linejoin="miter" fill="none" stroke="#000000" d="M481 391H561V471H481Z"/>
<use data-text="[" xlink:href="#font_3_62" transform="matrix(11.501779,0,0,-11.501779,361.7332,314.14234)"/>
<use data-text="2" xlink:href="#font_3_21" transform="matrix(11.501779,0,0,-11.501779,364.93067,314.14234)"/>
<use data-text="]" xlink:href="#font_3_64" transform="matrix(11.501779,0,0,-11.501779,371.32566,314.14234)"/>
<use data-text="[" xlink:href="#font_3_62" transform="matrix(11.501779,0,0,-11.501779,374.52317,314.14234)"/>
<use data-text="1" xlink:href="#font_3_20" transform="matrix(11.501779,0,0,-11.501779,377.72065,314.14234)"/>
<use data-text="]" xlink:href="#font_3_64" transform="matrix(11.501779,0,0,-11.501779,384.11564,314.14234)"/>
<path transform="matrix(.71886119,0,0,.71886119,.35943059,.35943059)" d="M721 391H801V471H721Z" fill="#fff2cc"/>
<path transform="matrix(.71886119,0,0,.71886119,.35943059,.35943059)" stroke-width="1" stroke-linecap="butt" stroke-miterlimit="4" stroke-linejoin="miter" fill="none" stroke="#000000" d="M721 391H801V471H721Z"/>
<use data-text="[" xlink:href="#font_3_62" transform="matrix(11.501779,0,0,-11.501779,534.2599,314.14234)"/>
<use data-text="2" xlink:href="#font_3_21" transform="matrix(11.501779,0,0,-11.501779,537.45736,314.14234)"/>
<use data-text="]" xlink:href="#font_3_64" transform="matrix(11.501779,0,0,-11.501779,543.85238,314.14234)"/>
<use data-text="[" xlink:href="#font_3_62" transform="matrix(11.501779,0,0,-11.501779,547.0498,314.14234)"/>
<use data-text="2" xlink:href="#font_3_21" transform="matrix(11.501779,0,0,-11.501779,550.2473,314.14234)"/>
<use data-text="]" xlink:href="#font_3_64" transform="matrix(11.501779,0,0,-11.501779,556.64236,314.14234)"/>
<path transform="matrix(.71886119,0,0,.71886119,.35943059,.35943059)" d="M961 391H1041V471H961Z" fill="#e1d5e7"/>
<path transform="matrix(.71886119,0,0,.71886119,.35943059,.35943059)" stroke-width="1" stroke-linecap="butt" stroke-miterlimit="4" stroke-linejoin="miter" fill="none" stroke="#000000" d="M961 391H1041V471H961Z"/>
<use data-text="[" xlink:href="#font_3_62" transform="matrix(11.501779,0,0,-11.501779,706.78659,314.14234)"/>
<use data-text="2" xlink:href="#font_3_21" transform="matrix(11.501779,0,0,-11.501779,709.984,314.14234)"/>
<use data-text="]" xlink:href="#font_3_64" transform="matrix(11.501779,0,0,-11.501779,716.379,314.14234)"/>
<use data-text="[" xlink:href="#font_3_62" transform="matrix(11.501779,0,0,-11.501779,719.57656,314.14234)"/>
<use data-text="3" xlink:href="#font_3_22" transform="matrix(11.501779,0,0,-11.501779,722.774,314.14234)"/>
<use data-text="]" xlink:href="#font_3_64" transform="matrix(11.501779,0,0,-11.501779,729.169,314.14234)"/>
<path transform="matrix(.71886119,0,0,.71886119,.35943059,.35943059)" d="M641 391H721V471H641Z" fill="#fff2cc"/>
<path transform="matrix(.71886119,0,0,.71886119,.35943059,.35943059)" stroke-width="3" stroke-linecap="butt" stroke-miterlimit="4" stroke-linejoin="miter" fill="none" stroke="#000000" d="M641 391H721V471H641Z"/>
<use data-text="[" xlink:href="#font_3_62" transform="matrix(11.501779,0,0,-11.501779,476.75099,314.14234)"/>
<use data-text="1" xlink:href="#font_3_20" transform="matrix(11.501779,0,0,-11.501779,479.94847,314.14234)"/>
<use data-text="]" xlink:href="#font_3_64" transform="matrix(11.501779,0,0,-11.501779,486.34346,314.14234)"/>
<use data-text="[" xlink:href="#font_3_62" transform="matrix(11.501779,0,0,-11.501779,489.54096,314.14234)"/>
<use data-text="2" xlink:href="#font_3_21" transform="matrix(11.501779,0,0,-11.501779,492.73844,314.14234)"/>
<use data-text="]" xlink:href="#font_3_64" transform="matrix(11.501779,0,0,-11.501779,499.13343,314.14234)"/>
<path transform="matrix(.71886119,0,0,.71886119,.35943059,.35943059)" stroke-width="1" stroke-linecap="butt" stroke-miterlimit="10" stroke-linejoin="miter" fill="none" stroke="#000000" d="M301 71H296C292.66667 71 291 74.333339 291 81V181C291 187.66667 289.33335 191 286 191H283.5C281.83335 191 282.66667 191 286 191H288.5C290.16667 191 291 194.33333 291 201V301C291 307.66667 292.66667 311 296 311H301"/>
<use data-text="c" xlink:href="#font_3_70" transform="matrix(11.501779,0,0,-11.501779,413.86186,15.814945)"/>
<use data-text="o" xlink:href="#font_3_82" transform="matrix(11.501779,0,0,-11.501779,419.61274,15.814945)"/>
<use data-text="l" xlink:href="#font_3_79" transform="matrix(11.501779,0,0,-11.501779,426.00773,15.814945)"/>
<use data-text="u" xlink:href="#font_3_88" transform="matrix(11.501779,0,0,-11.501779,428.56114,15.814945)"/>
<use data-text="m" xlink:href="#font_3_80" transform="matrix(11.501779,0,0,-11.501779,434.95613,15.814945)"/>
<use data-text="n" xlink:href="#font_3_81" transform="matrix(11.501779,0,0,-11.501779,444.53709,15.814945)"/>
<path transform="matrix(.01363763,0,0,-.013679566,166.78707,141.6136)" d="M234 637C232 637 229.33333 637 226 637 209.33333 637 199.33333 637.3333 196 638 192.66667 638.6667 191 642.3333 191 649 191 667 194.66667 678 202 682 203.33333 682.6667 235.66666 683 299 683 350.33335 683 379.66667 683 387 683 394.33335 683 399 681 401 677 541.6667 346.3333 613.3333 176.66667 616 168L670 381C705.3333 521.6667 723 596.6667 723 606 723 624 701.6667 634.3333 659 637 643 637 635 640.6667 635 648 635 649.3333 635.6667 653.3333 637 660 639.6667 670.6667 641.6667 677 643 679 644.3333 681 647.6667 682.3333 653 683 655 683 665.3333 682.6667 684 682 702.6667 681.3333 730.3333 680.6667 767 680 800.3333 680 825.6667 680.3333 843 681 860.3333 681.6667 870.3333 682 873 682 883 682 888 678.6667 888 672 888 657.3333 885.3333 647.3333 880 642 878.6667 638.6667 871.3333 637 858 637 810.6667 634.3333 781 621 769 597L620 7C618.6667 2.333333 611.6667 0 599 0 589.6667 0 584 .6666666 582 2 580 4 537 105 453 305L326 604 261 344C217.66666 173.33333 196 85 196 79 199.33333 57 223.33333 46 268 46H278C282 42.666669 284 40 284 38 284 36 283.33335 29.666668 282 19 279.33335 10.333333 276 4 272 0H259C238.33333 1.3333334 202.33335 2 151 2 132.33333 2 115.333339 2 100 2 84.666667 2 72.333339 2 63 2 53.666666 2 48 1.6666668 46 1 36 1 31 4 31 10 31 12.666667 32 18 34 26 36 34 37.666669 38.666669 39 40 40.333333 44 48 46 62 46 107.333339 48 136.66667 61 150 85 152.66667 89 176.33333 181.33333 221 362L289 634C287.66667 634.6667 269.33335 635.6667 234 637Z"/>
<path transform="matrix(.01363763,0,0,-.013679566,166.78707,141.6136)" stroke-width="0" stroke-linecap="butt" stroke-miterlimit="4" stroke-linejoin="miter" fill="none" stroke="#000000" stroke-opacity=".1725" d="M234 637C232 637 229.33333 637 226 637 209.33333 637 199.33333 637.3333 196 638 192.66667 638.6667 191 642.3333 191 649 191 667 194.66667 678 202 682 203.33333 682.6667 235.66666 683 299 683 350.33335 683 379.66667 683 387 683 394.33335 683 399 681 401 677 541.6667 346.3333 613.3333 176.66667 616 168L670 381C705.3333 521.6667 723 596.6667 723 606 723 624 701.6667 634.3333 659 637 643 637 635 640.6667 635 648 635 649.3333 635.6667 653.3333 637 660 639.6667 670.6667 641.6667 677 643 679 644.3333 681 647.6667 682.3333 653 683 655 683 665.3333 682.6667 684 682 702.6667 681.3333 730.3333 680.6667 767 680 800.3333 680 825.6667 680.3333 843 681 860.3333 681.6667 870.3333 682 873 682 883 682 888 678.6667 888 672 888 657.3333 885.3333 647.3333 880 642 878.6667 638.6667 871.3333 637 858 637 810.6667 634.3333 781 621 769 597L620 7C618.6667 2.333333 611.6667 0 599 0 589.6667 0 584 .6666666 582 2 580 4 537 105 453 305L326 604 261 344C217.66666 173.33333 196 85 196 79 199.33333 57 223.33333 46 268 46H278C282 42.666669 284 40 284 38 284 36 283.33335 29.666668 282 19 279.33335 10.333333 276 4 272 0H259C238.33333 1.3333334 202.33335 2 151 2 132.33333 2 115.333339 2 100 2 84.666667 2 72.333339 2 63 2 53.666666 2 48 1.6666668 46 1 36 1 31 4 31 10 31 12.666667 32 18 34 26 36 34 37.666669 38.666669 39 40 40.333333 44 48 46 62 46 107.333339 48 136.66667 61 150 85 152.66667 89 176.33333 181.33333 221 362L289 634C287.66667 634.6667 269.33335 635.6667 234 637Z"/>
<path transform="matrix(.009641806,0,0,-.009671453,178.18811,143.66555)" d="M21 287C21.666666 289 22.333334 291.66667 23 295 23.666666 298.33335 25.333334 305.66667 28 317 30.666666 328.33335 34 338.66667 38 348 42 357.33335 47 368.33335 53 381 59 393.66667 65.666667 403.66667 73 411 80.333339 418.33335 89 425.66667 99 433 109 440.33335 120 443.33335 132 442 151.33333 442 168.33333 438 183 430 197.66667 422 208 414.66667 214 408 220 401.33335 223.66667 394.66667 225 388 226.33333 384 227.33333 382 228 382 228.66667 382 231.33333 384.33335 236 389 268 423.66667 305 441 347 441H350C382 441 406 427.33335 422 400 427.33335 387.33335 430 375 430 363 430 343 425.66667 327 417 315 408.33335 303 399.66667 295.33335 391 292 382.33335 288.66667 374 287.33335 366 288 352.66667 288 342 291.66667 334 299 326 306.33335 322 316 322 328 322 360 340.66667 381.33335 378 392 363.33335 400.66667 351.33335 405 342 405 304.66667 405 270.33335 380.33335 239 331 232.33333 320.33335 227.33333 309.33335 224 298 220.66667 286.66667 209.33333 242.33335 190 165 167.33333 71.666667 154.33333 22 151 16 142.33333-2 128-11 108-11 99.333339-11 92.333339-9 87-5 81.666667-1 78 3 76 7 74 11 73.333339 14.333333 74 17 74 25.666668 87.33333 83 114 189 140.66667 295 154 354 154 366 154 392 145.33333 405 128 405 114 405 102 395.66667 92 377 82 358.33335 74 338 68 316 62 294 58.333333 282 57 280 55.666669 278.66667 50.333337 278 41 278H27C23 282 21 285 21 287Z"/>
<path transform="matrix(.009641806,0,0,-.009671453,178.18811,143.66555)" stroke-width="0" stroke-linecap="butt" stroke-miterlimit="4" stroke-linejoin="miter" fill="none" stroke="#000000" stroke-opacity=".1216" d="M21 287C21.666666 289 22.333334 291.66667 23 295 23.666666 298.33335 25.333334 305.66667 28 317 30.666666 328.33335 34 338.66667 38 348 42 357.33335 47 368.33335 53 381 59 393.66667 65.666667 403.66667 73 411 80.333339 418.33335 89 425.66667 99 433 109 440.33335 120 443.33335 132 442 151.33333 442 168.33333 438 183 430 197.66667 422 208 414.66667 214 408 220 401.33335 223.66667 394.66667 225 388 226.33333 384 227.33333 382 228 382 228.66667 382 231.33333 384.33335 236 389 268 423.66667 305 441 347 441H350C382 441 406 427.33335 422 400 427.33335 387.33335 430 375 430 363 430 343 425.66667 327 417 315 408.33335 303 399.66667 295.33335 391 292 382.33335 288.66667 374 287.33335 366 288 352.66667 288 342 291.66667 334 299 326 306.33335 322 316 322 328 322 360 340.66667 381.33335 378 392 363.33335 400.66667 351.33335 405 342 405 304.66667 405 270.33335 380.33335 239 331 232.33333 320.33335 227.33333 309.33335 224 298 220.66667 286.66667 209.33333 242.33335 190 165 167.33333 71.666667 154.33333 22 151 16 142.33333-2 128-11 108-11 99.333339-11 92.333339-9 87-5 81.666667-1 78 3 76 7 74 11 73.333339 14.333333 74 17 74 25.666668 87.33333 83 114 189 140.66667 295 154 354 154 366 154 392 145.33333 405 128 405 114 405 102 395.66667 92 377 82 358.33335 74 338 68 316 62 294 58.333333 282 57 280 55.666669 278.66667 50.333337 278 41 278H27C23 282 21 285 21 287Z"/>
<path transform="matrix(.009641806,0,0,-.009671453,182.53658,143.66555)" d="M201-11C151-11 110.66667 5.333332 80 38 49.333333 70.66667 34 110 34 156 34 199.33335 44 240.33333 64 279 84 317.66667 111.33333 351.33335 146 380 196.66667 420.66667 248.33333 441 301 441 322.33335 441 335.66667 440.66667 341 440 349.66667 438 358.33335 435.66667 367 433 375.66667 430.33335 387.33335 425 402 417 416.66667 409 428.66667 399 438 387 447.33335 375 456 358.66667 464 338 472 317.33335 476 294 476 268 476 196.66666 447.33335 132.33335 390 75 332.66667 17.666665 269.6667-11 201-11ZM121 120C121 86.666667 129.66667 62.666669 147 48 164.33333 33.333333 184 26 206 26 235.33333 26 263 36.666666 289 58 315 79.333339 335.66667 107.33333 351 142 357 156 364.66667 180.66666 374 216 383.33335 251.33335 388 282 388 308 388 337.33335 382 359.66667 370 375 354 395 332.66667 405 306 405 264 405 227 385.66667 195 347 170.33333 317.66667 152 278.66667 140 230 128 181.33333 121.666667 144.66667 121 120Z"/>
<path transform="matrix(.009641806,0,0,-.009671453,182.53658,143.66555)" stroke-width="0" stroke-linecap="butt" stroke-miterlimit="4" stroke-linejoin="miter" fill="none" stroke="#000000" stroke-opacity=".1216" d="M201-11C151-11 110.66667 5.333332 80 38 49.333333 70.66667 34 110 34 156 34 199.33335 44 240.33333 64 279 84 317.66667 111.33333 351.33335 146 380 196.66667 420.66667 248.33333 441 301 441 322.33335 441 335.66667 440.66667 341 440 349.66667 438 358.33335 435.66667 367 433 375.66667 430.33335 387.33335 425 402 417 416.66667 409 428.66667 399 438 387 447.33335 375 456 358.66667 464 338 472 317.33335 476 294 476 268 476 196.66666 447.33335 132.33335 390 75 332.66667 17.666665 269.6667-11 201-11ZM121 120C121 86.666667 129.66667 62.666669 147 48 164.33333 33.333333 184 26 206 26 235.33333 26 263 36.666666 289 58 315 79.333339 335.66667 107.33333 351 142 357 156 364.66667 180.66666 374 216 383.33335 251.33335 388 282 388 308 388 337.33335 382 359.66667 370 375 354 395 332.66667 405 306 405 264 405 227 385.66667 195 347 170.33333 317.66667 152 278.66667 140 230 128 181.33333 121.666667 144.66667 121 120Z"/>
<path transform="matrix(.009641806,0,0,-.009671453,187.21285,143.66555)" d="M580 385C580 399 586.3333 412 599 424 611.6667 436 625.6667 442.33335 641 443 653 443 664 437 674 425 684 413 689.3333 394 690 368 690 348.66667 683.6667 310.33335 671 253 661 215.66666 652 185 644 161 636 137 624.3333 110 609 80 593.6667 50 575.3333 27.333334 554 12 532.6667-3.333334 508.66667-11 482-11 452.66667-11 426.66667-5.666667 404 5 381.33335 15.666667 365 30 355 48 354.33335 47.333333 353.33335 46 352 44 324.66667 7.333332 291.33335-11 252-11 234.66667-11 218-9 202-5 186-1 170.33333 5.333333 155 14 139.66667 22.666668 127.333339 35.666666 118 53 108.666667 70.333339 104 91.33333 104 116 104 152 115.33333 200.66666 138 262 160.66667 323.33335 172.33333 362.33335 173 379 173 379.66667 173 380.33335 173 381 173 387 173 391 173 393 173 395 171.66667 397.33335 169 400 166.33333 402.66667 162.66667 404 158 404H154C138.66667 404 124.666667 397.66667 112 385 99.333339 372.33335 89.333339 358.66667 82 344 74.666667 329.33335 69 315.33335 65 302 61 288.66667 58.333333 281.33335 57 280 55.666669 278.66667 50.333337 278 41 278H27C23 282 21 285 21 287 21 291 23.666666 300.33335 29 315 34.333333 329.66667 42 346.66667 52 366 62 385.33335 76.666667 402.66667 96 418 115.333339 433.33335 137 441 161 441 189.66667 441 211.66667 432.66667 227 416 242.33333 399.33335 250 380 250 358 250 346 239 310 217 250 195 190 184 143.66667 184 111 184 80.33333 191 58.666669 205 46 219 33.333333 236.66667 26.666666 258 26 286.66667 26 312 46.333333 334 87L339 96V119C339 121 339 124 339 128 339 132 339.33335 134.66667 340 136 340.66667 137.33333 341 139.66667 341 143 341 146.33333 341.33335 149.33333 342 152 342.66667 154.66667 343.66667 159 345 165 346.33335 171 347.33335 176.66667 348 182 348.66667 187.33333 350.66667 195.33333 354 206 357.33335 216.66667 360 227.33333 362 238 364 248.66667 367.66667 263 373 281 392.33335 357 403.33335 398 406 404 414.66667 422 429 431 449 431 461.66667 431 470.33335 427.66667 475 421 479.66667 414.33335 482.33335 408 483 402 483 393.33335 473.33335 350.6667 454 274 434.66667 197.33333 424 153.33333 422 142 420.66667 134.66667 420 123 420 107V100C420 90 421 80.333339 423 71 425 61.666666 431.33335 52 442 42 452.66667 32 467.66667 26.666666 487 26 534.3333 26 572 66.666667 600 148 606 163.33333 612.6667 185 620 213 627.3333 241 631.3333 261 632 273 632 295 627.6667 312.33335 619 325 610.3333 337.66667 601.6667 348.33335 593 357 584.3333 365.66667 580 375 580 385Z"/>
<path transform="matrix(.009641806,0,0,-.009671453,187.21285,143.66555)" stroke-width="0" stroke-linecap="butt" stroke-miterlimit="4" stroke-linejoin="miter" fill="none" stroke="#000000" stroke-opacity=".1216" d="M580 385C580 399 586.3333 412 599 424 611.6667 436 625.6667 442.33335 641 443 653 443 664 437 674 425 684 413 689.3333 394 690 368 690 348.66667 683.6667 310.33335 671 253 661 215.66666 652 185 644 161 636 137 624.3333 110 609 80 593.6667 50 575.3333 27.333334 554 12 532.6667-3.333334 508.66667-11 482-11 452.66667-11 426.66667-5.666667 404 5 381.33335 15.666667 365 30 355 48 354.33335 47.333333 353.33335 46 352 44 324.66667 7.333332 291.33335-11 252-11 234.66667-11 218-9 202-5 186-1 170.33333 5.333333 155 14 139.66667 22.666668 127.333339 35.666666 118 53 108.666667 70.333339 104 91.33333 104 116 104 152 115.33333 200.66666 138 262 160.66667 323.33335 172.33333 362.33335 173 379 173 379.66667 173 380.33335 173 381 173 387 173 391 173 393 173 395 171.66667 397.33335 169 400 166.33333 402.66667 162.66667 404 158 404H154C138.66667 404 124.666667 397.66667 112 385 99.333339 372.33335 89.333339 358.66667 82 344 74.666667 329.33335 69 315.33335 65 302 61 288.66667 58.333333 281.33335 57 280 55.666669 278.66667 50.333337 278 41 278H27C23 282 21 285 21 287 21 291 23.666666 300.33335 29 315 34.333333 329.66667 42 346.66667 52 366 62 385.33335 76.666667 402.66667 96 418 115.333339 433.33335 137 441 161 441 189.66667 441 211.66667 432.66667 227 416 242.33333 399.33335 250 380 250 358 250 346 239 310 217 250 195 190 184 143.66667 184 111 184 80.33333 191 58.666669 205 46 219 33.333333 236.66667 26.666666 258 26 286.66667 26 312 46.333333 334 87L339 96V119C339 121 339 124 339 128 339 132 339.33335 134.66667 340 136 340.66667 137.33333 341 139.66667 341 143 341 146.33333 341.33335 149.33333 342 152 342.66667 154.66667 343.66667 159 345 165 346.33335 171 347.33335 176.66667 348 182 348.66667 187.33333 350.66667 195.33333 354 206 357.33335 216.66667 360 227.33333 362 238 364 248.66667 367.66667 263 373 281 392.33335 357 403.33335 398 406 404 414.66667 422 429 431 449 431 461.66667 431 470.33335 427.66667 475 421 479.66667 414.33335 482.33335 408 483 402 483 393.33335 473.33335 350.6667 454 274 434.66667 197.33333 424 153.33333 422 142 420.66667 134.66667 420 123 420 107V100C420 90 421 80.333339 423 71 425 61.666666 431.33335 52 442 42 452.66667 32 467.66667 26.666666 487 26 534.3333 26 572 66.666667 600 148 606 163.33333 612.6667 185 620 213 627.3333 241 631.3333 261 632 273 632 295 627.6667 312.33335 619 325 610.3333 337.66667 601.6667 348.33335 593 357 584.3333 365.66667 580 375 580 385Z"/>
</g>
</svg>
