<svg xmlns="http://www.w3.org/2000/svg" xmlns:xlink="http://www.w3.org/1999/xlink" xmlns:inkscape="http://www.inkscape.org/namespaces/inkscape" version="1.1" width="923.04" height="492" viewBox="0 0 923.04 492">
<defs>
<clipPath id="clip_1">
<path transform="matrix(.24,0,0,.24,0,0)" d="M0 0H3845.833V2048.7149H0Z" clip-rule="evenodd"/>
</clipPath>
<clipPath id="clip_2">
<path transform="matrix(.24,0,0,.24,0,0)" d="M0 0H3845.833V2045.7196H0Z" clip-rule="evenodd"/>
</clipPath>
<path id="font_3_21" d="M.50341799 .084472659V0H.030273438C.029622397 .021148682 .033040365 .041483564 .040527345 .06100464 .052571615 .09321085 .07185873 .124928798 .09838867 .15615845 .12491862 .1873881 .1632487 .22350057 .2133789 .26449586 .29117839 .3282369 .34375 .37872825 .37109376 .41596986 .3984375 .45321147 .41210938 .48841859 .41210938 .5215912 .41210938 .5563914 .3996582 .5857442 .37475587 .60964968 .34985353 .6335551 .3173828 .6455078 .27734376 .6455078 .23502605 .6455078 .20117188 .6328125 .17578125 .6074219 .15039063 .58203127 .13753255 .546875 .13720703 .5019531L.046875 .5112457C.053059896 .5787811 .07633463 .630249 .11669922 .6656494 .1570638 .7010498 .21126302 .71875 .27929688 .71875 .34798179 .71875 .40234376 .69970199 .4423828 .66160586 .48242188 .6235097 .5024414 .57629397 .5024414 .5199585 .5024414 .4913025 .49658204 .46313478 .48486329 .43545533 .47314454 .40777589 .45369468 .3786316 .42651368 .34802247 .39933268 .3174235 .35416667 .27542115 .29101563 .22201538 .23828125 .17779541 .20442708 .14779663 .18945313 .13201905 .17447917 .116251628 .16210938 .10040283 .15234375 .084472659H.50341799Z"/>
<path id="font_3_19" d="M.041503908 .35327149C.041503908 .43784587 .05021159 .50591537 .06762695 .55747988 .08504232 .6090444 .11092123 .6488139 .14526367 .67678835 .17960613 .70476278 .22281902 .71875 .27490235 .71875 .3133138 .71875 .34700523 .711024 .37597657 .6955719 .4049479 .6801198 .4288737 .6578369 .4477539 .62872317 .46663413 .5996094 .4814453 .56414797 .4921875 .52233889 .5029297 .48053996 .5083008 .42418418 .5083008 .35327149 .5083008 .26934815 .49967448 .2016042 .48242188 .15003968 .46516929 .098475139 .43937174 .058624269 .4050293 .03048706 .37068687 .0023498536 .3273112-.01171875 .27490235-.01171875 .20589192-.01171875 .1516927 .013005574 .11230469 .062454225 .065104167 .12198385 .041503908 .21892293 .041503908 .35327149M.13183594 .35351563C.13183594 .23639934 .14558919 .15845235 .1730957 .11967468 .20060222 .08090719 .23453777 .061523439 .27490235 .061523439 .31526695 .061523439 .34920249 .08098856 .37670899 .11991882 .40421549 .15884908 .41796876 .23671468 .41796876 .35351563 .41796876 .47095744 .40421549 .5489807 .37670899 .58758547 .34920249 .6262004 .3149414 .6455078 .27392579 .6455078 .2335612 .6455078 .20133464 .62847396 .1772461 .5944061 .14697266 .5509288 .13183594 .47063194 .13183594 .35351563Z"/>
<path id="font_3_20" d="M.3725586 0H.28466798V.5600586C.26350913 .5398763 .23575847 .51969406 .20141602 .49951173 .16707357 .47932945 .13623047 .46419273 .10888672 .45410157V.5390625C.15804036 .5621745 .20100911 .59016928 .23779297 .6230469 .2745768 .6559245 .3006185 .6878255 .31591798 .71875H.3725586V0Z"/>
<path id="font_3_22" d="M.041992189 .19042969 .12988281 .20214844C.13997396 .15234375 .15714519 .11645508 .18139649 .09448242 .20564778 .072509769 .2351888 .061523439 .27001954 .061523439 .3113607 .061523439 .3462728 .07582092 .37475587 .10441589 .40323893 .13301087 .41748048 .1684316 .41748048 .2106781 .41748048 .25098167 .40429688 .2842102 .3779297 .31036378 .3515625 .3365275 .31803385 .34960938 .27734376 .34960938 .2607422 .34960938 .24007161 .34635417 .21533203 .33984376L.22509766 .4169922C.23095703 .41634117 .23567708 .41601563 .23925781 .41601563 .27669273 .41601563 .31038413 .42569987 .34033204 .44506837 .37027995 .46443687 .3852539 .4942932 .3852539 .53463748 .3852539 .56658938 .37434898 .59305319 .35253907 .61402896 .33072917 .63501486 .30257163 .6455078 .2680664 .6455078 .23388672 .6455078 .20540364 .6347656 .18261719 .61328127 .15983074 .5917969 .1451823 .5595703 .13867188 .51660159L.05078125 .53222659C.061523439 .591451 .0859375 .63734439 .12402344 .6699066 .16210938 .7024689 .20947266 .71875 .26611329 .71875 .30517579 .71875 .34114585 .71039327 .37402345 .6936798 .40690104 .67696639 .43204753 .6541646 .4494629 .62527468 .46687828 .59639486 .47558595 .5657247 .47558595 .53326418 .47558595 .5024312 .46728517 .47435508 .4506836 .44903565 .43408204 .4237264 .40950523 .40360514 .37695313 .38867188 .41927085 .37890626 .45214845 .35864259 .47558595 .32788087 .49902345 .29711915 .5107422 .2586263 .5107422 .21240235 .5107422 .14990235 .48795573 .09692383 .4423828 .053466798 .3968099 .010009766 .33919273-.01171875 .26953126-.01171875 .20670574-.01171875 .15454102 .007044474 .11303711 .044570924 .0715332 .082097377 .047851564 .13071697 .041992189 .19042969Z"/>
<path id="font_3_23" d="M.3232422 0V.17138672H.0126953129V.25195313L.33935548 .7158203H.4111328V.25195313H.5078125V.17138672H.4111328V0H.3232422M.3232422 .25195313V.57470706L.099121097 .25195313H.3232422Z"/>
<path id="font_3_24" d="M.041503908 .18847656 .13378906 .19628906C.140625 .15151978 .15649414 .117863979 .18139649 .095321658 .20629883 .07278951 .23632813 .061523439 .27148438 .061523439 .3138021 .061523439 .34960938 .077448528 .37890626 .109298709 .40820313 .14115906 .42285157 .18341573 .42285157 .23606873 .42285157 .28612773 .4087728 .32562257 .38061524 .35455323 .35245768 .3834839 .31559245 .39794923 .27001954 .39794923 .24169922 .39794923 .21614583 .39156596 .19335938 .37879945 .17057292 .36603294 .15266927 .34946696 .13964844 .32910157L.057128908 .33984376 .12646485 .70703127H.48242188V.62402346H.19677735L.15820313 .43115235C.20117188 .46077476 .24625652 .47558595 .29345704 .47558595 .35595704 .47558595 .4086914 .45391337 .45166017 .41056825 .4946289 .36723329 .5161133 .31151835 .5161133 .24342346 .5161133 .17857361 .49723307 .122528079 .45947267 .075286868 .41357423 .017283122 .35091148-.01171875 .27148438-.01171875 .2063802-.01171875 .15323894 .006556193 .11206055 .04310608 .070882167 .07965597 .04736328 .1281128 .041503908 .18847656Z"/>
<path id="font_3_25" d="M.4975586 .5400543 .41015626 .5332031C.40234376 .5675557 .39127604 .59251406 .37695313 .608078 .3531901 .6330312 .32389323 .6455078 .2890625 .6455078 .26106773 .6455078 .23649089 .637736 .21533203 .6221924 .18766277 .602122 .16585286 .57282 .14990235 .5342865 .13395183 .49575297 .12565105 .4408671 .125 .3696289 .14615886 .40185548 .17203777 .42578126 .20263672 .44140626 .23323567 .45703126 .26529948 .46484376 .29882813 .46484376 .35742188 .46484376 .40730796 .44327799 .44848634 .40014649 .4896647 .35701499 .5102539 .30126954 .5102539 .23291016 .5102539 .18798828 .50056967 .14624024 .48120118 .107666019 .46183268 .0690918 .43522135 .03955078 .4013672 .019042969 .36751304-.0014648438 .32910157-.01171875 .2861328-.01171875 .21289063-.01171875 .15315755 .015197754 .106933597 .06903076 .060709638 .12287394 .037597658 .2116038 .037597658 .33522035 .037597658 .47347514 .06315104 .57399496 .11425781 .6367798 .15885417 .6914266 .21891277 .71875 .2944336 .71875 .3507487 .71875 .39689128 .70292159 .43286134 .67126467 .4688314 .6396077 .49039714 .595871 .4975586 .5400543M.13867188 .23287964C.13867188 .20269776 .1451009 .17381287 .15795899 .14622498 .17081706 .118637088 .18880208 .09762064 .21191406 .08317566 .23502605 .068740848 .25927735 .061523439 .28466798 .061523439 .32177735 .061523439 .35367839 .07645162 .3803711 .10630798 .4070638 .13616435 .42041017 .17673238 .42041017 .22801209 .42041017 .27734886 .40722657 .31621299 .38085938 .3446045 .3544922 .3730062 .32128907 .38720704 .28125 .38720704 .24153646 .38720704 .20784505 .3730062 .18017578 .3446045 .15250652 .31621299 .13867188 .27897135 .13867188 .23287964Z"/>
<path id="font_3_26" d="M.04736328 .6225586V.70703127H.5107422V.6386719C.46516929 .5901286 .42000328 .5256246 .37524415 .4451599 .33048503 .36469523 .29589845 .2819519 .27148438 .19692993 .25390626 .13698323 .24267578 .07133993 .23779297 0H.14746094C.1484375 .056355794 .1595052 .12444051 .18066406 .20425415 .20182292 .28407798 .23217774 .3610433 .27172853 .43515016 .3112793 .50926718 .35335288 .57173666 .39794923 .6225586H.04736328Z"/>
<path id="font_3_27" d="M.17675781 .38916017C.14029949 .40246583 .11328125 .42145286 .095703128 .44612123 .078125 .47078959 .06933594 .5003255 .06933594 .534729 .06933594 .5866597 .08805338 .63031008 .12548828 .66567996 .16292317 .70106 .21272786 .71875 .27490235 .71875 .33740235 .71875 .3876953 .7006531 .42578126 .6644592 .4638672 .6282756 .48291017 .5842183 .48291017 .5322876 .48291017 .4991862 .47420249 .4703827 .4567871 .44587709 .43937174 .42137147 .4129232 .40246583 .3774414 .38916017 .42138673 .3748169 .45483399 .3516744 .4777832 .31973268 .5007324 .28780113 .51220706 .24966939 .51220706 .20533753 .51220706 .1440684 .4905599 .09257507 .44726563 .050857545 .40397135 .009140015 .34700523-.01171875 .2763672-.01171875 .20572917-.01171875 .14876302 .009221395 .10546875 .051101686 .06217448 .09298197 .040527345 .14521282 .040527345 .20779419 .040527345 .25439454 .052327474 .29342143 .075927738 .32487489 .09952799 .35632835 .13313802 .37775675 .17675781 .38916017M.15917969 .53707888C.15917969 .5035197 .17008464 .47608949 .19189453 .4547882 .21370442 .4334971 .24202474 .42285157 .27685548 .42285157 .31070964 .42285157 .3384603 .4334208 .36010743 .45455934 .38175456 .47569786 .39257813 .501592 .39257813 .5322418 .39257813 .5641937 .38142906 .5910594 .35913087 .61283877 .33683268 .6346181 .30908204 .6455078 .2758789 .6455078 .24235027 .6455078 .21451824 .6348572 .19238281 .6135559 .17024739 .59226486 .15917969 .56677249 .15917969 .53707888M.13085938 .20776367C.13085938 .18273926 .13680013 .15852864 .14868164 .13513184 .16056316 .11173502 .17822266 .09361776 .20166016 .08078003 .22509766 .0679423 .25032554 .061523439 .27734376 .061523439 .31933595 .061523439 .3540039 .07500712 .38134767 .10197449 .4086914 .12895203 .42236329 .16323853 .42236329 .20483399 .42236329 .24708049 .40828453 .28201295 .38012696 .30963136 .3519694 .33725993 .31673179 .35107423 .27441407 .35107423 .23307292 .35107423 .19881185 .3374227 .17163086 .31011964 .14444988 .28282676 .13085938 .24870809 .13085938 .20776367Z"/>
<path id="font_3_28" d="M.0546875 .16694641 .13916016 .17480469C.14632161 .13509114 .15999349 .106282558 .18017578 .088378909 .20035808 .07047526 .22623699 .061523439 .2578125 .061523439 .28483073 .061523439 .30851237 .067708339 .32885743 .080078128 .34920249 .092447917 .3658854 .1089681 .37890626 .12963867 .3919271 .15030925 .40283204 .17822266 .4116211 .2133789 .42041017 .24853516 .4248047 .28434245 .4248047 .32080079 .4248047 .32470704 .42464195 .3305664 .4243164 .3383789 .40673829 .31038413 .3827311 .28767906 .35229493 .27026368 .32185874 .2528483 .28889976 .24414063 .25341798 .24414063 .19417317 .24414063 .14404297 .26555888 .103027347 .3083954 .06201172 .3512319 .041503908 .40769959 .041503908 .47779847 .041503908 .55016586 .0629069 .6084137 .10571289 .6525421 .14851888 .6966807 .20214844 .71875 .26660157 .71875 .31315104 .71875 .3557129 .70622256 .3942871 .6811676 .43286134 .65612289 .4621582 .62042239 .48217774 .57406619 .50219729 .52770999 .51220706 .46061708 .51220706 .37278749 .51220706 .28137718 .5022786 .20858765 .48242188 .15441895 .4625651 .100260417 .43302409 .05903117 .39379884 .030731202 .35457359 .0024312337 .30859376-.01171875 .25585938-.01171875 .1998698-.01171875 .15413411 .00390625 .118652347 .03515625 .08317057 .06640625 .061848958 .1103363 .0546875 .16694641M.41455079 .48194886C.41455079 .5320994 .40112306 .57189437 .37426759 .6013336 .3474121 .6307831 .31510417 .6455078 .27734376 .6455078 .23828125 .6455078 .20426433 .62965396 .17529297 .59794619 .14632161 .5662384 .13183594 .5251465 .13183594 .4746704 .13183594 .42936198 .14558919 .3925527 .1730957 .36424256 .20060222 .3359324 .23453777 .32177735 .27490235 .32177735 .31559245 .32177735 .3490397 .3359324 .37524415 .36424256 .40144859 .3925527 .41455079 .43178813 .41455079 .48194886Z"/>
<path id="font_4_21" d="M.5058594 .12792969V0H.024902344C.030110678 .048136396 .045735677 .09375 .071777347 .13684082 .09781901 .17994182 .1492513 .2371114 .22607422 .3083496 .2879232 .36591593 .32584635 .40494285 .33984376 .4254303 .35872398 .45373027 .36816407 .4817047 .36816407 .50935366 .36816407 .53993228 .35994468 .5634308 .34350587 .57984927 .32706706 .5962779 .30436198 .6044922 .27539063 .6044922 .2467448 .6044922 .22395833 .5958252 .20703125 .5784912 .19010417 .5611674 .18033855 .5323995 .17773438 .4921875L.041015626 .5059204C.049153646 .5817668 .07470703 .63619998 .11767578 .66922 .16064453 .70224 .21435547 .71875 .2788086 .71875 .34944663 .71875 .4049479 .6997223 .4453125 .66166689 .4856771 .62361147 .5058594 .5762889 .5058594 .5196991 .5058594 .4874929 .50008139 .4568329 .4885254 .42771913 .4769694 .3986155 .45865885 .36812846 .43359376 .33625794 .4169922 .31510926 .38704429 .2846934 .34375 .24501038 .30045573 .20533753 .2730306 .17899578 .2614746 .1659851 .24991863 .15297444 .24055989 .1402893 .23339844 .12792969H.5058594Z"/>
<path id="font_4_24" d="M.044433595 .18408203 .18115235 .19824219C.1850586 .1673177 .19661458 .14282227 .21582031 .12475586 .23502605 .10668945 .25716148 .09765625 .28222657 .09765625 .3108724 .09765625 .3351237 .109313968 .35498048 .1326294 .37483726 .15594483 .38476563 .19108074 .38476563 .23803711 .38476563 .2820638 .3749186 .31508384 .3552246 .33709718 .3355306 .3591105 .30989585 .3701172 .2783203 .3701172 .2389323 .3701172 .20361328 .35253907 .17236328 .3173828L.061035158 .33364869 .13134766 .70703127H.49414063V.578125H.23535156L.21386719 .45661927C.24446614 .4718679 .27571617 .4794922 .3076172 .4794922 .3684896 .4794922 .42008464 .457311 .46240235 .4129486 .50472006 .3685964 .5258789 .31103007 .5258789 .24024964 .5258789 .1812083 .50878909 .12852986 .47460938 .082214359 .4280599 .018941245 .363444-.0126953129 .28076173-.0126953129 .21468099-.0126953129 .1608073 .005086263 .119140628 .040649415 .07747396 .07622274 .052571615 .12403361 .044433595 .18408203Z"/>
<path id="font_4_22" d="M.037597658 .1899414 .17041016 .20605469C.17464192 .17220052 .18603516 .14632161 .20458985 .12841797 .22314453 .11051432 .24560547 .1015625 .27197267 .1015625 .30029298 .1015625 .32413737 .11230469 .34350587 .13378906 .36287437 .15527344 .3725586 .1842448 .3725586 .22070313 .3725586 .25520835 .36328126 .2825521 .34472657 .30273438 .32617188 .32291667 .3035482 .3330078 .27685548 .3330078 .25927735 .3330078 .23828125 .32958985 .21386719 .3227539L.2290039 .43359376C.26611329 .4326172 .2944336 .4406484 .31396485 .45768739 .3334961 .47473655 .34326173 .49738059 .34326173 .5256195 .34326173 .54963687 .33610026 .5687866 .32177735 .58306887 .30745445 .5973511 .28841148 .6044922 .26464845 .6044922 .24121094 .6044922 .2211914 .5963542 .20458985 .5800781 .18798828 .56380209 .17789714 .54003909 .1743164 .50878909L.047851564 .53027346C.056640626 .5739034 .0699056 .6087596 .087646488 .6348419 .10538737 .66092428 .13012696 .681427 .16186524 .6963501 .19360352 .7112834 .22916667 .71875 .2685547 .71875 .3359375 .71875 .38997398 .6972351 .43066407 .6542053 .46419273 .61898806 .48095704 .57921347 .48095704 .5348816 .48095704 .4719645 .4466146 .42175804 .3779297 .38426209 .4189453 .37547303 .45174156 .35577903 .47631837 .32518006 .5008952 .2945811 .5131836 .2576345 .5131836 .21434021 .5131836 .15152486 .49023438 .09798177 .44433595 .053710939 .3984375 .0094401049 .3413086-.0126953129 .27294923-.0126953129 .20817058-.0126953129 .15445964 .0059865319 .111816409 .04335022 .06917318 .080713909 .044433595 .12957764 .037597658 .1899414Z"/>
</defs>
<g clip-path="url(#clip_1)">
<path transform="matrix(.7188473,0,0,.7188473,0,0)" d="M0 0H1284V684H0Z" fill="#ffffff"/>
</g>
<g clip-path="url(#clip_2)">
<path transform="matrix(.7188473,0,0,.7188473,.35942365,.35942365)" d="M841 401H921V481H841Z" fill="#d5e8d4"/>
<path transform="matrix(.7188473,0,0,.7188473,.35942365,.35942365)" stroke-width="1" stroke-linecap="butt" stroke-miterlimit="4" stroke-linejoin="miter" fill="none" stroke="#000000" d="M841 401H921V481H841Z"/>
<use data-text="2" xlink:href="#font_3_21" transform="matrix(17.252335,0,0,-17.252335,623.7011,322.76243)"/>
<use data-text="0" xlink:href="#font_3_19" transform="matrix(17.252335,0,0,-17.252335,633.2934,322.76243)"/>
<path transform="matrix(.7188473,0,0,.7188473,.35942365,.35942365)" d="M921 401H1001V481H921Z" fill="#d5e8d4"/>
<path transform="matrix(.7188473,0,0,.7188473,.35942365,.35942365)" stroke-width="1" stroke-linecap="butt" stroke-miterlimit="4" stroke-linejoin="miter" fill="none" stroke="#000000" d="M921 401H1001V481H921Z"/>
<use data-text="2" xlink:href="#font_3_21" transform="matrix(17.252335,0,0,-17.252335,681.20889,322.76243)"/>
<use data-text="1" xlink:href="#font_3_20" transform="matrix(17.252335,0,0,-17.252335,690.80117,322.76243)"/>
<path transform="matrix(.7188473,0,0,.7188473,.35942365,.35942365)" d="M1001 401H1081V481H1001Z" fill="#d5e8d4"/>
<path transform="matrix(.7188473,0,0,.7188473,.35942365,.35942365)" stroke-width="1" stroke-linecap="butt" stroke-miterlimit="4" stroke-linejoin="miter" fill="none" stroke="#000000" d="M1001 401H1081V481H1001Z"/>
<use data-text="2" xlink:href="#font_3_21" transform="matrix(17.252335,0,0,-17.252335,738.7167,322.76243)"/>
<use data-text="2" xlink:href="#font_3_21" transform="matrix(17.252335,0,0,-17.252335,748.30899,322.76243)"/>
<path transform="matrix(.7188473,0,0,.7188473,.35942365,.35942365)" d="M1081 401H1161V481H1081Z" fill="#d5e8d4"/>
<path transform="matrix(.7188473,0,0,.7188473,.35942365,.35942365)" stroke-width="1" stroke-linecap="butt" stroke-miterlimit="4" stroke-linejoin="miter" fill="none" stroke="#000000" d="M1081 401H1161V481H1081Z"/>
<use data-text="2" xlink:href="#font_3_21" transform="matrix(17.252335,0,0,-17.252335,796.2244,322.76243)"/>
<use data-text="3" xlink:href="#font_3_22" transform="matrix(17.252335,0,0,-17.252335,805.8167,322.76243)"/>
<path transform="matrix(.7188473,0,0,.7188473,.35942365,.35942365)" d="M1161 401H1241V481H1161Z" fill="#d5e8d4"/>
<path transform="matrix(.7188473,0,0,.7188473,.35942365,.35942365)" stroke-width="1" stroke-linecap="butt" stroke-miterlimit="4" stroke-linejoin="miter" fill="none" stroke="#000000" d="M1161 401H1241V481H1161Z"/>
<use data-text="2" xlink:href="#font_3_21" transform="matrix(17.252335,0,0,-17.252335,853.73226,322.76243)"/>
<use data-text="4" xlink:href="#font_3_23" transform="matrix(17.252335,0,0,-17.252335,863.3245,322.76243)"/>
<path transform="matrix(.7188473,0,0,.7188473,.35942365,.35942365)" d="M841 481H921V561H841Z" fill="#d5e8d4"/>
<path transform="matrix(.7188473,0,0,.7188473,.35942365,.35942365)" stroke-width="1" stroke-linecap="butt" stroke-miterlimit="4" stroke-linejoin="miter" fill="none" stroke="#000000" d="M841 481H921V561H841Z"/>
<use data-text="2" xlink:href="#font_3_21" transform="matrix(17.252335,0,0,-17.252335,623.7011,380.2702)"/>
<use data-text="5" xlink:href="#font_3_24" transform="matrix(17.252335,0,0,-17.252335,633.2934,380.2702)"/>
<path transform="matrix(.7188473,0,0,.7188473,.35942365,.35942365)" d="M921 481H1001V561H921Z" fill="#d5e8d4"/>
<path transform="matrix(.7188473,0,0,.7188473,.35942365,.35942365)" stroke-width="1" stroke-linecap="butt" stroke-miterlimit="4" stroke-linejoin="miter" fill="none" stroke="#000000" d="M921 481H1001V561H921Z"/>
<use data-text="2" xlink:href="#font_3_21" transform="matrix(17.252335,0,0,-17.252335,681.20889,380.2702)"/>
<use data-text="6" xlink:href="#font_3_25" transform="matrix(17.252335,0,0,-17.252335,690.80117,380.2702)"/>
<path transform="matrix(.7188473,0,0,.7188473,.35942365,.35942365)" d="M1001 481H1081V561H1001Z" fill="#d5e8d4"/>
<path transform="matrix(.7188473,0,0,.7188473,.35942365,.35942365)" stroke-width="1" stroke-linecap="butt" stroke-miterlimit="4" stroke-linejoin="miter" fill="none" stroke="#000000" d="M1001 481H1081V561H1001Z"/>
<use data-text="2" xlink:href="#font_3_21" transform="matrix(17.252335,0,0,-17.252335,738.7167,380.2702)"/>
<use data-text="7" xlink:href="#font_3_26" transform="matrix(17.252335,0,0,-17.252335,748.30899,380.2702)"/>
<path transform="matrix(.7188473,0,0,.7188473,.35942365,.35942365)" d="M1081 481H1161V561H1081Z" fill="#d5e8d4"/>
<path transform="matrix(.7188473,0,0,.7188473,.35942365,.35942365)" stroke-width="1" stroke-linecap="butt" stroke-miterlimit="4" stroke-linejoin="miter" fill="none" stroke="#000000" d="M1081 481H1161V561H1081Z"/>
<use data-text="2" xlink:href="#font_3_21" transform="matrix(17.252335,0,0,-17.252335,796.2244,380.2702)"/>
<use data-text="8" xlink:href="#font_3_27" transform="matrix(17.252335,0,0,-17.252335,805.8167,380.2702)"/>
<path transform="matrix(.7188473,0,0,.7188473,.35942365,.35942365)" d="M1161 481H1241V561H1161Z" fill="#d5e8d4"/>
<path transform="matrix(.7188473,0,0,.7188473,.35942365,.35942365)" stroke-width="1" stroke-linecap="butt" stroke-miterlimit="4" stroke-linejoin="miter" fill="none" stroke="#000000" d="M1161 481H1241V561H1161Z"/>
<use data-text="2" xlink:href="#font_3_21" transform="matrix(17.252335,0,0,-17.252335,853.73226,380.2702)"/>
<use data-text="9" xlink:href="#font_3_28" transform="matrix(17.252335,0,0,-17.252335,863.3245,380.2702)"/>
<path transform="matrix(.7188473,0,0,.7188473,.35942365,.35942365)" d="M841 201H921V281H841Z" fill="#dae8fc"/>
<path transform="matrix(.7188473,0,0,.7188473,.35942365,.35942365)" stroke-width="1" stroke-linecap="butt" stroke-miterlimit="4" stroke-linejoin="miter" fill="none" stroke="#000000" d="M841 201H921V281H841Z"/>
<use data-text="1" xlink:href="#font_3_20" transform="matrix(17.252335,0,0,-17.252335,623.7011,178.99297)"/>
<use data-text="0" xlink:href="#font_3_19" transform="matrix(17.252335,0,0,-17.252335,633.2934,178.99297)"/>
<path transform="matrix(.7188473,0,0,.7188473,.35942365,.35942365)" d="M921 201H1001V281H921Z" fill="#dae8fc"/>
<path transform="matrix(.7188473,0,0,.7188473,.35942365,.35942365)" stroke-width="1" stroke-linecap="butt" stroke-miterlimit="4" stroke-linejoin="miter" fill="none" stroke="#000000" d="M921 201H1001V281H921Z"/>
<use data-text="1" xlink:href="#font_3_20" transform="matrix(17.252335,0,0,-17.252335,681.8491,178.99297)"/>
<use data-text="1" xlink:href="#font_3_20" transform="matrix(17.252335,0,0,-17.252335,690.1636,178.99297)"/>
<path transform="matrix(.7188473,0,0,.7188473,.35942365,.35942365)" d="M1001 201H1081V281H1001Z" fill="#dae8fc"/>
<path transform="matrix(.7188473,0,0,.7188473,.35942365,.35942365)" stroke-width="1" stroke-linecap="butt" stroke-miterlimit="4" stroke-linejoin="miter" fill="none" stroke="#000000" d="M1001 201H1081V281H1001Z"/>
<use data-text="1" xlink:href="#font_3_20" transform="matrix(17.252335,0,0,-17.252335,738.7167,178.99297)"/>
<use data-text="2" xlink:href="#font_3_21" transform="matrix(17.252335,0,0,-17.252335,748.30899,178.99297)"/>
<path transform="matrix(.7188473,0,0,.7188473,.35942365,.35942365)" d="M1081 201H1161V281H1081Z" fill="#dae8fc"/>
<path transform="matrix(.7188473,0,0,.7188473,.35942365,.35942365)" stroke-width="1" stroke-linecap="butt" stroke-miterlimit="4" stroke-linejoin="miter" fill="none" stroke="#000000" d="M1081 201H1161V281H1081Z"/>
<use data-text="1" xlink:href="#font_3_20" transform="matrix(17.252335,0,0,-17.252335,796.2244,178.99297)"/>
<use data-text="3" xlink:href="#font_3_22" transform="matrix(17.252335,0,0,-17.252335,805.8167,178.99297)"/>
<path transform="matrix(.7188473,0,0,.7188473,.35942365,.35942365)" d="M1161 201H1241V281H1161Z" fill="#dae8fc"/>
<path transform="matrix(.7188473,0,0,.7188473,.35942365,.35942365)" stroke-width="1" stroke-linecap="butt" stroke-miterlimit="4" stroke-linejoin="miter" fill="none" stroke="#000000" d="M1161 201H1241V281H1161Z"/>
<use data-text="1" xlink:href="#font_3_20" transform="matrix(17.252335,0,0,-17.252335,853.73226,178.99297)"/>
<use data-text="4" xlink:href="#font_3_23" transform="matrix(17.252335,0,0,-17.252335,863.3245,178.99297)"/>
<path transform="matrix(.7188473,0,0,.7188473,.35942365,.35942365)" d="M841 281H921V361H841Z" fill="#dae8fc"/>
<path transform="matrix(.7188473,0,0,.7188473,.35942365,.35942365)" stroke-width="1" stroke-linecap="butt" stroke-miterlimit="4" stroke-linejoin="miter" fill="none" stroke="#000000" d="M841 281H921V361H841Z"/>
<use data-text="1" xlink:href="#font_3_20" transform="matrix(17.252335,0,0,-17.252335,623.7011,236.50075)"/>
<use data-text="5" xlink:href="#font_3_24" transform="matrix(17.252335,0,0,-17.252335,633.2934,236.50075)"/>
<path transform="matrix(.7188473,0,0,.7188473,.35942365,.35942365)" d="M921 281H1001V361H921Z" fill="#dae8fc"/>
<path transform="matrix(.7188473,0,0,.7188473,.35942365,.35942365)" stroke-width="1" stroke-linecap="butt" stroke-miterlimit="4" stroke-linejoin="miter" fill="none" stroke="#000000" d="M921 281H1001V361H921Z"/>
<use data-text="1" xlink:href="#font_3_20" transform="matrix(17.252335,0,0,-17.252335,681.20889,236.50075)"/>
<use data-text="6" xlink:href="#font_3_25" transform="matrix(17.252335,0,0,-17.252335,690.80117,236.50075)"/>
<path transform="matrix(.7188473,0,0,.7188473,.35942365,.35942365)" d="M1001 281H1081V361H1001Z" fill="#dae8fc"/>
<path transform="matrix(.7188473,0,0,.7188473,.35942365,.35942365)" stroke-width="1" stroke-linecap="butt" stroke-miterlimit="4" stroke-linejoin="miter" fill="none" stroke="#000000" d="M1001 281H1081V361H1001Z"/>
<use data-text="1" xlink:href="#font_3_20" transform="matrix(17.252335,0,0,-17.252335,738.7167,236.50075)"/>
<use data-text="7" xlink:href="#font_3_26" transform="matrix(17.252335,0,0,-17.252335,748.30899,236.50075)"/>
<path transform="matrix(.7188473,0,0,.7188473,.35942365,.35942365)" d="M1081 281H1161V361H1081Z" fill="#dae8fc"/>
<path transform="matrix(.7188473,0,0,.7188473,.35942365,.35942365)" stroke-width="1" stroke-linecap="butt" stroke-miterlimit="4" stroke-linejoin="miter" fill="none" stroke="#000000" d="M1081 281H1161V361H1081Z"/>
<use data-text="1" xlink:href="#font_3_20" transform="matrix(17.252335,0,0,-17.252335,796.2244,236.50075)"/>
<use data-text="8" xlink:href="#font_3_27" transform="matrix(17.252335,0,0,-17.252335,805.8167,236.50075)"/>
<path transform="matrix(.7188473,0,0,.7188473,.35942365,.35942365)" d="M1161 281H1241V361H1161Z" fill="#dae8fc"/>
<path transform="matrix(.7188473,0,0,.7188473,.35942365,.35942365)" stroke-width="1" stroke-linecap="butt" stroke-miterlimit="4" stroke-linejoin="miter" fill="none" stroke="#000000" d="M1161 281H1241V361H1161Z"/>
<use data-text="1" xlink:href="#font_3_20" transform="matrix(17.252335,0,0,-17.252335,853.73226,236.50075)"/>
<use data-text="9" xlink:href="#font_3_28" transform="matrix(17.252335,0,0,-17.252335,863.3245,236.50075)"/>
<path transform="matrix(.7188473,0,0,.7188473,.35942365,.35942365)" d="M841 1H921V81H841Z" fill="#ffe6cc"/>
<path transform="matrix(.7188473,0,0,.7188473,.35942365,.35942365)" stroke-width="1" stroke-linecap="butt" stroke-miterlimit="4" stroke-linejoin="miter" fill="none" stroke="#000000" d="M841 1H921V81H841Z"/>
<use data-text="0" xlink:href="#font_3_19" transform="matrix(17.252335,0,0,-17.252335,628.49716,35.22352)"/>
<path transform="matrix(.7188473,0,0,.7188473,.35942365,.35942365)" d="M921 1H1001V81H921Z" fill="#ffe6cc"/>
<path transform="matrix(.7188473,0,0,.7188473,.35942365,.35942365)" stroke-width="1" stroke-linecap="butt" stroke-miterlimit="4" stroke-linejoin="miter" fill="none" stroke="#000000" d="M921 1H1001V81H921Z"/>
<use data-text="1" xlink:href="#font_3_20" transform="matrix(17.252335,0,0,-17.252335,686.00497,35.22352)"/>
<path transform="matrix(.7188473,0,0,.7188473,.35942365,.35942365)" d="M1001 1H1081V81H1001Z" fill="#ffe6cc"/>
<path transform="matrix(.7188473,0,0,.7188473,.35942365,.35942365)" stroke-width="1" stroke-linecap="butt" stroke-miterlimit="4" stroke-linejoin="miter" fill="none" stroke="#000000" d="M1001 1H1081V81H1001Z"/>
<use data-text="2" xlink:href="#font_3_21" transform="matrix(17.252335,0,0,-17.252335,743.5127,35.22352)"/>
<path transform="matrix(.7188473,0,0,.7188473,.35942365,.35942365)" d="M1081 1H1161V81H1081Z" fill="#ffe6cc"/>
<path transform="matrix(.7188473,0,0,.7188473,.35942365,.35942365)" stroke-width="1" stroke-linecap="butt" stroke-miterlimit="4" stroke-linejoin="miter" fill="none" stroke="#000000" d="M1081 1H1161V81H1081Z"/>
<use data-text="3" xlink:href="#font_3_22" transform="matrix(17.252335,0,0,-17.252335,801.0205,35.22352)"/>
<path transform="matrix(.7188473,0,0,.7188473,.35942365,.35942365)" d="M1161 1H1241V81H1161Z" fill="#ffe6cc"/>
<path transform="matrix(.7188473,0,0,.7188473,.35942365,.35942365)" stroke-width="1" stroke-linecap="butt" stroke-miterlimit="4" stroke-linejoin="miter" fill="none" stroke="#000000" d="M1161 1H1241V81H1161Z"/>
<use data-text="4" xlink:href="#font_3_23" transform="matrix(17.252335,0,0,-17.252335,858.52828,35.22352)"/>
<path transform="matrix(.7188473,0,0,.7188473,.35942365,.35942365)" d="M841 81H921V161H841Z" fill="#ffe6cc"/>
<path transform="matrix(.7188473,0,0,.7188473,.35942365,.35942365)" stroke-width="1" stroke-linecap="butt" stroke-miterlimit="4" stroke-linejoin="miter" fill="none" stroke="#000000" d="M841 81H921V161H841Z"/>
<use data-text="5" xlink:href="#font_3_24" transform="matrix(17.252335,0,0,-17.252335,628.49716,92.7313)"/>
<path transform="matrix(.7188473,0,0,.7188473,.35942365,.35942365)" d="M921 81H1001V161H921Z" fill="#ffe6cc"/>
<path transform="matrix(.7188473,0,0,.7188473,.35942365,.35942365)" stroke-width="1" stroke-linecap="butt" stroke-miterlimit="4" stroke-linejoin="miter" fill="none" stroke="#000000" d="M921 81H1001V161H921Z"/>
<use data-text="6" xlink:href="#font_3_25" transform="matrix(17.252335,0,0,-17.252335,686.00497,92.7313)"/>
<path transform="matrix(.7188473,0,0,.7188473,.35942365,.35942365)" d="M1001 81H1081V161H1001Z" fill="#ffe6cc"/>
<path transform="matrix(.7188473,0,0,.7188473,.35942365,.35942365)" stroke-width="1" stroke-linecap="butt" stroke-miterlimit="4" stroke-linejoin="miter" fill="none" stroke="#000000" d="M1001 81H1081V161H1001Z"/>
<use data-text="7" xlink:href="#font_3_26" transform="matrix(17.252335,0,0,-17.252335,743.5127,92.7313)"/>
<path transform="matrix(.7188473,0,0,.7188473,.35942365,.35942365)" d="M1081 81H1161V161H1081Z" fill="#ffe6cc"/>
<path transform="matrix(.7188473,0,0,.7188473,.35942365,.35942365)" stroke-width="1" stroke-linecap="butt" stroke-miterlimit="4" stroke-linejoin="miter" fill="none" stroke="#000000" d="M1081 81H1161V161H1081Z"/>
<use data-text="8" xlink:href="#font_3_27" transform="matrix(17.252335,0,0,-17.252335,801.0205,92.7313)"/>
<path transform="matrix(.7188473,0,0,.7188473,.35942365,.35942365)" d="M1161 81H1241V161H1161Z" fill="#ffe6cc"/>
<path transform="matrix(.7188473,0,0,.7188473,.35942365,.35942365)" stroke-width="1" stroke-linecap="butt" stroke-miterlimit="4" stroke-linejoin="miter" fill="none" stroke="#000000" d="M1161 81H1241V161H1161Z"/>
<use data-text="9" xlink:href="#font_3_28" transform="matrix(17.252335,0,0,-17.252335,858.52828,92.7313)"/>
<path transform="matrix(.7188473,0,0,.7188473,.35942365,.35942365)" d="M201 241H281V321H201Z" fill="#d5e8d4"/>
<path transform="matrix(.7188473,0,0,.7188473,.35942365,.35942365)" stroke-width="1" stroke-linecap="butt" stroke-miterlimit="4" stroke-linejoin="miter" fill="none" stroke="#000000" d="M201 241H281V321H201Z"/>
<use data-text="2" xlink:href="#font_3_21" transform="matrix(17.252335,0,0,-17.252335,163.63884,207.74686)"/>
<use data-text="0" xlink:href="#font_3_19" transform="matrix(17.252335,0,0,-17.252335,173.23114,207.74686)"/>
<path transform="matrix(.7188473,0,0,.7188473,.35942365,.35942365)" d="M281 241H361V321H281Z" fill="#d5e8d4"/>
<path transform="matrix(.7188473,0,0,.7188473,.35942365,.35942365)" stroke-width="1" stroke-linecap="butt" stroke-miterlimit="4" stroke-linejoin="miter" fill="none" stroke="#000000" d="M281 241H361V321H281Z"/>
<use data-text="2" xlink:href="#font_3_21" transform="matrix(17.252335,0,0,-17.252335,221.14662,207.74686)"/>
<use data-text="1" xlink:href="#font_3_20" transform="matrix(17.252335,0,0,-17.252335,230.73892,207.74686)"/>
<path transform="matrix(.7188473,0,0,.7188473,.35942365,.35942365)" d="M361 241H441V321H361Z" fill="#d5e8d4"/>
<path transform="matrix(.7188473,0,0,.7188473,.35942365,.35942365)" stroke-width="1" stroke-linecap="butt" stroke-miterlimit="4" stroke-linejoin="miter" fill="none" stroke="#000000" d="M361 241H441V321H361Z"/>
<use data-text="2" xlink:href="#font_3_21" transform="matrix(17.252335,0,0,-17.252335,278.65443,207.74686)"/>
<use data-text="2" xlink:href="#font_3_21" transform="matrix(17.252335,0,0,-17.252335,288.2467,207.74686)"/>
<path transform="matrix(.7188473,0,0,.7188473,.35942365,.35942365)" d="M441 241H521V321H441Z" fill="#d5e8d4"/>
<path transform="matrix(.7188473,0,0,.7188473,.35942365,.35942365)" stroke-width="1" stroke-linecap="butt" stroke-miterlimit="4" stroke-linejoin="miter" fill="none" stroke="#000000" d="M441 241H521V321H441Z"/>
<use data-text="2" xlink:href="#font_3_21" transform="matrix(17.252335,0,0,-17.252335,336.1622,207.74686)"/>
<use data-text="3" xlink:href="#font_3_22" transform="matrix(17.252335,0,0,-17.252335,345.7545,207.74686)"/>
<path transform="matrix(.7188473,0,0,.7188473,.35942365,.35942365)" d="M521 241H601V321H521Z" fill="#d5e8d4"/>
<path transform="matrix(.7188473,0,0,.7188473,.35942365,.35942365)" stroke-width="1" stroke-linecap="butt" stroke-miterlimit="4" stroke-linejoin="miter" fill="none" stroke="#000000" d="M521 241H601V321H521Z"/>
<use data-text="2" xlink:href="#font_3_21" transform="matrix(17.252335,0,0,-17.252335,393.66999,207.74686)"/>
<use data-text="4" xlink:href="#font_3_23" transform="matrix(17.252335,0,0,-17.252335,403.26228,207.74686)"/>
<path transform="matrix(.7188473,0,0,.7188473,.35942365,.35942365)" d="M201 321H281V401H201Z" fill="#d5e8d4"/>
<path transform="matrix(.7188473,0,0,.7188473,.35942365,.35942365)" stroke-width="1" stroke-linecap="butt" stroke-miterlimit="4" stroke-linejoin="miter" fill="none" stroke="#000000" d="M201 321H281V401H201Z"/>
<use data-text="2" xlink:href="#font_3_21" transform="matrix(17.252335,0,0,-17.252335,163.63884,265.25465)"/>
<use data-text="5" xlink:href="#font_3_24" transform="matrix(17.252335,0,0,-17.252335,173.23114,265.25465)"/>
<path transform="matrix(.7188473,0,0,.7188473,.35942365,.35942365)" d="M281 321H361V401H281Z" fill="#d5e8d4"/>
<path transform="matrix(.7188473,0,0,.7188473,.35942365,.35942365)" stroke-width="1" stroke-linecap="butt" stroke-miterlimit="4" stroke-linejoin="miter" fill="none" stroke="#000000" d="M281 321H361V401H281Z"/>
<use data-text="2" xlink:href="#font_3_21" transform="matrix(17.252335,0,0,-17.252335,221.14662,265.25465)"/>
<use data-text="6" xlink:href="#font_3_25" transform="matrix(17.252335,0,0,-17.252335,230.73892,265.25465)"/>
<path transform="matrix(.7188473,0,0,.7188473,.35942365,.35942365)" d="M361 321H441V401H361Z" fill="#d5e8d4"/>
<path transform="matrix(.7188473,0,0,.7188473,.35942365,.35942365)" stroke-width="1" stroke-linecap="butt" stroke-miterlimit="4" stroke-linejoin="miter" fill="none" stroke="#000000" d="M361 321H441V401H361Z"/>
<use data-text="2" xlink:href="#font_3_21" transform="matrix(17.252335,0,0,-17.252335,278.65443,265.25465)"/>
<use data-text="7" xlink:href="#font_3_26" transform="matrix(17.252335,0,0,-17.252335,288.2467,265.25465)"/>
<path transform="matrix(.7188473,0,0,.7188473,.35942365,.35942365)" d="M441 321H521V401H441Z" fill="#d5e8d4"/>
<path transform="matrix(.7188473,0,0,.7188473,.35942365,.35942365)" stroke-width="1" stroke-linecap="butt" stroke-miterlimit="4" stroke-linejoin="miter" fill="none" stroke="#000000" d="M441 321H521V401H441Z"/>
<use data-text="2" xlink:href="#font_3_21" transform="matrix(17.252335,0,0,-17.252335,336.1622,265.25465)"/>
<use data-text="8" xlink:href="#font_3_27" transform="matrix(17.252335,0,0,-17.252335,345.7545,265.25465)"/>
<path transform="matrix(.7188473,0,0,.7188473,.35942365,.35942365)" d="M521 321H601V401H521Z" fill="#d5e8d4"/>
<path transform="matrix(.7188473,0,0,.7188473,.35942365,.35942365)" stroke-width="1" stroke-linecap="butt" stroke-miterlimit="4" stroke-linejoin="miter" fill="none" stroke="#000000" d="M521 321H601V401H521Z"/>
<use data-text="2" xlink:href="#font_3_21" transform="matrix(17.252335,0,0,-17.252335,393.66999,265.25465)"/>
<use data-text="9" xlink:href="#font_3_28" transform="matrix(17.252335,0,0,-17.252335,403.26228,265.25465)"/>
<path transform="matrix(.7188473,0,0,.7188473,.35942365,.35942365)" d="M161 201H241V281H161Z" fill="#dae8fc"/>
<path transform="matrix(.7188473,0,0,.7188473,.35942365,.35942365)" stroke-width="1" stroke-linecap="butt" stroke-miterlimit="4" stroke-linejoin="miter" fill="none" stroke="#000000" d="M161 201H241V281H161Z"/>
<use data-text="1" xlink:href="#font_3_20" transform="matrix(17.252335,0,0,-17.252335,134.88495,178.99297)"/>
<use data-text="0" xlink:href="#font_3_19" transform="matrix(17.252335,0,0,-17.252335,144.47725,178.99297)"/>
<path transform="matrix(.7188473,0,0,.7188473,.35942365,.35942365)" d="M241 201H321V281H241Z" fill="#dae8fc"/>
<path transform="matrix(.7188473,0,0,.7188473,.35942365,.35942365)" stroke-width="1" stroke-linecap="butt" stroke-miterlimit="4" stroke-linejoin="miter" fill="none" stroke="#000000" d="M241 201H321V281H241Z"/>
<use data-text="1" xlink:href="#font_3_20" transform="matrix(17.252335,0,0,-17.252335,193.03296,178.99297)"/>
<use data-text="1" xlink:href="#font_3_20" transform="matrix(17.252335,0,0,-17.252335,201.34745,178.99297)"/>
<path transform="matrix(.7188473,0,0,.7188473,.35942365,.35942365)" d="M321 201H401V281H321Z" fill="#dae8fc"/>
<path transform="matrix(.7188473,0,0,.7188473,.35942365,.35942365)" stroke-width="1" stroke-linecap="butt" stroke-miterlimit="4" stroke-linejoin="miter" fill="none" stroke="#000000" d="M321 201H401V281H321Z"/>
<use data-text="1" xlink:href="#font_3_20" transform="matrix(17.252335,0,0,-17.252335,249.90052,178.99297)"/>
<use data-text="2" xlink:href="#font_3_21" transform="matrix(17.252335,0,0,-17.252335,259.4928,178.99297)"/>
<path transform="matrix(.7188473,0,0,.7188473,.35942365,.35942365)" d="M401 201H481V281H401Z" fill="#dae8fc"/>
<path transform="matrix(.7188473,0,0,.7188473,.35942365,.35942365)" stroke-width="1" stroke-linecap="butt" stroke-miterlimit="4" stroke-linejoin="miter" fill="none" stroke="#000000" d="M401 201H481V281H401Z"/>
<use data-text="1" xlink:href="#font_3_20" transform="matrix(17.252335,0,0,-17.252335,307.4083,178.99297)"/>
<use data-text="3" xlink:href="#font_3_22" transform="matrix(17.252335,0,0,-17.252335,317.00059,178.99297)"/>
<path transform="matrix(.7188473,0,0,.7188473,.35942365,.35942365)" d="M481 201H561V281H481Z" fill="#dae8fc"/>
<path transform="matrix(.7188473,0,0,.7188473,.35942365,.35942365)" stroke-width="1" stroke-linecap="butt" stroke-miterlimit="4" stroke-linejoin="miter" fill="none" stroke="#000000" d="M481 201H561V281H481Z"/>
<use data-text="1" xlink:href="#font_3_20" transform="matrix(17.252335,0,0,-17.252335,364.91609,178.99297)"/>
<use data-text="4" xlink:href="#font_3_23" transform="matrix(17.252335,0,0,-17.252335,374.50837,178.99297)"/>
<path transform="matrix(.7188473,0,0,.7188473,.35942365,.35942365)" d="M161 281H241V361H161Z" fill="#dae8fc"/>
<path transform="matrix(.7188473,0,0,.7188473,.35942365,.35942365)" stroke-width="1" stroke-linecap="butt" stroke-miterlimit="4" stroke-linejoin="miter" fill="none" stroke="#000000" d="M161 281H241V361H161Z"/>
<use data-text="1" xlink:href="#font_3_20" transform="matrix(17.252335,0,0,-17.252335,134.88495,236.50075)"/>
<use data-text="5" xlink:href="#font_3_24" transform="matrix(17.252335,0,0,-17.252335,144.47725,236.50075)"/>
<path transform="matrix(.7188473,0,0,.7188473,.35942365,.35942365)" d="M241 281H321V361H241Z" fill="#dae8fc"/>
<path transform="matrix(.7188473,0,0,.7188473,.35942365,.35942365)" stroke-width="1" stroke-linecap="butt" stroke-miterlimit="4" stroke-linejoin="miter" fill="none" stroke="#000000" d="M241 281H321V361H241Z"/>
<use data-text="1" xlink:href="#font_3_20" transform="matrix(17.252335,0,0,-17.252335,192.39273,236.50075)"/>
<use data-text="6" xlink:href="#font_3_25" transform="matrix(17.252335,0,0,-17.252335,201.98503,236.50075)"/>
<path transform="matrix(.7188473,0,0,.7188473,.35942365,.35942365)" d="M321 281H401V361H321Z" fill="#dae8fc"/>
<path transform="matrix(.7188473,0,0,.7188473,.35942365,.35942365)" stroke-width="1" stroke-linecap="butt" stroke-miterlimit="4" stroke-linejoin="miter" fill="none" stroke="#000000" d="M321 281H401V361H321Z"/>
<use data-text="1" xlink:href="#font_3_20" transform="matrix(17.252335,0,0,-17.252335,249.90052,236.50075)"/>
<use data-text="7" xlink:href="#font_3_26" transform="matrix(17.252335,0,0,-17.252335,259.4928,236.50075)"/>
<path transform="matrix(.7188473,0,0,.7188473,.35942365,.35942365)" d="M401 281H481V361H401Z" fill="#dae8fc"/>
<path transform="matrix(.7188473,0,0,.7188473,.35942365,.35942365)" stroke-width="1" stroke-linecap="butt" stroke-miterlimit="4" stroke-linejoin="miter" fill="none" stroke="#000000" d="M401 281H481V361H401Z"/>
<use data-text="1" xlink:href="#font_3_20" transform="matrix(17.252335,0,0,-17.252335,307.4083,236.50075)"/>
<use data-text="8" xlink:href="#font_3_27" transform="matrix(17.252335,0,0,-17.252335,317.00059,236.50075)"/>
<path transform="matrix(.7188473,0,0,.7188473,.35942365,.35942365)" d="M481 281H561V361H481Z" fill="#dae8fc"/>
<path transform="matrix(.7188473,0,0,.7188473,.35942365,.35942365)" stroke-width="1" stroke-linecap="butt" stroke-miterlimit="4" stroke-linejoin="miter" fill="none" stroke="#000000" d="M481 281H561V361H481Z"/>
<use data-text="1" xlink:href="#font_3_20" transform="matrix(17.252335,0,0,-17.252335,364.91609,236.50075)"/>
<use data-text="9" xlink:href="#font_3_28" transform="matrix(17.252335,0,0,-17.252335,374.50837,236.50075)"/>
<path transform="matrix(.7188473,0,0,.7188473,.35942365,.35942365)" d="M121 161H201V241H121Z" fill="#ffe6cc"/>
<path transform="matrix(.7188473,0,0,.7188473,.35942365,.35942365)" stroke-width="1" stroke-linecap="butt" stroke-miterlimit="4" stroke-linejoin="miter" fill="none" stroke="#000000" d="M121 161H201V241H121Z"/>
<use data-text="0" xlink:href="#font_3_19" transform="matrix(17.252335,0,0,-17.252335,110.92712,150.23908)"/>
<path transform="matrix(.7188473,0,0,.7188473,.35942365,.35942365)" d="M201 161H281V241H201Z" fill="#ffe6cc"/>
<path transform="matrix(.7188473,0,0,.7188473,.35942365,.35942365)" stroke-width="1" stroke-linecap="butt" stroke-miterlimit="4" stroke-linejoin="miter" fill="none" stroke="#000000" d="M201 161H281V241H201Z"/>
<use data-text="1" xlink:href="#font_3_20" transform="matrix(17.252335,0,0,-17.252335,168.4349,150.23908)"/>
<path transform="matrix(.7188473,0,0,.7188473,.35942365,.35942365)" d="M281 161H361V241H281Z" fill="#ffe6cc"/>
<path transform="matrix(.7188473,0,0,.7188473,.35942365,.35942365)" stroke-width="1" stroke-linecap="butt" stroke-miterlimit="4" stroke-linejoin="miter" fill="none" stroke="#000000" d="M281 161H361V241H281Z"/>
<use data-text="2" xlink:href="#font_3_21" transform="matrix(17.252335,0,0,-17.252335,225.94269,150.23908)"/>
<path transform="matrix(.7188473,0,0,.7188473,.35942365,.35942365)" d="M361 161H441V241H361Z" fill="#ffe6cc"/>
<path transform="matrix(.7188473,0,0,.7188473,.35942365,.35942365)" stroke-width="1" stroke-linecap="butt" stroke-miterlimit="4" stroke-linejoin="miter" fill="none" stroke="#000000" d="M361 161H441V241H361Z"/>
<use data-text="3" xlink:href="#font_3_22" transform="matrix(17.252335,0,0,-17.252335,283.45048,150.23908)"/>
<path transform="matrix(.7188473,0,0,.7188473,.35942365,.35942365)" d="M441 161H521V241H441Z" fill="#ffe6cc"/>
<path transform="matrix(.7188473,0,0,.7188473,.35942365,.35942365)" stroke-width="1" stroke-linecap="butt" stroke-miterlimit="4" stroke-linejoin="miter" fill="none" stroke="#000000" d="M441 161H521V241H441Z"/>
<use data-text="4" xlink:href="#font_3_23" transform="matrix(17.252335,0,0,-17.252335,340.95826,150.23908)"/>
<path transform="matrix(.7188473,0,0,.7188473,.35942365,.35942365)" d="M121 241H201V321H121Z" fill="#ffe6cc"/>
<path transform="matrix(.7188473,0,0,.7188473,.35942365,.35942365)" stroke-width="1" stroke-linecap="butt" stroke-miterlimit="4" stroke-linejoin="miter" fill="none" stroke="#000000" d="M121 241H201V321H121Z"/>
<use data-text="5" xlink:href="#font_3_24" transform="matrix(17.252335,0,0,-17.252335,110.92712,207.74686)"/>
<path transform="matrix(.7188473,0,0,.7188473,.35942365,.35942365)" d="M201 241H281V321H201Z" fill="#ffe6cc"/>
<path transform="matrix(.7188473,0,0,.7188473,.35942365,.35942365)" stroke-width="1" stroke-linecap="butt" stroke-miterlimit="4" stroke-linejoin="miter" fill="none" stroke="#000000" d="M201 241H281V321H201Z"/>
<use data-text="6" xlink:href="#font_3_25" transform="matrix(17.252335,0,0,-17.252335,168.4349,207.74686)"/>
<path transform="matrix(.7188473,0,0,.7188473,.35942365,.35942365)" d="M281 241H361V321H281Z" fill="#ffe6cc"/>
<path transform="matrix(.7188473,0,0,.7188473,.35942365,.35942365)" stroke-width="1" stroke-linecap="butt" stroke-miterlimit="4" stroke-linejoin="miter" fill="none" stroke="#000000" d="M281 241H361V321H281Z"/>
<use data-text="7" xlink:href="#font_3_26" transform="matrix(17.252335,0,0,-17.252335,225.94269,207.74686)"/>
<path transform="matrix(.7188473,0,0,.7188473,.35942365,.35942365)" d="M361 241H441V321H361Z" fill="#ffe6cc"/>
<path transform="matrix(.7188473,0,0,.7188473,.35942365,.35942365)" stroke-width="1" stroke-linecap="butt" stroke-miterlimit="4" stroke-linejoin="miter" fill="none" stroke="#000000" d="M361 241H441V321H361Z"/>
<use data-text="8" xlink:href="#font_3_27" transform="matrix(17.252335,0,0,-17.252335,283.45048,207.74686)"/>
<path transform="matrix(.7188473,0,0,.7188473,.35942365,.35942365)" d="M441 241H521V321H441Z" fill="#ffe6cc"/>
<path transform="matrix(.7188473,0,0,.7188473,.35942365,.35942365)" stroke-width="1" stroke-linecap="butt" stroke-miterlimit="4" stroke-linejoin="miter" fill="none" stroke="#000000" d="M441 241H521V321H441Z"/>
<use data-text="9" xlink:href="#font_3_28" transform="matrix(17.252335,0,0,-17.252335,340.95826,207.74686)"/>
<path transform="matrix(.7188473,0,0,.7188473,.35942365,.35942365)" d="M841 641H881V681H841Z" fill="#d5e8d4"/>
<path transform="matrix(.7188473,0,0,.7188473,.35942365,.35942365)" stroke-width="1" stroke-linecap="butt" stroke-miterlimit="4" stroke-linejoin="miter" fill="none" stroke="#000000" d="M841 641H881V681H841Z"/>
<use data-text="2" xlink:href="#font_3_21" transform="matrix(17.252335,0,0,-17.252335,609.32418,480.9088)"/>
<use data-text="0" xlink:href="#font_3_19" transform="matrix(17.252335,0,0,-17.252335,618.91647,480.9088)"/>
<path transform="matrix(.7188473,0,0,.7188473,.35942365,.35942365)" d="M881 641H921V681H881Z" fill="#d5e8d4"/>
<path transform="matrix(.7188473,0,0,.7188473,.35942365,.35942365)" stroke-width="1" stroke-linecap="butt" stroke-miterlimit="4" stroke-linejoin="miter" fill="none" stroke="#000000" d="M881 641H921V681H881Z"/>
<use data-text="2" xlink:href="#font_3_21" transform="matrix(17.252335,0,0,-17.252335,638.07809,480.9088)"/>
<use data-text="1" xlink:href="#font_3_20" transform="matrix(17.252335,0,0,-17.252335,647.67037,480.9088)"/>
<path transform="matrix(.7188473,0,0,.7188473,.35942365,.35942365)" d="M921 641H961V681H921Z" fill="#d5e8d4"/>
<path transform="matrix(.7188473,0,0,.7188473,.35942365,.35942365)" stroke-width="1" stroke-linecap="butt" stroke-miterlimit="4" stroke-linejoin="miter" fill="none" stroke="#000000" d="M921 641H961V681H921Z"/>
<use data-text="2" xlink:href="#font_3_21" transform="matrix(17.252335,0,0,-17.252335,666.8319,480.9088)"/>
<use data-text="2" xlink:href="#font_3_21" transform="matrix(17.252335,0,0,-17.252335,676.42428,480.9088)"/>
<path transform="matrix(.7188473,0,0,.7188473,.35942365,.35942365)" d="M961 641H1001V681H961Z" fill="#d5e8d4"/>
<path transform="matrix(.7188473,0,0,.7188473,.35942365,.35942365)" stroke-width="1" stroke-linecap="butt" stroke-miterlimit="4" stroke-linejoin="miter" fill="none" stroke="#000000" d="M961 641H1001V681H961Z"/>
<use data-text="2" xlink:href="#font_3_21" transform="matrix(17.252335,0,0,-17.252335,695.5858,480.9088)"/>
<use data-text="3" xlink:href="#font_3_22" transform="matrix(17.252335,0,0,-17.252335,705.1781,480.9088)"/>
<path transform="matrix(.7188473,0,0,.7188473,.35942365,.35942365)" d="M1001 641H1041V681H1001Z" fill="#d5e8d4"/>
<path transform="matrix(.7188473,0,0,.7188473,.35942365,.35942365)" stroke-width="1" stroke-linecap="butt" stroke-miterlimit="4" stroke-linejoin="miter" fill="none" stroke="#000000" d="M1001 641H1041V681H1001Z"/>
<use data-text="2" xlink:href="#font_3_21" transform="matrix(17.252335,0,0,-17.252335,724.3397,480.9088)"/>
<use data-text="4" xlink:href="#font_3_23" transform="matrix(17.252335,0,0,-17.252335,733.932,480.9088)"/>
<path transform="matrix(.7188473,0,0,.7188473,.35942365,.35942365)" d="M1041 641H1081V681H1041Z" fill="#d5e8d4"/>
<path transform="matrix(.7188473,0,0,.7188473,.35942365,.35942365)" stroke-width="1" stroke-linecap="butt" stroke-miterlimit="4" stroke-linejoin="miter" fill="none" stroke="#000000" d="M1041 641H1081V681H1041Z"/>
<use data-text="2" xlink:href="#font_3_21" transform="matrix(17.252335,0,0,-17.252335,753.0936,480.9088)"/>
<use data-text="5" xlink:href="#font_3_24" transform="matrix(17.252335,0,0,-17.252335,762.6859,480.9088)"/>
<path transform="matrix(.7188473,0,0,.7188473,.35942365,.35942365)" d="M1081 641H1121V681H1081Z" fill="#d5e8d4"/>
<path transform="matrix(.7188473,0,0,.7188473,.35942365,.35942365)" stroke-width="1" stroke-linecap="butt" stroke-miterlimit="4" stroke-linejoin="miter" fill="none" stroke="#000000" d="M1081 641H1121V681H1081Z"/>
<use data-text="2" xlink:href="#font_3_21" transform="matrix(17.252335,0,0,-17.252335,781.8475,480.9088)"/>
<use data-text="6" xlink:href="#font_3_25" transform="matrix(17.252335,0,0,-17.252335,791.4398,480.9088)"/>
<path transform="matrix(.7188473,0,0,.7188473,.35942365,.35942365)" d="M1121 641H1161V681H1121Z" fill="#d5e8d4"/>
<path transform="matrix(.7188473,0,0,.7188473,.35942365,.35942365)" stroke-width="1" stroke-linecap="butt" stroke-miterlimit="4" stroke-linejoin="miter" fill="none" stroke="#000000" d="M1121 641H1161V681H1121Z"/>
<use data-text="2" xlink:href="#font_3_21" transform="matrix(17.252335,0,0,-17.252335,810.6014,480.9088)"/>
<use data-text="7" xlink:href="#font_3_26" transform="matrix(17.252335,0,0,-17.252335,820.19369,480.9088)"/>
<path transform="matrix(.7188473,0,0,.7188473,.35942365,.35942365)" d="M1161 641H1201V681H1161Z" fill="#d5e8d4"/>
<path transform="matrix(.7188473,0,0,.7188473,.35942365,.35942365)" stroke-width="1" stroke-linecap="butt" stroke-miterlimit="4" stroke-linejoin="miter" fill="none" stroke="#000000" d="M1161 641H1201V681H1161Z"/>
<use data-text="2" xlink:href="#font_3_21" transform="matrix(17.252335,0,0,-17.252335,839.3553,480.9088)"/>
<use data-text="8" xlink:href="#font_3_27" transform="matrix(17.252335,0,0,-17.252335,848.9476,480.9088)"/>
<path transform="matrix(.7188473,0,0,.7188473,.35942365,.35942365)" d="M1201 641H1241V681H1201Z" fill="#d5e8d4"/>
<path transform="matrix(.7188473,0,0,.7188473,.35942365,.35942365)" stroke-width="1" stroke-linecap="butt" stroke-miterlimit="4" stroke-linejoin="miter" fill="none" stroke="#000000" d="M1201 641H1241V681H1201Z"/>
<use data-text="2" xlink:href="#font_3_21" transform="matrix(17.252335,0,0,-17.252335,868.1092,480.9088)"/>
<use data-text="9" xlink:href="#font_3_28" transform="matrix(17.252335,0,0,-17.252335,877.7015,480.9088)"/>
<path transform="matrix(.7188473,0,0,.7188473,.35942365,.35942365)" d="M441 641H481V681H441Z" fill="#dae8fc"/>
<path transform="matrix(.7188473,0,0,.7188473,.35942365,.35942365)" stroke-width="1" stroke-linecap="butt" stroke-miterlimit="4" stroke-linejoin="miter" fill="none" stroke="#000000" d="M441 641H481V681H441Z"/>
<use data-text="1" xlink:href="#font_3_20" transform="matrix(17.252335,0,0,-17.252335,321.78526,480.9088)"/>
<use data-text="0" xlink:href="#font_3_19" transform="matrix(17.252335,0,0,-17.252335,331.37754,480.9088)"/>
<path transform="matrix(.7188473,0,0,.7188473,.35942365,.35942365)" d="M481 641H521V681H481Z" fill="#dae8fc"/>
<path transform="matrix(.7188473,0,0,.7188473,.35942365,.35942365)" stroke-width="1" stroke-linecap="butt" stroke-miterlimit="4" stroke-linejoin="miter" fill="none" stroke="#000000" d="M481 641H521V681H481Z"/>
<use data-text="1" xlink:href="#font_3_20" transform="matrix(17.252335,0,0,-17.252335,351.17936,480.9088)"/>
<use data-text="1" xlink:href="#font_3_20" transform="matrix(17.252335,0,0,-17.252335,359.49385,480.9088)"/>
<path transform="matrix(.7188473,0,0,.7188473,.35942365,.35942365)" d="M521 641H561V681H521Z" fill="#dae8fc"/>
<path transform="matrix(.7188473,0,0,.7188473,.35942365,.35942365)" stroke-width="1" stroke-linecap="butt" stroke-miterlimit="4" stroke-linejoin="miter" fill="none" stroke="#000000" d="M521 641H561V681H521Z"/>
<use data-text="1" xlink:href="#font_3_20" transform="matrix(17.252335,0,0,-17.252335,379.29304,480.9088)"/>
<use data-text="2" xlink:href="#font_3_21" transform="matrix(17.252335,0,0,-17.252335,388.8853,480.9088)"/>
<path transform="matrix(.7188473,0,0,.7188473,.35942365,.35942365)" d="M561 641H601V681H561Z" fill="#dae8fc"/>
<path transform="matrix(.7188473,0,0,.7188473,.35942365,.35942365)" stroke-width="1" stroke-linecap="butt" stroke-miterlimit="4" stroke-linejoin="miter" fill="none" stroke="#000000" d="M561 641H601V681H561Z"/>
<use data-text="1" xlink:href="#font_3_20" transform="matrix(17.252335,0,0,-17.252335,408.0469,480.9088)"/>
<use data-text="3" xlink:href="#font_3_22" transform="matrix(17.252335,0,0,-17.252335,417.63923,480.9088)"/>
<path transform="matrix(.7188473,0,0,.7188473,.35942365,.35942365)" d="M601 641H641V681H601Z" fill="#dae8fc"/>
<path transform="matrix(.7188473,0,0,.7188473,.35942365,.35942365)" stroke-width="1" stroke-linecap="butt" stroke-miterlimit="4" stroke-linejoin="miter" fill="none" stroke="#000000" d="M601 641H641V681H601Z"/>
<use data-text="1" xlink:href="#font_3_20" transform="matrix(17.252335,0,0,-17.252335,436.8008,480.9088)"/>
<use data-text="4" xlink:href="#font_3_23" transform="matrix(17.252335,0,0,-17.252335,446.3931,480.9088)"/>
<path transform="matrix(.7188473,0,0,.7188473,.35942365,.35942365)" d="M641 641H681V681H641Z" fill="#dae8fc"/>
<path transform="matrix(.7188473,0,0,.7188473,.35942365,.35942365)" stroke-width="1" stroke-linecap="butt" stroke-miterlimit="4" stroke-linejoin="miter" fill="none" stroke="#000000" d="M641 641H681V681H641Z"/>
<use data-text="1" xlink:href="#font_3_20" transform="matrix(17.252335,0,0,-17.252335,465.5547,480.9088)"/>
<use data-text="5" xlink:href="#font_3_24" transform="matrix(17.252335,0,0,-17.252335,475.147,480.9088)"/>
<path transform="matrix(.7188473,0,0,.7188473,.35942365,.35942365)" d="M681 641H721V681H681Z" fill="#dae8fc"/>
<path transform="matrix(.7188473,0,0,.7188473,.35942365,.35942365)" stroke-width="1" stroke-linecap="butt" stroke-miterlimit="4" stroke-linejoin="miter" fill="none" stroke="#000000" d="M681 641H721V681H681Z"/>
<use data-text="1" xlink:href="#font_3_20" transform="matrix(17.252335,0,0,-17.252335,494.3086,480.9088)"/>
<use data-text="6" xlink:href="#font_3_25" transform="matrix(17.252335,0,0,-17.252335,503.90089,480.9088)"/>
<path transform="matrix(.7188473,0,0,.7188473,.35942365,.35942365)" d="M721 641H761V681H721Z" fill="#dae8fc"/>
<path transform="matrix(.7188473,0,0,.7188473,.35942365,.35942365)" stroke-width="1" stroke-linecap="butt" stroke-miterlimit="4" stroke-linejoin="miter" fill="none" stroke="#000000" d="M721 641H761V681H721Z"/>
<use data-text="1" xlink:href="#font_3_20" transform="matrix(17.252335,0,0,-17.252335,523.0625,480.9088)"/>
<use data-text="7" xlink:href="#font_3_26" transform="matrix(17.252335,0,0,-17.252335,532.6548,480.9088)"/>
<path transform="matrix(.7188473,0,0,.7188473,.35942365,.35942365)" d="M761 641H801V681H761Z" fill="#dae8fc"/>
<path transform="matrix(.7188473,0,0,.7188473,.35942365,.35942365)" stroke-width="1" stroke-linecap="butt" stroke-miterlimit="4" stroke-linejoin="miter" fill="none" stroke="#000000" d="M761 641H801V681H761Z"/>
<use data-text="1" xlink:href="#font_3_20" transform="matrix(17.252335,0,0,-17.252335,551.81637,480.9088)"/>
<use data-text="8" xlink:href="#font_3_27" transform="matrix(17.252335,0,0,-17.252335,561.4087,480.9088)"/>
<path transform="matrix(.7188473,0,0,.7188473,.35942365,.35942365)" d="M801 641H841V681H801Z" fill="#dae8fc"/>
<path transform="matrix(.7188473,0,0,.7188473,.35942365,.35942365)" stroke-width="1" stroke-linecap="butt" stroke-miterlimit="4" stroke-linejoin="miter" fill="none" stroke="#000000" d="M801 641H841V681H801Z"/>
<use data-text="1" xlink:href="#font_3_20" transform="matrix(17.252335,0,0,-17.252335,580.57028,480.9088)"/>
<use data-text="9" xlink:href="#font_3_28" transform="matrix(17.252335,0,0,-17.252335,590.16256,480.9088)"/>
<path transform="matrix(.7188473,0,0,.7188473,.35942365,.35942365)" d="M41 641H81V681H41Z" fill="#ffe6cc"/>
<path transform="matrix(.7188473,0,0,.7188473,.35942365,.35942365)" stroke-width="1" stroke-linecap="butt" stroke-miterlimit="4" stroke-linejoin="miter" fill="none" stroke="#000000" d="M41 641H81V681H41Z"/>
<use data-text="0" xlink:href="#font_3_19" transform="matrix(17.252335,0,0,-17.252335,39.042394,480.9088)"/>
<path transform="matrix(.7188473,0,0,.7188473,.35942365,.35942365)" d="M81 641H121V681H81Z" fill="#ffe6cc"/>
<path transform="matrix(.7188473,0,0,.7188473,.35942365,.35942365)" stroke-width="1" stroke-linecap="butt" stroke-miterlimit="4" stroke-linejoin="miter" fill="none" stroke="#000000" d="M81 641H121V681H81Z"/>
<use data-text="1" xlink:href="#font_3_20" transform="matrix(17.252335,0,0,-17.252335,67.79628,480.9088)"/>
<path transform="matrix(.7188473,0,0,.7188473,.35942365,.35942365)" d="M121 641H161V681H121Z" fill="#ffe6cc"/>
<path transform="matrix(.7188473,0,0,.7188473,.35942365,.35942365)" stroke-width="1" stroke-linecap="butt" stroke-miterlimit="4" stroke-linejoin="miter" fill="none" stroke="#000000" d="M121 641H161V681H121Z"/>
<use data-text="2" xlink:href="#font_3_21" transform="matrix(17.252335,0,0,-17.252335,96.55017,480.9088)"/>
<path transform="matrix(.7188473,0,0,.7188473,.35942365,.35942365)" d="M161 641H201V681H161Z" fill="#ffe6cc"/>
<path transform="matrix(.7188473,0,0,.7188473,.35942365,.35942365)" stroke-width="1" stroke-linecap="butt" stroke-miterlimit="4" stroke-linejoin="miter" fill="none" stroke="#000000" d="M161 641H201V681H161Z"/>
<use data-text="3" xlink:href="#font_3_22" transform="matrix(17.252335,0,0,-17.252335,125.30406,480.9088)"/>
<path transform="matrix(.7188473,0,0,.7188473,.35942365,.35942365)" d="M201 641H241V681H201Z" fill="#ffe6cc"/>
<path transform="matrix(.7188473,0,0,.7188473,.35942365,.35942365)" stroke-width="1" stroke-linecap="butt" stroke-miterlimit="4" stroke-linejoin="miter" fill="none" stroke="#000000" d="M201 641H241V681H201Z"/>
<use data-text="4" xlink:href="#font_3_23" transform="matrix(17.252335,0,0,-17.252335,154.05796,480.9088)"/>
<path transform="matrix(.7188473,0,0,.7188473,.35942365,.35942365)" d="M241 641H281V681H241Z" fill="#ffe6cc"/>
<path transform="matrix(.7188473,0,0,.7188473,.35942365,.35942365)" stroke-width="1" stroke-linecap="butt" stroke-miterlimit="4" stroke-linejoin="miter" fill="none" stroke="#000000" d="M241 641H281V681H241Z"/>
<use data-text="5" xlink:href="#font_3_24" transform="matrix(17.252335,0,0,-17.252335,182.81185,480.9088)"/>
<path transform="matrix(.7188473,0,0,.7188473,.35942365,.35942365)" d="M281 641H321V681H281Z" fill="#ffe6cc"/>
<path transform="matrix(.7188473,0,0,.7188473,.35942365,.35942365)" stroke-width="1" stroke-linecap="butt" stroke-miterlimit="4" stroke-linejoin="miter" fill="none" stroke="#000000" d="M281 641H321V681H281Z"/>
<use data-text="6" xlink:href="#font_3_25" transform="matrix(17.252335,0,0,-17.252335,211.56574,480.9088)"/>
<path transform="matrix(.7188473,0,0,.7188473,.35942365,.35942365)" d="M321 641H361V681H321Z" fill="#ffe6cc"/>
<path transform="matrix(.7188473,0,0,.7188473,.35942365,.35942365)" stroke-width="1" stroke-linecap="butt" stroke-miterlimit="4" stroke-linejoin="miter" fill="none" stroke="#000000" d="M321 641H361V681H321Z"/>
<use data-text="7" xlink:href="#font_3_26" transform="matrix(17.252335,0,0,-17.252335,240.31963,480.9088)"/>
<path transform="matrix(.7188473,0,0,.7188473,.35942365,.35942365)" d="M361 641H401V681H361Z" fill="#ffe6cc"/>
<path transform="matrix(.7188473,0,0,.7188473,.35942365,.35942365)" stroke-width="1" stroke-linecap="butt" stroke-miterlimit="4" stroke-linejoin="miter" fill="none" stroke="#000000" d="M361 641H401V681H361Z"/>
<use data-text="8" xlink:href="#font_3_27" transform="matrix(17.252335,0,0,-17.252335,269.07353,480.9088)"/>
<path transform="matrix(.7188473,0,0,.7188473,.35942365,.35942365)" d="M401 641H441V681H401Z" fill="#ffe6cc"/>
<path transform="matrix(.7188473,0,0,.7188473,.35942365,.35942365)" stroke-width="1" stroke-linecap="butt" stroke-miterlimit="4" stroke-linejoin="miter" fill="none" stroke="#000000" d="M401 641H441V681H401Z"/>
<use data-text="9" xlink:href="#font_3_28" transform="matrix(17.252335,0,0,-17.252335,297.82743,480.9088)"/>
<path transform="matrix(.7188473,0,0,.7188473,.35942365,.35942365)" d="M1241 641H1281V681H1241Z" fill="#b0b0b0"/>
<path transform="matrix(.7188473,0,0,.7188473,.35942365,.35942365)" stroke-width="1" stroke-linecap="butt" stroke-miterlimit="4" stroke-linejoin="miter" fill="none" stroke="#000000" d="M1241 641H1281V681H1241Z"/>
<path transform="matrix(.7188473,0,0,.7188473,0,0)" stroke-width="2" stroke-linecap="butt" stroke-miterlimit="10" stroke-linejoin="miter" fill="none" stroke="#000000" d="M1 601C1 601 427.66664 601 1281 601"/>
<path transform="matrix(.7188473,0,0,.7188473,.35942365,.35942365)" d="M1 641H41V681H1Z" fill="#b0b0b0"/>
<path transform="matrix(.7188473,0,0,.7188473,.35942365,.35942365)" stroke-width="1" stroke-linecap="butt" stroke-miterlimit="4" stroke-linejoin="miter" fill="none" stroke="#000000" d="M1 641H41V681H1Z"/>
<path transform="matrix(.7188473,0,0,.7188473,.35942365,.35942365)" stroke-width="1" stroke-linecap="butt" stroke-miterlimit="10" stroke-linejoin="miter" fill="none" stroke="#000000" d="M81 161H76C72.666667 161 71 164.33333 71 171V231C71 237.66667 69.333339 241 66 241H63.5C61.833333 241 62.666669 241 66 241H68.5C70.166667 241 71 244.33333 71 251V311C71 317.66667 72.666667 321 76 321H81"/>
<path transform="matrix(-.000000000000000044016704,.7188473,.7188473,.000000000000000044016704,151.31735,-150.5985)" stroke-width="1" stroke-linecap="butt" stroke-miterlimit="10" stroke-linejoin="miter" fill="none" stroke="#000000" d="M331-89H326C322.66667-89 321-85.666667 321-79V101C321 107.666667 319.33335 111 316 111H313.5C311.83335 111 312.66667 111 316 111H318.5C320.16667 111 321 114.333339 321 121V301C321 307.66667 322.66667 311 326 311H331"/>
<path transform="matrix(-.5083018,.5083018,.5083018,.5083018,626.4134,-258.96064)" stroke-width="1" stroke-linecap="butt" stroke-miterlimit="10" stroke-linejoin="miter" fill="none" stroke="#000000" d="M591 121H586C582.6667 121 581 124.333339 581 131V161C581 167.66667 579.3333 171 576 171H573.5C571.8333 171 572.6667 171 576 171H578.5C580.1667 171 581 174.33333 581 181V211C581 217.66667 582.6667 221 586 221H591"/>
<use data-text="2" xlink:href="#font_4_21" transform="matrix(21.565419,0,0,-21.565419,23.83428,181.1495)"/>
<use data-text="5" xlink:href="#font_4_24" transform="matrix(21.565419,0,0,-21.565419,225.11151,58.945478)"/>
<use data-text="3" xlink:href="#font_4_22" transform="matrix(21.565419,0,0,-21.565419,433.57725,109.264789)"/>
</g>
</svg>
