<svg xmlns="http://www.w3.org/2000/svg" xmlns:xlink="http://www.w3.org/1999/xlink" xmlns:inkscape="http://www.inkscape.org/namespaces/inkscape" version="1.1" width="691.92" height="291.12" viewBox="0 0 691.92 291.12">
<defs>
<clipPath id="clip_1">
<path transform="matrix(.24,0,0,.24,0,0)" d="M0 0H2883.3333V1209.6227H0Z" clip-rule="evenodd"/>
</clipPath>
<clipPath id="clip_2">
<path transform="matrix(.24,0,0,.24,0,0)" d="M0 0H2883.3333V1206.6286H0Z" clip-rule="evenodd"/>
</clipPath>
<path id="font_3_76" d="M.06640625 .6142578V.7158203H.15429688V.6142578H.06640625M.06640625 0V.5185547H.15429688V0H.06640625Z"/>
<path id="font_3_71" d="M.40234376 0V.06542969C.36946617 .0139973959 .3211263-.01171875 .25732423-.01171875 .21598308-.01171875 .17797852-.00032552085 .14331055 .022460938 .10864258 .045247396 .08178711 .077067058 .06274414 .11791992 .043701173 .15877278 .034179689 .20572917 .034179689 .25878907 .034179689 .31054688 .04280599 .35750328 .060058595 .3996582 .077311199 .44181315 .1031901 .4741211 .13769531 .49658204 .17220052 .51904299 .21077474 .53027346 .25341798 .53027346 .28466798 .53027346 .3125 .52368167 .33691407 .51049807 .36132813 .49731446 .3811849 .48014323 .39648438 .45898438V.7158203H.48388673V0H.40234376M.12451172 .2590332C.12451172 .1928711 .13850911 .14341228 .1665039 .11065674 .1944987 .07790121 .22753906 .061523439 .265625 .061523439 .30403648 .061523439 .33666993 .077168788 .3635254 .10845947 .39038087 .13976033 .4038086 .18752034 .4038086 .2517395 .4038086 .32243858 .39013673 .3743286 .36279298 .40740968 .33544923 .44049073 .3017578 .45703126 .26171876 .45703126 .22265625 .45703126 .19002278 .4411367 .16381836 .40934754 .13761394 .37756858 .12451172 .32746379 .12451172 .2590332Z"/>
<path id="font_3_70" d="M.40429688 .19042969 .49072267 .17919922C.48128257 .11947632 .45711265 .07272339 .4182129 .03894043 .37931315 .005167643 .33154298-.01171875 .27490235-.01171875 .2039388-.01171875 .14689128 .011474609 .103759769 .057861329 .060628255 .10424805 .0390625 .17073567 .0390625 .25732423 .0390625 .3133138 .048339845 .3623047 .06689453 .40429688 .08544922 .44628907 .11368815 .4777832 .15161133 .4987793 .1895345 .5197754 .23079427 .53027346 .27539063 .53027346 .33170573 .53027346 .37776695 .51598617 .41357423 .4874115 .4493815 .45884706 .47233073 .4182841 .48242188 .36572267L.39697267 .35253907C.38883464 .38720704 .37443034 .4132894 .35375978 .43078614 .3330892 .44828288 .30810548 .45703126 .2788086 .45703126 .23453777 .45703126 .1985677 .4412384 .17089844 .4096527 .14322917 .37807719 .12939453 .32811485 .12939453 .25976563 .12939453 .19043987 .14274089 .1400655 .1694336 .10864258 .1961263 .07722982 .23095703 .061523439 .27392579 .061523439 .308431 .061523439 .3372396 .07206217 .36035157 .09313965 .38346354 .114217128 .39811198 .14664714 .40429688 .19042969Z"/>
<path id="font_4_6" d="M.15136719 .3076172C.18326824 .38671876 .20735677 .44954429 .22363281 .49609376 .20898438 .49576823 .18961589 .49576823 .16552735 .49609376 .13590496 .49674479 .11653646 .4970703 .107421878 .4970703 .08919271 .4970703 .07397461 .5026245 .061767579 .5137329 .049560548 .5248515 .04345703 .5392354 .04345703 .55688479 .04345703 .5928345 .06347656 .61293539 .103515628 .6171875 .13899739 .61816409 .1920573 .6197917 .2626953 .6220703L.29492188 .71318057C.31315104 .75400289 .332194 .77441409 .35205079 .77441409 .39501954 .77441409 .4165039 .7547557 .4165039 .71543887 .4165039 .6974233 .40901695 .6663005 .39404298 .6220703H.5683594C.57682296 .6551412 .5882161 .69410708 .60253909 .7389679 .61295577 .77171328 .6329753 .78808596 .66259768 .78808596 .6795247 .78808596 .6945801 .7825165 .7077637 .77137759 .72094729 .76024886 .72753909 .74617007 .72753909 .72914126 .72753909 .7193146 .71809896 .68394979 .69921877 .6230469 .71940109 .62402346 .7340495 .6245117 .74316409 .6245117 .8014323 .6245117 .8305664 .6040802 .8305664 .56321719 .8305664 .5330658 .81624349 .51344808 .78759768 .504364 .7732747 .49982707 .7467448 .4975586 .7080078 .4975586 .70377609 .4975586 .69677737 .49772135 .6870117 .49804688H.6660156C.65201827 .4562683 .63102218 .39279176 .60302737 .3076172H.671875C.73860678 .3076172 .77197268 .28579713 .77197268 .24215698 .77197268 .22508748 .7659505 .21146648 .75390627 .20129395 .741862 .19112142 .72721359 .18603516 .70996096 .18603516 .70214846 .18603516 .67838546 .18587239 .6386719 .18554688 .61002609 .18522136 .5864258 .18522136 .5678711 .18554688 .55908206 .15729778 .54622396 .11134847 .5292969 .047698976 .5201823 .0087382 .49495445-.0107421879 .45361329-.0107421879 .41748048-.0107421879 .39941407 .0063476564 .39941407 .040527345 .39941407 .056477865 .41210938 .10514323 .4375 .18652344H.23779297C.20979817 .119628909 .18929036 .06643677 .17626953 .026947022 .16780599 .0011698405 .14876302-.01171875 .119140628-.01171875 .10253906-.01171875 .0875651-.006174723 .07421875 .00491333 .060872396 .016011557 .05419922 .030044556 .05419922 .04701233 .05419922 .051589967 .07096354 .098093669 .10449219 .18652344H.048339845C.030110678 .18652344 .014973958 .19404094 .0029296876 .20907593-.0078125 .22247315-.013183594 .23718262-.013183594 .25320436-.013183594 .2862142 .0050455729 .3043518 .041503908 .3076172 .045084638 .30794273 .08170573 .30794273 .15136719 .3076172M.3569336 .4970703 .28564454 .3076172H.47314454L.5336914 .4970703H.3569336Z"/>
<path id="font_4_83" d="M.27539063-.029296875C.24739583-.029296875 .2179362-.026041666 .18701172-.01953125L.18652344-.21875C.18652344-.2376302 .18017578-.25325523 .16748047-.265625 .15478516-.27799479 .13867188-.2841797 .119140628-.2841797 .099609378-.2841797 .083496097-.27798463 .07080078-.26559449 .05810547-.2532145 .051757814-.23757427 .051757814-.2186737 .051757814-.20335388 .052083333-.14257305 .052734376-.036331178 .053385419 .04254659 .053385419 .106913249 .052734376 .1567688 .051757814 .22717285 .049479169 .28779603 .045898439 .3386383 .041015626 .40870667 .03857422 .44080607 .03857422 .43493653 .03857422 .46198527 .044596357 .48512269 .056640626 .50434878 .07063802 .52618917 .08951823 .5371094 .11328125 .5371094 .13151042 .5371094 .14680989 .5309245 .15917969 .5185547 .17154949 .5061849 .17773438 .4913737 .17773438 .4741211L.1772461 .46923829C.19905599 .48160807 .22094727 .49080406 .24291992 .49682618 .26489259 .5028483 .28694663 .5058594 .30908204 .5058594 .3839518 .5058594 .4386393 .47406516 .47314454 .41047669 .4988607 .36253358 .51171877 .30040489 .51171877 .22409058 .51171877 .15266927 .4913737 .09348043 .4506836 .046524049 .4070638-.004023234 .3486328-.029296875 .27539063-.029296875M.30908204 .375C.28857423 .375 .26774089 .37019859 .24658203 .3605957 .22542317 .35099284 .20410156 .33658854 .18261719 .3173828 .18652344 .25032554 .18847656 .18310547 .18847656 .115722659 .21744792 .106282558 .24641927 .1015625 .27539063 .1015625 .30891929 .1015625 .3346354 .11344401 .35253907 .13720703 .3688151 .1586914 .37695313 .18766277 .37695313 .2241211 .37695313 .2680664 .375 .2985026 .37109376 .3154297 .36165367 .35514323 .34098307 .375 .30908204 .375Z"/>
<path id="font_4_85" d="M.45898438 .3513794C.4560547 .30137126 .433431 .2763672 .39111329 .2763672 .35009767 .2763672 .32958985 .29761759 .32958985 .3401184L.32714845 .38964845C.25390626 .3779297 .20149739 .34033204 .16992188 .27685548L.17041016 .03125C.17041016 .0126953129 .1640625-.0026855469 .15136719-.014892578 .13867188-.02709961 .122558597-.033203126 .103027347-.033203126 .082845058-.033203126 .067220058-.026687623 .056152345-.013656616 .045735677-.0019276937 .040527345 .013061523 .040527345 .031311037V.35142518C.040527345 .3615265 .040852865 .376592 .041503908 .3966217 .04215495 .4166616 .04248047 .43173219 .04248047 .4418335 .04248047 .460083 .04793294 .47531639 .05883789 .48753358 .069742839 .49975077 .08528646 .5058594 .10546875 .5058594 .14160156 .5058594 .16308594 .4873047 .16992188 .4501953 .22753906 .49316407 .2915039 .51464846 .3618164 .51464846 .42692057 .51464846 .45947267 .47117616 .45947267 .38423158 .45947267 .3675588 .4593099 .35660807 .45898438 .3513794Z"/>
<path id="font_4_68" d="M.4711914-.02734375C.45621745-.02734375 .43245445-.012858073 .39990235 .016113282 .36995445 .0017903646 .34358726-.009033203 .32080079-.016357422 .2980143-.02368164 .27864585-.02734375 .2626953-.02734375 .1842448-.02734375 .1254069-.006327311 .08618164 .035705568 .04695638 .07773844 .02734375 .14061992 .02734375 .22434998 .02734375 .3028717 .056315107 .3700714 .11425781 .4259491 .17220052 .48182679 .24153646 .5097656 .32226563 .5097656 .3531901 .5097656 .3889974 .5010579 .4296875 .48364259 .47884117 .46266685 .50341799 .43830873 .50341799 .41056825 .50341799 .3989512 .49967448 .38878886 .4921875 .38008119 .48893229 .3671824 .48640953 .3509725 .48461915 .33145143 .48282878 .31194053 .4819336 .28911845 .4819336 .26298524 .4819336 .20137024 .48632813 .15701294 .4951172 .12991333 .49609376 .12701416 .50358077 .11023966 .5175781 .079589847 .53027346 .051849367 .5366211 .036046346 .5366211 .032180787 .5366211 .01508077 .5300293 .00088500979 .5168457-.010406494 .5036621-.021697998 .488444-.02734375 .4711914-.02734375M.35009767 .3022461C.35009767 .31266276 .35083009 .32462565 .35229493 .33813478 .35375978 .3516439 .35595704 .36669923 .35888673 .38330079 .3523763 .386556 .3465983 .38891603 .34155274 .39038087 .33650718 .3918457 .332194 .39257813 .32861329 .39257813 .28434245 .39257813 .24560547 .37524415 .21240235 .34057618 .17919922 .3059082 .16259766 .26578776 .16259766 .22021485 .16259766 .17659505 .17041016 .14379883 .18603516 .12182617 .20166016 .099853519 .22509766 .08886719 .25634767 .08886719 .27652995 .08886719 .2956543 .09220377 .3137207 .09887695 .3317871 .10555013 .34879557 .11539713 .3647461 .12841797 .35498048 .20589192 .35009767 .26383464 .35009767 .3022461Z"/>
<path id="font_4_74" d="M.5024414 .29101563C.48876954 .21451824 .4806315 .13378906 .47802735 .048828126 .47477214-.056315107 .457194-.13264974 .42529298-.18017578 .38264976-.24365235 .3071289-.27539063 .19873047-.27539063 .07210287-.27539063 .0087890629-.25023399 .0087890629-.19992066 .0087890629-.18195598 .014485677-.16741944 .025878907-.15631104 .037272138-.14520264 .052246095-.13964844 .07080078-.13964844 .08544922-.13964844 .10644531-.14241536 .13378906-.14794922 .16113281-.15348308 .18538411-.15625 .20654297-.15625 .25504557-.15625 .29085288-.1415507 .31396485-.1121521 .33610026-.08339437 .3491211-.037546796 .35302735 .025390625 .33642579 .008463542 .31770835-.004231771 .296875-.0126953129 .27604167-.021158854 .25325523-.025390625 .22851563-.025390625 .16373699-.025390625 .111083988-.004292806 .07055664 .037902833 .030029297 .08009847 .009765625 .13410442 .009765625 .19992066 .009765625 .2885437 .036783857 .3602244 .09082031 .41496278 .14680989 .47165428 .22249349 .5 .3178711 .5 .34847007 .5 .37483726 .4962565 .39697267 .48876954 .41910807 .48128257 .43701173 .4698893 .4506836 .45458985 .49202476 .44970704 .5126953 .42529298 .5126953 .38134767 .5126953 .35953776 .50927737 .3294271 .5024414 .29101563M.31298829 .38867188C.25797526 .38867188 .21516927 .37060548 .18457031 .33447267 .15722656 .30159507 .14355469 .2589518 .14355469 .20654297 .14355469 .16780599 .1508789 .13867188 .16552735 .119140628 .18017578 .099609378 .20214844 .08984375 .23144531 .08984375 .25813804 .08984375 .2849935 .10530599 .31201173 .13623047 .33740235 .16552735 .35188804 .1944987 .35546876 .22314453 .36165367 .25439454 .3688151 .3030599 .37695313 .36914063 .3658854 .37565104 .35498048 .38053385 .34423829 .38378907 .3334961 .38704429 .32307945 .38867188 .31298829 .38867188Z"/>
<path id="font_4_80" d="M.17626953 .4321289C.22542317 .48909507 .27197267 .5175781 .31591798 .5175781 .3660482 .5175781 .40283204 .4983724 .42626954 .45996095 .4461263 .47753907 .46809898 .49072267 .4921875 .49951173 .51627609 .5083008 .5423177 .5126953 .5703125 .5126953 .63411459 .5126953 .6774089 .48098246 .7001953 .41755677 .7047526 .40455628 .7117513 .3604889 .7211914 .2853546 .73030599 .2326711 .7420247 .14485677 .75634768 .021911622 .7576497 .0033772786 .75130209-.011906941 .7373047-.02394104 .7233073-.03597514 .70686849-.041992189 .6879883-.041992189 .6505534-.041992189 .62858077-.02347819 .6220703 .013549805 .61621096 .04699707 .6101888 .09424845 .6040039 .15530396 .59749349 .22220867 .5921224 .2696279 .5878906 .29756166 .57910159 .35569764 .5678711 .38476563 .5541992 .38476563 .5467122 .38476563 .5296224 .3772939 .5029297 .36235047 .47623698 .347407 .45670573 .33457948 .44433595 .3238678 .44433595 .2868398 .44873048 .23357137 .45751954 .1640625 .46663413 .092926029 .4711914 .039657594 .4711914 .004257202 .4711914-.014256795 .46484376-.029683432 .45214845-.042022706 .43945313-.05437215 .42333985-.060546876 .4038086-.060546876 .38427735-.060546876 .36816407-.05436198 .35546876-.041992189 .34277345-.029622397 .33642579-.014160156 .33642579 .0043945314 .33642579 .041503908 .33243815 .09611002 .3244629 .16821289 .31648765 .24031575 .3125 .29492188 .3125 .33203126 .3125 .3528646 .31070964 .36946617 .3071289 .38183595 .2693685 .36005656 .23144531 .32380677 .19335938 .27308656 .19173177 .2708079 .18896485 .26739503 .1850586 .2628479 .18375652 .1971639 .18310547 .14562989 .18310547 .10824585 .18310547 .09914144 .18277996 .086868289 .1821289 .07142639 .18147786 .055984498 .18115235 .044525148 .18115235 .03704834 .18115235 .01949056 .17399089 .005671183 .15966797-.00440979 .14664714-.013839722 .13053386-.018554688 .111328128-.018554688 .08365885-.018554688 .064941409-.0065205895 .05517578 .017547608 .048339845 .033813478 .044921876 .05967204 .044921876 .09512329V.27659608C.044921876 .29286195 .044270833 .316686 .04296875 .34806825 .041666669 .37945048 .041015626 .40327455 .041015626 .4195404 .041015626 .44849143 .046223958 .4746755 .056640626 .49809266 .06933594 .527359 .087239589 .5419922 .11035156 .5419922 .12858074 .5419922 .14485677 .5349121 .15917969 .52075198 .17350261 .5065918 .18066406 .4910482 .18066406 .4741211 .18066406 .48095704 .17919922 .46695964 .17626953 .4321289Z"/>
<path id="font_4_3" d="M0 0Z"/>
<path id="font_4_70" d="M.27441407-.03125C.20279949-.03125 .14274089-.010869344 .09423828 .029891968 .04313151 .0729421 .017578125 .12968445 .017578125 .20011902 .017578125 .26500956 .040527345 .3320211 .08642578 .40115357 .13850911 .48007203 .19905599 .51953127 .2680664 .51953127 .30192057 .51953127 .34147135 .51039126 .38671876 .4921112 .44173179 .46957908 .46923829 .44362388 .46923829 .4142456 .46923829 .39824424 .46370445 .38404338 .45263673 .37164308 .44091798 .358256 .42578126 .3515625 .40722657 .3515625 .39322917 .3515625 .37638346 .35921226 .35668946 .37451173 .33699546 .3898112 .30745445 .39746095 .2680664 .39746095 .2430013 .39746095 .21582031 .3728434 .18652344 .3236084 .15852864 .27601115 .14453125 .2349294 .14453125 .20036316 .14453125 .16613262 .15690105 .13923645 .18164063 .11967468 .20507813 .10108948 .23600261 .091796878 .27441407 .091796878 .29622398 .091796878 .32291667 .100097659 .3544922 .11669922 .38606773 .13330078 .40608726 .14160156 .41455079 .14160156 .4321289 .14160156 .44718424 .13523357 .4597168 .12249756 .47224937 .10977173 .47851563 .09524536 .47851563 .07891846 .47851563 .053456624 .45084635 .027994791 .3955078 .002532959 .34602867-.019989014 .30566407-.03125 .27441407-.03125Z"/>
<path id="font_4_78" d="M.46044923-.020507813C.43473307-.020507813 .4152018-.0081380209 .40185548 .016601563 .38590495 .046223958 .36197917 .081217449 .33007813 .12158203 .28059898 .18440755 .25439454 .21777344 .25146485 .22167969 .22542317 .20247396 .2039388 .18782552 .18701172 .17773438 .18375652 .13248699 .1821289 .08919271 .1821289 .047851564 .1821289 .028971354 .17578125 .0133463549 .16308594 .0009765625 .15039063-.0113932299 .13427735-.017578125 .114746097-.017578125 .068847659-.017578125 .045898439 .0098012289 .045898439 .06455994 .045898439 .0903066 .047770185 .12884522 .051513673 .18017578 .05525716 .23150635 .057128908 .27004496 .057128908 .29579164 .057128908 .3430532 .057861329 .39707438 .059326173 .45785523 .060791017 .51863607 .061523439 .5723317 .061523439 .61894229 .061523439 .63296 .060791017 .64950057 .059326173 .66856387 .057861329 .68762716 .057128908 .70416769 .057128908 .7181854 .057128908 .737086 .06347656 .75264486 .076171878 .76486209 .08886719 .7770894 .10498047 .7832031 .12451172 .7832031 .14404297 .7832031 .16015625 .77708438 .17285156 .7648468 .18554688 .75261947 .19189453 .7370453 .19189453 .7181244 .19189453 .70377096 .19270833 .6868083 .19433594 .6672363 .19596355 .64766439 .19677735 .6307017 .19677735 .61634829 .19677735 .5775299 .19580078 .5315857 .19384766 .47851563 .19189453 .42773438 .19108074 .38248698 .19140625 .34277345 .23567708 .37695313 .3030599 .4391276 .3935547 .5292969 .4078776 .5436198 .42415367 .55078127 .4423828 .55078127 .46061198 .55078127 .47672526 .54410299 .49072267 .53074648 .50472006 .51738998 .51171877 .5019124 .51171877 .48431397 .51171877 .46932984 .5053711 .45483399 .49267579 .44082643 .4542643 .397817 .40852867 .3528544 .35546876 .30593873L.45703126 .17497254C.5061849 .10948181 .5307617 .065826419 .5307617 .044006349 .5307617 .026082358 .5236003 .010848999 .50927737-.0016937256 .49495445-.01423645 .47867839-.020507813 .46044923-.020507813Z"/>
<path id="font_4_11" d="M.32470704 .65966799C.3133138 .6486003 .29866538 .63427737 .28076173 .6166992 .24690755 .57958987 .22005208 .5260417 .20019531 .4560547 .18261719 .39388023 .17382813 .33284507 .17382813 .27294923 .17382813 .20491536 .18196614 .14225261 .19824219 .08496094 .21972656 .0087890629 .25325523-.044921876 .29882813-.076171878 .33984376-.10481771 .36035157-.13020833 .36035157-.15234375 .36035157-.1686198 .35392253-.18245442 .34106446-.19384766 .3282064-.20524089 .3136393-.2109375 .29736329-.2109375 .28401695-.2109375 .26904298-.20654297 .2524414-.1977539 .10725912-.11995443 .03466797 .040527345 .03466797 .2836914 .03466797 .370931 .052897138 .45914714 .08935547 .54833987 .13069661 .6489258 .18522136 .7220052 .2529297 .7675781 .26985679 .7786458 .2841797 .7841797 .29589845 .7841797 .3138021 .7841797 .32902018 .7777507 .34155274 .7648926 .3540853 .7520345 .36035157 .7373047 .36035157 .7207031 .36035157 .70442709 .34847007 .68408206 .32470704 .65966799Z"/>
<path id="font_4_20" d="M.4013672-.0009765625 .20751953 0C.1459961 0 .115234378 .01936849 .115234378 .05810547 .115234378 .10172526 .14957683 .123535159 .21826172 .123535159 .22477214 .123535159 .2319336 .1233724 .2397461 .123046878V.5566406C.21142578 .5371094 .19303386 .52734377 .18457031 .52734377 .16634114 .52734377 .150472 .5338542 .13696289 .546875 .12345377 .5598958 .11669922 .57503256 .11669922 .59228518 .11669922 .6101888 .12760417 .62858077 .14941406 .64746096L.20458985 .6875 .26416017 .73535159C.28857423 .7529297 .31217448 .76171877 .33496095 .76171877 .3642578 .76171877 .37890626 .7441406 .37890626 .7089844 .37890626 .6702474 .37727867 .61572268 .37402345 .54541018 .37076823 .47509767 .36914063 .37467448 .36914063 .24414063V.12597656H.4013672C.4202474 .12597656 .43611656 .11990865 .4489746 .10777283 .46183268 .095637 .46826173 .08054606 .46826173 .0625 .46826173 .044453939 .46183268 .029362997 .4489746 .017227173 .43611656 .005091349 .4202474-.0009765625 .4013672-.0009765625Z"/>
<path id="font_4_12" d="M.1430664-.1977539C.12646485-.20654297 .11149088-.2109375 .09814453-.2109375 .08154297-.2109375 .06689453-.20524089 .05419922-.19384766 .041503908-.18245442 .03515625-.1686198 .03515625-.15234375 .03515625-.1328125 .044921876-.115234378 .064453128-.099609378 .08138021-.087239589 .09814453-.07470703 .114746097-.06201172 .18603516 .007975261 .22167969 .119628909 .22167969 .27294923 .22167969 .33284507 .21289063 .39388023 .1953125 .4560547 .17545574 .5260417 .14860027 .57958987 .114746097 .6166992 .098470058 .6326497 .08219401 .6486003 .06591797 .6645508 .045084638 .6870117 .03466797 .7057292 .03466797 .7207031 .03466797 .7373047 .041015626 .7520345 .053710939 .7648926 .06640625 .7777507 .08154297 .7841797 .099121097 .7841797 .11116537 .7841797 .12548828 .7786458 .14208985 .7675781 .2101237 .7220052 .26464845 .6489258 .30566407 .54833987 .3421224 .45914714 .36035157 .370931 .36035157 .2836914 .36035157 .040527345 .2879232-.11995443 .1430664-.1977539Z"/>
<path id="font_4_32" d="M.44970704 .375H.2211914C.21370442 .375 .20263672 .37467448 .18798828 .37402345 .17333985 .3733724 .16227214 .37304688 .15478516 .37304688 .13655599 .37304688 .12158203 .37858073 .10986328 .38964845 .09814453 .40071617 .092285159 .41422526 .092285159 .43017579 .092285159 .4695638 .12451172 .4892578 .18896485 .4892578 .1928711 .4892578 .19873047 .48909507 .20654297 .48876954H.22167969L.44970704 .48828126C.4679362 .48828126 .48299156 .48291017 .49487306 .47216798 .5067546 .46142579 .5126953 .44791667 .5126953 .43164063 .5126953 .4153646 .5067546 .40185548 .49487306 .39111329 .48299156 .3803711 .4679362 .375 .44970704 .375M.4428711 .13671875C.42138673 .13671875 .38916017 .13704427 .3461914 .13769531 .30322267 .13834636 .2709961 .13867188 .24951172 .13867188 .2397461 .13867188 .22517903 .1381836 .20581055 .13720703 .18644206 .13623047 .171875 .13574219 .16210938 .13574219 .14355469 .13574219 .12817383 .14095052 .1159668 .15136719 .103759769 .16178386 .09765625 .17545574 .09765625 .19238281 .09765625 .22753906 .11767578 .24641927 .15771485 .24902344 .19189453 .25097657 .22249349 .25195313 .24951172 .25195313 .2709961 .25195313 .30322267 .2516276 .3461914 .25097657 .38916017 .25032554 .42138673 .25 .4428711 .25 .46110026 .25 .4761556 .2446289 .4880371 .23388672 .4999186 .22314453 .5058594 .20963542 .5058594 .19335938 .5058594 .17708333 .4999186 .16357422 .4880371 .15283203 .4761556 .14208985 .46110026 .13671875 .4428711 .13671875Z"/>
<path id="font_4_81" d="M.4345703-.03515625C.39453126-.03515625 .37223307-.015416463 .36767579 .02406311 .3631185 .057662965 .3585612 .091430667 .3540039 .12536621 .3491211 .16125489 .3466797 .19502259 .3466797 .22666931 .3466797 .2351532 .34724937 .24966939 .34838868 .2702179 .34952799 .29077659 .35009767 .30529786 .35009767 .31378175 .35009767 .3160604 .3504232 .32184855 .35107423 .33114625 .35172526 .3404541 .35205079 .34804283 .35205079 .35391236 .35205079 .3809916 .3450521 .39453126 .3310547 .39453126 .30110679 .39453126 .27172853 .3765615 .24291992 .34062196 .21411133 .3046926 .19156902 .25915528 .17529297 .20401001 .17464192 .19297283 .17317708 .17826335 .17089844 .15988159 .16894531 .14483643 .16796875 .13013204 .16796875 .11576843 .16796875 .106399539 .16902669 .0922699 .17114258 .07337952 .17325847 .05449931 .1743164 .04037984 .1743164 .031021119 .1743164 .011967977 .16788738-.0038248699 .1550293-.016357422 .14217122-.028889975 .12597656-.03515625 .10644531-.03515625 .08691406-.03515625 .07080078-.028925578 .05810547-.016464234 .045410158-.004002889 .0390625 .011703491 .0390625 .030654908 .0390625 .03996277 .038085939 .05400594 .036132814 .072784427 .034179689 .091562908 .033203126 .10560099 .033203126 .11489868 .033203126 .14680989 .03548177 .19118245 .040039064 .24801636 .044596357 .30485026 .046875 .3492228 .046875 .38113404 .046875 .39110313 .04630534 .40597535 .045166017 .42575074 .04402669 .44552613 .04345703 .4602305 .04345703 .4698639 .04345703 .4884796 .050048829 .5038503 .06323242 .51597598 .076416019 .52811178 .09261068 .5341797 .111816409 .5341797 .15445964 .5341797 .1772461 .50846359 .18017578 .45703126L.18066406 .45166017C.22819011 .49951173 .2783203 .5234375 .3310547 .5234375 .39257813 .5234375 .4350586 .49767558 .4584961 .44615174 .4741211 .41158549 .4819336 .3598989 .4819336 .29109193V.25636292C.48160807 .2413686 .4814453 .23077393 .4814453 .22457886 .4814453 .19913738 .48494468 .1663615 .49194337 .12625122 .49894206 .08615112 .5024414 .05354309 .5024414 .028427124 .5024414 .0101674399 .495931-.0049947106 .48291017-.017059327 .4698893-.029123942 .45377604-.03515625 .4345703-.03515625Z"/>
<path id="font_4_82" d="M.25097657-.029296875C.1907552-.029296875 .13899739-.008590698 .095703128 .032821657 .048177083 .07816061 .02327474 .13865662 .020996094 .21430969 .018717448 .28638206 .038411458 .35062663 .080078128 .40704347 .1295573 .47357179 .19840496 .50683596 .2866211 .50683596 .35172526 .50683596 .40348307 .4807485 .44189454 .4285736 .47639976 .38160707 .49365235 .32339479 .49365235 .25393678 .49365235 .17827352 .47347007 .11370341 .43310548 .06022644 .38785807 .00054423019 .32714845-.029296875 .25097657-.029296875M.28027345 .3779297C.24023438 .37825523 .20865886 .3599955 .18554688 .32315064 .16601563 .29216514 .15625 .2559662 .15625 .21455384 .15625 .17542012 .1673177 .14542134 .18945313 .124557498 .20703125 .107925418 .22753906 .099609378 .25097657 .099609378 .27929688 .099609378 .3038737 .1092275 .32470704 .12846375 .34847007 .15096538 .36116538 .18145752 .36279298 .21994019 .36702476 .324941 .33951823 .37760417 .28027345 .3779297Z"/>
<path id="font_4_71" d="M.40722657 .49121095C.41145835 .6020406 .4165039 .6785736 .42236329 .72080996 .42789714 .7591502 .449056 .7783203 .48583985 .7783203 .5050456 .7783203 .5205078 .7720744 .53222659 .7595825 .5439453 .74709066 .5498047 .73180648 .5498047 .71372988 .5498047 .6660614 .5461426 .59505209 .53881838 .5007019 .53149417 .4063619 .52783206 .33535768 .52783206 .2876892 .52783206 .17132569 .5315755 .093419399 .5390625 .053970338 .54003909 .04871114 .54052737 .043945314 .54052737 .03967285 .54052737 .0215861 .5340169 .006708781 .5209961-.0049591066 .5079753-.016626994 .49283854-.022460938 .47558595-.022460938 .4514974-.022460938 .43359376-.01171875 .421875 .009765625 .3997396-.0035807293 .37679038-.012288411 .35302735-.016357422 .3292643-.020426432 .3046875-.022460938 .27929688-.022460938 .2063802-.022460938 .14583333 .00083414718 .09765625 .047424318 .048502607 .09499105 .023925782 .15559387 .023925782 .22923279 .023925782 .31687928 .048665365 .3876597 .09814453 .4415741 .1476237 .49549867 .21223958 .52246096 .2919922 .52246096 .31640626 .52246096 .33821617 .51985678 .35742188 .51464846 .3766276 .5094401 .39322917 .5016276 .40722657 .49121095M.39746095 .33740235C.38671876 .35791017 .37272135 .37320964 .35546876 .38330079 .33821617 .39339195 .31770835 .3984375 .2939453 .3984375 .24576824 .3984375 .20963542 .38452149 .18554688 .35668946 .16145833 .32885743 .14941406 .28710938 .14941406 .23144531 .14941406 .19628906 .16243489 .16617839 .18847656 .14111328 .21451824 .11604818 .24479167 .103515628 .27929688 .103515628 .30436198 .103515628 .32340495 .10644531 .33642579 .11230469 .34521485 .11621094 .3601888 .12662761 .38134767 .14355469 .3868815 .14811199 .3922526 .15315755 .39746095 .1586914 .3968099 .1743164 .3968099 .23388672 .39746095 .33740235Z"/>
<path id="font_4_76" d="M.16113281 .58691409C.14029949 .58691409 .12223307 .5939128 .106933597 .60791018 .09163412 .62190756 .083984378 .6389974 .083984378 .6591797 .083984378 .679362 .09163412 .69645187 .106933597 .7104492 .12223307 .7244466 .14029949 .7314453 .16113281 .7314453 .18196614 .7314453 .19995117 .7244466 .21508789 .7104492 .23022461 .69645187 .23779297 .679362 .23779297 .6591797 .23779297 .6389974 .23022461 .62190756 .21508789 .60791018 .19995117 .5939128 .18196614 .58691409 .16113281 .58691409M.20263672 .2290039C.20263672 .21044922 .20320638 .18066406 .2043457 .13964844 .20548503 .09863281 .20605469 .068847659 .20605469 .05029297 .20605469 .03141276 .19970703 .01586914 .18701172 .0036621094 .1743164-.008544922 .15820313-.0146484379 .13867188-.0146484379 .119140628-.0146484379 .103027347-.008544922 .09033203 .0036621094 .07763672 .01586914 .07128906 .03141276 .07128906 .05029297 .07128906 .068847659 .0707194 .09863281 .06958008 .13964844 .06844076 .18066406 .067871097 .21044922 .067871097 .2290039 .067871097 .25797526 .069498699 .29427085 .072753909 .33789063 .07600912 .3815104 .07763672 .417806 .07763672 .44677735 .07763672 .46565757 .083984378 .48120118 .09667969 .4934082 .109375 .50561526 .12548828 .51171877 .14501953 .51171877 .16455078 .51171877 .18066406 .50561526 .19335938 .4934082 .20605469 .48120118 .21240235 .46565757 .21240235 .44677735 .21240235 .417806 .21077474 .3815104 .20751953 .33789063 .20426433 .29427085 .20263672 .25797526 .20263672 .2290039Z"/>
<path id="font_5_6" d="M.26953126 .28222657H.5136719L.56884768 .484375H.3305664L.26953126 .28222657M.17822266 .28222657 .23779297 .484375H.107421878C.0764974 .484375 .061035158 .50065109 .061035158 .5332031 .061035158 .5579427 .085123699 .5703125 .13330078 .5703125H.26220704C.27067057 .60807296 .28352867 .6595052 .30078126 .7246094 .31022135 .7545573 .3292643 .76953127 .35791017 .76953127 .36865235 .76953127 .3775228 .7652181 .38452149 .7565918 .39152018 .7479655 .39501954 .73844406 .39501954 .72802737 .39501954 .71500656 .39078776 .69352218 .38232423 .6635742 .3680013 .6118164 .35970054 .5807292 .35742188 .5703125H.5942383C.60530599 .6097005 .6204427 .66227218 .63964846 .72802737 .648112 .7556966 .6640625 .76953127 .6875 .76953127 .71484377 .76953127 .7285156 .75683596 .7285156 .7314453 .7285156 .7093099 .71500656 .65559896 .6879883 .5703125H.7832031C.81640627 .5703125 .8330078 .55810549 .8330078 .5336914 .8330078 .49951173 .8146159 .48242188 .77783206 .48242188 .7729492 .48242188 .76538088 .4827474 .75512698 .48339845 .74487307 .48404948 .7373047 .484375 .7324219 .484375H.6611328L.609375 .28222657H.7089844C.7327474 .28222657 .7495117 .28042604 .75927737 .27682496 .7762044 .27028404 .78466799 .257192 .78466799 .23754883 .78466799 .20743816 .7705078 .19238281 .7421875 .19238281H.58496096L.5410156 .033691408C.53222659 .0021158856 .5139974-.013671875 .48632813-.013671875 .4596354-.013671875 .44628907-.00081380209 .44628907 .024902344 .44628907 .044108076 .45166017 .07210287 .46240235 .10888672 .4773763 .15999349 .48535157 .18782552 .48632813 .19238281H.2421875C.23242188 .15420532 .21533203 .09807841 .19091797 .024002076 .18147786 .0008392334 .16552735-.0107421879 .1430664-.0107421879 .11702474-.0107421879 .104003909 .002146403 .104003909 .027923584 .104003909 .040649415 .1077474 .059087118 .115234378 .083236698 .12662761 .119776409 .13802083 .15615845 .14941406 .19238281H.056152345C.029134116 .19238281 .015625 .20858257 .015625 .24098206 .015625 .25374858 .021158854 .26405845 .032226564 .27191163 .041666669 .27878825 .053059896 .28222657 .06640625 .28222657H.17822266Z"/>
<path id="font_5_83" d="M.27539063-.017578125C.24283855-.017578125 .20703125-.012369792 .16796875-.001953125L.16699219-.23535156C.16699219-.24967449 .16251628-.26139323 .15356446-.2705078 .14461263-.2796224 .13313802-.2841797 .119140628-.2841797 .10514323-.2841797 .09366862-.2796173 .0847168-.27049256 .07576498-.2613678 .07128906-.24963379 .07128906-.23529053L.072753909-.039749147V.15530396C.071777347 .22668457 .06933594 .29170228 .06542969 .35035707L.05810547 .44960023C.05810547 .4727427 .06233724 .4922994 .07080078 .50827029 .080566409 .52749636 .09472656 .5371094 .11328125 .5371094 .12597656 .5371094 .13663738 .5325673 .14526367 .5234833 .15388997 .51439926 .15820313 .5033162 .15820313 .49023438 .15820313 .4873047 .15771485 .4819336 .15673828 .4741211 .15511067 .46402995 .15397136 .4547526 .15332031 .44628907 .18131511 .46549479 .20833333 .47989909 .234375 .48950196 .26041667 .49910484 .285319 .50390627 .30908204 .50390627 .3758138 .50390627 .42464195 .47425843 .4555664 .41496278 .47998048 .3680369 .4921875 .30596415 .4921875 .2287445 .4921875 .15837097 .47330729 .100372318 .43554688 .054748537 .3955078 .0065307619 .3421224-.017578125 .27539063-.017578125M.30908204 .40625C.27913413 .40625 .25211589 .3995768 .22802735 .38623048 .21077474 .37679038 .18896485 .35953776 .16259766 .33447267 .16682942 .26057945 .16894531 .1829427 .16894531 .1015625 .20442708 .087890628 .23990886 .08105469 .27539063 .08105469 .31608073 .08105469 .34716798 .096191409 .36865235 .12646485 .38720704 .15283203 .39648438 .18701172 .39648438 .2290039 .39648438 .2882487 .38924156 .33260093 .37475587 .36206056 .36027018 .39152018 .3383789 .40625 .30908204 .40625Z"/>
<path id="font_5_85" d="M.4477539 .3618164C.44547526 .3211263 .42919923 .30078126 .39892579 .30078126 .370931 .30078126 .3569336 .3168284 .3569336 .34892274 .3569336 .35508729 .3564453 .36643983 .35546876 .38298036L.3540039 .42382813C.30257163 .41763307 .26139323 .40311686 .23046875 .38027955 .20149739 .35906983 .17740886 .32709757 .15820313 .2843628L.15917969 .016220093C.15917969-.01672872 .1430664-.033203126 .110839847-.033203126 .08219401-.033203126 .067871097-.016733805 .067871097 .016204834V.35960389C.067871097 .37036643 .06827799 .38650514 .0690918 .40802003 .0699056 .42954508 .0703125 .44568888 .0703125 .45645143 .0703125 .48939006 .084635417 .5058594 .11328125 .5058594 .1451823 .5058594 .16129558 .47884117 .1616211 .4248047 .2241211 .48535157 .29345704 .515625 .3696289 .515625 .3959961 .515625 .4156901 .5056966 .42871095 .48583985 .44173179 .46598307 .4482422 .43603517 .4482422 .3959961 .4482422 .379069 .44807945 .36767579 .4477539 .3618164Z"/>
<path id="font_5_68" d="M.44921876-.032226564C.44303385-.032226564 .43180339-.025004069 .41552735-.010559082 .4008789 .00289917 .38997398 .014882405 .3828125 .025390625 .3515625 .008300781 .324056-.004597982 .30029298-.013305664 .27652995-.022013346 .2566732-.026367188 .24072266-.026367188 .16455078-.026367188 .10904948-.0048828127 .07421875 .038085939 .041341146 .07845052 .024902344 .14029949 .024902344 .22363281 .024902344 .30240885 .052001954 .36979167 .10620117 .42578126 .16040039 .48177085 .22509766 .5097656 .30029298 .5097656 .32861329 .5097656 .36035157 .5024414 .3955078 .48779298 .43977867 .4695638 .46191407 .44759117 .46191407 .421875 .46191407 .41308595 .45865885 .40527345 .45214845 .3984375 .44889323 .38606773 .44637046 .36572267 .44458009 .33740235 .4427897 .30908204 .44173179 .27278648 .44140626 .22851563 .44108073 .18815105 .44384767 .15625 .44970704 .1328125 .45296226 .118489589 .46321617 .08984375 .48046876 .046875 .4827474 .041015626 .48649089 .032389326 .49169923 .020996094L.4946289 .0126953129C.4946289-.00032552085 .49007163-.011067708 .48095704-.01953125 .47184245-.027994791 .46126304-.032226564 .44921876-.032226564M.34765626 .3069458C.34765626 .3209127 .34855143 .3360901 .3503418 .35247804 .35213218 .36887614 .35481773 .38632713 .35839845 .40483094 .34635417 .41100566 .3360189 .41555278 .32739259 .4184723 .31876628 .42139182 .31184898 .42285157 .30664063 .42285157 .2561849 .42285157 .21264649 .40231834 .17602539 .36125184 .1394043 .32018534 .12109375 .27286784 .12109375 .21929932 .12109375 .16605632 .13053386 .12612407 .14941406 .09950256 .16829427 .072881069 .19661458 .059570314 .234375 .059570314 .265625 .059570314 .29215495 .06525167 .31396485 .07661438 .3256836 .08277893 .3421224 .09511312 .36328126 .11361694 .3528646 .19965618 .34765626 .26409913 .34765626 .3069458Z"/>
<path id="font_5_74" d="M.46972657 .21044922 .4584961 .04638672C.45654298-.018717448 .44986979-.0719401 .43847657-.11328125 .42382813-.16601563 .40039063-.20491536 .36816407-.22998047 .32910157-.2602539 .2726237-.27539063 .19873047-.27539063 .1554362-.27539063 .119140628-.27246095 .08984375-.26660157 .048828126-.25846354 .028320313-.24153646 .028320313-.21582031 .028320313-.18684896 .04248047-.17236328 .07080078-.17236328 .08251953-.17236328 .10205078-.1752116 .12939453-.1809082 .15673828-.18660482 .18701172-.18912761 .22021485-.18847656 .28271485-.18743897 .32584635-.15538533 .34960938-.092315677 .36523438-.05026245 .37353517 .014363606 .37451173 .1015625 .3569336 .06347656 .3360189 .03491211 .31176759 .01586914 .28751628-.0031738282 .25976563-.0126953129 .22851563-.0126953129 .16959636-.0126953129 .121663417 .007425944 .0847168 .047668458 .047770185 .08791097 .029296875 .14012654 .029296875 .20431519 .029296875 .2922872 .05452474 .36315409 .10498047 .4169159 .1570638 .4723053 .22802735 .5 .3178711 .5 .34814454 .5 .37353517 .49609376 .39404298 .48828126 .41455079 .48046876 .43017579 .46875 .44091798 .453125 .4757487 .45214845 .49316407 .43277995 .49316407 .39501954 .49316407 .37190757 .4897461 .34098307 .48291017 .3022461 .4754232 .25732423 .47102867 .22672527 .46972657 .21044922M.31298829 .40234376C.2511393 .40234376 .20328777 .3831482 .1694336 .34475709 .13916016 .31018067 .12402344 .2662201 .12402344 .21287537 .12402344 .17038472 .13297527 .138443 .1508789 .11705017 .16878255 .09565735 .19563802 .08496094 .23144531 .08496094 .2643229 .08496094 .29622398 .10166422 .32714845 .1350708 .35514323 .1658427 .37109376 .19631958 .375 .22650147 .38183595 .25815837 .38916017 .3078359 .39697267 .37553407 .3839518 .38461814 .37044273 .39135743 .3564453 .39575196 .3424479 .40014649 .32796226 .40234376 .31298829 .40234376Z"/>
<path id="font_5_80" d="M.6879883-.041015626C.6612956-.041015626 .6456706-.026824952 .6411133 .0015563965 .6352539 .03744507 .62939456 .08800761 .62353518 .15324402L.6069336 .3049469C.6036784 .32744853 .59814456 .34946696 .59033206 .3710022 .57926437 .4003601 .56722006 .41503907 .5541992 .41503907 .54215499 .41503907 .51969406 .404775 .4868164 .38424684 .4555664 .36534629 .4350586 .3501943 .42529298 .3387909 .42496745 .3081614 .42578126 .27753196 .42773438 .24690247L.4423828 .11639404C.44856773 .06491089 .45166017 .022384644 .45166017-.011184692 .45166017-.025517783 .44718424-.037328084 .43823243-.0466156 .4292806-.055903119 .417806-.060546876 .4038086-.060546876 .3898112-.060546876 .37833659-.055903119 .36938478-.0466156 .36043296-.037328084 .35595704-.025517783 .35595704-.011184692 .35595704 .028244019 .3519694 .086491908 .34399415 .16355896 .3360189 .24062602 .33203126 .2988739 .33203126 .3383026 .33203126 .37283836 .32714845 .39971925 .3173828 .4189453 .29459635 .4085083 .27148438 .39154563 .24804688 .36805726L.19042969 .30345155C.18522136 .29562889 .17692058 .2853546 .16552735 .27262879 .16552735 .25305686 .16373699 .22418213 .16015625 .18600464 .15657552 .14783733 .15478516 .119618739 .15478516 .10134888 .15478516 .091562908 .15633138 .07786051 .15942383 .0602417 .16251628 .042633058 .1640625 .029912314 .1640625 .022079468 .1640625 .008702596 .15909831-.002553304 .14916992-.011688232 .13924153-.02082316 .12760417-.025390625 .11425781-.025390625 .07747396-.025390625 .05908203 .016474406 .05908203 .10020447 .05908203 .119756069 .060872396 .1489156 .064453128 .1876831 .06803385 .2264506 .06982422 .25561015 .06982422 .27516175 .06982422 .29242454 .06827799 .31832377 .06518555 .3528595 .062093099 .38739524 .060546876 .4134623 .060546876 .4310608 .060546876 .5050151 .07714844 .5419922 .11035156 .5419922 .123046878 .5419922 .13468425 .53653976 .14526367 .52563479 .1558431 .5147298 .16113281 .5027669 .16113281 .4897461 .16113281 .4835612 .16031902 .47395835 .1586914 .4609375 .1570638 .44791667 .15625 .43798829 .15625 .43115235L.15722656 .3798828C.17415364 .41471354 .19905599 .44620768 .2319336 .47436524 .2648112 .50252279 .292806 .51660159 .31591798 .51660159 .36702476 .51660159 .402181 .49121095 .42138673 .4404297 .43929038 .46419273 .46061198 .48201499 .48535157 .49389649 .5100911 .505778 .53841146 .51171877 .5703125 .51171877 .6246745 .51171877 .6617839 .482371 .6816406 .42367555 .6855469 .41193644 .69222006 .36611939 .70166018 .28622438 .7107747 .23013306 .72249349 .13670349 .7368164 .005935669 .73779299-.0071055095 .73339846-.018188477 .7236328-.027313233 .7138672-.036448163 .70198568-.041015626 .6879883-.041015626Z"/>
<path id="font_5_3" d="M0 0Z"/>
<path id="font_5_70" d="M.28857423-.03125C.22184246-.03125 .16617839-.0110321049 .12158203 .029403687 .07470703 .0717926 .05126953 .12772115 .05126953 .19718933 .05126953 .26338197 .07324219 .33169557 .1171875 .40213014 .16601563 .48039756 .22102864 .51953127 .28222657 .51953127 .3141276 .51953127 .34977214 .51201888 .38916017 .49699403 .43896485 .47771708 .4638672 .4541982 .4638672 .42643739 .4638672 .4140269 .4597982 .40299989 .45166017 .39335633 .44352214 .38372294 .433431 .37890626 .42138673 .37890626 .41194663 .37890626 .4037272 .38178 .39672853 .38752748 .38972984 .39328514 .38297526 .3989614 .37646485 .40455628 .35725913 .42000834 .32584635 .42773438 .28222657 .42773438 .24902344 .42773438 .21614583 .3980306 .18359375 .33862306 .15397136 .28411866 .13916016 .23695882 .13916016 .19714356 .13916016 .15406291 .1538086 .12011719 .18310547 .0953064 .21044922 .072133388 .24560547 .060546876 .28857423 .060546876 .30810548 .060546876 .3289388 .06575521 .35107423 .076171878L.40771485 .10644531C.41748048 .11165365 .42447917 .11425781 .42871095 .11425781 .44075523 .11425781 .45117188 .10945638 .45996095 .099853519 .46875 .09025065 .47314454 .07926432 .47314454 .06689453 .47314454 .04313151 .44807945 .020182291 .39794923-.001953125 .3540039-.021484375 .31754557-.03125 .28857423-.03125Z"/>
<path id="font_5_78" d="M.47460938-.01953125C.45670573-.01953125 .4428711-.0100911459 .43310548 .0087890629 .41617839 .04168701 .390625 .08061218 .3564453 .12556458L.27001954 .24331665C.2511393 .22833252 .22184246 .20732117 .1821289 .1802826 .17854817 .12979634 .17675781 .08061727 .17675781 .03274536 .17675781 .018086752 .1722819 .006200155 .16333008-.0029144288 .15437825-.012039185 .14290364-.016601563 .12890625-.016601563 .09602865-.016601563 .079589847 .005549113 .079589847 .049850465 .079589847 .07687887 .081461589 .11734518 .08520508 .17124939 .08894857 .22516378 .09082031 .26563517 .09082031 .29266358 .09082031 .34217326 .091552738 .3987681 .09301758 .46244813 .09448242 .5261281 .095214847 .58239749 .095214847 .6312561 .095214847 .64591476 .09448242 .6631775 .09301758 .68304446 .091552738 .7029114 .09082031 .72017416 .09082031 .73483279 .09082031 .7494914 .09529623 .761378 .10424805 .77049258 .11319987 .7796173 .12467448 .7841797 .13867188 .7841797 .15266927 .7841797 .16414388 .7796173 .1730957 .77049258 .18204753 .761378 .18652344 .7494914 .18652344 .73483279 .18652344 .71984866 .18733724 .7021739 .18896485 .6818085 .19059246 .66145327 .19140625 .64378866 .19140625 .6288147L.18798828 .47148133C.18636067 .41481019 .18587239 .35813395 .18652344 .30145265 .23079427 .33532716 .2734375 .37246195 .31445313 .41285707L.421875 .52375796C.4326172 .5348256 .4441732 .5403595 .45654298 .5403595 .46923829 .5403595 .4807129 .5353139 .4909668 .5252228 .5012207 .51513168 .50634768 .5034078 .50634768 .49005128 .50634768 .4789734 .5016276 .46806336 .4921875 .45732118 .45214845 .41048686 .40283204 .36023966 .34423829 .3065796L.4506836 .16122437C.5004883 .09314982 .5253906 .048853559 .5253906 .028335572 .5253906 .015304565 .5202637 .0040690104 .51000979-.0053710939 .49975587-.014811198 .48795573-.01953125 .47460938-.01953125Z"/>
<path id="font_5_11" d="M.33984376 .73876956C.33984376 .7273763 .3297526 .7107747 .3095703 .68896487 .29459635 .6739909 .27978517 .6590169 .26513673 .64404299 .2290039 .60302737 .2006836 .5444336 .18017578 .46826173 .16227214 .40185548 .15332031 .33658854 .15332031 .27246095 .15332031 .10709635 .1907552-.014160156 .265625-.091308597 .28059898-.103027347 .2957357-.114746097 .31103517-.12646485 .32991538-.1414388 .33935548-.15625 .33935548-.17089844 .33935548-.18164063 .3351237-.19099935 .32666017-.19897461 .31819663-.20694988 .308431-.2109375 .29736329-.2109375 .28759767-.2109375 .2758789-.20719402 .26220704-.19970703 .12451172-.122558597 .055664064 .03857422 .055664064 .2836914 .055664064 .37190757 .073404949 .46126304 .10888672 .5517578 .14860027 .65234377 .2006836 .72526046 .26513673 .7705078 .27815757 .7796224 .28841148 .7841797 .29589845 .7841797 .3076172 .7841797 .3178711 .779541 .32666017 .7702637 .33544923 .7609863 .33984376 .7504883 .33984376 .73876956Z"/>
<path id="font_5_23" d="M.47070313 .21386719V.032806398C.47070313 .0024719239 .45589195-.0126953129 .42626954-.0126953129 .3917643-.0126953129 .37451173 .011006673 .37451173 .058410646 .37451173 .06429037 .37483726 .072621669 .37548829 .08340454 .3761393 .09419759 .37646485 .10155741 .37646485 .10548401L.37597657 .21679688 .16064453 .22216797C.11604818 .22216797 .085123699 .22363281 .067871097 .2265625 .0382487 .23143514 .0234375 .24297078 .0234375 .26116944 .0234375 .27578736 .032389326 .29430644 .05029297 .31672669L.092285159 .36643983 .33251954 .7163849C.35432945 .7466075 .3819987 .76171877 .41552735 .76171877 .4523112 .76171877 .47070313 .7457835 .47070313 .71391299V.30859376C.47623698 .30891929 .48291017 .30908204 .49072267 .30908204 .55061849 .30908204 .5805664 .29296876 .5805664 .2607422 .5805664 .23730469 .5681966 .22249349 .54345706 .2163086 .53238937 .2133789 .508138 .21256511 .47070313 .21386719M.37597657 .62646487C.2890625 .4880066 .2211914 .38432823 .17236328 .3154297L.37597657 .31054688V.62646487Z"/>
<path id="font_5_12" d="M.33984376 .2836914C.33984376 .03857422 .27083335-.122558597 .1328125-.19970703 .11946615-.20719402 .107910159-.2109375 .09814453-.2109375 .08707682-.2109375 .077311199-.20694988 .068847659-.19897461 .060384115-.19099935 .056152345-.18164063 .056152345-.17089844 .056152345-.15625 .065592449-.1414388 .084472659-.12646485 .09944662-.114746097 .114583339-.103027347 .12988281-.091308597 .20475261-.014160156 .2421875 .10709635 .2421875 .27246095 .2421875 .33658854 .23323567 .40185548 .21533203 .46826173 .1944987 .5444336 .16617839 .60302737 .1303711 .64404299 .11539713 .6590169 .10058594 .6739909 .0859375 .68896487 .06575521 .7107747 .055664064 .7273763 .055664064 .73876956 .055664064 .7504883 .059977216 .7609863 .068603519 .7702637 .07722982 .779541 .087402347 .7841797 .099121097 .7841797 .10660807 .7841797 .11702474 .7796224 .1303711 .7705078 .19482422 .72526046 .24690755 .65234377 .2866211 .5517578 .32210288 .46126304 .33984376 .37190757 .33984376 .2836914Z"/>
<path id="font_5_27" d="M.2998047-.026367188C.2311198-.026367188 .17561849-.011388143 .13330078 .018569947 .085123699 .052444459 .060546876 .10211182 .059570314 .16757202 .05826823 .27275596 .095214847 .34440104 .17041016 .38250733 .112467449 .41764323 .083496097 .46758525 .083496097 .5323334 .083496097 .5938263 .10579427 .64490768 .15039063 .6855774 .19303386 .72461959 .24479167 .7444661 .30566407 .7451172 .4423828 .74641928 .5107422 .6789296 .5107422 .5426483 .5107422 .50361636 .5029297 .473526 .4873047 .45237733 .47460938 .43481956 .45003257 .4167684 .41357423 .39822389 .4620768 .37378947 .49609376 .347407 .515625 .31907655 .53841146 .28585307 .5498047 .24008687 .5498047 .18177796 .5498047 .11533102 .52522787 .063212078 .47607423 .025421143 .4305013-.009104411 .37174479-.026367188 .2998047-.026367188M.30419923 .65722659C.26220704 .65722659 .23014324 .64539596 .20800781 .6217346 .18815105 .5997009 .17838542 .56988528 .17871094 .5322876 .17903646 .48691813 .21647136 .45467124 .29101563 .43554688 .33007813 .44688926 .3580729 .4582316 .375 .46957398 .40201823 .48772178 .41552735 .512029 .41552735 .5424957 .41552735 .5865733 .40559898 .6175232 .3857422 .63534548 .3688151 .64993289 .34163413 .65722659 .30419923 .65722659M.29541017 .3486328C.24365235 .32458497 .20914714 .30378724 .19189453 .28623963 .1648763 .25926209 .15218099 .22124227 .1538086 .17218018 .15511067 .1315511 .17382813 .10116577 .20996094 .08102417 .23632813 .066721599 .26627604 .059570314 .2998047 .059570314 .35709635 .059570314 .3971354 .07305908 .41992188 .10003662 .43815104 .12148031 .44726563 .15397644 .44726563 .19752503 .44726563 .24009705 .43066407 .27437846 .39746095 .30036927 .37532554 .3182424 .3413086 .33433024 .29541017 .3486328Z"/>
</defs>
<g clip-path="url(#clip_1)">
<path transform="matrix(.7185877,0,0,.7185877,0,0)" d="M0 0H963V404H0Z" fill="#ffffff"/>
</g>
<g clip-path="url(#clip_2)">
<path transform="matrix(.7185877,0,0,.7185877,.35929386,.35929386)" d="M1 361H41V401H1Z" fill="#dae8fc"/>
<path transform="matrix(.7185877,0,0,.7185877,.35929386,.35929386)" stroke-width="1" stroke-linecap="butt" stroke-miterlimit="4" stroke-linejoin="miter" fill="none" stroke="#66b2ff" d="M1 361H41V401H1Z"/>
<use data-text="i" xlink:href="#font_3_76" transform="matrix(11.497403,0,0,-11.497403,13.810357,278.09346)"/>
<path transform="matrix(.7185877,0,0,.7185877,.35929386,.35929386)" d="M41 361H81V401H41Z" fill="#dae8fc"/>
<path transform="matrix(.7185877,0,0,.7185877,.35929386,.35929386)" stroke-width="1" stroke-linecap="butt" stroke-miterlimit="4" stroke-linejoin="miter" fill="none" stroke="#66b2ff" d="M41 361H81V401H41Z"/>
<use data-text="i" xlink:href="#font_3_76" transform="matrix(11.497403,0,0,-11.497403,42.553865,278.09346)"/>
<path transform="matrix(.7185877,0,0,.7185877,.35929386,.35929386)" d="M81 361H121V401H81Z" fill="#dae8fc"/>
<path transform="matrix(.7185877,0,0,.7185877,.35929386,.35929386)" stroke-width="1" stroke-linecap="butt" stroke-miterlimit="4" stroke-linejoin="miter" fill="none" stroke="#66b2ff" d="M81 361H121V401H81Z"/>
<use data-text="i" xlink:href="#font_3_76" transform="matrix(11.497403,0,0,-11.497403,71.29737,278.09346)"/>
<path transform="matrix(.7185877,0,0,.7185877,.35929386,.35929386)" d="M121 361H161V401H121Z" fill="#dae8fc"/>
<path transform="matrix(.7185877,0,0,.7185877,.35929386,.35929386)" stroke-width="1" stroke-linecap="butt" stroke-miterlimit="4" stroke-linejoin="miter" fill="none" stroke="#66b2ff" d="M121 361H161V401H121Z"/>
<use data-text="i" xlink:href="#font_3_76" transform="matrix(11.497403,0,0,-11.497403,100.04088,278.09346)"/>
<path transform="matrix(.7185877,0,0,.7185877,.35929386,.35929386)" d="M161 361H201V401H161Z" fill="#757575"/>
<path transform="matrix(.7185877,0,0,.7185877,.35929386,.35929386)" stroke-width="1" stroke-linecap="butt" stroke-miterlimit="4" stroke-linejoin="miter" fill="none" stroke="#66b2ff" d="M161 361H201V401H161Z"/>
<path transform="matrix(.7185877,0,0,.7185877,.35929386,.35929386)" d="M201 361H241V401H201Z" fill="#757575"/>
<path transform="matrix(.7185877,0,0,.7185877,.35929386,.35929386)" stroke-width="1" stroke-linecap="butt" stroke-miterlimit="4" stroke-linejoin="miter" fill="none" stroke="#66b2ff" d="M201 361H241V401H201Z"/>
<path transform="matrix(.7185877,0,0,.7185877,.35929386,.35929386)" d="M241 361H281V401H241Z" fill="#757575"/>
<path transform="matrix(.7185877,0,0,.7185877,.35929386,.35929386)" stroke-width="1" stroke-linecap="butt" stroke-miterlimit="4" stroke-linejoin="miter" fill="none" stroke="#66b2ff" d="M241 361H281V401H241Z"/>
<path transform="matrix(.7185877,0,0,.7185877,.35929386,.35929386)" d="M281 361H321V401H281Z" fill="#757575"/>
<path transform="matrix(.7185877,0,0,.7185877,.35929386,.35929386)" stroke-width="1" stroke-linecap="butt" stroke-miterlimit="4" stroke-linejoin="miter" fill="none" stroke="#66b2ff" d="M281 361H321V401H281Z"/>
<path transform="matrix(.7185877,0,0,.7185877,.35929386,.35929386)" d="M321 361H361V401H321Z" fill="#fff2cc"/>
<path transform="matrix(.7185877,0,0,.7185877,.35929386,.35929386)" stroke-width="1" stroke-linecap="butt" stroke-miterlimit="4" stroke-linejoin="miter" fill="none" stroke="#66b2ff" d="M321 361H361V401H321Z"/>
<use data-text="d" xlink:href="#font_3_71" transform="matrix(11.497403,0,0,-11.497403,241.83844,278.09346)"/>
<path transform="matrix(.7185877,0,0,.7185877,.35929386,.35929386)" d="M361 361H401V401H361Z" fill="#fff2cc"/>
<path transform="matrix(.7185877,0,0,.7185877,.35929386,.35929386)" stroke-width="1" stroke-linecap="butt" stroke-miterlimit="4" stroke-linejoin="miter" fill="none" stroke="#66b2ff" d="M361 361H401V401H361Z"/>
<use data-text="d" xlink:href="#font_3_71" transform="matrix(11.497403,0,0,-11.497403,270.58195,278.09346)"/>
<path transform="matrix(.7185877,0,0,.7185877,.35929386,.35929386)" d="M401 361H441V401H401Z" fill="#fff2cc"/>
<path transform="matrix(.7185877,0,0,.7185877,.35929386,.35929386)" stroke-width="1" stroke-linecap="butt" stroke-miterlimit="4" stroke-linejoin="miter" fill="none" stroke="#66b2ff" d="M401 361H441V401H401Z"/>
<use data-text="d" xlink:href="#font_3_71" transform="matrix(11.497403,0,0,-11.497403,299.32548,278.09346)"/>
<path transform="matrix(.7185877,0,0,.7185877,.35929386,.35929386)" d="M441 361H481V401H441Z" fill="#fff2cc"/>
<path transform="matrix(.7185877,0,0,.7185877,.35929386,.35929386)" stroke-width="1" stroke-linecap="butt" stroke-miterlimit="4" stroke-linejoin="miter" fill="none" stroke="#66b2ff" d="M441 361H481V401H441Z"/>
<use data-text="d" xlink:href="#font_3_71" transform="matrix(11.497403,0,0,-11.497403,328.06898,278.09346)"/>
<path transform="matrix(.7185877,0,0,.7185877,.35929386,.35929386)" d="M481 361H521V401H481Z" fill="#fff2cc"/>
<path transform="matrix(.7185877,0,0,.7185877,.35929386,.35929386)" stroke-width="1" stroke-linecap="butt" stroke-miterlimit="4" stroke-linejoin="miter" fill="none" stroke="#66b2ff" d="M481 361H521V401H481Z"/>
<use data-text="d" xlink:href="#font_3_71" transform="matrix(11.497403,0,0,-11.497403,356.81248,278.09346)"/>
<path transform="matrix(.7185877,0,0,.7185877,.35929386,.35929386)" d="M521 361H561V401H521Z" fill="#fff2cc"/>
<path transform="matrix(.7185877,0,0,.7185877,.35929386,.35929386)" stroke-width="1" stroke-linecap="butt" stroke-miterlimit="4" stroke-linejoin="miter" fill="none" stroke="#66b2ff" d="M521 361H561V401H521Z"/>
<use data-text="d" xlink:href="#font_3_71" transform="matrix(11.497403,0,0,-11.497403,385.55598,278.09346)"/>
<path transform="matrix(.7185877,0,0,.7185877,.35929386,.35929386)" d="M561 361H601V401H561Z" fill="#fff2cc"/>
<path transform="matrix(.7185877,0,0,.7185877,.35929386,.35929386)" stroke-width="1" stroke-linecap="butt" stroke-miterlimit="4" stroke-linejoin="miter" fill="none" stroke="#66b2ff" d="M561 361H601V401H561Z"/>
<use data-text="d" xlink:href="#font_3_71" transform="matrix(11.497403,0,0,-11.497403,414.2995,278.09346)"/>
<path transform="matrix(.7185877,0,0,.7185877,.35929386,.35929386)" d="M601 361H641V401H601Z" fill="#fff2cc"/>
<path transform="matrix(.7185877,0,0,.7185877,.35929386,.35929386)" stroke-width="1" stroke-linecap="butt" stroke-miterlimit="4" stroke-linejoin="miter" fill="none" stroke="#66b2ff" d="M601 361H641V401H601Z"/>
<use data-text="d" xlink:href="#font_3_71" transform="matrix(11.497403,0,0,-11.497403,443.043,278.09346)"/>
<path transform="matrix(.7185877,0,0,.7185877,.35929386,.35929386)" d="M641 361H681V401H641Z" fill="#d5e8d4"/>
<path transform="matrix(.7185877,0,0,.7185877,.35929386,.35929386)" stroke-width="1" stroke-linecap="butt" stroke-miterlimit="4" stroke-linejoin="miter" fill="none" stroke="#66b2ff" d="M641 361H681V401H641Z"/>
<use data-text="c" xlink:href="#font_3_70" transform="matrix(11.497403,0,0,-11.497403,472.11213,278.09346)"/>
<path transform="matrix(.7185877,0,0,.7185877,.35929386,.35929386)" d="M681 361H721V401H681Z" fill="#757575"/>
<path transform="matrix(.7185877,0,0,.7185877,.35929386,.35929386)" stroke-width="1" stroke-linecap="butt" stroke-miterlimit="4" stroke-linejoin="miter" fill="none" stroke="#66b2ff" d="M681 361H721V401H681Z"/>
<path transform="matrix(.7185877,0,0,.7185877,.35929386,.35929386)" d="M721 361H761V401H721Z" fill="#757575"/>
<path transform="matrix(.7185877,0,0,.7185877,.35929386,.35929386)" stroke-width="1" stroke-linecap="butt" stroke-miterlimit="4" stroke-linejoin="miter" fill="none" stroke="#66b2ff" d="M721 361H761V401H721Z"/>
<path transform="matrix(.7185877,0,0,.7185877,.35929386,.35929386)" d="M761 361H801V401H761Z" fill="#757575"/>
<path transform="matrix(.7185877,0,0,.7185877,.35929386,.35929386)" stroke-width="1" stroke-linecap="butt" stroke-miterlimit="4" stroke-linejoin="miter" fill="none" stroke="#66b2ff" d="M761 361H801V401H761Z"/>
<path transform="matrix(.7185877,0,0,.7185877,.35929386,.35929386)" d="M801 361H841V401H801Z" fill="#757575"/>
<path transform="matrix(.7185877,0,0,.7185877,.35929386,.35929386)" stroke-width="1" stroke-linecap="butt" stroke-miterlimit="4" stroke-linejoin="miter" fill="none" stroke="#66b2ff" d="M801 361H841V401H801Z"/>
<path transform="matrix(.7185877,0,0,.7185877,.35929386,.35929386)" d="M841 361H881V401H841Z" fill="#757575"/>
<path transform="matrix(.7185877,0,0,.7185877,.35929386,.35929386)" stroke-width="1" stroke-linecap="butt" stroke-miterlimit="4" stroke-linejoin="miter" fill="none" stroke="#66b2ff" d="M841 361H881V401H841Z"/>
<path transform="matrix(.7185877,0,0,.7185877,.35929386,.35929386)" d="M881 361H921V401H881Z" fill="#757575"/>
<path transform="matrix(.7185877,0,0,.7185877,.35929386,.35929386)" stroke-width="1" stroke-linecap="butt" stroke-miterlimit="4" stroke-linejoin="miter" fill="none" stroke="#66b2ff" d="M881 361H921V401H881Z"/>
<path transform="matrix(.7185877,0,0,.7185877,.35929386,.35929386)" d="M921 361H961V401H921Z" fill="#757575"/>
<path transform="matrix(.7185877,0,0,.7185877,.35929386,.35929386)" stroke-width="1" stroke-linecap="butt" stroke-miterlimit="4" stroke-linejoin="miter" fill="none" stroke="#66b2ff" d="M921 361H961V401H921Z"/>
<path transform="matrix(.7185877,0,0,.7185877,.35929386,.35929386)" d="M1 201H41V241H1Z" fill="#dae8fc"/>
<path transform="matrix(.7185877,0,0,.7185877,.35929386,.35929386)" stroke-width="1" stroke-linecap="butt" stroke-miterlimit="4" stroke-linejoin="miter" fill="none" stroke="#66b2ff" d="M1 201H41V241H1Z"/>
<use data-text="i" xlink:href="#font_3_76" transform="matrix(11.497403,0,0,-11.497403,13.810357,163.1194)"/>
<path transform="matrix(.7185877,0,0,.7185877,.35929386,.35929386)" d="M41 201H81V241H41Z" fill="#dae8fc"/>
<path transform="matrix(.7185877,0,0,.7185877,.35929386,.35929386)" stroke-width="1" stroke-linecap="butt" stroke-miterlimit="4" stroke-linejoin="miter" fill="none" stroke="#66b2ff" d="M41 201H81V241H41Z"/>
<use data-text="i" xlink:href="#font_3_76" transform="matrix(11.497403,0,0,-11.497403,42.553865,163.1194)"/>
<path transform="matrix(.7185877,0,0,.7185877,.35929386,.35929386)" d="M81 201H121V241H81Z" fill="#dae8fc"/>
<path transform="matrix(.7185877,0,0,.7185877,.35929386,.35929386)" stroke-width="1" stroke-linecap="butt" stroke-miterlimit="4" stroke-linejoin="miter" fill="none" stroke="#66b2ff" d="M81 201H121V241H81Z"/>
<use data-text="i" xlink:href="#font_3_76" transform="matrix(11.497403,0,0,-11.497403,71.29737,163.1194)"/>
<path transform="matrix(.7185877,0,0,.7185877,.35929386,.35929386)" d="M121 201H161V241H121Z" fill="#dae8fc"/>
<path transform="matrix(.7185877,0,0,.7185877,.35929386,.35929386)" stroke-width="1" stroke-linecap="butt" stroke-miterlimit="4" stroke-linejoin="miter" fill="none" stroke="#66b2ff" d="M121 201H161V241H121Z"/>
<use data-text="i" xlink:href="#font_3_76" transform="matrix(11.497403,0,0,-11.497403,100.04088,163.1194)"/>
<path transform="matrix(.7185877,0,0,.7185877,.35929386,.35929386)" d="M161 201H201V241H161Z" fill="#fff2cc"/>
<path transform="matrix(.7185877,0,0,.7185877,.35929386,.35929386)" stroke-width="1" stroke-linecap="butt" stroke-miterlimit="4" stroke-linejoin="miter" fill="none" stroke="#66b2ff" d="M161 201H201V241H161Z"/>
<use data-text="d" xlink:href="#font_3_71" transform="matrix(11.497403,0,0,-11.497403,126.86441,163.1194)"/>
<path transform="matrix(.7185877,0,0,.7185877,.35929386,.35929386)" d="M201 201H241V241H201Z" fill="#fff2cc"/>
<path transform="matrix(.7185877,0,0,.7185877,.35929386,.35929386)" stroke-width="1" stroke-linecap="butt" stroke-miterlimit="4" stroke-linejoin="miter" fill="none" stroke="#66b2ff" d="M201 201H241V241H201Z"/>
<use data-text="d" xlink:href="#font_3_71" transform="matrix(11.497403,0,0,-11.497403,155.60793,163.1194)"/>
<path transform="matrix(.7185877,0,0,.7185877,.35929386,.35929386)" d="M241 201H281V241H241Z" fill="#fff2cc"/>
<path transform="matrix(.7185877,0,0,.7185877,.35929386,.35929386)" stroke-width="1" stroke-linecap="butt" stroke-miterlimit="4" stroke-linejoin="miter" fill="none" stroke="#66b2ff" d="M241 201H281V241H241Z"/>
<use data-text="d" xlink:href="#font_3_71" transform="matrix(11.497403,0,0,-11.497403,184.35143,163.1194)"/>
<path transform="matrix(.7185877,0,0,.7185877,.35929386,.35929386)" d="M281 201H321V241H281Z" fill="#fff2cc"/>
<path transform="matrix(.7185877,0,0,.7185877,.35929386,.35929386)" stroke-width="1" stroke-linecap="butt" stroke-miterlimit="4" stroke-linejoin="miter" fill="none" stroke="#66b2ff" d="M281 201H321V241H281Z"/>
<use data-text="d" xlink:href="#font_3_71" transform="matrix(11.497403,0,0,-11.497403,213.09494,163.1194)"/>
<path transform="matrix(.7185877,0,0,.7185877,.35929386,.35929386)" d="M321 201H361V241H321Z" fill="#fff2cc"/>
<path transform="matrix(.7185877,0,0,.7185877,.35929386,.35929386)" stroke-width="1" stroke-linecap="butt" stroke-miterlimit="4" stroke-linejoin="miter" fill="none" stroke="#66b2ff" d="M321 201H361V241H321Z"/>
<use data-text="d" xlink:href="#font_3_71" transform="matrix(11.497403,0,0,-11.497403,241.83844,163.1194)"/>
<path transform="matrix(.7185877,0,0,.7185877,.35929386,.35929386)" d="M361 201H401V241H361Z" fill="#fff2cc"/>
<path transform="matrix(.7185877,0,0,.7185877,.35929386,.35929386)" stroke-width="1" stroke-linecap="butt" stroke-miterlimit="4" stroke-linejoin="miter" fill="none" stroke="#66b2ff" d="M361 201H401V241H361Z"/>
<use data-text="d" xlink:href="#font_3_71" transform="matrix(11.497403,0,0,-11.497403,270.58195,163.1194)"/>
<path transform="matrix(.7185877,0,0,.7185877,.35929386,.35929386)" d="M401 201H441V241H401Z" fill="#fff2cc"/>
<path transform="matrix(.7185877,0,0,.7185877,.35929386,.35929386)" stroke-width="1" stroke-linecap="butt" stroke-miterlimit="4" stroke-linejoin="miter" fill="none" stroke="#66b2ff" d="M401 201H441V241H401Z"/>
<use data-text="d" xlink:href="#font_3_71" transform="matrix(11.497403,0,0,-11.497403,299.32548,163.1194)"/>
<path transform="matrix(.7185877,0,0,.7185877,.35929386,.35929386)" d="M441 201H481V241H441Z" fill="#fff2cc"/>
<path transform="matrix(.7185877,0,0,.7185877,.35929386,.35929386)" stroke-width="1" stroke-linecap="butt" stroke-miterlimit="4" stroke-linejoin="miter" fill="none" stroke="#66b2ff" d="M441 201H481V241H441Z"/>
<use data-text="d" xlink:href="#font_3_71" transform="matrix(11.497403,0,0,-11.497403,328.06898,163.1194)"/>
<path transform="matrix(.7185877,0,0,.7185877,.35929386,.35929386)" d="M481 201H521V241H481Z" fill="#d5e8d4"/>
<path transform="matrix(.7185877,0,0,.7185877,.35929386,.35929386)" stroke-width="1" stroke-linecap="butt" stroke-miterlimit="4" stroke-linejoin="miter" fill="none" stroke="#66b2ff" d="M481 201H521V241H481Z"/>
<use data-text="c" xlink:href="#font_3_70" transform="matrix(11.497403,0,0,-11.497403,357.1381,163.1194)"/>
<path transform="matrix(.7185877,0,0,.7185877,.35929386,.35929386)" d="M521 201H561V241H521Z" fill="#757575"/>
<path transform="matrix(.7185877,0,0,.7185877,.35929386,.35929386)" stroke-width="1" stroke-linecap="butt" stroke-miterlimit="4" stroke-linejoin="miter" fill="none" stroke="#66b2ff" d="M521 201H561V241H521Z"/>
<path transform="matrix(.7185877,0,0,.7185877,.35929386,.35929386)" d="M561 201H601V241H561Z" fill="#757575"/>
<path transform="matrix(.7185877,0,0,.7185877,.35929386,.35929386)" stroke-width="1" stroke-linecap="butt" stroke-miterlimit="4" stroke-linejoin="miter" fill="none" stroke="#66b2ff" d="M561 201H601V241H561Z"/>
<path transform="matrix(.7185877,0,0,.7185877,.35929386,.35929386)" d="M601 201H641V241H601Z" fill="#757575"/>
<path transform="matrix(.7185877,0,0,.7185877,.35929386,.35929386)" stroke-width="1" stroke-linecap="butt" stroke-miterlimit="4" stroke-linejoin="miter" fill="none" stroke="#66b2ff" d="M601 201H641V241H601Z"/>
<path transform="matrix(.7185877,0,0,.7185877,.35929386,.35929386)" d="M1 41H41V81H1Z" fill="#dae8fc"/>
<path transform="matrix(.7185877,0,0,.7185877,.35929386,.35929386)" stroke-width="1" stroke-linecap="butt" stroke-miterlimit="4" stroke-linejoin="miter" fill="none" stroke="#66b2ff" d="M1 41H41V81H1Z"/>
<use data-text="i" xlink:href="#font_3_76" transform="matrix(11.497403,0,0,-11.497403,13.810357,48.145376)"/>
<path transform="matrix(.7185877,0,0,.7185877,.35929386,.35929386)" d="M41 41H81V81H41Z" fill="#dae8fc"/>
<path transform="matrix(.7185877,0,0,.7185877,.35929386,.35929386)" stroke-width="1" stroke-linecap="butt" stroke-miterlimit="4" stroke-linejoin="miter" fill="none" stroke="#66b2ff" d="M41 41H81V81H41Z"/>
<use data-text="i" xlink:href="#font_3_76" transform="matrix(11.497403,0,0,-11.497403,42.553865,48.145376)"/>
<path transform="matrix(.7185877,0,0,.7185877,.35929386,.35929386)" d="M81 41H121V81H81Z" fill="#dae8fc"/>
<path transform="matrix(.7185877,0,0,.7185877,.35929386,.35929386)" stroke-width="1" stroke-linecap="butt" stroke-miterlimit="4" stroke-linejoin="miter" fill="none" stroke="#66b2ff" d="M81 41H121V81H81Z"/>
<use data-text="i" xlink:href="#font_3_76" transform="matrix(11.497403,0,0,-11.497403,71.29737,48.145376)"/>
<path transform="matrix(.7185877,0,0,.7185877,.35929386,.35929386)" d="M121 41H161V81H121Z" fill="#dae8fc"/>
<path transform="matrix(.7185877,0,0,.7185877,.35929386,.35929386)" stroke-width="1" stroke-linecap="butt" stroke-miterlimit="4" stroke-linejoin="miter" fill="none" stroke="#66b2ff" d="M121 41H161V81H121Z"/>
<use data-text="i" xlink:href="#font_3_76" transform="matrix(11.497403,0,0,-11.497403,100.04088,48.145376)"/>
<path transform="matrix(.7185877,0,0,.7185877,.35929386,.35929386)" d="M161 41H201V81H161Z" fill="#fff2cc"/>
<path transform="matrix(.7185877,0,0,.7185877,.35929386,.35929386)" stroke-width="1" stroke-linecap="butt" stroke-miterlimit="4" stroke-linejoin="miter" fill="none" stroke="#66b2ff" d="M161 41H201V81H161Z"/>
<use data-text="d" xlink:href="#font_3_71" transform="matrix(11.497403,0,0,-11.497403,126.86441,48.145376)"/>
<path transform="matrix(.7185877,0,0,.7185877,.35929386,.35929386)" d="M201 41H241V81H201Z" fill="#fff2cc"/>
<path transform="matrix(.7185877,0,0,.7185877,.35929386,.35929386)" stroke-width="1" stroke-linecap="butt" stroke-miterlimit="4" stroke-linejoin="miter" fill="none" stroke="#66b2ff" d="M201 41H241V81H201Z"/>
<use data-text="d" xlink:href="#font_3_71" transform="matrix(11.497403,0,0,-11.497403,155.60793,48.145376)"/>
<path transform="matrix(.7185877,0,0,.7185877,.35929386,.35929386)" d="M241 41H281V81H241Z" fill="#fff2cc"/>
<path transform="matrix(.7185877,0,0,.7185877,.35929386,.35929386)" stroke-width="1" stroke-linecap="butt" stroke-miterlimit="4" stroke-linejoin="miter" fill="none" stroke="#66b2ff" d="M241 41H281V81H241Z"/>
<use data-text="d" xlink:href="#font_3_71" transform="matrix(11.497403,0,0,-11.497403,184.35143,48.145376)"/>
<path transform="matrix(.7185877,0,0,.7185877,.35929386,.35929386)" d="M281 41H321V81H281Z" fill="#fff2cc"/>
<path transform="matrix(.7185877,0,0,.7185877,.35929386,.35929386)" stroke-width="1" stroke-linecap="butt" stroke-miterlimit="4" stroke-linejoin="miter" fill="none" stroke="#66b2ff" d="M281 41H321V81H281Z"/>
<use data-text="d" xlink:href="#font_3_71" transform="matrix(11.497403,0,0,-11.497403,213.09494,48.145376)"/>
<path transform="matrix(.7185877,0,0,.7185877,.35929386,.35929386)" d="M321 41H361V81H321Z" fill="#fff2cc"/>
<path transform="matrix(.7185877,0,0,.7185877,.35929386,.35929386)" stroke-width="1" stroke-linecap="butt" stroke-miterlimit="4" stroke-linejoin="miter" fill="none" stroke="#66b2ff" d="M321 41H361V81H321Z"/>
<use data-text="d" xlink:href="#font_3_71" transform="matrix(11.497403,0,0,-11.497403,241.83844,48.145376)"/>
<path transform="matrix(.7185877,0,0,.7185877,.35929386,.35929386)" d="M361 41H401V81H361Z" fill="#fff2cc"/>
<path transform="matrix(.7185877,0,0,.7185877,.35929386,.35929386)" stroke-width="1" stroke-linecap="butt" stroke-miterlimit="4" stroke-linejoin="miter" fill="none" stroke="#66b2ff" d="M361 41H401V81H361Z"/>
<use data-text="d" xlink:href="#font_3_71" transform="matrix(11.497403,0,0,-11.497403,270.58195,48.145376)"/>
<path transform="matrix(.7185877,0,0,.7185877,.35929386,.35929386)" d="M401 41H441V81H401Z" fill="#fff2cc"/>
<path transform="matrix(.7185877,0,0,.7185877,.35929386,.35929386)" stroke-width="1" stroke-linecap="butt" stroke-miterlimit="4" stroke-linejoin="miter" fill="none" stroke="#66b2ff" d="M401 41H441V81H401Z"/>
<use data-text="d" xlink:href="#font_3_71" transform="matrix(11.497403,0,0,-11.497403,299.32548,48.145376)"/>
<path transform="matrix(.7185877,0,0,.7185877,.35929386,.35929386)" d="M441 41H481V81H441Z" fill="#fff2cc"/>
<path transform="matrix(.7185877,0,0,.7185877,.35929386,.35929386)" stroke-width="1" stroke-linecap="butt" stroke-miterlimit="4" stroke-linejoin="miter" fill="none" stroke="#66b2ff" d="M441 41H481V81H441Z"/>
<use data-text="d" xlink:href="#font_3_71" transform="matrix(11.497403,0,0,-11.497403,328.06898,48.145376)"/>
<path transform="matrix(.7185877,0,0,.7185877,.35929386,.35929386)" d="M481 41H521V81H481Z" fill="#d5e8d4"/>
<path transform="matrix(.7185877,0,0,.7185877,.35929386,.35929386)" stroke-width="1" stroke-linecap="butt" stroke-miterlimit="4" stroke-linejoin="miter" fill="none" stroke="#66b2ff" d="M481 41H521V81H481Z"/>
<use data-text="c" xlink:href="#font_3_70" transform="matrix(11.497403,0,0,-11.497403,357.1381,48.145376)"/>
<use data-text="#" xlink:href="#font_4_6" transform="matrix(12.934579,0,0,-12.934579,2.1557632,20.839043)"/>
<use data-text="p" xlink:href="#font_4_83" transform="matrix(12.934579,0,0,-12.934579,13.059612,20.839043)"/>
<use data-text="r" xlink:href="#font_4_85" transform="matrix(12.934579,0,0,-12.934579,19.979613,20.839043)"/>
<use data-text="a" xlink:href="#font_4_68" transform="matrix(12.934579,0,0,-12.934579,26.18821,20.839043)"/>
<use data-text="g" xlink:href="#font_4_74" transform="matrix(12.934579,0,0,-12.934579,33.379838,20.839043)"/>
<use data-text="m" xlink:href="#font_4_80" transform="matrix(12.934579,0,0,-12.934579,40.2481,20.839043)"/>
<use data-text="a" xlink:href="#font_4_68" transform="matrix(12.934579,0,0,-12.934579,50.298269,20.839043)"/>
<use data-text=" " xlink:href="#font_4_3" transform="matrix(12.934579,0,0,-12.934579,57.489896,20.839043)"/>
<use data-text="p" xlink:href="#font_4_83" transform="matrix(12.934579,0,0,-12.934579,63.103506,20.839043)"/>
<use data-text="a" xlink:href="#font_4_68" transform="matrix(12.934579,0,0,-12.934579,70.0235,20.839043)"/>
<use data-text="c" xlink:href="#font_4_70" transform="matrix(12.934579,0,0,-12.934579,77.215129,20.839043)"/>
<use data-text="k" xlink:href="#font_4_78" transform="matrix(12.934579,0,0,-12.934579,83.8635,20.839043)"/>
<use data-text="(" xlink:href="#font_4_11" transform="matrix(12.934579,0,0,-12.934579,90.848178,20.839043)"/>
<use data-text="1" xlink:href="#font_4_20" transform="matrix(12.934579,0,0,-12.934579,95.58223,20.839043)"/>
<use data-text=")" xlink:href="#font_4_12" transform="matrix(12.934579,0,0,-12.934579,103.47232,20.839043)"/>
<use data-text=" " xlink:href="#font_4_3" transform="matrix(12.934579,0,0,-12.934579,108.206378,20.839043)"/>
<use data-text="=" xlink:href="#font_4_32" transform="matrix(12.934579,0,0,-12.934579,113.81998,20.839043)"/>
<use data-text=" " xlink:href="#font_4_3" transform="matrix(12.934579,0,0,-12.934579,121.71007,20.839043)"/>
<use data-text="n" xlink:href="#font_4_81" transform="matrix(12.934579,0,0,-12.934579,127.32367,20.839043)"/>
<use data-text="o" xlink:href="#font_4_82" transform="matrix(12.934579,0,0,-12.934579,134.08846,20.839043)"/>
<use data-text=" " xlink:href="#font_4_3" transform="matrix(12.934579,0,0,-12.934579,140.89205,20.839043)"/>
<use data-text="p" xlink:href="#font_4_83" transform="matrix(12.934579,0,0,-12.934579,146.50565,20.839043)"/>
<use data-text="a" xlink:href="#font_4_68" transform="matrix(12.934579,0,0,-12.934579,153.42566,20.839043)"/>
<use data-text="d" xlink:href="#font_4_71" transform="matrix(12.934579,0,0,-12.934579,160.61728,20.839043)"/>
<use data-text="d" xlink:href="#font_4_71" transform="matrix(12.934579,0,0,-12.934579,168.20987,20.839043)"/>
<use data-text="i" xlink:href="#font_4_76" transform="matrix(12.934579,0,0,-12.934579,175.80246,20.839043)"/>
<use data-text="n" xlink:href="#font_4_81" transform="matrix(12.934579,0,0,-12.934579,179.42415,20.839043)"/>
<use data-text="g" xlink:href="#font_4_74" transform="matrix(12.934579,0,0,-12.934579,186.18894,20.839043)"/>
<use data-text="#" xlink:href="#font_5_6" transform="matrix(12.934579,0,0,-12.934579,2.1557632,135.81308)"/>
<use data-text="p" xlink:href="#font_5_83" transform="matrix(12.934579,0,0,-12.934579,13.059612,135.81308)"/>
<use data-text="r" xlink:href="#font_5_85" transform="matrix(12.934579,0,0,-12.934579,19.979613,135.81308)"/>
<use data-text="a" xlink:href="#font_5_68" transform="matrix(12.934579,0,0,-12.934579,26.18821,135.81308)"/>
<use data-text="g" xlink:href="#font_5_74" transform="matrix(12.934579,0,0,-12.934579,32.810716,135.81308)"/>
<use data-text="m" xlink:href="#font_5_80" transform="matrix(12.934579,0,0,-12.934579,39.678979,135.81308)"/>
<use data-text="a" xlink:href="#font_5_68" transform="matrix(12.934579,0,0,-12.934579,49.729146,135.81308)"/>
<use data-text=" " xlink:href="#font_5_3" transform="matrix(12.934579,0,0,-12.934579,56.35165,135.81308)"/>
<use data-text="p" xlink:href="#font_5_83" transform="matrix(12.934579,0,0,-12.934579,60.219095,135.81308)"/>
<use data-text="a" xlink:href="#font_5_68" transform="matrix(12.934579,0,0,-12.934579,67.13909,135.81308)"/>
<use data-text="c" xlink:href="#font_5_70" transform="matrix(12.934579,0,0,-12.934579,73.7616,135.81308)"/>
<use data-text="k" xlink:href="#font_5_78" transform="matrix(12.934579,0,0,-12.934579,80.40997,135.81308)"/>
<use data-text="(" xlink:href="#font_5_11" transform="matrix(12.934579,0,0,-12.934579,87.394649,135.81308)"/>
<use data-text="4" xlink:href="#font_5_23" transform="matrix(12.934579,0,0,-12.934579,92.1287,135.81308)"/>
<use data-text=")" xlink:href="#font_5_12" transform="matrix(12.934579,0,0,-12.934579,100.01878,135.81308)"/>
<use data-text="#" xlink:href="#font_5_6" transform="matrix(12.934579,0,0,-12.934579,2.1557632,250.78711)"/>
<use data-text="p" xlink:href="#font_5_83" transform="matrix(12.934579,0,0,-12.934579,13.059612,250.78711)"/>
<use data-text="r" xlink:href="#font_5_85" transform="matrix(12.934579,0,0,-12.934579,19.979613,250.78711)"/>
<use data-text="a" xlink:href="#font_5_68" transform="matrix(12.934579,0,0,-12.934579,26.18821,250.78711)"/>
<use data-text="g" xlink:href="#font_5_74" transform="matrix(12.934579,0,0,-12.934579,32.810716,250.78711)"/>
<use data-text="m" xlink:href="#font_5_80" transform="matrix(12.934579,0,0,-12.934579,39.678979,250.78711)"/>
<use data-text="a" xlink:href="#font_5_68" transform="matrix(12.934579,0,0,-12.934579,49.729146,250.78711)"/>
<use data-text=" " xlink:href="#font_5_3" transform="matrix(12.934579,0,0,-12.934579,56.35165,250.78711)"/>
<use data-text="p" xlink:href="#font_5_83" transform="matrix(12.934579,0,0,-12.934579,60.219095,250.78711)"/>
<use data-text="a" xlink:href="#font_5_68" transform="matrix(12.934579,0,0,-12.934579,67.13909,250.78711)"/>
<use data-text="c" xlink:href="#font_5_70" transform="matrix(12.934579,0,0,-12.934579,73.7616,250.78711)"/>
<use data-text="k" xlink:href="#font_5_78" transform="matrix(12.934579,0,0,-12.934579,80.40997,250.78711)"/>
<use data-text="(" xlink:href="#font_5_11" transform="matrix(12.934579,0,0,-12.934579,87.394649,250.78711)"/>
<use data-text="8" xlink:href="#font_5_27" transform="matrix(12.934579,0,0,-12.934579,92.1287,250.78711)"/>
<use data-text=")" xlink:href="#font_5_12" transform="matrix(12.934579,0,0,-12.934579,100.01878,250.78711)"/>
</g>
</svg>
