<svg xmlns="http://www.w3.org/2000/svg" xmlns:xlink="http://www.w3.org/1999/xlink" xmlns:inkscape="http://www.inkscape.org/namespaces/inkscape" version="1.1" width="943.92" height="118.079998" viewBox="0 0 943.92 118.079998">
<defs>
<clipPath id="clip_1">
<path transform="matrix(.24,0,0,.24,0,0)" d="M0 0H3933.3333V491.2922H0Z" clip-rule="evenodd"/>
</clipPath>
<clipPath id="clip_2">
<path transform="matrix(.24,0,0,.24,0,0)" d="M0 0H3933.3333V488.2965H0Z" clip-rule="evenodd"/>
</clipPath>
<path id="font_3_3" d="M0 0Z"/>
<path id="font_3_81" d="M.06591797 0V.5185547H.14501953V.4453125C.18310547 .5019531 .23811849 .53027346 .3100586 .53027346 .3413086 .53027346 .3700358 .5246582 .39624024 .51342776 .42244468 .50219729 .44205729 .48746745 .45507813 .46923829 .46809898 .45100913 .47721354 .42936198 .48242188 .40429688 .4856771 .38802085 .4873047 .35953776 .4873047 .31884767V0H.39941407V.31576539C.39941407 .35161338 .3959961 .37841798 .38916017 .3961792 .38232423 .41394044 .37019859 .42811585 .3527832 .43870545 .33536784 .44929505 .3149414 .45458985 .2915039 .45458985 .254069 .45458985 .22176107 .44269309 .19458008 .41889955 .1673991 .39511619 .1538086 .34998576 .1538086 .2835083V0H.06591797Z"/>
<path id="font_3_58" d="M.20214844 0 .012207031 .7158203H.109375L.21826172 .24658203C.22998047 .19742839 .24007161 .14860027 .24853516 .100097659 .2667643 .17659505 .2775065 .22070313 .28076173 .23242188L.4169922 .7158203H.53125L.63378909 .35351563C.6595052 .26367188 .6780599 .17919922 .6894531 .100097659 .6985677 .14534505 .7104492 .19726563 .72509768 .25585938L.83740237 .7158203H.9326172L.7363281 0H.64501956L.49414063 .54541018C.4814453 .5909831 .47395835 .61897787 .4716797 .62939456 .46419273 .5965169 .457194 .56852218 .4506836 .54541018L.29882813 0H.20214844Z"/>
<path id="font_3_72" d="M.42089845 .16699219 .51171877 .15576172C.49739585 .10270182 .47086589 .061523439 .4321289 .032226564 .39339195 .0029296876 .34391276-.01171875 .2836914-.01171875 .20784505-.01171875 .14770508 .01163737 .103271488 .05834961 .05883789 .10506185 .036621095 .17057292 .036621095 .2548828 .036621095 .3421224 .05908203 .40983073 .104003909 .4580078 .14892578 .5061849 .20719402 .53027346 .2788086 .53027346 .34814454 .53027346 .40478517 .5067088 .44873048 .45957948 .49267579 .41246034 .51464846 .34616599 .51464846 .2606964 .51464846 .25549827 .51448568 .247701 .51416018 .23730469H.1274414C.13069661 .1805013 .14680989 .13700359 .17578125 .10681152 .20475261 .07661947 .24088542 .061523439 .2841797 .061523439 .31640626 .061523439 .34391276 .0699056 .36669923 .08666992 .3894857 .10344442 .4075521 .1302185 .42089845 .16699219M.13232422 .31054688H.421875C.41796876 .3534546 .40690104 .38563539 .38867188 .40708924 .3606771 .4403839 .3243815 .45703126 .27978517 .45703126 .23942058 .45703126 .20548503 .44374085 .17797852 .41716004 .150472 .3905894 .1352539 .35505168 .13232422 .31054688Z"/>
<path id="font_3_78" d="M.06640625 0V.7158203H.15429688V.3076172L.3623047 .5185547H.47607423L.27783204 .32617188 .49609376 0H.3876953L.2163086 .26513673 .15429688 .2055664V0H.06640625Z"/>
<path id="font_3_39" d="M.07714844 0V.7158203H.32373048C.37939454 .7158203 .421875 .71240237 .45117188 .7055664 .4921875 .6961263 .52718099 .67903646 .55615237 .6542969 .5939128 .6223958 .6221517 .5816243 .64086917 .5319824 .6595866 .48234049 .6689453 .4256185 .6689453 .3618164 .6689453 .30745445 .66259768 .25927735 .64990237 .21728516 .63720706 .17529297 .62093099 .14054363 .6010742 .11303711 .58121749 .0855306 .55948898 .06388346 .5358887 .048095704 .5122884 .03230794 .48380534 .020345053 .45043946 .012207031 .41707359 .0040690104 .3787435 0 .33544923 0H.07714844M.171875 .084472659H.32470704C.37190757 .084472659 .40893556 .08886719 .43579103 .09765625 .46264649 .10644531 .48404948 .1188151 .5 .13476563 .52246096 .15722656 .5399577 .18741863 .55249026 .2253418 .56502279 .26326499 .57128909 .30924479 .57128909 .36328126 .57128909 .43815104 .5590007 .49568687 .5344238 .5358887 .509847 .5760905 .47998048 .60302737 .44482423 .6166992 .4194336 .62646487 .37858073 .63134768 .32226563 .63134768H.171875V.084472659Z"/>
<path id="font_3_68" d="M.40429688 .06402588C.37174479 .03633626 .34041343 .016789755 .31030274 .0053863527 .28019206-.0060170495 .24788411-.01171875 .2133789-.01171875 .15641277-.01171875 .11263021 .0022074383 .08203125 .030059815 .051432294 .05791219 .036132814 .09350077 .036132814 .13682556 .036132814 .16222637 .04191081 .18542989 .053466798 .20643616 .06502279 .22745259 .08015951 .24431356 .09887695 .25701905 .1175944 .26972453 .13867188 .2793325 .16210938 .2858429 .17936199 .29041038 .20540364 .29480998 .24023438 .29904176 .3111979 .30744425 .363444 .3174642 .39697267 .32910157 .3972982 .34109498 .39746095 .3487142 .39746095 .35195924 .39746095 .38763429 .38916017 .4127655 .3725586 .4273529 .35009767 .44713847 .31673179 .45703126 .27246095 .45703126 .2311198 .45703126 .20060222 .44978843 .1809082 .43530274 .16121419 .42081706 .14664714 .39518229 .13720703 .35839845L.05126953 .3701172C.05908203 .40701295 .0719401 .43680827 .08984375 .45950318 .1077474 .4821981 .1336263 .4996643 .16748047 .51190188 .20133464 .5241496 .24055989 .53027346 .28515626 .53027346 .3294271 .53027346 .36539714 .5250651 .3930664 .51464846 .4207357 .50423178 .44108073 .49112956 .45410157 .4753418 .4671224 .45955406 .47623698 .43961589 .4814453 .41552735 .484375 .40055339 .48583985 .37353517 .48583985 .33447267V.21728516C.48583985 .13557942 .48771159 .08390299 .49145509 .06225586 .49519859 .040608724 .5026042 .019856772 .5136719 0H.421875C.4127604 .018249512 .40690104 .039591474 .40429688 .06402588M.39697267 .2607422C.36507163 .24760945 .31722007 .2364502 .25341798 .2272644 .21728516 .22203572 .19173177 .21615093 .17675781 .20960999 .16178386 .20307923 .15022786 .19351705 .14208985 .18092346 .13395183 .16834004 .12988281 .15436809 .12988281 .13900757 .12988281 .115478519 .13875325 .09586588 .15649414 .08016968 .17423503 .06448364 .20019531 .056640626 .234375 .056640626 .26822917 .056640626 .29833985 .064081829 .32470704 .07896423 .35107423 .09384664 .37044273 .11420695 .3828125 .14004517 .3922526 .16000366 .39697267 .18944295 .39697267 .22836304V.2607422Z"/>
<path id="font_3_92" d="M.06201172-.20019531 .052246095-.11767578C.07145182-.12288412 .08821615-.12548828 .10253906-.12548828 .12207031-.12548828 .13769531-.12219238 .14941406-.115600589 .16113281-.10901896 .17073567-.09979757 .17822266-.0879364 .18375652-.079045619 .19270833-.056981405 .20507813-.021743775 .20670574-.016799927 .20930989-.009552002 .21289063 0L.016113282 .5185547H.110839847L.21875 .21896363C.23274739 .18095906 .24527996 .14101155 .25634767 .099121097 .2664388 .13939412 .27848307 .1786906 .29248048 .2170105L.4033203 .5185547H.49121095L.2939453-.009140015C.27278648-.06614685 .25634767-.105397548 .2446289-.12689209 .2290039-.15588379 .21110027-.17713928 .19091797-.19065857 .17073567-.20417786 .14664714-.2109375 .118652347-.2109375 .10172526-.2109375 .082845058-.20735677 .06201172-.20019531Z"/>
<path id="font_3_48" d="M.07421875 0V.7158203H.21679688L.38623048 .20898438C.40185548 .16178386 .4132487 .12646485 .42041017 .103027347 .4285482 .12906902 .4412435 .1673177 .4584961 .21777344L.6298828 .7158203H.7573242V0H.6660156V.5991211L.4580078 0H.3725586L.16552735 .609375V0H.07421875Z"/>
<path id="font_3_82" d="M.033203126 .25927735C.033203126 .355306 .059895833 .42643229 .11328125 .47265626 .15787761 .5110677 .21223958 .53027346 .2763672 .53027346 .34765626 .53027346 .40592448 .5069173 .45117188 .46020509 .49641929 .41349284 .51904299 .34895835 .51904299 .26660157 .51904299 .1998698 .5090332 .14737956 .48901368 .10913086 .46899415 .070882167 .43986003 .041178388 .40161134 .020019532 .36336265-.0011393229 .3216146-.01171875 .2763672-.01171875 .20377605-.01171875 .1451009 .011555989 .1003418 .05810547 .055582685 .104654949 .033203126 .17171224 .033203126 .25927735M.123535159 .25952149C.123535159 .19335938 .13802083 .14381917 .16699219 .11090088 .19596355 .07798258 .23242188 .061523439 .2763672 .061523439 .31998698 .061523439 .35628257 .078063968 .3852539 .11114502 .41422526 .14422608 .42871095 .19465637 .42871095 .2624359 .42871095 .32632957 .4141439 .3747355 .38500978 .4076538 .35587565 .4405721 .31966148 .45703126 .2763672 .45703126 .23242188 .45703126 .19596355 .44065348 .16699219 .40789796 .13802083 .37514244 .123535159 .3256836 .123535159 .25952149Z"/>
<path id="font_3_87" d="M.2578125 .07763672 .2705078 0C.24576824-.0045572917 .22363281-.0068359377 .20410156-.0068359377 .17220052-.0068359377 .14746094-.0017903646 .12988281 .008300781 .11230469 .018391928 .0999349 .031656904 .09277344 .048095704 .08561198 .06453451 .08203125 .099121097 .08203125 .15185547V.4501953H.017578125V.5185547H.08203125V.6473236L.1694336 .7001953V.5185547H.2578125V.4501953H.1694336V.14697266C.1694336 .121907558 .17097982 .10579427 .17407227 .09863281 .17716472 .09147135 .18221028 .08577474 .18920899 .08154297 .19620769 .077311199 .20621746 .07519531 .21923828 .07519531 .2290039 .07519531 .24186199 .07600912 .2578125 .07763672Z"/>
<path id="font_3_75" d="M.06591797 0V.7158203H.1538086V.45898438C.19482422 .50651046 .24658203 .53027346 .30908204 .53027346 .3474935 .53027346 .38085938 .5227051 .4091797 .50756838 .4375 .49243165 .45776368 .47151695 .4699707 .44482423 .48217774 .4181315 .48828126 .37939454 .48828126 .32861329V0H.40039063V.32861329C.40039063 .3725586 .39086915 .40454103 .37182618 .42456056 .3527832 .44458009 .32584635 .45458985 .29101563 .45458985 .26497398 .45458985 .24047852 .4478353 .2175293 .43432618 .19458008 .42081706 .17822266 .4025065 .16845703 .37939454 .1586914 .35628257 .1538086 .3243815 .1538086 .2836914V0H.06591797Z"/>
<path id="font_3_60" d="M.2788086 0V.30371095L.0029296876 .7158203H.11816406L.25927735 .5003052C.285319 .46000163 .3095703 .4196981 .33203126 .37939454 .35351563 .41677857 .37955729 .45887248 .41015626 .50567629L.5488281 .7158203H.6591797L.37353517 .30371095V0H.2788086Z"/>
<path id="font_3_85" d="M.064941409 0V.5185547H.14404297V.4404297C.16422527 .4770101 .18286133 .50112918 .19995117 .51278689 .21704102 .5244446 .23583985 .53027346 .25634767 .53027346 .28597007 .53027346 .31608073 .520874 .3466797 .5020752L.31640626 .42089845C.29492188 .43359376 .2734375 .4399414 .25195313 .4399414 .23274739 .4399414 .2154948 .43415324 .20019531 .4225769 .18489583 .41101075 .17399089 .3949636 .16748047 .37443543 .15771485 .3431549 .15283203 .3089396 .15283203 .27178956V0H.064941409Z"/>
</defs>
<g clip-path="url(#clip_1)">
<path transform="matrix(.71896418,0,0,.71896418,0,0)" d="M0 0H1313V164H0Z" fill="#ffffff"/>
</g>
<g clip-path="url(#clip_2)">
<path transform="matrix(.71896418,0,0,.71896418,.35948209,.35948209)" d="M31 41H71V121H31Z" fill="#dae8fc"/>
<path transform="matrix(.71896418,0,0,.71896418,.35948209,.35948209)" stroke-width="1" stroke-linecap="butt" stroke-miterlimit="4" stroke-linejoin="miter" fill="none" stroke="#000000" d="M31 41H71V121H31Z"/>
<use data-text=" " xlink:href="#font_3_3" transform="matrix(11.503427,0,0,-11.503427,35.060739,62.54988)"/>
<path transform="matrix(.71896418,0,0,.71896418,.35948209,.35948209)" d="M71 41H111V121H71Z" fill="#dae8fc"/>
<path transform="matrix(.71896418,0,0,.71896418,.35948209,.35948209)" stroke-width="1" stroke-linecap="butt" stroke-miterlimit="4" stroke-linejoin="miter" fill="none" stroke="#000000" d="M71 41H111V121H71Z"/>
<path transform="matrix(.71896418,0,0,.71896418,.35948209,.35948209)" d="M111 41H151V121H111Z" fill="#dae8fc"/>
<path transform="matrix(.71896418,0,0,.71896418,.35948209,.35948209)" stroke-width="1" stroke-linecap="butt" stroke-miterlimit="4" stroke-linejoin="miter" fill="none" stroke="#000000" d="M111 41H151V121H111Z"/>
<path transform="matrix(.71896418,0,0,.71896418,.35948209,.35948209)" d="M151 41H191V121H151Z" fill="#fff2cc"/>
<path transform="matrix(.71896418,0,0,.71896418,.35948209,.35948209)" stroke-width="1" stroke-linecap="butt" stroke-miterlimit="4" stroke-linejoin="miter" fill="none" stroke="#000000" d="M151 41H191V121H151Z"/>
<path transform="matrix(.71896418,0,0,.71896418,.35948209,.35948209)" d="M191 41H231V121H191Z" fill="#fff2cc"/>
<path transform="matrix(.71896418,0,0,.71896418,.35948209,.35948209)" stroke-width="1" stroke-linecap="butt" stroke-miterlimit="4" stroke-linejoin="miter" fill="none" stroke="#000000" d="M191 41H231V121H191Z"/>
<path transform="matrix(.71896418,0,0,.71896418,.35948209,.35948209)" d="M231 41H271V121H231Z" fill="#fff2cc"/>
<path transform="matrix(.71896418,0,0,.71896418,.35948209,.35948209)" stroke-width="1" stroke-linecap="butt" stroke-miterlimit="4" stroke-linejoin="miter" fill="none" stroke="#000000" d="M231 41H271V121H231Z"/>
<path transform="matrix(.71896418,0,0,.71896418,.35948209,.35948209)" d="M271 41H311V121H271Z" fill="#fff2cc"/>
<path transform="matrix(.71896418,0,0,.71896418,.35948209,.35948209)" stroke-width="1" stroke-linecap="butt" stroke-miterlimit="4" stroke-linejoin="miter" fill="none" stroke="#000000" d="M271 41H311V121H271Z"/>
<path transform="matrix(.71896418,0,0,.71896418,.35948209,.35948209)" d="M311 41H351V121H311Z" fill="#fff2cc"/>
<path transform="matrix(.71896418,0,0,.71896418,.35948209,.35948209)" stroke-width="1" stroke-linecap="butt" stroke-miterlimit="4" stroke-linejoin="miter" fill="none" stroke="#000000" d="M311 41H351V121H311Z"/>
<path transform="matrix(.71896418,0,0,.71896418,.35948209,.35948209)" d="M351 41H391V121H351Z" fill="#fff2cc"/>
<path transform="matrix(.71896418,0,0,.71896418,.35948209,.35948209)" stroke-width="1" stroke-linecap="butt" stroke-miterlimit="4" stroke-linejoin="miter" fill="none" stroke="#000000" d="M351 41H391V121H351Z"/>
<path transform="matrix(.71896418,0,0,.71896418,.35948209,.35948209)" d="M391 41H431V121H391Z" fill="#d5e8d4"/>
<path transform="matrix(.71896418,0,0,.71896418,.35948209,.35948209)" stroke-width="1" stroke-linecap="butt" stroke-miterlimit="4" stroke-linejoin="miter" fill="none" stroke="#000000" d="M391 41H431V121H391Z"/>
<path transform="matrix(.71896418,0,0,.71896418,.35948209,.35948209)" d="M431 41H471V121H431Z" fill="#d5e8d4"/>
<path transform="matrix(.71896418,0,0,.71896418,.35948209,.35948209)" stroke-width="1" stroke-linecap="butt" stroke-miterlimit="4" stroke-linejoin="miter" fill="none" stroke="#000000" d="M431 41H471V121H431Z"/>
<path transform="matrix(.71896418,0,0,.71896418,.35948209,.35948209)" d="M471 41H511V121H471Z" fill="#d5e8d4"/>
<path transform="matrix(.71896418,0,0,.71896418,.35948209,.35948209)" stroke-width="1" stroke-linecap="butt" stroke-miterlimit="4" stroke-linejoin="miter" fill="none" stroke="#000000" d="M471 41H511V121H471Z"/>
<path transform="matrix(.71896418,0,0,.71896418,.35948209,.35948209)" d="M511 41H551V121H511Z" fill="#d5e8d4"/>
<path transform="matrix(.71896418,0,0,.71896418,.35948209,.35948209)" stroke-width="1" stroke-linecap="butt" stroke-miterlimit="4" stroke-linejoin="miter" fill="none" stroke="#000000" d="M511 41H551V121H511Z"/>
<path transform="matrix(.71896418,0,0,.71896418,.35948209,.35948209)" d="M551 41H591V121H551Z" fill="#d5e8d4"/>
<path transform="matrix(.71896418,0,0,.71896418,.35948209,.35948209)" stroke-width="1" stroke-linecap="butt" stroke-miterlimit="4" stroke-linejoin="miter" fill="none" stroke="#000000" d="M551 41H591V121H551Z"/>
<path transform="matrix(.71896418,0,0,.71896418,.35948209,.35948209)" d="M591 41H631V121H591Z" fill="#757575"/>
<path transform="matrix(.71896418,0,0,.71896418,.35948209,.35948209)" stroke-width="1" stroke-linecap="butt" stroke-miterlimit="4" stroke-linejoin="miter" fill="none" stroke="#000000" d="M591 41H631V121H591Z"/>
<path transform="matrix(.71896418,0,0,.71896418,.35948209,.35948209)" d="M631 41H671V121H631Z" fill="#757575"/>
<path transform="matrix(.71896418,0,0,.71896418,.35948209,.35948209)" stroke-width="1" stroke-linecap="butt" stroke-miterlimit="4" stroke-linejoin="miter" fill="none" stroke="#000000" d="M631 41H671V121H631Z"/>
<path transform="matrix(.71896418,0,0,.71896418,.35948209,.35948209)" d="M671 41H711V121H671Z" fill="#e1d5e7"/>
<path transform="matrix(.71896418,0,0,.71896418,.35948209,.35948209)" stroke-width="1" stroke-linecap="butt" stroke-miterlimit="4" stroke-linejoin="miter" fill="none" stroke="#000000" d="M671 41H711V121H671Z"/>
<path transform="matrix(.71896418,0,0,.71896418,.35948209,.35948209)" d="M711 41H751V121H711Z" fill="#e1d5e7"/>
<path transform="matrix(.71896418,0,0,.71896418,.35948209,.35948209)" stroke-width="1" stroke-linecap="butt" stroke-miterlimit="4" stroke-linejoin="miter" fill="none" stroke="#000000" d="M711 41H751V121H711Z"/>
<path transform="matrix(.71896418,0,0,.71896418,.35948209,.35948209)" d="M751 41H791V121H751Z" fill="#e1d5e7"/>
<path transform="matrix(.71896418,0,0,.71896418,.35948209,.35948209)" stroke-width="1" stroke-linecap="butt" stroke-miterlimit="4" stroke-linejoin="miter" fill="none" stroke="#000000" d="M751 41H791V121H751Z"/>
<path transform="matrix(.71896418,0,0,.71896418,.35948209,.35948209)" d="M791 41H831V121H791Z" fill="#e1d5e7"/>
<path transform="matrix(.71896418,0,0,.71896418,.35948209,.35948209)" stroke-width="1" stroke-linecap="butt" stroke-miterlimit="4" stroke-linejoin="miter" fill="none" stroke="#000000" d="M791 41H831V121H791Z"/>
<path transform="matrix(.71896418,0,0,.71896418,.35948209,.35948209)" d="M831 41H871V121H831Z" fill="#e1d5e7"/>
<path transform="matrix(.71896418,0,0,.71896418,.35948209,.35948209)" stroke-width="1" stroke-linecap="butt" stroke-miterlimit="4" stroke-linejoin="miter" fill="none" stroke="#000000" d="M831 41H871V121H831Z"/>
<path transform="matrix(.71896418,0,0,.71896418,.35948209,.35948209)" d="M871 41H911V121H871Z" fill="#e1d5e7"/>
<path transform="matrix(.71896418,0,0,.71896418,.35948209,.35948209)" stroke-width="1" stroke-linecap="butt" stroke-miterlimit="4" stroke-linejoin="miter" fill="none" stroke="#000000" d="M871 41H911V121H871Z"/>
<path transform="matrix(.71896418,0,0,.71896418,.35948209,.35948209)" d="M911 41H951V121H911Z" fill="#e1d5e7"/>
<path transform="matrix(.71896418,0,0,.71896418,.35948209,.35948209)" stroke-width="1" stroke-linecap="butt" stroke-miterlimit="4" stroke-linejoin="miter" fill="none" stroke="#000000" d="M911 41H951V121H911Z"/>
<path transform="matrix(.71896418,0,0,.71896418,.35948209,.35948209)" d="M951 41H991V121H951Z" fill="#e1d5e7"/>
<path transform="matrix(.71896418,0,0,.71896418,.35948209,.35948209)" stroke-width="1" stroke-linecap="butt" stroke-miterlimit="4" stroke-linejoin="miter" fill="none" stroke="#000000" d="M951 41H991V121H951Z"/>
<path transform="matrix(.71896418,0,0,.71896418,.35948209,.35948209)" d="M991 41H1031V121H991Z" fill="#757575"/>
<path transform="matrix(.71896418,0,0,.71896418,.35948209,.35948209)" stroke-width="1" stroke-linecap="butt" stroke-miterlimit="4" stroke-linejoin="miter" fill="none" stroke="#000000" d="M991 41H1031V121H991Z"/>
<path transform="matrix(.71896418,0,0,.71896418,.35948209,.35948209)" d="M1031 41H1071V121H1031Z" fill="#757575"/>
<path transform="matrix(.71896418,0,0,.71896418,.35948209,.35948209)" stroke-width="1" stroke-linecap="butt" stroke-miterlimit="4" stroke-linejoin="miter" fill="none" stroke="#000000" d="M1031 41H1071V121H1031Z"/>
<path transform="matrix(.71896418,0,0,.71896418,.35948209,.35948209)" d="M1071 41H1111V121H1071Z" fill="#757575"/>
<path transform="matrix(.71896418,0,0,.71896418,.35948209,.35948209)" stroke-width="1" stroke-linecap="butt" stroke-miterlimit="4" stroke-linejoin="miter" fill="none" stroke="#000000" d="M1071 41H1111V121H1071Z"/>
<path transform="matrix(.71896418,0,0,.71896418,.35948209,.35948209)" d="M1111 41H1151V121H1111Z" fill="#757575"/>
<path transform="matrix(.71896418,0,0,.71896418,.35948209,.35948209)" stroke-width="1" stroke-linecap="butt" stroke-miterlimit="4" stroke-linejoin="miter" fill="none" stroke="#000000" d="M1111 41H1151V121H1111Z"/>
<path transform="matrix(.71896418,0,0,.71896418,.35948209,.35948209)" d="M1151 41H1191V121H1151Z" fill="#757575"/>
<path transform="matrix(.71896418,0,0,.71896418,.35948209,.35948209)" stroke-width="1" stroke-linecap="butt" stroke-miterlimit="4" stroke-linejoin="miter" fill="none" stroke="#000000" d="M1151 41H1191V121H1151Z"/>
<path transform="matrix(.71896418,0,0,.71896418,.35948209,.35948209)" d="M1191 41H1231V121H1191Z" fill="#757575"/>
<path transform="matrix(.71896418,0,0,.71896418,.35948209,.35948209)" stroke-width="1" stroke-linecap="butt" stroke-miterlimit="4" stroke-linejoin="miter" fill="none" stroke="#000000" d="M1191 41H1231V121H1191Z"/>
<path transform="matrix(.71896418,0,0,.71896418,.35948209,.35948209)" d="M1231 41H1271V121H1231Z" fill="#757575"/>
<path transform="matrix(.71896418,0,0,.71896418,.35948209,.35948209)" stroke-width="1" stroke-linecap="butt" stroke-miterlimit="4" stroke-linejoin="miter" fill="none" stroke="#000000" d="M1231 41H1271V121H1231Z"/>
<path transform="matrix(.71896418,0,0,.71896418,.35948209,.35948209)" d="M1271 41H1311V121H1271Z" fill="#757575"/>
<path transform="matrix(.71896418,0,0,.71896418,.35948209,.35948209)" stroke-width="1" stroke-linecap="butt" stroke-miterlimit="4" stroke-linejoin="miter" fill="none" stroke="#000000" d="M1271 41H1311V121H1271Z"/>
<use data-text="n" xlink:href="#font_3_81" transform="matrix(11.503427,0,0,-11.503427,8.998286,15.817211)"/>
<use data-text="W" xlink:href="#font_3_58" transform="matrix(11.503427,0,0,-11.503427,15.394191,15.817211)"/>
<use data-text="e" xlink:href="#font_3_72" transform="matrix(11.503427,0,0,-11.503427,26.0456,15.817211)"/>
<use data-text="e" xlink:href="#font_3_72" transform="matrix(11.503427,0,0,-11.503427,32.441507,15.817211)"/>
<use data-text="k" xlink:href="#font_3_78" transform="matrix(11.503427,0,0,-11.503427,38.83741,15.817211)"/>
<use data-text="D" xlink:href="#font_3_39" transform="matrix(11.503427,0,0,-11.503427,44.589124,15.817211)"/>
<use data-text="a" xlink:href="#font_3_68" transform="matrix(11.503427,0,0,-11.503427,52.8946,15.817211)"/>
<use data-text="y" xlink:href="#font_3_92" transform="matrix(11.503427,0,0,-11.503427,59.29051,15.817211)"/>
<use data-text="n" xlink:href="#font_3_81" transform="matrix(11.503427,0,0,-11.503427,165.78864,109.282558)"/>
<use data-text="M" xlink:href="#font_3_48" transform="matrix(11.503427,0,0,-11.503427,172.18454,109.282558)"/>
<use data-text="o" xlink:href="#font_3_82" transform="matrix(11.503427,0,0,-11.503427,181.7669,109.282558)"/>
<use data-text="n" xlink:href="#font_3_81" transform="matrix(11.503427,0,0,-11.503427,188.1628,109.282558)"/>
<use data-text="t" xlink:href="#font_3_87" transform="matrix(11.503427,0,0,-11.503427,194.5587,109.282558)"/>
<use data-text="h" xlink:href="#font_3_75" transform="matrix(11.503427,0,0,-11.503427,197.75666,109.282558)"/>
<use data-text="D" xlink:href="#font_3_39" transform="matrix(11.503427,0,0,-11.503427,204.15256,109.282558)"/>
<use data-text="a" xlink:href="#font_3_68" transform="matrix(11.503427,0,0,-11.503427,212.45804,109.282558)"/>
<use data-text="y" xlink:href="#font_3_92" transform="matrix(11.503427,0,0,-11.503427,218.85395,109.282558)"/>
<use data-text="n" xlink:href="#font_3_81" transform="matrix(11.503427,0,0,-11.503427,334.18354,15.817211)"/>
<use data-text="M" xlink:href="#font_3_48" transform="matrix(11.503427,0,0,-11.503427,340.57945,15.817211)"/>
<use data-text="o" xlink:href="#font_3_82" transform="matrix(11.503427,0,0,-11.503427,350.16178,15.817211)"/>
<use data-text="n" xlink:href="#font_3_81" transform="matrix(11.503427,0,0,-11.503427,356.55769,15.817211)"/>
<use data-text="t" xlink:href="#font_3_87" transform="matrix(11.503427,0,0,-11.503427,362.95359,15.817211)"/>
<use data-text="h" xlink:href="#font_3_75" transform="matrix(11.503427,0,0,-11.503427,366.15156,15.817211)"/>
<use data-text="n" xlink:href="#font_3_81" transform="matrix(11.503427,0,0,-11.503427,583.0013,109.282558)"/>
<use data-text="Y" xlink:href="#font_3_60" transform="matrix(11.503427,0,0,-11.503427,589.3972,109.282558)"/>
<use data-text="e" xlink:href="#font_3_72" transform="matrix(11.503427,0,0,-11.503427,596.0157,109.282558)"/>
<use data-text="a" xlink:href="#font_3_68" transform="matrix(11.503427,0,0,-11.503427,602.41159,109.282558)"/>
<use data-text="r" xlink:href="#font_3_85" transform="matrix(11.503427,0,0,-11.503427,608.8075,109.282558)"/>
</g>
</svg>
