<svg xmlns="http://www.w3.org/2000/svg" xmlns:xlink="http://www.w3.org/1999/xlink" xmlns:inkscape="http://www.inkscape.org/namespaces/inkscape" version="1.1" width="262.08" height="120.96" viewBox="0 0 262.08 120.96">
<defs>
<clipPath id="clip_1">
<path transform="matrix(.24,0,0,.24,0,0)" d="M0 0H1091.6666V502.46577H0Z" clip-rule="evenodd"/>
</clipPath>
<clipPath id="clip_2">
<path transform="matrix(.24,0,0,.24,0,0)" d="M0 0H1091.6666V496.484H0Z" clip-rule="evenodd"/>
</clipPath>
<clipPath id="clip_3">
<path transform="matrix(.24,0,0,.24,1.68,2.3999999)" d="M0 0H1084V485H0Z" clip-rule="evenodd"/>
</clipPath>
<clipPath id="clip_4">
<path transform="matrix(.24,0,0,.24,16.08,45.36)" d="M0 0H246V127H0Z" clip-rule="evenodd"/>
</clipPath>
<clipPath id="clip_5">
<path transform="matrix(.24,0,0,.24,87.84,45.36)" d="M0 0H246V127H0Z" clip-rule="evenodd"/>
</clipPath>
<clipPath id="clip_6">
<path transform="matrix(.24,0,0,.24,188.4,45.36)" d="M0 0H246V127H0Z" clip-rule="evenodd"/>
</clipPath>
<clipPath id="clip_7">
<path transform="matrix(.24,0,0,.24,16.08,81.36)" d="M0 0H126V127H0Z" clip-rule="evenodd"/>
</clipPath>
<clipPath id="clip_8">
<path transform="matrix(.24,0,0,.24,0,0)" d="M466.57536 62.80822H619.1096V125.61644H466.57536Z" clip-rule="evenodd"/>
</clipPath>
<clipPath id="clip_9">
<path transform="matrix(.24,0,0,.24,0,0)" d="M113.65297 218.33335H254.22374V269.1781H113.65297Z" clip-rule="evenodd"/>
</clipPath>
<clipPath id="clip_10">
<path transform="matrix(.24,0,0,.24,0,0)" d="M412.73976 218.33335H553.31057V269.1781H412.73976Z" clip-rule="evenodd"/>
</clipPath>
<clipPath id="clip_11">
<path transform="matrix(.24,0,0,.24,0,0)" d="M831.4612 218.33335H972.032V269.1781H831.4612Z" clip-rule="evenodd"/>
</clipPath>
<clipPath id="clip_12">
<path transform="matrix(.24,0,0,.24,0,0)" d="M0 0H1091.6666V496.484H0Z" clip-rule="evenodd"/>
</clipPath>
<clipPath id="clip_13">
<path transform="matrix(.24,0,0,.24,59.039999,81.36)" d="M0 0H127V127H0Z" clip-rule="evenodd"/>
</clipPath>
<clipPath id="clip_14">
<path transform="matrix(.24,0,0,.24,216.95999,81.36)" d="M0 0H127V127H0Z" clip-rule="evenodd"/>
</clipPath>
</defs>
<g>
<g clip-path="url(#clip_1)">
<path transform="matrix(.7178082,0,0,.7178082,0,0)" d="M0 0H365V168H0Z" fill="#ffffff"/>
</g>
<g clip-path="url(#clip_2)">
<g opacity=".2471">
<g clip-path="url(#clip_3)">
<path transform="matrix(.7178082,0,0,.7178082,1.7945205,2.5123287)" d="M1 1H361V161H1Z"/>
<path transform="matrix(.7178082,0,0,.7178082,1.7945205,2.5123287)" stroke-width="1" stroke-linecap="butt" stroke-miterlimit="4" stroke-linejoin="miter" fill="none" stroke="#000000" d="M1 1H361V161H1Z"/>
</g>
</g>
<path transform="matrix(.7178082,0,0,.7178082,.3589041,.3589041)" d="M1 1H361V161H1Z" fill="#fff2cc"/>
<path transform="matrix(.7178082,0,0,.7178082,.3589041,.3589041)" stroke-width="1" stroke-linecap="butt" stroke-miterlimit="4" stroke-linejoin="miter" fill="none" stroke="#d6b656" d="M1 1H361V161H1Z"/>
<g opacity=".2471">
<g clip-path="url(#clip_4)">
<path transform="matrix(.7178082,0,0,.7178082,1.7945204,2.512329)" d="M21 61H101V101H21Z"/>
<path transform="matrix(.7178082,0,0,.7178082,1.7945204,2.512329)" stroke-width="1" stroke-linecap="butt" stroke-miterlimit="4" stroke-linejoin="miter" fill="none" stroke="#000000" d="M21 61H101V101H21Z"/>
</g>
</g>
<path transform="matrix(.7178082,0,0,.7178082,.3589041,.3589041)" d="M21 61H101V101H21Z" fill="#fff2cc"/>
<path transform="matrix(.7178082,0,0,.7178082,.3589041,.3589041)" stroke-width="1" stroke-linecap="butt" stroke-miterlimit="4" stroke-linejoin="miter" fill="none" stroke="#d6b656" d="M21 61H101V101H21Z"/>
<g opacity=".2471">
<g clip-path="url(#clip_5)">
<path transform="matrix(.7178082,0,0,.7178082,1.7945175,2.512329)" d="M121 61H201V101H121Z"/>
<path transform="matrix(.7178082,0,0,.7178082,1.7945175,2.512329)" stroke-width="1" stroke-linecap="butt" stroke-miterlimit="4" stroke-linejoin="miter" fill="none" stroke="#000000" d="M121 61H201V101H121Z"/>
</g>
</g>
<path transform="matrix(.7178082,0,0,.7178082,.3589041,.3589041)" d="M121 61H201V101H121Z" fill="#fff2cc"/>
<path transform="matrix(.7178082,0,0,.7178082,.3589041,.3589041)" stroke-width="1" stroke-linecap="butt" stroke-miterlimit="4" stroke-linejoin="miter" fill="none" stroke="#d6b656" d="M121 61H201V101H121Z"/>
<g opacity=".2471">
<g clip-path="url(#clip_6)">
<path transform="matrix(.7178082,0,0,.7178082,1.7945252,2.512329)" d="M261 61H341V101H261Z"/>
<path transform="matrix(.7178082,0,0,.7178082,1.7945252,2.512329)" stroke-width="1" stroke-linecap="butt" stroke-miterlimit="4" stroke-linejoin="miter" fill="none" stroke="#000000" d="M261 61H341V101H261Z"/>
</g>
</g>
<path transform="matrix(.7178082,0,0,.7178082,.3589041,.3589041)" d="M261 61H341V101H261Z" fill="#fff2cc"/>
<path transform="matrix(.7178082,0,0,.7178082,.3589041,.3589041)" stroke-width="1" stroke-linecap="butt" stroke-miterlimit="4" stroke-linejoin="miter" fill="none" stroke="#d6b656" d="M261 61H341V101H261Z"/>
<g opacity=".2471">
<g clip-path="url(#clip_7)">
<path transform="matrix(.7178082,0,0,.7178082,1.7945204,2.5123368)" d="M21 111H61V151H21Z"/>
<path transform="matrix(.7178082,0,0,.7178082,1.7945204,2.5123368)" stroke-width="1" stroke-linecap="butt" stroke-miterlimit="4" stroke-linejoin="miter" fill="none" stroke="#000000" d="M21 111H61V151H21Z"/>
</g>
</g>
<path transform="matrix(.7178082,0,0,.7178082,.3589041,.3589041)" d="M21 111H61V151H21Z" fill="#dae8fc"/>
<path transform="matrix(.7178082,0,0,.7178082,.3589041,.3589041)" stroke-width="1" stroke-linecap="butt" stroke-miterlimit="4" stroke-linejoin="miter" fill="none" stroke="#6c8ebf" d="M21 111H61V151H21Z"/>
</g>
<g clip-path="url(#clip_8)">
<path transform="matrix(.012768444,0,0,-.012931262,111.98501,25.830197)" d="M287 628C287 632.6667 268 635.6667 230 637 214 637 203.66667 637.3333 199 638 194.33333 638.6667 192 642 192 648 192 648.6667 192.66667 652.3333 194 659 198 672.3333 201 679.6667 203 681 205 682.3333 269.66667 683 397 683 523.6667 682.3333 591.3333 681.3333 600 680 642.6667 672.6667 678.3333 656.3333 707 631 735.6667 605.6667 750.3333 572 751 530 751 478.66667 729 431.66667 685 389 639 343.66667 579.6667 315 507 303 502.33335 302.33335 467.33335 301.66667 402 301H307L277 182C257 104.666667 247 63.666669 247 59 247 56.333333 247.33333 54.666669 248 54 248.66667 53.333333 251 52 255 50 259 48 264.66667 47.333333 272 48 279.33335 48.666669 290.33335 48 305 46H336C340 40 342 36.333333 342 35 342 24.333333 339.66667 14.333334 335 5 331.66667 1.6666665 326.33335 0 319 0 317 0 304.66667 .3333333 282 1 259.33335 1.6666668 226 2 182 2 140.66666 2 109 2 87 2 65 2 53 1.6666668 51 1 39 1 33 4.333333 33 11 33 12.333333 34 17 36 25 38.666669 35.666669 41.333333 41.666669 44 43 46.666669 44.333333 54.333333 45.333333 67 46 85 46 105 47 127 49 136.33333 51 142.66667 55 146 61 148 63.666669 172 156.33333 218 339 264 521.6667 287 618 287 628ZM645 554C645 562.6667 644.3333 569.6667 643 575 641.6667 580.3333 638.6667 587.6667 634 597 629.3333 606.3333 621 613.6667 609 619 597 624.3333 580.6667 629.6667 560 635 555.3333 635.6667 528.6667 636.3333 480 637 468.66667 637 457 637 445 637 433 637 423.33335 636.6667 416 636 408.66667 635.3333 404.66667 635.3333 404 636 395.33335 635.3333 389.33335 632.3333 386 627 384.66667 623 378.33335 597.3333 367 550 355.66667 502.66667 344 456.66667 332 412 320 367.33335 314 344.66667 314 344 314 342.66667 341 342 395 342H407 430C504.6667 342 558 358.66667 590 392 608 410 621.6667 436.33335 631 471 640.3333 505.66667 645 533.3333 645 554Z"/>
<path transform="matrix(.012768444,0,0,-.012931262,111.98501,25.830197)" stroke-width="0" stroke-linecap="butt" stroke-miterlimit="4" stroke-linejoin="miter" fill="none" stroke="#000000" stroke-opacity=".0118" d="M287 628C287 632.6667 268 635.6667 230 637 214 637 203.66667 637.3333 199 638 194.33333 638.6667 192 642 192 648 192 648.6667 192.66667 652.3333 194 659 198 672.3333 201 679.6667 203 681 205 682.3333 269.66667 683 397 683 523.6667 682.3333 591.3333 681.3333 600 680 642.6667 672.6667 678.3333 656.3333 707 631 735.6667 605.6667 750.3333 572 751 530 751 478.66667 729 431.66667 685 389 639 343.66667 579.6667 315 507 303 502.33335 302.33335 467.33335 301.66667 402 301H307L277 182C257 104.666667 247 63.666669 247 59 247 56.333333 247.33333 54.666669 248 54 248.66667 53.333333 251 52 255 50 259 48 264.66667 47.333333 272 48 279.33335 48.666669 290.33335 48 305 46H336C340 40 342 36.333333 342 35 342 24.333333 339.66667 14.333334 335 5 331.66667 1.6666665 326.33335 0 319 0 317 0 304.66667 .3333333 282 1 259.33335 1.6666668 226 2 182 2 140.66666 2 109 2 87 2 65 2 53 1.6666668 51 1 39 1 33 4.333333 33 11 33 12.333333 34 17 36 25 38.666669 35.666669 41.333333 41.666669 44 43 46.666669 44.333333 54.333333 45.333333 67 46 85 46 105 47 127 49 136.33333 51 142.66667 55 146 61 148 63.666669 172 156.33333 218 339 264 521.6667 287 618 287 628ZM645 554C645 562.6667 644.3333 569.6667 643 575 641.6667 580.3333 638.6667 587.6667 634 597 629.3333 606.3333 621 613.6667 609 619 597 624.3333 580.6667 629.6667 560 635 555.3333 635.6667 528.6667 636.3333 480 637 468.66667 637 457 637 445 637 433 637 423.33335 636.6667 416 636 408.66667 635.3333 404.66667 635.3333 404 636 395.33335 635.3333 389.33335 632.3333 386 627 384.66667 623 378.33335 597.3333 367 550 355.66667 502.66667 344 456.66667 332 412 320 367.33335 314 344.66667 314 344 314 342.66667 341 342 395 342H407 430C504.6667 342 558 358.66667 590 392 608 410 621.6667 436.33335 631 471 640.3333 505.66667 645 533.3333 645 554Z"/>
<path transform="matrix(.012768444,0,0,-.012931262,121.57411,25.830197)" d="M94 250C94 296 97.333339 339.66667 104 381 110.666667 422.33335 118.333339 458 127 488 135.66667 518 148 547.3333 164 576 180 604.6667 192.66667 627 202 643 211.33333 659 225.33333 676.3333 244 695 262.66667 713.6667 273.66667 725 277 729 280.33335 733 288.66667 740 302 750H315 319C328.33335 750 333 747 333 741 333 739 327.33335 732 316 720 304.66667 708 291 690.3333 275 667 259 643.6667 242.66667 615 226 581 209.33333 547 195.33333 501 184 443 172.66667 385 167 320.6667 167 250 167 179.33333 172.66667 115.333339 184 58 195.33333 .6666641 209-45.666666 225-81 241-116.333339 257.33335-145 274-167 290.66667-189 304.66667-206.66667 316-220 327.33335-233.33333 333-240.33333 333-241 333-247 328-250 318-250H315 302L274-226C211.33333-169.33333 165.66667-98.66667 137-14 108.33333 70.66667 94 158.66666 94 250Z"/>
<path transform="matrix(.012768444,0,0,-.012931262,121.57411,25.830197)" stroke-width="0" stroke-linecap="butt" stroke-miterlimit="4" stroke-linejoin="miter" fill="none" stroke="#000000" stroke-opacity=".0118" d="M94 250C94 296 97.333339 339.66667 104 381 110.666667 422.33335 118.333339 458 127 488 135.66667 518 148 547.3333 164 576 180 604.6667 192.66667 627 202 643 211.33333 659 225.33333 676.3333 244 695 262.66667 713.6667 273.66667 725 277 729 280.33335 733 288.66667 740 302 750H315 319C328.33335 750 333 747 333 741 333 739 327.33335 732 316 720 304.66667 708 291 690.3333 275 667 259 643.6667 242.66667 615 226 581 209.33333 547 195.33333 501 184 443 172.66667 385 167 320.6667 167 250 167 179.33333 172.66667 115.333339 184 58 195.33333 .6666641 209-45.666666 225-81 241-116.333339 257.33335-145 274-167 290.66667-189 304.66667-206.66667 316-220 327.33335-233.33333 333-240.33333 333-241 333-247 328-250 318-250H315 302L274-226C211.33333-169.33333 165.66667-98.66667 137-14 108.33333 70.66667 94 158.66666 94 250Z"/>
<path transform="matrix(.012768444,0,0,-.012931262,126.55381,25.830197)" d="M78 60C78 76 83.666667 90 95 102 106.333339 114 120.666667 120 138 120 154 120 168 114.666667 180 104 192 93.333339 198.33333 79 199 61 199 44.333333 193.33333 30 182 18 170.66667 6 156.33333 0 139 0 121.666667 0 107.333339 5.666666 96 17 84.666667 28.333334 78.666667 42.666666 78 60Z"/>
<path transform="matrix(.012768444,0,0,-.012931262,126.55381,25.830197)" stroke-width="0" stroke-linecap="butt" stroke-miterlimit="4" stroke-linejoin="miter" fill="none" stroke="#000000" stroke-opacity=".0118" d="M78 60C78 76 83.666667 90 95 102 106.333339 114 120.666667 120 138 120 154 120 168 114.666667 180 104 192 93.333339 198.33333 79 199 61 199 44.333333 193.33333 30 182 18 170.66667 6 156.33333 0 139 0 121.666667 0 107.333339 5.666666 96 17 84.666667 28.333334 78.666667 42.666666 78 60Z"/>
<path transform="matrix(.012768444,0,0,-.012931262,132.23577,25.830197)" d="M78 60C78 76 83.666667 90 95 102 106.333339 114 120.666667 120 138 120 154 120 168 114.666667 180 104 192 93.333339 198.33333 79 199 61 199 44.333333 193.33333 30 182 18 170.66667 6 156.33333 0 139 0 121.666667 0 107.333339 5.666666 96 17 84.666667 28.333334 78.666667 42.666666 78 60Z"/>
<path transform="matrix(.012768444,0,0,-.012931262,132.23577,25.830197)" stroke-width="0" stroke-linecap="butt" stroke-miterlimit="4" stroke-linejoin="miter" fill="none" stroke="#000000" stroke-opacity=".0118" d="M78 60C78 76 83.666667 90 95 102 106.333339 114 120.666667 120 138 120 154 120 168 114.666667 180 104 192 93.333339 198.33333 79 199 61 199 44.333333 193.33333 30 182 18 170.66667 6 156.33333 0 139 0 121.666667 0 107.333339 5.666666 96 17 84.666667 28.333334 78.666667 42.666666 78 60Z"/>
<path transform="matrix(.012768444,0,0,-.012931262,137.91771,25.830197)" d="M78 60C78 76 83.666667 90 95 102 106.333339 114 120.666667 120 138 120 154 120 168 114.666667 180 104 192 93.333339 198.33333 79 199 61 199 44.333333 193.33333 30 182 18 170.66667 6 156.33333 0 139 0 121.666667 0 107.333339 5.666666 96 17 84.666667 28.333334 78.666667 42.666666 78 60Z"/>
<path transform="matrix(.012768444,0,0,-.012931262,137.91771,25.830197)" stroke-width="0" stroke-linecap="butt" stroke-miterlimit="4" stroke-linejoin="miter" fill="none" stroke="#000000" stroke-opacity=".0118" d="M78 60C78 76 83.666667 90 95 102 106.333339 114 120.666667 120 138 120 154 120 168 114.666667 180 104 192 93.333339 198.33333 79 199 61 199 44.333333 193.33333 30 182 18 170.66667 6 156.33333 0 139 0 121.666667 0 107.333339 5.666666 96 17 84.666667 28.333334 78.666667 42.666666 78 60Z"/>
<path transform="matrix(.012768444,0,0,-.012931262,143.59969,25.830197)" d="M60 749 64 750C67.333339 750 70.666667 750 74 750H86L114 726C176.66667 669.3333 222.33333 598.6667 251 514 279.66667 429.3333 294 341.33335 294 250 294 204.66666 290.66667 161 284 119 277.33335 77 269.66667 41.333337 261 12 252.33333-17.333334 240-46.666666 224-76 208-105.333339 195.33333-127.666667 186-143 176.66667-158.33333 163-175.33333 145-194 127-212.66667 116.333339-223.66667 113-227 109.666667-230.33333 102-236.66667 90-246 88-248 86.666667-249.33333 86-250H74C68.666667-250 65-250 63-250 61-250 59.333333-249 58-247 56.666669-245 55.666669-242 55-238 55.666669-237.33333 59.333333-233 66-225 169.33335-117.666667 221 40.666658 221 250 221 459.33335 169.33335 617.6667 66 725 59.333333 733 55.666669 737.3333 55 738 55 743.3333 56.666669 747 60 749Z"/>
<path transform="matrix(.012768444,0,0,-.012931262,143.59969,25.830197)" stroke-width="0" stroke-linecap="butt" stroke-miterlimit="4" stroke-linejoin="miter" fill="none" stroke="#000000" stroke-opacity=".0118" d="M60 749 64 750C67.333339 750 70.666667 750 74 750H86L114 726C176.66667 669.3333 222.33333 598.6667 251 514 279.66667 429.3333 294 341.33335 294 250 294 204.66666 290.66667 161 284 119 277.33335 77 269.66667 41.333337 261 12 252.33333-17.333334 240-46.666666 224-76 208-105.333339 195.33333-127.666667 186-143 176.66667-158.33333 163-175.33333 145-194 127-212.66667 116.333339-223.66667 113-227 109.666667-230.33333 102-236.66667 90-246 88-248 86.666667-249.33333 86-250H74C68.666667-250 65-250 63-250 61-250 59.333333-249 58-247 56.666669-245 55.666669-242 55-238 55.666669-237.33333 59.333333-233 66-225 169.33335-117.666667 221 40.666658 221 250 221 459.33335 169.33335 617.6667 66 725 59.333333 733 55.666669 737.3333 55 738 55 743.3333 56.666669 747 60 749Z"/>
</g>
<g clip-path="url(#clip_9)">
<path transform="matrix(.010507019,0,0,-.010355249,27.276713,61.00527)" d="M287 628C287 632.6667 268 635.6667 230 637 214 637 203.66667 637.3333 199 638 194.33333 638.6667 192 642 192 648 192 648.6667 192.66667 652.3333 194 659 198 672.3333 201 679.6667 203 681 205 682.3333 269.66667 683 397 683 523.6667 682.3333 591.3333 681.3333 600 680 642.6667 672.6667 678.3333 656.3333 707 631 735.6667 605.6667 750.3333 572 751 530 751 478.66667 729 431.66667 685 389 639 343.66667 579.6667 315 507 303 502.33335 302.33335 467.33335 301.66667 402 301H307L277 182C257 104.666667 247 63.666669 247 59 247 56.333333 247.33333 54.666669 248 54 248.66667 53.333333 251 52 255 50 259 48 264.66667 47.333333 272 48 279.33335 48.666669 290.33335 48 305 46H336C340 40 342 36.333333 342 35 342 24.333333 339.66667 14.333334 335 5 331.66667 1.6666665 326.33335 0 319 0 317 0 304.66667 .3333333 282 1 259.33335 1.6666668 226 2 182 2 140.66666 2 109 2 87 2 65 2 53 1.6666668 51 1 39 1 33 4.333333 33 11 33 12.333333 34 17 36 25 38.666669 35.666669 41.333333 41.666669 44 43 46.666669 44.333333 54.333333 45.333333 67 46 85 46 105 47 127 49 136.33333 51 142.66667 55 146 61 148 63.666669 172 156.33333 218 339 264 521.6667 287 618 287 628ZM645 554C645 562.6667 644.3333 569.6667 643 575 641.6667 580.3333 638.6667 587.6667 634 597 629.3333 606.3333 621 613.6667 609 619 597 624.3333 580.6667 629.6667 560 635 555.3333 635.6667 528.6667 636.3333 480 637 468.66667 637 457 637 445 637 433 637 423.33335 636.6667 416 636 408.66667 635.3333 404.66667 635.3333 404 636 395.33335 635.3333 389.33335 632.3333 386 627 384.66667 623 378.33335 597.3333 367 550 355.66667 502.66667 344 456.66667 332 412 320 367.33335 314 344.66667 314 344 314 342.66667 341 342 395 342H407 430C504.6667 342 558 358.66667 590 392 608 410 621.6667 436.33335 631 471 640.3333 505.66667 645 533.3333 645 554Z"/>
<path transform="matrix(.010507019,0,0,-.010355249,27.276713,61.00527)" stroke-width="0" stroke-linecap="butt" stroke-miterlimit="4" stroke-linejoin="miter" fill="none" stroke="#000000" stroke-opacity=".0118" d="M287 628C287 632.6667 268 635.6667 230 637 214 637 203.66667 637.3333 199 638 194.33333 638.6667 192 642 192 648 192 648.6667 192.66667 652.3333 194 659 198 672.3333 201 679.6667 203 681 205 682.3333 269.66667 683 397 683 523.6667 682.3333 591.3333 681.3333 600 680 642.6667 672.6667 678.3333 656.3333 707 631 735.6667 605.6667 750.3333 572 751 530 751 478.66667 729 431.66667 685 389 639 343.66667 579.6667 315 507 303 502.33335 302.33335 467.33335 301.66667 402 301H307L277 182C257 104.666667 247 63.666669 247 59 247 56.333333 247.33333 54.666669 248 54 248.66667 53.333333 251 52 255 50 259 48 264.66667 47.333333 272 48 279.33335 48.666669 290.33335 48 305 46H336C340 40 342 36.333333 342 35 342 24.333333 339.66667 14.333334 335 5 331.66667 1.6666665 326.33335 0 319 0 317 0 304.66667 .3333333 282 1 259.33335 1.6666668 226 2 182 2 140.66666 2 109 2 87 2 65 2 53 1.6666668 51 1 39 1 33 4.333333 33 11 33 12.333333 34 17 36 25 38.666669 35.666669 41.333333 41.666669 44 43 46.666669 44.333333 54.333333 45.333333 67 46 85 46 105 47 127 49 136.33333 51 142.66667 55 146 61 148 63.666669 172 156.33333 218 339 264 521.6667 287 618 287 628ZM645 554C645 562.6667 644.3333 569.6667 643 575 641.6667 580.3333 638.6667 587.6667 634 597 629.3333 606.3333 621 613.6667 609 619 597 624.3333 580.6667 629.6667 560 635 555.3333 635.6667 528.6667 636.3333 480 637 468.66667 637 457 637 445 637 433 637 423.33335 636.6667 416 636 408.66667 635.3333 404.66667 635.3333 404 636 395.33335 635.3333 389.33335 632.3333 386 627 384.66667 623 378.33335 597.3333 367 550 355.66667 502.66667 344 456.66667 332 412 320 367.33335 314 344.66667 314 344 314 342.66667 341 342 395 342H407 430C504.6667 342 558 358.66667 590 392 608 410 621.6667 436.33335 631 471 640.3333 505.66667 645 533.3333 645 554Z"/>
<path transform="matrix(.0074284628,0,0,-.0073211609,34.022218,62.55856)" d="M213 578 200 573C190.66667 569.6667 177.33333 566.3333 160 563 142.66667 559.6667 123.333339 557.3333 102 556H83V602H102C133.33333 603.3333 162.33333 608.3333 189 617 215.66667 625.6667 234.33333 633.6667 245 641 255.66667 648.3333 265 655.6667 273 663 274.33335 665 278.33335 666 285 666 291 666 296.66667 664 302 660V361L303 61C307.66667 56.333333 311.66667 53.333333 315 52 318.33335 50.666669 326.33335 49.333333 339 48 351.66667 46.666669 372.33335 46 401 46H427V0H416C402 2 349 3 257 3 166.33333 3 114 2 100 0H88V46H114C128.66667 46 141.33333 46 152 46 162.66667 46 171 46.333333 177 47 183 47.666669 188.33333 48.666669 193 50 197.66667 51.333333 200.33333 52 201 52 201.66667 52 203.66667 53.666669 207 57 210.33333 60.333333 212.33333 61.666669 213 61V578Z"/>
<path transform="matrix(.0074284628,0,0,-.0073211609,34.022218,62.55856)" stroke-width="0" stroke-linecap="butt" stroke-miterlimit="4" stroke-linejoin="miter" fill="none" stroke="#000000" stroke-opacity=".0078" d="M213 578 200 573C190.66667 569.6667 177.33333 566.3333 160 563 142.66667 559.6667 123.333339 557.3333 102 556H83V602H102C133.33333 603.3333 162.33333 608.3333 189 617 215.66667 625.6667 234.33333 633.6667 245 641 255.66667 648.3333 265 655.6667 273 663 274.33335 665 278.33335 666 285 666 291 666 296.66667 664 302 660V361L303 61C307.66667 56.333333 311.66667 53.333333 315 52 318.33335 50.666669 326.33335 49.333333 339 48 351.66667 46.666669 372.33335 46 401 46H427V0H416C402 2 349 3 257 3 166.33333 3 114 2 100 0H88V46H114C128.66667 46 141.33333 46 152 46 162.66667 46 171 46.333333 177 47 183 47.666669 188.33333 48.666669 193 50 197.66667 51.333333 200.33333 52 201 52 201.66667 52 203.66667 53.666669 207 57 210.33333 60.333333 212.33333 61.666669 213 61V578Z"/>
<path transform="matrix(.010507019,0,0,-.010355249,38.792406,61.00527)" d="M94 250C94 296 97.333339 339.66667 104 381 110.666667 422.33335 118.333339 458 127 488 135.66667 518 148 547.3333 164 576 180 604.6667 192.66667 627 202 643 211.33333 659 225.33333 676.3333 244 695 262.66667 713.6667 273.66667 725 277 729 280.33335 733 288.66667 740 302 750H315 319C328.33335 750 333 747 333 741 333 739 327.33335 732 316 720 304.66667 708 291 690.3333 275 667 259 643.6667 242.66667 615 226 581 209.33333 547 195.33333 501 184 443 172.66667 385 167 320.6667 167 250 167 179.33333 172.66667 115.333339 184 58 195.33333 .6666641 209-45.666666 225-81 241-116.333339 257.33335-145 274-167 290.66667-189 304.66667-206.66667 316-220 327.33335-233.33333 333-240.33333 333-241 333-247 328-250 318-250H315 302L274-226C211.33333-169.33333 165.66667-98.66667 137-14 108.33333 70.66667 94 158.66666 94 250Z"/>
<path transform="matrix(.010507019,0,0,-.010355249,38.792406,61.00527)" stroke-width="0" stroke-linecap="butt" stroke-miterlimit="4" stroke-linejoin="miter" fill="none" stroke="#000000" stroke-opacity=".0118" d="M94 250C94 296 97.333339 339.66667 104 381 110.666667 422.33335 118.333339 458 127 488 135.66667 518 148 547.3333 164 576 180 604.6667 192.66667 627 202 643 211.33333 659 225.33333 676.3333 244 695 262.66667 713.6667 273.66667 725 277 729 280.33335 733 288.66667 740 302 750H315 319C328.33335 750 333 747 333 741 333 739 327.33335 732 316 720 304.66667 708 291 690.3333 275 667 259 643.6667 242.66667 615 226 581 209.33333 547 195.33333 501 184 443 172.66667 385 167 320.6667 167 250 167 179.33333 172.66667 115.333339 184 58 195.33333 .6666641 209-45.666666 225-81 241-116.333339 257.33335-145 274-167 290.66667-189 304.66667-206.66667 316-220 327.33335-233.33333 333-240.33333 333-241 333-247 328-250 318-250H315 302L274-226C211.33333-169.33333 165.66667-98.66667 137-14 108.33333 70.66667 94 158.66666 94 250Z"/>
<path transform="matrix(.010507019,0,0,-.010355249,42.879636,61.00527)" d="M78 60C78 76 83.666667 90 95 102 106.333339 114 120.666667 120 138 120 154 120 168 114.666667 180 104 192 93.333339 198.33333 79 199 61 199 44.333333 193.33333 30 182 18 170.66667 6 156.33333 0 139 0 121.666667 0 107.333339 5.666666 96 17 84.666667 28.333334 78.666667 42.666666 78 60Z"/>
<path transform="matrix(.010507019,0,0,-.010355249,42.879636,61.00527)" stroke-width="0" stroke-linecap="butt" stroke-miterlimit="4" stroke-linejoin="miter" fill="none" stroke="#000000" stroke-opacity=".0118" d="M78 60C78 76 83.666667 90 95 102 106.333339 114 120.666667 120 138 120 154 120 168 114.666667 180 104 192 93.333339 198.33333 79 199 61 199 44.333333 193.33333 30 182 18 170.66667 6 156.33333 0 139 0 121.666667 0 107.333339 5.666666 96 17 84.666667 28.333334 78.666667 42.666666 78 60Z"/>
<path transform="matrix(.010507019,0,0,-.010355249,47.56577,61.00527)" d="M78 60C78 76 83.666667 90 95 102 106.333339 114 120.666667 120 138 120 154 120 168 114.666667 180 104 192 93.333339 198.33333 79 199 61 199 44.333333 193.33333 30 182 18 170.66667 6 156.33333 0 139 0 121.666667 0 107.333339 5.666666 96 17 84.666667 28.333334 78.666667 42.666666 78 60Z"/>
<path transform="matrix(.010507019,0,0,-.010355249,47.56577,61.00527)" stroke-width="0" stroke-linecap="butt" stroke-miterlimit="4" stroke-linejoin="miter" fill="none" stroke="#000000" stroke-opacity=".0118" d="M78 60C78 76 83.666667 90 95 102 106.333339 114 120.666667 120 138 120 154 120 168 114.666667 180 104 192 93.333339 198.33333 79 199 61 199 44.333333 193.33333 30 182 18 170.66667 6 156.33333 0 139 0 121.666667 0 107.333339 5.666666 96 17 84.666667 28.333334 78.666667 42.666666 78 60Z"/>
<path transform="matrix(.010507019,0,0,-.010355249,52.241388,61.00527)" d="M78 60C78 76 83.666667 90 95 102 106.333339 114 120.666667 120 138 120 154 120 168 114.666667 180 104 192 93.333339 198.33333 79 199 61 199 44.333333 193.33333 30 182 18 170.66667 6 156.33333 0 139 0 121.666667 0 107.333339 5.666666 96 17 84.666667 28.333334 78.666667 42.666666 78 60Z"/>
<path transform="matrix(.010507019,0,0,-.010355249,52.241388,61.00527)" stroke-width="0" stroke-linecap="butt" stroke-miterlimit="4" stroke-linejoin="miter" fill="none" stroke="#000000" stroke-opacity=".0118" d="M78 60C78 76 83.666667 90 95 102 106.333339 114 120.666667 120 138 120 154 120 168 114.666667 180 104 192 93.333339 198.33333 79 199 61 199 44.333333 193.33333 30 182 18 170.66667 6 156.33333 0 139 0 121.666667 0 107.333339 5.666666 96 17 84.666667 28.333334 78.666667 42.666666 78 60Z"/>
<path transform="matrix(.010507019,0,0,-.010355249,56.917016,61.00527)" d="M60 749 64 750C67.333339 750 70.666667 750 74 750H86L114 726C176.66667 669.3333 222.33333 598.6667 251 514 279.66667 429.3333 294 341.33335 294 250 294 204.66666 290.66667 161 284 119 277.33335 77 269.66667 41.333337 261 12 252.33333-17.333334 240-46.666666 224-76 208-105.333339 195.33333-127.666667 186-143 176.66667-158.33333 163-175.33333 145-194 127-212.66667 116.333339-223.66667 113-227 109.666667-230.33333 102-236.66667 90-246 88-248 86.666667-249.33333 86-250H74C68.666667-250 65-250 63-250 61-250 59.333333-249 58-247 56.666669-245 55.666669-242 55-238 55.666669-237.33333 59.333333-233 66-225 169.33335-117.666667 221 40.666658 221 250 221 459.33335 169.33335 617.6667 66 725 59.333333 733 55.666669 737.3333 55 738 55 743.3333 56.666669 747 60 749Z"/>
<path transform="matrix(.010507019,0,0,-.010355249,56.917016,61.00527)" stroke-width="0" stroke-linecap="butt" stroke-miterlimit="4" stroke-linejoin="miter" fill="none" stroke="#000000" stroke-opacity=".0118" d="M60 749 64 750C67.333339 750 70.666667 750 74 750H86L114 726C176.66667 669.3333 222.33333 598.6667 251 514 279.66667 429.3333 294 341.33335 294 250 294 204.66666 290.66667 161 284 119 277.33335 77 269.66667 41.333337 261 12 252.33333-17.333334 240-46.666666 224-76 208-105.333339 195.33333-127.666667 186-143 176.66667-158.33333 163-175.33333 145-194 127-212.66667 116.333339-223.66667 113-227 109.666667-230.33333 102-236.66667 90-246 88-248 86.666667-249.33333 86-250H74C68.666667-250 65-250 63-250 61-250 59.333333-249 58-247 56.666669-245 55.666669-242 55-238 55.666669-237.33333 59.333333-233 66-225 169.33335-117.666667 221 40.666658 221 250 221 459.33335 169.33335 617.6667 66 725 59.333333 733 55.666669 737.3333 55 738 55 743.3333 56.666669 747 60 749Z"/>
</g>
<g clip-path="url(#clip_10)">
<path transform="matrix(.010507019,0,0,-.010355249,99.05753,61.00527)" d="M287 628C287 632.6667 268 635.6667 230 637 214 637 203.66667 637.3333 199 638 194.33333 638.6667 192 642 192 648 192 648.6667 192.66667 652.3333 194 659 198 672.3333 201 679.6667 203 681 205 682.3333 269.66667 683 397 683 523.6667 682.3333 591.3333 681.3333 600 680 642.6667 672.6667 678.3333 656.3333 707 631 735.6667 605.6667 750.3333 572 751 530 751 478.66667 729 431.66667 685 389 639 343.66667 579.6667 315 507 303 502.33335 302.33335 467.33335 301.66667 402 301H307L277 182C257 104.666667 247 63.666669 247 59 247 56.333333 247.33333 54.666669 248 54 248.66667 53.333333 251 52 255 50 259 48 264.66667 47.333333 272 48 279.33335 48.666669 290.33335 48 305 46H336C340 40 342 36.333333 342 35 342 24.333333 339.66667 14.333334 335 5 331.66667 1.6666665 326.33335 0 319 0 317 0 304.66667 .3333333 282 1 259.33335 1.6666668 226 2 182 2 140.66666 2 109 2 87 2 65 2 53 1.6666668 51 1 39 1 33 4.333333 33 11 33 12.333333 34 17 36 25 38.666669 35.666669 41.333333 41.666669 44 43 46.666669 44.333333 54.333333 45.333333 67 46 85 46 105 47 127 49 136.33333 51 142.66667 55 146 61 148 63.666669 172 156.33333 218 339 264 521.6667 287 618 287 628ZM645 554C645 562.6667 644.3333 569.6667 643 575 641.6667 580.3333 638.6667 587.6667 634 597 629.3333 606.3333 621 613.6667 609 619 597 624.3333 580.6667 629.6667 560 635 555.3333 635.6667 528.6667 636.3333 480 637 468.66667 637 457 637 445 637 433 637 423.33335 636.6667 416 636 408.66667 635.3333 404.66667 635.3333 404 636 395.33335 635.3333 389.33335 632.3333 386 627 384.66667 623 378.33335 597.3333 367 550 355.66667 502.66667 344 456.66667 332 412 320 367.33335 314 344.66667 314 344 314 342.66667 341 342 395 342H407 430C504.6667 342 558 358.66667 590 392 608 410 621.6667 436.33335 631 471 640.3333 505.66667 645 533.3333 645 554Z"/>
<path transform="matrix(.010507019,0,0,-.010355249,99.05753,61.00527)" stroke-width="0" stroke-linecap="butt" stroke-miterlimit="4" stroke-linejoin="miter" fill="none" stroke="#000000" stroke-opacity=".0118" d="M287 628C287 632.6667 268 635.6667 230 637 214 637 203.66667 637.3333 199 638 194.33333 638.6667 192 642 192 648 192 648.6667 192.66667 652.3333 194 659 198 672.3333 201 679.6667 203 681 205 682.3333 269.66667 683 397 683 523.6667 682.3333 591.3333 681.3333 600 680 642.6667 672.6667 678.3333 656.3333 707 631 735.6667 605.6667 750.3333 572 751 530 751 478.66667 729 431.66667 685 389 639 343.66667 579.6667 315 507 303 502.33335 302.33335 467.33335 301.66667 402 301H307L277 182C257 104.666667 247 63.666669 247 59 247 56.333333 247.33333 54.666669 248 54 248.66667 53.333333 251 52 255 50 259 48 264.66667 47.333333 272 48 279.33335 48.666669 290.33335 48 305 46H336C340 40 342 36.333333 342 35 342 24.333333 339.66667 14.333334 335 5 331.66667 1.6666665 326.33335 0 319 0 317 0 304.66667 .3333333 282 1 259.33335 1.6666668 226 2 182 2 140.66666 2 109 2 87 2 65 2 53 1.6666668 51 1 39 1 33 4.333333 33 11 33 12.333333 34 17 36 25 38.666669 35.666669 41.333333 41.666669 44 43 46.666669 44.333333 54.333333 45.333333 67 46 85 46 105 47 127 49 136.33333 51 142.66667 55 146 61 148 63.666669 172 156.33333 218 339 264 521.6667 287 618 287 628ZM645 554C645 562.6667 644.3333 569.6667 643 575 641.6667 580.3333 638.6667 587.6667 634 597 629.3333 606.3333 621 613.6667 609 619 597 624.3333 580.6667 629.6667 560 635 555.3333 635.6667 528.6667 636.3333 480 637 468.66667 637 457 637 445 637 433 637 423.33335 636.6667 416 636 408.66667 635.3333 404.66667 635.3333 404 636 395.33335 635.3333 389.33335 632.3333 386 627 384.66667 623 378.33335 597.3333 367 550 355.66667 502.66667 344 456.66667 332 412 320 367.33335 314 344.66667 314 344 314 342.66667 341 342 395 342H407 430C504.6667 342 558 358.66667 590 392 608 410 621.6667 436.33335 631 471 640.3333 505.66667 645 533.3333 645 554Z"/>
<path transform="matrix(.0074284628,0,0,-.0073211609,105.80304,62.55856)" d="M109 429C91 429 76.666667 435 66 447 55.333333 459 50 473.66667 50 491 50 538.3333 67.666667 579.3333 103 614 138.33335 648.6667 182.33333 666 235 666 295.66667 666 346.33335 647.3333 387 610 427.66667 572.6667 448.33335 524.3333 449 465 449 436.33335 442.33335 409 429 383 415.66667 357 399.66667 334.33335 381 315 362.33335 295.66667 335.66667 271 301 241 277 220.33333 243.66667 189.66667 201 149L142 93 218 92C322.6667 92 378.33335 93.666667 385 97 389.66667 98.333339 397.66667 128 409 186V189H449V186C448.33335 184 444 153.66667 436 95 428 36.333333 423 5.666667 421 3V0H50V19 31C50 35.666669 52 40.666669 56 46 60 51.333333 70 63 86 81 105.333339 102.333339 122 121 136 137 142 143.66667 153.33333 156 170 174 186.66667 192 198 204.33333 204 211 210 217.66667 219.66667 228.66667 233 244 246.33333 259.33335 255.66667 270.66667 261 278 266.33335 285.33335 274 295.33335 284 308 294 320.66667 301 331.33335 305 340 309 348.66667 314 358.33335 320 369 326 379.66667 330.33335 390.33335 333 401 335.66667 411.66667 338 421.66667 340 431 342 440.33335 343 451.33335 343 464 343 506 331.66667 542.3333 309 573 286.33335 603.6667 254 619 212 619 190 619 170.66667 613.3333 154 602 137.33333 590.6667 125.666667 579.6667 119 569 112.333339 558.3333 109 552 109 550 109 549.3333 110.666667 549 114 549 126 549 138.33333 544.3333 151 535 163.66667 525.6667 170 510.33335 170 489 170 472.33335 164.66667 458.33335 154 447 143.33333 435.66667 128.33333 429.66667 109 429Z"/>
<path transform="matrix(.0074284628,0,0,-.0073211609,105.80304,62.55856)" stroke-width="0" stroke-linecap="butt" stroke-miterlimit="4" stroke-linejoin="miter" fill="none" stroke="#000000" stroke-opacity=".0078" d="M109 429C91 429 76.666667 435 66 447 55.333333 459 50 473.66667 50 491 50 538.3333 67.666667 579.3333 103 614 138.33335 648.6667 182.33333 666 235 666 295.66667 666 346.33335 647.3333 387 610 427.66667 572.6667 448.33335 524.3333 449 465 449 436.33335 442.33335 409 429 383 415.66667 357 399.66667 334.33335 381 315 362.33335 295.66667 335.66667 271 301 241 277 220.33333 243.66667 189.66667 201 149L142 93 218 92C322.6667 92 378.33335 93.666667 385 97 389.66667 98.333339 397.66667 128 409 186V189H449V186C448.33335 184 444 153.66667 436 95 428 36.333333 423 5.666667 421 3V0H50V19 31C50 35.666669 52 40.666669 56 46 60 51.333333 70 63 86 81 105.333339 102.333339 122 121 136 137 142 143.66667 153.33333 156 170 174 186.66667 192 198 204.33333 204 211 210 217.66667 219.66667 228.66667 233 244 246.33333 259.33335 255.66667 270.66667 261 278 266.33335 285.33335 274 295.33335 284 308 294 320.66667 301 331.33335 305 340 309 348.66667 314 358.33335 320 369 326 379.66667 330.33335 390.33335 333 401 335.66667 411.66667 338 421.66667 340 431 342 440.33335 343 451.33335 343 464 343 506 331.66667 542.3333 309 573 286.33335 603.6667 254 619 212 619 190 619 170.66667 613.3333 154 602 137.33333 590.6667 125.666667 579.6667 119 569 112.333339 558.3333 109 552 109 550 109 549.3333 110.666667 549 114 549 126 549 138.33333 544.3333 151 535 163.66667 525.6667 170 510.33335 170 489 170 472.33335 164.66667 458.33335 154 447 143.33333 435.66667 128.33333 429.66667 109 429Z"/>
<path transform="matrix(.010507019,0,0,-.010355249,110.57323,61.00527)" d="M94 250C94 296 97.333339 339.66667 104 381 110.666667 422.33335 118.333339 458 127 488 135.66667 518 148 547.3333 164 576 180 604.6667 192.66667 627 202 643 211.33333 659 225.33333 676.3333 244 695 262.66667 713.6667 273.66667 725 277 729 280.33335 733 288.66667 740 302 750H315 319C328.33335 750 333 747 333 741 333 739 327.33335 732 316 720 304.66667 708 291 690.3333 275 667 259 643.6667 242.66667 615 226 581 209.33333 547 195.33333 501 184 443 172.66667 385 167 320.6667 167 250 167 179.33333 172.66667 115.333339 184 58 195.33333 .6666641 209-45.666666 225-81 241-116.333339 257.33335-145 274-167 290.66667-189 304.66667-206.66667 316-220 327.33335-233.33333 333-240.33333 333-241 333-247 328-250 318-250H315 302L274-226C211.33333-169.33333 165.66667-98.66667 137-14 108.33333 70.66667 94 158.66666 94 250Z"/>
<path transform="matrix(.010507019,0,0,-.010355249,110.57323,61.00527)" stroke-width="0" stroke-linecap="butt" stroke-miterlimit="4" stroke-linejoin="miter" fill="none" stroke="#000000" stroke-opacity=".0118" d="M94 250C94 296 97.333339 339.66667 104 381 110.666667 422.33335 118.333339 458 127 488 135.66667 518 148 547.3333 164 576 180 604.6667 192.66667 627 202 643 211.33333 659 225.33333 676.3333 244 695 262.66667 713.6667 273.66667 725 277 729 280.33335 733 288.66667 740 302 750H315 319C328.33335 750 333 747 333 741 333 739 327.33335 732 316 720 304.66667 708 291 690.3333 275 667 259 643.6667 242.66667 615 226 581 209.33333 547 195.33333 501 184 443 172.66667 385 167 320.6667 167 250 167 179.33333 172.66667 115.333339 184 58 195.33333 .6666641 209-45.666666 225-81 241-116.333339 257.33335-145 274-167 290.66667-189 304.66667-206.66667 316-220 327.33335-233.33333 333-240.33333 333-241 333-247 328-250 318-250H315 302L274-226C211.33333-169.33333 165.66667-98.66667 137-14 108.33333 70.66667 94 158.66666 94 250Z"/>
<path transform="matrix(.010507019,0,0,-.010355249,114.66046,61.00527)" d="M78 60C78 76 83.666667 90 95 102 106.333339 114 120.666667 120 138 120 154 120 168 114.666667 180 104 192 93.333339 198.33333 79 199 61 199 44.333333 193.33333 30 182 18 170.66667 6 156.33333 0 139 0 121.666667 0 107.333339 5.666666 96 17 84.666667 28.333334 78.666667 42.666666 78 60Z"/>
<path transform="matrix(.010507019,0,0,-.010355249,114.66046,61.00527)" stroke-width="0" stroke-linecap="butt" stroke-miterlimit="4" stroke-linejoin="miter" fill="none" stroke="#000000" stroke-opacity=".0118" d="M78 60C78 76 83.666667 90 95 102 106.333339 114 120.666667 120 138 120 154 120 168 114.666667 180 104 192 93.333339 198.33333 79 199 61 199 44.333333 193.33333 30 182 18 170.66667 6 156.33333 0 139 0 121.666667 0 107.333339 5.666666 96 17 84.666667 28.333334 78.666667 42.666666 78 60Z"/>
<path transform="matrix(.010507019,0,0,-.010355249,119.34659,61.00527)" d="M78 60C78 76 83.666667 90 95 102 106.333339 114 120.666667 120 138 120 154 120 168 114.666667 180 104 192 93.333339 198.33333 79 199 61 199 44.333333 193.33333 30 182 18 170.66667 6 156.33333 0 139 0 121.666667 0 107.333339 5.666666 96 17 84.666667 28.333334 78.666667 42.666666 78 60Z"/>
<path transform="matrix(.010507019,0,0,-.010355249,119.34659,61.00527)" stroke-width="0" stroke-linecap="butt" stroke-miterlimit="4" stroke-linejoin="miter" fill="none" stroke="#000000" stroke-opacity=".0118" d="M78 60C78 76 83.666667 90 95 102 106.333339 114 120.666667 120 138 120 154 120 168 114.666667 180 104 192 93.333339 198.33333 79 199 61 199 44.333333 193.33333 30 182 18 170.66667 6 156.33333 0 139 0 121.666667 0 107.333339 5.666666 96 17 84.666667 28.333334 78.666667 42.666666 78 60Z"/>
<path transform="matrix(.010507019,0,0,-.010355249,124.02221,61.00527)" d="M78 60C78 76 83.666667 90 95 102 106.333339 114 120.666667 120 138 120 154 120 168 114.666667 180 104 192 93.333339 198.33333 79 199 61 199 44.333333 193.33333 30 182 18 170.66667 6 156.33333 0 139 0 121.666667 0 107.333339 5.666666 96 17 84.666667 28.333334 78.666667 42.666666 78 60Z"/>
<path transform="matrix(.010507019,0,0,-.010355249,124.02221,61.00527)" stroke-width="0" stroke-linecap="butt" stroke-miterlimit="4" stroke-linejoin="miter" fill="none" stroke="#000000" stroke-opacity=".0118" d="M78 60C78 76 83.666667 90 95 102 106.333339 114 120.666667 120 138 120 154 120 168 114.666667 180 104 192 93.333339 198.33333 79 199 61 199 44.333333 193.33333 30 182 18 170.66667 6 156.33333 0 139 0 121.666667 0 107.333339 5.666666 96 17 84.666667 28.333334 78.666667 42.666666 78 60Z"/>
<path transform="matrix(.010507019,0,0,-.010355249,128.69785,61.00527)" d="M60 749 64 750C67.333339 750 70.666667 750 74 750H86L114 726C176.66667 669.3333 222.33333 598.6667 251 514 279.66667 429.3333 294 341.33335 294 250 294 204.66666 290.66667 161 284 119 277.33335 77 269.66667 41.333337 261 12 252.33333-17.333334 240-46.666666 224-76 208-105.333339 195.33333-127.666667 186-143 176.66667-158.33333 163-175.33333 145-194 127-212.66667 116.333339-223.66667 113-227 109.666667-230.33333 102-236.66667 90-246 88-248 86.666667-249.33333 86-250H74C68.666667-250 65-250 63-250 61-250 59.333333-249 58-247 56.666669-245 55.666669-242 55-238 55.666669-237.33333 59.333333-233 66-225 169.33335-117.666667 221 40.666658 221 250 221 459.33335 169.33335 617.6667 66 725 59.333333 733 55.666669 737.3333 55 738 55 743.3333 56.666669 747 60 749Z"/>
<path transform="matrix(.010507019,0,0,-.010355249,128.69785,61.00527)" stroke-width="0" stroke-linecap="butt" stroke-miterlimit="4" stroke-linejoin="miter" fill="none" stroke="#000000" stroke-opacity=".0118" d="M60 749 64 750C67.333339 750 70.666667 750 74 750H86L114 726C176.66667 669.3333 222.33333 598.6667 251 514 279.66667 429.3333 294 341.33335 294 250 294 204.66666 290.66667 161 284 119 277.33335 77 269.66667 41.333337 261 12 252.33333-17.333334 240-46.666666 224-76 208-105.333339 195.33333-127.666667 186-143 176.66667-158.33333 163-175.33333 145-194 127-212.66667 116.333339-223.66667 113-227 109.666667-230.33333 102-236.66667 90-246 88-248 86.666667-249.33333 86-250H74C68.666667-250 65-250 63-250 61-250 59.333333-249 58-247 56.666669-245 55.666669-242 55-238 55.666669-237.33333 59.333333-233 66-225 169.33335-117.666667 221 40.666658 221 250 221 459.33335 169.33335 617.6667 66 725 59.333333 733 55.666669 737.3333 55 738 55 743.3333 56.666669 747 60 749Z"/>
</g>
<g clip-path="url(#clip_11)">
<path transform="matrix(.010458486,0,0,-.010352533,199.55068,61.004617)" d="M287 628C287 632.6667 268 635.6667 230 637 214 637 203.66667 637.3333 199 638 194.33333 638.6667 192 642 192 648 192 648.6667 192.66667 652.3333 194 659 198 672.3333 201 679.6667 203 681 205 682.3333 269.66667 683 397 683 523.6667 682.3333 591.3333 681.3333 600 680 642.6667 672.6667 678.3333 656.3333 707 631 735.6667 605.6667 750.3333 572 751 530 751 478.66667 729 431.66667 685 389 639 343.66667 579.6667 315 507 303 502.33335 302.33335 467.33335 301.66667 402 301H307L277 182C257 104.666667 247 63.666669 247 59 247 56.333333 247.33333 54.666669 248 54 248.66667 53.333333 251 52 255 50 259 48 264.66667 47.333333 272 48 279.33335 48.666669 290.33335 48 305 46H336C340 40 342 36.333333 342 35 342 24.333333 339.66667 14.333334 335 5 331.66667 1.6666665 326.33335 0 319 0 317 0 304.66667 .3333333 282 1 259.33335 1.6666668 226 2 182 2 140.66666 2 109 2 87 2 65 2 53 1.6666668 51 1 39 1 33 4.333333 33 11 33 12.333333 34 17 36 25 38.666669 35.666669 41.333333 41.666669 44 43 46.666669 44.333333 54.333333 45.333333 67 46 85 46 105 47 127 49 136.33333 51 142.66667 55 146 61 148 63.666669 172 156.33333 218 339 264 521.6667 287 618 287 628ZM645 554C645 562.6667 644.3333 569.6667 643 575 641.6667 580.3333 638.6667 587.6667 634 597 629.3333 606.3333 621 613.6667 609 619 597 624.3333 580.6667 629.6667 560 635 555.3333 635.6667 528.6667 636.3333 480 637 468.66667 637 457 637 445 637 433 637 423.33335 636.6667 416 636 408.66667 635.3333 404.66667 635.3333 404 636 395.33335 635.3333 389.33335 632.3333 386 627 384.66667 623 378.33335 597.3333 367 550 355.66667 502.66667 344 456.66667 332 412 320 367.33335 314 344.66667 314 344 314 342.66667 341 342 395 342H407 430C504.6667 342 558 358.66667 590 392 608 410 621.6667 436.33335 631 471 640.3333 505.66667 645 533.3333 645 554Z"/>
<path transform="matrix(.010458486,0,0,-.010352533,199.55068,61.004617)" stroke-width="0" stroke-linecap="butt" stroke-miterlimit="4" stroke-linejoin="miter" fill="none" stroke="#000000" stroke-opacity=".0118" d="M287 628C287 632.6667 268 635.6667 230 637 214 637 203.66667 637.3333 199 638 194.33333 638.6667 192 642 192 648 192 648.6667 192.66667 652.3333 194 659 198 672.3333 201 679.6667 203 681 205 682.3333 269.66667 683 397 683 523.6667 682.3333 591.3333 681.3333 600 680 642.6667 672.6667 678.3333 656.3333 707 631 735.6667 605.6667 750.3333 572 751 530 751 478.66667 729 431.66667 685 389 639 343.66667 579.6667 315 507 303 502.33335 302.33335 467.33335 301.66667 402 301H307L277 182C257 104.666667 247 63.666669 247 59 247 56.333333 247.33333 54.666669 248 54 248.66667 53.333333 251 52 255 50 259 48 264.66667 47.333333 272 48 279.33335 48.666669 290.33335 48 305 46H336C340 40 342 36.333333 342 35 342 24.333333 339.66667 14.333334 335 5 331.66667 1.6666665 326.33335 0 319 0 317 0 304.66667 .3333333 282 1 259.33335 1.6666668 226 2 182 2 140.66666 2 109 2 87 2 65 2 53 1.6666668 51 1 39 1 33 4.333333 33 11 33 12.333333 34 17 36 25 38.666669 35.666669 41.333333 41.666669 44 43 46.666669 44.333333 54.333333 45.333333 67 46 85 46 105 47 127 49 136.33333 51 142.66667 55 146 61 148 63.666669 172 156.33333 218 339 264 521.6667 287 618 287 628ZM645 554C645 562.6667 644.3333 569.6667 643 575 641.6667 580.3333 638.6667 587.6667 634 597 629.3333 606.3333 621 613.6667 609 619 597 624.3333 580.6667 629.6667 560 635 555.3333 635.6667 528.6667 636.3333 480 637 468.66667 637 457 637 445 637 433 637 423.33335 636.6667 416 636 408.66667 635.3333 404.66667 635.3333 404 636 395.33335 635.3333 389.33335 632.3333 386 627 384.66667 623 378.33335 597.3333 367 550 355.66667 502.66667 344 456.66667 332 412 320 367.33335 314 344.66667 314 344 314 342.66667 341 342 395 342H407 430C504.6667 342 558 358.66667 590 392 608 410 621.6667 436.33335 631 471 640.3333 505.66667 645 533.3333 645 554Z"/>
<path transform="matrix(.0073941496,0,0,-.0073192415,206.26503,62.55749)" d="M121 647C121 653.6667 122.333339 661.3333 125 670 127.666667 678.6667 131.66667 683 137 683 137.66667 683 161.66666 684.6667 209 688 256.33335 691.3333 280.66667 693.3333 282 694 290 694 294 691.3333 294 686 294 681.3333 277.33335 611.6667 244 477 210.66666 345 194 276.66667 194 272 206.66667 278.66667 216.33333 285 223 291 239 303 262 324 292 354 322 384 345.33335 404.33335 362 415 388.66667 433 414 442 438 442 458 442 473.66667 435.66667 485 423 496.33335 410.33335 502.33335 392.33335 503 369 503 352.33335 500.66667 338.33335 496 327 491.33335 315.66667 485 307.33335 477 302 469 296.66667 462 293 456 291 450 289 444 288 438 288 424.66667 288 414 291.66667 406 299 398 306.33335 394 316 394 328 394 344.66667 399.33335 358.33335 410 369 420.66667 379.66667 431.33335 386.66667 442 390L458 393C450 401 442 405 434 405H430C408.66667 403 387.66667 394.66667 367 380 346.33335 365.33335 322 344 294 316 266 288 244 267.66667 228 255 229.33333 254.33333 234.33333 253.33333 243 252 251.66667 250.66667 259.66667 248.66667 267 246 274.33335 243.33333 283 240.66667 293 238 303 235.33333 312 230.66667 320 224 328 217.33333 335.33335 211.33333 342 206 348.66667 200.66667 354.33335 192 359 180 363.66667 168 365.66667 157 365 147 365 135.66667 363.33335 122 360 106 356.66667 90 354.66667 76.666667 354 66 354 39.333333 363 26 381 26 413 26 439 65.666667 459 145 460.33335 150.33333 467 153 479 153H483C493.66667 153 499 150 499 144 499 140.66667 498 136 496 130 468.66667 36 429.33335-11 378-11 348-11 323.66667-2.333334 305 15 286.33335 32.333337 277 57.333333 277 90 277 102 278 112.333339 280 121 282 129.66667 283 137.66667 283 145 283 159.66667 278.33335 172.33333 269 183 259.66667 193.66667 248 201.33333 234 206 220 210.66667 208.66667 214.33333 200 217 191.33333 219.66667 185.33333 220.66667 182 220H180C172 192 165 165 159 139 153 113 148.33333 93.666667 145 81 141.66667 68.333339 138.66667 56 136 44 133.33333 32 131 24 129 20 127 16 124.666667 11.666667 122 7 119.333339 2.333333 115.666667-.6666666 111-2 102.333339-8 93-11 83-11 71.666667-11 63-7.666667 57-1 51 5.666667 48 11.333333 48 16 48 22.666668 60.333333 76 85 176 109.66667 276 134 374.3333 158 471L195 616C195.66667 624.6667 193.33333 630 188 632 182.66667 634 169.66667 635.6667 149 637H144C137.33333 637 133 637 131 637 129 637 126.666667 638 124 640 121.333339 642 120.333339 644.3333 121 647Z"/>
<path transform="matrix(.0073941496,0,0,-.0073192415,206.26503,62.55749)" stroke-width="0" stroke-linecap="butt" stroke-miterlimit="4" stroke-linejoin="miter" fill="none" stroke="#000000" stroke-opacity=".0078" d="M121 647C121 653.6667 122.333339 661.3333 125 670 127.666667 678.6667 131.66667 683 137 683 137.66667 683 161.66666 684.6667 209 688 256.33335 691.3333 280.66667 693.3333 282 694 290 694 294 691.3333 294 686 294 681.3333 277.33335 611.6667 244 477 210.66666 345 194 276.66667 194 272 206.66667 278.66667 216.33333 285 223 291 239 303 262 324 292 354 322 384 345.33335 404.33335 362 415 388.66667 433 414 442 438 442 458 442 473.66667 435.66667 485 423 496.33335 410.33335 502.33335 392.33335 503 369 503 352.33335 500.66667 338.33335 496 327 491.33335 315.66667 485 307.33335 477 302 469 296.66667 462 293 456 291 450 289 444 288 438 288 424.66667 288 414 291.66667 406 299 398 306.33335 394 316 394 328 394 344.66667 399.33335 358.33335 410 369 420.66667 379.66667 431.33335 386.66667 442 390L458 393C450 401 442 405 434 405H430C408.66667 403 387.66667 394.66667 367 380 346.33335 365.33335 322 344 294 316 266 288 244 267.66667 228 255 229.33333 254.33333 234.33333 253.33333 243 252 251.66667 250.66667 259.66667 248.66667 267 246 274.33335 243.33333 283 240.66667 293 238 303 235.33333 312 230.66667 320 224 328 217.33333 335.33335 211.33333 342 206 348.66667 200.66667 354.33335 192 359 180 363.66667 168 365.66667 157 365 147 365 135.66667 363.33335 122 360 106 356.66667 90 354.66667 76.666667 354 66 354 39.333333 363 26 381 26 413 26 439 65.666667 459 145 460.33335 150.33333 467 153 479 153H483C493.66667 153 499 150 499 144 499 140.66667 498 136 496 130 468.66667 36 429.33335-11 378-11 348-11 323.66667-2.333334 305 15 286.33335 32.333337 277 57.333333 277 90 277 102 278 112.333339 280 121 282 129.66667 283 137.66667 283 145 283 159.66667 278.33335 172.33333 269 183 259.66667 193.66667 248 201.33333 234 206 220 210.66667 208.66667 214.33333 200 217 191.33333 219.66667 185.33333 220.66667 182 220H180C172 192 165 165 159 139 153 113 148.33333 93.666667 145 81 141.66667 68.333339 138.66667 56 136 44 133.33333 32 131 24 129 20 127 16 124.666667 11.666667 122 7 119.333339 2.333333 115.666667-.6666666 111-2 102.333339-8 93-11 83-11 71.666667-11 63-7.666667 57-1 51 5.666667 48 11.333333 48 16 48 22.666668 60.333333 76 85 176 109.66667 276 134 374.3333 158 471L195 616C195.66667 624.6667 193.33333 630 188 632 182.66667 634 169.66667 635.6667 149 637H144C137.33333 637 133 637 131 637 129 637 126.666667 638 124 640 121.333339 642 120.333339 644.3333 121 647Z"/>
<path transform="matrix(.010458486,0,0,-.010352533,211.17006,61.004617)" d="M94 250C94 296 97.333339 339.66667 104 381 110.666667 422.33335 118.333339 458 127 488 135.66667 518 148 547.3333 164 576 180 604.6667 192.66667 627 202 643 211.33333 659 225.33333 676.3333 244 695 262.66667 713.6667 273.66667 725 277 729 280.33335 733 288.66667 740 302 750H315 319C328.33335 750 333 747 333 741 333 739 327.33335 732 316 720 304.66667 708 291 690.3333 275 667 259 643.6667 242.66667 615 226 581 209.33333 547 195.33333 501 184 443 172.66667 385 167 320.6667 167 250 167 179.33333 172.66667 115.333339 184 58 195.33333 .6666641 209-45.666666 225-81 241-116.333339 257.33335-145 274-167 290.66667-189 304.66667-206.66667 316-220 327.33335-233.33333 333-240.33333 333-241 333-247 328-250 318-250H315 302L274-226C211.33333-169.33333 165.66667-98.66667 137-14 108.33333 70.66667 94 158.66666 94 250Z"/>
<path transform="matrix(.010458486,0,0,-.010352533,211.17006,61.004617)" stroke-width="0" stroke-linecap="butt" stroke-miterlimit="4" stroke-linejoin="miter" fill="none" stroke="#000000" stroke-opacity=".0118" d="M94 250C94 296 97.333339 339.66667 104 381 110.666667 422.33335 118.333339 458 127 488 135.66667 518 148 547.3333 164 576 180 604.6667 192.66667 627 202 643 211.33333 659 225.33333 676.3333 244 695 262.66667 713.6667 273.66667 725 277 729 280.33335 733 288.66667 740 302 750H315 319C328.33335 750 333 747 333 741 333 739 327.33335 732 316 720 304.66667 708 291 690.3333 275 667 259 643.6667 242.66667 615 226 581 209.33333 547 195.33333 501 184 443 172.66667 385 167 320.6667 167 250 167 179.33333 172.66667 115.333339 184 58 195.33333 .6666641 209-45.666666 225-81 241-116.333339 257.33335-145 274-167 290.66667-189 304.66667-206.66667 316-220 327.33335-233.33333 333-240.33333 333-241 333-247 328-250 318-250H315 302L274-226C211.33333-169.33333 165.66667-98.66667 137-14 108.33333 70.66667 94 158.66666 94 250Z"/>
<path transform="matrix(.010458486,0,0,-.010352533,215.2384,61.004617)" d="M78 60C78 76 83.666667 90 95 102 106.333339 114 120.666667 120 138 120 154 120 168 114.666667 180 104 192 93.333339 198.33333 79 199 61 199 44.333333 193.33333 30 182 18 170.66667 6 156.33333 0 139 0 121.666667 0 107.333339 5.666666 96 17 84.666667 28.333334 78.666667 42.666666 78 60Z"/>
<path transform="matrix(.010458486,0,0,-.010352533,215.2384,61.004617)" stroke-width="0" stroke-linecap="butt" stroke-miterlimit="4" stroke-linejoin="miter" fill="none" stroke="#000000" stroke-opacity=".0118" d="M78 60C78 76 83.666667 90 95 102 106.333339 114 120.666667 120 138 120 154 120 168 114.666667 180 104 192 93.333339 198.33333 79 199 61 199 44.333333 193.33333 30 182 18 170.66667 6 156.33333 0 139 0 121.666667 0 107.333339 5.666666 96 17 84.666667 28.333334 78.666667 42.666666 78 60Z"/>
<path transform="matrix(.010458486,0,0,-.010352533,219.89244,61.004617)" d="M78 60C78 76 83.666667 90 95 102 106.333339 114 120.666667 120 138 120 154 120 168 114.666667 180 104 192 93.333339 198.33333 79 199 61 199 44.333333 193.33333 30 182 18 170.66667 6 156.33333 0 139 0 121.666667 0 107.333339 5.666666 96 17 84.666667 28.333334 78.666667 42.666666 78 60Z"/>
<path transform="matrix(.010458486,0,0,-.010352533,219.89244,61.004617)" stroke-width="0" stroke-linecap="butt" stroke-miterlimit="4" stroke-linejoin="miter" fill="none" stroke="#000000" stroke-opacity=".0118" d="M78 60C78 76 83.666667 90 95 102 106.333339 114 120.666667 120 138 120 154 120 168 114.666667 180 104 192 93.333339 198.33333 79 199 61 199 44.333333 193.33333 30 182 18 170.66667 6 156.33333 0 139 0 121.666667 0 107.333339 5.666666 96 17 84.666667 28.333334 78.666667 42.666666 78 60Z"/>
<path transform="matrix(.010458486,0,0,-.010352533,224.55693,61.004617)" d="M78 60C78 76 83.666667 90 95 102 106.333339 114 120.666667 120 138 120 154 120 168 114.666667 180 104 192 93.333339 198.33333 79 199 61 199 44.333333 193.33333 30 182 18 170.66667 6 156.33333 0 139 0 121.666667 0 107.333339 5.666666 96 17 84.666667 28.333334 78.666667 42.666666 78 60Z"/>
<path transform="matrix(.010458486,0,0,-.010352533,224.55693,61.004617)" stroke-width="0" stroke-linecap="butt" stroke-miterlimit="4" stroke-linejoin="miter" fill="none" stroke="#000000" stroke-opacity=".0118" d="M78 60C78 76 83.666667 90 95 102 106.333339 114 120.666667 120 138 120 154 120 168 114.666667 180 104 192 93.333339 198.33333 79 199 61 199 44.333333 193.33333 30 182 18 170.66667 6 156.33333 0 139 0 121.666667 0 107.333339 5.666666 96 17 84.666667 28.333334 78.666667 42.666666 78 60Z"/>
<path transform="matrix(.010458486,0,0,-.010352533,229.21096,61.004617)" d="M60 749 64 750C67.333339 750 70.666667 750 74 750H86L114 726C176.66667 669.3333 222.33333 598.6667 251 514 279.66667 429.3333 294 341.33335 294 250 294 204.66666 290.66667 161 284 119 277.33335 77 269.66667 41.333337 261 12 252.33333-17.333334 240-46.666666 224-76 208-105.333339 195.33333-127.666667 186-143 176.66667-158.33333 163-175.33333 145-194 127-212.66667 116.333339-223.66667 113-227 109.666667-230.33333 102-236.66667 90-246 88-248 86.666667-249.33333 86-250H74C68.666667-250 65-250 63-250 61-250 59.333333-249 58-247 56.666669-245 55.666669-242 55-238 55.666669-237.33333 59.333333-233 66-225 169.33335-117.666667 221 40.666658 221 250 221 459.33335 169.33335 617.6667 66 725 59.333333 733 55.666669 737.3333 55 738 55 743.3333 56.666669 747 60 749Z"/>
<path transform="matrix(.010458486,0,0,-.010352533,229.21096,61.004617)" stroke-width="0" stroke-linecap="butt" stroke-miterlimit="4" stroke-linejoin="miter" fill="none" stroke="#000000" stroke-opacity=".0118" d="M60 749 64 750C67.333339 750 70.666667 750 74 750H86L114 726C176.66667 669.3333 222.33333 598.6667 251 514 279.66667 429.3333 294 341.33335 294 250 294 204.66666 290.66667 161 284 119 277.33335 77 269.66667 41.333337 261 12 252.33333-17.333334 240-46.666666 224-76 208-105.333339 195.33333-127.666667 186-143 176.66667-158.33333 163-175.33333 145-194 127-212.66667 116.333339-223.66667 113-227 109.666667-230.33333 102-236.66667 90-246 88-248 86.666667-249.33333 86-250H74C68.666667-250 65-250 63-250 61-250 59.333333-249 58-247 56.666669-245 55.666669-242 55-238 55.666669-237.33333 59.333333-233 66-225 169.33335-117.666667 221 40.666658 221 250 221 459.33335 169.33335 617.6667 66 725 59.333333 733 55.666669 737.3333 55 738 55 743.3333 56.666669 747 60 749Z"/>
</g>
<g clip-path="url(#clip_12)">
<g opacity=".2471">
<g clip-path="url(#clip_13)">
<path transform="matrix(.7178082,0,0,.7178082,1.7945213,2.5123368)" d="M81 111H121V151H81Z"/>
<path transform="matrix(.7178082,0,0,.7178082,1.7945213,2.5123368)" stroke-width="1" stroke-linecap="butt" stroke-miterlimit="4" stroke-linejoin="miter" fill="none" stroke="#000000" d="M81 111H121V151H81Z"/>
</g>
</g>
<path transform="matrix(.7178082,0,0,.7178082,.3589041,.3589041)" d="M81 111H121V151H81Z" fill="#dae8fc"/>
<path transform="matrix(.7178082,0,0,.7178082,.3589041,.3589041)" stroke-width="1" stroke-linecap="butt" stroke-miterlimit="4" stroke-linejoin="miter" fill="none" stroke="#6c8ebf" d="M81 111H121V151H81Z"/>
<g opacity=".2471">
<g clip-path="url(#clip_14)">
<path transform="matrix(.7178082,0,0,.7178082,1.7945252,2.5123368)" d="M301 111H341V151H301Z"/>
<path transform="matrix(.7178082,0,0,.7178082,1.7945252,2.5123368)" stroke-width="1" stroke-linecap="butt" stroke-miterlimit="4" stroke-linejoin="miter" fill="none" stroke="#000000" d="M301 111H341V151H301Z"/>
</g>
</g>
<path transform="matrix(.7178082,0,0,.7178082,.3589041,.3589041)" d="M301 111H341V151H301Z" fill="#dae8fc"/>
<path transform="matrix(.7178082,0,0,.7178082,.3589041,.3589041)" stroke-width="1" stroke-linecap="butt" stroke-miterlimit="4" stroke-linejoin="miter" fill="none" stroke="#6c8ebf" d="M301 111H341V151H301Z"/>
</g>
</g>
</svg>
