<svg xmlns="http://www.w3.org/2000/svg" xmlns:xlink="http://www.w3.org/1999/xlink" xmlns:inkscape="http://www.inkscape.org/namespaces/inkscape" version="1.1" width="1422" height="1098.96" viewBox="0 0 1422 1098.96">
<defs>
<clipPath id="clip_1">
<path transform="matrix(.24,0,0,.24,0,0)" d="M0 0H5925V4576.3659H0Z" clip-rule="evenodd"/>
</clipPath>
<path id="font_2_19" d="M.27441407 .71875C.34375 .71875 .39794923 .6939952 .43701173 .6444855 .4835612 .585851 .50683596 .48861695 .50683596 .3527832 .50683596 .21727498 .48339845 .119878139 .43652345 .06059265 .39778648 .011734009 .34375-.0126953129 .27441407-.0126953129 .20475261-.0126953129 .14860027 .014094035 .10595703 .06767273 .063313808 .1212616 .041992189 .2167867 .041992189 .35424806 .041992189 .48910523 .06542969 .5861766 .11230469 .64546206 .15104167 .6943207 .20507813 .71875 .27441407 .71875M.27441407 .6044922C.2578125 .6044922 .2430013 .5992076 .22998047 .5886383 .21695964 .57806906 .20686849 .5591278 .19970703 .5318146 .19026692 .4963633 .18554688 .4366862 .18554688 .3527832 .18554688 .26888023 .18977864 .2112376 .19824219 .17985535 .20670574 .1484731 .21736653 .12757874 .23022461 .11717224 .24308269 .10676575 .2578125 .1015625 .27441407 .1015625 .29101563 .1015625 .3058268 .10684713 .31884767 .11741638 .3318685 .12798564 .34195964 .14692688 .3491211 .17424011 .3585612 .20936585 .36328126 .26888023 .36328126 .3527832 .36328126 .4366862 .35904948 .49432884 .35058595 .52571108 .3421224 .5570933 .33146159 .57806906 .31860353 .5886383 .30574546 .5992076 .29101563 .6044922 .27441407 .6044922Z"/>
<path id="font_2_20" d="M.3935547 0H.25634767V.51652529C.20621746 .46946717 .14713542 .43466188 .07910156 .41210938V.5371094C.11490885 .54885867 .1538086 .5711314 .19580078 .6039276 .23779297 .636734 .26660157 .6750081 .28222657 .71875H.3935547V0Z"/>
<path id="font_2_21" d="M.5058594 .12792969V0H.024902344C.030110678 .048136396 .045735677 .09375 .071777347 .13684082 .09781901 .17994182 .1492513 .2371114 .22607422 .3083496 .2879232 .36591593 .32584635 .40494285 .33984376 .4254303 .35872398 .45373027 .36816407 .4817047 .36816407 .50935366 .36816407 .53993228 .35994468 .5634308 .34350587 .57984927 .32706706 .5962779 .30436198 .6044922 .27539063 .6044922 .2467448 .6044922 .22395833 .5958252 .20703125 .5784912 .19010417 .5611674 .18033855 .5323995 .17773438 .4921875L.041015626 .5059204C.049153646 .5817668 .07470703 .63619998 .11767578 .66922 .16064453 .70224 .21435547 .71875 .2788086 .71875 .34944663 .71875 .4049479 .6997223 .4453125 .66166689 .4856771 .62361147 .5058594 .5762889 .5058594 .5196991 .5058594 .4874929 .50008139 .4568329 .4885254 .42771913 .4769694 .3986155 .45865885 .36812846 .43359376 .33625794 .4169922 .31510926 .38704429 .2846934 .34375 .24501038 .30045573 .20533753 .2730306 .17899578 .2614746 .1659851 .24991863 .15297444 .24055989 .1402893 .23339844 .12792969H.5058594Z"/>
<path id="font_2_22" d="M.037597658 .1899414 .17041016 .20605469C.17464192 .17220052 .18603516 .14632161 .20458985 .12841797 .22314453 .11051432 .24560547 .1015625 .27197267 .1015625 .30029298 .1015625 .32413737 .11230469 .34350587 .13378906 .36287437 .15527344 .3725586 .1842448 .3725586 .22070313 .3725586 .25520835 .36328126 .2825521 .34472657 .30273438 .32617188 .32291667 .3035482 .3330078 .27685548 .3330078 .25927735 .3330078 .23828125 .32958985 .21386719 .3227539L.2290039 .43359376C.26611329 .4326172 .2944336 .4406484 .31396485 .45768739 .3334961 .47473655 .34326173 .49738059 .34326173 .5256195 .34326173 .54963687 .33610026 .5687866 .32177735 .58306887 .30745445 .5973511 .28841148 .6044922 .26464845 .6044922 .24121094 .6044922 .2211914 .5963542 .20458985 .5800781 .18798828 .56380209 .17789714 .54003909 .1743164 .50878909L.047851564 .53027346C.056640626 .5739034 .0699056 .6087596 .087646488 .6348419 .10538737 .66092428 .13012696 .681427 .16186524 .6963501 .19360352 .7112834 .22916667 .71875 .2685547 .71875 .3359375 .71875 .38997398 .6972351 .43066407 .6542053 .46419273 .61898806 .48095704 .57921347 .48095704 .5348816 .48095704 .4719645 .4466146 .42175804 .3779297 .38426209 .4189453 .37547303 .45174156 .35577903 .47631837 .32518006 .5008952 .2945811 .5131836 .2576345 .5131836 .21434021 .5131836 .15152486 .49023438 .09798177 .44433595 .053710939 .3984375 .0094401049 .3413086-.0126953129 .27294923-.0126953129 .20817058-.0126953129 .15445964 .0059865319 .111816409 .04335022 .06917318 .080713909 .044433595 .12957764 .037597658 .1899414Z"/>
<path id="font_2_23" d="M.31152345 0V.14453125H.018554688V.26416017L.32910157 .71875H.44433595V.26464845H.5332031V.14453125H.44433595V0H.31152345M.31152345 .26464845V.5090027L.14697266 .26464845H.31152345Z"/>
<path id="font_2_24" d="M.044433595 .18408203 .18115235 .19824219C.1850586 .1673177 .19661458 .14282227 .21582031 .12475586 .23502605 .10668945 .25716148 .09765625 .28222657 .09765625 .3108724 .09765625 .3351237 .109313968 .35498048 .1326294 .37483726 .15594483 .38476563 .19108074 .38476563 .23803711 .38476563 .2820638 .3749186 .31508384 .3552246 .33709718 .3355306 .3591105 .30989585 .3701172 .2783203 .3701172 .2389323 .3701172 .20361328 .35253907 .17236328 .3173828L.061035158 .33364869 .13134766 .70703127H.49414063V.578125H.23535156L.21386719 .45661927C.24446614 .4718679 .27571617 .4794922 .3076172 .4794922 .3684896 .4794922 .42008464 .457311 .46240235 .4129486 .50472006 .3685964 .5258789 .31103007 .5258789 .24024964 .5258789 .1812083 .50878909 .12852986 .47460938 .082214359 .4280599 .018941245 .363444-.0126953129 .28076173-.0126953129 .21468099-.0126953129 .1608073 .005086263 .119140628 .040649415 .07747396 .07622274 .052571615 .12403361 .044433595 .18408203Z"/>
<path id="font_2_25" d="M.5073242 .5390625 .37451173 .52441409C.3712565 .5517578 .36279298 .5719401 .3491211 .58496096 .33544923 .59798178 .31770835 .6044922 .29589845 .6044922 .2669271 .6044922 .24243164 .5914256 .22241211 .56529238 .20239258 .5391591 .18977864 .48484294 .18457031 .40234376 .21875 .44270835 .26123048 .46289063 .31201173 .46289063 .36930339 .46289063 .41837565 .44114686 .45922853 .3976593 .50008139 .35417176 .5205078 .29802958 .5205078 .22923279 .5205078 .1562144 .49902345 .0976359 .4560547 .053497316 .41308595 .0093688969 .35791017-.0126953129 .29052735-.0126953129 .21826172-.0126953129 .15885417 .015396118 .11230469 .07157898 .06575521 .12777202 .04248047 .21987915 .04248047 .3479004 .04248047 .47916667 .06673177 .5737915 .115234378 .6317749 .16373699 .6897583 .22672527 .71875 .30419923 .71875 .3585612 .71875 .40356446 .7034047 .43920899 .67271426 .47485353 .6420339 .4975586 .59748336 .5073242 .5390625M.19628906 .23991394C.19628906 .19573467 .20654297 .16163127 .22705078 .13760376 .2475586 .113576259 .2709961 .1015625 .29736329 .1015625 .3227539 .1015625 .34391276 .11139933 .36083985 .131073 .37776695 .15074666 .38623048 .18299358 .38623048 .22781372 .38623048 .27393595 .37711589 .3077189 .35888673 .3291626 .34065757 .3506063 .3178711 .36132813 .29052735 .36132813 .26416017 .36132813 .24186199 .35108949 .22363281 .33061219 .20540364 .3101349 .19628906 .27990214 .19628906 .23991394Z"/>
<path id="font_2_26" d="M.04248047 .57910159V.70703127H.51171877V.6074219C.47298179 .5692749 .43359376 .51449587 .3935547 .44308473 .35351563 .37168376 .32299806 .29579673 .30200196 .21542359 .28100587 .13506063 .27067057 .06325277 .2709961 0H.13867188C.14095052 .09903971 .16137696 .20003255 .19995117 .30297853 .23852539 .40593467 .29003907 .49797569 .3544922 .57910159H.04248047Z"/>
<path id="font_2_27" d="M.16015625 .38645936C.12467448 .40142314 .09887695 .42199708 .08276367 .44818116 .06665039 .47436524 .05859375 .5030721 .05859375 .53430178 .05859375 .5876567 .07722982 .6317342 .11450195 .6665344 .1517741 .7013448 .20475261 .71875 .2734375 .71875 .34147135 .71875 .3942871 .7013448 .43188478 .6665344 .46948243 .6317342 .48828126 .5876567 .48828126 .53430178 .48828126 .50112918 .47965495 .4716085 .46240235 .44573976 .44514976 .4198812 .42089845 .40012107 .38964845 .38645936 .42936198 .37045799 .45955406 .34711204 .4802246 .3164215 .5008952 .285731 .51123049 .25030519 .51123049 .21014405 .51123049 .14387004 .49015299 .08999634 .44799806 .04852295 .4058431 .007059733 .34977214-.013671875 .27978517-.013671875 .21468099-.013671875 .16048177 .0034688314 .1171875 .037750246 .06608073 .0782369 .040527345 .13374329 .040527345 .20426941 .040527345 .24312847 .050130208 .27879844 .06933594 .3112793 .088541667 .34377036 .1188151 .36883036 .16015625 .38645936M.18847656 .5241699C.18847656 .49689738 .19620769 .4756317 .21166992 .46037293 .22713216 .4451243 .24772136 .4375 .2734375 .4375 .29947917 .4375 .3203125 .4452057 .3359375 .46061708 .3515625 .4760386 .359375 .49738566 .359375 .5246582 .359375 .55030319 .3516439 .5708313 .33618165 .5862427 .3207194 .60166427 .30029298 .609375 .27490235 .609375 .24853516 .609375 .22753906 .6015828 .21191406 .58599856 .19628906 .5704244 .18847656 .5498149 .18847656 .5241699M.17578125 .21755982C.17578125 .17955525 .1854655 .14990743 .20483399 .12861634 .22420247 .10732523 .24837239 .09667969 .27734376 .09667969 .30566407 .09667969 .32910157 .106913249 .34765626 .12738037 .36621095 .14785767 .37548829 .1774292 .37548829 .21609497 .37548829 .24983724 .3660482 .27694194 .34716798 .29740907 .32828776 .31788636 .30436198 .328125 .27539063 .328125 .24186199 .328125 .21687825 .3164927 .20043946 .29322816 .18400066 .26997376 .17578125 .24475098 .17578125 .21755982Z"/>
<path id="font_2_28" d="M.045410158 .16592407 .17822266 .18066406C.18147786 .15348308 .1899414 .13334148 .20361328 .12023926 .21728516 .10713705 .23535156 .10058594 .2578125 .10058594 .2861328 .10058594 .31022135 .11365255 .33007813 .13978577 .3499349 .16591899 .36263023 .22007244 .36816407 .3022461 .33365885 .26220704 .29052735 .2421875 .23876953 .2421875 .18245442 .2421875 .13387044 .2638906 .09301758 .30729676 .052164716 .3507131 .03173828 .4072164 .03173828 .47680665 .03173828 .5493266 .053304037 .6077779 .09643555 .65216067 .13956706 .6965535 .1944987 .71875 .26123048 .71875 .33382163 .71875 .39339195 .6906331 .4399414 .6343994 .48649089 .57817587 .5097656 .48568727 .5097656 .3569336 .5097656 .22590129 .4855143 .13137309 .43701173 .073349 .38850913 .015335083 .32535807-.013671875 .2475586-.013671875 .19156902-.013671875 .14632161 .001332601 .111816409 .031341554 .077311199 .061360677 .05517578 .10622152 .045410158 .16592407M.35595704 .46536256C.35595704 .50947067 .34578453 .5436859 .32543946 .5680084 .3050944 .59233096 .28157554 .6044922 .2548828 .6044922 .22949219 .6044922 .20841472 .594518 .19165039 .5745697 .17488607 .55463156 .1665039 .5219574 .1665039 .47654725 .1665039 .43049623 .17561849 .39668785 .19384766 .37512208 .21207683 .3535563 .23486328 .34277345 .26220704 .34277345 .28857423 .34277345 .31079103 .3531494 .32885743 .37390138 .34692384 .39466349 .35595704 .42515055 .35595704 .46536256Z"/>
<path id="font_2_73" d="M.01171875 .5185547H.087890628V.55770877C.087890628 .60143026 .0925293 .63405868 .10180664 .6555939 .111083988 .6771291 .12817383 .69466659 .15307617 .7082062 .17797852 .7217458 .20947266 .7285156 .2475586 .7285156 .2866211 .7285156 .32486979 .72265627 .3623047 .7109375L.34375 .6152344C.3219401 .6204427 .300944 .6230469 .28076173 .6230469 .26090495 .6230469 .2466634 .61838278 .23803711 .60905459 .22941081 .5997365 .22509766 .5818329 .22509766 .5553436V.5185547H.32763673V.41015626H.22509766V0H.087890628V.41015626H.01171875V.5185547Z"/>
<path id="font_2_76" d="M.071777347 .5888672V.7158203H.20898438V.5888672H.071777347M.071777347 0V.5185547H.20898438V0H.071777347Z"/>
<path id="font_2_85" d="M.203125 0H.06591797V.5185547H.19335938V.44482423C.21516927 .47965495 .2347819 .5026042 .25219728 .5136719 .26961265 .52473959 .28938804 .53027346 .31152345 .53027346 .34277345 .53027346 .37288413 .52164718 .40185548 .50439456L.359375 .38476563C.33626304 .3997396 .31477867 .40722657 .29492188 .40722657 .27571617 .40722657 .2594401 .40193687 .24609375 .39135743 .23274739 .38077799 .22224935 .36165367 .21459961 .33398438 .20694988 .3063151 .203125 .24837239 .203125 .16015625V0Z"/>
<path id="font_2_86" d="M.0234375 .14746094 .16113281 .16894531C.16699219 .14241536 .1788737 .122273769 .19677735 .10852051 .21468099 .09476725 .2397461 .087890628 .27197267 .087890628 .30745445 .087890628 .33414714 .09439087 .35205079 .10739136 .36409507 .116495769 .3701172 .12868755 .3701172 .14396668 .3701172 .15437317 .36686198 .1629893 .36035157 .16981507 .35351563 .17631531 .33821617 .18232727 .31445313 .18785095 .20377605 .21222432 .1336263 .23449199 .104003909 .25465394 .06298828 .2826284 .04248047 .32149253 .04248047 .37124635 .04248047 .41612754 .060221357 .45385234 .095703128 .48442079 .13118489 .5149892 .18619792 .53027346 .2607422 .53027346 .33170573 .53027346 .3844401 .5187581 .4189453 .49572755 .45345054 .47269694 .47721354 .4386393 .49023438 .3935547L.36083985 .36914063C.355306 .3893229 .34480796 .40478517 .3293457 .41552735 .31388346 .42626954 .29182945 .43164063 .2631836 .43164063 .22705078 .43164063 .20117188 .42660014 .18554688 .41651917 .1751302 .40937806 .16992188 .40011598 .16992188 .3887329 .16992188 .37898765 .17447917 .37070213 .18359375 .36387635 .19596355 .35477195 .23868816 .3419291 .31176759 .3253479 .38484703 .3087667 .4358724 .28842674 .46484376 .264328 .4934896 .2398936 .5078125 .20585633 .5078125 .16221619 .5078125 .11465963 .48795573 .073781337 .4482422 .0395813 .40852867 .005381266 .34977214-.01171875 .27197267-.01171875 .20133464-.01171875 .14542644 .0025583904 .10424805 .03111267 .063069667 .059677125 .036132814 .09845988 .0234375 .14746094Z"/>
<path id="font_2_87" d="M.3095703 .5185547V.4091797H.21582031V.200531C.21582031 .15827434 .2167155 .13365174 .21850586 .12666321 .22029622 .11968485 .22436524 .11391703 .23071289 .10935974 .23706055 .10481262 .24479167 .10253906 .25390626 .10253906 .26660157 .10253906 .2849935 .106933597 .30908204 .115722659L.32080079 .008880615C.28889976-.004852295 .25276695-.01171875 .21240235-.01171875 .18766277-.01171875 .16536458-.0075683596 .14550781 .0007324219 .12565105 .009033203 .111083988 .01977539 .10180664 .032958986 .0925293 .046142579 .08610026 .063964847 .08251953 .08642578 .079589847 .102376308 .078125 .13460286 .078125 .18310547V.4091797H.015136719V.5185547H.078125V.6220703L.21582031 .703125V.5185547H.3095703Z"/>
<path id="font_2_79" d="M.071777347 0V.7158203H.20898438V0H.071777347Z"/>
<path id="font_2_68" d="M.1743164 .35839845 .049804689 .38085938C.063802089 .4316508 .087890628 .46924845 .12207031 .49365235 .15625 .5180664 .20703125 .53027346 .27441407 .53027346 .33561198 .53027346 .3811849 .5230306 .4111328 .5085449 .44108073 .49405924 .4621582 .47566734 .47436524 .45336915 .48657228 .43107096 .49267579 .39013673 .49267579 .3305664L.49121095 .17041016C.49121095 .12483724 .4934082 .09122721 .49780274 .06958008 .50219729 .04793294 .5104167 .024739584 .52246096 0H.38671876C.38313804 .009114583 .3787435 .022623698 .37353517 .040527345 .3712565 .048665365 .3696289 .054036458 .36865235 .056640626 .34521485 .033854169 .32014976 .016764323 .29345704 .0053710939 .2667643-.0060221354 .23828125-.01171875 .20800781-.01171875 .15462239-.01171875 .11254883 .0027058919 .08178711 .031555177 .05102539 .06040446 .03564453 .09687296 .03564453 .1409607 .03564453 .1701355 .04264323 .19614665 .056640626 .21899414 .07063802 .2418518 .09025065 .25935874 .115478519 .2715149 .14070638 .28367106 .17708333 .2942861 .22460938 .30336 .28873698 .3153534 .33317057 .3265381 .35791017 .33691407V.35073854C.35791017 .37740074 .35139976 .39640809 .3383789 .40776063 .32535807 .41912333 .30078126 .4248047 .26464845 .4248047 .24023438 .4248047 .2211914 .41989137 .20751953 .4100647 .19384766 .4002482 .18277996 .38302613 .1743164 .35839845M.35791017 .24707031C.34033204 .24128215 .3125 .23436482 .27441407 .22631836 .23632813 .21828206 .21142578 .21040344 .19970703 .2026825 .18180339 .19013977 .17285156 .17421977 .17285156 .15492249 .17285156 .13594055 .18001302 .119532268 .19433594 .10569763 .20865886 .09187317 .22688802 .08496094 .24902344 .08496094 .27376304 .08496094 .29736329 .09300232 .31982423 .10908508 .33642579 .121302288 .34733073 .13626099 .35253907 .15396118 .35611979 .16553752 .35791017 .18756612 .35791017 .220047V.24707031Z"/>
</defs>
<g clip-path="url(#clip_1)">
<path transform="matrix(.7192716,0,0,.7192716,.3596358,.3596358)" d="M1293 171H1437V243H1293Z" fill="#fff2cc"/>
<path transform="matrix(.7192716,0,0,.7192716,.3596358,.3596358)" stroke-width="1" stroke-linecap="butt" stroke-miterlimit="4" stroke-linejoin="miter" fill="none" stroke="#d6b656" d="M1293 171H1437V243H1293Z"/>
<use data-text="0" xlink:href="#font_2_19" transform="matrix(30.209408,0,0,-30.209408,973.39926,158.95903)"/>
<path transform="matrix(.7192716,0,0,.7192716,.3596358,.3596358)" d="M1568 245H1712V317H1568Z" fill="#fff2cc"/>
<path transform="matrix(.7192716,0,0,.7192716,.3596358,.3596358)" stroke-width="1" stroke-linecap="butt" stroke-miterlimit="4" stroke-linejoin="miter" fill="none" stroke="#d6b656" d="M1568 245H1712V317H1568Z"/>
<use data-text="1" xlink:href="#font_2_20" transform="matrix(30.209408,0,0,-30.209408,1171.199,212.18512)"/>
<path transform="matrix(.7192716,0,0,.7192716,.3596358,.3596358)" d="M1769 446H1913V518H1769Z" fill="#fff2cc"/>
<path transform="matrix(.7192716,0,0,.7192716,.3596358,.3596358)" stroke-width="1" stroke-linecap="butt" stroke-miterlimit="4" stroke-linejoin="miter" fill="none" stroke="#d6b656" d="M1769 446H1913V518H1769Z"/>
<use data-text="2" xlink:href="#font_2_21" transform="matrix(30.209408,0,0,-30.209408,1315.7726,356.75874)"/>
<path transform="matrix(.7192716,0,0,.7192716,.3596358,.3596358)" d="M1831 721H1975V793H1831Z" fill="#dae8fc"/>
<path transform="matrix(.7192716,0,0,.7192716,.3596358,.3596358)" stroke-width="1" stroke-linecap="butt" stroke-miterlimit="4" stroke-linejoin="miter" fill="none" stroke="#6c8ebf" d="M1831 721H1975V793H1831Z"/>
<use data-text="3" xlink:href="#font_2_22" transform="matrix(30.209408,0,0,-30.209408,1360.3673,554.5584)"/>
<path transform="matrix(.7192716,0,0,.7192716,.3596358,.3596358)" d="M1757 996H1901V1068H1757Z" fill="#dae8fc"/>
<path transform="matrix(.7192716,0,0,.7192716,.3596358,.3596358)" stroke-width="1" stroke-linecap="butt" stroke-miterlimit="4" stroke-linejoin="miter" fill="none" stroke="#6c8ebf" d="M1757 996H1901V1068H1757Z"/>
<use data-text="4" xlink:href="#font_2_23" transform="matrix(30.209408,0,0,-30.209408,1307.1412,752.3581)"/>
<path transform="matrix(.7192716,0,0,.7192716,.3596358,.3596358)" d="M1556 1197H1700V1269H1556Z" fill="#dae8fc"/>
<path transform="matrix(.7192716,0,0,.7192716,.3596358,.3596358)" stroke-width="1" stroke-linecap="butt" stroke-miterlimit="4" stroke-linejoin="miter" fill="none" stroke="#6c8ebf" d="M1556 1197H1700V1269H1556Z"/>
<use data-text="5" xlink:href="#font_2_24" transform="matrix(30.209408,0,0,-30.209408,1162.5676,896.9317)"/>
<path transform="matrix(.7192716,0,0,.7192716,.3596358,.3596358)" d="M1281 1271H1425V1343H1281Z" fill="#dae8fc"/>
<path transform="matrix(.7192716,0,0,.7192716,.3596358,.3596358)" stroke-width="1" stroke-linecap="butt" stroke-miterlimit="4" stroke-linejoin="miter" fill="none" stroke="#6c8ebf" d="M1281 1271H1425V1343H1281Z"/>
<use data-text="6" xlink:href="#font_2_25" transform="matrix(30.209408,0,0,-30.209408,964.768,950.1578)"/>
<path transform="matrix(.7192716,0,0,.7192716,.3596358,.3596358)" d="M1006 1197H1150V1269H1006Z" fill="#dae8fc"/>
<path transform="matrix(.7192716,0,0,.7192716,.3596358,.3596358)" stroke-width="1" stroke-linecap="butt" stroke-miterlimit="4" stroke-linejoin="miter" fill="none" stroke="#6c8ebf" d="M1006 1197H1150V1269H1006Z"/>
<use data-text="7" xlink:href="#font_2_26" transform="matrix(30.209408,0,0,-30.209408,766.9683,896.9317)"/>
<path transform="matrix(.7192716,0,0,.7192716,.3596358,.3596358)" d="M805 996H949V1068H805Z" fill="#dae8fc"/>
<path transform="matrix(.7192716,0,0,.7192716,.3596358,.3596358)" stroke-width="1" stroke-linecap="butt" stroke-miterlimit="4" stroke-linejoin="miter" fill="none" stroke="#6c8ebf" d="M805 996H949V1068H805Z"/>
<use data-text="8" xlink:href="#font_2_27" transform="matrix(30.209408,0,0,-30.209408,622.3947,752.3581)"/>
<path transform="matrix(.7192716,0,0,.7192716,.3596358,.3596358)" d="M731 721H875V793H731Z" fill="#dae8fc"/>
<path transform="matrix(.7192716,0,0,.7192716,.3596358,.3596358)" stroke-width="1" stroke-linecap="butt" stroke-miterlimit="4" stroke-linejoin="miter" fill="none" stroke="#6c8ebf" d="M731 721H875V793H731Z"/>
<use data-text="9" xlink:href="#font_2_28" transform="matrix(30.209408,0,0,-30.209408,569.1686,554.5584)"/>
<path transform="matrix(.7192716,0,0,.7192716,.3596358,.3596358)" d="M805 446H949V518H805Z" fill="#dae8fc"/>
<path transform="matrix(.7192716,0,0,.7192716,.3596358,.3596358)" stroke-width="1" stroke-linecap="butt" stroke-miterlimit="4" stroke-linejoin="miter" fill="none" stroke="#6c8ebf" d="M805 446H949V518H805Z"/>
<use data-text="1" xlink:href="#font_2_20" transform="matrix(30.209408,0,0,-30.209408,613.99948,356.75874)"/>
<use data-text="0" xlink:href="#font_2_19" transform="matrix(30.209408,0,0,-30.209408,630.7959,356.75874)"/>
<path transform="matrix(.7192716,0,0,.7192716,.3596358,.3596358)" d="M1018 245H1162V317H1018Z" fill="#fff2cc"/>
<path transform="matrix(.7192716,0,0,.7192716,.3596358,.3596358)" stroke-width="1" stroke-linecap="butt" stroke-miterlimit="4" stroke-linejoin="miter" fill="none" stroke="#d6b656" d="M1018 245H1162V317H1018Z"/>
<use data-text="1" xlink:href="#font_2_20" transform="matrix(30.209408,0,0,-30.209408,768.03598,212.18512)"/>
<use data-text="1" xlink:href="#font_2_20" transform="matrix(30.209408,0,0,-30.209408,783.17019,212.18512)"/>
<path transform="matrix(.7192716,0,0,.7192716,0,0)" stroke-width="4" stroke-linecap="butt" stroke-miterlimit="10" stroke-linejoin="miter" fill="none" stroke="#0000ff" d="M1355 747H1759.03"/>
<path transform="matrix(.7192716,0,0,.7192716,0,0)" d="M1766.53 747 1756.53 752 1759.03 747 1756.53 742 1766.53 747Z" fill="#0000ff"/>
<path transform="matrix(.7192716,0,0,.7192716,0,0)" stroke-width="4" stroke-linecap="butt" stroke-miterlimit="10" stroke-linejoin="miter" fill="none" stroke="#0000ff" d="M1766.53 747 1756.53 752 1759.03 747 1756.53 742 1766.53 747Z"/>
<path transform="matrix(.7192716,0,0,.7192716,0,0)" d="M1524 722H1603V773H1524Z" fill="#ffffff"/>
<use data-text="f" xlink:href="#font_2_73" transform="matrix(30.209408,0,0,-30.209408,1096.0463,547.36569)" fill="#0000ff"/>
<use data-text="i" xlink:href="#font_2_76" transform="matrix(30.209408,0,0,-30.209408,1106.106,547.36569)" fill="#0000ff"/>
<use data-text="r" xlink:href="#font_2_85" transform="matrix(30.209408,0,0,-30.209408,1114.5043,547.36569)" fill="#0000ff"/>
<use data-text="s" xlink:href="#font_2_86" transform="matrix(30.209408,0,0,-30.209408,1126.2557,547.36569)" fill="#0000ff"/>
<use data-text="t" xlink:href="#font_2_87" transform="matrix(30.209408,0,0,-30.209408,1143.0521,547.36569)" fill="#0000ff"/>
<path transform="matrix(.7192716,0,0,.7192716,0,0)" stroke-width="4" stroke-linecap="butt" stroke-miterlimit="10" stroke-linejoin="miter" fill="none" stroke="#ff6666" d="M1355 747 1017.13 534.38"/>
<path transform="matrix(.7192716,0,0,.7192716,0,0)" d="M1010.78 530.38 1021.91 531.48 1017.13 534.38 1016.59 539.94 1010.78 530.38Z" fill="#ff6666"/>
<path transform="matrix(.7192716,0,0,.7192716,0,0)" stroke-width="4" stroke-linecap="butt" stroke-miterlimit="10" stroke-linejoin="miter" fill="none" stroke="#ff6666" d="M1010.78 530.38 1021.91 531.48 1017.13 534.38 1016.59 539.94 1010.78 530.38Z"/>
<path transform="matrix(.7192716,0,0,.7192716,0,0)" d="M1145 612H1218V663H1145Z" fill="#ffffff"/>
<use data-text="l" xlink:href="#font_2_79" transform="matrix(30.209408,0,0,-30.209408,823.7908,468.24583)" fill="#ff6666"/>
<use data-text="a" xlink:href="#font_2_68" transform="matrix(30.209408,0,0,-30.209408,832.18899,468.24583)" fill="#ff6666"/>
<use data-text="s" xlink:href="#font_2_86" transform="matrix(30.209408,0,0,-30.209408,848.9855,468.24583)" fill="#ff6666"/>
<use data-text="t" xlink:href="#font_2_87" transform="matrix(30.209408,0,0,-30.209408,865.7819,468.24583)" fill="#ff6666"/>
<path transform="matrix(.7192716,0,0,.7192716,.3596358,.3596358)" d="M1 1H145V73H1Z" fill="#fff2cc"/>
<path transform="matrix(.7192716,0,0,.7192716,.3596358,.3596358)" stroke-width="1" stroke-linecap="butt" stroke-miterlimit="4" stroke-linejoin="miter" fill="none" stroke="#d6b656" d="M1 1H145V73H1Z"/>
<use data-text="0" xlink:href="#font_2_19" transform="matrix(30.209408,0,0,-30.209408,44.10034,36.68285)"/>
<path transform="matrix(.7192716,0,0,.7192716,.3596358,.3596358)" d="M1 133H145V205H1Z" fill="#fff2cc"/>
<path transform="matrix(.7192716,0,0,.7192716,.3596358,.3596358)" stroke-width="1" stroke-linecap="butt" stroke-miterlimit="4" stroke-linejoin="miter" fill="none" stroke="#d6b656" d="M1 133H145V205H1Z"/>
<use data-text="1" xlink:href="#font_2_20" transform="matrix(30.209408,0,0,-30.209408,44.10034,131.62671)"/>
<path transform="matrix(.7192716,0,0,.7192716,.3596358,.3596358)" d="M1 265H145V337H1Z" fill="#fff2cc"/>
<path transform="matrix(.7192716,0,0,.7192716,.3596358,.3596358)" stroke-width="1" stroke-linecap="butt" stroke-miterlimit="4" stroke-linejoin="miter" fill="none" stroke="#d6b656" d="M1 265H145V337H1Z"/>
<use data-text="2" xlink:href="#font_2_21" transform="matrix(30.209408,0,0,-30.209408,44.10034,226.57056)"/>
<path transform="matrix(.7192716,0,0,.7192716,.3596358,.3596358)" d="M1 397H145V469H1Z" fill="#dae8fc"/>
<path transform="matrix(.7192716,0,0,.7192716,.3596358,.3596358)" stroke-width="1" stroke-linecap="butt" stroke-miterlimit="4" stroke-linejoin="miter" fill="none" stroke="#6c8ebf" d="M1 397H145V469H1Z"/>
<use data-text="3" xlink:href="#font_2_22" transform="matrix(30.209408,0,0,-30.209408,44.10034,321.5144)"/>
<path transform="matrix(.7192716,0,0,.7192716,.3596358,.3596358)" d="M1 529H145V601H1Z" fill="#dae8fc"/>
<path transform="matrix(.7192716,0,0,.7192716,.3596358,.3596358)" stroke-width="1" stroke-linecap="butt" stroke-miterlimit="4" stroke-linejoin="miter" fill="none" stroke="#6c8ebf" d="M1 529H145V601H1Z"/>
<use data-text="4" xlink:href="#font_2_23" transform="matrix(30.209408,0,0,-30.209408,44.10034,416.45826)"/>
<path transform="matrix(.7192716,0,0,.7192716,.3596358,.3596358)" d="M1 661H145V733H1Z" fill="#dae8fc"/>
<path transform="matrix(.7192716,0,0,.7192716,.3596358,.3596358)" stroke-width="1" stroke-linecap="butt" stroke-miterlimit="4" stroke-linejoin="miter" fill="none" stroke="#6c8ebf" d="M1 661H145V733H1Z"/>
<use data-text="5" xlink:href="#font_2_24" transform="matrix(30.209408,0,0,-30.209408,44.10034,511.4021)"/>
<path transform="matrix(.7192716,0,0,.7192716,.3596358,.3596358)" d="M1 793H145V865H1Z" fill="#dae8fc"/>
<path transform="matrix(.7192716,0,0,.7192716,.3596358,.3596358)" stroke-width="1" stroke-linecap="butt" stroke-miterlimit="4" stroke-linejoin="miter" fill="none" stroke="#6c8ebf" d="M1 793H145V865H1Z"/>
<use data-text="6" xlink:href="#font_2_25" transform="matrix(30.209408,0,0,-30.209408,44.10034,606.34597)"/>
<path transform="matrix(.7192716,0,0,.7192716,.3596358,.3596358)" d="M1 925H145V997H1Z" fill="#dae8fc"/>
<path transform="matrix(.7192716,0,0,.7192716,.3596358,.3596358)" stroke-width="1" stroke-linecap="butt" stroke-miterlimit="4" stroke-linejoin="miter" fill="none" stroke="#6c8ebf" d="M1 925H145V997H1Z"/>
<use data-text="7" xlink:href="#font_2_26" transform="matrix(30.209408,0,0,-30.209408,44.10034,701.2898)"/>
<path transform="matrix(.7192716,0,0,.7192716,.3596358,.3596358)" d="M1 1057H145V1129H1Z" fill="#dae8fc"/>
<path transform="matrix(.7192716,0,0,.7192716,.3596358,.3596358)" stroke-width="1" stroke-linecap="butt" stroke-miterlimit="4" stroke-linejoin="miter" fill="none" stroke="#6c8ebf" d="M1 1057H145V1129H1Z"/>
<use data-text="8" xlink:href="#font_2_27" transform="matrix(30.209408,0,0,-30.209408,44.10034,796.23367)"/>
<path transform="matrix(.7192716,0,0,.7192716,.3596358,.3596358)" d="M1 1189H145V1261H1Z" fill="#dae8fc"/>
<path transform="matrix(.7192716,0,0,.7192716,.3596358,.3596358)" stroke-width="1" stroke-linecap="butt" stroke-miterlimit="4" stroke-linejoin="miter" fill="none" stroke="#6c8ebf" d="M1 1189H145V1261H1Z"/>
<use data-text="9" xlink:href="#font_2_28" transform="matrix(30.209408,0,0,-30.209408,44.10034,891.1775)"/>
<path transform="matrix(.7192716,0,0,.7192716,.3596358,.3596358)" d="M1 1321H145V1393H1Z" fill="#dae8fc"/>
<path transform="matrix(.7192716,0,0,.7192716,.3596358,.3596358)" stroke-width="1" stroke-linecap="butt" stroke-miterlimit="4" stroke-linejoin="miter" fill="none" stroke="#6c8ebf" d="M1 1321H145V1393H1Z"/>
<use data-text="1" xlink:href="#font_2_20" transform="matrix(30.209408,0,0,-30.209408,35.705095,986.12136)"/>
<use data-text="0" xlink:href="#font_2_19" transform="matrix(30.209408,0,0,-30.209408,52.501527,986.12136)"/>
<path transform="matrix(.7192716,0,0,.7192716,.3596358,.3596358)" d="M1 1453H145V1525H1Z" fill="#fff2cc"/>
<path transform="matrix(.7192716,0,0,.7192716,.3596358,.3596358)" stroke-width="1" stroke-linecap="butt" stroke-miterlimit="4" stroke-linejoin="miter" fill="none" stroke="#d6b656" d="M1 1453H145V1525H1Z"/>
<use data-text="1" xlink:href="#font_2_20" transform="matrix(30.209408,0,0,-30.209408,36.53675,1081.0652)"/>
<use data-text="1" xlink:href="#font_2_20" transform="matrix(30.209408,0,0,-30.209408,51.670957,1081.0652)"/>
<path transform="matrix(.7192716,0,0,.7192716,0,0)" stroke-width="4" stroke-linecap="butt" stroke-miterlimit="10" stroke-linejoin="miter" fill="none" stroke="#0000ff" d="M441 441H172.97"/>
<path transform="matrix(.7192716,0,0,.7192716,0,0)" d="M165.47 441 175.47 436 172.97 441 175.47 446 165.47 441Z" fill="#0000ff"/>
<path transform="matrix(.7192716,0,0,.7192716,0,0)" stroke-width="4" stroke-linecap="butt" stroke-miterlimit="10" stroke-linejoin="miter" fill="none" stroke="#0000ff" d="M165.47 441 175.47 436 172.97 441 175.47 446 165.47 441Z"/>
<path transform="matrix(.7192716,0,0,.7192716,0,0)" d="M262 416H341V467H262Z" fill="#ffffff"/>
<use data-text="f" xlink:href="#font_2_73" transform="matrix(30.209408,0,0,-30.209408,188.32553,327.2686)" fill="#0000ff"/>
<use data-text="i" xlink:href="#font_2_76" transform="matrix(30.209408,0,0,-30.209408,198.38527,327.2686)" fill="#0000ff"/>
<use data-text="r" xlink:href="#font_2_85" transform="matrix(30.209408,0,0,-30.209408,206.78348,327.2686)" fill="#0000ff"/>
<use data-text="s" xlink:href="#font_2_86" transform="matrix(30.209408,0,0,-30.209408,218.53495,327.2686)" fill="#0000ff"/>
<use data-text="t" xlink:href="#font_2_87" transform="matrix(30.209408,0,0,-30.209408,235.33136,327.2686)" fill="#0000ff"/>
<path transform="matrix(.7192716,0,0,.7192716,0,0)" stroke-width="4" stroke-linecap="butt" stroke-miterlimit="10" stroke-linejoin="miter" fill="none" stroke="#ff6666" d="M441 1361H182.97"/>
<path transform="matrix(.7192716,0,0,.7192716,0,0)" d="M175.47 1361 185.47 1356 182.97 1361 185.47 1366 175.47 1361Z" fill="#ff6666"/>
<path transform="matrix(.7192716,0,0,.7192716,0,0)" stroke-width="4" stroke-linecap="butt" stroke-miterlimit="10" stroke-linejoin="miter" fill="none" stroke="#ff6666" d="M175.47 1361 185.47 1356 182.97 1361 185.47 1366 175.47 1361Z"/>
<path transform="matrix(.7192716,0,0,.7192716,0,0)" d="M270 1336H343V1387H270Z" fill="#ffffff"/>
<use data-text="l" xlink:href="#font_2_79" transform="matrix(30.209408,0,0,-30.209408,194.4281,988.9985)" fill="#ff6666"/>
<use data-text="a" xlink:href="#font_2_68" transform="matrix(30.209408,0,0,-30.209408,202.82631,988.9985)" fill="#ff6666"/>
<use data-text="s" xlink:href="#font_2_86" transform="matrix(30.209408,0,0,-30.209408,219.62274,988.9985)" fill="#ff6666"/>
<use data-text="t" xlink:href="#font_2_87" transform="matrix(30.209408,0,0,-30.209408,236.41916,988.9985)" fill="#ff6666"/>
</g>
</svg>
