<svg xmlns="http://www.w3.org/2000/svg" xmlns:xlink="http://www.w3.org/1999/xlink" xmlns:inkscape="http://www.inkscape.org/namespaces/inkscape" version="1.1" width="192" height="191.04" viewBox="0 0 192 191.04">
<defs>
<clipPath id="clip_1">
<path transform="matrix(.24,0,0,.24,0,0)" d="M0 0H800V794.02987H0Z" clip-rule="evenodd"/>
</clipPath>
<clipPath id="clip_2">
<path transform="matrix(.24,0,0,.24,0,0)" d="M0 0H800V791.04476H0Z" clip-rule="evenodd"/>
</clipPath>
<path id="font_3_20" d="M.3935547 0H.25634767V.51652529C.20621746 .46946717 .14713542 .43466188 .07910156 .41210938V.5371094C.11490885 .54885867 .1538086 .5711314 .19580078 .6039276 .23779297 .636734 .26660157 .6750081 .28222657 .71875H.3935547V0Z"/>
<path id="font_3_21" d="M.5058594 .12792969V0H.024902344C.030110678 .048136396 .045735677 .09375 .071777347 .13684082 .09781901 .17994182 .1492513 .2371114 .22607422 .3083496 .2879232 .36591593 .32584635 .40494285 .33984376 .4254303 .35872398 .45373027 .36816407 .4817047 .36816407 .50935366 .36816407 .53993228 .35994468 .5634308 .34350587 .57984927 .32706706 .5962779 .30436198 .6044922 .27539063 .6044922 .2467448 .6044922 .22395833 .5958252 .20703125 .5784912 .19010417 .5611674 .18033855 .5323995 .17773438 .4921875L.041015626 .5059204C.049153646 .5817668 .07470703 .63619998 .11767578 .66922 .16064453 .70224 .21435547 .71875 .2788086 .71875 .34944663 .71875 .4049479 .6997223 .4453125 .66166689 .4856771 .62361147 .5058594 .5762889 .5058594 .5196991 .5058594 .4874929 .50008139 .4568329 .4885254 .42771913 .4769694 .3986155 .45865885 .36812846 .43359376 .33625794 .4169922 .31510926 .38704429 .2846934 .34375 .24501038 .30045573 .20533753 .2730306 .17899578 .2614746 .1659851 .24991863 .15297444 .24055989 .1402893 .23339844 .12792969H.5058594Z"/>
<path id="font_3_22" d="M.037597658 .1899414 .17041016 .20605469C.17464192 .17220052 .18603516 .14632161 .20458985 .12841797 .22314453 .11051432 .24560547 .1015625 .27197267 .1015625 .30029298 .1015625 .32413737 .11230469 .34350587 .13378906 .36287437 .15527344 .3725586 .1842448 .3725586 .22070313 .3725586 .25520835 .36328126 .2825521 .34472657 .30273438 .32617188 .32291667 .3035482 .3330078 .27685548 .3330078 .25927735 .3330078 .23828125 .32958985 .21386719 .3227539L.2290039 .43359376C.26611329 .4326172 .2944336 .4406484 .31396485 .45768739 .3334961 .47473655 .34326173 .49738059 .34326173 .5256195 .34326173 .54963687 .33610026 .5687866 .32177735 .58306887 .30745445 .5973511 .28841148 .6044922 .26464845 .6044922 .24121094 .6044922 .2211914 .5963542 .20458985 .5800781 .18798828 .56380209 .17789714 .54003909 .1743164 .50878909L.047851564 .53027346C.056640626 .5739034 .0699056 .6087596 .087646488 .6348419 .10538737 .66092428 .13012696 .681427 .16186524 .6963501 .19360352 .7112834 .22916667 .71875 .2685547 .71875 .3359375 .71875 .38997398 .6972351 .43066407 .6542053 .46419273 .61898806 .48095704 .57921347 .48095704 .5348816 .48095704 .4719645 .4466146 .42175804 .3779297 .38426209 .4189453 .37547303 .45174156 .35577903 .47631837 .32518006 .5008952 .2945811 .5131836 .2576345 .5131836 .21434021 .5131836 .15152486 .49023438 .09798177 .44433595 .053710939 .3984375 .0094401049 .3413086-.0126953129 .27294923-.0126953129 .20817058-.0126953129 .15445964 .0059865319 .111816409 .04335022 .06917318 .080713909 .044433595 .12957764 .037597658 .1899414Z"/>
<path id="font_3_23" d="M.31152345 0V.14453125H.018554688V.26416017L.32910157 .71875H.44433595V.26464845H.5332031V.14453125H.44433595V0H.31152345M.31152345 .26464845V.5090027L.14697266 .26464845H.31152345Z"/>
<path id="font_3_24" d="M.044433595 .18408203 .18115235 .19824219C.1850586 .1673177 .19661458 .14282227 .21582031 .12475586 .23502605 .10668945 .25716148 .09765625 .28222657 .09765625 .3108724 .09765625 .3351237 .109313968 .35498048 .1326294 .37483726 .15594483 .38476563 .19108074 .38476563 .23803711 .38476563 .2820638 .3749186 .31508384 .3552246 .33709718 .3355306 .3591105 .30989585 .3701172 .2783203 .3701172 .2389323 .3701172 .20361328 .35253907 .17236328 .3173828L.061035158 .33364869 .13134766 .70703127H.49414063V.578125H.23535156L.21386719 .45661927C.24446614 .4718679 .27571617 .4794922 .3076172 .4794922 .3684896 .4794922 .42008464 .457311 .46240235 .4129486 .50472006 .3685964 .5258789 .31103007 .5258789 .24024964 .5258789 .1812083 .50878909 .12852986 .47460938 .082214359 .4280599 .018941245 .363444-.0126953129 .28076173-.0126953129 .21468099-.0126953129 .1608073 .005086263 .119140628 .040649415 .07747396 .07622274 .052571615 .12403361 .044433595 .18408203Z"/>
<path id="font_3_25" d="M.5073242 .5390625 .37451173 .52441409C.3712565 .5517578 .36279298 .5719401 .3491211 .58496096 .33544923 .59798178 .31770835 .6044922 .29589845 .6044922 .2669271 .6044922 .24243164 .5914256 .22241211 .56529238 .20239258 .5391591 .18977864 .48484294 .18457031 .40234376 .21875 .44270835 .26123048 .46289063 .31201173 .46289063 .36930339 .46289063 .41837565 .44114686 .45922853 .3976593 .50008139 .35417176 .5205078 .29802958 .5205078 .22923279 .5205078 .1562144 .49902345 .0976359 .4560547 .053497316 .41308595 .0093688969 .35791017-.0126953129 .29052735-.0126953129 .21826172-.0126953129 .15885417 .015396118 .11230469 .07157898 .06575521 .12777202 .04248047 .21987915 .04248047 .3479004 .04248047 .47916667 .06673177 .5737915 .115234378 .6317749 .16373699 .6897583 .22672527 .71875 .30419923 .71875 .3585612 .71875 .40356446 .7034047 .43920899 .67271426 .47485353 .6420339 .4975586 .59748336 .5073242 .5390625M.19628906 .23991394C.19628906 .19573467 .20654297 .16163127 .22705078 .13760376 .2475586 .113576259 .2709961 .1015625 .29736329 .1015625 .3227539 .1015625 .34391276 .11139933 .36083985 .131073 .37776695 .15074666 .38623048 .18299358 .38623048 .22781372 .38623048 .27393595 .37711589 .3077189 .35888673 .3291626 .34065757 .3506063 .3178711 .36132813 .29052735 .36132813 .26416017 .36132813 .24186199 .35108949 .22363281 .33061219 .20540364 .3101349 .19628906 .27990214 .19628906 .23991394Z"/>
<path id="font_3_26" d="M.04248047 .57910159V.70703127H.51171877V.6074219C.47298179 .5692749 .43359376 .51449587 .3935547 .44308473 .35351563 .37168376 .32299806 .29579673 .30200196 .21542359 .28100587 .13506063 .27067057 .06325277 .2709961 0H.13867188C.14095052 .09903971 .16137696 .20003255 .19995117 .30297853 .23852539 .40593467 .29003907 .49797569 .3544922 .57910159H.04248047Z"/>
<path id="font_3_27" d="M.16015625 .38645936C.12467448 .40142314 .09887695 .42199708 .08276367 .44818116 .06665039 .47436524 .05859375 .5030721 .05859375 .53430178 .05859375 .5876567 .07722982 .6317342 .11450195 .6665344 .1517741 .7013448 .20475261 .71875 .2734375 .71875 .34147135 .71875 .3942871 .7013448 .43188478 .6665344 .46948243 .6317342 .48828126 .5876567 .48828126 .53430178 .48828126 .50112918 .47965495 .4716085 .46240235 .44573976 .44514976 .4198812 .42089845 .40012107 .38964845 .38645936 .42936198 .37045799 .45955406 .34711204 .4802246 .3164215 .5008952 .285731 .51123049 .25030519 .51123049 .21014405 .51123049 .14387004 .49015299 .08999634 .44799806 .04852295 .4058431 .007059733 .34977214-.013671875 .27978517-.013671875 .21468099-.013671875 .16048177 .0034688314 .1171875 .037750246 .06608073 .0782369 .040527345 .13374329 .040527345 .20426941 .040527345 .24312847 .050130208 .27879844 .06933594 .3112793 .088541667 .34377036 .1188151 .36883036 .16015625 .38645936M.18847656 .5241699C.18847656 .49689738 .19620769 .4756317 .21166992 .46037293 .22713216 .4451243 .24772136 .4375 .2734375 .4375 .29947917 .4375 .3203125 .4452057 .3359375 .46061708 .3515625 .4760386 .359375 .49738566 .359375 .5246582 .359375 .55030319 .3516439 .5708313 .33618165 .5862427 .3207194 .60166427 .30029298 .609375 .27490235 .609375 .24853516 .609375 .22753906 .6015828 .21191406 .58599856 .19628906 .5704244 .18847656 .5498149 .18847656 .5241699M.17578125 .21755982C.17578125 .17955525 .1854655 .14990743 .20483399 .12861634 .22420247 .10732523 .24837239 .09667969 .27734376 .09667969 .30566407 .09667969 .32910157 .106913249 .34765626 .12738037 .36621095 .14785767 .37548829 .1774292 .37548829 .21609497 .37548829 .24983724 .3660482 .27694194 .34716798 .29740907 .32828776 .31788636 .30436198 .328125 .27539063 .328125 .24186199 .328125 .21687825 .3164927 .20043946 .29322816 .18400066 .26997376 .17578125 .24475098 .17578125 .21755982Z"/>
<path id="font_3_28" d="M.045410158 .16592407 .17822266 .18066406C.18147786 .15348308 .1899414 .13334148 .20361328 .12023926 .21728516 .10713705 .23535156 .10058594 .2578125 .10058594 .2861328 .10058594 .31022135 .11365255 .33007813 .13978577 .3499349 .16591899 .36263023 .22007244 .36816407 .3022461 .33365885 .26220704 .29052735 .2421875 .23876953 .2421875 .18245442 .2421875 .13387044 .2638906 .09301758 .30729676 .052164716 .3507131 .03173828 .4072164 .03173828 .47680665 .03173828 .5493266 .053304037 .6077779 .09643555 .65216067 .13956706 .6965535 .1944987 .71875 .26123048 .71875 .33382163 .71875 .39339195 .6906331 .4399414 .6343994 .48649089 .57817587 .5097656 .48568727 .5097656 .3569336 .5097656 .22590129 .4855143 .13137309 .43701173 .073349 .38850913 .015335083 .32535807-.013671875 .2475586-.013671875 .19156902-.013671875 .14632161 .001332601 .111816409 .031341554 .077311199 .061360677 .05517578 .10622152 .045410158 .16592407M.35595704 .46536256C.35595704 .50947067 .34578453 .5436859 .32543946 .5680084 .3050944 .59233096 .28157554 .6044922 .2548828 .6044922 .22949219 .6044922 .20841472 .594518 .19165039 .5745697 .17488607 .55463156 .1665039 .5219574 .1665039 .47654725 .1665039 .43049623 .17561849 .39668785 .19384766 .37512208 .21207683 .3535563 .23486328 .34277345 .26220704 .34277345 .28857423 .34277345 .31079103 .3531494 .32885743 .37390138 .34692384 .39466349 .35595704 .42515055 .35595704 .46536256Z"/>
</defs>
<g clip-path="url(#clip_1)">
<path transform="matrix(.71641787,0,0,.71641787,0,0)" d="M0 0H268V266H0Z" fill="#ffffff"/>
</g>
<g clip-path="url(#clip_2)">
<path transform="matrix(.71641787,0,0,.71641787,.35820893,.35820893)" stroke-width="1" stroke-linecap="butt" stroke-miterlimit="10" stroke-linejoin="miter" fill="none" stroke="#0000ff" d="M152.75 27.95C152.75 27.95 164.58 32.32 188.24 41.06"/>
<path transform="matrix(.71641787,0,0,.71641787,.35820893,.35820893)" d="M154 21C154 22.313218 153.8719 23.61382 153.6157 24.901804 153.3595 26.189789 152.98012 27.44041 152.47757 28.653666 151.97502 29.86692 151.35895 31.019499 150.62937 32.1114 149.89978 33.203306 149.0707 34.21355 148.14212 35.142137 147.21353 36.07072 146.2033 36.899805 145.11139 37.629388 144.01949 38.35897 142.86692 38.975038 141.65366 39.477586 140.44039 39.98013 139.18978 40.359506 137.9018 40.615705 136.61382 40.8719 135.31322 40.999998 134 41 132.68679 40.999998 131.38617 40.8719 130.09818 40.615705 128.8102 40.359506 127.55957 39.98013 126.34631 39.477586 125.13306 38.975038 123.98048 38.35897 122.88858 37.629388 121.79668 36.899805 120.78644 36.07072 119.85786 35.142137 118.92927 34.21355 118.10018 33.203306 117.37059 32.1114 116.641 31.019499 116.02493 29.86692 115.52239 28.653666 115.01985 27.44041 114.64048 26.189789 114.384288 24.901804 114.12809 23.61382 113.99999 22.313218 114 21 113.99999 19.68678 114.12809 18.386178 114.384288 17.098193 114.64048 15.810206 115.01985 14.559587 115.52239 13.346331 116.02493 12.133075 116.641 10.980496 117.37059 9.888595 118.10018 8.796693 118.92927 7.7864496 119.85786 6.857864 120.78644 5.929278 121.79668 5.100192 122.88858 4.370607 123.98048 3.6410218 125.13306 3.0249558 126.34632 2.522409 127.55957 2.019862 128.8102 1.6404905 130.09819 1.3842943 131.38617 1.128098 132.68679 1 134 1 135.31322 1 136.61382 1.1280981 137.9018 1.3842944 139.18978 1.6404905 140.44039 2.0198622 141.65366 2.5224093 142.86692 3.024956 144.01949 3.6410218 145.11139 4.370607 146.2033 5.100192 147.21353 5.929278 148.14212 6.857864 149.0707 7.7864496 149.89978 8.796693 150.62937 9.888595 151.35895 10.980496 151.97502 12.133075 152.47757 13.346331 152.98012 14.559587 153.3595 15.810206 153.6157 17.098193 153.8719 18.386178 154 19.68678 154 21Z" fill="#dae8fc"/>
<path transform="matrix(.71641787,0,0,.71641787,.35820893,.35820893)" stroke-width="1" stroke-linecap="butt" stroke-miterlimit="4" stroke-linejoin="miter" fill="none" stroke="#6c8ebf" d="M154 21C154 22.313218 153.8719 23.61382 153.6157 24.901804 153.3595 26.189789 152.98012 27.44041 152.47757 28.653666 151.97502 29.86692 151.35895 31.019499 150.62937 32.1114 149.89978 33.203306 149.0707 34.21355 148.14212 35.142137 147.21353 36.07072 146.2033 36.899805 145.11139 37.629388 144.01949 38.35897 142.86692 38.975038 141.65366 39.477586 140.44039 39.98013 139.18978 40.359506 137.9018 40.615705 136.61382 40.8719 135.31322 40.999998 134 41 132.68679 40.999998 131.38617 40.8719 130.09818 40.615705 128.8102 40.359506 127.55957 39.98013 126.34631 39.477586 125.13306 38.975038 123.98048 38.35897 122.88858 37.629388 121.79668 36.899805 120.78644 36.07072 119.85786 35.142137 118.92927 34.21355 118.10018 33.203306 117.37059 32.1114 116.641 31.019499 116.02493 29.86692 115.52239 28.653666 115.01985 27.44041 114.64048 26.189789 114.384288 24.901804 114.12809 23.61382 113.99999 22.313218 114 21 113.99999 19.68678 114.12809 18.386178 114.384288 17.098193 114.64048 15.810206 115.01985 14.559587 115.52239 13.346331 116.02493 12.133075 116.641 10.980496 117.37059 9.888595 118.10018 8.796693 118.92927 7.7864496 119.85786 6.857864 120.78644 5.929278 121.79668 5.100192 122.88858 4.370607 123.98048 3.6410218 125.13306 3.0249558 126.34632 2.522409 127.55957 2.019862 128.8102 1.6404905 130.09819 1.3842943 131.38617 1.128098 132.68679 1 134 1 135.31322 1 136.61382 1.1280981 137.9018 1.3842944 139.18978 1.6404905 140.44039 2.0198622 141.65366 2.5224093 142.86692 3.024956 144.01949 3.6410218 145.11139 4.370607 146.2033 5.100192 147.21353 5.929278 148.14212 6.857864 149.0707 7.7864496 149.89978 8.796693 150.62937 9.888595 151.35895 10.980496 151.97502 12.133075 152.47757 13.346331 152.98012 14.559587 153.3595 15.810206 153.6157 17.098193 153.8719 18.386178 154 19.68678 154 21Z"/>
<use data-text="1" xlink:href="#font_3_20" transform="matrix(12.179104,0,0,-12.179104,92.6082,18.626864)"/>
<path transform="matrix(.71641787,0,0,.71641787,.35820893,.35820893)" stroke-width="1" stroke-linecap="butt" stroke-miterlimit="10" stroke-linejoin="miter" fill="none" stroke="#0000ff" d="M217.03 65.3C217.03 65.3 223.37 76.41667 236.05 98.65"/>
<path transform="matrix(.71641787,0,0,.71641787,.35820893,.35820893)" d="M227 48C226.99999 49.313215 226.87189 50.613817 226.61568 51.9018 226.35947 53.18979 225.9801 54.44041 225.47756 55.653665 224.975 56.86692 224.35895 58.019498 223.62938 59.111398 222.8998 60.203298 222.07071 61.213544 221.14212 62.14213 220.21353 63.070718 219.20328 63.8998 218.11138 64.62939 217.01947 65.35897 215.86688 65.97504 214.65364 66.47758 213.4404 66.98012 212.18978 67.35949 210.90178 67.61569 209.6138 67.871898 208.31322 67.99999 207 68 205.68677 67.99999 204.38616 67.871898 203.09818 67.6157 201.8102 67.3595 200.55957 66.980129 199.3463 66.477588 198.13306 65.97504 196.98049 65.35897 195.88858 64.62939 194.79668 63.8998 193.78643 63.070718 192.85785 62.14213 191.92925 61.213544 191.10016 60.203298 190.37058 59.111398 189.64099 58.019498 189.02494 56.86692 188.52239 55.653665 188.01984 54.44041 187.64046 53.18979 187.38428 51.901803 187.12808 50.613817 186.99999 49.313215 187 48 186.99999 46.68678 187.12808 45.386178 187.38428 44.098196 187.64046 42.810209 188.01982 41.559587 188.52237 40.346326 189.02492 39.133069 189.64098 37.980489 190.37056 36.888589 191.10016 35.796689 191.92925 34.786447 192.85785 33.85786 193.78643 32.929277 194.79668 32.10019 195.88858 31.370604 196.98049 30.641018 198.13306 30.024952 199.3463 29.522406 200.55957 29.01986 201.8102 28.64049 203.09818 28.384293 204.38616 28.128098 205.68677 28 207 28 208.31322 28 209.6138 28.128098 210.90178 28.384295 212.18978 28.640492 213.4404 29.019862 214.65364 29.522408 215.86688 30.024954 217.01947 30.64102 218.11138 31.370606 219.20328 32.10019 220.21353 32.929277 221.14212 33.85786 222.07071 34.786447 222.8998 35.796689 223.62937 36.888589 224.35895 37.980489 224.975 39.133069 225.47756 40.346326 225.9801 41.559587 226.35947 42.810209 226.61568 44.098196 226.87189 45.386178 226.99999 46.68678 227 48Z" fill="#dae8fc"/>
<path transform="matrix(.71641787,0,0,.71641787,.35820893,.35820893)" stroke-width="1" stroke-linecap="butt" stroke-miterlimit="4" stroke-linejoin="miter" fill="none" stroke="#6c8ebf" d="M227 48C226.99999 49.313215 226.87189 50.613817 226.61568 51.9018 226.35947 53.18979 225.9801 54.44041 225.47756 55.653665 224.975 56.86692 224.35895 58.019498 223.62938 59.111398 222.8998 60.203298 222.07071 61.213544 221.14212 62.14213 220.21353 63.070718 219.20328 63.8998 218.11138 64.62939 217.01947 65.35897 215.86688 65.97504 214.65364 66.47758 213.4404 66.98012 212.18978 67.35949 210.90178 67.61569 209.6138 67.871898 208.31322 67.99999 207 68 205.68677 67.99999 204.38616 67.871898 203.09818 67.6157 201.8102 67.3595 200.55957 66.980129 199.3463 66.477588 198.13306 65.97504 196.98049 65.35897 195.88858 64.62939 194.79668 63.8998 193.78643 63.070718 192.85785 62.14213 191.92925 61.213544 191.10016 60.203298 190.37058 59.111398 189.64099 58.019498 189.02494 56.86692 188.52239 55.653665 188.01984 54.44041 187.64046 53.18979 187.38428 51.901803 187.12808 50.613817 186.99999 49.313215 187 48 186.99999 46.68678 187.12808 45.386178 187.38428 44.098196 187.64046 42.810209 188.01982 41.559587 188.52237 40.346326 189.02492 39.133069 189.64098 37.980489 190.37056 36.888589 191.10016 35.796689 191.92925 34.786447 192.85785 33.85786 193.78643 32.929277 194.79668 32.10019 195.88858 31.370604 196.98049 30.641018 198.13306 30.024952 199.3463 29.522406 200.55957 29.01986 201.8102 28.64049 203.09818 28.384293 204.38616 28.128098 205.68677 28 207 28 208.31322 28 209.6138 28.128098 210.90178 28.384295 212.18978 28.640492 213.4404 29.019862 214.65364 29.522408 215.86688 30.024954 217.01947 30.64102 218.11138 31.370606 219.20328 32.10019 220.21353 32.929277 221.14212 33.85786 222.07071 34.786447 222.8998 35.796689 223.62937 36.888589 224.35895 37.980489 224.975 39.133069 225.47756 40.346326 225.9801 41.559587 226.35947 42.810209 226.61568 44.098196 226.87189 45.386178 226.99999 46.68678 227 48Z"/>
<use data-text="2" xlink:href="#font_3_21" transform="matrix(12.179104,0,0,-12.179104,144.90671,37.970148)"/>
<path transform="matrix(.71641787,0,0,.71641787,.35820893,.35820893)" stroke-width="1" stroke-linecap="butt" stroke-miterlimit="10" stroke-linejoin="miter" fill="none" stroke="#0000ff" d="M242.88 135.76C242.88 135.76 240.69667 148.26667 236.33 173.28"/>
<path transform="matrix(.71641787,0,0,.71641787,.35820893,.35820893)" d="M266 116C265.99998 117.31322 265.87187 118.613819 265.61567 119.9018 265.35948 121.18979 264.9801 122.44041 264.47758 123.653659 263.97505 124.866909 263.35896 126.019489 262.62934 127.11139 261.89979 128.2033 261.0707 129.21353 260.14213 130.14212 259.21354 131.07071 258.20329 131.8998 257.11137 132.62938 256.01948 133.35897 254.86688 133.97502 253.65364 134.47757 252.44039 134.98012 251.18978 135.35948 249.9018 135.61568 248.61382 135.87189 247.31322 135.99999 246 136 244.68677 135.99999 243.38616 135.87189 242.09816 135.61569 240.81018 135.3595 239.55956 134.98014 238.34632 134.47759 237.13306 133.97504 235.98049 133.35897 234.88858 132.62938 233.79669 131.8998 232.78646 131.07071 231.85787 130.14212 230.92928 129.21353 230.10019 128.2033 229.3706 127.11139 228.641 126.019489 228.02494 124.866909 227.52239 123.65365 227.01985 122.4404 226.64049 121.18978 226.3843 119.9018 226.1281 118.613819 226 117.31322 226 116 226 114.686779 226.1281 113.38617 226.3843 112.09818 226.64049 110.810199 227.01985 109.55958 227.52239 108.34632 228.02494 107.133068 228.641 105.980487 229.37059 104.88858 230.10019 103.796688 230.92928 102.78644 231.85787 101.85786 232.78646 100.92927 233.79669 100.10018 234.88858 99.3706 235.98049 98.641017 237.13306 98.02495 238.34632 97.5224 239.55956 97.01986 240.81018 96.64049 242.09816 96.38429 243.38616 96.1281 244.68677 96 246 96 247.31322 96 248.61382 96.1281 249.9018 96.38429 251.18978 96.64049 252.44039 97.01986 253.65364 97.5224 254.86688 98.02495 256.01948 98.641017 257.11137 99.3706 258.20329 100.10018 259.21354 100.92927 260.14213 101.85786 261.0707 102.78644 261.89979 103.796688 262.62934 104.88858 263.35896 105.980487 263.97505 107.133068 264.47758 108.34632 264.9801 109.55958 265.35948 110.810199 265.61567 112.09818 265.87187 113.38617 265.99998 114.686779 266 116Z" fill="#dae8fc"/>
<path transform="matrix(.71641787,0,0,.71641787,.35820893,.35820893)" stroke-width="1" stroke-linecap="butt" stroke-miterlimit="4" stroke-linejoin="miter" fill="none" stroke="#6c8ebf" d="M266 116C265.99998 117.31322 265.87187 118.613819 265.61567 119.9018 265.35948 121.18979 264.9801 122.44041 264.47758 123.653659 263.97505 124.866909 263.35896 126.019489 262.62934 127.11139 261.89979 128.2033 261.0707 129.21353 260.14213 130.14212 259.21354 131.07071 258.20329 131.8998 257.11137 132.62938 256.01948 133.35897 254.86688 133.97502 253.65364 134.47757 252.44039 134.98012 251.18978 135.35948 249.9018 135.61568 248.61382 135.87189 247.31322 135.99999 246 136 244.68677 135.99999 243.38616 135.87189 242.09816 135.61569 240.81018 135.3595 239.55956 134.98014 238.34632 134.47759 237.13306 133.97504 235.98049 133.35897 234.88858 132.62938 233.79669 131.8998 232.78646 131.07071 231.85787 130.14212 230.92928 129.21353 230.10019 128.2033 229.3706 127.11139 228.641 126.019489 228.02494 124.866909 227.52239 123.65365 227.01985 122.4404 226.64049 121.18978 226.3843 119.9018 226.1281 118.613819 226 117.31322 226 116 226 114.686779 226.1281 113.38617 226.3843 112.09818 226.64049 110.810199 227.01985 109.55958 227.52239 108.34632 228.02494 107.133068 228.641 105.980487 229.37059 104.88858 230.10019 103.796688 230.92928 102.78644 231.85787 101.85786 232.78646 100.92927 233.79669 100.10018 234.88858 99.3706 235.98049 98.641017 237.13306 98.02495 238.34632 97.5224 239.55956 97.01986 240.81018 96.64049 242.09816 96.38429 243.38616 96.1281 244.68677 96 246 96 247.31322 96 248.61382 96.1281 249.9018 96.38429 251.18978 96.64049 252.44039 97.01986 253.65364 97.5224 254.86688 98.02495 256.01948 98.641017 257.11137 99.3706 258.20329 100.10018 259.21354 100.92927 260.14213 101.85786 261.0707 102.78644 261.89979 103.796688 262.62934 104.88858 263.35896 105.980487 263.97505 107.133068 264.47758 108.34632 264.9801 109.55958 265.35948 110.810199 265.61567 112.09818 265.87187 113.38617 265.99998 114.686779 266 116Z"/>
<use data-text="3" xlink:href="#font_3_22" transform="matrix(12.179104,0,0,-12.179104,172.847,86.68656)"/>
<path transform="matrix(.71641787,0,0,.71641787,.35820893,.35820893)" stroke-width="1" stroke-linecap="butt" stroke-miterlimit="10" stroke-linejoin="miter" fill="none" stroke="#0000ff" d="M217.69 205.87C217.69 205.87 207.91333 213.98 188.36 230.2"/>
<path transform="matrix(.71641787,0,0,.71641787,.35820893,.35820893)" d="M253 193C253 194.31322 252.8719 195.61382 252.61569 196.9018 252.35948 198.18978 251.9801 199.44039 251.47756 200.65363 250.975 201.8669 250.35894 203.01949 249.62935 204.11139 248.89978 205.2033 248.0707 206.21353 247.14212 207.14212 246.21352 208.0707 245.20326 208.89978 244.11136 209.62937 243.01946 210.35895 241.86688 210.97502 240.65364 211.47757 239.44039 211.98012 238.18978 212.3595 236.9018 212.61569 235.6138 212.87187 234.3132 212.99999 233 213 231.68679 212.99999 230.38617 212.87187 229.09818 212.61566 227.8102 212.35948 226.55957 211.9801 225.34632 211.47756 224.13306 210.975 222.98049 210.35895 221.88858 209.62937 220.79668 208.89978 219.78644 208.0707 218.85785 207.14212 217.92926 206.21353 217.10018 205.20328 216.37059 204.11138 215.641 203.01947 215.02494 201.8669 214.52239 200.65364 214.01984 199.44039 213.64046 198.18978 213.38426 196.9018 213.12807 195.61382 212.99999 194.31322 213 193 212.99999 191.68679 213.12807 190.38619 213.38425 189.09819 213.64046 187.81021 214.01982 186.55959 214.52237 185.34632 215.02492 184.13306 215.64099 182.98049 216.37058 181.88858 217.10018 180.79668 217.92926 179.78644 218.85785 178.85785 219.78644 177.92928 220.79668 177.10019 221.88857 176.37059 222.98047 175.641 224.13306 175.02494 225.34632 174.52239 226.55957 174.01984 227.8102 173.64048 229.09818 173.38428 230.38617 173.1281 231.68679 173 233 173 234.3132 173 235.6138 173.1281 236.90178 173.38428 238.18976 173.64048 239.44039 174.01984 240.65364 174.52239 241.86688 175.02494 243.01947 175.641 244.11138 176.37059 245.20328 177.10019 246.21352 177.92928 247.14212 178.85785 248.0707 179.78644 248.89978 180.79668 249.62935 181.88858 250.35894 182.98047 250.975 184.13304 251.47756 185.3463 251.9801 186.55957 252.35948 187.8102 252.61569 189.09818 252.8719 190.38619 253 191.68679 253 193Z" fill="#dae8fc"/>
<path transform="matrix(.71641787,0,0,.71641787,.35820893,.35820893)" stroke-width="1" stroke-linecap="butt" stroke-miterlimit="4" stroke-linejoin="miter" fill="none" stroke="#6c8ebf" d="M253 193C253 194.31322 252.8719 195.61382 252.61569 196.9018 252.35948 198.18978 251.9801 199.44039 251.47756 200.65363 250.975 201.8669 250.35894 203.01949 249.62935 204.11139 248.89978 205.2033 248.0707 206.21353 247.14212 207.14212 246.21352 208.0707 245.20326 208.89978 244.11136 209.62937 243.01946 210.35895 241.86688 210.97502 240.65364 211.47757 239.44039 211.98012 238.18978 212.3595 236.9018 212.61569 235.6138 212.87187 234.3132 212.99999 233 213 231.68679 212.99999 230.38617 212.87187 229.09818 212.61566 227.8102 212.35948 226.55957 211.9801 225.34632 211.47756 224.13306 210.975 222.98049 210.35895 221.88858 209.62937 220.79668 208.89978 219.78644 208.0707 218.85785 207.14212 217.92926 206.21353 217.10018 205.20328 216.37059 204.11138 215.641 203.01947 215.02494 201.8669 214.52239 200.65364 214.01984 199.44039 213.64046 198.18978 213.38426 196.9018 213.12807 195.61382 212.99999 194.31322 213 193 212.99999 191.68679 213.12807 190.38619 213.38425 189.09819 213.64046 187.81021 214.01982 186.55959 214.52237 185.34632 215.02492 184.13306 215.64099 182.98049 216.37058 181.88858 217.10018 180.79668 217.92926 179.78644 218.85785 178.85785 219.78644 177.92928 220.79668 177.10019 221.88857 176.37059 222.98047 175.641 224.13306 175.02494 225.34632 174.52239 226.55957 174.01984 227.8102 173.64048 229.09818 173.38428 230.38617 173.1281 231.68679 173 233 173 234.3132 173 235.6138 173.1281 236.90178 173.38428 238.18976 173.64048 239.44039 174.01984 240.65364 174.52239 241.86688 175.02494 243.01947 175.641 244.11138 176.37059 245.20328 177.10019 246.21352 177.92928 247.14212 178.85785 248.0707 179.78644 248.89978 180.79668 249.62935 181.88858 250.35894 182.98047 250.975 184.13304 251.47756 185.3463 251.9801 186.55957 252.35948 187.8102 252.61569 189.09818 252.8719 190.38619 253 191.68679 253 193Z"/>
<use data-text="4" xlink:href="#font_3_23" transform="matrix(12.179104,0,0,-12.179104,163.53357,141.85074)"/>
<path transform="matrix(.71641787,0,0,.71641787,.35820893,.35820893)" stroke-width="1" stroke-linecap="butt" stroke-miterlimit="10" stroke-linejoin="miter" fill="none" stroke="#0000ff" d="M153 243C153 243 140 243 114 243"/>
<path transform="matrix(.71641787,0,0,.71641787,.35820893,.35820893)" d="M193 243C193 244.31322 192.8719 245.6138 192.6157 246.90178 192.35951 248.18976 191.98014 249.44037 191.47759 250.65363 190.97504 251.86688 190.35898 253.01947 189.6294 254.11138 188.89981 255.2033 188.07073 256.21354 187.14214 257.14213 186.21355 258.07069 185.2033 258.89979 184.11138 259.62937 183.01949 260.35896 181.86692 260.975 180.65366 261.47758 179.44042 261.9801 178.18979 262.3595 176.9018 262.6157 175.61382 262.8719 174.31322 263 173 263 171.68679 263 170.38617 262.8719 169.09819 262.6157 167.8102 262.3595 166.55957 261.9801 165.3463 261.47758 164.13304 260.975 162.98047 260.35896 161.88857 259.62937 160.79666 258.89979 159.78643 258.07069 158.85785 257.14213 157.92926 256.21354 157.10018 255.2033 156.37059 254.11138 155.641 253.01947 155.02494 251.8669 154.52239 250.65364 154.01984 249.44037 153.64048 248.18976 153.38428 246.90178 153.12808 245.6138 152.99999 244.31322 153 243 152.99999 241.68679 153.12808 240.38617 153.38428 239.09819 153.64048 237.8102 154.01984 236.55957 154.52239 235.34632 155.02494 234.13306 155.641 232.98049 156.37059 231.88858 157.10018 230.79668 157.92926 229.78644 158.85785 228.85785 159.78643 227.92926 160.79666 227.10018 161.88857 226.37059 162.98047 225.641 164.13304 225.02494 165.3463 224.52239 166.55957 224.01984 167.8102 223.64048 169.09819 223.3843 170.38617 223.1281 171.68679 223 173 223 174.31322 223 175.61382 223.1281 176.9018 223.3843 178.18979 223.64048 179.44042 224.01984 180.65366 224.52239 181.86692 225.02494 183.01949 225.641 184.11139 226.37059 185.2033 227.10018 186.21355 227.92926 187.14214 228.85785 188.07073 229.78644 188.89981 230.79668 189.6294 231.88857 190.35897 232.98047 190.97502 234.13304 191.47757 235.3463 191.98012 236.55956 192.3595 237.81018 192.61569 239.09818 192.8719 240.38617 193 241.68679 193 243Z" fill="#dae8fc"/>
<path transform="matrix(.71641787,0,0,.71641787,.35820893,.35820893)" stroke-width="1" stroke-linecap="butt" stroke-miterlimit="4" stroke-linejoin="miter" fill="none" stroke="#6c8ebf" d="M193 243C193 244.31322 192.8719 245.6138 192.6157 246.90178 192.35951 248.18976 191.98014 249.44037 191.47759 250.65363 190.97504 251.86688 190.35898 253.01947 189.6294 254.11138 188.89981 255.2033 188.07073 256.21354 187.14214 257.14213 186.21355 258.07069 185.2033 258.89979 184.11138 259.62937 183.01949 260.35896 181.86692 260.975 180.65366 261.47758 179.44042 261.9801 178.18979 262.3595 176.9018 262.6157 175.61382 262.8719 174.31322 263 173 263 171.68679 263 170.38617 262.8719 169.09819 262.6157 167.8102 262.3595 166.55957 261.9801 165.3463 261.47758 164.13304 260.975 162.98047 260.35896 161.88857 259.62937 160.79666 258.89979 159.78643 258.07069 158.85785 257.14213 157.92926 256.21354 157.10018 255.2033 156.37059 254.11138 155.641 253.01947 155.02494 251.8669 154.52239 250.65364 154.01984 249.44037 153.64048 248.18976 153.38428 246.90178 153.12808 245.6138 152.99999 244.31322 153 243 152.99999 241.68679 153.12808 240.38617 153.38428 239.09819 153.64048 237.8102 154.01984 236.55957 154.52239 235.34632 155.02494 234.13306 155.641 232.98049 156.37059 231.88858 157.10018 230.79668 157.92926 229.78644 158.85785 228.85785 159.78643 227.92926 160.79666 227.10018 161.88857 226.37059 162.98047 225.641 164.13304 225.02494 165.3463 224.52239 166.55957 224.01984 167.8102 223.64048 169.09819 223.3843 170.38617 223.1281 171.68679 223 173 223 174.31322 223 175.61382 223.1281 176.9018 223.3843 178.18979 223.64048 179.44042 224.01984 180.65366 224.52239 181.86692 225.02494 183.01949 225.641 184.11139 226.37059 185.2033 227.10018 186.21355 227.92926 187.14214 228.85785 188.07073 229.78644 188.89981 230.79668 189.6294 231.88857 190.35897 232.98047 190.97502 234.13304 191.47757 235.3463 191.98012 236.55956 192.3595 237.81018 192.61569 239.09818 192.8719 240.38617 193 241.68679 193 243Z"/>
<use data-text="5" xlink:href="#font_3_24" transform="matrix(12.179104,0,0,-12.179104,120.5485,177.67163)"/>
<path transform="matrix(.71641787,0,0,.71641787,.35820893,.35820893)" stroke-width="1" stroke-linecap="butt" stroke-miterlimit="10" stroke-linejoin="miter" fill="none" stroke="#0000ff" d="M78.69 230.13C78.69 230.13 68.91334 222.02 49.36 205.8"/>
<path transform="matrix(.71641787,0,0,.71641787,.35820893,.35820893)" d="M114 243C113.99999 244.31322 113.871898 245.6138 113.61569 246.90178 113.3595 248.18976 112.980129 249.44037 112.47758 250.65363 111.97504 251.86688 111.35896 253.01947 110.62937 254.11138 109.899799 255.2033 109.07071 256.21354 108.14213 257.14213 107.21354 258.07069 106.20329 258.89979 105.1114 259.62937 104.019489 260.35896 102.866909 260.975 101.653659 261.47758 100.4404 261.9801 99.18978 262.3595 97.9018 262.6157 96.613819 262.8719 95.31321 263 94 263 92.686779 263 91.38617 262.8719 90.09818 262.6157 88.8102 262.3595 87.559589 261.9801 86.34632 261.47758 85.133068 260.975 83.980487 260.35896 82.88859 259.62937 81.796688 258.89979 80.78644 258.07069 79.85786 257.14213 78.92927 256.21354 78.10018 255.2033 77.3706 254.11138 76.641017 253.01947 76.02495 251.8669 75.5224 250.65364 75.01985 249.44037 74.64048 248.18976 74.384288 246.90178 74.12809 245.6138 73.99999 244.31322 74 243 73.99999 241.68679 74.12809 240.38617 74.384288 239.09819 74.64048 237.8102 75.01985 236.55957 75.5224 235.34632 76.02495 234.13306 76.641017 232.98049 77.3706 231.88858 78.10018 230.79668 78.92927 229.78644 79.85786 228.85785 80.78644 227.92926 81.796688 227.10018 82.88859 226.37059 83.980487 225.641 85.133068 225.02494 86.34632 224.52239 87.559589 224.01984 88.8102 223.64048 90.09818 223.3843 91.38617 223.1281 92.686779 223 94 223 95.31321 223 96.61381 223.1281 97.901798 223.3843 99.18978 223.64048 100.4404 224.01984 101.653659 224.52239 102.866909 225.02494 104.019489 225.641 105.1114 226.37059 106.20329 227.10018 107.21354 227.92926 108.14213 228.85785 109.07071 229.78644 109.899799 230.79668 110.62937 231.88857 111.35896 232.98047 111.97504 234.13304 112.47758 235.3463 112.980129 236.55956 113.3595 237.81018 113.6157 239.09818 113.871898 240.38617 113.99999 241.68679 114 243Z" fill="#dae8fc"/>
<path transform="matrix(.71641787,0,0,.71641787,.35820893,.35820893)" stroke-width="1" stroke-linecap="butt" stroke-miterlimit="4" stroke-linejoin="miter" fill="none" stroke="#6c8ebf" d="M114 243C113.99999 244.31322 113.871898 245.6138 113.61569 246.90178 113.3595 248.18976 112.980129 249.44037 112.47758 250.65363 111.97504 251.86688 111.35896 253.01947 110.62937 254.11138 109.899799 255.2033 109.07071 256.21354 108.14213 257.14213 107.21354 258.07069 106.20329 258.89979 105.1114 259.62937 104.019489 260.35896 102.866909 260.975 101.653659 261.47758 100.4404 261.9801 99.18978 262.3595 97.9018 262.6157 96.613819 262.8719 95.31321 263 94 263 92.686779 263 91.38617 262.8719 90.09818 262.6157 88.8102 262.3595 87.559589 261.9801 86.34632 261.47758 85.133068 260.975 83.980487 260.35896 82.88859 259.62937 81.796688 258.89979 80.78644 258.07069 79.85786 257.14213 78.92927 256.21354 78.10018 255.2033 77.3706 254.11138 76.641017 253.01947 76.02495 251.8669 75.5224 250.65364 75.01985 249.44037 74.64048 248.18976 74.384288 246.90178 74.12809 245.6138 73.99999 244.31322 74 243 73.99999 241.68679 74.12809 240.38617 74.384288 239.09819 74.64048 237.8102 75.01985 236.55957 75.5224 235.34632 76.02495 234.13306 76.641017 232.98049 77.3706 231.88858 78.10018 230.79668 78.92927 229.78644 79.85786 228.85785 80.78644 227.92926 81.796688 227.10018 82.88859 226.37059 83.980487 225.641 85.133068 225.02494 86.34632 224.52239 87.559589 224.01984 88.8102 223.64048 90.09818 223.3843 91.38617 223.1281 92.686779 223 94 223 95.31321 223 96.61381 223.1281 97.901798 223.3843 99.18978 223.64048 100.4404 224.01984 101.653659 224.52239 102.866909 225.02494 104.019489 225.641 105.1114 226.37059 106.20329 227.10018 107.21354 227.92926 108.14213 228.85785 109.07071 229.78644 109.899799 230.79668 110.62937 231.88857 111.35896 232.98047 111.97504 234.13304 112.47758 235.3463 112.980129 236.55956 113.3595 237.81018 113.6157 239.09818 113.871898 240.38617 113.99999 241.68679 114 243Z"/>
<use data-text="6" xlink:href="#font_3_25" transform="matrix(12.179104,0,0,-12.179104,63.95149,177.67163)"/>
<path transform="matrix(.71641787,0,0,.71641787,.35820893,.35820893)" stroke-width="1" stroke-linecap="butt" stroke-miterlimit="10" stroke-linejoin="miter" fill="none" stroke="#0000ff" d="M30.88 173.24C30.88 173.24 28.696667 160.73334 24.33 135.72"/>
<path transform="matrix(.71641787,0,0,.71641787,.35820893,.35820893)" d="M54 193C53.999998 194.31322 53.8719 195.61382 53.615705 196.9018 53.359506 198.18978 52.98013 199.44039 52.47758 200.65363 51.975034 201.8669 51.358968 203.01949 50.629384 204.11139 49.899797 205.2033 49.070714 206.21353 48.14213 207.14212 47.213548 208.0707 46.2033 208.89978 45.1114 209.62937 44.019498 210.35895 42.866918 210.97502 41.653665 211.47757 40.440408 211.98012 39.189786 212.3595 37.901803 212.61569 36.61382 212.87187 35.313219 212.99999 34 213 32.68678 212.99999 31.386178 212.87187 30.09819 212.61566 28.810204 212.35948 27.559582 211.9801 26.346327 211.47756 25.133072 210.975 23.980494 210.35895 22.888592 209.62937 21.79669 208.89978 20.786448 208.0707 19.857863 207.14212 18.929276 206.21353 18.10019 205.20328 17.370606 204.11138 16.64102 203.01947 16.024954 201.8669 15.522407 200.65364 15.019859 199.44039 14.640489 198.18978 14.384293 196.9018 14.128097 195.61382 13.999999 194.31322 14 193 13.999999 191.68679 14.128097 190.38619 14.384293 189.09819 14.640489 187.81021 15.019859 186.55959 15.522407 185.34632 16.024954 184.13306 16.64102 182.98049 17.370606 181.88858 18.10019 180.79668 18.929276 179.78644 19.857863 178.85785 20.786448 177.92928 21.79669 177.10019 22.888592 176.37059 23.980494 175.641 25.133072 175.02494 26.346327 174.52239 27.559582 174.01984 28.810204 173.64048 30.09819 173.38428 31.386178 173.1281 32.68678 173 34 173 35.313219 173 36.61382 173.1281 37.901803 173.38428 39.189786 173.64048 40.440408 174.01984 41.653665 174.52239 42.866918 175.02494 44.019498 175.641 45.111398 176.37059 46.2033 177.10019 47.213548 177.92928 48.14213 178.85785 49.070714 179.78644 49.899797 180.79668 50.629384 181.88858 51.358968 182.98047 51.975034 184.13304 52.47758 185.3463 52.98013 186.55957 53.3595 187.8102 53.615697 189.09818 53.871896 190.38619 53.999998 191.68679 54 193Z" fill="#dae8fc"/>
<path transform="matrix(.71641787,0,0,.71641787,.35820893,.35820893)" stroke-width="1" stroke-linecap="butt" stroke-miterlimit="4" stroke-linejoin="miter" fill="none" stroke="#6c8ebf" d="M54 193C53.999998 194.31322 53.8719 195.61382 53.615705 196.9018 53.359506 198.18978 52.98013 199.44039 52.47758 200.65363 51.975034 201.8669 51.358968 203.01949 50.629384 204.11139 49.899797 205.2033 49.070714 206.21353 48.14213 207.14212 47.213548 208.0707 46.2033 208.89978 45.1114 209.62937 44.019498 210.35895 42.866918 210.97502 41.653665 211.47757 40.440408 211.98012 39.189786 212.3595 37.901803 212.61569 36.61382 212.87187 35.313219 212.99999 34 213 32.68678 212.99999 31.386178 212.87187 30.09819 212.61566 28.810204 212.35948 27.559582 211.9801 26.346327 211.47756 25.133072 210.975 23.980494 210.35895 22.888592 209.62937 21.79669 208.89978 20.786448 208.0707 19.857863 207.14212 18.929276 206.21353 18.10019 205.20328 17.370606 204.11138 16.64102 203.01947 16.024954 201.8669 15.522407 200.65364 15.019859 199.44039 14.640489 198.18978 14.384293 196.9018 14.128097 195.61382 13.999999 194.31322 14 193 13.999999 191.68679 14.128097 190.38619 14.384293 189.09819 14.640489 187.81021 15.019859 186.55959 15.522407 185.34632 16.024954 184.13306 16.64102 182.98049 17.370606 181.88858 18.10019 180.79668 18.929276 179.78644 19.857863 178.85785 20.786448 177.92928 21.79669 177.10019 22.888592 176.37059 23.980494 175.641 25.133072 175.02494 26.346327 174.52239 27.559582 174.01984 28.810204 173.64048 30.09819 173.38428 31.386178 173.1281 32.68678 173 34 173 35.313219 173 36.61382 173.1281 37.901803 173.38428 39.189786 173.64048 40.440408 174.01984 41.653665 174.52239 42.866918 175.02494 44.019498 175.641 45.111398 176.37059 46.2033 177.10019 47.213548 177.92928 48.14213 178.85785 49.070714 179.78644 49.899797 180.79668 50.629384 181.88858 51.358968 182.98047 51.975034 184.13304 52.47758 185.3463 52.98013 186.55957 53.3595 187.8102 53.615697 189.09818 53.871896 190.38619 53.999998 191.68679 54 193Z"/>
<use data-text="7" xlink:href="#font_3_26" transform="matrix(12.179104,0,0,-12.179104,20.966416,141.85074)"/>
<path transform="matrix(.71641787,0,0,.71641787,.35820893,.35820893)" stroke-width="1" stroke-linecap="butt" stroke-miterlimit="10" stroke-linejoin="miter" fill="none" stroke="#0000ff" d="M31.03 98.7C31.03 98.7 37.37 87.58333 50.05 65.35"/>
<path transform="matrix(.71641787,0,0,.71641787,.35820893,.35820893)" d="M41 116C40.999998 117.31322 40.8719 118.613819 40.615705 119.9018 40.359506 121.18979 39.98013 122.44041 39.477586 123.653659 38.975038 124.866909 38.35897 126.019489 37.629388 127.11139 36.899805 128.2033 36.07072 129.21353 35.142137 130.14212 34.21355 131.07071 33.203306 131.8998 32.1114 132.62938 31.019499 133.35897 29.86692 133.97502 28.653666 134.47757 27.44041 134.98012 26.189789 135.35948 24.901804 135.61568 23.61382 135.87189 22.313218 135.99999 21 136 19.68678 135.99999 18.386178 135.87189 17.098193 135.61569 15.810206 135.3595 14.559587 134.98014 13.346331 134.47759 12.133075 133.97504 10.980496 133.35897 9.888595 132.62938 8.796693 131.8998 7.7864496 131.07071 6.857864 130.14212 5.929278 129.21353 5.100192 128.2033 4.370607 127.11139 3.6410218 126.019489 3.0249558 124.866909 2.522409 123.65365 2.019862 122.4404 1.6404903 121.18978 1.3842942 119.9018 1.128098 118.613819 .99999997 117.31322 1 116 .99999997 114.686779 1.128098 113.38617 1.3842942 112.09818 1.6404903 110.810199 2.019862 109.55958 2.522409 108.34632 3.0249558 107.133068 3.6410218 105.980487 4.370607 104.88858 5.100192 103.796688 5.929278 102.78644 6.857864 101.85786 7.7864496 100.92927 8.796693 100.10018 9.888595 99.3706 10.980496 98.641017 12.133075 98.02495 13.346331 97.5224 14.559587 97.01986 15.810206 96.64049 17.098193 96.38429 18.386178 96.1281 19.68678 96 21 96 22.313218 96 23.61382 96.1281 24.901804 96.38429 26.189789 96.64049 27.44041 97.01986 28.653666 97.5224 29.86692 98.02495 31.019499 98.641017 32.1114 99.3706 33.203306 100.10018 34.21355 100.92927 35.142137 101.85786 36.07072 102.78644 36.899805 103.796688 37.629388 104.88858 38.35897 105.980487 38.975038 107.133068 39.477586 108.34632 39.98013 109.55958 40.359506 110.810199 40.615705 112.09818 40.8719 113.38617 40.999998 114.686779 41 116Z" fill="#dae8fc"/>
<path transform="matrix(.71641787,0,0,.71641787,.35820893,.35820893)" stroke-width="1" stroke-linecap="butt" stroke-miterlimit="4" stroke-linejoin="miter" fill="none" stroke="#6c8ebf" d="M41 116C40.999998 117.31322 40.8719 118.613819 40.615705 119.9018 40.359506 121.18979 39.98013 122.44041 39.477586 123.653659 38.975038 124.866909 38.35897 126.019489 37.629388 127.11139 36.899805 128.2033 36.07072 129.21353 35.142137 130.14212 34.21355 131.07071 33.203306 131.8998 32.1114 132.62938 31.019499 133.35897 29.86692 133.97502 28.653666 134.47757 27.44041 134.98012 26.189789 135.35948 24.901804 135.61568 23.61382 135.87189 22.313218 135.99999 21 136 19.68678 135.99999 18.386178 135.87189 17.098193 135.61569 15.810206 135.3595 14.559587 134.98014 13.346331 134.47759 12.133075 133.97504 10.980496 133.35897 9.888595 132.62938 8.796693 131.8998 7.7864496 131.07071 6.857864 130.14212 5.929278 129.21353 5.100192 128.2033 4.370607 127.11139 3.6410218 126.019489 3.0249558 124.866909 2.522409 123.65365 2.019862 122.4404 1.6404903 121.18978 1.3842942 119.9018 1.128098 118.613819 .99999997 117.31322 1 116 .99999997 114.686779 1.128098 113.38617 1.3842942 112.09818 1.6404903 110.810199 2.019862 109.55958 2.522409 108.34632 3.0249558 107.133068 3.6410218 105.980487 4.370607 104.88858 5.100192 103.796688 5.929278 102.78644 6.857864 101.85786 7.7864496 100.92927 8.796693 100.10018 9.888595 99.3706 10.980496 98.641017 12.133075 98.02495 13.346331 97.5224 14.559587 97.01986 15.810206 96.64049 17.098193 96.38429 18.386178 96.1281 19.68678 96 21 96 22.313218 96 23.61382 96.1281 24.901804 96.38429 26.189789 96.64049 27.44041 97.01986 28.653666 97.5224 29.86692 98.02495 31.019499 98.641017 32.1114 99.3706 33.203306 100.10018 34.21355 100.92927 35.142137 101.85786 36.07072 102.78644 36.899805 103.796688 37.629388 104.88858 38.35897 105.980487 38.975038 107.133068 39.477586 108.34632 39.98013 109.55958 40.359506 110.810199 40.615705 112.09818 40.8719 113.38617 40.999998 114.686779 41 116Z"/>
<use data-text="8" xlink:href="#font_3_27" transform="matrix(12.179104,0,0,-12.179104,11.652984,86.68656)"/>
<path transform="matrix(.71641787,0,0,.71641787,.35820893,.35820893)" stroke-width="1" stroke-linecap="butt" stroke-miterlimit="10" stroke-linejoin="miter" fill="none" stroke="#0000ff" d="M78.8 41.17C78.8 41.17 90.93667 36.733335 115.21 27.86"/>
<path transform="matrix(.71641787,0,0,.71641787,.35820893,.35820893)" d="M80 48C79.99999 49.313215 79.871898 50.613817 79.61569 51.9018 79.3595 53.18979 78.980129 54.44041 78.47758 55.653665 77.97503 56.86692 77.35896 58.019498 76.62938 59.111398 75.899799 60.203298 75.07071 61.213544 74.14213 62.14213 73.21355 63.070718 72.2033 63.8998 71.11139 64.62939 70.01949 65.35897 68.86691 65.97504 67.653659 66.47758 66.4404 66.98012 65.18978 67.35949 63.9018 67.61569 62.613817 67.871898 61.313215 67.99999 60 68 58.68678 67.99999 57.386175 67.871898 56.09819 67.6157 54.8102 67.3595 53.559579 66.980129 52.346326 66.477588 51.133069 65.97504 49.980489 65.35897 48.888589 64.62939 47.796689 63.8998 46.786447 63.070718 45.85786 62.14213 44.92927 61.213544 44.100187 60.203298 43.370599 59.111398 42.641016 58.019498 42.02495 56.86692 41.522405 55.653665 41.01986 54.44041 40.640489 53.18979 40.38429 51.901803 40.128095 50.613817 39.999998 49.313215 40 48 39.999998 46.68678 40.128095 45.386178 40.38429 44.098196 40.640489 42.810209 41.01986 41.559587 41.522405 40.346326 42.02495 39.133069 42.641016 37.980489 43.3706 36.888589 44.100187 35.796689 44.92927 34.786447 45.85786 33.85786 46.786447 32.929277 47.796689 32.10019 48.888589 31.370604 49.980489 30.641018 51.133069 30.024952 52.346326 29.522406 53.559579 29.01986 54.8102 28.64049 56.09819 28.384293 57.386175 28.128098 58.68678 28 60 28 61.313215 28 62.613817 28.128098 63.9018 28.384295 65.18978 28.640492 66.4404 29.019862 67.653659 29.522408 68.86691 30.024954 70.01949 30.64102 71.11139 31.370606 72.2033 32.10019 73.21355 32.929277 74.14213 33.85786 75.07071 34.786447 75.899799 35.796689 76.62938 36.888589 77.35896 37.980489 77.97503 39.133069 78.47758 40.346326 78.980129 41.559587 79.3595 42.810209 79.61569 44.098196 79.871898 45.386178 79.99999 46.68678 80 48Z" fill="#dae8fc"/>
<path transform="matrix(.71641787,0,0,.71641787,.35820893,.35820893)" stroke-width="1" stroke-linecap="butt" stroke-miterlimit="4" stroke-linejoin="miter" fill="none" stroke="#6c8ebf" d="M80 48C79.99999 49.313215 79.871898 50.613817 79.61569 51.9018 79.3595 53.18979 78.980129 54.44041 78.47758 55.653665 77.97503 56.86692 77.35896 58.019498 76.62938 59.111398 75.899799 60.203298 75.07071 61.213544 74.14213 62.14213 73.21355 63.070718 72.2033 63.8998 71.11139 64.62939 70.01949 65.35897 68.86691 65.97504 67.653659 66.47758 66.4404 66.98012 65.18978 67.35949 63.9018 67.61569 62.613817 67.871898 61.313215 67.99999 60 68 58.68678 67.99999 57.386175 67.871898 56.09819 67.6157 54.8102 67.3595 53.559579 66.980129 52.346326 66.477588 51.133069 65.97504 49.980489 65.35897 48.888589 64.62939 47.796689 63.8998 46.786447 63.070718 45.85786 62.14213 44.92927 61.213544 44.100187 60.203298 43.370599 59.111398 42.641016 58.019498 42.02495 56.86692 41.522405 55.653665 41.01986 54.44041 40.640489 53.18979 40.38429 51.901803 40.128095 50.613817 39.999998 49.313215 40 48 39.999998 46.68678 40.128095 45.386178 40.38429 44.098196 40.640489 42.810209 41.01986 41.559587 41.522405 40.346326 42.02495 39.133069 42.641016 37.980489 43.3706 36.888589 44.100187 35.796689 44.92927 34.786447 45.85786 33.85786 46.786447 32.929277 47.796689 32.10019 48.888589 31.370604 49.980489 30.641018 51.133069 30.024952 52.346326 29.522406 53.559579 29.01986 54.8102 28.64049 56.09819 28.384293 57.386175 28.128098 58.68678 28 60 28 61.313215 28 62.613817 28.128098 63.9018 28.384295 65.18978 28.640492 66.4404 29.019862 67.653659 29.522408 68.86691 30.024954 70.01949 30.64102 71.11139 31.370606 72.2033 32.10019 73.21355 32.929277 74.14213 33.85786 75.07071 34.786447 75.899799 35.796689 76.62938 36.888589 77.35896 37.980489 77.97503 39.133069 78.47758 40.346326 78.980129 41.559587 79.3595 42.810209 79.61569 44.098196 79.871898 45.386178 79.99999 46.68678 80 48Z"/>
<use data-text="9" xlink:href="#font_3_28" transform="matrix(12.179104,0,0,-12.179104,39.59328,37.970148)"/>
</g>
</svg>
