<svg xmlns="http://www.w3.org/2000/svg" xmlns:xlink="http://www.w3.org/1999/xlink" xmlns:inkscape="http://www.inkscape.org/namespaces/inkscape" version="1.1" width="365.85838" height="98.95603" viewBox="0 0 365.85838 98.95603">
<defs>
<clipPath id="clip_1">
<path d="M340.121 0H365.859V17.715H340.121Z"/>
</clipPath>
<clipPath id="clip_2">
<path d="M0 0H366V99H0Z"/>
</clipPath>
<clipPath id="clip_3">
<path d="M340.121 26.715H365.859V45.715H340.121Z"/>
</clipPath>
<clipPath id="clip_4">
<path d="M0 0H366V99H0Z"/>
</clipPath>
<clipPath id="clip_5">
<path d="M340.121 53.715H365.859V72.715H340.121Z"/>
</clipPath>
<clipPath id="clip_6">
<path d="M0 0H366V99H0Z"/>
</clipPath>
</defs>
<g>
<path d="M.5 .5H24.82V17.152H.5Z" fill="#ffffff"/>
<path stroke-width=".999" stroke-linecap="butt" stroke-miterlimit="4" stroke-linejoin="miter" fill="none" stroke="#231f20" d="M.5 .5H24.82V17.152H.5Z"/>
<path d="M11.359 10.027V10.668C11.359 11.262 11.688 12.277 13.188 12.277 14.063 12.277 15.063 11.871 15.063 10.355V5.637H14.188V10.418C14.188 11.043 13.953 11.527 13.141 11.527 12.547 11.527 12.172 11.246 12.172 10.48V10.027ZM11.359 10.027" fill="#231f20"/>
<path d="M24.82 .5H49.143999V17.152H24.82Z" fill="#ffffff"/>
<path stroke-width=".999" stroke-linecap="butt" stroke-miterlimit="4" stroke-linejoin="miter" fill="none" stroke="#231f20" d="M24.82 .5H49.143999V17.152H24.82Z"/>
<path d="M36.559 8.824C36.621 8.465 36.746 7.918 37.637 7.918 38.387 7.918 38.746 8.184 38.746 8.684 38.746 9.152 38.527 9.23 38.34 9.246L37.027 9.402C35.715 9.574 35.605 10.48 35.605 10.887 35.605 11.699 36.215 12.246 37.074 12.246 37.996 12.246 38.465 11.809 38.777 11.48 38.809 11.84 38.918 12.199 39.621 12.199 39.793 12.199 39.918 12.137 40.043 12.105V11.527C39.965 11.543 39.855 11.559 39.793 11.559 39.621 11.559 39.527 11.48 39.527 11.293V8.574C39.527 7.371 38.152 7.262 37.777 7.262 36.621 7.262 35.871 7.699 35.84 8.824ZM38.73 10.48C38.73 11.105 38.012 11.59 37.277 11.59 36.684 11.59 36.418 11.277 36.418 10.762 36.418 10.168 37.043 10.059 37.434 9.996 38.402 9.871 38.605 9.809 38.73 9.699ZM38.73 10.48" fill="#231f20"/>
<path d="M49.148 .5H73.468V17.152H49.148Z" fill="#ffffff"/>
<path stroke-width=".999" stroke-linecap="butt" stroke-miterlimit="4" stroke-linejoin="miter" fill="none" stroke="#231f20" d="M49.145 .5H73.469V17.152H49.145Z"/>
<path d="M62.117 11.23H62.102L60.852 7.402H59.945L61.695 12.23C61.32 13.199 61.273 13.324 60.867 13.324 60.648 13.324 60.477 13.277 60.383 13.246V13.965C60.508 13.996 60.602 14.027 60.711 14.027 61.727 14.027 61.82 13.918 62.555 12.012 63.164 10.48 63.711 8.934 64.258 7.402H63.383ZM62.117 11.23" fill="#231f20"/>
<path d="M73.469 .5H97.793V17.152H73.469Z" fill="#ffffff"/>
<path stroke-width=".999" stroke-linecap="butt" stroke-miterlimit="4" stroke-linejoin="miter" fill="none" stroke="#231f20" d="M73.469 .5H97.793V17.152H73.469Z"/>
<path d="M88.348 8.902C88.348 7.559 87.426 7.262 86.691 7.262 85.895 7.262 85.441 7.809 85.27 8.059H85.254V7.402H84.504V12.105H85.301V9.543C85.301 8.262 86.098 7.98 86.551 7.98 87.316 7.98 87.551 8.387 87.551 9.215V12.105H88.348ZM88.348 8.902" fill="#231f20"/>
<path d="M97.793 .5H122.117V17.152H97.793Z" fill="#ffffff"/>
<path stroke-width=".999" stroke-linecap="butt" stroke-miterlimit="4" stroke-linejoin="miter" fill="none" stroke="#231f20" d="M97.793 .5H122.117V17.152H97.793Z"/>
<path d="M112.027 10.637C112.012 10.98 111.574 11.559 110.824 11.559 109.918 11.559 109.449 10.996 109.449 10.012H112.887C112.887 8.34 112.23 7.262 110.871 7.262 109.309 7.262 108.605 8.418 108.605 9.887 108.605 11.246 109.387 12.246 110.715 12.246 111.465 12.246 111.777 12.059 111.996 11.918 112.59 11.527 112.793 10.855 112.824 10.637ZM109.449 9.371C109.449 8.652 110.027 7.98 110.762 7.98 111.715 7.98 112.027 8.652 112.074 9.371ZM109.449 9.371" fill="#231f20"/>
<path d="M122.117 .5H146.441V17.152H122.117Z" fill="#ffffff"/>
<path stroke-width=".999" stroke-linecap="butt" stroke-miterlimit="4" stroke-linejoin="miter" fill="none" stroke="#231f20" d="M122.117 .5H146.441V17.152H122.117Z"/>
<path d="M170.766 .5H195.09001V17.152H170.766Z" fill="#ffffff"/>
<path stroke-width=".999" stroke-linecap="butt" stroke-miterlimit="4" stroke-linejoin="miter" fill="none" stroke="#231f20" d="M170.766 .5H195.09001V17.152H170.766Z"/>
<path d="M185.625 12.105V7.402H184.828V9.996C184.828 10.668 184.531 11.559 183.531 11.559 183.016 11.559 182.625 11.293 182.625 10.527V7.402H181.828V10.777C181.828 11.902 182.672 12.246 183.359 12.246 184.109 12.246 184.516 11.949 184.859 11.402L184.875 11.418V12.105ZM185.625 12.105" fill="#231f20"/>
<path d="M195.09 .5H219.414V17.152H195.09Z" fill="#ffffff"/>
<path stroke-width=".999" stroke-linecap="butt" stroke-miterlimit="4" stroke-linejoin="miter" fill="none" stroke="#231f20" d="M195.09 .5H219.414V17.152H195.09Z"/>
<path d="M208.031 9.371C208.031 8.684 208.5 8.105 209.234 8.105H209.531V7.293C209.469 7.277 209.422 7.262 209.328 7.262 208.734 7.262 208.313 7.637 208 8.184H207.984V7.402H207.234V12.105H208.031ZM208.031 9.371" fill="#231f20"/>
<path d="M219.414 .5H243.738V17.152H219.414Z" fill="#ffffff"/>
<path stroke-width=".999" stroke-linecap="butt" stroke-miterlimit="4" stroke-linejoin="miter" fill="none" stroke="#231f20" d="M219.414 .5H243.738V17.152H219.414Z"/>
<path d="M231.148 9.965C231.148 9.215 231.273 7.98 232.414 7.98 233.633 7.98 233.695 9.137 233.695 9.746 233.695 10.777 233.289 11.559 232.43 11.559 231.93 11.559 231.148 11.23 231.148 9.965ZM230.383 13.965H231.18V11.605H231.195C231.398 11.949 231.82 12.246 232.445 12.246 234.055 12.246 234.523 10.73 234.523 9.605 234.523 8.293 233.805 7.262 232.555 7.262 231.711 7.262 231.336 7.793 231.148 8.059H231.133V7.402H230.383ZM230.383 13.965" fill="#231f20"/>
<path d="M243.738 .5H268.062V17.152H243.738Z" fill="#ffffff"/>
<path stroke-width=".999" stroke-linecap="butt" stroke-miterlimit="4" stroke-linejoin="miter" fill="none" stroke="#231f20" d="M243.738 .5H268.062V17.152H243.738Z"/>
<path d="M258.613 8.902C258.613 7.559 257.691 7.262 256.957 7.262 256.207 7.262 255.816 7.73 255.582 8.027H255.566V5.637H254.77V12.105H255.566V9.543C255.566 8.355 256.238 7.98 256.879 7.98 257.645 7.98 257.816 8.387 257.816 9.027V12.105H258.613ZM258.613 8.902" fill="#231f20"/>
<path d="M268.063 .5H292.387V17.152H268.063Z" fill="#ffffff"/>
<path stroke-width=".999" stroke-linecap="butt" stroke-miterlimit="4" stroke-linejoin="miter" fill="none" stroke="#231f20" d="M268.063 .5H292.387V17.152H268.063Z"/>
<path d="M281.035 11.23H281.02L279.77 7.402H278.863L280.613 12.23C280.238 13.199 280.191 13.324 279.785 13.324 279.566 13.324 279.395 13.277 279.301 13.246V13.965C279.426 13.996 279.52 14.027 279.629 14.027 280.645 14.027 280.738 13.918 281.473 12.012 282.082 10.48 282.629 8.934 283.176 7.402H282.301ZM281.035 11.23" fill="#231f20"/>
<path d="M292.387 .5H316.711V17.152H292.387Z" fill="#ffffff"/>
<path stroke-width=".999" stroke-linecap="butt" stroke-miterlimit="4" stroke-linejoin="miter" fill="none" stroke="#231f20" d="M292.387 .5H316.711V17.152H292.387Z"/>
<path d="M302.637 12.277H303.246L301.027 5.465H300.434ZM302.637 12.277" fill="#231f20"/>
<path d="M307.512 8.902C307.512 7.559 306.59 7.262 305.855 7.262 305.059 7.262 304.605 7.809 304.434 8.059H304.418V7.402H303.668V12.105H304.465V9.543C304.465 8.262 305.262 7.98 305.715 7.98 306.48 7.98 306.715 8.387 306.715 9.215V12.105H307.512ZM307.512 8.902" fill="#231f20"/>
<path d="M316.711 .5H341.035V17.152H316.711Z" fill="#ffffff"/>
<path stroke-width=".999" stroke-linecap="butt" stroke-miterlimit="4" stroke-linejoin="miter" fill="none" stroke="#231f20" d="M316.711 .5H341.035V17.152H316.711Z"/>
<path d="M331.867 10.574V9.887H330.945V5.777H330.289L327.383 9.793V10.574H330.148V12.105H330.945V10.574ZM330.133 7.012H330.148V9.887H328.117ZM330.133 7.012" fill="#231f20"/>
<path d="M341.035 .5H365.359V17.152H341.035Z" fill="#ffffff"/>
<g clip-path="url(#clip_1)">
<g clip-path="url(#clip_2)">
<path stroke-width=".999" stroke-linecap="butt" stroke-miterlimit="4" stroke-linejoin="miter" fill="none" stroke="#231f20" d="M341.035 .5H365.359V17.152H341.035Z"/>
</g>
<path d="M351.816 6.684H355.301C354.082 8.105 352.941 10.371 352.723 12.105H353.598C354.051 9.277 355.566 7.262 356.191 6.605V5.918H351.816ZM351.816 6.684" fill="#231f20"/>
</g>
<path d="M146.441 .5H170.765V17.152H146.441Z" fill="#ffffff"/>
<path stroke-width=".999" stroke-linecap="butt" stroke-miterlimit="4" stroke-linejoin="miter" fill="none" stroke="#231f20" d="M146.441 .5H170.765V17.152H146.441Z"/>
<path d="M162.496 12.105V5.637H161.262L159.418 11.105H159.402L157.559 5.637H156.309V12.105H157.152V8.293C157.152 8.105 157.137 7.277 157.137 6.684H157.152L158.98 12.105H159.84L161.652 6.684H161.668C161.668 7.277 161.652 8.105 161.652 8.293V12.105ZM162.496 12.105" fill="#231f20"/>
<path d="M.5 27.602H24.82V44.253999H.5Z" fill="#ffffff"/>
<path stroke-width=".999" stroke-linecap="butt" stroke-miterlimit="4" stroke-linejoin="miter" fill="none" stroke="#231f20" d="M.5 27.602H24.82V44.253999H.5Z"/>
<path d="M24.82 27.602H49.143999V44.253999H24.82Z" fill="#ffffff"/>
<path stroke-width=".999" stroke-linecap="butt" stroke-miterlimit="4" stroke-linejoin="miter" fill="none" stroke="#231f20" d="M24.82 27.602H49.143999V44.253999H24.82Z"/>
<path d="M35.684 37.129V37.77C35.684 38.363 36.012 39.379 37.512 39.379 38.387 39.379 39.387 38.973 39.387 37.457V32.738H38.512V37.52C38.512 38.145 38.277 38.629 37.465 38.629 36.871 38.629 36.496 38.348 36.496 37.582V37.129ZM35.684 37.129" fill="#231f20"/>
<path d="M49.148 27.602H73.468V44.253999H49.148Z" fill="#ffffff"/>
<path stroke-width=".999" stroke-linecap="butt" stroke-miterlimit="4" stroke-linejoin="miter" fill="none" stroke="#231f20" d="M49.145 27.602H73.469V44.253999H49.145Z"/>
<path d="M59.914 36.848C59.914 38.066 60.602 39.332 62.102 39.332 63.602 39.332 64.289 38.066 64.289 36.848 64.289 35.629 63.602 34.363 62.102 34.363 60.602 34.363 59.914 35.629 59.914 36.848ZM60.742 36.848C60.742 36.223 60.977 35.051 62.102 35.051 63.242 35.051 63.477 36.223 63.477 36.848 63.477 37.473 63.242 38.645 62.102 38.645 60.977 38.645 60.742 37.473 60.742 36.848ZM60.742 36.848" fill="#231f20"/>
<path d="M73.469 27.602H97.793V44.253999H73.469Z" fill="#ffffff"/>
<path stroke-width=".999" stroke-linecap="butt" stroke-miterlimit="4" stroke-linejoin="miter" fill="none" stroke="#231f20" d="M73.469 27.602H97.793V44.253999H73.469Z"/>
<path d="M88.348 36.004C88.348 34.66 87.426 34.363 86.691 34.363 85.895 34.363 85.441 34.91 85.27 35.16H85.254V34.504H84.504V39.207H85.301V36.645C85.301 35.363 86.098 35.082 86.551 35.082 87.316 35.082 87.551 35.488 87.551 36.316V39.207H88.348ZM88.348 36.004" fill="#231f20"/>
<path d="M97.793 27.602H122.117V44.253999H97.793Z" fill="#ffffff"/>
<path stroke-width=".999" stroke-linecap="butt" stroke-miterlimit="4" stroke-linejoin="miter" fill="none" stroke="#231f20" d="M97.793 27.602H122.117V44.253999H97.793Z"/>
<path d="M112.027 37.738C112.012 38.082 111.574 38.66 110.824 38.66 109.918 38.66 109.449 38.098 109.449 37.113H112.887C112.887 35.441 112.23 34.363 110.871 34.363 109.309 34.363 108.605 35.52 108.605 36.988 108.605 38.348 109.387 39.348 110.715 39.348 111.465 39.348 111.777 39.16 111.996 39.02 112.59 38.629 112.793 37.957 112.824 37.738ZM109.449 36.473C109.449 35.754 110.027 35.082 110.762 35.082 111.715 35.082 112.027 35.754 112.074 36.473ZM109.449 36.473" fill="#231f20"/>
<path d="M122.117 27.602H146.441V44.253999H122.117Z" fill="#ffffff"/>
<path stroke-width=".999" stroke-linecap="butt" stroke-miterlimit="4" stroke-linejoin="miter" fill="none" stroke="#231f20" d="M122.117 27.602H146.441V44.253999H122.117Z"/>
<path d="M135.59 35.848C135.59 35.613 135.48 34.363 133.793 34.363 132.871 34.363 132.012 34.832 132.012 35.863 132.012 36.52 132.449 36.848 133.105 37.004L134.027 37.238C134.699 37.41 134.965 37.535 134.965 37.91 134.965 38.426 134.449 38.66 133.871 38.66 132.762 38.66 132.652 38.066 132.621 37.691H131.855C131.887 38.27 132.027 39.348 133.887 39.348 134.949 39.348 135.746 38.754 135.746 37.785 135.746 37.145 135.402 36.785 134.434 36.551L133.637 36.348C133.027 36.191 132.777 36.098 132.777 35.723 132.777 35.129 133.48 35.051 133.715 35.051 134.715 35.051 134.824 35.551 134.84 35.848ZM135.59 35.848" fill="#231f20"/>
<path d="M170.766 27.602H195.09001V44.253999H170.766Z" fill="#ffffff"/>
<path stroke-width=".999" stroke-linecap="butt" stroke-miterlimit="4" stroke-linejoin="miter" fill="none" stroke="#231f20" d="M170.766 27.602H195.09001V44.253999H170.766Z"/>
<path d="M186.535 34.691C186.41 33.613 185.551 32.566 183.879 32.566 182.004 32.566 180.863 33.957 180.863 35.941 180.863 38.426 182.316 39.379 183.77 39.379 184.254 39.379 186.238 39.27 186.598 36.832H185.754C185.457 38.332 184.473 38.598 183.91 38.598 182.316 38.598 181.77 37.441 181.77 35.91 181.77 34.207 182.707 33.348 183.879 33.348 184.504 33.348 185.457 33.551 185.691 34.691ZM186.535 34.691" fill="#231f20"/>
<path d="M195.09 27.602H219.414V44.253999H195.09Z" fill="#ffffff"/>
<path stroke-width=".999" stroke-linecap="butt" stroke-miterlimit="4" stroke-linejoin="miter" fill="none" stroke="#231f20" d="M195.09 27.602H219.414V44.253999H195.09Z"/>
<path d="M208.438 34.504H207.656V39.207H208.438ZM208.438 33.645V32.738H207.656V33.645ZM208.438 33.645" fill="#231f20"/>
<path d="M219.414 27.602H243.738V44.253999H219.414Z" fill="#ffffff"/>
<path stroke-width=".999" stroke-linecap="butt" stroke-miterlimit="4" stroke-linejoin="miter" fill="none" stroke="#231f20" d="M219.414 27.602H243.738V44.253999H219.414Z"/>
<path d="M232.355 36.473C232.355 35.785 232.824 35.207 233.559 35.207H233.855V34.395C233.793 34.379 233.746 34.363 233.652 34.363 233.059 34.363 232.637 34.738 232.324 35.285H232.309V34.504H231.559V39.207H232.355ZM232.355 36.473" fill="#231f20"/>
<path d="M243.738 27.602H268.062V44.253999H243.738Z" fill="#ffffff"/>
<path stroke-width=".999" stroke-linecap="butt" stroke-miterlimit="4" stroke-linejoin="miter" fill="none" stroke="#231f20" d="M243.738 27.602H268.062V44.253999H243.738Z"/>
<path d="M258.742 36.082C258.68 35.27 258.211 34.363 256.977 34.363 255.414 34.363 254.711 35.52 254.711 36.988 254.711 38.348 255.492 39.348 256.82 39.348 258.195 39.348 258.664 38.285 258.742 37.535H257.977C257.836 38.27 257.383 38.66 256.852 38.66 255.758 38.66 255.555 37.66 255.555 36.848 255.555 36.02 255.883 35.082 256.852 35.082 257.523 35.082 257.867 35.457 257.977 36.082ZM258.742 36.082" fill="#231f20"/>
<path d="M268.063 27.602H292.387V44.253999H268.063Z" fill="#ffffff"/>
<path stroke-width=".999" stroke-linecap="butt" stroke-miterlimit="4" stroke-linejoin="miter" fill="none" stroke="#231f20" d="M268.063 27.602H292.387V44.253999H268.063Z"/>
<path d="M280.629 32.738H281.41V39.207H280.629Z" fill="#231f20"/>
<path d="M292.387 27.602H316.711V44.253999H292.387Z" fill="#ffffff"/>
<path stroke-width=".999" stroke-linecap="butt" stroke-miterlimit="4" stroke-linejoin="miter" fill="none" stroke="#231f20" d="M292.387 27.602H316.711V44.253999H292.387Z"/>
<path d="M305.621 37.738C305.605 38.082 305.168 38.66 304.418 38.66 303.512 38.66 303.043 38.098 303.043 37.113H306.48C306.48 35.441 305.824 34.363 304.465 34.363 302.902 34.363 302.199 35.52 302.199 36.988 302.199 38.348 302.98 39.348 304.309 39.348 305.059 39.348 305.371 39.16 305.59 39.02 306.184 38.629 306.387 37.957 306.418 37.738ZM303.043 36.473C303.043 35.754 303.621 35.082 304.355 35.082 305.309 35.082 305.621 35.754 305.668 36.473ZM303.043 36.473" fill="#231f20"/>
<path d="M316.711 27.602H341.035V44.253999H316.711Z" fill="#ffffff"/>
<path stroke-width=".999" stroke-linecap="butt" stroke-miterlimit="4" stroke-linejoin="miter" fill="none" stroke="#231f20" d="M316.711 27.602H341.035V44.253999H316.711Z"/>
<path d="M327.961 39.379H328.57L326.352 32.566H325.758ZM327.961 39.379" fill="#231f20"/>
<path d="M332.836 36.004C332.836 34.66 331.914 34.363 331.18 34.363 330.383 34.363 329.93 34.91 329.758 35.16H329.742V34.504H328.992V39.207H329.789V36.645C329.789 35.363 330.586 35.082 331.039 35.082 331.805 35.082 332.039 35.488 332.039 36.316V39.207H332.836ZM332.836 36.004" fill="#231f20"/>
<path d="M341.035 27.602H365.359V44.253999H341.035Z" fill="#ffffff"/>
<g clip-path="url(#clip_3)">
<g clip-path="url(#clip_4)">
<path stroke-width=".999" stroke-linecap="butt" stroke-miterlimit="4" stroke-linejoin="miter" fill="none" stroke="#231f20" d="M341.035 27.602H365.359V44.253999H341.035Z"/>
</g>
<path d="M355.285 37.332 355.926 39.207H356.879L354.535 32.738H353.551L351.113 39.207H352.02L352.691 37.332ZM352.957 36.551 353.988 33.707H354.02L354.973 36.551ZM352.957 36.551" fill="#231f20"/>
</g>
<path d="M146.441 27.602H170.765V44.253999H146.441Z" fill="#ffffff"/>
<path stroke-width=".999" stroke-linecap="butt" stroke-miterlimit="4" stroke-linejoin="miter" fill="none" stroke="#231f20" d="M146.441 27.602H170.765V44.253999H146.441Z"/>
<path d="M.5 54.703H24.82V71.354999H.5Z" fill="#ffffff"/>
<path stroke-width=".999" stroke-linecap="butt" stroke-miterlimit="4" stroke-linejoin="miter" fill="none" stroke="#231f20" d="M.5 54.703H24.82V71.354999H.5Z"/>
<path d="M13.063 59.84H13.844V66.309H13.063Z" fill="#231f20"/>
<path d="M24.82 54.703H49.143999V71.354999H24.82Z" fill="#ffffff"/>
<path stroke-width=".999" stroke-linecap="butt" stroke-miterlimit="4" stroke-linejoin="miter" fill="none" stroke="#231f20" d="M24.82 54.703H49.143999V71.354999H24.82Z"/>
<path d="M34.609 66.309H35.406V63.746C35.406 62.465 36.203 62.184 36.656 62.184 37.234 62.184 37.391 62.652 37.391 63.043V66.309H38.188V63.434C38.188 62.809 38.625 62.184 39.281 62.184 39.969 62.184 40.156 62.621 40.156 63.262V66.309H40.953V63.043C40.953 61.73 40 61.465 39.5 61.465 38.766 61.465 38.453 61.793 38.047 62.23 37.922 61.98 37.656 61.465 36.797 61.465 35.953 61.465 35.547 62.012 35.375 62.262H35.359V61.605H34.609ZM34.609 66.309" fill="#231f20"/>
<path d="M49.148 54.703H73.468V71.354999H49.148Z" fill="#ffffff"/>
<path stroke-width=".999" stroke-linecap="butt" stroke-miterlimit="4" stroke-linejoin="miter" fill="none" stroke="#231f20" d="M49.145 54.703H73.469V71.354999H49.145Z"/>
<path d="M59.914 63.949C59.914 65.168 60.602 66.434 62.102 66.434 63.602 66.434 64.289 65.168 64.289 63.949 64.289 62.73 63.602 61.465 62.102 61.465 60.602 61.465 59.914 62.73 59.914 63.949ZM60.742 63.949C60.742 63.324 60.977 62.152 62.102 62.152 63.242 62.152 63.477 63.324 63.477 63.949 63.477 64.574 63.242 65.746 62.102 65.746 60.977 65.746 60.742 64.574 60.742 63.949ZM60.742 63.949" fill="#231f20"/>
<path d="M73.469 54.703H97.793V71.354999H73.469Z" fill="#ffffff"/>
<path stroke-width=".999" stroke-linecap="butt" stroke-miterlimit="4" stroke-linejoin="miter" fill="none" stroke="#231f20" d="M73.469 54.703H97.793V71.354999H73.469Z"/>
<path d="M88.348 63.105C88.348 61.762 87.426 61.465 86.691 61.465 85.895 61.465 85.441 62.012 85.27 62.262H85.254V61.605H84.504V66.309H85.301V63.746C85.301 62.465 86.098 62.184 86.551 62.184 87.316 62.184 87.551 62.59 87.551 63.418V66.309H88.348ZM88.348 63.105" fill="#231f20"/>
<path d="M97.793 54.703H122.117V71.354999H97.793Z" fill="#ffffff"/>
<path stroke-width=".999" stroke-linecap="butt" stroke-miterlimit="4" stroke-linejoin="miter" fill="none" stroke="#231f20" d="M97.793 54.703H122.117V71.354999H97.793Z"/>
<path d="M112.73 59.84H111.949V62.262H111.934C111.73 61.996 111.371 61.465 110.527 61.465 109.277 61.465 108.559 62.496 108.559 63.809 108.559 64.934 109.027 66.449 110.637 66.449 111.09 66.449 111.637 66.293 111.965 65.668H111.996V66.309H112.73ZM109.387 63.949C109.387 63.34 109.449 62.184 110.668 62.184 111.809 62.184 111.934 63.418 111.934 64.168 111.934 65.434 111.152 65.762 110.652 65.762 109.777 65.762 109.387 64.98 109.387 63.949ZM109.387 63.949" fill="#231f20"/>
<path d="M122.117 54.703H146.441V71.354999H122.117Z" fill="#ffffff"/>
<path stroke-width=".999" stroke-linecap="butt" stroke-miterlimit="4" stroke-linejoin="miter" fill="none" stroke="#231f20" d="M122.117 54.703H146.441V71.354999H122.117Z"/>
<path d="M135.855 66.309H136.34C136.34 66.73 136.23 67.184 135.855 67.215V67.637C136.043 67.605 136.793 67.465 136.793 66.23V65.355H135.855ZM135.855 66.309" fill="#231f20"/>
<path d="M170.766 54.703H195.09001V71.354999H170.766Z" fill="#ffffff"/>
<path stroke-width=".999" stroke-linecap="butt" stroke-miterlimit="4" stroke-linejoin="miter" fill="none" stroke="#231f20" d="M170.766 54.703H195.09001V71.354999H170.766Z"/>
<path d="M185.441 65.074H185.426L182.191 59.84H181.16V66.309H182.004V61.09H182.02L185.301 66.309H186.285V59.84H185.441ZM185.441 65.074" fill="#231f20"/>
<path d="M195.09 54.703H219.414V71.354999H195.09Z" fill="#ffffff"/>
<path stroke-width=".999" stroke-linecap="butt" stroke-miterlimit="4" stroke-linejoin="miter" fill="none" stroke="#231f20" d="M195.09 54.703H219.414V71.354999H195.09Z"/>
<path d="M210.859 61.793C210.734 60.715 209.875 59.668 208.203 59.668 206.328 59.668 205.188 61.059 205.188 63.043 205.188 65.527 206.641 66.48 208.094 66.48 208.578 66.48 210.563 66.371 210.922 63.934H210.078C209.781 65.434 208.797 65.699 208.234 65.699 206.641 65.699 206.094 64.543 206.094 63.012 206.094 61.309 207.031 60.449 208.203 60.449 208.828 60.449 209.781 60.652 210.016 61.793ZM210.859 61.793" fill="#231f20"/>
<path d="M219.414 54.703H243.738V71.354999H219.414Z" fill="#ffffff"/>
<path stroke-width=".999" stroke-linecap="butt" stroke-miterlimit="4" stroke-linejoin="miter" fill="none" stroke="#231f20" d="M219.414 54.703H243.738V71.354999H219.414Z"/>
<path d="M243.738 54.703H268.062V71.354999H243.738Z" fill="#ffffff"/>
<path stroke-width=".999" stroke-linecap="butt" stroke-miterlimit="4" stroke-linejoin="miter" fill="none" stroke="#231f20" d="M243.738 54.703H268.062V71.354999H243.738Z"/>
<path d="M268.063 54.703H292.387V71.354999H268.063Z" fill="#ffffff"/>
<path stroke-width=".999" stroke-linecap="butt" stroke-miterlimit="4" stroke-linejoin="miter" fill="none" stroke="#231f20" d="M268.063 54.703H292.387V71.354999H268.063Z"/>
<path d="M279.703 62.246C279.734 61.809 279.781 60.699 280.984 60.699 281.906 60.699 282.234 61.324 282.234 61.84 282.234 62.668 281.75 62.918 281.078 63.309L280.234 63.793C279.391 64.293 278.797 64.996 278.75 66.309H283.078V65.559H279.641C279.672 65.324 279.859 64.824 280.734 64.34L281.391 63.98C282.328 63.48 283.078 63.012 283.078 61.871 283.078 60.699 282.203 59.98 281.094 59.98 280.422 59.98 278.906 60.184 278.906 62.246ZM279.703 62.246" fill="#231f20"/>
<path d="M292.387 54.703H316.711V71.354999H292.387Z" fill="#ffffff"/>
<path stroke-width=".999" stroke-linecap="butt" stroke-miterlimit="4" stroke-linejoin="miter" fill="none" stroke="#231f20" d="M292.387 54.703H316.711V71.354999H292.387Z"/>
<path d="M306.262 61.605C306.262 60.871 305.715 59.98 304.309 59.98 302.809 59.98 302.402 61.059 302.402 61.715 302.402 62.309 302.715 62.746 303.246 62.949 302.59 63.215 302.184 63.715 302.184 64.496 302.184 64.793 302.184 65.48 302.824 65.996 303.34 66.387 303.996 66.48 304.355 66.48 305.84 66.48 306.496 65.496 306.496 64.48 306.496 64.012 306.309 63.309 305.465 62.949 305.73 62.793 306.262 62.527 306.262 61.605ZM304.34 63.34C305.059 63.34 305.652 63.715 305.652 64.574 305.652 65.559 304.949 65.762 304.371 65.762 303.277 65.762 303.027 65.012 303.027 64.512 303.027 63.918 303.449 63.34 304.34 63.34ZM304.324 62.652C303.746 62.652 303.215 62.293 303.215 61.684 303.215 61.277 303.418 60.699 304.277 60.699 305.199 60.699 305.449 61.246 305.449 61.637 305.449 62.215 305.012 62.652 304.324 62.652ZM304.324 62.652" fill="#231f20"/>
<path d="M316.711 54.703H341.035V71.354999H316.711Z" fill="#ffffff"/>
<path stroke-width=".999" stroke-linecap="butt" stroke-miterlimit="4" stroke-linejoin="miter" fill="none" stroke="#231f20" d="M316.711 54.703H341.035V71.354999H316.711Z"/>
<path d="M327.492 60.887H330.977C329.758 62.309 328.617 64.574 328.398 66.309H329.273C329.727 63.48 331.242 61.465 331.867 60.809V60.121H327.492ZM327.492 60.887" fill="#231f20"/>
<path d="M341.035 54.703H365.359V71.354999H341.035Z" fill="#ffffff"/>
<g clip-path="url(#clip_5)">
<g clip-path="url(#clip_6)">
<path stroke-width=".999" stroke-linecap="butt" stroke-miterlimit="4" stroke-linejoin="miter" fill="none" stroke="#231f20" d="M341.035 54.703H365.359V71.354999H341.035Z"/>
</g>
<path d="M355.316 63.23C355.316 64.809 354.895 65.762 353.988 65.762 353.082 65.762 352.66 64.809 352.66 63.23 352.66 61.652 353.082 60.699 353.988 60.699 354.895 60.699 355.316 61.652 355.316 63.23ZM356.16 63.23C356.16 61.918 355.801 59.98 353.988 59.98 352.176 59.98 351.816 61.918 351.816 63.23 351.816 64.543 352.176 66.48 353.988 66.48 355.801 66.48 356.16 64.543 356.16 63.23ZM356.16 63.23" fill="#231f20"/>
</g>
<path d="M146.441 54.703H170.765V71.354999H146.441Z" fill="#ffffff"/>
<path stroke-width=".999" stroke-linecap="butt" stroke-miterlimit="4" stroke-linejoin="miter" fill="none" stroke="#231f20" d="M146.441 54.703H170.765V71.354999H146.441Z"/>
<path d="M.5 81.805H24.82V98.457H.5Z" fill="#ffffff"/>
<path stroke-width=".999" stroke-linecap="butt" stroke-miterlimit="4" stroke-linejoin="miter" fill="none" stroke="#231f20" d="M.5 81.805H24.82V98.457H.5Z"/>
<path d="M11.141 89.348C11.172 88.91 11.219 87.801 12.422 87.801 13.344 87.801 13.672 88.426 13.672 88.941 13.672 89.77 13.188 90.02 12.516 90.41L11.672 90.895C10.828 91.395 10.234 92.098 10.188 93.41H14.516V92.66H11.078C11.109 92.426 11.297 91.926 12.172 91.441L12.828 91.082C13.766 90.582 14.516 90.113 14.516 88.973 14.516 87.801 13.641 87.082 12.531 87.082 11.859 87.082 10.344 87.285 10.344 89.348ZM11.141 89.348" fill="#231f20"/>
<path d="M24.82 81.805H49.143999V98.457H24.82Z" fill="#ffffff"/>
<path stroke-width=".999" stroke-linecap="butt" stroke-miterlimit="4" stroke-linejoin="miter" fill="none" stroke="#231f20" d="M24.82 81.805H49.143999V98.457H24.82Z"/>
<path d="M35.074 93.582H35.684L33.465 86.77H32.871ZM35.074 93.582" fill="#231f20"/>
<path d="M39.949 90.207C39.949 88.863 39.027 88.566 38.293 88.566 37.496 88.566 37.043 89.113 36.871 89.363H36.855V88.707H36.105V93.41H36.902V90.848C36.902 89.566 37.699 89.285 38.152 89.285 38.918 89.285 39.152 89.691 39.152 90.52V93.41H39.949ZM39.949 90.207" fill="#231f20"/>
<path d="M49.148 81.805H73.468V98.457H49.148Z" fill="#ffffff"/>
<path stroke-width=".999" stroke-linecap="butt" stroke-miterlimit="4" stroke-linejoin="miter" fill="none" stroke="#231f20" d="M49.145 81.805H73.469V98.457H49.145Z"/>
<path d="M53.852 92.598 51.211 91.129 53.852 89.676V88.957L50.555 90.816V91.441L53.852 93.316ZM53.852 92.598" fill="#231f20"/>
<path d="M58.324 92.629H55.402V90.473H58.059V89.707H55.402V87.723H58.277V86.941H54.746V93.41H58.324ZM58.324 92.629" fill="#231f20"/>
<path d="M62.977 90.176C62.977 91.707 62.336 92.801 61.289 92.801 60.242 92.801 59.602 91.707 59.602 90.176 59.602 88.66 60.242 87.551 61.289 87.551 62.336 87.551 62.977 88.66 62.977 90.176ZM63.648 90.176C63.648 88.785 63.102 86.77 61.289 86.77 59.477 86.77 58.93 88.785 58.93 90.176 58.93 91.566 59.477 93.582 61.289 93.582 63.102 93.582 63.648 91.566 63.648 90.176ZM63.648 90.176" fill="#231f20"/>
<path d="M65.148 90.473H67.523V89.707H65.148V87.723H67.852V86.941H64.492V93.41H65.148ZM65.148 90.473" fill="#231f20"/>
<path d="M68.363 89.676 70.988 91.129 68.363 92.598V93.316L71.66 91.441V90.816L68.363 88.957ZM68.363 89.676" fill="#231f20"/>
</g>
</svg>
