<svg xmlns="http://www.w3.org/2000/svg" xmlns:xlink="http://www.w3.org/1999/xlink" xmlns:inkscape="http://www.inkscape.org/namespaces/inkscape" version="1.1" width="365.85838" height="45.752908" viewBox="0 0 365.85838 45.752908">
<defs>
<clipPath id="clip_1">
<path d="M0 0H25.656V17.914H0Z"/>
</clipPath>
<clipPath id="clip_2">
<path d="M0 0H366V46H0Z"/>
</clipPath>
<clipPath id="clip_3">
<path d="M339.656 0H365.859V17.914H339.656Z"/>
</clipPath>
<clipPath id="clip_4">
<path d="M0 0H366V46H0Z"/>
</clipPath>
<clipPath id="clip_5">
<path d="M0 27.914H25.656V45.753999H0Z"/>
</clipPath>
<clipPath id="clip_6">
<path d="M0 0H366V46H0Z"/>
</clipPath>
</defs>
<g>
<path d="M.5 .5H24.824V17.152H.5Z" fill="#ffffff"/>
<g clip-path="url(#clip_1)">
<g clip-path="url(#clip_2)">
<path stroke-width=".999" stroke-linecap="butt" stroke-miterlimit="4" stroke-linejoin="miter" fill="none" stroke="#231f20" d="M.5 .5H24.824V17.152H.5Z"/>
</g>
<path d="M11.363 10.027V10.668C11.363 11.262 11.691 12.277 13.191 12.277 14.066 12.277 15.066 11.871 15.066 10.355V5.637H14.191V10.418C14.191 11.043 13.957 11.527 13.145 11.527 12.551 11.527 12.176 11.246 12.176 10.48V10.027ZM11.363 10.027" fill="#231f20"/>
</g>
<path d="M24.824 .5H49.148V17.152H24.824Z" fill="#ffffff"/>
<path stroke-width=".999" stroke-linecap="butt" stroke-miterlimit="4" stroke-linejoin="miter" fill="none" stroke="#231f20" d="M24.824 .5H49.148V17.152H24.824Z"/>
<path d="M35.59 9.746C35.59 10.965 36.277 12.23 37.777 12.23 39.277 12.23 39.965 10.965 39.965 9.746 39.965 8.527 39.277 7.262 37.777 7.262 36.277 7.262 35.59 8.527 35.59 9.746ZM36.418 9.746C36.418 9.121 36.652 7.949 37.777 7.949 38.918 7.949 39.152 9.121 39.152 9.746 39.152 10.371 38.918 11.543 37.777 11.543 36.652 11.543 36.418 10.371 36.418 9.746ZM36.418 9.746" fill="#231f20"/>
<path d="M49.148 .5H73.472V17.152H49.148Z" fill="#ffffff"/>
<path stroke-width=".999" stroke-linecap="butt" stroke-miterlimit="4" stroke-linejoin="miter" fill="none" stroke="#231f20" d="M49.148 .5H73.472V17.152H49.148Z"/>
<path d="M64.023 8.902C64.023 7.559 63.102 7.262 62.367 7.262 61.57 7.262 61.117 7.809 60.945 8.059H60.93V7.402H60.18V12.105H60.977V9.543C60.977 8.262 61.773 7.98 62.227 7.98 62.992 7.98 63.227 8.387 63.227 9.215V12.105H64.023ZM64.023 8.902" fill="#231f20"/>
<path d="M73.473 .5H97.797V17.152H73.473Z" fill="#ffffff"/>
<path stroke-width=".999" stroke-linecap="butt" stroke-miterlimit="4" stroke-linejoin="miter" fill="none" stroke="#231f20" d="M73.473 .5H97.797V17.152H73.473Z"/>
<path d="M87.707 10.637C87.691 10.98 87.254 11.559 86.504 11.559 85.598 11.559 85.129 10.996 85.129 10.012H88.566C88.566 8.34 87.91 7.262 86.551 7.262 84.988 7.262 84.285 8.418 84.285 9.887 84.285 11.246 85.066 12.246 86.395 12.246 87.145 12.246 87.457 12.059 87.676 11.918 88.27 11.527 88.473 10.855 88.504 10.637ZM85.129 9.371C85.129 8.652 85.707 7.98 86.441 7.98 87.395 7.98 87.707 8.652 87.754 9.371ZM85.129 9.371" fill="#231f20"/>
<path d="M97.797 .5H122.120998V17.152H97.797Z" fill="#ffffff"/>
<path stroke-width=".999" stroke-linecap="butt" stroke-miterlimit="4" stroke-linejoin="miter" fill="none" stroke="#231f20" d="M97.797 .5H122.120998V17.152H97.797Z"/>
<path d="M112.516 8.746C112.516 8.512 112.406 7.262 110.719 7.262 109.797 7.262 108.938 7.73 108.938 8.762 108.938 9.418 109.375 9.746 110.031 9.902L110.953 10.137C111.625 10.309 111.891 10.434 111.891 10.809 111.891 11.324 111.375 11.559 110.797 11.559 109.688 11.559 109.578 10.965 109.547 10.59H108.781C108.813 11.168 108.953 12.246 110.813 12.246 111.875 12.246 112.672 11.652 112.672 10.684 112.672 10.043 112.328 9.684 111.359 9.449L110.563 9.246C109.953 9.09 109.703 8.996 109.703 8.621 109.703 8.027 110.406 7.949 110.641 7.949 111.641 7.949 111.75 8.449 111.766 8.746ZM112.516 8.746" fill="#231f20"/>
<path d="M122.121 .5H146.445V17.152H122.121Z" fill="#ffffff"/>
<path stroke-width=".999" stroke-linecap="butt" stroke-miterlimit="4" stroke-linejoin="miter" fill="none" stroke="#231f20" d="M122.121 .5H146.445V17.152H122.121Z"/>
<path d="M132.121 12.277H132.73L130.512 5.465H129.918ZM132.121 12.277" fill="#231f20"/>
<path d="M136.996 8.902C136.996 7.559 136.074 7.262 135.34 7.262 134.543 7.262 134.09 7.809 133.918 8.059H133.902V7.402H133.152V12.105H133.949V9.543C133.949 8.262 134.746 7.98 135.199 7.98 135.965 7.98 136.199 8.387 136.199 9.215V12.105H136.996ZM136.996 8.902" fill="#231f20"/>
<path d="M170.77 .5H195.09V17.152H170.77Z" fill="#ffffff"/>
<path stroke-width=".999" stroke-linecap="butt" stroke-miterlimit="4" stroke-linejoin="miter" fill="none" stroke="#231f20" d="M170.77 .5H195.09V17.152H170.77Z"/>
<path d="M180.555 12.105H181.352V9.543C181.352 8.262 182.148 7.98 182.602 7.98 183.18 7.98 183.336 8.449 183.336 8.84V12.105H184.133V9.23C184.133 8.605 184.57 7.98 185.227 7.98 185.914 7.98 186.102 8.418 186.102 9.059V12.105H186.898V8.84C186.898 7.527 185.945 7.262 185.445 7.262 184.711 7.262 184.398 7.59 183.992 8.027 183.867 7.777 183.602 7.262 182.742 7.262 181.898 7.262 181.492 7.809 181.32 8.059H181.305V7.402H180.555ZM180.555 12.105" fill="#231f20"/>
<path d="M195.094 .5H219.418V17.152H195.094Z" fill="#ffffff"/>
<path stroke-width=".999" stroke-linecap="butt" stroke-miterlimit="4" stroke-linejoin="miter" fill="none" stroke="#231f20" d="M195.09 .5H219.414V17.152H195.09Z"/>
<path d="M208.438 7.402H207.656V12.105H208.438ZM208.438 6.543V5.637H207.656V6.543ZM208.438 6.543" fill="#231f20"/>
<path d="M219.418 .5H243.738V17.152H219.418Z" fill="#ffffff"/>
<path stroke-width=".999" stroke-linecap="butt" stroke-miterlimit="4" stroke-linejoin="miter" fill="none" stroke="#231f20" d="M219.418 .5H243.738V17.152H219.418Z"/>
<path d="M233.434 8.059V7.402H232.684V6.09H231.887V7.402H231.246V8.059H231.887V11.168C231.887 11.73 232.059 12.168 232.84 12.168 232.918 12.168 233.152 12.137 233.434 12.105V11.48H233.152C232.996 11.48 232.684 11.48 232.684 11.121V8.059ZM233.434 8.059" fill="#231f20"/>
<path d="M243.738 .5H268.062V17.152H243.738Z" fill="#ffffff"/>
<path stroke-width=".999" stroke-linecap="butt" stroke-miterlimit="4" stroke-linejoin="miter" fill="none" stroke="#231f20" d="M243.738 .5H268.062V17.152H243.738Z"/>
<path d="M258.617 8.902C258.617 7.559 257.695 7.262 256.961 7.262 256.211 7.262 255.82 7.73 255.586 8.027H255.57V5.637H254.773V12.105H255.57V9.543C255.57 8.355 256.242 7.98 256.883 7.98 257.648 7.98 257.82 8.387 257.82 9.027V12.105H258.617ZM258.617 8.902" fill="#231f20"/>
<path d="M268.063 .5H292.387V17.152H268.063Z" fill="#ffffff"/>
<path stroke-width=".999" stroke-linecap="butt" stroke-miterlimit="4" stroke-linejoin="miter" fill="none" stroke="#231f20" d="M268.063 .5H292.387V17.152H268.063Z"/>
<path d="M279.316 12.277H279.926L277.707 5.465H277.113ZM279.316 12.277" fill="#231f20"/>
<path d="M284.191 8.902C284.191 7.559 283.27 7.262 282.535 7.262 281.738 7.262 281.285 7.809 281.113 8.059H281.098V7.402H280.348V12.105H281.145V9.543C281.145 8.262 281.941 7.98 282.395 7.98 283.16 7.98 283.395 8.387 283.395 9.215V12.105H284.191ZM284.191 8.902" fill="#231f20"/>
<path d="M292.387 .5H316.711V17.152H292.387Z" fill="#ffffff"/>
<path stroke-width=".999" stroke-linecap="butt" stroke-miterlimit="4" stroke-linejoin="miter" fill="none" stroke="#231f20" d="M292.387 .5H316.711V17.152H292.387Z"/>
<path d="M305.332 6.746H305.348L306.832 12.105H307.754L309.457 5.637H308.488L307.285 10.902H307.27L305.816 5.637H304.863L303.41 10.902H303.395L302.191 5.637H301.238L302.926 12.105H303.848ZM305.332 6.746" fill="#231f20"/>
<path d="M316.711 .5H341.035V17.152H316.711Z" fill="#ffffff"/>
<path stroke-width=".999" stroke-linecap="butt" stroke-miterlimit="4" stroke-linejoin="miter" fill="none" stroke="#231f20" d="M316.711 .5H341.035V17.152H316.711Z"/>
<path d="M330.059 7.402H329.277V12.105H330.059ZM330.059 6.543V5.637H329.277V6.543ZM330.059 6.543" fill="#231f20"/>
<path d="M341.035 .5H365.359V17.152H341.035Z" fill="#ffffff"/>
<g clip-path="url(#clip_3)">
<g clip-path="url(#clip_4)">
<path stroke-width=".999" stroke-linecap="butt" stroke-miterlimit="4" stroke-linejoin="miter" fill="none" stroke="#231f20" d="M341.035 .5H365.359V17.152H341.035Z"/>
</g>
<path d="M353.602 5.637H354.383V12.106H353.602Z" fill="#231f20"/>
</g>
<path d="M146.445 .5H170.76902V17.152H146.445Z" fill="#ffffff"/>
<path stroke-width=".999" stroke-linecap="butt" stroke-miterlimit="4" stroke-linejoin="miter" fill="none" stroke="#231f20" d="M146.445 .5H170.76902V17.152H146.445Z"/>
<path d="M161.805 7.527C161.758 6.824 161.539 5.465 159.273 5.465 157.711 5.465 157.055 6.465 157.055 7.465 157.055 8.59 158.008 8.887 158.43 8.996L159.758 9.293C160.82 9.543 161.133 9.762 161.133 10.434 161.133 11.371 160.07 11.527 159.445 11.527 158.617 11.527 157.664 11.184 157.664 10.012H156.836C156.836 10.621 156.945 11.168 157.492 11.652 157.789 11.918 158.258 12.277 159.445 12.277 160.555 12.277 161.977 11.855 161.977 10.324 161.977 9.293 161.352 8.793 160.508 8.59L158.664 8.168C158.289 8.09 157.898 7.902 157.898 7.355 157.898 6.371 158.836 6.215 159.383 6.215 160.102 6.215 160.93 6.527 160.977 7.527ZM161.805 7.527" fill="#231f20"/>
<path d="M.5 28.602H24.824V45.253999H.5Z" fill="#ffffff"/>
<g clip-path="url(#clip_5)">
<g clip-path="url(#clip_6)">
<path stroke-width=".999" stroke-linecap="butt" stroke-miterlimit="4" stroke-linejoin="miter" fill="none" stroke="#231f20" d="M.5 28.602H24.824V45.253999H.5Z"/>
</g>
<path d="M13.066 33.738H13.847V40.207H13.066Z" fill="#231f20"/>
</g>
<path d="M24.824 28.602H49.148V45.253999H24.824Z" fill="#ffffff"/>
<path stroke-width=".999" stroke-linecap="butt" stroke-miterlimit="4" stroke-linejoin="miter" fill="none" stroke="#231f20" d="M24.824 28.602H49.148V45.253999H24.824Z"/>
<path d="M38.172 35.504H37.391V40.207H38.172ZM38.172 34.645V33.738H37.391V34.645ZM38.172 34.645" fill="#231f20"/>
<path d="M49.148 28.602H73.472V45.253999H49.148Z" fill="#ffffff"/>
<path stroke-width=".999" stroke-linecap="butt" stroke-miterlimit="4" stroke-linejoin="miter" fill="none" stroke="#231f20" d="M49.148 28.602H73.472V45.253999H49.148Z"/>
<path d="M63.871 36.848C63.871 36.613 63.762 35.363 62.074 35.363 61.152 35.363 60.293 35.832 60.293 36.863 60.293 37.52 60.73 37.848 61.387 38.004L62.309 38.238C62.98 38.41 63.246 38.535 63.246 38.91 63.246 39.426 62.73 39.66 62.152 39.66 61.043 39.66 60.934 39.066 60.902 38.691H60.137C60.168 39.27 60.309 40.348 62.168 40.348 63.23 40.348 64.027 39.754 64.027 38.785 64.027 38.145 63.684 37.785 62.715 37.551L61.918 37.348C61.309 37.191 61.059 37.098 61.059 36.723 61.059 36.129 61.762 36.051 61.996 36.051 62.996 36.051 63.105 36.551 63.121 36.848ZM63.871 36.848" fill="#231f20"/>
<path d="M73.473 28.602H97.797V45.253999H73.473Z" fill="#ffffff"/>
<path stroke-width=".999" stroke-linecap="butt" stroke-miterlimit="4" stroke-linejoin="miter" fill="none" stroke="#231f20" d="M73.473 28.602H97.797V45.253999H73.473Z"/>
<path d="M84.723 40.379H85.332L83.113 33.566H82.52ZM84.723 40.379" fill="#231f20"/>
<path d="M89.598 37.004C89.598 35.66 88.676 35.363 87.941 35.363 87.145 35.363 86.691 35.91 86.52 36.16H86.504V35.504H85.754V40.207H86.551V37.645C86.551 36.363 87.348 36.082 87.801 36.082 88.566 36.082 88.801 36.488 88.801 37.316V40.207H89.598ZM89.598 37.004" fill="#231f20"/>
<path d="M97.797 28.602H122.120998V45.253999H97.797Z" fill="#ffffff"/>
<path stroke-width=".999" stroke-linecap="butt" stroke-miterlimit="4" stroke-linejoin="miter" fill="none" stroke="#231f20" d="M97.797 28.602H122.120998V45.253999H97.797Z"/>
<path d="M108.238 40.207H110.816C112.941 40.207 113.566 38.332 113.566 36.879 113.566 35.02 112.535 33.738 110.848 33.738H108.238ZM109.113 34.488H110.738C111.926 34.488 112.676 35.316 112.676 36.941 112.676 38.566 111.926 39.457 110.801 39.457H109.113ZM109.113 34.488" fill="#231f20"/>
<path d="M122.121 28.602H146.445V45.253999H122.121Z" fill="#ffffff"/>
<path stroke-width=".999" stroke-linecap="butt" stroke-miterlimit="4" stroke-linejoin="miter" fill="none" stroke="#231f20" d="M122.121 28.602H146.445V45.253999H122.121Z"/>
<path d="M132.605 36.926C132.668 36.566 132.793 36.02 133.684 36.02 134.434 36.02 134.793 36.285 134.793 36.785 134.793 37.254 134.574 37.332 134.387 37.348L133.074 37.504C131.762 37.676 131.652 38.582 131.652 38.988 131.652 39.801 132.262 40.348 133.121 40.348 134.043 40.348 134.512 39.91 134.824 39.582 134.855 39.941 134.965 40.301 135.668 40.301 135.84 40.301 135.965 40.238 136.09 40.207V39.629C136.012 39.645 135.902 39.66 135.84 39.66 135.668 39.66 135.574 39.582 135.574 39.395V36.676C135.574 35.473 134.199 35.363 133.824 35.363 132.668 35.363 131.918 35.801 131.887 36.926ZM134.777 38.582C134.777 39.207 134.059 39.691 133.324 39.691 132.73 39.691 132.465 39.379 132.465 38.863 132.465 38.27 133.09 38.16 133.48 38.098 134.449 37.973 134.652 37.91 134.777 37.801ZM134.777 38.582" fill="#231f20"/>
<path d="M146.445 28.602H170.76902V45.253999H146.445Z" fill="#ffffff"/>
<path stroke-width=".999" stroke-linecap="butt" stroke-miterlimit="4" stroke-linejoin="miter" fill="none" stroke="#231f20" d="M146.445 28.602H170.76902V45.253999H146.445Z"/>
<path d="M159.387 39.332H159.371L158.137 35.504H157.23L158.949 40.207H159.793L161.574 35.504H160.715ZM159.387 39.332" fill="#231f20"/>
<path d="M170.77 28.602H195.09V45.253999H170.77Z" fill="#ffffff"/>
<path stroke-width=".999" stroke-linecap="butt" stroke-miterlimit="4" stroke-linejoin="miter" fill="none" stroke="#231f20" d="M170.77 28.602H195.09V45.253999H170.77Z"/>
<path d="M184.113 35.504H183.332V40.207H184.113ZM184.113 34.645V33.738H183.332V34.645ZM184.113 34.645" fill="#231f20"/>
<path d="M195.094 28.602H219.418V45.253999H195.094Z" fill="#ffffff"/>
<path stroke-width=".999" stroke-linecap="butt" stroke-miterlimit="4" stroke-linejoin="miter" fill="none" stroke="#231f20" d="M195.09 28.602H219.414V45.253999H195.09Z"/>
<path d="M209.813 36.848C209.813 36.613 209.703 35.363 208.016 35.363 207.094 35.363 206.234 35.832 206.234 36.863 206.234 37.52 206.672 37.848 207.328 38.004L208.25 38.238C208.922 38.41 209.188 38.535 209.188 38.91 209.188 39.426 208.672 39.66 208.094 39.66 206.984 39.66 206.875 39.066 206.844 38.691H206.078C206.109 39.27 206.25 40.348 208.109 40.348 209.172 40.348 209.969 39.754 209.969 38.785 209.969 38.145 209.625 37.785 208.656 37.551L207.859 37.348C207.25 37.191 207 37.098 207 36.723 207 36.129 207.703 36.051 207.938 36.051 208.938 36.051 209.047 36.551 209.063 36.848ZM209.813 36.848" fill="#231f20"/>
<path d="M219.418 28.602H243.738V45.253999H219.418Z" fill="#ffffff"/>
<path stroke-width=".999" stroke-linecap="butt" stroke-miterlimit="4" stroke-linejoin="miter" fill="none" stroke="#231f20" d="M219.418 28.602H243.738V45.253999H219.418Z"/>
<path d="M230.668 40.379H231.277L229.059 33.566H228.465ZM230.668 40.379" fill="#231f20"/>
<path d="M235.543 37.004C235.543 35.66 234.621 35.363 233.887 35.363 233.09 35.363 232.637 35.91 232.465 36.16H232.449V35.504H231.699V40.207H232.496V37.645C232.496 36.363 233.293 36.082 233.746 36.082 234.512 36.082 234.746 36.488 234.746 37.316V40.207H235.543ZM235.543 37.004" fill="#231f20"/>
<path d="M243.738 28.602H268.062V45.253999H243.738Z" fill="#ffffff"/>
<path stroke-width=".999" stroke-linecap="butt" stroke-miterlimit="4" stroke-linejoin="miter" fill="none" stroke="#231f20" d="M243.738 28.602H268.062V45.253999H243.738Z"/>
<path d="M248.445 39.395 245.805 37.926 248.445 36.473V35.754L245.148 37.613V38.238L248.445 40.113ZM248.445 39.395" fill="#231f20"/>
<path d="M252.918 39.426H249.996V37.27H252.652V36.504H249.996V34.52H252.871V33.738H249.34V40.207H252.918ZM252.918 39.426" fill="#231f20"/>
<path d="M257.57 36.973C257.57 38.504 256.93 39.598 255.883 39.598 254.836 39.598 254.195 38.504 254.195 36.973 254.195 35.457 254.836 34.348 255.883 34.348 256.93 34.348 257.57 35.457 257.57 36.973ZM258.242 36.973C258.242 35.582 257.695 33.566 255.883 33.566 254.07 33.566 253.523 35.582 253.523 36.973 253.523 38.363 254.07 40.379 255.883 40.379 257.695 40.379 258.242 38.363 258.242 36.973ZM258.242 36.973" fill="#231f20"/>
<path d="M259.742 37.27H262.117V36.504H259.742V34.52H262.445V33.738H259.086V40.207H259.742ZM259.742 37.27" fill="#231f20"/>
<path d="M262.957 36.473 265.582 37.926 262.957 39.395V40.113L266.254 38.238V37.613L262.957 35.754ZM262.957 36.473" fill="#231f20"/>
</g>
</svg>
