<svg xmlns="http://www.w3.org/2000/svg" xmlns:xlink="http://www.w3.org/1999/xlink" xmlns:inkscape="http://www.inkscape.org/namespaces/inkscape" version="1.1" width="326.33168" height="97.49675" viewBox="0 0 326.33168 97.49675">
<defs>
<clipPath id="clip_1">
<path d="M97.035 40.973H122.617008V58.633H97.035Z"/>
</clipPath>
<clipPath id="clip_2">
<path d="M0 0H327V98H0Z"/>
</clipPath>
<clipPath id="clip_3">
<path d="M97.035 79.633H122.617008V97.379009H97.035Z"/>
</clipPath>
<clipPath id="clip_4">
<path d="M0 0H327V98H0Z"/>
</clipPath>
<path id="font_5_1" d="M.25927735 0V.63134768H.0234375V.7158203H.5908203V.63134768H.3540039V0H.25927735Z"/>
<path id="font_5_2" d="M.42089845 .16699219 .51171877 .15576172C.49739585 .10270182 .47086589 .061523439 .4321289 .032226564 .39339195 .0029296876 .34391276-.01171875 .2836914-.01171875 .20784505-.01171875 .14770508 .01163737 .103271488 .05834961 .05883789 .10506185 .036621095 .17057292 .036621095 .2548828 .036621095 .3421224 .05908203 .40983073 .104003909 .4580078 .14892578 .5061849 .20719402 .53027346 .2788086 .53027346 .34814454 .53027346 .40478517 .5067088 .44873048 .45957948 .49267579 .41246034 .51464846 .34616599 .51464846 .2606964 .51464846 .25549827 .51448568 .247701 .51416018 .23730469H.1274414C.13069661 .1805013 .14680989 .13700359 .17578125 .10681152 .20475261 .07661947 .24088542 .061523439 .2841797 .061523439 .31640626 .061523439 .34391276 .0699056 .36669923 .08666992 .3894857 .10344442 .4075521 .1302185 .42089845 .16699219M.13232422 .31054688H.421875C.41796876 .3534546 .40690104 .38563539 .38867188 .40708924 .3606771 .4403839 .3243815 .45703126 .27978517 .45703126 .23942058 .45703126 .20548503 .44374085 .17797852 .41716004 .150472 .3905894 .1352539 .35505168 .13232422 .31054688Z"/>
<path id="font_5_3" d="M.0073242189 0 .19677735 .26953126 .021484375 .5185547H.13134766L.2109375 .39697267C.22591146 .3738607 .23795574 .3544922 .24707031 .3388672 .26139323 .36035157 .2745768 .37939454 .2866211 .3959961L.37402345 .5185547H.4790039L.2998047 .27441407 .49267579 0H.38476563L.2783203 .16113281 .25 .20458985 .11376953 0H.0073242189Z"/>
<path id="font_5_4" d="M.2578125 .07763672 .2705078 0C.24576824-.0045572917 .22363281-.0068359377 .20410156-.0068359377 .17220052-.0068359377 .14746094-.0017903646 .12988281 .008300781 .11230469 .018391928 .0999349 .031656904 .09277344 .048095704 .08561198 .06453451 .08203125 .099121097 .08203125 .15185547V.4501953H.017578125V.5185547H.08203125V.6473236L.1694336 .7001953V.5185547H.2578125V.4501953H.1694336V.14697266C.1694336 .121907558 .17097982 .10579427 .17407227 .09863281 .17716472 .09147135 .18221028 .08577474 .18920899 .08154297 .19620769 .077311199 .20621746 .07519531 .21923828 .07519531 .2290039 .07519531 .24186199 .07600912 .2578125 .07763672Z"/>
<path id="font_5_5" d="M0 0Z"/>
<path id="font_5_6" d="M.08691406 0V.4501953H.009277344V.5185547H.08691406V.5736084C.08691406 .6083577 .09000651 .6341756 .096191409 .651062 .104654949 .6737874 .11954752 .69221499 .14086914 .7063446 .16219075 .72047427 .1920573 .72753909 .23046875 .72753909 .25520835 .72753909 .2825521 .7246094 .3125 .71875L.2993164 .64208987C.28108726 .64534506 .26383464 .64697268 .2475586 .64697268 .22086589 .64697268 .20198567 .6412964 .19091797 .62994387 .17985027 .6185913 .1743164 .5973511 .1743164 .56622317V.5185547H.27539063V.4501953H.1743164V0H.08691406Z"/>
<path id="font_5_7" d="M.06640625 .6142578V.7158203H.15429688V.6142578H.06640625M.06640625 0V.5185547H.15429688V0H.06640625Z"/>
<path id="font_5_8" d="M.063964847 0V.7158203H.15185547V0H.063964847Z"/>
<path id="font_5_9" d="M.07324219 0V.7158203H.34179688C.39648438 .7158203 .4403483 .70857748 .47338868 .6940918 .506429 .67960616 .5323079 .6573079 .5510254 .62719729 .56974288 .5970866 .57910159 .56559249 .57910159 .53271487 .57910159 .5021159 .5708008 .47330729 .5541992 .44628907 .53759768 .41927085 .51253256 .39746095 .4790039 .38085938 .52229818 .36816407 .5555827 .34651695 .5788574 .31591798 .60213217 .285319 .61376956 .2491862 .61376956 .20751953 .61376956 .17399089 .60668948 .14282227 .5925293 .11401367 .57836917 .08520508 .5608724 .06298828 .54003909 .04736328 .51920577 .03173828 .49308268 .01993815 .46166993 .011962891 .43025718 .0039876305 .3917643 0 .3461914 0H.07324219M.16796875 .41503907H.3227539C.3647461 .41503907 .39485679 .417806 .41308595 .42333985 .43717448 .4305013 .45532228 .4423828 .4675293 .45898438 .47973634 .47558595 .48583985 .49641929 .48583985 .5214844 .48583985 .5452474 .48014323 .5661621 .46875 .5842285 .45735679 .6022949 .44108073 .61466476 .41992188 .6213379 .39876304 .62801107 .36246745 .63134768 .31103517 .63134768H.16796875V.41503907M.16796875 .084472659H.3461914C.37679038 .084472659 .39827476 .08561198 .41064454 .087890628 .43245445 .091796878 .4506836 .09830729 .46533204 .107421878 .47998048 .11653646 .49202476 .12980144 .50146487 .1472168 .51090499 .16463216 .515625 .18473308 .515625 .20751953 .515625 .23421224 .50878909 .2574056 .4951172 .2770996 .4814453 .2967936 .46248374 .31062828 .43823243 .31860353 .4139811 .32657878 .379069 .3305664 .3334961 .3305664H.16796875V.084472659Z"/>
<path id="font_5_10" d="M.06591797 0V.5185547H.14501953V.4453125C.18310547 .5019531 .23811849 .53027346 .3100586 .53027346 .3413086 .53027346 .3700358 .5246582 .39624024 .51342776 .42244468 .50219729 .44205729 .48746745 .45507813 .46923829 .46809898 .45100913 .47721354 .42936198 .48242188 .40429688 .4856771 .38802085 .4873047 .35953776 .4873047 .31884767V0H.39941407V.31576539C.39941407 .35161338 .3959961 .37841798 .38916017 .3961792 .38232423 .41394044 .37019859 .42811585 .3527832 .43870545 .33536784 .44929505 .3149414 .45458985 .2915039 .45458985 .254069 .45458985 .22176107 .44269309 .19458008 .41889955 .1673991 .39511619 .1538086 .34998576 .1538086 .2835083V0H.06591797Z"/>
<path id="font_5_11" d="M.40429688 .06402588C.37174479 .03633626 .34041343 .016789755 .31030274 .0053863527 .28019206-.0060170495 .24788411-.01171875 .2133789-.01171875 .15641277-.01171875 .11263021 .0022074383 .08203125 .030059815 .051432294 .05791219 .036132814 .09350077 .036132814 .13682556 .036132814 .16222637 .04191081 .18542989 .053466798 .20643616 .06502279 .22745259 .08015951 .24431356 .09887695 .25701905 .1175944 .26972453 .13867188 .2793325 .16210938 .2858429 .17936199 .29041038 .20540364 .29480998 .24023438 .29904176 .3111979 .30744425 .363444 .3174642 .39697267 .32910157 .3972982 .34109498 .39746095 .3487142 .39746095 .35195924 .39746095 .38763429 .38916017 .4127655 .3725586 .4273529 .35009767 .44713847 .31673179 .45703126 .27246095 .45703126 .2311198 .45703126 .20060222 .44978843 .1809082 .43530274 .16121419 .42081706 .14664714 .39518229 .13720703 .35839845L.05126953 .3701172C.05908203 .40701295 .0719401 .43680827 .08984375 .45950318 .1077474 .4821981 .1336263 .4996643 .16748047 .51190188 .20133464 .5241496 .24055989 .53027346 .28515626 .53027346 .3294271 .53027346 .36539714 .5250651 .3930664 .51464846 .4207357 .50423178 .44108073 .49112956 .45410157 .4753418 .4671224 .45955406 .47623698 .43961589 .4814453 .41552735 .484375 .40055339 .48583985 .37353517 .48583985 .33447267V.21728516C.48583985 .13557942 .48771159 .08390299 .49145509 .06225586 .49519859 .040608724 .5026042 .019856772 .5136719 0H.421875C.4127604 .018249512 .40690104 .039591474 .40429688 .06402588M.39697267 .2607422C.36507163 .24760945 .31722007 .2364502 .25341798 .2272644 .21728516 .22203572 .19173177 .21615093 .17675781 .20960999 .16178386 .20307923 .15022786 .19351705 .14208985 .18092346 .13395183 .16834004 .12988281 .15436809 .12988281 .13900757 .12988281 .115478519 .13875325 .09586588 .15649414 .08016968 .17423503 .06448364 .20019531 .056640626 .234375 .056640626 .26822917 .056640626 .29833985 .064081829 .32470704 .07896423 .35107423 .09384664 .37044273 .11420695 .3828125 .14004517 .3922526 .16000366 .39697267 .18944295 .39697267 .22836304V.2607422Z"/>
<path id="font_5_12" d="M.064941409 0V.5185547H.14404297V.4404297C.16422527 .4770101 .18286133 .50112918 .19995117 .51278689 .21704102 .5244446 .23583985 .53027346 .25634767 .53027346 .28597007 .53027346 .31608073 .520874 .3466797 .5020752L.31640626 .42089845C.29492188 .43359376 .2734375 .4399414 .25195313 .4399414 .23274739 .4399414 .2154948 .43415324 .20019531 .4225769 .18489583 .41101075 .17399089 .3949636 .16748047 .37443543 .15771485 .3431549 .15283203 .3089396 .15283203 .27178956V0H.064941409Z"/>
<path id="font_5_13" d="M.06201172-.20019531 .052246095-.11767578C.07145182-.12288412 .08821615-.12548828 .10253906-.12548828 .12207031-.12548828 .13769531-.12219238 .14941406-.115600589 .16113281-.10901896 .17073567-.09979757 .17822266-.0879364 .18375652-.079045619 .19270833-.056981405 .20507813-.021743775 .20670574-.016799927 .20930989-.009552002 .21289063 0L.016113282 .5185547H.110839847L.21875 .21896363C.23274739 .18095906 .24527996 .14101155 .25634767 .099121097 .2664388 .13939412 .27848307 .1786906 .29248048 .2170105L.4033203 .5185547H.49121095L.2939453-.009140015C.27278648-.06614685 .25634767-.105397548 .2446289-.12689209 .2290039-.15588379 .21110027-.17713928 .19091797-.19065857 .17073567-.20417786 .14664714-.2109375 .118652347-.2109375 .10172526-.2109375 .082845058-.20735677 .06201172-.20019531Z"/>
</defs>
<g>
<path d="M.5 41.473H24.82V58.125H.5Z" fill="#ffffff"/>
<path stroke-width=".999" stroke-linecap="butt" stroke-miterlimit="4" stroke-linejoin="miter" fill="none" stroke="#231f20" d="M.5 41.473H24.82V58.125H.5Z"/>
<path d="M9.766 46.609H10.422V48.906003H9.766Z" fill="#231f20"/>
<path d="M14.188 46.75H13.563C13.313 47.781 12.891 47.891 11.859 47.953V48.594H13.344V53.078H14.188ZM14.188 46.75" fill="#231f20"/>
<path d="M16.484 46.609H17.14V48.906003H16.484Z" fill="#231f20"/>
<path d="M5.695 69.406H5.07C4.82 70.438 4.398 70.547 3.367 70.609V71.25H4.852V75.734H5.695ZM5.695 69.406" fill="#231f20"/>
<path d="M8.648 71.672C8.68 71.234 8.727 70.125 9.93 70.125 10.852 70.125 11.18 70.75 11.18 71.266 11.18 72.094 10.695 72.344 10.023 72.734L9.18 73.219C8.336 73.719 7.742 74.422 7.695 75.734H12.023V74.984H8.586C8.617 74.75 8.805 74.25 9.68 73.766L10.336 73.406C11.273 72.906 12.023 72.438 12.023 71.297 12.023 70.125 11.148 69.406 10.039 69.406 9.367 69.406 7.852 69.609 7.852 71.672ZM8.648 71.672" fill="#231f20"/>
<path d="M14.82 73.625C15.414 73.625 16.039 73.344 16.273 72.859L16.289 72.875C16.102 74.516 15.633 75.25 14.773 75.25 14.133 75.25 13.742 74.859 13.695 74.219H12.914C12.914 74.828 13.305 75.906 14.789 75.906 16.977 75.906 17.086 73.016 17.086 72.344 17.086 71.313 16.883 69.406 14.867 69.406 13.539 69.406 12.836 70.422 12.836 71.578 12.836 72.844 13.664 73.625 14.82 73.625ZM14.945 72.906C14.414 72.906 13.664 72.75 13.664 71.547 13.664 70.688 14.148 70.125 14.883 70.125 15.789 70.125 16.164 70.75 16.164 71.469 16.164 72.719 15.352 72.906 14.945 72.906ZM14.945 72.906" fill="#231f20"/>
<path d="M17.793 70.313H21.277C20.059 71.734 18.918 74 18.699 75.734H19.574C20.027 72.906 21.543 70.891 22.168 70.234V69.547H17.793ZM17.793 70.313" fill="#231f20"/>
<path d="M28.746 74.266C28.73 74.609 28.293 75.188 27.543 75.188 26.637 75.188 26.168 74.625 26.168 73.641H29.605C29.605 71.969 28.949 70.891 27.59 70.891 26.027 70.891 25.324 72.047 25.324 73.516 25.324 74.875 26.105 75.875 27.434 75.875 28.184 75.875 28.496 75.688 28.715 75.547 29.309 75.156 29.512 74.484 29.543 74.266ZM26.168 73C26.168 72.281 26.746 71.609 27.48 71.609 28.434 71.609 28.746 72.281 28.793 73ZM26.168 73" fill="#231f20"/>
<path d="M32.445 73.313 34.039 71.031H33.07L31.977 72.688 30.898 71.031H29.883L31.445 73.313 29.789 75.734H30.789L31.93 73.969 33.102 75.734H34.102ZM32.445 73.313" fill="#231f20"/>
<path d="M35.477 73.594C35.477 72.844 35.602 71.609 36.742 71.609 37.961 71.609 38.023 72.766 38.023 73.375 38.023 74.406 37.617 75.188 36.758 75.188 36.258 75.188 35.477 74.859 35.477 73.594ZM34.711 77.594H35.508V75.234H35.523C35.727 75.578 36.148 75.875 36.773 75.875 38.383 75.875 38.852 74.359 38.852 73.234 38.852 71.922 38.133 70.891 36.883 70.891 36.039 70.891 35.664 71.422 35.477 71.688H35.461V71.031H34.711ZM34.711 77.594" fill="#231f20"/>
<path d="M40.68 73C40.68 72.313 41.148 71.734 41.883 71.734H42.18V70.922C42.117 70.906 42.07 70.891 41.977 70.891 41.383 70.891 40.961 71.266 40.648 71.813H40.633V71.031H39.883V75.734H40.68ZM40.68 73" fill="#231f20"/>
<path d="M45.973 74.266C45.957 74.609 45.52 75.188 44.77 75.188 43.863 75.188 43.395 74.625 43.395 73.641H46.832C46.832 71.969 46.176 70.891 44.816 70.891 43.254 70.891 42.551 72.047 42.551 73.516 42.551 74.875 43.332 75.875 44.66 75.875 45.41 75.875 45.723 75.688 45.941 75.547 46.535 75.156 46.738 74.484 46.77 74.266ZM43.395 73C43.395 72.281 43.973 71.609 44.707 71.609 45.66 71.609 45.973 72.281 46.02 73ZM43.395 73" fill="#231f20"/>
<path d="M51.207 72.375C51.207 72.141 51.098 70.891 49.41 70.891 48.488 70.891 47.629 71.359 47.629 72.391 47.629 73.047 48.066 73.375 48.723 73.531L49.645 73.766C50.316 73.938 50.582 74.063 50.582 74.438 50.582 74.953 50.066 75.188 49.488 75.188 48.379 75.188 48.27 74.594 48.238 74.219H47.473C47.504 74.797 47.645 75.875 49.504 75.875 50.566 75.875 51.363 75.281 51.363 74.313 51.363 73.672 51.02 73.313 50.051 73.078L49.254 72.875C48.645 72.719 48.395 72.625 48.395 72.25 48.395 71.656 49.098 71.578 49.332 71.578 50.332 71.578 50.441 72.078 50.457 72.375ZM51.207 72.375" fill="#231f20"/>
<path d="M55.703 72.375C55.703 72.141 55.594 70.891 53.906 70.891 52.984 70.891 52.125 71.359 52.125 72.391 52.125 73.047 52.563 73.375 53.219 73.531L54.141 73.766C54.813 73.938 55.078 74.063 55.078 74.438 55.078 74.953 54.563 75.188 53.984 75.188 52.875 75.188 52.766 74.594 52.734 74.219H51.969C52 74.797 52.141 75.875 54 75.875 55.063 75.875 55.859 75.281 55.859 74.313 55.859 73.672 55.516 73.313 54.547 73.078L53.75 72.875C53.141 72.719 52.891 72.625 52.891 72.25 52.891 71.656 53.594 71.578 53.828 71.578 54.828 71.578 54.938 72.078 54.953 72.375ZM55.703 72.375" fill="#231f20"/>
<path d="M59.969 74.266C59.953 74.609 59.516 75.188 58.766 75.188 57.859 75.188 57.391 74.625 57.391 73.641H60.828C60.828 71.969 60.172 70.891 58.813 70.891 57.25 70.891 56.547 72.047 56.547 73.516 56.547 74.875 57.328 75.875 58.656 75.875 59.406 75.875 59.719 75.688 59.938 75.547 60.531 75.156 60.734 74.484 60.766 74.266ZM57.391 73C57.391 72.281 57.969 71.609 58.703 71.609 59.656 71.609 59.969 72.281 60.016 73ZM57.391 73" fill="#231f20"/>
<path d="M65.672 69.266H64.891V71.688H64.875C64.672 71.422 64.313 70.891 63.469 70.891 62.219 70.891 61.5 71.922 61.5 73.234 61.5 74.359 61.969 75.875 63.578 75.875 64.031 75.875 64.578 75.719 64.906 75.094H64.938V75.734H65.672ZM62.328 73.375C62.328 72.766 62.391 71.609 63.609 71.609 64.75 71.609 64.875 72.844 64.875 73.594 64.875 74.859 64.094 75.188 63.594 75.188 62.719 75.188 62.328 74.406 62.328 73.375ZM62.328 73.375" fill="#231f20"/>
<path d="M70.082 71.031H69.301V75.734H70.082ZM70.082 70.172V69.266H69.301V70.172ZM70.082 70.172" fill="#231f20"/>
<path d="M75.109 72.531C75.109 71.188 74.188 70.891 73.453 70.891 72.656 70.891 72.203 71.438 72.031 71.688H72.016V71.031H71.266V75.734H72.063V73.172C72.063 71.891 72.859 71.609 73.313 71.609 74.078 71.609 74.313 72.016 74.313 72.844V75.734H75.109ZM75.109 72.531" fill="#231f20"/>
<path d="M82.484 73.859 83.125 75.734H84.078L81.734 69.266H80.75L78.313 75.734H79.219L79.891 73.859ZM80.156 73.078 81.188 70.234H81.219L82.172 73.078ZM80.156 73.078" fill="#231f20"/>
<path d="M89.594 71.156C89.547 70.453 89.328 69.094 87.063 69.094 85.5 69.094 84.844 70.094 84.844 71.094 84.844 72.219 85.797 72.516 86.219 72.625L87.547 72.922C88.609 73.172 88.922 73.391 88.922 74.063 88.922 75 87.859 75.156 87.234 75.156 86.406 75.156 85.453 74.813 85.453 73.641H84.625C84.625 74.25 84.734 74.797 85.281 75.281 85.578 75.547 86.047 75.906 87.234 75.906 88.344 75.906 89.766 75.484 89.766 73.953 89.766 72.922 89.141 72.422 88.297 72.219L86.453 71.797C86.078 71.719 85.688 71.531 85.688 70.984 85.688 70 86.625 69.844 87.172 69.844 87.891 69.844 88.719 70.156 88.766 71.156ZM89.594 71.156" fill="#231f20"/>
<path d="M96.25 71.219C96.125 70.141 95.266 69.094 93.594 69.094 91.719 69.094 90.578 70.484 90.578 72.469 90.578 74.953 92.031 75.906 93.484 75.906 93.969 75.906 95.953 75.797 96.313 73.359H95.469C95.172 74.859 94.188 75.125 93.625 75.125 92.031 75.125 91.484 73.969 91.484 72.438 91.484 70.734 92.422 69.875 93.594 69.875 94.219 69.875 95.172 70.078 95.406 71.219ZM96.25 71.219" fill="#231f20"/>
<path d="M97.496 69.266H98.371V75.735H97.496Z" fill="#231f20"/>
<path d="M99.996 69.266H100.871V75.735H99.996Z" fill="#231f20"/>
<path d="M24.82 41.473H49.143999V58.125H24.82Z" fill="#ffffff"/>
<path stroke-width=".999" stroke-linecap="butt" stroke-miterlimit="4" stroke-linejoin="miter" fill="none" stroke="#231f20" d="M24.82 41.473H49.143999V58.125H24.82Z"/>
<path d="M34.09 46.609H34.746V48.906003H34.09Z" fill="#231f20"/>
<path d="M36.465 49.016C36.496 48.578 36.543 47.469 37.746 47.469 38.668 47.469 38.996 48.094 38.996 48.609 38.996 49.438 38.512 49.688 37.84 50.078L36.996 50.563C36.152 51.063 35.559 51.766 35.512 53.078H39.84V52.328H36.402C36.434 52.094 36.621 51.594 37.496 51.109L38.152 50.75C39.09 50.25 39.84 49.781 39.84 48.641 39.84 47.469 38.965 46.75 37.855 46.75 37.184 46.75 35.668 46.953 35.668 49.016ZM36.465 49.016" fill="#231f20"/>
<path d="M40.809 46.609H41.464998V48.906003H40.809Z" fill="#231f20"/>
<path d="M49.145 41.473H73.469V58.125H49.145Z" fill="#ffffff"/>
<path stroke-width=".999" stroke-linecap="butt" stroke-miterlimit="4" stroke-linejoin="miter" fill="none" stroke="#231f20" d="M49.145 41.473H73.469V58.125H49.145Z"/>
<path d="M58.414 46.609H59.07V48.906003H58.414Z" fill="#231f20"/>
<path d="M61.961 50.969C62.555 50.969 63.18 50.688 63.414 50.203L63.43 50.219C63.242 51.859 62.773 52.594 61.914 52.594 61.273 52.594 60.883 52.203 60.836 51.563H60.055C60.055 52.172 60.445 53.25 61.93 53.25 64.117 53.25 64.227 50.359 64.227 49.688 64.227 48.656 64.023 46.75 62.008 46.75 60.68 46.75 59.977 47.766 59.977 48.922 59.977 50.188 60.805 50.969 61.961 50.969ZM62.086 50.25C61.555 50.25 60.805 50.094 60.805 48.891 60.805 48.031 61.289 47.469 62.023 47.469 62.93 47.469 63.305 48.094 63.305 48.813 63.305 50.063 62.492 50.25 62.086 50.25ZM62.086 50.25" fill="#231f20"/>
<path d="M65.133 46.609H65.789V48.906003H65.133Z" fill="#231f20"/>
<path d="M73.469 41.473H97.793V58.125H73.469Z" fill="#ffffff"/>
<path stroke-width=".999" stroke-linecap="butt" stroke-miterlimit="4" stroke-linejoin="miter" fill="none" stroke="#231f20" d="M73.469 41.473H97.793V58.125H73.469Z"/>
<path d="M81.488 46.609H82.144V48.906003H81.488Z" fill="#231f20"/>
<path d="M83.004 47.656H86.488C85.27 49.078 84.129 51.344 83.91 53.078H84.785C85.238 50.25 86.754 48.234 87.379 47.578V46.891H83.004ZM83.004 47.656" fill="#231f20"/>
<path d="M88.207 46.609H88.863V48.906003H88.207Z" fill="#231f20"/>
<path d="M97.793 41.473H122.117V58.125H97.793Z" fill="#ffffff"/>
<g clip-path="url(#clip_1)">
<g clip-path="url(#clip_2)">
<path stroke-width=".999" stroke-linecap="butt" stroke-miterlimit="4" stroke-linejoin="miter" fill="none" stroke="#231f20" d="M97.793 41.473H122.117V58.125H97.793Z"/>
</g>
<path d="M102.5 52.266 99.859 50.797 102.5 49.344V48.625L99.203 50.484V51.109L102.5 52.984ZM102.5 52.266" fill="#231f20"/>
<path d="M106.969 52.297H104.047V50.141H106.703V49.375H104.047V47.391H106.922V46.609H103.391V53.078H106.969ZM106.969 52.297" fill="#231f20"/>
<path d="M111.625 49.844C111.625 51.375 110.984 52.469 109.938 52.469 108.891 52.469 108.25 51.375 108.25 49.844 108.25 48.328 108.891 47.219 109.938 47.219 110.984 47.219 111.625 48.328 111.625 49.844ZM112.297 49.844C112.297 48.453 111.75 46.438 109.938 46.438 108.125 46.438 107.578 48.453 107.578 49.844 107.578 51.234 108.125 53.25 109.938 53.25 111.75 53.25 112.297 51.234 112.297 49.844ZM112.297 49.844" fill="#231f20"/>
<path d="M113.797 50.141H116.172V49.375H113.797V47.391H116.5V46.609H113.141V53.078H113.797ZM113.797 50.141" fill="#231f20"/>
<path d="M117.012 49.344 119.637 50.797 117.012 52.266V52.984L120.309 51.109V50.484L117.012 48.625ZM117.012 49.344" fill="#231f20"/>
</g>
<path d="M.5 80.227H24.82V96.882999H.5Z" fill="#ffffff"/>
<path stroke-width=".999" stroke-linecap="butt" stroke-miterlimit="4" stroke-linejoin="miter" fill="none" stroke="#231f20" d="M.5 80.227H24.82V96.882999H.5Z"/>
<path d="M13.152 90.305V89.617H12.23V85.508H11.574L8.668 89.523V90.305H11.434V91.836H12.23V90.305ZM11.418 86.742H11.434V89.617H9.402ZM11.418 86.742" fill="#231f20"/>
<path d="M15.813 89.727C16.406 89.727 17.031 89.445 17.266 88.961L17.281 88.977C17.094 90.617 16.625 91.352 15.766 91.352 15.125 91.352 14.734 90.961 14.688 90.32H13.906C13.906 90.93 14.297 92.008 15.781 92.008 17.969 92.008 18.078 89.117 18.078 88.445 18.078 87.414 17.875 85.508 15.859 85.508 14.531 85.508 13.828 86.523 13.828 87.68 13.828 88.945 14.656 89.727 15.813 89.727ZM15.938 89.008C15.406 89.008 14.656 88.852 14.656 87.648 14.656 86.789 15.141 86.227 15.875 86.227 16.781 86.227 17.156 86.852 17.156 87.57 17.156 88.82 16.344 89.008 15.938 89.008ZM15.938 89.008" fill="#231f20"/>
<path d="M24.82 80.227H49.143999V96.882999H24.82Z" fill="#ffffff"/>
<path stroke-width=".999" stroke-linecap="butt" stroke-miterlimit="4" stroke-linejoin="miter" fill="none" stroke="#231f20" d="M24.82 80.227H49.143999V96.882999H24.82Z"/>
<path d="M33.117 86.414H35.805V85.648H32.523L32.039 89.039 32.727 89.07C33.023 88.68 33.445 88.477 33.898 88.477 34.68 88.477 35.305 88.961 35.305 89.867 35.305 90.664 34.789 91.32 33.977 91.32 33.258 91.32 32.711 90.992 32.633 90.258H31.805C31.961 91.68 33.023 92.008 33.852 92.008 35.836 92.008 36.148 90.492 36.148 89.789 36.148 88.477 35.102 87.758 34.07 87.758 33.508 87.758 33.117 87.945 32.852 88.148ZM33.117 86.414" fill="#231f20"/>
<path d="M40.355 88.758C40.355 90.336 39.934 91.289 39.027 91.289 38.121 91.289 37.699 90.336 37.699 88.758 37.699 87.18 38.121 86.227 39.027 86.227 39.934 86.227 40.355 87.18 40.355 88.758ZM41.199 88.758C41.199 87.445 40.84 85.508 39.027 85.508 37.215 85.508 36.855 87.445 36.855 88.758 36.855 90.07 37.215 92.008 39.027 92.008 40.84 92.008 41.199 90.07 41.199 88.758ZM41.199 88.758" fill="#231f20"/>
<path d="M49.145 80.227H73.469V96.882999H49.145Z" fill="#ffffff"/>
<path stroke-width=".999" stroke-linecap="butt" stroke-miterlimit="4" stroke-linejoin="miter" fill="none" stroke="#231f20" d="M49.145 80.227H73.469V96.882999H49.145Z"/>
<path d="M58.691 86.414H61.379V85.648H58.098L57.613 89.039 58.301 89.07C58.598 88.68 59.02 88.477 59.473 88.477 60.254 88.477 60.879 88.961 60.879 89.867 60.879 90.664 60.363 91.32 59.551 91.32 58.832 91.32 58.285 90.992 58.207 90.258H57.379C57.535 91.68 58.598 92.008 59.426 92.008 61.41 92.008 61.723 90.492 61.723 89.789 61.723 88.477 60.676 87.758 59.645 87.758 59.082 87.758 58.691 87.945 58.426 88.148ZM58.691 86.414" fill="#231f20"/>
<path d="M62.43 86.414H65.914C64.695 87.836 63.555 90.102 63.336 91.836H64.211C64.664 89.008 66.18 86.992 66.805 86.336V85.648H62.43ZM62.43 86.414" fill="#231f20"/>
<path d="M73.469 80.227H97.793V96.882999H73.469Z" fill="#ffffff"/>
<path stroke-width=".999" stroke-linecap="butt" stroke-miterlimit="4" stroke-linejoin="miter" fill="none" stroke="#231f20" d="M73.469 80.227H97.793V96.882999H73.469Z"/>
<path d="M83.016 86.414H85.703V85.648H82.422L81.938 89.039 82.625 89.07C82.922 88.68 83.344 88.477 83.797 88.477 84.578 88.477 85.203 88.961 85.203 89.867 85.203 90.664 84.688 91.32 83.875 91.32 83.156 91.32 82.609 90.992 82.531 90.258H81.703C81.859 91.68 82.922 92.008 83.75 92.008 85.734 92.008 86.047 90.492 86.047 89.789 86.047 88.477 85 87.758 83.969 87.758 83.406 87.758 83.016 87.945 82.75 88.148ZM83.016 86.414" fill="#231f20"/>
<path d="M88.02 86.414H90.707V85.648H87.426L86.941 89.039 87.629 89.07C87.926 88.68 88.348 88.477 88.801 88.477 89.582 88.477 90.207 88.961 90.207 89.867 90.207 90.664 89.691 91.32 88.879 91.32 88.16 91.32 87.613 90.992 87.535 90.258H86.707C86.863 91.68 87.926 92.008 88.754 92.008 90.738 92.008 91.051 90.492 91.051 89.789 91.051 88.477 90.004 87.758 88.973 87.758 88.41 87.758 88.02 87.945 87.754 88.148ZM88.02 86.414" fill="#231f20"/>
<path d="M97.793 80.227H122.117V96.882999H97.793Z" fill="#ffffff"/>
<g clip-path="url(#clip_3)">
<g clip-path="url(#clip_4)">
<path stroke-width=".999" stroke-linecap="butt" stroke-miterlimit="4" stroke-linejoin="miter" fill="none" stroke="#231f20" d="M97.793 80.227H122.117V96.882999H97.793Z"/>
</g>
<path d="M102.5 91.023 99.859 89.555 102.5 88.102V87.383L99.203 89.242V89.867L102.5 91.742ZM102.5 91.023" fill="#231f20"/>
<path d="M106.969 91.055H104.047V88.898H106.703V88.133H104.047V86.148H106.922V85.367H103.391V91.836H106.969ZM106.969 91.055" fill="#231f20"/>
<path d="M111.625 88.602C111.625 90.133 110.984 91.227 109.938 91.227 108.891 91.227 108.25 90.133 108.25 88.602 108.25 87.086 108.891 85.977 109.938 85.977 110.984 85.977 111.625 87.086 111.625 88.602ZM112.297 88.602C112.297 87.211 111.75 85.195 109.938 85.195 108.125 85.195 107.578 87.211 107.578 88.602 107.578 89.992 108.125 92.008 109.938 92.008 111.75 92.008 112.297 89.992 112.297 88.602ZM112.297 88.602" fill="#231f20"/>
<path d="M113.797 88.898H116.172V88.133H113.797V86.148H116.5V85.367H113.141V91.836H113.797ZM113.797 88.898" fill="#231f20"/>
<path d="M117.012 88.102 119.637 89.555 117.012 91.023V91.742L120.309 89.867V89.242L117.012 87.383ZM117.012 88.102" fill="#231f20"/>
</g>
<path d="M168.344 39.746H216.99199V56.402H168.344Z" fill="#ffffff"/>
<path stroke-width=".999" stroke-linecap="butt" stroke-miterlimit="4" stroke-linejoin="miter" fill="none" stroke="#231f20" d="M168.344 39.746H216.99199V56.402H168.344Z"/>
<path d="M175.613 48.277C175.613 49.855 175.191 50.809 174.285 50.809 173.379 50.809 172.957 49.855 172.957 48.277 172.957 46.699 173.379 45.746 174.285 45.746 175.191 45.746 175.613 46.699 175.613 48.277ZM176.457 48.277C176.457 46.965 176.098 45.027 174.285 45.027 172.473 45.027 172.113 46.965 172.113 48.277 172.113 49.59 172.473 51.527 174.285 51.527 176.098 51.527 176.457 49.59 176.457 48.277ZM176.457 48.277" fill="#231f20"/>
<path d="M180.613 48.277C180.613 49.855 180.191 50.809 179.285 50.809 178.379 50.809 177.957 49.855 177.957 48.277 177.957 46.699 178.379 45.746 179.285 45.746 180.191 45.746 180.613 46.699 180.613 48.277ZM181.457 48.277C181.457 46.965 181.098 45.027 179.285 45.027 177.473 45.027 177.113 46.965 177.113 48.277 177.113 49.59 177.473 51.527 179.285 51.527 181.098 51.527 181.457 49.59 181.457 48.277ZM181.457 48.277" fill="#231f20"/>
<path d="M185.617 48.277C185.617 49.855 185.195 50.809 184.289 50.809 183.383 50.809 182.961 49.855 182.961 48.277 182.961 46.699 183.383 45.746 184.289 45.746 185.195 45.746 185.617 46.699 185.617 48.277ZM186.461 48.277C186.461 46.965 186.102 45.027 184.289 45.027 182.477 45.027 182.117 46.965 182.117 48.277 182.117 49.59 182.477 51.527 184.289 51.527 186.102 51.527 186.461 49.59 186.461 48.277ZM186.461 48.277" fill="#231f20"/>
<path d="M190.617 48.277C190.617 49.855 190.195 50.809 189.289 50.809 188.383 50.809 187.961 49.855 187.961 48.277 187.961 46.699 188.383 45.746 189.289 45.746 190.195 45.746 190.617 46.699 190.617 48.277ZM191.461 48.277C191.461 46.965 191.102 45.027 189.289 45.027 187.477 45.027 187.117 46.965 187.117 48.277 187.117 49.59 187.477 51.527 189.289 51.527 191.102 51.527 191.461 49.59 191.461 48.277ZM191.461 48.277" fill="#231f20"/>
<path d="M195.617 48.277C195.617 49.855 195.195 50.809 194.289 50.809 193.383 50.809 192.961 49.855 192.961 48.277 192.961 46.699 193.383 45.746 194.289 45.746 195.195 45.746 195.617 46.699 195.617 48.277ZM196.461 48.277C196.461 46.965 196.102 45.027 194.289 45.027 192.477 45.027 192.117 46.965 192.117 48.277 192.117 49.59 192.477 51.527 194.289 51.527 196.102 51.527 196.461 49.59 196.461 48.277ZM196.461 48.277" fill="#231f20"/>
<path d="M200.023 45.027H199.398C199.148 46.059 198.727 46.168 197.695 46.23V46.871H199.18V51.355H200.023ZM200.023 45.027" fill="#231f20"/>
<path d="M205.621 48.277C205.621 49.855 205.199 50.809 204.293 50.809 203.387 50.809 202.965 49.855 202.965 48.277 202.965 46.699 203.387 45.746 204.293 45.746 205.199 45.746 205.621 46.699 205.621 48.277ZM206.465 48.277C206.465 46.965 206.105 45.027 204.293 45.027 202.48 45.027 202.121 46.965 202.121 48.277 202.121 49.59 202.48 51.527 204.293 51.527 206.105 51.527 206.465 49.59 206.465 48.277ZM206.465 48.277" fill="#231f20"/>
<path d="M210.027 45.027H209.402C209.152 46.059 208.73 46.168 207.699 46.23V46.871H209.184V51.355H210.027ZM210.027 45.027" fill="#231f20"/>
<path d="M173.535 25.707H172.91C172.66 26.738 172.238 26.848 171.207 26.91V27.551H172.691V32.035H173.535ZM173.535 25.707" fill="#231f20"/>
<path d="M176.488 27.973C176.52 27.535 176.566 26.426 177.77 26.426 178.691 26.426 179.02 27.051 179.02 27.566 179.02 28.395 178.535 28.645 177.863 29.035L177.02 29.52C176.176 30.02 175.582 30.723 175.535 32.035H179.863V31.285H176.426C176.457 31.051 176.645 30.551 177.52 30.066L178.176 29.707C179.113 29.207 179.863 28.738 179.863 27.598 179.863 26.426 178.988 25.707 177.879 25.707 177.207 25.707 175.691 25.91 175.691 27.973ZM176.488 27.973" fill="#231f20"/>
<path d="M182.664 29.926C183.258 29.926 183.883 29.645 184.117 29.16L184.133 29.176C183.945 30.816 183.477 31.551 182.617 31.551 181.977 31.551 181.586 31.16 181.539 30.52H180.758C180.758 31.129 181.148 32.207 182.633 32.207 184.82 32.207 184.93 29.316 184.93 28.645 184.93 27.613 184.727 25.707 182.711 25.707 181.383 25.707 180.68 26.723 180.68 27.879 180.68 29.145 181.508 29.926 182.664 29.926ZM182.789 29.207C182.258 29.207 181.508 29.051 181.508 27.848 181.508 26.988 181.992 26.426 182.727 26.426 183.633 26.426 184.008 27.051 184.008 27.77 184.008 29.02 183.195 29.207 182.789 29.207ZM182.789 29.207" fill="#231f20"/>
<path d="M185.633 26.613H189.117C187.898 28.035 186.758 30.301 186.539 32.035H187.414C187.867 29.207 189.383 27.191 190.008 26.535V25.848H185.633ZM185.633 26.613" fill="#231f20"/>
<path d="M194.086 28.754C194.148 28.395 194.273 27.848 195.164 27.848 195.914 27.848 196.273 28.113 196.273 28.613 196.273 29.082 196.055 29.16 195.867 29.176L194.555 29.332C193.242 29.504 193.133 30.41 193.133 30.816 193.133 31.629 193.742 32.176 194.602 32.176 195.523 32.176 195.992 31.738 196.305 31.41 196.336 31.77 196.445 32.129 197.148 32.129 197.32 32.129 197.445 32.066 197.57 32.035V31.457C197.492 31.473 197.383 31.488 197.32 31.488 197.148 31.488 197.055 31.41 197.055 31.223V28.504C197.055 27.301 195.68 27.191 195.305 27.191 194.148 27.191 193.398 27.629 193.367 28.754ZM196.258 30.41C196.258 31.035 195.539 31.52 194.805 31.52 194.211 31.52 193.945 31.207 193.945 30.691 193.945 30.098 194.57 29.988 194.961 29.926 195.93 29.801 196.133 29.738 196.258 29.629ZM196.258 30.41" fill="#231f20"/>
<path d="M201.824 28.676C201.824 28.441 201.715 27.191 200.027 27.191 199.105 27.191 198.246 27.66 198.246 28.691 198.246 29.348 198.684 29.676 199.34 29.832L200.262 30.066C200.934 30.238 201.199 30.363 201.199 30.738 201.199 31.254 200.684 31.488 200.105 31.488 198.996 31.488 198.887 30.895 198.855 30.52H198.09C198.121 31.098 198.262 32.176 200.121 32.176 201.184 32.176 201.98 31.582 201.98 30.613 201.98 29.973 201.637 29.613 200.668 29.379L199.871 29.176C199.262 29.02 199.012 28.926 199.012 28.551 199.012 27.957 199.715 27.879 199.949 27.879 200.949 27.879 201.059 28.379 201.074 28.676ZM201.824 28.676" fill="#231f20"/>
<path d="M206.086 28.754C206.148 28.395 206.273 27.848 207.164 27.848 207.914 27.848 208.273 28.113 208.273 28.613 208.273 29.082 208.055 29.16 207.867 29.176L206.555 29.332C205.242 29.504 205.133 30.41 205.133 30.816 205.133 31.629 205.742 32.176 206.602 32.176 207.523 32.176 207.992 31.738 208.305 31.41 208.336 31.77 208.445 32.129 209.148 32.129 209.32 32.129 209.445 32.066 209.57 32.035V31.457C209.492 31.473 209.383 31.488 209.32 31.488 209.148 31.488 209.055 31.41 209.055 31.223V28.504C209.055 27.301 207.68 27.191 207.305 27.191 206.148 27.191 205.398 27.629 205.367 28.754ZM208.258 30.41C208.258 31.035 207.539 31.52 206.805 31.52 206.211 31.52 205.945 31.207 205.945 30.691 205.945 30.098 206.57 29.988 206.961 29.926 207.93 29.801 208.133 29.738 208.258 29.629ZM208.258 30.41" fill="#231f20"/>
<path d="M216.324 28.676C216.324 28.441 216.215 27.191 214.527 27.191 213.605 27.191 212.746 27.66 212.746 28.691 212.746 29.348 213.184 29.676 213.84 29.832L214.762 30.066C215.434 30.238 215.699 30.363 215.699 30.738 215.699 31.254 215.184 31.488 214.605 31.488 213.496 31.488 213.387 30.895 213.355 30.52H212.59C212.621 31.098 212.762 32.176 214.621 32.176 215.684 32.176 216.48 31.582 216.48 30.613 216.48 29.973 216.137 29.613 215.168 29.379L214.371 29.176C213.762 29.02 213.512 28.926 213.512 28.551 213.512 27.957 214.215 27.879 214.449 27.879 215.449 27.879 215.559 28.379 215.574 28.676ZM216.324 28.676" fill="#231f20"/>
<path d="M221.227 28.832C221.227 27.488 220.305 27.191 219.57 27.191 218.82 27.191 218.43 27.66 218.195 27.957H218.18V25.566H217.383V32.035H218.18V29.473C218.18 28.285 218.852 27.91 219.492 27.91 220.258 27.91 220.43 28.316 220.43 28.957V32.035H221.227ZM221.227 28.832" fill="#231f20"/>
<path d="M222.117 29.676C222.117 30.895 222.805 32.16 224.305 32.16 225.805 32.16 226.492 30.895 226.492 29.676 226.492 28.457 225.805 27.191 224.305 27.191 222.805 27.191 222.117 28.457 222.117 29.676ZM222.945 29.676C222.945 29.051 223.18 27.879 224.305 27.879 225.445 27.879 225.68 29.051 225.68 29.676 225.68 30.301 225.445 31.473 224.305 31.473 223.18 31.473 222.945 30.301 222.945 29.676ZM222.945 29.676" fill="#231f20"/>
<path d="M228.293 29.301C228.293 28.613 228.762 28.035 229.496 28.035H229.793V27.223C229.73 27.207 229.684 27.191 229.59 27.191 228.996 27.191 228.574 27.566 228.262 28.113H228.246V27.332H227.496V32.035H228.293ZM228.293 29.301" fill="#231f20"/>
<path d="M232.473 27.988V27.332H231.723V26.02H230.926V27.332H230.285V27.988H230.926V31.098C230.926 31.66 231.098 32.098 231.879 32.098 231.957 32.098 232.191 32.066 232.473 32.035V31.41H232.191C232.035 31.41 231.723 31.41 231.723 31.051V27.988ZM232.473 27.988" fill="#231f20"/>
<path d="M236.555 27.332H235.773V32.035H236.555ZM236.555 26.473V25.566H235.773V26.473ZM236.555 26.473" fill="#231f20"/>
<path d="M241.582 28.832C241.582 27.488 240.66 27.191 239.926 27.191 239.129 27.191 238.676 27.738 238.504 27.988H238.488V27.332H237.738V32.035H238.535V29.473C238.535 28.191 239.332 27.91 239.785 27.91 240.551 27.91 240.785 28.316 240.785 29.145V32.035H241.582ZM241.582 28.832" fill="#231f20"/>
<path d="M244.473 27.988V27.332H243.723V26.02H242.926V27.332H242.285V27.988H242.926V31.098C242.926 31.66 243.098 32.098 243.879 32.098 243.957 32.098 244.191 32.066 244.473 32.035V31.41H244.191C244.035 31.41 243.723 31.41 243.723 31.051V27.988ZM244.473 27.988" fill="#231f20"/>
<path d="M248.441 30.566C248.426 30.91 247.988 31.488 247.238 31.488 246.332 31.488 245.863 30.926 245.863 29.941H249.301C249.301 28.27 248.645 27.191 247.285 27.191 245.723 27.191 245.02 28.348 245.02 29.816 245.02 31.176 245.801 32.176 247.129 32.176 247.879 32.176 248.191 31.988 248.41 31.848 249.004 31.457 249.207 30.785 249.238 30.566ZM245.863 29.301C245.863 28.582 246.441 27.91 247.176 27.91 248.129 27.91 248.441 28.582 248.488 29.301ZM245.863 29.301" fill="#231f20"/>
<path d="M250.836 29.676C250.836 29.066 250.898 27.91 252.133 27.91 253.273 27.91 253.398 29.145 253.398 29.895 253.398 31.16 252.617 31.488 252.117 31.488 251.242 31.488 250.836 30.707 250.836 29.676ZM254.148 27.332H253.414V28.02C253.211 27.738 252.836 27.191 251.992 27.191 250.742 27.191 250.023 28.223 250.023 29.535 250.023 30.66 250.492 32.176 252.102 32.176 252.727 32.176 253.133 31.879 253.367 31.504V31.77C253.367 32.348 253.336 33.363 252.023 33.363 251.836 33.363 251.102 33.363 250.961 32.613H250.164C250.32 33.863 251.414 34.02 251.961 34.02 254.148 34.02 254.148 32.316 254.148 31.645ZM254.148 27.332" fill="#231f20"/>
<path d="M258.445 30.566C258.43 30.91 257.992 31.488 257.242 31.488 256.336 31.488 255.867 30.926 255.867 29.941H259.305C259.305 28.27 258.648 27.191 257.289 27.191 255.727 27.191 255.023 28.348 255.023 29.816 255.023 31.176 255.805 32.176 257.133 32.176 257.883 32.176 258.195 31.988 258.414 31.848 259.008 31.457 259.211 30.785 259.242 30.566ZM255.867 29.301C255.867 28.582 256.445 27.91 257.18 27.91 258.133 27.91 258.445 28.582 258.492 29.301ZM255.867 29.301" fill="#231f20"/>
<path d="M261.148 29.301C261.148 28.613 261.617 28.035 262.352 28.035H262.648V27.223C262.586 27.207 262.539 27.191 262.445 27.191 261.852 27.191 261.43 27.566 261.117 28.113H261.102V27.332H260.352V32.035H261.148ZM261.148 29.301" fill="#231f20"/>
<path d="M263 32.035H263.484C263.484 32.457 263.375 32.91 263 32.941V33.363C263.188 33.332 263.938 33.191 263.938 31.957V31.082H263ZM263 32.035" fill="#231f20"/>
<path d="M268.613 27.332H267.832V32.035H268.613ZM268.613 26.473V25.566H267.832V26.473ZM268.613 26.473" fill="#231f20"/>
<path d="M273.641 28.832C273.641 27.488 272.719 27.191 271.984 27.191 271.188 27.191 270.734 27.738 270.563 27.988H270.547V27.332H269.797V32.035H270.594V29.473C270.594 28.191 271.391 27.91 271.844 27.91 272.609 27.91 272.844 28.316 272.844 29.145V32.035H273.641ZM273.641 28.832" fill="#231f20"/>
<path d="M277.984 32.035V31.457H278C278.172 31.707 278.5 32.176 279.297 32.176 280.906 32.176 281.375 30.66 281.375 29.535 281.375 28.223 280.656 27.191 279.406 27.191 278.859 27.207 278.391 27.426 278.047 27.926H278.031V25.566H277.234V32.035ZM280.547 29.676C280.547 30.707 280.141 31.488 279.281 31.488 278.781 31.488 278 31.16 278 29.895 278 29.145 278.125 27.91 279.266 27.91 280.484 27.91 280.547 29.066 280.547 29.676ZM280.547 29.676" fill="#231f20"/>
<path d="M283.109 27.332H282.328V32.035H283.109ZM283.109 26.473V25.566H282.328V26.473ZM283.109 26.473" fill="#231f20"/>
<path d="M288.141 28.832C288.141 27.488 287.219 27.191 286.484 27.191 285.688 27.191 285.234 27.738 285.063 27.988H285.047V27.332H284.297V32.035H285.094V29.473C285.094 28.191 285.891 27.91 286.344 27.91 287.109 27.91 287.344 28.316 287.344 29.145V32.035H288.141ZM288.141 28.832" fill="#231f20"/>
<path d="M290 28.754C290.063 28.395 290.188 27.848 291.078 27.848 291.828 27.848 292.188 28.113 292.188 28.613 292.188 29.082 291.969 29.16 291.781 29.176L290.469 29.332C289.156 29.504 289.047 30.41 289.047 30.816 289.047 31.629 289.656 32.176 290.516 32.176 291.438 32.176 291.906 31.738 292.219 31.41 292.25 31.77 292.359 32.129 293.063 32.129 293.234 32.129 293.359 32.066 293.484 32.035V31.457C293.406 31.473 293.297 31.488 293.234 31.488 293.063 31.488 292.969 31.41 292.969 31.223V28.504C292.969 27.301 291.594 27.191 291.219 27.191 290.063 27.191 289.313 27.629 289.281 28.754ZM292.172 30.41C292.172 31.035 291.453 31.52 290.719 31.52 290.125 31.52 289.859 31.207 289.859 30.691 289.859 30.098 290.484 29.988 290.875 29.926 291.844 29.801 292.047 29.738 292.172 29.629ZM292.172 30.41" fill="#231f20"/>
<path d="M295.203 29.301C295.203 28.613 295.672 28.035 296.406 28.035H296.703V27.223C296.641 27.207 296.594 27.191 296.5 27.191 295.906 27.191 295.484 27.566 295.172 28.113H295.156V27.332H294.406V32.035H295.203ZM295.203 29.301" fill="#231f20"/>
<path d="M299.25 31.16H299.234L297.984 27.332H297.078L298.828 32.16C298.453 33.129 298.406 33.254 298 33.254 297.781 33.254 297.609 33.207 297.516 33.176V33.895C297.641 33.926 297.734 33.957 297.844 33.957 298.859 33.957 298.953 33.848 299.688 31.941 300.297 30.41 300.844 28.863 301.391 27.332H300.516ZM299.25 31.16" fill="#231f20"/>
<path d="M173.535 67.684H172.91C172.66 68.715 172.238 68.824 171.207 68.887V69.527H172.691V74.012H173.535ZM173.535 67.684" fill="#231f20"/>
<path d="M176.488 69.949C176.52 69.512 176.566 68.402 177.77 68.402 178.691 68.402 179.02 69.027 179.02 69.543 179.02 70.371 178.535 70.621 177.863 71.012L177.02 71.496C176.176 71.996 175.582 72.699 175.535 74.012H179.863V73.262H176.426C176.457 73.027 176.645 72.527 177.52 72.043L178.176 71.684C179.113 71.184 179.863 70.715 179.863 69.574 179.863 68.402 178.988 67.684 177.879 67.684 177.207 67.684 175.691 67.887 175.691 69.949ZM176.488 69.949" fill="#231f20"/>
<path d="M182.664 71.902C183.258 71.902 183.883 71.621 184.117 71.137L184.133 71.152C183.945 72.793 183.477 73.527 182.617 73.527 181.977 73.527 181.586 73.137 181.539 72.496H180.758C180.758 73.105 181.148 74.184 182.633 74.184 184.82 74.184 184.93 71.293 184.93 70.621 184.93 69.59 184.727 67.684 182.711 67.684 181.383 67.684 180.68 68.699 180.68 69.855 180.68 71.121 181.508 71.902 182.664 71.902ZM182.789 71.184C182.258 71.184 181.508 71.027 181.508 69.824 181.508 68.965 181.992 68.402 182.727 68.402 183.633 68.402 184.008 69.027 184.008 69.746 184.008 70.996 183.195 71.184 182.789 71.184ZM182.789 71.184" fill="#231f20"/>
<path d="M185.633 68.59H189.117C187.898 70.012 186.758 72.277 186.539 74.012H187.414C187.867 71.184 189.383 69.168 190.008 68.512V67.824H185.633ZM185.633 68.59" fill="#231f20"/>
<path d="M194.086 70.73C194.148 70.371 194.273 69.824 195.164 69.824 195.914 69.824 196.273 70.09 196.273 70.59 196.273 71.059 196.055 71.137 195.867 71.152L194.555 71.309C193.242 71.48 193.133 72.387 193.133 72.793 193.133 73.605 193.742 74.152 194.602 74.152 195.523 74.152 195.992 73.715 196.305 73.387 196.336 73.746 196.445 74.105 197.148 74.105 197.32 74.105 197.445 74.043 197.57 74.012V73.434C197.492 73.449 197.383 73.465 197.32 73.465 197.148 73.465 197.055 73.387 197.055 73.199V70.48C197.055 69.277 195.68 69.168 195.305 69.168 194.148 69.168 193.398 69.605 193.367 70.73ZM196.258 72.387C196.258 73.012 195.539 73.496 194.805 73.496 194.211 73.496 193.945 73.184 193.945 72.668 193.945 72.074 194.57 71.965 194.961 71.902 195.93 71.777 196.133 71.715 196.258 71.605ZM196.258 72.387" fill="#231f20"/>
<path d="M201.824 70.652C201.824 70.418 201.715 69.168 200.027 69.168 199.105 69.168 198.246 69.637 198.246 70.668 198.246 71.324 198.684 71.652 199.34 71.809L200.262 72.043C200.934 72.215 201.199 72.34 201.199 72.715 201.199 73.23 200.684 73.465 200.105 73.465 198.996 73.465 198.887 72.871 198.855 72.496H198.09C198.121 73.074 198.262 74.152 200.121 74.152 201.184 74.152 201.98 73.559 201.98 72.59 201.98 71.949 201.637 71.59 200.668 71.355L199.871 71.152C199.262 70.996 199.012 70.902 199.012 70.527 199.012 69.934 199.715 69.855 199.949 69.855 200.949 69.855 201.059 70.355 201.074 70.652ZM201.824 70.652" fill="#231f20"/>
<path d="M206.086 70.73C206.148 70.371 206.273 69.824 207.164 69.824 207.914 69.824 208.273 70.09 208.273 70.59 208.273 71.059 208.055 71.137 207.867 71.152L206.555 71.309C205.242 71.48 205.133 72.387 205.133 72.793 205.133 73.605 205.742 74.152 206.602 74.152 207.523 74.152 207.992 73.715 208.305 73.387 208.336 73.746 208.445 74.105 209.148 74.105 209.32 74.105 209.445 74.043 209.57 74.012V73.434C209.492 73.449 209.383 73.465 209.32 73.465 209.148 73.465 209.055 73.387 209.055 73.199V70.48C209.055 69.277 207.68 69.168 207.305 69.168 206.148 69.168 205.398 69.605 205.367 70.73ZM208.258 72.387C208.258 73.012 207.539 73.496 206.805 73.496 206.211 73.496 205.945 73.184 205.945 72.668 205.945 72.074 206.57 71.965 206.961 71.902 207.93 71.777 208.133 71.715 208.258 71.605ZM208.258 72.387" fill="#231f20"/>
<path d="M216.324 70.652C216.324 70.418 216.215 69.168 214.527 69.168 213.605 69.168 212.746 69.637 212.746 70.668 212.746 71.324 213.184 71.652 213.84 71.809L214.762 72.043C215.434 72.215 215.699 72.34 215.699 72.715 215.699 73.23 215.184 73.465 214.605 73.465 213.496 73.465 213.387 72.871 213.355 72.496H212.59C212.621 73.074 212.762 74.152 214.621 74.152 215.684 74.152 216.48 73.559 216.48 72.59 216.48 71.949 216.137 71.59 215.168 71.355L214.371 71.152C213.762 70.996 213.512 70.902 213.512 70.527 213.512 69.934 214.215 69.855 214.449 69.855 215.449 69.855 215.559 70.355 215.574 70.652ZM216.324 70.652" fill="#231f20"/>
<path d="M221.227 70.809C221.227 69.465 220.305 69.168 219.57 69.168 218.82 69.168 218.43 69.637 218.195 69.934H218.18V67.543H217.383V74.012H218.18V71.449C218.18 70.262 218.852 69.887 219.492 69.887 220.258 69.887 220.43 70.293 220.43 70.934V74.012H221.227ZM221.227 70.809" fill="#231f20"/>
<path d="M222.117 71.652C222.117 72.871 222.805 74.137 224.305 74.137 225.805 74.137 226.492 72.871 226.492 71.652 226.492 70.434 225.805 69.168 224.305 69.168 222.805 69.168 222.117 70.434 222.117 71.652ZM222.945 71.652C222.945 71.027 223.18 69.855 224.305 69.855 225.445 69.855 225.68 71.027 225.68 71.652 225.68 72.277 225.445 73.449 224.305 73.449 223.18 73.449 222.945 72.277 222.945 71.652ZM222.945 71.652" fill="#231f20"/>
<path d="M228.293 71.277C228.293 70.59 228.762 70.012 229.496 70.012H229.793V69.199C229.73 69.184 229.684 69.168 229.59 69.168 228.996 69.168 228.574 69.543 228.262 70.09H228.246V69.309H227.496V74.012H228.293ZM228.293 71.277" fill="#231f20"/>
<path d="M232.473 69.965V69.309H231.723V67.996H230.926V69.309H230.285V69.965H230.926V73.074C230.926 73.637 231.098 74.074 231.879 74.074 231.957 74.074 232.191 74.043 232.473 74.012V73.387H232.191C232.035 73.387 231.723 73.387 231.723 73.027V69.965ZM232.473 69.965" fill="#231f20"/>
<path d="M236.555 69.309H235.773V74.012H236.555ZM236.555 68.449V67.543H235.773V68.449ZM236.555 68.449" fill="#231f20"/>
<path d="M241.582 70.809C241.582 69.465 240.66 69.168 239.926 69.168 239.129 69.168 238.676 69.715 238.504 69.965H238.488V69.309H237.738V74.012H238.535V71.449C238.535 70.168 239.332 69.887 239.785 69.887 240.551 69.887 240.785 70.293 240.785 71.121V74.012H241.582ZM241.582 70.809" fill="#231f20"/>
<path d="M244.473 69.965V69.309H243.723V67.996H242.926V69.309H242.285V69.965H242.926V73.074C242.926 73.637 243.098 74.074 243.879 74.074 243.957 74.074 244.191 74.043 244.473 74.012V73.387H244.191C244.035 73.387 243.723 73.387 243.723 73.027V69.965ZM244.473 69.965" fill="#231f20"/>
<path d="M248.441 72.543C248.426 72.887 247.988 73.465 247.238 73.465 246.332 73.465 245.863 72.902 245.863 71.918H249.301C249.301 70.246 248.645 69.168 247.285 69.168 245.723 69.168 245.02 70.324 245.02 71.793 245.02 73.152 245.801 74.152 247.129 74.152 247.879 74.152 248.191 73.965 248.41 73.824 249.004 73.434 249.207 72.762 249.238 72.543ZM245.863 71.277C245.863 70.559 246.441 69.887 247.176 69.887 248.129 69.887 248.441 70.559 248.488 71.277ZM245.863 71.277" fill="#231f20"/>
<path d="M250.836 71.652C250.836 71.043 250.898 69.887 252.133 69.887 253.273 69.887 253.398 71.121 253.398 71.871 253.398 73.137 252.617 73.465 252.117 73.465 251.242 73.465 250.836 72.684 250.836 71.652ZM254.148 69.309H253.414V69.996C253.211 69.715 252.836 69.168 251.992 69.168 250.742 69.168 250.023 70.199 250.023 71.512 250.023 72.637 250.492 74.152 252.102 74.152 252.727 74.152 253.133 73.855 253.367 73.48V73.746C253.367 74.324 253.336 75.34 252.023 75.34 251.836 75.34 251.102 75.34 250.961 74.59H250.164C250.32 75.84 251.414 75.996 251.961 75.996 254.148 75.996 254.148 74.293 254.148 73.621ZM254.148 69.309" fill="#231f20"/>
<path d="M258.445 72.543C258.43 72.887 257.992 73.465 257.242 73.465 256.336 73.465 255.867 72.902 255.867 71.918H259.305C259.305 70.246 258.648 69.168 257.289 69.168 255.727 69.168 255.023 70.324 255.023 71.793 255.023 73.152 255.805 74.152 257.133 74.152 257.883 74.152 258.195 73.965 258.414 73.824 259.008 73.434 259.211 72.762 259.242 72.543ZM255.867 71.277C255.867 70.559 256.445 69.887 257.18 69.887 258.133 69.887 258.445 70.559 258.492 71.277ZM255.867 71.277" fill="#231f20"/>
<path d="M261.148 71.277C261.148 70.59 261.617 70.012 262.352 70.012H262.648V69.199C262.586 69.184 262.539 69.168 262.445 69.168 261.852 69.168 261.43 69.543 261.117 70.09H261.102V69.309H260.352V74.012H261.148ZM261.148 71.277" fill="#231f20"/>
<path d="M263 74.012H263.484C263.484 74.434 263.375 74.887 263 74.918V75.34C263.188 75.309 263.938 75.168 263.938 73.934V73.059H263ZM263 74.012" fill="#231f20"/>
<path d="M268.613 69.309H267.832V74.012H268.613ZM268.613 68.449V67.543H267.832V68.449ZM268.613 68.449" fill="#231f20"/>
<path d="M273.641 70.809C273.641 69.465 272.719 69.168 271.984 69.168 271.188 69.168 270.734 69.715 270.563 69.965H270.547V69.309H269.797V74.012H270.594V71.449C270.594 70.168 271.391 69.887 271.844 69.887 272.609 69.887 272.844 70.293 272.844 71.121V74.012H273.641ZM273.641 70.809" fill="#231f20"/>
<path d="M281.141 70.809C281.141 69.465 280.219 69.168 279.484 69.168 278.734 69.168 278.344 69.637 278.109 69.934H278.094V67.543H277.297V74.012H278.094V71.449C278.094 70.262 278.766 69.887 279.406 69.887 280.172 69.887 280.344 70.293 280.344 70.934V74.012H281.141ZM281.141 70.809" fill="#231f20"/>
<path d="M285.5 72.543C285.484 72.887 285.047 73.465 284.297 73.465 283.391 73.465 282.922 72.902 282.922 71.918H286.359C286.359 70.246 285.703 69.168 284.344 69.168 282.781 69.168 282.078 70.324 282.078 71.793 282.078 73.152 282.859 74.152 284.188 74.152 284.938 74.152 285.25 73.965 285.469 73.824 286.063 73.434 286.266 72.762 286.297 72.543ZM282.922 71.277C282.922 70.559 283.5 69.887 284.234 69.887 285.188 69.887 285.5 70.559 285.547 71.277ZM282.922 71.277" fill="#231f20"/>
<path d="M289.203 71.59 290.797 69.309H289.828L288.734 70.965 287.656 69.309H286.641L288.203 71.59 286.547 74.012H287.547L288.688 72.246 289.859 74.012H290.859ZM289.203 71.59" fill="#231f20"/>
<path d="M292.23 70.73C292.293 70.371 292.418 69.824 293.309 69.824 294.059 69.824 294.418 70.09 294.418 70.59 294.418 71.059 294.199 71.137 294.012 71.152L292.699 71.309C291.387 71.48 291.277 72.387 291.277 72.793 291.277 73.605 291.887 74.152 292.746 74.152 293.668 74.152 294.137 73.715 294.449 73.387 294.48 73.746 294.59 74.105 295.293 74.105 295.465 74.105 295.59 74.043 295.715 74.012V73.434C295.637 73.449 295.527 73.465 295.465 73.465 295.293 73.465 295.199 73.387 295.199 73.199V70.48C295.199 69.277 293.824 69.168 293.449 69.168 292.293 69.168 291.543 69.605 291.512 70.73ZM294.402 72.387C294.402 73.012 293.684 73.496 292.949 73.496 292.355 73.496 292.09 73.184 292.09 72.668 292.09 72.074 292.715 71.965 293.105 71.902 294.074 71.777 294.277 71.715 294.402 71.605ZM294.402 72.387" fill="#231f20"/>
<path d="M300.434 67.543H299.652V69.965H299.637C299.434 69.699 299.074 69.168 298.23 69.168 296.98 69.168 296.262 70.199 296.262 71.512 296.262 72.637 296.73 74.152 298.34 74.152 298.793 74.152 299.34 73.996 299.668 73.371H299.699V74.012H300.434ZM297.09 71.652C297.09 71.043 297.152 69.887 298.371 69.887 299.512 69.887 299.637 71.121 299.637 71.871 299.637 73.137 298.855 73.465 298.355 73.465 297.48 73.465 297.09 72.684 297.09 71.652ZM297.09 71.652" fill="#231f20"/>
<path d="M304.734 72.543C304.719 72.887 304.281 73.465 303.531 73.465 302.625 73.465 302.156 72.902 302.156 71.918H305.594C305.594 70.246 304.938 69.168 303.578 69.168 302.016 69.168 301.313 70.324 301.313 71.793 301.313 73.152 302.094 74.152 303.422 74.152 304.172 74.152 304.484 73.965 304.703 73.824 305.297 73.434 305.5 72.762 305.531 72.543ZM302.156 71.277C302.156 70.559 302.734 69.887 303.469 69.887 304.422 69.887 304.734 70.559 304.781 71.277ZM302.156 71.277" fill="#231f20"/>
<path d="M310.25 70.887C310.188 70.074 309.719 69.168 308.484 69.168 306.922 69.168 306.219 70.324 306.219 71.793 306.219 73.152 307 74.152 308.328 74.152 309.703 74.152 310.172 73.09 310.25 72.34H309.484C309.344 73.074 308.891 73.465 308.359 73.465 307.266 73.465 307.063 72.465 307.063 71.652 307.063 70.824 307.391 69.887 308.359 69.887 309.031 69.887 309.375 70.262 309.484 70.887ZM310.25 70.887" fill="#231f20"/>
<path d="M311.84 69.309H311.059V74.012H311.84ZM311.84 68.449V67.543H311.059V68.449ZM311.84 68.449" fill="#231f20"/>
<path d="M313.023 74.012H313.82V71.449C313.82 70.168 314.617 69.887 315.07 69.887 315.648 69.887 315.805 70.355 315.805 70.746V74.012H316.602V71.137C316.602 70.512 317.039 69.887 317.695 69.887 318.383 69.887 318.57 70.324 318.57 70.965V74.012H319.367V70.746C319.367 69.434 318.414 69.168 317.914 69.168 317.18 69.168 316.867 69.496 316.461 69.934 316.336 69.684 316.07 69.168 315.211 69.168 314.367 69.168 313.961 69.715 313.789 69.965H313.773V69.309H313.023ZM313.023 74.012" fill="#231f20"/>
<path d="M321.223 70.73C321.285 70.371 321.41 69.824 322.301 69.824 323.051 69.824 323.41 70.09 323.41 70.59 323.41 71.059 323.191 71.137 323.004 71.152L321.691 71.309C320.379 71.48 320.27 72.387 320.27 72.793 320.27 73.605 320.879 74.152 321.738 74.152 322.66 74.152 323.129 73.715 323.441 73.387 323.473 73.746 323.582 74.105 324.285 74.105 324.457 74.105 324.582 74.043 324.707 74.012V73.434C324.629 73.449 324.52 73.465 324.457 73.465 324.285 73.465 324.191 73.387 324.191 73.199V70.48C324.191 69.277 322.816 69.168 322.441 69.168 321.285 69.168 320.535 69.605 320.504 70.73ZM323.395 72.387C323.395 73.012 322.676 73.496 321.941 73.496 321.348 73.496 321.082 73.184 321.082 72.668 321.082 72.074 321.707 71.965 322.098 71.902 323.066 71.777 323.27 71.715 323.395 71.605ZM323.395 72.387" fill="#231f20"/>
<path d="M325.551 67.543H326.332V74.012H325.551Z" fill="#231f20"/>
<path d="M216.992 39.746H265.64V56.402H216.992Z" fill="#ffffff"/>
<path stroke-width=".999" stroke-linecap="butt" stroke-miterlimit="4" stroke-linejoin="miter" fill="none" stroke="#231f20" d="M216.992 39.746H265.637V56.402H216.992Z"/>
<path d="M225.137 48.277C225.137 49.855 224.715 50.809 223.809 50.809 222.902 50.809 222.48 49.855 222.48 48.277 222.48 46.699 222.902 45.746 223.809 45.746 224.715 45.746 225.137 46.699 225.137 48.277ZM225.98 48.277C225.98 46.965 225.621 45.027 223.809 45.027 221.996 45.027 221.637 46.965 221.637 48.277 221.637 49.59 221.996 51.527 223.809 51.527 225.621 51.527 225.98 49.59 225.98 48.277ZM225.98 48.277" fill="#231f20"/>
<path d="M230.137 48.277C230.137 49.855 229.715 50.809 228.809 50.809 227.902 50.809 227.48 49.855 227.48 48.277 227.48 46.699 227.902 45.746 228.809 45.746 229.715 45.746 230.137 46.699 230.137 48.277ZM230.98 48.277C230.98 46.965 230.621 45.027 228.809 45.027 226.996 45.027 226.637 46.965 226.637 48.277 226.637 49.59 226.996 51.527 228.809 51.527 230.621 51.527 230.98 49.59 230.98 48.277ZM230.98 48.277" fill="#231f20"/>
<path d="M235.137 48.277C235.137 49.855 234.715 50.809 233.809 50.809 232.902 50.809 232.48 49.855 232.48 48.277 232.48 46.699 232.902 45.746 233.809 45.746 234.715 45.746 235.137 46.699 235.137 48.277ZM235.98 48.277C235.98 46.965 235.621 45.027 233.809 45.027 231.996 45.027 231.637 46.965 231.637 48.277 231.637 49.59 231.996 51.527 233.809 51.527 235.621 51.527 235.98 49.59 235.98 48.277ZM235.98 48.277" fill="#231f20"/>
<path d="M239.547 45.027H238.922C238.672 46.059 238.25 46.168 237.219 46.23V46.871H238.703V51.355H239.547ZM239.547 45.027" fill="#231f20"/>
<path d="M245.141 48.277C245.141 49.855 244.719 50.809 243.813 50.809 242.906 50.809 242.484 49.855 242.484 48.277 242.484 46.699 242.906 45.746 243.813 45.746 244.719 45.746 245.141 46.699 245.141 48.277ZM245.984 48.277C245.984 46.965 245.625 45.027 243.813 45.027 242 45.027 241.641 46.965 241.641 48.277 241.641 49.59 242 51.527 243.813 51.527 245.625 51.527 245.984 49.59 245.984 48.277ZM245.984 48.277" fill="#231f20"/>
<path d="M250.141 48.277C250.141 49.855 249.719 50.809 248.813 50.809 247.906 50.809 247.484 49.855 247.484 48.277 247.484 46.699 247.906 45.746 248.813 45.746 249.719 45.746 250.141 46.699 250.141 48.277ZM250.984 48.277C250.984 46.965 250.625 45.027 248.813 45.027 247 45.027 246.641 46.965 246.641 48.277 246.641 49.59 247 51.527 248.813 51.527 250.625 51.527 250.984 49.59 250.984 48.277ZM250.984 48.277" fill="#231f20"/>
<path d="M255.145 48.277C255.145 49.855 254.723 50.809 253.816 50.809 252.91 50.809 252.488 49.855 252.488 48.277 252.488 46.699 252.91 45.746 253.816 45.746 254.723 45.746 255.145 46.699 255.145 48.277ZM255.988 48.277C255.988 46.965 255.629 45.027 253.816 45.027 252.004 45.027 251.645 46.965 251.645 48.277 251.645 49.59 252.004 51.527 253.816 51.527 255.629 51.527 255.988 49.59 255.988 48.277ZM255.988 48.277" fill="#231f20"/>
<path d="M259.551 45.027H258.926C258.676 46.059 258.254 46.168 257.223 46.23V46.871H258.707V51.355H259.551ZM259.551 45.027" fill="#231f20"/>
<path d="M168.344 80.34H216.99199V96.995998H168.344Z" fill="#ffffff"/>
<path stroke-width=".999" stroke-linecap="butt" stroke-miterlimit="4" stroke-linejoin="miter" fill="none" stroke="#231f20" d="M168.344 80.34H216.99199V96.995998H168.344Z"/>
<path d="M190.617 88.871C190.617 90.449 190.195 91.402 189.289 91.402 188.383 91.402 187.961 90.449 187.961 88.871 187.961 87.293 188.383 86.34 189.289 86.34 190.195 86.34 190.617 87.293 190.617 88.871ZM191.461 88.871C191.461 87.559 191.102 85.621 189.289 85.621 187.477 85.621 187.117 87.559 187.117 88.871 187.117 90.184 187.477 92.121 189.289 92.121 191.102 92.121 191.461 90.184 191.461 88.871ZM191.461 88.871" fill="#231f20"/>
<path d="M193.383 86.527H196.07V85.762H192.789L192.305 89.152 192.992 89.184C193.289 88.793 193.711 88.59 194.164 88.59 194.945 88.59 195.57 89.074 195.57 89.98 195.57 90.777 195.055 91.434 194.242 91.434 193.523 91.434 192.977 91.105 192.898 90.371H192.07C192.227 91.793 193.289 92.121 194.117 92.121 196.102 92.121 196.414 90.605 196.414 89.902 196.414 88.59 195.367 87.871 194.336 87.871 193.773 87.871 193.383 88.059 193.117 88.262ZM193.383 86.527" fill="#231f20"/>
<path d="M216.992 80.34H265.64V96.995998H216.992Z" fill="#ffffff"/>
<path stroke-width=".999" stroke-linecap="butt" stroke-miterlimit="4" stroke-linejoin="miter" fill="none" stroke="#231f20" d="M216.992 80.34H265.637V96.995998H216.992Z"/>
<path d="M239.547 85.621H238.922C238.672 86.652 238.25 86.762 237.219 86.824V87.465H238.703V91.949H239.547ZM239.547 85.621" fill="#231f20"/>
<path d="M244.547 85.621H243.922C243.672 86.652 243.25 86.762 242.219 86.824V87.465H243.703V91.949H244.547ZM244.547 85.621" fill="#231f20"/>
<use data-text="T" xlink:href="#font_5_1" transform="matrix(9.99998,0,0,-9.99998,-.0871702,7.280259)"/>
<use data-text="e" xlink:href="#font_5_2" transform="matrix(9.99998,0,0,-9.99998,4.91282,7.280259)"/>
<use data-text="x" xlink:href="#font_5_3" transform="matrix(9.99998,0,0,-9.99998,10.472809,7.280259)"/>
<use data-text="t" xlink:href="#font_5_4" transform="matrix(9.99998,0,0,-9.99998,15.472799,7.280259)"/>
<use data-text=" " xlink:href="#font_5_5" transform="matrix(9.99998,0,0,-9.99998,18.252795,7.280259)"/>
<use data-text="f" xlink:href="#font_5_6" transform="matrix(9.99998,0,0,-9.99998,21.03279,7.280259)"/>
<use data-text="i" xlink:href="#font_5_7" transform="matrix(9.99998,0,0,-9.99998,23.812785,7.280259)"/>
<use data-text="l" xlink:href="#font_5_8" transform="matrix(9.99998,0,0,-9.99998,26.03278,7.280259)"/>
<use data-text="e" xlink:href="#font_5_2" transform="matrix(9.99998,0,0,-9.99998,28.252776,7.280259)"/>
<use data-text="T" xlink:href="#font_5_1" transform="matrix(9.99998,0,0,-9.99998,-.08716965,7.280259)"/>
<use data-text="e" xlink:href="#font_5_2" transform="matrix(9.99998,0,0,-9.99998,4.9128205,7.280259)"/>
<use data-text="x" xlink:href="#font_5_3" transform="matrix(9.99998,0,0,-9.99998,10.47281,7.280259)"/>
<use data-text="t" xlink:href="#font_5_4" transform="matrix(9.99998,0,0,-9.99998,15.472799,7.280259)"/>
<use data-text=" " xlink:href="#font_5_5" transform="matrix(9.99998,0,0,-9.99998,18.252795,7.280259)"/>
<use data-text="f" xlink:href="#font_5_6" transform="matrix(9.99998,0,0,-9.99998,21.03279,7.280259)"/>
<use data-text="i" xlink:href="#font_5_7" transform="matrix(9.99998,0,0,-9.99998,23.812785,7.280259)"/>
<use data-text="l" xlink:href="#font_5_8" transform="matrix(9.99998,0,0,-9.99998,26.03278,7.280259)"/>
<use data-text="e" xlink:href="#font_5_2" transform="matrix(9.99998,0,0,-9.99998,28.252776,7.280259)"/>
<use data-text="B" xlink:href="#font_5_9" transform="matrix(9.99998,0,0,-9.99998,168.4625,7.280259)"/>
<use data-text="i" xlink:href="#font_5_7" transform="matrix(9.99998,0,0,-9.99998,175.13248,7.280259)"/>
<use data-text="n" xlink:href="#font_5_10" transform="matrix(9.99998,0,0,-9.99998,177.35248,7.280259)"/>
<use data-text="a" xlink:href="#font_5_11" transform="matrix(9.99998,0,0,-9.99998,182.91246,7.280259)"/>
<use data-text="r" xlink:href="#font_5_12" transform="matrix(9.99998,0,0,-9.99998,188.47245,7.280259)"/>
<use data-text="y" xlink:href="#font_5_13" transform="matrix(9.99998,0,0,-9.99998,191.80243,7.280259)"/>
<use data-text=" " xlink:href="#font_5_5" transform="matrix(9.99998,0,0,-9.99998,196.80242,7.280259)"/>
<use data-text="f" xlink:href="#font_5_6" transform="matrix(9.99998,0,0,-9.99998,199.58242,7.280259)"/>
<use data-text="i" xlink:href="#font_5_7" transform="matrix(9.99998,0,0,-9.99998,202.36241,7.280259)"/>
<use data-text="l" xlink:href="#font_5_8" transform="matrix(9.99998,0,0,-9.99998,204.58242,7.280259)"/>
<use data-text="e" xlink:href="#font_5_2" transform="matrix(9.99998,0,0,-9.99998,206.80242,7.280259)"/>
</g>
</svg>
