<svg xmlns="http://www.w3.org/2000/svg" xmlns:xlink="http://www.w3.org/1999/xlink" xmlns:inkscape="http://www.inkscape.org/namespaces/inkscape" version="1.1" width="366.02708" height="112.22956" viewBox="0 0 366.02708 112.22956">
<defs>
<clipPath id="clip_1">
<path d="M340.289 66.473H366.027V84.309H340.289Z"/>
</clipPath>
<clipPath id="clip_2">
<path d="M0 0H367V113H0Z"/>
</clipPath>
<path id="font_3_1" d="M.20214844 0 .012207031 .7158203H.109375L.21826172 .24658203C.22998047 .19742839 .24007161 .14860027 .24853516 .100097659 .2667643 .17659505 .2775065 .22070313 .28076173 .23242188L.4169922 .7158203H.53125L.63378909 .35351563C.6595052 .26367188 .6780599 .17919922 .6894531 .100097659 .6985677 .14534505 .7104492 .19726563 .72509768 .25585938L.83740237 .7158203H.9326172L.7363281 0H.64501956L.49414063 .54541018C.4814453 .5909831 .47395835 .61897787 .4716797 .62939456 .46419273 .5965169 .457194 .56852218 .4506836 .54541018L.29882813 0H.20214844Z"/>
<path id="font_3_2" d="M.064941409 0V.5185547H.14404297V.4404297C.16422527 .4770101 .18286133 .50112918 .19995117 .51278689 .21704102 .5244446 .23583985 .53027346 .25634767 .53027346 .28597007 .53027346 .31608073 .520874 .3466797 .5020752L.31640626 .42089845C.29492188 .43359376 .2734375 .4399414 .25195313 .4399414 .23274739 .4399414 .2154948 .43415324 .20019531 .4225769 .18489583 .41101075 .17399089 .3949636 .16748047 .37443543 .15771485 .3431549 .15283203 .3089396 .15283203 .27178956V0H.064941409Z"/>
<path id="font_3_3" d="M.06640625 .6142578V.7158203H.15429688V.6142578H.06640625M.06640625 0V.5185547H.15429688V0H.06640625Z"/>
<path id="font_3_4" d="M.2578125 .07763672 .2705078 0C.24576824-.0045572917 .22363281-.0068359377 .20410156-.0068359377 .17220052-.0068359377 .14746094-.0017903646 .12988281 .008300781 .11230469 .018391928 .0999349 .031656904 .09277344 .048095704 .08561198 .06453451 .08203125 .099121097 .08203125 .15185547V.4501953H.017578125V.5185547H.08203125V.6473236L.1694336 .7001953V.5185547H.2578125V.4501953H.1694336V.14697266C.1694336 .121907558 .17097982 .10579427 .17407227 .09863281 .17716472 .09147135 .18221028 .08577474 .18920899 .08154297 .19620769 .077311199 .20621746 .07519531 .21923828 .07519531 .2290039 .07519531 .24186199 .07600912 .2578125 .07763672Z"/>
<path id="font_3_5" d="M.06591797 0V.5185547H.14501953V.4453125C.18310547 .5019531 .23811849 .53027346 .3100586 .53027346 .3413086 .53027346 .3700358 .5246582 .39624024 .51342776 .42244468 .50219729 .44205729 .48746745 .45507813 .46923829 .46809898 .45100913 .47721354 .42936198 .48242188 .40429688 .4856771 .38802085 .4873047 .35953776 .4873047 .31884767V0H.39941407V.31576539C.39941407 .35161338 .3959961 .37841798 .38916017 .3961792 .38232423 .41394044 .37019859 .42811585 .3527832 .43870545 .33536784 .44929505 .3149414 .45458985 .2915039 .45458985 .254069 .45458985 .22176107 .44269309 .19458008 .41889955 .1673991 .39511619 .1538086 .34998576 .1538086 .2835083V0H.06591797Z"/>
<path id="font_3_6" d="M.049804689-.04296875 .1352539-.055664064C.13883464-.08203125 .14876302-.10123698 .16503906-.11328125 .18684896-.1295573 .21663411-.13769531 .25439454-.13769531 .29508464-.13769531 .3264974-.12953694 .3486328-.113220218 .37076823-.09691366 .3857422-.07407633 .3935547-.044708253 .39811198-.026774088 .40022788 .010904948 .39990235 .06832886 .36149089 .022776286 .3136393 0 .25634767 0 .1850586 0 .12988281 .025716147 .09082031 .07714844 .051757814 .12858074 .032226564 .19026692 .032226564 .26220704 .032226564 .3116862 .041178388 .35734049 .05908203 .39916993 .07698568 .44099937 .10294596 .47330729 .13696289 .49609376 .17097982 .5188802 .2109375 .53027346 .25683595 .53027346 .31803385 .53027346 .3684896 .5053711 .40820313 .4555664V.5185547H.4892578V.070007327C.4892578-.010772705 .48103843-.06801859 .4645996-.10173035 .4481608-.1354421 .42211915-.16206868 .3864746-.1816101 .35083009-.2011617 .30696617-.2109375 .2548828-.2109375 .19303386-.2109375 .1430664-.19698079 .10498047-.16906739 .06689453-.14115398 .048502607-.099121097 .049804689-.04296875M.122558597 .26853944C.122558597 .20067851 .1360677 .15116374 .16308594 .11999512 .19010417 .0888265 .22395833 .07324219 .26464845 .07324219 .30501304 .07324219 .3388672 .08874512 .36621095 .11975098 .3935547 .15075684 .40722657 .19938152 .40722657 .265625 .40722657 .3289388 .3931478 .3766683 .36499024 .40881349 .33683268 .44095866 .30289714 .45703126 .2631836 .45703126 .2241211 .45703126 .19091797 .4412028 .16357422 .4095459 .13623047 .377889 .122558597 .33088685 .122558597 .26853944Z"/>
<path id="font_3_7" d="M-.0014648438 0 .2734375 .7158203H.37548829L.66845706 0H.5605469L.47705079 .21582031H.17773438L.099121097 0H-.0014648438M.20507813 .2939453H.4477539L.37304688 .4921875C.3502604 .5524089 .33333335 .601888 .32226563 .640625 .31315104 .59472659 .30029298 .5491536 .2836914 .50390627L.20507813 .2939453Z"/>
<path id="font_3_8" d="M.06591797-.19921875V.5185547H.1459961V.45166017C.1648763 .4778646 .18619792 .4975179 .20996094 .5106201 .23372396 .52372238 .26253257 .53027346 .29638673 .53027346 .34065757 .53027346 .37972007 .5188802 .41357423 .49609376 .44742839 .47330729 .47298179 .4411621 .49023438 .3996582 .507487 .3581543 .5161133 .31266276 .5161133 .2631836 .5161133 .2101237 .5065918 .16235352 .48754884 .11987305 .46850587 .07739258 .44083659 .044840497 .40454103 .022216797 .36824546-.00040690104 .33007813-.01171875 .29003907-.01171875 .2607422-.01171875 .23445638-.005452474 .21118164 .007080078 .1879069 .019622803 .16878255 .035461427 .1538086 .054595949V-.19921875H.06591797M.14550781 .25708009C.14550781 .19042969 .15901692 .14117432 .18603516 .109313968 .21305339 .07745361 .24576824 .061523439 .2841797 .061523439 .3232422 .061523439 .35668946 .07802328 .38452149 .11102295 .41235353 .14402263 .42626954 .19514974 .42626954 .2644043 .42626954 .33040367 .41267906 .37982179 .38549806 .4126587 .35831706 .4454956 .32584635 .46191407 .28808595 .46191407 .25065104 .46191407 .2175293 .44443766 .1887207 .40948487 .15991211 .37453208 .14550781 .32373048 .14550781 .25708009Z"/>
<path id="font_3_9" d="M.42089845 .16699219 .51171877 .15576172C.49739585 .10270182 .47086589 .061523439 .4321289 .032226564 .39339195 .0029296876 .34391276-.01171875 .2836914-.01171875 .20784505-.01171875 .14770508 .01163737 .103271488 .05834961 .05883789 .10506185 .036621095 .17057292 .036621095 .2548828 .036621095 .3421224 .05908203 .40983073 .104003909 .4580078 .14892578 .5061849 .20719402 .53027346 .2788086 .53027346 .34814454 .53027346 .40478517 .5067088 .44873048 .45957948 .49267579 .41246034 .51464846 .34616599 .51464846 .2606964 .51464846 .25549827 .51448568 .247701 .51416018 .23730469H.1274414C.13069661 .1805013 .14680989 .13700359 .17578125 .10681152 .20475261 .07661947 .24088542 .061523439 .2841797 .061523439 .31640626 .061523439 .34391276 .0699056 .36669923 .08666992 .3894857 .10344442 .4075521 .1302185 .42089845 .16699219M.13232422 .31054688H.421875C.41796876 .3534546 .40690104 .38563539 .38867188 .40708924 .3606771 .4403839 .3243815 .45703126 .27978517 .45703126 .23942058 .45703126 .20548503 .44374085 .17797852 .41716004 .150472 .3905894 .1352539 .35505168 .13232422 .31054688Z"/>
<path id="font_3_10" d="M.40234376 0V.06542969C.36946617 .0139973959 .3211263-.01171875 .25732423-.01171875 .21598308-.01171875 .17797852-.00032552085 .14331055 .022460938 .10864258 .045247396 .08178711 .077067058 .06274414 .11791992 .043701173 .15877278 .034179689 .20572917 .034179689 .25878907 .034179689 .31054688 .04280599 .35750328 .060058595 .3996582 .077311199 .44181315 .1031901 .4741211 .13769531 .49658204 .17220052 .51904299 .21077474 .53027346 .25341798 .53027346 .28466798 .53027346 .3125 .52368167 .33691407 .51049807 .36132813 .49731446 .3811849 .48014323 .39648438 .45898438V.7158203H.48388673V0H.40234376M.12451172 .2590332C.12451172 .1928711 .13850911 .14341228 .1665039 .11065674 .1944987 .07790121 .22753906 .061523439 .265625 .061523439 .30403648 .061523439 .33666993 .077168788 .3635254 .10845947 .39038087 .13976033 .4038086 .18752034 .4038086 .2517395 .4038086 .32243858 .39013673 .3743286 .36279298 .40740968 .33544923 .44049073 .3017578 .45703126 .26171876 .45703126 .22265625 .45703126 .19002278 .4411367 .16381836 .40934754 .13761394 .37756858 .12451172 .32746379 .12451172 .2590332Z"/>
</defs>
<g>
<path d="M.5 16.961H24.824V33.617H.5Z" fill="#ffffff"/>
<path stroke-width=".999" stroke-linecap="butt" stroke-miterlimit="4" stroke-linejoin="miter" fill="none" stroke="#231f20" d="M.5 16.961H24.824V33.617H.5Z"/>
<path d="M11.363 26.488V27.129C11.363 27.723 11.691 28.738 13.191 28.738 14.066 28.738 15.066 28.332 15.066 26.816V22.098H14.191V26.879C14.191 27.504 13.957 27.988 13.145 27.988 12.551 27.988 12.176 27.707 12.176 26.941V26.488ZM11.363 26.488" fill="#231f20"/>
<path d="M24.824 16.961H49.148V33.617H24.824Z" fill="#ffffff"/>
<path stroke-width=".999" stroke-linecap="butt" stroke-miterlimit="4" stroke-linejoin="miter" fill="none" stroke="#231f20" d="M24.824 16.961H49.148V33.617H24.824Z"/>
<path d="M35.59 26.207C35.59 27.426 36.277 28.691 37.777 28.691 39.277 28.691 39.965 27.426 39.965 26.207 39.965 24.988 39.277 23.723 37.777 23.723 36.277 23.723 35.59 24.988 35.59 26.207ZM36.418 26.207C36.418 25.582 36.652 24.41 37.777 24.41 38.918 24.41 39.152 25.582 39.152 26.207 39.152 26.832 38.918 28.004 37.777 28.004 36.652 28.004 36.418 26.832 36.418 26.207ZM36.418 26.207" fill="#231f20"/>
<path d="M49.148 16.961H73.472V33.617H49.148Z" fill="#ffffff"/>
<path stroke-width=".999" stroke-linecap="butt" stroke-miterlimit="4" stroke-linejoin="miter" fill="none" stroke="#231f20" d="M49.148 16.961H73.472V33.617H49.148Z"/>
<path d="M64.023 25.363C64.023 24.02 63.102 23.723 62.367 23.723 61.57 23.723 61.117 24.27 60.945 24.52H60.93V23.863H60.18V28.566H60.977V26.004C60.977 24.723 61.773 24.441 62.227 24.441 62.992 24.441 63.227 24.848 63.227 25.676V28.566H64.023ZM64.023 25.363" fill="#231f20"/>
<path d="M73.473 16.961H97.797V33.617H73.473Z" fill="#ffffff"/>
<path stroke-width=".999" stroke-linecap="butt" stroke-miterlimit="4" stroke-linejoin="miter" fill="none" stroke="#231f20" d="M73.473 16.961H97.797V33.617H73.473Z"/>
<path d="M87.707 27.098C87.691 27.441 87.254 28.02 86.504 28.02 85.598 28.02 85.129 27.457 85.129 26.473H88.566C88.566 24.801 87.91 23.723 86.551 23.723 84.988 23.723 84.285 24.879 84.285 26.348 84.285 27.707 85.066 28.707 86.395 28.707 87.145 28.707 87.457 28.52 87.676 28.379 88.27 27.988 88.473 27.316 88.504 27.098ZM85.129 25.832C85.129 25.113 85.707 24.441 86.441 24.441 87.395 24.441 87.707 25.113 87.754 25.832ZM85.129 25.832" fill="#231f20"/>
<path d="M97.797 16.961H122.120998V33.617H97.797Z" fill="#ffffff"/>
<path stroke-width=".999" stroke-linecap="butt" stroke-miterlimit="4" stroke-linejoin="miter" fill="none" stroke="#231f20" d="M97.797 16.961H122.120998V33.617H97.797Z"/>
<path d="M112.52 25.207C112.52 24.973 112.41 23.723 110.723 23.723 109.801 23.723 108.941 24.191 108.941 25.223 108.941 25.879 109.379 26.207 110.035 26.363L110.957 26.598C111.629 26.77 111.895 26.895 111.895 27.27 111.895 27.785 111.379 28.02 110.801 28.02 109.691 28.02 109.582 27.426 109.551 27.051H108.785C108.816 27.629 108.957 28.707 110.816 28.707 111.879 28.707 112.676 28.113 112.676 27.145 112.676 26.504 112.332 26.145 111.363 25.91L110.566 25.707C109.957 25.551 109.707 25.457 109.707 25.082 109.707 24.488 110.41 24.41 110.645 24.41 111.645 24.41 111.754 24.91 111.77 25.207ZM112.52 25.207" fill="#231f20"/>
<path d="M122.121 16.961H146.445V33.617H122.121Z" fill="#ffffff"/>
<path stroke-width=".999" stroke-linecap="butt" stroke-miterlimit="4" stroke-linejoin="miter" fill="none" stroke="#231f20" d="M122.121 16.961H146.445V33.617H122.121Z"/>
<path d="M132.121 28.738H132.73L130.512 21.926H129.918ZM132.121 28.738" fill="#231f20"/>
<path d="M136.996 25.363C136.996 24.02 136.074 23.723 135.34 23.723 134.543 23.723 134.09 24.27 133.918 24.52H133.902V23.863H133.152V28.566H133.949V26.004C133.949 24.723 134.746 24.441 135.199 24.441 135.965 24.441 136.199 24.848 136.199 25.676V28.566H136.996ZM136.996 25.363" fill="#231f20"/>
<path d="M170.77 16.961H195.09401V33.617H170.77Z" fill="#ffffff"/>
<path stroke-width=".999" stroke-linecap="butt" stroke-miterlimit="4" stroke-linejoin="miter" fill="none" stroke="#231f20" d="M170.77 16.961H195.09401V33.617H170.77Z"/>
<path d="M180.555 28.566H181.352V26.004C181.352 24.723 182.148 24.441 182.602 24.441 183.18 24.441 183.336 24.91 183.336 25.301V28.566H184.133V25.691C184.133 25.066 184.57 24.441 185.227 24.441 185.914 24.441 186.102 24.879 186.102 25.52V28.566H186.898V25.301C186.898 23.988 185.945 23.723 185.445 23.723 184.711 23.723 184.398 24.051 183.992 24.488 183.867 24.238 183.602 23.723 182.742 23.723 181.898 23.723 181.492 24.27 181.32 24.52H181.305V23.863H180.555ZM180.555 28.566" fill="#231f20"/>
<path d="M195.094 16.961H219.418V33.617H195.094Z" fill="#ffffff"/>
<path stroke-width=".999" stroke-linecap="butt" stroke-miterlimit="4" stroke-linejoin="miter" fill="none" stroke="#231f20" d="M195.094 16.961H219.418V33.617H195.094Z"/>
<path d="M208.441 23.863H207.66V28.566H208.441ZM208.441 23.004V22.098H207.66V23.004ZM208.441 23.004" fill="#231f20"/>
<path d="M219.418 16.961H243.742V33.617H219.418Z" fill="#ffffff"/>
<path stroke-width=".999" stroke-linecap="butt" stroke-miterlimit="4" stroke-linejoin="miter" fill="none" stroke="#231f20" d="M219.418 16.961H243.738V33.617H219.418Z"/>
<path d="M233.434 24.52V23.863H232.684V22.551H231.887V23.863H231.246V24.52H231.887V27.629C231.887 28.191 232.059 28.629 232.84 28.629 232.918 28.629 233.152 28.598 233.434 28.566V27.941H233.152C232.996 27.941 232.684 27.941 232.684 27.582V24.52ZM233.434 24.52" fill="#231f20"/>
<path d="M243.742 16.961H268.066V33.617H243.742Z" fill="#ffffff"/>
<path stroke-width=".999" stroke-linecap="butt" stroke-miterlimit="4" stroke-linejoin="miter" fill="none" stroke="#231f20" d="M243.742 16.961H268.066V33.617H243.742Z"/>
<path d="M258.617 25.363C258.617 24.02 257.695 23.723 256.961 23.723 256.211 23.723 255.82 24.191 255.586 24.488H255.57V22.098H254.773V28.566H255.57V26.004C255.57 24.816 256.242 24.441 256.883 24.441 257.648 24.441 257.82 24.848 257.82 25.488V28.566H258.617ZM258.617 25.363" fill="#231f20"/>
<path d="M268.066 16.961H292.39V33.617H268.066Z" fill="#ffffff"/>
<path stroke-width=".999" stroke-linecap="butt" stroke-miterlimit="4" stroke-linejoin="miter" fill="none" stroke="#231f20" d="M268.066 16.961H292.39V33.617H268.066Z"/>
<path d="M279.316 28.738H279.926L277.707 21.926H277.113ZM279.316 28.738" fill="#231f20"/>
<path d="M284.191 25.363C284.191 24.02 283.27 23.723 282.535 23.723 281.738 23.723 281.285 24.27 281.113 24.52H281.098V23.863H280.348V28.566H281.145V26.004C281.145 24.723 281.941 24.441 282.395 24.441 283.16 24.441 283.395 24.848 283.395 25.676V28.566H284.191ZM284.191 25.363" fill="#231f20"/>
<path d="M292.391 16.961H316.711V33.617H292.391Z" fill="#ffffff"/>
<path stroke-width=".999" stroke-linecap="butt" stroke-miterlimit="4" stroke-linejoin="miter" fill="none" stroke="#231f20" d="M292.391 16.961H316.711V33.617H292.391Z"/>
<path d="M297.094 27.754 294.453 26.285 297.094 24.832V24.113L293.797 25.973V26.598L297.094 28.473ZM297.094 27.754" fill="#231f20"/>
<path d="M301.566 27.785H298.645V25.629H301.301V24.863H298.645V22.879H301.52V22.098H297.988V28.566H301.566ZM301.566 27.785" fill="#231f20"/>
<path d="M306.219 25.332C306.219 26.863 305.578 27.957 304.531 27.957 303.484 27.957 302.844 26.863 302.844 25.332 302.844 23.816 303.484 22.707 304.531 22.707 305.578 22.707 306.219 23.816 306.219 25.332ZM306.891 25.332C306.891 23.941 306.344 21.926 304.531 21.926 302.719 21.926 302.172 23.941 302.172 25.332 302.172 26.723 302.719 28.738 304.531 28.738 306.344 28.738 306.891 26.723 306.891 25.332ZM306.891 25.332" fill="#231f20"/>
<path d="M308.391 25.629H310.766V24.863H308.391V22.879H311.094V22.098H307.734V28.566H308.391ZM308.391 25.629" fill="#231f20"/>
<path d="M311.605 24.832 314.23 26.285 311.605 27.754V28.473L314.902 26.598V25.973L311.605 24.113ZM311.605 24.832" fill="#231f20"/>
<path d="M146.445 16.961H170.76902V33.617H146.445Z" fill="#ffffff"/>
<path stroke-width=".999" stroke-linecap="butt" stroke-miterlimit="4" stroke-linejoin="miter" fill="none" stroke="#231f20" d="M146.445 16.961H170.76902V33.617H146.445Z"/>
<path d="M161.805 23.988C161.758 23.285 161.539 21.926 159.273 21.926 157.711 21.926 157.055 22.926 157.055 23.926 157.055 25.051 158.008 25.348 158.43 25.457L159.758 25.754C160.82 26.004 161.133 26.223 161.133 26.895 161.133 27.832 160.07 27.988 159.445 27.988 158.617 27.988 157.664 27.645 157.664 26.473H156.836C156.836 27.082 156.945 27.629 157.492 28.113 157.789 28.379 158.258 28.738 159.445 28.738 160.555 28.738 161.977 28.316 161.977 26.785 161.977 25.754 161.352 25.254 160.508 25.051L158.664 24.629C158.289 24.551 157.898 24.363 157.898 23.816 157.898 22.832 158.836 22.676 159.383 22.676 160.102 22.676 160.93 22.988 160.977 23.988ZM161.805 23.988" fill="#231f20"/>
<path d="M.668 66.973H24.987999V83.629H.668Z" fill="#ffffff"/>
<path stroke-width=".999" stroke-linecap="butt" stroke-miterlimit="4" stroke-linejoin="miter" fill="none" stroke="#231f20" d="M.668 66.973H24.987999V83.629H.668Z"/>
<path d="M11.527 76.5V77.141C11.527 77.734 11.855 78.75 13.355 78.75 14.23 78.75 15.23 78.344 15.23 76.828V72.109H14.355V76.891C14.355 77.516 14.121 78 13.309 78 12.715 78 12.34 77.719 12.34 76.953V76.5ZM11.527 76.5" fill="#231f20"/>
<path d="M24.988 66.973H49.312V83.629H24.988Z" fill="#ffffff"/>
<path stroke-width=".999" stroke-linecap="butt" stroke-miterlimit="4" stroke-linejoin="miter" fill="none" stroke="#231f20" d="M24.988 66.973H49.312V83.629H24.988Z"/>
<path d="M35.758 76.219C35.758 77.438 36.445 78.703 37.945 78.703 39.445 78.703 40.133 77.438 40.133 76.219 40.133 75 39.445 73.734 37.945 73.734 36.445 73.734 35.758 75 35.758 76.219ZM36.586 76.219C36.586 75.594 36.82 74.422 37.945 74.422 39.086 74.422 39.32 75.594 39.32 76.219 39.32 76.844 39.086 78.016 37.945 78.016 36.82 78.016 36.586 76.844 36.586 76.219ZM36.586 76.219" fill="#231f20"/>
<path d="M49.316 66.973H73.636V83.629H49.316Z" fill="#ffffff"/>
<path stroke-width=".999" stroke-linecap="butt" stroke-miterlimit="4" stroke-linejoin="miter" fill="none" stroke="#231f20" d="M49.313 66.973H73.637V83.629H49.313Z"/>
<path d="M64.191 75.375C64.191 74.031 63.27 73.734 62.535 73.734 61.738 73.734 61.285 74.281 61.113 74.531H61.098V73.875H60.348V78.578H61.145V76.016C61.145 74.734 61.941 74.453 62.395 74.453 63.16 74.453 63.395 74.859 63.395 75.688V78.578H64.191ZM64.191 75.375" fill="#231f20"/>
<path d="M73.637 66.973H97.961V83.629H73.637Z" fill="#ffffff"/>
<path stroke-width=".999" stroke-linecap="butt" stroke-miterlimit="4" stroke-linejoin="miter" fill="none" stroke="#231f20" d="M73.637 66.973H97.961V83.629H73.637Z"/>
<path d="M87.875 77.109C87.859 77.453 87.422 78.031 86.672 78.031 85.766 78.031 85.297 77.469 85.297 76.484H88.734C88.734 74.813 88.078 73.734 86.719 73.734 85.156 73.734 84.453 74.891 84.453 76.359 84.453 77.719 85.234 78.719 86.563 78.719 87.313 78.719 87.625 78.531 87.844 78.391 88.438 78 88.641 77.328 88.672 77.109ZM85.297 75.844C85.297 75.125 85.875 74.453 86.609 74.453 87.563 74.453 87.875 75.125 87.922 75.844ZM85.297 75.844" fill="#231f20"/>
<path d="M97.961 66.973H122.284999V83.629H97.961Z" fill="#ffffff"/>
<path stroke-width=".999" stroke-linecap="butt" stroke-miterlimit="4" stroke-linejoin="miter" fill="none" stroke="#231f20" d="M97.961 66.973H122.284999V83.629H97.961Z"/>
<path d="M112.684 75.219C112.684 74.984 112.574 73.734 110.887 73.734 109.965 73.734 109.105 74.203 109.105 75.234 109.105 75.891 109.543 76.219 110.199 76.375L111.121 76.609C111.793 76.781 112.059 76.906 112.059 77.281 112.059 77.797 111.543 78.031 110.965 78.031 109.855 78.031 109.746 77.438 109.715 77.063H108.949C108.98 77.641 109.121 78.719 110.98 78.719 112.043 78.719 112.84 78.125 112.84 77.156 112.84 76.516 112.496 76.156 111.527 75.922L110.73 75.719C110.121 75.563 109.871 75.469 109.871 75.094 109.871 74.5 110.574 74.422 110.809 74.422 111.809 74.422 111.918 74.922 111.934 75.219ZM112.684 75.219" fill="#231f20"/>
<path d="M122.285 66.973H146.60901V83.629H122.285Z" fill="#ffffff"/>
<path stroke-width=".999" stroke-linecap="butt" stroke-miterlimit="4" stroke-linejoin="miter" fill="none" stroke="#231f20" d="M122.285 66.973H146.60901V83.629H122.285Z"/>
<path d="M132.285 78.75H132.895L130.676 71.938H130.082ZM132.285 78.75" fill="#231f20"/>
<path d="M137.164 75.375C137.164 74.031 136.242 73.734 135.508 73.734 134.711 73.734 134.258 74.281 134.086 74.531H134.07V73.875H133.32V78.578H134.117V76.016C134.117 74.734 134.914 74.453 135.367 74.453 136.133 74.453 136.367 74.859 136.367 75.688V78.578H137.164ZM137.164 75.375" fill="#231f20"/>
<path d="M170.934 66.973H195.25801V83.629H170.934Z" fill="#ffffff"/>
<path stroke-width=".999" stroke-linecap="butt" stroke-miterlimit="4" stroke-linejoin="miter" fill="none" stroke="#231f20" d="M170.934 66.973H195.25801V83.629H170.934Z"/>
<path d="M180.723 78.578H181.52V76.016C181.52 74.734 182.316 74.453 182.77 74.453 183.348 74.453 183.504 74.922 183.504 75.313V78.578H184.301V75.703C184.301 75.078 184.738 74.453 185.395 74.453 186.082 74.453 186.27 74.891 186.27 75.531V78.578H187.066V75.313C187.066 74 186.113 73.734 185.613 73.734 184.879 73.734 184.566 74.063 184.16 74.5 184.035 74.25 183.77 73.734 182.91 73.734 182.066 73.734 181.66 74.281 181.488 74.531H181.473V73.875H180.723ZM180.723 78.578" fill="#231f20"/>
<path d="M195.258 66.973H219.582V83.629H195.258Z" fill="#ffffff"/>
<path stroke-width=".999" stroke-linecap="butt" stroke-miterlimit="4" stroke-linejoin="miter" fill="none" stroke="#231f20" d="M195.258 66.973H219.582V83.629H195.258Z"/>
<path d="M208.605 73.875H207.824V78.578H208.605ZM208.605 73.016V72.109H207.824V73.016ZM208.605 73.016" fill="#231f20"/>
<path d="M219.582 66.973H243.906V83.629H219.582Z" fill="#ffffff"/>
<path stroke-width=".999" stroke-linecap="butt" stroke-miterlimit="4" stroke-linejoin="miter" fill="none" stroke="#231f20" d="M219.582 66.973H243.906V83.629H219.582Z"/>
<path d="M233.598 74.531V73.875H232.848V72.563H232.051V73.875H231.41V74.531H232.051V77.641C232.051 78.203 232.223 78.641 233.004 78.641 233.082 78.641 233.316 78.609 233.598 78.578V77.953H233.316C233.16 77.953 232.848 77.953 232.848 77.594V74.531ZM233.598 74.531" fill="#231f20"/>
<path d="M243.906 66.973H268.23V83.629H243.906Z" fill="#ffffff"/>
<path stroke-width=".999" stroke-linecap="butt" stroke-miterlimit="4" stroke-linejoin="miter" fill="none" stroke="#231f20" d="M243.906 66.973H268.23V83.629H243.906Z"/>
<path d="M258.781 75.375C258.781 74.031 257.859 73.734 257.125 73.734 256.375 73.734 255.984 74.203 255.75 74.5H255.734V72.109H254.938V78.578H255.734V76.016C255.734 74.828 256.406 74.453 257.047 74.453 257.813 74.453 257.984 74.859 257.984 75.5V78.578H258.781ZM258.781 75.375" fill="#231f20"/>
<path d="M268.23 66.973H292.55403V83.629H268.23Z" fill="#ffffff"/>
<path stroke-width=".999" stroke-linecap="butt" stroke-miterlimit="4" stroke-linejoin="miter" fill="none" stroke="#231f20" d="M268.23 66.973H292.55403V83.629H268.23Z"/>
<path d="M279.48 78.75H280.09L277.871 71.938H277.277ZM279.48 78.75" fill="#231f20"/>
<path d="M284.355 75.375C284.355 74.031 283.434 73.734 282.699 73.734 281.902 73.734 281.449 74.281 281.277 74.531H281.262V73.875H280.512V78.578H281.309V76.016C281.309 74.734 282.105 74.453 282.559 74.453 283.324 74.453 283.559 74.859 283.559 75.688V78.578H284.355ZM284.355 75.375" fill="#231f20"/>
<path d="M292.555 66.973H316.879V83.629H292.555Z" fill="#ffffff"/>
<path stroke-width=".999" stroke-linecap="butt" stroke-miterlimit="4" stroke-linejoin="miter" fill="none" stroke="#231f20" d="M292.555 66.973H316.879V83.629H292.555Z"/>
<path d="M305.496 73.219H305.512L306.996 78.578H307.918L309.621 72.109H308.652L307.449 77.375H307.434L305.98 72.109H305.027L303.574 77.375H303.559L302.355 72.109H301.402L303.09 78.578H304.012ZM305.496 73.219" fill="#231f20"/>
<path d="M316.879 66.973H341.203V83.629H316.879Z" fill="#ffffff"/>
<path stroke-width=".999" stroke-linecap="butt" stroke-miterlimit="4" stroke-linejoin="miter" fill="none" stroke="#231f20" d="M316.879 66.973H341.203V83.629H316.879Z"/>
<path d="M330.227 73.875H329.445V78.578H330.227ZM330.227 73.016V72.109H329.445V73.016ZM330.227 73.016" fill="#231f20"/>
<path d="M341.203 66.973H365.527V83.629H341.203Z" fill="#ffffff"/>
<g clip-path="url(#clip_1)">
<g clip-path="url(#clip_2)">
<path stroke-width=".999" stroke-linecap="butt" stroke-miterlimit="4" stroke-linejoin="miter" fill="none" stroke="#231f20" d="M341.203 66.973H365.527V83.629H341.203Z"/>
</g>
<path d="M353.77 72.109H354.551V78.578H353.77Z" fill="#231f20"/>
</g>
<path d="M146.609 66.973H170.933V83.629H146.609Z" fill="#ffffff"/>
<path stroke-width=".999" stroke-linecap="butt" stroke-miterlimit="4" stroke-linejoin="miter" fill="none" stroke="#231f20" d="M146.609 66.973H170.933V83.629H146.609Z"/>
<path d="M161.973 74C161.926 73.297 161.707 71.938 159.441 71.938 157.879 71.938 157.223 72.938 157.223 73.938 157.223 75.063 158.176 75.359 158.598 75.469L159.926 75.766C160.988 76.016 161.301 76.234 161.301 76.906 161.301 77.844 160.238 78 159.613 78 158.785 78 157.832 77.656 157.832 76.484H157.004C157.004 77.094 157.113 77.641 157.66 78.125 157.957 78.391 158.426 78.75 159.613 78.75 160.723 78.75 162.145 78.328 162.145 76.797 162.145 75.766 161.52 75.266 160.676 75.063L158.832 74.641C158.457 74.563 158.066 74.375 158.066 73.828 158.066 72.844 159.004 72.688 159.551 72.688 160.27 72.688 161.098 73 161.145 74ZM161.973 74" fill="#231f20"/>
<path d="M.668 95.074H24.987999V111.729999H.668Z" fill="#ffffff"/>
<path stroke-width=".999" stroke-linecap="butt" stroke-miterlimit="4" stroke-linejoin="miter" fill="none" stroke="#231f20" d="M.668 95.074H24.987999V111.729999H.668Z"/>
<path d="M13.234 100.211H14.015V106.68H13.234Z" fill="#231f20"/>
<path d="M24.988 95.074H49.312V111.729999H24.988Z" fill="#ffffff"/>
<path stroke-width=".999" stroke-linecap="butt" stroke-miterlimit="4" stroke-linejoin="miter" fill="none" stroke="#231f20" d="M24.988 95.074H49.312V111.729999H24.988Z"/>
<path d="M38.336 101.977H37.555V106.68H38.336ZM38.336 101.117V100.211H37.555V101.117ZM38.336 101.117" fill="#231f20"/>
<path d="M49.316 95.074H73.636V111.729999H49.316Z" fill="#ffffff"/>
<path stroke-width=".999" stroke-linecap="butt" stroke-miterlimit="4" stroke-linejoin="miter" fill="none" stroke="#231f20" d="M49.313 95.074H73.637V111.729999H49.313Z"/>
<path d="M64.035 103.32C64.035 103.086 63.926 101.836 62.238 101.836 61.316 101.836 60.457 102.305 60.457 103.336 60.457 103.992 60.895 104.32 61.551 104.477L62.473 104.711C63.145 104.883 63.41 105.008 63.41 105.383 63.41 105.898 62.895 106.133 62.316 106.133 61.207 106.133 61.098 105.539 61.066 105.164H60.301C60.332 105.742 60.473 106.82 62.332 106.82 63.395 106.82 64.191 106.227 64.191 105.258 64.191 104.617 63.848 104.258 62.879 104.023L62.082 103.82C61.473 103.664 61.223 103.57 61.223 103.195 61.223 102.602 61.926 102.523 62.16 102.523 63.16 102.523 63.27 103.023 63.285 103.32ZM64.035 103.32" fill="#231f20"/>
<path d="M73.637 95.074H97.961V111.729999H73.637Z" fill="#ffffff"/>
<path stroke-width=".999" stroke-linecap="butt" stroke-miterlimit="4" stroke-linejoin="miter" fill="none" stroke="#231f20" d="M73.637 95.074H97.961V111.729999H73.637Z"/>
<path d="M84.891 106.852H85.5L83.281 100.039H82.688ZM84.891 106.852" fill="#231f20"/>
<path d="M89.766 103.477C89.766 102.133 88.844 101.836 88.109 101.836 87.313 101.836 86.859 102.383 86.688 102.633H86.672V101.977H85.922V106.68H86.719V104.117C86.719 102.836 87.516 102.555 87.969 102.555 88.734 102.555 88.969 102.961 88.969 103.789V106.68H89.766ZM89.766 103.477" fill="#231f20"/>
<path d="M97.961 95.074H122.284999V111.729999H97.961Z" fill="#ffffff"/>
<path stroke-width=".999" stroke-linecap="butt" stroke-miterlimit="4" stroke-linejoin="miter" fill="none" stroke="#231f20" d="M97.961 95.074H122.284999V111.729999H97.961Z"/>
<path d="M108.406 106.68H110.984C113.109 106.68 113.734 104.805 113.734 103.352 113.734 101.492 112.703 100.211 111.016 100.211H108.406ZM109.281 100.961H110.906C112.094 100.961 112.844 101.789 112.844 103.414 112.844 105.039 112.094 105.93 110.969 105.93H109.281ZM109.281 100.961" fill="#231f20"/>
<path d="M122.285 95.074H146.60901V111.729999H122.285Z" fill="#ffffff"/>
<path stroke-width=".999" stroke-linecap="butt" stroke-miterlimit="4" stroke-linejoin="miter" fill="none" stroke="#231f20" d="M122.285 95.074H146.60901V111.729999H122.285Z"/>
<path d="M132.77 103.398C132.832 103.039 132.957 102.492 133.848 102.492 134.598 102.492 134.957 102.758 134.957 103.258 134.957 103.727 134.738 103.805 134.551 103.82L133.238 103.977C131.926 104.148 131.816 105.055 131.816 105.461 131.816 106.273 132.426 106.82 133.285 106.82 134.207 106.82 134.676 106.383 134.988 106.055 135.02 106.414 135.129 106.773 135.832 106.773 136.004 106.773 136.129 106.711 136.254 106.68V106.102C136.176 106.117 136.066 106.133 136.004 106.133 135.832 106.133 135.738 106.055 135.738 105.867V103.148C135.738 101.945 134.363 101.836 133.988 101.836 132.832 101.836 132.082 102.273 132.051 103.398ZM134.941 105.055C134.941 105.68 134.223 106.164 133.488 106.164 132.895 106.164 132.629 105.852 132.629 105.336 132.629 104.742 133.254 104.633 133.645 104.57 134.613 104.445 134.816 104.383 134.941 104.273ZM134.941 105.055" fill="#231f20"/>
<path d="M146.609 95.074H170.933V111.729999H146.609Z" fill="#ffffff"/>
<path stroke-width=".999" stroke-linecap="butt" stroke-miterlimit="4" stroke-linejoin="miter" fill="none" stroke="#231f20" d="M146.609 95.074H170.933V111.729999H146.609Z"/>
<path d="M159.551 105.805H159.535L158.301 101.977H157.395L159.113 106.68H159.957L161.738 101.977H160.879ZM159.551 105.805" fill="#231f20"/>
<path d="M170.934 95.074H195.25801V111.729999H170.934Z" fill="#ffffff"/>
<path stroke-width=".999" stroke-linecap="butt" stroke-miterlimit="4" stroke-linejoin="miter" fill="none" stroke="#231f20" d="M170.934 95.074H195.25801V111.729999H170.934Z"/>
<path d="M184.281 101.977H183.5V106.68H184.281ZM184.281 101.117V100.211H183.5V101.117ZM184.281 101.117" fill="#231f20"/>
<path d="M195.258 95.074H219.582V111.729999H195.258Z" fill="#ffffff"/>
<path stroke-width=".999" stroke-linecap="butt" stroke-miterlimit="4" stroke-linejoin="miter" fill="none" stroke="#231f20" d="M195.258 95.074H219.582V111.729999H195.258Z"/>
<path d="M209.98 103.32C209.98 103.086 209.871 101.836 208.184 101.836 207.262 101.836 206.402 102.305 206.402 103.336 206.402 103.992 206.84 104.32 207.496 104.477L208.418 104.711C209.09 104.883 209.355 105.008 209.355 105.383 209.355 105.898 208.84 106.133 208.262 106.133 207.152 106.133 207.043 105.539 207.012 105.164H206.246C206.277 105.742 206.418 106.82 208.277 106.82 209.34 106.82 210.137 106.227 210.137 105.258 210.137 104.617 209.793 104.258 208.824 104.023L208.027 103.82C207.418 103.664 207.168 103.57 207.168 103.195 207.168 102.602 207.871 102.523 208.105 102.523 209.105 102.523 209.215 103.023 209.23 103.32ZM209.98 103.32" fill="#231f20"/>
<path d="M219.582 95.074H243.906V111.729999H219.582Z" fill="#ffffff"/>
<path stroke-width=".999" stroke-linecap="butt" stroke-miterlimit="4" stroke-linejoin="miter" fill="none" stroke="#231f20" d="M219.582 95.074H243.906V111.729999H219.582Z"/>
<path d="M230.832 106.852H231.441L229.223 100.039H228.629ZM230.832 106.852" fill="#231f20"/>
<path d="M235.707 103.477C235.707 102.133 234.785 101.836 234.051 101.836 233.254 101.836 232.801 102.383 232.629 102.633H232.613V101.977H231.863V106.68H232.66V104.117C232.66 102.836 233.457 102.555 233.91 102.555 234.676 102.555 234.91 102.961 234.91 103.789V106.68H235.707ZM235.707 103.477" fill="#231f20"/>
<path d="M243.906 95.074H268.23V111.729999H243.906Z" fill="#ffffff"/>
<path stroke-width=".999" stroke-linecap="butt" stroke-miterlimit="4" stroke-linejoin="miter" fill="none" stroke="#231f20" d="M243.906 95.074H268.23V111.729999H243.906Z"/>
<path d="M248.613 105.867 245.973 104.398 248.613 102.945V102.227L245.316 104.086V104.711L248.613 106.586ZM248.613 105.867" fill="#231f20"/>
<path d="M253.082 105.898H250.16V103.742H252.816V102.977H250.16V100.992H253.035V100.211H249.504V106.68H253.082ZM253.082 105.898" fill="#231f20"/>
<path d="M257.738 103.445C257.738 104.977 257.098 106.07 256.051 106.07 255.004 106.07 254.363 104.977 254.363 103.445 254.363 101.93 255.004 100.82 256.051 100.82 257.098 100.82 257.738 101.93 257.738 103.445ZM258.41 103.445C258.41 102.055 257.863 100.039 256.051 100.039 254.238 100.039 253.691 102.055 253.691 103.445 253.691 104.836 254.238 106.852 256.051 106.852 257.863 106.852 258.41 104.836 258.41 103.445ZM258.41 103.445" fill="#231f20"/>
<path d="M259.91 103.742H262.285V102.977H259.91V100.992H262.613V100.211H259.254V106.68H259.91ZM259.91 103.742" fill="#231f20"/>
<path d="M263.125 102.945 265.75 104.398 263.125 105.867V106.586L266.422 104.711V104.086L263.125 102.227ZM263.125 102.945" fill="#231f20"/>
<use data-text="W" xlink:href="#font_3_1" transform="matrix(9.99998,0,0,-9.99998,.913212,7.158189)"/>
<use data-text="r" xlink:href="#font_3_2" transform="matrix(9.99998,0,0,-9.99998,10.173194,7.158189)"/>
<use data-text="i" xlink:href="#font_3_3" transform="matrix(9.99998,0,0,-9.99998,13.503187,7.158189)"/>
<use data-text="t" xlink:href="#font_3_4" transform="matrix(9.99998,0,0,-9.99998,15.723183,7.158189)"/>
<use data-text="i" xlink:href="#font_3_3" transform="matrix(9.99998,0,0,-9.99998,18.503178,7.158189)"/>
<use data-text="n" xlink:href="#font_3_5" transform="matrix(9.99998,0,0,-9.99998,20.723174,7.158189)"/>
<use data-text="g" xlink:href="#font_3_6" transform="matrix(9.99998,0,0,-9.99998,26.283164,7.158189)"/>
<use data-text="W" xlink:href="#font_3_1" transform="matrix(9.99998,0,0,-9.99998,.91321375,7.158189)"/>
<use data-text="r" xlink:href="#font_3_2" transform="matrix(9.99998,0,0,-9.99998,10.173196,7.158189)"/>
<use data-text="i" xlink:href="#font_3_3" transform="matrix(9.99998,0,0,-9.99998,13.503189,7.158189)"/>
<use data-text="t" xlink:href="#font_3_4" transform="matrix(9.99998,0,0,-9.99998,15.723185,7.158189)"/>
<use data-text="i" xlink:href="#font_3_3" transform="matrix(9.99998,0,0,-9.99998,18.50318,7.158189)"/>
<use data-text="n" xlink:href="#font_3_5" transform="matrix(9.99998,0,0,-9.99998,20.723176,7.158189)"/>
<use data-text="g" xlink:href="#font_3_6" transform="matrix(9.99998,0,0,-9.99998,26.283165,7.158189)"/>
<use data-text="A" xlink:href="#font_3_7" transform="matrix(9.99998,0,0,-9.99998,.34187717,57.864118)"/>
<use data-text="p" xlink:href="#font_3_8" transform="matrix(9.99998,0,0,-9.99998,7.011864,57.864118)"/>
<use data-text="p" xlink:href="#font_3_8" transform="matrix(9.99998,0,0,-9.99998,12.571854,57.864118)"/>
<use data-text="e" xlink:href="#font_3_9" transform="matrix(9.99998,0,0,-9.99998,18.131844,57.864118)"/>
<use data-text="n" xlink:href="#font_3_5" transform="matrix(9.99998,0,0,-9.99998,23.691834,57.864118)"/>
<use data-text="d" xlink:href="#font_3_10" transform="matrix(9.99998,0,0,-9.99998,29.251824,57.864118)"/>
<use data-text="i" xlink:href="#font_3_3" transform="matrix(9.99998,0,0,-9.99998,34.811815,57.864118)"/>
<use data-text="n" xlink:href="#font_3_5" transform="matrix(9.99998,0,0,-9.99998,37.03181,57.864118)"/>
<use data-text="g" xlink:href="#font_3_6" transform="matrix(9.99998,0,0,-9.99998,42.5918,57.864118)"/>
</g>
</svg>
