<svg width="2676" height="778" xmlns="http://www.w3.org/2000/svg" xmlns:xlink="http://www.w3.org/1999/xlink" xml:space="preserve" overflow="hidden"><g transform="translate(-326 -402)"><path d="M673.853 585 1019 1175 331 1175 673.853 585Z" stroke="#0000FF" stroke-width="10.3125" stroke-linecap="round" stroke-linejoin="round" stroke-miterlimit="10" fill="#33CC33" fill-rule="evenodd"/><path d="M2482 1175 2396.5 1028 2311 1175 2482 1175Z" stroke="#0000FF" stroke-width="10.3125" stroke-linecap="round" stroke-linejoin="round" stroke-miterlimit="10" fill="#33CC33" fill-rule="evenodd"/><path d="M2653 1175 2567.71 1028 2483 1175 2653 1175Z" stroke="#0000FF" stroke-width="10.3125" stroke-linecap="round" stroke-linejoin="round" stroke-miterlimit="10" fill="#33CC33" fill-rule="evenodd"/><path d="M2567 1028 2481.5 880 2396 1028 2567 1028Z" stroke="#0000FF" stroke-width="10.3125" stroke-linecap="round" stroke-linejoin="round" stroke-miterlimit="10" fill="#33CC33" fill-rule="evenodd"/><path d="M2826 1175 2740.21 1028 2655 1175 2826 1175Z" stroke="#0000FF" stroke-width="10.3125" stroke-linecap="round" stroke-linejoin="round" stroke-miterlimit="10" fill="#33CC33" fill-rule="evenodd"/><path d="M2997 1175 2911.71 1028 2827 1175 2997 1175Z" stroke="#0000FF" stroke-width="10.3125" stroke-linecap="round" stroke-linejoin="round" stroke-miterlimit="10" fill="#33CC33" fill-rule="evenodd"/><path d="M2910 1028 2825 880 2740 1028 2910 1028Z" stroke="#0000FF" stroke-width="10.3125" stroke-linecap="round" stroke-linejoin="round" stroke-miterlimit="10" fill="#33CC33" fill-rule="evenodd"/><path d="M2653 880 2567.71 733 2483 880 2653 880Z" stroke="#0000FF" stroke-width="10.3125" stroke-linecap="round" stroke-linejoin="round" stroke-miterlimit="10" fill="#33CC33" fill-rule="evenodd"/><path d="M2824 880 2738.71 733 2654 880 2824 880Z" stroke="#0000FF" stroke-width="10.3125" stroke-linecap="round" stroke-linejoin="round" stroke-miterlimit="10" fill="#33CC33" fill-rule="evenodd"/><path d="M2738 733 2652.71 585 2568 733 2738 733Z" stroke="#0000FF" stroke-width="10.3125" stroke-linecap="round" stroke-linejoin="round" stroke-miterlimit="10" fill="#33CC33" fill-rule="evenodd"/><path d="M2481 880 2654 1175" stroke="#0000FF" stroke-width="10.3125" stroke-linecap="round" stroke-linejoin="round" stroke-miterlimit="10" fill="none" fill-rule="evenodd"/><path d="M1491.85 880 1665 1175 1321 1175 1491.85 880Z" stroke="#0000FF" stroke-width="10.3125" stroke-linecap="round" stroke-linejoin="round" stroke-miterlimit="10" fill="#33CC33" fill-rule="evenodd"/><path d="M1663.64 585 1836 880 1493 880 1663.64 585Z" stroke="#0000FF" stroke-width="10.3125" stroke-linecap="round" stroke-linejoin="round" stroke-miterlimit="10" fill="#33CC33" fill-rule="evenodd"/><path d="M1836.14 880 2009 1175 1665 1175 1836.14 880Z" stroke="#0000FF" stroke-width="10.3125" stroke-linecap="round" stroke-linejoin="round" stroke-miterlimit="10" fill="#33CC33" fill-rule="evenodd"/><path d="M612.202 456.352C614.458 456.352 616.24 457.095 617.547 458.581 618.853 460.067 619.507 462.009 619.507 464.408 619.507 466.306 619.077 468.419 618.218 470.746L618.862 470.961C622.372 466.02 625.711 462.358 628.88 459.977 632.048 457.596 635.316 456.405 638.682 456.405 642.012 456.405 644.572 457.363 646.362 459.279 648.153 461.195 649.048 463.853 649.048 467.255 649.048 469.511 648.529 472.716 647.49 476.869L643.999 490.941C643.032 494.844 642.549 497.602 642.549 499.213 642.549 500.645 642.782 501.684 643.247 502.328 643.713 502.973 644.447 503.295 645.449 503.295 646.524 503.295 647.669 502.856 648.887 501.979 650.104 501.102 651.823 499.428 654.043 496.957L657.105 499.965C654.025 503.259 651.34 505.667 649.048 507.189 646.756 508.711 644.142 509.472 641.206 509.472 638.879 509.472 637.017 508.639 635.62 506.974 634.224 505.309 633.526 503.188 633.526 500.609 633.526 498.282 634.116 494.862 635.298 490.351L637.661 481.059C638.521 477.693 639.085 475.204 639.353 473.593 639.622 471.981 639.756 470.674 639.756 469.672 639.756 467.201 639.344 465.42 638.521 464.328 637.697 463.236 636.354 462.689 634.492 462.689 632.988 462.689 631.368 463.289 629.631 464.489 627.895 465.688 626.051 467.497 624.099 469.914 622.148 472.331 620.581 474.676 619.4 476.95 618.218 479.223 617.251 482.025 616.499 485.355L611.397 508.612 602.105 508.612 609.946 474.56C610.734 471.122 611.128 468.472 611.128 466.61 611.128 465.178 610.895 464.14 610.43 463.495 609.964 462.851 609.23 462.528 608.228 462.528 607.118 462.528 605.945 462.985 604.71 463.898 603.474 464.811 601.782 466.467 599.634 468.866L596.572 465.858C599.867 462.421 602.606 459.977 604.79 458.527 606.974 457.077 609.445 456.352 612.202 456.352Z" fill-rule="evenodd"/><text fill="#000000" fill-opacity="0" font-family="Arial,Arial_MSFontService,sans-serif" font-size="53.1201" x="596.572" y="502.832">𝑛</text><path d="M698.734 484.765 764.906 484.765 764.906 491.908 698.734 491.908ZM698.734 462.475 764.906 462.475 764.906 469.618 698.734 469.618Z" fill-rule="evenodd"/><text fill="#000000" fill-opacity="0" font-family="Arial,Arial_MSFontService,sans-serif" font-size="29.4336" x="698.734" y="488.229">=</text><path d="M833.66 439.003C831.19 439.003 829.122 439.737 827.457 441.205 825.792 442.673 824.449 444.786 823.428 447.543 822.408 450.3 821.683 453.657 821.253 457.614 820.823 461.57 820.609 466.037 820.609 471.015 820.609 482.688 821.692 491.255 823.858 496.715 826.024 502.176 829.381 504.906 833.929 504.906 838.262 504.906 841.475 502.337 843.57 497.199 845.665 492.06 846.712 484.102 846.712 473.324 846.712 465.089 846.175 458.419 845.101 453.317 844.027 448.214 842.532 444.553 840.616 442.333 838.7 440.113 836.382 439.003 833.66 439.003ZM833.929 434.438C841.771 434.438 847.607 437.463 851.439 443.515 855.27 449.566 857.186 458.715 857.186 470.961 857.186 483.637 855.136 493.224 851.036 499.723 846.936 506.222 840.947 509.472 833.07 509.472 825.335 509.472 819.579 506.428 815.801 500.341 812.024 494.254 810.135 485.015 810.135 472.626 810.135 466.037 810.717 460.344 811.881 455.546 813.044 450.748 814.674 446.782 816.768 443.649 818.863 440.516 821.378 438.197 824.315 436.693 827.251 435.189 830.456 434.438 833.929 434.438Z" fill-rule="evenodd"/><text fill="#000000" fill-opacity="0" font-family="Arial,Arial_MSFontService,sans-serif" font-size="75.0342" x="810.135" y="500.092">0</text><path d="M1585.59 456.352C1587.84 456.352 1589.62 457.095 1590.93 458.581 1592.24 460.067 1592.89 462.009 1592.89 464.408 1592.89 466.306 1592.46 468.419 1591.6 470.746L1592.25 470.961C1595.76 466.02 1599.1 462.358 1602.27 459.977 1605.43 457.596 1608.7 456.405 1612.07 456.405 1615.4 456.405 1617.96 457.363 1619.75 459.279 1621.54 461.195 1622.43 463.853 1622.43 467.255 1622.43 469.511 1621.91 472.716 1620.88 476.869L1617.38 490.941C1616.42 494.844 1615.93 497.602 1615.93 499.213 1615.93 500.645 1616.17 501.684 1616.63 502.328 1617.1 502.973 1617.83 503.295 1618.83 503.295 1619.91 503.295 1621.05 502.856 1622.27 501.979 1623.49 501.102 1625.21 499.428 1627.43 496.957L1630.49 499.965C1627.41 503.259 1624.73 505.667 1622.43 507.189 1620.14 508.711 1617.53 509.472 1614.59 509.472 1612.26 509.472 1610.4 508.639 1609.01 506.974 1607.61 505.309 1606.91 503.188 1606.91 500.609 1606.91 498.282 1607.5 494.862 1608.68 490.351L1611.05 481.059C1611.91 477.693 1612.47 475.204 1612.74 473.593 1613.01 471.981 1613.14 470.674 1613.14 469.672 1613.14 467.201 1612.73 465.42 1611.91 464.328 1611.08 463.236 1609.74 462.689 1607.88 462.689 1606.37 462.689 1604.75 463.289 1603.02 464.489 1601.28 465.688 1599.44 467.497 1597.48 469.914 1595.53 472.331 1593.97 474.676 1592.79 476.95 1591.6 479.223 1590.64 482.025 1589.88 485.355L1584.78 508.612 1575.49 508.612 1583.33 474.56C1584.12 471.122 1584.51 468.472 1584.51 466.61 1584.51 465.178 1584.28 464.14 1583.82 463.495 1583.35 462.851 1582.62 462.528 1581.61 462.528 1580.5 462.528 1579.33 462.985 1578.1 463.898 1576.86 464.811 1575.17 466.467 1573.02 468.866L1569.96 465.858C1573.25 462.421 1575.99 459.977 1578.18 458.527 1580.36 457.077 1582.83 456.352 1585.59 456.352Z" fill-rule="evenodd"/><text fill="#000000" fill-opacity="0" font-family="Arial,Arial_MSFontService,sans-serif" font-size="53.1201" x="1569.96" y="502.832">𝑛</text><path d="M1672.12 484.765 1738.29 484.765 1738.29 491.908 1672.12 491.908ZM1672.12 462.475 1738.29 462.475 1738.29 469.618 1672.12 469.618Z" fill-rule="evenodd"/><text fill="#000000" fill-opacity="0" font-family="Arial,Arial_MSFontService,sans-serif" font-size="29.4336" x="1672.12" y="488.229">=</text><path d="M1811.29 434.438 1814.24 434.438C1814.03 437.875 1813.92 442.637 1813.92 448.725L1813.92 494.594C1813.92 496.671 1814.04 498.237 1814.27 499.293 1814.5 500.35 1814.91 501.209 1815.51 501.872 1816.1 502.534 1816.95 503.053 1818.06 503.429 1819.17 503.805 1820.56 504.092 1822.25 504.289 1823.93 504.486 1826.15 504.62 1828.91 504.691L1828.91 508.612 1789.21 508.612 1789.21 504.691C1793.19 504.512 1796.03 504.271 1797.73 503.966 1799.43 503.662 1800.73 503.205 1801.62 502.597 1802.52 501.988 1803.17 501.129 1803.58 500.019 1803.99 498.909 1804.2 497.1 1804.2 494.594L1804.2 451.034C1804.2 449.602 1803.95 448.555 1803.45 447.892 1802.95 447.23 1802.21 446.898 1801.25 446.898 1800.1 446.898 1798.47 447.489 1796.36 448.671 1794.24 449.853 1791.63 451.482 1788.52 453.559L1786.15 449.423Z" fill-rule="evenodd"/><text fill="#000000" fill-opacity="0" font-family="Arial,Arial_MSFontService,sans-serif" font-size="74.1748" x="1786.15" y="499.34">1</text><path d="M2592.2 456.352C2594.46 456.352 2596.24 457.095 2597.55 458.581 2598.85 460.067 2599.51 462.009 2599.51 464.408 2599.51 466.306 2599.08 468.419 2598.22 470.746L2598.86 470.961C2602.37 466.02 2605.71 462.358 2608.88 459.977 2612.05 457.596 2615.32 456.405 2618.68 456.405 2622.01 456.405 2624.57 457.363 2626.36 459.279 2628.15 461.195 2629.05 463.853 2629.05 467.255 2629.05 469.511 2628.53 472.716 2627.49 476.869L2624 490.941C2623.03 494.844 2622.55 497.602 2622.55 499.213 2622.55 500.645 2622.78 501.684 2623.25 502.328 2623.71 502.973 2624.45 503.295 2625.45 503.295 2626.52 503.295 2627.67 502.856 2628.89 501.979 2630.1 501.102 2631.82 499.428 2634.04 496.957L2637.1 499.965C2634.03 503.259 2631.34 505.667 2629.05 507.189 2626.76 508.711 2624.14 509.472 2621.21 509.472 2618.88 509.472 2617.02 508.639 2615.62 506.974 2614.22 505.309 2613.53 503.188 2613.53 500.609 2613.53 498.282 2614.12 494.862 2615.3 490.351L2617.66 481.059C2618.52 477.693 2619.08 475.204 2619.35 473.593 2619.62 471.981 2619.76 470.674 2619.76 469.672 2619.76 467.201 2619.34 465.42 2618.52 464.328 2617.7 463.236 2616.35 462.689 2614.49 462.689 2612.99 462.689 2611.37 463.289 2609.63 464.489 2607.89 465.688 2606.05 467.497 2604.1 469.914 2602.15 472.331 2600.58 474.676 2599.4 476.95 2598.22 479.223 2597.25 482.025 2596.5 485.355L2591.4 508.612 2582.1 508.612 2589.95 474.56C2590.73 471.122 2591.13 468.472 2591.13 466.61 2591.13 465.178 2590.9 464.14 2590.43 463.495 2589.96 462.851 2589.23 462.528 2588.23 462.528 2587.12 462.528 2585.94 462.985 2584.71 463.898 2583.47 464.811 2581.78 466.467 2579.63 468.866L2576.57 465.858C2579.87 462.421 2582.61 459.977 2584.79 458.527 2586.97 457.077 2589.45 456.352 2592.2 456.352Z" fill-rule="evenodd"/><text fill="#000000" fill-opacity="0" font-family="Arial,Arial_MSFontService,sans-serif" font-size="53.1201" x="2576.57" y="502.832">𝑛</text><path d="M2678.73 484.765 2744.91 484.765 2744.91 491.908 2678.73 491.908ZM2678.73 462.475 2744.91 462.475 2744.91 469.618 2678.73 469.618Z" fill-rule="evenodd"/><text fill="#000000" fill-opacity="0" font-family="Arial,Arial_MSFontService,sans-serif" font-size="29.4336" x="2678.73" y="488.229">=</text><path d="M2814.09 434.438C2820.75 434.438 2825.78 435.897 2829.18 438.815 2832.58 441.733 2834.29 445.967 2834.29 451.518 2834.29 453.415 2834.1 455.161 2833.72 456.754 2833.35 458.348 2832.75 459.923 2831.95 461.481 2831.14 463.039 2830.06 464.713 2828.7 466.503 2827.34 468.293 2825.83 470.111 2824.19 471.955 2822.54 473.799 2819.69 476.869 2815.65 481.166 2808.84 488.363 2803.85 494.647 2800.66 500.019L2820.91 500.019C2822.67 500.019 2824.08 499.911 2825.15 499.696 2826.23 499.481 2827.09 499.123 2827.73 498.622 2828.38 498.121 2828.89 497.467 2829.26 496.662 2829.64 495.856 2830.11 494.612 2830.69 492.929L2835.25 492.929 2834.34 508.612 2790.13 508.612 2790.13 506.034C2791.67 502.274 2793.75 498.425 2796.37 494.486 2798.98 490.548 2802.69 485.91 2807.48 480.575 2811.64 475.992 2814.63 472.519 2816.45 470.155 2818.46 467.577 2819.95 465.348 2820.94 463.468 2821.92 461.588 2822.63 459.816 2823.06 458.151 2823.49 456.486 2823.7 454.812 2823.7 453.129 2823.7 450.443 2823.27 448.071 2822.42 446.012 2821.56 443.953 2820.24 442.333 2818.47 441.151 2816.69 439.97 2814.47 439.379 2811.78 439.379 2805.08 439.379 2800.57 443.103 2798.25 450.551L2791.75 450.551 2791.75 440.238C2796.08 438.197 2800.13 436.72 2803.91 435.807 2807.69 434.894 2811.08 434.438 2814.09 434.438Z" fill-rule="evenodd"/><text fill="#000000" fill-opacity="0" font-family="Arial,Arial_MSFontService,sans-serif" font-size="74.1748" x="2790.13" y="499.34">2</text></g></svg>