<svg width="1908" height="1475" xmlns="http://www.w3.org/2000/svg" xmlns:xlink="http://www.w3.org/1999/xlink" xml:space="preserve" overflow="hidden"><g transform="translate(-629 -461)"><path d="M978.01 1231.84 1462.23 1232.79 1462.21 1243.11 977.99 1242.16ZM1457.09 1222.47 1488 1238 1457.03 1253.41Z" fill="#0000FF"/><path d="M4.46812-2.57348 245.601 416.087 236.665 421.234-4.46812 2.57348ZM251.964 406.471 254 441 225.155 421.912Z" fill="#0000FF" transform="matrix(1 0 0 -1 1488 1237)"/><path d="M1746.46 793.419 1988.56 1212.1 1979.63 1217.26 1737.54 798.581ZM1994.9 1202.47 1997 1237 1968.12 1217.96Z" fill="#0000FF"/><path d="M1997.01 1231.84 2480.23 1232.79 2480.21 1243.11 1996.99 1242.16ZM2475.09 1222.47 2506 1238 2475.03 1253.41Z" fill="#0000FF"/><path d="M978.003 584.844 2479.22 585.826 2479.22 596.139 977.997 595.156ZM2474.07 575.511 2505 591 2474.05 606.448Z" fill="#0000FF"/><path d="M979.03 1898.84 1123.25 1899.69 1123.19 1910 978.97 1909.16ZM1118.15 1889.35 1149 1905 1117.97 1920.29Z" fill="#0000FF"/><path d="M4.46374-2.58107 76.5583 122.1 67.6308 127.262-4.46374 2.58107ZM82.9047 112.474 84.9999 147 56.1222 127.961Z" fill="#0000FF" transform="matrix(1 0 0 -1 1149 1904)"/><path d="M1238.46 1754.42 1310.56 1879.1 1301.63 1884.26 1229.54 1759.58ZM1316.9 1869.47 1319 1904 1290.12 1884.96Z" fill="#0000FF"/><path d="M1319.03 1898.84 1462.25 1899.69 1462.19 1910 1318.97 1909.16ZM1457.15 1889.35 1488 1905 1456.97 1920.29Z" fill="#0000FF"/><path d="M4.46374-2.58107 76.5583 122.1 67.6308 127.262-4.46374 2.58107ZM82.9047 112.474 84.9999 147 56.1222 127.961Z" fill="#0000FF" transform="matrix(1 0 0 -1 1488 1904)"/><path d="M1568.53 1759.57 1496.37 1633.92 1505.31 1628.79 1577.47 1754.43ZM1489.99 1643.53 1488 1609 1516.82 1628.12Z" fill="#0000FF"/><path d="M1488.03 1603.84 1632.25 1604.69 1632.19 1615 1487.97 1614.16ZM1627.15 1594.35 1658 1610 1626.97 1625.29Z" fill="#0000FF"/><path d="M4.46374-2.58108 76.5586 122.1 67.6311 127.263-4.46374 2.58108ZM82.905 112.474 85.0003 147 56.1226 127.961Z" fill="#0000FF" transform="matrix(1 0 0 -1 1658 1609)"/><path d="M1747.48 1459.44 1818.69 1584.06 1809.73 1589.17 1738.52 1464.56ZM1825.08 1574.46 1827 1609 1798.22 1589.81Z" fill="#0000FF"/><path d="M1827.03 1603.84 1971.25 1604.69 1971.19 1615 1826.97 1614.16ZM1966.15 1594.35 1997 1610 1965.97 1625.29Z" fill="#0000FF"/><path d="M4.47129-2.56797 76.6313 123.075 67.6887 128.211-4.47129 2.56797ZM83.0059 113.468 84.9999 148 56.1782 128.876Z" fill="#0000FF" transform="matrix(-1 0 0 1 1997 1609)"/><path d="M1916.46 1754.42 1988.56 1879.1 1979.63 1884.26 1907.54 1759.58ZM1994.9 1869.47 1997 1904 1968.12 1884.96Z" fill="#0000FF"/><path d="M1997.03 1898.84 2141.25 1899.69 2141.19 1910 1996.97 1909.16ZM2136.15 1889.35 2167 1905 2135.97 1920.29Z" fill="#0000FF"/><path d="M4.47688-2.55821 75.6857 122.057 66.7319 127.174-4.47688 2.55821ZM82.0812 112.464 83.9999 147 55.22 127.813Z" fill="#0000FF" transform="matrix(1 0 0 -1 2167 1904)"/><path d="M2250.46 1753.42 2322.56 1878.1 2313.63 1883.26 2241.54 1758.58ZM2328.9 1868.47 2331 1903 2302.12 1883.96Z" fill="#0000FF"/><path d="M2336.03 1898.84 2480.25 1899.69 2480.19 1910 2335.97 1909.16ZM2475.15 1889.35 2506 1905 2474.97 1920.29Z" fill="#0000FF"/><path d="M662.514 515.935C664.77 515.935 666.552 516.678 667.858 518.164 669.165 519.65 669.819 521.593 669.819 523.992 669.819 525.89 669.389 528.002 668.53 530.33L669.174 530.545C672.683 525.603 676.023 521.942 679.191 519.561 682.36 517.18 685.628 515.989 688.994 515.989 692.324 515.989 694.884 516.947 696.674 518.862 698.465 520.778 699.36 523.437 699.36 526.839 699.36 529.094 698.841 532.299 697.802 536.453L694.311 550.525C693.344 554.428 692.861 557.185 692.861 558.797 692.861 560.229 693.094 561.267 693.559 561.912 694.025 562.556 694.759 562.879 695.761 562.879 696.836 562.879 697.981 562.44 699.199 561.563 700.416 560.685 702.135 559.011 704.355 556.541L707.417 559.549C704.337 562.843 701.652 565.251 699.36 566.773 697.068 568.294 694.454 569.055 691.518 569.055 689.191 569.055 687.329 568.223 685.932 566.558 684.536 564.893 683.837 562.771 683.837 560.193 683.837 557.866 684.428 554.446 685.61 549.934L687.973 540.642C688.833 537.276 689.397 534.788 689.665 533.176 689.934 531.565 690.068 530.258 690.068 529.256 690.068 526.785 689.656 525.003 688.833 523.911 688.009 522.819 686.666 522.273 684.804 522.273 683.3 522.273 681.68 522.873 679.943 524.072 678.207 525.272 676.363 527.08 674.411 529.497 672.46 531.914 670.893 534.26 669.711 536.533 668.53 538.807 667.563 541.609 666.811 544.939L661.709 568.196 652.417 568.196 660.258 534.143C661.046 530.706 661.44 528.056 661.44 526.194 661.44 524.762 661.207 523.723 660.742 523.079 660.276 522.434 659.542 522.112 658.54 522.112 657.43 522.112 656.257 522.569 655.022 523.482 653.786 524.395 652.094 526.051 649.946 528.45L646.884 525.442C650.179 522.005 652.918 519.561 655.102 518.111 657.286 516.66 659.757 515.935 662.514 515.935Z" fill-rule="evenodd"/><text fill="#000000" fill-opacity="0" font-family="Arial,Arial_MSFontService,sans-serif" font-size="53.1201" x="646.884" y="562.415">𝑛</text><path d="M749.046 544.348 815.218 544.348 815.218 551.492 749.046 551.492ZM749.046 522.058 815.218 522.058 815.218 529.202 749.046 529.202Z" fill-rule="evenodd"/><text fill="#000000" fill-opacity="0" font-family="Arial,Arial_MSFontService,sans-serif" font-size="29.4336" x="749.046" y="547.813">=</text><path d="M883.972 498.587C881.502 498.587 879.434 499.321 877.769 500.789 876.104 502.257 874.761 504.369 873.74 507.127 872.72 509.884 871.995 513.241 871.565 517.197 871.135 521.154 870.921 525.621 870.921 530.598 870.921 542.271 872.004 550.838 874.17 556.299 876.336 561.76 879.693 564.49 884.241 564.49 888.574 564.49 891.787 561.921 893.882 556.782 895.977 551.644 897.024 543.686 897.024 532.908 897.024 524.672 896.487 518.003 895.413 512.901 894.339 507.798 892.844 504.137 890.928 501.917 889.012 499.697 886.694 498.587 883.972 498.587ZM884.241 494.021C892.083 494.021 897.919 497.047 901.751 503.098 905.582 509.15 907.498 518.299 907.498 530.545 907.498 543.22 905.448 552.808 901.348 559.307 897.248 565.806 891.259 569.055 883.381 569.055 875.647 569.055 869.891 566.012 866.113 559.924 862.336 553.837 860.447 544.599 860.447 532.21 860.447 525.621 861.029 519.928 862.193 515.13 863.356 510.331 864.985 506.366 867.08 503.233 869.175 500.099 871.69 497.781 874.627 496.277 877.563 494.773 880.768 494.021 884.241 494.021Z" fill-rule="evenodd"/><text fill="#000000" fill-opacity="0" font-family="Arial,Arial_MSFontService,sans-serif" font-size="75.0342" x="860.447" y="559.676">0</text><path d="M662.514 1163.33C664.77 1163.33 666.552 1164.07 667.858 1165.56 669.165 1167.05 669.819 1168.99 669.819 1171.39 669.819 1173.29 669.389 1175.4 668.53 1177.73L669.174 1177.94C672.683 1173 676.023 1169.34 679.191 1166.96 682.36 1164.58 685.628 1163.38 688.994 1163.38 692.324 1163.38 694.884 1164.34 696.674 1166.26 698.465 1168.17 699.36 1170.83 699.36 1174.23 699.36 1176.49 698.841 1179.69 697.802 1183.85L694.311 1197.92C693.344 1201.82 692.861 1204.58 692.861 1206.19 692.861 1207.62 693.094 1208.66 693.559 1209.31 694.025 1209.95 694.759 1210.27 695.761 1210.27 696.836 1210.27 697.981 1209.84 699.199 1208.96 700.416 1208.08 702.135 1206.41 704.355 1203.94L707.417 1206.94C704.337 1210.24 701.652 1212.65 699.36 1214.17 697.068 1215.69 694.454 1216.45 691.518 1216.45 689.191 1216.45 687.329 1215.62 685.932 1213.95 684.536 1212.29 683.837 1210.17 683.837 1207.59 683.837 1205.26 684.428 1201.84 685.61 1197.33L687.973 1188.04C688.833 1184.67 689.397 1182.18 689.665 1180.57 689.934 1178.96 690.068 1177.65 690.068 1176.65 690.068 1174.18 689.656 1172.4 688.833 1171.31 688.009 1170.21 686.666 1169.67 684.804 1169.67 683.3 1169.67 681.68 1170.27 679.943 1171.47 678.207 1172.67 676.363 1174.48 674.411 1176.89 672.46 1179.31 670.893 1181.66 669.711 1183.93 668.53 1186.2 667.563 1189 666.811 1192.33L661.709 1215.59 652.417 1215.59 660.258 1181.54C661.046 1178.1 661.44 1175.45 661.44 1173.59 661.44 1172.16 661.207 1171.12 660.742 1170.47 660.276 1169.83 659.542 1169.51 658.54 1169.51 657.43 1169.51 656.257 1169.96 655.022 1170.88 653.786 1171.79 652.094 1173.45 649.946 1175.85L646.884 1172.84C650.179 1169.4 652.918 1166.96 655.102 1165.51 657.286 1164.06 659.757 1163.33 662.514 1163.33Z" fill-rule="evenodd"/><text fill="#000000" fill-opacity="0" font-family="Arial,Arial_MSFontService,sans-serif" font-size="53.1201" x="646.884" y="1209.81">𝑛</text><path d="M749.046 1191.74 815.218 1191.74 815.218 1198.89 749.046 1198.89ZM749.046 1169.45 815.218 1169.45 815.218 1176.6 749.046 1176.6Z" fill-rule="evenodd"/><text fill="#000000" fill-opacity="0" font-family="Arial,Arial_MSFontService,sans-serif" font-size="29.4336" x="749.046" y="1195.21">=</text><path d="M888.215 1141.42 891.17 1141.42C890.955 1144.85 890.847 1149.62 890.847 1155.7L890.847 1201.57C890.847 1203.65 890.964 1205.22 891.196 1206.27 891.429 1207.33 891.841 1208.19 892.432 1208.85 893.023 1209.51 893.873 1210.03 894.983 1210.41 896.093 1210.78 897.49 1211.07 899.172 1211.27 900.855 1211.46 903.076 1211.6 905.833 1211.67L905.833 1215.59 866.14 1215.59 866.14 1211.67C870.115 1211.49 872.953 1211.25 874.653 1210.95 876.354 1210.64 877.652 1210.18 878.547 1209.58 879.443 1208.97 880.096 1208.11 880.508 1207 880.92 1205.89 881.126 1204.08 881.126 1201.57L881.126 1158.01C881.126 1156.58 880.875 1155.53 880.374 1154.87 879.872 1154.21 879.138 1153.88 878.172 1153.88 877.026 1153.88 875.396 1154.47 873.284 1155.65 871.171 1156.83 868.557 1158.46 865.442 1160.54L863.079 1156.4Z" fill-rule="evenodd"/><text fill="#000000" fill-opacity="0" font-family="Arial,Arial_MSFontService,sans-serif" font-size="74.1748" x="863.079" y="1206.32">1</text><path d="M662.514 1814.16C664.77 1814.16 666.552 1814.91 667.858 1816.39 669.165 1817.88 669.819 1819.82 669.819 1822.22 669.819 1824.12 669.389 1826.23 668.53 1828.56L669.174 1828.77C672.683 1823.83 676.023 1820.17 679.191 1817.79 682.36 1815.41 685.628 1814.22 688.994 1814.22 692.324 1814.22 694.884 1815.18 696.674 1817.09 698.465 1819.01 699.36 1821.67 699.36 1825.07 699.36 1827.32 698.841 1830.53 697.802 1834.68L694.311 1848.75C693.344 1852.66 692.861 1855.41 692.861 1857.03 692.861 1858.46 693.094 1859.5 693.559 1860.14 694.025 1860.79 694.759 1861.11 695.761 1861.11 696.836 1861.11 697.981 1860.67 699.199 1859.79 700.416 1858.91 702.135 1857.24 704.355 1854.77L707.417 1857.78C704.337 1861.07 701.652 1863.48 699.36 1865 697.068 1866.52 694.454 1867.28 691.518 1867.28 689.191 1867.28 687.329 1866.45 685.932 1864.79 684.536 1863.12 683.837 1861 683.837 1858.42 683.837 1856.09 684.428 1852.68 685.61 1848.16L687.973 1838.87C688.833 1835.51 689.397 1833.02 689.665 1831.41 689.934 1829.79 690.068 1828.49 690.068 1827.48 690.068 1825.01 689.656 1823.23 688.833 1822.14 688.009 1821.05 686.666 1820.5 684.804 1820.5 683.3 1820.5 681.68 1821.1 679.943 1822.3 678.207 1823.5 676.363 1825.31 674.411 1827.73 672.46 1830.14 670.893 1832.49 669.711 1834.76 668.53 1837.04 667.563 1839.84 666.811 1843.17L661.709 1866.43 652.417 1866.43 660.258 1832.37C661.046 1828.93 661.44 1826.29 661.44 1824.42 661.44 1822.99 661.207 1821.95 660.742 1821.31 660.276 1820.66 659.542 1820.34 658.54 1820.34 657.43 1820.34 656.257 1820.8 655.022 1821.71 653.786 1822.62 652.094 1824.28 649.946 1826.68L646.884 1823.67C650.179 1820.23 652.918 1817.79 655.102 1816.34 657.286 1814.89 659.757 1814.16 662.514 1814.16Z" fill-rule="evenodd"/><text fill="#000000" fill-opacity="0" font-family="Arial,Arial_MSFontService,sans-serif" font-size="53.1201" x="646.884" y="1860.64">𝑛</text><path d="M749.046 1842.58 815.218 1842.58 815.218 1849.72 749.046 1849.72ZM749.046 1820.29 815.218 1820.29 815.218 1827.43 749.046 1827.43Z" fill-rule="evenodd"/><text fill="#000000" fill-opacity="0" font-family="Arial,Arial_MSFontService,sans-serif" font-size="29.4336" x="749.046" y="1846.04">=</text><path d="M884.402 1792.25C891.062 1792.25 896.093 1793.71 899.495 1796.63 902.896 1799.55 904.597 1803.78 904.597 1809.33 904.597 1811.23 904.409 1812.97 904.033 1814.57 903.657 1816.16 903.067 1817.74 902.261 1819.29 901.455 1820.85 900.372 1822.53 899.011 1824.32 897.651 1826.11 896.147 1827.92 894.5 1829.77 892.852 1831.61 890.006 1834.68 885.96 1838.98 879.156 1846.18 874.161 1852.46 870.974 1857.83L891.223 1857.83C892.978 1857.83 894.392 1857.72 895.466 1857.51 896.541 1857.29 897.4 1856.94 898.045 1856.43 898.689 1855.93 899.199 1855.28 899.575 1854.47 899.951 1853.67 900.426 1852.42 900.999 1850.74L905.564 1850.74 904.651 1866.43 860.447 1866.43 860.447 1863.85C861.987 1860.09 864.063 1856.24 866.677 1852.3 869.291 1848.36 872.997 1843.72 877.796 1838.39 881.949 1833.8 884.939 1830.33 886.765 1827.97 888.77 1825.39 890.265 1823.16 891.25 1821.28 892.235 1819.4 892.942 1817.63 893.372 1815.96 893.801 1814.3 894.016 1812.62 894.016 1810.94 894.016 1808.26 893.587 1805.88 892.727 1803.82 891.868 1801.77 890.552 1800.15 888.779 1798.96 887.007 1797.78 884.778 1797.19 882.092 1797.19 875.396 1797.19 870.885 1800.92 868.557 1808.36L862.058 1808.36 862.058 1798.05C866.391 1796.01 870.446 1794.53 874.224 1793.62 878.001 1792.71 881.394 1792.25 884.402 1792.25Z" fill-rule="evenodd"/><text fill="#000000" fill-opacity="0" font-family="Arial,Arial_MSFontService,sans-serif" font-size="74.1748" x="860.447" y="1857.15">2</text><path d="M692.5 902.625 711.371 902.625 711.371 733.5 738.629 733.5 738.629 902.625 757.5 902.625 725 958.5Z" stroke="#000000" stroke-width="3.4375" stroke-miterlimit="8" fill-rule="evenodd"/><path d="M692.5 1567.63 711.371 1567.63 711.371 1398.5 738.629 1398.5 738.629 1567.63 757.5 1567.63 725 1623.5Z" stroke="#000000" stroke-width="3.4375" stroke-miterlimit="8" fill-rule="evenodd"/></g></svg>