<svg width="2082" height="963" xmlns="http://www.w3.org/2000/svg" xmlns:xlink="http://www.w3.org/1999/xlink" xml:space="preserve" overflow="hidden"><defs><filter id="fx0" x="-10%" y="-10%" width="120%" height="120%" filterUnits="userSpaceOnUse" primitiveUnits="userSpaceOnUse"><feComponentTransfer color-interpolation-filters="sRGB"><feFuncR type="discrete" tableValues="0.752941 0.752941"/><feFuncG type="discrete" tableValues="0.752941 0.752941"/><feFuncB type="discrete" tableValues="0.752941 0.752941"/><feFuncA type="linear" slope="1" intercept="0"/></feComponentTransfer><feGaussianBlur stdDeviation="2.15621 2.15621"/></filter><filter id="fx1" x="-10%" y="-10%" width="120%" height="120%" filterUnits="userSpaceOnUse" primitiveUnits="userSpaceOnUse"><feComponentTransfer color-interpolation-filters="sRGB"><feFuncR type="discrete" tableValues="0.752941 0.752941"/><feFuncG type="discrete" tableValues="0.752941 0.752941"/><feFuncB type="discrete" tableValues="0.752941 0.752941"/><feFuncA type="linear" slope="1" intercept="0"/></feComponentTransfer><feGaussianBlur stdDeviation="2.15621 2.15621"/></filter><filter id="fx2" x="-10%" y="-10%" width="120%" height="120%" filterUnits="userSpaceOnUse" primitiveUnits="userSpaceOnUse"><feComponentTransfer color-interpolation-filters="sRGB"><feFuncR type="discrete" tableValues="0.752941 0.752941"/><feFuncG type="discrete" tableValues="0.752941 0.752941"/><feFuncB type="discrete" tableValues="0.752941 0.752941"/><feFuncA type="linear" slope="1" intercept="0"/></feComponentTransfer><feGaussianBlur stdDeviation="2.15621 2.15621"/></filter><filter id="fx3" x="-10%" y="-10%" width="120%" height="120%" filterUnits="userSpaceOnUse" primitiveUnits="userSpaceOnUse"><feComponentTransfer color-interpolation-filters="sRGB"><feFuncR type="discrete" tableValues="0.752941 0.752941"/><feFuncG type="discrete" tableValues="0.752941 0.752941"/><feFuncB type="discrete" tableValues="0.752941 0.752941"/><feFuncA type="linear" slope="1" intercept="0"/></feComponentTransfer><feGaussianBlur stdDeviation="2.15621 2.15621"/></filter><linearGradient x1="629.559" y1="1700.68" x2="1275.47" y2="1700.68" gradientUnits="userSpaceOnUse" spreadMethod="reflect" id="fill4"><stop offset="0" stop-color="#FFCCCC"/><stop offset="0.00735294" stop-color="#FECBCB"/><stop offset="0.0147059" stop-color="#FECBCB"/><stop offset="0.0220588" stop-color="#FECBCB"/><stop offset="0.0294118" stop-color="#FECBCB"/><stop offset="0.0367647" stop-color="#FECBCB"/><stop offset="0.0441176" stop-color="#FECBCB"/><stop offset="0.0514706" stop-color="#FECBCB"/><stop offset="0.0588235" stop-color="#FECBCB"/><stop offset="0.0661765" stop-color="#FECBCB"/><stop offset="0.0735294" stop-color="#FDCBCB"/><stop offset="0.0808824" stop-color="#FDCBCB"/><stop offset="0.0882353" stop-color="#FDCACA"/><stop offset="0.0955882" stop-color="#FDCACA"/><stop offset="0.102941" stop-color="#FDCACA"/><stop offset="0.110294" stop-color="#FCCACA"/><stop offset="0.117647" stop-color="#FCCACA"/><stop offset="0.125" stop-color="#FCC9C9"/><stop offset="0.132353" stop-color="#FBC9C9"/><stop offset="0.139706" stop-color="#FBC9C9"/><stop offset="0.147059" stop-color="#FBC8C8"/><stop offset="0.154412" stop-color="#FAC8C8"/><stop offset="0.161765" stop-color="#FAC8C8"/><stop offset="0.169118" stop-color="#FAC8C8"/><stop offset="0.176471" stop-color="#F9C7C7"/><stop offset="0.183824" stop-color="#F9C7C7"/><stop offset="0.191176" stop-color="#F8C7C7"/><stop offset="0.198529" stop-color="#F8C6C6"/><stop offset="0.205882" stop-color="#F7C6C6"/><stop offset="0.213235" stop-color="#F7C5C5"/><stop offset="0.220588" stop-color="#F6C5C5"/><stop offset="0.227941" stop-color="#F6C5C5"/><stop offset="0.235294" stop-color="#F5C4C4"/><stop offset="0.242647" stop-color="#F5C4C4"/><stop offset="0.25" stop-color="#F4C3C3"/><stop offset="0.257353" stop-color="#F4C3C3"/><stop offset="0.264706" stop-color="#F3C2C2"/><stop offset="0.272059" stop-color="#F3C2C2"/><stop offset="0.279412" stop-color="#F2C1C1"/><stop offset="0.286765" stop-color="#F1C1C1"/><stop offset="0.294118" stop-color="#F1C0C0"/><stop offset="0.301471" stop-color="#F0C0C0"/><stop offset="0.308824" stop-color="#EFBFBF"/><stop offset="0.316176" stop-color="#EFBFBF"/><stop offset="0.323529" stop-color="#EEBEBE"/><stop offset="0.330882" stop-color="#EDBEBE"/><stop offset="0.338235" stop-color="#EDBDBD"/><stop offset="0.345588" stop-color="#ECBCBC"/><stop offset="0.352941" stop-color="#EBBCBC"/><stop offset="0.360294" stop-color="#EABBBB"/><stop offset="0.367647" stop-color="#EABBBB"/><stop offset="0.375" stop-color="#E9BABA"/><stop offset="0.382353" stop-color="#E8B9B9"/><stop offset="0.389706" stop-color="#E7B9B9"/><stop offset="0.397059" stop-color="#E6B8B8"/><stop offset="0.404412" stop-color="#E5B7B7"/><stop offset="0.411765" stop-color="#E5B7B7"/><stop offset="0.419118" stop-color="#E4B6B6"/><stop offset="0.426471" stop-color="#E3B5B5"/><stop offset="0.433824" stop-color="#E2B5B5"/><stop offset="0.441176" stop-color="#E1B4B4"/><stop offset="0.448529" stop-color="#E0B3B3"/><stop offset="0.455882" stop-color="#DFB2B2"/><stop offset="0.463235" stop-color="#DEB2B2"/><stop offset="0.470588" stop-color="#DDB1B1"/><stop offset="0.477941" stop-color="#DCB0B0"/><stop offset="0.485294" stop-color="#DBAFAF"/><stop offset="0.492647" stop-color="#DAAEAE"/><stop offset="0.5" stop-color="#D9AEAE"/><stop offset="0.507353" stop-color="#D8ADAD"/><stop offset="0.514706" stop-color="#D7ACAC"/><stop offset="0.522059" stop-color="#D6ABAB"/><stop offset="0.529412" stop-color="#D5AAAA"/><stop offset="0.536765" stop-color="#D4A9A9"/><stop offset="0.544118" stop-color="#D3A8A8"/><stop offset="0.551471" stop-color="#D2A7A7"/><stop offset="0.558824" stop-color="#D0A7A7"/><stop offset="0.566176" stop-color="#CFA6A6"/><stop offset="0.573529" stop-color="#CEA5A5"/><stop offset="0.580882" stop-color="#CDA4A4"/><stop offset="0.588235" stop-color="#CCA3A3"/><stop offset="0.595588" stop-color="#CBA2A2"/><stop offset="0.602941" stop-color="#C9A1A1"/><stop offset="0.610294" stop-color="#C8A0A0"/><stop offset="0.617647" stop-color="#C79F9F"/><stop offset="0.625" stop-color="#C69E9E"/><stop offset="0.632353" stop-color="#C49D9D"/><stop offset="0.639706" stop-color="#C39C9C"/><stop offset="0.647059" stop-color="#C29B9B"/><stop offset="0.654412" stop-color="#C19A9A"/><stop offset="0.661765" stop-color="#BF9999"/><stop offset="0.669118" stop-color="#BE9898"/><stop offset="0.676471" stop-color="#BD9797"/><stop offset="0.683824" stop-color="#BB9696"/><stop offset="0.691176" stop-color="#BA9494"/><stop offset="0.698529" stop-color="#B99393"/><stop offset="0.705882" stop-color="#B79292"/><stop offset="0.713235" stop-color="#B69191"/><stop offset="0.720588" stop-color="#B49090"/><stop offset="0.727941" stop-color="#B38F8F"/><stop offset="0.735294" stop-color="#B28E8E"/><stop offset="0.742647" stop-color="#B08D8D"/><stop offset="0.75" stop-color="#AF8B8B"/><stop offset="0.757353" stop-color="#AD8A8A"/><stop offset="0.764706" stop-color="#AC8989"/><stop offset="0.772059" stop-color="#AA8888"/><stop offset="0.779412" stop-color="#A98787"/><stop offset="0.786765" stop-color="#A78585"/><stop offset="0.794118" stop-color="#A68484"/><stop offset="0.801471" stop-color="#A48383"/><stop offset="0.808824" stop-color="#A28282"/><stop offset="0.816176" stop-color="#A18080"/><stop offset="0.823529" stop-color="#9F7F7F"/><stop offset="0.830882" stop-color="#9E7E7E"/><stop offset="0.838235" stop-color="#9C7C7C"/><stop offset="0.845588" stop-color="#9A7B7B"/><stop offset="0.852941" stop-color="#997A7A"/><stop offset="0.860294" stop-color="#977979"/><stop offset="0.867647" stop-color="#967777"/><stop offset="0.875" stop-color="#947676"/><stop offset="0.882353" stop-color="#927575"/><stop offset="0.889706" stop-color="#907373"/><stop offset="0.897059" stop-color="#8F7272"/><stop offset="0.904412" stop-color="#8D7070"/><stop offset="0.911765" stop-color="#8B6F6F"/><stop offset="0.919118" stop-color="#8A6E6E"/><stop offset="0.926471" stop-color="#886C6C"/><stop offset="0.933824" stop-color="#866B6B"/><stop offset="0.941176" stop-color="#846969"/><stop offset="0.948529" stop-color="#826868"/><stop offset="0.955882" stop-color="#816666"/><stop offset="0.963235" stop-color="#7F6565"/><stop offset="0.970588" stop-color="#7D6363"/><stop offset="0.977941" stop-color="#7B6262"/><stop offset="0.985294" stop-color="#796161"/><stop offset="0.992647" stop-color="#775F5F"/><stop offset="1" stop-color="#765E5E"/></linearGradient><linearGradient x1="2054.56" y1="1700.68" x2="2700.47" y2="1700.68" gradientUnits="userSpaceOnUse" spreadMethod="reflect" id="fill5"><stop offset="0" stop-color="#FFCCCC"/><stop offset="0.00735294" stop-color="#FECBCB"/><stop offset="0.0147059" stop-color="#FECBCB"/><stop offset="0.0220588" stop-color="#FECBCB"/><stop offset="0.0294118" stop-color="#FECBCB"/><stop offset="0.0367647" stop-color="#FECBCB"/><stop offset="0.0441176" stop-color="#FECBCB"/><stop offset="0.0514706" stop-color="#FECBCB"/><stop offset="0.0588235" stop-color="#FECBCB"/><stop offset="0.0661765" stop-color="#FECBCB"/><stop offset="0.0735294" stop-color="#FDCBCB"/><stop offset="0.0808824" stop-color="#FDCBCB"/><stop offset="0.0882353" stop-color="#FDCACA"/><stop offset="0.0955882" stop-color="#FDCACA"/><stop offset="0.102941" stop-color="#FDCACA"/><stop offset="0.110294" stop-color="#FCCACA"/><stop offset="0.117647" stop-color="#FCCACA"/><stop offset="0.125" stop-color="#FCC9C9"/><stop offset="0.132353" stop-color="#FBC9C9"/><stop offset="0.139706" stop-color="#FBC9C9"/><stop offset="0.147059" stop-color="#FBC8C8"/><stop offset="0.154412" stop-color="#FAC8C8"/><stop offset="0.161765" stop-color="#FAC8C8"/><stop offset="0.169118" stop-color="#FAC8C8"/><stop offset="0.176471" stop-color="#F9C7C7"/><stop offset="0.183824" stop-color="#F9C7C7"/><stop offset="0.191176" stop-color="#F8C7C7"/><stop offset="0.198529" stop-color="#F8C6C6"/><stop offset="0.205882" stop-color="#F7C6C6"/><stop offset="0.213235" stop-color="#F7C5C5"/><stop offset="0.220588" stop-color="#F6C5C5"/><stop offset="0.227941" stop-color="#F6C5C5"/><stop offset="0.235294" stop-color="#F5C4C4"/><stop offset="0.242647" stop-color="#F5C4C4"/><stop offset="0.25" stop-color="#F4C3C3"/><stop offset="0.257353" stop-color="#F4C3C3"/><stop offset="0.264706" stop-color="#F3C2C2"/><stop offset="0.272059" stop-color="#F3C2C2"/><stop offset="0.279412" stop-color="#F2C1C1"/><stop offset="0.286765" stop-color="#F1C1C1"/><stop offset="0.294118" stop-color="#F1C0C0"/><stop offset="0.301471" stop-color="#F0C0C0"/><stop offset="0.308824" stop-color="#EFBFBF"/><stop offset="0.316176" stop-color="#EFBFBF"/><stop offset="0.323529" stop-color="#EEBEBE"/><stop offset="0.330882" stop-color="#EDBEBE"/><stop offset="0.338235" stop-color="#EDBDBD"/><stop offset="0.345588" stop-color="#ECBCBC"/><stop offset="0.352941" stop-color="#EBBCBC"/><stop offset="0.360294" stop-color="#EABBBB"/><stop offset="0.367647" stop-color="#EABBBB"/><stop offset="0.375" stop-color="#E9BABA"/><stop offset="0.382353" stop-color="#E8B9B9"/><stop offset="0.389706" stop-color="#E7B9B9"/><stop offset="0.397059" stop-color="#E6B8B8"/><stop offset="0.404412" stop-color="#E5B7B7"/><stop offset="0.411765" stop-color="#E5B7B7"/><stop offset="0.419118" stop-color="#E4B6B6"/><stop offset="0.426471" stop-color="#E3B5B5"/><stop offset="0.433824" stop-color="#E2B5B5"/><stop offset="0.441176" stop-color="#E1B4B4"/><stop offset="0.448529" stop-color="#E0B3B3"/><stop offset="0.455882" stop-color="#DFB2B2"/><stop offset="0.463235" stop-color="#DEB2B2"/><stop offset="0.470588" stop-color="#DDB1B1"/><stop offset="0.477941" stop-color="#DCB0B0"/><stop offset="0.485294" stop-color="#DBAFAF"/><stop offset="0.492647" stop-color="#DAAEAE"/><stop offset="0.5" stop-color="#D9AEAE"/><stop offset="0.507353" stop-color="#D8ADAD"/><stop offset="0.514706" stop-color="#D7ACAC"/><stop offset="0.522059" stop-color="#D6ABAB"/><stop offset="0.529412" stop-color="#D5AAAA"/><stop offset="0.536765" stop-color="#D4A9A9"/><stop offset="0.544118" stop-color="#D3A8A8"/><stop offset="0.551471" stop-color="#D2A7A7"/><stop offset="0.558824" stop-color="#D0A7A7"/><stop offset="0.566176" stop-color="#CFA6A6"/><stop offset="0.573529" stop-color="#CEA5A5"/><stop offset="0.580882" stop-color="#CDA4A4"/><stop offset="0.588235" stop-color="#CCA3A3"/><stop offset="0.595588" stop-color="#CBA2A2"/><stop offset="0.602941" stop-color="#C9A1A1"/><stop offset="0.610294" stop-color="#C8A0A0"/><stop offset="0.617647" stop-color="#C79F9F"/><stop offset="0.625" stop-color="#C69E9E"/><stop offset="0.632353" stop-color="#C49D9D"/><stop offset="0.639706" stop-color="#C39C9C"/><stop offset="0.647059" stop-color="#C29B9B"/><stop offset="0.654412" stop-color="#C19A9A"/><stop offset="0.661765" stop-color="#BF9999"/><stop offset="0.669118" stop-color="#BE9898"/><stop offset="0.676471" stop-color="#BD9797"/><stop offset="0.683824" stop-color="#BB9696"/><stop offset="0.691176" stop-color="#BA9494"/><stop offset="0.698529" stop-color="#B99393"/><stop offset="0.705882" stop-color="#B79292"/><stop offset="0.713235" stop-color="#B69191"/><stop offset="0.720588" stop-color="#B49090"/><stop offset="0.727941" stop-color="#B38F8F"/><stop offset="0.735294" stop-color="#B28E8E"/><stop offset="0.742647" stop-color="#B08D8D"/><stop offset="0.75" stop-color="#AF8B8B"/><stop offset="0.757353" stop-color="#AD8A8A"/><stop offset="0.764706" stop-color="#AC8989"/><stop offset="0.772059" stop-color="#AA8888"/><stop offset="0.779412" stop-color="#A98787"/><stop offset="0.786765" stop-color="#A78585"/><stop offset="0.794118" stop-color="#A68484"/><stop offset="0.801471" stop-color="#A48383"/><stop offset="0.808824" stop-color="#A28282"/><stop offset="0.816176" stop-color="#A18080"/><stop offset="0.823529" stop-color="#9F7F7F"/><stop offset="0.830882" stop-color="#9E7E7E"/><stop offset="0.838235" stop-color="#9C7C7C"/><stop offset="0.845588" stop-color="#9A7B7B"/><stop offset="0.852941" stop-color="#997A7A"/><stop offset="0.860294" stop-color="#977979"/><stop offset="0.867647" stop-color="#967777"/><stop offset="0.875" stop-color="#947676"/><stop offset="0.882353" stop-color="#927575"/><stop offset="0.889706" stop-color="#907373"/><stop offset="0.897059" stop-color="#8F7272"/><stop offset="0.904412" stop-color="#8D7070"/><stop offset="0.911765" stop-color="#8B6F6F"/><stop offset="0.919118" stop-color="#8A6E6E"/><stop offset="0.926471" stop-color="#886C6C"/><stop offset="0.933824" stop-color="#866B6B"/><stop offset="0.941176" stop-color="#846969"/><stop offset="0.948529" stop-color="#826868"/><stop offset="0.955882" stop-color="#816666"/><stop offset="0.963235" stop-color="#7F6565"/><stop offset="0.970588" stop-color="#7D6363"/><stop offset="0.977941" stop-color="#7B6262"/><stop offset="0.985294" stop-color="#796161"/><stop offset="0.992647" stop-color="#775F5F"/><stop offset="1" stop-color="#765E5E"/></linearGradient><clipPath id="clip6"><rect x="64" y="57" width="94" height="103"/></clipPath><clipPath id="clip7"><rect x="64" y="57" width="107" height="103"/></clipPath><clipPath id="clip8"><rect x="66" y="57" width="234" height="125"/></clipPath><clipPath id="clip9"><rect x="66" y="57" width="247" height="125"/></clipPath></defs><g transform="translate(-624 -1120)"><path d="M775.885 1365.99C865.808 1276 1119.54 1341.35 1194.57 1449.68 1269.61 1558.02 1316 1926.01 1226.08 2016.01 1136.15 2106 730.064 2097.98 655.032 1989.64 580 1881.3 685.961 1455.99 775.885 1365.99Z" stroke="#969696" stroke-width="10.3125" stroke-linejoin="round" stroke-miterlimit="10" fill="url(#fill4)" fill-rule="evenodd"/><path d="M2200.89 1365.99C2290.81 1276 2544.54 1341.35 2619.57 1449.68 2694.61 1558.02 2741 1926.01 2651.08 2016.01 2561.15 2106 2155.06 2097.98 2080.03 1989.64 2005 1881.3 2110.96 1455.99 2200.89 1365.99Z" stroke="#969696" stroke-width="10.3125" stroke-linejoin="round" stroke-miterlimit="10" fill="url(#fill5)" fill-rule="evenodd"/><g clip-path="url(#clip6)" filter="url(#fx0)" transform="translate(816 1482)"><g><path d="M0.805664 0 21.6455-29.6484 2.36328-57.041 14.4482-57.041 23.2031-43.667C24.8503-41.1247 26.1751-38.9941 27.1777-37.2754 28.7533-39.6387 30.2034-41.7334 31.5283-43.5596L41.1426-57.041 52.6904-57.041 32.9785-30.1855 54.1943 0 42.3242 0 30.6152-17.7246 27.5-22.5049 12.5146 0ZM61.6602-68.3203 61.6602-79.5459 72.0264-79.5459 72.0264-70.6836C72.0264-65.8854 71.4713-62.43 70.3613-60.3174 68.8216-57.417 66.4225-55.2327 63.1641-53.7646L60.8008-57.5781C62.7344-58.3659 64.1756-59.6102 65.1245-61.311 66.0734-63.0119 66.6016-65.3483 66.709-68.3203Z" transform="matrix(1 0 0 1 74.3031 148)"/></g></g><text font-family="Arial,Arial_MSFontService,sans-serif" font-weight="400" font-size="110" transform="matrix(1 0 0 1 885.729 1626)">x’</text><path d="M971.5 1597.5C971.5 1588.66 978.663 1581.5 987.5 1581.5 996.336 1581.5 1003.5 1588.66 1003.5 1597.5 1003.5 1606.34 996.336 1613.5 987.5 1613.5 978.663 1613.5 971.5 1606.34 971.5 1597.5Z" stroke="#000000" stroke-width="3.4375" stroke-linejoin="round" stroke-miterlimit="10" fill="#FFFFFF" fill-rule="evenodd"/><path d="M1047.5 1912.5C1047.5 1903.66 1054.66 1896.5 1063.5 1896.5 1072.34 1896.5 1079.5 1903.66 1079.5 1912.5 1079.5 1921.34 1072.34 1928.5 1063.5 1928.5 1054.66 1928.5 1047.5 1921.34 1047.5 1912.5Z" stroke="#000000" stroke-width="3.4375" stroke-linejoin="round" stroke-miterlimit="10" fill="#FFFFFF" fill-rule="evenodd"/><path d="M2289.5 1662C2289.5 1652.89 2296.66 1645.5 2305.5 1645.5 2314.34 1645.5 2321.5 1652.89 2321.5 1662 2321.5 1671.11 2314.34 1678.5 2305.5 1678.5 2296.66 1678.5 2289.5 1671.11 2289.5 1662Z" stroke="#000000" stroke-width="3.4375" stroke-linejoin="round" stroke-miterlimit="10" fill="#FFFFFF" fill-rule="evenodd"/><path d="M2289.5 1816.5C2289.5 1807.66 2296.66 1800.5 2305.5 1800.5 2314.34 1800.5 2321.5 1807.66 2321.5 1816.5 2321.5 1825.34 2314.34 1832.5 2305.5 1832.5 2296.66 1832.5 2289.5 1825.34 2289.5 1816.5Z" stroke="#000000" stroke-width="3.4375" stroke-linejoin="round" stroke-miterlimit="10" fill="#FFFFFF" fill-rule="evenodd"/><g clip-path="url(#clip7)" filter="url(#fx1)" transform="translate(876 1799)"><g><path d="M0.805664 0 21.6455-29.6484 2.36328-57.041 14.4482-57.041 23.2031-43.667C24.8503-41.1247 26.1751-38.9941 27.1777-37.2754 28.7533-39.6387 30.2034-41.7334 31.5283-43.5596L41.1426-57.041 52.6904-57.041 32.9785-30.1855 54.1943 0 42.3242 0 30.6152-17.7246 27.5-22.5049 12.5146 0ZM59.6728-68.3203 59.6728-79.5459 70.0391-79.5459 70.0391-70.6836C70.039-65.8854 69.484-62.43 68.374-60.3174 66.8343-57.417 64.4352-55.2327 61.1768-53.7646L58.8135-57.5781C60.7471-58.3659 62.1883-59.6102 63.1372-61.311 64.0861-63.0119 64.6142-65.3483 64.7217-68.3203ZM76.3232-68.3203 76.3232-79.5459 86.6894-79.5459 86.6894-70.6836C86.6894-65.8854 86.1344-62.43 85.0244-60.3174 83.4847-57.417 81.0856-55.2327 77.8271-53.7646L75.4639-57.5781C77.3975-58.3659 78.8387-59.6102 79.7876-61.311 80.7365-63.0119 81.2646-65.3483 81.3721-68.3203Z" transform="matrix(1 0 0 1 73.8865 148)"/></g></g><text font-family="Arial,Arial_MSFontService,sans-serif" font-weight="400" font-size="110" transform="matrix(1 0 0 1 945.312 1942)">x”</text><path d="M984.5 1598.5 1062.5 1911.5" stroke="#000000" stroke-width="3.4375" stroke-linejoin="round" stroke-miterlimit="10" stroke-dasharray="13.75 10.3125" fill="none" fill-rule="evenodd"/><g clip-path="url(#clip8)" filter="url(#fx2)" transform="translate(2268 1547)"><g><path d="M28.5205 0 28.5205-69.4482 2.57812-69.4482 2.57812-78.7402 64.9902-78.7402 64.9902-69.4482 38.9404-69.4482 38.9404 0ZM92.7588 23.1494C87.4235 16.4176 82.9118 8.54004 79.2236-0.483398 75.5355-9.50683 73.6914-18.8525 73.6914-28.5205 73.6914-37.0426 75.07-45.2067 77.8271-53.0127 81.0498-62.0719 86.027-71.0954 92.7588-80.083L99.6875-80.083C95.3548-72.6351 92.4902-67.3177 91.0937-64.1309 88.9095-59.1894 87.1908-54.0332 85.9375-48.6621 84.3978-41.9661 83.6279-35.2344 83.6279-28.4668 83.6279-11.2435 88.9811 5.96191 99.6875 23.1494ZM104.504 0 125.343-29.6484 106.061-57.041 118.146-57.041 126.901-43.667C128.548-41.1247 129.873-38.9941 130.876-37.2754 132.451-39.6387 133.901-41.7334 135.226-43.5596L144.84-57.041 156.388-57.041 136.676-30.1855 157.892 0 146.022 0 134.313-17.7246 131.198-22.5049 116.213 0ZM165.358-68.3203 165.358-79.5459 175.724-79.5459 175.724-70.6836C175.724-65.8854 175.169-62.43 174.059-60.3174 172.52-57.417 170.12-55.2327 166.862-53.7646L164.499-57.5781C166.432-58.3659 167.874-59.6102 168.822-61.311 169.771-63.0119 170.299-65.3483 170.407-68.3203ZM196.922 23.1494 189.993 23.1494C200.7 5.96191 206.053-11.2435 206.053-28.4668 206.053-35.1986 205.283-41.8766 203.743-48.501 202.526-53.8721 200.825-59.0283 198.641-63.9697 197.244-67.1924 194.362-72.5635 189.993-80.083L196.922-80.083C203.654-71.0954 208.631-62.0719 211.854-53.0127 214.611-45.2067 215.99-37.0426 215.99-28.5205 215.99-18.8525 214.137-9.50683 210.43-0.483398 206.724 8.54004 202.222 16.4176 196.922 23.1494Z" transform="matrix(1 0 0 1 73.5012 148)"/></g></g><text font-family="Arial,Arial_MSFontService,sans-serif" font-weight="400" font-size="110" transform="matrix(1 0 0 1 2336.93 1691)">T(x’)</text><g clip-path="url(#clip9)" filter="url(#fx3)" transform="translate(2273 1712)"><g><path d="M28.5205 0 28.5205-69.4482 2.57812-69.4482 2.57812-78.7402 64.9902-78.7402 64.9902-69.4482 38.9404-69.4482 38.9404 0ZM92.7588 23.1494C87.4235 16.4176 82.9118 8.54004 79.2236-0.483398 75.5355-9.50683 73.6914-18.8525 73.6914-28.5205 73.6914-37.0426 75.07-45.2067 77.8271-53.0127 81.0498-62.0719 86.027-71.0954 92.7588-80.083L99.6875-80.083C95.3548-72.6351 92.4902-67.3177 91.0937-64.1309 88.9095-59.1894 87.1908-54.0332 85.9375-48.6621 84.3978-41.9661 83.6279-35.2344 83.6279-28.4668 83.6279-11.2435 88.9811 5.96191 99.6875 23.1494ZM104.504 0 125.343-29.6484 106.061-57.041 118.146-57.041 126.901-43.667C128.548-41.1247 129.873-38.9941 130.876-37.2754 132.451-39.6387 133.901-41.7334 135.226-43.5596L144.84-57.041 156.388-57.041 136.676-30.1855 157.892 0 146.022 0 134.313-17.7246 131.198-22.5049 116.213 0ZM163.371-68.3203 163.371-79.5459 173.737-79.5459 173.737-70.6836C173.737-65.8854 173.182-62.43 172.072-60.3174 170.532-57.417 168.133-55.2327 164.875-53.7646L162.511-57.5781C164.445-58.3659 165.886-59.6102 166.835-61.311 167.784-63.0119 168.312-65.3483 168.42-68.3203ZM180.021-68.3203 180.021-79.5459 190.387-79.5459 190.387-70.6836C190.387-65.8854 189.832-62.43 188.722-60.3174 187.183-57.417 184.784-55.2327 181.525-53.7646L179.162-57.5781C181.095-58.3659 182.537-59.6102 183.486-61.311 184.434-63.0119 184.963-65.3483 185.07-68.3203ZM208.953 23.1494 202.025 23.1494C212.731 5.96191 218.084-11.2435 218.084-28.4668 218.084-35.1986 217.314-41.8766 215.775-48.501 214.557-53.8721 212.856-59.0283 210.672-63.9697 209.276-67.1924 206.393-72.5635 202.025-80.083L208.953-80.083C215.685-71.0954 220.662-62.0719 223.885-53.0127 226.642-45.2067 228.021-37.0426 228.021-28.5205 228.021-18.8525 226.168-9.50683 222.462-0.483398 218.756 8.54004 214.253 16.4176 208.953 23.1494Z" transform="matrix(1 0 0 1 74.2302 148)"/></g></g><text font-family="Arial,Arial_MSFontService,sans-serif" font-weight="400" font-size="110" transform="matrix(1 0 0 1 2342.66 1856)">T(x”)</text><path d="M2305.5 1660.5 2305.5 1815.5" stroke="#000000" stroke-width="3.4375" stroke-linejoin="round" stroke-miterlimit="10" stroke-dasharray="13.75 10.3125" fill="none" fill-rule="evenodd"/><path d="M984.311 1596.86 992.332 1595.97 1001.31 1594.94 1011.2 1593.76 1021.95 1592.46 1033.51 1591.03 1045.83 1589.49 1058.86 1587.86 1072.54 1586.14 1086.83 1584.33 1101.68 1582.47 1117.02 1580.54 1132.82 1578.57 1149.02 1576.56 1165.56 1574.52 1199.49 1570.41 1234.21 1566.32 1269.29 1562.33 1304.34 1558.53 1338.93 1555 1372.67 1551.83 1389.1 1550.39 1405.15 1549.08 1420.79 1547.9 1435.95 1546.86 1450.6 1545.97 1464.67 1545.24 1491.8 1544.02 1518.22 1542.98 1544.01 1542.12 1569.27 1541.46 1594.09 1541.04 1618.56 1540.85 1666.79 1541.29 1714.72 1542.95 1738.81 1544.28 1763.07 1545.97 1787.62 1548.04 1812.54 1550.51 1837.92 1553.39 1863.86 1556.72 1877.19 1558.62 1890.9 1560.76 1919.28 1565.68 1948.76 1571.37 1979.05 1577.69 2009.87 1584.53 2040.96 1591.77 2072.03 1599.28 2102.82 1606.93 2133.05 1614.62 2162.44 1622.2 2190.73 1629.57 2204.37 1633.14 2217.63 1636.6 2230.48 1639.94 2242.87 1643.16 2254.79 1646.23 2266.18 1649.13 2277.03 1651.86 2283.63 1653.46 2282.81 1656.8 2276.19 1655.19 2265.33 1652.46 2253.93 1649.56 2242.01 1646.49 2229.61 1643.27 2216.76 1639.92 2203.5 1636.46 2189.86 1632.9 2161.59 1625.53 2132.2 1617.95 2101.99 1610.27 2071.23 1602.62 2040.18 1595.12 2009.13 1587.89 1978.35 1581.06 1948.11 1574.74 1918.7 1569.07 1890.37 1564.15 1876.7 1562.02 1863.42 1560.13 1837.53 1556.81 1812.2 1553.93 1787.33 1551.46 1762.83 1549.4 1738.62 1547.71 1714.6 1546.38 1666.76 1544.73 1618.58 1544.29 1594.15 1544.47 1569.36 1544.9 1544.12 1545.55 1518.35 1546.41 1491.96 1547.46 1464.85 1548.67 1450.81 1549.4 1436.19 1550.29 1421.05 1551.33 1405.43 1552.51 1389.4 1553.82 1372.99 1555.25 1339.28 1558.42 1304.71 1561.95 1269.68 1565.75 1234.61 1569.73 1199.91 1573.82 1165.98 1577.93 1149.44 1579.97 1133.24 1581.98 1117.45 1583.95 1102.11 1585.88 1087.26 1587.74 1072.97 1589.55 1059.29 1591.27 1046.26 1592.9 1033.93 1594.44 1022.36 1595.87 1011.6 1597.17 1001.7 1598.35 992.709 1599.39 984.689 1600.27ZM2281.98 1640.69 2305.5 1660.5 2275.54 1667.43Z"/><path d="M1062.19 1909.81 1062.41 1909.77 1063.09 1909.64 1064.2 1909.44 1065.73 1909.15 1067.68 1908.79 1070.04 1908.36 1072.78 1907.85 1075.9 1907.28 1083.24 1905.93 1091.97 1904.33 1102 1902.5 1113.23 1900.46 1125.58 1898.22 1138.96 1895.8 1153.28 1893.23 1168.45 1890.51 1184.38 1887.68 1200.99 1884.73 1218.17 1881.7 1235.85 1878.61 1253.92 1875.46 1272.32 1872.28 1309.69 1865.9 1347.24 1859.6 1384.25 1853.54 1402.34 1850.65 1420.03 1847.87 1437.22 1845.22 1453.84 1842.72 1469.78 1840.38 1484.97 1838.23 1499.31 1836.29 1512.72 1834.57 1538.17 1831.48 1562.98 1828.62 1587.22 1825.99 1610.99 1823.56 1634.36 1821.33 1657.42 1819.3 1702.92 1815.75 1748.16 1812.85 1793.78 1810.52 1816.95 1809.53 1840.46 1808.66 1864.39 1807.88 1888.83 1807.2 1901.38 1806.92 1914.3 1806.7 1941.05 1806.47 1968.85 1806.46 1997.42 1806.67 2026.5 1807.04 2055.83 1807.56 2085.16 1808.19 2114.21 1808.91 2142.73 1809.68 2170.45 1810.47 2197.12 1811.26 2209.98 1811.64 2222.48 1812.01 2234.58 1812.36 2246.26 1812.69 2257.48 1813 2268.2 1813.28 2282.63 1813.6 2282.55 1817.04 2268.11 1816.71 2257.39 1816.44 2246.16 1816.13 2234.49 1815.8 2222.38 1815.45 2209.88 1815.08 2197.02 1814.7 2170.35 1813.91 2142.63 1813.12 2114.12 1812.35 2085.08 1811.63 2055.77 1811 2026.46 1810.48 1997.4 1810.1 1968.85 1809.9 1941.09 1809.9 1914.35 1810.14 1901.46 1810.35 1888.92 1810.64 1864.5 1811.32 1840.58 1812.09 1817.09 1812.97 1793.96 1813.95 1748.38 1816.28 1703.19 1819.18 1657.72 1822.72 1634.69 1824.75 1611.34 1826.98 1587.59 1829.4 1563.37 1832.04 1538.58 1834.89 1513.16 1837.98 1499.77 1839.7 1485.45 1841.64 1470.28 1843.78 1454.35 1846.11 1437.75 1848.61 1420.56 1851.26 1402.89 1854.04 1384.81 1856.94 1347.8 1862.99 1310.26 1869.28 1272.9 1875.67 1254.51 1878.84 1236.44 1881.99 1218.77 1885.09 1201.59 1888.12 1184.99 1891.06 1169.06 1893.9 1153.89 1896.61 1139.57 1899.19 1126.2 1901.6 1113.85 1903.84 1102.62 1905.88 1092.59 1907.71 1083.87 1909.31 1076.52 1910.66 1073.4 1911.23 1070.66 1911.74 1068.31 1912.17 1066.36 1912.53 1064.83 1912.82 1063.72 1913.02 1063.04 1913.15 1062.81 1913.19ZM2278.27 1801.49 2305.5 1815.76 2277.74 1828.98Z"/><text font-family="Arial,Arial_MSFontService,sans-serif" font-weight="700" font-size="110" transform="matrix(1 0 0 1 874.271 1260)">X</text><text font-family="Arial,Arial_MSFontService,sans-serif" font-weight="700" font-size="110" transform="matrix(1 0 0 1 2266.46 1260)">X</text></g></svg>