<svg width="2034" height="858" xmlns="http://www.w3.org/2000/svg" xmlns:xlink="http://www.w3.org/1999/xlink" xml:space="preserve" overflow="hidden"><g transform="translate(-633 -818)"><path d="M1372 1460 1004.71 823 638 1460 1372 1460Z" stroke="#0000FF" stroke-width="10.3125" stroke-linejoin="round" stroke-miterlimit="10" fill="#E8EEF7" fill-rule="evenodd"/><path d="M1372 1460 1004.71 823 638 1460 1372 1460Z" stroke="#0000FF" stroke-width="1.71893" stroke-linecap="round" stroke-linejoin="round" stroke-miterlimit="10" fill="none" fill-rule="evenodd"/><path d="M2148.19 1459.14 2276.5 1671 2404.81 1459.14 2662 1459.14 2533.69 1246.71 2662 1034.86 2404.81 1034.86 2276.5 823 2148.19 1034.86 1891 1034.86 2019.88 1246.71 1891 1459.14 2148.19 1459.14Z" fill="#E8EEF7" fill-rule="evenodd"/><path d="M2148.19 1459.14 2276.5 1671 2404.81 1459.14 2662 1459.14 2533.69 1246.71 2662 1034.86 2404.81 1034.86 2276.5 823 2148.19 1034.86 1891 1034.86 2019.88 1246.71 1891 1459.14 2148.19 1459.14Z" stroke="#0000FF" stroke-width="10.3125" stroke-linecap="round" stroke-linejoin="round" stroke-miterlimit="10" fill="none" fill-rule="evenodd"/><path d="M1474.5 1197.58 1743.89 1197.58 1743.89 1176.5 1826.5 1223.5 1743.89 1270.5 1743.89 1249.42 1474.5 1249.42Z" stroke="#000000" stroke-width="3.4375" stroke-miterlimit="8" fill-rule="evenodd"/></g></svg>