<svg width="2630" height="1065" xmlns="http://www.w3.org/2000/svg" xmlns:xlink="http://www.w3.org/1999/xlink" xml:space="preserve" overflow="hidden"><defs><clipPath id="clip0"><rect x="455" y="1189" width="2630" height="1065"/></clipPath></defs><g clip-path="url(#clip0)" transform="translate(-455 -1189)"><path d="M455 1718.12 1437.62 1718.13 1437.62 1731.88 455 1731.87ZM1430.75 1704.38 1472 1725 1430.75 1745.63Z"/><path d="M6.875-2.42773e-06 6.87535 987.625-6.87465 987.625-6.875 2.42773e-06ZM20.6253 980.75 0.000360892 1022-20.6247 980.75Z" transform="matrix(1 0 0 -1 943 2254)"/><path d="M1331.84 1481.08 1321.08 1472.74 1310.24 1465.19 1299.19 1458.38 1287.97 1452.42 1276.63 1447.38 1265.21 1443.37 1253.75 1440.48 1242.31 1438.78 1230.9 1438.37 1225.38 1438.66 1219.72 1439.3 1214.09 1440.3 1208.47 1441.67 1202.88 1443.43 1197.31 1445.59 1191.77 1448.15 1186.25 1451.15 1180.76 1454.59 1171.94 1461.74 1165.47 1453.71 1175.3 1445.83 1181.35 1442.08 1187.45 1438.79 1193.61 1435.96 1199.81 1433.59 1206.04 1431.65 1212.3 1430.14 1218.58 1429.05 1224.87 1428.36 1231.3 1428.06 1243.84 1428.58 1256.3 1430.48 1268.64 1433.65 1280.82 1437.96 1292.82 1443.32 1304.61 1449.61 1316.14 1456.73 1327.4 1464.59 1338.16 1472.92ZM1183.09 1465.4 1150 1475.47 1161.8 1442.95Z" fill="#0000FF"/><path d="M1369.98 1734.22 1376.98 1727.73 1382.97 1721.16 1388.29 1714.26 1392.96 1707.07 1397.01 1699.59 1400.45 1691.84 1403.31 1683.86 1405.59 1675.65 1407.32 1667.25 1408.51 1658.67 1409.17 1649.95 1409.33 1641.1 1408.99 1632.16 1408.18 1623.15 1406.9 1614.09 1405.18 1605.03 1403.02 1595.97 1400.46 1586.96 1397.51 1578.02 1394.17 1569.18 1386.41 1551.81 1377.4 1535.27 1367.25 1519.68 1356.12 1505.26 1349.71 1498.56 1357.18 1491.46 1364.29 1498.97 1375.9 1514.06 1386.46 1530.34 1395.83 1547.61 1403.83 1565.55 1407.3 1574.79 1410.38 1584.15 1413.06 1593.59 1415.31 1603.11 1417.11 1612.66 1418.45 1622.22 1419.3 1631.78 1419.64 1641.29 1419.45 1650.74 1418.72 1660.1 1417.42 1669.34 1415.52 1678.43 1413.01 1687.35 1409.87 1696.05 1406.07 1704.51 1401.6 1712.7 1396.44 1720.58 1390.57 1728.12 1383.99 1735.29 1376.99 1741.78ZM1346.33 1509.68 1335 1477 1367.94 1487.54Z" fill="#0000FF"/><path d="M951.764 1729.65 965.301 1738.24 978.821 1746.24 992.444 1753.72 1006.16 1760.7 1019.94 1767.15 1033.79 1773.08 1047.69 1778.49 1061.61 1783.37 1075.56 1787.72 1089.52 1791.54 1103.46 1794.82 1117.39 1797.56 1131.28 1799.75 1145.12 1801.41 1158.9 1802.51 1172.6 1803.06 1186.22 1803.06 1199.73 1802.51 1213.12 1801.39 1226.39 1799.71 1239.51 1797.47 1252.47 1794.65 1265.27 1791.27 1277.89 1787.31 1290.31 1782.77 1302.53 1777.66 1314.52 1771.96 1326.28 1765.67 1337.8 1758.79 1350.54 1749.94 1356.42 1758.41 1343.09 1767.64 1331.14 1774.76 1318.94 1781.27 1306.51 1787.17 1293.84 1792.46 1280.97 1797.15 1267.91 1801.24 1254.66 1804.73 1241.24 1807.63 1227.68 1809.94 1213.97 1811.67 1200.15 1812.81 1186.21 1813.38 1172.18 1813.37 1158.07 1812.79 1143.9 1811.65 1129.66 1809.94 1115.4 1807.67 1101.1 1804.85 1086.79 1801.48 1072.49 1797.56 1058.2 1793.1 1043.94 1788.1 1029.73 1782.56 1015.57 1776.49 1001.48 1769.89 987.476 1762.76 973.569 1755.11 959.774 1746.95 946.237 1738.35ZM1340.01 1744.98 1374 1738.57 1358.74 1769.61Z" fill="#0000FF"/><path d="M932.5 1725C932.5 1718.65 937.425 1713.5 943.5 1713.5 949.575 1713.5 954.5 1718.65 954.5 1725 954.5 1731.35 949.575 1736.5 943.5 1736.5 937.425 1736.5 932.5 1731.35 932.5 1725Z" stroke="#000000" stroke-width="3.4375" stroke-linejoin="round" stroke-miterlimit="10" fill="#FFFFFF" fill-rule="evenodd"/><path d="M1362.5 1739C1362.5 1732.65 1367.65 1727.5 1374 1727.5 1380.35 1727.5 1385.5 1732.65 1385.5 1739 1385.5 1745.35 1380.35 1750.5 1374 1750.5 1367.65 1750.5 1362.5 1745.35 1362.5 1739Z" stroke="#000000" stroke-width="3.4375" stroke-linejoin="round" stroke-miterlimit="10" fill="#FFFFFF" fill-rule="evenodd"/><path d="M1324.5 1477.5C1324.5 1471.42 1329.65 1466.5 1336 1466.5 1342.35 1466.5 1347.5 1471.42 1347.5 1477.5 1347.5 1483.57 1342.35 1488.5 1336 1488.5 1329.65 1488.5 1324.5 1483.57 1324.5 1477.5Z" stroke="#000000" stroke-width="3.4375" stroke-linejoin="round" stroke-miterlimit="10" fill="#FFFFFF" fill-rule="evenodd"/><path d="M1139.5 1477.5C1139.5 1471.42 1144.65 1466.5 1151 1466.5 1157.35 1466.5 1162.5 1471.42 1162.5 1477.5 1162.5 1483.57 1157.35 1488.5 1151 1488.5 1144.65 1488.5 1139.5 1483.57 1139.5 1477.5Z" stroke="#000000" stroke-width="3.4375" stroke-linejoin="round" stroke-miterlimit="10" fill="#FFFFFF" fill-rule="evenodd"/><path d="M1849 1718.12 2830.62 1718.13 2830.62 1731.88 1849 1731.87ZM2823.75 1704.38 2865 1725 2823.75 1745.63Z"/><path d="M6.875-2.42773e-06 6.87535 987.625-6.87465 987.625-6.875 2.42773e-06ZM20.6253 980.75 0.000360892 1022-20.6247 980.75Z" transform="matrix(1 0 0 -1 2336 2254)"/><text font-family="Arial,Arial_MSFontService,sans-serif" font-weight="400" font-size="92" transform="matrix(1 0 0 1 847.917 1816)">z</text><text font-family="Arial,Arial_MSFontService,sans-serif" font-weight="400" font-size="61" transform="matrix(1 0 0 1 893.75 1838)">0</text><text font-family="Arial,Arial_MSFontService,sans-serif" font-weight="400" font-size="92" transform="matrix(1 0 0 1 1388.18 1818)">z</text><text font-family="Arial,Arial_MSFontService,sans-serif" font-weight="400" font-size="61" transform="matrix(1 0 0 1 1434.01 1840)">1</text><text font-family="Arial,Arial_MSFontService,sans-serif" font-weight="400" font-size="92" transform="matrix(1 0 0 1 1343.49 1445)">z</text><text font-family="Arial,Arial_MSFontService,sans-serif" font-weight="400" font-size="61" transform="matrix(1 0 0 1 1389.32 1467)">2</text><text font-family="Arial,Arial_MSFontService,sans-serif" font-weight="400" font-size="92" transform="matrix(1 0 0 1 1059.9 1438)">z</text><text font-family="Arial,Arial_MSFontService,sans-serif" font-weight="400" font-size="61" transform="matrix(1 0 0 1 1105.73 1460)">3</text><path d="M2845.74 1707.09 2859.98 1686.26 2866.49 1675.58 2872.78 1664.44 2878.81 1652.83 2884.61 1640.71 2890.19 1628.01 2895.58 1614.67 2900.8 1600.64 2905.86 1585.85 2910.78 1570.24 2915.58 1553.75 2920.28 1536.33 2924.9 1517.92 2928.34 1503 2938.39 1505.32 2934.9 1520.43 2930.23 1539.02 2925.48 1556.63 2920.61 1573.34 2915.61 1589.18 2910.46 1604.23 2905.14 1618.54 2899.63 1632.17 2893.91 1645.16 2887.96 1657.59 2881.76 1669.5 2875.29 1680.96 2868.49 1692.08 2854.26 1712.91ZM2917.14 1505.81 2939 1479 2947.33 1512.57Z" fill="#0000FF"/><path d="M2691.31 1805.13 2714.33 1797.17 2736.36 1788.41 2757.46 1778.6 2767.56 1773.28 2777.47 1767.58 2787.1 1761.52 2796.45 1755.08 2805.5 1748.22 2814.25 1740.92 2822.67 1733.15 2829.3 1725.96 2836.87 1732.95 2829.66 1740.74 2820.85 1748.84 2811.73 1756.44 2802.3 1763.57 2792.59 1770.26 2782.61 1776.52 2772.37 1782.4 2761.81 1787.95 2740.17 1797.99 2717.7 1806.91 2694.69 1814.87ZM2818.03 1723.2 2850 1710 2841.37 1743.5Z" fill="#0000FF"/><path d="M2505.72 1817 2519.18 1818.9 2532.13 1820.49 2544.66 1821.77 2556.84 1822.73 2580.37 1823.66 2591.66 1823.59 2602.84 1823.16 2613.89 1822.35 2624.85 1821.15 2635.77 1819.55 2646.7 1817.54 2657.67 1815.11 2666.92 1812.49 2669.72 1822.42 2659.9 1825.18 2648.56 1827.69 2637.26 1829.76 2625.97 1831.4 2614.64 1832.63 2603.24 1833.46 2591.72 1833.9 2579.96 1833.96 2556.03 1833.01 2543.61 1832.03 2530.87 1830.72 2517.74 1829.11 2504.28 1827.21ZM2658.91 1804.14 2693 1810 2667.86 1833.76Z" fill="#0000FF"/><path d="M2341.74 1722.45 2358.56 1740.21 2367.04 1748.39 2375.76 1756.24 2384.7 1763.69 2393.88 1770.74 2403.33 1777.38 2413.09 1783.6 2423.18 1789.39 2433.64 1794.73 2444.51 1799.63 2455.8 1804.06 2467.55 1808.01 2481.11 1811.52 2478.51 1821.5 2464.26 1817.79 2452.03 1813.66 2440.26 1809.03 2428.95 1803.91 2418.05 1798.33 2407.54 1792.3 2397.4 1785.82 2387.59 1778.92 2378.09 1771.61 2368.86 1763.9 2359.88 1755.81 2351.07 1747.3 2334.26 1729.55ZM2478.06 1800.3 2505 1822 2471.48 1830.53Z" fill="#0000FF"/><path d="M2326.5 1723C2326.5 1716.65 2331.65 1711.5 2338 1711.5 2344.35 1711.5 2349.5 1716.65 2349.5 1723 2349.5 1729.35 2344.35 1734.5 2338 1734.5 2331.65 1734.5 2326.5 1729.35 2326.5 1723Z" stroke="#000000" stroke-width="3.4375" stroke-linejoin="round" stroke-miterlimit="10" fill="#FFFFFF" fill-rule="evenodd"/><path d="M2494.5 1822C2494.5 1815.65 2499.65 1810.5 2506 1810.5 2512.35 1810.5 2517.5 1815.65 2517.5 1822 2517.5 1828.35 2512.35 1833.5 2506 1833.5 2499.65 1833.5 2494.5 1828.35 2494.5 1822Z" stroke="#000000" stroke-width="3.4375" stroke-linejoin="round" stroke-miterlimit="10" fill="#FFFFFF" fill-rule="evenodd"/><path d="M2682.5 1810C2682.5 1803.65 2687.65 1798.5 2694 1798.5 2700.35 1798.5 2705.5 1803.65 2705.5 1810 2705.5 1816.35 2700.35 1821.5 2694 1821.5 2687.65 1821.5 2682.5 1816.35 2682.5 1810Z" stroke="#000000" stroke-width="3.4375" stroke-linejoin="round" stroke-miterlimit="10" fill="#FFFFFF" fill-rule="evenodd"/><path d="M2839.5 1710C2839.5 1703.65 2844.65 1698.5 2851 1698.5 2857.35 1698.5 2862.5 1703.65 2862.5 1710 2862.5 1716.35 2857.35 1721.5 2851 1721.5 2844.65 1721.5 2839.5 1716.35 2839.5 1710Z" stroke="#000000" stroke-width="3.4375" stroke-linejoin="round" stroke-miterlimit="10" fill="#FFFFFF" fill-rule="evenodd"/><path d="M2928.5 1480C2928.5 1473.65 2933.65 1468.5 2940 1468.5 2946.35 1468.5 2951.5 1473.65 2951.5 1480 2951.5 1486.35 2946.35 1491.5 2940 1491.5 2933.65 1491.5 2928.5 1486.35 2928.5 1480Z" stroke="#000000" stroke-width="3.4375" stroke-linejoin="round" stroke-miterlimit="10" fill="#FFFFFF" fill-rule="evenodd"/><text font-family="Arial,Arial_MSFontService,sans-serif" font-weight="400" font-size="92" transform="matrix(1 0 0 1 2242.4 1816)">z</text><text font-family="Arial,Arial_MSFontService,sans-serif" font-weight="400" font-size="61" transform="matrix(1 0 0 1 2288.23 1838)">0</text><text font-family="Arial,Arial_MSFontService,sans-serif" font-weight="400" font-size="92" transform="matrix(1 0 0 1 2463.54 1928)">z</text><text font-family="Arial,Arial_MSFontService,sans-serif" font-weight="400" font-size="61" transform="matrix(1 0 0 1 2509.37 1950)">1</text><text font-family="Arial,Arial_MSFontService,sans-serif" font-weight="400" font-size="92" transform="matrix(1 0 0 1 2662.92 1913)">z</text><text font-family="Arial,Arial_MSFontService,sans-serif" font-weight="400" font-size="61" transform="matrix(1 0 0 1 2708.75 1935)">2</text><text font-family="Arial,Arial_MSFontService,sans-serif" font-weight="400" font-size="92" transform="matrix(1 0 0 1 2883.49 1741)">z</text><text font-family="Arial,Arial_MSFontService,sans-serif" font-weight="400" font-size="61" transform="matrix(1 0 0 1 2929.32 1763)">3</text><text font-family="Arial,Arial_MSFontService,sans-serif" font-weight="400" font-size="92" transform="matrix(1 0 0 1 2968.85 1506)">z</text><text font-family="Arial,Arial_MSFontService,sans-serif" font-weight="400" font-size="61" transform="matrix(1 0 0 1 3014.69 1528)">4</text></g></svg>