<svg width="1650" height="1990" xmlns="http://www.w3.org/2000/svg" xmlns:xlink="http://www.w3.org/1999/xlink" xml:space="preserve" overflow="hidden"><g transform="translate(-822 -281)"><path d="M1152.02 1061.84 1448.23 1062.76 1448.2 1073.08 1151.98 1072.16ZM1443.11 1052.44 1474 1068 1443.01 1083.37Z" fill="#0000FF"/><path d="M5.15623-0.0160136 6.07619 296.203-4.23626 296.235-5.15623 0.0160136ZM16.3726 291.015 1.00003 322-14.5647 291.111Z" fill="#0000FF" transform="matrix(1 0 0 -1 1474 1067)"/><path d="M1474.02 739.844 1771.23 740.764 1771.2 751.076 1473.98 750.156ZM1766.11 730.435 1797 746 1766.01 761.373Z" fill="#0000FF"/><path d="M1802.16 744.984 1803.08 1041.2 1792.76 1041.23 1791.84 745.016ZM1813.37 1036.01 1798 1067 1782.44 1036.11Z" fill="#0000FF"/><path d="M1802.16 1066.98 1803.08 1364.2 1792.76 1364.23 1791.84 1067.02ZM1813.37 1359.01 1798 1390 1782.44 1359.11Z" fill="#0000FF"/><path d="M1797.02 1384.84 2093.23 1385.76 2093.2 1396.08 1796.98 1395.16ZM2088.11 1375.44 2119 1391 2088.01 1406.37Z" fill="#0000FF"/><path d="M5.15623-0.0159583 6.07611 297.203-4.23635 297.235-5.15623 0.0159583ZM16.3726 292.015 0.999672 323-14.5648 292.111Z" fill="#0000FF" transform="matrix(1 0 0 -1 2119 1390)"/><path d="M2119.02 1061.84 2415.23 1062.76 2415.2 1073.08 2118.98 1072.16ZM2410.11 1052.44 2441 1068 2410.01 1083.37Z" fill="#0000FF"/><path d="M1152 354.844 2415.22 355.824 2415.21 366.136 1152 365.156ZM2410.07 345.507 2441 361 2410.05 376.445Z" fill="#0000FF"/><path d="M1152.06 1830.84 1207.28 1831.53 1207.16 1841.84 1151.94 1841.16ZM1202.26 1821.15 1233 1837 1201.87 1852.09Z" fill="#0000FF"/><path d="M5.15586-0.0636316 5.83737 55.1572-4.47434 55.2845-5.15586 0.0636316ZM16.0855 49.8741 0.999672 81.0001-14.8497 50.2559Z" fill="#0000FF" transform="matrix(1 0 0 -1 1233 1836)"/><path d="M1233.06 1749.84 1288.28 1750.53 1288.16 1760.84 1232.94 1760.16ZM1283.26 1740.15 1314 1756 1282.87 1771.09Z" fill="#0000FF"/><path d="M1319.16 1754.94 1319.84 1810.16 1309.53 1810.28 1308.84 1755.06ZM1330.09 1804.87 1315 1836 1299.15 1805.26Z" fill="#0000FF"/><path d="M1319.16 1835.94 1319.83 1890.16 1309.52 1890.29 1308.84 1836.06ZM1330.08 1884.87 1315 1916 1299.15 1885.26Z" fill="#0000FF"/><path d="M1314.06 1910.84 1368.29 1911.52 1368.16 1921.83 1313.94 1921.16ZM1363.26 1901.15 1394 1917 1362.87 1932.08Z" fill="#0000FF"/><path d="M5.15585-0.0644269 5.83338 54.1564-4.47831 54.2853-5.15585 0.0644269ZM16.0807 48.8717 0.999672 80.0001-14.8544 49.2583Z" fill="#0000FF" transform="matrix(1 0 0 -1 1394 1916)"/><path d="M1394.06 1830.84 1449.28 1831.53 1449.16 1841.84 1393.94 1841.16ZM1444.26 1821.15 1475 1837 1443.87 1852.09Z" fill="#0000FF"/><path d="M5.15586-0.0636316 5.83737 55.1572-4.47434 55.2845-5.15586 0.0636316ZM16.0855 49.8741 0.999672 81.0001-14.8497 50.2559Z" fill="#0000FF" transform="matrix(1 0 0 -1 1475 1836)"/><path d="M0.0636316-5.15586 55.2845-4.47434 55.1572 5.83737-0.0636316 5.15586ZM50.2559-14.8497 81.0001 0.999672 49.8741 16.0855Z" fill="#0000FF" transform="matrix(-1 0 0 1 1475 1755)"/><path d="M5.15585-0.0644272 5.83338 54.1561-4.47831 54.2849-5.15585 0.0644272ZM16.0807 48.8714 0.999672 79.9997-14.8544 49.2579Z" fill="#0000FF" transform="matrix(1 0 0 -1 1394 1755)"/><path d="M1394.06 1669.84 1449.28 1670.53 1449.16 1680.84 1393.94 1680.16ZM1444.26 1660.15 1475 1676 1443.87 1691.09Z" fill="#0000FF"/><path d="M1475.06 1669.84 1529.29 1670.52 1529.16 1680.83 1474.94 1680.16ZM1524.26 1660.15 1555 1676 1523.87 1691.08Z" fill="#0000FF"/><path d="M5.15586-0.0636316 5.83737 55.1572-4.47434 55.2845-5.15586 0.0636316ZM16.0855 49.8741 0.999672 81.0001-14.8497 50.2559Z" fill="#0000FF" transform="matrix(1 0 0 -1 1555 1675)"/><path d="M0.0644269-5.15585 54.2853-4.47831 54.1564 5.83338-0.0644269 5.15585ZM49.2583-14.8544 80.0001 0.999672 48.8717 16.0807Z" fill="#0000FF" transform="matrix(-1 0 0 1 1555 1594)"/><path d="M5.15586-0.0636316 5.83737 55.1572-4.47434 55.2845-5.15586 0.0636316ZM16.0855 49.8741 0.999672 81.0001-14.8497 50.2559Z" fill="#0000FF" transform="matrix(1 0 0 -1 1475 1594)"/><path d="M1475.06 1507.84 1529.29 1508.52 1529.16 1518.83 1474.94 1518.16ZM1524.26 1498.15 1555 1514 1523.87 1529.08Z" fill="#0000FF"/><path d="M5.15585-0.0644272 5.83338 54.1561-4.47831 54.2849-5.15585 0.0644272ZM16.0807 48.8714 0.999672 79.9997-14.8544 49.2579Z" fill="#0000FF" transform="matrix(1 0 0 -1 1555 1513)"/><path d="M1555.06 1427.84 1610.28 1428.53 1610.16 1438.84 1554.94 1438.16ZM1605.26 1418.15 1636 1434 1604.87 1449.09Z" fill="#0000FF"/><path d="M1641.16 1432.94 1641.83 1487.16 1631.52 1487.29 1630.84 1433.06ZM1652.08 1481.87 1637 1513 1621.15 1482.26Z" fill="#0000FF"/><path d="M1641.16 1512.94 1641.84 1568.16 1631.53 1568.28 1630.84 1513.06ZM1652.09 1562.87 1637 1594 1621.15 1563.26Z" fill="#0000FF"/><path d="M1636.06 1588.84 1690.29 1589.52 1690.16 1599.83 1635.94 1599.16ZM1685.26 1579.15 1716 1595 1684.87 1610.08Z" fill="#0000FF"/><path d="M5.15586-0.0636316 5.83737 55.1572-4.47434 55.2845-5.15586 0.0636316ZM16.0855 49.8741 0.999672 81.0001-14.8497 50.2559Z" fill="#0000FF" transform="matrix(1 0 0 -1 1716 1594)"/><path d="M1716.06 1507.84 1771.28 1508.53 1771.16 1518.84 1715.94 1518.16ZM1766.26 1498.15 1797 1514 1765.87 1529.09Z" fill="#0000FF"/><path d="M1802.16 1512.94 1802.84 1568.16 1792.53 1568.28 1791.84 1513.06ZM1813.09 1562.87 1798 1594 1782.15 1563.26Z" fill="#0000FF"/><path d="M1797.06 1588.84 1851.29 1589.52 1851.16 1599.83 1796.94 1599.16ZM1846.26 1579.15 1877 1595 1845.87 1610.08Z" fill="#0000FF"/><path d="M1882.16 1593.94 1882.84 1649.16 1872.53 1649.28 1871.84 1594.06ZM1893.09 1643.87 1878 1675 1862.15 1644.26Z" fill="#0000FF"/><path d="M0.0644272-5.15585 54.2849-4.47831 54.1561 5.83338-0.0644272 5.15585ZM49.2579-14.8544 79.9997 0.999672 48.8714 16.0807Z" fill="#0000FF" transform="matrix(-1 0 0 1 1877 1675)"/><path d="M0.0636316-5.15586 55.2845-4.47434 55.1572 5.83737-0.0636316 5.15586ZM50.2559-14.8497 81.0001 0.999672 49.8741 16.0855Z" fill="#0000FF" transform="matrix(-1 0 0 1 1797 1675)"/><path d="M1721.16 1674.94 1721.83 1729.16 1711.52 1729.29 1710.84 1675.06ZM1732.08 1723.87 1717 1755 1701.15 1724.26Z" fill="#0000FF"/><path d="M1716.06 1749.84 1771.28 1750.53 1771.16 1760.84 1715.94 1760.16ZM1766.26 1740.15 1797 1756 1765.87 1771.09Z" fill="#0000FF"/><path d="M1802.16 1754.94 1802.84 1810.16 1792.53 1810.28 1791.84 1755.06ZM1813.09 1804.87 1798 1836 1782.15 1805.26Z" fill="#0000FF"/><path d="M1802.16 1835.94 1802.83 1890.16 1792.52 1890.29 1791.84 1836.06ZM1813.08 1884.87 1798 1916 1782.15 1885.26Z" fill="#0000FF"/><path d="M1797.06 1910.84 1851.29 1911.52 1851.16 1921.83 1796.94 1921.16ZM1846.26 1901.15 1877 1917 1845.87 1932.08Z" fill="#0000FF"/><path d="M1882.16 1915.94 1882.84 1971.16 1872.53 1971.28 1871.84 1916.06ZM1893.09 1965.87 1878 1997 1862.15 1966.26Z" fill="#0000FF"/><path d="M0.0644272-5.15585 54.2849-4.47831 54.1561 5.83338-0.0644272 5.15585ZM49.2579-14.8544 79.9997 0.999672 48.8714 16.0807Z" fill="#0000FF" transform="matrix(-1 0 0 1 1877 1997)"/><path d="M0.0636316-5.15586 55.2845-4.47434 55.1572 5.83737-0.0636316 5.15586ZM50.2559-14.8497 81.0001 0.999672 49.8741 16.0855Z" fill="#0000FF" transform="matrix(-1 0 0 1 1797 1997)"/><path d="M1721.16 1996.94 1721.83 2051.16 1711.52 2051.29 1710.84 1997.06ZM1732.08 2045.87 1717 2077 1701.15 2046.26Z" fill="#0000FF"/><path d="M1716.06 2071.84 1771.28 2072.53 1771.16 2082.84 1715.94 2082.16ZM1766.26 2062.15 1797 2078 1765.87 2093.09Z" fill="#0000FF"/><path d="M1802.16 2076.94 1802.84 2132.16 1792.53 2132.28 1791.84 2077.06ZM1813.09 2126.87 1798 2158 1782.15 2127.26Z" fill="#0000FF"/><path d="M1797.06 2152.84 1851.29 2153.52 1851.16 2163.83 1796.94 2163.16ZM1846.26 2143.15 1877 2159 1845.87 2174.08Z" fill="#0000FF"/><path d="M5.15586-0.0636545 5.83762 55.1572-4.4741 55.2845-5.15586 0.0636545ZM16.0857 49.874 1.00003 81.0001-14.8495 50.256Z" fill="#0000FF" transform="matrix(1 0 0 -1 1877 2158)"/><path d="M1877.06 2071.84 1932.28 2072.53 1932.16 2082.84 1876.94 2082.16ZM1927.26 2062.15 1958 2078 1926.87 2093.09Z" fill="#0000FF"/><path d="M1963.16 2076.94 1963.84 2132.16 1953.53 2132.28 1952.84 2077.06ZM1974.09 2126.87 1959 2158 1943.15 2127.26Z" fill="#0000FF"/><path d="M1963.16 2157.94 1963.84 2213.16 1953.53 2213.28 1952.84 2158.06ZM1974.09 2207.87 1959 2239 1943.15 2208.26Z" fill="#0000FF"/><path d="M1958.06 2233.84 2012.29 2234.52 2012.16 2244.83 1957.94 2244.16ZM2007.26 2224.15 2038 2240 2006.87 2255.08Z" fill="#0000FF"/><path d="M5.15586-0.0636548 5.83762 55.1568-4.4741 55.2841-5.15586 0.0636548ZM16.0857 49.8737 1.00003 80.9998-14.8495 50.2556Z" fill="#0000FF" transform="matrix(1 0 0 -1 2038 2239)"/><path d="M2038.06 2152.84 2093.28 2153.53 2093.16 2163.84 2037.94 2163.16ZM2088.26 2143.15 2119 2159 2087.87 2174.09Z" fill="#0000FF"/><path d="M5.15586-0.0636316 5.83737 55.1572-4.47434 55.2845-5.15586 0.0636316ZM16.0855 49.8741 0.999672 81.0001-14.8497 50.2559Z" fill="#0000FF" transform="matrix(1 0 0 -1 2119 2158)"/><path d="M0.0636548-5.15586 55.2841-4.4741 55.1568 5.83762-0.0636548 5.15586ZM50.2556-14.8495 80.9998 1.00003 49.8737 16.0857Z" fill="#0000FF" transform="matrix(-1 0 0 1 2119 2077)"/><path d="M5.15585-0.0644501 5.83363 54.1564-4.47807 54.2853-5.15585 0.0644501ZM16.0809 48.8717 1.00003 80.0001-14.8542 49.2584Z" fill="#0000FF" transform="matrix(1 0 0 -1 2038 2077)"/><path d="M2038.06 1991.84 2093.28 1992.53 2093.16 2002.84 2037.94 2002.16ZM2088.26 1982.15 2119 1998 2087.87 2013.09Z" fill="#0000FF"/><path d="M2119.06 1991.84 2173.29 1992.52 2173.16 2002.83 2118.94 2002.16ZM2168.26 1982.15 2199 1998 2167.87 2013.08Z" fill="#0000FF"/><path d="M5.15586-0.0636548 5.83762 55.1568-4.4741 55.2841-5.15586 0.0636548ZM16.0857 49.8737 1.00003 80.9998-14.8495 50.2556Z" fill="#0000FF" transform="matrix(1 0 0 -1 2199 1997)"/><path d="M0.0644501-5.15585 54.2853-4.47807 54.1564 5.83363-0.0644501 5.15585ZM49.2584-14.8542 80.0001 1.00003 48.8717 16.0809Z" fill="#0000FF" transform="matrix(-1 0 0 1 2199 1916)"/><path d="M5.15585-0.0644269 5.83338 54.1564-4.47831 54.2853-5.15585 0.0644269ZM16.0807 48.8717 0.999672 80.0001-14.8544 49.2583Z" fill="#0000FF" transform="matrix(1 0 0 -1 2119 1916)"/><path d="M2119.06 1830.84 2173.29 1831.52 2173.16 1841.83 2118.94 1841.16ZM2168.26 1821.15 2199 1837 2167.87 1852.08Z" fill="#0000FF"/><path d="M5.15586-0.0636545 5.83762 55.1572-4.4741 55.2845-5.15586 0.0636545ZM16.0857 49.874 1.00003 81.0001-14.8495 50.256Z" fill="#0000FF" transform="matrix(1 0 0 -1 2199 1836)"/><path d="M2199.06 1749.84 2254.28 1750.53 2254.16 1760.84 2198.94 1760.16ZM2249.26 1740.15 2280 1756 2248.87 1771.09Z" fill="#0000FF"/><path d="M2285.16 1754.94 2285.84 1810.16 2275.53 1810.28 2274.84 1755.06ZM2296.09 1804.87 2281 1836 2265.15 1805.26Z" fill="#0000FF"/><path d="M2285.16 1835.94 2285.83 1890.16 2275.52 1890.29 2274.84 1836.06ZM2296.08 1884.87 2281 1916 2265.15 1885.26Z" fill="#0000FF"/><path d="M2280.06 1910.84 2334.28 1911.52 2334.16 1921.83 2279.94 1921.16ZM2329.26 1901.15 2360 1917 2328.87 1932.08Z" fill="#0000FF"/><path d="M5.15585-0.0644501 5.83363 54.1564-4.47807 54.2853-5.15585 0.0644501ZM16.0809 48.8717 1.00003 80.0001-14.8542 49.2584Z" fill="#0000FF" transform="matrix(1 0 0 -1 2360 1916)"/><path d="M2360.06 1830.84 2415.28 1831.53 2415.16 1841.84 2359.94 1841.16ZM2410.26 1821.15 2441 1837 2409.87 1852.09Z" fill="#0000FF"/><path d="M855.692 336.039C857.948 336.039 859.729 336.782 861.036 338.268 862.343 339.754 862.997 341.697 862.997 344.096 862.997 345.994 862.567 348.107 861.708 350.434L862.352 350.649C865.861 345.707 869.2 342.046 872.369 339.665 875.538 337.284 878.806 336.093 882.172 336.093 885.502 336.093 888.062 337.051 889.852 338.967 891.643 340.882 892.538 343.541 892.538 346.943 892.538 349.199 892.018 352.403 890.98 356.557L887.489 370.629C886.522 374.532 886.039 377.289 886.039 378.901 886.039 380.333 886.271 381.371 886.737 382.016 887.202 382.661 887.936 382.983 888.939 382.983 890.013 382.983 891.159 382.544 892.377 381.667 893.594 380.79 895.313 379.116 897.533 376.645L900.594 379.653C897.515 382.947 894.829 385.355 892.538 386.877 890.246 388.399 887.632 389.16 884.696 389.16 882.368 389.16 880.506 388.327 879.11 386.662 877.714 384.997 877.015 382.875 877.015 380.297 877.015 377.97 877.606 374.55 878.788 370.038L881.151 360.746C882.01 357.381 882.574 354.892 882.843 353.281 883.111 351.669 883.246 350.362 883.246 349.36 883.246 346.889 882.834 345.108 882.01 344.016 881.187 342.923 879.844 342.377 877.982 342.377 876.478 342.377 874.858 342.977 873.121 344.177 871.385 345.376 869.54 347.184 867.589 349.601 865.638 352.018 864.071 354.364 862.889 356.638 861.708 358.911 860.741 361.713 859.989 365.043L854.886 388.3 845.594 388.3 853.436 354.247C854.224 350.81 854.618 348.16 854.618 346.298 854.618 344.866 854.385 343.828 853.92 343.183 853.454 342.538 852.72 342.216 851.717 342.216 850.607 342.216 849.435 342.673 848.199 343.586 846.964 344.499 845.272 346.155 843.124 348.554L840.062 345.546C843.356 342.109 846.096 339.665 848.28 338.215 850.464 336.765 852.935 336.039 855.692 336.039Z" fill-rule="evenodd"/><text fill="#000000" fill-opacity="0" font-family="Arial,Arial_MSFontService,sans-serif" font-size="53.1201" x="840.062" y="382.52">𝑛</text><path d="M942.224 364.453 1008.4 364.453 1008.4 371.596 942.224 371.596ZM942.224 342.162 1008.4 342.162 1008.4 349.306 942.224 349.306Z" fill-rule="evenodd"/><text fill="#000000" fill-opacity="0" font-family="Arial,Arial_MSFontService,sans-serif" font-size="29.4336" x="942.224" y="367.917">=</text><path d="M1077.15 318.691C1074.68 318.691 1072.61 319.425 1070.95 320.893 1069.28 322.361 1067.94 324.474 1066.92 327.231 1065.9 329.988 1065.17 333.345 1064.74 337.302 1064.31 341.258 1064.1 345.725 1064.1 350.703 1064.1 362.376 1065.18 370.943 1067.35 376.403 1069.51 381.864 1072.87 384.594 1077.42 384.594 1081.75 384.594 1084.96 382.025 1087.06 376.887 1089.15 371.748 1090.2 363.79 1090.2 353.012 1090.2 344.776 1089.66 338.107 1088.59 333.005 1087.52 327.902 1086.02 324.241 1084.11 322.021 1082.19 319.801 1079.87 318.691 1077.15 318.691ZM1077.42 314.125C1085.26 314.125 1091.1 317.151 1094.93 323.203 1098.76 329.254 1100.68 338.403 1100.68 350.649 1100.68 363.325 1098.63 372.912 1094.53 379.411 1090.43 385.91 1084.44 389.16 1076.56 389.16 1068.82 389.16 1063.07 386.116 1059.29 380.029 1055.51 373.941 1053.62 364.703 1053.62 352.314 1053.62 345.725 1054.21 340.032 1055.37 335.234 1056.53 330.436 1058.16 326.47 1060.26 323.337 1062.35 320.204 1064.87 317.885 1067.8 316.381 1070.74 314.877 1073.95 314.125 1077.42 314.125Z" fill-rule="evenodd"/><text fill="#000000" fill-opacity="0" font-family="Arial,Arial_MSFontService,sans-serif" font-size="75.0342" x="1053.62" y="379.78">0</text><path d="M883.5 736.625 902.371 736.625 902.371 567.5 929.629 567.5 929.629 736.625 948.5 736.625 916 792.5Z" stroke="#000000" stroke-width="3.4375" stroke-miterlimit="8" fill-rule="evenodd"/><path d="M855.692 1052.76C857.948 1052.76 859.729 1053.5 861.036 1054.99 862.343 1056.47 862.997 1058.42 862.997 1060.81 862.997 1062.71 862.567 1064.83 861.708 1067.15L862.352 1067.37C865.861 1062.43 869.2 1058.77 872.369 1056.38 875.538 1054 878.806 1052.81 882.172 1052.81 885.502 1052.81 888.062 1053.77 889.852 1055.69 891.643 1057.6 892.538 1060.26 892.538 1063.66 892.538 1065.92 892.018 1069.12 890.98 1073.28L887.489 1087.35C886.522 1091.25 886.039 1094.01 886.039 1095.62 886.039 1097.05 886.271 1098.09 886.737 1098.73 887.202 1099.38 887.936 1099.7 888.939 1099.7 890.013 1099.7 891.159 1099.26 892.377 1098.39 893.594 1097.51 895.313 1095.83 897.533 1093.36L900.594 1096.37C897.515 1099.67 894.829 1102.07 892.538 1103.6 890.246 1105.12 887.632 1105.88 884.696 1105.88 882.368 1105.88 880.506 1105.05 879.11 1103.38 877.714 1101.72 877.015 1099.59 877.015 1097.02 877.015 1094.69 877.606 1091.27 878.788 1086.76L881.151 1077.47C882.01 1074.1 882.574 1071.61 882.843 1070 883.111 1068.39 883.246 1067.08 883.246 1066.08 883.246 1063.61 882.834 1061.83 882.01 1060.73 881.187 1059.64 879.844 1059.1 877.982 1059.1 876.478 1059.1 874.858 1059.7 873.121 1060.9 871.385 1062.1 869.54 1063.9 867.589 1066.32 865.638 1068.74 864.071 1071.08 862.889 1073.36 861.708 1075.63 860.741 1078.43 859.989 1081.76L854.886 1105.02 845.594 1105.02 853.436 1070.97C854.224 1067.53 854.618 1064.88 854.618 1063.02 854.618 1061.58 854.385 1060.55 853.92 1059.9 853.454 1059.26 852.72 1058.94 851.717 1058.94 850.607 1058.94 849.435 1059.39 848.199 1060.3 846.964 1061.22 845.272 1062.87 843.124 1065.27L840.062 1062.27C843.356 1058.83 846.096 1056.38 848.28 1054.93 850.464 1053.48 852.935 1052.76 855.692 1052.76Z" fill-rule="evenodd"/><text fill="#000000" fill-opacity="0" font-family="Arial,Arial_MSFontService,sans-serif" font-size="53.1201" x="840.062" y="1099.24">𝑛</text><path d="M942.224 1081.17 1008.4 1081.17 1008.4 1088.31 942.224 1088.31ZM942.224 1058.88 1008.4 1058.88 1008.4 1066.02 942.224 1066.02Z" fill-rule="evenodd"/><text fill="#000000" fill-opacity="0" font-family="Arial,Arial_MSFontService,sans-serif" font-size="29.4336" x="942.224" y="1084.64">=</text><path d="M1081.39 1030.84 1084.35 1030.84C1084.13 1034.28 1084.03 1039.04 1084.03 1045.13L1084.03 1091C1084.03 1093.08 1084.14 1094.64 1084.37 1095.7 1084.61 1096.76 1085.02 1097.62 1085.61 1098.28 1086.2 1098.94 1087.05 1099.46 1088.16 1099.84 1089.27 1100.21 1090.67 1100.5 1092.35 1100.7 1094.03 1100.89 1096.25 1101.03 1099.01 1101.1L1099.01 1105.02 1059.32 1105.02 1059.32 1101.1C1063.29 1100.92 1066.13 1100.68 1067.83 1100.37 1069.53 1100.07 1070.83 1099.61 1071.73 1099 1072.62 1098.39 1073.27 1097.54 1073.69 1096.43 1074.1 1095.32 1074.3 1093.51 1074.3 1091L1074.3 1047.44C1074.3 1046.01 1074.05 1044.96 1073.55 1044.3 1073.05 1043.64 1072.32 1043.31 1071.35 1043.31 1070.2 1043.31 1068.57 1043.9 1066.46 1045.08 1064.35 1046.26 1061.73 1047.89 1058.62 1049.97L1056.26 1045.83Z" fill-rule="evenodd"/><text fill="#000000" fill-opacity="0" font-family="Arial,Arial_MSFontService,sans-serif" font-size="74.1748" x="1056.26" y="1095.75">1</text><path d="M855.692 1817.6C857.948 1817.6 859.729 1818.34 861.036 1819.83 862.343 1821.32 862.997 1823.26 862.997 1825.66 862.997 1827.56 862.567 1829.67 861.708 1832L862.352 1832.21C865.861 1827.27 869.2 1823.61 872.369 1821.23 875.538 1818.85 878.806 1817.66 882.172 1817.66 885.502 1817.66 888.062 1818.61 889.852 1820.53 891.643 1822.44 892.538 1825.1 892.538 1828.51 892.538 1830.76 892.018 1833.97 890.98 1838.12L887.489 1852.19C886.522 1856.09 886.039 1858.85 886.039 1860.46 886.039 1861.9 886.271 1862.93 886.737 1863.58 887.202 1864.22 887.936 1864.55 888.939 1864.55 890.013 1864.55 891.159 1864.11 892.377 1863.23 893.594 1862.35 895.313 1860.68 897.533 1858.21L900.594 1861.22C897.515 1864.51 894.829 1866.92 892.538 1868.44 890.246 1869.96 887.632 1870.72 884.696 1870.72 882.368 1870.72 880.506 1869.89 879.11 1868.22 877.714 1866.56 877.015 1864.44 877.015 1861.86 877.015 1859.53 877.606 1856.11 878.788 1851.6L881.151 1842.31C882.01 1838.94 882.574 1836.45 882.843 1834.84 883.111 1833.23 883.246 1831.92 883.246 1830.92 883.246 1828.45 882.834 1826.67 882.01 1825.58 881.187 1824.49 879.844 1823.94 877.982 1823.94 876.478 1823.94 874.858 1824.54 873.121 1825.74 871.385 1826.94 869.54 1828.75 867.589 1831.16 865.638 1833.58 864.071 1835.93 862.889 1838.2 861.708 1840.47 860.741 1843.28 859.989 1846.61L854.886 1869.86 845.594 1869.86 853.436 1835.81C854.224 1832.37 854.618 1829.72 854.618 1827.86 854.618 1826.43 854.385 1825.39 853.92 1824.75 853.454 1824.1 852.72 1823.78 851.717 1823.78 850.607 1823.78 849.435 1824.24 848.199 1825.15 846.964 1826.06 845.272 1827.72 843.124 1830.12L840.062 1827.11C843.356 1823.67 846.096 1821.23 848.28 1819.78 850.464 1818.33 852.935 1817.6 855.692 1817.6Z" fill-rule="evenodd"/><text fill="#000000" fill-opacity="0" font-family="Arial,Arial_MSFontService,sans-serif" font-size="53.1201" x="840.062" y="1864.08">𝑛</text><path d="M942.224 1846.01 1008.4 1846.01 1008.4 1853.16 942.224 1853.16ZM942.224 1823.72 1008.4 1823.72 1008.4 1830.87 942.224 1830.87Z" fill-rule="evenodd"/><text fill="#000000" fill-opacity="0" font-family="Arial,Arial_MSFontService,sans-serif" font-size="29.4336" x="942.224" y="1849.48">=</text><path d="M1077.58 1795.69C1084.24 1795.69 1089.27 1797.15 1092.67 1800.07 1096.07 1802.98 1097.78 1807.22 1097.78 1812.77 1097.78 1814.67 1097.59 1816.41 1097.21 1818 1096.84 1819.6 1096.24 1821.17 1095.44 1822.73 1094.63 1824.29 1093.55 1825.96 1092.19 1827.75 1090.83 1829.54 1089.32 1831.36 1087.68 1833.2 1086.03 1835.05 1083.18 1838.12 1079.14 1842.42 1072.33 1849.61 1067.34 1855.9 1064.15 1861.27L1084.4 1861.27C1086.16 1861.27 1087.57 1861.16 1088.64 1860.95 1089.72 1860.73 1090.58 1860.37 1091.22 1859.87 1091.87 1859.37 1092.38 1858.72 1092.75 1857.91 1093.13 1857.11 1093.6 1855.86 1094.18 1854.18L1098.74 1854.18 1097.83 1869.86 1053.62 1869.86 1053.62 1867.28C1055.16 1863.52 1057.24 1859.68 1059.86 1855.74 1062.47 1851.8 1066.18 1847.16 1070.97 1841.83 1075.13 1837.24 1078.12 1833.77 1079.94 1831.41 1081.95 1828.83 1083.44 1826.6 1084.43 1824.72 1085.41 1822.84 1086.12 1821.07 1086.55 1819.4 1086.98 1817.74 1087.19 1816.06 1087.19 1814.38 1087.19 1811.69 1086.76 1809.32 1085.9 1807.26 1085.05 1805.2 1083.73 1803.58 1081.96 1802.4 1080.18 1801.22 1077.96 1800.63 1075.27 1800.63 1068.57 1800.63 1064.06 1804.35 1061.73 1811.8L1055.24 1811.8 1055.24 1801.49C1059.57 1799.45 1063.62 1797.97 1067.4 1797.06 1071.18 1796.14 1074.57 1795.69 1077.58 1795.69Z" fill-rule="evenodd"/><text fill="#000000" fill-opacity="0" font-family="Arial,Arial_MSFontService,sans-serif" font-size="74.1748" x="1053.62" y="1860.59">2</text><path d="M883.5 1490.63 902.371 1490.63 902.371 1321.5 929.629 1321.5 929.629 1490.63 948.5 1490.63 916 1546.5Z" stroke="#000000" stroke-width="3.4375" stroke-miterlimit="8" fill-rule="evenodd"/></g></svg>