<?plantuml 1.2026.2beta1?><svg xmlns="http://www.w3.org/2000/svg" xmlns:xlink="http://www.w3.org/1999/xlink" contentStyleType="text/css" data-diagram-type="CLASS" height="199.65px" preserveAspectRatio="none" style="width:377px;height:199px;background:#FFFFFF;" version="1.1" viewBox="0 0 377 199" width="377.3px" zoomAndPan="magnify"><defs/><g><!--class ios--><g class="entity" data-qualified-name="ios" data-source-line="3" id="ent0002"><rect fill="#F1F1F1" height="23.2633" rx="1.375" ry="1.375" style="stroke:#181818;stroke-width:0.275;" width="14.162" x="179.52" y="3.85"/><text fill="#000000" font-family="sans-serif" font-size="7.7" lengthAdjust="spacing" textLength="10.862" x="181.17" y="13.7473">ios</text><line style="stroke:#181818;stroke-width:0.275;" x1="180.07" x2="193.132" y1="18.3133" y2="18.3133"/><line style="stroke:#181818;stroke-width:0.275;" x1="180.07" x2="193.132" y1="22.7133" y2="22.7133"/></g><!--class istream--><g class="entity" data-qualified-name="istream" data-source-line="3" id="ent0003"><rect fill="#F1F1F1" height="23.2633" rx="1.375" ry="1.375" style="stroke:#181818;stroke-width:0.275;" width="32.5923" x="143.9075" y="60.115"/><text fill="#000000" font-family="sans-serif" font-size="7.7" lengthAdjust="spacing" textLength="29.2923" x="145.5575" y="70.0123">istream</text><line style="stroke:#181818;stroke-width:0.275;" x1="144.4575" x2="175.9498" y1="74.5783" y2="74.5783"/><line style="stroke:#181818;stroke-width:0.275;" x1="144.4575" x2="175.9498" y1="78.9783" y2="78.9783"/></g><!--class ostream--><g class="entity" data-qualified-name="ostream" data-source-line="4" id="ent0005"><rect fill="#F1F1F1" height="23.2633" rx="1.375" ry="1.375" style="stroke:#181818;stroke-width:0.275;" width="35.164" x="195.9705" y="60.115"/><text fill="#000000" font-family="sans-serif" font-size="7.7" lengthAdjust="spacing" textLength="31.864" x="197.6205" y="70.0123">ostream</text><line style="stroke:#181818;stroke-width:0.275;" x1="196.5205" x2="230.5845" y1="74.5783" y2="74.5783"/><line style="stroke:#181818;stroke-width:0.275;" x1="196.5205" x2="230.5845" y1="78.9783" y2="78.9783"/></g><!--class ifstream--><g class="entity" data-qualified-name="ifstream" data-source-line="5" id="ent0007"><rect fill="#F1F1F1" height="23.2633" rx="1.375" ry="1.375" style="stroke:#181818;stroke-width:0.275;" width="35.3031" x="113.949" y="116.38"/><text fill="#000000" font-family="sans-serif" font-size="7.7" lengthAdjust="spacing" textLength="32.0031" x="115.599" y="126.2773">ifstream</text><line style="stroke:#181818;stroke-width:0.275;" x1="114.499" x2="148.7021" y1="130.8433" y2="130.8433"/><line style="stroke:#181818;stroke-width:0.275;" x1="114.499" x2="148.7021" y1="135.2433" y2="135.2433"/></g><g class="entity" data-qualified-name="GMN9" data-source-line="6" id="ent0010"><path d="M3.3,121.099 L3.3,134.922 A0,0 0 0 0 3.3,134.922 L94.9035,134.922 A0,0 0 0 0 94.9035,134.922 L94.9035,130.999 L113.74,128.007 L94.9035,126.599 L94.9035,126.599 L89.4035,121.099 L3.3,121.099 A0,0 0 0 0 3.3,121.099" fill="#FEFFDD" style="stroke:#181818;stroke-width:0.275;"/><path d="M89.4035,121.099 L89.4035,126.599 L94.9035,126.599 L89.4035,121.099" fill="#FEFFDD" style="stroke:#181818;stroke-width:0.275;"/><text fill="#000000" font-family="sans-serif" font-size="7.15" lengthAdjust="spacing" textLength="80.0535" x="6.6" y="130.4858">"Defined in fstream.h"</text></g><!--class ofstream--><g class="entity" data-qualified-name="ofstream" data-source-line="7" id="ent0012"><rect fill="#F1F1F1" height="23.2633" rx="1.375" ry="1.375" style="stroke:#181818;stroke-width:0.275;" width="37.8748" x="224.862" y="116.38"/><text fill="#000000" font-family="sans-serif" font-size="7.7" lengthAdjust="spacing" textLength="34.5748" x="226.512" y="126.2773">ofstream</text><line style="stroke:#181818;stroke-width:0.275;" x1="225.412" x2="262.1868" y1="130.8433" y2="130.8433"/><line style="stroke:#181818;stroke-width:0.275;" x1="225.412" x2="262.1868" y1="135.2433" y2="135.2433"/></g><g class="entity" data-qualified-name="GMN14" data-source-line="8" id="ent0015"><path d="M282.15,121.099 L282.15,125.807 L262.867,128.007 L282.15,130.207 L282.15,134.922 A0,0 0 0 0 282.15,134.922 L373.7535,134.922 A0,0 0 0 0 373.7535,134.922 L373.7535,126.599 L368.2535,121.099 L282.15,121.099 A0,0 0 0 0 282.15,121.099" fill="#FEFFDD" style="stroke:#181818;stroke-width:0.275;"/><path d="M368.2535,121.099 L368.2535,126.599 L373.7535,126.599 L368.2535,121.099" fill="#FEFFDD" style="stroke:#181818;stroke-width:0.275;"/><text fill="#000000" font-family="sans-serif" font-size="7.15" lengthAdjust="spacing" textLength="80.0535" x="285.45" y="130.4858">"Defined in fstream.h"</text></g><!--class iostream--><g class="entity" data-qualified-name="iostream" data-source-line="9" id="ent0017"><rect fill="#F1F1F1" height="23.2633" rx="1.375" ry="1.375" style="stroke:#181818;stroke-width:0.275;" width="37.3033" x="168.498" y="116.38"/><text fill="#000000" font-family="sans-serif" font-size="7.7" lengthAdjust="spacing" textLength="34.0033" x="170.148" y="126.2773">iostream</text><line style="stroke:#181818;stroke-width:0.275;" x1="169.048" x2="205.2513" y1="130.8433" y2="130.8433"/><line style="stroke:#181818;stroke-width:0.275;" x1="169.048" x2="205.2513" y1="135.2433" y2="135.2433"/></g><!--class fstream--><g class="entity" data-qualified-name="fstream" data-source-line="11" id="ent0020"><rect fill="#F1F1F1" height="23.2633" rx="1.375" ry="1.375" style="stroke:#181818;stroke-width:0.275;" width="33.1638" x="170.5715" y="172.6395"/><text fill="#000000" font-family="sans-serif" font-size="7.7" lengthAdjust="spacing" textLength="29.8638" x="172.2215" y="182.5368">fstream</text><line style="stroke:#181818;stroke-width:0.275;" x1="171.1215" x2="203.1853" y1="187.1028" y2="187.1028"/><line style="stroke:#181818;stroke-width:0.275;" x1="171.1215" x2="203.1853" y1="191.5028" y2="191.5028"/></g><!--reverse link ios to istream--><g class="link" data-entity-1="ent0002" data-entity-2="ent0003" data-link-type="extension" data-source-line="3" id="lnk4"><path codeLine="3" d="M176.9842,36.1275 C172.4357,45.6315 170.203,50.303 165.627,59.862" fill="none" id="ios-backto-istream" style="stroke:#181818;stroke-width:0.55;"/><polygon fill="none" points="181.258,27.1975,174.0075,34.7029,179.9609,37.5521,181.258,27.1975" style="stroke:#181818;stroke-width:0.55;"/></g><!--reverse link ios to ostream--><g class="link" data-entity-1="ent0002" data-entity-2="ent0005" data-link-type="extension" data-source-line="4" id="lnk6"><path codeLine="4" d="M196.4035,36.0911 C201.051,45.5951 203.346,50.303 208.0155,59.862" fill="none" id="ios-backto-ostream" style="stroke:#181818;stroke-width:0.55;"/><polygon fill="none" points="192.0545,27.1975,193.439,37.5408,199.368,34.6414,192.0545,27.1975" style="stroke:#181818;stroke-width:0.55;"/></g><!--reverse link istream to ifstream--><g class="link" data-entity-1="ent0003" data-entity-2="ent0007" data-link-type="extension" data-source-line="5" id="lnk8"><path codeLine="5" d="M149.8574,92.2468 C144.9294,101.7563 142.4335,106.568 137.478,116.1215" fill="none" id="istream-backto-ifstream" style="stroke:#181818;stroke-width:0.55;"/><polygon fill="none" points="154.4125,83.457,146.9275,90.7285,152.7874,93.7652,154.4125,83.457" style="stroke:#181818;stroke-width:0.55;"/></g><!--reverse link ostream to ofstream--><g class="link" data-entity-1="ent0005" data-entity-2="ent0012" data-link-type="extension" data-source-line="7" id="lnk13"><path codeLine="7" d="M224.4351,92.1378 C229.6491,101.6473 232.3475,106.568 237.5835,116.1215" fill="none" id="ostream-backto-ofstream" style="stroke:#181818;stroke-width:0.55;"/><polygon fill="none" points="219.6755,83.457,221.5415,93.7243,227.3287,90.5512,219.6755,83.457" style="stroke:#181818;stroke-width:0.55;"/></g><!--reverse link istream to iostream--><g class="link" data-entity-1="ent0003" data-entity-2="ent0017" data-link-type="extension" data-source-line="9" id="lnk18"><path codeLine="9" d="M170.0015,92.3516 C174.649,101.8611 176.946,106.568 181.6155,116.1215" fill="none" id="istream-backto-iostream" style="stroke:#181818;stroke-width:0.55;"/><polygon fill="none" points="165.6545,83.457,167.0366,93.8006,172.9663,90.9026,165.6545,83.457" style="stroke:#181818;stroke-width:0.55;"/></g><!--reverse link ostream to iostream--><g class="link" data-entity-1="ent0005" data-entity-2="ent0017" data-link-type="extension" data-source-line="10" id="lnk19"><path codeLine="10" d="M203.9362,92.388 C199.3877,101.8975 197.153,106.568 192.577,116.1215" fill="none" id="ostream-backto-iostream" style="stroke:#181818;stroke-width:0.55;"/><polygon fill="none" points="208.208,83.457,200.9592,90.964,206.9132,93.8119,208.208,83.457" style="stroke:#181818;stroke-width:0.55;"/></g><!--reverse link iostream to fstream--><g class="link" data-entity-1="ent0017" data-entity-2="ent0020" data-link-type="extension" data-source-line="11" id="lnk21"><path codeLine="11" d="M187.154,149.622 C187.154,159.1315 187.154,162.8275 187.154,172.3865" fill="none" id="iostream-backto-fstream" style="stroke:#181818;stroke-width:0.55;"/><polygon fill="none" points="187.154,139.722,183.854,149.622,190.454,149.622,187.154,139.722" style="stroke:#181818;stroke-width:0.55;"/></g><?plantuml-src XSuz2e0m38RXlQVuS5TSNCJHYqXDRQ0sq7Rqy8BMduBW5F8GNXBrv0XjqtNAyapG7BGZnH8nR7KDZYdGj3uW5vmpNvcyAI-9uCWaYBcvHpMIOKyps2DZOoibxuYKaS2BFIhoLobVkHwKJ-M2SsG7?></g></svg>