<svg xmlns="http://www.w3.org/2000/svg" xmlns:xlink="http://www.w3.org/1999/xlink" xmlns:inkscape="http://www.inkscape.org/namespaces/inkscape" version="1.1" width="108.995" height="125.641" viewBox="0 0 108.995 125.641">
<path transform="matrix(1,0,0,-1,.699,93.881)" stroke-width=".3985" stroke-linecap="butt" stroke-miterlimit="10" stroke-linejoin="miter" fill="none" stroke="#000080" d="M0 0H3.9851L5.97766-3.4512 7.97021 0H11.95532L13.94788-3.4512 11.95532-6.90242H15.94043L17.93298-10.35364 19.92554-6.90242H23.91064L21.91809-3.4512 23.91064 0H27.89575L29.8883-3.4512 31.88086 0H35.86597L37.85852-3.4512 35.86597-6.90242H39.85107L41.84363-10.35364 39.85107-13.80486H35.86597L37.85852-17.25606 35.86597-20.70728H39.85107L41.84363-24.1585 43.83618-20.70728H47.82129L49.81384-24.1585 47.82129-27.60971H51.8064L53.79895-31.06091 55.7915-27.60971H59.77661L57.78406-24.1585 59.77661-20.70728H63.76172L65.75427-24.1585 67.74683-20.70728H71.73193L69.73938-17.25606 71.73193-13.80486H67.74683L65.75427-10.35364 67.74683-6.90242H71.73193L69.73938-3.4512 71.73193 0H75.71704L77.7096-3.4512 79.70215 0H83.68726L85.67981-3.4512 83.68726-6.90242H87.67236L89.66492-10.35364 91.65747-6.90242H95.64258L93.65002-3.4512 95.64258 0H99.62769L101.62024-3.4512 103.6128 0H107.5979L105.60535 3.4512 107.5979 6.90242H103.6128L101.62024 10.35364 103.6128 13.80486H107.5979L105.60535 17.25606 107.5979 20.70728H103.6128L101.62024 24.1585 99.62769 20.70728H95.64258L93.65002 24.1585 95.64258 27.60971H91.65747L89.66492 31.06091 91.65747 34.51213H95.64258L93.65002 37.96335 95.64258 41.41457H99.62769L101.62024 37.96335 103.6128 41.41457H107.5979L105.60535 44.86577 107.5979 48.31699H103.6128L101.62024 51.7682 103.6128 55.21942H107.5979L105.60535 58.67062 107.5979 62.12184H103.6128L101.62024 65.57306 99.62769 62.12184H95.64258L93.65002 65.57306 95.64258 69.02428H91.65747L89.66492 72.47548 87.67236 69.02428H83.68726L85.67981 65.57306 83.68726 62.12184H79.70215L77.7096 65.57306 75.71704 62.12184H71.73193L69.73938 65.57306 71.73193 69.02428H67.74683L65.75427 72.47548 67.74683 75.9267H71.73193L69.73938 79.37791 71.73193 82.82913H67.74683L65.75427 86.28033 63.76172 82.82913H59.77661L57.78406 86.28033 59.77661 89.73155H55.7915L53.79895 93.18277 51.8064 89.73155H47.82129L49.81384 86.28033 47.82129 82.82913H43.83618L41.84363 86.28033 39.85107 82.82913H35.86597L37.85852 79.37791 35.86597 75.9267H39.85107L41.84363 72.47548 39.85107 69.02428H35.86597L37.85852 65.57306 35.86597 62.12184H31.88086L29.8883 65.57306 27.89575 62.12184H23.91064L21.91809 65.57306 23.91064 69.02428H19.92554L17.93298 72.47548 15.94043 69.02428H11.95532L13.94788 65.57306 11.95532 62.12184H7.97021L5.97766 65.57306 3.9851 62.12184H0L1.99255 58.67062 0 55.21942H3.9851L5.97766 51.7682 3.9851 48.31699H0L1.99255 44.86577 0 41.41457H3.9851L5.97766 37.96335 7.97021 41.41457H11.95532L13.94788 37.96335 11.95532 34.51213H15.94043L17.93298 31.06091 15.94043 27.60971H11.95532L13.94788 24.1585 11.95532 20.70728H7.97021L5.97766 24.1585 3.9851 20.70728H0L1.99255 17.25606 0 13.80486H3.9851L5.97766 10.35364 3.9851 6.90242H0L1.99255 3.4512 0 0Z"/>
</svg>
