<svg xmlns="http://www.w3.org/2000/svg" xmlns:xlink="http://www.w3.org/1999/xlink" xmlns:inkscape="http://www.inkscape.org/namespaces/inkscape" version="1.1" width="394.6914" height="53.461034" viewBox="0 0 394.6914 53.461034">
<defs>
<clipPath id="clip_1">
<path d="M0 0H46.746V31.207H0Z"/>
</clipPath>
<clipPath id="clip_2">
<path d="M0 0H395V54H0Z"/>
</clipPath>
<clipPath id="clip_3">
<path d="M63.746 14.207H394.691V54H63.746Z"/>
</clipPath>
<clipPath id="clip_4">
<path d="M0 0H395V54H0Z"/>
</clipPath>
</defs>
<g>
<path stroke-width=".379" stroke-linecap="butt" stroke-miterlimit="10" stroke-linejoin="miter" fill="none" stroke="#231f20" d="M38.102 15.359H59.992"/>
<path stroke-width=".379" stroke-linecap="butt" stroke-miterlimit="10" stroke-linejoin="miter" fill="none" stroke="#231f20" d="M53.926 16.875 59.992 15.359 53.926 13.844"/>
<path stroke-width=".379" stroke-linecap="butt" stroke-miterlimit="10" stroke-linejoin="miter" fill="none" stroke="#231f20" d="M60.852 7.777H106.348V22.941H60.852Z"/>
<g clip-path="url(#clip_1)">
<g clip-path="url(#clip_2)">
<path stroke-width=".379" stroke-linecap="butt" stroke-miterlimit="10" stroke-linejoin="miter" fill="none" stroke="#231f20" d="M.188 .191H45.684V30.523H.188Z"/>
</g>
</g>
<path stroke-width=".379" stroke-linecap="butt" stroke-miterlimit="10" stroke-linejoin="miter" fill="none" stroke="#231f20" d="M375.547 19.152V45.691H76.02V23.801"/>
<path stroke-width=".379" stroke-linecap="butt" stroke-miterlimit="10" stroke-linejoin="miter" fill="none" stroke="#231f20" d="M77.535 29.867 76.02 23.801 74.5 29.867"/>
<path stroke-width=".379" stroke-linecap="butt" stroke-miterlimit="10" stroke-linejoin="miter" fill="none" stroke="#231f20" d="M98.766 7.777V22.941"/>
<path stroke-width=".379" stroke-linecap="butt" stroke-miterlimit="10" stroke-linejoin="miter" fill="none" stroke="#231f20" d="M68.434 7.777V22.941"/>
<path stroke-width=".379" stroke-linecap="butt" stroke-miterlimit="10" stroke-linejoin="miter" fill="none" stroke="#231f20" d="M102.559 11.566H120.18"/>
<path stroke-width=".379" stroke-linecap="butt" stroke-miterlimit="10" stroke-linejoin="miter" fill="none" stroke="#231f20" d="M114.59 13.086 120.656 11.566 114.59 10.051"/>
<g clip-path="url(#clip_3)">
<g clip-path="url(#clip_4)">
<path stroke-width=".379" stroke-linecap="butt" stroke-miterlimit="10" stroke-linejoin="miter" fill="none" stroke="#231f20" d="M64.645 19.152V53.273H394.504V15.359H380.336"/>
</g>
</g>
<path stroke-width=".379" stroke-linecap="butt" stroke-miterlimit="10" stroke-linejoin="miter" fill="none" stroke="#231f20" d="M386.262 13.844 380.195 15.359 386.262 16.875"/>
<path stroke-width=".379" stroke-linecap="butt" stroke-miterlimit="10" stroke-linejoin="miter" fill="none" stroke="#231f20" d="M125.309 19.152H107.207"/>
<path stroke-width=".379" stroke-linecap="butt" stroke-miterlimit="10" stroke-linejoin="miter" fill="none" stroke="#231f20" d="M113.273 17.633 107.207 19.152 113.273 20.668"/>
<path stroke-width=".379" stroke-linecap="butt" stroke-miterlimit="10" stroke-linejoin="miter" fill="none" stroke="#231f20" d="M333.84 7.777H379.336V22.941H333.84Z"/>
<path stroke-width=".379" stroke-linecap="butt" stroke-miterlimit="10" stroke-linejoin="miter" fill="none" stroke="#231f20" d="M371.754 7.777V22.941"/>
<path stroke-width=".379" stroke-linecap="butt" stroke-miterlimit="10" stroke-linejoin="miter" fill="none" stroke="#231f20" d="M341.422 7.777V22.941"/>
<path stroke-width=".379" stroke-linecap="butt" stroke-miterlimit="10" stroke-linejoin="miter" fill="none" stroke="#231f20" d="M337.629 19.152H319.672"/>
<path stroke-width=".379" stroke-linecap="butt" stroke-miterlimit="10" stroke-linejoin="miter" fill="none" stroke="#231f20" d="M325.598 17.633 319.531 19.152 325.598 20.668"/>
<path stroke-width=".379" stroke-linecap="butt" stroke-miterlimit="10" stroke-linejoin="miter" fill="none" stroke="#231f20" d="M314.883 11.566H332.84"/>
<path stroke-width=".379" stroke-linecap="butt" stroke-miterlimit="10" stroke-linejoin="miter" fill="none" stroke="#231f20" d="M326.91 13.086 332.98 11.566 326.91 10.051"/>
<path stroke-width=".379" stroke-linecap="butt" stroke-miterlimit="10" stroke-linejoin="miter" fill="none" stroke="#231f20" d="M273.176 7.777H318.672V22.941H273.176Z"/>
<path stroke-width=".379" stroke-linecap="butt" stroke-miterlimit="10" stroke-linejoin="miter" fill="none" stroke="#231f20" d="M311.09 7.777V22.941"/>
<path stroke-width=".379" stroke-linecap="butt" stroke-miterlimit="10" stroke-linejoin="miter" fill="none" stroke="#231f20" d="M280.758 7.777V22.941"/>
<path stroke-width=".379" stroke-linecap="butt" stroke-miterlimit="10" stroke-linejoin="miter" fill="none" stroke="#231f20" d="M276.969 19.152H259.008"/>
<path stroke-width=".379" stroke-linecap="butt" stroke-miterlimit="10" stroke-linejoin="miter" fill="none" stroke="#231f20" d="M264.934 17.633 258.867 19.152 264.934 20.668"/>
<path stroke-width=".379" stroke-linecap="butt" stroke-miterlimit="10" stroke-linejoin="miter" fill="none" stroke="#231f20" d="M254.219 11.566H272.176"/>
<path stroke-width=".379" stroke-linecap="butt" stroke-miterlimit="10" stroke-linejoin="miter" fill="none" stroke="#231f20" d="M266.25 13.086 272.316 11.566 266.25 10.051"/>
<path stroke-width=".379" stroke-linecap="butt" stroke-miterlimit="10" stroke-linejoin="miter" fill="none" stroke="#231f20" d="M212.512 7.777H258.008V22.941H212.512Z"/>
<path stroke-width=".379" stroke-linecap="butt" stroke-miterlimit="10" stroke-linejoin="miter" fill="none" stroke="#231f20" d="M250.426 7.777V22.941"/>
<path stroke-width=".379" stroke-linecap="butt" stroke-miterlimit="10" stroke-linejoin="miter" fill="none" stroke="#231f20" d="M220.094 7.777V22.941"/>
<path stroke-width=".379" stroke-linecap="butt" stroke-miterlimit="10" stroke-linejoin="miter" fill="none" stroke="#231f20" d="M216.305 19.152H198.344"/>
<path stroke-width=".379" stroke-linecap="butt" stroke-miterlimit="10" stroke-linejoin="miter" fill="none" stroke="#231f20" d="M204.27 17.633 198.203 19.152 204.27 20.668"/>
<path stroke-width=".379" stroke-linecap="butt" stroke-miterlimit="10" stroke-linejoin="miter" fill="none" stroke="#231f20" d="M193.555 11.566H211.512"/>
<path stroke-width=".379" stroke-linecap="butt" stroke-miterlimit="10" stroke-linejoin="miter" fill="none" stroke="#231f20" d="M205.586 13.086 211.652 11.566 205.586 10.051"/>
<path stroke-width=".379" stroke-linecap="butt" stroke-miterlimit="10" stroke-linejoin="miter" fill="none" stroke="#231f20" d="M151.848 7.777H197.34401V22.941H151.848Z"/>
<path stroke-width=".379" stroke-linecap="butt" stroke-miterlimit="10" stroke-linejoin="miter" fill="none" stroke="#231f20" d="M189.762 7.777V22.941"/>
<path stroke-width=".379" stroke-linecap="butt" stroke-miterlimit="10" stroke-linejoin="miter" fill="none" stroke="#231f20" d="M159.43 7.777V22.941"/>
<path d="M18.672 15.055H17.547V14.008C17.547 13.664 17.594 13.195 18.094 13.195 18.531 13.195 18.563 13.867 18.953 13.867 19.141 13.867 19.344 13.758 19.344 13.492 19.344 13.18 18.938 12.93 18.438 12.93 16.797 12.93 16.797 14.555 16.797 15.055H16.047V15.352H16.797V18.195C16.797 18.898 16.641 18.992 16.047 19.008V19.148H18.406V19.008C17.563 18.992 17.563 18.758 17.563 18.195V15.352H18.672ZM18.672 15.055" fill="#231f20"/>
<path d="M19.031 19.148H21.188V19.008C20.563 18.977 20.516 18.82 20.516 18.227V14.992L20.484 14.961C20.016 15.133 19.547 15.305 19.078 15.461V15.602C19.188 15.586 19.313 15.57 19.438 15.57 19.578 15.57 19.75 15.57 19.75 16.117V18.227C19.75 18.93 19.594 18.992 19.031 19.008ZM19.594 13.398C19.594 13.57 19.734 13.867 20.047 13.867 20.328 13.867 20.531 13.664 20.531 13.398 20.531 13.148 20.328 12.93 20.047 12.93 19.734 12.93 19.594 13.227 19.594 13.398ZM19.594 13.398" fill="#231f20"/>
<path d="M22.105 18.383C22.105 18.898 21.965 18.914 21.465 19.008V19.148H23.652V19.008C23.184 18.992 22.871 18.961 22.871 18.336V16.289C22.871 15.992 23.277 15.539 23.496 15.539 23.715 15.539 23.793 15.852 24.121 15.852 24.34 15.852 24.465 15.68 24.465 15.461 24.465 15.164 24.277 14.961 23.98 14.961 23.621 14.961 23.324 15.148 22.887 15.789H22.871V14.977L22.824 14.961C22.387 15.148 21.934 15.305 21.48 15.461V15.602C21.559 15.586 21.668 15.57 21.793 15.57 21.934 15.57 22.105 15.57 22.105 16.117ZM22.105 18.383" fill="#231f20"/>
<path d="M27.309 16.289 27.277 15.055H27.184C27.152 15.086 27.105 15.148 27.027 15.148 26.871 15.148 26.59 14.961 26.184 14.961 25.309 14.961 24.918 15.57 24.918 16.07 24.918 16.742 25.418 17.086 25.98 17.398L26.512 17.695C26.793 17.867 26.98 18.086 26.98 18.383 26.98 18.898 26.543 19.039 26.246 19.039 25.355 19.039 25.184 18.242 25.074 17.773H24.918V19.18H25.043C25.09 19.102 25.137 19.07 25.246 19.07 25.496 19.07 25.887 19.242 26.293 19.242 26.871 19.242 27.621 18.852 27.621 18.07 27.621 17.523 27.293 17.273 26.855 16.992L25.871 16.414C25.527 16.211 25.48 15.945 25.48 15.758 25.48 15.523 25.668 15.18 26.168 15.18 26.574 15.18 26.98 15.367 27.184 16.289ZM27.309 16.289" fill="#231f20"/>
<path d="M30.301 15.055H29.395V14.008C29.395 13.93 29.395 13.883 29.332 13.883 28.988 14.367 28.848 14.57 28.504 14.914 28.301 15.117 28.113 15.18 28.113 15.289 28.113 15.305 28.129 15.336 28.145 15.352H28.629V18.086C28.629 18.992 29.004 19.242 29.457 19.242 29.879 19.242 30.301 18.945 30.52 18.555L30.41 18.445C30.301 18.57 30.145 18.773 29.848 18.773 29.395 18.773 29.395 18.227 29.395 17.945V15.352H30.301ZM30.301 15.055" fill="#231f20"/>
</g>
</svg>
