<svg xmlns="http://www.w3.org/2000/svg" xmlns:xlink="http://www.w3.org/1999/xlink" xmlns:inkscape="http://www.inkscape.org/namespaces/inkscape" version="1.1" width="409.94767" height="126.44765" viewBox="0 0 409.94767 126.44765">
<defs>
<clipPath id="clip_1">
<path d="M0 0H68.246V18.656H0Z"/>
</clipPath>
<clipPath id="clip_2">
<path d="M0 0H410V127H0Z"/>
</clipPath>
<clipPath id="clip_3">
<path d="M125.246 0H194.246V18.656H125.246Z"/>
</clipPath>
<clipPath id="clip_4">
<path d="M0 0H410V127H0Z"/>
</clipPath>
<clipPath id="clip_5">
<path d="M251.246 0H320.246V18.656H251.246Z"/>
</clipPath>
<clipPath id="clip_6">
<path d="M0 0H410V127H0Z"/>
</clipPath>
<clipPath id="clip_7">
<path d="M22.246 0H23.246V18.656H22.246Z"/>
</clipPath>
<clipPath id="clip_8">
<path d="M0 0H410V127H0Z"/>
</clipPath>
<clipPath id="clip_9">
<path d="M44.246 0H46.246V18.656H44.246Z"/>
</clipPath>
<clipPath id="clip_10">
<path d="M0 0H410V127H0Z"/>
</clipPath>
<clipPath id="clip_11">
<path d="M148.246 0H149.246V18.656H148.246Z"/>
</clipPath>
<clipPath id="clip_12">
<path d="M0 0H410V127H0Z"/>
</clipPath>
<clipPath id="clip_13">
<path d="M170.246 0H172.246V18.656H170.246Z"/>
</clipPath>
<clipPath id="clip_14">
<path d="M0 0H410V127H0Z"/>
</clipPath>
<clipPath id="clip_15">
<path d="M274.246 0H275.246V18.656H274.246Z"/>
</clipPath>
<clipPath id="clip_16">
<path d="M0 0H410V127H0Z"/>
</clipPath>
<clipPath id="clip_17">
<path d="M296.246 0H298.246V18.656H296.246Z"/>
</clipPath>
<clipPath id="clip_18">
<path d="M0 0H410V127H0Z"/>
</clipPath>
<clipPath id="clip_19">
<path d="M0 53.656H68.246V72.656H0Z"/>
</clipPath>
<clipPath id="clip_20">
<path d="M0 0H410V127H0Z"/>
</clipPath>
<clipPath id="clip_21">
<path d="M341.246 53.656H409.949V72.656H341.246Z"/>
</clipPath>
<clipPath id="clip_22">
<path d="M0 0H410V127H0Z"/>
</clipPath>
<clipPath id="clip_23">
<path d="M251.246 107.656H320.246V126.449H251.246Z"/>
</clipPath>
<clipPath id="clip_24">
<path d="M0 0H410V127H0Z"/>
</clipPath>
<clipPath id="clip_25">
<path d="M341.246 107.656H409.949V126.449H341.246Z"/>
</clipPath>
<clipPath id="clip_26">
<path d="M0 0H410V127H0Z"/>
</clipPath>
</defs>
<g>
<g clip-path="url(#clip_1)">
<g clip-path="url(#clip_2)">
<path stroke-width=".45" stroke-linecap="butt" stroke-miterlimit="10" stroke-linejoin="miter" fill="none" stroke="#231f20" d="M.227 .223H67.727V18.223H.227Z"/>
</g>
</g>
<g clip-path="url(#clip_3)">
<g clip-path="url(#clip_4)">
<path stroke-width=".45" stroke-linecap="butt" stroke-miterlimit="10" stroke-linejoin="miter" fill="none" stroke="#231f20" d="M126.227 .223H193.72699V18.223H126.227Z"/>
</g>
</g>
<g clip-path="url(#clip_5)">
<g clip-path="url(#clip_6)">
<path stroke-width=".45" stroke-linecap="butt" stroke-miterlimit="10" stroke-linejoin="miter" fill="none" stroke="#231f20" d="M252.227 .223H319.727V18.223H252.227Z"/>
</g>
</g>
<g clip-path="url(#clip_7)">
<g clip-path="url(#clip_8)">
<path stroke-width=".45" stroke-linecap="butt" stroke-miterlimit="10" stroke-linejoin="miter" fill="none" stroke="#231f20" d="M22.727 .223V18.223"/>
</g>
</g>
<g clip-path="url(#clip_9)">
<g clip-path="url(#clip_10)">
<path stroke-width=".45" stroke-linecap="butt" stroke-miterlimit="10" stroke-linejoin="miter" fill="none" stroke="#231f20" d="M45.227 .223V18.223"/>
</g>
</g>
<g clip-path="url(#clip_11)">
<g clip-path="url(#clip_12)">
<path stroke-width=".45" stroke-linecap="butt" stroke-miterlimit="10" stroke-linejoin="miter" fill="none" stroke="#231f20" d="M148.727 .223V18.223"/>
</g>
</g>
<g clip-path="url(#clip_13)">
<g clip-path="url(#clip_14)">
<path stroke-width=".45" stroke-linecap="butt" stroke-miterlimit="10" stroke-linejoin="miter" fill="none" stroke="#231f20" d="M171.227 .223V18.223"/>
</g>
</g>
<g clip-path="url(#clip_15)">
<g clip-path="url(#clip_16)">
<path stroke-width=".45" stroke-linecap="butt" stroke-miterlimit="10" stroke-linejoin="miter" fill="none" stroke="#231f20" d="M274.727 .223V18.223"/>
</g>
</g>
<g clip-path="url(#clip_17)">
<g clip-path="url(#clip_18)">
<path stroke-width=".45" stroke-linecap="butt" stroke-miterlimit="10" stroke-linejoin="miter" fill="none" stroke="#231f20" d="M297.227 .223V18.223"/>
</g>
</g>
<path stroke-width=".45" stroke-linecap="butt" stroke-miterlimit="10" stroke-linejoin="miter" fill="none" stroke="#231f20" d="M63.227 9.223H125.227"/>
<path stroke-width=".45" stroke-linecap="butt" stroke-miterlimit="10" stroke-linejoin="miter" fill="none" stroke="#231f20" d="M118.008 11.023 125.207 9.223 118.008 7.426"/>
<path stroke-width=".45" stroke-linecap="butt" stroke-miterlimit="10" stroke-linejoin="miter" fill="none" stroke="#231f20" d="M189.227 9.223H251.227"/>
<path stroke-width=".45" stroke-linecap="butt" stroke-miterlimit="10" stroke-linejoin="miter" fill="none" stroke="#231f20" d="M244.008 11.023 251.207 9.223 244.008 7.426"/>
<g clip-path="url(#clip_19)">
<g clip-path="url(#clip_20)">
<path stroke-width=".45" stroke-linecap="butt" stroke-miterlimit="10" stroke-linejoin="miter" fill="none" stroke="#231f20" d="M.227 54.223H67.727V72.223H.227Z"/>
</g>
</g>
<path stroke-width=".45" stroke-linecap="butt" stroke-miterlimit="10" stroke-linejoin="miter" fill="none" stroke="#231f20" d="M81.227 54.223H148.72699V72.223H81.227Z"/>
<path stroke-width=".45" stroke-linecap="butt" stroke-miterlimit="10" stroke-linejoin="miter" fill="none" stroke="#231f20" d="M162.227 54.223H229.727V72.223H162.227Z"/>
<path stroke-width=".45" stroke-linecap="butt" stroke-miterlimit="10" stroke-linejoin="miter" fill="none" stroke="#231f20" d="M22.727 54.223V72.223"/>
<path stroke-width=".45" stroke-linecap="butt" stroke-miterlimit="10" stroke-linejoin="miter" fill="none" stroke="#231f20" d="M45.227 54.223V72.223"/>
<path stroke-width=".45" stroke-linecap="butt" stroke-miterlimit="10" stroke-linejoin="miter" fill="none" stroke="#231f20" d="M103.727 54.223V72.223"/>
<path stroke-width=".45" stroke-linecap="butt" stroke-miterlimit="10" stroke-linejoin="miter" fill="none" stroke="#231f20" d="M126.227 54.223V72.223"/>
<path stroke-width=".45" stroke-linecap="butt" stroke-miterlimit="10" stroke-linejoin="miter" fill="none" stroke="#231f20" d="M184.727 54.223V72.223"/>
<path stroke-width=".45" stroke-linecap="butt" stroke-miterlimit="10" stroke-linejoin="miter" fill="none" stroke="#231f20" d="M207.227 54.223V72.223"/>
<path stroke-width=".45" stroke-linecap="butt" stroke-miterlimit="10" stroke-linejoin="miter" fill="none" stroke="#231f20" d="M36.227 13.723V53.223"/>
<path stroke-width=".45" stroke-linecap="butt" stroke-miterlimit="10" stroke-linejoin="miter" fill="none" stroke="#231f20" d="M34.426 46.004 36.227 53.203 38.027 46.004"/>
<path stroke-width=".45" stroke-linecap="butt" stroke-miterlimit="10" stroke-linejoin="miter" fill="none" stroke="#231f20" d="M63.227 63.223H80.227"/>
<path stroke-width=".45" stroke-linecap="butt" stroke-miterlimit="10" stroke-linejoin="miter" fill="none" stroke="#231f20" d="M73.008 65.023 80.207 63.223 73.008 61.426"/>
<path stroke-width=".45" stroke-linecap="butt" stroke-miterlimit="10" stroke-linejoin="miter" fill="none" stroke="#231f20" d="M144.227 63.223H161.227"/>
<path stroke-width=".45" stroke-linecap="butt" stroke-miterlimit="10" stroke-linejoin="miter" fill="none" stroke="#231f20" d="M154.008 65.023 161.207 63.223 154.008 61.426"/>
<path stroke-width=".45" stroke-linecap="butt" stroke-miterlimit="10" stroke-linejoin="miter" fill="none" stroke="#231f20" d="M252.227 54.223H319.727V72.223H252.227Z"/>
<g clip-path="url(#clip_21)">
<g clip-path="url(#clip_22)">
<path stroke-width=".45" stroke-linecap="butt" stroke-miterlimit="10" stroke-linejoin="miter" fill="none" stroke="#231f20" d="M342.227 54.223H409.727V72.223H342.227Z"/>
</g>
</g>
<path stroke-width=".45" stroke-linecap="butt" stroke-miterlimit="10" stroke-linejoin="miter" fill="none" stroke="#231f20" d="M274.727 54.223V72.223"/>
<path stroke-width=".45" stroke-linecap="butt" stroke-miterlimit="10" stroke-linejoin="miter" fill="none" stroke="#231f20" d="M297.227 54.223V72.223"/>
<path stroke-width=".45" stroke-linecap="butt" stroke-miterlimit="10" stroke-linejoin="miter" fill="none" stroke="#231f20" d="M364.727 54.223V72.223"/>
<path stroke-width=".45" stroke-linecap="butt" stroke-miterlimit="10" stroke-linejoin="miter" fill="none" stroke="#231f20" d="M387.227 54.223V72.223"/>
<path stroke-width=".45" stroke-linecap="butt" stroke-miterlimit="10" stroke-linejoin="miter" fill="none" stroke="#231f20" d="M162.227 13.723V36.223H265.727V53.223"/>
<path stroke-width=".45" stroke-linecap="butt" stroke-miterlimit="10" stroke-linejoin="miter" fill="none" stroke="#231f20" d="M263.926 46.004 265.727 53.203 267.527 46.004"/>
<path stroke-width=".45" stroke-linecap="butt" stroke-miterlimit="10" stroke-linejoin="miter" fill="none" stroke="#231f20" d="M315.227 63.223H341.227"/>
<path stroke-width=".45" stroke-linecap="butt" stroke-miterlimit="10" stroke-linejoin="miter" fill="none" stroke="#231f20" d="M334.008 65.023 341.207 63.223 334.008 61.426"/>
<g clip-path="url(#clip_23)">
<g clip-path="url(#clip_24)">
<path stroke-width=".45" stroke-linecap="butt" stroke-miterlimit="10" stroke-linejoin="miter" fill="none" stroke="#231f20" d="M252.227 108.223H319.727V126.223H252.227Z"/>
</g>
</g>
<g clip-path="url(#clip_25)">
<g clip-path="url(#clip_26)">
<path stroke-width=".45" stroke-linecap="butt" stroke-miterlimit="10" stroke-linejoin="miter" fill="none" stroke="#231f20" d="M342.227 108.223H409.727V126.223H342.227Z"/>
</g>
</g>
<path stroke-width=".45" stroke-linecap="butt" stroke-miterlimit="10" stroke-linejoin="miter" fill="none" stroke="#231f20" d="M288.227 67.723V107.223"/>
<path stroke-width=".45" stroke-linecap="butt" stroke-miterlimit="10" stroke-linejoin="miter" fill="none" stroke="#231f20" d="M286.426 100.004 288.227 107.203 290.027 100.004"/>
<path stroke-width=".45" stroke-linecap="butt" stroke-miterlimit="10" stroke-linejoin="miter" fill="none" stroke="#231f20" d="M274.727 108.223V126.223"/>
<path stroke-width=".45" stroke-linecap="butt" stroke-miterlimit="10" stroke-linejoin="miter" fill="none" stroke="#231f20" d="M297.227 108.223V126.223"/>
<path stroke-width=".45" stroke-linecap="butt" stroke-miterlimit="10" stroke-linejoin="miter" fill="none" stroke="#231f20" d="M364.727 108.223V126.223"/>
<path stroke-width=".45" stroke-linecap="butt" stroke-miterlimit="10" stroke-linejoin="miter" fill="none" stroke="#231f20" d="M387.227 108.223V126.223"/>
<path stroke-width=".45" stroke-linecap="butt" stroke-miterlimit="10" stroke-linejoin="miter" fill="none" stroke="#231f20" d="M315.227 117.223H341.227"/>
<path stroke-width=".45" stroke-linecap="butt" stroke-miterlimit="10" stroke-linejoin="miter" fill="none" stroke="#231f20" d="M334.008 119.023 341.207 117.223 334.008 115.426"/>
<path d="M306.238 6.707C307.613 6.707 307.645 9.41 307.645 10.145 307.645 11.004 307.613 13.598 306.238 13.598 304.848 13.598 304.832 11.02 304.832 10.145 304.832 9.41 304.848 6.707 306.238 6.707ZM306.238 6.426C304.254 6.426 303.801 8.879 303.801 10.145 303.801 11.457 304.254 13.879 306.238 13.879 308.223 13.879 308.676 11.457 308.676 10.145 308.676 8.879 308.223 6.426 306.238 6.426ZM306.238 6.426" fill="#231f20"/>
<path d="M282.094 14.691C282.094 14.363 282.281 14.145 282.625 13.738 283.125 13.848 283.359 13.848 284.375 13.879 285.172 13.91 285.703 13.926 285.703 14.41 285.703 14.988 284.969 15.457 283.703 15.457 282.484 15.457 282.094 15.035 282.094 14.691ZM282.672 10.035C282.672 9.301 283.094 9.051 283.484 9.051 284.406 9.051 284.578 10.504 284.578 10.801 284.578 11.051 284.531 11.848 283.797 11.848 282.953 11.848 282.672 10.879 282.672 10.035ZM286.109 9.535V9.113H285.281C285.109 9.113 284.906 9.098 284.688 9.004 284.25 8.848 284.016 8.754 283.641 8.754 282.813 8.754 281.781 9.27 281.781 10.566 281.781 11.191 282.141 11.676 282.781 11.957 281.813 12.816 281.813 12.957 281.813 13.145 281.813 13.441 282.094 13.566 282.391 13.707 281.844 14.098 281.328 14.551 281.328 15.035 281.328 15.598 282.141 16.082 283.25 16.082 284.219 16.082 286.016 15.473 286.016 14.254 286.016 13.957 285.859 13.145 284.703 13.098L283.313 13.035C282.984 13.02 282.469 12.988 282.469 12.738 282.469 12.52 282.906 12.082 283.109 12.066 283.188 12.066 283.563 12.113 283.703 12.113 284.297 12.113 285.422 11.691 285.422 10.52 285.422 9.988 285.313 9.785 285.203 9.535ZM286.109 9.535" fill="#231f20"/>
<path d="M263.395 11.223V8.723H263.145C263.035 9.535 262.848 9.754 261.957 9.754H260.395V7.348C260.395 7.035 260.473 6.988 260.738 6.988H262.207C263.41 6.988 263.691 7.16 263.848 8.113H264.113L264.082 6.582H258.348V6.785C259.035 6.832 259.285 6.895 259.285 7.754V12.426C259.285 13.316 259.16 13.473 258.348 13.52V13.723H261.379V13.52C260.613 13.488 260.395 13.363 260.395 12.551V10.176L261.957 10.207C262.77 10.207 263.02 10.316 263.145 11.223ZM263.395 11.223" fill="#231f20"/>
<path d="M141.301 13.52C140.395 13.488 140.27 13.285 140.27 12.551V7.035H140.848C142.035 7.035 142.348 7.223 142.566 8.41H142.832L142.77 6.582H136.676L136.613 8.41H136.863C137.113 7.238 137.395 7.035 138.582 7.035H139.176V12.426C139.176 13.223 139.129 13.473 138.16 13.52V13.723H141.301ZM141.301 13.52" fill="#231f20"/>
<path d="M15.297 13.52C14.391 13.488 14.266 13.285 14.266 12.551V7.035H14.844C16.031 7.035 16.344 7.223 16.563 8.41H16.828L16.766 6.582H10.672L10.609 8.41H10.859C11.109 7.238 11.391 7.035 12.578 7.035H13.172V12.426C13.172 13.223 13.125 13.473 12.156 13.52V13.723H15.297ZM15.297 13.52" fill="#231f20"/>
<path d="M15.895 65.223V62.723H15.645C15.535 63.535 15.348 63.754 14.457 63.754H12.895V61.348C12.895 61.035 12.973 60.988 13.238 60.988H14.707C15.91 60.988 16.191 61.16 16.348 62.113H16.613L16.582 60.582H10.848V60.785C11.535 60.832 11.785 60.895 11.785 61.754V66.426C11.785 67.316 11.66 67.473 10.848 67.52V67.723H13.879V67.52C13.113 67.488 12.895 67.363 12.895 66.551V64.176L14.457 64.207C15.27 64.207 15.52 64.316 15.645 65.223ZM15.895 65.223" fill="#231f20"/>
<path d="M36.918 66.395C36.918 66.723 36.887 66.848 36.559 67.004 36.465 67.066 36.121 67.207 35.887 67.207 35.48 67.207 35.168 66.863 35.168 66.363V66.348C35.168 65.973 35.293 65.363 36.918 64.832ZM38.59 67.004C38.48 67.113 38.34 67.223 38.105 67.223 37.793 67.223 37.793 66.895 37.793 66.582V64.488C37.793 63.832 37.793 62.754 36.184 62.754 34.934 62.754 34.434 63.52 34.434 63.957 34.434 64.129 34.559 64.426 34.887 64.426 35.168 64.426 35.387 64.191 35.387 63.973 35.387 63.863 35.324 63.707 35.324 63.551 35.324 63.207 35.73 63.02 36.09 63.02 36.418 63.02 36.918 63.129 36.918 63.91V64.566C35.168 65.254 34.23 65.629 34.23 66.707 34.23 67.426 34.777 67.832 35.371 67.832 35.965 67.832 36.527 67.395 36.934 67.035 36.98 67.816 37.434 67.832 37.637 67.832 37.809 67.832 38.137 67.816 38.59 67.285ZM38.59 67.004" fill="#231f20"/>
<path d="M92.391 65.223V62.723H92.141C92.031 63.535 91.844 63.754 90.953 63.754H89.391V61.348C89.391 61.035 89.469 60.988 89.734 60.988H91.203C92.406 60.988 92.688 61.16 92.844 62.113H93.109L93.078 60.582H87.344V60.785C88.031 60.832 88.281 60.895 88.281 61.754V66.426C88.281 67.316 88.156 67.473 87.344 67.52V67.723H90.375V67.52C89.609 67.488 89.391 67.363 89.391 66.551V64.176L90.953 64.207C91.766 64.207 92.016 64.316 92.141 65.223ZM92.391 65.223" fill="#231f20"/>
<path d="M116.18 64.238C116.211 63.629 116.914 63.441 117.258 63.441 118.242 63.441 118.633 64.551 118.633 65.551 118.633 66.27 118.461 67.488 117.211 67.488 116.945 67.488 116.18 67.348 116.18 66.973ZM115.273 67.145C115.273 67.535 116.398 67.832 116.945 67.832 118.945 67.832 119.57 66.129 119.57 65.16 119.57 64.004 118.961 62.754 117.648 62.754 116.836 62.754 116.258 63.379 116.195 63.629H116.18V60.363L116.117 60.348C115.602 60.535 115.07 60.676 114.555 60.816V61.004C114.617 60.988 114.727 60.988 114.789 60.988 115.273 60.988 115.273 61.207 115.273 61.535ZM115.273 67.145" fill="#231f20"/>
<path d="M177.887 65.223V62.723H177.637C177.527 63.535 177.34 63.754 176.449 63.754H174.887V61.348C174.887 61.035 174.965 60.988 175.23 60.988H176.699C177.902 60.988 178.184 61.16 178.34 62.113H178.605L178.574 60.582H172.84V60.785C173.527 60.832 173.777 60.895 173.777 61.754V66.426C173.777 67.316 173.652 67.473 172.84 67.52V67.723H175.871V67.52C175.105 67.488 174.887 67.363 174.887 66.551V64.176L176.449 64.207C177.262 64.207 177.512 64.316 177.637 65.223ZM177.887 65.223" fill="#231f20"/>
<path d="M195.609 66.035C195.25 66.582 194.844 67.051 194.063 67.051 193.156 67.051 192.406 66.238 192.406 64.988 192.406 63.41 193.406 63.066 193.813 63.066 194.375 63.066 194.438 63.27 194.516 63.582L194.578 63.832C194.656 64.066 194.828 64.348 195.109 64.316 195.438 64.301 195.609 64.098 195.609 63.848 195.609 63.645 195.469 63.316 195.141 63.098 194.875 62.926 194.391 62.754 194 62.754 192.828 62.754 191.578 63.645 191.578 65.426 191.578 67.129 192.734 67.832 193.594 67.832 194.469 67.832 195.172 67.363 195.766 66.129ZM195.609 66.035" fill="#231f20"/>
<path d="M216.207 60.707C217.582 60.707 217.613 63.41 217.613 64.145 217.613 65.004 217.582 67.598 216.207 67.598 214.816 67.598 214.801 65.02 214.801 64.145 214.801 63.41 214.816 60.707 216.207 60.707ZM216.207 60.426C214.223 60.426 213.77 62.879 213.77 64.145 213.77 65.457 214.223 67.879 216.207 67.879 218.191 67.879 218.645 65.457 218.645 64.145 218.645 62.879 218.191 60.426 216.207 60.426ZM216.207 60.426" fill="#231f20"/>
<path d="M267.27 67.52C266.363 67.488 266.238 67.285 266.238 66.551V61.035H266.816C268.004 61.035 268.316 61.223 268.535 62.41H268.801L268.738 60.582H262.645L262.582 62.41H262.832C263.082 61.238 263.363 61.035 264.551 61.035H265.145V66.426C265.145 67.223 265.098 67.473 264.129 67.52V67.723H267.27ZM267.27 67.52" fill="#231f20"/>
<path d="M357.855 65.223V62.723H357.605C357.496 63.535 357.309 63.754 356.418 63.754H354.855V61.348C354.855 61.035 354.934 60.988 355.199 60.988H356.668C357.871 60.988 358.152 61.16 358.309 62.113H358.574L358.543 60.582H352.809V60.785C353.496 60.832 353.746 60.895 353.746 61.754V66.426C353.746 67.316 353.621 67.473 352.809 67.52V67.723H355.84V67.52C355.074 67.488 354.855 67.363 354.855 66.551V64.176L356.418 64.207C357.23 64.207 357.48 64.316 357.605 65.223ZM357.855 65.223" fill="#231f20"/>
<path d="M396.188 60.707C397.563 60.707 397.594 63.41 397.594 64.145 397.594 65.004 397.563 67.598 396.188 67.598 394.797 67.598 394.781 65.02 394.781 64.145 394.781 63.41 394.797 60.707 396.188 60.707ZM396.188 60.426C394.203 60.426 393.75 62.879 393.75 64.145 393.75 65.457 394.203 67.879 396.188 67.879 398.172 67.879 398.625 65.457 398.625 64.145 398.625 62.879 398.172 60.426 396.188 60.426ZM396.188 60.426" fill="#231f20"/>
<path d="M379.777 62.863H378.449V61.613C378.449 61.207 378.496 60.645 379.09 60.645 379.59 60.645 379.652 61.457 380.105 61.457 380.324 61.457 380.574 61.316 380.574 61.004 380.574 60.645 380.09 60.348 379.496 60.348 377.543 60.348 377.543 62.254 377.543 62.863H376.668V63.207H377.543V66.598C377.543 67.426 377.355 67.535 376.652 67.566V67.723H379.449V67.566C378.465 67.535 378.449 67.254 378.449 66.598V63.207H379.777ZM379.777 62.863" fill="#231f20"/>
<path d="M267.902 119.223V116.723H267.652C267.543 117.535 267.355 117.754 266.465 117.754H264.902V115.348C264.902 115.035 264.98 114.988 265.246 114.988H266.715C267.918 114.988 268.199 115.16 268.355 116.113H268.621L268.59 114.582H262.855V114.785C263.543 114.832 263.793 114.895 263.793 115.754V120.426C263.793 121.316 263.668 121.473 262.855 121.52V121.723H265.887V121.52C265.121 121.488 264.902 121.363 264.902 120.551V118.176L266.465 118.207C267.277 118.207 267.527 118.316 267.652 119.223ZM267.902 119.223" fill="#231f20"/>
<path d="M357.898 119.223V116.723H357.648C357.539 117.535 357.352 117.754 356.461 117.754H354.898V115.348C354.898 115.035 354.977 114.988 355.242 114.988H356.711C357.914 114.988 358.195 115.16 358.352 116.113H358.617L358.586 114.582H352.852V114.785C353.539 114.832 353.789 114.895 353.789 115.754V120.426C353.789 121.316 353.664 121.473 352.852 121.52V121.723H355.883V121.52C355.117 121.488 354.898 121.363 354.898 120.551V118.176L356.461 118.207C357.273 118.207 357.523 118.316 357.648 119.223ZM357.898 119.223" fill="#231f20"/>
<path d="M284.711 120.629C284.617 121.004 284.195 121.27 283.742 121.27 283.039 121.27 282.258 120.66 282.258 119.051 282.258 117.582 282.992 117.051 283.602 117.051 284.102 117.051 284.633 117.41 284.711 118.145ZM286.336 121.098C285.617 121.145 285.617 120.941 285.617 120.488V114.363L285.57 114.348C285.039 114.535 284.523 114.676 283.977 114.816V115.004C284.055 114.988 284.164 114.988 284.242 114.988 284.711 114.988 284.711 115.207 284.711 115.535V117.223C284.352 116.91 284.023 116.754 283.57 116.754 282.352 116.754 281.336 118.004 281.336 119.41 281.336 121.613 282.867 121.832 283.289 121.832 284.102 121.832 284.492 121.426 284.695 121.145H284.711V121.801L284.758 121.832C285.32 121.629 285.82 121.457 286.336 121.27ZM286.336 121.098" fill="#231f20"/>
<path d="M380.234 119.957C379.984 120.348 379.516 121.082 378.563 121.082 377.844 121.082 376.969 120.645 376.844 118.738H380.203C380.078 117.316 379.313 116.754 378.297 116.754 377.438 116.754 376.094 117.41 376.094 119.41 376.094 120.941 376.922 121.832 378.109 121.832 379.672 121.832 380.297 120.363 380.406 120.035ZM376.875 118.379C377.047 117.441 377.469 117.145 378.063 117.145 378.922 117.145 379.031 117.863 379.094 118.379ZM376.875 118.379" fill="#231f20"/>
<path d="M396.234 114.707C397.609 114.707 397.641 117.41 397.641 118.145 397.641 119.004 397.609 121.598 396.234 121.598 394.844 121.598 394.828 119.02 394.828 118.145 394.828 117.41 394.844 114.707 396.234 114.707ZM396.234 114.426C394.25 114.426 393.797 116.879 393.797 118.145 393.797 119.457 394.25 121.879 396.234 121.879 398.219 121.879 398.672 119.457 398.672 118.145 398.672 116.879 398.219 114.426 396.234 114.426ZM396.234 114.426" fill="#231f20"/>
</g>
</svg>
