<svg xmlns="http://www.w3.org/2000/svg" xmlns:xlink="http://www.w3.org/1999/xlink" xmlns:inkscape="http://www.inkscape.org/namespaces/inkscape" version="1.1" width="395.0278" height="61.018995" viewBox="0 0 395.0278 61.018995">
<defs>
<clipPath id="clip_1">
<path d="M344.242 18.07H395.027V37.07H344.242Z"/>
</clipPath>
<clipPath id="clip_2">
<path d="M0 0H396V62H0Z"/>
</clipPath>
</defs>
<g>
<path stroke-width=".415" stroke-linecap="butt" stroke-miterlimit="10" stroke-linejoin="miter" fill="none" stroke="#231f20" d="M41.746 27.586H65.727"/>
<path stroke-width=".415" stroke-linecap="butt" stroke-miterlimit="10" stroke-linejoin="miter" fill="none" stroke="#231f20" d="M59.082 29.246 65.727 27.586 59.082 25.922"/>
<path stroke-width=".415" stroke-linecap="butt" stroke-miterlimit="10" stroke-linejoin="miter" fill="none" stroke="#231f20" d="M66.668 19.273H116.516V35.89H66.668Z"/>
<path stroke-width=".415" stroke-linecap="butt" stroke-miterlimit="10" stroke-linejoin="miter" fill="none" stroke="#231f20" d="M.207 10.969H50.055V44.198999H.207Z"/>
<path stroke-width=".415" stroke-linecap="butt" stroke-miterlimit="10" stroke-linejoin="miter" fill="none" stroke="#231f20" d="M162.207 27.582H182.035"/>
<path stroke-width=".415" stroke-linecap="butt" stroke-miterlimit="10" stroke-linejoin="miter" fill="none" stroke="#231f20" d="M175.387 29.246 182.035 27.582 175.387 25.922"/>
<path stroke-width=".415" stroke-linecap="butt" stroke-miterlimit="10" stroke-linejoin="miter" fill="none" stroke="#231f20" d="M182.977 19.273H232.82102V35.89H182.977Z"/>
<path stroke-width=".415" stroke-linecap="butt" stroke-miterlimit="10" stroke-linejoin="miter" fill="none" stroke="#231f20" d="M228.668 27.582H248.496"/>
<path stroke-width=".415" stroke-linecap="butt" stroke-miterlimit="10" stroke-linejoin="miter" fill="none" stroke="#231f20" d="M241.852 29.246 248.496 27.582 241.852 25.922"/>
<path stroke-width=".415" stroke-linecap="butt" stroke-miterlimit="10" stroke-linejoin="miter" fill="none" stroke="#231f20" d="M249.438 19.273H299.282V35.89H249.438Z"/>
<path stroke-width=".415" stroke-linecap="butt" stroke-miterlimit="10" stroke-linejoin="miter" fill="none" stroke="#231f20" d="M295.129 27.582H314.469"/>
<path stroke-width=".415" stroke-linecap="butt" stroke-miterlimit="10" stroke-linejoin="miter" fill="none" stroke="#231f20" d="M308.313 29.246 314.957 27.586 308.313 25.922"/>
<g clip-path="url(#clip_1)">
<g clip-path="url(#clip_2)">
<path stroke-width=".415" stroke-linecap="butt" stroke-miterlimit="10" stroke-linejoin="miter" fill="none" stroke="#231f20" d="M344.977 19.273H394.82099V35.89H344.977Z"/>
</g>
</g>
<path stroke-width=".415" stroke-linecap="butt" stroke-miterlimit="10" stroke-linejoin="miter" fill="none" stroke="#231f20" d="M216.207 19.273V35.891"/>
<path stroke-width=".415" stroke-linecap="butt" stroke-miterlimit="10" stroke-linejoin="miter" fill="none" stroke="#231f20" d="M282.668 19.273V35.891"/>
<path stroke-width=".415" stroke-linecap="butt" stroke-miterlimit="10" stroke-linejoin="miter" fill="none" stroke="#231f20" d="M382.359 19.273V35.891"/>
<path stroke-width=".415" stroke-linecap="butt" stroke-miterlimit="10" stroke-linejoin="miter" fill="none" stroke="#231f20" d="M91.59 19.273V35.891"/>
<path stroke-width=".415" stroke-linecap="butt" stroke-miterlimit="10" stroke-linejoin="miter" fill="none" stroke="#231f20" d="M112.359 27.586H132.008"/>
<path stroke-width=".415" stroke-linecap="butt" stroke-miterlimit="10" stroke-linejoin="miter" fill="none" stroke="#231f20" d="M125.543 29.246 132.188 27.586 125.543 25.922"/>
<path stroke-width=".415" stroke-linecap="butt" stroke-miterlimit="10" stroke-linejoin="miter" fill="none" stroke="#231f20" d="M390.668 27.586V60.813H83.281V35.891"/>
<path stroke-width=".415" stroke-linecap="butt" stroke-miterlimit="10" stroke-linejoin="miter" fill="none" stroke="#231f20" d="M84.945 43.48 83.281 36.832 81.621 43.48"/>
<path d="M20.457 27.25H19.238V26.094C19.238 25.719 19.285 25.203 19.832 25.203 20.301 25.203 20.348 25.953 20.77 25.953 20.973 25.953 21.191 25.828 21.191 25.531 21.191 25.188 20.754 24.922 20.207 24.922 18.41 24.922 18.41 26.688 18.41 27.25H17.582V27.563H18.41V30.703C18.41 31.469 18.238 31.563 17.582 31.578V31.734H20.176V31.578C19.254 31.563 19.238 31.313 19.238 30.703V27.563H20.457ZM20.457 27.25" fill="#231f20"/>
<path d="M20.855 31.734H23.215V31.578C22.527 31.547 22.48 31.375 22.48 30.719V27.172L22.449 27.156C21.918 27.344 21.418 27.531 20.902 27.703V27.844C21.027 27.828 21.152 27.813 21.293 27.813 21.449 27.813 21.652 27.813 21.652 28.406V30.719C21.652 31.5 21.48 31.563 20.855 31.578ZM21.48 25.438C21.48 25.625 21.621 25.938 21.98 25.938 22.277 25.938 22.496 25.719 22.496 25.438 22.496 25.156 22.277 24.922 21.98 24.922 21.621 24.922 21.48 25.25 21.48 25.438ZM21.48 25.438" fill="#231f20"/>
<path d="M24.219 30.891C24.219 31.453 24.063 31.484 23.516 31.578V31.734H25.906V31.578C25.406 31.563 25.063 31.531 25.063 30.844V28.594C25.063 28.281 25.5 27.781 25.734 27.781 25.984 27.781 26.078 28.125 26.422 28.125 26.672 28.125 26.813 27.938 26.813 27.688 26.813 27.359 26.609 27.156 26.266 27.156 25.891 27.156 25.547 27.344 25.078 28.063H25.063V27.172L25.016 27.156C24.531 27.344 24.031 27.531 23.531 27.688V27.844C23.625 27.828 23.734 27.813 23.875 27.813 24.031 27.813 24.219 27.813 24.219 28.406ZM24.219 30.891" fill="#231f20"/>
<path d="M29.93 28.609 29.883 27.234H29.773C29.742 27.281 29.695 27.344 29.617 27.344 29.445 27.344 29.133 27.156 28.695 27.156 27.727 27.156 27.305 27.813 27.305 28.359 27.305 29.109 27.852 29.469 28.461 29.828L29.039 30.156C29.367 30.328 29.555 30.563 29.555 30.891 29.555 31.453 29.086 31.609 28.758 31.609 27.773 31.609 27.586 30.75 27.461 30.219H27.305V31.781H27.43C27.492 31.688 27.539 31.656 27.664 31.656 27.93 31.641 28.367 31.828 28.82 31.828 29.445 31.828 30.258 31.422 30.258 30.547 30.258 29.953 29.914 29.672 29.414 29.375L28.352 28.734C27.977 28.516 27.914 28.219 27.914 28.031 27.914 27.766 28.117 27.375 28.68 27.375 29.117 27.375 29.555 27.594 29.773 28.609ZM29.93 28.609" fill="#231f20"/>
<path d="M33.215 27.25H32.199V26.094C32.199 26.016 32.199 25.969 32.137 25.969 31.762 26.484 31.621 26.703 31.23 27.094 31.012 27.313 30.793 27.375 30.793 27.5 30.793 27.531 30.824 27.563 30.84 27.563H31.371V30.563C31.371 31.563 31.777 31.828 32.277 31.828 32.746 31.828 33.215 31.5 33.449 31.078L33.324 30.969C33.215 31.094 33.027 31.313 32.715 31.313 32.199 31.313 32.199 30.734 32.199 30.422V27.563H33.215ZM33.215 27.25" fill="#231f20"/>
<path d="M336.258 27.688C336.461 27.688 336.805 27.516 336.805 27.156 336.805 26.844 336.555 26.578 336.258 26.578 335.961 26.578 335.711 26.828 335.711 27.156 335.711 27.531 336.039 27.688 336.258 27.688ZM336.258 27.688" fill="#231f20"/>
<path d="M331.27 27.688C331.473 27.688 331.816 27.516 331.816 27.156 331.816 26.844 331.566 26.578 331.27 26.578 330.973 26.578 330.723 26.828 330.723 27.156 330.723 27.531 331.051 27.688 331.27 27.688ZM331.27 27.688" fill="#231f20"/>
<path d="M326.285 27.688C326.488 27.688 326.832 27.516 326.832 27.156 326.832 26.844 326.582 26.578 326.285 26.578 325.988 26.578 325.738 26.828 325.738 27.156 325.738 27.531 326.066 27.688 326.285 27.688ZM326.285 27.688" fill="#231f20"/>
<path d="M321.305 27.688C321.508 27.688 321.852 27.516 321.852 27.156 321.852 26.844 321.602 26.578 321.305 26.578 321.008 26.578 320.758 26.828 320.758 27.156 320.758 27.531 321.086 27.688 321.305 27.688ZM321.305 27.688" fill="#231f20"/>
<path d="M157.637 27.688C157.84 27.688 158.184 27.516 158.184 27.156 158.184 26.844 157.934 26.578 157.637 26.578 157.34 26.578 157.09 26.828 157.09 27.156 157.09 27.531 157.418 27.688 157.637 27.688ZM157.637 27.688" fill="#231f20"/>
<path d="M152.652 27.688C152.855 27.688 153.199 27.516 153.199 27.156 153.199 26.844 152.949 26.578 152.652 26.578 152.355 26.578 152.105 26.828 152.105 27.156 152.105 27.531 152.434 27.688 152.652 27.688ZM152.652 27.688" fill="#231f20"/>
<path d="M147.668 27.688C147.871 27.688 148.215 27.516 148.215 27.156 148.215 26.844 147.965 26.578 147.668 26.578 147.371 26.578 147.121 26.828 147.121 27.156 147.121 27.531 147.449 27.688 147.668 27.688ZM147.668 27.688" fill="#231f20"/>
<path d="M142.684 27.688C142.887 27.688 143.23 27.516 143.23 27.156 143.23 26.844 142.98 26.578 142.684 26.578 142.387 26.578 142.137 26.828 142.137 27.156 142.137 27.531 142.465 27.688 142.684 27.688ZM142.684 27.688" fill="#231f20"/>
<path d="M74.215 30.719C74.137 31.078 73.746 31.313 73.324 31.313 72.668 31.313 71.949 30.75 71.949 29.266 71.949 27.922 72.621 27.422 73.184 27.422 73.652 27.422 74.137 27.75 74.215 28.422ZM75.715 31.156C75.059 31.203 75.059 31 75.059 30.594V24.953L74.996 24.922C74.527 25.094 74.027 25.234 73.543 25.359V25.531C73.621 25.516 73.715 25.516 73.777 25.516 74.215 25.516 74.215 25.719 74.215 26.016V27.578C73.887 27.281 73.59 27.156 73.152 27.156 72.043 27.156 71.09 28.297 71.09 29.594 71.09 31.641 72.512 31.828 72.902 31.828 73.652 31.828 74.012 31.469 74.199 31.203H74.215V31.797L74.246 31.828C74.777 31.641 75.246 31.484 75.715 31.313ZM75.715 31.156" fill="#231f20"/>
<path d="M78.668 30.516C78.668 30.813 78.637 30.922 78.324 31.078 78.246 31.125 77.934 31.25 77.715 31.25 77.34 31.25 77.059 30.953 77.059 30.484V30.453C77.059 30.125 77.168 29.563 78.668 29.063ZM80.215 31.078C80.105 31.172 79.98 31.266 79.762 31.266 79.48 31.266 79.48 30.984 79.48 30.688V28.75C79.48 28.141 79.48 27.156 77.996 27.156 76.84 27.156 76.371 27.859 76.371 28.25 76.371 28.422 76.48 28.688 76.793 28.688 77.059 28.688 77.246 28.469 77.246 28.266 77.246 28.172 77.199 28.031 77.199 27.875 77.199 27.563 77.574 27.391 77.902 27.391 78.199 27.391 78.668 27.5 78.668 28.219V28.828C77.043 29.469 76.184 29.797 76.184 30.797 76.184 31.469 76.699 31.828 77.23 31.828 77.777 31.828 78.309 31.438 78.684 31.109 78.73 31.828 79.152 31.828 79.324 31.828 79.48 31.828 79.793 31.828 80.215 31.328ZM80.215 31.078" fill="#231f20"/>
<path d="M82.781 27.25H81.766V26.094C81.766 26.016 81.766 25.969 81.703 25.969 81.328 26.484 81.188 26.703 80.797 27.094 80.578 27.313 80.359 27.375 80.359 27.5 80.359 27.531 80.391 27.563 80.406 27.563H80.938V30.563C80.938 31.563 81.344 31.828 81.844 31.828 82.313 31.828 82.781 31.5 83.016 31.078L82.891 30.969C82.781 31.094 82.594 31.313 82.281 31.313 81.766 31.313 81.766 30.734 81.766 30.422V27.563H82.781ZM82.781 27.25" fill="#231f20"/>
<path d="M85.863 30.516C85.863 30.813 85.832 30.922 85.52 31.078 85.441 31.125 85.129 31.25 84.91 31.25 84.535 31.25 84.254 30.953 84.254 30.484V30.453C84.254 30.125 84.363 29.563 85.863 29.063ZM87.41 31.078C87.301 31.172 87.176 31.266 86.957 31.266 86.676 31.266 86.676 30.984 86.676 30.688V28.75C86.676 28.141 86.676 27.156 85.191 27.156 84.035 27.156 83.566 27.859 83.566 28.25 83.566 28.422 83.676 28.688 83.988 28.688 84.254 28.688 84.441 28.469 84.441 28.266 84.441 28.172 84.395 28.031 84.395 27.875 84.395 27.563 84.77 27.391 85.098 27.391 85.395 27.391 85.863 27.5 85.863 28.219V28.828C84.238 29.469 83.379 29.797 83.379 30.797 83.379 31.469 83.895 31.828 84.426 31.828 84.973 31.828 85.504 31.438 85.879 31.109 85.926 31.828 86.348 31.828 86.52 31.828 86.676 31.828 86.988 31.828 87.41 31.328ZM87.41 31.078" fill="#231f20"/>
<path d="M95.949 31.734H98.309V31.578C97.73 31.563 97.559 31.469 97.559 30.891V24.953L97.527 24.922C96.996 25.094 96.465 25.234 95.934 25.359V25.531C96.059 25.516 96.152 25.5 96.277 25.5 96.668 25.5 96.73 25.656 96.73 26.109V30.859C96.73 31.422 96.543 31.547 95.949 31.578ZM95.949 31.734" fill="#231f20"/>
<path d="M98.672 31.734H101.031V31.578C100.344 31.547 100.297 31.375 100.297 30.719V27.172L100.266 27.156C99.734 27.344 99.234 27.531 98.719 27.703V27.844C98.844 27.828 98.969 27.813 99.109 27.813 99.266 27.813 99.469 27.813 99.469 28.406V30.719C99.469 31.5 99.297 31.563 98.672 31.578ZM99.297 25.438C99.297 25.625 99.438 25.938 99.797 25.938 100.094 25.938 100.313 25.719 100.313 25.438 100.313 25.156 100.094 24.922 99.797 24.922 99.438 24.922 99.297 25.25 99.297 25.438ZM99.297 25.438" fill="#231f20"/>
<path d="M102.086 30.844C102.086 31.422 101.93 31.563 101.461 31.578V31.734H103.586V31.578C103.07 31.563 102.93 31.391 102.93 31.063V28.266C103.305 27.891 103.617 27.703 103.914 27.703 104.492 27.703 104.68 28.063 104.68 28.656V30.75C104.68 31.5 104.414 31.563 104.055 31.578V31.734H106.117V31.578C105.633 31.547 105.523 31.391 105.523 30.922V28.641C105.523 27.422 104.805 27.156 104.352 27.156 103.758 27.156 103.383 27.5 102.898 27.953V27.172L102.82 27.156C102.367 27.313 101.898 27.469 101.445 27.594V27.766C101.492 27.75 101.602 27.734 101.742 27.734 101.898 27.734 102.086 27.734 102.086 28.359ZM102.086 30.844" fill="#231f20"/>
<path d="M106.336 31.734H108.68V31.578H108.477C108.148 31.563 107.93 31.469 107.93 31.063V29.266H107.945L109.32 31.094C109.445 31.266 109.539 31.359 109.539 31.422 109.539 31.563 109.398 31.578 109.32 31.578H109.133V31.734H111.305V31.578C111.039 31.563 110.648 31.5 110.148 30.859L108.617 28.922 108.898 28.656C110.258 27.391 110.523 27.391 111.055 27.391V27.25H109.023V27.391C109.445 27.391 109.523 27.469 109.523 27.578 109.523 27.672 109.445 27.781 109.289 27.922 108.898 28.25 108.305 28.797 107.945 29.109L107.93 29.094V24.953L107.883 24.922C107.367 25.094 106.836 25.234 106.336 25.359V25.531C106.43 25.516 106.508 25.5 106.648 25.5 107.023 25.5 107.086 25.656 107.086 26.109V30.922C107.086 31.453 107.008 31.469 106.336 31.578ZM106.336 31.734" fill="#231f20"/>
<path d="M23.008 2.313 22.914 .078H22.695C22.617 .406 22.289 .406 22.242 .406 22.023 .406 21.383 .078 20.492 .078 18.773 .078 17.102 1.281 17.102 3.516 17.102 6 18.82 6.953 20.43 6.953 22.258 6.953 23.117 5.703 23.133 5.688L22.945 5.5C22.648 5.813 21.93 6.516 20.695 6.516 19.445 6.516 18.258 5.641 18.258 3.531 18.258 2.094 18.695 1.453 19.086 1.078 19.508 .672 20.086 .469 20.586 .469 21.805 .469 22.523 1.266 22.773 2.313ZM23.008 2.313" fill="#231f20"/>
<path d="M23.625 6.813H25.984V6.656C25.297 6.625 25.25 6.453 25.25 5.797V2.25L25.219 2.234C24.688 2.422 24.188 2.609 23.672 2.781V2.922C23.797 2.906 23.922 2.891 24.063 2.891 24.219 2.891 24.422 2.891 24.422 3.484V5.797C24.422 6.578 24.25 6.641 23.625 6.656ZM24.25 .516C24.25 .703 24.391 1.016 24.75 1.016 25.047 1.016 25.266 .797 25.266 .516 25.266 .234 25.047 0 24.75 0 24.391 0 24.25 .328 24.25 .516ZM24.25 .516" fill="#231f20"/>
<path d="M26.988 5.969C26.988 6.531 26.832 6.563 26.285 6.656V6.813H28.676V6.656C28.176 6.641 27.832 6.609 27.832 5.922V3.672C27.832 3.359 28.27 2.859 28.504 2.859 28.754 2.859 28.848 3.203 29.191 3.203 29.441 3.203 29.582 3.016 29.582 2.766 29.582 2.438 29.379 2.234 29.035 2.234 28.66 2.234 28.316 2.422 27.848 3.141H27.832V2.25L27.785 2.234C27.301 2.422 26.801 2.609 26.301 2.766V2.922C26.395 2.906 26.504 2.891 26.645 2.891 26.801 2.891 26.988 2.891 26.988 3.484ZM26.988 5.969" fill="#231f20"/>
<path d="M33.527 5.25C33.184 5.766 32.824 6.188 32.105 6.188 31.262 6.188 30.574 5.438 30.574 4.297 30.574 2.828 31.496 2.516 31.855 2.516 32.387 2.516 32.434 2.703 32.512 3L32.574 3.219C32.637 3.438 32.809 3.688 33.074 3.672 33.371 3.656 33.527 3.469 33.527 3.234 33.527 3.047 33.402 2.75 33.09 2.531 32.855 2.375 32.402 2.234 32.043 2.234 30.965 2.234 29.809 3.047 29.809 4.688 29.809 6.266 30.871 6.906 31.668 6.906 32.48 6.906 33.121 6.484 33.668 5.344ZM33.527 5.25" fill="#231f20"/>
<path d="M34.188 6.813H36.547V6.656C35.969 6.641 35.797 6.547 35.797 5.969V.031L35.766 0C35.234 .172 34.703 .313 34.172 .438V.609C34.297 .594 34.391 .578 34.516 .578 34.906 .578 34.969 .734 34.969 1.188V5.938C34.969 6.5 34.781 6.625 34.188 6.656ZM34.188 6.813" fill="#231f20"/>
<path d="M36.914 6.813H39.273V6.656C38.586 6.625 38.539 6.453 38.539 5.797V2.25L38.508 2.234C37.977 2.422 37.477 2.609 36.961 2.781V2.922C37.086 2.906 37.211 2.891 37.352 2.891 37.508 2.891 37.711 2.891 37.711 3.484V5.797C37.711 6.578 37.539 6.641 36.914 6.656ZM37.539 .516C37.539 .703 37.68 1.016 38.039 1.016 38.336 1.016 38.555 .797 38.555 .516 38.555 .234 38.336 0 38.039 0 37.68 0 37.539 .328 37.539 .516ZM37.539 .516" fill="#231f20"/>
<path d="M42.668 3.688 42.621 2.313H42.512C42.48 2.359 42.434 2.422 42.355 2.422 42.184 2.422 41.871 2.234 41.434 2.234 40.465 2.234 40.043 2.891 40.043 3.438 40.043 4.188 40.59 4.547 41.199 4.906L41.777 5.234C42.105 5.406 42.293 5.641 42.293 5.969 42.293 6.531 41.824 6.688 41.496 6.688 40.512 6.688 40.324 5.828 40.199 5.297H40.043V6.859H40.168C40.23 6.766 40.277 6.734 40.402 6.734 40.668 6.719 41.105 6.906 41.559 6.906 42.184 6.906 42.996 6.5 42.996 5.625 42.996 5.031 42.652 4.75 42.152 4.453L41.09 3.813C40.715 3.594 40.652 3.297 40.652 3.109 40.652 2.844 40.855 2.453 41.418 2.453 41.855 2.453 42.293 2.672 42.512 3.688ZM42.668 3.688" fill="#231f20"/>
<path d="M45.953 2.328H44.938V1.172C44.938 1.094 44.938 1.047 44.875 1.047 44.5 1.563 44.359 1.781 43.969 2.172 43.75 2.391 43.531 2.453 43.531 2.578 43.531 2.609 43.563 2.641 43.578 2.641H44.109V5.641C44.109 6.641 44.516 6.906 45.016 6.906 45.484 6.906 45.953 6.578 46.188 6.156L46.063 6.047C45.953 6.172 45.766 6.391 45.453 6.391 44.938 6.391 44.938 5.813 44.938 5.5V2.641H45.953ZM45.953 2.328" fill="#231f20"/>
<path d="M73.762 8.523H70.949V8.711C71.574 8.758 71.809 8.82 71.809 9.602V14.023C71.809 14.805 71.574 14.883 70.949 14.93V15.117H76.309L76.793 13.383H76.543C75.965 14.695 75.324 14.727 73.84 14.727 73.012 14.727 72.824 14.711 72.824 14.32V9.602C72.824 8.82 73.074 8.742 73.762 8.711ZM73.762 8.523" fill="#231f20"/>
<path d="M77.07 15.117H79.43V14.961C78.742 14.93 78.695 14.758 78.695 14.102V10.555L78.664 10.539C78.133 10.727 77.633 10.914 77.117 11.086V11.227C77.242 11.211 77.367 11.195 77.508 11.195 77.664 11.195 77.867 11.195 77.867 11.789V14.102C77.867 14.883 77.695 14.945 77.07 14.961ZM77.695 8.82C77.695 9.008 77.836 9.32 78.195 9.32 78.492 9.32 78.711 9.102 78.711 8.82 78.711 8.539 78.492 8.305 78.195 8.305 77.836 8.305 77.695 8.633 77.695 8.82ZM77.695 8.82" fill="#231f20"/>
<path d="M82.824 11.992 82.777 10.617H82.668C82.637 10.664 82.59 10.727 82.512 10.727 82.34 10.727 82.027 10.539 81.59 10.539 80.621 10.539 80.199 11.195 80.199 11.742 80.199 12.492 80.746 12.852 81.355 13.211L81.934 13.539C82.262 13.711 82.449 13.945 82.449 14.273 82.449 14.836 81.98 14.992 81.652 14.992 80.668 14.992 80.48 14.133 80.355 13.602H80.199V15.164H80.324C80.387 15.07 80.434 15.039 80.559 15.039 80.824 15.023 81.262 15.211 81.715 15.211 82.34 15.211 83.152 14.805 83.152 13.93 83.152 13.336 82.809 13.055 82.309 12.758L81.246 12.117C80.871 11.898 80.809 11.602 80.809 11.414 80.809 11.148 81.012 10.758 81.574 10.758 82.012 10.758 82.449 10.977 82.668 11.992ZM82.824 11.992" fill="#231f20"/>
<path d="M86.109 10.633H85.094V9.477C85.094 9.398 85.094 9.352 85.031 9.352 84.656 9.867 84.516 10.086 84.125 10.477 83.906 10.695 83.688 10.758 83.688 10.883 83.688 10.914 83.719 10.945 83.734 10.945H84.266V13.945C84.266 14.945 84.672 15.211 85.172 15.211 85.641 15.211 86.109 14.883 86.344 14.461L86.219 14.352C86.109 14.477 85.922 14.695 85.609 14.695 85.094 14.695 85.094 14.117 85.094 13.805V10.945H86.109ZM86.109 10.633" fill="#231f20"/>
<path d="M93.383 8.523H91.039V8.711C91.727 8.758 91.992 8.836 91.992 9.977V13.32H91.977L88.164 8.523H86.461V8.711C86.852 8.711 87.008 8.758 87.43 9.258V13.648C87.43 14.727 87.211 14.883 86.461 14.93V15.117H88.805V14.93C88.07 14.898 87.867 14.68 87.867 13.648V9.758H87.883L92.273 15.227H92.43V9.977C92.43 8.82 92.758 8.773 93.383 8.711ZM93.383 8.523" fill="#231f20"/>
<path d="M95.969 10.539C94.641 10.539 93.828 11.617 93.828 12.852 93.828 14.195 94.719 15.211 96 15.211 97.516 15.211 98.219 13.836 98.219 12.852 98.219 11.398 97.281 10.539 95.969 10.539ZM96.141 14.945C94.953 14.945 94.719 13.102 94.719 12.367 94.719 11.336 95.266 10.805 95.891 10.805 96.813 10.805 97.313 11.898 97.313 13.133 97.313 14.555 96.656 14.945 96.141 14.945ZM96.141 14.945" fill="#231f20"/>
<path d="M101.906 14.102C101.828 14.461 101.438 14.695 101.016 14.695 100.359 14.695 99.641 14.133 99.641 12.648 99.641 11.305 100.313 10.805 100.875 10.805 101.344 10.805 101.828 11.133 101.906 11.805ZM103.406 14.539C102.75 14.586 102.75 14.383 102.75 13.977V8.336L102.688 8.305C102.219 8.477 101.719 8.617 101.234 8.742V8.914C101.313 8.898 101.406 8.898 101.469 8.898 101.906 8.898 101.906 9.102 101.906 9.398V10.961C101.578 10.664 101.281 10.539 100.844 10.539 99.734 10.539 98.781 11.68 98.781 12.977 98.781 15.023 100.203 15.211 100.594 15.211 101.344 15.211 101.703 14.852 101.891 14.586H101.906V15.18L101.938 15.211C102.469 15.023 102.938 14.867 103.406 14.695ZM103.406 14.539" fill="#231f20"/>
<path d="M107.563 13.477C107.344 13.852 106.906 14.523 106.016 14.523 105.359 14.523 104.563 14.117 104.438 12.352H107.531C107.422 11.055 106.719 10.539 105.781 10.539 104.984 10.539 103.75 11.133 103.75 12.977 103.75 14.398 104.5 15.211 105.609 15.211 107.047 15.211 107.625 13.867 107.734 13.555ZM104.469 12.039C104.625 11.164 105.016 10.883 105.563 10.883 106.344 10.883 106.453 11.555 106.516 12.039ZM104.469 12.039" fill="#231f20"/>
</g>
</svg>
