<svg xmlns="http://www.w3.org/2000/svg" xmlns:xlink="http://www.w3.org/1999/xlink" xmlns:inkscape="http://www.inkscape.org/namespaces/inkscape" version="1.1" width="395.0278" height="44.40489" viewBox="0 0 395.0278 44.40489">
<defs>
<clipPath id="clip_1">
<path d="M344.242 18.598H395.027V36.598H344.242Z"/>
</clipPath>
<clipPath id="clip_2">
<path d="M0 0H396V45H0Z"/>
</clipPath>
</defs>
<g>
<path stroke-width=".415" stroke-linecap="butt" stroke-miterlimit="10" stroke-linejoin="miter" fill="none" stroke="#231f20" d="M41.746 27.582H65.594"/>
<path stroke-width=".415" stroke-linecap="butt" stroke-miterlimit="10" stroke-linejoin="miter" fill="none" stroke="#231f20" d="M59.082 29.246 65.727 27.582 59.082 25.922"/>
<path stroke-width=".415" stroke-linecap="butt" stroke-miterlimit="10" stroke-linejoin="miter" fill="none" stroke="#231f20" d="M66.668 19.277H116.516V35.89H66.668Z"/>
<path stroke-width=".415" stroke-linecap="butt" stroke-miterlimit="10" stroke-linejoin="miter" fill="none" stroke="#231f20" d="M.207 10.969H50.055V44.198999H.207Z"/>
<path stroke-width=".415" stroke-linecap="butt" stroke-miterlimit="10" stroke-linejoin="miter" fill="none" stroke="#231f20" d="M162.207 27.582H182.035"/>
<path stroke-width=".415" stroke-linecap="butt" stroke-miterlimit="10" stroke-linejoin="miter" fill="none" stroke="#231f20" d="M175.387 29.246 182.035 27.582 175.387 25.922"/>
<path stroke-width=".415" stroke-linecap="butt" stroke-miterlimit="10" stroke-linejoin="miter" fill="none" stroke="#231f20" d="M182.977 19.277H232.82102V35.89H182.977Z"/>
<path stroke-width=".415" stroke-linecap="butt" stroke-miterlimit="10" stroke-linejoin="miter" fill="none" stroke="#231f20" d="M228.668 27.582H248.496"/>
<path stroke-width=".415" stroke-linecap="butt" stroke-miterlimit="10" stroke-linejoin="miter" fill="none" stroke="#231f20" d="M241.852 29.246 248.496 27.582 241.852 25.922"/>
<path stroke-width=".415" stroke-linecap="butt" stroke-miterlimit="10" stroke-linejoin="miter" fill="none" stroke="#231f20" d="M249.438 19.277H299.282V35.89H249.438Z"/>
<path stroke-width=".415" stroke-linecap="butt" stroke-miterlimit="10" stroke-linejoin="miter" fill="none" stroke="#231f20" d="M295.129 27.582H314.77"/>
<path stroke-width=".415" stroke-linecap="butt" stroke-miterlimit="10" stroke-linejoin="miter" fill="none" stroke="#231f20" d="M308.313 29.246 314.957 27.582 308.313 25.922"/>
<g clip-path="url(#clip_1)">
<g clip-path="url(#clip_2)">
<path stroke-width=".415" stroke-linecap="butt" stroke-miterlimit="10" stroke-linejoin="miter" fill="none" stroke="#231f20" d="M344.977 19.277H394.82099V35.89H344.977Z"/>
</g>
</g>
<path stroke-width=".415" stroke-linecap="butt" stroke-miterlimit="10" stroke-linejoin="miter" fill="none" stroke="#231f20" d="M216.207 19.277V35.891"/>
<path stroke-width=".415" stroke-linecap="butt" stroke-miterlimit="10" stroke-linejoin="miter" fill="none" stroke="#231f20" d="M282.668 19.277V35.891"/>
<path stroke-width=".415" stroke-linecap="butt" stroke-miterlimit="10" stroke-linejoin="miter" fill="none" stroke="#231f20" d="M382.359 19.277V35.891"/>
<path stroke-width=".415" stroke-linecap="butt" stroke-miterlimit="10" stroke-linejoin="miter" fill="none" stroke="#231f20" d="M91.59 19.277V35.891"/>
<path stroke-width=".415" stroke-linecap="butt" stroke-miterlimit="10" stroke-linejoin="miter" fill="none" stroke="#231f20" d="M112.359 27.582H131.676"/>
<path stroke-width=".415" stroke-linecap="butt" stroke-miterlimit="10" stroke-linejoin="miter" fill="none" stroke="#231f20" d="M125.543 29.246 132.188 27.582 125.543 25.922"/>
<path d="M20.457 27.25H19.238V26.094C19.238 25.719 19.285 25.203 19.832 25.203 20.301 25.203 20.348 25.953 20.77 25.953 20.973 25.953 21.191 25.828 21.191 25.531 21.191 25.188 20.754 24.922 20.207 24.922 18.41 24.922 18.41 26.688 18.41 27.25H17.582V27.563H18.41V30.703C18.41 31.469 18.238 31.563 17.582 31.578V31.734H20.176V31.578C19.254 31.563 19.238 31.313 19.238 30.703V27.563H20.457ZM20.457 27.25" fill="#231f20"/>
<path d="M20.855 31.734H23.215V31.578C22.527 31.547 22.48 31.375 22.48 30.719V27.172L22.449 27.156C21.918 27.344 21.418 27.531 20.902 27.703V27.844C21.027 27.828 21.152 27.813 21.293 27.813 21.449 27.813 21.652 27.813 21.652 28.406V30.719C21.652 31.5 21.48 31.563 20.855 31.578ZM21.48 25.438C21.48 25.625 21.621 25.938 21.98 25.938 22.277 25.938 22.496 25.719 22.496 25.438 22.496 25.156 22.277 24.922 21.98 24.922 21.621 24.922 21.48 25.25 21.48 25.438ZM21.48 25.438" fill="#231f20"/>
<path d="M24.219 30.891C24.219 31.453 24.063 31.484 23.516 31.578V31.734H25.906V31.578C25.406 31.563 25.063 31.531 25.063 30.844V28.594C25.063 28.281 25.5 27.781 25.734 27.781 25.984 27.781 26.078 28.125 26.422 28.125 26.672 28.125 26.813 27.938 26.813 27.688 26.813 27.359 26.609 27.156 26.266 27.156 25.891 27.156 25.547 27.344 25.078 28.063H25.063V27.172L25.016 27.156C24.531 27.344 24.031 27.531 23.531 27.688V27.844C23.625 27.828 23.734 27.813 23.875 27.813 24.031 27.813 24.219 27.813 24.219 28.406ZM24.219 30.891" fill="#231f20"/>
<path d="M29.93 28.609 29.883 27.234H29.773C29.742 27.281 29.695 27.344 29.617 27.344 29.445 27.344 29.133 27.156 28.695 27.156 27.727 27.156 27.305 27.813 27.305 28.359 27.305 29.109 27.852 29.469 28.461 29.828L29.039 30.156C29.367 30.328 29.555 30.563 29.555 30.891 29.555 31.453 29.086 31.609 28.758 31.609 27.773 31.609 27.586 30.75 27.461 30.219H27.305V31.781H27.43C27.492 31.688 27.539 31.656 27.664 31.656 27.93 31.641 28.367 31.828 28.82 31.828 29.445 31.828 30.258 31.422 30.258 30.547 30.258 29.953 29.914 29.672 29.414 29.375L28.352 28.734C27.977 28.516 27.914 28.219 27.914 28.031 27.914 27.766 28.117 27.375 28.68 27.375 29.117 27.375 29.555 27.594 29.773 28.609ZM29.93 28.609" fill="#231f20"/>
<path d="M33.215 27.25H32.199V26.094C32.199 26.016 32.199 25.969 32.137 25.969 31.762 26.484 31.621 26.703 31.23 27.094 31.012 27.313 30.793 27.375 30.793 27.5 30.793 27.531 30.824 27.563 30.84 27.563H31.371V30.563C31.371 31.563 31.777 31.828 32.277 31.828 32.746 31.828 33.215 31.5 33.449 31.078L33.324 30.969C33.215 31.094 33.027 31.313 32.715 31.313 32.199 31.313 32.199 30.734 32.199 30.422V27.563H33.215ZM33.215 27.25" fill="#231f20"/>
<path d="M336.258 27.688C336.461 27.688 336.805 27.516 336.805 27.156 336.805 26.844 336.555 26.578 336.258 26.578 335.961 26.578 335.711 26.828 335.711 27.156 335.711 27.531 336.039 27.688 336.258 27.688ZM336.258 27.688" fill="#231f20"/>
<path d="M331.27 27.688C331.473 27.688 331.816 27.516 331.816 27.156 331.816 26.844 331.566 26.578 331.27 26.578 330.973 26.578 330.723 26.828 330.723 27.156 330.723 27.531 331.051 27.688 331.27 27.688ZM331.27 27.688" fill="#231f20"/>
<path d="M326.285 27.688C326.488 27.688 326.832 27.516 326.832 27.156 326.832 26.844 326.582 26.578 326.285 26.578 325.988 26.578 325.738 26.828 325.738 27.156 325.738 27.531 326.066 27.688 326.285 27.688ZM326.285 27.688" fill="#231f20"/>
<path d="M321.305 27.688C321.508 27.688 321.852 27.516 321.852 27.156 321.852 26.844 321.602 26.578 321.305 26.578 321.008 26.578 320.758 26.828 320.758 27.156 320.758 27.531 321.086 27.688 321.305 27.688ZM321.305 27.688" fill="#231f20"/>
<path d="M157.637 27.688C157.84 27.688 158.184 27.516 158.184 27.156 158.184 26.844 157.934 26.578 157.637 26.578 157.34 26.578 157.09 26.828 157.09 27.156 157.09 27.531 157.418 27.688 157.637 27.688ZM157.637 27.688" fill="#231f20"/>
<path d="M152.652 27.688C152.855 27.688 153.199 27.516 153.199 27.156 153.199 26.844 152.949 26.578 152.652 26.578 152.355 26.578 152.105 26.828 152.105 27.156 152.105 27.531 152.434 27.688 152.652 27.688ZM152.652 27.688" fill="#231f20"/>
<path d="M147.668 27.688C147.871 27.688 148.215 27.516 148.215 27.156 148.215 26.844 147.965 26.578 147.668 26.578 147.371 26.578 147.121 26.828 147.121 27.156 147.121 27.531 147.449 27.688 147.668 27.688ZM147.668 27.688" fill="#231f20"/>
<path d="M142.684 27.688C142.887 27.688 143.23 27.516 143.23 27.156 143.23 26.844 142.98 26.578 142.684 26.578 142.387 26.578 142.137 26.828 142.137 27.156 142.137 27.531 142.465 27.688 142.684 27.688ZM142.684 27.688" fill="#231f20"/>
<path d="M386.516 25.25C387.781 25.25 387.797 27.75 387.797 28.438 387.797 29.219 387.781 31.609 386.516 31.609 385.234 31.609 385.219 29.234 385.219 28.438 385.219 27.75 385.234 25.25 386.516 25.25ZM386.516 25C384.672 25 384.25 27.266 384.25 28.438 384.25 29.641 384.672 31.875 386.516 31.875 388.344 31.875 388.766 29.641 388.766 28.438 388.766 27.266 388.344 25 386.516 25ZM386.516 25" fill="#231f20"/>
<path d="M74.203 30.719C74.125 31.078 73.734 31.313 73.313 31.313 72.656 31.313 71.938 30.75 71.938 29.266 71.938 27.922 72.609 27.422 73.172 27.422 73.641 27.422 74.125 27.75 74.203 28.422ZM75.703 31.156C75.047 31.203 75.047 31 75.047 30.594V24.953L74.984 24.922C74.516 25.094 74.016 25.234 73.531 25.359V25.531C73.609 25.516 73.703 25.516 73.766 25.516 74.203 25.516 74.203 25.719 74.203 26.016V27.578C73.875 27.281 73.578 27.156 73.141 27.156 72.031 27.156 71.078 28.297 71.078 29.594 71.078 31.641 72.5 31.828 72.891 31.828 73.641 31.828 74 31.469 74.188 31.203H74.203V31.797L74.234 31.828C74.766 31.641 75.234 31.484 75.703 31.313ZM75.703 31.156" fill="#231f20"/>
<path d="M78.656 30.516C78.656 30.813 78.625 30.922 78.313 31.078 78.234 31.125 77.922 31.25 77.703 31.25 77.328 31.25 77.047 30.953 77.047 30.484V30.453C77.047 30.125 77.156 29.563 78.656 29.063ZM80.203 31.078C80.094 31.172 79.969 31.266 79.75 31.266 79.469 31.266 79.469 30.984 79.469 30.688V28.75C79.469 28.141 79.469 27.156 77.984 27.156 76.828 27.156 76.359 27.859 76.359 28.25 76.359 28.422 76.469 28.688 76.781 28.688 77.047 28.688 77.234 28.469 77.234 28.266 77.234 28.172 77.188 28.031 77.188 27.875 77.188 27.563 77.563 27.391 77.891 27.391 78.188 27.391 78.656 27.5 78.656 28.219V28.828C77.031 29.469 76.172 29.797 76.172 30.797 76.172 31.469 76.688 31.828 77.219 31.828 77.766 31.828 78.297 31.438 78.672 31.109 78.719 31.828 79.141 31.828 79.313 31.828 79.469 31.828 79.781 31.828 80.203 31.328ZM80.203 31.078" fill="#231f20"/>
<path d="M82.77 27.25H81.754V26.094C81.754 26.016 81.754 25.969 81.691 25.969 81.316 26.484 81.176 26.703 80.785 27.094 80.566 27.313 80.348 27.375 80.348 27.5 80.348 27.531 80.379 27.563 80.395 27.563H80.926V30.563C80.926 31.563 81.332 31.828 81.832 31.828 82.301 31.828 82.77 31.5 83.004 31.078L82.879 30.969C82.77 31.094 82.582 31.313 82.27 31.313 81.754 31.313 81.754 30.734 81.754 30.422V27.563H82.77ZM82.77 27.25" fill="#231f20"/>
<path d="M85.855 30.516C85.855 30.813 85.824 30.922 85.512 31.078 85.434 31.125 85.121 31.25 84.902 31.25 84.527 31.25 84.246 30.953 84.246 30.484V30.453C84.246 30.125 84.355 29.563 85.855 29.063ZM87.402 31.078C87.293 31.172 87.168 31.266 86.949 31.266 86.668 31.266 86.668 30.984 86.668 30.688V28.75C86.668 28.141 86.668 27.156 85.184 27.156 84.027 27.156 83.559 27.859 83.559 28.25 83.559 28.422 83.668 28.688 83.98 28.688 84.246 28.688 84.434 28.469 84.434 28.266 84.434 28.172 84.387 28.031 84.387 27.875 84.387 27.563 84.762 27.391 85.09 27.391 85.387 27.391 85.855 27.5 85.855 28.219V28.828C84.23 29.469 83.371 29.797 83.371 30.797 83.371 31.469 83.887 31.828 84.418 31.828 84.965 31.828 85.496 31.438 85.871 31.109 85.918 31.828 86.34 31.828 86.512 31.828 86.668 31.828 86.98 31.828 87.402 31.328ZM87.402 31.078" fill="#231f20"/>
<path d="M95.938 31.734H98.297V31.578C97.719 31.563 97.547 31.469 97.547 30.891V24.953L97.516 24.922C96.984 25.094 96.453 25.234 95.922 25.359V25.531C96.047 25.516 96.141 25.5 96.266 25.5 96.656 25.5 96.719 25.656 96.719 26.109V30.859C96.719 31.422 96.531 31.547 95.938 31.578ZM95.938 31.734" fill="#231f20"/>
<path d="M98.664 31.734H101.023V31.578C100.336 31.547 100.289 31.375 100.289 30.719V27.172L100.258 27.156C99.727 27.344 99.227 27.531 98.711 27.703V27.844C98.836 27.828 98.961 27.813 99.102 27.813 99.258 27.813 99.461 27.813 99.461 28.406V30.719C99.461 31.5 99.289 31.563 98.664 31.578ZM99.289 25.438C99.289 25.625 99.43 25.938 99.789 25.938 100.086 25.938 100.305 25.719 100.305 25.438 100.305 25.156 100.086 24.922 99.789 24.922 99.43 24.922 99.289 25.25 99.289 25.438ZM99.289 25.438" fill="#231f20"/>
<path d="M102.074 30.844C102.074 31.422 101.918 31.563 101.449 31.578V31.734H103.574V31.578C103.059 31.563 102.918 31.391 102.918 31.063V28.266C103.293 27.891 103.605 27.703 103.902 27.703 104.48 27.703 104.668 28.063 104.668 28.656V30.75C104.668 31.5 104.402 31.563 104.043 31.578V31.734H106.105V31.578C105.621 31.547 105.512 31.391 105.512 30.922V28.641C105.512 27.422 104.793 27.156 104.34 27.156 103.746 27.156 103.371 27.5 102.887 27.953V27.172L102.809 27.156C102.355 27.313 101.887 27.469 101.434 27.594V27.766C101.48 27.75 101.59 27.734 101.73 27.734 101.887 27.734 102.074 27.734 102.074 28.359ZM102.074 30.844" fill="#231f20"/>
<path d="M106.324 31.734H108.668V31.578H108.465C108.137 31.563 107.918 31.469 107.918 31.063V29.266H107.934L109.309 31.094C109.434 31.266 109.527 31.359 109.527 31.422 109.527 31.563 109.387 31.578 109.309 31.578H109.121V31.734H111.293V31.578C111.027 31.563 110.637 31.5 110.137 30.859L108.605 28.922 108.887 28.656C110.246 27.391 110.512 27.391 111.043 27.391V27.25H109.012V27.391C109.434 27.391 109.512 27.469 109.512 27.578 109.512 27.672 109.434 27.781 109.277 27.922 108.887 28.25 108.293 28.797 107.934 29.109L107.918 29.094V24.953L107.871 24.922C107.355 25.094 106.824 25.234 106.324 25.359V25.531C106.418 25.516 106.496 25.5 106.637 25.5 107.012 25.5 107.074 25.656 107.074 26.109V30.922C107.074 31.453 106.996 31.469 106.324 31.578ZM106.324 31.734" fill="#231f20"/>
<path d="M19.746 .219H16.934V.406C17.559 .453 17.793 .516 17.793 1.297V5.719C17.793 6.5 17.559 6.578 16.934 6.625V6.813H22.293L22.777 5.078H22.527C21.949 6.391 21.309 6.422 19.824 6.422 18.996 6.422 18.809 6.406 18.809 6.016V1.297C18.809 .516 19.059 .438 19.746 .406ZM19.746 .219" fill="#231f20"/>
<path d="M23.059 6.813H25.418V6.656C24.73 6.625 24.684 6.453 24.684 5.797V2.25L24.652 2.234C24.121 2.422 23.621 2.609 23.105 2.781V2.922C23.23 2.906 23.355 2.891 23.496 2.891 23.652 2.891 23.855 2.891 23.855 3.484V5.797C23.855 6.578 23.684 6.641 23.059 6.656ZM23.684 .516C23.684 .703 23.824 1.016 24.184 1.016 24.48 1.016 24.699 .797 24.699 .516 24.699 .234 24.48 0 24.184 0 23.824 0 23.684 .328 23.684 .516ZM23.684 .516" fill="#231f20"/>
<path d="M28.813 3.688 28.766 2.313H28.656C28.625 2.359 28.578 2.422 28.5 2.422 28.328 2.422 28.016 2.234 27.578 2.234 26.609 2.234 26.188 2.891 26.188 3.438 26.188 4.188 26.734 4.547 27.344 4.906L27.922 5.234C28.25 5.406 28.438 5.641 28.438 5.969 28.438 6.531 27.969 6.688 27.641 6.688 26.656 6.688 26.469 5.828 26.344 5.297H26.188V6.859H26.313C26.375 6.766 26.422 6.734 26.547 6.734 26.813 6.719 27.25 6.906 27.703 6.906 28.328 6.906 29.141 6.5 29.141 5.625 29.141 5.031 28.797 4.75 28.297 4.453L27.234 3.813C26.859 3.594 26.797 3.297 26.797 3.109 26.797 2.844 27 2.453 27.563 2.453 28 2.453 28.438 2.672 28.656 3.688ZM28.813 3.688" fill="#231f20"/>
<path d="M32.098 2.328H31.082V1.172C31.082 1.094 31.082 1.047 31.02 1.047 30.645 1.563 30.504 1.781 30.113 2.172 29.895 2.391 29.676 2.453 29.676 2.578 29.676 2.609 29.707 2.641 29.723 2.641H30.254V5.641C30.254 6.641 30.66 6.906 31.16 6.906 31.629 6.906 32.098 6.578 32.332 6.156L32.207 6.047C32.098 6.172 31.91 6.391 31.598 6.391 31.082 6.391 31.082 5.813 31.082 5.5V2.641H32.098ZM32.098 2.328" fill="#231f20"/>
<path d="M73.75 8.523H70.938V8.711C71.563 8.758 71.797 8.82 71.797 9.602V14.023C71.797 14.805 71.563 14.883 70.938 14.93V15.117H76.297L76.781 13.383H76.531C75.953 14.695 75.313 14.727 73.828 14.727 73 14.727 72.813 14.711 72.813 14.32V9.602C72.813 8.82 73.063 8.742 73.75 8.711ZM73.75 8.523" fill="#231f20"/>
<path d="M77.059 15.117H79.418V14.961C78.73 14.93 78.684 14.758 78.684 14.102V10.555L78.652 10.539C78.121 10.727 77.621 10.914 77.105 11.086V11.227C77.23 11.211 77.355 11.195 77.496 11.195 77.652 11.195 77.855 11.195 77.855 11.789V14.102C77.855 14.883 77.684 14.945 77.059 14.961ZM77.684 8.82C77.684 9.008 77.824 9.32 78.184 9.32 78.48 9.32 78.699 9.102 78.699 8.82 78.699 8.539 78.48 8.305 78.184 8.305 77.824 8.305 77.684 8.633 77.684 8.82ZM77.684 8.82" fill="#231f20"/>
<path d="M82.816 11.992 82.77 10.617H82.66C82.629 10.664 82.582 10.727 82.504 10.727 82.332 10.727 82.02 10.539 81.582 10.539 80.613 10.539 80.191 11.195 80.191 11.742 80.191 12.492 80.738 12.852 81.348 13.211L81.926 13.539C82.254 13.711 82.441 13.945 82.441 14.273 82.441 14.836 81.973 14.992 81.645 14.992 80.66 14.992 80.473 14.133 80.348 13.602H80.191V15.164H80.316C80.379 15.07 80.426 15.039 80.551 15.039 80.816 15.023 81.254 15.211 81.707 15.211 82.332 15.211 83.145 14.805 83.145 13.93 83.145 13.336 82.801 13.055 82.301 12.758L81.238 12.117C80.863 11.898 80.801 11.602 80.801 11.414 80.801 11.148 81.004 10.758 81.566 10.758 82.004 10.758 82.441 10.977 82.66 11.992ZM82.816 11.992" fill="#231f20"/>
<path d="M86.102 10.633H85.086V9.477C85.086 9.398 85.086 9.352 85.023 9.352 84.648 9.867 84.508 10.086 84.117 10.477 83.898 10.695 83.68 10.758 83.68 10.883 83.68 10.914 83.711 10.945 83.727 10.945H84.258V13.945C84.258 14.945 84.664 15.211 85.164 15.211 85.633 15.211 86.102 14.883 86.336 14.461L86.211 14.352C86.102 14.477 85.914 14.695 85.602 14.695 85.086 14.695 85.086 14.117 85.086 13.805V10.945H86.102ZM86.102 10.633" fill="#231f20"/>
<path d="M93.371 8.523H91.027V8.711C91.715 8.758 91.98 8.836 91.98 9.977V13.32H91.965L88.152 8.523H86.449V8.711C86.84 8.711 86.996 8.758 87.418 9.258V13.648C87.418 14.727 87.199 14.883 86.449 14.93V15.117H88.793V14.93C88.059 14.898 87.855 14.68 87.855 13.648V9.758H87.871L92.262 15.227H92.418V9.977C92.418 8.82 92.746 8.773 93.371 8.711ZM93.371 8.523" fill="#231f20"/>
<path d="M95.961 10.539C94.633 10.539 93.82 11.617 93.82 12.852 93.82 14.195 94.711 15.211 95.992 15.211 97.508 15.211 98.211 13.836 98.211 12.852 98.211 11.398 97.273 10.539 95.961 10.539ZM96.133 14.945C94.945 14.945 94.711 13.102 94.711 12.367 94.711 11.336 95.258 10.805 95.883 10.805 96.805 10.805 97.305 11.898 97.305 13.133 97.305 14.555 96.648 14.945 96.133 14.945ZM96.133 14.945" fill="#231f20"/>
<path d="M101.898 14.102C101.82 14.461 101.43 14.695 101.008 14.695 100.352 14.695 99.633 14.133 99.633 12.648 99.633 11.305 100.305 10.805 100.867 10.805 101.336 10.805 101.82 11.133 101.898 11.805ZM103.398 14.539C102.742 14.586 102.742 14.383 102.742 13.977V8.336L102.68 8.305C102.211 8.477 101.711 8.617 101.227 8.742V8.914C101.305 8.898 101.398 8.898 101.461 8.898 101.898 8.898 101.898 9.102 101.898 9.398V10.961C101.57 10.664 101.273 10.539 100.836 10.539 99.727 10.539 98.773 11.68 98.773 12.977 98.773 15.023 100.195 15.211 100.586 15.211 101.336 15.211 101.695 14.852 101.883 14.586H101.898V15.18L101.93 15.211C102.461 15.023 102.93 14.867 103.398 14.695ZM103.398 14.539" fill="#231f20"/>
<path d="M107.555 13.477C107.336 13.852 106.898 14.523 106.008 14.523 105.352 14.523 104.555 14.117 104.43 12.352H107.523C107.414 11.055 106.711 10.539 105.773 10.539 104.977 10.539 103.742 11.133 103.742 12.977 103.742 14.398 104.492 15.211 105.602 15.211 107.039 15.211 107.617 13.867 107.727 13.555ZM104.461 12.039C104.617 11.164 105.008 10.883 105.555 10.883 106.336 10.883 106.445 11.555 106.508 12.039ZM104.461 12.039" fill="#231f20"/>
</g>
</svg>
