<svg xmlns="http://www.w3.org/2000/svg" xmlns:xlink="http://www.w3.org/1999/xlink" xmlns:inkscape="http://www.inkscape.org/namespaces/inkscape" version="1.1" width="188.112" height="99.791" viewBox="0 0 188.112 99.791">
<defs>
<path id="font_1_82" d="M.42399598 0V.057998659H.29899598V.6777344H.2789917C.21998596 .6166992 .13699341 .6137085 .08898926 .6117096V.55371096C.12199402 .55470278 .16999817 .55670168 .21998596 .57769778V.057998659H.09498596V0H.42399598Z"/>
<path id="font_1_106" d="M.45700074 .17964173C.45700074 .27072145 .3869934 .33276368 .31900025 .35375978 .394989 .39476014 .42999269 .4627533 .42999269 .5257416 .42999269 .61172488 .34700013 .6777344 .24798584 .6777344 .17098999 .6777344 .09799194 .63772585 .055999757 .56773379L.09199524 .51374819C.12098694 .583725 .18598938 .61972048 .24699402 .61972048 .29899598 .61972048 .34799195 .58973696 .34799195 .5257416 .34799195 .4647522 .30699159 .40576173 .24598694 .39175416 .23999024 .39076234 .23799134 .39076234 .16699219 .38476563V.323761H.23799134C.34599305 .323761 .36799623 .23068238 .36799623 .1806488 .36799623 .10258484 .32199098 .038528444 .24499512 .038528444 .17599488 .038528444 .09700012 .07356262 .052993776 .14161682L.041992189 .08155823C.114990238-.012466431 .20698548-.022460938 .24699402-.022460938 .36898805-.022460938 .45700074 .07455444 .45700074 .17964173Z"/>
<path id="font_1_107" d="M.44898988 0V.070999149H.2669983C.25498963 .070999149 .24299622 .069992069 .23098755 .069992069H.12199402C.1539917 .09794617 .22999573 .17280579 .26098634 .20178223 .27999879 .2197876 .33099366 .2617798 .34999085 .27978517 .394989 .32476808 .44898988 .37776185 .44898988 .4627533 .44898988 .5777283 .36799623 .6777344 .23599243 .6777344 .12199402 .6777344 .06599426 .59973147 .041992189 .51374819 .053985597 .49674989 .05899048 .49075318 .06098938 .4877472 .06298828 .4857483 .07299805 .4727478 .08299255 .4587555 .102996829 .5357361 .1309967 .61372378 .22200012 .61372378 .31599427 .61372378 .36698915 .53874209 .36698915 .4607544 .36698915 .37576295 .30999757 .31877137 .25099183 .25878907L.17399597 .18777466 .049987794 .06399536V0H.44898988Z"/>
<path id="font_1_57" d="M.47099305 .17089844V.23188782H.37199403V.65625H.2809906L.027999878 .23188782V.17089844H.29299928V0H.37199403V.17089844H.47099305M.29899598 .23188782H.10598755C.1579895 .31796266 .2979889 .5551605 .29899598 .6121979V.23188782Z"/>
<path id="font_2_112" d="M.5399933 .44433595H.46499635L.34199525 .23617554C.30899049 .18113709 .26098634 .10006714 .24299622 .05303955H.24198914C.24398804 .08906555 .23298645 .15811157 .22799683 .18513489L.18598938 .44433595H.10798645L.18598938 0H.27398683L.5399933 .44433595Z"/>
<path id="font_3_1" d="M.31399537 .63708499C.31399537 .664032 .31199647 .66503909 .2849884 .66503909 .24398804 .6251831 .19099427 .6013489 .09599304 .6013489V.5683594C.12298584 .5683594 .1769867 .5683594 .23498535 .5953522V.08203125C.23498535 .04499817 .23199463 .032989503 .13699341 .032989503H.101989749V0C.14299011 .0029907227 .22898865 .0029907227 .27398683 .0029907227 .31900025 .0029907227 .4059906 .0029907227 .44699098 0V.032989503H.4119873C.31698609 .032989503 .31399537 .04499817 .31399537 .08203125V.63708499Z"/>
<path id="font_3_2" d="M.28199769 .20405579C.2979889 .21907044 .33999635 .2520752 .35598756 .26608277 .41799928 .32312013 .47698976 .3781433 .47698976 .46917726 .47698976 .588089 .3769989 .66503909 .2519989 .66503909 .13198853 .66503909 .052993776 .57411196 .052993776 .48516847 .052993776 .4361725 .09199524 .4291687 .10598755 .4291687 .1269989 .4291687 .1579895 .4441681 .1579895 .48217774 .1579895 .5341797 .10798645 .5341797 .09599304 .5341797 .125 .6070709 .19198609 .6320343 .24099732 .6320343 .33399964 .6320343 .38198854 .55314639 .38198854 .46917726 .38198854 .36514283 .30899049 .28910829 .19099427 .16804505L.06498718 .037994386C.052993776 .026992798 .052993776 .024993897 .052993776 0H.44799806L.47698976 .17904663H.44599916C.44299317 .1590271 .43499757 .10900879 .4229889 .08999634 .4169922 .08198547 .34098817 .08198547 .32499696 .08198547H.14698792L.28199769 .20405579Z"/>
<path id="font_3_3" d="M.25299073 .33370973C.33198548 .33370973 .38198854 .27557374 .38198854 .17037964 .38198854 .045440675 .31098939 .008514404 .2579956 .008514404 .20298767 .008514404 .12799073 .0284729 .09298706 .08137512 .1289978 .08137512 .1539917 .10437012 .1539917 .13737488 .1539917 .16937256 .1309967 .19238281 .09899902 .19238281 .07199097 .19238281 .04399109 .17536927 .04399109 .13537598 .04399109 .04045105 .1459961-.021484375 .2599945-.021484375 .3929901-.021484375 .48599244 .070388797 .48599244 .17037964 .48599244 .25352479 .41999818 .32969667 .31799317 .3517456 .39698792 .37982179 .45599366 .4479828 .45599366 .52804568 .45599366 .6080475 .3659973 .66503909 .2619934 .66503909 .15499878 .66503909 .07398987 .6070404 .07398987 .53105166 .07398987 .49404908 .09899902 .4780426 .125 .4780426 .1559906 .4780426 .17599488 .5000458 .17599488 .52905276 .17599488 .56604006 .14399719 .5800476 .12199402 .5810547 .1639862 .6360321 .24099732 .6390381 .25898744 .6390381 .2849884 .6390381 .36099244 .6310272 .36099244 .52804568 .36099244 .45799256 .33198548 .41589356 .31799317 .39985658 .28799439 .36878968 .2649994 .36679078 .20399475 .3627777 .18499756 .36177064 .1769867 .36076356 .1769867 .3477478 .1769867 .33370973 .18598938 .33370973 .20298767 .33370973H.25299073Z"/>
<path id="font_3_4" d="M.3939972 .6468048C.3939972 .6667938 .3939972 .6748047 .37298585 .6748047 .3600006 .6748047 .35899354 .6737976 .34899903 .65979006L.02999878 .197052V.1640625H.31199647V.08100891C.31199647 .04399109 .30899049 .032989503 .23199463 .032989503H.20899964V0C.2939911 .0029907227 .29599 .0029907227 .35299684 .0029907227 .4099884 .0029907227 .4119873 .0029907227 .49699403 0V.032989503H.47399903C.39698792 .032989503 .3939972 .04399109 .3939972 .08100891V.1640625H.5V.197052H.3939972V.6468048M.31900025 .5658417V.197052H.06498718L.31900025 .5658417Z"/>
</defs>
<path transform="matrix(1,0,0,-1,9.017,49.895)" stroke-width=".3985" stroke-linecap="butt" stroke-miterlimit="10" stroke-linejoin="miter" fill="none" stroke="#000000" d=""/>
<path transform="matrix(1,0,0,-1,9.017,49.895)" stroke-width=".3985" stroke-linecap="butt" stroke-miterlimit="10" stroke-linejoin="miter" fill="none" stroke="#000000" d="M8.71602-4.358 75.96803-37.98401"/>
<path transform="matrix(.89436,.44717,.44717,-.89436,85.16321,87.9681)" stroke-width=".3985" stroke-linecap="round" stroke-linejoin="round" fill="none" stroke="#000000" d="M-2.07224 2.39104C-1.69365 .95639-.84999 .27895 0 0-.84999-.27895-1.69365-.95639-2.07224-2.39104"/>
<use data-text="1" xlink:href="#font_1_82" transform="matrix(10.90909,0,0,-10.90909,55.372,67.32)"/>
<path transform="matrix(1,0,0,-1,9.017,49.895)" stroke-width=".3985" stroke-linecap="butt" stroke-miterlimit="10" stroke-linejoin="miter" fill="none" stroke="#000000" d=""/>
<path transform="matrix(1,0,0,-1,9.017,49.895)" stroke-width=".3985" stroke-linecap="butt" stroke-miterlimit="10" stroke-linejoin="miter" fill="none" stroke="#000000" d="M8.71602 4.358 75.96803 37.98401"/>
<path transform="matrix(.89436,-.44717,-.44717,-.89436,85.16321,11.821899)" stroke-width=".3985" stroke-linecap="round" stroke-linejoin="round" fill="none" stroke="#000000" d="M-2.07224 2.39104C-1.69365 .95639-.84999 .27895 0 0-.84999-.27895-1.69365-.95639-2.07224-2.39104"/>
<use data-text="1" xlink:href="#font_1_82" transform="matrix(10.90909,0,0,-10.90909,42.247,24.800004)"/>
<path transform="matrix(1,0,0,-1,9.017,49.895)" stroke-width=".3985" stroke-linecap="butt" stroke-miterlimit="10" stroke-linejoin="miter" fill="none" stroke="#000000" d=""/>
<path transform="matrix(1,0,0,-1,9.017,49.895)" stroke-width=".3985" stroke-linecap="butt" stroke-miterlimit="10" stroke-linejoin="miter" fill="none" stroke="#000000" d="M89.12274-35.44493C102.87897-11.61836 102.94485 11.28319 89.32043 35.10081"/>
<path transform="matrix(-.49998,-.86601,-.86601,.49998,98.239368,14.62262)" stroke-width=".3985" stroke-linecap="round" stroke-linejoin="round" fill="none" stroke="#000000" d="M-2.07224 2.39104C-1.69365 .95639-.84999 .27895 0 0-.84999-.27895-1.69365-.95639-2.07224-2.39104"/>
<use data-text="3" xlink:href="#font_1_106" transform="matrix(10.90909,0,0,-10.90909,99.215,53.474)"/>
<path transform="matrix(1,0,0,-1,9.017,49.895)" stroke-width=".3985" stroke-linecap="butt" stroke-miterlimit="10" stroke-linejoin="miter" fill="none" stroke="#000000" d=""/>
<path transform="matrix(1,0,0,-1,9.017,49.895)" stroke-width=".3985" stroke-linecap="butt" stroke-miterlimit="10" stroke-linejoin="miter" fill="none" stroke="#000000" d="M80.95816 35.44493C67.2019 11.61836 67.13599-11.28319 80.76039-35.10081"/>
<path transform="matrix(.49998,.86601,.86601,-.49998,89.87554,85.16738)" stroke-width=".3985" stroke-linecap="round" stroke-linejoin="round" fill="none" stroke="#000000" d="M-2.07224 2.39104C-1.69365 .95639-.84999 .27895 0 0-.84999-.27895-1.69365-.95639-2.07224-2.39104"/>
<use data-text="2" xlink:href="#font_1_107" transform="matrix(10.90909,0,0,-10.90909,83.442,53.594)"/>
<path transform="matrix(1,0,0,-1,9.017,49.895)" stroke-width=".3985" stroke-linecap="butt" stroke-miterlimit="10" stroke-linejoin="miter" fill="none" stroke="#000000" d=""/>
<path transform="matrix(1,0,0,-1,9.017,49.895)" stroke-width=".3985" stroke-linecap="butt" stroke-miterlimit="10" stroke-linejoin="miter" fill="none" stroke="#000000" d="M93.75647-42.52022H160.96639"/>
<path transform="matrix(1,0,0,-1,170.18264,92.41522)" stroke-width=".3985" stroke-linecap="round" stroke-linejoin="round" fill="none" stroke="#000000" d="M-2.07224 2.39104C-1.69365 .95639-.84999 .27895 0 0-.84999-.27895-1.69365-.95639-2.07224-2.39104"/>
<use data-text="4" xlink:href="#font_1_57" transform="matrix(10.90909,0,0,-10.90909,133.848,88.58)"/>
<use data-text="v" xlink:href="#font_2_112" transform="matrix(10.90909,0,0,-10.90909,4.136,51.499)" fill="#bf8040"/>
<use data-text="1" xlink:href="#font_3_1" transform="matrix(7.97011,0,0,-7.97011,9.165,53.135004)" fill="#bf8040"/>
<use data-text="v" xlink:href="#font_2_112" transform="matrix(10.90909,0,0,-10.90909,89.175,94.019)" fill="#bf8040"/>
<use data-text="2" xlink:href="#font_3_2" transform="matrix(7.97011,0,0,-7.97011,94.204,95.655)" fill="#bf8040"/>
<use data-text="v" xlink:href="#font_2_112" transform="matrix(10.90909,0,0,-10.90909,89.175,8.978996)" fill="#bf8040"/>
<use data-text="3" xlink:href="#font_3_3" transform="matrix(7.97011,0,0,-7.97011,94.204,10.61599)" fill="#bf8040"/>
<use data-text="v" xlink:href="#font_2_112" transform="matrix(10.90909,0,0,-10.90909,174.215,94.019)" fill="#bf8040"/>
<use data-text="4" xlink:href="#font_3_4" transform="matrix(7.97011,0,0,-7.97011,179.244,95.655)" fill="#bf8040"/>
</svg>
