<svg xmlns="http://www.w3.org/2000/svg" xmlns:xlink="http://www.w3.org/1999/xlink" xmlns:inkscape="http://www.inkscape.org/namespaces/inkscape" version="1.1" width="253.96775" height="104.41875" viewBox="0 0 253.96775 104.41875">
<defs>
<clipPath id="clip_1">
<path d="M0 24.086H20.711V40.086H0Z"/>
</clipPath>
<clipPath id="clip_2">
<path d="M0 0H254V105H0Z"/>
</clipPath>
<clipPath id="clip_3">
<path d="M232.711 24.086H253.969V40.086H232.711Z"/>
</clipPath>
<clipPath id="clip_4">
<path d="M0 0H254V105H0Z"/>
</clipPath>
<clipPath id="clip_5">
<path d="M0 90.086H20.711V104.418H0Z"/>
</clipPath>
<clipPath id="clip_6">
<path d="M0 0H254V105H0Z"/>
</clipPath>
<clipPath id="clip_7">
<path d="M232.711 90.086H253.969V104.418H232.711Z"/>
</clipPath>
<clipPath id="clip_8">
<path d="M0 0H254V105H0Z"/>
</clipPath>
</defs>
<g>
<path d="M.5 25.348H19.957V38.672H.5Z" fill="#ffffff"/>
<g clip-path="url(#clip_1)">
<g clip-path="url(#clip_2)">
<path stroke-width=".999" stroke-linecap="butt" stroke-miterlimit="4" stroke-linejoin="miter" fill="none" stroke="#231f20" d="M.5 25.348H19.957V38.672H.5Z"/>
</g>
</g>
<path d="M19.957 25.348H39.418V38.672H19.957Z" fill="#ffffff"/>
<path stroke-width=".999" stroke-linecap="butt" stroke-miterlimit="4" stroke-linejoin="miter" fill="none" stroke="#231f20" d="M19.957 25.348H39.418V38.672H19.957Z"/>
<path d="M39.418 25.348H58.875V38.672H39.418Z" fill="#ffffff"/>
<path stroke-width=".999" stroke-linecap="butt" stroke-miterlimit="4" stroke-linejoin="miter" fill="none" stroke="#231f20" d="M39.418 25.348H58.875V38.672H39.418Z"/>
<path d="M58.875 25.348H78.336V38.672H58.875Z" fill="#ffffff"/>
<path stroke-width=".999" stroke-linecap="butt" stroke-miterlimit="4" stroke-linejoin="miter" fill="none" stroke="#231f20" d="M58.875 25.348H78.336V38.672H58.875Z"/>
<path d="M78.336 25.348H97.797V38.672H78.336Z" fill="#ffffff"/>
<path stroke-width=".999" stroke-linecap="butt" stroke-miterlimit="4" stroke-linejoin="miter" fill="none" stroke="#231f20" d="M78.336 25.348H97.797V38.672H78.336Z"/>
<path d="M97.797 25.348H117.254V38.672H97.797Z" fill="#ffffff"/>
<path stroke-width=".999" stroke-linecap="butt" stroke-miterlimit="4" stroke-linejoin="miter" fill="none" stroke="#231f20" d="M97.797 25.348H117.254V38.672H97.797Z"/>
<path d="M136.715 25.348H156.172V38.672H136.715Z" fill="#ffffff"/>
<path stroke-width=".999" stroke-linecap="butt" stroke-miterlimit="4" stroke-linejoin="miter" fill="none" stroke="#231f20" d="M136.715 25.348H156.172V38.672H136.715Z"/>
<path d="M156.172 25.348H175.633V38.672H156.172Z" fill="#ffffff"/>
<path stroke-width=".999" stroke-linecap="butt" stroke-miterlimit="4" stroke-linejoin="miter" fill="none" stroke="#231f20" d="M156.172 25.348H175.633V38.672H156.172Z"/>
<path d="M175.633 25.348H195.094V38.672H175.633Z" fill="#ffffff"/>
<path stroke-width=".999" stroke-linecap="butt" stroke-miterlimit="4" stroke-linejoin="miter" fill="none" stroke="#231f20" d="M175.633 25.348H195.094V38.672H175.633Z"/>
<path d="M195.094 25.348H214.551V38.672H195.094Z" fill="#ffffff"/>
<path stroke-width=".999" stroke-linecap="butt" stroke-miterlimit="4" stroke-linejoin="miter" fill="none" stroke="#231f20" d="M195.094 25.348H214.551V38.672H195.094Z"/>
<path d="M214.551 25.348H234.012V38.672H214.551Z" fill="#ffffff"/>
<path stroke-width=".999" stroke-linecap="butt" stroke-miterlimit="4" stroke-linejoin="miter" fill="none" stroke="#231f20" d="M214.551 25.348H234.012V38.672H214.551Z"/>
<path d="M234.012 25.348H253.469V38.672H234.012Z" fill="#ffffff"/>
<g clip-path="url(#clip_3)">
<g clip-path="url(#clip_4)">
<path stroke-width=".999" stroke-linecap="butt" stroke-miterlimit="4" stroke-linejoin="miter" fill="none" stroke="#231f20" d="M234.012 25.348H253.469V38.672H234.012Z"/>
</g>
</g>
<path d="M117.254 25.348H136.715V38.672H117.254Z" fill="#ffffff"/>
<path stroke-width=".999" stroke-linecap="butt" stroke-miterlimit="4" stroke-linejoin="miter" fill="none" stroke="#231f20" d="M117.254 25.348H136.715V38.672H117.254Z"/>
<path d="M.5 90.594H19.957V103.918H.5Z" fill="#ffffff"/>
<g clip-path="url(#clip_5)">
<g clip-path="url(#clip_6)">
<path stroke-width=".999" stroke-linecap="butt" stroke-miterlimit="4" stroke-linejoin="miter" fill="none" stroke="#231f20" d="M.5 90.594H19.957V103.918H.5Z"/>
</g>
</g>
<path d="M19.957 90.594H39.418V103.918H19.957Z" fill="#ffffff"/>
<path stroke-width=".999" stroke-linecap="butt" stroke-miterlimit="4" stroke-linejoin="miter" fill="none" stroke="#231f20" d="M19.957 90.594H39.418V103.918H19.957Z"/>
<path d="M39.418 90.594H58.875V103.918H39.418Z" fill="#ffffff"/>
<path stroke-width=".999" stroke-linecap="butt" stroke-miterlimit="4" stroke-linejoin="miter" fill="none" stroke="#231f20" d="M39.418 90.594H58.875V103.918H39.418Z"/>
<path d="M58.875 90.594H78.336V103.918H58.875Z" fill="#ffffff"/>
<path stroke-width=".999" stroke-linecap="butt" stroke-miterlimit="4" stroke-linejoin="miter" fill="none" stroke="#231f20" d="M58.875 90.594H78.336V103.918H58.875Z"/>
<path d="M78.336 90.594H97.797V103.918H78.336Z" fill="#ffffff"/>
<path stroke-width=".999" stroke-linecap="butt" stroke-miterlimit="4" stroke-linejoin="miter" fill="none" stroke="#231f20" d="M78.336 90.594H97.797V103.918H78.336Z"/>
<path d="M97.797 90.594H117.254V103.918H97.797Z" fill="#ffffff"/>
<path stroke-width=".999" stroke-linecap="butt" stroke-miterlimit="4" stroke-linejoin="miter" fill="none" stroke="#231f20" d="M97.797 90.594H117.254V103.918H97.797Z"/>
<path d="M136.715 90.594H156.172V103.918H136.715Z" fill="#ffffff"/>
<path stroke-width=".999" stroke-linecap="butt" stroke-miterlimit="4" stroke-linejoin="miter" fill="none" stroke="#231f20" d="M136.715 90.594H156.172V103.918H136.715Z"/>
<path d="M156.172 90.594H175.633V103.918H156.172Z" fill="#ffffff"/>
<path stroke-width=".999" stroke-linecap="butt" stroke-miterlimit="4" stroke-linejoin="miter" fill="none" stroke="#231f20" d="M156.172 90.594H175.633V103.918H156.172Z"/>
<path d="M175.633 90.594H195.094V103.918H175.633Z" fill="#ffffff"/>
<path stroke-width=".999" stroke-linecap="butt" stroke-miterlimit="4" stroke-linejoin="miter" fill="none" stroke="#231f20" d="M175.633 90.594H195.094V103.918H175.633Z"/>
<path d="M195.094 90.594H214.551V103.918H195.094Z" fill="#ffffff"/>
<path stroke-width=".999" stroke-linecap="butt" stroke-miterlimit="4" stroke-linejoin="miter" fill="none" stroke="#231f20" d="M195.094 90.594H214.551V103.918H195.094Z"/>
<path d="M214.551 90.594H234.012V103.918H214.551Z" fill="#ffffff"/>
<path stroke-width=".999" stroke-linecap="butt" stroke-miterlimit="4" stroke-linejoin="miter" fill="none" stroke="#231f20" d="M214.551 90.594H234.012V103.918H214.551Z"/>
<path d="M234.012 90.594H253.469V103.918H234.012Z" fill="#ffffff"/>
<g clip-path="url(#clip_7)">
<g clip-path="url(#clip_8)">
<path stroke-width=".999" stroke-linecap="butt" stroke-miterlimit="4" stroke-linejoin="miter" fill="none" stroke="#231f20" d="M234.012 90.594H253.469V103.918H234.012Z"/>
</g>
</g>
<path d="M117.254 90.594H136.715V103.918H117.254Z" fill="#ffffff"/>
<path stroke-width=".999" stroke-linecap="butt" stroke-miterlimit="4" stroke-linejoin="miter" fill="none" stroke="#231f20" d="M117.254 90.594H136.715V103.918H117.254Z"/>
<path stroke-width=".75" stroke-linecap="butt" stroke-miterlimit="4" stroke-linejoin="miter" fill="none" stroke="#231f20" d="M27.109 19.895C25.469 17.742 22.875 16.355 19.957 16.355 14.992 16.355 10.965 20.383 10.965 25.348"/>
<path d="M28.625 20.742C28.215 19.652 28.02 18.887 27.762 17.957L25.059 20.023C25.375 20.188 26.574 20.906 27.52 21.586 28.531 22.316 29.383 23.027 29.879 23.531 29.523 22.922 29.063 21.91 28.625 20.742" fill="#231f20"/>
<path stroke-width=".75" stroke-linecap="butt" stroke-miterlimit="4" stroke-linejoin="miter" fill="none" stroke="#231f20" d="M45.949 19.895C44.309 17.742 41.715 16.355 38.797 16.355 33.832 16.355 29.805 20.383 29.805 25.348"/>
<path d="M47.465 20.742C47.055 19.652 46.863 18.887 46.605 17.957L43.898 20.023C44.215 20.188 45.414 20.906 46.359 21.586 47.371 22.316 48.223 23.027 48.719 23.531 48.363 22.922 47.902 21.91 47.465 20.742" fill="#231f20"/>
<path stroke-width=".75" stroke-linecap="butt" stroke-miterlimit="4" stroke-linejoin="miter" fill="none" stroke="#231f20" d="M64.566 19.895C62.922 17.742 60.328 16.355 57.414 16.355 52.445 16.355 48.422 20.383 48.422 25.348"/>
<path d="M66.078 20.742C65.672 19.652 65.477 18.887 65.219 17.957L62.516 20.023C62.832 20.188 64.031 20.906 64.977 21.586 65.984 22.316 66.84 23.027 67.336 23.531 66.977 22.922 66.52 21.91 66.078 20.742" fill="#231f20"/>
<path stroke-width=".75" stroke-linecap="butt" stroke-miterlimit="4" stroke-linejoin="miter" fill="none" stroke="#231f20" d="M86.156 84.672C84.516 82.52 81.922 81.133 79.004 81.133 74.039 81.133 70.012 85.156 70.012 90.125"/>
<path d="M87.672 85.52C87.262 84.43 87.07 83.664 86.813 82.734L84.105 84.801C84.422 84.961 85.621 85.68 86.566 86.363 87.578 87.094 88.434 87.805 88.926 88.309 88.57 87.695 88.109 86.688 87.672 85.52" fill="#231f20"/>
<path stroke-width=".75" stroke-linecap="butt" stroke-miterlimit="4" stroke-linejoin="miter" fill="none" stroke="#231f20" d="M141.125 85.277C129.754 74.934 105.91 67.813 78.336 67.813 46.348 67.813 19.375 77.398 11.082 90.48"/>
<path d="M142.766 85.84C142.168 84.844 141.844 84.125 141.422 83.258L139.133 85.773C139.473 85.875 140.781 86.367 141.832 86.867 142.957 87.406 143.926 87.953 144.5 88.359 144.043 87.82 143.406 86.91 142.766 85.84" fill="#231f20"/>
<path stroke-width=".75" stroke-linecap="butt" stroke-miterlimit="4" stroke-linejoin="miter" fill="none" stroke="#231f20" d="M205.133 90.566C199.27 76.992 179.57 67.016 156.172 67.016 135.16 67.016 117.129 75.063 109.426 86.535"/>
<path d="M109.113 88.246C110.016 87.508 110.676 87.078 111.473 86.535L108.648 84.641C108.598 84.992 108.301 86.359 107.957 87.473 107.594 88.664 107.195 89.699 106.875 90.332 107.34 89.797 108.148 89.039 109.113 88.246" fill="#231f20"/>
<path stroke-width=".75" stroke-linecap="butt" stroke-miterlimit="4" stroke-linejoin="miter" fill="none" stroke="#231f20" d="M49.355 90.648C58.152 78.809 85.227 70.188 117.254 70.188 145.266 70.188 169.484 76.781 181.004 86.355"/>
<path d="M182.672 86.844C182.031 85.871 181.672 85.172 181.215 84.32L179.035 86.938C179.379 87.027 180.711 87.461 181.785 87.914 182.934 88.398 183.922 88.902 184.52 89.281 184.035 88.766 183.359 87.883 182.672 86.844" fill="#231f20"/>
<path d="M6.563 2.063C6.516 1.359 6.297 0 4.031 0 2.469 0 1.813 1 1.813 2 1.813 3.125 2.766 3.422 3.188 3.531L4.516 3.828C5.578 4.078 5.891 4.297 5.891 4.969 5.891 5.906 4.828 6.063 4.203 6.063 3.375 6.063 2.422 5.719 2.422 4.547H1.594C1.594 5.156 1.703 5.703 2.25 6.188 2.547 6.453 3.016 6.813 4.203 6.813 5.313 6.813 6.734 6.391 6.734 4.859 6.734 3.828 6.109 3.328 5.266 3.125L3.422 2.703C3.047 2.625 2.656 2.438 2.656 1.891 2.656 .906 3.594 .75 4.141 .75 4.859 .75 5.688 1.063 5.734 2.063ZM6.563 2.063" fill="#231f20"/>
<path d="M10.938 5.172C10.922 5.516 10.484 6.094 9.734 6.094 8.828 6.094 8.359 5.531 8.359 4.547H11.797C11.797 2.875 11.141 1.797 9.781 1.797 8.219 1.797 7.516 2.953 7.516 4.422 7.516 5.781 8.297 6.781 9.625 6.781 10.375 6.781 10.688 6.594 10.906 6.453 11.5 6.063 11.703 5.391 11.734 5.172ZM8.359 3.906C8.359 3.188 8.938 2.516 9.672 2.516 10.625 2.516 10.938 3.188 10.984 3.906ZM8.359 3.906" fill="#231f20"/>
<path d="M16.609 1.938H15.859V2.594H15.844C15.641 2.328 15.281 1.797 14.438 1.797 13.188 1.797 12.469 2.828 12.469 4.141 12.469 5.266 12.938 6.781 14.547 6.781 15.172 6.781 15.578 6.484 15.797 6.141H15.813V8.5H16.609ZM15.844 4.5C15.844 5.766 15.063 6.094 14.563 6.094 13.688 6.094 13.297 5.313 13.297 4.281 13.297 3.672 13.359 2.516 14.578 2.516 15.719 2.516 15.844 3.75 15.844 4.5ZM15.844 4.5" fill="#231f20"/>
<path d="M21.563 6.641V1.938H20.766V4.531C20.766 5.203 20.469 6.094 19.469 6.094 18.953 6.094 18.563 5.828 18.563 5.063V1.938H17.766V5.313C17.766 6.438 18.609 6.781 19.297 6.781 20.047 6.781 20.453 6.484 20.797 5.938L20.813 5.953V6.641ZM21.563 6.641" fill="#231f20"/>
<path d="M25.938 5.172C25.922 5.516 25.484 6.094 24.734 6.094 23.828 6.094 23.359 5.531 23.359 4.547H26.797C26.797 2.875 26.141 1.797 24.781 1.797 23.219 1.797 22.516 2.953 22.516 4.422 22.516 5.781 23.297 6.781 24.625 6.781 25.375 6.781 25.688 6.594 25.906 6.453 26.5 6.063 26.703 5.391 26.734 5.172ZM23.359 3.906C23.359 3.188 23.938 2.516 24.672 2.516 25.625 2.516 25.938 3.188 25.984 3.906ZM23.359 3.906" fill="#231f20"/>
<path d="M31.582 3.438C31.582 2.094 30.66 1.797 29.926 1.797 29.129 1.797 28.676 2.344 28.504 2.594H28.488V1.938H27.738V6.641H28.535V4.078C28.535 2.797 29.332 2.516 29.785 2.516 30.551 2.516 30.785 2.922 30.785 3.75V6.641H31.582ZM31.582 3.438" fill="#231f20"/>
<path d="M34.473 2.594V1.938H33.723V.625H32.926V1.938H32.285V2.594H32.926V5.703C32.926 6.266 33.098 6.703 33.879 6.703 33.957 6.703 34.191 6.672 34.473 6.641V6.016H34.191C34.035 6.016 33.723 6.016 33.723 5.656V2.594ZM34.473 2.594" fill="#231f20"/>
<path d="M36.051 1.938H35.27V6.641H36.051ZM36.051 1.078V.172H35.27V1.078ZM36.051 1.078" fill="#231f20"/>
<path d="M37.938 3.359C38 3 38.125 2.453 39.016 2.453 39.766 2.453 40.125 2.719 40.125 3.219 40.125 3.688 39.906 3.766 39.719 3.781L38.406 3.938C37.094 4.109 36.984 5.016 36.984 5.422 36.984 6.234 37.594 6.781 38.453 6.781 39.375 6.781 39.844 6.344 40.156 6.016 40.188 6.375 40.297 6.734 41 6.734 41.172 6.734 41.297 6.672 41.422 6.641V6.063C41.344 6.078 41.234 6.094 41.172 6.094 41 6.094 40.906 6.016 40.906 5.828V3.109C40.906 1.906 39.531 1.797 39.156 1.797 38 1.797 37.25 2.234 37.219 3.359ZM40.109 5.016C40.109 5.641 39.391 6.125 38.656 6.125 38.063 6.125 37.797 5.813 37.797 5.297 37.797 4.703 38.422 4.594 38.813 4.531 39.781 4.406 39.984 4.344 40.109 4.234ZM40.109 5.016" fill="#231f20"/>
<path d="M42.27 .172H43.051V6.641H42.27Z" fill="#231f20"/>
<path d="M50.453 4.766 51.094 6.641H52.047L49.703 .172H48.719L46.281 6.641H47.188L47.859 4.766ZM48.125 3.984 49.156 1.141H49.188L50.141 3.984ZM48.125 3.984" fill="#231f20"/>
<path d="M56.453 3.516C56.391 2.703 55.922 1.797 54.688 1.797 53.125 1.797 52.422 2.953 52.422 4.422 52.422 5.781 53.203 6.781 54.531 6.781 55.906 6.781 56.375 5.719 56.453 4.969H55.688C55.547 5.703 55.094 6.094 54.563 6.094 53.469 6.094 53.266 5.094 53.266 4.281 53.266 3.453 53.594 2.516 54.563 2.516 55.234 2.516 55.578 2.891 55.688 3.516ZM56.453 3.516" fill="#231f20"/>
<path d="M60.949 3.516C60.887 2.703 60.418 1.797 59.184 1.797 57.621 1.797 56.918 2.953 56.918 4.422 56.918 5.781 57.699 6.781 59.027 6.781 60.402 6.781 60.871 5.719 60.949 4.969H60.184C60.043 5.703 59.59 6.094 59.059 6.094 57.965 6.094 57.762 5.094 57.762 4.281 57.762 3.453 58.09 2.516 59.059 2.516 59.73 2.516 60.074 2.891 60.184 3.516ZM60.949 3.516" fill="#231f20"/>
<path d="M64.934 5.172C64.918 5.516 64.48 6.094 63.73 6.094 62.824 6.094 62.355 5.531 62.355 4.547H65.793C65.793 2.875 65.137 1.797 63.777 1.797 62.215 1.797 61.512 2.953 61.512 4.422 61.512 5.781 62.293 6.781 63.621 6.781 64.371 6.781 64.684 6.594 64.902 6.453 65.496 6.063 65.699 5.391 65.73 5.172ZM62.355 3.906C62.355 3.188 62.934 2.516 63.668 2.516 64.621 2.516 64.934 3.188 64.98 3.906ZM62.355 3.906" fill="#231f20"/>
<path d="M70.168 3.281C70.168 3.047 70.059 1.797 68.371 1.797 67.449 1.797 66.59 2.266 66.59 3.297 66.59 3.953 67.027 4.281 67.684 4.438L68.605 4.672C69.277 4.844 69.543 4.969 69.543 5.344 69.543 5.859 69.027 6.094 68.449 6.094 67.34 6.094 67.23 5.5 67.199 5.125H66.434C66.465 5.703 66.605 6.781 68.465 6.781 69.527 6.781 70.324 6.188 70.324 5.219 70.324 4.578 69.98 4.219 69.012 3.984L68.215 3.781C67.605 3.625 67.355 3.531 67.355 3.156 67.355 2.563 68.059 2.484 68.293 2.484 69.293 2.484 69.402 2.984 69.418 3.281ZM70.168 3.281" fill="#231f20"/>
<path d="M74.664 3.281C74.664 3.047 74.555 1.797 72.867 1.797 71.945 1.797 71.086 2.266 71.086 3.297 71.086 3.953 71.523 4.281 72.18 4.438L73.102 4.672C73.773 4.844 74.039 4.969 74.039 5.344 74.039 5.859 73.523 6.094 72.945 6.094 71.836 6.094 71.727 5.5 71.695 5.125H70.93C70.961 5.703 71.102 6.781 72.961 6.781 74.023 6.781 74.82 6.188 74.82 5.219 74.82 4.578 74.477 4.219 73.508 3.984L72.711 3.781C72.102 3.625 71.852 3.531 71.852 3.156 71.852 2.563 72.555 2.484 72.789 2.484 73.789 2.484 73.898 2.984 73.914 3.281ZM74.664 3.281" fill="#231f20"/>
<path d="M2.828 59.84H4.938C5.984 59.84 6.094 60.449 6.094 60.98 6.094 61.23 6.109 62.215 6.234 62.605H7.313V62.465C7.047 62.309 7 62.168 6.984 61.809L6.938 60.637C6.891 59.746 6.531 59.574 6.156 59.434 6.578 59.184 7.063 58.84 7.063 57.887 7.063 56.512 6 56.137 4.938 56.137H1.953V62.605H2.828ZM2.828 56.887H5C5.438 56.887 6.156 56.965 6.156 57.965 6.156 58.918 5.484 59.09 4.844 59.09H2.828ZM2.828 56.887" fill="#231f20"/>
<path d="M8.93 59.324C8.992 58.965 9.117 58.418 10.008 58.418 10.758 58.418 11.117 58.684 11.117 59.184 11.117 59.652 10.898 59.73 10.711 59.746L9.398 59.902C8.086 60.074 7.977 60.98 7.977 61.387 7.977 62.199 8.586 62.746 9.445 62.746 10.367 62.746 10.836 62.309 11.148 61.98 11.18 62.34 11.289 62.699 11.992 62.699 12.164 62.699 12.289 62.637 12.414 62.605V62.027C12.336 62.043 12.227 62.059 12.164 62.059 11.992 62.059 11.898 61.98 11.898 61.793V59.074C11.898 57.871 10.523 57.762 10.148 57.762 8.992 57.762 8.242 58.199 8.211 59.324ZM11.102 60.98C11.102 61.605 10.383 62.09 9.648 62.09 9.055 62.09 8.789 61.777 8.789 61.262 8.789 60.668 9.414 60.559 9.805 60.496 10.773 60.371 10.977 60.309 11.102 60.199ZM11.102 60.98" fill="#231f20"/>
<path d="M17.074 59.402C17.074 58.059 16.152 57.762 15.418 57.762 14.621 57.762 14.168 58.309 13.996 58.559H13.98V57.902H13.23V62.605H14.027V60.043C14.027 58.762 14.824 58.48 15.277 58.48 16.043 58.48 16.277 58.887 16.277 59.715V62.605H17.074ZM17.074 59.402" fill="#231f20"/>
<path d="M22.137 56.137H21.355V58.559H21.34C21.137 58.293 20.777 57.762 19.934 57.762 18.684 57.762 17.965 58.793 17.965 60.105 17.965 61.23 18.434 62.746 20.043 62.746 20.496 62.746 21.043 62.59 21.371 61.965H21.402V62.605H22.137ZM18.793 60.246C18.793 59.637 18.855 58.48 20.074 58.48 21.215 58.48 21.34 59.715 21.34 60.465 21.34 61.73 20.559 62.059 20.059 62.059 19.184 62.059 18.793 61.277 18.793 60.246ZM18.793 60.246" fill="#231f20"/>
<path d="M22.965 60.246C22.965 61.465 23.652 62.73 25.152 62.73 26.652 62.73 27.34 61.465 27.34 60.246 27.34 59.027 26.652 57.762 25.152 57.762 23.652 57.762 22.965 59.027 22.965 60.246ZM23.793 60.246C23.793 59.621 24.027 58.449 25.152 58.449 26.293 58.449 26.527 59.621 26.527 60.246 26.527 60.871 26.293 62.043 25.152 62.043 24.027 62.043 23.793 60.871 23.793 60.246ZM23.793 60.246" fill="#231f20"/>
<path d="M28.23 62.605H29.027V60.043C29.027 58.762 29.824 58.48 30.277 58.48 30.855 58.48 31.012 58.949 31.012 59.34V62.605H31.809V59.73C31.809 59.105 32.246 58.48 32.902 58.48 33.59 58.48 33.777 58.918 33.777 59.559V62.605H34.574V59.34C34.574 58.027 33.621 57.762 33.121 57.762 32.387 57.762 32.074 58.09 31.668 58.527 31.543 58.277 31.277 57.762 30.418 57.762 29.574 57.762 29.168 58.309 28.996 58.559H28.98V57.902H28.23ZM28.23 62.605" fill="#231f20"/>
<path d="M41.945 60.73 42.586 62.605H43.539L41.195 56.137H40.211L37.773 62.605H38.68L39.352 60.73ZM39.617 59.949 40.648 57.105H40.68L41.633 59.949ZM39.617 59.949" fill="#231f20"/>
<path d="M47.945 59.48C47.883 58.668 47.414 57.762 46.18 57.762 44.617 57.762 43.914 58.918 43.914 60.387 43.914 61.746 44.695 62.746 46.023 62.746 47.398 62.746 47.867 61.684 47.945 60.934H47.18C47.039 61.668 46.586 62.059 46.055 62.059 44.961 62.059 44.758 61.059 44.758 60.246 44.758 59.418 45.086 58.48 46.055 58.48 46.727 58.48 47.07 58.855 47.18 59.48ZM47.945 59.48" fill="#231f20"/>
<path d="M52.441 59.48C52.379 58.668 51.91 57.762 50.676 57.762 49.113 57.762 48.41 58.918 48.41 60.387 48.41 61.746 49.191 62.746 50.52 62.746 51.895 62.746 52.363 61.684 52.441 60.934H51.676C51.535 61.668 51.082 62.059 50.551 62.059 49.457 62.059 49.254 61.059 49.254 60.246 49.254 59.418 49.582 58.48 50.551 58.48 51.223 58.48 51.566 58.855 51.676 59.48ZM52.441 59.48" fill="#231f20"/>
<path d="M56.422 61.137C56.406 61.48 55.969 62.059 55.219 62.059 54.313 62.059 53.844 61.496 53.844 60.512H57.281C57.281 58.84 56.625 57.762 55.266 57.762 53.703 57.762 53 58.918 53 60.387 53 61.746 53.781 62.746 55.109 62.746 55.859 62.746 56.172 62.559 56.391 62.418 56.984 62.027 57.188 61.355 57.219 61.137ZM53.844 59.871C53.844 59.152 54.422 58.48 55.156 58.48 56.109 58.48 56.422 59.152 56.469 59.871ZM53.844 59.871" fill="#231f20"/>
<path d="M61.66 59.246C61.66 59.012 61.551 57.762 59.863 57.762 58.941 57.762 58.082 58.23 58.082 59.262 58.082 59.918 58.52 60.246 59.176 60.402L60.098 60.637C60.77 60.809 61.035 60.934 61.035 61.309 61.035 61.824 60.52 62.059 59.941 62.059 58.832 62.059 58.723 61.465 58.691 61.09H57.926C57.957 61.668 58.098 62.746 59.957 62.746 61.02 62.746 61.816 62.152 61.816 61.184 61.816 60.543 61.473 60.184 60.504 59.949L59.707 59.746C59.098 59.59 58.848 59.496 58.848 59.121 58.848 58.527 59.551 58.449 59.785 58.449 60.785 58.449 60.895 58.949 60.91 59.246ZM61.66 59.246" fill="#231f20"/>
<path d="M66.156 59.246C66.156 59.012 66.047 57.762 64.359 57.762 63.438 57.762 62.578 58.23 62.578 59.262 62.578 59.918 63.016 60.246 63.672 60.402L64.594 60.637C65.266 60.809 65.531 60.934 65.531 61.309 65.531 61.824 65.016 62.059 64.438 62.059 63.328 62.059 63.219 61.465 63.188 61.09H62.422C62.453 61.668 62.594 62.746 64.453 62.746 65.516 62.746 66.313 62.152 66.313 61.184 66.313 60.543 65.969 60.184 65 59.949L64.203 59.746C63.594 59.59 63.344 59.496 63.344 59.121 63.344 58.527 64.047 58.449 64.281 58.449 65.281 58.449 65.391 58.949 65.406 59.246ZM66.156 59.246" fill="#231f20"/>
</g>
</svg>
