<svg xmlns="http://www.w3.org/2000/svg" xmlns:xlink="http://www.w3.org/1999/xlink" xmlns:inkscape="http://www.inkscape.org/namespaces/inkscape" version="1.1" width="403.91999" height="190.08" viewBox="0 0 403.91999 190.08">
<defs>
<clipPath id="clip_1">
<path transform="matrix(.24,0,0,.24,0,0)" d="M0 0H1683.3333V789.3428H0Z" clip-rule="evenodd"/>
</clipPath>
<clipPath id="clip_2">
<path transform="matrix(.24,0,0,.24,0,0)" d="M0 0H1683.3333V786.35287H0Z" clip-rule="evenodd"/>
</clipPath>
<path id="font_3_85" d="M.064941409 0V.5185547H.14404297V.4404297C.16422527 .4770101 .18286133 .50112918 .19995117 .51278689 .21704102 .5244446 .23583985 .53027346 .25634767 .53027346 .28597007 .53027346 .31608073 .520874 .3466797 .5020752L.31640626 .42089845C.29492188 .43359376 .2734375 .4399414 .25195313 .4399414 .23274739 .4399414 .2154948 .43415324 .20019531 .4225769 .18489583 .41101075 .17399089 .3949636 .16748047 .37443543 .15771485 .3431549 .15283203 .3089396 .15283203 .27178956V0H.064941409Z"/>
<path id="font_3_72" d="M.42089845 .16699219 .51171877 .15576172C.49739585 .10270182 .47086589 .061523439 .4321289 .032226564 .39339195 .0029296876 .34391276-.01171875 .2836914-.01171875 .20784505-.01171875 .14770508 .01163737 .103271488 .05834961 .05883789 .10506185 .036621095 .17057292 .036621095 .2548828 .036621095 .3421224 .05908203 .40983073 .104003909 .4580078 .14892578 .5061849 .20719402 .53027346 .2788086 .53027346 .34814454 .53027346 .40478517 .5067088 .44873048 .45957948 .49267579 .41246034 .51464846 .34616599 .51464846 .2606964 .51464846 .25549827 .51448568 .247701 .51416018 .23730469H.1274414C.13069661 .1805013 .14680989 .13700359 .17578125 .10681152 .20475261 .07661947 .24088542 .061523439 .2841797 .061523439 .31640626 .061523439 .34391276 .0699056 .36669923 .08666992 .3894857 .10344442 .4075521 .1302185 .42089845 .16699219M.13232422 .31054688H.421875C.41796876 .3534546 .40690104 .38563539 .38867188 .40708924 .3606771 .4403839 .3243815 .45703126 .27978517 .45703126 .23942058 .45703126 .20548503 .44374085 .17797852 .41716004 .150472 .3905894 .1352539 .35505168 .13232422 .31054688Z"/>
<path id="font_3_68" d="M.40429688 .06402588C.37174479 .03633626 .34041343 .016789755 .31030274 .0053863527 .28019206-.0060170495 .24788411-.01171875 .2133789-.01171875 .15641277-.01171875 .11263021 .0022074383 .08203125 .030059815 .051432294 .05791219 .036132814 .09350077 .036132814 .13682556 .036132814 .16222637 .04191081 .18542989 .053466798 .20643616 .06502279 .22745259 .08015951 .24431356 .09887695 .25701905 .1175944 .26972453 .13867188 .2793325 .16210938 .2858429 .17936199 .29041038 .20540364 .29480998 .24023438 .29904176 .3111979 .30744425 .363444 .3174642 .39697267 .32910157 .3972982 .34109498 .39746095 .3487142 .39746095 .35195924 .39746095 .38763429 .38916017 .4127655 .3725586 .4273529 .35009767 .44713847 .31673179 .45703126 .27246095 .45703126 .2311198 .45703126 .20060222 .44978843 .1809082 .43530274 .16121419 .42081706 .14664714 .39518229 .13720703 .35839845L.05126953 .3701172C.05908203 .40701295 .0719401 .43680827 .08984375 .45950318 .1077474 .4821981 .1336263 .4996643 .16748047 .51190188 .20133464 .5241496 .24055989 .53027346 .28515626 .53027346 .3294271 .53027346 .36539714 .5250651 .3930664 .51464846 .4207357 .50423178 .44108073 .49112956 .45410157 .4753418 .4671224 .45955406 .47623698 .43961589 .4814453 .41552735 .484375 .40055339 .48583985 .37353517 .48583985 .33447267V.21728516C.48583985 .13557942 .48771159 .08390299 .49145509 .06225586 .49519859 .040608724 .5026042 .019856772 .5136719 0H.421875C.4127604 .018249512 .40690104 .039591474 .40429688 .06402588M.39697267 .2607422C.36507163 .24760945 .31722007 .2364502 .25341798 .2272644 .21728516 .22203572 .19173177 .21615093 .17675781 .20960999 .16178386 .20307923 .15022786 .19351705 .14208985 .18092346 .13395183 .16834004 .12988281 .15436809 .12988281 .13900757 .12988281 .115478519 .13875325 .09586588 .15649414 .08016968 .17423503 .06448364 .20019531 .056640626 .234375 .056640626 .26822917 .056640626 .29833985 .064081829 .32470704 .07896423 .35107423 .09384664 .37044273 .11420695 .3828125 .14004517 .3922526 .16000366 .39697267 .18944295 .39697267 .22836304V.2607422Z"/>
<path id="font_3_71" d="M.40234376 0V.06542969C.36946617 .0139973959 .3211263-.01171875 .25732423-.01171875 .21598308-.01171875 .17797852-.00032552085 .14331055 .022460938 .10864258 .045247396 .08178711 .077067058 .06274414 .11791992 .043701173 .15877278 .034179689 .20572917 .034179689 .25878907 .034179689 .31054688 .04280599 .35750328 .060058595 .3996582 .077311199 .44181315 .1031901 .4741211 .13769531 .49658204 .17220052 .51904299 .21077474 .53027346 .25341798 .53027346 .28466798 .53027346 .3125 .52368167 .33691407 .51049807 .36132813 .49731446 .3811849 .48014323 .39648438 .45898438V.7158203H.48388673V0H.40234376M.12451172 .2590332C.12451172 .1928711 .13850911 .14341228 .1665039 .11065674 .1944987 .07790121 .22753906 .061523439 .265625 .061523439 .30403648 .061523439 .33666993 .077168788 .3635254 .10845947 .39038087 .13976033 .4038086 .18752034 .4038086 .2517395 .4038086 .32243858 .39013673 .3743286 .36279298 .40740968 .33544923 .44049073 .3017578 .45703126 .26171876 .45703126 .22265625 .45703126 .19002278 .4411367 .16381836 .40934754 .13761394 .37756858 .12451172 .32746379 .12451172 .2590332Z"/>
<path id="font_3_3" d="M0 0Z"/>
<path id="font_3_83" d="M.06591797-.19921875V.5185547H.1459961V.45166017C.1648763 .4778646 .18619792 .4975179 .20996094 .5106201 .23372396 .52372238 .26253257 .53027346 .29638673 .53027346 .34065757 .53027346 .37972007 .5188802 .41357423 .49609376 .44742839 .47330729 .47298179 .4411621 .49023438 .3996582 .507487 .3581543 .5161133 .31266276 .5161133 .2631836 .5161133 .2101237 .5065918 .16235352 .48754884 .11987305 .46850587 .07739258 .44083659 .044840497 .40454103 .022216797 .36824546-.00040690104 .33007813-.01171875 .29003907-.01171875 .2607422-.01171875 .23445638-.005452474 .21118164 .007080078 .1879069 .019622803 .16878255 .035461427 .1538086 .054595949V-.19921875H.06591797M.14550781 .25708009C.14550781 .19042969 .15901692 .14117432 .18603516 .109313968 .21305339 .07745361 .24576824 .061523439 .2841797 .061523439 .3232422 .061523439 .35668946 .07802328 .38452149 .11102295 .41235353 .14402263 .42626954 .19514974 .42626954 .2644043 .42626954 .33040367 .41267906 .37982179 .38549806 .4126587 .35831706 .4454956 .32584635 .46191407 .28808595 .46191407 .25065104 .46191407 .2175293 .44443766 .1887207 .40948487 .15991211 .37453208 .14550781 .32373048 .14550781 .25708009Z"/>
<path id="font_3_82" d="M.033203126 .25927735C.033203126 .355306 .059895833 .42643229 .11328125 .47265626 .15787761 .5110677 .21223958 .53027346 .2763672 .53027346 .34765626 .53027346 .40592448 .5069173 .45117188 .46020509 .49641929 .41349284 .51904299 .34895835 .51904299 .26660157 .51904299 .1998698 .5090332 .14737956 .48901368 .10913086 .46899415 .070882167 .43986003 .041178388 .40161134 .020019532 .36336265-.0011393229 .3216146-.01171875 .2763672-.01171875 .20377605-.01171875 .1451009 .011555989 .1003418 .05810547 .055582685 .104654949 .033203126 .17171224 .033203126 .25927735M.123535159 .25952149C.123535159 .19335938 .13802083 .14381917 .16699219 .11090088 .19596355 .07798258 .23242188 .061523439 .2763672 .061523439 .31998698 .061523439 .35628257 .078063968 .3852539 .11114502 .41422526 .14422608 .42871095 .19465637 .42871095 .2624359 .42871095 .32632957 .4141439 .3747355 .38500978 .4076538 .35587565 .4405721 .31966148 .45703126 .2763672 .45703126 .23242188 .45703126 .19596355 .44065348 .16699219 .40789796 .13802083 .37514244 .123535159 .3256836 .123535159 .25952149Z"/>
<path id="font_3_86" d="M.030761719 .15527344 .11767578 .16894531C.122558597 .13426717 .1361491 .107691448 .15844727 .08921814 .18074544 .070755008 .21191406 .061523439 .25195313 .061523439 .29231773 .061523439 .32226563 .06967672 .34179688 .08598328 .36132813 .10230001 .37109376 .12143453 .37109376 .14338684 .37109376 .16309102 .36246745 .17859395 .34521485 .18989563 .33317057 .1976471 .30322267 .20749919 .2553711 .2194519 .19091797 .23573812 .14624024 .24982707 .12133789 .26171876 .09643555 .27361045 .077555339 .29006449 .064697269 .31108094 .05183919 .33209739 .045410158 .35531108 .045410158 .38072206 .045410158 .40385438 .05069987 .4252777 .061279298 .44499208 .07185873 .46470643 .08626302 .4810791 .10449219 .4941101 .11816406 .5042114 .13680013 .5127614 .16040039 .51976016 .18400066 .526769 .20930989 .53027346 .23632813 .53027346 .27701823 .53027346 .31274415 .52437338 .34350587 .51257327 .37426759 .50078329 .39697267 .48480735 .4116211 .4646454 .42626954 .44449363 .4363607 .4175415 .44189454 .38378907L.35595704 .3720703C.35205079 .39876304 .34073893 .41959635 .32202149 .4345703 .30330406 .44954429 .27685548 .45703126 .24267578 .45703126 .2023112 .45703126 .17350261 .45038859 .15625 .43710328 .13899739 .42382813 .1303711 .40827943 .1303711 .39045716 .1303711 .37912498 .13395183 .3689219 .14111328 .35984803 .14827474 .35045878 .1595052 .34268699 .17480469 .3365326 .18359375 .33328758 .20947266 .32583619 .2524414 .31417848 .31461589 .29758708 .35799156 .28400675 .38256837 .2734375 .40714518 .26286827 .42643229 .24749756 .4404297 .22732544 .4544271 .2071635 .46142579 .18212383 .46142579 .15220642 .46142579 .12292989 .45288087 .09536234 .43579103 .069503787 .41870118 .043655397 .39404298 .02365621 .3618164 .009506226 .32958985-.0046437585 .2931315-.01171875 .2524414-.01171875 .1850586-.01171875 .13370769 .002319336 .09838867 .030395508 .063069667 .05847168 .040527345 .100097659 .030761719 .15527344Z"/>
<path id="font_3_76" d="M.06640625 .6142578V.7158203H.15429688V.6142578H.06640625M.06640625 0V.5185547H.15429688V0H.06640625Z"/>
<path id="font_3_87" d="M.2578125 .07763672 .2705078 0C.24576824-.0045572917 .22363281-.0068359377 .20410156-.0068359377 .17220052-.0068359377 .14746094-.0017903646 .12988281 .008300781 .11230469 .018391928 .0999349 .031656904 .09277344 .048095704 .08561198 .06453451 .08203125 .099121097 .08203125 .15185547V.4501953H.017578125V.5185547H.08203125V.6473236L.1694336 .7001953V.5185547H.2578125V.4501953H.1694336V.14697266C.1694336 .121907558 .17097982 .10579427 .17407227 .09863281 .17716472 .09147135 .18221028 .08577474 .18920899 .08154297 .19620769 .077311199 .20621746 .07519531 .21923828 .07519531 .2290039 .07519531 .24186199 .07600912 .2578125 .07763672Z"/>
<path id="font_3_81" d="M.06591797 0V.5185547H.14501953V.4453125C.18310547 .5019531 .23811849 .53027346 .3100586 .53027346 .3413086 .53027346 .3700358 .5246582 .39624024 .51342776 .42244468 .50219729 .44205729 .48746745 .45507813 .46923829 .46809898 .45100913 .47721354 .42936198 .48242188 .40429688 .4856771 .38802085 .4873047 .35953776 .4873047 .31884767V0H.39941407V.31576539C.39941407 .35161338 .3959961 .37841798 .38916017 .3961792 .38232423 .41394044 .37019859 .42811585 .3527832 .43870545 .33536784 .44929505 .3149414 .45458985 .2915039 .45458985 .254069 .45458985 .22176107 .44269309 .19458008 .41889955 .1673991 .39511619 .1538086 .34998576 .1538086 .2835083V0H.06591797Z"/>
<path id="font_3_90" d="M.1616211 0 .0029296876 .5185547H.09375L.17626953 .21928406 .20703125 .107910159C.20833333 .11343384 .21728516 .14904277 .23388672 .21473694L.31640626 .5185547H.40673829L.484375 .21783448 .5102539 .118652347 .54003909 .21876526 .62890627 .5185547H.71435549L.5522461 0H.4609375L.37841798 .31071473 .35839845 .39892579 .25341798 0H.1616211Z"/>
</defs>
<g clip-path="url(#clip_1)">
<path transform="matrix(.7175843,0,0,.7175843,0,0)" d="M0 0H563V264H0Z" fill="#ffffff"/>
</g>
<g clip-path="url(#clip_2)">
<path transform="matrix(.7175843,0,0,.7175843,.35879217,.35879217)" d="M1 111H41V151H1Z" fill="#757575"/>
<path transform="matrix(.7175843,0,0,.7175843,.35879217,.35879217)" stroke-width="1" stroke-linecap="butt" stroke-miterlimit="4" stroke-linejoin="miter" fill="none" stroke="#66b2ff" d="M1 111H41V151H1Z"/>
<path transform="matrix(.7175843,0,0,.7175843,.35879217,.35879217)" d="M41 111H81V151H41Z" fill="#757575"/>
<path transform="matrix(.7175843,0,0,.7175843,.35879217,.35879217)" stroke-width="1" stroke-linecap="butt" stroke-miterlimit="4" stroke-linejoin="miter" fill="none" stroke="#66b2ff" d="M41 111H81V151H41Z"/>
<path transform="matrix(.7175843,0,0,.7175843,.35879217,.35879217)" d="M81 111H121V151H81Z" fill="#757575"/>
<path transform="matrix(.7175843,0,0,.7175843,.35879217,.35879217)" stroke-width="1" stroke-linecap="butt" stroke-miterlimit="4" stroke-linejoin="miter" fill="none" stroke="#66b2ff" d="M81 111H121V151H81Z"/>
<path transform="matrix(.7175843,0,0,.7175843,.35879217,.35879217)" d="M121 111H161V151H121Z" fill="#757575"/>
<path transform="matrix(.7175843,0,0,.7175843,.35879217,.35879217)" stroke-width="1" stroke-linecap="butt" stroke-miterlimit="4" stroke-linejoin="miter" fill="none" stroke="#66b2ff" d="M121 111H161V151H121Z"/>
<path transform="matrix(.7175843,0,0,.7175843,.35879217,.35879217)" d="M161 111H201V151H161Z" fill="#757575"/>
<path transform="matrix(.7175843,0,0,.7175843,.35879217,.35879217)" stroke-width="1" stroke-linecap="butt" stroke-miterlimit="4" stroke-linejoin="miter" fill="none" stroke="#66b2ff" d="M161 111H201V151H161Z"/>
<path transform="matrix(.7175843,0,0,.7175843,.35879217,.35879217)" d="M201 111H241V151H201Z" fill="#757575"/>
<path transform="matrix(.7175843,0,0,.7175843,.35879217,.35879217)" stroke-width="1" stroke-linecap="butt" stroke-miterlimit="4" stroke-linejoin="miter" fill="none" stroke="#66b2ff" d="M201 111H241V151H201Z"/>
<path transform="matrix(.7175843,0,0,.7175843,.35879217,.35879217)" d="M241 111H281V151H241Z" fill="#757575"/>
<path transform="matrix(.7175843,0,0,.7175843,.35879217,.35879217)" stroke-width="1" stroke-linecap="butt" stroke-miterlimit="4" stroke-linejoin="miter" fill="none" stroke="#66b2ff" d="M241 111H281V151H241Z"/>
<path transform="matrix(.7175843,0,0,.7175843,.35879217,.35879217)" d="M281 111H321V151H281Z" fill="#757575"/>
<path transform="matrix(.7175843,0,0,.7175843,.35879217,.35879217)" stroke-width="1" stroke-linecap="butt" stroke-miterlimit="4" stroke-linejoin="miter" fill="none" stroke="#66b2ff" d="M281 111H321V151H281Z"/>
<path transform="matrix(.7175843,0,0,.7175843,.35879217,.35879217)" d="M321 111H361V151H321Z" fill="#757575"/>
<path transform="matrix(.7175843,0,0,.7175843,.35879217,.35879217)" stroke-width="1" stroke-linecap="butt" stroke-miterlimit="4" stroke-linejoin="miter" fill="none" stroke="#66b2ff" d="M321 111H361V151H321Z"/>
<path transform="matrix(.7175843,0,0,.7175843,.35879217,.35879217)" d="M361 111H401V151H361Z" fill="#757575"/>
<path transform="matrix(.7175843,0,0,.7175843,.35879217,.35879217)" stroke-width="1" stroke-linecap="butt" stroke-miterlimit="4" stroke-linejoin="miter" fill="none" stroke="#66b2ff" d="M361 111H401V151H361Z"/>
<path transform="matrix(.7175843,0,0,.7175843,.35879217,.35879217)" d="M401 111H441V151H401Z" fill="#757575"/>
<path transform="matrix(.7175843,0,0,.7175843,.35879217,.35879217)" stroke-width="1" stroke-linecap="butt" stroke-miterlimit="4" stroke-linejoin="miter" fill="none" stroke="#66b2ff" d="M401 111H441V151H401Z"/>
<path transform="matrix(.7175843,0,0,.7175843,.35879217,.35879217)" d="M441 111H481V151H441Z" fill="#757575"/>
<path transform="matrix(.7175843,0,0,.7175843,.35879217,.35879217)" stroke-width="1" stroke-linecap="butt" stroke-miterlimit="4" stroke-linejoin="miter" fill="none" stroke="#66b2ff" d="M441 111H481V151H441Z"/>
<path transform="matrix(.7175843,0,0,.7175843,.35879217,.35879217)" d="M481 111H521V151H481Z" fill="#757575"/>
<path transform="matrix(.7175843,0,0,.7175843,.35879217,.35879217)" stroke-width="1" stroke-linecap="butt" stroke-miterlimit="4" stroke-linejoin="miter" fill="none" stroke="#66b2ff" d="M481 111H521V151H481Z"/>
<path transform="matrix(.7175843,0,0,.7175843,.35879217,.35879217)" d="M521 111H561V151H521Z" fill="#757575"/>
<path transform="matrix(.7175843,0,0,.7175843,.35879217,.35879217)" stroke-width="1" stroke-linecap="butt" stroke-miterlimit="4" stroke-linejoin="miter" fill="none" stroke="#66b2ff" d="M521 111H561V151H521Z"/>
<path transform="matrix(.7175843,0,0,.7175843,.35879217,.35879217)" stroke-width="1" stroke-linecap="butt" stroke-miterlimit="10" stroke-linejoin="miter" fill="none" stroke="#000000" d="M220.5 231C220.5 231 220.5 210.29001 220.5 168.87"/>
<path transform="matrix(.7175843,0,0,.7175843,.35879217,.35879217)" d="M220.5 162.12 225 171.12 220.5 168.87 216 171.12 220.5 162.12Z"/>
<path transform="matrix(.7175843,0,0,.7175843,.35879217,.35879217)" stroke-width="1" stroke-linecap="butt" stroke-miterlimit="10" stroke-linejoin="miter" fill="none" stroke="#000000" d="M220.5 162.12 225 171.12 220.5 168.87 216 171.12 220.5 162.12Z"/>
<path transform="matrix(.7175843,0,0,.7175843,.35879217,.35879217)" stroke-width="1" stroke-linecap="butt" stroke-miterlimit="10" stroke-linejoin="miter" fill="none" stroke="#000000" d="M380.5 31C380.5 31 380.5 51.71 380.5 93.13"/>
<path transform="matrix(.7175843,0,0,.7175843,.35879217,.35879217)" d="M380.5 99.88 376 90.88 380.5 93.13 385 90.88 380.5 99.88Z"/>
<path transform="matrix(.7175843,0,0,.7175843,.35879217,.35879217)" stroke-width="1" stroke-linecap="butt" stroke-miterlimit="10" stroke-linejoin="miter" fill="none" stroke="#000000" d="M380.5 99.88 376 90.88 380.5 93.13 385 90.88 380.5 99.88Z"/>
<use data-text="r" xlink:href="#font_3_85" transform="matrix(11.481349,0,0,-11.481349,240.88408,15.786855)"/>
<use data-text="e" xlink:href="#font_3_72" transform="matrix(11.481349,0,0,-11.481349,244.70738,15.786855)"/>
<use data-text="a" xlink:href="#font_3_68" transform="matrix(11.481349,0,0,-11.481349,251.091,15.786855)"/>
<use data-text="d" xlink:href="#font_3_71" transform="matrix(11.481349,0,0,-11.481349,257.47465,15.786855)"/>
<use data-text=" " xlink:href="#font_3_3" transform="matrix(11.481349,0,0,-11.481349,263.85826,15.786855)"/>
<use data-text="p" xlink:href="#font_3_83" transform="matrix(11.481349,0,0,-11.481349,267.05009,15.786855)"/>
<use data-text="o" xlink:href="#font_3_82" transform="matrix(11.481349,0,0,-11.481349,273.4337,15.786855)"/>
<use data-text="s" xlink:href="#font_3_86" transform="matrix(11.481349,0,0,-11.481349,279.81733,15.786855)"/>
<use data-text="i" xlink:href="#font_3_76" transform="matrix(11.481349,0,0,-11.481349,285.558,15.786855)"/>
<use data-text="t" xlink:href="#font_3_87" transform="matrix(11.481349,0,0,-11.481349,288.10688,15.786855)"/>
<use data-text="i" xlink:href="#font_3_76" transform="matrix(11.481349,0,0,-11.481349,291.29869,15.786855)"/>
<use data-text="o" xlink:href="#font_3_82" transform="matrix(11.481349,0,0,-11.481349,293.84754,15.786855)"/>
<use data-text="n" xlink:href="#font_3_81" transform="matrix(11.481349,0,0,-11.481349,300.23118,15.786855)"/>
<use data-text="w" xlink:href="#font_3_90" transform="matrix(11.481349,0,0,-11.481349,125.44271,180.83126)"/>
<use data-text="r" xlink:href="#font_3_85" transform="matrix(11.481349,0,0,-11.481349,133.73224,180.83126)"/>
<use data-text="i" xlink:href="#font_3_76" transform="matrix(11.481349,0,0,-11.481349,137.55553,180.83126)"/>
<use data-text="t" xlink:href="#font_3_87" transform="matrix(11.481349,0,0,-11.481349,140.1044,180.83126)"/>
<use data-text="e" xlink:href="#font_3_72" transform="matrix(11.481349,0,0,-11.481349,143.2962,180.83126)"/>
<use data-text=" " xlink:href="#font_3_3" transform="matrix(11.481349,0,0,-11.481349,149.67984,180.83126)"/>
<use data-text="p" xlink:href="#font_3_83" transform="matrix(11.481349,0,0,-11.481349,152.87165,180.83126)"/>
<use data-text="o" xlink:href="#font_3_82" transform="matrix(11.481349,0,0,-11.481349,159.25528,180.83126)"/>
<use data-text="s" xlink:href="#font_3_86" transform="matrix(11.481349,0,0,-11.481349,165.6389,180.83126)"/>
<use data-text="i" xlink:href="#font_3_76" transform="matrix(11.481349,0,0,-11.481349,171.37958,180.83126)"/>
<use data-text="t" xlink:href="#font_3_87" transform="matrix(11.481349,0,0,-11.481349,173.92844,180.83126)"/>
<use data-text="i" xlink:href="#font_3_76" transform="matrix(11.481349,0,0,-11.481349,177.12026,180.83126)"/>
<use data-text="o" xlink:href="#font_3_82" transform="matrix(11.481349,0,0,-11.481349,179.66912,180.83126)"/>
<use data-text="n" xlink:href="#font_3_81" transform="matrix(11.481349,0,0,-11.481349,186.05274,180.83126)"/>
</g>
</svg>
