<svg xmlns="http://www.w3.org/2000/svg" xmlns:xlink="http://www.w3.org/1999/xlink" xmlns:inkscape="http://www.inkscape.org/namespaces/inkscape" version="1.1" width="432.96" height="110.88" viewBox="0 0 432.96 110.88">
<defs>
<clipPath id="clip_1">
<path transform="matrix(.24,0,0,.24,0,0)" d="M0 0H1804.1666V460.7656H0Z" clip-rule="evenodd"/>
</clipPath>
<clipPath id="clip_2">
<path transform="matrix(.24,0,0,.24,0,0)" d="M0 0H1804.1666V457.77363H0Z" clip-rule="evenodd"/>
</clipPath>
<path id="font_3_76" d="M.06640625 .6142578V.7158203H.15429688V.6142578H.06640625M.06640625 0V.5185547H.15429688V0H.06640625Z"/>
<path id="font_3_82" d="M.033203126 .25927735C.033203126 .355306 .059895833 .42643229 .11328125 .47265626 .15787761 .5110677 .21223958 .53027346 .2763672 .53027346 .34765626 .53027346 .40592448 .5069173 .45117188 .46020509 .49641929 .41349284 .51904299 .34895835 .51904299 .26660157 .51904299 .1998698 .5090332 .14737956 .48901368 .10913086 .46899415 .070882167 .43986003 .041178388 .40161134 .020019532 .36336265-.0011393229 .3216146-.01171875 .2763672-.01171875 .20377605-.01171875 .1451009 .011555989 .1003418 .05810547 .055582685 .104654949 .033203126 .17171224 .033203126 .25927735M.123535159 .25952149C.123535159 .19335938 .13802083 .14381917 .16699219 .11090088 .19596355 .07798258 .23242188 .061523439 .2763672 .061523439 .31998698 .061523439 .35628257 .078063968 .3852539 .11114502 .41422526 .14422608 .42871095 .19465637 .42871095 .2624359 .42871095 .32632957 .4141439 .3747355 .38500978 .4076538 .35587565 .4405721 .31966148 .45703126 .2763672 .45703126 .23242188 .45703126 .19596355 .44065348 .16699219 .40789796 .13802083 .37514244 .123535159 .3256836 .123535159 .25952149Z"/>
<path id="font_3_86" d="M.030761719 .15527344 .11767578 .16894531C.122558597 .13426717 .1361491 .107691448 .15844727 .08921814 .18074544 .070755008 .21191406 .061523439 .25195313 .061523439 .29231773 .061523439 .32226563 .06967672 .34179688 .08598328 .36132813 .10230001 .37109376 .12143453 .37109376 .14338684 .37109376 .16309102 .36246745 .17859395 .34521485 .18989563 .33317057 .1976471 .30322267 .20749919 .2553711 .2194519 .19091797 .23573812 .14624024 .24982707 .12133789 .26171876 .09643555 .27361045 .077555339 .29006449 .064697269 .31108094 .05183919 .33209739 .045410158 .35531108 .045410158 .38072206 .045410158 .40385438 .05069987 .4252777 .061279298 .44499208 .07185873 .46470643 .08626302 .4810791 .10449219 .4941101 .11816406 .5042114 .13680013 .5127614 .16040039 .51976016 .18400066 .526769 .20930989 .53027346 .23632813 .53027346 .27701823 .53027346 .31274415 .52437338 .34350587 .51257327 .37426759 .50078329 .39697267 .48480735 .4116211 .4646454 .42626954 .44449363 .4363607 .4175415 .44189454 .38378907L.35595704 .3720703C.35205079 .39876304 .34073893 .41959635 .32202149 .4345703 .30330406 .44954429 .27685548 .45703126 .24267578 .45703126 .2023112 .45703126 .17350261 .45038859 .15625 .43710328 .13899739 .42382813 .1303711 .40827943 .1303711 .39045716 .1303711 .37912498 .13395183 .3689219 .14111328 .35984803 .14827474 .35045878 .1595052 .34268699 .17480469 .3365326 .18359375 .33328758 .20947266 .32583619 .2524414 .31417848 .31461589 .29758708 .35799156 .28400675 .38256837 .2734375 .40714518 .26286827 .42643229 .24749756 .4404297 .22732544 .4544271 .2071635 .46142579 .18212383 .46142579 .15220642 .46142579 .12292989 .45288087 .09536234 .43579103 .069503787 .41870118 .043655397 .39404298 .02365621 .3618164 .009506226 .32958985-.0046437585 .2931315-.01171875 .2524414-.01171875 .1850586-.01171875 .13370769 .002319336 .09838867 .030395508 .063069667 .05847168 .040527345 .100097659 .030761719 .15527344Z"/>
<path id="font_3_29" d="M.09033203 .41796876V.5185547H.19042969V.41796876H.09033203M.09033203 0V.10058594H.19042969V0H.09033203Z"/>
<path id="font_3_69" d="M.14697266 0H.06542969V.7158203H.15332031V.45950318C.19042969 .50668337 .23779297 .53027346 .29541017 .53027346 .3273112 .53027346 .35750328 .5238444 .38598634 .5109863 .4144694 .49812828 .4379069 .48006187 .45629884 .4567871 .47469078 .43351237 .48909507 .4054362 .49951173 .3725586 .5099284 .339681 .5151367 .30452476 .5151367 .26708985 .5151367 .17822266 .49316407 .10953776 .44921876 .061035158 .40527345 .012532552 .35253907-.01171875 .29101563-.01171875 .2298177-.01171875 .18180339 .014160156 .14697266 .06591797V0M.1459961 .26316834C.1459961 .20129903 .15445964 .15659587 .17138672 .12905884 .19905599 .08403524 .23649089 .061523439 .2836914 .061523439 .32210288 .061523439 .355306 .078125 .38330079 .111328128 .41129557 .14453125 .42529298 .19401042 .42529298 .25976563 .42529298 .32713828 .41186524 .37685649 .38500978 .4089203 .3581543 .44099427 .3256836 .45703126 .28759767 .45703126 .2491862 .45703126 .21598308 .4404297 .18798828 .40722657 .15999349 .37402345 .1459961 .32600404 .1459961 .26316834Z"/>
<path id="font_3_72" d="M.42089845 .16699219 .51171877 .15576172C.49739585 .10270182 .47086589 .061523439 .4321289 .032226564 .39339195 .0029296876 .34391276-.01171875 .2836914-.01171875 .20784505-.01171875 .14770508 .01163737 .103271488 .05834961 .05883789 .10506185 .036621095 .17057292 .036621095 .2548828 .036621095 .3421224 .05908203 .40983073 .104003909 .4580078 .14892578 .5061849 .20719402 .53027346 .2788086 .53027346 .34814454 .53027346 .40478517 .5067088 .44873048 .45957948 .49267579 .41246034 .51464846 .34616599 .51464846 .2606964 .51464846 .25549827 .51448568 .247701 .51416018 .23730469H.1274414C.13069661 .1805013 .14680989 .13700359 .17578125 .10681152 .20475261 .07661947 .24088542 .061523439 .2841797 .061523439 .31640626 .061523439 .34391276 .0699056 .36669923 .08666992 .3894857 .10344442 .4075521 .1302185 .42089845 .16699219M.13232422 .31054688H.421875C.41796876 .3534546 .40690104 .38563539 .38867188 .40708924 .3606771 .4403839 .3243815 .45703126 .27978517 .45703126 .23942058 .45703126 .20548503 .44374085 .17797852 .41716004 .150472 .3905894 .1352539 .35505168 .13232422 .31054688Z"/>
<path id="font_3_74" d="M.049804689-.04296875 .1352539-.055664064C.13883464-.08203125 .14876302-.10123698 .16503906-.11328125 .18684896-.1295573 .21663411-.13769531 .25439454-.13769531 .29508464-.13769531 .3264974-.12953694 .3486328-.113220218 .37076823-.09691366 .3857422-.07407633 .3935547-.044708253 .39811198-.026774088 .40022788 .010904948 .39990235 .06832886 .36149089 .022776286 .3136393 0 .25634767 0 .1850586 0 .12988281 .025716147 .09082031 .07714844 .051757814 .12858074 .032226564 .19026692 .032226564 .26220704 .032226564 .3116862 .041178388 .35734049 .05908203 .39916993 .07698568 .44099937 .10294596 .47330729 .13696289 .49609376 .17097982 .5188802 .2109375 .53027346 .25683595 .53027346 .31803385 .53027346 .3684896 .5053711 .40820313 .4555664V.5185547H.4892578V.070007327C.4892578-.010772705 .48103843-.06801859 .4645996-.10173035 .4481608-.1354421 .42211915-.16206868 .3864746-.1816101 .35083009-.2011617 .30696617-.2109375 .2548828-.2109375 .19303386-.2109375 .1430664-.19698079 .10498047-.16906739 .06689453-.14115398 .048502607-.099121097 .049804689-.04296875M.122558597 .26853944C.122558597 .20067851 .1360677 .15116374 .16308594 .11999512 .19010417 .0888265 .22395833 .07324219 .26464845 .07324219 .30501304 .07324219 .3388672 .08874512 .36621095 .11975098 .3935547 .15075684 .40722657 .19938152 .40722657 .265625 .40722657 .3289388 .3931478 .3766683 .36499024 .40881349 .33683268 .44095866 .30289714 .45703126 .2631836 .45703126 .2241211 .45703126 .19091797 .4412028 .16357422 .4095459 .13623047 .377889 .122558597 .33088685 .122558597 .26853944Z"/>
<path id="font_3_81" d="M.06591797 0V.5185547H.14501953V.4453125C.18310547 .5019531 .23811849 .53027346 .3100586 .53027346 .3413086 .53027346 .3700358 .5246582 .39624024 .51342776 .42244468 .50219729 .44205729 .48746745 .45507813 .46923829 .46809898 .45100913 .47721354 .42936198 .48242188 .40429688 .4856771 .38802085 .4873047 .35953776 .4873047 .31884767V0H.39941407V.31576539C.39941407 .35161338 .3959961 .37841798 .38916017 .3961792 .38232423 .41394044 .37019859 .42811585 .3527832 .43870545 .33536784 .44929505 .3149414 .45458985 .2915039 .45458985 .254069 .45458985 .22176107 .44269309 .19458008 .41889955 .1673991 .39511619 .1538086 .34998576 .1538086 .2835083V0H.06591797Z"/>
<path id="font_3_71" d="M.40234376 0V.06542969C.36946617 .0139973959 .3211263-.01171875 .25732423-.01171875 .21598308-.01171875 .17797852-.00032552085 .14331055 .022460938 .10864258 .045247396 .08178711 .077067058 .06274414 .11791992 .043701173 .15877278 .034179689 .20572917 .034179689 .25878907 .034179689 .31054688 .04280599 .35750328 .060058595 .3996582 .077311199 .44181315 .1031901 .4741211 .13769531 .49658204 .17220052 .51904299 .21077474 .53027346 .25341798 .53027346 .28466798 .53027346 .3125 .52368167 .33691407 .51049807 .36132813 .49731446 .3811849 .48014323 .39648438 .45898438V.7158203H.48388673V0H.40234376M.12451172 .2590332C.12451172 .1928711 .13850911 .14341228 .1665039 .11065674 .1944987 .07790121 .22753906 .061523439 .265625 .061523439 .30403648 .061523439 .33666993 .077168788 .3635254 .10845947 .39038087 .13976033 .4038086 .18752034 .4038086 .2517395 .4038086 .32243858 .39013673 .3743286 .36279298 .40740968 .33544923 .44049073 .3017578 .45703126 .26171876 .45703126 .22265625 .45703126 .19002278 .4411367 .16381836 .40934754 .13761394 .37756858 .12451172 .32746379 .12451172 .2590332Z"/>
<path id="font_3_70" d="M.40429688 .19042969 .49072267 .17919922C.48128257 .11947632 .45711265 .07272339 .4182129 .03894043 .37931315 .005167643 .33154298-.01171875 .27490235-.01171875 .2039388-.01171875 .14689128 .011474609 .103759769 .057861329 .060628255 .10424805 .0390625 .17073567 .0390625 .25732423 .0390625 .3133138 .048339845 .3623047 .06689453 .40429688 .08544922 .44628907 .11368815 .4777832 .15161133 .4987793 .1895345 .5197754 .23079427 .53027346 .27539063 .53027346 .33170573 .53027346 .37776695 .51598617 .41357423 .4874115 .4493815 .45884706 .47233073 .4182841 .48242188 .36572267L.39697267 .35253907C.38883464 .38720704 .37443034 .4132894 .35375978 .43078614 .3330892 .44828288 .30810548 .45703126 .2788086 .45703126 .23453777 .45703126 .1985677 .4412384 .17089844 .4096527 .14322917 .37807719 .12939453 .32811485 .12939453 .25976563 .12939453 .19043987 .14274089 .1400655 .1694336 .10864258 .1961263 .07722982 .23095703 .061523439 .27392579 .061523439 .308431 .061523439 .3372396 .07206217 .36035157 .09313965 .38346354 .114217128 .39811198 .14664714 .40429688 .19042969Z"/>
<path id="font_3_88" d="M.40576173 0V.076171878C.36539714 .017578125 .31054688-.01171875 .24121094-.01171875 .21061199-.01171875 .18204753-.005859375 .15551758 .005859375 .12898763 .017578125 .10929362 .03230794 .09643555 .050048829 .08357748 .06778971 .07454427 .08951823 .06933594 .115234378 .06575521 .13248699 .063964847 .15983074 .063964847 .19726563V.5185547H.15185547V.23095703C.15185547 .1850586 .15364583 .15413411 .15722656 .1381836 .16276042 .11507162 .17447917 .09692383 .19238281 .083740238 .21028646 .07055664 .23242188 .063964847 .25878907 .063964847 .28515626 .063964847 .30989585 .0707194 .3330078 .084228519 .35611979 .09773763 .3724772 .116129558 .38208009 .1394043 .39168296 .16267903 .39648438 .19645183 .39648438 .24072266V.5185547H.484375V0H.40576173Z"/>
<path id="font_3_85" d="M.064941409 0V.5185547H.14404297V.4404297C.16422527 .4770101 .18286133 .50112918 .19995117 .51278689 .21704102 .5244446 .23583985 .53027346 .25634767 .53027346 .28597007 .53027346 .31608073 .520874 .3466797 .5020752L.31640626 .42089845C.29492188 .43359376 .2734375 .4399414 .25195313 .4399414 .23274739 .4399414 .2154948 .43415324 .20019531 .4225769 .18489583 .41101075 .17399089 .3949636 .16748047 .37443543 .15771485 .3431549 .15283203 .3089396 .15283203 .27178956V0H.064941409Z"/>
</defs>
<g clip-path="url(#clip_1)">
<path transform="matrix(.7180762,0,0,.7180762,0,0)" d="M0 0H603V154H0Z" fill="#ffffff"/>
</g>
<g clip-path="url(#clip_2)">
<path transform="matrix(.7180762,0,0,.7180762,.3590381,.3590381)" d="M21 111H61V151H21Z" fill="#757575"/>
<path transform="matrix(.7180762,0,0,.7180762,.3590381,.3590381)" stroke-width="1" stroke-linecap="butt" stroke-miterlimit="4" stroke-linejoin="miter" fill="none" stroke="#66b2ff" d="M21 111H61V151H21Z"/>
<path transform="matrix(.7180762,0,0,.7180762,.3590381,.3590381)" d="M61 111H101V151H61Z" fill="#757575"/>
<path transform="matrix(.7180762,0,0,.7180762,.3590381,.3590381)" stroke-width="1" stroke-linecap="butt" stroke-miterlimit="4" stroke-linejoin="miter" fill="none" stroke="#66b2ff" d="M61 111H101V151H61Z"/>
<path transform="matrix(.7180762,0,0,.7180762,.3590381,.3590381)" d="M101 111H141V151H101Z" fill="#757575"/>
<path transform="matrix(.7180762,0,0,.7180762,.3590381,.3590381)" stroke-width="1" stroke-linecap="butt" stroke-miterlimit="4" stroke-linejoin="miter" fill="none" stroke="#66b2ff" d="M101 111H141V151H101Z"/>
<path transform="matrix(.7180762,0,0,.7180762,.3590381,.3590381)" d="M141 111H181V151H141Z" fill="#757575"/>
<path transform="matrix(.7180762,0,0,.7180762,.3590381,.3590381)" stroke-width="1" stroke-linecap="butt" stroke-miterlimit="4" stroke-linejoin="miter" fill="none" stroke="#66b2ff" d="M141 111H181V151H141Z"/>
<path transform="matrix(.7180762,0,0,.7180762,.3590381,.3590381)" d="M181 111H221V151H181Z" fill="#757575"/>
<path transform="matrix(.7180762,0,0,.7180762,.3590381,.3590381)" stroke-width="1" stroke-linecap="butt" stroke-miterlimit="4" stroke-linejoin="miter" fill="none" stroke="#66b2ff" d="M181 111H221V151H181Z"/>
<path transform="matrix(.7180762,0,0,.7180762,.3590381,.3590381)" d="M221 111H261V151H221Z" fill="#757575"/>
<path transform="matrix(.7180762,0,0,.7180762,.3590381,.3590381)" stroke-width="1" stroke-linecap="butt" stroke-miterlimit="4" stroke-linejoin="miter" fill="none" stroke="#66b2ff" d="M221 111H261V151H221Z"/>
<path transform="matrix(.7180762,0,0,.7180762,.3590381,.3590381)" d="M261 111H301V151H261Z" fill="#757575"/>
<path transform="matrix(.7180762,0,0,.7180762,.3590381,.3590381)" stroke-width="1" stroke-linecap="butt" stroke-miterlimit="4" stroke-linejoin="miter" fill="none" stroke="#66b2ff" d="M261 111H301V151H261Z"/>
<path transform="matrix(.7180762,0,0,.7180762,.3590381,.3590381)" d="M301 111H341V151H301Z" fill="#757575"/>
<path transform="matrix(.7180762,0,0,.7180762,.3590381,.3590381)" stroke-width="1" stroke-linecap="butt" stroke-miterlimit="4" stroke-linejoin="miter" fill="none" stroke="#66b2ff" d="M301 111H341V151H301Z"/>
<path transform="matrix(.7180762,0,0,.7180762,.3590381,.3590381)" d="M341 111H381V151H341Z" fill="#757575"/>
<path transform="matrix(.7180762,0,0,.7180762,.3590381,.3590381)" stroke-width="1" stroke-linecap="butt" stroke-miterlimit="4" stroke-linejoin="miter" fill="none" stroke="#66b2ff" d="M341 111H381V151H341Z"/>
<path transform="matrix(.7180762,0,0,.7180762,.3590381,.3590381)" d="M381 111H421V151H381Z" fill="#757575"/>
<path transform="matrix(.7180762,0,0,.7180762,.3590381,.3590381)" stroke-width="1" stroke-linecap="butt" stroke-miterlimit="4" stroke-linejoin="miter" fill="none" stroke="#66b2ff" d="M381 111H421V151H381Z"/>
<path transform="matrix(.7180762,0,0,.7180762,.3590381,.3590381)" d="M421 111H461V151H421Z" fill="#757575"/>
<path transform="matrix(.7180762,0,0,.7180762,.3590381,.3590381)" stroke-width="1" stroke-linecap="butt" stroke-miterlimit="4" stroke-linejoin="miter" fill="none" stroke="#66b2ff" d="M421 111H461V151H421Z"/>
<path transform="matrix(.7180762,0,0,.7180762,.3590381,.3590381)" d="M461 111H501V151H461Z" fill="#757575"/>
<path transform="matrix(.7180762,0,0,.7180762,.3590381,.3590381)" stroke-width="1" stroke-linecap="butt" stroke-miterlimit="4" stroke-linejoin="miter" fill="none" stroke="#66b2ff" d="M461 111H501V151H461Z"/>
<path transform="matrix(.7180762,0,0,.7180762,.3590381,.3590381)" d="M501 111H541V151H501Z" fill="#757575"/>
<path transform="matrix(.7180762,0,0,.7180762,.3590381,.3590381)" stroke-width="1" stroke-linecap="butt" stroke-miterlimit="4" stroke-linejoin="miter" fill="none" stroke="#66b2ff" d="M501 111H541V151H501Z"/>
<path transform="matrix(.7180762,0,0,.7180762,.3590381,.3590381)" d="M541 111H581V151H541Z" fill="#757575"/>
<path transform="matrix(.7180762,0,0,.7180762,.3590381,.3590381)" stroke-width="1" stroke-linecap="butt" stroke-miterlimit="4" stroke-linejoin="miter" fill="none" stroke="#66b2ff" d="M541 111H581V151H541Z"/>
<path transform="matrix(.7180762,0,0,.7180762,.3590381,.3590381)" stroke-width="1" stroke-linecap="butt" stroke-miterlimit="10" stroke-linejoin="miter" fill="none" stroke="#000000" d="M40.5 31C40.5 31 40.5 51.71 40.5 93.13"/>
<path transform="matrix(.7180762,0,0,.7180762,.3590381,.3590381)" d="M40.5 99.88 36 90.88 40.5 93.13 45 90.88 40.5 99.88Z"/>
<path transform="matrix(.7180762,0,0,.7180762,.3590381,.3590381)" stroke-width="1" stroke-linecap="butt" stroke-miterlimit="10" stroke-linejoin="miter" fill="none" stroke="#000000" d="M40.5 99.88 36 90.88 40.5 93.13 45 90.88 40.5 99.88Z"/>
<use data-text="i" xlink:href="#font_3_76" transform="matrix(11.48922,0,0,-11.48922,9.682809,15.797677)"/>
<use data-text="o" xlink:href="#font_3_82" transform="matrix(11.48922,0,0,-11.48922,12.233416,15.797677)"/>
<use data-text="s" xlink:href="#font_3_86" transform="matrix(11.48922,0,0,-11.48922,18.621424,15.797677)"/>
<use data-text=":" xlink:href="#font_3_29" transform="matrix(11.48922,0,0,-11.48922,24.366034,15.797677)"/>
<use data-text=":" xlink:href="#font_3_29" transform="matrix(11.48922,0,0,-11.48922,27.560038,15.797677)"/>
<use data-text="b" xlink:href="#font_3_69" transform="matrix(11.48922,0,0,-11.48922,30.754042,15.797677)"/>
<use data-text="e" xlink:href="#font_3_72" transform="matrix(11.48922,0,0,-11.48922,37.142049,15.797677)"/>
<use data-text="g" xlink:href="#font_3_74" transform="matrix(11.48922,0,0,-11.48922,43.530057,15.797677)"/>
<path transform="matrix(.7180762,0,0,.7180762,.3590381,.3590381)" stroke-width="1" stroke-linecap="butt" stroke-miterlimit="10" stroke-linejoin="miter" fill="none" stroke="#000000" d="M560.5 31C560.5 31 560.5 51.71 560.5 93.13"/>
<path transform="matrix(.7180762,0,0,.7180762,.3590381,.3590381)" d="M560.5 99.88 556 90.88 560.5 93.13 565 90.88 560.5 99.88Z"/>
<path transform="matrix(.7180762,0,0,.7180762,.3590381,.3590381)" stroke-width="1" stroke-linecap="butt" stroke-miterlimit="10" stroke-linejoin="miter" fill="none" stroke="#000000" d="M560.5 99.88 556 90.88 560.5 93.13 565 90.88 560.5 99.88Z"/>
<use data-text="i" xlink:href="#font_3_76" transform="matrix(11.48922,0,0,-11.48922,383.08247,15.797677)"/>
<use data-text="o" xlink:href="#font_3_82" transform="matrix(11.48922,0,0,-11.48922,385.63307,15.797677)"/>
<use data-text="s" xlink:href="#font_3_86" transform="matrix(11.48922,0,0,-11.48922,392.02107,15.797677)"/>
<use data-text=":" xlink:href="#font_3_29" transform="matrix(11.48922,0,0,-11.48922,397.76567,15.797677)"/>
<use data-text=":" xlink:href="#font_3_29" transform="matrix(11.48922,0,0,-11.48922,400.9597,15.797677)"/>
<use data-text="e" xlink:href="#font_3_72" transform="matrix(11.48922,0,0,-11.48922,404.1537,15.797677)"/>
<use data-text="n" xlink:href="#font_3_81" transform="matrix(11.48922,0,0,-11.48922,410.5417,15.797677)"/>
<use data-text="d" xlink:href="#font_3_71" transform="matrix(11.48922,0,0,-11.48922,416.9297,15.797677)"/>
<path transform="matrix(.7180762,0,0,.7180762,.3590381,.3590381)" stroke-width="1" stroke-linecap="butt" stroke-miterlimit="10" stroke-linejoin="miter" fill="none" stroke="#000000" d="M280.5 31C280.5 31 280.5 51.71 280.5 93.13"/>
<path transform="matrix(.7180762,0,0,.7180762,.3590381,.3590381)" d="M280.5 99.88 276 90.88 280.5 93.13 285 90.88 280.5 99.88Z"/>
<path transform="matrix(.7180762,0,0,.7180762,.3590381,.3590381)" stroke-width="1" stroke-linecap="butt" stroke-miterlimit="10" stroke-linejoin="miter" fill="none" stroke="#000000" d="M280.5 99.88 276 90.88 280.5 93.13 285 90.88 280.5 99.88Z"/>
<use data-text="i" xlink:href="#font_3_76" transform="matrix(11.48922,0,0,-11.48922,183.62555,15.797677)"/>
<use data-text="o" xlink:href="#font_3_82" transform="matrix(11.48922,0,0,-11.48922,186.17617,15.797677)"/>
<use data-text="s" xlink:href="#font_3_86" transform="matrix(11.48922,0,0,-11.48922,192.56417,15.797677)"/>
<use data-text=":" xlink:href="#font_3_29" transform="matrix(11.48922,0,0,-11.48922,198.30878,15.797677)"/>
<use data-text=":" xlink:href="#font_3_29" transform="matrix(11.48922,0,0,-11.48922,201.50278,15.797677)"/>
<use data-text="c" xlink:href="#font_3_70" transform="matrix(11.48922,0,0,-11.48922,204.69678,15.797677)"/>
<use data-text="u" xlink:href="#font_3_88" transform="matrix(11.48922,0,0,-11.48922,210.44139,15.797677)"/>
<use data-text="r" xlink:href="#font_3_85" transform="matrix(11.48922,0,0,-11.48922,216.82939,15.797677)"/>
</g>
</svg>
