<svg xmlns="http://www.w3.org/2000/svg" xmlns:xlink="http://www.w3.org/1999/xlink" xmlns:inkscape="http://www.inkscape.org/namespaces/inkscape" version="1.1" width="218.75" height="320.807" viewBox="0 0 218.75 320.807">
<path transform="matrix(1,0,0,-1,143.606,320.108)" stroke-width=".3985" stroke-linecap="butt" stroke-miterlimit="10" stroke-linejoin="miter" fill="none" stroke="#008000" d="M0 0V3.9851 7.97021 11.95532 15.94043 19.92554 23.91064 27.89575 31.88086 35.86597 39.85107 43.83618 47.82129 51.8064 55.7915 59.77661 63.76172L1.52493 67.44333 3.04988 71.12494 4.57481 74.80655 6.09976 78.48817 7.6247 82.16978 9.14964 85.8514 10.67458 89.53302 12.19952 93.21463 15.01712 96.03235 17.83472 98.85007 20.65231 101.66779 23.4699 104.4855 27.1511 106.0105 30.83228 107.5355 34.8166 107.53575M34.8166 107.53575 38.80049 107.53593 42.48088 109.0605M30.83228 107.5355 34.51305 109.06032M34.51305 109.06032 38.19344 110.58496 41.01013 113.40176M30.83228 107.5355 34.51305 109.06032 38.1938 110.58514 41.01079 113.40225 43.82779 116.21936 46.64478 119.03647M46.64478 119.03647 49.4614 121.85321 50.98567 125.53319M38.1938 110.58514 42.1777 110.58539M42.1777 110.58539 46.16116 110.58563 49.8412 112.11008M23.4699 104.4855 26.28719 107.30298 29.10448 110.12045 32.78531 111.64526M32.78531 111.64526 36.46577 113.16985 39.28252 115.98659M29.10448 110.12045 31.92154 112.93762M31.92154 112.93762 34.73828 115.75443 36.26266 119.43452M29.10448 110.12045 31.92154 112.93762 34.73859 115.75479 36.26303 119.4353 37.78749 123.11583 39.31195 126.79636M39.31195 126.79636 40.83621 130.4765 40.83615 134.45961M34.73859 115.75479 38.41904 117.27942M38.41904 117.27942 42.09908 118.80388 44.91551 121.62038M23.4699 104.4855 26.28719 107.30298 29.10448 110.12045 31.92177 112.93793 34.73906 115.7554 36.26364 119.43634 37.78822 123.1173 39.31279 126.79823 40.83737 130.47919 42.36195 134.16013 43.88652 137.84108 46.70345 140.65825M46.70345 140.65825 49.52013 143.47512 51.0444 147.15526M43.88652 137.84108 45.41092 141.52153M45.41092 141.52153 46.93507 145.20163 46.93495 149.18466M43.88652 137.84108 45.41092 141.52153 46.9353 145.202 46.93524 149.1854 46.9352 153.16881 46.93513 157.1522M46.93513 157.1522 46.93507 161.13526 45.41098 164.81491M46.9353 145.202 49.75188 148.01886M49.75188 148.01886 52.56813 150.83542 54.0921 154.51509M34.73906 115.7554 38.41989 117.28021 42.10072 118.80504 46.08467 118.80522M46.08467 118.80522 50.06819 118.8054 53.74823 120.32985M42.10072 118.80504 45.78117 120.3296M45.78117 120.3296 49.46127 121.854 52.27783 124.67044M42.10072 118.80504 45.78117 120.3296 49.46164 121.85419 52.27838 124.67093 55.09512 127.48767 57.91187 130.30442M57.91187 130.30442 60.72836 133.12087 62.25264 136.80052M49.46164 121.85419 53.44516 121.85431M53.44516 121.85431 57.42827 121.85437 61.10799 123.37852M12.19952 93.21463 13.72433 96.89589 15.24916 100.57713 16.77397 104.25838 18.2988 107.93964 21.11609 110.75705 23.93338 113.57446 27.61414 115.09921M27.61414 115.09921 31.29454 116.6238 34.11122 119.44054M23.93338 113.57446 26.75037 116.39151M26.75037 116.39151 29.56705 119.20819 31.09138 122.88817M23.93338 113.57446 26.75037 116.39151 29.56735 119.20856 31.09181 122.88896 32.61626 126.56935 34.14072 130.24976M34.14072 130.24976 35.665 133.92974V137.9127M29.56735 119.20856 33.2477 120.73308M33.2477 120.73308 36.92766 122.25728 39.74417 125.07355M18.2988 107.93964 19.82344 111.62051 21.34807 115.3014 24.16505 118.11858M24.16505 118.11858 26.98174 120.93538 28.50607 124.61548M21.34807 115.3014 22.87247 118.98192M22.87247 118.98192 24.39667 122.66208 24.3966 126.64513M21.34807 115.3014 22.87247 118.98192 24.39685 122.66245 24.39673 126.6459 24.3966 130.62938 24.3965 134.61284M24.3965 134.61284 24.39644 138.59589 22.87234 142.27556M24.39685 122.66245 27.21349 125.47937M27.21349 125.47937 30.0298 128.29599 31.55383 131.97573M18.2988 107.93964 19.82344 111.62051 21.34807 115.3014 22.87271 118.98228 24.39734 122.66318V126.64713 130.63108 134.61504 138.59899 142.58293 146.5669L25.9218 150.2474M25.9218 150.2474 27.44608 153.92757 27.44601 157.91066M24.39734 146.5669 24.39728 150.55042M24.39728 150.55042V154.53351L22.87314 158.21324M24.39734 146.5669 24.39728 150.55042 24.39722 154.53394 22.8729 158.21404 21.34856 161.89414 19.82422 165.57422M19.82422 165.57422 18.30008 169.25395 15.48393 172.0702M24.39722 154.53394 25.92155 158.21404M25.92155 158.21404 27.44565 161.89377 27.44559 165.87638M24.39734 122.66318 27.21432 125.48035 30.03131 128.29752 33.71172 129.82216M33.71172 129.82216 37.39175 131.34654 40.20825 134.16298M30.03131 128.29752 32.848 131.11432M32.848 131.11432 35.66438 133.93076 37.18854 137.61037M30.03131 128.29752 32.848 131.11432 35.66469 133.93112 37.18901 137.61122 38.71335 141.29132 40.23769 144.9714M40.23769 144.9714 41.76178 148.65114 41.76172 152.63376M35.66469 133.93112 39.34467 135.45558M39.34467 135.45558 43.02426 136.9798 45.84041 139.79593M12.19952 93.21463 13.72433 96.89589 15.24916 100.57713 16.77397 104.25838 18.2988 107.93964 19.82361 111.62088 21.34843 115.30214 22.87326 118.98338 24.39807 122.66463 24.39813 126.64896 24.3982 130.63327 24.39825 134.61759 24.39832 138.6019 24.39838 142.58621 24.39844 146.57054 24.3985 150.55486 24.39856 154.53917 24.39862 158.52349 24.39868 162.5078 24.39874 166.49213 24.3988 170.47644 25.92345 174.15726 27.44807 177.83809 30.26506 180.6552M30.26506 180.6552 33.08168 183.47194 34.60596 187.15192M27.44807 177.83809 28.97253 181.51854M28.97253 181.51854 30.4968 185.19858 30.49673 189.18163M27.44807 177.83809 28.97253 181.51854 30.49698 185.199V189.18247 193.16594 197.1494M30.49698 197.1494 30.49692 201.1325 28.97278 204.81224M30.49698 185.199 33.31361 188.01581M33.31361 188.01581 36.12993 190.8323 37.65396 194.51192M24.3988 170.47644V174.46033 178.44422L25.92326 182.12468M25.92326 182.12468 27.44753 185.80472 27.44746 189.78775M24.3988 178.44422V182.42769M24.3988 182.42769 24.39874 186.41078 22.87459 190.09052M24.3988 178.44422V182.42769 186.41115L22.87453 190.09125 21.35027 193.77135 19.82599 197.45143M19.82599 197.45143 18.30183 201.13117 15.4857 203.94742M24.3988 186.41115 25.92308 190.09125M25.92308 190.09125 27.4471 193.77092 27.44704 197.75347M24.3988 170.47644V174.46033 178.44422 182.42812 186.412L22.87434 190.09247 21.3499 193.77292 19.82544 197.45339 18.30098 201.13384 16.77654 204.8143 15.25208 208.49477V212.47823M15.25208 212.47823 15.25201 216.46134 13.72786 220.14105M15.25208 208.49477 13.7278 212.17485M13.7278 212.17485 12.20366 215.85459 9.38751 218.67084M15.25208 208.49477 13.7278 212.17485 12.20354 215.85495 9.3872 218.67151 6.57089 221.48807 3.75458 224.30464M3.75458 224.30464 .93863 227.1209-2.74048 228.64511M12.20354 215.85495 12.2036 219.83806M12.2036 219.83806V223.82073L10.67963 227.50009M24.3988 186.412 25.92326 190.09247 27.44771 193.77292 30.26433 196.58972M30.26433 196.58972 33.08066 199.40624 34.60468 203.08583M27.44771 193.77292 28.97198 197.45296M28.97198 197.45296 30.49602 201.13257 30.49596 205.11505M27.44771 193.77292 28.97198 197.45296 30.49626 201.133 30.4962 205.11603 30.49614 209.09908 30.49608 213.0821M30.49608 213.0821V217.06467L28.97217 220.74391M30.49626 201.133 33.31258 203.9495M33.31258 203.9495 36.12859 206.76569 37.6525 210.44487M24.39807 122.66463 27.21536 125.48204 30.03265 128.29946 32.84995 131.11687 35.66724 133.93428 39.348 135.45905 43.02876 136.98381 47.01266 136.98398M47.01266 136.98398 50.99612 136.98416 54.67616 138.50856M43.02876 136.98381 46.70917 138.50838M46.70917 138.50838 50.38927 140.03272 53.20583 142.84909M43.02876 136.98381 46.70917 138.50838 50.38956 140.03296 53.20625 142.8497 56.02293 145.66645 58.83961 148.48319M58.83961 148.48319 61.65605 151.29956 63.18027 154.97911M50.38956 140.03296 54.37303 140.03308M54.37303 140.03308 58.35606 140.03314 62.03574 141.55722M35.66724 133.93428 38.48422 136.75133 41.30121 139.56839 44.98155 141.0929M44.98155 141.0929 48.66153 142.61711 51.47803 145.43337M41.30121 139.56839 44.1179 142.38507M44.1179 142.38507 46.93434 145.20139 48.4586 148.88088M41.30121 139.56839 44.1179 142.38507 46.93459 145.20175 48.45891 148.88173 49.98325 152.56169 51.50758 156.24167M51.50758 156.24167 53.03166 159.92122V163.90366M46.93459 145.20175 50.61455 146.72609M50.61455 146.72609 54.29416 148.25017 57.11035 151.0662M35.66724 133.93428 38.48422 136.75133 41.30121 139.56839 44.1182 142.38544 46.9352 145.20249 48.45964 148.88288 49.9841 152.56328 51.50854 156.24369 53.033 159.92407 54.55746 163.60448 56.08191 167.28487 58.89854 170.10163M58.89854 170.10163 61.71486 172.91806 63.23895 176.59761M56.08191 167.28487 57.60619 170.96485M57.60619 170.96485 59.13022 174.6444 59.13016 178.62683M56.08191 167.28487 57.60619 170.96485 59.13046 174.64482V178.62779 182.61078 186.59375M59.13046 186.59375V190.57625L57.60655 194.25543M59.13046 174.64482 61.94672 177.46126M61.94672 177.46126 64.7626 180.27733 66.28645 183.95645M46.9352 145.20249 50.61552 146.72699 54.29587 148.25151 58.2792 148.25157M58.2792 148.25157H62.26213L65.94168 149.77567M54.29587 148.25151 57.97585 149.77573M57.97585 149.77573 61.65538 151.2998 64.47153 154.11583M54.29587 148.25151 57.97585 149.77573 61.6558 151.29993 64.4723 154.1162 67.28882 156.93245 70.10532 159.7487M70.10532 159.7487 72.92151 162.5646 74.44566 166.24365M61.6558 151.29993H65.63873M65.63873 151.29993H69.62115L73.30028 152.82384M0 63.76172V67.74646 71.7312 75.71594 79.70068 83.68542 87.67017 91.6549 95.63965L1.52475 99.3209 3.04951 103.00215 4.57426 106.6834 6.09903 110.36465 8.91626 113.18207 11.73349 115.99948 15.41418 117.52429M15.41418 117.52429 19.09453 119.04887 21.91115 121.86562M11.73349 115.99948 14.55042 118.81659M14.55042 118.81659 17.36703 121.63339 18.89131 125.31343M11.73349 115.99948 14.55042 118.81659 17.36734 121.6337 18.8918 125.3141 20.41624 128.99449 21.9407 132.6749M21.9407 132.6749 23.46498 136.35488V140.33785M17.36734 121.6337 21.04768 123.15834M21.04768 123.15834 24.72765 124.68272 27.5441 127.4991M6.09903 110.36465 7.6236 114.04547 9.14818 117.7263 11.9651 120.54341M11.9651 120.54341 14.78172 123.36021 16.306 127.04025M9.14818 117.7263 10.67264 121.40671M10.67264 121.40671 12.1969 125.08667V129.06966M9.14818 117.7263 10.67264 121.40671 12.19708 125.0871V129.07051 133.05391 137.03731M12.19708 137.03731 12.19702 141.02036 10.67294 144.70003M12.19708 125.0871 15.0137 127.90384M15.0137 127.90384 17.83003 130.72029 19.35411 134.39983M6.09903 110.36465 7.6236 114.04547 9.14818 117.7263 10.67276 121.40712 12.19733 125.08795 12.19727 129.07184 12.1972 133.05574 12.19714 137.03963 12.19708 141.02352 12.19702 145.0074 12.19696 148.9913 13.72142 152.67176M13.72142 152.67176 15.2457 156.35179 15.24564 160.33484M12.19696 148.9913V152.97476M12.19696 152.97476 12.1969 156.95787 10.67276 160.63759M12.19696 148.9913V152.97476 156.95824L10.6727 160.63832 9.14842 164.31842 7.62415 167.99852M7.62415 167.99852 6.1 171.67824 3.28386 174.4945M12.19696 156.95824 13.72124 160.63832M13.72124 160.63832 15.24527 164.318 15.24521 168.30055M12.19733 125.08795 15.01425 127.90506 17.83118 130.72217 21.51152 132.24681M21.51152 132.24681 25.1915 133.7712 28.00793 136.58759M17.83118 130.72217 20.64781 133.53897M20.64781 133.53897 23.46413 136.35547 24.98816 140.03508M17.83118 130.72217 20.64781 133.53897 23.46443 136.35578 24.9887 140.03582 26.51297 143.71585 28.03725 147.39589M28.03725 147.39589 29.56128 151.07549 29.56122 155.05799M23.46443 136.35578 27.14435 137.8803M27.14435 137.8803 30.82388 139.40457 33.63991 142.2207M0 95.63965V99.62396 103.60829 107.5926 111.57692L1.52463 115.25775 3.04927 118.93857 5.86626 121.75568M5.86626 121.75568 8.68288 124.57242 10.20715 128.2524M3.04927 118.93857 4.57372 122.61903M4.57372 122.61903 6.09799 126.29906 6.09793 130.2821M3.04927 118.93857 4.57372 122.61903 6.09818 126.29948V130.28296 134.26642 138.24988M6.09818 138.24988 6.09811 142.23299 4.57396 145.91272M6.09818 126.29948 8.9148 129.11629M8.9148 129.11629 11.73111 131.9328 13.25514 135.6124M0 111.57692V115.5608 119.54471L1.52444 123.22516M1.52444 123.22516 3.04872 126.9052 3.04866 130.88823M0 119.54471V123.52817M0 123.52817-.00005 127.51126-1.5242 131.191M0 119.54471V123.52817 127.51163L-1.52426 131.19173-3.04854 134.87183-4.57281 138.55191M-4.57281 138.55191-6.09695 142.23165-8.9131 145.04792M0 127.51163 1.52426 131.19173M1.52426 131.19173 3.0483 134.8714 3.04823 138.85396M0 111.57692V115.5608 119.54471 123.5286 127.51248L-1.52444 131.19295-3.0489 134.8734-4.57335 138.55387-6.09781 142.23433-7.62227 145.91478-9.14671 149.59525V153.5787M-9.14671 153.5787-9.14677 157.56182-10.67093 161.24155M-9.14671 149.59525-10.67099 153.27535M-10.67099 153.27535-12.19514 156.95507-15.01128 159.77133M-9.14671 149.59525-10.67099 153.27535-12.19527 156.95543-15.01158 159.77199-17.8279 162.58856-20.64421 165.40512M-20.64421 165.40512-23.46017 168.22138-27.1393 169.74559M-12.19527 156.95543-12.1952 160.93854M-12.1952 160.93854V164.9212L-13.71918 168.60057M0 127.51248 1.52444 131.19295 3.0489 134.8734 5.86552 137.69022M5.86552 137.69022 8.68184 140.50672 10.20587 144.18633M3.0489 134.8734 4.57317 138.55344M4.57317 138.55344 6.0972 142.23305 6.09714 146.21555M3.0489 134.8734 4.57317 138.55344 6.09744 142.23348 6.09738 146.2165 6.09732 150.19956 6.09726 154.18259M6.09726 154.18259V158.16515L4.57335 161.84439M6.09744 142.23348 8.91376 145.04998M8.91376 145.04998 11.72978 147.86617 13.2537 151.54535M0 95.63965V99.62396 103.60829 107.5926 111.57692 115.56123 119.54555 123.52988 127.51419L-1.52463 131.195-3.04927 134.87584-4.5739 138.55666-6.09854 142.23749-7.62317 145.9183-9.14781 149.59914-10.67245 153.27996-12.19708 156.96079-13.72173 160.6416-15.24635 164.32244-16.771 168.00327-18.29564 171.68408V175.66797 179.65187L-16.77118 183.33232M-16.77118 183.33232-15.2469 187.01236-15.24696 190.99539M-18.29564 179.65187V183.63533M-18.29564 183.63533-18.2957 187.61844-19.81984 191.29816M-18.29564 179.65187V183.63533 187.61879L-19.8199 191.29889-21.34418 194.97899-22.86845 198.65909M-22.86845 198.65909-24.3926 202.3388-27.20874 205.15508M-18.29564 187.61879-16.77136 191.29889M-16.77136 191.29889-15.24733 194.97856-15.24739 198.96112M-18.29564 171.68408-19.82008 175.36455-21.34454 179.045V183.02848M-21.34454 183.02848-21.3446 187.01157-22.86876 190.6913M-21.34454 179.045-22.86882 182.7251M-22.86882 182.7251-24.39296 186.40483-27.2091 189.22109M-21.34454 179.045-22.86882 182.7251-24.39308 186.4052-27.20941 189.22176-30.02573 192.03832-32.84204 194.85488M-32.84204 194.85488-35.65799 197.67113-39.33711 199.19535M-24.39308 186.4052-24.39302 190.38829M-24.39302 190.38829V194.37097L-25.91699 198.05034M-18.29564 171.68408-19.82008 175.36455-21.34454 179.045-22.869 182.72547-24.39345 186.40592-27.21007 189.22274-30.0267 192.03954-32.84332 194.85634-35.65994 197.67314-38.47656 200.48995-41.29318 203.30675-42.81746 206.98679M-42.81746 206.98679-44.34155 210.66646-47.15756 213.48271M-41.29318 203.30675-44.10951 206.12325M-44.10951 206.12325-46.92546 208.93946-50.60458 210.4636M-41.29318 203.30675-44.10951 206.12325-46.92583 208.93976-50.60538 210.46408-54.28491 211.98842-57.96446 213.51276M-57.96446 213.51276-61.64365 215.0369-65.62584 215.03714M-46.92583 208.93976-48.44986 212.61936M-48.44986 212.61936-49.97375 216.29854-52.78941 219.11444M-24.39345 186.40592V190.38939 194.37285L-22.86919 198.05295M-22.86919 198.05295-21.34515 201.73262-21.34521 205.71517M-24.39345 194.37285-24.39351 198.35596M-24.39351 198.35596V202.33863L-25.91748 206.01799M-24.39345 194.37285-24.39351 198.35596-24.39357 202.33905-25.91772 206.01879-27.44188 209.69852-28.96602 213.37825M-28.96602 213.37825-30.48999 217.05762-33.30577 219.87357M-24.39357 202.33905-22.86943 206.01879M-22.86943 206.01879-21.3454 209.69809-21.34534 213.68029M0 127.51419 1.52463 131.195 3.04927 134.87584 4.5739 138.55666 6.09854 142.23749 8.91553 145.0546 11.73251 147.8717 15.41286 149.39629M15.41286 149.39629 19.09288 150.92061 21.9094 153.73699M11.73251 147.8717 14.54913 150.68845M14.54913 150.68845 17.36545 153.50489 18.88954 157.18444M11.73251 147.8717 14.54913 150.68845 17.36575 153.50519 18.89003 157.18517 20.4143 160.86515 21.93857 164.5451M21.93857 164.5451 23.4626 168.22466 23.46254 172.20709M17.36575 153.50519 21.04567 155.02965M21.04567 155.02965 24.72522 156.55387 27.54129 159.37M6.09854 142.23749 7.623 145.91794 9.14745 149.5984 11.96407 152.4152M11.96407 152.4152 14.7804 155.2317 16.30441 158.91132M9.14745 149.5984 10.67172 153.27845M10.67172 153.27845 12.19576 156.95806 12.1957 160.94054M9.14745 149.5984 10.67172 153.27845 12.196 156.95848 12.19594 160.94152 12.19588 164.92456 12.19582 168.9076M12.19582 168.9076V172.89015L10.6719 176.5694M12.196 156.95848 15.01231 159.77498M15.01231 159.77498 17.82832 162.59117 19.35223 166.27036M6.09854 142.23749 7.623 145.91794 9.14745 149.5984 10.6719 153.27887 12.19635 156.95932V160.9428 164.92626 168.90973 172.89319 176.87665 180.86013L13.72063 184.5402M13.72063 184.5402 15.24466 188.21988 15.2446 192.20244M12.19635 180.86013 12.19629 184.84322M12.19629 184.84322V188.8259L10.67233 192.50527M12.19635 180.86013 12.19629 184.84322 12.19623 188.82633 10.67209 192.50605 9.14793 196.18578 7.62378 199.86551M7.62378 199.86551 6.09982 203.54488 3.28404 206.36083M12.19623 188.82633 13.72038 192.50605M13.72038 192.50605 15.24442 196.18535 15.24448 200.16754M12.19635 156.95932 15.01299 159.77613 17.8296 162.59294 21.50952 164.11745M21.50952 164.11745 25.18906 165.64173 28.00508 168.45786M17.8296 162.59294 20.64592 165.40944M20.64592 165.40944 23.46193 168.22563 24.98584 171.90482M17.8296 162.59294 20.64592 165.40944 23.46223 168.22594 24.98627 171.90555 26.5103 175.58516 28.03433 179.26476M28.03433 179.26476 29.55817 182.94394 29.5581 186.92601M23.46223 168.22594 27.14178 169.75028M27.14178 169.75028 30.82097 171.27429 33.6368 174.09008M0 63.76172V67.74646 71.7312 75.71594 79.70068 83.68542 87.67017 91.6549 95.63965 99.62439 103.60913 107.59387 111.57863 115.56337 119.54811 123.53285 127.5176L-1.52475 131.19884-3.04951 134.8801-4.57426 138.56134-6.09903 142.2426-7.62378 145.92385-9.14854 149.60509-10.6733 153.28635-12.19806 156.96759-13.72282 160.64885-15.24757 164.3301-16.77234 168.01136-18.29709 171.6926-19.82185 175.37384-21.3466 179.0551-22.87137 182.73635-24.39613 186.4176-25.92088 190.09885-27.44565 193.78009-28.9704 197.46135-30.49516 201.1426-32.01991 204.82386-33.54468 208.5051-35.06944 212.18636-36.5942 215.8676V219.85192 223.83623 227.82056 231.80487L-35.06956 235.48569-33.54492 239.16652-30.72794 241.98363M-30.72794 241.98363-27.91132 244.80037-26.38704 248.48035M-33.54492 239.16652-32.02046 242.84697M-32.02046 242.84697-30.4962 246.52701-30.49626 250.51006M-33.54492 239.16652-32.02046 242.84697-30.49602 246.52744V250.5109 254.49437 258.47785M-30.49602 258.47785-30.49608 262.46095-32.02022 266.14067M-30.49602 246.52744-27.67938 249.34424M-27.67938 249.34424-24.86307 252.16074-23.33904 255.84035M-36.5942 231.80487V235.78876 239.77265L-35.06975 243.45311M-35.06975 243.45311-33.54547 247.13315-33.54553 251.11618M-36.5942 239.77265V243.75612M-36.5942 243.75612-36.59425 247.73921-38.11841 251.41895M-36.5942 239.77265V243.75612 247.73958L-38.11847 251.41968-39.64275 255.09978-41.167 258.77986M-41.167 258.77986-42.69116 262.4596-45.5073 265.27586M-36.5942 247.73958-35.06992 251.41968M-35.06992 251.41968-33.5459 255.09935-33.54596 259.0819M-36.5942 231.80487V235.78876 239.77265 243.75655 247.74044L-38.11865 251.4209-39.6431 255.10135-41.16756 258.7818-42.69202 262.46229-44.21646 266.14274-45.74092 269.8232V273.80668M-45.74092 273.80668-45.74098 277.78977-47.26514 281.46949M-45.74092 269.8232-47.2652 273.50328M-47.2652 273.50328-48.78934 277.183-51.60548 279.99928M-45.74092 269.8232-47.2652 273.50328-48.78946 277.18339-51.60579 279.99995-54.4221 282.8165-57.23842 285.63307M-57.23842 285.63307-60.05437 288.44935-63.73349 289.97355M-48.78946 277.18339-48.7894 281.16648M-48.7894 281.16648V285.14915L-50.31337 288.82853M-36.5942 247.74044-35.06975 251.4209-33.54529 255.10135-30.72867 257.91816M-30.72867 257.91816-27.91234 260.73466-26.38832 264.41426M-33.54529 255.10135-32.02101 258.7814M-32.02101 258.7814-30.49698 262.461-30.49704 266.44349M-33.54529 255.10135-32.02101 258.7814-30.49673 262.46144-30.4968 266.44447-30.49686 270.4275-30.49692 274.41056M-30.49692 274.41056V278.3931L-32.02083 282.07234M-30.49673 262.46144-27.68042 265.27793M-27.68042 265.27793-24.86441 268.09413-23.3405 271.7733M-36.5942 215.8676-38.11884 219.54842-39.64346 223.22925-41.1681 226.91008-42.69275 230.5909V234.57479 238.55869L-41.16829 242.23914M-41.16829 242.23914-39.64401 245.91918-39.64407 249.9022M-42.69275 238.55869V242.54215M-42.69275 242.54215-42.69281 246.52526-44.21695 250.20497M-42.69275 238.55869V242.54215 246.5256L-44.21701 250.2057-45.74129 253.8858-47.26556 257.5659M-47.26556 257.5659-48.7897 261.2456-51.60585 264.0619M-42.69275 246.5256-41.16847 250.2057M-41.16847 250.2057-39.64444 253.88538-39.6445 257.86796M-42.69275 230.5909-44.2172 234.27136-45.74165 237.95182V241.93529M-45.74165 241.93529-45.74171 245.91838-47.26587 249.59812M-45.74165 237.95182-47.26593 241.63191M-47.26593 241.63191-48.79007 245.31165-51.60622 248.1279M-45.74165 237.95182-47.26593 241.63191-48.79019 245.31201-51.6065 248.12857-54.42284 250.94513-57.23915 253.76169M-57.23915 253.76169-60.0551 256.57798-63.73422 258.10218M-48.79019 245.31201-48.79013 249.2951M-48.79013 249.2951V253.27779L-50.3141 256.95716M-42.69275 230.5909-44.2172 234.27136-45.74165 237.95182-47.2661 241.63228-48.79056 245.31275-51.60718 248.12955-54.4238 250.94635-57.24043 253.76316-60.05705 256.57997-62.87367 259.39677-65.69029 262.21357-67.21457 265.8936M-67.21457 265.8936-68.73866 269.57328-71.55467 272.38954M-65.69029 262.21357-68.5066 265.03007M-68.5066 265.03007-71.32257 267.84629-75.0017 269.3704M-65.69029 262.21357-68.5066 265.03007-71.32294 267.84657-75.00249 269.3709-78.68202 270.89524-82.36157 272.41957M-82.36157 272.41957-86.04076 273.9437-90.02295 273.94395M-71.32294 267.84657-72.84695 271.52619M-72.84695 271.52619-74.37086 275.20536-77.18652 278.02128M-48.79056 245.31275V249.2962 253.27967L-47.26628 256.95976M-47.26628 256.95976-45.74226 260.63945-45.74232 264.62199M-48.79056 253.27967-48.79062 257.26277M-48.79062 257.26277V261.24546L-50.31459 264.9248M-48.79056 253.27967-48.79062 257.26277-48.79068 261.24586-50.31483 264.9256-51.83899 268.60533-53.36313 272.28507M-53.36313 272.28507-54.8871 275.96443-57.70287 278.78038M-48.79068 261.24586-47.26653 264.9256M-47.26653 264.9256-45.74251 268.6049-45.74245 272.5871M-36.5942 215.8676-38.11884 219.54842-39.64346 223.22925-41.1681 226.91008-42.69275 230.5909-44.21738 234.27173-45.74202 237.95255-47.26665 241.63338-48.79129 245.3142-51.60828 248.1313-54.42526 250.94841-57.24225 253.76552-60.05923 256.58265-62.87622 259.39973-65.6932 262.21684-68.51021 265.03398-71.3272 267.85108-74.14418 270.66819-76.96117 273.4853-79.77815 276.3024-82.59514 279.1195-84.1196 282.79997-85.64404 286.4804V290.46388M-85.64404 290.46388-85.6441 294.447-87.16826 298.1267M-85.64404 286.4804-87.16832 290.16053M-87.16832 290.16053-88.69247 293.84028-91.5086 296.65653M-85.64404 286.4804-87.16832 290.16053-88.6926 293.8406-91.50891 296.65718-94.32523 299.47377-97.14154 302.2903M-97.14154 302.2903-99.9575 305.10655-103.63663 306.63078M-88.6926 293.8406-88.69254 297.82374M-88.69254 297.82374V301.8064L-90.21649 305.48576M-82.59514 279.1195-85.41176 281.9363-88.22838 284.7531-89.75266 288.43315M-89.75266 288.43315-91.27675 292.11283-94.09276 294.92909M-88.22838 284.7531-91.04471 287.5696M-91.04471 287.5696-93.86066 290.38584-97.53978 291.90998M-88.22838 284.7531-91.04471 287.5696-93.86102 290.3861-97.54057 291.91047-101.22011 293.43479-104.89966 294.9591M-104.89966 294.9591-108.57884 296.48326-112.56104 296.4835M-93.86102 290.3861-95.38506 294.06575M-95.38506 294.06575-96.90895 297.7449-99.72461 300.5608M-82.59514 279.1195-85.41176 281.9363-88.22838 284.7531-91.045 287.56993-93.86163 290.38673-97.54153 291.91127-101.22145 293.43577-104.90137 294.96028-108.58128 296.4848-112.26118 298.0093-115.9411 299.5338-118.75742 302.3503M-118.75742 302.3503-121.57338 305.16654-125.2525 306.69068M-115.9411 299.5338-119.62065 301.05815M-119.62065 301.05815-123.29984 302.5823-127.28203 302.58253M-115.9411 299.5338-119.62065 301.05815-123.3002 302.58247-127.28275 302.58268-131.2653 302.58287-135.24787 302.583M-135.24787 302.583-139.22998 302.58317-142.9088 301.05943M-123.3002 302.58247-126.11621 305.39869M-126.11621 305.39869-128.93187 308.21458-132.61057 309.7386M-93.86163 290.38673-95.3859 294.06678-96.91017 297.7468-96.91011 301.72984M-96.91011 301.72984V305.7124L-98.43402 309.39164M-96.91017 297.7468-98.43427 301.42649M-98.43427 301.42649-99.95818 305.1057-102.77388 307.92167M-96.91017 297.7468-98.43427 301.42649-99.95836 305.1061-102.77437 307.9224-105.59038 310.73866-108.40639 313.5549M-108.40639 313.5549-111.2221 316.37086-114.90086 317.89488M-99.95836 305.1061V309.08869M-99.95836 309.08869-99.9584 313.07084-101.4822 316.74964M-48.79129 245.3142V249.29808 253.28199 257.26588 261.24977L-47.26683 264.9302-45.74239 268.6107-42.92575 271.4275M-42.92575 271.4275-40.10944 274.244-38.5854 277.9236M-45.74239 268.6107-44.21811 272.2907M-44.21811 272.2907-42.69408 275.9703-42.69414 279.95283M-45.74239 268.6107-44.21811 272.2907-42.69383 275.97077-42.6939 279.9538-42.69395 283.93684-42.69402 287.9199M-42.69402 287.9199V291.9024L-44.21793 295.58168M-42.69383 275.97077-39.87752 278.78727M-39.87752 278.78727-37.06151 281.60346-35.5376 285.28263M-48.79129 261.24977V265.23323 269.21669L-47.26701 272.8968M-47.26701 272.8968-45.74298 276.57646-45.74304 280.559M-48.79129 269.21669-48.79135 273.1998M-48.79135 273.1998V277.18247L-50.31532 280.86183M-48.79129 269.21669-48.79135 273.1998-48.79141 277.1829-50.31557 280.86265-51.8397 284.54237-53.36386 288.22209M-53.36386 288.22209-54.88783 291.90144-57.7036 294.7174M-48.79141 277.1829-47.26726 280.86265M-47.26726 280.86265-45.74323 284.54194-45.74316 288.5241M-48.79129 261.24977V265.23323 269.21669 273.20018 277.18363L-50.31557 280.8637-51.83983 284.54383-53.3641 288.2239-54.88838 291.904-56.41264 295.58409-57.93692 299.2642-57.93686 303.2473M-57.93686 303.2473V307.22999L-59.46083 310.90934M-57.93692 299.2642-59.46107 302.9439M-59.46107 302.9439-60.98505 306.6233-63.80081 309.43925M-57.93692 299.2642-59.46107 302.9439-60.98521 306.62367-63.80136 309.4399-66.6175 312.25617-69.43362 315.07243M-69.43362 315.07243-72.24947 317.8883-75.92834 319.4123M-60.98521 306.62367V310.60633M-60.98521 310.60633V314.5886L-62.50906 318.26753M-48.79129 277.18363-47.26701 280.8637-45.74275 284.54383-42.92642 287.36039M-42.92642 287.36039-40.11041 290.17665-38.5865 293.85588M-45.74275 284.54383-44.21872 288.22349M-44.21872 288.22349-42.69487 291.90275-42.69499 295.88487M-45.74275 284.54383-44.21872 288.22349-42.69469 291.90315-42.69475 295.8857-42.69481 299.86827-42.69487 303.8508M-42.69487 303.8508-42.69493 307.83296-44.21872 311.51176M-42.69469 291.90315-39.87874 294.7194M-39.87874 294.7194-37.06302 297.53538-35.5393 301.21434M0 127.5176 1.52475 131.19884 3.04951 134.8801 4.57426 138.56134 6.09903 142.2426 7.62378 145.92385 9.14854 149.60509 10.6733 153.28635 12.19806 156.96759 15.01529 159.785 17.83252 162.60242 20.64975 165.41983 23.46698 168.23725 27.14769 169.76207 30.82838 171.28688 34.81223 171.28713M34.81223 171.28713 38.79556 171.28731 42.47548 172.81165M30.82838 171.28688 34.50873 172.81147M34.50873 172.81147 38.18877 174.3358 41.00526 177.15218M30.82838 171.28688 34.50873 172.81147 38.18907 174.33605 41.00569 177.15279 43.82231 179.96953 46.63893 182.78627M46.63893 182.78627 49.45525 185.6027 50.97934 189.28226M38.18907 174.33605 42.17247 174.33617M42.17247 174.33617 46.15544 174.33621 49.83505 175.8603M23.46698 168.23725 26.2839 171.05435 29.10083 173.87146 32.78117 175.3961M32.78117 175.3961 36.46115 176.9205 39.27759 179.73688M29.10083 173.87146 31.91747 176.68827M31.91747 176.68827 34.73378 179.50478 36.25781 183.18437M29.10083 173.87146 31.91747 176.68827 34.73409 179.50508 36.25835 183.1851 37.78262 186.86515 39.3069 190.54518M39.3069 190.54518 40.83093 194.2248 40.83087 198.20728M34.73409 179.50508 38.41399 181.02959M38.41399 181.02959 42.09354 182.55387 44.90956 185.37M23.46698 168.23725 26.2839 171.05435 29.10083 173.87146 31.91776 176.68857 34.7347 179.50568 36.25914 183.18608 37.7836 186.86649 39.30804 190.54688 40.8325 194.22728 42.35696 197.90769 43.88141 201.58808 46.69804 204.40482M46.69804 204.40482 49.51436 207.22127 51.03845 210.9008M43.88141 201.58808 45.40569 205.26805M45.40569 205.26805 46.92972 208.9476 46.92966 212.93003M43.88141 201.58808 45.40569 205.26805 46.92996 208.94803V212.931 216.91399 220.89696M46.92996 220.89696V224.87946L45.40605 228.55864M46.92996 208.94803 49.74622 211.76447M49.74622 211.76447 52.5621 214.58054 54.08595 218.25966M34.7347 179.50568 38.41502 181.03032 42.09537 182.55496 46.07877 182.55515M46.07877 182.55515 50.06181 182.55527 53.74149 184.0794M42.09537 182.55496 45.77534 184.07935M45.77534 184.07935 49.45494 185.6035 52.27109 188.41957M42.09537 182.55496 45.77534 184.07935 49.4553 185.60375 52.27176 188.42012 55.0882 191.2365 57.90463 194.05289M57.90463 194.05289 60.72076 196.86896 62.24486 200.54814M49.4553 185.60375 53.4383 185.60387M53.4383 185.60387 57.42078 185.60393 61.09996 187.12784M12.19806 156.96759 13.72264 160.64842 15.24721 164.32924 16.77179 168.01007 18.29637 171.69089 21.1133 174.508 23.93022 177.3251 27.61055 178.84975M27.61055 178.84975 31.29053 180.37415 34.10696 183.19052M23.93022 177.3251 26.74684 180.14192M26.74684 180.14192 29.56316 182.95842 31.08719 186.63803M23.93022 177.3251 26.74684 180.14192 29.56346 182.95873 31.08774 186.63875 32.612 190.31879 34.13628 193.99883M34.13628 193.99883 35.66031 197.67844 35.66025 201.66092M29.56346 182.95873 33.24338 184.48323M33.24338 184.48323 36.92293 186.0075 39.73894 188.82364M18.29637 171.69089 19.82082 175.37129 21.34528 179.0517 24.1619 181.86844M24.1619 181.86844 26.97821 184.68488 28.5023 188.36443M21.34528 179.0517 22.86954 182.73166M22.86954 182.73166 24.39357 186.41121 24.39351 190.39365M21.34528 179.0517 22.86954 182.73166 24.39381 186.41164V190.39463 194.3776 198.36058M24.39381 198.36058V202.34307L22.8699 206.02225M24.39381 186.41164 27.21007 189.22808M27.21007 189.22808 30.02597 192.04416 31.54982 195.72328M18.29637 171.69089 19.82082 175.37129 21.34528 179.0517 22.86972 182.73209 24.39418 186.41249V190.39589 194.3793 198.3627 202.34612 206.32952 210.31291L25.91846 213.99295M25.91846 213.99295 27.44249 217.67256 27.44243 221.65506M24.39418 210.31291 24.39412 214.29596M24.39412 214.29596V218.27852L22.87021 221.95775M24.39418 210.31291 24.39412 214.29596 24.39406 218.27899 22.86996 221.95867 21.34589 225.63834 19.8218 229.31801M19.8218 229.31801 18.29788 232.99726 15.48218 235.8132M24.39406 218.27899 25.91815 221.95867M25.91815 221.95867 27.44206 225.63791 27.442 229.62004M24.39418 186.41249 27.2108 189.22924 30.02742 192.04598 33.70734 193.57044M33.70734 193.57044 37.38689 195.09465 40.20296 197.91078M30.02742 192.04598 32.84375 194.86241M32.84375 194.86241 35.6597 197.6785 37.18361 201.35762M30.02742 192.04598 32.84375 194.86241 35.66006 197.67887 37.18416 201.3584 38.70824 205.03795 40.23233 208.7175M40.23233 208.7175 41.7563 212.39669 41.75636 216.37882M35.66006 197.67887 39.33955 199.20313M39.33955 199.20313 43.01868 200.72716 45.83444 203.54293M12.19806 156.96759 13.72264 160.64842 15.24721 164.32924 16.77179 168.01007 18.29637 171.69089 19.82094 175.37172 21.34552 179.05254 22.87009 182.73337 24.39467 186.41419 24.3946 190.39809 24.39455 194.38198 24.39449 198.36586 24.39442 202.34976 24.39436 206.33365 24.3943 210.31754 24.39424 214.30144 24.39418 218.28533 24.39412 222.26921 24.39406 226.2531 24.394 230.237 24.39394 234.22089 25.9184 237.90135 27.44284 241.5818 30.25948 244.3986M30.25948 244.3986 33.07579 247.21512 34.59982 250.89472M27.44284 241.5818 28.96712 245.26184M28.96712 245.26184 30.49115 248.94145 30.49109 252.92394M27.44284 241.5818 28.96712 245.26184 30.4914 248.94188 30.49133 252.92491 30.49127 256.90797 30.49121 260.891M30.49121 260.891V264.87355L28.9673 268.5528M30.4914 248.94188 33.30771 251.75838M33.30771 251.75838 36.12372 254.57457 37.64763 258.25376M24.39394 234.22089V238.20435 242.18782L25.91821 245.86792M25.91821 245.86792 27.44225 249.54758 27.44218 253.53014M24.39394 242.18782 24.39388 246.17092M24.39388 246.17092V250.1536L22.8699 253.83296M24.39394 242.18782 24.39388 246.17092 24.39381 250.15402 22.86966 253.83376 21.34552 257.51347 19.82137 261.1932M19.82137 261.1932 18.2974 264.87257 15.48163 267.6885M24.39381 250.15402 25.91797 253.83376M25.91797 253.83376 27.442 257.51307 27.44206 261.49525M24.39394 234.22089V238.20435 242.18782 246.17128 250.15476L22.86966 253.83484 21.3454 257.51496 19.82112 261.19505 18.29684 264.87513 16.77258 268.5552 15.2483 272.23533 15.24837 276.2184M15.24837 276.2184V280.2011L13.7244 283.88047M15.2483 272.23533 13.72415 275.91505M13.72415 275.91505 12.2002 279.59443 9.38441 282.41038M15.2483 272.23533 13.72415 275.91505 12.20001 279.59477 9.38387 282.41105 6.56773 285.2273 3.7516 288.04356M3.7516 288.04356 .93576 290.85945-2.7431 292.3834M12.20001 279.59477V283.57746M12.20001 283.57746V287.55973L10.67616 291.23866M24.39394 250.15476 25.91821 253.83484 27.44249 257.51496 30.2588 260.3315M30.2588 260.3315 33.07481 263.14775 34.59872 266.827M27.44249 257.51496 28.9665 261.1946M28.9665 261.1946 30.49036 264.87388 30.49023 268.85597M27.44249 257.51496 28.9665 261.1946 30.49054 264.87428 30.49048 268.85685 30.49042 272.8394 30.49036 276.82197M30.49036 276.82197 30.4903 280.80406 28.9665 284.48289M30.49054 264.87428 33.30649 267.69056M33.30649 267.69056 36.12221 270.50648 37.64594 274.18544M24.39467 186.41419 27.2116 189.23131 30.02852 192.04842 32.84544 194.86553 35.66237 197.68264 39.34271 199.20726 43.02306 200.7319 47.00645 200.73209M47.00645 200.73209 50.9895 200.73221 54.66916 202.25637M43.02306 200.7319 46.70302 202.2563M46.70302 202.2563 50.38263 203.78044 53.19876 206.59653M43.02306 200.7319 46.70302 202.2563 50.383 203.78069 53.19943 206.59706 56.01588 209.41345 58.83232 212.22983M58.83232 212.22983 61.64845 215.0459 63.17255 218.72509M50.383 203.78069 54.36598 203.7808M54.36598 203.7808 58.34846 203.78087 62.02765 205.30478M35.66237 197.68264 38.479 200.49944 41.29562 203.31624 44.97552 204.84076M44.97552 204.84076 48.65508 206.36502 51.4711 209.18117M41.29562 203.31624 44.11194 206.13274M44.11194 206.13274 46.92795 208.94893 48.45186 212.62812M41.29562 203.31624 44.11194 206.13274 46.92825 208.94924 48.45229 212.62885 49.97632 216.30846 51.50034 219.98807M51.50034 219.98807 53.02419 223.66725 53.02412 227.6493M46.92825 208.94924 50.6078 210.47357M50.6078 210.47357 54.28699 211.9976 57.10281 214.81337M35.66237 197.68264 38.479 200.49944 41.29562 203.31624 44.11224 206.13304 46.92886 208.94985 48.45314 212.62989 49.9774 216.30992 51.50168 219.98995 53.02596 223.66999 54.55023 227.35002 56.0745 231.03006 58.89081 233.84656M58.89081 233.84656 61.70683 236.66275 63.23074 240.34194M56.0745 231.03006 57.59853 234.70966M57.59853 234.70966 59.12238 238.38884 59.12231 242.37091M56.0745 231.03006 57.59853 234.70966 59.12256 238.38927 59.1225 242.37177 59.12244 246.35425 59.12238 250.33675M59.12238 250.33675V254.31882L57.59865 257.99757M59.12256 238.38927 61.9385 241.20546M61.9385 241.20546 64.75421 244.02136 66.27794 247.70024M46.92886 208.94985 50.60878 210.47437 54.2887 211.99887 58.27167 211.99912M58.27167 211.99912 62.25417 211.9993 65.93329 213.52333M54.2887 211.99887 57.96823 213.52315M57.96823 213.52315 61.64748 215.04712 64.46338 217.86289M54.2887 211.99887 57.96823 213.52315 61.64778 215.04743 64.4638 217.86356 67.27982 220.67969 70.09583 223.49584M70.09583 223.49584 72.91154 226.31172 74.43526 229.9906M61.64778 215.04743 65.63034 215.04755M65.63034 215.04755 69.61247 215.04767 73.29129 216.57152M69.61247 215.04767"/>
</svg>
