<svg xmlns="http://www.w3.org/2000/svg" xmlns:xlink="http://www.w3.org/1999/xlink" xmlns:inkscape="http://www.inkscape.org/namespaces/inkscape" version="1.1" width="141.435" height="223.517" viewBox="0 0 141.435 223.517">
<path transform="matrix(1,0,0,-1,96.357,222.818)" stroke-width=".3985" stroke-linecap="butt" stroke-miterlimit="10" stroke-linejoin="miter" fill="none" stroke="#008000" d="M0 0V3.9851 7.97021L-2.81758 10.78792-4.3424 14.46918-4.34247 18.45349M0 7.97021 1.52475 11.65146V15.63577L.0001 19.3166M0 7.97021V11.95496 15.9397L-2.81723 18.75711-4.3418 22.43793-4.34174 26.42181M0 15.9397 1.52463 19.62051V23.6044L.00017 27.28487M0 15.9397-2.81699 18.7568-5.63397 21.57391-9.61737 21.57404-13.29741 23.09836-16.1139 25.91475M-5.63397 21.57391-7.15823 25.25389-9.9745 28.07033-13.65392 29.59459M-5.63397 21.57391-7.15823 25.25389-8.68251 28.93385-12.36194 30.45813-15.17783 33.2742-16.70168 36.95332M-8.68251 28.93385-8.68245 32.91629-10.20636 36.59541-13.022 39.41124M-8.68251 28.93385-8.68245 32.91629-8.68239 36.89873-11.49803 39.71455-13.02176 43.39331-13.0217 47.3749M-8.68239 36.89873-7.15866 40.57742V44.55893L-8.6822 48.23721M0 15.9397 1.52444 19.62015 3.0489 23.30061 1.52463 26.98071 1.52469 30.9638 3.04884 34.64354M3.0489 23.30061 5.86522 26.11717 7.38925 29.79684 7.38919 33.7794M3.0489 23.30061 3.04884 27.2837 3.04878 31.26682 .23265 34.08307-1.29137 37.76237-1.29143 41.74457M3.04878 31.26682 4.57275 34.94618V38.92842L3.0489 42.60736M3.04878 31.26682 1.52481 34.94618 .00084 38.62555-3.67796 40.14957-6.49342 42.96523-8.01703 46.64374M.00084 38.62555 .0009 42.60736-1.52275 46.28595-4.33797 49.10129M0 15.9397V19.92358 23.90747L-2.81662 26.72427-4.34088 30.40431-4.34082 34.38736M0 23.90747 1.52426 27.58757 1.5242 31.57066 .00005 35.2504M0 23.90747V27.89095 31.8744L-2.81631 34.69096-4.34033 38.37064-4.34029 42.3532M0 31.8744 1.52414 35.55414V39.5368L.00017 43.21617M0 31.8744-2.81613 34.69066-5.63226 37.50693-9.61452 37.50711-13.2934 39.03107-16.10892 41.84666M-5.63226 37.50693-7.15611 41.18587-9.97163 44.00151-13.65009 45.52536M-5.63226 37.50693-7.15611 41.18587-8.67996 44.8648-12.35841 46.38864-15.17363 49.204-16.69717 52.8822M-8.67996 44.8648V48.84615L-10.20345 52.52423-13.01823 55.3392M-8.67996 44.8648V48.84615 52.82747L-11.49475 55.64246-13.01799 59.32011-13.01793 63.30054M-8.67996 52.82747-7.15666 56.5052V60.48569L-8.67978 64.16298M0 31.8744 1.52396 35.55377 3.04793 39.23314 1.52408 42.91208V46.8939L3.04774 50.57248M3.04793 39.23314 5.86345 42.04878 7.38712 45.7273V49.70863M3.04793 39.23314V43.21497 47.19678L.23271 50.01213-1.29082 53.69034V57.67137M3.04793 47.19678 4.57141 50.87494 4.57135 54.85591 3.04805 58.53369M3.04793 47.19678 1.52444 50.87494 .00096 54.55309-3.67662 56.07663-6.49118 58.8913-8.01436 62.56854M.00096 54.55309V58.53357L-1.52214 62.21086-4.33632 65.0253M0 31.8744-2.81577 34.69035-5.63153 37.50632-9.6133 37.50656-13.29175 39.03035-16.10698 41.84563M-5.63153 37.50632-7.15514 41.18483-9.97025 44.00017-13.64821 45.5239M-5.63153 37.50632-8.447 40.32196-11.26247 43.13762-15.2438 43.13786-18.92183 44.66151-21.7367 47.4765M-11.26247 43.13762-12.78595 46.8157-15.60075 49.63068-19.27829 51.15416M-11.26247 43.13762-15.24338 43.1378-19.22429 43.13797-22.0391 40.32349-25.71645 38.80043-29.6965 38.80055M-19.22429 43.13797-22.90154 44.66121-26.88153 44.66133-30.5584 43.13846M-19.22429 43.13797-22.90154 44.66121-26.57877 46.18445-30.25565 44.66158-34.23521 44.6617-37.91165 46.18457M-26.57877 46.18445-29.39284 48.9984-33.06927 50.52121H-37.04837M-26.57877 46.18445-29.39284 48.9984-32.20691 51.81235H-36.18599L-39.86201 53.33498-42.67548 56.14825M-32.20691 51.81235-33.72978 55.48831-36.54324 58.30159-40.21889 59.82404M-11.26247 43.13762-12.78577 46.81528-14.30907 50.49294-17.9863 52.01624-20.80055 54.83061-22.32355 58.50748M-14.30907 50.49294-14.30913 54.47293-15.83206 58.14981-18.64595 60.96394M-14.30907 50.49294-17.12332 53.30725-19.93758 56.12157-23.91714 56.12175-27.59354 57.64468-30.40717 60.45839M-19.93758 56.12157-21.46045 59.798-24.27408 62.61171-27.9501 64.13446M-19.93758 56.12157-23.61401 57.64444-27.29047 59.16731-30.96654 57.64468H-34.94527L-38.62093 59.16713M-27.29047 59.16731-30.10399 61.98065-33.77975 63.5031-37.75812 63.50304M-11.26247 43.13762-12.78577 46.81528-14.30907 50.49294-17.9863 52.01624-20.80055 54.83061-22.32355 58.50748M-14.30907 50.49294-14.30913 54.47293-15.83206 58.14981-18.64595 60.96394M-14.30907 50.49294-15.83224 54.17018-17.35542 57.84741-21.03223 59.37053-23.84624 62.18454-25.36911 65.86098M-17.35542 57.84741-17.35548 61.82698-18.8783 65.50343-21.69188 68.3172M-17.35542 57.84741-21.03175 59.37035-24.70807 60.89328-28.3841 59.37083-32.36269 59.37096-36.03828 60.89346M-24.70807 60.89328-27.52135 63.70656-31.19682 65.22906-35.17494 65.22919M-24.70807 60.89328-27.52135 63.70656-30.33463 66.51984-34.31274 66.51996-37.98785 68.04222-40.80058 70.85483M-30.33463 66.51984-31.85695 70.19489-34.66957 73.00755-38.3442 74.52975M-30.33463 66.51984-31.85695 70.19489-33.37929 73.86993-37.05391 75.39214-39.86615 78.2045-41.38799 81.87875M-33.37929 73.86993-33.37935 77.84714-34.90125 81.5214-37.71312 84.33345M-17.35542 57.84741-17.35536 61.82643-17.3553 65.80547-20.16852 68.61887-21.6909 72.29446-21.69084 76.27263M-17.3553 65.80547-15.83286 69.48106V73.45923L-17.35512 77.1344M-17.3553 65.80547-18.87775 69.48106-20.40019 73.15666-24.0753 74.67911-26.88797 77.4919-28.41013 81.1667M-20.40019 73.15666V77.1344L-21.92227 80.8092-24.73459 83.6217M-20.40019 73.15666-23.2128 75.96945-26.02542 78.78224-30.00267 78.78249-33.67694 80.30457-36.48894 83.11662M-26.02542 78.78224-27.54732 82.45662-30.35925 85.2688-34.03308 86.79076M-17.35542 57.84741-17.35536 61.82643-17.3553 65.80547-20.16852 68.61887-21.6909 72.29446-21.69084 76.27263M-17.3553 65.80547-15.83286 69.48106V73.45923L-17.35512 77.1344M-17.3553 65.80547V69.78407 73.76266L-20.16827 76.57576-21.69054 80.25093V84.22868M-17.3553 73.76266-15.83304 77.43784V81.41559L-17.35512 85.0904M-17.3553 73.76266-20.16791 76.57545-22.98051 79.38824-26.95778 79.38849-30.63203 80.91058-33.44405 83.72264M-22.98051 79.38824-24.50243 83.06262-27.31436 85.87482-30.98819 87.39677M-22.98051 79.38824-24.50243 83.06262-26.02432 86.73701-29.69815 88.25897-32.50978 91.07079-34.03133 94.74431M-26.02432 86.73701V90.71342L-27.54591 94.38695-30.35732 97.19846M-26.02432 86.73701V90.71342 94.68983L-28.83571 97.50134-30.35713 101.17445V105.14995M-26.02432 94.68983-24.5029 98.36299V102.33856L-26.02414 106.01129M-17.3553 73.76266-15.83322 77.43747-14.31114 81.11227-15.8331 84.78665V88.76355L-14.31131 92.43756M-14.31114 81.11227-11.49913 83.92445-9.97736 87.59842-9.9773 91.57483M-14.31114 81.11227V85.08917 89.06607L-17.1229 91.87794-18.64455 95.5516V99.52771M-14.31114 89.06607-12.78954 92.73965V96.71571L-14.31096 100.38893M-14.31114 89.06607-15.83273 92.73965-17.35432 96.41325-21.02744 97.9349-23.83852 100.74619-25.35976 104.41898M-17.35432 96.41325-17.35426 100.38875-18.8755 104.0615-21.68622 106.87239M0 31.8744 1.52383 35.55334 3.04768 39.23228 1.52402 42.91086 1.52408 46.89226 3.04756 50.5704M3.04768 39.23228 5.86292 42.04764 7.38644 45.72585V49.70688M3.04768 39.23228 4.57135 42.91086 6.09502 46.58943 4.57153 50.26758 4.5716 54.24855 6.0949 57.92635M6.09502 46.58943 8.90987 49.40448 10.43317 53.0822V57.06268M6.09502 46.58943 4.57172 50.26721 3.04842 53.945-.6288 55.4683-3.44305 58.28267-4.96605 61.95955M3.04842 53.945V57.92513L1.52542 61.60211-1.28857 64.41624M3.04842 53.945V57.92513 61.90524L.2344 64.71938-1.28839 68.39595-1.28833 72.37515M3.04842 61.90524 4.57123 65.58182 4.57117 69.56102 3.04854 73.23717M3.04842 61.90524 4.57123 65.58182 6.09404 69.25838 4.57141 72.93452V76.91325L6.09386 80.5889M6.09404 69.25838 8.90738 72.0719 10.42982 75.74768 10.42976 79.72604M6.09502 46.58943 8.90962 49.40417 11.72424 52.2189V56.19904L13.24724 59.87602 16.06125 62.69016M11.72424 52.2189 15.40118 53.74208 18.21518 56.55621 19.73799 60.23279M11.72424 52.2189 13.24724 55.8959 14.77023 59.57289 13.24742 63.24947 13.24748 67.22867 14.77011 70.90482M14.77023 59.57289 17.58388 62.38678 19.1065 66.06299 19.10645 70.04176M14.77023 59.57289 14.77017 63.55211 14.77011 67.53131 11.95677 70.34483 10.43433 74.02061 10.43439 77.99898M14.77011 67.53131 16.29256 71.20697V75.18521L14.7703 78.86044M6.09502 46.58943 6.09496 50.56998 6.0949 54.55052 3.28058 57.36496 1.75758 61.04196 1.75764 65.02165M6.0949 54.55052 7.61789 58.22752 7.61783 62.20721 6.09502 65.88379M6.0949 54.55052V58.53065 62.51077L3.28088 65.3249 1.75807 69.00146 1.75813 72.98068M6.0949 62.51077 7.6177 66.18733 7.61765 70.16655 6.09502 73.8427M6.0949 62.51077 3.28125 65.32466 .4676 68.13855-3.51123 68.13873-7.18694 69.66136-10.00009 72.47458M.4676 68.13855-1.05489 71.81432-3.86798 74.62753-7.54327 76.15004M.4676 68.13855-1.05489 71.81432-2.5774 75.4901-6.25269 77.0126-9.06548 79.82552-10.58768 83.5005M-2.5774 75.4901V79.46797L-4.09953 83.1429-6.91197 85.9555M-2.5774 75.4901V79.46797 83.44585L-5.38982 86.25845-6.91179 89.93301-6.91173 93.91003M-2.5774 83.44585-1.05544 87.12035-1.0555 91.09737-2.57733 94.7715M6.0949 62.51077 7.61752 66.18692 9.14015 69.86305 7.6177 73.53871V77.51695L9.13997 81.19218M9.14015 69.86305 11.95313 72.67621 13.47539 76.35144V80.32925M9.14015 69.86305V73.8413 77.81953L6.32755 80.63239 4.80553 84.30725 4.80565 88.28458M9.14015 77.81953 10.6623 81.4944V85.47177L9.14034 89.14622M9.14015 77.81953 7.61801 81.4944 6.09587 85.16927 2.42148 86.6914-.39063 89.50359-1.91252 93.1776M6.09587 85.16927 6.096 89.14629 4.5742 92.82042 1.76239 95.63242M6.0949 62.51077 4.57227 66.18692 3.04964 69.86305-.626 71.38574-3.43904 74.1989-4.96136 77.87419M3.04964 69.86305 3.0497 73.84142 1.52736 77.51677-1.28535 80.32968M3.04964 69.86305 1.52718 73.53883 .00473 77.21461-3.67049 78.73718-6.48322 81.5501-8.00536 85.22508M.00473 77.21461 .00485 81.19254-1.51721 84.86746-4.32957 87.68008M.00473 77.21461-3.67012 78.737-7.34499 80.25938-11.0196 78.73755-14.99663 78.73773-18.6707 80.25969M-7.34499 80.25938-10.15717 83.07169-13.83124 84.5937-17.80783 84.59389M-7.34499 80.25938-10.15717 83.07169-12.96935 85.88399-16.94594 85.88417-20.6196 87.40596-23.43117 90.21759M-12.96935 85.88399-14.49106 89.55771-17.30264 92.36928-20.97592 93.89082M-12.96935 85.88399-14.49106 89.55771-16.01279 93.23141-19.68607 94.75294-22.4974 97.56416-24.01894 101.23701M-16.01279 93.23141-16.01285 97.20709-17.53413 100.87996-20.34499 103.69098M.00473 77.21461 .00479 81.19212 .00485 85.16962-2.80725 87.98193-4.32909 91.65607V95.63266M.00485 85.16962 1.5267 88.84377V92.82036L.00504 96.49406M.00485 85.16962-1.51697 88.84377-3.0388 92.5179-6.71252 94.0398-9.52403 96.85149-11.0455 100.52484M-3.0388 92.5179-3.03886 96.49413-4.56041 100.16753-7.37167 102.97899M-3.0388 92.5179-5.85039 95.32953-8.66196 98.14117-12.6377 98.1413-16.31062 99.6627-19.12158 102.47366M-8.66196 98.14117-10.18336 101.81409-12.99434 104.62506-16.66684 106.14629M0 31.8744V35.85666 39.8389L-2.81552 42.65456-4.33919 46.33307V50.3144M0 39.8389 1.52365 43.51749 1.52359 47.49887 .0001 51.17703M0 39.8389V43.82072 47.80255L-2.81522 50.6179-4.33876 54.29611V58.27715M0 47.80255 1.52347 51.4807 1.5234 55.46167 .0001 59.13947M0 47.80255-2.81485 50.6176-5.62971 53.43263-9.6102 53.43288-13.28743 54.95618-16.10168 57.77055M-5.62971 53.43263-7.1529 57.10988-9.96713 59.92418-13.64395 61.4473M-5.62971 53.43263-7.1529 57.10988-8.67607 60.78711-12.35287 62.31023-15.16689 65.12424-16.68976 68.80067M-8.67607 60.78711-8.67613 64.76668-10.19894 68.44313-13.01253 71.2569M-8.67607 60.78711-8.67613 64.76668-8.6762 68.74626-11.48978 71.56003-13.0124 75.2361V79.21483M-8.6762 68.74626-7.15356 72.42227-7.1535 76.40094-8.67595 80.0766M0 47.80255 1.52328 51.48033 3.04659 55.15813 1.5234 58.83548V62.8156L3.0464 66.4926M3.04659 55.15813 5.8609 57.97255 7.3839 61.64955 7.38383 65.62924M3.04659 55.15813V59.13824 63.11836L.23259 65.9325-1.29022 69.60905-1.29016 73.58827M3.04659 63.11836 4.5694 66.79494 4.56934 70.77414 3.0467 74.45029M3.04659 63.11836 1.52377 66.79494 .00096 70.4715-3.6751 71.99437-6.4885 74.80789-8.01102 78.48367M.00096 70.4715 .00102 74.45029-1.52147 78.126-4.33456 80.93916M0 47.80255 .00005 51.78352 .0001 55.7645-2.81448 58.57924-4.33766 62.25659V66.23671M.0001 55.7645 1.52328 59.44185V63.42198L.00029 67.09897M.0001 55.7645 .00017 59.74504 .00023 63.72559-2.81406 66.54002-4.33705 70.21703-4.33699 74.19672M.00023 63.72559 1.52322 67.40259 1.52316 71.38228 .00035 75.05885M.00023 63.72559-2.81375 66.53972-5.62776 69.35385-9.60704 69.35397-13.28323 70.87672-16.09676 73.69019M-5.62776 69.35385-7.15045 73.03-9.96379 75.84346-13.63939 77.36609M-5.62776 69.35385-7.15045 73.03-8.67314 76.70613-12.34874 78.22876-15.16177 81.04192-16.6841 84.71721M-8.67314 76.70613V80.6845L-10.19548 84.35985-13.00821 87.17276M-8.67314 76.70613V80.6845 84.66286L-11.48587 87.47577-13.00803 91.15076-13.00797 95.12825M-8.67314 84.66286-7.151 88.33778-7.15106 92.31522-8.67302 95.98972M.00023 63.72559 1.52304 67.40216 3.04587 71.07872 1.52322 74.75487V78.7336L3.04568 82.40924M3.04587 71.07872 5.8592 73.89224 7.38165 77.56802 7.38159 81.54639M3.04587 71.07872V75.05745 79.03618L.23288 81.84933-1.28937 85.52457V89.50237M3.04587 79.03618 4.56813 82.7114V86.68921L3.04599 90.36407M3.04587 79.03618 1.52359 82.7114 .00133 86.38663-3.6734 87.90903-6.4857 90.72157-8.00754 94.39601M.00133 86.38663 .00145 90.36395-1.52043 94.03833-4.33237 96.85052M.00023 63.72559-2.81339 66.53947-5.62703 69.35336-9.60588 69.35355-13.2816 70.87617-16.09476 73.68939M-5.62703 69.35336-7.14954 73.02914-9.96265 75.84236-13.63792 77.36487M-5.62703 69.35336-8.44043 72.16689-11.25383 74.98041-15.23225 74.98053-18.90767 76.50291-21.72058 79.31577M-11.25383 74.98041-12.77615 78.65576-15.5889 81.46867-19.26376 82.99106M-11.25383 74.98041-15.23183 74.98059-19.20982 74.98077-22.02255 72.16841-25.69724 70.64656-29.67432 70.64674M-19.20982 74.98077-22.88445 76.50285H-26.86159L-30.53578 74.98102M-19.20982 74.98077-22.88445 76.50285-26.55907 78.02493-30.23326 76.5031H-34.20992L-37.88368 78.02475M-26.55907 78.02493-29.37112 80.83682-33.04495 82.35847-37.0212 82.35841M-26.55907 78.02493-29.37112 80.83682-32.18318 83.6487-36.15942 83.64864-39.83282 85.17017-42.64427 87.98145M-32.18318 83.6487-33.70491 87.32204-36.51636 90.13332-40.1894 91.65466M-11.25383 74.98041-12.77603 78.6554-14.29825 82.33038-17.97275 83.85258-20.78493 86.66489-22.30676 90.33902M-14.29825 82.33038V86.3074L-15.82008 89.98154-18.63196 92.79353M-14.29825 82.33038-17.11037 85.14268-19.92249 87.95499-23.89908 87.95517-27.57274 89.47696-30.38431 92.28859M-19.92249 87.95499-21.44421 91.62871-24.25578 94.44028-27.92906 95.9618M-19.92249 87.95499-23.5962 89.47684-27.26991 90.99867-30.94331 89.47731-34.91905 89.4775-38.59192 90.99898M-27.26991 90.99867-30.08118 93.80994-33.7541 95.33136-37.72942 95.33142M-11.25383 74.98041-12.77603 78.6554-14.29825 82.33038-17.97275 83.85258-20.78493 86.66489-22.30676 90.33902M-14.29825 82.33038V86.3074L-15.82008 89.98154-18.63196 92.79353M-14.29825 82.33038-15.82027 86.00494-17.34229 89.6795-21.01636 91.20152-23.82825 94.01346-25.34996 97.68718M-17.34229 89.6795V93.6561L-18.86394 97.3298-21.67546 100.14145M-17.34229 89.6795-21.01599 91.2014-24.68971 92.7233-28.36317 91.20189-32.33904 91.20201-36.01208 92.72342M-24.68971 92.7233-27.50104 95.5347-31.17403 97.05617-35.1494 97.05629M-24.68971 92.7233-27.50104 95.5347-30.31238 98.34608-34.28775 98.3462-37.96037 99.86745-40.77115 102.6781M-30.31238 98.34608-31.83366 102.01865-34.6444 104.82938-38.31651 106.35048M-30.31238 98.34608-31.83366 102.01865-33.35495 105.6912-37.02708 107.21231-39.83745 110.02267-41.35837 113.69437M-33.35495 105.6912-33.35501 109.66566-34.87589 113.33743-37.68594 116.14761M-17.34229 89.6795-17.34235 93.65573-17.3424 97.63196-20.15369 100.44342-21.67503 104.11646-21.67497 108.09184M-17.3424 97.63196-15.82106 101.30495V105.28026L-17.34222 108.95282M-17.3424 97.63196-18.86377 101.30495-20.38512 104.97792-24.05756 106.49934-26.86809 109.31012-28.38902 112.98225M-20.38512 104.97792-20.38506 108.95282-21.90604 112.62494-24.71634 115.43536M-20.38512 104.97792-23.19572 107.78871-26.00632 110.59949-29.98085 110.59967-33.65262 112.12067-36.46272 114.93085M-26.00632 110.59949-27.52713 114.27132-30.33713 117.08156-34.00839 118.60248M-17.34229 89.6795-17.34235 93.65573-17.3424 97.63196-20.15369 100.44342-21.67503 104.11646-21.67497 108.09184M-17.3424 97.63196-15.82106 101.30495V105.28026L-17.34222 108.95282M-17.3424 97.63196V101.60777 105.58357L-20.15332 108.39465-21.67448 112.06721-21.67442 116.0421M-17.3424 105.58357-15.82124 109.25612-15.8213 113.23102-17.34229 116.90315M-17.3424 105.58357-20.15302 108.39435-22.96361 111.20514-26.93814 111.20532-30.60991 112.7263-33.42003 115.53648M-22.96361 111.20514-24.48442 114.87697-27.29442 117.68721-30.9657 119.20813M-22.96361 111.20514-24.48442 114.87697-26.00523 118.54878-29.6765 120.06972-32.48619 122.87965-34.0067 126.55069M-26.00523 118.54878-26.00511 122.52246-27.5256 126.1935-30.33499 129.00313M-26.00523 118.54878-26.00511 122.52246-26.00499 126.49614-28.81438 129.30577-30.33469 132.97644-30.33456 136.94927M-26.00499 126.49614-24.4846 130.16675V134.13951L-26.0048 137.8097M-17.3424 105.58357-15.82143 109.25569-14.30043 112.92783-15.82124 116.59953V120.57352L-14.30061 124.24478M-14.30043 112.92783-11.4905 115.73795-9.96988 119.40923-9.96994 123.38278M-14.30043 112.92783V116.90181 120.8758L-17.11006 123.6856-18.63057 127.35645V131.32952M-14.30043 120.8758-12.77994 124.5467V128.51982L-14.30025 132.19039M-14.30043 120.8758-15.82094 124.5467-17.34143 128.2176-21.01186 129.73818-23.82094 132.54738-25.34108 136.2175M-17.34143 128.2176-17.34137 132.19026-18.86151 135.86032-21.67023 138.66916M.00023 63.72559 1.52287 67.40173 3.0455 71.07788 1.52304 74.75352V78.73177L3.04532 82.407M3.0455 71.07788 5.85847 73.89104 7.38074 77.56627V81.54407M3.0455 71.07788 4.56795 74.75352 6.0904 78.42918 4.56813 82.10442V86.08223L6.09027 89.7571M6.0904 78.42918 8.903 81.24203 10.42502 84.9169 10.4249 88.89423M6.0904 78.42918 4.56825 82.10405 3.0461 85.77892-.62827 87.30106-3.44038 90.11325-4.96228 93.78726M3.0461 85.77892 3.04622 89.75594 1.52444 93.43007-1.28735 96.24208M3.0461 85.77892 3.04622 89.75594 3.04634 93.73296 .23453 96.54495-1.28711 100.21873V104.1949M3.04634 93.73296 4.56801 97.40666V101.38278L3.04652 105.05606M3.04634 93.73296 4.56801 97.40666 6.08966 101.08038 4.56819 104.75366V108.72934L6.08948 112.4022M6.08966 101.08038 8.90082 103.89171 10.4221 107.56464 10.42204 111.53989M6.0904 78.42918 8.90276 81.24173 11.71512 84.05429 11.715 88.03131 13.23679 91.70544 16.0486 94.51744M11.71512 84.05429 15.38908 85.57637 18.20078 88.3883 19.7223 92.06195M11.71512 84.05429 13.23685 87.72836 14.75856 91.40244 13.23691 95.07608V99.05219L14.75838 102.72548M14.75856 91.40244 17.57007 94.21407 19.09155 97.88736V101.86304M14.75856 91.40244V95.37854 99.35464L11.9474 102.16599 10.42612 105.8389 10.42618 109.81416M14.75856 99.35464 16.27985 103.02751 16.27979 107.00276 14.75862 110.67526M6.0904 78.42918V82.40657 86.38396L3.2784 89.1962 1.75667 92.87021 1.75673 96.8467M6.0904 86.38396 7.61217 90.05803V94.03456L6.09052 97.70822M6.0904 86.38396V90.36092 94.33788L3.27864 97.14981 1.75703 100.82353 1.7571 104.79964M6.0904 94.33788 7.61205 98.01152V101.98764L6.09058 105.66092M6.0904 94.33788 3.27887 97.1495 .46736 99.96115-3.5083 99.96133-7.1811 101.48274-9.992 104.29366M.46736 99.96115-1.05397 103.63406-3.86488 106.4451-7.53732 107.96645M.46736 99.96115-1.05397 103.63406-2.57533 107.30699-6.24776 108.82834-9.05836 111.63907-10.57935 115.31113M-2.57533 107.30699V111.28181L-4.09631 114.95389-6.90662 117.76431M-2.57533 107.30699V111.28181 115.25665L-5.38562 118.06706-6.9065 121.73883V125.71288M-2.57533 115.25665-1.05452 118.92836V122.90233L-2.57515 126.57361M6.0904 94.33788 7.61186 98.01115 9.13335 101.68445 7.61205 105.3573 7.6121 109.33257 9.13329 113.00505M9.13335 101.68445 11.94418 104.49547 13.4653 108.16797 13.46524 112.14279M9.13335 101.68445 9.13329 105.6597 9.13322 109.63496 6.32268 112.44568 4.8017 116.11775V120.09216M9.13322 109.63496 10.6542 113.30702V117.28143L9.1334 120.95314M9.13322 109.63496 7.61223 113.30702 6.09125 116.9791 2.4196 118.50008-.39038 121.3102-1.91106 124.98154M6.09125 116.9791V120.95314L4.57056 124.62447 1.76086 127.43428M6.0904 94.33788 4.56892 98.01115 3.04744 101.68445-.62534 103.20598-3.43625 106.01701-4.95741 109.6895M3.04744 101.68445 3.0475 105.6597 1.52634 109.3322-1.2842 112.14291M3.04744 101.68445 1.52615 105.35736 .00485 109.03029-3.6675 110.55164-6.47804 113.3623-7.99902 117.0343M.00485 109.03029 .00491 113.00511-1.51605 116.67719-4.32635 119.48761M.00485 109.03029-3.66707 110.55145-7.33902 112.07263-11.01073 110.55194-14.98465 110.55206-18.65591 112.07275M-7.33902 112.07263-10.14896 114.88268-13.82011 116.40349-17.79361 116.40367M-7.33902 112.07263-10.14896 114.88268-12.9589 117.69273-16.93239 117.69292-20.60318 119.21349-23.41255 122.02287M-12.9589 117.69273-14.47939 121.36359-17.28871 124.17303-20.95908 125.69354M-12.9589 117.69273-14.47939 121.36359-15.9999 125.03444-19.67026 126.55495-22.47928 129.36409-23.99942 133.03409M-15.9999 125.03444V129.00708L-17.52003 132.67714-20.32875 135.48598M.00485 109.03029 .00491 113.00468 .00497 116.9791-2.80495 119.78922-4.32556 123.4605-4.3255 127.43404M.00497 116.9791 1.5256 120.65038 1.52554 124.62393 .00504 128.29485M.00497 116.9791-1.51563 120.65038-3.03625 124.32166-6.70705 125.84233-9.51637 128.65184-11.03662 132.32233M-3.03625 124.32166V128.29473L-4.55658 131.96521-7.3656 134.77442M-3.03625 124.32166-5.84558 127.1311-8.6549 129.94055-12.62755 129.94072-16.29755 131.46099-19.10632 134.26982M-8.6549 129.94055-10.17505 133.61055-12.98376 136.41933-16.65334 137.9394M.00023 63.72559-2.8131 66.53911-5.62643 69.35263-9.60478 69.35281-13.28008 70.87526-16.09293 73.68811M-5.62643 69.35263-7.14876 73.02792-9.96149 75.84084-13.63635 77.36322M-5.62643 69.35263-8.43947 72.16579-11.2525 74.97894-15.2303 74.97913-18.9051 76.50139-21.71754 79.31389M-11.2525 74.97894-12.7747 78.65381-15.58713 81.4663-19.2615 82.98839M-11.2525 74.97894-15.22989 74.97906-19.20726 74.97919-22.01952 72.16725-25.69353 70.6456-29.66994 70.64572M-19.20726 74.97919-22.88135 76.50098H-26.85788L-30.53152 74.97931M-19.20726 74.97919-22.88135 76.50098-26.55542 78.02275-30.22906 76.50108H-34.20517L-37.87846 78.02257M-26.55542 78.02275-29.36705 80.83426-33.04034 82.35574H-37.01602M-26.55542 78.02275-29.36705 80.83426-32.1787 83.64578H-36.15437L-39.82722 85.16707-42.63826 87.97792M-32.1787 83.64578-33.70023 87.31857-36.51125 90.12949-40.18375 91.65065M-11.2525 74.97894-12.77452 78.65338-14.29654 82.32782-17.97055 83.8498-20.78238 86.66167-22.3041 90.33531M-14.29654 82.32782V86.30437L-15.81819 89.97801-18.62971 92.78964M-14.29654 82.32782-17.10829 85.13977-19.92006 87.9517-23.89616 87.95195-27.56938 89.4736-30.3806 92.28494M-19.92006 87.9517-21.44153 91.62498-24.25269 94.43633-27.92548 95.95786M-19.92006 87.9517-23.59328 89.47336-27.26651 90.99503-30.93942 89.47385-34.91461 89.47403-38.58699 90.99527M-27.26651 90.99503-30.07741 93.80592-33.74979 95.32716-37.72455 95.32729M-11.2525 74.97894-14.06493 77.79143-16.87735 80.60393-20.85431 80.60405-24.52838 82.12589-27.34033 84.9377M-16.87735 80.60393-18.39925 84.27794-21.21107 87.08975-24.88466 88.61147M-16.87735 80.60393-19.68947 83.41605-22.5016 86.22816-26.47813 86.22823-30.15178 87.7499-32.96341 90.5614M-22.5016 86.22816-24.02332 89.90175-26.83482 92.71327-30.508 94.2348M-22.5016 86.22816-26.4777 86.22829-30.45381 86.22841-33.26514 83.41733-36.938 81.89609-40.91325 81.89621M-30.45381 86.22841-34.12666 87.74971-38.10193 87.74965-41.77441 86.22847M-30.45381 86.22841-34.12666 87.74971-37.79953 89.271-41.47203 87.74983H-45.44685L-49.11893 89.27081M-37.79953 89.271-40.61026 92.08154-44.28232 93.60252H-48.25673M-37.79953 89.271-40.61026 92.08154-43.42097 94.89207H-47.39539L-51.0671 96.41289-53.8772 99.22282M-43.42097 94.89207-44.94197 98.56372-47.75208 101.37372-51.42342 102.8944M-22.5016 86.22816-24.02313 89.90134-25.54466 93.5745-29.2174 95.0959-32.02824 97.90681-33.54942 101.5792M-25.54466 93.5745-25.54472 97.54968-27.06584 101.22212-29.87631 104.03279M-25.54466 93.5745-28.35551 96.38547-31.16635 99.19643-35.14113 99.19661-38.81308 100.71767-41.62337 103.52795M-31.16635 99.19643-32.68741 102.86838-35.49771 105.67868-39.16934 107.19954M-31.16635 99.19643-34.8383 100.71748-38.51025 102.23853-42.18184 100.71785-46.15562 100.71796-49.82678 102.23859M-38.51025 102.23853-41.32025 105.04846-44.99141 106.56908H-48.96483M-22.5016 86.22816-26.47716 86.22829-30.45271 86.22841-33.26369 83.41776-36.93605 81.89682-40.9107 81.89694M-30.45271 86.22841-34.12503 87.74953H-38.09967L-41.77162 86.22859M-30.45271 86.22841-34.4278 86.22853-38.40286 86.22865-41.21347 83.41829-44.88536 81.89743H-48.85951M-38.40286 86.22865-42.07475 87.74953H-46.04892L-49.72037 86.22878M-38.40286 86.22865-41.21317 83.4186-44.02347 80.60855-44.02377 76.63481-45.54457 72.96378-48.35426 70.15427M-44.02347 80.60855-47.69456 79.08804-50.50424 76.27866-52.02493 72.60811M-44.02347 80.60855-47.69456 79.08804-51.36565 77.56754-52.88634 73.89699-55.69572 71.0879-59.36603 69.56784M-51.36565 77.56754-55.33847 77.56766-59.00873 76.04753-61.81775 73.23874M-51.36565 77.56754-55.33847 77.56766-59.3113 77.56778-62.12032 74.759-65.79015 73.23898H-69.76205M-59.3113 77.56778-62.98112 79.08786-66.95303 79.08792-70.62242 77.56808M-38.40286 86.22865-42.07433 87.7494-45.74579 89.27014-49.41682 87.74959H-53.39008L-57.06068 89.26996M-45.74579 89.27014-48.55542 92.07959-52.22609 93.59998-56.19891 93.59991M-45.74579 89.27014H-49.71904-53.69229L-56.50156 86.46106-60.17174 84.94092-64.14407 84.94098M-53.69229 89.27014-57.36247 90.79034H-61.33481L-65.00456 89.27032M-53.69229 89.27014-57.36247 87.74994-61.03265 86.22975-62.55292 82.56-65.36163 79.75145-69.03108 78.23163M-61.03265 86.22975-65.00456 86.22969-68.67395 84.70985-71.48232 81.90169M-38.40286 86.22865-42.07433 87.7494-45.74579 89.27014-49.41682 87.74959H-53.39008L-57.06068 89.26996M-45.74579 89.27014-48.55542 92.07959-52.22609 93.59998-56.19891 93.59991M-45.74579 89.27014-49.41682 90.79071-53.08786 92.31126-56.75847 90.7909H-60.73123L-64.40141 92.31108M-53.08786 92.31126-55.89713 95.12035-59.5673 96.64049-63.53964 96.64043M-53.08786 92.31126-56.75804 90.79108-60.42822 89.27087-61.94849 85.60112-64.7572 82.79259-68.42665 81.27275M-60.42822 89.27087-64.40013 89.27081-68.06952 87.75098-70.87788 84.94281M-60.42822 89.27087-64.40013 89.27081-68.37204 89.27075-71.1804 86.46259-74.84937 84.94287H-78.82036M-68.37204 89.27075-72.04108 90.79047H-76.01213L-79.68074 89.27094M-68.37204 89.27075-72.04108 90.79047-75.7101 92.31018-79.37871 90.79065-83.34933 90.79071-87.01758 92.31006M-75.7101 92.31018-78.51785 95.11774-82.18602 96.63708H-86.15617M-53.08786 92.31126-55.89682 95.1201-58.70578 97.92896-62.67769 97.92902-66.34708 99.44884-69.15544 102.25702M-58.70578 97.92896-60.22585 101.59828-63.03421 104.40651-66.70323 105.92622M-58.70578 97.92896-62.37517 99.44884-66.04456 100.96873-69.7136 99.44902H-73.68465L-77.35326 100.96855M-66.04456 100.96873-68.85262 103.7766-72.52121 105.29613-76.49185 105.29607M-66.04456 100.96873H-70.01563-73.98668L-76.79443 98.16118-80.4626 96.64183H-84.43275M-73.98668 100.96873-77.65492 102.48808H-81.62514L-85.29294 100.96886M-53.08786 92.31126-55.89682 95.1201-58.70578 97.92896-62.67769 97.92902-66.34708 99.44884-69.15544 102.25702M-58.70578 97.92896-60.22585 101.59828-63.03421 104.40651-66.70323 105.92622M-58.70578 97.92896-61.51443 100.73749-64.32309 103.54602H-68.29457L-71.96361 105.06573-74.77165 107.8736M-64.32309 103.54602-65.84293 107.21492-68.65091 110.02286-72.31952 111.54243M-64.32309 103.54602H-68.29414-72.26521L-75.07295 100.73845-78.74113 99.21912H-82.71129M-72.26521 103.54602-75.93344 105.06537H-79.90366L-83.57147 103.54614M-72.26521 103.54602-75.93344 105.06537-79.60168 106.58472-83.2695 105.06549H-87.23929L-90.90672 106.58453M-79.60168 106.58472-82.40883 109.39172-86.07626 110.91077H-90.04562M-79.60168 106.58472-82.40883 109.39172-85.21596 112.19875H-89.18532L-92.85234 113.7176-95.65887 116.52394M-85.21596 112.19875-86.735 115.86565-89.54147 118.67198-93.20807 120.19072M-64.32309 103.54602-65.84286 107.2145-67.36264 110.88298-71.0308 112.40233-73.8382 115.20958-75.3576 118.87727M-67.36264 110.88298-67.36288 114.85313-68.88222 118.52081-71.6893 121.32777M-67.36264 110.88298-70.17001 113.69023-72.97739 116.4975-76.94711 116.49756-80.6145 118.0166-83.42128 120.82324M-72.97739 116.4975-74.49661 120.16476-77.30339 122.9714-80.97035 124.49026M-72.97739 116.4975-76.64471 118.01654-80.31204 119.53558-83.97894 118.01672H-87.94775L-91.61429 119.5354M-80.31204 119.53558-83.11845 122.34187-86.78493 123.86055H-90.75325M-22.5016 86.22816-24.02301 89.90091-25.54442 93.57364-29.2168 95.09482-32.0274 97.90529-33.54845 101.57718M-25.54442 93.57364-25.54454 97.54836-27.06554 101.22035-29.87578 104.03072M-25.54442 93.57364-27.06566 97.24596-28.58688 100.91826-32.25883 102.43925-35.06914 105.2495-36.59006 108.92107M-28.58688 100.91826-28.58707 104.89249-30.10794 108.56395-32.91788 111.37383M-28.58688 100.91826-32.2584 102.43913-35.92993 103.95999-39.60109 102.4395-43.57446 102.43962-47.2452 103.96011M-35.92993 103.95999-38.73962 106.76956-42.41042 108.29001-46.38342 108.28995M-35.92993 103.95999-38.73962 106.76956-41.54932 109.57913-45.52232 109.57907-49.19275 111.09933-52.00195 113.9083M-41.54932 109.57913-43.06975 113.24944-45.87877 116.0584-49.54865 117.5786M-41.54932 109.57913-43.06975 113.24944-44.5902 116.91974-48.26007 118.43994-51.06873 121.24866-52.58868 124.91818M-44.5902 116.91974-44.59032 120.89178-46.11028 124.5613-48.91856 127.36977M-28.58688 100.91826-28.587 104.89206-28.58713 108.86586-31.3967 111.67555-32.91714 115.34634-32.91708 119.31935M-28.58713 108.86586-27.0667 112.53665-27.06676 116.50966-28.587 120.18008M-28.58713 108.86586-30.10757 112.53665-31.628 116.20744-35.29832 117.72789-38.10728 120.53691-39.62747 124.20679M-31.628 116.20744V120.17996L-33.14809 123.8499-35.95668 126.65868M-31.628 116.20744-34.43697 119.01659-37.24594 121.82573-41.2181 121.82591-44.88766 123.346-47.69614 126.15446M-37.24594 121.82573-38.76588 125.4953-41.57423 128.30384-45.24333 129.82386M-28.58688 100.91826-31.39682 103.7282-34.20676 106.53813-38.18013 106.53825-41.85086 108.05876-44.66019 110.86803M-34.20676 106.53813-35.72731 110.2088-38.53664 113.01807-42.20695 114.53839M-34.20676 106.53813-37.01639 109.3477-39.82602 112.15727-43.79897 112.15733-47.46933 113.6776-50.27847 116.48656M-39.82602 112.15727-41.34639 115.82751-44.15535 118.63647-47.82524 120.15668M-39.82602 112.15727-43.79854 112.15733-47.77106 112.1574-50.57983 109.3488-54.2494 107.8289-58.22107 107.82896M-47.77106 112.1574-51.44057 113.67729H-55.41217L-59.08127 112.15752M-47.77106 112.1574-51.44057 113.67729-55.11008 115.19717-58.77917 113.67741H-62.75029L-66.41896 115.19693M-55.11008 115.19717-57.9182 118.00517-61.58691 119.52475-65.55768 119.52469M-55.11008 115.19717-57.9182 118.00517-60.7263 120.81316-64.69705 120.8131-68.36536 122.3325-71.17285 125.13988M-60.7263 120.81316-62.24596 124.4814-65.05345 127.28871-68.72133 128.80794M-39.82602 112.15727-41.3462 115.82709-42.86641 119.4969-46.53586 121.01686-49.34428 123.82515-50.86417 127.49419M-42.86641 119.4969-42.86653 123.46846-44.3863 127.13748-47.19423 129.94553M-42.86641 119.4969-45.67476 122.3052-48.48311 125.1135-52.45418 125.11356-56.12277 126.63309-58.93053 129.44065M-48.48311 125.1135-50.00282 128.78203-52.81052 131.58966-56.47868 133.10907M-48.48311 125.1135-52.15178 126.63309-55.82043 128.15267-59.48874 126.63327H-63.45901L-67.12688 128.15248M-55.82043 128.15267-58.62794 130.96006-62.29582 132.47934-66.26566 132.4794M-39.82602 112.15727-43.4959 113.67741-47.16577 115.19754-50.83528 113.67764H-54.8069L-58.47598 115.19742M-47.16577 115.19754-49.97424 118.00577-53.6434 119.52542-57.61458 119.5253M-47.16577 115.19754-50.83528 116.71744-54.5048 118.23734-58.17389 116.71756H-62.145L-65.81367 118.23709M-54.5048 118.23734-57.31291 121.04532-60.98163 122.56491-64.9524 122.56485M-54.5048 118.23734-58.17346 116.7178-61.84213 115.19827-63.36177 111.53015-66.16928 108.7229-69.8371 107.20374M-61.84213 115.19827-65.81227 115.19833-69.48003 113.67917-72.28717 110.87228M-61.84213 115.19827-65.81227 115.19833-69.78242 115.1984-72.58955 112.3915-76.25694 110.87257-80.22618 110.8727M-69.78242 115.1984-73.44975 116.71738-77.41893 116.71732-81.08577 115.19852M-69.78242 115.1984-73.44975 116.71738-77.11708 118.23636-80.78392 116.71756-84.75261 116.71762-88.41902 118.23624M-77.11708 118.23636-79.92348 121.04259-83.58995 122.5612H-87.55827M-54.5048 118.23734-57.3126 121.04489-60.1204 123.85246-64.09056 123.8524-67.75832 125.37157-70.56544 128.17845M-60.1204 123.85246-61.63988 127.52014-64.44702 130.3271-68.1144 131.84609M-60.1204 123.85246-63.78822 125.37157-67.45604 126.89066-71.12343 125.37157-75.09271 125.3715-78.75967 126.89037M-67.45604 126.89066-70.26286 129.69725-73.92982 131.21599-77.89864 131.21587M-67.45604 126.89066-71.42528 126.8906-75.3945 126.89055-78.20091 124.08426-81.86739 122.56558H-85.83571M-75.3945 126.89055-79.06105 128.40923-83.02937 128.40917-86.69548 126.89066M-22.5016 86.22816-24.02301 89.90091-25.54442 93.57364-29.2168 95.09482-32.0274 97.90529-33.54845 101.57718M-25.54442 93.57364-25.54454 97.54836-27.06554 101.22035-29.87578 104.03072M-25.54442 93.57364-27.06566 97.24596-28.58688 100.91826-32.25883 102.43925-35.06914 105.2495-36.59006 108.92107M-28.58688 100.91826-28.58707 104.89249-30.10794 108.56395-32.91788 111.37383M-28.58688 100.91826-32.2584 102.43913-35.92993 103.95999-39.60109 102.4395-43.57446 102.43962-47.2452 103.96011M-35.92993 103.95999-38.73962 106.76956-42.41042 108.29001-46.38342 108.28995M-35.92993 103.95999-38.73962 106.76956-41.54932 109.57913-45.52232 109.57907-49.19275 111.09933-52.00195 113.9083M-41.54932 109.57913-43.06975 113.24944-45.87877 116.0584-49.54865 117.5786M-41.54932 109.57913-43.06975 113.24944-44.5902 116.91974-48.26007 118.43994-51.06873 121.24866-52.58868 124.91818M-44.5902 116.91974-44.59032 120.89178-46.11028 124.5613-48.91856 127.36977M-28.58688 100.91826-28.587 104.89206-28.58713 108.86586-31.3967 111.67555-32.91714 115.34634-32.91708 119.31935M-28.58713 108.86586-27.0667 112.53665-27.06676 116.50966-28.587 120.18008M-28.58713 108.86586-30.10757 112.53665-31.628 116.20744-35.29832 117.72789-38.10728 120.53691-39.62747 124.20679M-31.628 116.20744V120.17996L-33.14809 123.8499-35.95668 126.65868M-31.628 116.20744-34.43697 119.01659-37.24594 121.82573-41.2181 121.82591-44.88766 123.346-47.69614 126.15446M-37.24594 121.82573-38.76588 125.4953-41.57423 128.30384-45.24333 129.82386M-28.58688 100.91826-30.10776 104.58978-31.62862 108.2613-35.29971 109.782-38.10934 112.59155-39.62991 116.26224M-31.62862 108.2613-31.62874 112.23468-33.14925 115.90541-35.95851 118.71474M-31.62862 108.2613-33.1493 111.9324-34.66998 115.6035-38.34065 117.12405-41.14992 119.93338-42.67024 123.60368M-34.66998 115.6035-34.67004 119.57645-36.1903 123.24681-38.99927 126.05595M-34.66998 115.6035-38.34024 117.12387-42.01048 118.64426-45.68036 117.12424-49.65233 117.1243-53.32178 118.6442M-42.01048 118.64426-44.81914 121.45291-48.48859 122.97293-52.46019 122.97305M-42.01048 118.64426-44.81914 121.45291-47.62779 124.26157-51.5994 124.26169-55.2685 125.78152-58.07654 128.58957M-47.62779 124.26157-49.14763 127.9306-51.95561 130.73859-55.6242 132.25824M-47.62779 124.26157-49.14763 127.9306-50.66745 131.59963-54.33606 133.11928-57.14374 135.92696-58.66321 139.59514M-50.66745 131.59963-50.66751 135.57033-52.18692 139.23862-54.99431 142.04613M-34.66998 115.6035-34.67004 119.57602-34.6701 123.54854-37.47871 126.35732-38.9986 130.02689-38.99854 133.99857M-34.6701 123.54854-33.15022 127.21805V131.18967L-34.66998 134.85875M-34.6701 123.54854-36.19 127.21805-37.7099 130.88758-41.37886 132.40752-44.1868 135.21564-45.70631 138.88436M-37.7099 130.88758-37.70978 134.85875-39.22931 138.52747-42.03693 141.33535M-37.7099 130.88758-40.51776 133.69574-43.32564 136.5039-47.29633 136.50428-50.96451 138.02399-53.77176 140.83155M-43.32564 136.5039-44.84491 140.17221-47.65218 142.97977-51.31993 144.4993M-34.66998 115.6035-38.33981 117.1237-42.00963 118.64389-45.67914 117.12411-49.65068 117.12424-53.31972 118.64401M-42.00963 118.64389-44.81792 121.45224-48.48688 122.97208-52.45795 122.9722M-42.00963 118.64389-45.67902 120.16391-49.3484 121.68393-53.01744 120.16428-56.9885 120.16434-60.6571 121.68387M-49.3484 121.68393-52.15646 124.49185-55.82512 126.01144H-59.79582M-49.3484 121.68393-53.01701 120.1644-56.68562 118.64487-58.2052 114.9768-61.01259 112.16956-64.68034 110.65033M-56.68562 118.64487H-60.65576L-64.32352 117.1257-67.13065 114.3188M-56.68562 118.64487H-60.65576-64.62592L-67.43304 115.83797-71.10043 114.31905-75.06967 114.31917M-64.62592 118.64487-68.29324 120.16385-72.26242 120.16379-75.92926 118.64499M-64.62592 118.64487-68.29324 120.16385-71.96057 121.68283-75.6274 120.16403-79.59608 120.1641-83.26251 121.68271M-71.96057 121.68283-74.76697 124.48906-78.43344 126.00768H-82.40176M-49.3484 121.68393-52.15616 124.49149-54.9639 127.29904H-58.93405L-62.6018 128.8182-65.40894 131.6251M-54.9639 127.29904-56.4833 130.96674-59.29045 133.7737-62.95782 135.29268M-54.9639 127.29904-58.63165 128.81827-62.29941 130.3375-65.96678 128.81845H-69.93608L-73.60304 130.33731M-62.29941 130.3375-65.10617 133.14415-68.77313 134.66301H-72.742M-62.29941 130.3375H-66.2687-70.23799L-73.04446 127.53122-76.711 126.01254-80.67932 126.0126M-70.23799 130.3375-73.90459 131.85617-77.87297 131.85611-81.5391 130.33762M-49.3484 121.68393-52.15616 124.49149-54.9639 127.29904H-58.93405L-62.6018 128.8182-65.40894 131.6251M-54.9639 127.29904-56.4833 130.96674-59.29045 133.7737-62.95782 135.29268M-54.9639 127.29904-57.77129 130.10631-60.57866 132.91356-64.54839 132.91362-68.21577 134.43267-71.02254 137.23932M-60.57866 132.91356-62.09789 136.58083-64.90466 139.38748-68.57161 140.90634M-60.57866 132.91356H-64.5479-68.51714L-71.32355 130.10729-74.99002 128.58861H-78.95834M-68.51714 132.91356-72.18367 134.43224-76.152 134.43218-79.8181 132.91368M-68.51714 132.91356-72.18367 134.43224-75.8502 135.95093-79.51631 134.43242H-83.4842L-87.14989 135.95075M-75.8502 135.95093-78.65607 138.75659-82.32175 140.27492H-86.28922M-75.8502 135.95093-78.65607 138.75659-81.46193 141.56227H-85.4294L-89.09471 143.08046-91.89996 145.88553M-81.46193 141.56227-82.98036 145.22748-85.78561 148.03249-89.4505 149.55037M-60.57866 132.91356-62.09758 136.5804-63.6165 140.24724-67.28297 141.76598-70.08908 144.57196-71.60776 148.23795M-63.6165 140.24724-63.61656 144.21562-65.13506 147.88175-67.94073 150.68759M-63.6165 140.24724-66.42249 143.05335-69.22847 145.85945-73.1963 145.85964-76.86186 147.37807-79.66724 150.1835M-69.22847 145.85945-70.74684 149.52507-73.55222 152.3305-77.2174 153.84876M-69.22847 145.85945-72.89409 147.37795-76.55971 148.89644-80.22508 147.37837-84.1922 147.3785-87.85715 148.89656M-76.55971 148.89644-79.36484 151.70163-83.02968 153.21976-86.99629 153.21988M-60.57866 132.91356-62.09758 136.5804-63.6165 140.24724-67.28297 141.76598-70.08908 144.57196-71.60776 148.23795M-63.6165 140.24724-63.61656 144.21562-65.13506 147.88175-67.94073 150.68759M-63.6165 140.24724-65.13524 143.91371-66.65398 147.58019-70.31996 149.09886-73.12564 151.9046-74.64401 155.57024M-66.65398 147.58019V151.54804L-68.17229 155.21366-70.9776 158.01915M-66.65398 147.58019-70.3196 149.09868-73.98523 150.61719-77.6506 149.0991-81.6177 149.09923-85.28267 150.61731M-73.98523 150.61719-76.79036 153.42238-80.45518 154.9405-84.42181 154.94063M-73.98523 150.61719-76.79036 153.42238-79.59549 156.22757-83.5621 156.22768-87.22664 157.74558-90.03128 160.55004M-79.59549 156.22757-81.11343 159.89203-83.91795 162.69655-87.582 164.21431M-79.59549 156.22757-81.11343 159.89203-82.63138 163.5565-86.29543 165.07427-89.09964 167.87848-90.61722 171.5421M-82.63138 163.5565-82.6315 167.52227-84.14908 171.186-86.953 173.98998M-66.65398 147.58019-66.65404 151.54767-66.6541 155.51514-69.45917 158.32039-70.97711 161.98534-70.97699 165.95197M-66.6541 155.51514-65.1361 159.18003V163.14665L-66.65392 166.81118M-66.6541 155.51514-68.1721 159.18003-69.69012 162.84493-73.35452 164.36305-76.15892 167.1677-77.67651 170.8318M-69.69012 162.84493-69.69006 166.81111-71.2077 170.47522-74.0118 173.27956M-69.69012 162.84493-72.49452 165.64957-75.29892 168.45421-79.2647 168.45446-82.92836 169.97216-85.73228 172.7762M-75.29892 168.45421-76.81638 172.11789-79.62018 174.92186-83.28336 176.43938M-34.66998 115.6035-34.67004 119.57553-34.6701 123.54756-37.47835 126.35603-38.99799 130.02519-38.99786 133.99637M-34.6701 123.54756-33.15034 127.21666V131.18778L-34.66986 134.85645M-34.6701 123.54756V127.51918 131.49079L-37.4781 134.29889-38.9977 137.96762-38.99763 141.93837M-34.6701 131.49079-33.15059 135.15944-33.15065 139.13014-34.67004 142.79843M-34.6701 131.49079-37.47768 134.29859-40.28523 137.1064-44.25551 137.10663-47.92332 138.62604-50.7304 141.43325M-40.28523 137.1064-41.8044 140.7742-44.61136 143.5814-48.27867 145.10076M-40.28523 137.1064-41.8044 140.7742-43.32356 144.44202-46.99089 145.96137-49.79749 148.76831-51.31622 152.4354M-43.32356 144.44202-43.3235 148.41132-44.84236 152.07828-47.64865 154.88474M-43.32356 144.44202-43.3235 148.41132-43.32344 152.38062-46.12973 155.18708-47.6484 158.8536-47.64835 162.82193M-43.32344 152.38062-41.80476 156.04721-41.80482 160.0156-43.32332 163.6817M-34.6701 131.49079-33.1507 135.15908-31.6313 138.82738-33.15053 142.49526V146.46509L-31.63148 150.1326M-31.6313 138.82738-28.82428 141.63459-27.30524 145.30208-27.3053 149.2715M-31.6313 138.82738V142.79723 146.76708L-34.438 149.57396-35.95686 153.24105-35.9568 157.21004M-31.6313 146.76708-30.11238 150.43415V154.40314L-31.63112 158.06986M-31.6313 146.76708-33.15022 150.43415-34.66914 154.10123-38.33574 155.62015-41.14183 158.42638-42.66039 162.0926M-34.66914 154.10123-34.66908 158.06974-36.18764 161.73596-38.99344 164.54189M-34.6701 131.49079-36.18951 135.15908-37.70892 138.82738-41.3768 140.34679-44.18393 143.15398-45.7031 146.82155M-37.70892 138.82738-37.70898 142.79723-39.22803 146.46474-42.03474 149.27162M-37.70892 138.82738-39.22821 142.49526-40.7475 146.16312-44.41495 147.6824-47.22171 150.4893-48.74063 154.15639M-40.7475 146.16312V150.13254L-42.26642 153.79962-45.07283 156.60622M-40.7475 146.16312-44.41452 147.68222-48.08154 149.20133-51.74832 147.68271-55.71689 147.68283-59.38318 149.20145M-48.08154 149.20133-50.8877 152.00756-54.55394 153.52629-58.52208 153.52642M-48.08154 149.20133-50.8877 152.00756-53.69386 154.81378-57.662 154.8139-61.32794 156.3324-64.1336 159.13802M-53.69386 154.81378-55.2123 158.47965-58.01785 161.28527-61.6833 162.80364M-53.69386 154.81378-55.2123 158.47965-56.73073 162.14551-60.39618 163.66388-63.20143 166.4692-64.71956 170.13428M-56.73073 162.14551-56.73079 166.11281-58.24887 169.77794-61.05376 172.58301M-40.7475 146.16312V150.13211 154.1011L-43.5536 156.9074-45.07216 160.57369V164.54183M-40.7475 154.1011-39.22894 157.7674V161.73555L-40.74738 165.40148M-40.7475 154.1011-42.26605 157.7674-43.7846 161.43369-47.45035 162.95232-50.25578 165.75798-51.77397 169.4235M-43.7846 161.43369-43.78455 165.40135-45.3028 169.06679-48.10799 171.8721M-43.7846 161.43369-46.5901 164.2393-49.3956 167.04492-53.36282 167.04517-57.02785 168.56342-59.83273 171.36843M-49.3956 167.04492-50.91367 170.70995-53.71849 173.5149-57.38303 175.03296M-40.7475 146.16312-43.55391 148.96971-46.3603 151.7763-50.32881 151.77649-53.99498 153.29517-56.80084 156.10097M-46.3603 151.7763-47.87886 155.44254-50.68466 158.24846-54.3504 159.76702M-46.3603 151.7763-49.16641 154.58252-51.97252 157.38875-55.9406 157.38893-59.6064 158.90743-62.41196 161.71298M-51.97252 157.38875-53.49089 161.05449-56.29633 163.85999-59.96158 165.3783M-51.97252 157.38875-55.94005 157.38887-59.90758 157.38899-62.71289 154.58399-66.37785 153.0661-70.3444 153.06629M-59.90758 157.38899-63.57254 158.907-67.53915 158.90694-71.20369 157.38912M-59.90758 157.38899-63.57254 158.907-67.23749 160.42502-70.90202 158.90718H-74.86821L-78.53232 160.42484M-67.23749 160.42502-70.04213 163.22948-73.7063 164.74712-77.67207 164.74706M-67.23749 160.42502-70.04213 163.22948-72.84677 166.03394-76.81255 166.03388-80.47629 167.55139-83.28032 170.35524M-72.84677 166.03394-74.36449 169.69762-77.16852 172.50153-80.8319 174.01892M-51.97252 157.38875-53.49077 161.05413-55.00902 164.71952-58.67392 166.2377-61.4788 169.04259-62.99681 172.7071M-55.00902 164.71952-55.00896 168.68613-56.52678 172.35066-59.33125 175.1553M-55.00902 164.71952-57.81378 167.52446-60.61855 170.3294-64.58481 170.32959-68.24892 171.84741-71.05319 174.65169M-60.61855 170.3294-62.1362 173.99356-64.94035 176.79792-68.60403 178.31562M-60.61855 170.3294-64.2826 171.84729-67.94664 173.36518-71.61043 171.84778-75.57578 171.84796-79.23903 173.36542M-67.94664 173.36518-70.75055 176.16916-74.41386 177.68668-78.37885 177.68686M-34.66998 115.6035-34.67004 119.57553-34.6701 123.54756-37.47835 126.35603-38.99799 130.02519-38.99786 133.99637M-34.6701 123.54756-33.15034 127.21666V131.18778L-34.66986 134.85645M-34.6701 123.54756V127.51918 131.49079L-37.4781 134.29889-38.9977 137.96762-38.99763 141.93837M-34.6701 131.49079-33.15059 135.15944-33.15065 139.13014-34.67004 142.79843M-34.6701 131.49079-37.47768 134.29859-40.28523 137.1064-44.25551 137.10663-47.92332 138.62604-50.7304 141.43325M-40.28523 137.1064-41.8044 140.7742-44.61136 143.5814-48.27867 145.10076M-40.28523 137.1064-41.8044 140.7742-43.32356 144.44202-46.99089 145.96137-49.79749 148.76831-51.31622 152.4354M-43.32356 144.44202-43.3235 148.41132-44.84236 152.07828-47.64865 154.88474M-43.32356 144.44202-43.3235 148.41132-43.32344 152.38062-46.12973 155.18708-47.6484 158.8536-47.64835 162.82193M-43.32344 152.38062-41.80476 156.04721-41.80482 160.0156-43.32332 163.6817M-34.6701 131.49079-33.1507 135.15908-31.6313 138.82738-33.15053 142.49526V146.46509L-31.63148 150.1326M-31.6313 138.82738-28.82428 141.63459-27.30524 145.30208-27.3053 149.2715M-31.6313 138.82738V142.79723 146.76708L-34.438 149.57396-35.95686 153.24105-35.9568 157.21004M-31.6313 146.76708-30.11238 150.43415V154.40314L-31.63112 158.06986M-31.6313 146.76708-33.15022 150.43415-34.66914 154.10123-38.33574 155.62015-41.14183 158.42638-42.66039 162.0926M-34.66914 154.10123-34.66908 158.06974-36.18764 161.73596-38.99344 164.54189M-34.6701 131.49079-34.67004 135.46147-34.66998 139.43218-37.47737 142.23967-38.99666 145.90755-38.99672 149.8774M-34.66998 139.43218-33.15076 143.10005V147.06989L-34.6698 150.7374M-34.66998 139.43218V143.40245 147.37271L-37.477 150.17992-38.99605 153.84741-38.99599 157.81684M-34.66998 147.37271-33.15094 151.04022-33.151 155.00965-34.66992 158.67673M-34.66998 147.37271-37.4767 150.17961-40.28342 152.9865-44.25235 152.98674-47.91895 154.50566-50.72504 157.31189M-40.28342 152.9865-41.80215 156.65316-44.60825 159.45938-48.27443 160.97812M-40.28342 152.9865-41.80215 156.65316-43.32089 160.31981-46.98706 161.83855-49.79286 164.64441-51.31123 168.31015M-43.32089 160.31981V164.28789L-44.83926 167.95377-47.64476 170.75939M-43.32089 160.31981V164.28789 168.25598L-46.12639 171.06159-47.64464 174.72704V178.69426M-43.32089 168.25598-41.80264 171.92142V175.88864L-43.32071 179.55373M-34.66998 147.37271-33.15106 151.0398-31.63214 154.70688-33.15088 158.3736-33.15082 162.34217-31.63226 166.00846M-31.63214 154.70688-28.82605 157.51317-27.3075 161.17946V165.1476M-31.63214 154.70688-31.6322 158.67545-31.63226 162.64402-34.43806 165.45-35.95644 169.11586-35.95638 173.08351M-31.63226 162.64402-30.11383 166.30994V170.27765L-31.63208 173.94316M-31.63226 162.64402-33.1507 166.30994-34.66914 169.97586-38.33458 171.49431-41.13983 174.29967-42.6579 177.96482M-34.66914 169.97586V173.94322L-36.18727 177.60842-38.99222 180.41355M-34.66998 147.37271-37.4764 150.1793-40.2828 152.98589-44.25131 152.98607-47.91748 154.50475-50.72334 157.31055M-40.2828 152.98589-41.80136 156.65213-44.60716 159.45804-48.2729 160.9766M-40.2828 152.98589-43.08891 155.79212-45.895 158.59835-49.86308 158.59853-53.5289 160.11702-56.33446 162.92258M-45.895 158.59835-47.41338 162.26409-50.21881 165.06958-53.88408 166.58789M-45.895 158.59835-49.86255 158.59847-53.83008 158.59859-56.63539 155.79358-60.30034 154.2757-64.2669 154.27588M-53.83008 158.59859-57.49503 160.1166-61.46165 160.11653-65.12617 158.59871M-53.83008 158.59859-57.49503 160.1166-61.15999 161.6346-64.82451 160.11678H-68.79071L-72.4548 161.63442M-61.15999 161.6346-63.96463 164.43906-67.62878 165.95671-71.59456 165.95665M-61.15999 161.6346-63.96463 164.43906-66.76927 167.24353-70.73505 167.24347-74.39877 168.76099-77.20282 171.56484M-66.76927 167.24353-68.28697 170.9072-71.091 173.71112-74.75438 175.22852M-45.895 158.59835-47.41325 162.26372-48.93152 165.9291-52.5964 167.4473-55.40129 170.25218-56.9193 173.9167M-48.93152 165.9291-48.93146 169.89572-50.44928 173.56026-53.25374 176.3649M-48.93152 165.9291-51.73628 168.73406-54.54105 171.539-58.5073 171.53919-62.1714 173.057-64.97568 175.86128M-54.54105 171.539-56.05869 175.20316-58.86284 178.00749-62.52652 179.5252M-54.54105 171.539-58.20508 173.05689-61.86913 174.57477-65.53293 173.05738-69.49828 173.05756-73.16151 174.57501M-61.86913 174.57477-64.67303 177.37874-68.33635 178.89627-72.30133 178.89646M-45.895 158.59835-47.41325 162.26372-48.93152 165.9291-52.5964 167.4473-55.40129 170.25218-56.9193 173.9167M-48.93152 165.9291-48.93146 169.89572-50.44928 173.56026-53.25374 176.3649M-48.93152 165.9291-50.44952 169.59406-51.96753 173.259-55.632 174.77709-58.43646 177.58173-59.9541 181.24588M-51.96753 173.259V177.22527L-53.48523 180.88944-56.28946 183.69377M-51.96753 173.259-55.63158 174.77696-59.29561 176.2949-62.95947 174.77756-66.92488 174.7778-70.5882 176.2954M-59.29561 176.2949-62.0996 179.09894-65.76295 180.61646-69.72794 180.61658M-59.29561 176.2949-62.0996 179.09894-64.90356 181.90297-68.86855 181.90309-72.53156 183.42038-75.33498 186.22374M-64.90356 181.90297-66.42084 185.56598-69.22421 188.36942-72.8868 189.88657M-64.90356 181.90297-66.42084 185.56598-67.93813 189.22899-71.60071 190.74616-74.40376 193.54921-75.92075 197.21137M-67.93813 189.22899-67.93819 193.19312-69.45503 196.85533-72.25774 199.65822M-51.96753 173.259-51.96747 177.22484-51.9674 181.19068-54.77132 183.99477-56.28873 187.6582V191.62319M-51.9674 181.19068-50.45001 184.85405V188.81896L-51.96716 192.4819M-51.9674 181.19068-53.4848 184.85405-55.00221 188.51741-58.6651 190.03482-61.4684 192.83824-62.9855 196.50083M-55.00221 188.51741V192.4819L-56.51924 196.14443-59.32219 198.94756M-55.00221 188.51741-57.80545 191.32085-60.6087 194.12427-64.57277 194.12445-68.23486 195.64144-71.03757 198.44419M-60.6087 194.12427-62.12561 197.78643-64.92831 200.58925-68.58998 202.1061M-51.96753 173.259-51.96747 177.22484-51.9674 181.19068-54.77132 183.99477-56.28873 187.6582V191.62319M-51.9674 181.19068-50.45001 184.85405V188.81896L-51.96716 192.4819M-51.9674 181.19068-51.96735 185.15608-51.96729 189.12148-54.77089 191.92522-56.28812 195.58817V199.55266M-51.96729 189.12148-50.45013 192.78443-50.4502 196.74892-51.96722 200.41144M-51.96729 189.12148-54.77048 191.92491-57.57365 194.72834-61.53766 194.72852-65.19969 196.2455-68.00233 199.04819M-57.57365 194.72834-59.09052 198.39043-61.89314 201.19319-65.55475 202.71004M-57.57365 194.72834-59.09052 198.39043-60.60736 202.05252-64.26897 203.56938-67.0713 206.37184-68.58786 210.03314M-60.60736 202.05252V206.01569L-62.12386 209.67699-64.92581 212.47914M-60.60736 202.05252V206.01569 209.97884L-63.40933 212.78099-64.92563 216.44187-64.92557 220.40418M-60.60736 209.97884-59.09099 213.63979-59.09105 217.60208-60.60724 221.2626M-51.96729 189.12148-50.45026 192.784-48.93321 196.44652-50.45007 200.10869V204.07233L-48.9334 207.73406M-48.93321 196.44652-46.13058 199.24935-44.6139 202.91107-44.61397 206.8743M-48.93321 196.44652V200.41017 204.37381L-51.73555 207.17633-53.25203 210.83769-53.25197 214.80048M-48.93321 204.37381-47.41667 208.03517V211.99797L-48.93303 215.6589M-48.93321 204.37381-50.44977 208.03517-51.96631 211.69655-55.6272 213.21315-58.42899 216.01506-59.94522 219.67563M-51.96631 211.69655-51.96619 215.65885-53.48232 219.31937-56.28368 222.12096M-34.66998 147.37271-33.15125 151.03943-31.6325 154.70615-33.15106 158.37244V162.34058L-31.63263 166.00652M-31.6325 154.70615-28.8267 157.51213-27.30833 161.178-27.3084 165.14565M-31.6325 154.70615-30.11395 158.37244-28.5954 162.03873-30.11383 165.70465V169.67238L-28.59558 173.33788M-28.5954 162.03873-25.78984 164.8444-24.27153 168.50997V172.47733M-28.5954 162.03873-30.11365 165.70424-31.6319 169.36974-35.29692 170.88805-38.1018 173.69312-39.61969 177.35776M-31.6319 169.36974-31.63179 173.33647-33.14961 177.00107-35.95407 179.80577M-31.6319 169.36974-31.63179 173.33647-31.63167 177.30323-34.43613 180.10793-35.95377 183.77216-35.9537 187.73798M-31.63167 177.30323-30.11395 180.96738V184.93315L-31.63148 188.5969M-31.63167 177.30323-30.11395 180.96738-28.59625 184.63155-30.11377 188.29529V192.26064L-28.59644 195.92394M-28.59625 184.63155-25.7924 187.43558-24.27505 191.09896-24.27512 195.06388M-28.5954 162.03873-25.7902 164.8441-22.98502 167.64948-22.98514 171.61623-21.46732 175.2808-18.66286 178.08551M-22.98502 167.64948-19.32043 169.1676-16.51585 171.9723-14.99808 175.6366M-22.98502 167.64948-21.4672 171.31414-19.94937 174.97878-21.46707 178.643V182.60883L-19.94955 186.27263M-19.94937 174.97878-17.14514 177.78318-15.62762 181.44698-15.62769 185.41239M-19.94937 174.97878V178.94461 182.91045L-22.75328 185.71454-24.27068 189.37798V193.34296M-19.94937 182.91045-18.43196 186.5738V190.53873L-19.94913 194.20168M-28.5954 162.03873V166.00603 169.97332L-31.40028 172.77838-32.91817 176.44304-32.9181 180.40935M-28.5954 169.97332-27.07745 173.63802V177.60446L-28.59521 181.26882M-28.5954 169.97332-28.59534 173.94017-28.59528 177.90705-31.39986 180.7118-32.91757 184.37616-32.91751 188.3421M-28.59528 177.90705-27.07751 181.5714V185.5374L-28.5951 189.20133M-28.59528 177.90705-31.39961 180.7115-34.20396 183.51596-38.16954 183.51615-41.83304 185.03374-44.63676 187.83759M-34.20396 183.51596-35.72142 187.17952-38.52515 189.98337-42.18822 191.50084M-34.20396 183.51596-35.72142 187.17952-37.23888 190.84308-40.90195 192.36054-43.70538 195.1641-45.22247 198.82678M-37.23888 190.84308V194.80782L-38.75598 198.47058-41.55904 201.27388M-37.23888 190.84308V194.80782 198.77256L-40.04195 201.57585-41.55879 205.23825-41.55867 209.20214M-37.23888 198.77256-35.72197 202.43489V206.39871L-37.23875 210.06063M-28.59528 177.90705-27.0777 181.57097-25.56012 185.23488-27.07758 188.89844V192.8636L-25.56029 196.52674M-25.56012 185.23488-22.75638 188.03874-21.2391 191.70186V195.6666M-25.56012 185.23488V189.20005 193.1652L-28.36348 195.96875-29.88057 199.63146-29.88051 203.59566M-25.56012 193.1652-24.04301 196.82798-24.04308 200.79222-25.56 204.45456M-25.56012 193.1652-27.07721 196.82798-28.5943 200.49074-32.25658 202.00795-35.0594 204.81096-36.57614 208.47293M-28.5943 200.49074-28.59418 204.45462-30.11092 208.1166-32.91338 210.9193M-28.59528 177.90705-30.11287 181.57097-31.63045 185.23488-35.29388 186.75254-38.09755 189.55638-39.61476 193.21952M-31.63045 185.23488-31.63039 189.19998-33.14766 192.86312-35.95103 195.66666M-31.63045 185.23488-33.14784 188.89844-34.66525 192.562-38.32825 194.07952-41.13162 196.88312-42.64871 200.54589M-34.66525 192.562-34.66513 196.52674-36.18216 200.1895-38.98523 202.9928M-34.66525 192.562-38.32796 194.07939-41.99065 195.5968-45.65312 194.08-49.61707 194.08019-53.27904 195.59709M-41.99065 195.5968-44.79353 198.39974-48.45544 199.91666-52.41885 199.91678M-41.99065 195.5968-44.79353 198.39974-47.59642 201.20269-51.55981 201.2028-55.22136 202.71947-58.0237 205.52169M-47.59642 201.20269-49.11314 204.86423-51.91542 207.66655-55.57654 209.18317M-47.59642 201.20269-49.11314 204.86423-50.62988 208.52577-54.291 210.04239-57.09297 212.8444-58.60933 216.50518M-50.62988 208.52577-50.62994 212.48839-52.14624 216.1492-54.94785 218.95099M-34.66525 192.562-34.66519 196.5263-34.66513 200.49062-37.468 203.29361-38.9848 206.95566V210.91918M-34.66513 200.49062-33.14833 204.15265V208.11617L-34.66501 211.77785M-34.66513 200.49062-36.18192 204.15265-37.69872 207.81468-41.36026 209.33148-44.16254 212.1338-45.67908 215.795M-37.69872 207.81468-37.69865 211.77773-39.21513 215.4389-42.01704 218.24094M-37.69872 207.81468-40.50092 210.61714-43.30313 213.4196-47.26575 213.41983-50.9265 214.93633-53.72816 217.73805M-43.30313 213.4196-44.81938 217.08048-47.62099 219.88239-51.28137 221.3988M.00023 63.72559 1.52269 67.40125 3.04514 71.0769 1.52287 74.75214V78.72995L3.04501 82.40482M3.04514 71.0769 5.85774 73.88976 7.37976 77.56462 7.37964 81.54195M3.04514 71.0769 4.5674 74.75214 6.08966 78.42737 4.56752 82.10223V86.07962L6.08948 89.75406M6.08966 78.42737 8.90202 81.23991 10.42393 84.91441 10.42381 88.89143M6.08966 78.42737 4.5677 82.1018 3.04575 85.77625-.6282 87.29826-3.43996 90.11014-4.96161 93.7838M3.04575 85.77625 3.0458 89.75272 1.5242 93.4263-1.28717 96.23788M3.04575 85.77625 3.0458 89.75272 3.04587 93.72919 .23447 96.54077-1.28687 100.21393-1.2868 104.18942M3.04587 93.72919 4.56728 97.4024 4.56721 101.37804 3.04593 105.05083M3.04587 93.72919 4.56728 97.4024 6.08868 101.07564 4.5674 104.74843V108.72363L6.0885 112.39606M6.08868 101.07564 8.89948 103.8866 10.42052 107.55904 10.42046 111.53375M6.08966 78.42737 8.90166 81.23961 11.71367 84.05185 11.71361 88.02832 13.2352 91.70192 16.04659 94.51349M11.71367 84.05185 15.38713 85.57368 18.19852 88.38527 19.71988 92.05843M11.71367 84.05185 13.23526 87.72543 14.75685 91.39903 13.23544 95.07225 13.2355 99.04788 14.75679 102.72067M14.75685 91.39903 17.56795 94.2103 19.08917 97.8831 19.08911 101.85829M14.75685 91.39903 14.75679 95.37465 14.75673 99.35027 11.94595 102.16124 10.4249 105.83368 10.42496 109.80838M14.75673 99.35027 16.27785 103.0227 16.27779 106.99748 14.75685 110.66948M6.08966 78.42737 7.61162 82.1018 9.13359 85.77625 7.6118 89.45032V93.42685L9.13347 97.1005M9.13359 85.77625 11.94534 88.58818 13.46693 92.26189 13.46687 96.238M9.13359 85.77625 10.65536 89.45032 12.17714 93.12439 10.65549 96.79805V100.77415L12.17696 104.44743M12.17714 93.12439 14.98866 95.93604 16.51013 99.60931V103.58499M12.17714 93.12439 10.65567 96.79768 9.13419 100.47096 5.4614 101.9925 2.65048 104.80353 1.12932 108.47601M9.13419 100.47096 9.13425 104.44621 7.61308 108.11871 4.80254 110.92944M9.13419 100.47096 9.13425 104.44621 9.13431 108.42148 6.32378 111.2322 4.80278 114.90427V118.87868M9.13431 108.42148 10.6553 112.09354V116.06795L9.13449 119.73965M9.13431 108.42148 10.6553 112.09354 12.17628 115.76561 10.65549 119.43732V123.4113L12.1761 127.08257M12.17628 115.76561 14.98622 118.57573 16.50685 122.24701 16.50679 126.22057M12.17714 93.12439 14.9883 95.93573 17.79944 98.74706 17.79938 102.72232 19.32056 106.3948 22.13109 109.20554M17.79944 98.74706 21.47182 100.26842 24.28235 103.07907 25.80334 106.75108M17.79944 98.74706 19.32056 102.41956 20.84166 106.09204 19.32068 109.76411V113.73853L20.84148 117.41022M20.84166 106.09204 23.65196 108.90247 25.17282 112.57423V116.54826M20.84166 106.09204V110.06645 114.04086L18.03172 116.85097 16.51111 120.52225 16.51117 124.4958M20.84166 114.04086 22.36229 117.71213 22.36223 121.68568 20.84172 125.3566M12.17714 93.12439 10.65585 96.79726 9.13455 100.47011 5.46219 101.99147 2.65164 104.80212 1.13066 108.47414M9.13455 100.47011 9.13461 104.44495 7.61363 108.117 4.80333 110.92743M9.13455 100.47011 7.61345 104.14261 6.09233 107.8151 2.4204 109.33627-.38983 112.14662-1.91064 115.81827M6.09233 107.8151 6.09239 111.7895 4.5716 115.46121 1.76166 118.27132M6.09233 107.8151 2.42076 109.33615-1.25081 110.8572-4.92215 109.33676-8.89565 109.337-12.56644 110.85762M-1.25081 110.8572-4.0605 113.66695-7.73135 115.18758-11.70448 115.1877M-1.25081 110.8572-4.0605 113.66695-6.8702 116.4767-10.84332 116.47682-14.51387 117.99721-17.32307 120.80629M-6.8702 116.4767-8.39058 120.14719-11.19966 122.95639-14.86972 124.47672M-6.8702 116.4767-8.39058 120.14719-9.91095 123.81767-13.58101 125.338-16.38979 128.14684-17.90987 131.81653M-9.91095 123.81767V127.78995L-11.43097 131.4597-14.23944 134.26831M6.09233 107.8151V111.78908 115.76306L3.28271 118.57288 1.7622 122.24373V126.2168M6.09233 115.76306 7.61284 119.43398V123.4071L6.09251 127.07765M6.09233 115.76306 4.57184 119.43398 3.05133 123.10489-.61908 124.62544-3.42816 127.43465-4.9483 131.10477M3.05133 123.10489 3.05139 127.07753 1.53125 130.74759-1.27745 133.55643M3.05133 123.10489 .24231 125.91415-2.5667 128.72342-6.53897 128.72367-10.20866 130.24385-13.0172 133.0525M-2.5667 128.72342-4.0866 132.39318-6.89494 135.20183-10.56409 136.72197M6.09233 107.8151V111.78908 115.76306L3.28271 118.57288 1.7622 122.24373V126.2168M6.09233 115.76306 7.61284 119.43398V123.4071L6.09251 127.07765M6.09233 115.76306 6.09239 119.73662 6.09245 123.71016 3.28313 126.51967 1.76288 130.19016 1.76294 134.1628M6.09245 123.71016 7.61278 127.3807 7.61272 131.35341 6.09258 135.02355M6.09245 123.71016 3.28343 126.51936 .47441 129.32857-3.49779 129.32875-7.16742 130.84883-9.97595 133.6573M.47441 129.32857-1.04552 132.99834-3.85394 135.80699-7.52315 137.32706M.47441 129.32857-1.04552 132.99834-2.56548 136.66809-6.2347 138.18817-9.0428 140.99652-10.56245 144.66548M-2.56548 136.66809-2.56535 140.63951-4.08495 144.30849-6.89268 147.11653M-2.56548 136.66809-2.56535 140.63951-2.56523 144.61095-5.37299 147.41899-6.89238 151.08753-6.89232 155.05805M-2.56523 144.61095-1.0457 148.27942V152.24994L-2.56505 155.91805M6.09245 123.71016 7.6126 127.3803 9.13274 131.05042 7.61272 134.72017V138.69202L9.13255 142.36136M9.13274 131.05042 11.94121 133.85901 13.46104 137.52834V141.49977M9.13274 131.05042V135.02227 138.99411L6.32463 141.8024 4.80498 145.47132 4.80504 149.4423M9.13274 138.99411 10.65239 142.66309 10.65233 146.63408 9.1328 150.30263M9.13274 138.99411 7.61308 142.66309 6.09343 146.33205 2.42502 147.85176-.38248 150.65944-1.90176 154.32756M6.09343 146.33205 6.09349 150.30257 4.57414 153.97068 1.76689 156.77806M6.09245 123.71016 7.6126 127.3803 9.13274 131.05042 7.61272 134.72017V138.69202L9.13255 142.36136M9.13274 131.05042 11.94121 133.85901 13.46104 137.52834V141.49977M9.13274 131.05042 10.65276 134.72017 12.17276 138.38993 10.65292 142.05927V146.03069L12.17258 149.69965M12.17276 138.38993 14.98088 141.19821 16.50052 144.86713 16.50046 148.83812M12.17276 138.38993 10.6531 142.0589 9.13347 145.72786 5.46504 147.24758 2.65755 150.05525 1.13826 153.72338M9.13347 145.72786 9.13353 149.69838 7.61418 153.36649 4.80692 156.17388M9.13347 145.72786 9.13353 149.69838 9.13359 153.66889 6.32632 156.47628 4.8071 160.14402 4.80704 164.11374M9.13359 153.66889 10.65276 157.33664V161.3063L9.13377 164.97364M9.13359 153.66889 10.65276 157.33664 12.1719 161.0044 10.65292 164.6717 10.65298 168.64089 12.17178 172.30773M12.1719 161.0044 14.9785 163.81116 16.4973 167.47806 16.49724 171.44681M12.17276 138.38993 14.98058 141.1979 17.78838 144.0059 17.78831 147.97641 19.30766 151.64453 22.11491 154.4519M17.78838 144.0059 21.45631 145.5255 24.26344 148.33287 25.78255 152.00063M17.78838 144.0059 19.3076 147.67407 20.82683 151.34226 19.3076 155.00995 19.30754 158.97962 20.82652 162.64693M20.82683 151.34226 23.63365 154.14934 25.15257 157.81665 25.15245 161.78583M20.82683 151.34226 20.82677 155.31186 20.8267 159.28147 18.02017 162.08823 16.50137 165.75513 16.50143 169.72388M20.8267 159.28147 22.3455 162.9483 22.34544 166.91699 20.82683 170.5834M12.17714 93.12439 14.98799 95.93542 17.79883 98.74644 17.79877 102.72128 19.31976 106.39336 22.13007 109.20377M17.79883 98.74644 21.47078 100.26762 24.28102 103.07797 25.80182 106.74962M17.79883 98.74644 20.60931 101.55717 23.4198 104.3679 23.41974 108.3423 24.94054 112.014 27.75047 114.82413M23.4198 104.3679 27.09137 105.88895 29.9013 108.69913 31.42188 112.37047M23.4198 104.3679V108.34187 112.31586L20.61017 115.12567 19.08966 118.79652V122.76959M23.4198 112.31586 24.94029 115.98677V119.9599L23.41998 123.63045M23.4198 112.31586 24.94029 115.98677 26.4608 119.65768 24.94048 123.32823 24.94054 127.30093 26.46068 130.97106M26.4608 119.65768 29.26982 122.46689 30.7899 126.13695 30.78984 130.1091M26.4608 119.65768 29.26982 122.46689 32.07884 125.2761 32.07878 129.24825 33.59874 132.91788 36.40709 135.72647M32.07884 125.2761 35.74841 126.79636 38.55682 129.60501 40.0766 133.2744M23.4198 104.3679 27.09096 105.88876 30.7621 107.40964 32.28261 111.08049 35.09193 113.88994 38.7623 115.41043M30.7621 107.40964 34.73517 107.40982 38.40561 108.93025 41.21469 111.73933M30.7621 107.40964 33.57143 110.21915 36.38075 113.02864 36.38069 117.00128 37.90083 120.67136 40.70955 123.4802M36.38075 113.02864 40.05077 114.54909 42.85942 117.35805 44.3793 121.0278M36.38075 113.02864 37.90083 116.69878 39.42091 120.3689 37.90096 124.03859 37.90102 128.01038 39.42085 131.67966M39.42091 120.3689 42.22932 123.17755 43.7491 126.84694 43.74898 130.81838M23.4198 104.3679 24.94041 108.03917 26.46104 111.71045 24.94054 115.38136V119.35449L26.46086 123.02504M26.46104 111.71045 29.27037 114.51996 30.79063 118.19044 30.79057 122.16309M26.46104 111.71045 27.98154 115.38136 29.50204 119.05228 27.98172 122.72282 27.98178 126.69553 29.50192 130.36565M29.50204 119.05228 32.31107 121.86148 33.83115 125.53154 33.83109 129.50371M29.50204 119.05228 27.9819 122.7224 26.46178 126.39252 22.79213 127.91272 19.98366 130.72132 18.46382 134.39066M26.46178 126.39252 26.46184 130.36432 24.942 134.03359 22.1339 136.84181M26.46178 126.39252 26.46184 130.36432 26.4619 134.3361 23.65378 137.14434 22.13414 140.81319V144.78412M26.4619 134.3361 27.98154 138.005 27.98149 141.97602 26.46196 145.64455M26.4619 134.3361 27.98154 138.005 29.50119 141.67392 27.98166 145.34246V149.31304L29.501 152.98122M29.50119 141.67392 32.3087 144.4816 33.82799 148.14972 33.82793 152.11981M29.50204 119.05228 32.31076 121.86118 35.11948 124.67007 35.11942 128.64188 36.63925 132.31114 39.44736 135.11937M35.11948 124.67007 38.7887 126.19016 41.5968 128.9985 43.11646 132.66748M35.11948 124.67007 36.63925 128.33948 38.15903 132.00887 36.63931 135.67783V139.64884L38.15884 143.31737M38.15903 132.00887 40.96677 134.81691 42.48618 138.48546 42.48611 142.45597M38.15903 132.00887 38.1589 135.9798 38.15878 139.95075 35.35129 142.75836 33.832 146.42642V150.39646M38.15878 139.95075 39.67813 143.61887V147.589L38.15897 151.25676M29.50204 119.05228V123.02455 126.99683L26.69357 129.80544 25.17374 133.47476V137.44618M29.50204 126.99683 31.02188 130.66617V134.63759L29.50223 138.30657M29.50204 126.99683V130.96869 134.94054L26.69394 137.74883 25.17429 141.41774 25.17435 145.38874M29.50204 134.94054 31.0217 138.6095 31.02164 142.5805 29.5021 146.24904M29.50204 134.94054 26.69424 137.74852 23.88643 140.55652 19.91592 140.55669 16.24786 142.07616 13.44055 144.88343M23.88643 140.55652 22.36716 144.22463 19.55995 147.03208 15.89226 148.55147M23.88643 140.55652 22.36716 144.22463 20.84787 147.89275 17.18018 149.41216 14.37321 152.21929 12.85423 155.88668M20.84787 147.89275 20.84793 151.86241 19.32895 155.52973 16.52235 158.3365M20.84787 147.89275 20.84793 151.86241 20.84799 155.83206 18.0414 158.63884 16.5226 162.30574 16.52266 166.27449M20.84799 155.83206 22.36679 159.4989 22.36673 163.46759 20.84811 167.134M29.50204 134.94054 31.02158 138.60907 32.5411 142.27762 31.02176 145.9458V149.91594L32.54092 153.5837M32.5411 142.27762 35.34836 145.08499 36.86758 148.75275 36.86765 152.72248M32.5411 142.27762V146.24777 150.21791L29.7342 153.02506 28.21529 156.69245 28.21541 160.66168M32.5411 150.21791 34.06009 153.88524 34.06003 157.85442 32.54123 161.52126M32.5411 150.21791 31.02213 153.88524 29.50314 157.55257 25.83636 159.07161 23.03014 161.87802 21.51152 165.5445M29.50314 157.55257 29.5032 161.52132 27.98453 165.18779 25.1786 167.99396M12.17714 93.12439 12.17708 97.09966 12.17702 101.0749 9.36649 103.88564 7.84549 107.5577V111.5321M12.17702 101.0749 13.69801 104.74698V108.72137L12.1772 112.39308M12.17702 101.0749V105.04974 109.02457L9.36671 111.83499 7.84586 115.50676V119.48079M12.17702 109.02457 13.69783 112.69627V116.67026L12.1772 120.34152M12.17702 109.02457 9.36708 111.83469 6.55716 114.6448 2.58366 114.64505-1.08711 116.16566-3.89644 118.97511M6.55716 114.6448 5.03665 118.31566 2.22733 121.1251-1.44302 122.6456M6.55716 114.6448 5.03665 118.31566 3.51614 121.98651-.1542 123.507-2.96323 126.31615-4.48335 129.98615M3.51614 121.98651V125.95915L1.99602 129.62921-.81268 132.43805M3.51614 121.98651V125.95915 129.9318L.70743 132.74063-.81256 136.41033V140.38217M3.51614 129.9318 5.0361 133.60149 5.03604 137.57328 3.5162 141.24256M12.17702 109.02457 13.69765 112.69585 15.21826 116.36713 13.69777 120.03804V124.01117L15.21808 127.68172M15.21826 116.36713 18.02759 119.17664 19.54785 122.84712 19.54779 126.81976M15.21826 116.36713V120.34026 124.31339L12.40924 127.12259 10.88918 130.79265 10.88924 134.7648M15.21826 124.31339 16.7384 127.9835V131.95578L15.21838 135.62554M15.21826 124.31339 13.69814 127.9835 12.178 131.65363 8.50836 133.17383 5.69989 135.98242 4.18005 139.65175M12.178 131.65363 12.17805 135.62541 10.65822 139.2947 7.85011 142.10292M12.17702 109.02457V112.99855 116.97253L9.36739 119.78233 7.8469 123.45319V127.42625M12.17702 116.97253 13.69753 120.64343V124.61656L12.1772 128.28711M12.17702 116.97253 12.17708 120.94608 12.17714 124.91963 9.36781 127.72914 7.84756 131.39963 7.84763 135.37227M12.17714 124.91963 13.69746 128.59018 13.6974 132.56288 12.17726 136.233M12.17714 124.91963 9.36812 127.72884 6.5591 130.53804 2.58688 130.53823-1.08273 132.0583-3.89127 134.86678M6.5591 130.53804 5.03914 134.2078 2.23073 137.01647-1.43846 138.53653M6.5591 130.53804 5.03914 134.2078 3.5192 137.87757-.15001 139.39763-2.95811 142.206-4.47777 145.87496M3.5192 137.87757 3.51932 141.84899 1.99973 145.51795-.80801 148.326M3.5192 137.87757 3.51932 141.84899 3.51944 145.8204 .71169 148.62847-.80771 152.297-.80765 156.26752M3.51944 145.8204 5.03896 149.48889V153.4594L3.51962 157.12752M12.17714 124.91963 13.69728 128.58975 15.21742 132.25988 13.6974 135.92964V139.90149L15.21724 143.57082M15.21742 132.25988 18.0259 135.06848 19.54573 138.73781V142.70923M15.21742 132.25988V136.23174 140.20359L12.4093 143.01187 10.88965 146.68079 10.88971 150.65178M15.21742 140.20359 16.73706 143.87255 16.737 147.84355 15.21748 151.51209M15.21742 140.20359 13.69777 143.87255 12.17812 147.54152 8.50969 149.06124 5.7022 151.86891 4.1829 155.53704M12.17812 147.54152 12.17818 151.51203 10.65883 155.18015 7.85158 157.98752M12.17714 124.91963 9.36842 127.72853 6.55971 130.53743 2.58786 130.53768-1.0814 132.0577-3.88957 134.86598M6.55971 130.53743 5.03987 134.20677 2.23177 137.01506-1.43707 138.5349M6.55971 130.53743 3.75124 133.34603 .94276 136.15464-3.02866 136.15482-6.69756 137.67458-9.50554 140.48252M.94276 136.15464-.57693 139.82353-3.38481 142.63152-7.05328 144.15123M.94276 136.15464-3.02829 136.15476-6.99934 136.15488-9.80716 133.34737-13.47539 131.82814-17.44554 131.82826M-6.99934 136.15488-10.66753 137.67427-14.63768 137.67433-18.30542 136.15517M-6.99934 136.15488-10.66753 137.67427-14.33571 139.19368-18.00345 137.67452H-21.97311L-25.64044 139.1935M-14.33571 139.19368-17.14284 142.00058-20.81023 143.5195-24.77946 143.51938M-14.33571 139.19368-17.14284 142.00058-19.94998 144.80747-23.9192 144.80735-27.5861 146.32614-30.39258 149.13237M-19.94998 144.80747-21.46907 148.4743-24.2756 151.2806-27.9422 152.79921M.94276 136.15464-.57681 139.82323-2.0964 143.49184-5.76453 145.01136-8.57184 147.81874-10.09113 151.48656M-2.0964 143.49184-2.09647 147.46204-3.61569 151.12985-6.42271 153.937M-2.0964 143.49184-4.90373 146.29927-7.71104 149.1067-11.6809 149.10683-15.34839 150.62593-18.15529 153.43271M-7.71104 149.1067-9.23015 152.77416-12.03687 155.581-15.70381 157.10004M-7.71104 149.1067-11.3785 150.62593-15.04594 152.14516-18.71307 150.62636-22.68207 150.62654-26.34872 152.1454M-15.04594 152.14516-17.8524 154.95169-21.51906 156.47061-25.48763 156.47074M.94276 136.15464-.57681 139.82323-2.0964 143.49184-5.76453 145.01136-8.57184 147.81874-10.09113 151.48656M-2.0964 143.49184-2.09647 147.46204-3.61569 151.12985-6.42271 153.937M-2.0964 143.49184-3.61581 147.16007-5.13522 150.82831-8.80304 152.34766-11.6101 155.15479-13.12921 158.82224M-5.13522 150.82831V154.7981L-6.65427 158.46553-9.4609 161.27237M-5.13522 150.82831-8.80261 152.34754-12.46999 153.86676-16.13707 152.34803-20.106 152.3482-23.7726 153.86707M-12.46999 153.86676-15.27646 156.67316-18.94305 158.19196-22.9115 158.19202M-12.46999 153.86676-15.27646 156.67316-18.08293 159.47957-22.05138 159.47963-25.71754 160.99819-28.5234 163.80393M-18.08293 159.47957-19.60161 163.14568-22.40741 165.95148-26.07309 167.46991M-18.08293 159.47957-19.60161 163.14568-21.12029 166.81179-24.78596 168.33022-27.59146 171.13565-29.10977 174.80092M-21.12029 166.81179-21.1204 170.77933-22.63866 174.4447-25.44379 177.24996M-5.13522 150.82831V154.79767 158.76703L-7.94157 161.57355-9.46025 165.2402-9.46013 169.20865M-5.13522 158.76703-3.61649 162.43369-3.61655 166.40219-5.1351 170.06842M-5.13522 158.76703-6.65396 162.43369-8.1727 166.10034-11.83887 167.61908-14.64467 170.42493-16.16304 174.09069M-8.1727 166.10034V170.06842L-9.69107 173.73429-12.49657 176.5399M-8.1727 166.10034-10.9785 168.90625-13.7843 171.71218-17.75189 171.71236-21.4172 173.23067-24.2224 176.03586M-13.7843 171.71218-15.30249 175.37761-18.10762 178.18299-21.77257 179.70131M-5.13522 150.82831V154.79767 158.76703L-7.94157 161.57355-9.46025 165.2402-9.46013 169.20865M-5.13522 158.76703-3.61649 162.43369-3.61655 166.40219-5.1351 170.06842M-5.13522 158.76703-5.13516 162.73596-5.1351 166.70488-7.94121 169.51111-9.45976 173.17734V177.14542M-5.1351 166.70488-3.61655 170.37113V174.3392L-5.13492 178.00507M-5.1351 166.70488-7.9409 169.5108-10.7467 172.31673-14.7143 172.31691-18.37961 173.83522-21.1848 176.64041M-10.7467 172.31673-12.2649 175.98217-15.07002 178.78754-18.73497 180.30585M-10.7467 172.31673-12.2649 175.98217-13.78308 179.64762-17.44803 181.16593-20.25285 183.971-21.77069 187.63564M-13.78308 179.64762-13.7829 183.61435-15.30066 187.279-18.10512 190.08377M-13.78308 179.64762-13.7829 183.61435-13.78271 187.5811-16.58717 190.38587-18.10475 194.05014-18.10457 198.01604M-13.78271 187.5811-12.26495 191.24532-12.2649 195.21121-13.78247 198.87508M-5.1351 166.70488-3.61673 170.37076-2.09836 174.03662-3.61661 177.70206V181.6693L-2.09854 185.33437M-2.09836 174.03662 .70682 176.84194 2.2249 180.50695V184.4737M-2.09836 174.03662V178.00385 181.97109L-4.90324 184.7761-6.42119 188.44068-6.42125 192.407M-2.09836 181.97109-.58046 185.63573-.58052 189.60205-2.09824 193.26627M-2.09836 181.97109-3.61624 185.63573-5.13412 189.30039-8.7983 190.81839-11.60251 193.62285-13.11996 197.28672M-5.13412 189.30039-5.134 193.26627-6.65152 196.93013-9.45544 199.73429M12.17714 124.91963 13.69716 128.58939 15.21718 132.25916 13.69734 135.92848V139.8999L15.217 143.56888M15.21718 132.25916 18.02528 135.06745 19.54494 138.73635 19.54488 142.70735M15.21718 132.25916 16.737 135.92848 18.25684 139.59781 16.73718 143.26679 16.73724 147.23778 18.25677 150.90633M18.25684 139.59781 21.06465 142.4058 22.5841 146.07434 22.58405 150.04486M18.25684 139.59781 16.7373 143.26636 15.21777 146.93489 11.54979 148.45442 8.74258 151.26175 7.22342 154.92943M15.21777 146.93489 15.21783 150.90499 13.69868 154.57268 10.89178 157.37975M15.21777 146.93489 15.21783 150.90499 15.2179 154.87508 12.41101 157.68215 10.89203 161.34947 10.89209 165.31865M15.2179 154.87508 16.73688 158.54235V162.51152L15.21808 166.17835M15.2179 154.87508 16.73688 158.54235 18.25586 162.2096 16.73706 165.87644 16.73712 169.84513 18.25574 173.51154M18.25586 162.2096 21.06209 165.016 22.5807 168.68248V172.6508M18.25684 139.59781 21.06435 142.4055 23.87184 145.21318 23.87178 149.18328 25.39095 152.85095 28.19785 155.65804M23.87184 145.21318 27.53954 146.73259 30.34648 149.53972 31.86546 153.2071M23.87184 145.21318 25.39095 148.88094 26.91005 152.54869 25.39107 156.216 25.39113 160.18518 26.90993 163.85202M26.91005 152.54869 29.71664 155.35546 31.23544 159.02236 31.23538 162.9911M26.91005 152.54869 26.90999 156.51786 26.90993 160.48703 24.1037 163.29344 22.58508 166.95992V170.92824M26.90993 160.48703 28.42854 164.15345V168.12172L26.91005 171.78777M18.25684 139.59781V143.56839 147.53896L15.44958 150.34635 13.93036 154.0141 13.9303 157.98381M18.25684 147.53896 19.776 151.20671V155.17638L18.25702 158.8437M18.25684 147.53896V151.50911 155.47927L15.44995 158.28639 13.93103 161.95378 13.93115 165.92302M18.25684 155.47927 19.77582 159.14659 19.77576 163.11577 18.25696 166.7826M18.25684 155.47927 15.45026 158.28603 12.64366 161.0928 8.67491 161.09305 5.0085 162.61191 2.20251 165.41802M12.64366 161.0928 11.12505 164.75928 8.31912 167.56545 4.6532 169.08419M12.64366 161.0928 11.12505 164.75928 9.60643 168.42575 5.9405 169.94449 3.13495 172.75029 1.6167 176.41591M9.60643 168.42575 9.60649 172.39365 8.08818 176.05933 5.28287 178.86489M9.60643 168.42575 9.60649 172.39365 9.60655 176.36154 6.80124 179.1671 5.28317 182.83243 5.2833 186.79947M9.60655 176.36154 11.12474 180.02687V183.99391L9.60674 187.65882M18.25684 155.47927 19.77563 159.1461 21.29443 162.81295 19.77582 166.47936V170.44762L21.29431 174.11367M21.29443 162.81295 24.10036 165.61904 25.61879 169.2851 25.61873 173.25293M21.29443 162.81295V166.7812 170.74947L18.48875 173.55527 16.97038 177.22089 16.97032 181.18836M21.29443 170.74947 22.81274 174.41509V178.3825L21.29462 182.04776M21.29443 170.74947 19.77612 174.41509 18.25781 178.0807 14.59268 179.59909 11.78773 182.40428 10.26978 186.0691M18.25781 178.0807 18.25787 182.0477 16.73993 185.71253 13.93529 188.51741M18.25684 155.47927 16.73804 159.1461 15.21924 162.81295 11.55289 164.3318 8.74696 167.1379 7.22853 170.80396M15.21924 162.81295V166.78127L13.70074 170.44738 10.89507 173.25324M15.21924 162.81295 13.70062 166.47942 12.182 170.14589 8.51608 171.66463 5.71053 174.47043 4.19228 178.13605M12.182 170.14589 12.18207 174.11379 10.66376 177.77947 7.85844 180.58502M12.182 170.14589 8.51639 171.66445 4.85075 173.183 1.18532 171.665-2.78177 171.66524-6.44667 173.18343M4.85075 173.183 2.04562 175.98825-1.61925 177.50644-5.58592 177.50662M4.85075 173.183 2.04562 175.98825-.75948 178.7935-4.72617 178.79369-8.3907 180.31169-11.19528 183.11627M-.75948 178.7935-2.2775 182.45803-5.08208 185.2626-8.74623 186.78038M-.75948 178.7935-2.2775 182.45803-3.7955 186.12256-7.45967 187.64032-10.26395 190.4446-11.78152 194.10834M-3.7955 186.12256-3.79556 190.0884-5.31308 193.75218-8.117 196.55629M12.182 170.14589 12.18207 174.11336 12.18213 178.08083 9.37706 180.88608 7.85912 184.55104 7.85924 188.51766M12.18213 178.08083 13.70013 181.74573V185.71234L12.18231 189.37688M12.18213 178.08083 10.66412 181.74573 9.14612 185.41062 5.4817 186.92874 2.6773 189.7334 1.15971 193.39749M9.14612 185.41062 9.14616 189.37682 7.62852 193.04091 4.82443 195.84526M9.14612 185.41062 6.3417 188.21526 3.53731 191.0199-.42845 191.02014-4.09212 192.53786-6.89604 195.34189M3.53731 191.0199 2.01985 194.68358-.78394 197.48755-4.44711 199.00508M12.17714 124.91963 10.65712 128.58939 9.13712 132.25916 5.46783 133.77916 2.65967 136.58747 1.13995 140.25637M9.13712 132.25916V136.23058L7.61746 139.89954 4.80966 142.70754M9.13712 132.25916 7.61728 135.92848 6.09744 139.59781 2.4286 141.11765-.37926 143.92557-1.89877 147.59406M6.09744 139.59781 6.0975 143.56882 4.57797 147.23735 1.77048 150.04505M6.09744 139.59781 2.42903 141.11753-1.23938 142.63724-4.90756 141.11801-8.87764 141.11814-12.54533 142.63736M-1.23938 142.63724-4.04669 145.44449-7.71439 146.96372-11.68405 146.96378M-1.23938 142.63724-4.04669 145.44449-6.85402 148.25176-10.82368 148.25182-14.491 149.7708-17.29778 152.57738M-6.85402 148.25176-8.37318 151.91902-11.17989 154.72573-14.84679 156.24465M-6.85402 148.25176-8.37318 151.91902-9.89235 155.58629-13.55925 157.10521-16.36565 159.91155-17.88445 163.57802M-9.89235 155.58629-9.89241 159.5551-11.41109 163.22164-14.21707 166.02779M6.09744 139.59781 6.0975 143.56833 6.09756 147.53884 3.29031 150.34622 1.77109 154.01398 1.77103 157.98369M6.09756 147.53884 7.61673 151.20659V155.17626L6.09775 158.84358M6.09756 147.53884 4.5784 151.20659 3.05923 154.87435-.60802 156.39363-3.41466 159.20046-4.93346 162.86748M3.05923 154.87435 3.05936 158.84358 1.54056 162.51049-1.26566 165.31694M3.05923 154.87435 .25272 157.68119-2.5538 160.488-6.52261 160.48825-10.18909 162.00711-12.99513 164.81322M-2.5538 160.488-4.07242 164.1546-6.8784 166.96083-10.54445 168.47963M6.09744 139.59781 4.57797 143.26636 3.0585 146.93489-.6094 148.45449-3.41655 151.26187-4.93565 154.92961M3.0585 146.93489 3.05862 150.90499 1.53952 154.57268-1.26729 157.37975M3.0585 146.93489 1.53929 150.60308 .02007 154.27126-3.64755 155.79067-6.45445 158.5978-7.97337 162.26519M.02007 154.27126 .02019 158.2409-1.49872 161.90824-4.30525 164.71501M.02007 154.27126-3.64706 155.7906-7.31421 157.30994-10.98123 155.79138-14.95004 155.79169-18.61652 157.31061M-7.31421 157.30994-10.12044 160.11647-13.78685 161.63545-17.75523 161.63576M-7.31421 157.30994-10.12044 160.11647-12.92667 162.923-16.89505 162.92331-20.5611 164.44205-23.36678 167.24791M-12.92667 162.923-14.4451 166.58917-17.25072 169.3951-20.91634 170.91371M-12.92667 162.923-14.4451 166.58917-15.96353 170.25534-19.62915 171.77396-22.43452 174.57958-23.95265 178.24501M-15.96353 170.25534-15.96341 174.22281-17.48154 177.88814-20.28654 180.69339M.02007 154.27126 .02031 158.24037 .02054 162.20948-2.78554 165.016-4.30397 168.68254-4.30373 172.6508M.02054 162.20948 1.53929 165.87584 1.53934 169.8441 .02084 173.51015M.02054 162.20948-1.49794 165.87596-3.01643 169.54244-6.6823 171.0613-9.48773 173.8672-11.0058 177.5329M-3.01643 169.54244-3.01619 173.51027-4.53432 177.17595-7.33945 179.98157M-3.01643 169.54244-5.82187 172.34835-8.6273 175.15427-12.59465 175.15464-16.25972 176.67307-19.0646 179.47832M-8.6273 175.15427-10.14525 178.81952-12.95007 181.62477-16.61472 183.1431M.02007 154.27126-3.64664 155.79042-7.31335 157.30959-10.97989 155.79126-14.9481 155.79163-18.61397 157.31037M-7.31335 157.30959-10.11922 160.11568-13.78508 161.63436-17.7528 161.63454M-7.31335 157.30959-10.97964 158.8285-14.64595 160.34743-18.31206 158.82917-22.27989 158.8294-25.94545 160.3479M-14.64595 160.34743-17.45155 163.15322-21.11713 164.6717-25.08453 164.67189M-14.64595 160.34743-18.31169 158.82929-21.97743 157.31116-23.49599 153.64609-26.30136 150.84127-29.96631 149.32355M-21.97743 157.31116-25.94441 157.3114-29.60931 155.79364-32.41432 152.98912M-21.97743 157.31116-25.94441 157.3114-29.9114 157.31165-32.71642 154.50713-36.38087 152.98955-40.34695 152.98978M-29.9114 157.31165-33.5758 158.82959-37.54195 158.82971-41.206 157.31214M-29.9114 157.31165-33.5758 158.82959-37.24022 160.34754-40.90427 158.82996-44.86996 158.83002-48.53365 160.34749M-37.24022 160.34754-40.0445 163.1517-43.70818 164.66922H-47.67346M-14.64595 160.34743-17.45137 163.15291-20.2568 165.9584-24.22386 165.95853-27.88875 167.4766-30.69363 170.28137M-20.2568 165.9584-21.77489 169.6233-24.57965 172.42819-28.24405 173.9462M-20.2568 165.9584-23.92165 167.47655-27.58647 168.99468-31.251 167.4769-35.2172 167.47696-38.8813 168.99462M-27.58647 168.99468-30.39111 171.79914-34.05528 173.31678-38.02106 173.31671M-27.58647 168.99468H-31.55267-35.51888L-38.32321 166.19057-41.98688 164.67311-45.95216 164.67317M-35.51888 168.99468-39.1826 170.51219H-43.14795L-46.81126 168.99486M-14.64595 160.34743-17.45137 163.15291-20.2568 165.9584-24.22386 165.95853-27.88875 167.4766-30.69363 170.28137M-20.2568 165.9584-21.77489 169.6233-24.57965 172.42819-28.24405 173.9462M-20.2568 165.9584-23.06194 168.7636-25.86707 171.56879-29.8337 171.56891-33.49821 173.08679-36.30286 175.89127M-25.86707 171.56879-27.38503 175.23326-30.18954 178.03778-33.85358 179.55554M-25.86707 171.56879-29.83327 171.56885-33.79947 171.56891-36.6038 168.76482-40.26749 167.24736-44.23276 167.24742M-33.79947 171.56891-37.4632 173.08644H-41.42854L-45.09186 171.56909M-33.79947 171.56891-37.4632 173.08644-41.12694 174.60396-44.79025 173.08663H-48.75517L-52.41812 174.60378M-41.12694 174.60396-43.93066 177.40744-47.59361 178.92455-51.55804 178.92443M-41.12694 174.60396-43.93066 177.40744-46.7344 180.21094-50.69884 180.21082-54.3613 181.72772-57.16441 184.53055M-46.7344 180.21094-48.25174 183.87334-51.05493 186.67621-54.71715 188.19295M-25.86707 171.56879-27.38484 175.23284-28.9026 178.89688-32.56622 180.41446-35.37007 183.2183-36.88747 186.8815M-28.9026 178.89688-28.90273 182.86215-30.42012 186.5254-33.22368 189.32909M-28.9026 178.89688-31.70645 181.70073-34.51031 184.50458-38.4751 184.50464-42.13792 186.0218-44.94124 188.82492M-34.51031 184.50458-36.02759 188.16735-38.83083 190.97054-42.49323 192.48757M-34.51031 184.50458-38.17313 186.0218-41.83595 187.53902-45.49835 186.02204H-49.46231L-53.12434 187.53884M-41.83595 187.53902-44.63896 190.3419-48.301 191.85869H-52.26451M-25.86707 171.56879-27.38484 175.23284-28.9026 178.89688-32.56622 180.41446-35.37007 183.2183-36.88747 186.8815M-28.9026 178.89688-28.90273 182.86215-30.42012 186.5254-33.22368 189.32909M-28.9026 178.89688-30.42018 182.56049-31.93777 186.2241-35.60095 187.7415-38.40457 190.54506-39.92184 194.20783M-31.93777 186.2241-31.93784 190.1889-33.45499 193.85173-36.2581 196.65503M-31.93777 186.2241-35.60054 187.74138-39.26329 189.25867-42.92569 187.74175-46.88959 187.7418-50.55156 189.2586M-39.26329 189.25867-42.0663 192.0616-45.72833 193.57846-49.69185 193.57852M-39.26329 189.25867-42.0663 192.0616-44.8693 194.86455-48.83282 194.86461-52.49449 196.38127-55.29695 199.18355M-44.8693 194.86455-46.3861 198.52616-49.18849 201.32849-52.84973 202.84503M-44.8693 194.86455-46.3861 198.52616-47.9029 202.18776-51.56413 203.70432-54.36623 206.50629-55.8827 210.16704M-47.9029 202.18776-47.90306 206.1505-49.41956 209.81137-52.22134 212.61316M-31.93777 186.2241-31.93784 190.18848-31.9379 194.15285-34.74077 196.95586-36.25757 200.61789V204.5814M-31.9379 194.15285-30.4211 197.81488V201.77841L-31.93777 205.44008M-31.9379 194.15285-33.45468 197.81488-34.97148 201.47692-38.63303 202.99372-41.4353 205.79605-42.95184 209.45723M-34.97148 201.47692-34.97142 205.43996-36.4879 209.10114-39.28981 211.90317M-34.97148 201.47692-37.77368 204.27938-40.5759 207.08184-44.5385 207.08208-48.19926 208.59856-51.00093 211.40029M-40.5759 207.08184-42.09215 210.7427-44.89374 213.54462-48.55414 215.06105M.02007 154.27126 .02025 158.23995 .02042 162.20864-2.78535 165.01485-4.3036 168.68097-4.30338 172.6488M.02042 162.20864 1.53899 165.87468 1.53905 169.84258 .02072 173.50826M.02042 162.20864 .02054 166.1769 .02066 170.14516-2.78493 172.95096-4.30325 176.61658V180.58399M.02066 170.14516 1.53899 173.81078V177.7782L.02084 181.44345M.02066 170.14516-2.78464 172.95066-5.58994 175.75615-9.55693 175.7564-13.2217 177.27452-16.02646 180.07935M-5.58994 175.75615-7.1079 179.42098-9.91254 182.22586-13.57681 183.74393M-5.58994 175.75615-7.1079 179.42098-8.62584 183.08582-12.29013 184.60388-15.0944 187.40847-16.61186 191.07251M-8.62584 183.08582-8.62578 187.05194-10.14342 190.71599-12.94751 193.52027M-8.62584 183.08582-8.62578 187.05194-8.62572 191.01808-11.42981 193.82236-12.94728 197.48598V201.4512M-8.62572 191.01808-7.10826 194.68177-7.10832 198.64704-8.62566 202.31029M.02066 170.14516 1.5388 173.81041 3.05693 177.47568 1.53899 181.1405 1.53905 185.10707 3.05687 188.77153M3.05693 177.47568 5.86157 180.28057 7.37933 183.94503 7.37927 187.91117M3.05693 177.47568 3.05687 181.44223 3.05681 185.4088 .25235 188.21338-1.26529 191.87747V195.84325M3.05681 185.4088 4.57445 189.07283V193.03855L3.05699 196.70223M3.05681 185.4088 1.53917 189.07283 .02151 192.73688-3.64209 194.25458-6.44594 197.05857-7.96327 200.72187M.02151 192.73688V196.7021L-1.49574 200.3653-4.29918 203.1689M.02066 170.14516-1.49745 173.81041-3.01558 177.47568-6.68028 178.99387-9.485 181.79869-11.00282 185.46309M-3.01558 177.47568-3.01552 181.44223-4.53334 185.1067-7.3378 187.91129M-3.01558 177.47568-4.53352 181.1405-6.05147 184.80533-9.71576 186.32341-12.52003 189.12799-14.0375 192.79203M-6.05147 184.80533-6.0514 188.77147-7.56906 192.43552-10.37315 195.23979M-6.05147 184.80533-9.71545 186.32323-13.37944 187.84111-17.04317 186.32378-21.00845 186.32396-24.67165 187.84142M-13.37944 187.84111-16.18329 190.64496-19.84648 192.16237-23.81128 192.16243M-13.37944 187.84111-16.18329 190.64496-18.98714 193.44882-22.95193 193.44889-26.61476 194.96604-29.41808 197.76915M-18.98714 193.44882-20.50443 197.11159-23.30766 199.91477-26.97006 201.4318M-18.98714 193.44882-20.50443 197.11159-22.0217 200.77434-25.6841 202.29138-28.4871 205.09432-30.00407 208.75637M-22.0217 200.77434-22.02182 204.73824-23.53868 208.4002-26.34125 211.20284M-6.05147 184.80533-6.0514 188.77104-6.05135 192.73676-8.85515 195.54073-10.37242 199.20404-10.37236 203.16896M-6.05135 192.73676-4.53401 196.40001V200.36487L-6.05116 204.02776M-6.05135 192.73676-7.5687 196.40001-9.08603 200.06327-12.7488 201.5806-15.55199 204.3839-17.06895 208.04636M-9.08603 200.06327-9.0859 204.02764-10.60283 207.69004-13.40564 210.49309M-9.08603 200.06327-11.88916 202.86669-14.69228 205.6701-18.65628 205.67041-22.31831 207.18752-25.12096 209.99027M-14.69228 205.6701-16.20901 209.33216-19.01146 212.1349-22.67296 213.65183M-6.05147 184.80533-8.85551 187.60962-11.65955 190.4139-15.62477 190.41414-19.2879 191.9316-22.09138 194.73516M-11.65955 190.4139-13.17682 194.07721-15.98026 196.88094-19.64296 198.39839M-11.65955 190.4139-14.46333 193.21787-17.26714 196.02184-21.232 196.02202-24.8948 197.5393-27.69806 200.34255M-17.26714 196.02184-18.78429 199.68473-21.58746 202.4881-25.24988 204.00531M-17.26714 196.02184-21.23157 196.02202-25.196 196.0222-27.99918 193.21945-31.66133 191.70284-35.62486 191.70308M-25.196 196.0222-28.8581 197.53913-32.82167 197.53919-36.48334 196.0225M-25.196 196.0222-28.8581 197.53913-32.52019 199.05603-36.18185 197.53937H-40.14502L-43.80632 199.05585M-32.52019 199.05603-35.32265 201.8583-38.98395 203.3748-42.94667 203.37474M-32.52019 199.05603-35.32265 201.8583-38.12509 204.66059-42.08783 204.66053-45.74876 206.17688-48.55061 208.9786M-38.12509 204.66059-39.64165 208.32134-42.44344 211.123-46.10388 212.63919M-17.26714 196.02184-18.78416 199.6843-20.3012 203.34676-23.96324 204.8638-26.76587 207.66655-28.28255 211.32823M-20.3012 203.34676V207.31035L-21.81787 210.97202-24.62015 213.77448M-20.3012 203.34676-23.10384 206.14952-25.90648 208.95229-29.86963 208.95247-33.53087 210.46907-36.33296 213.2711M-25.90648 208.95229-27.42302 212.61359-30.22505 215.41574-33.88586 216.93228M-25.90648 208.95229-29.56772 210.46901-33.22896 211.98575-36.88997 210.46956-40.85226 210.46974-44.51273 211.98606M-33.22896 211.98575-36.03075 214.78759-39.69127 216.3039-43.6532 216.30396M.00023 63.72559"/>
</svg>
