<svg xmlns="http://www.w3.org/2000/svg" xmlns:xlink="http://www.w3.org/1999/xlink" xmlns:inkscape="http://www.inkscape.org/namespaces/inkscape" version="1.1" width="290.605" height="491.326" viewBox="0 0 290.605 491.326">
<path transform="matrix(1,0,0,-1,145.302,490.62699)" stroke-width=".3985" stroke-linecap="butt" stroke-miterlimit="10" stroke-linejoin="miter" fill="none" stroke="#008000" d="M0 0V3.9851 7.97021 11.95532 15.94043 19.92554 23.91064 27.89575 31.88086 35.86597 39.85107 43.83618 47.82129 51.8064 55.7915 59.77661 63.76172 67.74683 71.73193 75.71704 79.70215 83.68726 87.67236 91.65747 95.64258 99.62769 103.6128 107.5979 111.58301 115.56812 119.55322 123.53833 127.52344L-1.49283 131.21837-2.98566 134.9133-4.4785 138.60823-5.97133 142.30316-7.46416 145.9981-8.957 149.69303-10.44983 153.38796-11.94267 157.08289-13.4355 160.77782-14.92833 164.47275-16.42117 168.16768-17.914 171.86261-19.40685 175.55754-20.89967 179.25247-22.3925 182.94742-23.88535 186.64235-26.65356 189.509-29.42178 192.37567-32.19 195.24234-34.95822 198.10901-37.72644 200.97568-40.49466 203.84235-43.26288 206.70902-46.0311 209.57569-49.67154 211.19664-53.312 212.8176-56.95244 214.43856-60.5929 216.05951-64.57538 216.1987-68.55788 216.33789-72.30249 214.97513M-72.30249 214.97513-76.0471 213.61235M-68.55788 216.33789-72.54037 216.47708-76.52286 216.61627-80.16325 218.2371M-80.16325 218.2371-83.80363 219.85794M-76.52286 216.61627-80.26747 215.2535M-80.26747 215.2535-84.01208 213.89073M-60.5929 216.05951-64.23334 217.68047-67.87378 219.30142-71.51424 220.92238-75.15468 222.54334-77.92284 225.40988-80.691 228.27643-84.33139 229.89727M-84.33139 229.89727-87.97177 231.5181M-80.691 228.27643-83.45915 231.14298-86.22731 234.00952-87.7201 237.70427M-87.7201 237.70427-89.21286 241.39902M-86.22731 234.00952-89.8677 235.63036M-89.8677 235.63036-93.50809 237.25119M-75.15468 222.54334-79.13718 222.68253-83.11967 222.82172-86.86427 221.45896M-86.86427 221.45896-90.60889 220.09618M-83.11967 222.82172-87.10216 222.9609-91.08466 223.1001-94.72504 224.72093M-94.72504 224.72093-98.36543 226.34177M-91.08466 223.1001-94.82927 221.73732M-94.82927 221.73732-98.57388 220.37456M-46.0311 209.57569-48.79932 212.44235-51.56754 215.30902-54.33575 218.17569-57.10397 221.04236-59.8722 223.90903-62.64041 226.77568-65.40863 229.64235-68.17685 232.50902-69.6697 236.20389-71.16252 239.89876-72.65535 243.59365-74.1482 247.28852-76.91641 250.15512-79.68463 253.02172-83.32507 254.64263M-83.32507 254.64263-86.96553 256.26353M-79.68463 253.02172-82.45285 255.88832-85.22107 258.75495-86.7139 262.44975M-86.7139 262.44975-88.20674 266.14457M-85.22107 258.75495-88.86151 260.37583M-88.86151 260.37583-92.50197 261.99674M-74.1482 247.28852-75.64102 250.98339-77.13387 254.67826-78.6267 258.3731-80.11952 262.068V266.05299 270.03797L-81.6123 273.73277M-81.6123 273.73277-83.10507 277.42759M-80.11952 270.03797V274.02296 278.00794L-78.62675 281.70274M-78.62675 281.70274-77.13397 285.39756M-80.11952 278.00794-81.6123 281.70274M-81.6123 281.70274-83.10507 285.39756M-80.11952 262.068-82.88774 264.9346-85.65596 267.8012-89.29642 269.4221M-89.29642 269.4221-92.93686 271.043M-85.65596 267.8012-88.42418 270.66783-91.1924 273.53443-92.68524 277.22923M-92.68524 277.22923-94.17807 280.92405M-91.1924 273.53443-94.83286 275.15534M-94.83286 275.15534-98.4733 276.7762M-68.17685 232.50902-71.8173 234.12998-75.45775 235.75093-79.09819 237.37189-82.73865 238.99285-86.72113 239.13204-90.70363 239.27123-94.44824 237.90847M-94.44824 237.90847-98.19286 236.5457M-90.70363 239.27123-94.68613 239.41042-98.66861 239.5496-102.309 241.17044M-102.309 241.17044-105.94939 242.79128M-98.66861 239.5496-102.41322 238.18685M-102.41322 238.18685-106.15784 236.82407M-82.73865 238.99285-86.37909 240.6138-90.01955 242.23476-93.65999 243.85572-97.30043 245.47667-100.0686 248.34322-102.83676 251.20977-106.47714 252.8306M-106.47714 252.8306-110.11752 254.45143M-102.83676 251.20977-105.60492 254.07631-108.37308 256.94288-109.86584 260.6376M-109.86584 260.6376-111.35861 264.33235M-108.37308 256.94288-112.01346 258.5637M-112.01346 258.5637-115.65385 260.1845M-97.30043 245.47667-101.28293 245.61586-105.26543 245.75505-109.01004 244.39229M-109.01004 244.39229-112.75465 243.02953M-105.26543 245.75505-109.24791 245.89424-113.23041 246.03343-116.87079 247.65427M-116.87079 247.65427-120.51118 249.2751M-113.23041 246.03343-116.97502 244.67067M-116.97502 244.67067-120.71964 243.3079M-23.88535 186.64235-25.37817 190.33728-26.871 194.03221-28.36385 197.72714-29.85667 201.42208-31.34952 205.117-32.84235 208.81194-34.33517 212.50687-35.82802 216.2018-37.32085 219.89673-38.81369 223.59166-40.30652 227.28659-41.79935 230.98152-43.29219 234.67646-44.78502 238.3714-46.27786 242.06633-47.77069 245.76126V249.7463 253.73136 257.7164 261.70146 265.6865 269.67155 273.6566 277.64164L-49.26346 281.3365-50.75624 285.03138-52.24901 288.72624-53.74178 292.4211-56.50995 295.28773-59.2781 298.15434-62.91849 299.7752M-62.91849 299.7752-66.55887 301.39613M-59.2781 298.15434-62.04626 301.02095-64.81442 303.88755-66.30719 307.58235M-66.30719 307.58235-67.79996 311.27717M-64.81442 303.88755-68.4548 305.50846M-68.4548 305.50846-72.0952 307.12934M-53.74178 292.4211-55.23456 296.11598-56.72733 299.81086-58.22011 303.5057-59.71288 307.2006-59.71281 311.18559-59.71275 315.17057-61.20554 318.8654M-61.20554 318.8654-62.6983 322.5602M-59.71275 315.17057-59.71269 319.15556-59.71263 323.14057-58.21986 326.83537M-58.21986 326.83537-56.72708 330.53019M-59.71263 323.14057-61.20541 326.83537M-61.20541 326.83537-62.69818 330.53019M-59.71288 307.2006-62.48103 310.0672-65.24919 312.9338-68.88959 314.5547M-68.88959 314.5547-72.52997 316.1756M-65.24919 312.9338-68.01735 315.8004-70.7855 318.66703-72.27829 322.36183M-72.27829 322.36183-73.77106 326.05665M-70.7855 318.66703-74.4259 320.28794M-74.4259 320.28794-78.06628 321.9088M-47.77069 277.64164V281.62669 285.61174 289.59678 293.58183 297.56687 301.5519 305.53697 309.522L-46.27791 313.21687-44.78514 316.91175-43.29237 320.6066-41.79959 324.30149-41.79965 328.28648-41.79971 332.27146-43.2925 335.96626M-43.2925 335.96626-44.78526 339.66108M-41.79971 332.27146-41.79977 336.25645-41.79984 340.24143-40.30707 343.93623M-40.30707 343.93623-38.81429 347.63108M-41.79984 340.24143-43.29262 343.93623M-43.29262 343.93623-44.78539 347.63108M-41.79959 324.30149-40.30682 327.99635-38.81404 331.69123-37.32127 335.3861-35.8285 339.081-33.06035 341.94758-30.29219 344.81419-28.79941 348.509M-28.79941 348.509-27.30664 352.2038M-30.29219 344.81419-27.52403 347.6808-24.75586 350.5474-21.11548 352.1683M-21.11548 352.1683-17.4751 353.78919M-24.75586 350.5474-23.26309 354.2422M-23.26309 354.2422-21.77032 357.937M-35.8285 339.081-35.82857 343.06596-35.82863 347.05097-37.3214 350.74577M-37.3214 350.74577-38.81416 354.44059M-35.82863 347.05097-35.82869 351.03593-35.82875 355.02095-34.33597 358.71574M-34.33597 358.71574-32.8432 362.41056M-35.82875 355.02095-37.32152 358.71574M-37.32152 358.71574-38.81429 362.41056M-47.77069 309.522-49.26346 313.21687-50.75624 316.91175-52.24901 320.6066-53.74178 324.30149-56.50995 327.1681-59.2781 330.0347-62.91849 331.6556M-62.91849 331.6556-66.55887 333.2765M-59.2781 330.0347-62.04626 332.9013-64.81442 335.7679-66.30719 339.4627M-66.30719 339.4627-67.79996 343.15754M-64.81442 335.7679-68.4548 337.38883M-68.4548 337.38883-72.0952 339.0097M-53.74178 324.30149-55.23456 327.99635-56.72733 331.69123-58.22011 335.3861-59.71288 339.081-59.71281 343.06596-59.71275 347.05097-61.20554 350.74577M-61.20554 350.74577-62.6983 354.44059M-59.71275 347.05097-59.71269 351.03593-59.71263 355.02095-58.21986 358.71574M-58.21986 358.71574-56.72708 362.41056M-59.71263 355.02095-61.20541 358.71574M-61.20541 358.71574-62.69818 362.41056M-59.71288 339.081-62.48103 341.94758-65.24919 344.81419-68.88959 346.43507M-68.88959 346.43507-72.52997 348.05598M-65.24919 344.81419-68.01735 347.6808-70.7855 350.5474-72.27829 354.2422M-72.27829 354.2422-73.77106 357.937M-70.7855 350.5474-74.4259 352.1683M-74.4259 352.1683-78.06628 353.78919M-47.77069 245.76126-50.53891 248.62793-53.30713 251.49459-56.07535 254.36125-58.84357 257.2279-61.61179 260.0946-64.38 262.96128-67.14822 265.82795-69.91644 268.6946-73.5569 270.31556-77.19734 271.93653-80.83778 273.55747-84.47824 275.1784-88.46072 275.3176-92.44322 275.4568-96.18784 274.09407M-96.18784 274.09407-99.93245 272.73127M-92.44322 275.4568-96.42572 275.596-100.4082 275.73518-104.0486 277.35603M-104.0486 277.35603-107.68898 278.97685M-100.4082 275.73518-104.15282 274.3724M-104.15282 274.3724-107.89743 273.00965M-84.47824 275.1784-88.11868 276.79939-91.75914 278.42033-95.39958 280.0413-99.04002 281.66227-101.80818 284.5288-104.57635 287.39537-108.21674 289.01618M-108.21674 289.01618-111.85712 290.63703M-104.57635 287.39537-107.34451 290.2619-110.11267 293.12843-111.60544 296.82319M-111.60544 296.82319-113.0982 300.51795M-110.11267 293.12843-113.75305 294.74928M-113.75305 294.74928-117.39343 296.3701M-99.04002 281.66227-103.02252 281.80146-107.00502 281.94065-110.74963 280.57789M-110.74963 280.57789-114.49425 279.2151M-107.00502 281.94065-110.9875 282.07984-114.97 282.21903-118.61038 283.83985M-118.61038 283.83985-122.25078 285.4607M-114.97 282.21903-118.71461 280.85624M-118.71461 280.85624-122.45923 279.49348M-69.91644 268.6946-72.68466 271.56126-75.45288 274.42793-78.2211 277.2946-80.98932 280.16127-83.75754 283.02796-86.52576 285.8946-89.29398 288.76127-92.0622 291.62794-93.55504 295.3228-95.04787 299.01768-96.54071 302.71257-98.03354 306.4074-100.80176 309.27403-103.56998 312.14064-107.21042 313.76155M-107.21042 313.76155-110.85088 315.38243M-103.56998 312.14064-106.3382 315.00724-109.10641 317.87385-110.59924 321.56867M-110.59924 321.56867-112.09209 325.26347M-109.10641 317.87385-112.74686 319.49476M-112.74686 319.49476-116.38731 321.11564M-98.03354 306.4074-99.52637 310.1023-101.01921 313.79716-102.51204 317.49205-104.00487 321.1869V325.17189 329.1569L-105.49765 332.85169M-105.49765 332.85169-106.99042 336.5465M-104.00487 329.1569V333.14186 337.12687L-102.5121 340.82167M-102.5121 340.82167-101.01933 344.51646M-104.00487 337.12687-105.49765 340.82167M-105.49765 340.82167-106.99042 344.51646M-104.00487 321.1869-106.7731 324.0535-109.54132 326.9201-113.18176 328.54103M-113.18176 328.54103-116.8222 330.1619M-109.54132 326.9201-112.30954 329.78675-115.07776 332.65336-116.57059 336.34815M-116.57059 336.34815-118.06342 340.04295M-115.07776 332.65336-118.7182 334.27424M-118.7182 334.27424-122.35864 335.89515M-92.0622 291.62794-95.70265 293.2489-99.3431 294.86985-102.98355 296.4908-106.624 298.11177-110.60649 298.25096-114.58897 298.39015-118.33359 297.02738M-118.33359 297.02738-122.0782 295.6646M-114.58897 298.39015-118.57147 298.52934-122.55397 298.66853-126.19435 300.28935M-126.19435 300.28935-129.83473 301.9102M-122.55397 298.66853-126.29857 297.30577M-126.29857 297.30577-130.04319 295.943M-106.624 298.11177-110.26443 299.7327-113.90489 301.35368-117.54533 302.9746-121.18579 304.59559-123.95395 307.46214-126.7221 310.32868-130.36249 311.94953M-130.36249 311.94953-134.00289 313.57035M-126.7221 310.32868-129.49027 313.19523-132.25843 316.06178-133.75119 319.75654M-133.75119 319.75654-135.24398 323.45127M-132.25843 316.06178-135.8988 317.6826M-135.8988 317.6826-139.5392 319.30345M-121.18579 304.59559-125.16827 304.73478-129.15077 304.87397-132.89539 303.5112M-132.89539 303.5112-136.64 302.14845M-129.15077 304.87397-133.13327 305.01316-137.11576 305.15235-140.75615 306.7732M-140.75615 306.7732-144.39653 308.394M-137.11576 305.15235-140.86037 303.78959M-140.86037 303.78959-144.60498 302.42683M0 127.52344V131.50855 135.49365 139.47876 143.46387 147.44898 151.43408 155.41919 159.4043 163.3894 167.37451 171.35962 175.34473 179.32984 183.31494 187.30005 191.28516 195.27027 199.25537 203.24048 207.22559 211.2107 215.1958 219.18091 223.16602 227.15113 231.13623 235.12134 239.10645 243.09156 247.07666 251.06177 255.04688L1.49283 258.7418 2.98566 262.43675 4.4785 266.13169 5.97133 269.8266 7.46416 273.5215 8.957 277.21647 10.44983 280.91139 11.94267 284.60633 13.4355 288.30125 14.92833 291.9962 16.42117 295.69114 17.914 299.38606 19.40685 303.081 20.89967 306.7759 22.3925 310.47087 23.88535 314.1658V318.15083 322.1359 326.12095 330.10597 334.09104 338.07609 342.0611 346.04618L22.39256 349.74104 20.8998 353.4359 19.40701 357.13078 17.91425 360.82566 15.14609 363.69227 12.37793 366.55885 8.73755 368.17976M8.73755 368.17976 5.09715 369.80064M12.37793 366.55885 9.60977 369.42546 6.84161 372.29209 5.34885 375.98689M5.34885 375.98689 3.85606 379.6817M6.84161 372.29209 3.20122 373.91297M3.20122 373.91297-.43915 375.53388M17.91425 360.82566 16.42148 364.5205 14.9287 368.2154 13.43593 371.91026 11.94315 375.60514 11.9432 379.5901 11.94327 383.5751 10.4505 387.2699M10.4505 387.2699 8.95773 390.96473M11.94327 383.5751 11.94333 387.56007 11.94339 391.54508 13.43617 395.23988M13.43617 395.23988 14.92894 398.9347M11.94339 391.54508 10.45062 395.23988M10.45062 395.23988 8.95786 398.9347M11.94315 375.60514 9.17499 378.47175 6.40683 381.33833 2.76645 382.95924M2.76645 382.95924-.87392 384.5801M6.40683 381.33833 3.63867 384.20494 .87051 387.07157-.62224 390.76637M-.62224 390.76637-2.11502 394.46119M.87051 387.07157-2.76985 388.69245M-2.76985 388.69245-6.41025 390.31336M23.88535 346.04618V350.0312 354.01625 358.0013 361.98634 365.9714 369.95646 373.94148 377.92655L25.37811 381.6214 26.87088 385.31629 28.36366 389.01115 29.85643 392.70603 29.85637 396.691 29.85631 400.676 28.36354 404.3708M28.36354 404.3708 26.87077 408.0656M29.85631 400.676 29.85625 404.66096 29.85619 408.64595 31.34897 412.34077M31.34897 412.34077 32.84174 416.03559M29.85619 408.64595 28.36342 412.34077M28.36342 412.34077 26.87065 416.03559M29.85643 392.70603 31.34921 396.40089 32.84198 400.09577 34.33476 403.79063 35.82753 407.4855 38.59569 410.3521 41.36385 413.2187 42.85661 416.9135M42.85661 416.9135 44.3494 420.60835M41.36385 413.2187 44.132 416.0853 46.90016 418.95195 50.54056 420.5728M50.54056 420.5728 54.18094 422.1937M46.90016 418.95195 48.39293 422.64674M48.39293 422.64674 49.88571 426.34156M35.82753 407.4855 35.82747 411.4705 35.82741 415.45549 34.33464 419.15028M34.33464 419.15028 32.84186 422.8451M35.82741 415.45549 35.82735 419.44047 35.82729 423.42546 37.32005 427.12025M37.32005 427.12025 38.81284 430.81507M35.82729 423.42546 34.33452 427.12025M34.33452 427.12025 32.84174 430.81507M23.88535 377.92655 22.39256 381.6214 20.8998 385.31629 19.40701 389.01115 17.91425 392.70603 15.14609 395.57264 12.37793 398.4392 8.73755 400.06013M8.73755 400.06013 5.09715 401.68104M12.37793 398.4392 9.60977 401.30583 6.84161 404.17247 5.34885 407.86726M5.34885 407.86726 3.85606 411.56208M6.84161 404.17247 3.20122 405.79335M3.20122 405.79335-.43915 407.4142M17.91425 392.70603 16.42148 396.40089 14.9287 400.09577 13.43593 403.79063 11.94315 407.4855 11.9432 411.4705 11.94327 415.45549 10.4505 419.15028M10.4505 419.15028 8.95773 422.8451M11.94327 415.45549 11.94333 419.44047 11.94339 423.42546 13.43617 427.12025M13.43617 427.12025 14.92894 430.81507M11.94339 423.42546 10.45062 427.12025M10.45062 427.12025 8.95786 430.81507M11.94315 407.4855 9.17499 410.3521 6.40683 413.2187 2.76645 414.8396M2.76645 414.8396-.87392 416.4605M6.40683 413.2187 3.63867 416.0853 .87051 418.95195-.62224 422.64674M-.62224 422.64674-2.11502 426.34156M.87051 418.95195-2.76985 420.5728M-2.76985 420.5728-6.41025 422.1937M23.88535 314.1658 25.37817 317.86073 26.871 321.55567 28.36385 325.25059 29.85667 328.9455 31.34952 332.64045 32.84235 336.33537 34.33517 340.0303 35.82802 343.72523 37.32085 347.42018 38.81369 351.1151 40.30652 354.81004 41.79935 358.50498 43.29219 362.1999 44.78502 365.89485 46.27786 369.58979 47.77069 373.2847 50.53891 376.15138 53.30713 379.018 56.07535 381.8847 58.84357 384.75138 61.61179 387.61805 64.38 390.4847 67.14822 393.35136 69.91644 396.21803 71.40929 399.9129 72.90211 403.60777 74.39494 407.30265 75.88779 410.9975V414.9825 418.96748L74.395 422.6623M74.395 422.6623 72.90224 426.35713M75.88779 418.96748V422.95249 426.93745L77.38055 430.6323M77.38055 430.6323 78.87332 434.3271M75.88779 426.93745 74.395 430.6323M74.395 430.6323 72.90224 434.3271M75.88779 410.9975 77.38062 414.69239 78.87344 418.38728 80.36629 422.08216 81.85912 425.777 84.62733 428.64363 87.39555 431.51023 88.8884 435.20503M88.8884 435.20503 90.38123 438.89985M87.39555 431.51023 90.16377 434.37684 92.93199 437.2434 96.57245 438.86433M96.57245 438.86433 100.21289 440.4852M92.93199 437.2434 94.42484 440.93827M94.42484 440.93827 95.91766 444.63307M81.85912 425.777V429.762 433.74699L80.36635 437.4418M80.36635 437.4418 78.87357 441.1366M81.85912 433.74699V437.73197 441.71696L83.3519 445.41178M83.3519 445.41178 84.84467 449.10658M81.85912 441.71696 80.36635 445.41178M80.36635 445.41178 78.87357 449.10658M69.91644 396.21803 72.68466 399.0847 75.45288 401.95137 78.2211 404.81806 80.98932 407.68473 83.75754 410.5514 86.52576 413.41807 89.29398 416.2847 92.0622 419.15138 95.70265 420.7723 99.3431 422.39329 102.98355 424.01426 106.624 425.6352 109.39215 428.50175 112.16031 431.3683 113.65309 435.06303M113.65309 435.06303 115.14586 438.7578M112.16031 431.3683 114.92847 434.23484 117.69662 437.10139 121.33702 438.7222M121.33702 438.7222 124.9774 440.34306M117.69662 437.10139 119.1894 440.79615M119.1894 440.79615 120.68217 444.49089M106.624 425.6352 110.26443 427.25617 113.90489 428.8771 117.54533 430.49806 121.18579 432.11903 125.16827 432.2582 129.15077 432.3974 132.79116 434.01823M132.79116 434.01823 136.43155 435.63908M129.15077 432.3974 133.13327 432.5366 137.11576 432.67579 140.86037 431.31303M140.86037 431.31303 144.60498 429.95027M137.11576 432.67579 140.75615 434.29664M140.75615 434.29664 144.39653 435.91746M121.18579 432.11903 123.95395 434.98558 126.7221 437.8521 128.21488 441.54689M128.21488 441.54689 129.70766 445.2416M126.7221 437.8521 129.49027 440.71867 132.25843 443.5852 135.8988 445.20606M135.8988 445.20606 139.5392 446.82688M132.25843 443.5852 133.75119 447.27995M133.75119 447.27995 135.24398 450.9747M92.0622 419.15138 93.55504 422.84626 95.04787 426.5411 96.54071 430.236 98.03354 433.93086V437.91587 441.90083L96.54077 445.59565M96.54077 445.59565 95.04799 449.29045M98.03354 441.90083V445.88584 449.8708L99.5263 453.5656M99.5263 453.5656 101.01909 457.2604M98.03354 449.8708 96.54077 453.5656M96.54077 453.5656 95.04799 457.2604M98.03354 433.93086 99.52637 437.62574 101.01921 441.3206 102.51204 445.01548 104.00487 448.71034 106.7731 451.57695 109.54132 454.44358 111.03415 458.13838M111.03415 458.13838 112.52698 461.8332M109.54132 454.44358 112.30954 457.31019 115.07776 460.17677 118.7182 461.79768M118.7182 461.79768 122.35864 463.41856M115.07776 460.17677 116.57059 463.87159M116.57059 463.87159 118.06342 467.56639M104.00487 448.71034V452.69535 456.6803L102.5121 460.37513M102.5121 460.37513 101.01933 464.06993M104.00487 456.6803V460.6653 464.65028L105.49765 468.3451M105.49765 468.3451 106.99042 472.0399M104.00487 464.65028 102.5121 468.3451M102.5121 468.3451 101.01933 472.0399M47.77069 373.2847V377.26976 381.2548 385.23985 389.22489 393.20994 397.19499 401.18003 405.16508L46.27791 408.85997 44.78514 412.5548 43.29237 416.2497 41.79959 419.94456 39.03143 422.81117 36.26328 425.67778 32.6229 427.29866M32.6229 427.29866 28.9825 428.91957M36.26328 425.67778 33.49512 428.54438 30.72696 431.41099 29.23419 435.1058M29.23419 435.1058 27.74141 438.8006M30.72696 431.41099 27.08658 433.0319M27.08658 433.0319 23.44618 434.65278M41.79959 419.94456 40.30682 423.63945 38.81404 427.3343 37.32127 431.02919 35.8285 434.72404 35.82857 438.709 35.82863 442.694 34.33585 446.38883M34.33585 446.38883 32.84308 450.08363M35.82863 442.694 35.82869 446.679 35.82875 450.664 37.32152 454.3588M37.32152 454.3588 38.81429 458.0536M35.82875 450.664 34.33597 454.3588M34.33597 454.3588 32.8432 458.0536M35.8285 434.72404 33.06035 437.59065 30.29219 440.45726 26.6518 442.07814M26.6518 442.07814 23.01141 443.69905M30.29219 440.45726 27.52403 443.32386 24.75586 446.19047 23.26309 449.88529M23.26309 449.88529 21.77032 453.58009M24.75586 446.19047 21.11548 447.81138M21.11548 447.81138 17.4751 449.43226M47.77069 405.16508V409.15013 413.13517 417.1202 421.10527 425.0903 429.07536 433.0604 437.04545L49.26346 440.7403 50.75624 444.43519 52.24901 448.13005 53.74178 451.82493 53.74173 455.8099 53.74167 459.7949 52.24889 463.4897M52.24889 463.4897 50.75612 467.1845M53.74167 459.7949 53.74161 463.77989 53.74155 467.76487 55.23431 471.45967M55.23431 471.45967 56.72708 475.1545M53.74155 467.76487 52.24876 471.45967M52.24876 471.45967 50.756 475.1545M53.74178 451.82493 55.23456 455.51979 56.72733 459.21467 58.22011 462.90953 59.71288 466.60444 62.48103 469.471 65.24919 472.33763 66.74197 476.03245M66.74197 476.03245 68.23474 479.72727M65.24919 472.33763 68.01735 475.20423 70.7855 478.07084 74.4259 479.69175M74.4259 479.69175 78.06628 481.31263M70.7855 478.07084 72.27829 481.76564M72.27829 481.76564 73.77106 485.46046M59.71288 466.60444 59.71281 470.5894 59.71275 474.5744 58.21999 478.2692M58.21999 478.2692 56.7272 481.964M59.71275 474.5744 59.71269 478.55937 59.71263 482.54438 61.20541 486.23918M61.20541 486.23918 62.69818 489.934M59.71263 482.54438 58.21986 486.23918M58.21986 486.23918 56.72708 489.934M47.77069 437.04545 46.27791 440.7403 44.78514 444.43519 43.29237 448.13005 41.79959 451.82493 39.03143 454.69154 36.26328 457.55815 32.6229 459.17903M32.6229 459.17903 28.9825 460.79994M36.26328 457.55815 33.49512 460.42475 30.72696 463.29136 29.23419 466.98616M29.23419 466.98616 27.74141 470.68098M30.72696 463.29136 27.08658 464.91227M27.08658 464.91227 23.44618 466.53315M41.79959 451.82493 40.30682 455.51979 38.81404 459.21467 37.32127 462.90953 35.8285 466.60444 35.82857 470.5894 35.82863 474.5744 34.33585 478.2692M34.33585 478.2692 32.84308 481.964M35.82863 474.5744 35.82869 478.55937 35.82875 482.54438 37.32152 486.23918M37.32152 486.23918 38.81429 489.934M35.82875 482.54438 34.33597 486.23918M34.33597 486.23918 32.8432 489.934M35.8285 466.60444 33.06035 469.471 30.29219 472.33763 26.6518 473.9585M26.6518 473.9585 23.01141 475.5794M30.29219 472.33763 27.52403 475.20423 24.75586 478.07084 23.26309 481.76564M23.26309 481.76564 21.77032 485.46046M24.75586 478.07084 21.11548 479.69175M21.11548 479.69175 17.4751 481.31263M0 255.04688-1.49283 258.7418-2.98566 262.43675-4.4785 266.13169-5.97133 269.8266-7.46416 273.5215-8.957 277.21647-10.44983 280.91139-11.94267 284.60633-13.4355 288.30125-14.92833 291.9962-16.42117 295.69114-17.914 299.38606-19.40685 303.081-20.89967 306.7759-22.3925 310.47087-23.88535 314.1658-26.65356 317.03245-29.42178 319.8991-32.19 322.76579-34.95822 325.63246-37.72644 328.4991-40.49466 331.36579-43.26288 334.23246-46.0311 337.09913-49.67154 338.7201-53.312 340.34104-56.95244 341.96199-60.5929 343.58296-64.57538 343.72215-68.55788 343.86134-72.30249 342.49858M-72.30249 342.49858-76.0471 341.1358M-68.55788 343.86134-72.54037 344.00053-76.52286 344.1397-80.16325 345.76054M-80.16325 345.76054-83.80363 347.38139M-76.52286 344.1397-80.26747 342.77693M-80.26747 342.77693-84.01208 341.41419M-60.5929 343.58296-64.23334 345.2039-67.87378 346.82487-71.51424 348.44584-75.15468 350.06678-77.92284 352.93333-80.691 355.79988-84.33139 357.4207M-84.33139 357.4207-87.97177 359.04154M-80.691 355.79988-83.45915 358.6664-86.22731 361.53297-87.7201 365.2277M-87.7201 365.2277-89.21286 368.92247M-86.22731 361.53297-89.8677 363.1538M-89.8677 363.1538-93.50809 364.77464M-75.15468 350.06678-79.13718 350.20597-83.11967 350.34516-86.86427 348.9824M-86.86427 348.9824-90.60889 347.6196M-83.11967 350.34516-87.10216 350.48435-91.08466 350.62355-94.72504 352.2444M-94.72504 352.2444-98.36543 353.8652M-91.08466 350.62355-94.82927 349.26078M-94.82927 349.26078-98.57388 347.898M-46.0311 337.09913-48.79932 339.9658-51.56754 342.83247-54.33575 345.69914-57.10397 348.5658-59.8722 351.43247-62.64041 354.29914-65.40863 357.1658-68.17685 360.03248-69.6697 363.72734-71.16252 367.4222-72.65535 371.11708-74.1482 374.81196-76.91641 377.67857-79.68463 380.54515-83.32507 382.16606M-83.32507 382.16606-86.96553 383.78697M-79.68463 380.54515-82.45285 383.41178-85.22107 386.27839-86.7139 389.97319M-86.7139 389.97319-88.20674 393.668M-85.22107 386.27839-88.86151 387.89927M-88.86151 387.89927-92.50197 389.52018M-74.1482 374.81196-75.64102 378.5068-77.13387 382.2017-78.6267 385.89656-80.11952 389.59144V393.57643 397.5614L-81.6123 401.2562M-81.6123 401.2562-83.10507 404.95103M-80.11952 397.5614V401.5464 405.53138L-78.62675 409.22618M-78.62675 409.22618-77.13397 412.921M-80.11952 405.53138-81.6123 409.22618M-81.6123 409.22618-83.10507 412.921M-80.11952 389.59144-82.88774 392.45805-85.65596 395.32466-89.29642 396.94554M-89.29642 396.94554-92.93686 398.56645M-85.65596 395.32466-88.42418 398.19126-91.1924 401.05787-92.68524 404.75267M-92.68524 404.75267-94.17807 408.44749M-91.1924 401.05787-94.83286 402.67878M-94.83286 402.67878-98.4733 404.29966M-68.17685 360.03248-71.8173 361.6534-75.45775 363.27439-79.09819 364.89533-82.73865 366.51628-86.72113 366.65547-90.70363 366.79466-94.44824 365.4319M-94.44824 365.4319-98.19286 364.06916M-90.70363 366.79466-94.68613 366.93385-98.66861 367.07304-102.309 368.69389M-102.309 368.69389-105.94939 370.3147M-98.66861 367.07304-102.41322 365.71028M-102.41322 365.71028-106.15784 364.3475M-82.73865 366.51628-86.37909 368.13725-90.01955 369.7582-93.65999 371.37916-97.30043 373.0001-100.0686 375.86665-102.83676 378.7332-106.47714 380.35404M-106.47714 380.35404-110.11752 381.97489M-102.83676 378.7332-105.60492 381.59977-108.37308 384.4663-109.86584 388.16105M-109.86584 388.16105-111.35861 391.8558M-108.37308 384.4663-112.01346 386.08714M-112.01346 386.08714-115.65385 387.70796M-97.30043 373.0001-101.28293 373.1393-105.26543 373.2785-109.01004 371.91575M-109.01004 371.91575-112.75465 370.55296M-105.26543 373.2785-109.24791 373.4177-113.23041 373.5569-116.87079 375.1777M-116.87079 375.1777-120.51118 376.79856M-113.23041 373.5569-116.97502 372.1941M-116.97502 372.1941-120.71964 370.83134M-23.88535 314.1658-25.37817 317.86073-26.871 321.55567-28.36385 325.25059-29.85667 328.9455-31.34952 332.64045-32.84235 336.33537-34.33517 340.0303-35.82802 343.72523-37.32085 347.42018-38.81369 351.1151-40.30652 354.81004-41.79935 358.50498-43.29219 362.1999-44.78502 365.89485-46.27786 369.58979-47.77069 373.2847V377.26976 381.2548 385.23985 389.22489 393.20994 397.19499 401.18003 405.16508L-49.26346 408.85997-50.75624 412.5548-52.24901 416.2497-53.74178 419.94456-56.50995 422.81117-59.2781 425.67778-62.91849 427.29866M-62.91849 427.29866-66.55887 428.91957M-59.2781 425.67778-62.04626 428.54438-64.81442 431.41099-66.30719 435.1058M-66.30719 435.1058-67.79996 438.8006M-64.81442 431.41099-68.4548 433.0319M-68.4548 433.0319-72.0952 434.65278M-53.74178 419.94456-55.23456 423.63945-56.72733 427.3343-58.22011 431.02919-59.71288 434.72404-59.71281 438.709-59.71275 442.694-61.20554 446.38883M-61.20554 446.38883-62.6983 450.08363M-59.71275 442.694-59.71269 446.679-59.71263 450.664-58.21986 454.3588M-58.21986 454.3588-56.72708 458.0536M-59.71263 450.664-61.20541 454.3588M-61.20541 454.3588-62.69818 458.0536M-59.71288 434.72404-62.48103 437.59065-65.24919 440.45726-68.88959 442.07814M-68.88959 442.07814-72.52997 443.69905M-65.24919 440.45726-68.01735 443.32386-70.7855 446.19047-72.27829 449.88529M-72.27829 449.88529-73.77106 453.58009M-70.7855 446.19047-74.4259 447.81138M-74.4259 447.81138-78.06628 449.43226M-47.77069 405.16508V409.15013 413.13517 417.1202 421.10527 425.0903 429.07536 433.0604 437.04545L-46.27791 440.7403-44.78514 444.43519-43.29237 448.13005-41.79959 451.82493-41.79965 455.8099-41.79971 459.7949-43.2925 463.4897M-43.2925 463.4897-44.78526 467.1845M-41.79971 459.7949-41.79977 463.77989-41.79984 467.76487-40.30707 471.45967M-40.30707 471.45967-38.81429 475.1545M-41.79984 467.76487-43.29262 471.45967M-43.29262 471.45967-44.78539 475.1545M-41.79959 451.82493-40.30682 455.51979-38.81404 459.21467-37.32127 462.90953-35.8285 466.60444-33.06035 469.471-30.29219 472.33763-28.79941 476.03245M-28.79941 476.03245-27.30664 479.72727M-30.29219 472.33763-27.52403 475.20423-24.75586 478.07084-21.11548 479.69175M-21.11548 479.69175-17.4751 481.31263M-24.75586 478.07084-23.26309 481.76564M-23.26309 481.76564-21.77032 485.46046M-35.8285 466.60444-35.82857 470.5894-35.82863 474.5744-37.3214 478.2692M-37.3214 478.2692-38.81416 481.964M-35.82863 474.5744-35.82869 478.55937-35.82875 482.54438-34.33597 486.23918M-34.33597 486.23918-32.8432 489.934M-35.82875 482.54438-37.32152 486.23918M-37.32152 486.23918-38.81429 489.934M-47.77069 437.04545-49.26346 440.7403-50.75624 444.43519-52.24901 448.13005-53.74178 451.82493-56.50995 454.69154-59.2781 457.55815-62.91849 459.17903M-62.91849 459.17903-66.55887 460.79994M-59.2781 457.55815-62.04626 460.42475-64.81442 463.29136-66.30719 466.98616M-66.30719 466.98616-67.79996 470.68098M-64.81442 463.29136-68.4548 464.91227M-68.4548 464.91227-72.0952 466.53315M-53.74178 451.82493-55.23456 455.51979-56.72733 459.21467-58.22011 462.90953-59.71288 466.60444-59.71281 470.5894-59.71275 474.5744-61.20554 478.2692M-61.20554 478.2692-62.6983 481.964M-59.71275 474.5744-59.71269 478.55937-59.71263 482.54438-58.21986 486.23918M-58.21986 486.23918-56.72708 489.934M-59.71263 482.54438-61.20541 486.23918M-61.20541 486.23918-62.69818 489.934M-59.71288 466.60444-62.48103 469.471-65.24919 472.33763-68.88959 473.9585M-68.88959 473.9585-72.52997 475.5794M-65.24919 472.33763-68.01735 475.20423-70.7855 478.07084-72.27829 481.76564M-72.27829 481.76564-73.77106 485.46046M-70.7855 478.07084-74.4259 479.69175M-74.4259 479.69175-78.06628 481.31263M-47.77069 373.2847-50.53891 376.15138-53.30713 379.018-56.07535 381.8847-58.84357 384.75138-61.61179 387.61805-64.38 390.4847-67.14822 393.35136-69.91644 396.21803-73.5569 397.839-77.19734 399.45997-80.83778 401.0809-84.47824 402.70188-88.46072 402.84107-92.44322 402.98027-96.18784 401.6175M-96.18784 401.6175-99.93245 400.2547M-92.44322 402.98027-96.42572 403.11943-100.4082 403.2586-104.0486 404.87947M-104.0486 404.87947-107.68898 406.5003M-100.4082 403.2586-104.15282 401.89585M-104.15282 401.89585-107.89743 400.53309M-84.47824 402.70188-88.11868 404.3228-91.75914 405.94377-95.39958 407.56474-99.04002 409.18568-101.80818 412.05223-104.57635 414.9188-108.21674 416.5396M-108.21674 416.5396-111.85712 418.16047M-104.57635 414.9188-107.34451 417.7853-110.11267 420.65187-111.60544 424.34663M-111.60544 424.34663-113.0982 428.04139M-110.11267 420.65187-113.75305 422.2727M-113.75305 422.2727-117.39343 423.89356M-99.04002 409.18568-103.02252 409.32487-107.00502 409.46409-110.74963 408.1013M-110.74963 408.1013-114.49425 406.73854M-107.00502 409.46409-110.9875 409.60328-114.97 409.74247-118.61038 411.36329M-118.61038 411.36329-122.25078 412.98414M-114.97 409.74247-118.71461 408.37968M-118.71461 408.37968-122.45923 407.0169M-69.91644 396.21803-72.68466 399.0847-75.45288 401.95137-78.2211 404.81806-80.98932 407.68473-83.75754 410.5514-86.52576 413.41807-89.29398 416.2847-92.0622 419.15138-93.55504 422.84626-95.04787 426.5411-96.54071 430.236-98.03354 433.93086-100.80176 436.79747-103.56998 439.6641-107.21042 441.28498M-107.21042 441.28498-110.85088 442.90589M-103.56998 439.6641-106.3382 442.53068-109.10641 445.39729-110.59924 449.0921M-110.59924 449.0921-112.09209 452.7869M-109.10641 445.39729-112.74686 447.01817M-112.74686 447.01817-116.38731 448.63908M-98.03354 433.93086-99.52637 437.62574-101.01921 441.3206-102.51204 445.01548-104.00487 448.71034V452.69535 456.6803L-105.49765 460.37513M-105.49765 460.37513-106.99042 464.06993M-104.00487 456.6803V460.6653 464.65028L-102.5121 468.3451M-102.5121 468.3451-101.01933 472.0399M-104.00487 464.65028-105.49765 468.3451M-105.49765 468.3451-106.99042 472.0399M-104.00487 448.71034-106.7731 451.57695-109.54132 454.44358-113.18176 456.06446M-113.18176 456.06446-116.8222 457.68537M-109.54132 454.44358-112.30954 457.31019-115.07776 460.17677-116.57059 463.87159M-116.57059 463.87159-118.06342 467.56639M-115.07776 460.17677-118.7182 461.79768M-118.7182 461.79768-122.35864 463.41856M-92.0622 419.15138-95.70265 420.7723-99.3431 422.39329-102.98355 424.01426-106.624 425.6352-110.60649 425.77439-114.58897 425.91358-118.33359 424.5508M-118.33359 424.5508-122.0782 423.18806M-114.58897 425.91358-118.57147 426.05278-122.55397 426.19197-126.19435 427.8128M-126.19435 427.8128-129.83473 429.43363M-122.55397 426.19197-126.29857 424.8292M-126.29857 424.8292-130.04319 423.46644M-106.624 425.6352-110.26443 427.25617-113.90489 428.8771-117.54533 430.49806-121.18579 432.11903-123.95395 434.98558-126.7221 437.8521-130.36249 439.47297M-130.36249 439.47297-134.00289 441.09379M-126.7221 437.8521-129.49027 440.71867-132.25843 443.5852-133.75119 447.27995M-133.75119 447.27995-135.24398 450.9747M-132.25843 443.5852-135.8988 445.20606M-135.8988 445.20606-139.5392 446.82688M-121.18579 432.11903-125.16827 432.2582-129.15077 432.3974-132.89539 431.03465M-132.89539 431.03465-136.64 429.67189M-129.15077 432.3974-133.13327 432.5366-137.11576 432.67579-140.75615 434.29664M-140.75615 434.29664-144.39653 435.91746M-137.11576 432.67579-140.86037 431.31303M-140.86037 431.31303-144.60498 429.95027M-144.60498 429.95027"/>
</svg>
