<svg xmlns="http://www.w3.org/2000/svg" xmlns:xlink="http://www.w3.org/1999/xlink" xmlns:inkscape="http://www.inkscape.org/namespaces/inkscape" version="1.1" width="534.95999" height="413.03999" viewBox="0 0 534.95999 413.03999">
<defs>
<clipPath id="clip_1">
<path transform="matrix(.24,0,0,.24,0,0)" d="M0 0H2229.1666V1720.4977H0Z" clip-rule="evenodd"/>
</clipPath>
<clipPath id="clip_2">
<path transform="matrix(.24,0,0,.24,0,0)" d="M0 0H2229.1666V1714.5133H0Z" clip-rule="evenodd"/>
</clipPath>
<path id="font_3_48" d="M.07421875 0V.7158203H.21679688L.38623048 .20898438C.40185548 .16178386 .4132487 .12646485 .42041017 .103027347 .4285482 .12906902 .4412435 .1673177 .4584961 .21777344L.6298828 .7158203H.7573242V0H.6660156V.5991211L.4580078 0H.3725586L.16552735 .609375V0H.07421875Z"/>
<path id="font_3_40" d="M.07910156 0V.7158203H.5966797V.63134768H.17382813V.41210938H.5698242V.32910157H.17382813V.084472659H.61328127V0H.07910156Z"/>
<path id="font_3_42" d="M.41210938 .28222657V.36523438L.71533206 .36572267V.10058594C.66878256 .063313808 .62076827 .03527832 .57128909 .016479493 .5218099-.002319336 .47102867-.01171875 .4189453-.01171875 .3486328-.01171875 .28474937 .0033365887 .22729492 .033447267 .1698405 .063557948 .12646485 .10709635 .09716797 .1640625 .067871097 .22102864 .053222658 .28466798 .053222658 .35498048 .053222658 .42464195 .06778971 .4896647 .09692383 .5500488 .12605794 .6104329 .16796875 .65527346 .22265625 .6845703 .27734376 .7138672 .34033204 .7285156 .4116211 .7285156 .4633789 .7285156 .51017257 .7201538 .55200198 .7034302 .59383139 .68670657 .6266276 .6634013 .6503906 .6335144 .6741536 .6036377 .69222006 .56466677 .70458987 .51660159L.6191406 .49316407C.60839846 .5296224 .59505209 .55826827 .57910159 .57910159 .56315109 .5999349 .54036459 .61661788 .5107422 .6291504 .48111979 .6416829 .4482422 .6479492 .41210938 .6479492 .3688151 .6479492 .33138023 .64135238 .2998047 .62815859 .26822917 .6149648 .24275716 .59761556 .22338867 .57611086 .20402019 .55460616 .18896485 .53098556 .17822266 .505249 .15999349 .4609375 .1508789 .41288249 .1508789 .36108399 .1508789 .29723106 .16186524 .24379985 .18383789 .2007904 .20581055 .15778096 .23779297 .12584941 .27978517 .10499573 .32177735 .08415222 .3663737 .07373047 .41357423 .07373047 .45458985 .07373047 .4946289 .08167521 .5336914 .0975647 .5727539 .113454189 .6023763 .13041179 .6225586 .1484375V.28222657H.41210938Z"/>
<path id="font_3_54" d="M.044921876 .23046875 .13427735 .23828125C.13850911 .20247396 .14835613 .1730957 .16381836 .15014649 .1792806 .12719727 .20328777 .10864258 .23583985 .09448242 .26839195 .080322269 .30501304 .07324219 .34570313 .07324219 .38183595 .07324219 .41373698 .07861328 .44140626 .08935547 .46907554 .100097659 .4896647 .11482748 .5031738 .13354492 .5166829 .15226238 .5234375 .1726888 .5234375 .19482422 .5234375 .21728516 .51692709 .23689778 .50390627 .2536621 .4908854 .27042643 .46940104 .28450523 .43945313 .29589845 .4202474 .3033854 .37776695 .3150228 .31201173 .33081056 .24625652 .3465983 .20019531 .36149089 .17382813 .37548829 .13964844 .39339195 .11417643 .41560874 .09741211 .44213868 .08064779 .4686686 .072265628 .4983724 .072265628 .53125 .072265628 .5673828 .08251953 .6011556 .103027347 .63256838 .123535159 .66398116 .15348308 .6878255 .1928711 .70410159 .23225911 .7203776 .27604167 .7285156 .32421876 .7285156 .37727867 .7285156 .42407228 .7199707 .4645996 .70288088 .50512698 .685791 .5362956 .66064456 .55810549 .6274414 .57991537 .5942383 .5916341 .5566406 .5932617 .51464846L.5024414 .5078125C.4975586 .55322268 .48103843 .5875244 .45288087 .6107178 .4247233 .63391116 .38313804 .6455078 .328125 .6455078 .27083335 .6455078 .22908528 .6349996 .20288086 .61398318 .17667644 .59297689 .16357422 .5676524 .16357422 .53800967 .16357422 .51227316 .17285156 .49109904 .19140625 .4744873 .20963542 .4578654 .25724284 .44084168 .33422853 .42341615 .4112142 .4059906 .46402995 .39076234 .49267579 .37773133 .53434249 .3585154 .5651042 .33416239 .58496096 .30467225 .6048177 .27519227 .6147461 .24123128 .6147461 .2027893 .6147461 .16468303 .6038411 .12876892 .58203127 .095047 .5602214 .061335248 .52888998 .035110475 .4880371 .01637268 .44718424-.0023549398 .40120445-.01171875 .35009767-.01171875 .285319-.01171875 .2310384-.0022786458 .18725586 .016601563 .14347331 .03548177 .10913086 .06388346 .084228519 .10180664 .059326173 .13972982 .046223958 .18261719 .044921876 .23046875Z"/>
<path id="font_3_51" d="M.07714844 0V.7158203H.34716798C.394694 .7158203 .4309896 .71354678 .4560547 .70899966 .49121095 .70314028 .5206706 .69200137 .5444336 .6755829 .5681966 .6591644 .587321 .63615927 .60180667 .6065674 .6162923 .57698568 .62353518 .5444743 .62353518 .5090332 .62353518 .44822184 .6041667 .39676414 .5654297 .35466004 .5266927 .31255595 .45670573 .2915039 .35546876 .2915039H.171875V0H.07714844M.171875 .37597657H.3569336C.4181315 .37597657 .46158854 .38734437 .4873047 .41007997 .5130208 .4328257 .5258789 .4648336 .5258789 .5061035 .5258789 .5359904 .51831057 .5615743 .5031738 .5828552 .4880371 .60413619 .46809898 .6181895 .44335938 .62501528 .42740885 .6292369 .39794923 .63134768 .35498048 .63134768H.171875V.37597657Z"/>
</defs>
<g clip-path="url(#clip_1)">
<path transform="matrix(.71812078,0,0,.71812078,0,0)" d="M0 0H745V575H0Z" fill="#ffffff"/>
</g>
<g clip-path="url(#clip_2)">
<path transform="matrix(.71812078,0,0,.71812078,.35906039,.35906039)" stroke-width="1" stroke-linecap="butt" stroke-miterlimit="10" stroke-linejoin="miter" fill="none" stroke="#000000" d="M172.03 15.42 115.64 43.68"/>
<path transform="matrix(.71812078,0,0,.71812078,.35906039,.35906039)" d="M110.94 46.03 115.63 39.76 115.64 43.68 118.77 46.02 110.94 46.03Z"/>
<path transform="matrix(.71812078,0,0,.71812078,.35906039,.35906039)" stroke-width="1" stroke-linecap="butt" stroke-miterlimit="10" stroke-linejoin="miter" fill="none" stroke="#000000" d="M110.94 46.03 115.63 39.76 115.64 43.68 118.77 46.02 110.94 46.03Z"/>
<path transform="matrix(.71812078,0,0,.71812078,.35906039,.35906039)" stroke-width="1" stroke-linecap="butt" stroke-miterlimit="10" stroke-linejoin="miter" fill="none" stroke="#000000" d="M189.94 15.47 255.3 48.15"/>
<path transform="matrix(.71812078,0,0,.71812078,.35906039,.35906039)" d="M260 50.5H252.17L255.3 48.15V44.24L260 50.5Z"/>
<path transform="matrix(.71812078,0,0,.71812078,.35906039,.35906039)" stroke-width="1" stroke-linecap="butt" stroke-miterlimit="10" stroke-linejoin="miter" fill="none" stroke="#000000" d="M260 50.5H252.17L255.3 48.15V44.24L260 50.5Z"/>
<path transform="matrix(.71812078,0,0,.71812078,.35906039,.35906039)" d="M191 11C190.99999 11.656609 190.93593 12.30691 190.80783 12.950903 190.67974 13.594895 190.49004 14.220205 190.23876 14.826834 189.98749 15.433461 189.67946 16.00975 189.31467 16.5557 188.94988 17.10165 188.53533 17.606774 188.07105 18.071068 187.60675 18.53536 187.10163 18.949902 186.55567 19.314694 186.00972 19.679488 185.43343 19.98752 184.8268 20.238795 184.22017 20.490067 183.59487 20.679753 182.95088 20.80785 182.3069 20.93595 181.6566 20.999999 181 21 180.34339 20.999999 179.69309 20.93595 179.04909 20.80785 178.40509 20.679753 177.77979 20.490067 177.17314 20.238795 176.56652 19.98752 175.99022 19.679488 175.44428 19.314694 174.89833 18.949902 174.3932 18.53536 173.92893 18.071068 173.46463 17.606774 173.05008 17.10165 172.68529 16.5557 172.3205 16.00975 172.01247 15.433461 171.7612 14.826834 171.50992 14.220205 171.32024 13.594895 171.19214 12.950903 171.06404 12.30691 171 11.656609 171 11 171 10.34339 171.06404 9.693089 171.19214 9.049096 171.32024 8.405103 171.50992 7.7797925 171.7612 7.173165 172.01247 6.566537 172.3205 5.9902479 172.68529 5.4442975 173.05008 4.8983466 173.46463 4.3932249 173.92893 3.928932 174.3932 3.464639 174.89833 3.050096 175.44428 2.6853035 175.99022 2.3205109 176.56652 2.0124779 177.17314 1.7612045 177.77979 1.509931 178.40509 1.3202453 179.04909 1.1921471 179.69309 1.064049 180.34339 1 181 1 181.6566 1 182.3069 1.0640491 182.95088 1.1921473 183.59487 1.3202453 184.22017 1.5099311 184.8268 1.7612046 185.43343 2.0124779 186.00972 2.3205109 186.55567 2.6853035 187.10163 3.050096 187.60675 3.464639 188.07105 3.928932 188.53533 4.3932249 188.94988 4.8983466 189.31467 5.4442975 189.67946 5.9902479 189.98749 6.566537 190.23876 7.173165 190.49004 7.7797925 190.67974 8.405103 190.80783 9.049096 190.93593 9.693089 190.99999 10.34339 191 11Z" fill="#fff2cc"/>
<path transform="matrix(.71812078,0,0,.71812078,.35906039,.35906039)" stroke-width="1" stroke-linecap="butt" stroke-miterlimit="4" stroke-linejoin="miter" fill="none" stroke="#d6b656" d="M191 11C190.99999 11.656609 190.93593 12.30691 190.80783 12.950903 190.67974 13.594895 190.49004 14.220205 190.23876 14.826834 189.98749 15.433461 189.67946 16.00975 189.31467 16.5557 188.94988 17.10165 188.53533 17.606774 188.07105 18.071068 187.60675 18.53536 187.10163 18.949902 186.55567 19.314694 186.00972 19.679488 185.43343 19.98752 184.8268 20.238795 184.22017 20.490067 183.59487 20.679753 182.95088 20.80785 182.3069 20.93595 181.6566 20.999999 181 21 180.34339 20.999999 179.69309 20.93595 179.04909 20.80785 178.40509 20.679753 177.77979 20.490067 177.17314 20.238795 176.56652 19.98752 175.99022 19.679488 175.44428 19.314694 174.89833 18.949902 174.3932 18.53536 173.92893 18.071068 173.46463 17.606774 173.05008 17.10165 172.68529 16.5557 172.3205 16.00975 172.01247 15.433461 171.7612 14.826834 171.50992 14.220205 171.32024 13.594895 171.19214 12.950903 171.06404 12.30691 171 11.656609 171 11 171 10.34339 171.06404 9.693089 171.19214 9.049096 171.32024 8.405103 171.50992 7.7797925 171.7612 7.173165 172.01247 6.566537 172.3205 5.9902479 172.68529 5.4442975 173.05008 4.8983466 173.46463 4.3932249 173.92893 3.928932 174.3932 3.464639 174.89833 3.050096 175.44428 2.6853035 175.99022 2.3205109 176.56652 2.0124779 177.17314 1.7612045 177.77979 1.509931 178.40509 1.3202453 179.04909 1.1921471 179.69309 1.064049 180.34339 1 181 1 181.6566 1 182.3069 1.0640491 182.95088 1.1921473 183.59487 1.3202453 184.22017 1.5099311 184.8268 1.7612046 185.43343 2.0124779 186.00972 2.3205109 186.55567 2.6853035 187.10163 3.050096 187.60675 3.464639 188.07105 3.928932 188.53533 4.3932249 188.94988 4.8983466 189.31467 5.4442975 189.67946 5.9902479 189.98749 6.566537 190.23876 7.173165 190.49004 7.7797925 190.67974 8.405103 190.80783 9.049096 190.93593 9.693089 190.99999 10.34339 191 11Z"/>
<use data-text="M" xlink:href="#font_3_48" transform="matrix(8.617449,0,0,-8.617449,126.38925,11.489932)"/>
<path transform="matrix(.71812078,0,0,.71812078,.35906039,.35906039)" d="M341 251.5H338V250.5H341M335 251.5H332V250.5H335M329 251.5H326V250.5H329M323 251.5H320V250.5H323M317 251.5H314V250.5H317M311 251.5H308V250.5H311M305 251.5H302V250.5H305M299 251.5H296V250.5H299M293 251.5H290V250.5H293M287 251.5H284V250.5H287M281 251.5H278V250.5H281M275 251.5H272V250.5H275M269 251.5H266V250.5H269M263 251.5H260V250.5H263M257 251.5H254V250.5H257M251 251.5H248V250.5H251M245 251.5H242V250.5H245M239 251.5H236V250.5H239M233 251.5H230V250.5H233M227 251.5H224V250.5H227M221 251.5H218V250.5H221M215 251.5H212V250.5H215M209 251.5H206V250.5H209M203 251.5H200V250.5H203M197 251.5H194V250.5H197M191 251.5H188V250.5H191M185 251.5H182V250.5H185M179 251.5H176V250.5H179M173 251.5H170V250.5H173M167 251.5H164V250.5H167M161 251.5H158V250.5H161M155 251.5H152V250.5H155M149 251.5H146V250.5H149M143 251.5H140V250.5H143M137 251.5H134V250.5H137M131 251.5H128V250.5H131M125 251.5H122V250.5H125M119 251.5H116V250.5H119M113 251.5H110V250.5H113M107 251.5H104V250.5H107M101 251.5H98V250.5H101M95 251.5H92V250.5H95M89 251.5H86V250.5H89M83 251.5H80V250.5H83M77 251.5H74V250.5H77M71 251.5H68V250.5H71M65 251.5H62V250.5H65M59 251.5H56V250.5H59M53 251.5H50V250.5H53M47 251.5H44V250.5H47M41 251.5H38V250.5H41M35 251.5H32V250.5H35M29 251.5H26V250.5H29M23 251.5H20V250.5H23M17 251.5H14V250.5H17M11 251.5H8V250.5H11M5 251.5H2V250.5H5"/>
<path transform="matrix(.71812078,0,0,.71812078,.35906039,.35906039)" d="M341 211.5H338V210.5H341M335 211.5H332V210.5H335M329 211.5H326V210.5H329M323 211.5H320V210.5H323M317 211.5H314V210.5H317M311 211.5H308V210.5H311M305 211.5H302V210.5H305M299 211.5H296V210.5H299M293 211.5H290V210.5H293M287 211.5H284V210.5H287M281 211.5H278V210.5H281M275 211.5H272V210.5H275M269 211.5H266V210.5H269M263 211.5H260V210.5H263M257 211.5H254V210.5H257M251 211.5H248V210.5H251M245 211.5H242V210.5H245M239 211.5H236V210.5H239M233 211.5H230V210.5H233M227 211.5H224V210.5H227M221 211.5H218V210.5H221M215 211.5H212V210.5H215M209 211.5H206V210.5H209M203 211.5H200V210.5H203M197 211.5H194V210.5H197M191 211.5H188V210.5H191M185 211.5H182V210.5H185M179 211.5H176V210.5H179M173 211.5H170V210.5H173M167 211.5H164V210.5H167M161 211.5H158V210.5H161M155 211.5H152V210.5H155M149 211.5H146V210.5H149M143 211.5H140V210.5H143M137 211.5H134V210.5H137M131 211.5H128V210.5H131M125 211.5H122V210.5H125M119 211.5H116V210.5H119M113 211.5H110V210.5H113M107 211.5H104V210.5H107M101 211.5H98V210.5H101M95 211.5H92V210.5H95M89 211.5H86V210.5H89M83 211.5H80V210.5H83M77 211.5H74V210.5H77M71 211.5H68V210.5H71M65 211.5H62V210.5H65M59 211.5H56V210.5H59M53 211.5H50V210.5H53M47 211.5H44V210.5H47M41 211.5H38V210.5H41M35 211.5H32V210.5H35M29 211.5H26V210.5H29M23 211.5H20V210.5H23M17 211.5H14V210.5H17M11 211.5H8V210.5H11M5 211.5H2V210.5H5"/>
<path transform="matrix(.71812078,0,0,.71812078,.35906039,.35906039)" d="M341 171.5H338V170.5H341M335 171.5H332V170.5H335M329 171.5H326V170.5H329M323 171.5H320V170.5H323M317 171.5H314V170.5H317M311 171.5H308V170.5H311M305 171.5H302V170.5H305M299 171.5H296V170.5H299M293 171.5H290V170.5H293M287 171.5H284V170.5H287M281 171.5H278V170.5H281M275 171.5H272V170.5H275M269 171.5H266V170.5H269M263 171.5H260V170.5H263M257 171.5H254V170.5H257M251 171.5H248V170.5H251M245 171.5H242V170.5H245M239 171.5H236V170.5H239M233 171.5H230V170.5H233M227 171.5H224V170.5H227M221 171.5H218V170.5H221M215 171.5H212V170.5H215M209 171.5H206V170.5H209M203 171.5H200V170.5H203M197 171.5H194V170.5H197M191 171.5H188V170.5H191M185 171.5H182V170.5H185M179 171.5H176V170.5H179M173 171.5H170V170.5H173M167 171.5H164V170.5H167M161 171.5H158V170.5H161M155 171.5H152V170.5H155M149 171.5H146V170.5H149M143 171.5H140V170.5H143M137 171.5H134V170.5H137M131 171.5H128V170.5H131M125 171.5H122V170.5H125M119 171.5H116V170.5H119M113 171.5H110V170.5H113M107 171.5H104V170.5H107M101 171.5H98V170.5H101M95 171.5H92V170.5H95M89 171.5H86V170.5H89M83 171.5H80V170.5H83M77 171.5H74V170.5H77M71 171.5H68V170.5H71M65 171.5H62V170.5H65M59 171.5H56V170.5H59M53 171.5H50V170.5H53M47 171.5H44V170.5H47M41 171.5H38V170.5H41M35 171.5H32V170.5H35M29 171.5H26V170.5H29M23 171.5H20V170.5H23M17 171.5H14V170.5H17M11 171.5H8V170.5H11M5 171.5H2V170.5H5"/>
<path transform="matrix(.71812078,0,0,.71812078,.35906039,.35906039)" stroke-width="1" stroke-linecap="butt" stroke-miterlimit="10" stroke-linejoin="miter" fill="none" stroke="#000000" d="M93.93 58.07 65.5 86.5"/>
<path transform="matrix(.71812078,0,0,.71812078,.35906039,.35906039)" d="M61.79 90.21 64.27 82.78 65.5 86.5 69.22 87.73 61.79 90.21Z"/>
<path transform="matrix(.71812078,0,0,.71812078,.35906039,.35906039)" stroke-width="1" stroke-linecap="butt" stroke-miterlimit="10" stroke-linejoin="miter" fill="none" stroke="#000000" d="M61.79 90.21 64.27 82.78 65.5 86.5 69.22 87.73 61.79 90.21Z"/>
<path transform="matrix(.71812078,0,0,.71812078,.35906039,.35906039)" stroke-width="1" stroke-linecap="butt" stroke-miterlimit="10" stroke-linejoin="miter" fill="none" stroke="#000000" d="M108.07 58.07 136.5 86.5"/>
<path transform="matrix(.71812078,0,0,.71812078,.35906039,.35906039)" d="M140.21 90.21 132.78 87.73 136.5 86.5 137.73 82.78 140.21 90.21Z"/>
<path transform="matrix(.71812078,0,0,.71812078,.35906039,.35906039)" stroke-width="1" stroke-linecap="butt" stroke-miterlimit="10" stroke-linejoin="miter" fill="none" stroke="#000000" d="M140.21 90.21 132.78 87.73 136.5 86.5 137.73 82.78 140.21 90.21Z"/>
<path transform="matrix(.71812078,0,0,.71812078,.35906039,.35906039)" d="M111 51C110.99999 51.656606 110.93594 52.306905 110.80784 52.950899 110.67975 53.59489 110.49006 54.2202 110.238788 54.826826 109.98751 55.433454 109.67948 56.009744 109.3147 56.555696 108.9499 57.101644 108.535358 57.606767 108.07107 58.071065 107.60678 58.535356 107.101657 58.949899 106.5557 59.314687 106.00975 59.67948 105.43346 59.98752 104.82683 60.23879 104.2202 60.490064 103.59489 60.67975 102.9509 60.80785 102.30691 60.935949 101.65661 60.999998 101 61 100.34338 60.999998 99.69308 60.935949 99.04909 60.807847 98.40509 60.67975 97.77978 60.490064 97.17315 60.23879 96.56652 59.98752 95.990238 59.67948 95.44428 59.314687 94.89833 58.949899 94.39321 58.535356 93.928928 58.071065 93.46462 57.606767 93.05008 57.101644 92.685298 56.555696 92.320499 56.009744 92.01247 55.433454 91.7612 54.826826 91.509929 54.2202 91.32024 53.59489 91.19214 52.950899 91.06404 52.306905 90.99999 51.656606 91 51 90.99999 50.343389 91.06404 49.69308 91.19214 49.049089 91.32023 48.405096 91.50992 47.779787 91.76119 47.173158 92.01247 46.56653 92.320499 45.99024 92.68529 45.44429 93.05008 44.898344 93.46462 44.39322 93.928928 43.92893 94.39321 43.464635 94.89833 43.05009 95.44428 42.6853 95.990238 42.320508 96.56653 42.012475 97.17316 41.761205 97.77978 41.509935 98.40509 41.320249 99.04909 41.192148 99.69308 41.06405 100.34338 41 101 41 101.65661 41 102.306919 41.06405 102.950908 41.192148 103.594898 41.320249 104.2202 41.509935 104.82683 41.761205 105.43346 42.012475 106.00975 42.320508 106.55571 42.6853 107.10166 43.05009 107.60678 43.464635 108.07107 43.92893 108.535358 44.39322 108.9499 44.898344 109.31469 45.444295 109.67948 45.990243 109.98751 46.566534 110.238788 47.17316 110.49006 47.779787 110.67975 48.405096 110.807849 49.049089 110.93594 49.69308 110.99999 50.343389 111 51Z" fill="#fff2cc"/>
<path transform="matrix(.71812078,0,0,.71812078,.35906039,.35906039)" stroke-width="1" stroke-linecap="butt" stroke-miterlimit="4" stroke-linejoin="miter" fill="none" stroke="#d6b656" d="M111 51C110.99999 51.656606 110.93594 52.306905 110.80784 52.950899 110.67975 53.59489 110.49006 54.2202 110.238788 54.826826 109.98751 55.433454 109.67948 56.009744 109.3147 56.555696 108.9499 57.101644 108.535358 57.606767 108.07107 58.071065 107.60678 58.535356 107.101657 58.949899 106.5557 59.314687 106.00975 59.67948 105.43346 59.98752 104.82683 60.23879 104.2202 60.490064 103.59489 60.67975 102.9509 60.80785 102.30691 60.935949 101.65661 60.999998 101 61 100.34338 60.999998 99.69308 60.935949 99.04909 60.807847 98.40509 60.67975 97.77978 60.490064 97.17315 60.23879 96.56652 59.98752 95.990238 59.67948 95.44428 59.314687 94.89833 58.949899 94.39321 58.535356 93.928928 58.071065 93.46462 57.606767 93.05008 57.101644 92.685298 56.555696 92.320499 56.009744 92.01247 55.433454 91.7612 54.826826 91.509929 54.2202 91.32024 53.59489 91.19214 52.950899 91.06404 52.306905 90.99999 51.656606 91 51 90.99999 50.343389 91.06404 49.69308 91.19214 49.049089 91.32023 48.405096 91.50992 47.779787 91.76119 47.173158 92.01247 46.56653 92.320499 45.99024 92.68529 45.44429 93.05008 44.898344 93.46462 44.39322 93.928928 43.92893 94.39321 43.464635 94.89833 43.05009 95.44428 42.6853 95.990238 42.320508 96.56653 42.012475 97.17316 41.761205 97.77978 41.509935 98.40509 41.320249 99.04909 41.192148 99.69308 41.06405 100.34338 41 101 41 101.65661 41 102.306919 41.06405 102.950908 41.192148 103.594898 41.320249 104.2202 41.509935 104.82683 41.761205 105.43346 42.012475 106.00975 42.320508 106.55571 42.6853 107.10166 43.05009 107.60678 43.464635 108.07107 43.92893 108.535358 44.39322 108.9499 44.898344 109.31469 45.444295 109.67948 45.990243 109.98751 46.566534 110.238788 47.17316 110.49006 47.779787 110.67975 48.405096 110.807849 49.049089 110.93594 49.69308 110.99999 50.343389 111 51Z"/>
<use data-text="E" xlink:href="#font_3_40" transform="matrix(8.617449,0,0,-8.617449,69.64649,40.214765)"/>
<path transform="matrix(.71812078,0,0,.71812078,.35906039,.35906039)" d="M41 251 61 91 81 251H41Z" fill="#ff0000"/>
<path transform="matrix(.71812078,0,0,.71812078,.35906039,.35906039)" stroke-width="1" stroke-linecap="butt" stroke-miterlimit="10" stroke-linejoin="miter" fill="none" stroke="#666666" d="M41 251 61 91 81 251H41Z"/>
<path transform="matrix(.71812078,0,0,.71812078,.35906039,.35906039)" d="M121 211 141 91 161 211H121Z" fill="#00ff00"/>
<path transform="matrix(.71812078,0,0,.71812078,.35906039,.35906039)" stroke-width="1" stroke-linecap="butt" stroke-miterlimit="10" stroke-linejoin="miter" fill="none" stroke="#666666" d="M121 211 141 91 161 211H121Z"/>
<path transform="matrix(.71812078,0,0,.71812078,.35906039,.35906039)" d="M221 171 261 51 301 171H221Z" fill="#0000ff"/>
<path transform="matrix(.71812078,0,0,.71812078,.35906039,.35906039)" stroke-width="1" stroke-linecap="butt" stroke-miterlimit="10" stroke-linejoin="miter" fill="none" stroke="#666666" d="M221 171 261 51 301 171H221Z"/>
<path transform="matrix(.71812078,0,0,.71812078,.35906039,.35906039)" stroke-width="1" stroke-linecap="butt" stroke-miterlimit="10" stroke-linejoin="miter" fill="none" stroke="#000000" d="M589.94 15.47 655.3 48.15"/>
<path transform="matrix(.71812078,0,0,.71812078,.35906039,.35906039)" d="M660 50.5H652.17L655.3 48.15V44.24L660 50.5Z"/>
<path transform="matrix(.71812078,0,0,.71812078,.35906039,.35906039)" stroke-width="1" stroke-linecap="butt" stroke-miterlimit="10" stroke-linejoin="miter" fill="none" stroke="#000000" d="M660 50.5H652.17L655.3 48.15V44.24L660 50.5Z"/>
<path transform="matrix(.71812078,0,0,.71812078,.35906039,.35906039)" stroke-width="1" stroke-linecap="butt" stroke-miterlimit="10" stroke-linejoin="miter" fill="none" stroke="#000000" d="M572.03 15.42 515.64 43.68"/>
<path transform="matrix(.71812078,0,0,.71812078,.35906039,.35906039)" d="M510.94 46.03 515.63 39.76 515.64 43.68 518.77 46.02 510.94 46.03Z"/>
<path transform="matrix(.71812078,0,0,.71812078,.35906039,.35906039)" stroke-width="1" stroke-linecap="butt" stroke-miterlimit="10" stroke-linejoin="miter" fill="none" stroke="#000000" d="M510.94 46.03 515.63 39.76 515.64 43.68 518.77 46.02 510.94 46.03Z"/>
<path transform="matrix(.71812078,0,0,.71812078,.35906039,.35906039)" d="M591 11C590.99996 11.656609 590.9359 12.30691 590.8078 12.950903 590.6797 13.594895 590.49008 14.220205 590.2388 14.826834 589.9875 15.433461 589.67947 16.00975 589.31466 16.5557 588.9498 17.10165 588.53536 17.606774 588.07107 18.071068 587.60678 18.53536 587.1016 18.949902 586.55569 19.314694 586.0097 19.679488 585.4334 19.98752 584.8268 20.238795 584.22018 20.490067 583.5948 20.679753 582.9508 20.80785 582.3068 20.93595 581.65658 20.999999 581 21 580.3433 20.999999 579.69308 20.93595 579.0491 20.80785 578.405 20.679753 577.7797 20.490067 577.1731 20.238795 576.56649 19.98752 575.9902 19.679488 575.4442 19.314694 574.89828 18.949902 574.3932 18.53536 573.9289 18.071068 573.4646 17.606774 573.05007 17.10165 572.6852 16.5557 572.3204 16.00975 572.0124 15.433461 571.7611 14.826834 571.5099 14.220205 571.3202 13.594895 571.1921 12.950903 571.06399 12.30691 570.99996 11.656609 571 11 570.99996 10.34339 571.06399 9.693089 571.1921 9.049096 571.3202 8.405103 571.5099 7.7797925 571.7611 7.173165 572.0124 6.566537 572.3204 5.9902479 572.6852 5.4442975 573.05007 4.8983466 573.4646 4.3932249 573.9289 3.928932 574.3932 3.464639 574.89828 3.050096 575.4442 2.6853035 575.9902 2.3205109 576.56649 2.0124779 577.1731 1.7612045 577.7797 1.509931 578.405 1.3202453 579.0491 1.1921471 579.69308 1.064049 580.3433 1 581 1 581.65658 1 582.3068 1.0640491 582.9508 1.1921473 583.5948 1.3202453 584.22018 1.5099311 584.8268 1.7612046 585.4334 2.0124779 586.0097 2.3205109 586.55569 2.6853035 587.1016 3.050096 587.60678 3.464639 588.07107 3.928932 588.53536 4.3932249 588.9498 4.8983466 589.31466 5.4442975 589.67947 5.9902479 589.9875 6.566537 590.2388 7.173165 590.49008 7.7797925 590.6797 8.405103 590.8078 9.049096 590.9359 9.693089 590.99996 10.34339 591 11Z" fill="#fff2cc"/>
<path transform="matrix(.71812078,0,0,.71812078,.35906039,.35906039)" stroke-width="1" stroke-linecap="butt" stroke-miterlimit="4" stroke-linejoin="miter" fill="none" stroke="#d6b656" d="M591 11C590.99996 11.656609 590.9359 12.30691 590.8078 12.950903 590.6797 13.594895 590.49008 14.220205 590.2388 14.826834 589.9875 15.433461 589.67947 16.00975 589.31466 16.5557 588.9498 17.10165 588.53536 17.606774 588.07107 18.071068 587.60678 18.53536 587.1016 18.949902 586.55569 19.314694 586.0097 19.679488 585.4334 19.98752 584.8268 20.238795 584.22018 20.490067 583.5948 20.679753 582.9508 20.80785 582.3068 20.93595 581.65658 20.999999 581 21 580.3433 20.999999 579.69308 20.93595 579.0491 20.80785 578.405 20.679753 577.7797 20.490067 577.1731 20.238795 576.56649 19.98752 575.9902 19.679488 575.4442 19.314694 574.89828 18.949902 574.3932 18.53536 573.9289 18.071068 573.4646 17.606774 573.05007 17.10165 572.6852 16.5557 572.3204 16.00975 572.0124 15.433461 571.7611 14.826834 571.5099 14.220205 571.3202 13.594895 571.1921 12.950903 571.06399 12.30691 570.99996 11.656609 571 11 570.99996 10.34339 571.06399 9.693089 571.1921 9.049096 571.3202 8.405103 571.5099 7.7797925 571.7611 7.173165 572.0124 6.566537 572.3204 5.9902479 572.6852 5.4442975 573.05007 4.8983466 573.4646 4.3932249 573.9289 3.928932 574.3932 3.464639 574.89828 3.050096 575.4442 2.6853035 575.9902 2.3205109 576.56649 2.0124779 577.1731 1.7612045 577.7797 1.509931 578.405 1.3202453 579.0491 1.1921471 579.69308 1.064049 580.3433 1 581 1 581.65658 1 582.3068 1.0640491 582.9508 1.1921473 583.5948 1.3202453 584.22018 1.5099311 584.8268 1.7612046 585.4334 2.0124779 586.0097 2.3205109 586.55569 2.6853035 587.1016 3.050096 587.60678 3.464639 588.07107 3.928932 588.53536 4.3932249 588.9498 4.8983466 589.31466 5.4442975 589.67947 5.9902479 589.9875 6.566537 590.2388 7.173165 590.49008 7.7797925 590.6797 8.405103 590.8078 9.049096 590.9359 9.693089 590.99996 10.34339 591 11Z"/>
<use data-text="M" xlink:href="#font_3_48" transform="matrix(8.617449,0,0,-8.617449,413.63755,11.489932)"/>
<path transform="matrix(.71812078,0,0,.71812078,.35906039,.35906039)" d="M741 251.5H738V250.5H741M735 251.5H732V250.5H735M729 251.5H726V250.5H729M723 251.5H720V250.5H723M717 251.5H714V250.5H717M711 251.5H708V250.5H711M705 251.5H702V250.5H705M699 251.5H696V250.5H699M693 251.5H690V250.5H693M687 251.5H684V250.5H687M681 251.5H678V250.5H681M675 251.5H672V250.5H675M669 251.5H666V250.5H669M663 251.5H660V250.5H663M657 251.5H654V250.5H657M651 251.5H648V250.5H651M645 251.5H642V250.5H645M639 251.5H636V250.5H639M633 251.5H630V250.5H633M627 251.5H624V250.5H627M621 251.5H618V250.5H621M615 251.5H612V250.5H615M609 251.5H606V250.5H609M603 251.5H600V250.5H603M597 251.5H594V250.5H597M591 251.5H588V250.5H591M585 251.5H582V250.5H585M579 251.5H576V250.5H579M573 251.5H570V250.5H573M567 251.5H564V250.5H567M561 251.5H558V250.5H561M555 251.5H552V250.5H555M549 251.5H546V250.5H549M543 251.5H540V250.5H543M537 251.5H534V250.5H537M531 251.5H528V250.5H531M525 251.5H522V250.5H525M519 251.5H516V250.5H519M513 251.5H510V250.5H513M507 251.5H504V250.5H507M501 251.5H498V250.5H501M495 251.5H492V250.5H495M489 251.5H486V250.5H489M483 251.5H480V250.5H483M477 251.5H474V250.5H477M471 251.5H468V250.5H471M465 251.5H462V250.5H465M459 251.5H456V250.5H459M453 251.5H450V250.5H453M447 251.5H444V250.5H447M441 251.5H438V250.5H441M435 251.5H432V250.5H435M429 251.5H426V250.5H429M423 251.5H420V250.5H423M417 251.5H414V250.5H417M411 251.5H408V250.5H411M405 251.5H402V250.5H405"/>
<path transform="matrix(.71812078,0,0,.71812078,.35906039,.35906039)" d="M741 211.5H738V210.5H741M735 211.5H732V210.5H735M729 211.5H726V210.5H729M723 211.5H720V210.5H723M717 211.5H714V210.5H717M711 211.5H708V210.5H711M705 211.5H702V210.5H705M699 211.5H696V210.5H699M693 211.5H690V210.5H693M687 211.5H684V210.5H687M681 211.5H678V210.5H681M675 211.5H672V210.5H675M669 211.5H666V210.5H669M663 211.5H660V210.5H663M657 211.5H654V210.5H657M651 211.5H648V210.5H651M645 211.5H642V210.5H645M639 211.5H636V210.5H639M633 211.5H630V210.5H633M627 211.5H624V210.5H627M621 211.5H618V210.5H621M615 211.5H612V210.5H615M609 211.5H606V210.5H609M603 211.5H600V210.5H603M597 211.5H594V210.5H597M591 211.5H588V210.5H591M585 211.5H582V210.5H585M579 211.5H576V210.5H579M573 211.5H570V210.5H573M567 211.5H564V210.5H567M561 211.5H558V210.5H561M555 211.5H552V210.5H555M549 211.5H546V210.5H549M543 211.5H540V210.5H543M537 211.5H534V210.5H537M531 211.5H528V210.5H531M525 211.5H522V210.5H525M519 211.5H516V210.5H519M513 211.5H510V210.5H513M507 211.5H504V210.5H507M501 211.5H498V210.5H501M495 211.5H492V210.5H495M489 211.5H486V210.5H489M483 211.5H480V210.5H483M477 211.5H474V210.5H477M471 211.5H468V210.5H471M465 211.5H462V210.5H465M459 211.5H456V210.5H459M453 211.5H450V210.5H453M447 211.5H444V210.5H447M441 211.5H438V210.5H441M435 211.5H432V210.5H435M429 211.5H426V210.5H429M423 211.5H420V210.5H423M417 211.5H414V210.5H417M411 211.5H408V210.5H411M405 211.5H402V210.5H405"/>
<path transform="matrix(.71812078,0,0,.71812078,.35906039,.35906039)" d="M741 171.5H738V170.5H741M735 171.5H732V170.5H735M729 171.5H726V170.5H729M723 171.5H720V170.5H723M717 171.5H714V170.5H717M711 171.5H708V170.5H711M705 171.5H702V170.5H705M699 171.5H696V170.5H699M693 171.5H690V170.5H693M687 171.5H684V170.5H687M681 171.5H678V170.5H681M675 171.5H672V170.5H675M669 171.5H666V170.5H669M663 171.5H660V170.5H663M657 171.5H654V170.5H657M651 171.5H648V170.5H651M645 171.5H642V170.5H645M639 171.5H636V170.5H639M633 171.5H630V170.5H633M627 171.5H624V170.5H627M621 171.5H618V170.5H621M615 171.5H612V170.5H615M609 171.5H606V170.5H609M603 171.5H600V170.5H603M597 171.5H594V170.5H597M591 171.5H588V170.5H591M585 171.5H582V170.5H585M579 171.5H576V170.5H579M573 171.5H570V170.5H573M567 171.5H564V170.5H567M561 171.5H558V170.5H561M555 171.5H552V170.5H555M549 171.5H546V170.5H549M543 171.5H540V170.5H543M537 171.5H534V170.5H537M531 171.5H528V170.5H531M525 171.5H522V170.5H525M519 171.5H516V170.5H519M513 171.5H510V170.5H513M507 171.5H504V170.5H507M501 171.5H498V170.5H501M495 171.5H492V170.5H495M489 171.5H486V170.5H489M483 171.5H480V170.5H483M477 171.5H474V170.5H477M471 171.5H468V170.5H471M465 171.5H462V170.5H465M459 171.5H456V170.5H459M453 171.5H450V170.5H453M447 171.5H444V170.5H447M441 171.5H438V170.5H441M435 171.5H432V170.5H435M429 171.5H426V170.5H429M423 171.5H420V170.5H423M417 171.5H414V170.5H417M411 171.5H408V170.5H411M405 171.5H402V170.5H405"/>
<path transform="matrix(.71812078,0,0,.71812078,.35906039,.35906039)" stroke-width="1" stroke-linecap="butt" stroke-miterlimit="10" stroke-linejoin="miter" fill="none" stroke="#000000" d="M493.93 58.07 465.5 86.5"/>
<path transform="matrix(.71812078,0,0,.71812078,.35906039,.35906039)" d="M461.79 90.21 464.27 82.78 465.5 86.5 469.22 87.73 461.79 90.21Z"/>
<path transform="matrix(.71812078,0,0,.71812078,.35906039,.35906039)" stroke-width="1" stroke-linecap="butt" stroke-miterlimit="10" stroke-linejoin="miter" fill="none" stroke="#000000" d="M461.79 90.21 464.27 82.78 465.5 86.5 469.22 87.73 461.79 90.21Z"/>
<path transform="matrix(.71812078,0,0,.71812078,.35906039,.35906039)" stroke-width="1" stroke-linecap="butt" stroke-miterlimit="10" stroke-linejoin="miter" fill="none" stroke="#000000" d="M508.07 58.07 529.43 79.43"/>
<path transform="matrix(.71812078,0,0,.71812078,.35906039,.35906039)" d="M533.14 83.14 525.71 80.66 529.43 79.43 530.66 75.71 533.14 83.14Z"/>
<path transform="matrix(.71812078,0,0,.71812078,.35906039,.35906039)" stroke-width="1" stroke-linecap="butt" stroke-miterlimit="10" stroke-linejoin="miter" fill="none" stroke="#000000" d="M533.14 83.14 525.71 80.66 529.43 79.43 530.66 75.71 533.14 83.14Z"/>
<path transform="matrix(.71812078,0,0,.71812078,.35906039,.35906039)" d="M511 51C511 51.656606 510.93595 52.306905 510.80784 52.950899 510.67973 53.59489 510.49003 54.2202 510.23875 54.826826 509.98744 55.433454 509.6794 56.009744 509.31465 56.555696 508.94984 57.101644 508.53529 57.606767 508.071 58.071065 507.6067 58.535356 507.10157 58.949899 506.5556 59.314687 506.00968 59.67948 505.43339 59.98752 504.82676 60.23879 504.22013 60.490064 503.59483 60.67975 502.95088 60.80785 502.3069 60.935949 501.6566 60.999998 501 61 500.34336 60.999998 499.69306 60.935949 499.04905 60.807847 498.40504 60.67975 497.77973 60.490064 497.17314 60.23879 496.56648 59.98752 495.99018 59.67948 495.44425 59.314687 494.89833 58.949899 494.3932 58.535356 493.92893 58.071065 493.46464 57.606767 493.05009 57.101644 492.68528 56.555696 492.32048 56.009744 492.01243 55.433454 491.76115 54.826826 491.50987 54.2202 491.3202 53.59489 491.1921 52.950899 491.06404 52.306905 490.99998 51.656606 491 51 490.99998 50.343389 491.06404 49.69308 491.19215 49.049089 491.32023 48.405096 491.5099 47.779787 491.76118 47.173158 492.01246 46.56653 492.3205 45.99024 492.6853 45.44429 493.05009 44.898344 493.46464 44.39322 493.92893 43.92893 494.3932 43.464635 494.8983 43.05009 495.4442 42.6853 495.99018 42.320508 496.56648 42.012475 497.17314 41.761205 497.77973 41.509935 498.40504 41.320249 499.04905 41.192148 499.69306 41.06405 500.34336 41 501 41 501.6566 41 502.3069 41.06405 502.95088 41.192148 503.59483 41.320249 504.22013 41.509935 504.82676 41.761205 505.43339 42.012475 506.00968 42.320508 506.5556 42.6853 507.10157 43.05009 507.6067 43.464635 508.071 43.92893 508.53529 44.39322 508.94984 44.898344 509.31465 45.444295 509.6794 45.990243 509.98744 46.566534 510.23875 47.17316 510.49003 47.779787 510.67973 48.405096 510.8078 49.049089 510.93595 49.69308 511 50.343389 511 51Z" fill="#fff2cc"/>
<path transform="matrix(.71812078,0,0,.71812078,.35906039,.35906039)" stroke-width="1" stroke-linecap="butt" stroke-miterlimit="4" stroke-linejoin="miter" fill="none" stroke="#d6b656" d="M511 51C511 51.656606 510.93595 52.306905 510.80784 52.950899 510.67973 53.59489 510.49003 54.2202 510.23875 54.826826 509.98744 55.433454 509.6794 56.009744 509.31465 56.555696 508.94984 57.101644 508.53529 57.606767 508.071 58.071065 507.6067 58.535356 507.10157 58.949899 506.5556 59.314687 506.00968 59.67948 505.43339 59.98752 504.82676 60.23879 504.22013 60.490064 503.59483 60.67975 502.95088 60.80785 502.3069 60.935949 501.6566 60.999998 501 61 500.34336 60.999998 499.69306 60.935949 499.04905 60.807847 498.40504 60.67975 497.77973 60.490064 497.17314 60.23879 496.56648 59.98752 495.99018 59.67948 495.44425 59.314687 494.89833 58.949899 494.3932 58.535356 493.92893 58.071065 493.46464 57.606767 493.05009 57.101644 492.68528 56.555696 492.32048 56.009744 492.01243 55.433454 491.76115 54.826826 491.50987 54.2202 491.3202 53.59489 491.1921 52.950899 491.06404 52.306905 490.99998 51.656606 491 51 490.99998 50.343389 491.06404 49.69308 491.19215 49.049089 491.32023 48.405096 491.5099 47.779787 491.76118 47.173158 492.01246 46.56653 492.3205 45.99024 492.6853 45.44429 493.05009 44.898344 493.46464 44.39322 493.92893 43.92893 494.3932 43.464635 494.8983 43.05009 495.4442 42.6853 495.99018 42.320508 496.56648 42.012475 497.17314 41.761205 497.77973 41.509935 498.40504 41.320249 499.04905 41.192148 499.69306 41.06405 500.34336 41 501 41 501.6566 41 502.3069 41.06405 502.95088 41.192148 503.59483 41.320249 504.22013 41.509935 504.82676 41.761205 505.43339 42.012475 506.00968 42.320508 506.5556 42.6853 507.10157 43.05009 507.6067 43.464635 508.071 43.92893 508.53529 44.39322 508.94984 44.898344 509.31465 45.444295 509.6794 45.990243 509.98744 46.566534 510.23875 47.17316 510.49003 47.779787 510.67973 48.405096 510.8078 49.049089 510.93595 49.69308 511 50.343389 511 51Z"/>
<use data-text="E" xlink:href="#font_3_40" transform="matrix(8.617449,0,0,-8.617449,356.8948,40.214765)"/>
<path transform="matrix(.71812078,0,0,.71812078,.35906039,.35906039)" d="M441 211 461 91 481 211H441Z" fill="#ff0000"/>
<path transform="matrix(.71812078,0,0,.71812078,.35906039,.35906039)" stroke-width="1" stroke-linecap="butt" stroke-miterlimit="10" stroke-linejoin="miter" fill="none" stroke="#666666" d="M441 211 461 91 481 211H441Z"/>
<path transform="matrix(.71812078,0,0,.71812078,.35906039,.35906039)" d="M501 251 516 131 531 251H501Z" fill="#00ff00"/>
<path transform="matrix(.71812078,0,0,.71812078,.35906039,.35906039)" stroke-width="1" stroke-linecap="butt" stroke-miterlimit="10" stroke-linejoin="miter" fill="none" stroke="#666666" d="M501 251 516 131 531 251H501Z"/>
<path transform="matrix(.71812078,0,0,.71812078,.35906039,.35906039)" d="M621 171 661 51 701 171H621Z" fill="#0000ff"/>
<path transform="matrix(.71812078,0,0,.71812078,.35906039,.35906039)" stroke-width="1" stroke-linecap="butt" stroke-miterlimit="10" stroke-linejoin="miter" fill="none" stroke="#666666" d="M621 171 661 51 701 171H621Z"/>
<path transform="matrix(.71812078,0,0,.71812078,.35906039,.35906039)" stroke-width="1" stroke-linecap="butt" stroke-miterlimit="10" stroke-linejoin="miter" fill="none" stroke="#000000" d="M535.7 99.48 519.38 125.6"/>
<path transform="matrix(.71812078,0,0,.71812078,.35906039,.35906039)" d="M516.59 130.05 517.33 122.26 519.38 125.6 523.27 125.97 516.59 130.05Z"/>
<path transform="matrix(.71812078,0,0,.71812078,.35906039,.35906039)" stroke-width="1" stroke-linecap="butt" stroke-miterlimit="10" stroke-linejoin="miter" fill="none" stroke="#000000" d="M516.59 130.05 517.33 122.26 519.38 125.6 523.27 125.97 516.59 130.05Z"/>
<path transform="matrix(.71812078,0,0,.71812078,.35906039,.35906039)" stroke-width="1" stroke-linecap="butt" stroke-miterlimit="10" stroke-linejoin="miter" fill="none" stroke="#000000" d="M546.3 99.48 562.62 125.6"/>
<path transform="matrix(.71812078,0,0,.71812078,.35906039,.35906039)" d="M565.41 130.05 558.73 125.97 562.62 125.6 564.67 122.26 565.41 130.05Z"/>
<path transform="matrix(.71812078,0,0,.71812078,.35906039,.35906039)" stroke-width="1" stroke-linecap="butt" stroke-miterlimit="10" stroke-linejoin="miter" fill="none" stroke="#000000" d="M565.41 130.05 558.73 125.97 562.62 125.6 564.67 122.26 565.41 130.05Z"/>
<path transform="matrix(.71812078,0,0,.71812078,.35906039,.35906039)" d="M551 91C550.99996 91.65661 550.9359 92.30691 550.8078 92.9509 550.6797 93.59489 550.49008 94.22019 550.2388 94.82682 549.9875 95.43345 549.67947 96.00974 549.3147 96.555698 548.9499 97.10164 548.53536 97.60676 548.07107 98.07106 547.60678 98.53535 547.10159 98.94989 546.5556 99.31468 546.0097 99.679477 545.4334 99.9875 544.8268 100.23878 544.22018 100.49006 543.59487 100.67975 542.95089 100.807849 542.3069 100.93595 541.65658 101 541 101 540.3433 101 539.69308 100.93595 539.0491 100.807849 538.405 100.67975 537.7797 100.49006 537.1731 100.23878 536.56649 99.9875 535.9902 99.679477 535.4442 99.31468 534.8983 98.94989 534.3932 98.53535 533.9289 98.07106 533.4646 97.60676 533.05 97.10164 532.6852 96.55569 532.32046 96.009738 532.0124 95.43345 531.7611 94.82682 531.5098 94.22019 531.3202 93.59489 531.1921 92.9509 531.06399 92.30691 530.99996 91.65661 531 91 530.99996 90.34338 531.06399 89.69308 531.1921 89.04908 531.3202 88.40509 531.5098 87.77978 531.7611 87.17316 532.0124 86.56652 532.32046 85.990238 532.68527 85.44429 533.05007 84.89834 533.4646 84.39321 533.9289 83.928928 534.3932 83.46464 534.8983 83.050098 535.4442 82.6853 535.9902 82.32051 536.56649 82.012477 537.1731 81.7612 537.7797 81.509929 538.405 81.32024 539.0491 81.19215 539.69308 81.06405 540.3433 81 541 81 541.65658 81 542.3069 81.06405 542.95089 81.19215 543.59487 81.32024 544.22018 81.509929 544.8268 81.7612 545.4334 82.012477 546.0097 82.32051 546.5556 82.6853 547.10159 83.050098 547.60678 83.46464 548.07107 83.928928 548.53536 84.39321 548.9499 84.89834 549.3147 85.44429 549.67947 85.990238 549.9875 86.56652 550.2388 87.17316 550.49008 87.77978 550.6797 88.40509 550.8078 89.04908 550.9359 89.69308 550.99996 90.34338 551 91Z" fill="#fff2cc"/>
<path transform="matrix(.71812078,0,0,.71812078,.35906039,.35906039)" stroke-width="1" stroke-linecap="butt" stroke-miterlimit="4" stroke-linejoin="miter" fill="none" stroke="#d6b656" d="M551 91C550.99996 91.65661 550.9359 92.30691 550.8078 92.9509 550.6797 93.59489 550.49008 94.22019 550.2388 94.82682 549.9875 95.43345 549.67947 96.00974 549.3147 96.555698 548.9499 97.10164 548.53536 97.60676 548.07107 98.07106 547.60678 98.53535 547.10159 98.94989 546.5556 99.31468 546.0097 99.679477 545.4334 99.9875 544.8268 100.23878 544.22018 100.49006 543.59487 100.67975 542.95089 100.807849 542.3069 100.93595 541.65658 101 541 101 540.3433 101 539.69308 100.93595 539.0491 100.807849 538.405 100.67975 537.7797 100.49006 537.1731 100.23878 536.56649 99.9875 535.9902 99.679477 535.4442 99.31468 534.8983 98.94989 534.3932 98.53535 533.9289 98.07106 533.4646 97.60676 533.05 97.10164 532.6852 96.55569 532.32046 96.009738 532.0124 95.43345 531.7611 94.82682 531.5098 94.22019 531.3202 93.59489 531.1921 92.9509 531.06399 92.30691 530.99996 91.65661 531 91 530.99996 90.34338 531.06399 89.69308 531.1921 89.04908 531.3202 88.40509 531.5098 87.77978 531.7611 87.17316 532.0124 86.56652 532.32046 85.990238 532.68527 85.44429 533.05007 84.89834 533.4646 84.39321 533.9289 83.928928 534.3932 83.46464 534.8983 83.050098 535.4442 82.6853 535.9902 82.32051 536.56649 82.012477 537.1731 81.7612 537.7797 81.509929 538.405 81.32024 539.0491 81.19215 539.69308 81.06405 540.3433 81 541 81 541.65658 81 542.3069 81.06405 542.95089 81.19215 543.59487 81.32024 544.22018 81.509929 544.8268 81.7612 545.4334 82.012477 546.0097 82.32051 546.5556 82.6853 547.10159 83.050098 547.60678 83.46464 548.07107 83.928928 548.53536 84.39321 548.9499 84.89834 549.3147 85.44429 549.67947 85.990238 549.9875 86.56652 550.2388 87.17316 550.49008 87.77978 550.6797 88.40509 550.8078 89.04908 550.9359 89.69308 550.99996 90.34338 551 91Z"/>
<use data-text="G" xlink:href="#font_3_42" transform="matrix(8.617449,0,0,-8.617449,385.14836,68.93959)"/>
<path transform="matrix(.71812078,0,0,.71812078,.35906039,.35906039)" d="M551 251 566 131 581 251H551Z" fill="#ffff33"/>
<path transform="matrix(.71812078,0,0,.71812078,.35906039,.35906039)" stroke-width="1" stroke-linecap="butt" stroke-miterlimit="10" stroke-linejoin="miter" fill="none" stroke="#666666" d="M551 251 566 131 581 251H551Z"/>
<path transform="matrix(.71812078,0,0,.71812078,.35906039,.35906039)" stroke-width="1" stroke-linecap="butt" stroke-miterlimit="10" stroke-linejoin="miter" fill="none" stroke="#000000" d="M189.97 335.42 246.36 363.68"/>
<path transform="matrix(.71812078,0,0,.71812078,.35906039,.35906039)" d="M251.06 366.03 243.23 366.02 246.36 363.68 246.37 359.76 251.06 366.03Z"/>
<path transform="matrix(.71812078,0,0,.71812078,.35906039,.35906039)" stroke-width="1" stroke-linecap="butt" stroke-miterlimit="10" stroke-linejoin="miter" fill="none" stroke="#000000" d="M251.06 366.03 243.23 366.02 246.36 363.68 246.37 359.76 251.06 366.03Z"/>
<path transform="matrix(.71812078,0,0,.71812078,.35906039,.35906039)" stroke-width="1" stroke-linecap="butt" stroke-miterlimit="10" stroke-linejoin="miter" fill="none" stroke="#000000" d="M172.06 335.47 106.7 368.15"/>
<path transform="matrix(.71812078,0,0,.71812078,.35906039,.35906039)" d="M102 370.5 106.7 364.24V368.15L109.83 370.5H102Z"/>
<path transform="matrix(.71812078,0,0,.71812078,.35906039,.35906039)" stroke-width="1" stroke-linecap="butt" stroke-miterlimit="10" stroke-linejoin="miter" fill="none" stroke="#000000" d="M102 370.5 106.7 364.24V368.15L109.83 370.5H102Z"/>
<path transform="matrix(.71812078,0,0,.71812078,.35906039,.35906039)" d="M191 331C190.99999 331.6566 190.93593 332.3069 190.80783 332.95088 190.67974 333.59486 190.49004 334.22016 190.23876 334.8268 189.98749 335.43345 189.67946 336.00975 189.31467 336.55567 188.94988 337.10163 188.53533 337.60676 188.07105 338.07106 187.60675 338.53535 187.10163 338.9499 186.55567 339.31468 186.00972 339.67945 185.43343 339.9875 184.8268 340.23875 184.22017 340.49003 183.59487 340.67973 182.95088 340.80784 182.3069 340.9359 181.6566 340.99998 181 341 180.34339 340.99998 179.69309 340.9359 179.04909 340.80784 178.40509 340.67973 177.77979 340.49003 177.17314 340.23875 176.56652 339.9875 175.99022 339.67945 175.44428 339.31468 174.89833 338.9499 174.3932 338.53535 173.92893 338.07106 173.46463 337.60676 173.05008 337.10163 172.68529 336.55567 172.3205 336.00975 172.01247 335.43345 171.7612 334.8268 171.50992 334.22016 171.32024 333.59486 171.19214 332.95088 171.06404 332.3069 171 331.6566 171 331 171 330.34339 171.06404 329.69309 171.19214 329.0491 171.32024 328.4051 171.50992 327.7798 171.7612 327.17317 172.01247 326.5665 172.3205 325.9902 172.68529 325.44429 173.05008 324.8983 173.46463 324.39317 173.92893 323.9289 174.3932 323.4646 174.89833 323.05006 175.44428 322.68528 175.99022 322.32048 176.56652 322.01243 177.17314 321.76118 177.77979 321.50993 178.40509 321.32023 179.04909 321.19215 179.69309 321.06407 180.34339 321 181 321 181.6566 321 182.3069 321.06407 182.95088 321.19215 183.59487 321.32023 184.22017 321.50993 184.8268 321.76118 185.43343 322.01243 186.00972 322.32048 186.55567 322.68528 187.10163 323.05006 187.60675 323.4646 188.07105 323.9289 188.53533 324.39317 188.94988 324.8983 189.31467 325.44429 189.67946 325.9902 189.98749 326.5665 190.23876 327.17317 190.49004 327.7798 190.67974 328.4051 190.80783 329.0491 190.93593 329.69309 190.99999 330.34339 191 331Z" fill="#fff2cc"/>
<path transform="matrix(.71812078,0,0,.71812078,.35906039,.35906039)" stroke-width="1" stroke-linecap="butt" stroke-miterlimit="4" stroke-linejoin="miter" fill="none" stroke="#d6b656" d="M191 331C190.99999 331.6566 190.93593 332.3069 190.80783 332.95088 190.67974 333.59486 190.49004 334.22016 190.23876 334.8268 189.98749 335.43345 189.67946 336.00975 189.31467 336.55567 188.94988 337.10163 188.53533 337.60676 188.07105 338.07106 187.60675 338.53535 187.10163 338.9499 186.55567 339.31468 186.00972 339.67945 185.43343 339.9875 184.8268 340.23875 184.22017 340.49003 183.59487 340.67973 182.95088 340.80784 182.3069 340.9359 181.6566 340.99998 181 341 180.34339 340.99998 179.69309 340.9359 179.04909 340.80784 178.40509 340.67973 177.77979 340.49003 177.17314 340.23875 176.56652 339.9875 175.99022 339.67945 175.44428 339.31468 174.89833 338.9499 174.3932 338.53535 173.92893 338.07106 173.46463 337.60676 173.05008 337.10163 172.68529 336.55567 172.3205 336.00975 172.01247 335.43345 171.7612 334.8268 171.50992 334.22016 171.32024 333.59486 171.19214 332.95088 171.06404 332.3069 171 331.6566 171 331 171 330.34339 171.06404 329.69309 171.19214 329.0491 171.32024 328.4051 171.50992 327.7798 171.7612 327.17317 172.01247 326.5665 172.3205 325.9902 172.68529 325.44429 173.05008 324.8983 173.46463 324.39317 173.92893 323.9289 174.3932 323.4646 174.89833 323.05006 175.44428 322.68528 175.99022 322.32048 176.56652 322.01243 177.17314 321.76118 177.77979 321.50993 178.40509 321.32023 179.04909 321.19215 179.69309 321.06407 180.34339 321 181 321 181.6566 321 182.3069 321.06407 182.95088 321.19215 183.59487 321.32023 184.22017 321.50993 184.8268 321.76118 185.43343 322.01243 186.00972 322.32048 186.55567 322.68528 187.10163 323.05006 187.60675 323.4646 188.07105 323.9289 188.53533 324.39317 188.94988 324.8983 189.31467 325.44429 189.67946 325.9902 189.98749 326.5665 190.23876 327.17317 190.49004 327.7798 190.67974 328.4051 190.80783 329.0491 190.93593 329.69309 190.99999 330.34339 191 331Z"/>
<use data-text="M" xlink:href="#font_3_48" transform="matrix(8.617449,0,0,-8.617449,126.38925,241.28858)"/>
<path transform="matrix(.71812078,0,0,.71812078,.35906039,.35906039)" d="M341 571.5H338V570.5H341M335 571.5H332V570.5H335M329 571.5H326V570.5H329M323 571.5H320V570.5H323M317 571.5H314V570.5H317M311 571.5H308V570.5H311M305 571.5H302V570.5H305M299 571.5H296V570.5H299M293 571.5H290V570.5H293M287 571.5H284V570.5H287M281 571.5H278V570.5H281M275 571.5H272V570.5H275M269 571.5H266V570.5H269M263 571.5H260V570.5H263M257 571.5H254V570.5H257M251 571.5H248V570.5H251M245 571.5H242V570.5H245M239 571.5H236V570.5H239M233 571.5H230V570.5H233M227 571.5H224V570.5H227M221 571.5H218V570.5H221M215 571.5H212V570.5H215M209 571.5H206V570.5H209M203 571.5H200V570.5H203M197 571.5H194V570.5H197M191 571.5H188V570.5H191M185 571.5H182V570.5H185M179 571.5H176V570.5H179M173 571.5H170V570.5H173M167 571.5H164V570.5H167M161 571.5H158V570.5H161M155 571.5H152V570.5H155M149 571.5H146V570.5H149M143 571.5H140V570.5H143M137 571.5H134V570.5H137M131 571.5H128V570.5H131M125 571.5H122V570.5H125M119 571.5H116V570.5H119M113 571.5H110V570.5H113M107 571.5H104V570.5H107M101 571.5H98V570.5H101M95 571.5H92V570.5H95M89 571.5H86V570.5H89M83 571.5H80V570.5H83M77 571.5H74V570.5H77M71 571.5H68V570.5H71M65 571.5H62V570.5H65M59 571.5H56V570.5H59M53 571.5H50V570.5H53M47 571.5H44V570.5H47M41 571.5H38V570.5H41M35 571.5H32V570.5H35M29 571.5H26V570.5H29M23 571.5H20V570.5H23M17 571.5H14V570.5H17M11 571.5H8V570.5H11M5 571.5H2V570.5H5"/>
<path transform="matrix(.71812078,0,0,.71812078,.35906039,.35906039)" d="M341 531.5H338V530.5H341M335 531.5H332V530.5H335M329 531.5H326V530.5H329M323 531.5H320V530.5H323M317 531.5H314V530.5H317M311 531.5H308V530.5H311M305 531.5H302V530.5H305M299 531.5H296V530.5H299M293 531.5H290V530.5H293M287 531.5H284V530.5H287M281 531.5H278V530.5H281M275 531.5H272V530.5H275M269 531.5H266V530.5H269M263 531.5H260V530.5H263M257 531.5H254V530.5H257M251 531.5H248V530.5H251M245 531.5H242V530.5H245M239 531.5H236V530.5H239M233 531.5H230V530.5H233M227 531.5H224V530.5H227M221 531.5H218V530.5H221M215 531.5H212V530.5H215M209 531.5H206V530.5H209M203 531.5H200V530.5H203M197 531.5H194V530.5H197M191 531.5H188V530.5H191M185 531.5H182V530.5H185M179 531.5H176V530.5H179M173 531.5H170V530.5H173M167 531.5H164V530.5H167M161 531.5H158V530.5H161M155 531.5H152V530.5H155M149 531.5H146V530.5H149M143 531.5H140V530.5H143M137 531.5H134V530.5H137M131 531.5H128V530.5H131M125 531.5H122V530.5H125M119 531.5H116V530.5H119M113 531.5H110V530.5H113M107 531.5H104V530.5H107M101 531.5H98V530.5H101M95 531.5H92V530.5H95M89 531.5H86V530.5H89M83 531.5H80V530.5H83M77 531.5H74V530.5H77M71 531.5H68V530.5H71M65 531.5H62V530.5H65M59 531.5H56V530.5H59M53 531.5H50V530.5H53M47 531.5H44V530.5H47M41 531.5H38V530.5H41M35 531.5H32V530.5H35M29 531.5H26V530.5H29M23 531.5H20V530.5H23M17 531.5H14V530.5H17M11 531.5H8V530.5H11M5 531.5H2V530.5H5"/>
<path transform="matrix(.71812078,0,0,.71812078,.35906039,.35906039)" d="M341 491.5H338V490.5H341M335 491.5H332V490.5H335M329 491.5H326V490.5H329M323 491.5H320V490.5H323M317 491.5H314V490.5H317M311 491.5H308V490.5H311M305 491.5H302V490.5H305M299 491.5H296V490.5H299M293 491.5H290V490.5H293M287 491.5H284V490.5H287M281 491.5H278V490.5H281M275 491.5H272V490.5H275M269 491.5H266V490.5H269M263 491.5H260V490.5H263M257 491.5H254V490.5H257M251 491.5H248V490.5H251M245 491.5H242V490.5H245M239 491.5H236V490.5H239M233 491.5H230V490.5H233M227 491.5H224V490.5H227M221 491.5H218V490.5H221M215 491.5H212V490.5H215M209 491.5H206V490.5H209M203 491.5H200V490.5H203M197 491.5H194V490.5H197M191 491.5H188V490.5H191M185 491.5H182V490.5H185M179 491.5H176V490.5H179M173 491.5H170V490.5H173M167 491.5H164V490.5H167M161 491.5H158V490.5H161M155 491.5H152V490.5H155M149 491.5H146V490.5H149M143 491.5H140V490.5H143M137 491.5H134V490.5H137M131 491.5H128V490.5H131M125 491.5H122V490.5H125M119 491.5H116V490.5H119M113 491.5H110V490.5H113M107 491.5H104V490.5H107M101 491.5H98V490.5H101M95 491.5H92V490.5H95M89 491.5H86V490.5H89M83 491.5H80V490.5H83M77 491.5H74V490.5H77M71 491.5H68V490.5H71M65 491.5H62V490.5H65M59 491.5H56V490.5H59M53 491.5H50V490.5H53M47 491.5H44V490.5H47M41 491.5H38V490.5H41M35 491.5H32V490.5H35M29 491.5H26V490.5H29M23 491.5H20V490.5H23M17 491.5H14V490.5H17M11 491.5H8V490.5H11M5 491.5H2V490.5H5"/>
<path transform="matrix(.71812078,0,0,.71812078,.35906039,.35906039)" stroke-width="1" stroke-linecap="butt" stroke-miterlimit="10" stroke-linejoin="miter" fill="none" stroke="#000000" d="M268.07 378.07 296.5 406.5"/>
<path transform="matrix(.71812078,0,0,.71812078,.35906039,.35906039)" d="M300.21 410.21 292.78 407.73 296.5 406.5 297.73 402.78 300.21 410.21Z"/>
<path transform="matrix(.71812078,0,0,.71812078,.35906039,.35906039)" stroke-width="1" stroke-linecap="butt" stroke-miterlimit="10" stroke-linejoin="miter" fill="none" stroke="#000000" d="M300.21 410.21 292.78 407.73 296.5 406.5 297.73 402.78 300.21 410.21Z"/>
<path transform="matrix(.71812078,0,0,.71812078,.35906039,.35906039)" stroke-width="1" stroke-linecap="butt" stroke-miterlimit="10" stroke-linejoin="miter" fill="none" stroke="#000000" d="M253.93 378.07 225.5 406.5"/>
<path transform="matrix(.71812078,0,0,.71812078,.35906039,.35906039)" d="M221.79 410.21 224.27 402.78 225.5 406.5 229.22 407.73 221.79 410.21Z"/>
<path transform="matrix(.71812078,0,0,.71812078,.35906039,.35906039)" stroke-width="1" stroke-linecap="butt" stroke-miterlimit="10" stroke-linejoin="miter" fill="none" stroke="#000000" d="M221.79 410.21 224.27 402.78 225.5 406.5 229.22 407.73 221.79 410.21Z"/>
<path transform="matrix(.71812078,0,0,.71812078,.35906039,.35906039)" d="M271 371C270.99998 371.65663 270.9359 372.30693 270.80784 372.9509 270.67973 373.59489 270.49003 374.22019 270.23878 374.8268 269.9875 375.43345 269.67945 376.00975 269.31468 376.5557 268.9499 377.10166 268.53535 377.60679 268.07106 378.07109 267.60676 378.53535 267.10163 378.9499 266.55567 379.31468 266.0097 379.67948 265.4334 379.98753 264.8268 380.23878 264.2202 380.49006 263.59489 380.67976 262.95088 380.80784 262.3069 380.93595 261.6566 381 261 381 260.34339 381 259.69309 380.93595 259.04908 380.80784 258.40507 380.67976 257.77976 380.49006 257.17314 380.23878 256.5665 379.98753 255.99022 379.67948 255.44428 379.31468 254.89833 378.9499 254.3932 378.53535 253.92891 378.07109 253.4646 377.60679 253.05005 377.10166 252.68526 376.5557 252.32047 376.00975 252.01244 375.43345 251.76117 374.8268 251.50989 374.22019 251.3202 373.59489 251.19213 372.9509 251.06403 372.30693 250.99999 371.65663 251 371 250.99999 370.34339 251.06401 369.69309 251.19211 369.04908 251.3202 368.4051 251.50989 367.7798 251.76116 367.17317 252.01244 366.56654 252.32047 365.99024 252.68526 365.4443 253.05005 364.89833 253.4646 364.3932 253.92891 363.92893 254.3932 363.46464 254.89832 363.05009 255.44426 362.6853 255.9902 362.3205 256.5665 362.01246 257.17314 361.76118 257.77976 361.50993 258.40507 361.32026 259.04908 361.19215 259.69309 361.06407 260.34339 361 261 361 261.6566 361 262.3069 361.06407 262.95088 361.19215 263.59489 361.32026 264.2202 361.50993 264.8268 361.76118 265.4334 362.01246 266.0097 362.3205 266.55567 362.6853 267.10163 363.05009 267.60676 363.46464 268.07106 363.92893 268.53535 364.3932 268.9499 364.89833 269.31468 365.44429 269.67945 365.99024 269.9875 366.56654 270.23878 367.17314 270.49003 367.77976 270.67973 368.4051 270.80784 369.0491 270.9359 369.69309 270.99998 370.34339 271 371Z" fill="#fff2cc"/>
<path transform="matrix(.71812078,0,0,.71812078,.35906039,.35906039)" stroke-width="1" stroke-linecap="butt" stroke-miterlimit="4" stroke-linejoin="miter" fill="none" stroke="#d6b656" d="M271 371C270.99998 371.65663 270.9359 372.30693 270.80784 372.9509 270.67973 373.59489 270.49003 374.22019 270.23878 374.8268 269.9875 375.43345 269.67945 376.00975 269.31468 376.5557 268.9499 377.10166 268.53535 377.60679 268.07106 378.07109 267.60676 378.53535 267.10163 378.9499 266.55567 379.31468 266.0097 379.67948 265.4334 379.98753 264.8268 380.23878 264.2202 380.49006 263.59489 380.67976 262.95088 380.80784 262.3069 380.93595 261.6566 381 261 381 260.34339 381 259.69309 380.93595 259.04908 380.80784 258.40507 380.67976 257.77976 380.49006 257.17314 380.23878 256.5665 379.98753 255.99022 379.67948 255.44428 379.31468 254.89833 378.9499 254.3932 378.53535 253.92891 378.07109 253.4646 377.60679 253.05005 377.10166 252.68526 376.5557 252.32047 376.00975 252.01244 375.43345 251.76117 374.8268 251.50989 374.22019 251.3202 373.59489 251.19213 372.9509 251.06403 372.30693 250.99999 371.65663 251 371 250.99999 370.34339 251.06401 369.69309 251.19211 369.04908 251.3202 368.4051 251.50989 367.7798 251.76116 367.17317 252.01244 366.56654 252.32047 365.99024 252.68526 365.4443 253.05005 364.89833 253.4646 364.3932 253.92891 363.92893 254.3932 363.46464 254.89832 363.05009 255.44426 362.6853 255.9902 362.3205 256.5665 362.01246 257.17314 361.76118 257.77976 361.50993 258.40507 361.32026 259.04908 361.19215 259.69309 361.06407 260.34339 361 261 361 261.6566 361 262.3069 361.06407 262.95088 361.19215 263.59489 361.32026 264.2202 361.50993 264.8268 361.76118 265.4334 362.01246 266.0097 362.3205 266.55567 362.6853 267.10163 363.05009 267.60676 363.46464 268.07106 363.92893 268.53535 364.3932 268.9499 364.89833 269.31468 365.44429 269.67945 365.99024 269.9875 366.56654 270.23878 367.17314 270.49003 367.77976 270.67973 368.4051 270.80784 369.0491 270.9359 369.69309 270.99998 370.34339 271 371Z"/>
<use data-text="S" xlink:href="#font_3_54" transform="matrix(8.617449,0,0,-8.617449,184.5458,270.0134)"/>
<path transform="matrix(.71812078,0,0,.71812078,.35906039,.35906039)" d="M281 571 301 411 321 571H281Z" fill="#ff0000"/>
<path transform="matrix(.71812078,0,0,.71812078,.35906039,.35906039)" stroke-width="1" stroke-linecap="butt" stroke-miterlimit="10" stroke-linejoin="miter" fill="none" stroke="#666666" d="M281 571 301 411 321 571H281Z"/>
<path transform="matrix(.71812078,0,0,.71812078,.35906039,.35906039)" d="M201 531 221 411 241 531H201Z" fill="#00ff00"/>
<path transform="matrix(.71812078,0,0,.71812078,.35906039,.35906039)" stroke-width="1" stroke-linecap="butt" stroke-miterlimit="10" stroke-linejoin="miter" fill="none" stroke="#666666" d="M201 531 221 411 241 531H201Z"/>
<path transform="matrix(.71812078,0,0,.71812078,.35906039,.35906039)" d="M61 491 101 371 141 491H61Z" fill="#0000ff"/>
<path transform="matrix(.71812078,0,0,.71812078,.35906039,.35906039)" stroke-width="1" stroke-linecap="butt" stroke-miterlimit="10" stroke-linejoin="miter" fill="none" stroke="#666666" d="M61 491 101 371 141 491H61Z"/>
<path transform="matrix(.71812078,0,0,.71812078,.35906039,.35906039)" stroke-width="1" stroke-linecap="butt" stroke-miterlimit="10" stroke-linejoin="miter" fill="none" stroke="#000000" d="M572.06 335.47 506.7 368.15"/>
<path transform="matrix(.71812078,0,0,.71812078,.35906039,.35906039)" d="M502 370.5 506.7 364.24V368.15L509.83 370.5H502Z"/>
<path transform="matrix(.71812078,0,0,.71812078,.35906039,.35906039)" stroke-width="1" stroke-linecap="butt" stroke-miterlimit="10" stroke-linejoin="miter" fill="none" stroke="#000000" d="M502 370.5 506.7 364.24V368.15L509.83 370.5H502Z"/>
<path transform="matrix(.71812078,0,0,.71812078,.35906039,.35906039)" stroke-width="1" stroke-linecap="butt" stroke-miterlimit="10" stroke-linejoin="miter" fill="none" stroke="#000000" d="M589.97 335.42 646.36 363.68"/>
<path transform="matrix(.71812078,0,0,.71812078,.35906039,.35906039)" d="M651.06 366.03 643.23 366.02 646.36 363.68 646.37 359.76 651.06 366.03Z"/>
<path transform="matrix(.71812078,0,0,.71812078,.35906039,.35906039)" stroke-width="1" stroke-linecap="butt" stroke-miterlimit="10" stroke-linejoin="miter" fill="none" stroke="#000000" d="M651.06 366.03 643.23 366.02 646.36 363.68 646.37 359.76 651.06 366.03Z"/>
<path transform="matrix(.71812078,0,0,.71812078,.35906039,.35906039)" d="M591 331C590.99996 331.6566 590.9359 332.3069 590.8078 332.95088 590.6797 333.59486 590.49008 334.22016 590.2388 334.8268 589.9875 335.43345 589.67947 336.00975 589.31466 336.55567 588.9498 337.10163 588.53536 337.60676 588.07107 338.07106 587.60678 338.53535 587.1016 338.9499 586.55569 339.31468 586.0097 339.67945 585.4334 339.9875 584.8268 340.23875 584.22018 340.49003 583.5948 340.67973 582.9508 340.80784 582.3068 340.9359 581.65658 340.99998 581 341 580.3433 340.99998 579.69308 340.9359 579.0491 340.80784 578.405 340.67973 577.7797 340.49003 577.1731 340.23875 576.56649 339.9875 575.9902 339.67945 575.4442 339.31468 574.89828 338.9499 574.3932 338.53535 573.9289 338.07106 573.4646 337.60676 573.05007 337.10163 572.6852 336.55567 572.3204 336.00975 572.0124 335.43345 571.7611 334.8268 571.5099 334.22016 571.3202 333.59486 571.1921 332.95088 571.06399 332.3069 570.99996 331.6566 571 331 570.99996 330.34339 571.06399 329.69309 571.1921 329.0491 571.3202 328.4051 571.5099 327.7798 571.7611 327.17317 572.0124 326.5665 572.3204 325.9902 572.6852 325.44429 573.05007 324.8983 573.4646 324.39317 573.9289 323.9289 574.3932 323.4646 574.89828 323.05006 575.4442 322.68528 575.9902 322.32048 576.56649 322.01243 577.1731 321.76118 577.7797 321.50993 578.405 321.32023 579.0491 321.19215 579.69308 321.06407 580.3433 321 581 321 581.65658 321 582.3068 321.06407 582.9508 321.19215 583.5948 321.32023 584.22018 321.50993 584.8268 321.76118 585.4334 322.01243 586.0097 322.32048 586.55569 322.68528 587.1016 323.05006 587.60678 323.4646 588.07107 323.9289 588.53536 324.39317 588.9498 324.8983 589.31466 325.44429 589.67947 325.9902 589.9875 326.5665 590.2388 327.17317 590.49008 327.7798 590.6797 328.4051 590.8078 329.0491 590.9359 329.69309 590.99996 330.34339 591 331Z" fill="#fff2cc"/>
<path transform="matrix(.71812078,0,0,.71812078,.35906039,.35906039)" stroke-width="1" stroke-linecap="butt" stroke-miterlimit="4" stroke-linejoin="miter" fill="none" stroke="#d6b656" d="M591 331C590.99996 331.6566 590.9359 332.3069 590.8078 332.95088 590.6797 333.59486 590.49008 334.22016 590.2388 334.8268 589.9875 335.43345 589.67947 336.00975 589.31466 336.55567 588.9498 337.10163 588.53536 337.60676 588.07107 338.07106 587.60678 338.53535 587.1016 338.9499 586.55569 339.31468 586.0097 339.67945 585.4334 339.9875 584.8268 340.23875 584.22018 340.49003 583.5948 340.67973 582.9508 340.80784 582.3068 340.9359 581.65658 340.99998 581 341 580.3433 340.99998 579.69308 340.9359 579.0491 340.80784 578.405 340.67973 577.7797 340.49003 577.1731 340.23875 576.56649 339.9875 575.9902 339.67945 575.4442 339.31468 574.89828 338.9499 574.3932 338.53535 573.9289 338.07106 573.4646 337.60676 573.05007 337.10163 572.6852 336.55567 572.3204 336.00975 572.0124 335.43345 571.7611 334.8268 571.5099 334.22016 571.3202 333.59486 571.1921 332.95088 571.06399 332.3069 570.99996 331.6566 571 331 570.99996 330.34339 571.06399 329.69309 571.1921 329.0491 571.3202 328.4051 571.5099 327.7798 571.7611 327.17317 572.0124 326.5665 572.3204 325.9902 572.6852 325.44429 573.05007 324.8983 573.4646 324.39317 573.9289 323.9289 574.3932 323.4646 574.89828 323.05006 575.4442 322.68528 575.9902 322.32048 576.56649 322.01243 577.1731 321.76118 577.7797 321.50993 578.405 321.32023 579.0491 321.19215 579.69308 321.06407 580.3433 321 581 321 581.65658 321 582.3068 321.06407 582.9508 321.19215 583.5948 321.32023 584.22018 321.50993 584.8268 321.76118 585.4334 322.01243 586.0097 322.32048 586.55569 322.68528 587.1016 323.05006 587.60678 323.4646 588.07107 323.9289 588.53536 324.39317 588.9498 324.8983 589.31466 325.44429 589.67947 325.9902 589.9875 326.5665 590.2388 327.17317 590.49008 327.7798 590.6797 328.4051 590.8078 329.0491 590.9359 329.69309 590.99996 330.34339 591 331Z"/>
<use data-text="M" xlink:href="#font_3_48" transform="matrix(8.617449,0,0,-8.617449,413.63755,241.28858)"/>
<path transform="matrix(.71812078,0,0,.71812078,.35906039,.35906039)" d="M741 571.5H738V570.5H741M735 571.5H732V570.5H735M729 571.5H726V570.5H729M723 571.5H720V570.5H723M717 571.5H714V570.5H717M711 571.5H708V570.5H711M705 571.5H702V570.5H705M699 571.5H696V570.5H699M693 571.5H690V570.5H693M687 571.5H684V570.5H687M681 571.5H678V570.5H681M675 571.5H672V570.5H675M669 571.5H666V570.5H669M663 571.5H660V570.5H663M657 571.5H654V570.5H657M651 571.5H648V570.5H651M645 571.5H642V570.5H645M639 571.5H636V570.5H639M633 571.5H630V570.5H633M627 571.5H624V570.5H627M621 571.5H618V570.5H621M615 571.5H612V570.5H615M609 571.5H606V570.5H609M603 571.5H600V570.5H603M597 571.5H594V570.5H597M591 571.5H588V570.5H591M585 571.5H582V570.5H585M579 571.5H576V570.5H579M573 571.5H570V570.5H573M567 571.5H564V570.5H567M561 571.5H558V570.5H561M555 571.5H552V570.5H555M549 571.5H546V570.5H549M543 571.5H540V570.5H543M537 571.5H534V570.5H537M531 571.5H528V570.5H531M525 571.5H522V570.5H525M519 571.5H516V570.5H519M513 571.5H510V570.5H513M507 571.5H504V570.5H507M501 571.5H498V570.5H501M495 571.5H492V570.5H495M489 571.5H486V570.5H489M483 571.5H480V570.5H483M477 571.5H474V570.5H477M471 571.5H468V570.5H471M465 571.5H462V570.5H465M459 571.5H456V570.5H459M453 571.5H450V570.5H453M447 571.5H444V570.5H447M441 571.5H438V570.5H441M435 571.5H432V570.5H435M429 571.5H426V570.5H429M423 571.5H420V570.5H423M417 571.5H414V570.5H417M411 571.5H408V570.5H411M405 571.5H402V570.5H405"/>
<path transform="matrix(.71812078,0,0,.71812078,.35906039,.35906039)" d="M741 531.5H738V530.5H741M735 531.5H732V530.5H735M729 531.5H726V530.5H729M723 531.5H720V530.5H723M717 531.5H714V530.5H717M711 531.5H708V530.5H711M705 531.5H702V530.5H705M699 531.5H696V530.5H699M693 531.5H690V530.5H693M687 531.5H684V530.5H687M681 531.5H678V530.5H681M675 531.5H672V530.5H675M669 531.5H666V530.5H669M663 531.5H660V530.5H663M657 531.5H654V530.5H657M651 531.5H648V530.5H651M645 531.5H642V530.5H645M639 531.5H636V530.5H639M633 531.5H630V530.5H633M627 531.5H624V530.5H627M621 531.5H618V530.5H621M615 531.5H612V530.5H615M609 531.5H606V530.5H609M603 531.5H600V530.5H603M597 531.5H594V530.5H597M591 531.5H588V530.5H591M585 531.5H582V530.5H585M579 531.5H576V530.5H579M573 531.5H570V530.5H573M567 531.5H564V530.5H567M561 531.5H558V530.5H561M555 531.5H552V530.5H555M549 531.5H546V530.5H549M543 531.5H540V530.5H543M537 531.5H534V530.5H537M531 531.5H528V530.5H531M525 531.5H522V530.5H525M519 531.5H516V530.5H519M513 531.5H510V530.5H513M507 531.5H504V530.5H507M501 531.5H498V530.5H501M495 531.5H492V530.5H495M489 531.5H486V530.5H489M483 531.5H480V530.5H483M477 531.5H474V530.5H477M471 531.5H468V530.5H471M465 531.5H462V530.5H465M459 531.5H456V530.5H459M453 531.5H450V530.5H453M447 531.5H444V530.5H447M441 531.5H438V530.5H441M435 531.5H432V530.5H435M429 531.5H426V530.5H429M423 531.5H420V530.5H423M417 531.5H414V530.5H417M411 531.5H408V530.5H411M405 531.5H402V530.5H405"/>
<path transform="matrix(.71812078,0,0,.71812078,.35906039,.35906039)" d="M741 491.5H738V490.5H741M735 491.5H732V490.5H735M729 491.5H726V490.5H729M723 491.5H720V490.5H723M717 491.5H714V490.5H717M711 491.5H708V490.5H711M705 491.5H702V490.5H705M699 491.5H696V490.5H699M693 491.5H690V490.5H693M687 491.5H684V490.5H687M681 491.5H678V490.5H681M675 491.5H672V490.5H675M669 491.5H666V490.5H669M663 491.5H660V490.5H663M657 491.5H654V490.5H657M651 491.5H648V490.5H651M645 491.5H642V490.5H645M639 491.5H636V490.5H639M633 491.5H630V490.5H633M627 491.5H624V490.5H627M621 491.5H618V490.5H621M615 491.5H612V490.5H615M609 491.5H606V490.5H609M603 491.5H600V490.5H603M597 491.5H594V490.5H597M591 491.5H588V490.5H591M585 491.5H582V490.5H585M579 491.5H576V490.5H579M573 491.5H570V490.5H573M567 491.5H564V490.5H567M561 491.5H558V490.5H561M555 491.5H552V490.5H555M549 491.5H546V490.5H549M543 491.5H540V490.5H543M537 491.5H534V490.5H537M531 491.5H528V490.5H531M525 491.5H522V490.5H525M519 491.5H516V490.5H519M513 491.5H510V490.5H513M507 491.5H504V490.5H507M501 491.5H498V490.5H501M495 491.5H492V490.5H495M489 491.5H486V490.5H489M483 491.5H480V490.5H483M477 491.5H474V490.5H477M471 491.5H468V490.5H471M465 491.5H462V490.5H465M459 491.5H456V490.5H459M453 491.5H450V490.5H453M447 491.5H444V490.5H447M441 491.5H438V490.5H441M435 491.5H432V490.5H435M429 491.5H426V490.5H429M423 491.5H420V490.5H423M417 491.5H414V490.5H417M411 491.5H408V490.5H411M405 491.5H402V490.5H405"/>
<path transform="matrix(.71812078,0,0,.71812078,.35906039,.35906039)" stroke-width="1" stroke-linecap="butt" stroke-miterlimit="10" stroke-linejoin="miter" fill="none" stroke="#000000" d="M668.07 378.07 696.5 406.5"/>
<path transform="matrix(.71812078,0,0,.71812078,.35906039,.35906039)" d="M700.21 410.21 692.78 407.73 696.5 406.5 697.73 402.78 700.21 410.21Z"/>
<path transform="matrix(.71812078,0,0,.71812078,.35906039,.35906039)" stroke-width="1" stroke-linecap="butt" stroke-miterlimit="10" stroke-linejoin="miter" fill="none" stroke="#000000" d="M700.21 410.21 692.78 407.73 696.5 406.5 697.73 402.78 700.21 410.21Z"/>
<path transform="matrix(.71812078,0,0,.71812078,.35906039,.35906039)" stroke-width="1" stroke-linecap="butt" stroke-miterlimit="10" stroke-linejoin="miter" fill="none" stroke="#000000" d="M653.93 378.07 632.57 399.43"/>
<path transform="matrix(.71812078,0,0,.71812078,.35906039,.35906039)" d="M628.86 403.14 631.34 395.71 632.57 399.43 636.29 400.66 628.86 403.14Z"/>
<path transform="matrix(.71812078,0,0,.71812078,.35906039,.35906039)" stroke-width="1" stroke-linecap="butt" stroke-miterlimit="10" stroke-linejoin="miter" fill="none" stroke="#000000" d="M628.86 403.14 631.34 395.71 632.57 399.43 636.29 400.66 628.86 403.14Z"/>
<path transform="matrix(.71812078,0,0,.71812078,.35906039,.35906039)" d="M671 371C670.99996 371.65663 670.9359 372.30693 670.8078 372.9509 670.6797 373.59489 670.49 374.22019 670.2388 374.8268 669.9875 375.43345 669.67947 376.00975 669.31466 376.5557 668.9498 377.10166 668.5353 377.60679 668.07107 378.07109 667.60678 378.53535 667.10159 378.9499 666.5556 379.31468 666.00967 379.67948 665.43338 379.98753 664.8267 380.23878 664.2201 380.49006 663.59487 380.67976 662.95089 380.80784 662.3069 380.93595 661.6566 381 661 381 660.3434 381 659.69308 380.93595 659.0491 380.80784 658.4051 380.67976 657.7797 380.49006 657.1731 380.23878 656.56649 379.98753 655.9902 379.67948 655.4442 379.31468 654.89828 378.9499 654.3931 378.53535 653.9289 378.07109 653.4646 377.60679 653.05007 377.10166 652.68527 376.5557 652.32046 376.00975 652.01248 375.43345 651.76119 374.8268 651.5099 374.22019 651.3202 373.59489 651.1921 372.9509 651.064 372.30693 651 371.65663 651 371 651 370.34339 651.064 369.69309 651.1921 369.04908 651.3202 368.4051 651.5099 367.7798 651.76119 367.17317 652.01248 366.56654 652.32046 365.99024 652.68527 365.4443 653.05007 364.89833 653.4646 364.3932 653.9289 363.92893 654.3931 363.46464 654.89828 363.05009 655.4442 362.6853 655.9902 362.3205 656.56649 362.01246 657.1731 361.76118 657.7797 361.50993 658.4051 361.32026 659.0491 361.19215 659.69308 361.06407 660.3434 361 661 361 661.6566 361 662.3069 361.06407 662.95089 361.19215 663.59487 361.32026 664.2201 361.50993 664.8267 361.76118 665.43338 362.01246 666.00967 362.3205 666.5556 362.6853 667.10159 363.05009 667.60678 363.46464 668.07107 363.92893 668.5353 364.3932 668.9498 364.89833 669.31466 365.44429 669.67947 365.99024 669.9875 366.56654 670.2388 367.17314 670.49 367.77976 670.6797 368.4051 670.8078 369.0491 670.9359 369.69309 670.99996 370.34339 671 371Z" fill="#fff2cc"/>
<path transform="matrix(.71812078,0,0,.71812078,.35906039,.35906039)" stroke-width="1" stroke-linecap="butt" stroke-miterlimit="4" stroke-linejoin="miter" fill="none" stroke="#d6b656" d="M671 371C670.99996 371.65663 670.9359 372.30693 670.8078 372.9509 670.6797 373.59489 670.49 374.22019 670.2388 374.8268 669.9875 375.43345 669.67947 376.00975 669.31466 376.5557 668.9498 377.10166 668.5353 377.60679 668.07107 378.07109 667.60678 378.53535 667.10159 378.9499 666.5556 379.31468 666.00967 379.67948 665.43338 379.98753 664.8267 380.23878 664.2201 380.49006 663.59487 380.67976 662.95089 380.80784 662.3069 380.93595 661.6566 381 661 381 660.3434 381 659.69308 380.93595 659.0491 380.80784 658.4051 380.67976 657.7797 380.49006 657.1731 380.23878 656.56649 379.98753 655.9902 379.67948 655.4442 379.31468 654.89828 378.9499 654.3931 378.53535 653.9289 378.07109 653.4646 377.60679 653.05007 377.10166 652.68527 376.5557 652.32046 376.00975 652.01248 375.43345 651.76119 374.8268 651.5099 374.22019 651.3202 373.59489 651.1921 372.9509 651.064 372.30693 651 371.65663 651 371 651 370.34339 651.064 369.69309 651.1921 369.04908 651.3202 368.4051 651.5099 367.7798 651.76119 367.17317 652.01248 366.56654 652.32046 365.99024 652.68527 365.4443 653.05007 364.89833 653.4646 364.3932 653.9289 363.92893 654.3931 363.46464 654.89828 363.05009 655.4442 362.6853 655.9902 362.3205 656.56649 362.01246 657.1731 361.76118 657.7797 361.50993 658.4051 361.32026 659.0491 361.19215 659.69308 361.06407 660.3434 361 661 361 661.6566 361 662.3069 361.06407 662.95089 361.19215 663.59487 361.32026 664.2201 361.50993 664.8267 361.76118 665.43338 362.01246 666.00967 362.3205 666.5556 362.6853 667.10159 363.05009 667.60678 363.46464 668.07107 363.92893 668.5353 364.3932 668.9498 364.89833 669.31466 365.44429 669.67947 365.99024 669.9875 366.56654 670.2388 367.17314 670.49 367.77976 670.6797 368.4051 670.8078 369.0491 670.9359 369.69309 670.99996 370.34339 671 371Z"/>
<use data-text="S" xlink:href="#font_3_54" transform="matrix(8.617449,0,0,-8.617449,471.79414,270.0134)"/>
<path transform="matrix(.71812078,0,0,.71812078,.35906039,.35906039)" d="M681 531 701 411 721 531H681Z" fill="#ff0000"/>
<path transform="matrix(.71812078,0,0,.71812078,.35906039,.35906039)" stroke-width="1" stroke-linecap="butt" stroke-miterlimit="10" stroke-linejoin="miter" fill="none" stroke="#666666" d="M681 531 701 411 721 531H681Z"/>
<path transform="matrix(.71812078,0,0,.71812078,.35906039,.35906039)" d="M581 571 596 451 611 571H581Z" fill="#ffff33"/>
<path transform="matrix(.71812078,0,0,.71812078,.35906039,.35906039)" stroke-width="1" stroke-linecap="butt" stroke-miterlimit="10" stroke-linejoin="miter" fill="none" stroke="#666666" d="M581 571 596 451 611 571H581Z"/>
<path transform="matrix(.71812078,0,0,.71812078,.35906039,.35906039)" d="M461 491 501 371 541 491H461Z" fill="#0000ff"/>
<path transform="matrix(.71812078,0,0,.71812078,.35906039,.35906039)" stroke-width="1" stroke-linecap="butt" stroke-miterlimit="10" stroke-linejoin="miter" fill="none" stroke="#666666" d="M461 491 501 371 541 491H461Z"/>
<path transform="matrix(.71812078,0,0,.71812078,.35906039,.35906039)" stroke-width="1" stroke-linecap="butt" stroke-miterlimit="10" stroke-linejoin="miter" fill="none" stroke="#000000" d="M615.7 419.48 599.38 445.6"/>
<path transform="matrix(.71812078,0,0,.71812078,.35906039,.35906039)" d="M596.59 450.05 597.33 442.26 599.38 445.6 603.27 445.97 596.59 450.05Z"/>
<path transform="matrix(.71812078,0,0,.71812078,.35906039,.35906039)" stroke-width="1" stroke-linecap="butt" stroke-miterlimit="10" stroke-linejoin="miter" fill="none" stroke="#000000" d="M596.59 450.05 597.33 442.26 599.38 445.6 603.27 445.97 596.59 450.05Z"/>
<path transform="matrix(.71812078,0,0,.71812078,.35906039,.35906039)" stroke-width="1" stroke-linecap="butt" stroke-miterlimit="10" stroke-linejoin="miter" fill="none" stroke="#000000" d="M626.3 419.48 642.62 445.6"/>
<path transform="matrix(.71812078,0,0,.71812078,.35906039,.35906039)" d="M645.41 450.05 638.73 445.97 642.62 445.6 644.67 442.26 645.41 450.05Z"/>
<path transform="matrix(.71812078,0,0,.71812078,.35906039,.35906039)" stroke-width="1" stroke-linecap="butt" stroke-miterlimit="10" stroke-linejoin="miter" fill="none" stroke="#000000" d="M645.41 450.05 638.73 445.97 642.62 445.6 644.67 442.26 645.41 450.05Z"/>
<path transform="matrix(.71812078,0,0,.71812078,.35906039,.35906039)" d="M631 411C631 411.6566 630.9359 412.30686 630.8078 412.95085 630.6797 413.59486 630.49 414.22016 630.2387 414.82679 629.9874 415.4334 629.6794 416.0097 629.3146 416.55564 628.94979 417.10163 628.5353 417.60676 628.071 418.07106 627.6067 418.5353 627.1016 418.94987 626.55569 419.31465 626.0097 419.6794 625.4334 419.98747 624.8268 420.23875 624.22018 420.49 623.59487 420.6797 622.95089 420.8078 622.3069 420.93589 621.6566 420.99998 621 421 620.3434 420.99998 619.69308 420.93589 619.049 420.8078 618.405 420.6797 617.7797 420.49 617.1731 420.23875 616.56649 419.98747 615.9902 419.6794 615.4442 419.31465 614.89828 418.94987 614.3932 418.5353 613.9289 418.07106 613.4646 417.60676 613.05007 417.10163 612.68527 416.55567 612.32046 416.0097 612.0124 415.4334 611.7611 414.82679 611.5098 414.22016 611.3202 413.59486 611.19216 412.95088 611.064 412.30686 610.99996 411.6566 611 411 610.99996 410.34339 611.064 409.69309 611.19216 409.04908 611.3202 408.40507 611.5098 407.77976 611.7611 407.1731 612.0124 406.56648 612.32046 405.99018 612.68527 405.44425 613.05007 404.8983 613.4646 404.39317 613.9289 403.9289 614.3932 403.4646 614.89828 403.05006 615.4442 402.68528 615.9902 402.32048 616.56649 402.01243 617.1731 401.76118 617.7797 401.50993 618.405 401.32026 619.049 401.19218 619.69308 401.06407 620.3434 401 621 401 621.6566 401 622.3069 401.06407 622.95089 401.19218 623.59487 401.32026 624.22018 401.50993 624.8268 401.76118 625.4334 402.01243 626.00967 402.32048 626.5556 402.68528 627.10159 403.05006 627.6067 403.4646 628.071 403.9289 628.5353 404.39317 628.94979 404.8983 629.3146 405.44425 629.6794 405.99018 629.9874 406.56648 630.2387 407.1731 630.49 407.77976 630.6797 408.40507 630.8078 409.04908 630.9359 409.69309 631 410.34339 631 411Z" fill="#fff2cc"/>
<path transform="matrix(.71812078,0,0,.71812078,.35906039,.35906039)" stroke-width="1" stroke-linecap="butt" stroke-miterlimit="4" stroke-linejoin="miter" fill="none" stroke="#d6b656" d="M631 411C631 411.6566 630.9359 412.30686 630.8078 412.95085 630.6797 413.59486 630.49 414.22016 630.2387 414.82679 629.9874 415.4334 629.6794 416.0097 629.3146 416.55564 628.94979 417.10163 628.5353 417.60676 628.071 418.07106 627.6067 418.5353 627.1016 418.94987 626.55569 419.31465 626.0097 419.6794 625.4334 419.98747 624.8268 420.23875 624.22018 420.49 623.59487 420.6797 622.95089 420.8078 622.3069 420.93589 621.6566 420.99998 621 421 620.3434 420.99998 619.69308 420.93589 619.049 420.8078 618.405 420.6797 617.7797 420.49 617.1731 420.23875 616.56649 419.98747 615.9902 419.6794 615.4442 419.31465 614.89828 418.94987 614.3932 418.5353 613.9289 418.07106 613.4646 417.60676 613.05007 417.10163 612.68527 416.55567 612.32046 416.0097 612.0124 415.4334 611.7611 414.82679 611.5098 414.22016 611.3202 413.59486 611.19216 412.95088 611.064 412.30686 610.99996 411.6566 611 411 610.99996 410.34339 611.064 409.69309 611.19216 409.04908 611.3202 408.40507 611.5098 407.77976 611.7611 407.1731 612.0124 406.56648 612.32046 405.99018 612.68527 405.44425 613.05007 404.8983 613.4646 404.39317 613.9289 403.9289 614.3932 403.4646 614.89828 403.05006 615.4442 402.68528 615.9902 402.32048 616.56649 402.01243 617.1731 401.76118 617.7797 401.50993 618.405 401.32026 619.049 401.19218 619.69308 401.06407 620.3434 401 621 401 621.6566 401 622.3069 401.06407 622.95089 401.19218 623.59487 401.32026 624.22018 401.50993 624.8268 401.76118 625.4334 402.01243 626.00967 402.32048 626.5556 402.68528 627.10159 403.05006 627.6067 403.4646 628.071 403.9289 628.5353 404.39317 628.94979 404.8983 629.3146 405.44425 629.6794 405.99018 629.9874 406.56648 630.2387 407.1731 630.49 407.77976 630.6797 408.40507 630.8078 409.04908 630.9359 409.69309 631 410.34339 631 411Z"/>
<use data-text="P" xlink:href="#font_3_51" transform="matrix(8.617449,0,0,-8.617449,443.06929,298.73823)"/>
<path transform="matrix(.71812078,0,0,.71812078,.35906039,.35906039)" d="M631 571 646 451 661 571H631Z" fill="#00ff00"/>
<path transform="matrix(.71812078,0,0,.71812078,.35906039,.35906039)" stroke-width="1" stroke-linecap="butt" stroke-miterlimit="10" stroke-linejoin="miter" fill="none" stroke="#666666" d="M631 571 646 451 661 571H631Z"/>
</g>
</svg>
