<svg xmlns="http://www.w3.org/2000/svg" xmlns:xlink="http://www.w3.org/1999/xlink" xmlns:inkscape="http://www.inkscape.org/namespaces/inkscape" version="1.1" width="317.714" height="67.874" viewBox="0 0 317.714 67.874">
<g>
<path transform="matrix(1,0,0,-1,0,0)" d="M81.188-54.188H128.528V-67.688H81.188Z" fill="#e6e6e6"/>
<path transform="matrix(1,0,0,-1,0,0)" stroke-width=".374" stroke-linecap="butt" stroke-miterlimit="10" stroke-linejoin="miter" fill="none" stroke="#211e1e" d="M81.188-54.188H128.528V-67.688H81.188Z"/>
<path d="M89.285 62.801C89.176 62.801 89.066 62.832 88.988 62.926 88.91 63.004 88.863 63.129 88.863 63.285 88.863 63.457 88.957 63.645 89.129 63.816 89.301 63.988 89.566 64.066 89.941 64.066 90.457 64.066 90.879 63.832 91.191 63.379 91.363 63.113 91.52 62.723 91.676 62.176L92.598 58.848C92.676 58.566 92.754 58.395 92.848 58.332 92.926 58.254 93.098 58.207 93.332 58.176V58.035H91.051V58.176C91.332 58.191 91.52 58.223 91.613 58.285 91.691 58.348 91.738 58.441 91.738 58.551 91.738 58.629 91.723 58.723 91.707 58.801 91.691 58.879 91.676 58.988 91.629 59.113L90.504 63.191C90.441 63.41 90.395 63.551 90.332 63.613 90.27 63.723 90.16 63.801 90.02 63.801 89.941 63.801 89.848 63.77 89.785 63.707 89.723 63.66 89.707 63.566 89.707 63.426 89.707 63.395 89.707 63.348 89.707 63.301 89.707 63.27 89.707 63.223 89.707 63.191 89.707 63.082 89.676 62.988 89.598 62.895 89.52 62.832 89.426 62.801 89.285 62.801ZM89.285 62.801" fill="#211e1e"/>
<path d="M101.41 63.91H103.645V63.77C103.426 63.754 103.285 63.723 103.207 63.691 103.066 63.645 103.004 63.52 103.004 63.363 103.004 63.332 103.004 63.301 103.02 63.27 103.02 63.238 103.02 63.207 103.02 63.176L103.113 62.832 103.645 60.848 103.738 60.863 104.613 62.379C104.754 62.629 104.879 62.863 104.973 63.066 105.066 63.27 105.113 63.41 105.113 63.504 105.113 63.598 105.051 63.66 104.926 63.707 104.832 63.723 104.676 63.754 104.441 63.77V63.91H106.91V63.77C106.66 63.754 106.488 63.723 106.379 63.66 106.27 63.598 106.16 63.473 106.035 63.27L104.473 60.535 107.176 58.504C107.332 58.379 107.488 58.285 107.613 58.238 107.691 58.207 107.77 58.191 107.848 58.176V58.035H105.848V58.176C106.051 58.191 106.191 58.207 106.285 58.238 106.363 58.27 106.395 58.316 106.395 58.41 106.395 58.551 106.191 58.785 105.816 59.098 105.582 59.301 105.285 59.52 104.926 59.785L103.801 60.551H103.738L104.207 58.848C104.285 58.582 104.41 58.395 104.598 58.301 104.707 58.238 104.879 58.191 105.113 58.176V58.035H102.66V58.176C102.91 58.191 103.098 58.207 103.191 58.27 103.301 58.316 103.348 58.426 103.348 58.551 103.348 58.629 103.348 58.723 103.332 58.801 103.316 58.895 103.285 59.004 103.254 59.113L102.145 63.098C102.066 63.379 101.973 63.566 101.848 63.645 101.754 63.707 101.613 63.754 101.41 63.77ZM101.41 63.91" fill="#211e1e"/>
<path transform="matrix(1,0,0,-1,0,0)" d="M135.188-54.188H169.028V-67.688H135.188Z" fill="#a6a8ab"/>
<path transform="matrix(1,0,0,-1,0,0)" stroke-width=".374" stroke-linecap="butt" stroke-miterlimit="10" stroke-linejoin="miter" fill="none" stroke="#211e1e" d="M135.188-54.188H169.028V-67.688H135.188Z"/>
<path d="M141.84 63.91H143.637V63.77C143.449 63.754 143.309 63.738 143.23 63.707 143.074 63.645 142.996 63.52 142.996 63.363 142.996 63.301 143.012 63.223 143.027 63.129 143.043 63.035 143.059 62.957 143.074 62.895L144.074 59.145H144.121L146.184 64.066H146.34C146.402 63.832 146.434 63.691 146.449 63.645 146.465 63.582 146.496 63.488 146.527 63.363L147.605 59.504C147.762 58.941 147.902 58.598 147.98 58.473 148.09 58.332 148.262 58.238 148.543 58.176V58.035H146.746V58.176C146.934 58.191 147.09 58.207 147.168 58.254 147.309 58.316 147.387 58.426 147.387 58.598 147.387 58.629 147.371 58.691 147.371 58.785 147.34 58.863 147.324 58.957 147.309 59.051L146.402 62.488 146.371 62.504 144.527 58.035H143.074V58.176C143.215 58.191 143.309 58.207 143.402 58.238 143.465 58.254 143.527 58.27 143.59 58.316 143.652 58.348 143.699 58.41 143.762 58.504 143.809 58.598 143.824 58.629 143.824 58.66L142.777 62.441C142.621 62.988 142.496 63.348 142.387 63.488 142.277 63.629 142.105 63.723 141.84 63.77ZM141.84 63.91" fill="#211e1e"/>
<path d="M157.66 63.77C157.285 63.77 157.004 63.645 156.801 63.395 156.598 63.16 156.488 62.801 156.488 62.332 156.488 61.52 156.723 60.676 157.176 59.801 157.723 58.77 158.379 58.254 159.145 58.254 159.535 58.254 159.848 58.379 160.051 58.629 160.238 58.895 160.348 59.254 160.348 59.723 160.348 60.457 160.113 61.27 159.676 62.145 159.145 63.223 158.457 63.77 157.66 63.77ZM159.176 57.926C158.27 57.926 157.441 58.348 156.66 59.207 155.895 60.051 155.504 60.973 155.504 61.941 155.504 62.629 155.707 63.145 156.098 63.52 156.488 63.879 156.973 64.066 157.566 64.066 158.504 64.066 159.348 63.66 160.113 62.863 160.895 62.035 161.285 61.098 161.285 60.051 161.285 59.457 161.098 58.957 160.707 58.535 160.316 58.129 159.801 57.926 159.176 57.926ZM159.176 57.926" fill="#211e1e"/>
<path transform="matrix(1,0,0,-1,0,0)" d="M243.188-54.188H277.028V-67.688H243.188Z" fill="#a6a8ab"/>
<path transform="matrix(1,0,0,-1,0,0)" stroke-width=".374" stroke-linecap="butt" stroke-miterlimit="10" stroke-linejoin="miter" fill="none" stroke="#211e1e" d="M243.188-54.188H277.028V-67.688H243.188Z"/>
<path transform="matrix(1,0,0,-1,0,0)" d="M.188-54.188H74.528V-67.688H.188Z" fill="#a6a8ab"/>
<path transform="matrix(1,0,0,-1,0,0)" stroke-width=".374" stroke-linecap="butt" stroke-miterlimit="10" stroke-linejoin="miter" fill="none" stroke="#211e1e" d="M.188-54.188H74.528V-67.688H.188Z"/>
<path d="M49.309 63.629C49.059 63.629 48.902 63.598 48.809 63.551 48.73 63.504 48.699 63.41 48.699 63.285 48.699 63.238 48.699 63.207 48.699 63.16 48.699 63.129 48.73 63.051 48.746 62.973L49.965 58.566C49.996 58.473 50.043 58.395 50.137 58.363 50.215 58.316 50.355 58.301 50.559 58.301 51.277 58.301 51.777 58.488 52.059 58.879 52.34 59.27 52.465 59.738 52.465 60.285 52.465 60.879 52.34 61.441 52.059 62.004 51.527 63.082 50.605 63.629 49.309 63.629ZM47.09 63.91H49.465C50.684 63.91 51.684 63.551 52.434 62.816 53.121 62.16 53.48 61.379 53.48 60.473 53.48 60.02 53.371 59.613 53.184 59.238 53.059 59.004 52.887 58.801 52.699 58.613 52.418 58.379 52.121 58.223 51.793 58.145 51.465 58.066 51.09 58.035 50.652 58.035H48.34V58.176C48.605 58.191 48.793 58.207 48.887 58.27 48.98 58.332 49.027 58.426 49.027 58.582 49.027 58.645 49.027 58.723 49.012 58.801 48.98 58.895 48.965 59.004 48.934 59.113L47.824 63.098C47.746 63.379 47.652 63.566 47.512 63.645 47.449 63.707 47.293 63.754 47.09 63.77ZM47.09 63.91" fill="#211e1e"/>
<path d="M61.191 63.91H65.754L66.316 62.457 66.176 62.379C65.832 62.879 65.488 63.207 65.129 63.379 64.785 63.551 64.207 63.645 63.41 63.645 63.129 63.645 62.957 63.598 62.863 63.52 62.816 63.473 62.785 63.395 62.785 63.301 62.785 63.254 62.801 63.191 62.816 63.145 62.816 63.098 62.832 63.035 62.848 62.973L63.41 60.957H63.91C64.285 60.957 64.535 60.988 64.66 61.051 64.801 61.098 64.863 61.223 64.863 61.41 64.863 61.457 64.863 61.504 64.863 61.551 64.848 61.582 64.832 61.691 64.801 61.863L64.988 61.91 65.598 59.816 65.441 59.785C65.254 60.191 65.082 60.441 64.926 60.504 64.77 60.582 64.285 60.629 63.488 60.66L64.066 58.566C64.098 58.473 64.16 58.395 64.238 58.379 64.316 58.348 64.504 58.332 64.816 58.332 65.488 58.332 65.941 58.379 66.16 58.473 66.379 58.566 66.488 58.754 66.473 59.051 66.473 59.035 66.473 59.066 66.457 59.145 66.457 59.223 66.457 59.301 66.457 59.395H66.629L66.91 58.035H62.441V58.176C62.691 58.191 62.879 58.207 62.973 58.27 63.082 58.316 63.145 58.426 63.145 58.566 63.145 58.629 63.129 58.691 63.113 58.785 63.082 58.863 63.066 58.973 63.035 59.113L61.926 63.098C61.848 63.379 61.754 63.566 61.613 63.645 61.535 63.707 61.395 63.754 61.191 63.77ZM61.191 63.91" fill="#211e1e"/>
<path d="M22.926 60.629 23.52 58.551C23.535 58.457 23.582 58.395 23.645 58.363 23.723 58.316 23.863 58.301 24.051 58.301 24.363 58.301 24.613 58.379 24.801 58.504 24.988 58.66 25.098 58.895 25.098 59.223 25.098 59.816 24.863 60.223 24.426 60.441 24.16 60.566 23.801 60.629 23.332 60.629ZM22.863 63.629C22.676 63.629 22.551 63.598 22.457 63.582 22.316 63.52 22.238 63.41 22.238 63.254 22.238 63.207 22.238 63.16 22.254 63.113 22.27 63.066 22.27 63.02 22.285 62.973L22.848 60.926C23.473 60.941 23.895 60.988 24.098 61.082 24.426 61.223 24.582 61.551 24.582 62.035 24.582 62.473 24.457 62.848 24.176 63.16 23.895 63.473 23.457 63.629 22.863 63.629ZM20.629 63.91H23.113C23.879 63.91 24.473 63.754 24.91 63.41 25.348 63.082 25.566 62.676 25.566 62.176 25.566 61.738 25.426 61.395 25.145 61.145 24.988 60.988 24.754 60.863 24.457 60.754 24.848 60.66 25.16 60.551 25.395 60.41 25.801 60.16 26.004 59.801 26.004 59.332 26.004 58.785 25.754 58.395 25.254 58.191 24.941 58.082 24.598 58.035 24.191 58.035H21.879V58.176C22.145 58.191 22.332 58.207 22.426 58.27 22.52 58.316 22.582 58.426 22.582 58.582 22.582 58.645 22.566 58.738 22.535 58.879 22.52 58.941 22.504 59.02 22.473 59.129L21.363 63.098C21.285 63.379 21.191 63.566 21.051 63.645 20.988 63.707 20.832 63.754 20.629 63.77ZM20.629 63.91" fill="#211e1e"/>
<path d="M9.23 61.566 10.543 59.223 10.918 61.566ZM7.137 63.91H8.84V63.77C8.637 63.754 8.496 63.723 8.418 63.691 8.34 63.645 8.309 63.566 8.309 63.441 8.309 63.348 8.324 63.238 8.371 63.113 8.402 63.035 8.434 62.957 8.48 62.895L9.043 61.879H10.965L11.152 63.051C11.168 63.098 11.168 63.129 11.168 63.176 11.168 63.238 11.168 63.285 11.168 63.332 11.168 63.504 11.105 63.613 10.98 63.66 10.902 63.707 10.73 63.738 10.48 63.77V63.91H12.684V63.77C12.434 63.738 12.277 63.691 12.199 63.613 12.121 63.535 12.059 63.332 11.996 63.004L11.137 57.91H10.949L8.309 62.41C7.965 62.988 7.73 63.348 7.621 63.488 7.496 63.629 7.34 63.707 7.137 63.77ZM7.137 63.91" fill="#211e1e"/>
<path d="M250.676 61.098C250.582 61.41 250.52 61.691 250.473 61.941 250.426 62.207 250.395 62.395 250.395 62.551 250.395 63.004 250.582 63.363 250.957 63.66 251.332 63.941 251.785 64.098 252.316 64.098 253.004 64.098 253.535 63.91 253.91 63.566 254.27 63.207 254.566 62.613 254.785 61.77L255.41 59.504C255.566 58.941 255.707 58.598 255.801 58.457 255.895 58.332 256.082 58.238 256.348 58.176V58.035H254.551V58.176C254.738 58.191 254.895 58.207 254.973 58.254 255.113 58.316 255.191 58.426 255.191 58.598 255.191 58.645 255.176 58.691 255.16 58.77 255.145 58.832 255.129 58.926 255.098 59.051L254.395 61.738C254.207 62.41 253.973 62.91 253.66 63.223 253.363 63.551 252.941 63.707 252.426 63.707 252.207 63.707 252.004 63.66 251.785 63.566 251.41 63.379 251.223 63.066 251.223 62.613 251.223 62.473 251.254 62.238 251.332 61.91 251.395 61.707 251.441 61.488 251.52 61.254L252.191 58.848C252.254 58.566 252.379 58.395 252.566 58.301 252.676 58.238 252.848 58.191 253.098 58.176V58.035H250.629V58.176C250.879 58.191 251.051 58.207 251.16 58.254 251.27 58.301 251.332 58.395 251.332 58.551 251.332 58.629 251.316 58.723 251.301 58.848 251.285 58.91 251.254 59.004 251.223 59.113ZM250.676 61.098" fill="#211e1e"/>
<path d="M264.215 58.035V58.176C264.465 58.207 264.621 58.27 264.684 58.379 264.746 58.504 264.84 58.832 264.918 59.379L265.684 64.066H265.855L269.215 58.535C269.293 58.395 269.371 58.316 269.434 58.27 269.496 58.238 269.59 58.207 269.715 58.176V58.035H268.043V58.176C268.246 58.207 268.402 58.238 268.48 58.27 268.574 58.316 268.605 58.379 268.605 58.488 268.605 58.598 268.543 58.801 268.402 59.082 268.309 59.238 268.23 59.395 268.137 59.551L266.324 62.676H266.277L265.699 58.77C265.684 58.738 265.684 58.723 265.684 58.691 265.684 58.676 265.684 58.645 265.684 58.629 265.684 58.457 265.762 58.332 265.902 58.254 265.996 58.207 266.168 58.191 266.387 58.176V58.035ZM264.215 58.035" fill="#211e1e"/>
<path transform="matrix(1,0,0,-1,0,0)" d="M283.688-54.188H317.52799V-67.688H283.688Z" fill="#a6a8ab"/>
<path transform="matrix(1,0,0,-1,0,0)" stroke-width=".374" stroke-linecap="butt" stroke-miterlimit="10" stroke-linejoin="miter" fill="none" stroke="#211e1e" d="M283.688-54.188H317.52799V-67.688H283.688Z"/>
<path d="M291.395 63.91H294.02V63.77C293.707 63.754 293.488 63.723 293.379 63.691 293.27 63.645 293.207 63.535 293.207 63.363 293.207 63.316 293.223 63.238 293.238 63.16 293.238 63.082 293.27 62.973 293.316 62.832L293.77 61.16 295.77 58.723C295.926 58.504 296.066 58.379 296.16 58.316 296.254 58.238 296.395 58.191 296.566 58.176V58.035H294.691V58.176C294.91 58.191 295.066 58.207 295.129 58.223 295.254 58.27 295.316 58.348 295.316 58.473 295.316 58.582 295.238 58.754 295.066 58.988 294.973 59.129 294.816 59.332 294.598 59.598L293.598 60.77 293.066 58.848C293.066 58.832 293.051 58.785 293.035 58.691 293.02 58.613 293.004 58.566 293.004 58.52 293.004 58.379 293.066 58.285 293.207 58.238 293.301 58.207 293.441 58.191 293.66 58.176V58.035H291.52V58.176C291.754 58.207 291.91 58.254 291.973 58.301 292.051 58.363 292.113 58.52 292.191 58.77L292.879 61.191 292.348 63.098C292.27 63.363 292.145 63.566 291.973 63.645 291.863 63.707 291.676 63.754 291.395 63.77ZM291.395 63.91" fill="#211e1e"/>
<path d="M304.504 63.91H309.051L309.551 62.395 309.363 62.379C309.145 62.832 308.879 63.16 308.629 63.332 308.363 63.504 307.863 63.582 307.113 63.582H305.676L310.02 58.16V58.035H305.66L305.238 59.348 305.41 59.395C305.613 59.004 305.801 58.738 305.973 58.629 306.238 58.457 306.676 58.363 307.285 58.363H308.816L304.504 63.785ZM304.504 63.91" fill="#211e1e"/>
<path transform="matrix(1,0,0,-1,0,0)" d="M67.688-27.188H101.528V-40.688H67.688Z" fill="#e6e6e6"/>
<path transform="matrix(1,0,0,-1,0,0)" stroke-width=".374" stroke-linecap="butt" stroke-miterlimit="10" stroke-linejoin="miter" fill="none" stroke="#211e1e" d="M67.688-27.188H101.528V-40.688H67.688Z"/>
<path d="M87.215 36.91H89.012V36.77C88.824 36.754 88.684 36.723 88.59 36.691 88.449 36.629 88.387 36.52 88.387 36.348 88.387 36.301 88.387 36.238 88.402 36.145 88.418 36.051 88.449 35.973 88.465 35.895L89.465 32.082H89.512L90.184 36.91H90.355L93.871 31.926H93.902L92.73 36.176C92.652 36.41 92.527 36.582 92.355 36.66 92.246 36.707 92.074 36.754 91.824 36.77V36.91H94.309V36.77C94.059 36.754 93.871 36.723 93.777 36.676 93.652 36.629 93.605 36.535 93.605 36.363 93.605 36.301 93.605 36.223 93.637 36.129 93.652 36.051 93.684 35.941 93.715 35.832L94.809 31.848C94.887 31.566 94.98 31.395 95.059 31.316 95.152 31.254 95.324 31.207 95.559 31.176V31.035H94.074L90.871 35.441H90.84L90.215 31.035H88.574V31.176C88.746 31.176 88.902 31.207 89.059 31.27 89.215 31.316 89.277 31.41 89.23 31.551L88.152 35.441C87.996 35.988 87.871 36.332 87.762 36.488 87.652 36.645 87.48 36.723 87.215 36.77ZM87.215 36.91" fill="#211e1e"/>
<path d="M78.145 30.91C77.082 30.91 76.191 31.332 75.441 32.16 74.785 32.926 74.441 33.738 74.441 34.613 74.441 35.285 74.66 35.848 75.082 36.301 75.566 36.816 76.238 37.066 77.098 37.066 77.52 37.066 77.926 37.02 78.285 36.895 78.66 36.801 78.973 36.66 79.191 36.52L79.629 34.816C79.691 34.566 79.77 34.41 79.879 34.332 79.988 34.254 80.191 34.207 80.488 34.176V34.035H78.098V34.176C78.395 34.207 78.582 34.254 78.676 34.285 78.754 34.332 78.785 34.41 78.785 34.551 78.785 34.566 78.785 34.582 78.785 34.613 78.77 34.645 78.77 34.676 78.77 34.691L78.676 35.098C78.598 35.395 78.535 35.629 78.504 35.801 78.426 36.066 78.363 36.238 78.301 36.332 78.223 36.457 78.082 36.566 77.848 36.645 77.613 36.707 77.395 36.738 77.207 36.738 76.629 36.738 76.207 36.566 75.895 36.223 75.598 35.879 75.441 35.426 75.441 34.863 75.441 34.066 75.66 33.301 76.082 32.566 76.613 31.66 77.285 31.207 78.145 31.207 78.754 31.207 79.207 31.426 79.473 31.832 79.629 32.051 79.723 32.332 79.77 32.707L79.91 32.723 80.363 30.957 80.223 30.926C80.16 31.02 80.082 31.098 80.004 31.145 79.926 31.207 79.816 31.238 79.66 31.238 79.613 31.238 79.551 31.238 79.504 31.207 79.426 31.191 79.332 31.16 79.176 31.098 78.973 31.035 78.785 30.973 78.613 30.957 78.441 30.926 78.285 30.91 78.145 30.91ZM78.145 30.91" fill="#211e1e"/>
<path d="M37.988 57.926C36.941 57.926 36.051 58.348 35.316 59.191 34.645 59.957 34.301 60.801 34.301 61.707 34.301 62.332 34.504 62.879 34.91 63.363 35.301 63.832 35.879 64.066 36.645 64.066 37.129 64.066 37.598 63.957 38.004 63.707 38.426 63.473 38.785 63.16 39.129 62.738L38.973 62.598C38.613 62.957 38.316 63.191 38.082 63.332 37.707 63.566 37.285 63.66 36.832 63.66 36.379 63.66 36.02 63.504 35.754 63.191 35.473 62.879 35.316 62.41 35.316 61.801 35.316 60.957 35.551 60.191 36.02 59.488 36.551 58.66 37.223 58.254 38.051 58.254 38.582 58.254 38.957 58.441 39.191 58.848 39.316 59.066 39.395 59.348 39.441 59.707L39.582 59.723 39.926 57.941H39.738C39.691 58.004 39.66 58.051 39.613 58.082 39.582 58.129 39.504 58.129 39.395 58.129 39.332 58.129 39.145 58.098 38.848 58.035 38.535 57.957 38.254 57.926 37.988 57.926ZM37.988 57.926" fill="#211e1e"/>
<path transform="matrix(1,0,0,-1,0,0)" d="M189.188-54.188H236.528V-67.688H189.188Z" fill="#a6a8ab"/>
<path transform="matrix(1,0,0,-1,0,0)" stroke-width=".374" stroke-linecap="butt" stroke-miterlimit="10" stroke-linejoin="miter" fill="none" stroke="#211e1e" d="M189.188-54.188H236.528V-67.688H189.188Z"/>
<path d="M211.895 60.613 212.457 58.551C212.504 58.441 212.535 58.379 212.613 58.363 212.676 58.332 212.77 58.316 212.895 58.316 213.238 58.316 213.52 58.379 213.723 58.504 213.941 58.645 214.051 58.91 214.051 59.285 214.051 59.785 213.895 60.129 213.582 60.332 213.27 60.551 212.879 60.645 212.426 60.645 212.363 60.645 212.316 60.645 212.27 60.645 212.223 60.645 212.098 60.629 211.895 60.613ZM209.582 63.91H211.801V63.77C211.582 63.754 211.41 63.723 211.316 63.676 211.223 63.629 211.176 63.52 211.176 63.395 211.176 63.301 211.191 63.191 211.223 63.051 211.238 62.988 211.254 62.91 211.285 62.832L211.801 60.941 212.363 60.988 213.473 63.91H214.816V63.77C214.598 63.754 214.457 63.707 214.348 63.598 214.238 63.504 214.145 63.332 214.066 63.113L213.223 60.91C213.691 60.816 214.035 60.691 214.301 60.52 214.77 60.238 215.004 59.832 215.004 59.316 215.004 58.77 214.723 58.395 214.191 58.191 213.91 58.082 213.551 58.035 213.113 58.035H210.895V58.176C211.113 58.191 211.27 58.223 211.379 58.27 211.473 58.316 211.52 58.426 211.52 58.551 211.52 58.629 211.52 58.723 211.488 58.832 211.473 58.941 211.441 59.035 211.426 59.113L210.316 63.098C210.238 63.379 210.145 63.566 210.02 63.645 209.926 63.707 209.785 63.754 209.582 63.77ZM209.582 63.91" fill="#211e1e"/>
<path d="M223.723 64.066H223.879C223.91 63.973 223.957 63.895 224.004 63.863 224.051 63.801 224.129 63.77 224.238 63.77 224.301 63.77 224.488 63.832 224.77 63.941 225.066 64.051 225.363 64.113 225.629 64.113 226.191 64.113 226.613 63.926 226.957 63.566 227.27 63.191 227.441 62.785 227.441 62.316 227.441 62.051 227.379 61.816 227.285 61.613 227.191 61.41 227.066 61.238 226.91 61.082L226.098 60.207C225.863 59.957 225.723 59.754 225.629 59.629 225.551 59.488 225.504 59.316 225.504 59.113 225.504 58.863 225.598 58.66 225.785 58.488 225.957 58.332 226.207 58.254 226.488 58.254 226.957 58.254 227.285 58.426 227.441 58.77 227.551 58.973 227.598 59.285 227.613 59.723H227.77L228.145 57.926H227.926C227.895 57.988 227.848 58.035 227.785 58.098 227.723 58.16 227.645 58.191 227.551 58.191 227.488 58.191 227.348 58.145 227.098 58.066 226.848 57.973 226.598 57.941 226.363 57.941 225.832 57.941 225.426 58.098 225.145 58.41 224.863 58.723 224.723 59.066 224.723 59.426 224.723 59.676 224.785 59.895 224.91 60.098 225.035 60.301 225.316 60.645 225.754 61.113L226.316 61.738C226.441 61.879 226.551 62.051 226.613 62.238 226.645 62.379 226.66 62.488 226.66 62.598 226.66 62.895 226.566 63.16 226.363 63.41 226.16 63.66 225.863 63.785 225.504 63.785 225.129 63.785 224.832 63.645 224.582 63.363 224.316 63.082 224.191 62.707 224.191 62.254 224.191 62.238 224.191 62.176 224.191 62.066H224.02ZM223.723 64.066" fill="#211e1e"/>
<path d="M198.16 63.754C197.785 63.754 197.488 63.629 197.285 63.395 197.082 63.145 196.988 62.785 196.988 62.316 196.988 61.504 197.223 60.676 197.676 59.801 198.223 58.77 198.879 58.254 199.645 58.254 200.035 58.254 200.348 58.379 200.551 58.629 200.738 58.895 200.848 59.254 200.848 59.723 200.848 60.457 200.613 61.27 200.176 62.145 199.645 63.223 198.957 63.754 198.16 63.754ZM198.004 64.066C198.941 64.098 199.785 63.707 200.582 62.895 201.379 62.066 201.785 61.113 201.785 60.051 201.785 59.457 201.598 58.957 201.207 58.535 200.816 58.129 200.301 57.926 199.676 57.926 198.77 57.926 197.941 58.348 197.16 59.207 196.395 60.051 196.004 60.973 196.004 61.926 196.004 62.535 196.176 63.035 196.488 63.395 196.816 63.77 197.176 63.973 197.613 64.02 197.363 64.238 197.16 64.426 196.957 64.582 196.676 64.832 196.363 65.066 196.02 65.316L196.113 65.457C196.285 65.363 196.457 65.285 196.613 65.238 196.785 65.191 196.941 65.176 197.098 65.176 197.27 65.176 197.629 65.238 198.145 65.363 198.676 65.504 199.051 65.566 199.285 65.566 199.598 65.566 199.895 65.52 200.191 65.395 200.723 65.191 201.145 64.848 201.504 64.363L201.363 64.27C201.145 64.488 200.973 64.645 200.816 64.723 200.551 64.879 200.238 64.941 199.863 64.941 199.613 64.941 199.254 64.879 198.77 64.754 198.285 64.645 197.926 64.582 197.707 64.582 197.691 64.582 197.66 64.582 197.629 64.582 197.598 64.582 197.551 64.582 197.52 64.582ZM198.004 64.066" fill="#211e1e"/>
<path d="M115.488 63.91H120.066L120.582 62.301 120.41 62.238C120.145 62.816 119.848 63.176 119.535 63.348 119.207 63.504 118.754 63.582 118.145 63.582 117.926 63.582 117.801 63.582 117.707 63.582 117.566 63.566 117.457 63.566 117.379 63.551 117.27 63.52 117.191 63.504 117.145 63.457 117.098 63.41 117.082 63.348 117.082 63.285 117.082 63.27 117.082 63.238 117.082 63.223 117.082 63.207 117.082 63.191 117.082 63.176L117.176 62.832 118.27 58.848C118.363 58.582 118.488 58.395 118.66 58.301 118.77 58.238 118.941 58.191 119.191 58.176V58.035H116.738V58.176C117.004 58.191 117.176 58.207 117.27 58.27 117.379 58.332 117.426 58.426 117.426 58.566 117.426 58.645 117.426 58.707 117.41 58.77 117.395 58.848 117.363 58.957 117.332 59.113L116.223 63.098C116.145 63.379 116.051 63.566 115.91 63.645 115.832 63.707 115.691 63.754 115.488 63.77ZM115.488 63.91" fill="#211e1e"/>
<path transform="matrix(1,0,0,-1,0,0)" d="M162.188-.188H182.528V-13.688H162.188Z" fill="#e6e6e6"/>
<path transform="matrix(1,0,0,-1,0,0)" stroke-width=".374" stroke-linecap="butt" stroke-miterlimit="10" stroke-linejoin="miter" fill="none" stroke="#211e1e" d="M162.188-.188H182.528V-13.688H162.188Z"/>
<path d="M169.207 9.91H171.426V9.77C171.191 9.754 171.02 9.723 170.941 9.66 170.848 9.613 170.801 9.504 170.801 9.363 170.801 9.301 170.816 9.207 170.848 9.082 170.848 9.02 170.879 8.926 170.91 8.832L171.395 7.098C171.504 7.113 171.629 7.129 171.754 7.145 171.895 7.145 172.02 7.16 172.145 7.16 173.207 7.16 173.926 6.879 174.332 6.348 174.551 6.082 174.645 5.754 174.645 5.395 174.645 4.816 174.395 4.426 173.863 4.207 173.566 4.082 173.207 4.035 172.738 4.035H170.52V4.176C170.754 4.191 170.91 4.223 171.02 4.27 171.113 4.332 171.16 4.426 171.16 4.566 171.16 4.598 171.16 4.629 171.145 4.66 171.145 4.691 171.145 4.738 171.129 4.77L171.051 5.113 169.941 9.098C169.863 9.379 169.77 9.566 169.645 9.645 169.551 9.707 169.41 9.754 169.207 9.77ZM171.473 6.785 172.098 4.551C172.129 4.441 172.191 4.379 172.254 4.348 172.332 4.316 172.441 4.316 172.566 4.316 172.926 4.316 173.207 4.395 173.426 4.551 173.629 4.691 173.738 4.973 173.738 5.348 173.738 5.973 173.504 6.41 173.035 6.645 172.785 6.754 172.441 6.816 172.004 6.816 171.863 6.816 171.77 6.816 171.676 6.816 171.598 6.801 171.535 6.785 171.473 6.785ZM171.473 6.785" fill="#211e1e"/>
<path transform="matrix(1,0,0,-1,0,0)" d="M236.527-27.188H270.18699V-40.688H236.527Z" fill="#e6e6e6"/>
<path transform="matrix(1,0,0,-1,0,0)" stroke-width=".374" stroke-linecap="butt" stroke-miterlimit="10" stroke-linejoin="miter" fill="none" stroke="#211e1e" d="M236.527-27.188H270.18699V-40.688H236.527Z"/>
<path d="M259.688 36.91H262.156V36.77C261.891 36.754 261.703 36.707 261.578 36.629 261.438 36.535 261.328 36.363 261.219 36.098L260.297 33.785C260.422 33.645 260.672 33.348 261.063 32.91 261.438 32.473 261.641 32.238 261.688 32.207 262.016 31.816 262.25 31.566 262.391 31.457 262.531 31.348 262.719 31.254 262.938 31.176V31.035H261.063V31.176C261.281 31.207 261.438 31.238 261.5 31.27 261.578 31.301 261.625 31.379 261.625 31.488 261.625 31.551 261.594 31.613 261.563 31.676 261.531 31.754 261.484 31.816 261.438 31.863L260.141 33.379 259.516 31.816C259.484 31.754 259.484 31.707 259.469 31.676 259.453 31.645 259.453 31.613 259.453 31.566 259.453 31.426 259.5 31.332 259.594 31.301 259.688 31.254 259.859 31.207 260.109 31.176V31.035H257.734V31.176C257.984 31.207 258.172 31.254 258.281 31.316 258.375 31.363 258.469 31.504 258.563 31.723L259.516 34.098 258.375 35.41C258.016 35.832 257.75 36.113 257.563 36.301 257.25 36.582 257 36.738 256.781 36.77V36.91H258.719V36.77C258.516 36.77 258.391 36.754 258.313 36.723 258.188 36.676 258.125 36.582 258.125 36.457 258.125 36.379 258.141 36.301 258.188 36.223 258.219 36.16 258.281 36.098 258.328 36.035L259.672 34.488 260.281 35.973C260.313 36.051 260.328 36.129 260.344 36.223 260.375 36.301 260.375 36.363 260.375 36.41 260.375 36.566 260.313 36.66 260.172 36.707 260.094 36.738 259.922 36.754 259.688 36.77ZM259.688 36.91" fill="#211e1e"/>
<path d="M244.094 36.91H246.688V36.77C246.375 36.754 246.156 36.723 246.047 36.691 245.938 36.645 245.891 36.535 245.891 36.363 245.891 36.301 245.906 36.191 245.938 36.098 245.938 36.004 245.969 35.926 246 35.832L247.25 31.348H247.766C248.125 31.348 248.375 31.426 248.5 31.551 248.625 31.691 248.688 31.895 248.688 32.16L248.672 32.488 248.828 32.504 249.219 31.035H244.422L244.047 32.426 244.203 32.441C244.484 31.926 244.75 31.613 244.984 31.504 245.203 31.395 245.656 31.348 246.344 31.348L245.031 36.098C244.953 36.363 244.828 36.566 244.641 36.645 244.531 36.707 244.359 36.754 244.094 36.77ZM244.094 36.91" fill="#211e1e"/>
<path d="M40.688 54.188 44.469 50.23 43.746 52.57 46.086 53.109 40.688 54.188" fill="#211e1e" fill-rule="evenodd"/>
<path d="M70.926 37.09H71.301V37.461L43.941 52.762H43.566V52.387" fill="#211e1e"/>
<path d="M104.945 54.188 99.906 52.027H102.246L101.887 49.688 104.945 54.188" fill="#211e1e" fill-rule="evenodd"/>
<path d="M84.426 37.09H84.801L102.441 51.848V52.223H102.066L84.426 37.461" fill="#211e1e"/>
<path d="M152.105 54.188H146.707L148.867 53.109 147.605 51.129 152.105 54.188" fill="#211e1e" fill-rule="evenodd"/>
<path d="M97.926 37.09H98.301L149.063 52.93V53.301H148.688L97.926 37.461" fill="#211e1e"/>
<path d="M212.945 54.188 216.367 50.047 215.828 52.387 218.168 52.75 212.945 54.188" fill="#211e1e" fill-rule="evenodd"/>
<path d="M239.766 37.09H240.141V37.461L216.02 52.582H215.648V52.207" fill="#211e1e"/>
<path d="M260.105 54.188 256.688 50.047 258.848 50.949 259.746 48.789 260.105 54.188" fill="#211e1e" fill-rule="evenodd"/>
<path d="M253.266 37.09H253.641L259.043 50.77V51.145H258.668L253.266 37.461" fill="#211e1e"/>
<path d="M300.605 54.188 295.207 53.289 297.547 52.57 296.648 50.41 300.605 54.188" fill="#211e1e" fill-rule="evenodd"/>
<path d="M266.766 37.09H267.141L297.742 52.387V52.762H297.367L266.766 37.461" fill="#211e1e"/>
<path d="M84.605 27.188 89.289 24.488 88.027 26.469 90.008 27.73 84.605 27.188" fill="#211e1e" fill-rule="evenodd"/>
<path d="M165.426 10.09H165.801V10.461L88.223 26.664H87.848V26.289" fill="#211e1e"/>
<path d="M253.445 27.188 247.867 27.547 250.027 26.469 248.586 24.488 253.445 27.188" fill="#211e1e" fill-rule="evenodd"/>
<path d="M178.926 10.09H179.301L250.223 26.289V26.664H249.848L178.926 10.461" fill="#211e1e"/>
</g>
</svg>
