<svg xmlns="http://www.w3.org/2000/svg" xmlns:xlink="http://www.w3.org/1999/xlink" xmlns:inkscape="http://www.inkscape.org/namespaces/inkscape" version="1.1" width="263.71385" height="40.874" viewBox="0 0 263.71385 40.874">
<g>
<path transform="matrix(1,0,0,-1,0,0)" d="M67.688-27.188H101.528V-40.688H67.688Z" fill="#a6a8ab"/>
<path transform="matrix(1,0,0,-1,0,0)" stroke-width=".374" stroke-linecap="butt" stroke-miterlimit="10" stroke-linejoin="miter" fill="none" stroke="#211e1e" d="M67.688-27.188H101.528V-40.688H67.688Z"/>
<path d="M75.785 35.797C75.676 35.797 75.566 35.828 75.488 35.922 75.41 36 75.363 36.125 75.363 36.281 75.363 36.453 75.457 36.641 75.629 36.813 75.801 36.984 76.066 37.063 76.441 37.063 76.957 37.063 77.379 36.828 77.691 36.375 77.863 36.109 78.02 35.719 78.176 35.172L79.098 31.844C79.176 31.563 79.254 31.391 79.348 31.328 79.426 31.25 79.598 31.203 79.832 31.172V31.031H77.551V31.172C77.832 31.188 78.02 31.219 78.113 31.281 78.191 31.344 78.238 31.438 78.238 31.547 78.238 31.625 78.223 31.719 78.207 31.797 78.191 31.875 78.176 31.984 78.129 32.109L77.004 36.188C76.941 36.406 76.895 36.547 76.832 36.609 76.77 36.719 76.66 36.797 76.52 36.797 76.441 36.797 76.348 36.766 76.285 36.703 76.223 36.656 76.207 36.563 76.207 36.422 76.207 36.391 76.207 36.344 76.207 36.297 76.207 36.266 76.207 36.219 76.207 36.188 76.207 36.078 76.176 35.984 76.098 35.891 76.02 35.828 75.926 35.797 75.785 35.797ZM75.785 35.797" fill="#211e1e"/>
<path d="M87.91 36.906H90.145V36.766C89.926 36.75 89.785 36.719 89.707 36.688 89.566 36.641 89.504 36.516 89.504 36.359 89.504 36.328 89.504 36.297 89.52 36.266 89.52 36.234 89.52 36.203 89.52 36.172L89.613 35.828 90.145 33.844 90.238 33.859 91.113 35.375C91.254 35.625 91.379 35.859 91.473 36.063 91.566 36.266 91.613 36.406 91.613 36.5 91.613 36.594 91.551 36.656 91.426 36.703 91.332 36.719 91.176 36.75 90.941 36.766V36.906H93.41V36.766C93.16 36.75 92.988 36.719 92.879 36.656 92.77 36.594 92.66 36.469 92.535 36.266L90.973 33.531 93.676 31.5C93.832 31.375 93.988 31.281 94.113 31.234 94.191 31.203 94.27 31.188 94.348 31.172V31.031H92.348V31.172C92.551 31.188 92.691 31.203 92.785 31.234 92.863 31.266 92.895 31.313 92.895 31.406 92.895 31.547 92.691 31.781 92.316 32.094 92.082 32.297 91.785 32.516 91.426 32.781L90.301 33.547H90.238L90.707 31.844C90.785 31.578 90.91 31.391 91.098 31.297 91.207 31.234 91.379 31.188 91.613 31.172V31.031H89.16V31.172C89.41 31.188 89.598 31.203 89.691 31.266 89.801 31.313 89.848 31.422 89.848 31.547 89.848 31.625 89.848 31.719 89.832 31.797 89.816 31.891 89.785 32 89.754 32.109L88.645 36.094C88.566 36.375 88.473 36.563 88.348 36.641 88.254 36.703 88.113 36.75 87.91 36.766ZM87.91 36.906" fill="#211e1e"/>
<path transform="matrix(1,0,0,-1,0,0)" d="M108.188-27.188H142.028V-40.688H108.188Z" fill="#a6a8ab"/>
<path transform="matrix(1,0,0,-1,0,0)" stroke-width=".374" stroke-linecap="butt" stroke-miterlimit="10" stroke-linejoin="miter" fill="none" stroke="#211e1e" d="M108.188-27.188H142.028V-40.688H108.188Z"/>
<path d="M114.84 36.906H116.637V36.766C116.449 36.75 116.309 36.734 116.23 36.703 116.074 36.641 115.996 36.516 115.996 36.359 115.996 36.297 116.012 36.219 116.027 36.125 116.043 36.031 116.059 35.953 116.074 35.891L117.074 32.141H117.121L119.184 37.063H119.34C119.402 36.828 119.434 36.688 119.449 36.641 119.465 36.578 119.496 36.484 119.527 36.359L120.605 32.5C120.762 31.938 120.902 31.594 120.98 31.469 121.09 31.328 121.262 31.234 121.543 31.172V31.031H119.746V31.172C119.934 31.188 120.09 31.203 120.168 31.25 120.309 31.313 120.387 31.422 120.387 31.594 120.387 31.625 120.371 31.688 120.371 31.781 120.34 31.859 120.324 31.953 120.309 32.047L119.402 35.484 119.371 35.5 117.527 31.031H116.074V31.172C116.215 31.188 116.309 31.203 116.402 31.234 116.465 31.25 116.527 31.266 116.59 31.313 116.652 31.344 116.699 31.406 116.762 31.5 116.809 31.594 116.824 31.625 116.824 31.656L115.777 35.438C115.621 35.984 115.496 36.344 115.387 36.484 115.277 36.625 115.105 36.719 114.84 36.766ZM114.84 36.906" fill="#211e1e"/>
<path d="M130.66 36.766C130.285 36.766 130.004 36.641 129.801 36.391 129.598 36.156 129.488 35.797 129.488 35.328 129.488 34.516 129.723 33.672 130.176 32.797 130.723 31.766 131.379 31.25 132.145 31.25 132.535 31.25 132.848 31.375 133.051 31.625 133.238 31.891 133.348 32.25 133.348 32.719 133.348 33.453 133.113 34.266 132.676 35.141 132.145 36.219 131.457 36.766 130.66 36.766ZM132.176 30.922C131.27 30.922 130.441 31.344 129.66 32.203 128.895 33.047 128.504 33.969 128.504 34.938 128.504 35.625 128.707 36.141 129.098 36.516 129.488 36.875 129.973 37.063 130.566 37.063 131.504 37.063 132.348 36.656 133.113 35.859 133.895 35.031 134.285 34.094 134.285 33.047 134.285 32.453 134.098 31.953 133.707 31.531 133.316 31.125 132.801 30.922 132.176 30.922ZM132.176 30.922" fill="#211e1e"/>
<path transform="matrix(1,0,0,-1,0,0)" d="M148.688-27.188H223.028V-40.688H148.688Z" fill="#a6a8ab"/>
<path transform="matrix(1,0,0,-1,0,0)" stroke-width=".374" stroke-linecap="butt" stroke-miterlimit="10" stroke-linejoin="miter" fill="none" stroke="#211e1e" d="M148.688-27.188H223.028V-40.688H148.688Z"/>
<path d="M157.895 33.609 158.457 31.547C158.504 31.438 158.535 31.375 158.613 31.359 158.676 31.328 158.77 31.313 158.895 31.313 159.238 31.313 159.52 31.375 159.723 31.5 159.941 31.641 160.051 31.906 160.051 32.281 160.051 32.781 159.895 33.125 159.582 33.328 159.27 33.547 158.879 33.641 158.426 33.641 158.363 33.641 158.316 33.641 158.27 33.641 158.223 33.641 158.098 33.625 157.895 33.609ZM155.582 36.906H157.801V36.766C157.582 36.75 157.41 36.719 157.316 36.672 157.223 36.625 157.176 36.516 157.176 36.391 157.176 36.297 157.191 36.188 157.223 36.047 157.238 35.984 157.254 35.906 157.285 35.828L157.801 33.938 158.363 33.984 159.473 36.906H160.816V36.766C160.598 36.75 160.457 36.703 160.348 36.594 160.238 36.5 160.145 36.328 160.066 36.109L159.223 33.906C159.691 33.813 160.035 33.688 160.301 33.516 160.77 33.234 161.004 32.828 161.004 32.313 161.004 31.766 160.723 31.391 160.191 31.188 159.91 31.078 159.551 31.031 159.113 31.031H156.895V31.172C157.113 31.188 157.27 31.219 157.379 31.266 157.473 31.313 157.52 31.422 157.52 31.547 157.52 31.625 157.52 31.719 157.488 31.828 157.473 31.938 157.441 32.031 157.426 32.109L156.316 36.094C156.238 36.375 156.145 36.563 156.02 36.641 155.926 36.703 155.785 36.75 155.582 36.766ZM155.582 36.906" fill="#211e1e"/>
<path d="M169.723 37.063H169.879C169.91 36.969 169.957 36.891 170.004 36.859 170.051 36.797 170.129 36.766 170.238 36.766 170.301 36.766 170.488 36.828 170.77 36.938 171.066 37.047 171.363 37.109 171.629 37.109 172.191 37.109 172.613 36.922 172.957 36.563 173.27 36.188 173.441 35.781 173.441 35.313 173.441 35.047 173.379 34.813 173.285 34.609 173.191 34.406 173.066 34.234 172.91 34.078L172.098 33.203C171.863 32.953 171.723 32.75 171.629 32.625 171.551 32.484 171.504 32.313 171.504 32.109 171.504 31.859 171.598 31.656 171.785 31.484 171.957 31.328 172.207 31.25 172.488 31.25 172.957 31.25 173.285 31.422 173.441 31.766 173.551 31.969 173.598 32.281 173.613 32.719H173.77L174.145 30.922H173.926C173.895 30.984 173.848 31.031 173.785 31.094 173.723 31.156 173.645 31.188 173.551 31.188 173.488 31.188 173.348 31.141 173.098 31.063 172.848 30.969 172.598 30.938 172.363 30.938 171.832 30.938 171.426 31.094 171.145 31.406 170.863 31.719 170.723 32.063 170.723 32.422 170.723 32.672 170.785 32.891 170.91 33.094 171.035 33.297 171.316 33.641 171.754 34.109L172.316 34.734C172.441 34.875 172.551 35.047 172.613 35.234 172.645 35.375 172.66 35.484 172.66 35.594 172.66 35.891 172.566 36.156 172.363 36.406 172.16 36.656 171.863 36.781 171.504 36.781 171.129 36.781 170.832 36.641 170.582 36.359 170.316 36.078 170.191 35.703 170.191 35.25 170.191 35.234 170.191 35.172 170.191 35.063H170.02ZM169.723 37.063" fill="#211e1e"/>
<path d="M183.254 36.906H185.848V36.766C185.535 36.75 185.316 36.719 185.207 36.688 185.098 36.641 185.051 36.531 185.051 36.359 185.051 36.297 185.066 36.188 185.098 36.094 185.098 36 185.129 35.922 185.16 35.828L186.41 31.344H186.926C187.285 31.344 187.535 31.422 187.66 31.547 187.785 31.688 187.848 31.891 187.848 32.156L187.832 32.484 187.988 32.5 188.379 31.031H183.582L183.207 32.422 183.363 32.438C183.645 31.922 183.91 31.609 184.145 31.5 184.363 31.391 184.816 31.344 185.504 31.344L184.191 36.094C184.113 36.359 183.988 36.563 183.801 36.641 183.691 36.703 183.52 36.75 183.254 36.766ZM183.254 36.906" fill="#211e1e"/>
<path transform="matrix(1,0,0,-1,0,0)" d="M.188-27.188H61.028V-40.688H.188Z" fill="#a6a8ab"/>
<path transform="matrix(1,0,0,-1,0,0)" stroke-width=".374" stroke-linecap="butt" stroke-miterlimit="10" stroke-linejoin="miter" fill="none" stroke="#211e1e" d="M.188-27.188H61.028V-40.688H.188Z"/>
<path d="M35.809 36.625C35.559 36.625 35.402 36.594 35.309 36.547 35.23 36.5 35.199 36.406 35.199 36.281 35.199 36.234 35.199 36.203 35.199 36.156 35.199 36.125 35.23 36.047 35.246 35.969L36.465 31.563C36.496 31.469 36.543 31.391 36.637 31.359 36.715 31.313 36.855 31.297 37.059 31.297 37.777 31.297 38.277 31.484 38.559 31.875 38.84 32.266 38.965 32.734 38.965 33.281 38.965 33.875 38.84 34.438 38.559 35 38.027 36.078 37.105 36.625 35.809 36.625ZM33.59 36.906H35.965C37.184 36.906 38.184 36.547 38.934 35.813 39.621 35.156 39.98 34.375 39.98 33.469 39.98 33.016 39.871 32.609 39.684 32.234 39.559 32 39.387 31.797 39.199 31.609 38.918 31.375 38.621 31.219 38.293 31.141 37.965 31.063 37.59 31.031 37.152 31.031H34.84V31.172C35.105 31.188 35.293 31.203 35.387 31.266 35.48 31.328 35.527 31.422 35.527 31.578 35.527 31.641 35.527 31.719 35.512 31.797 35.48 31.891 35.465 32 35.434 32.109L34.324 36.094C34.246 36.375 34.152 36.563 34.012 36.641 33.949 36.703 33.793 36.75 33.59 36.766ZM33.59 36.906" fill="#211e1e"/>
<path d="M47.691 36.906H52.254L52.816 35.453 52.676 35.375C52.332 35.875 51.988 36.203 51.629 36.375 51.285 36.547 50.707 36.641 49.91 36.641 49.629 36.641 49.457 36.594 49.363 36.516 49.316 36.469 49.285 36.391 49.285 36.297 49.285 36.25 49.301 36.188 49.316 36.141 49.316 36.094 49.332 36.031 49.348 35.969L49.91 33.953H50.41C50.785 33.953 51.035 33.984 51.16 34.047 51.301 34.094 51.363 34.219 51.363 34.406 51.363 34.453 51.363 34.5 51.363 34.547 51.348 34.578 51.332 34.688 51.301 34.859L51.488 34.906 52.098 32.813 51.941 32.781C51.754 33.188 51.582 33.438 51.426 33.5 51.27 33.578 50.785 33.625 49.988 33.656L50.566 31.563C50.598 31.469 50.66 31.391 50.738 31.375 50.816 31.344 51.004 31.328 51.316 31.328 51.988 31.328 52.441 31.375 52.66 31.469 52.879 31.563 52.988 31.75 52.973 32.047 52.973 32.031 52.973 32.063 52.957 32.141 52.957 32.219 52.957 32.297 52.957 32.391H53.129L53.41 31.031H48.941V31.172C49.191 31.188 49.379 31.203 49.473 31.266 49.582 31.313 49.645 31.422 49.645 31.563 49.645 31.625 49.629 31.688 49.613 31.781 49.582 31.859 49.566 31.969 49.535 32.109L48.426 36.094C48.348 36.375 48.254 36.563 48.113 36.641 48.035 36.703 47.895 36.75 47.691 36.766ZM47.691 36.906" fill="#211e1e"/>
<path d="M24.488 30.922C23.441 30.922 22.551 31.344 21.816 32.188 21.145 32.953 20.801 33.797 20.801 34.703 20.801 35.328 21.004 35.875 21.41 36.359 21.801 36.828 22.379 37.063 23.145 37.063 23.629 37.063 24.098 36.953 24.504 36.703 24.926 36.469 25.285 36.156 25.629 35.734L25.473 35.594C25.113 35.953 24.816 36.188 24.582 36.328 24.207 36.563 23.785 36.656 23.332 36.656 22.879 36.656 22.52 36.5 22.254 36.188 21.973 35.875 21.816 35.406 21.816 34.797 21.816 33.953 22.051 33.188 22.52 32.484 23.051 31.656 23.723 31.25 24.551 31.25 25.082 31.25 25.457 31.438 25.691 31.844 25.816 32.063 25.895 32.344 25.941 32.703L26.082 32.719 26.426 30.938H26.238C26.191 31 26.16 31.047 26.113 31.078 26.082 31.125 26.004 31.125 25.895 31.125 25.832 31.125 25.645 31.094 25.348 31.031 25.035 30.953 24.754 30.922 24.488 30.922ZM24.488 30.922" fill="#211e1e"/>
<path d="M9.23 34.563 10.543 32.219 10.918 34.563ZM7.137 36.906H8.84V36.766C8.637 36.75 8.496 36.719 8.418 36.688 8.34 36.641 8.309 36.563 8.309 36.438 8.309 36.344 8.324 36.234 8.371 36.109 8.402 36.031 8.434 35.953 8.48 35.891L9.043 34.875H10.965L11.152 36.047C11.168 36.094 11.168 36.125 11.168 36.172 11.168 36.234 11.168 36.281 11.168 36.328 11.168 36.5 11.105 36.609 10.98 36.656 10.902 36.703 10.73 36.734 10.48 36.766V36.906H12.684V36.766C12.434 36.734 12.277 36.688 12.199 36.609 12.121 36.531 12.059 36.328 11.996 36L11.137 30.906H10.949L8.309 35.406C7.965 35.984 7.73 36.344 7.621 36.484 7.496 36.625 7.34 36.703 7.137 36.766ZM7.137 36.906" fill="#211e1e"/>
<path d="M196.676 34.094C196.582 34.406 196.52 34.688 196.473 34.938 196.426 35.203 196.395 35.391 196.395 35.547 196.395 36 196.582 36.359 196.957 36.656 197.332 36.938 197.785 37.094 198.316 37.094 199.004 37.094 199.535 36.906 199.91 36.563 200.27 36.203 200.566 35.609 200.785 34.766L201.41 32.5C201.566 31.938 201.707 31.594 201.801 31.453 201.895 31.328 202.082 31.234 202.348 31.172V31.031H200.551V31.172C200.738 31.188 200.895 31.203 200.973 31.25 201.113 31.313 201.191 31.422 201.191 31.594 201.191 31.641 201.176 31.688 201.16 31.766 201.145 31.828 201.129 31.922 201.098 32.047L200.395 34.734C200.207 35.406 199.973 35.906 199.66 36.219 199.363 36.547 198.941 36.703 198.426 36.703 198.207 36.703 198.004 36.656 197.785 36.563 197.41 36.375 197.223 36.063 197.223 35.609 197.223 35.469 197.254 35.234 197.332 34.906 197.395 34.703 197.441 34.484 197.52 34.25L198.191 31.844C198.254 31.563 198.379 31.391 198.566 31.297 198.676 31.234 198.848 31.188 199.098 31.172V31.031H196.629V31.172C196.879 31.188 197.051 31.203 197.16 31.25 197.27 31.297 197.332 31.391 197.332 31.547 197.332 31.625 197.316 31.719 197.301 31.844 197.285 31.906 197.254 32 197.223 32.109ZM196.676 34.094" fill="#211e1e"/>
<path d="M210.215 31.031V31.172C210.465 31.203 210.621 31.266 210.684 31.375 210.746 31.5 210.84 31.828 210.918 32.375L211.684 37.063H211.855L215.215 31.531C215.293 31.391 215.371 31.313 215.434 31.266 215.496 31.234 215.59 31.203 215.715 31.172V31.031H214.043V31.172C214.246 31.203 214.402 31.234 214.48 31.266 214.574 31.313 214.605 31.375 214.605 31.484 214.605 31.594 214.543 31.797 214.402 32.078 214.309 32.234 214.23 32.391 214.137 32.547L212.324 35.672H212.277L211.699 31.766C211.684 31.734 211.684 31.719 211.684 31.688 211.684 31.672 211.684 31.641 211.684 31.625 211.684 31.453 211.762 31.328 211.902 31.25 211.996 31.203 212.168 31.188 212.387 31.172V31.031ZM210.215 31.031" fill="#211e1e"/>
<path transform="matrix(1,0,0,-1,0,0)" d="M229.688-27.188H263.528V-40.688H229.688Z" fill="#a6a8ab"/>
<path transform="matrix(1,0,0,-1,0,0)" stroke-width=".374" stroke-linecap="butt" stroke-miterlimit="10" stroke-linejoin="miter" fill="none" stroke="#211e1e" d="M229.688-27.188H263.528V-40.688H229.688Z"/>
<path d="M237.395 36.906H240.02V36.766C239.707 36.75 239.488 36.719 239.379 36.688 239.27 36.641 239.207 36.531 239.207 36.359 239.207 36.313 239.223 36.234 239.238 36.156 239.238 36.078 239.27 35.969 239.316 35.828L239.77 34.156 241.77 31.719C241.926 31.5 242.066 31.375 242.16 31.313 242.254 31.234 242.395 31.188 242.566 31.172V31.031H240.691V31.172C240.91 31.188 241.066 31.203 241.129 31.219 241.254 31.266 241.316 31.344 241.316 31.469 241.316 31.578 241.238 31.75 241.066 31.984 240.973 32.125 240.816 32.328 240.598 32.594L239.598 33.766 239.066 31.844C239.066 31.828 239.051 31.781 239.035 31.688 239.02 31.609 239.004 31.563 239.004 31.516 239.004 31.375 239.066 31.281 239.207 31.234 239.301 31.203 239.441 31.188 239.66 31.172V31.031H237.52V31.172C237.754 31.203 237.91 31.25 237.973 31.297 238.051 31.359 238.113 31.516 238.191 31.766L238.879 34.188 238.348 36.094C238.27 36.359 238.145 36.563 237.973 36.641 237.863 36.703 237.676 36.75 237.395 36.766ZM237.395 36.906" fill="#211e1e"/>
<path d="M250.504 36.906H255.051L255.551 35.391 255.363 35.375C255.145 35.828 254.879 36.156 254.629 36.328 254.363 36.5 253.863 36.578 253.113 36.578H251.676L256.02 31.156V31.031H251.66L251.238 32.344 251.41 32.391C251.613 32 251.801 31.734 251.973 31.625 252.238 31.453 252.676 31.359 253.285 31.359H254.816L250.504 36.781ZM250.504 36.906" fill="#211e1e"/>
<path transform="matrix(1,0,0,-1,0,0)" d="M101.527-.188H162.187V-13.688H101.527Z" fill="#a6a8ab"/>
<path transform="matrix(1,0,0,-1,0,0)" stroke-width=".374" stroke-linecap="butt" stroke-miterlimit="10" stroke-linejoin="miter" fill="none" stroke="#211e1e" d="M101.527-.188H162.187V-13.688H101.527Z"/>
<path d="M135.547 9.906H137.766V9.766C137.531 9.75 137.359 9.719 137.281 9.656 137.188 9.609 137.141 9.5 137.141 9.359 137.141 9.297 137.156 9.203 137.188 9.078 137.188 9.016 137.219 8.922 137.25 8.828L137.734 7.094C137.844 7.109 137.969 7.125 138.094 7.141 138.234 7.141 138.359 7.156 138.484 7.156 139.547 7.156 140.266 6.875 140.672 6.344 140.891 6.078 140.984 5.75 140.984 5.391 140.984 4.813 140.734 4.422 140.203 4.203 139.906 4.078 139.547 4.031 139.078 4.031H136.859V4.172C137.094 4.188 137.25 4.219 137.359 4.266 137.453 4.328 137.5 4.422 137.5 4.563 137.5 4.594 137.5 4.625 137.484 4.656 137.484 4.688 137.484 4.734 137.469 4.766L137.391 5.109 136.281 9.094C136.203 9.375 136.109 9.563 135.984 9.641 135.891 9.703 135.75 9.75 135.547 9.766ZM137.813 6.781 138.438 4.547C138.469 4.438 138.531 4.375 138.594 4.344 138.672 4.313 138.781 4.313 138.906 4.313 139.266 4.313 139.547 4.391 139.766 4.547 139.969 4.688 140.078 4.969 140.078 5.344 140.078 5.969 139.844 6.406 139.375 6.641 139.125 6.75 138.781 6.813 138.344 6.813 138.203 6.813 138.109 6.813 138.016 6.813 137.938 6.797 137.875 6.781 137.813 6.781ZM137.813 6.781" fill="#211e1e"/>
<path d="M151.688 9.906H154.156V9.766C153.891 9.75 153.703 9.703 153.578 9.625 153.438 9.531 153.328 9.359 153.219 9.094L152.297 6.781C152.422 6.641 152.672 6.344 153.063 5.906 153.438 5.469 153.641 5.234 153.688 5.203 154.016 4.813 154.25 4.563 154.391 4.453 154.531 4.344 154.719 4.25 154.938 4.172V4.031H153.063V4.172C153.281 4.203 153.438 4.234 153.5 4.266 153.578 4.297 153.625 4.375 153.625 4.484 153.625 4.547 153.594 4.609 153.563 4.672 153.531 4.75 153.484 4.813 153.438 4.859L152.141 6.375 151.516 4.813C151.484 4.75 151.484 4.703 151.469 4.672 151.453 4.641 151.453 4.609 151.453 4.563 151.453 4.422 151.5 4.328 151.594 4.297 151.688 4.25 151.859 4.203 152.109 4.172V4.031H149.734V4.172C149.984 4.203 150.172 4.25 150.281 4.313 150.375 4.359 150.469 4.5 150.563 4.719L151.516 7.094 150.375 8.406C150.016 8.828 149.75 9.109 149.563 9.297 149.25 9.578 149 9.734 148.781 9.766V9.906H150.719V9.766C150.516 9.766 150.391 9.75 150.313 9.719 150.188 9.672 150.125 9.578 150.125 9.453 150.125 9.375 150.141 9.297 150.188 9.219 150.219 9.156 150.281 9.094 150.328 9.031L151.672 7.484 152.281 8.969C152.313 9.047 152.328 9.125 152.344 9.219 152.375 9.297 152.375 9.359 152.375 9.406 152.375 9.563 152.313 9.656 152.172 9.703 152.094 9.734 151.922 9.75 151.688 9.766ZM151.688 9.906" fill="#211e1e"/>
<path d="M120.871 9.906H122.668V9.766C122.48 9.75 122.34 9.719 122.246 9.688 122.105 9.625 122.043 9.516 122.043 9.344 122.043 9.297 122.043 9.234 122.059 9.141 122.074 9.047 122.105 8.969 122.121 8.891L123.121 5.078H123.168L123.84 9.906H124.012L127.527 4.922H127.559L126.387 9.172C126.309 9.406 126.184 9.578 126.012 9.656 125.902 9.703 125.73 9.75 125.48 9.766V9.906H127.965V9.766C127.715 9.75 127.527 9.719 127.434 9.672 127.309 9.625 127.262 9.531 127.262 9.359 127.262 9.297 127.262 9.219 127.293 9.125 127.309 9.047 127.34 8.938 127.371 8.828L128.465 4.844C128.543 4.563 128.637 4.391 128.715 4.313 128.809 4.25 128.98 4.203 129.215 4.172V4.031H127.73L124.527 8.438H124.496L123.871 4.031H122.23V4.172C122.402 4.172 122.559 4.203 122.715 4.266 122.871 4.313 122.934 4.406 122.887 4.547L121.809 8.438C121.652 8.984 121.527 9.328 121.418 9.484 121.309 9.641 121.137 9.719 120.871 9.766ZM120.871 9.906" fill="#211e1e"/>
<path d="M111.984 3.906C110.922 3.906 110.031 4.328 109.281 5.156 108.625 5.922 108.281 6.734 108.281 7.609 108.281 8.281 108.5 8.844 108.922 9.297 109.406 9.813 110.078 10.063 110.938 10.063 111.359 10.063 111.766 10.016 112.125 9.891 112.5 9.797 112.813 9.656 113.031 9.516L113.469 7.813C113.531 7.563 113.609 7.406 113.719 7.328 113.828 7.25 114.031 7.203 114.328 7.172V7.031H111.938V7.172C112.234 7.203 112.422 7.25 112.516 7.281 112.594 7.328 112.625 7.406 112.625 7.547 112.625 7.563 112.625 7.578 112.625 7.609 112.609 7.641 112.609 7.672 112.609 7.688L112.516 8.094C112.438 8.391 112.375 8.625 112.344 8.797 112.266 9.063 112.203 9.234 112.141 9.328 112.063 9.453 111.922 9.563 111.688 9.641 111.453 9.703 111.234 9.734 111.047 9.734 110.469 9.734 110.047 9.563 109.734 9.219 109.438 8.875 109.281 8.422 109.281 7.859 109.281 7.063 109.5 6.297 109.922 5.563 110.453 4.656 111.125 4.203 111.984 4.203 112.594 4.203 113.047 4.422 113.313 4.828 113.469 5.047 113.563 5.328 113.609 5.703L113.75 5.719 114.203 3.953 114.063 3.922C114 4.016 113.922 4.094 113.844 4.141 113.766 4.203 113.656 4.234 113.5 4.234 113.453 4.234 113.391 4.234 113.344 4.203 113.266 4.188 113.172 4.156 113.016 4.094 112.813 4.031 112.625 3.969 112.453 3.953 112.281 3.922 112.125 3.906 111.984 3.906ZM111.984 3.906" fill="#211e1e"/>
<path d="M246.605 27.188 241.207 27.73 243.188 26.469 241.746 24.668 246.605 27.188" fill="#211e1e" fill-rule="evenodd"/>
<path d="M158.766 10.09H159.141L243.383 26.289V26.664H243.008L158.766 10.461" fill="#211e1e"/>
<path d="M185.945 27.188 180.547 26.648 182.707 25.93 181.629 23.77 185.945 27.188" fill="#211e1e" fill-rule="evenodd"/>
<path d="M145.266 10.09H145.641L182.902 25.75V26.121H182.527L145.266 10.461" fill="#211e1e"/>
<path d="M125.105 27.188 125.469 21.789 126.367 23.949 128.527 23.047 125.105 27.188" fill="#211e1e" fill-rule="evenodd"/>
<path d="M131.766 10.09H132.141V10.461L126.563 24.145H126.188V23.77" fill="#211e1e"/>
<path d="M84.605 27.188 88.566 23.41 87.668 25.57 90.008 26.289 84.605 27.188" fill="#211e1e" fill-rule="evenodd"/>
<path d="M118.266 10.09H118.641V10.461L87.859 25.762H87.488V25.387" fill="#211e1e"/>
<path d="M30.605 27.188 35.289 24.488 34.027 26.469 36.008 27.547 30.605 27.188" fill="#211e1e" fill-rule="evenodd"/>
<path d="M104.766 10.09H105.141V10.461L34.223 26.664H33.848V26.289" fill="#211e1e"/>
</g>
</svg>
