<svg xmlns="http://www.w3.org/2000/svg" xmlns:xlink="http://www.w3.org/1999/xlink" xmlns:inkscape="http://www.inkscape.org/namespaces/inkscape" version="1.1" width="331.21385" height="67.874" viewBox="0 0 331.21385 67.874">
<g>
<path transform="matrix(1,0,0,-1,0,0)" d="M40.688-54.188H88.028V-67.688H40.688Z" fill="#e6e6e6"/>
<path transform="matrix(1,0,0,-1,0,0)" stroke-width=".374" stroke-linecap="butt" stroke-miterlimit="10" stroke-linejoin="miter" fill="none" stroke="#1e1c1c" d="M40.688-54.188H88.028V-67.688H40.688Z"/>
<path transform="matrix(1,0,0,-1,0,0)" d="M94.688-54.188H142.028V-67.688H94.688Z" fill="#a6a6ab"/>
<path transform="matrix(1,0,0,-1,0,0)" stroke-width=".374" stroke-linecap="butt" stroke-miterlimit="10" stroke-linejoin="miter" fill="none" stroke="#1e1c1c" d="M94.688-54.188H142.028V-67.688H94.688Z"/>
<path d="M102.785 62.801C102.676 62.801 102.566 62.832 102.488 62.926 102.41 63.004 102.363 63.129 102.363 63.285 102.363 63.457 102.457 63.645 102.629 63.816 102.801 63.988 103.066 64.066 103.441 64.066 103.957 64.066 104.379 63.832 104.691 63.379 104.863 63.113 105.02 62.723 105.176 62.176L106.098 58.848C106.176 58.566 106.254 58.395 106.348 58.332 106.426 58.254 106.598 58.207 106.832 58.176V58.035H104.551V58.176C104.832 58.191 105.02 58.223 105.113 58.285 105.191 58.348 105.238 58.441 105.238 58.551 105.238 58.629 105.223 58.723 105.207 58.801 105.191 58.879 105.176 58.988 105.129 59.113L104.004 63.191C103.941 63.41 103.895 63.551 103.832 63.613 103.77 63.723 103.66 63.801 103.52 63.801 103.441 63.801 103.348 63.77 103.285 63.707 103.223 63.66 103.207 63.566 103.207 63.426 103.207 63.395 103.207 63.348 103.207 63.301 103.207 63.27 103.207 63.223 103.207 63.191 103.207 63.082 103.176 62.988 103.098 62.895 103.02 62.832 102.926 62.801 102.785 62.801ZM102.785 62.801" fill="#1e1c1c"/>
<path d="M114.91 63.91H117.145V63.77C116.926 63.754 116.785 63.723 116.707 63.691 116.566 63.645 116.504 63.52 116.504 63.363 116.504 63.332 116.504 63.301 116.52 63.27 116.52 63.238 116.52 63.207 116.52 63.176L116.613 62.832 117.145 60.848 117.238 60.863 118.113 62.379C118.254 62.629 118.379 62.863 118.473 63.066 118.566 63.27 118.613 63.41 118.613 63.504 118.613 63.598 118.551 63.66 118.426 63.707 118.332 63.723 118.176 63.754 117.941 63.77V63.91H120.41V63.77C120.16 63.754 119.988 63.723 119.879 63.66 119.77 63.598 119.66 63.473 119.535 63.27L117.973 60.535 120.676 58.504C120.832 58.379 120.988 58.285 121.113 58.238 121.191 58.207 121.27 58.191 121.348 58.176V58.035H119.348V58.176C119.551 58.191 119.691 58.207 119.785 58.238 119.863 58.27 119.895 58.316 119.895 58.41 119.895 58.551 119.691 58.785 119.316 59.098 119.082 59.301 118.785 59.52 118.426 59.785L117.301 60.551H117.238L117.707 58.848C117.785 58.582 117.91 58.395 118.098 58.301 118.207 58.238 118.379 58.191 118.613 58.176V58.035H116.16V58.176C116.41 58.191 116.598 58.207 116.691 58.27 116.801 58.316 116.848 58.426 116.848 58.551 116.848 58.629 116.848 58.723 116.832 58.801 116.816 58.895 116.785 59.004 116.754 59.113L115.645 63.098C115.566 63.379 115.473 63.566 115.348 63.645 115.254 63.707 115.113 63.754 114.91 63.77ZM114.91 63.91" fill="#1e1c1c"/>
<path transform="matrix(1,0,0,-1,0,0)" d="M148.688-54.188H182.528V-67.688H148.688Z" fill="#a6a6ab"/>
<path transform="matrix(1,0,0,-1,0,0)" stroke-width=".374" stroke-linecap="butt" stroke-miterlimit="10" stroke-linejoin="miter" fill="none" stroke="#1e1c1c" d="M148.688-54.188H182.528V-67.688H148.688Z"/>
<path d="M155.34 63.91H157.137V63.77C156.949 63.754 156.809 63.738 156.73 63.707 156.574 63.645 156.496 63.52 156.496 63.363 156.496 63.301 156.512 63.223 156.527 63.129 156.543 63.035 156.559 62.957 156.574 62.895L157.574 59.145H157.621L159.684 64.066H159.84C159.902 63.832 159.934 63.691 159.949 63.645 159.965 63.582 159.996 63.488 160.027 63.363L161.105 59.504C161.262 58.941 161.402 58.598 161.48 58.473 161.59 58.332 161.762 58.238 162.043 58.176V58.035H160.246V58.176C160.434 58.191 160.59 58.207 160.668 58.254 160.809 58.316 160.887 58.426 160.887 58.598 160.887 58.629 160.871 58.691 160.871 58.785 160.84 58.863 160.824 58.957 160.809 59.051L159.902 62.488 159.871 62.504 158.027 58.035H156.574V58.176C156.715 58.191 156.809 58.207 156.902 58.238 156.965 58.254 157.027 58.27 157.09 58.316 157.152 58.348 157.199 58.41 157.262 58.504 157.309 58.598 157.324 58.629 157.324 58.66L156.277 62.441C156.121 62.988 155.996 63.348 155.887 63.488 155.777 63.629 155.605 63.723 155.34 63.77ZM155.34 63.91" fill="#1e1c1c"/>
<path d="M171.16 63.77C170.785 63.77 170.504 63.645 170.301 63.395 170.098 63.16 169.988 62.801 169.988 62.332 169.988 61.52 170.223 60.676 170.676 59.801 171.223 58.77 171.879 58.254 172.645 58.254 173.035 58.254 173.348 58.379 173.551 58.629 173.738 58.895 173.848 59.254 173.848 59.723 173.848 60.457 173.613 61.27 173.176 62.145 172.645 63.223 171.957 63.77 171.16 63.77ZM172.676 57.926C171.77 57.926 170.941 58.348 170.16 59.207 169.395 60.051 169.004 60.973 169.004 61.941 169.004 62.629 169.207 63.145 169.598 63.52 169.988 63.879 170.473 64.066 171.066 64.066 172.004 64.066 172.848 63.66 173.613 62.863 174.395 62.035 174.785 61.098 174.785 60.051 174.785 59.457 174.598 58.957 174.207 58.535 173.816 58.129 173.301 57.926 172.676 57.926ZM172.676 57.926" fill="#1e1c1c"/>
<path transform="matrix(1,0,0,-1,0,0)" d="M256.688-54.188H290.52799V-67.688H256.688Z" fill="#a6a6ab"/>
<path transform="matrix(1,0,0,-1,0,0)" stroke-width=".374" stroke-linecap="butt" stroke-miterlimit="10" stroke-linejoin="miter" fill="none" stroke="#1e1c1c" d="M256.688-54.188H290.52799V-67.688H256.688Z"/>
<path transform="matrix(1,0,0,-1,0,0)" d="M.188-54.188H34.028V-67.688H.188Z" fill="#e6e6e6"/>
<path transform="matrix(1,0,0,-1,0,0)" stroke-width=".374" stroke-linecap="butt" stroke-miterlimit="10" stroke-linejoin="miter" fill="none" stroke="#1e1c1c" d="M.188-54.188H34.028V-67.688H.188Z"/>
<path d="M49.309 63.629C49.059 63.629 48.902 63.598 48.809 63.551 48.73 63.504 48.699 63.41 48.699 63.285 48.699 63.238 48.699 63.207 48.699 63.16 48.699 63.129 48.73 63.051 48.746 62.973L49.965 58.566C49.996 58.473 50.043 58.395 50.137 58.363 50.215 58.316 50.355 58.301 50.559 58.301 51.277 58.301 51.777 58.488 52.059 58.879 52.34 59.27 52.465 59.738 52.465 60.285 52.465 60.879 52.34 61.441 52.059 62.004 51.527 63.082 50.605 63.629 49.309 63.629ZM47.09 63.91H49.465C50.684 63.91 51.684 63.551 52.434 62.816 53.121 62.16 53.48 61.379 53.48 60.473 53.48 60.02 53.371 59.613 53.184 59.238 53.059 59.004 52.887 58.801 52.699 58.613 52.418 58.379 52.121 58.223 51.793 58.145 51.465 58.066 51.09 58.035 50.652 58.035H48.34V58.176C48.605 58.191 48.793 58.207 48.887 58.27 48.98 58.332 49.027 58.426 49.027 58.582 49.027 58.645 49.027 58.723 49.012 58.801 48.98 58.895 48.965 59.004 48.934 59.113L47.824 63.098C47.746 63.379 47.652 63.566 47.512 63.645 47.449 63.707 47.293 63.754 47.09 63.77ZM47.09 63.91" fill="#1e1c1c"/>
<path d="M61.191 63.91H65.754L66.316 62.457 66.176 62.379C65.832 62.879 65.488 63.207 65.129 63.379 64.785 63.551 64.207 63.645 63.41 63.645 63.129 63.645 62.957 63.598 62.863 63.52 62.816 63.473 62.785 63.395 62.785 63.301 62.785 63.254 62.801 63.191 62.816 63.145 62.816 63.098 62.832 63.035 62.848 62.973L63.41 60.957H63.91C64.285 60.957 64.535 60.988 64.66 61.051 64.801 61.098 64.863 61.223 64.863 61.41 64.863 61.457 64.863 61.504 64.863 61.551 64.848 61.582 64.832 61.691 64.801 61.863L64.988 61.91 65.598 59.816 65.441 59.785C65.254 60.191 65.082 60.441 64.926 60.504 64.77 60.582 64.285 60.629 63.488 60.66L64.066 58.566C64.098 58.473 64.16 58.395 64.238 58.379 64.316 58.348 64.504 58.332 64.816 58.332 65.488 58.332 65.941 58.379 66.16 58.473 66.379 58.566 66.488 58.754 66.473 59.051 66.473 59.035 66.473 59.066 66.457 59.145 66.457 59.223 66.457 59.301 66.457 59.395H66.629L66.91 58.035H62.441V58.176C62.691 58.191 62.879 58.207 62.973 58.27 63.082 58.316 63.145 58.426 63.145 58.566 63.145 58.629 63.129 58.691 63.113 58.785 63.082 58.863 63.066 58.973 63.035 59.113L61.926 63.098C61.848 63.379 61.754 63.566 61.613 63.645 61.535 63.707 61.395 63.754 61.191 63.77ZM61.191 63.91" fill="#1e1c1c"/>
<path d="M22.926 60.629 23.52 58.551C23.535 58.457 23.582 58.395 23.645 58.363 23.723 58.316 23.863 58.301 24.051 58.301 24.363 58.301 24.613 58.379 24.801 58.504 24.988 58.66 25.098 58.895 25.098 59.223 25.098 59.816 24.863 60.223 24.426 60.441 24.16 60.566 23.801 60.629 23.332 60.629ZM22.863 63.629C22.676 63.629 22.551 63.598 22.457 63.582 22.316 63.52 22.238 63.41 22.238 63.254 22.238 63.207 22.238 63.16 22.254 63.113 22.27 63.066 22.27 63.02 22.285 62.973L22.848 60.926C23.473 60.941 23.895 60.988 24.098 61.082 24.426 61.223 24.582 61.551 24.582 62.035 24.582 62.473 24.457 62.848 24.176 63.16 23.895 63.473 23.457 63.629 22.863 63.629ZM20.629 63.91H23.113C23.879 63.91 24.473 63.754 24.91 63.41 25.348 63.082 25.566 62.676 25.566 62.176 25.566 61.738 25.426 61.395 25.145 61.145 24.988 60.988 24.754 60.863 24.457 60.754 24.848 60.66 25.16 60.551 25.395 60.41 25.801 60.16 26.004 59.801 26.004 59.332 26.004 58.785 25.754 58.395 25.254 58.191 24.941 58.082 24.598 58.035 24.191 58.035H21.879V58.176C22.145 58.191 22.332 58.207 22.426 58.27 22.52 58.316 22.582 58.426 22.582 58.582 22.582 58.645 22.566 58.738 22.535 58.879 22.52 58.941 22.504 59.02 22.473 59.129L21.363 63.098C21.285 63.379 21.191 63.566 21.051 63.645 20.988 63.707 20.832 63.754 20.629 63.77ZM20.629 63.91" fill="#1e1c1c"/>
<path d="M9.23 61.566 10.543 59.223 10.918 61.566ZM7.137 63.91H8.84V63.77C8.637 63.754 8.496 63.723 8.418 63.691 8.34 63.645 8.309 63.566 8.309 63.441 8.309 63.348 8.324 63.238 8.371 63.113 8.402 63.035 8.434 62.957 8.48 62.895L9.043 61.879H10.965L11.152 63.051C11.168 63.098 11.168 63.129 11.168 63.176 11.168 63.238 11.168 63.285 11.168 63.332 11.168 63.504 11.105 63.613 10.98 63.66 10.902 63.707 10.73 63.738 10.48 63.77V63.91H12.684V63.77C12.434 63.738 12.277 63.691 12.199 63.613 12.121 63.535 12.059 63.332 11.996 63.004L11.137 57.91H10.949L8.309 62.41C7.965 62.988 7.73 63.348 7.621 63.488 7.496 63.629 7.34 63.707 7.137 63.77ZM7.137 63.91" fill="#1e1c1c"/>
<path d="M264.176 61.098C264.082 61.41 264.02 61.691 263.973 61.941 263.926 62.207 263.895 62.395 263.895 62.551 263.895 63.004 264.082 63.363 264.457 63.66 264.832 63.941 265.285 64.098 265.816 64.098 266.504 64.098 267.035 63.91 267.41 63.566 267.77 63.207 268.066 62.613 268.285 61.77L268.91 59.504C269.066 58.941 269.207 58.598 269.301 58.457 269.395 58.332 269.582 58.238 269.848 58.176V58.035H268.051V58.176C268.238 58.191 268.395 58.207 268.473 58.254 268.613 58.316 268.691 58.426 268.691 58.598 268.691 58.645 268.676 58.691 268.66 58.77 268.645 58.832 268.629 58.926 268.598 59.051L267.895 61.738C267.707 62.41 267.473 62.91 267.16 63.223 266.863 63.551 266.441 63.707 265.926 63.707 265.707 63.707 265.504 63.66 265.285 63.566 264.91 63.379 264.723 63.066 264.723 62.613 264.723 62.473 264.754 62.238 264.832 61.91 264.895 61.707 264.941 61.488 265.02 61.254L265.691 58.848C265.754 58.566 265.879 58.395 266.066 58.301 266.176 58.238 266.348 58.191 266.598 58.176V58.035H264.129V58.176C264.379 58.191 264.551 58.207 264.66 58.254 264.77 58.301 264.832 58.395 264.832 58.551 264.832 58.629 264.816 58.723 264.801 58.848 264.785 58.91 264.754 59.004 264.723 59.113ZM264.176 61.098" fill="#1e1c1c"/>
<path d="M277.715 58.035V58.176C277.965 58.207 278.121 58.27 278.184 58.379 278.246 58.504 278.34 58.832 278.418 59.379L279.184 64.066H279.355L282.715 58.535C282.793 58.395 282.871 58.316 282.934 58.27 282.996 58.238 283.09 58.207 283.215 58.176V58.035H281.543V58.176C281.746 58.207 281.902 58.238 281.98 58.27 282.074 58.316 282.105 58.379 282.105 58.488 282.105 58.598 282.043 58.801 281.902 59.082 281.809 59.238 281.73 59.395 281.637 59.551L279.824 62.676H279.777L279.199 58.77C279.184 58.738 279.184 58.723 279.184 58.691 279.184 58.676 279.184 58.645 279.184 58.629 279.184 58.457 279.262 58.332 279.402 58.254 279.496 58.207 279.668 58.191 279.887 58.176V58.035ZM277.715 58.035" fill="#1e1c1c"/>
<path transform="matrix(1,0,0,-1,0,0)" d="M297.188-54.188H331.02799V-67.688H297.188Z" fill="#a6a6ab"/>
<path transform="matrix(1,0,0,-1,0,0)" stroke-width=".374" stroke-linecap="butt" stroke-miterlimit="10" stroke-linejoin="miter" fill="none" stroke="#1e1c1c" d="M297.188-54.188H331.02799V-67.688H297.188Z"/>
<path d="M304.895 63.91H307.52V63.77C307.207 63.754 306.988 63.723 306.879 63.691 306.77 63.645 306.707 63.535 306.707 63.363 306.707 63.316 306.723 63.238 306.738 63.16 306.738 63.082 306.77 62.973 306.816 62.832L307.27 61.16 309.27 58.723C309.426 58.504 309.566 58.379 309.66 58.316 309.754 58.238 309.895 58.191 310.066 58.176V58.035H308.191V58.176C308.41 58.191 308.566 58.207 308.629 58.223 308.754 58.27 308.816 58.348 308.816 58.473 308.816 58.582 308.738 58.754 308.566 58.988 308.473 59.129 308.316 59.332 308.098 59.598L307.098 60.77 306.566 58.848C306.566 58.832 306.551 58.785 306.535 58.691 306.52 58.613 306.504 58.566 306.504 58.52 306.504 58.379 306.566 58.285 306.707 58.238 306.801 58.207 306.941 58.191 307.16 58.176V58.035H305.02V58.176C305.254 58.207 305.41 58.254 305.473 58.301 305.551 58.363 305.613 58.52 305.691 58.77L306.379 61.191 305.848 63.098C305.77 63.363 305.645 63.566 305.473 63.645 305.363 63.707 305.176 63.754 304.895 63.77ZM304.895 63.91" fill="#1e1c1c"/>
<path d="M318.004 63.91H322.551L323.051 62.395 322.863 62.379C322.645 62.832 322.379 63.16 322.129 63.332 321.863 63.504 321.363 63.582 320.613 63.582H319.176L323.52 58.16V58.035H319.16L318.738 59.348 318.91 59.395C319.113 59.004 319.301 58.738 319.473 58.629 319.738 58.457 320.176 58.363 320.785 58.363H322.316L318.004 63.785ZM318.004 63.91" fill="#1e1c1c"/>
<path transform="matrix(1,0,0,-1,0,0)" d="M67.688-27.188H115.028V-40.688H67.688Z" fill="#e6e6e6"/>
<path transform="matrix(1,0,0,-1,0,0)" stroke-width=".374" stroke-linecap="butt" stroke-miterlimit="10" stroke-linejoin="miter" fill="none" stroke="#1e1c1c" d="M67.688-27.188H115.028V-40.688H67.688Z"/>
<path d="M100.715 36.91H102.512V36.77C102.324 36.754 102.184 36.723 102.09 36.691 101.949 36.629 101.887 36.52 101.887 36.348 101.887 36.301 101.887 36.238 101.902 36.145 101.918 36.051 101.949 35.973 101.965 35.895L102.965 32.082H103.012L103.684 36.91H103.855L107.371 31.926H107.402L106.23 36.176C106.152 36.41 106.027 36.582 105.855 36.66 105.746 36.707 105.574 36.754 105.324 36.77V36.91H107.809V36.77C107.559 36.754 107.371 36.723 107.277 36.676 107.152 36.629 107.105 36.535 107.105 36.363 107.105 36.301 107.105 36.223 107.137 36.129 107.152 36.051 107.184 35.941 107.215 35.832L108.309 31.848C108.387 31.566 108.48 31.395 108.559 31.316 108.652 31.254 108.824 31.207 109.059 31.176V31.035H107.574L104.371 35.441H104.34L103.715 31.035H102.074V31.176C102.246 31.176 102.402 31.207 102.559 31.27 102.715 31.316 102.777 31.41 102.73 31.551L101.652 35.441C101.496 35.988 101.371 36.332 101.262 36.488 101.152 36.645 100.98 36.723 100.715 36.77ZM100.715 36.91" fill="#1e1c1c"/>
<path d="M91.645 30.91C90.582 30.91 89.691 31.332 88.941 32.16 88.285 32.926 87.941 33.738 87.941 34.613 87.941 35.285 88.16 35.848 88.582 36.301 89.066 36.816 89.738 37.066 90.598 37.066 91.02 37.066 91.426 37.02 91.785 36.895 92.16 36.801 92.473 36.66 92.691 36.52L93.129 34.816C93.191 34.566 93.27 34.41 93.379 34.332 93.488 34.254 93.691 34.207 93.988 34.176V34.035H91.598V34.176C91.895 34.207 92.082 34.254 92.176 34.285 92.254 34.332 92.285 34.41 92.285 34.551 92.285 34.566 92.285 34.582 92.285 34.613 92.27 34.645 92.27 34.676 92.27 34.691L92.176 35.098C92.098 35.395 92.035 35.629 92.004 35.801 91.926 36.066 91.863 36.238 91.801 36.332 91.723 36.457 91.582 36.566 91.348 36.645 91.113 36.707 90.895 36.738 90.707 36.738 90.129 36.738 89.707 36.566 89.395 36.223 89.098 35.879 88.941 35.426 88.941 34.863 88.941 34.066 89.16 33.301 89.582 32.566 90.113 31.66 90.785 31.207 91.645 31.207 92.254 31.207 92.707 31.426 92.973 31.832 93.129 32.051 93.223 32.332 93.27 32.707L93.41 32.723 93.863 30.957 93.723 30.926C93.66 31.02 93.582 31.098 93.504 31.145 93.426 31.207 93.316 31.238 93.16 31.238 93.113 31.238 93.051 31.238 93.004 31.207 92.926 31.191 92.832 31.16 92.676 31.098 92.473 31.035 92.285 30.973 92.113 30.957 91.941 30.926 91.785 30.91 91.645 30.91ZM91.645 30.91" fill="#1e1c1c"/>
<path d="M78.488 30.926C77.441 30.926 76.551 31.348 75.816 32.191 75.145 32.957 74.801 33.801 74.801 34.707 74.801 35.332 75.004 35.879 75.41 36.363 75.801 36.832 76.379 37.066 77.145 37.066 77.629 37.066 78.098 36.957 78.504 36.707 78.926 36.473 79.285 36.16 79.629 35.738L79.473 35.598C79.113 35.957 78.816 36.191 78.582 36.332 78.207 36.566 77.785 36.66 77.332 36.66 76.879 36.66 76.52 36.504 76.254 36.191 75.973 35.879 75.816 35.41 75.816 34.801 75.816 33.957 76.051 33.191 76.52 32.488 77.051 31.66 77.723 31.254 78.551 31.254 79.082 31.254 79.457 31.441 79.691 31.848 79.816 32.066 79.895 32.348 79.941 32.707L80.082 32.723 80.426 30.941H80.238C80.191 31.004 80.16 31.051 80.113 31.082 80.082 31.129 80.004 31.129 79.895 31.129 79.832 31.129 79.645 31.098 79.348 31.035 79.035 30.957 78.754 30.926 78.488 30.926ZM78.488 30.926" fill="#1e1c1c"/>
<path transform="matrix(1,0,0,-1,0,0)" d="M202.688-54.188H250.028V-67.688H202.688Z" fill="#a6a6ab"/>
<path transform="matrix(1,0,0,-1,0,0)" stroke-width=".374" stroke-linecap="butt" stroke-miterlimit="10" stroke-linejoin="miter" fill="none" stroke="#1e1c1c" d="M202.688-54.188H250.028V-67.688H202.688Z"/>
<path d="M225.395 60.613 225.957 58.551C226.004 58.441 226.035 58.379 226.113 58.363 226.176 58.332 226.27 58.316 226.395 58.316 226.738 58.316 227.02 58.379 227.223 58.504 227.441 58.645 227.551 58.91 227.551 59.285 227.551 59.785 227.395 60.129 227.082 60.332 226.77 60.551 226.379 60.645 225.926 60.645 225.863 60.645 225.816 60.645 225.77 60.645 225.723 60.645 225.598 60.629 225.395 60.613ZM223.082 63.91H225.301V63.77C225.082 63.754 224.91 63.723 224.816 63.676 224.723 63.629 224.676 63.52 224.676 63.395 224.676 63.301 224.691 63.191 224.723 63.051 224.738 62.988 224.754 62.91 224.785 62.832L225.301 60.941 225.863 60.988 226.973 63.91H228.316V63.77C228.098 63.754 227.957 63.707 227.848 63.598 227.738 63.504 227.645 63.332 227.566 63.113L226.723 60.91C227.191 60.816 227.535 60.691 227.801 60.52 228.27 60.238 228.504 59.832 228.504 59.316 228.504 58.77 228.223 58.395 227.691 58.191 227.41 58.082 227.051 58.035 226.613 58.035H224.395V58.176C224.613 58.191 224.77 58.223 224.879 58.27 224.973 58.316 225.02 58.426 225.02 58.551 225.02 58.629 225.02 58.723 224.988 58.832 224.973 58.941 224.941 59.035 224.926 59.113L223.816 63.098C223.738 63.379 223.645 63.566 223.52 63.645 223.426 63.707 223.285 63.754 223.082 63.77ZM223.082 63.91" fill="#1e1c1c"/>
<path d="M237.223 64.066H237.379C237.41 63.973 237.457 63.895 237.504 63.863 237.551 63.801 237.629 63.77 237.738 63.77 237.801 63.77 237.988 63.832 238.27 63.941 238.566 64.051 238.863 64.113 239.129 64.113 239.691 64.113 240.113 63.926 240.457 63.566 240.77 63.191 240.941 62.785 240.941 62.316 240.941 62.051 240.879 61.816 240.785 61.613 240.691 61.41 240.566 61.238 240.41 61.082L239.598 60.207C239.363 59.957 239.223 59.754 239.129 59.629 239.051 59.488 239.004 59.316 239.004 59.113 239.004 58.863 239.098 58.66 239.285 58.488 239.457 58.332 239.707 58.254 239.988 58.254 240.457 58.254 240.785 58.426 240.941 58.77 241.051 58.973 241.098 59.285 241.113 59.723H241.27L241.645 57.926H241.426C241.395 57.988 241.348 58.035 241.285 58.098 241.223 58.16 241.145 58.191 241.051 58.191 240.988 58.191 240.848 58.145 240.598 58.066 240.348 57.973 240.098 57.941 239.863 57.941 239.332 57.941 238.926 58.098 238.645 58.41 238.363 58.723 238.223 59.066 238.223 59.426 238.223 59.676 238.285 59.895 238.41 60.098 238.535 60.301 238.816 60.645 239.254 61.113L239.816 61.738C239.941 61.879 240.051 62.051 240.113 62.238 240.145 62.379 240.16 62.488 240.16 62.598 240.16 62.895 240.066 63.16 239.863 63.41 239.66 63.66 239.363 63.785 239.004 63.785 238.629 63.785 238.332 63.645 238.082 63.363 237.816 63.082 237.691 62.707 237.691 62.254 237.691 62.238 237.691 62.176 237.691 62.066H237.52ZM237.223 64.066" fill="#1e1c1c"/>
<path d="M211.66 63.754C211.285 63.754 210.988 63.629 210.785 63.395 210.582 63.145 210.488 62.785 210.488 62.316 210.488 61.504 210.723 60.676 211.176 59.801 211.723 58.77 212.379 58.254 213.145 58.254 213.535 58.254 213.848 58.379 214.051 58.629 214.238 58.895 214.348 59.254 214.348 59.723 214.348 60.457 214.113 61.27 213.676 62.145 213.145 63.223 212.457 63.754 211.66 63.754ZM211.504 64.066C212.441 64.098 213.285 63.707 214.082 62.895 214.879 62.066 215.285 61.113 215.285 60.051 215.285 59.457 215.098 58.957 214.707 58.535 214.316 58.129 213.801 57.926 213.176 57.926 212.27 57.926 211.441 58.348 210.66 59.207 209.895 60.051 209.504 60.973 209.504 61.926 209.504 62.535 209.676 63.035 209.988 63.395 210.316 63.77 210.676 63.973 211.113 64.02 210.863 64.238 210.66 64.426 210.457 64.582 210.176 64.832 209.863 65.066 209.52 65.316L209.613 65.457C209.785 65.363 209.957 65.285 210.113 65.238 210.285 65.191 210.441 65.176 210.598 65.176 210.77 65.176 211.129 65.238 211.645 65.363 212.176 65.504 212.551 65.566 212.785 65.566 213.098 65.566 213.395 65.52 213.691 65.395 214.223 65.191 214.645 64.848 215.004 64.363L214.863 64.27C214.645 64.488 214.473 64.645 214.316 64.723 214.051 64.879 213.738 64.941 213.363 64.941 213.113 64.941 212.754 64.879 212.27 64.754 211.785 64.645 211.426 64.582 211.207 64.582 211.191 64.582 211.16 64.582 211.129 64.582 211.098 64.582 211.051 64.582 211.02 64.582ZM211.504 64.066" fill="#1e1c1c"/>
<path d="M128.988 63.91H133.566L134.082 62.301 133.91 62.238C133.645 62.816 133.348 63.176 133.035 63.348 132.707 63.504 132.254 63.582 131.645 63.582 131.426 63.582 131.301 63.582 131.207 63.582 131.066 63.566 130.957 63.566 130.879 63.551 130.77 63.52 130.691 63.504 130.645 63.457 130.598 63.41 130.582 63.348 130.582 63.285 130.582 63.27 130.582 63.238 130.582 63.223 130.582 63.207 130.582 63.191 130.582 63.176L130.676 62.832 131.77 58.848C131.863 58.582 131.988 58.395 132.16 58.301 132.27 58.238 132.441 58.191 132.691 58.176V58.035H130.238V58.176C130.504 58.191 130.676 58.207 130.77 58.27 130.879 58.332 130.926 58.426 130.926 58.566 130.926 58.645 130.926 58.707 130.91 58.77 130.895 58.848 130.863 58.957 130.832 59.113L129.723 63.098C129.645 63.379 129.551 63.566 129.41 63.645 129.332 63.707 129.191 63.754 128.988 63.77ZM128.988 63.91" fill="#1e1c1c"/>
<path transform="matrix(1,0,0,-1,0,0)" d="M162.188-.188H182.528V-13.688H162.188Z" fill="#a6a6ab"/>
<path transform="matrix(1,0,0,-1,0,0)" stroke-width=".374" stroke-linecap="butt" stroke-miterlimit="10" stroke-linejoin="miter" fill="none" stroke="#1e1c1c" d="M162.188-.188H182.528V-13.688H162.188Z"/>
<path d="M169.207 9.91H171.426V9.77C171.191 9.754 171.02 9.723 170.941 9.66 170.848 9.613 170.801 9.504 170.801 9.363 170.801 9.301 170.816 9.207 170.848 9.082 170.848 9.02 170.879 8.926 170.91 8.832L171.395 7.098C171.504 7.113 171.629 7.129 171.754 7.145 171.895 7.145 172.02 7.16 172.145 7.16 173.207 7.16 173.926 6.879 174.332 6.348 174.551 6.082 174.645 5.754 174.645 5.395 174.645 4.816 174.395 4.426 173.863 4.207 173.566 4.082 173.207 4.035 172.738 4.035H170.52V4.176C170.754 4.191 170.91 4.223 171.02 4.27 171.113 4.332 171.16 4.426 171.16 4.566 171.16 4.598 171.16 4.629 171.145 4.66 171.145 4.691 171.145 4.738 171.129 4.77L171.051 5.113 169.941 9.098C169.863 9.379 169.77 9.566 169.645 9.645 169.551 9.707 169.41 9.754 169.207 9.77ZM171.473 6.785 172.098 4.551C172.129 4.441 172.191 4.379 172.254 4.348 172.332 4.316 172.441 4.316 172.566 4.316 172.926 4.316 173.207 4.395 173.426 4.551 173.629 4.691 173.738 4.973 173.738 5.348 173.738 5.973 173.504 6.41 173.035 6.645 172.785 6.754 172.441 6.816 172.004 6.816 171.863 6.816 171.77 6.816 171.676 6.816 171.598 6.801 171.535 6.785 171.473 6.785ZM171.473 6.785" fill="#1e1c1c"/>
<path transform="matrix(1,0,0,-1,0,0)" d="M250.027-27.188H283.68699V-40.688H250.027Z" fill="#a6a6ab"/>
<path transform="matrix(1,0,0,-1,0,0)" stroke-width=".374" stroke-linecap="butt" stroke-miterlimit="10" stroke-linejoin="miter" fill="none" stroke="#1e1c1c" d="M250.027-27.188H283.68699V-40.688H250.027Z"/>
<path d="M273.188 36.91H275.656V36.77C275.391 36.754 275.203 36.707 275.078 36.629 274.938 36.535 274.828 36.363 274.719 36.098L273.797 33.785C273.922 33.645 274.172 33.348 274.563 32.91 274.938 32.473 275.141 32.238 275.188 32.207 275.516 31.816 275.75 31.566 275.891 31.457 276.031 31.348 276.219 31.254 276.438 31.176V31.035H274.563V31.176C274.781 31.207 274.938 31.238 275 31.27 275.078 31.301 275.125 31.379 275.125 31.488 275.125 31.551 275.094 31.613 275.063 31.676 275.031 31.754 274.984 31.816 274.938 31.863L273.641 33.379 273.016 31.816C272.984 31.754 272.984 31.707 272.969 31.676 272.953 31.645 272.953 31.613 272.953 31.566 272.953 31.426 273 31.332 273.094 31.301 273.188 31.254 273.359 31.207 273.609 31.176V31.035H271.234V31.176C271.484 31.207 271.672 31.254 271.781 31.316 271.875 31.363 271.969 31.504 272.063 31.723L273.016 34.098 271.875 35.41C271.516 35.832 271.25 36.113 271.063 36.301 270.75 36.582 270.5 36.738 270.281 36.77V36.91H272.219V36.77C272.016 36.77 271.891 36.754 271.813 36.723 271.688 36.676 271.625 36.582 271.625 36.457 271.625 36.379 271.641 36.301 271.688 36.223 271.719 36.16 271.781 36.098 271.828 36.035L273.172 34.488 273.781 35.973C273.813 36.051 273.828 36.129 273.844 36.223 273.875 36.301 273.875 36.363 273.875 36.41 273.875 36.566 273.813 36.66 273.672 36.707 273.594 36.738 273.422 36.754 273.188 36.77ZM273.188 36.91" fill="#1e1c1c"/>
<path d="M257.594 36.91H260.188V36.77C259.875 36.754 259.656 36.723 259.547 36.691 259.438 36.645 259.391 36.535 259.391 36.363 259.391 36.301 259.406 36.191 259.438 36.098 259.438 36.004 259.469 35.926 259.5 35.832L260.75 31.348H261.266C261.625 31.348 261.875 31.426 262 31.551 262.125 31.691 262.188 31.895 262.188 32.16L262.172 32.488 262.328 32.504 262.719 31.035H257.922L257.547 32.426 257.703 32.441C257.984 31.926 258.25 31.613 258.484 31.504 258.703 31.395 259.156 31.348 259.844 31.348L258.531 36.098C258.453 36.363 258.328 36.566 258.141 36.645 258.031 36.707 257.859 36.754 257.594 36.77ZM257.594 36.91" fill="#1e1c1c"/>
<path d="M74.707 63.91H76.973V63.77C76.738 63.754 76.566 63.723 76.473 63.691 76.348 63.629 76.285 63.535 76.285 63.363 76.285 63.332 76.285 63.285 76.285 63.238 76.301 63.223 76.332 63.113 76.379 62.973L76.926 60.957H77.441C77.77 60.957 77.988 60.973 78.098 61.02 78.27 61.082 78.348 61.207 78.348 61.41 78.348 61.457 78.348 61.52 78.332 61.582 78.332 61.629 78.301 61.754 78.285 61.926L78.426 61.973 79.113 59.863 78.957 59.816C78.754 60.223 78.566 60.457 78.395 60.52 78.238 60.582 77.77 60.629 77.004 60.66L77.582 58.566C77.613 58.473 77.676 58.395 77.77 58.363 77.863 58.332 78.051 58.332 78.348 58.332 79.02 58.332 79.457 58.379 79.66 58.473 79.879 58.551 79.988 58.738 79.988 59.02 79.988 59.051 79.988 59.098 79.988 59.176 79.988 59.223 79.973 59.301 79.973 59.395H80.145L80.426 58.035H75.957V58.176C76.207 58.191 76.395 58.207 76.504 58.27 76.598 58.316 76.645 58.426 76.645 58.582 76.645 58.645 76.645 58.738 76.613 58.863 76.598 58.941 76.566 59.02 76.551 59.129L75.441 63.098C75.363 63.379 75.27 63.566 75.145 63.645 75.051 63.707 74.91 63.754 74.707 63.77ZM74.707 63.91" fill="#1e1c1c"/>
<path d="M64.445 54.188 67.328 49.688 66.969 52.027H69.309L64.445 54.188" fill="#1e1c1c" fill-rule="evenodd"/>
<path d="M84.426 37.09H84.801V37.461L67.16 52.223H66.789V51.848" fill="#1e1c1c"/>
<path d="M118.445 54.188 113.406 52.027H115.746L115.387 49.688 118.445 54.188" fill="#1e1c1c" fill-rule="evenodd"/>
<path d="M97.926 37.09H98.301L115.941 51.848V52.223H115.566L97.926 37.461" fill="#1e1c1c"/>
<path d="M165.605 54.188H160.207L162.367 53.109 161.105 51.129 165.605 54.188" fill="#1e1c1c" fill-rule="evenodd"/>
<path d="M111.426 37.09H111.801L162.563 52.93V53.301H162.188L111.426 37.461" fill="#1e1c1c"/>
<path d="M226.445 54.188 229.867 50.047 229.328 52.387 231.668 52.75 226.445 54.188" fill="#1e1c1c" fill-rule="evenodd"/>
<path d="M253.266 37.09H253.641V37.461L229.52 52.582H229.148V52.207" fill="#1e1c1c"/>
<path d="M273.605 54.188 270.188 50.047 272.348 50.949 273.246 48.789 273.605 54.188" fill="#1e1c1c" fill-rule="evenodd"/>
<path d="M266.766 37.09H267.141L272.543 50.77V51.145H272.168L266.766 37.461" fill="#1e1c1c"/>
<path d="M314.105 54.188 308.707 53.289 311.047 52.57 310.148 50.41 314.105 54.188" fill="#1e1c1c" fill-rule="evenodd"/>
<path d="M280.266 37.09H280.641L311.242 52.387V52.762H310.867L280.266 37.461" fill="#1e1c1c"/>
<path d="M91.445 27.188 96.129 24.488 94.688 26.469 96.848 27.547 91.445 27.188" fill="#1e1c1c" fill-rule="evenodd"/>
<path d="M165.426 10.09H165.801V10.461L94.883 26.664H94.508V26.289" fill="#1e1c1c"/>
<path d="M266.945 27.188 261.547 27.73 263.527 26.469 262.086 24.668 266.945 27.188" fill="#1e1c1c" fill-rule="evenodd"/>
<path d="M178.926 10.09H179.301L263.723 26.289V26.664H263.348L178.926 10.461" fill="#1e1c1c"/>
<path d="M17.105 54.188 21.605 51.129 20.348 53.109 22.508 54.188H17.105" fill="#1e1c1c" fill-rule="evenodd"/>
<path d="M70.926 37.09H71.301V37.461L20.543 53.301H20.168V52.93" fill="#1e1c1c"/>
</g>
</svg>
