<svg xmlns="http://www.w3.org/2000/svg" xmlns:xlink="http://www.w3.org/1999/xlink" xmlns:inkscape="http://www.inkscape.org/namespaces/inkscape" version="1.1" width="277.21385" height="40.874" viewBox="0 0 277.21385 40.874">
<g>
<path transform="matrix(1,0,0,-1,0,0)" d="M81.188-27.188H115.028V-40.688H81.188Z" fill="#a6a8ab"/>
<path transform="matrix(1,0,0,-1,0,0)" stroke-width=".374" stroke-linecap="butt" stroke-miterlimit="10" stroke-linejoin="miter" fill="none" stroke="#211e1e" d="M81.188-27.188H115.028V-40.688H81.188Z"/>
<path d="M89.285 35.797C89.176 35.797 89.066 35.828 88.988 35.922 88.91 36 88.863 36.125 88.863 36.281 88.863 36.453 88.957 36.641 89.129 36.813 89.301 36.984 89.566 37.063 89.941 37.063 90.457 37.063 90.879 36.828 91.191 36.375 91.363 36.109 91.52 35.719 91.676 35.172L92.598 31.844C92.676 31.563 92.754 31.391 92.848 31.328 92.926 31.25 93.098 31.203 93.332 31.172V31.031H91.051V31.172C91.332 31.188 91.52 31.219 91.613 31.281 91.691 31.344 91.738 31.438 91.738 31.547 91.738 31.625 91.723 31.719 91.707 31.797 91.691 31.875 91.676 31.984 91.629 32.109L90.504 36.188C90.441 36.406 90.395 36.547 90.332 36.609 90.27 36.719 90.16 36.797 90.02 36.797 89.941 36.797 89.848 36.766 89.785 36.703 89.723 36.656 89.707 36.563 89.707 36.422 89.707 36.391 89.707 36.344 89.707 36.297 89.707 36.266 89.707 36.219 89.707 36.188 89.707 36.078 89.676 35.984 89.598 35.891 89.52 35.828 89.426 35.797 89.285 35.797ZM89.285 35.797" fill="#211e1e"/>
<path d="M101.41 36.906H103.645V36.766C103.426 36.75 103.285 36.719 103.207 36.688 103.066 36.641 103.004 36.516 103.004 36.359 103.004 36.328 103.004 36.297 103.02 36.266 103.02 36.234 103.02 36.203 103.02 36.172L103.113 35.828 103.645 33.844 103.738 33.859 104.613 35.375C104.754 35.625 104.879 35.859 104.973 36.063 105.066 36.266 105.113 36.406 105.113 36.5 105.113 36.594 105.051 36.656 104.926 36.703 104.832 36.719 104.676 36.75 104.441 36.766V36.906H106.91V36.766C106.66 36.75 106.488 36.719 106.379 36.656 106.27 36.594 106.16 36.469 106.035 36.266L104.473 33.531 107.176 31.5C107.332 31.375 107.488 31.281 107.613 31.234 107.691 31.203 107.77 31.188 107.848 31.172V31.031H105.848V31.172C106.051 31.188 106.191 31.203 106.285 31.234 106.363 31.266 106.395 31.313 106.395 31.406 106.395 31.547 106.191 31.781 105.816 32.094 105.582 32.297 105.285 32.516 104.926 32.781L103.801 33.547H103.738L104.207 31.844C104.285 31.578 104.41 31.391 104.598 31.297 104.707 31.234 104.879 31.188 105.113 31.172V31.031H102.66V31.172C102.91 31.188 103.098 31.203 103.191 31.266 103.301 31.313 103.348 31.422 103.348 31.547 103.348 31.625 103.348 31.719 103.332 31.797 103.316 31.891 103.285 32 103.254 32.109L102.145 36.094C102.066 36.375 101.973 36.563 101.848 36.641 101.754 36.703 101.613 36.75 101.41 36.766ZM101.41 36.906" fill="#211e1e"/>
<path transform="matrix(1,0,0,-1,0,0)" d="M121.688-27.188H155.528V-40.688H121.688Z" fill="#a6a8ab"/>
<path transform="matrix(1,0,0,-1,0,0)" stroke-width=".374" stroke-linecap="butt" stroke-miterlimit="10" stroke-linejoin="miter" fill="none" stroke="#211e1e" d="M121.688-27.188H155.528V-40.688H121.688Z"/>
<path d="M128.34 36.906H130.137V36.766C129.949 36.75 129.809 36.734 129.73 36.703 129.574 36.641 129.496 36.516 129.496 36.359 129.496 36.297 129.512 36.219 129.527 36.125 129.543 36.031 129.559 35.953 129.574 35.891L130.574 32.141H130.621L132.684 37.063H132.84C132.902 36.828 132.934 36.688 132.949 36.641 132.965 36.578 132.996 36.484 133.027 36.359L134.105 32.5C134.262 31.938 134.402 31.594 134.48 31.469 134.59 31.328 134.762 31.234 135.043 31.172V31.031H133.246V31.172C133.434 31.188 133.59 31.203 133.668 31.25 133.809 31.313 133.887 31.422 133.887 31.594 133.887 31.625 133.871 31.688 133.871 31.781 133.84 31.859 133.824 31.953 133.809 32.047L132.902 35.484 132.871 35.5 131.027 31.031H129.574V31.172C129.715 31.188 129.809 31.203 129.902 31.234 129.965 31.25 130.027 31.266 130.09 31.313 130.152 31.344 130.199 31.406 130.262 31.5 130.309 31.594 130.324 31.625 130.324 31.656L129.277 35.438C129.121 35.984 128.996 36.344 128.887 36.484 128.777 36.625 128.605 36.719 128.34 36.766ZM128.34 36.906" fill="#211e1e"/>
<path d="M144.16 36.766C143.785 36.766 143.504 36.641 143.301 36.391 143.098 36.156 142.988 35.797 142.988 35.328 142.988 34.516 143.223 33.672 143.676 32.797 144.223 31.766 144.879 31.25 145.645 31.25 146.035 31.25 146.348 31.375 146.551 31.625 146.738 31.891 146.848 32.25 146.848 32.719 146.848 33.453 146.613 34.266 146.176 35.141 145.645 36.219 144.957 36.766 144.16 36.766ZM145.676 30.922C144.77 30.922 143.941 31.344 143.16 32.203 142.395 33.047 142.004 33.969 142.004 34.938 142.004 35.625 142.207 36.141 142.598 36.516 142.988 36.875 143.473 37.063 144.066 37.063 145.004 37.063 145.848 36.656 146.613 35.859 147.395 35.031 147.785 34.094 147.785 33.047 147.785 32.453 147.598 31.953 147.207 31.531 146.816 31.125 146.301 30.922 145.676 30.922ZM145.676 30.922" fill="#211e1e"/>
<path transform="matrix(1,0,0,-1,0,0)" d="M162.188-27.188H236.528V-40.688H162.188Z" fill="#a6a8ab"/>
<path transform="matrix(1,0,0,-1,0,0)" stroke-width=".374" stroke-linecap="butt" stroke-miterlimit="10" stroke-linejoin="miter" fill="none" stroke="#211e1e" d="M162.188-27.188H236.528V-40.688H162.188Z"/>
<path d="M171.395 33.609 171.957 31.547C172.004 31.438 172.035 31.375 172.113 31.359 172.176 31.328 172.27 31.313 172.395 31.313 172.738 31.313 173.02 31.375 173.223 31.5 173.441 31.641 173.551 31.906 173.551 32.281 173.551 32.781 173.395 33.125 173.082 33.328 172.77 33.547 172.379 33.641 171.926 33.641 171.863 33.641 171.816 33.641 171.77 33.641 171.723 33.641 171.598 33.625 171.395 33.609ZM169.082 36.906H171.301V36.766C171.082 36.75 170.91 36.719 170.816 36.672 170.723 36.625 170.676 36.516 170.676 36.391 170.676 36.297 170.691 36.188 170.723 36.047 170.738 35.984 170.754 35.906 170.785 35.828L171.301 33.938 171.863 33.984 172.973 36.906H174.316V36.766C174.098 36.75 173.957 36.703 173.848 36.594 173.738 36.5 173.645 36.328 173.566 36.109L172.723 33.906C173.191 33.813 173.535 33.688 173.801 33.516 174.27 33.234 174.504 32.828 174.504 32.313 174.504 31.766 174.223 31.391 173.691 31.188 173.41 31.078 173.051 31.031 172.613 31.031H170.395V31.172C170.613 31.188 170.77 31.219 170.879 31.266 170.973 31.313 171.02 31.422 171.02 31.547 171.02 31.625 171.02 31.719 170.988 31.828 170.973 31.938 170.941 32.031 170.926 32.109L169.816 36.094C169.738 36.375 169.645 36.563 169.52 36.641 169.426 36.703 169.285 36.75 169.082 36.766ZM169.082 36.906" fill="#211e1e"/>
<path d="M183.223 37.063H183.379C183.41 36.969 183.457 36.891 183.504 36.859 183.551 36.797 183.629 36.766 183.738 36.766 183.801 36.766 183.988 36.828 184.27 36.938 184.566 37.047 184.863 37.109 185.129 37.109 185.691 37.109 186.113 36.922 186.457 36.563 186.77 36.188 186.941 35.781 186.941 35.313 186.941 35.047 186.879 34.813 186.785 34.609 186.691 34.406 186.566 34.234 186.41 34.078L185.598 33.203C185.363 32.953 185.223 32.75 185.129 32.625 185.051 32.484 185.004 32.313 185.004 32.109 185.004 31.859 185.098 31.656 185.285 31.484 185.457 31.328 185.707 31.25 185.988 31.25 186.457 31.25 186.785 31.422 186.941 31.766 187.051 31.969 187.098 32.281 187.113 32.719H187.27L187.645 30.922H187.426C187.395 30.984 187.348 31.031 187.285 31.094 187.223 31.156 187.145 31.188 187.051 31.188 186.988 31.188 186.848 31.141 186.598 31.063 186.348 30.969 186.098 30.938 185.863 30.938 185.332 30.938 184.926 31.094 184.645 31.406 184.363 31.719 184.223 32.063 184.223 32.422 184.223 32.672 184.285 32.891 184.41 33.094 184.535 33.297 184.816 33.641 185.254 34.109L185.816 34.734C185.941 34.875 186.051 35.047 186.113 35.234 186.145 35.375 186.16 35.484 186.16 35.594 186.16 35.891 186.066 36.156 185.863 36.406 185.66 36.656 185.363 36.781 185.004 36.781 184.629 36.781 184.332 36.641 184.082 36.359 183.816 36.078 183.691 35.703 183.691 35.25 183.691 35.234 183.691 35.172 183.691 35.063H183.52ZM183.223 37.063" fill="#211e1e"/>
<path d="M196.754 36.906H199.348V36.766C199.035 36.75 198.816 36.719 198.707 36.688 198.598 36.641 198.551 36.531 198.551 36.359 198.551 36.297 198.566 36.188 198.598 36.094 198.598 36 198.629 35.922 198.66 35.828L199.91 31.344H200.426C200.785 31.344 201.035 31.422 201.16 31.547 201.285 31.688 201.348 31.891 201.348 32.156L201.332 32.484 201.488 32.5 201.879 31.031H197.082L196.707 32.422 196.863 32.438C197.145 31.922 197.41 31.609 197.645 31.5 197.863 31.391 198.316 31.344 199.004 31.344L197.691 36.094C197.613 36.359 197.488 36.563 197.301 36.641 197.191 36.703 197.02 36.75 196.754 36.766ZM196.754 36.906" fill="#211e1e"/>
<path transform="matrix(1,0,0,-1,0,0)" d="M.188-27.188H74.528V-40.688H.188Z" fill="#e6e6e6"/>
<path transform="matrix(1,0,0,-1,0,0)" stroke-width=".374" stroke-linecap="butt" stroke-miterlimit="10" stroke-linejoin="miter" fill="none" stroke="#211e1e" d="M.188-27.188H74.528V-40.688H.188Z"/>
<path d="M49.309 36.625C49.059 36.625 48.902 36.594 48.809 36.547 48.73 36.5 48.699 36.406 48.699 36.281 48.699 36.234 48.699 36.203 48.699 36.156 48.699 36.125 48.73 36.047 48.746 35.969L49.965 31.563C49.996 31.469 50.043 31.391 50.137 31.359 50.215 31.313 50.355 31.297 50.559 31.297 51.277 31.297 51.777 31.484 52.059 31.875 52.34 32.266 52.465 32.734 52.465 33.281 52.465 33.875 52.34 34.438 52.059 35 51.527 36.078 50.605 36.625 49.309 36.625ZM47.09 36.906H49.465C50.684 36.906 51.684 36.547 52.434 35.813 53.121 35.156 53.48 34.375 53.48 33.469 53.48 33.016 53.371 32.609 53.184 32.234 53.059 32 52.887 31.797 52.699 31.609 52.418 31.375 52.121 31.219 51.793 31.141 51.465 31.063 51.09 31.031 50.652 31.031H48.34V31.172C48.605 31.188 48.793 31.203 48.887 31.266 48.98 31.328 49.027 31.422 49.027 31.578 49.027 31.641 49.027 31.719 49.012 31.797 48.98 31.891 48.965 32 48.934 32.109L47.824 36.094C47.746 36.375 47.652 36.563 47.512 36.641 47.449 36.703 47.293 36.75 47.09 36.766ZM47.09 36.906" fill="#211e1e"/>
<path d="M61.191 36.906H65.754L66.316 35.453 66.176 35.375C65.832 35.875 65.488 36.203 65.129 36.375 64.785 36.547 64.207 36.641 63.41 36.641 63.129 36.641 62.957 36.594 62.863 36.516 62.816 36.469 62.785 36.391 62.785 36.297 62.785 36.25 62.801 36.188 62.816 36.141 62.816 36.094 62.832 36.031 62.848 35.969L63.41 33.953H63.91C64.285 33.953 64.535 33.984 64.66 34.047 64.801 34.094 64.863 34.219 64.863 34.406 64.863 34.453 64.863 34.5 64.863 34.547 64.848 34.578 64.832 34.688 64.801 34.859L64.988 34.906 65.598 32.813 65.441 32.781C65.254 33.188 65.082 33.438 64.926 33.5 64.77 33.578 64.285 33.625 63.488 33.656L64.066 31.563C64.098 31.469 64.16 31.391 64.238 31.375 64.316 31.344 64.504 31.328 64.816 31.328 65.488 31.328 65.941 31.375 66.16 31.469 66.379 31.563 66.488 31.75 66.473 32.047 66.473 32.031 66.473 32.063 66.457 32.141 66.457 32.219 66.457 32.297 66.457 32.391H66.629L66.91 31.031H62.441V31.172C62.691 31.188 62.879 31.203 62.973 31.266 63.082 31.313 63.145 31.422 63.145 31.563 63.145 31.625 63.129 31.688 63.113 31.781 63.082 31.859 63.066 31.969 63.035 32.109L61.926 36.094C61.848 36.375 61.754 36.563 61.613 36.641 61.535 36.703 61.395 36.75 61.191 36.766ZM61.191 36.906" fill="#211e1e"/>
<path d="M22.926 33.625 23.52 31.547C23.535 31.453 23.582 31.391 23.645 31.359 23.723 31.313 23.863 31.297 24.051 31.297 24.363 31.297 24.613 31.375 24.801 31.5 24.988 31.656 25.098 31.891 25.098 32.219 25.098 32.813 24.863 33.219 24.426 33.438 24.16 33.563 23.801 33.625 23.332 33.625ZM22.863 36.625C22.676 36.625 22.551 36.594 22.457 36.578 22.316 36.516 22.238 36.406 22.238 36.25 22.238 36.203 22.238 36.156 22.254 36.109 22.27 36.063 22.27 36.016 22.285 35.969L22.848 33.922C23.473 33.938 23.895 33.984 24.098 34.078 24.426 34.219 24.582 34.547 24.582 35.031 24.582 35.469 24.457 35.844 24.176 36.156 23.895 36.469 23.457 36.625 22.863 36.625ZM20.629 36.906H23.113C23.879 36.906 24.473 36.75 24.91 36.406 25.348 36.078 25.566 35.672 25.566 35.172 25.566 34.734 25.426 34.391 25.145 34.141 24.988 33.984 24.754 33.859 24.457 33.75 24.848 33.656 25.16 33.547 25.395 33.406 25.801 33.156 26.004 32.797 26.004 32.328 26.004 31.781 25.754 31.391 25.254 31.188 24.941 31.078 24.598 31.031 24.191 31.031H21.879V31.172C22.145 31.188 22.332 31.203 22.426 31.266 22.52 31.313 22.582 31.422 22.582 31.578 22.582 31.641 22.566 31.734 22.535 31.875 22.52 31.938 22.504 32.016 22.473 32.125L21.363 36.094C21.285 36.375 21.191 36.563 21.051 36.641 20.988 36.703 20.832 36.75 20.629 36.766ZM20.629 36.906" fill="#211e1e"/>
<path d="M9.23 34.563 10.543 32.219 10.918 34.563ZM7.137 36.906H8.84V36.766C8.637 36.75 8.496 36.719 8.418 36.688 8.34 36.641 8.309 36.563 8.309 36.438 8.309 36.344 8.324 36.234 8.371 36.109 8.402 36.031 8.434 35.953 8.48 35.891L9.043 34.875H10.965L11.152 36.047C11.168 36.094 11.168 36.125 11.168 36.172 11.168 36.234 11.168 36.281 11.168 36.328 11.168 36.5 11.105 36.609 10.98 36.656 10.902 36.703 10.73 36.734 10.48 36.766V36.906H12.684V36.766C12.434 36.734 12.277 36.688 12.199 36.609 12.121 36.531 12.059 36.328 11.996 36L11.137 30.906H10.949L8.309 35.406C7.965 35.984 7.73 36.344 7.621 36.484 7.496 36.625 7.34 36.703 7.137 36.766ZM7.137 36.906" fill="#211e1e"/>
<path d="M210.176 34.094C210.082 34.406 210.02 34.688 209.973 34.938 209.926 35.203 209.895 35.391 209.895 35.547 209.895 36 210.082 36.359 210.457 36.656 210.832 36.938 211.285 37.094 211.816 37.094 212.504 37.094 213.035 36.906 213.41 36.563 213.77 36.203 214.066 35.609 214.285 34.766L214.91 32.5C215.066 31.938 215.207 31.594 215.301 31.453 215.395 31.328 215.582 31.234 215.848 31.172V31.031H214.051V31.172C214.238 31.188 214.395 31.203 214.473 31.25 214.613 31.313 214.691 31.422 214.691 31.594 214.691 31.641 214.676 31.688 214.66 31.766 214.645 31.828 214.629 31.922 214.598 32.047L213.895 34.734C213.707 35.406 213.473 35.906 213.16 36.219 212.863 36.547 212.441 36.703 211.926 36.703 211.707 36.703 211.504 36.656 211.285 36.563 210.91 36.375 210.723 36.063 210.723 35.609 210.723 35.469 210.754 35.234 210.832 34.906 210.895 34.703 210.941 34.484 211.02 34.25L211.691 31.844C211.754 31.563 211.879 31.391 212.066 31.297 212.176 31.234 212.348 31.188 212.598 31.172V31.031H210.129V31.172C210.379 31.188 210.551 31.203 210.66 31.25 210.77 31.297 210.832 31.391 210.832 31.547 210.832 31.625 210.816 31.719 210.801 31.844 210.785 31.906 210.754 32 210.723 32.109ZM210.176 34.094" fill="#211e1e"/>
<path d="M223.715 31.031V31.172C223.965 31.203 224.121 31.266 224.184 31.375 224.246 31.5 224.34 31.828 224.418 32.375L225.184 37.063H225.355L228.715 31.531C228.793 31.391 228.871 31.313 228.934 31.266 228.996 31.234 229.09 31.203 229.215 31.172V31.031H227.543V31.172C227.746 31.203 227.902 31.234 227.98 31.266 228.074 31.313 228.105 31.375 228.105 31.484 228.105 31.594 228.043 31.797 227.902 32.078 227.809 32.234 227.73 32.391 227.637 32.547L225.824 35.672H225.777L225.199 31.766C225.184 31.734 225.184 31.719 225.184 31.688 225.184 31.672 225.184 31.641 225.184 31.625 225.184 31.453 225.262 31.328 225.402 31.25 225.496 31.203 225.668 31.188 225.887 31.172V31.031ZM223.715 31.031" fill="#211e1e"/>
<path transform="matrix(1,0,0,-1,0,0)" d="M243.188-27.188H277.028V-40.688H243.188Z" fill="#a6a8ab"/>
<path transform="matrix(1,0,0,-1,0,0)" stroke-width=".374" stroke-linecap="butt" stroke-miterlimit="10" stroke-linejoin="miter" fill="none" stroke="#211e1e" d="M243.188-27.188H277.028V-40.688H243.188Z"/>
<path d="M250.895 36.906H253.52V36.766C253.207 36.75 252.988 36.719 252.879 36.688 252.77 36.641 252.707 36.531 252.707 36.359 252.707 36.313 252.723 36.234 252.738 36.156 252.738 36.078 252.77 35.969 252.816 35.828L253.27 34.156 255.27 31.719C255.426 31.5 255.566 31.375 255.66 31.313 255.754 31.234 255.895 31.188 256.066 31.172V31.031H254.191V31.172C254.41 31.188 254.566 31.203 254.629 31.219 254.754 31.266 254.816 31.344 254.816 31.469 254.816 31.578 254.738 31.75 254.566 31.984 254.473 32.125 254.316 32.328 254.098 32.594L253.098 33.766 252.566 31.844C252.566 31.828 252.551 31.781 252.535 31.688 252.52 31.609 252.504 31.563 252.504 31.516 252.504 31.375 252.566 31.281 252.707 31.234 252.801 31.203 252.941 31.188 253.16 31.172V31.031H251.02V31.172C251.254 31.203 251.41 31.25 251.473 31.297 251.551 31.359 251.613 31.516 251.691 31.766L252.379 34.188 251.848 36.094C251.77 36.359 251.645 36.563 251.473 36.641 251.363 36.703 251.176 36.75 250.895 36.766ZM250.895 36.906" fill="#211e1e"/>
<path d="M264.004 36.906H268.551L269.051 35.391 268.863 35.375C268.645 35.828 268.379 36.156 268.129 36.328 267.863 36.5 267.363 36.578 266.613 36.578H265.176L269.52 31.156V31.031H265.16L264.738 32.344 264.91 32.391C265.113 32 265.301 31.734 265.473 31.625 265.738 31.453 266.176 31.359 266.785 31.359H268.316L264.004 36.781ZM264.004 36.906" fill="#211e1e"/>
<path transform="matrix(1,0,0,-1,0,0)" d="M108.188-.188H169.028V-13.688H108.188Z" fill="#a6a8ab"/>
<path transform="matrix(1,0,0,-1,0,0)" stroke-width=".374" stroke-linecap="butt" stroke-miterlimit="10" stroke-linejoin="miter" fill="none" stroke="#211e1e" d="M108.188-.188H169.028V-13.688H108.188Z"/>
<path d="M142.207 9.906H144.426V9.766C144.191 9.75 144.02 9.719 143.941 9.656 143.848 9.609 143.801 9.5 143.801 9.359 143.801 9.297 143.816 9.203 143.848 9.078 143.848 9.016 143.879 8.922 143.91 8.828L144.395 7.094C144.504 7.109 144.629 7.125 144.754 7.141 144.895 7.141 145.02 7.156 145.145 7.156 146.207 7.156 146.926 6.875 147.332 6.344 147.551 6.078 147.645 5.75 147.645 5.391 147.645 4.813 147.395 4.422 146.863 4.203 146.566 4.078 146.207 4.031 145.738 4.031H143.52V4.172C143.754 4.188 143.91 4.219 144.02 4.266 144.113 4.328 144.16 4.422 144.16 4.563 144.16 4.594 144.16 4.625 144.145 4.656 144.145 4.688 144.145 4.734 144.129 4.766L144.051 5.109 142.941 9.094C142.863 9.375 142.77 9.563 142.645 9.641 142.551 9.703 142.41 9.75 142.207 9.766ZM144.473 6.781 145.098 4.547C145.129 4.438 145.191 4.375 145.254 4.344 145.332 4.313 145.441 4.313 145.566 4.313 145.926 4.313 146.207 4.391 146.426 4.547 146.629 4.688 146.738 4.969 146.738 5.344 146.738 5.969 146.504 6.406 146.035 6.641 145.785 6.75 145.441 6.813 145.004 6.813 144.863 6.813 144.77 6.813 144.676 6.813 144.598 6.797 144.535 6.781 144.473 6.781ZM144.473 6.781" fill="#211e1e"/>
<path d="M158.527 9.906H160.996V9.766C160.73 9.75 160.543 9.703 160.418 9.625 160.277 9.531 160.168 9.359 160.059 9.094L159.137 6.781C159.262 6.641 159.512 6.344 159.902 5.906 160.277 5.469 160.48 5.234 160.527 5.203 160.855 4.813 161.09 4.563 161.23 4.453 161.371 4.344 161.559 4.25 161.777 4.172V4.031H159.902V4.172C160.121 4.203 160.277 4.234 160.34 4.266 160.418 4.297 160.465 4.375 160.465 4.484 160.465 4.547 160.434 4.609 160.402 4.672 160.371 4.75 160.324 4.813 160.277 4.859L158.98 6.375 158.355 4.813C158.324 4.75 158.324 4.703 158.309 4.672 158.293 4.641 158.293 4.609 158.293 4.563 158.293 4.422 158.34 4.328 158.434 4.297 158.527 4.25 158.699 4.203 158.949 4.172V4.031H156.574V4.172C156.824 4.203 157.012 4.25 157.121 4.313 157.215 4.359 157.309 4.5 157.402 4.719L158.355 7.094 157.215 8.406C156.855 8.828 156.59 9.109 156.402 9.297 156.09 9.578 155.84 9.734 155.621 9.766V9.906H157.559V9.766C157.355 9.766 157.23 9.75 157.152 9.719 157.027 9.672 156.965 9.578 156.965 9.453 156.965 9.375 156.98 9.297 157.027 9.219 157.059 9.156 157.121 9.094 157.168 9.031L158.512 7.484 159.121 8.969C159.152 9.047 159.168 9.125 159.184 9.219 159.215 9.297 159.215 9.359 159.215 9.406 159.215 9.563 159.152 9.656 159.012 9.703 158.934 9.734 158.762 9.75 158.527 9.766ZM158.527 9.906" fill="#211e1e"/>
<path d="M127.715 9.906H129.512V9.766C129.324 9.75 129.184 9.719 129.09 9.688 128.949 9.625 128.887 9.516 128.887 9.344 128.887 9.297 128.887 9.234 128.902 9.141 128.918 9.047 128.949 8.969 128.965 8.891L129.965 5.078H130.012L130.684 9.906H130.855L134.371 4.922H134.402L133.23 9.172C133.152 9.406 133.027 9.578 132.855 9.656 132.746 9.703 132.574 9.75 132.324 9.766V9.906H134.809V9.766C134.559 9.75 134.371 9.719 134.277 9.672 134.152 9.625 134.105 9.531 134.105 9.359 134.105 9.297 134.105 9.219 134.137 9.125 134.152 9.047 134.184 8.938 134.215 8.828L135.309 4.844C135.387 4.563 135.48 4.391 135.559 4.313 135.652 4.25 135.824 4.203 136.059 4.172V4.031H134.574L131.371 8.438H131.34L130.715 4.031H129.074V4.172C129.246 4.172 129.402 4.203 129.559 4.266 129.715 4.313 129.777 4.406 129.73 4.547L128.652 8.438C128.496 8.984 128.371 9.328 128.262 9.484 128.152 9.641 127.98 9.719 127.715 9.766ZM127.715 9.906" fill="#211e1e"/>
<path d="M118.645 3.906C117.582 3.906 116.691 4.328 115.941 5.156 115.285 5.922 114.941 6.734 114.941 7.609 114.941 8.281 115.16 8.844 115.582 9.297 116.066 9.813 116.738 10.063 117.598 10.063 118.02 10.063 118.426 10.016 118.785 9.891 119.16 9.797 119.473 9.656 119.691 9.516L120.129 7.813C120.191 7.563 120.27 7.406 120.379 7.328 120.488 7.25 120.691 7.203 120.988 7.172V7.031H118.598V7.172C118.895 7.203 119.082 7.25 119.176 7.281 119.254 7.328 119.285 7.406 119.285 7.547 119.285 7.563 119.285 7.578 119.285 7.609 119.27 7.641 119.27 7.672 119.27 7.688L119.176 8.094C119.098 8.391 119.035 8.625 119.004 8.797 118.926 9.063 118.863 9.234 118.801 9.328 118.723 9.453 118.582 9.563 118.348 9.641 118.113 9.703 117.895 9.734 117.707 9.734 117.129 9.734 116.707 9.563 116.395 9.219 116.098 8.875 115.941 8.422 115.941 7.859 115.941 7.063 116.16 6.297 116.582 5.563 117.113 4.656 117.785 4.203 118.645 4.203 119.254 4.203 119.707 4.422 119.973 4.828 120.129 5.047 120.223 5.328 120.27 5.703L120.41 5.719 120.863 3.953 120.723 3.922C120.66 4.016 120.582 4.094 120.504 4.141 120.426 4.203 120.316 4.234 120.16 4.234 120.113 4.234 120.051 4.234 120.004 4.203 119.926 4.188 119.832 4.156 119.676 4.094 119.473 4.031 119.285 3.969 119.113 3.953 118.941 3.922 118.785 3.906 118.645 3.906ZM118.645 3.906" fill="#211e1e"/>
<path d="M37.988 30.922C36.941 30.922 36.051 31.344 35.316 32.188 34.645 32.953 34.301 33.797 34.301 34.703 34.301 35.328 34.504 35.875 34.91 36.359 35.301 36.828 35.879 37.063 36.645 37.063 37.129 37.063 37.598 36.953 38.004 36.703 38.426 36.469 38.785 36.156 39.129 35.734L38.973 35.594C38.613 35.953 38.316 36.188 38.082 36.328 37.707 36.563 37.285 36.656 36.832 36.656 36.379 36.656 36.02 36.5 35.754 36.188 35.473 35.875 35.316 35.406 35.316 34.797 35.316 33.953 35.551 33.188 36.02 32.484 36.551 31.656 37.223 31.25 38.051 31.25 38.582 31.25 38.957 31.438 39.191 31.844 39.316 32.063 39.395 32.344 39.441 32.703L39.582 32.719 39.926 30.938H39.738C39.691 31 39.66 31.047 39.613 31.078 39.582 31.125 39.504 31.125 39.395 31.125 39.332 31.125 39.145 31.094 38.848 31.031 38.535 30.953 38.254 30.922 37.988 30.922ZM37.988 30.922" fill="#211e1e"/>
<path d="M260.105 27.188 254.707 27.91 256.688 26.648 255.246 24.668 260.105 27.188" fill="#211e1e" fill-rule="evenodd"/>
<path d="M165.426 10.09H165.801L256.883 26.469V26.844H256.508L165.426 10.461" fill="#211e1e"/>
<path d="M199.445 27.188 193.867 27.008 196.027 26.109 194.945 23.949 199.445 27.188" fill="#211e1e" fill-rule="evenodd"/>
<path d="M151.926 10.09H152.301L196.223 25.93V26.301H195.848L151.926 10.461" fill="#211e1e"/>
<path d="M138.605 27.188 136.988 21.969 138.605 23.77 140.227 21.969 138.605 27.188" fill="#211e1e" fill-rule="evenodd"/>
<path transform="matrix(1,0,0,-1,0,0)" stroke-width=".374" stroke-linecap="butt" stroke-miterlimit="10" stroke-linejoin="miter" fill="none" stroke="#211e1e" d="M138.613-10.09V-23.961"/>
<path d="M98.105 27.188 101.707 23.047 100.988 25.387 103.328 25.75 98.105 27.188" fill="#211e1e" fill-rule="evenodd"/>
<path d="M124.926 10.09H125.301V10.461L101.18 25.582H100.809V25.207" fill="#211e1e"/>
<path d="M37.445 27.188 42.129 24.488 40.688 26.469 42.848 27.547 37.445 27.188" fill="#211e1e" fill-rule="evenodd"/>
<path d="M111.426 10.09H111.801V10.461L40.883 26.664H40.508V26.289" fill="#211e1e"/>
</g>
</svg>
