<svg xmlns="http://www.w3.org/2000/svg" xmlns:xlink="http://www.w3.org/1999/xlink" xmlns:inkscape="http://www.inkscape.org/namespaces/inkscape" version="1.1" width="290.71385" height="40.874" viewBox="0 0 290.71385 40.874">
<g>
<path transform="matrix(1,0,0,-1,0,0)" d="M81.188-27.188H115.028V-40.688H81.188Z" fill="#a6a8ab"/>
<path transform="matrix(1,0,0,-1,0,0)" stroke-width=".374" stroke-linecap="butt" stroke-miterlimit="10" stroke-linejoin="miter" fill="none" stroke="#211e1e" d="M81.188-27.188H115.028V-40.688H81.188Z"/>
<path d="M89.285 35.797C89.176 35.797 89.066 35.828 88.988 35.922 88.91 36 88.863 36.125 88.863 36.281 88.863 36.453 88.957 36.641 89.129 36.813 89.301 36.984 89.566 37.063 89.941 37.063 90.457 37.063 90.879 36.828 91.191 36.375 91.363 36.109 91.52 35.719 91.676 35.172L92.598 31.844C92.676 31.563 92.754 31.391 92.848 31.328 92.926 31.25 93.098 31.203 93.332 31.172V31.031H91.051V31.172C91.332 31.188 91.52 31.219 91.613 31.281 91.691 31.344 91.738 31.438 91.738 31.547 91.738 31.625 91.723 31.719 91.707 31.797 91.691 31.875 91.676 31.984 91.629 32.109L90.504 36.188C90.441 36.406 90.395 36.547 90.332 36.609 90.27 36.719 90.16 36.797 90.02 36.797 89.941 36.797 89.848 36.766 89.785 36.703 89.723 36.656 89.707 36.563 89.707 36.422 89.707 36.391 89.707 36.344 89.707 36.297 89.707 36.266 89.707 36.219 89.707 36.188 89.707 36.078 89.676 35.984 89.598 35.891 89.52 35.828 89.426 35.797 89.285 35.797ZM89.285 35.797" fill="#211e1e"/>
<path d="M101.41 36.906H103.645V36.766C103.426 36.75 103.285 36.719 103.207 36.688 103.066 36.641 103.004 36.516 103.004 36.359 103.004 36.328 103.004 36.297 103.02 36.266 103.02 36.234 103.02 36.203 103.02 36.172L103.113 35.828 103.645 33.844 103.738 33.859 104.613 35.375C104.754 35.625 104.879 35.859 104.973 36.063 105.066 36.266 105.113 36.406 105.113 36.5 105.113 36.594 105.051 36.656 104.926 36.703 104.832 36.719 104.676 36.75 104.441 36.766V36.906H106.91V36.766C106.66 36.75 106.488 36.719 106.379 36.656 106.27 36.594 106.16 36.469 106.035 36.266L104.473 33.531 107.176 31.5C107.332 31.375 107.488 31.281 107.613 31.234 107.691 31.203 107.77 31.188 107.848 31.172V31.031H105.848V31.172C106.051 31.188 106.191 31.203 106.285 31.234 106.363 31.266 106.395 31.313 106.395 31.406 106.395 31.547 106.191 31.781 105.816 32.094 105.582 32.297 105.285 32.516 104.926 32.781L103.801 33.547H103.738L104.207 31.844C104.285 31.578 104.41 31.391 104.598 31.297 104.707 31.234 104.879 31.188 105.113 31.172V31.031H102.66V31.172C102.91 31.188 103.098 31.203 103.191 31.266 103.301 31.313 103.348 31.422 103.348 31.547 103.348 31.625 103.348 31.719 103.332 31.797 103.316 31.891 103.285 32 103.254 32.109L102.145 36.094C102.066 36.375 101.973 36.563 101.848 36.641 101.754 36.703 101.613 36.75 101.41 36.766ZM101.41 36.906" fill="#211e1e"/>
<path transform="matrix(1,0,0,-1,0,0)" d="M121.688-27.188H155.528V-40.688H121.688Z" fill="#a6a8ab"/>
<path transform="matrix(1,0,0,-1,0,0)" stroke-width=".374" stroke-linecap="butt" stroke-miterlimit="10" stroke-linejoin="miter" fill="none" stroke="#211e1e" d="M121.688-27.188H155.528V-40.688H121.688Z"/>
<path d="M128.34 36.906H130.137V36.766C129.949 36.75 129.809 36.734 129.73 36.703 129.574 36.641 129.496 36.516 129.496 36.359 129.496 36.297 129.512 36.219 129.527 36.125 129.543 36.031 129.559 35.953 129.574 35.891L130.574 32.141H130.621L132.684 37.063H132.84C132.902 36.828 132.934 36.688 132.949 36.641 132.965 36.578 132.996 36.484 133.027 36.359L134.105 32.5C134.262 31.938 134.402 31.594 134.48 31.469 134.59 31.328 134.762 31.234 135.043 31.172V31.031H133.246V31.172C133.434 31.188 133.59 31.203 133.668 31.25 133.809 31.313 133.887 31.422 133.887 31.594 133.887 31.625 133.871 31.688 133.871 31.781 133.84 31.859 133.824 31.953 133.809 32.047L132.902 35.484 132.871 35.5 131.027 31.031H129.574V31.172C129.715 31.188 129.809 31.203 129.902 31.234 129.965 31.25 130.027 31.266 130.09 31.313 130.152 31.344 130.199 31.406 130.262 31.5 130.309 31.594 130.324 31.625 130.324 31.656L129.277 35.438C129.121 35.984 128.996 36.344 128.887 36.484 128.777 36.625 128.605 36.719 128.34 36.766ZM128.34 36.906" fill="#211e1e"/>
<path d="M144.16 36.766C143.785 36.766 143.504 36.641 143.301 36.391 143.098 36.156 142.988 35.797 142.988 35.328 142.988 34.516 143.223 33.672 143.676 32.797 144.223 31.766 144.879 31.25 145.645 31.25 146.035 31.25 146.348 31.375 146.551 31.625 146.738 31.891 146.848 32.25 146.848 32.719 146.848 33.453 146.613 34.266 146.176 35.141 145.645 36.219 144.957 36.766 144.16 36.766ZM145.676 30.922C144.77 30.922 143.941 31.344 143.16 32.203 142.395 33.047 142.004 33.969 142.004 34.938 142.004 35.625 142.207 36.141 142.598 36.516 142.988 36.875 143.473 37.063 144.066 37.063 145.004 37.063 145.848 36.656 146.613 35.859 147.395 35.031 147.785 34.094 147.785 33.047 147.785 32.453 147.598 31.953 147.207 31.531 146.816 31.125 146.301 30.922 145.676 30.922ZM145.676 30.922" fill="#211e1e"/>
<path transform="matrix(1,0,0,-1,0,0)" d="M216.188-27.188H250.028V-40.688H216.188Z" fill="#e6e6e6"/>
<path transform="matrix(1,0,0,-1,0,0)" stroke-width=".374" stroke-linecap="butt" stroke-miterlimit="10" stroke-linejoin="miter" fill="none" stroke="#211e1e" d="M216.188-27.188H250.028V-40.688H216.188Z"/>
<path transform="matrix(1,0,0,-1,0,0)" d="M.188-27.188H74.528V-40.688H.188Z" fill="#a6a8ab"/>
<path transform="matrix(1,0,0,-1,0,0)" stroke-width=".374" stroke-linecap="butt" stroke-miterlimit="10" stroke-linejoin="miter" fill="none" stroke="#211e1e" d="M.188-27.188H74.528V-40.688H.188Z"/>
<path d="M49.309 36.625C49.059 36.625 48.902 36.594 48.809 36.547 48.73 36.5 48.699 36.406 48.699 36.281 48.699 36.234 48.699 36.203 48.699 36.156 48.699 36.125 48.73 36.047 48.746 35.969L49.965 31.563C49.996 31.469 50.043 31.391 50.137 31.359 50.215 31.313 50.355 31.297 50.559 31.297 51.277 31.297 51.777 31.484 52.059 31.875 52.34 32.266 52.465 32.734 52.465 33.281 52.465 33.875 52.34 34.438 52.059 35 51.527 36.078 50.605 36.625 49.309 36.625ZM47.09 36.906H49.465C50.684 36.906 51.684 36.547 52.434 35.813 53.121 35.156 53.48 34.375 53.48 33.469 53.48 33.016 53.371 32.609 53.184 32.234 53.059 32 52.887 31.797 52.699 31.609 52.418 31.375 52.121 31.219 51.793 31.141 51.465 31.063 51.09 31.031 50.652 31.031H48.34V31.172C48.605 31.188 48.793 31.203 48.887 31.266 48.98 31.328 49.027 31.422 49.027 31.578 49.027 31.641 49.027 31.719 49.012 31.797 48.98 31.891 48.965 32 48.934 32.109L47.824 36.094C47.746 36.375 47.652 36.563 47.512 36.641 47.449 36.703 47.293 36.75 47.09 36.766ZM47.09 36.906" fill="#211e1e"/>
<path d="M61.191 36.906H65.754L66.316 35.453 66.176 35.375C65.832 35.875 65.488 36.203 65.129 36.375 64.785 36.547 64.207 36.641 63.41 36.641 63.129 36.641 62.957 36.594 62.863 36.516 62.816 36.469 62.785 36.391 62.785 36.297 62.785 36.25 62.801 36.188 62.816 36.141 62.816 36.094 62.832 36.031 62.848 35.969L63.41 33.953H63.91C64.285 33.953 64.535 33.984 64.66 34.047 64.801 34.094 64.863 34.219 64.863 34.406 64.863 34.453 64.863 34.5 64.863 34.547 64.848 34.578 64.832 34.688 64.801 34.859L64.988 34.906 65.598 32.813 65.441 32.781C65.254 33.188 65.082 33.438 64.926 33.5 64.77 33.578 64.285 33.625 63.488 33.656L64.066 31.563C64.098 31.469 64.16 31.391 64.238 31.375 64.316 31.344 64.504 31.328 64.816 31.328 65.488 31.328 65.941 31.375 66.16 31.469 66.379 31.563 66.488 31.75 66.473 32.047 66.473 32.031 66.473 32.063 66.457 32.141 66.457 32.219 66.457 32.297 66.457 32.391H66.629L66.91 31.031H62.441V31.172C62.691 31.188 62.879 31.203 62.973 31.266 63.082 31.313 63.145 31.422 63.145 31.563 63.145 31.625 63.129 31.688 63.113 31.781 63.082 31.859 63.066 31.969 63.035 32.109L61.926 36.094C61.848 36.375 61.754 36.563 61.613 36.641 61.535 36.703 61.395 36.75 61.191 36.766ZM61.191 36.906" fill="#211e1e"/>
<path d="M22.926 33.625 23.52 31.547C23.535 31.453 23.582 31.391 23.645 31.359 23.723 31.313 23.863 31.297 24.051 31.297 24.363 31.297 24.613 31.375 24.801 31.5 24.988 31.656 25.098 31.891 25.098 32.219 25.098 32.813 24.863 33.219 24.426 33.438 24.16 33.563 23.801 33.625 23.332 33.625ZM22.863 36.625C22.676 36.625 22.551 36.594 22.457 36.578 22.316 36.516 22.238 36.406 22.238 36.25 22.238 36.203 22.238 36.156 22.254 36.109 22.27 36.063 22.27 36.016 22.285 35.969L22.848 33.922C23.473 33.938 23.895 33.984 24.098 34.078 24.426 34.219 24.582 34.547 24.582 35.031 24.582 35.469 24.457 35.844 24.176 36.156 23.895 36.469 23.457 36.625 22.863 36.625ZM20.629 36.906H23.113C23.879 36.906 24.473 36.75 24.91 36.406 25.348 36.078 25.566 35.672 25.566 35.172 25.566 34.734 25.426 34.391 25.145 34.141 24.988 33.984 24.754 33.859 24.457 33.75 24.848 33.656 25.16 33.547 25.395 33.406 25.801 33.156 26.004 32.797 26.004 32.328 26.004 31.781 25.754 31.391 25.254 31.188 24.941 31.078 24.598 31.031 24.191 31.031H21.879V31.172C22.145 31.188 22.332 31.203 22.426 31.266 22.52 31.313 22.582 31.422 22.582 31.578 22.582 31.641 22.566 31.734 22.535 31.875 22.52 31.938 22.504 32.016 22.473 32.125L21.363 36.094C21.285 36.375 21.191 36.563 21.051 36.641 20.988 36.703 20.832 36.75 20.629 36.766ZM20.629 36.906" fill="#211e1e"/>
<path d="M9.23 34.563 10.543 32.219 10.918 34.563ZM7.137 36.906H8.84V36.766C8.637 36.75 8.496 36.719 8.418 36.688 8.34 36.641 8.309 36.563 8.309 36.438 8.309 36.344 8.324 36.234 8.371 36.109 8.402 36.031 8.434 35.953 8.48 35.891L9.043 34.875H10.965L11.152 36.047C11.168 36.094 11.168 36.125 11.168 36.172 11.168 36.234 11.168 36.281 11.168 36.328 11.168 36.5 11.105 36.609 10.98 36.656 10.902 36.703 10.73 36.734 10.48 36.766V36.906H12.684V36.766C12.434 36.734 12.277 36.688 12.199 36.609 12.121 36.531 12.059 36.328 11.996 36L11.137 30.906H10.949L8.309 35.406C7.965 35.984 7.73 36.344 7.621 36.484 7.496 36.625 7.34 36.703 7.137 36.766ZM7.137 36.906" fill="#211e1e"/>
<path d="M223.676 34.094C223.582 34.406 223.52 34.688 223.473 34.938 223.426 35.203 223.395 35.391 223.395 35.547 223.395 36 223.582 36.359 223.957 36.656 224.332 36.938 224.785 37.094 225.316 37.094 226.004 37.094 226.535 36.906 226.91 36.563 227.27 36.203 227.566 35.609 227.785 34.766L228.41 32.5C228.566 31.938 228.707 31.594 228.801 31.453 228.895 31.328 229.082 31.234 229.348 31.172V31.031H227.551V31.172C227.738 31.188 227.895 31.203 227.973 31.25 228.113 31.313 228.191 31.422 228.191 31.594 228.191 31.641 228.176 31.688 228.16 31.766 228.145 31.828 228.129 31.922 228.098 32.047L227.395 34.734C227.207 35.406 226.973 35.906 226.66 36.219 226.363 36.547 225.941 36.703 225.426 36.703 225.207 36.703 225.004 36.656 224.785 36.563 224.41 36.375 224.223 36.063 224.223 35.609 224.223 35.469 224.254 35.234 224.332 34.906 224.395 34.703 224.441 34.484 224.52 34.25L225.191 31.844C225.254 31.563 225.379 31.391 225.566 31.297 225.676 31.234 225.848 31.188 226.098 31.172V31.031H223.629V31.172C223.879 31.188 224.051 31.203 224.16 31.25 224.27 31.297 224.332 31.391 224.332 31.547 224.332 31.625 224.316 31.719 224.301 31.844 224.285 31.906 224.254 32 224.223 32.109ZM223.676 34.094" fill="#211e1e"/>
<path d="M237.215 31.031V31.172C237.465 31.203 237.621 31.266 237.684 31.375 237.746 31.5 237.84 31.828 237.918 32.375L238.684 37.063H238.855L242.215 31.531C242.293 31.391 242.371 31.313 242.434 31.266 242.496 31.234 242.59 31.203 242.715 31.172V31.031H241.043V31.172C241.246 31.203 241.402 31.234 241.48 31.266 241.574 31.313 241.605 31.375 241.605 31.484 241.605 31.594 241.543 31.797 241.402 32.078 241.309 32.234 241.23 32.391 241.137 32.547L239.324 35.672H239.277L238.699 31.766C238.684 31.734 238.684 31.719 238.684 31.688 238.684 31.672 238.684 31.641 238.684 31.625 238.684 31.453 238.762 31.328 238.902 31.25 238.996 31.203 239.168 31.188 239.387 31.172V31.031ZM237.215 31.031" fill="#211e1e"/>
<path transform="matrix(1,0,0,-1,0,0)" d="M256.688-27.188H290.52799V-40.688H256.688Z" fill="#a6a8ab"/>
<path transform="matrix(1,0,0,-1,0,0)" stroke-width=".374" stroke-linecap="butt" stroke-miterlimit="10" stroke-linejoin="miter" fill="none" stroke="#211e1e" d="M256.688-27.188H290.52799V-40.688H256.688Z"/>
<path d="M264.395 36.906H267.02V36.766C266.707 36.75 266.488 36.719 266.379 36.688 266.27 36.641 266.207 36.531 266.207 36.359 266.207 36.313 266.223 36.234 266.238 36.156 266.238 36.078 266.27 35.969 266.316 35.828L266.77 34.156 268.77 31.719C268.926 31.5 269.066 31.375 269.16 31.313 269.254 31.234 269.395 31.188 269.566 31.172V31.031H267.691V31.172C267.91 31.188 268.066 31.203 268.129 31.219 268.254 31.266 268.316 31.344 268.316 31.469 268.316 31.578 268.238 31.75 268.066 31.984 267.973 32.125 267.816 32.328 267.598 32.594L266.598 33.766 266.066 31.844C266.066 31.828 266.051 31.781 266.035 31.688 266.02 31.609 266.004 31.563 266.004 31.516 266.004 31.375 266.066 31.281 266.207 31.234 266.301 31.203 266.441 31.188 266.66 31.172V31.031H264.52V31.172C264.754 31.203 264.91 31.25 264.973 31.297 265.051 31.359 265.113 31.516 265.191 31.766L265.879 34.188 265.348 36.094C265.27 36.359 265.145 36.563 264.973 36.641 264.863 36.703 264.676 36.75 264.395 36.766ZM264.395 36.906" fill="#211e1e"/>
<path d="M277.504 36.906H282.051L282.551 35.391 282.363 35.375C282.145 35.828 281.879 36.156 281.629 36.328 281.363 36.5 280.863 36.578 280.113 36.578H278.676L283.02 31.156V31.031H278.66L278.238 32.344 278.41 32.391C278.613 32 278.801 31.734 278.973 31.625 279.238 31.453 279.676 31.359 280.285 31.359H281.816L277.504 36.781ZM277.504 36.906" fill="#211e1e"/>
<path transform="matrix(1,0,0,-1,0,0)" d="M115.027-.188H189.18701V-13.688H115.027Z" fill="#e6e6e6"/>
<path transform="matrix(1,0,0,-1,0,0)" stroke-width=".374" stroke-linecap="butt" stroke-miterlimit="10" stroke-linejoin="miter" fill="none" stroke="#211e1e" d="M115.027-.188H189.18701V-13.688H115.027Z"/>
<path d="M149.047 9.906H151.266V9.766C151.031 9.75 150.859 9.719 150.781 9.656 150.688 9.609 150.641 9.5 150.641 9.359 150.641 9.297 150.656 9.203 150.688 9.078 150.688 9.016 150.719 8.922 150.75 8.828L151.234 7.094C151.344 7.109 151.469 7.125 151.594 7.141 151.734 7.141 151.859 7.156 151.984 7.156 153.047 7.156 153.766 6.875 154.172 6.344 154.391 6.078 154.484 5.75 154.484 5.391 154.484 4.813 154.234 4.422 153.703 4.203 153.406 4.078 153.047 4.031 152.578 4.031H150.359V4.172C150.594 4.188 150.75 4.219 150.859 4.266 150.953 4.328 151 4.422 151 4.563 151 4.594 151 4.625 150.984 4.656 150.984 4.688 150.984 4.734 150.969 4.766L150.891 5.109 149.781 9.094C149.703 9.375 149.609 9.563 149.484 9.641 149.391 9.703 149.25 9.75 149.047 9.766ZM151.313 6.781 151.938 4.547C151.969 4.438 152.031 4.375 152.094 4.344 152.172 4.313 152.281 4.313 152.406 4.313 152.766 4.313 153.047 4.391 153.266 4.547 153.469 4.688 153.578 4.969 153.578 5.344 153.578 5.969 153.344 6.406 152.875 6.641 152.625 6.75 152.281 6.813 151.844 6.813 151.703 6.813 151.609 6.813 151.516 6.813 151.438 6.797 151.375 6.781 151.313 6.781ZM151.313 6.781" fill="#211e1e"/>
<path d="M178.688 9.906H181.156V9.766C180.891 9.75 180.703 9.703 180.578 9.625 180.438 9.531 180.328 9.359 180.219 9.094L179.297 6.781C179.422 6.641 179.672 6.344 180.063 5.906 180.438 5.469 180.641 5.234 180.688 5.203 181.016 4.813 181.25 4.563 181.391 4.453 181.531 4.344 181.719 4.25 181.938 4.172V4.031H180.063V4.172C180.281 4.203 180.438 4.234 180.5 4.266 180.578 4.297 180.625 4.375 180.625 4.484 180.625 4.547 180.594 4.609 180.563 4.672 180.531 4.75 180.484 4.813 180.438 4.859L179.141 6.375 178.516 4.813C178.484 4.75 178.484 4.703 178.469 4.672 178.453 4.641 178.453 4.609 178.453 4.563 178.453 4.422 178.5 4.328 178.594 4.297 178.688 4.25 178.859 4.203 179.109 4.172V4.031H176.734V4.172C176.984 4.203 177.172 4.25 177.281 4.313 177.375 4.359 177.469 4.5 177.563 4.719L178.516 7.094 177.375 8.406C177.016 8.828 176.75 9.109 176.563 9.297 176.25 9.578 176 9.734 175.781 9.766V9.906H177.719V9.766C177.516 9.766 177.391 9.75 177.313 9.719 177.188 9.672 177.125 9.578 177.125 9.453 177.125 9.375 177.141 9.297 177.188 9.219 177.219 9.156 177.281 9.094 177.328 9.031L178.672 7.484 179.281 8.969C179.313 9.047 179.328 9.125 179.344 9.219 179.375 9.297 179.375 9.359 179.375 9.406 179.375 9.563 179.313 9.656 179.172 9.703 179.094 9.734 178.922 9.75 178.688 9.766ZM178.688 9.906" fill="#211e1e"/>
<path d="M134.371 9.906H136.168V9.766C135.98 9.75 135.84 9.719 135.746 9.688 135.605 9.625 135.543 9.516 135.543 9.344 135.543 9.297 135.543 9.234 135.559 9.141 135.574 9.047 135.605 8.969 135.621 8.891L136.621 5.078H136.668L137.34 9.906H137.512L141.027 4.922H141.059L139.887 9.172C139.809 9.406 139.684 9.578 139.512 9.656 139.402 9.703 139.23 9.75 138.98 9.766V9.906H141.465V9.766C141.215 9.75 141.027 9.719 140.934 9.672 140.809 9.625 140.762 9.531 140.762 9.359 140.762 9.297 140.762 9.219 140.793 9.125 140.809 9.047 140.84 8.938 140.871 8.828L141.965 4.844C142.043 4.563 142.137 4.391 142.215 4.313 142.309 4.25 142.48 4.203 142.715 4.172V4.031H141.23L138.027 8.438H137.996L137.371 4.031H135.73V4.172C135.902 4.172 136.059 4.203 136.215 4.266 136.371 4.313 136.434 4.406 136.387 4.547L135.309 8.438C135.152 8.984 135.027 9.328 134.918 9.484 134.809 9.641 134.637 9.719 134.371 9.766ZM134.371 9.906" fill="#211e1e"/>
<path d="M125.484 3.906C124.422 3.906 123.531 4.328 122.781 5.156 122.125 5.922 121.781 6.734 121.781 7.609 121.781 8.281 122 8.844 122.422 9.297 122.906 9.813 123.578 10.063 124.438 10.063 124.859 10.063 125.266 10.016 125.625 9.891 126 9.797 126.313 9.656 126.531 9.516L126.969 7.813C127.031 7.563 127.109 7.406 127.219 7.328 127.328 7.25 127.531 7.203 127.828 7.172V7.031H125.438V7.172C125.734 7.203 125.922 7.25 126.016 7.281 126.094 7.328 126.125 7.406 126.125 7.547 126.125 7.563 126.125 7.578 126.125 7.609 126.109 7.641 126.109 7.672 126.109 7.688L126.016 8.094C125.938 8.391 125.875 8.625 125.844 8.797 125.766 9.063 125.703 9.234 125.641 9.328 125.563 9.453 125.422 9.563 125.188 9.641 124.953 9.703 124.734 9.734 124.547 9.734 123.969 9.734 123.547 9.563 123.234 9.219 122.938 8.875 122.781 8.422 122.781 7.859 122.781 7.063 123 6.297 123.422 5.563 123.953 4.656 124.625 4.203 125.484 4.203 126.094 4.203 126.547 4.422 126.813 4.828 126.969 5.047 127.063 5.328 127.109 5.703L127.25 5.719 127.703 3.953 127.563 3.922C127.5 4.016 127.422 4.094 127.344 4.141 127.266 4.203 127.156 4.234 127 4.234 126.953 4.234 126.891 4.234 126.844 4.203 126.766 4.188 126.672 4.156 126.516 4.094 126.313 4.031 126.125 3.969 125.953 3.953 125.781 3.922 125.625 3.906 125.484 3.906ZM125.484 3.906" fill="#211e1e"/>
<path d="M37.988 30.922C36.941 30.922 36.051 31.344 35.316 32.188 34.645 32.953 34.301 33.797 34.301 34.703 34.301 35.328 34.504 35.875 34.91 36.359 35.301 36.828 35.879 37.063 36.645 37.063 37.129 37.063 37.598 36.953 38.004 36.703 38.426 36.469 38.785 36.156 39.129 35.734L38.973 35.594C38.613 35.953 38.316 36.188 38.082 36.328 37.707 36.563 37.285 36.656 36.832 36.656 36.379 36.656 36.02 36.5 35.754 36.188 35.473 35.875 35.316 35.406 35.316 34.797 35.316 33.953 35.551 33.188 36.02 32.484 36.551 31.656 37.223 31.25 38.051 31.25 38.582 31.25 38.957 31.438 39.191 31.844 39.316 32.063 39.395 32.344 39.441 32.703L39.582 32.719 39.926 30.938H39.738C39.691 31 39.66 31.047 39.613 31.078 39.582 31.125 39.504 31.125 39.395 31.125 39.332 31.125 39.145 31.094 38.848 31.031 38.535 30.953 38.254 30.922 37.988 30.922ZM37.988 30.922" fill="#211e1e"/>
<path transform="matrix(1,0,0,-1,0,0)" d="M162.188-27.188H209.528V-40.688H162.188Z" fill="#e6e6e6"/>
<path transform="matrix(1,0,0,-1,0,0)" stroke-width=".374" stroke-linecap="butt" stroke-miterlimit="10" stroke-linejoin="miter" fill="none" stroke="#211e1e" d="M162.188-27.188H209.528V-40.688H162.188Z"/>
<path d="M184.895 33.609 185.457 31.547C185.504 31.438 185.535 31.375 185.613 31.359 185.676 31.328 185.77 31.313 185.895 31.313 186.238 31.313 186.52 31.375 186.723 31.5 186.941 31.641 187.051 31.906 187.051 32.281 187.051 32.781 186.895 33.125 186.582 33.328 186.27 33.547 185.879 33.641 185.426 33.641 185.363 33.641 185.316 33.641 185.27 33.641 185.223 33.641 185.098 33.625 184.895 33.609ZM182.582 36.906H184.801V36.766C184.582 36.75 184.41 36.719 184.316 36.672 184.223 36.625 184.176 36.516 184.176 36.391 184.176 36.297 184.191 36.188 184.223 36.047 184.238 35.984 184.254 35.906 184.285 35.828L184.801 33.938 185.363 33.984 186.473 36.906H187.816V36.766C187.598 36.75 187.457 36.703 187.348 36.594 187.238 36.5 187.145 36.328 187.066 36.109L186.223 33.906C186.691 33.813 187.035 33.688 187.301 33.516 187.77 33.234 188.004 32.828 188.004 32.313 188.004 31.766 187.723 31.391 187.191 31.188 186.91 31.078 186.551 31.031 186.113 31.031H183.895V31.172C184.113 31.188 184.27 31.219 184.379 31.266 184.473 31.313 184.52 31.422 184.52 31.547 184.52 31.625 184.52 31.719 184.488 31.828 184.473 31.938 184.441 32.031 184.426 32.109L183.316 36.094C183.238 36.375 183.145 36.563 183.02 36.641 182.926 36.703 182.785 36.75 182.582 36.766ZM182.582 36.906" fill="#211e1e"/>
<path d="M196.723 37.063H196.879C196.91 36.969 196.957 36.891 197.004 36.859 197.051 36.797 197.129 36.766 197.238 36.766 197.301 36.766 197.488 36.828 197.77 36.938 198.066 37.047 198.363 37.109 198.629 37.109 199.191 37.109 199.613 36.922 199.957 36.563 200.27 36.188 200.441 35.781 200.441 35.313 200.441 35.047 200.379 34.813 200.285 34.609 200.191 34.406 200.066 34.234 199.91 34.078L199.098 33.203C198.863 32.953 198.723 32.75 198.629 32.625 198.551 32.484 198.504 32.313 198.504 32.109 198.504 31.859 198.598 31.656 198.785 31.484 198.957 31.328 199.207 31.25 199.488 31.25 199.957 31.25 200.285 31.422 200.441 31.766 200.551 31.969 200.598 32.281 200.613 32.719H200.77L201.145 30.922H200.926C200.895 30.984 200.848 31.031 200.785 31.094 200.723 31.156 200.645 31.188 200.551 31.188 200.488 31.188 200.348 31.141 200.098 31.063 199.848 30.969 199.598 30.938 199.363 30.938 198.832 30.938 198.426 31.094 198.145 31.406 197.863 31.719 197.723 32.063 197.723 32.422 197.723 32.672 197.785 32.891 197.91 33.094 198.035 33.297 198.316 33.641 198.754 34.109L199.316 34.734C199.441 34.875 199.551 35.047 199.613 35.234 199.645 35.375 199.66 35.484 199.66 35.594 199.66 35.891 199.566 36.156 199.363 36.406 199.16 36.656 198.863 36.781 198.504 36.781 198.129 36.781 197.832 36.641 197.582 36.359 197.316 36.078 197.191 35.703 197.191 35.25 197.191 35.234 197.191 35.172 197.191 35.063H197.02ZM196.723 37.063" fill="#211e1e"/>
<path d="M171.16 36.75C170.785 36.75 170.488 36.625 170.285 36.391 170.082 36.141 169.988 35.781 169.988 35.313 169.988 34.5 170.223 33.672 170.676 32.797 171.223 31.766 171.879 31.25 172.645 31.25 173.035 31.25 173.348 31.375 173.551 31.625 173.738 31.891 173.848 32.25 173.848 32.719 173.848 33.453 173.613 34.266 173.176 35.141 172.645 36.219 171.957 36.75 171.16 36.75ZM171.004 37.063C171.941 37.094 172.785 36.703 173.582 35.891 174.379 35.063 174.785 34.109 174.785 33.047 174.785 32.453 174.598 31.953 174.207 31.531 173.816 31.125 173.301 30.922 172.676 30.922 171.77 30.922 170.941 31.344 170.16 32.203 169.395 33.047 169.004 33.969 169.004 34.922 169.004 35.531 169.176 36.031 169.488 36.391 169.816 36.766 170.176 36.969 170.613 37.016 170.363 37.234 170.16 37.422 169.957 37.578 169.676 37.828 169.363 38.063 169.02 38.313L169.113 38.453C169.285 38.359 169.457 38.281 169.613 38.234 169.785 38.188 169.941 38.172 170.098 38.172 170.27 38.172 170.629 38.234 171.145 38.359 171.676 38.5 172.051 38.563 172.285 38.563 172.598 38.563 172.895 38.516 173.191 38.391 173.723 38.188 174.145 37.844 174.504 37.359L174.363 37.266C174.145 37.484 173.973 37.641 173.816 37.719 173.551 37.875 173.238 37.938 172.863 37.938 172.613 37.938 172.254 37.875 171.77 37.75 171.285 37.641 170.926 37.578 170.707 37.578 170.691 37.578 170.66 37.578 170.629 37.578 170.598 37.578 170.551 37.578 170.52 37.578ZM171.004 37.063" fill="#211e1e"/>
<path d="M163.094 9.906H165.688V9.766C165.375 9.75 165.156 9.719 165.047 9.688 164.938 9.641 164.891 9.531 164.891 9.359 164.891 9.297 164.906 9.188 164.938 9.094 164.938 9 164.969 8.922 165 8.828L166.25 4.344H166.766C167.125 4.344 167.375 4.422 167.5 4.547 167.625 4.688 167.688 4.891 167.688 5.156L167.672 5.484 167.828 5.5 168.219 4.031H163.422L163.047 5.422 163.203 5.438C163.484 4.922 163.75 4.609 163.984 4.5 164.203 4.391 164.656 4.344 165.344 4.344L164.031 9.094C163.953 9.359 163.828 9.563 163.641 9.641 163.531 9.703 163.359 9.75 163.094 9.766ZM163.094 9.906" fill="#211e1e"/>
<path d="M233.105 27.188 227.707 27.367 229.867 26.289 228.605 24.309 233.105 27.188" fill="#211e1e" fill-rule="evenodd"/>
<path d="M172.266 10.09H172.641L230.063 26.109V26.484H229.688L172.266 10.461" fill="#211e1e"/>
<path d="M185.945 27.188 180.547 25.75 182.887 25.387 182.348 23.047 185.945 27.188" fill="#211e1e" fill-rule="evenodd"/>
<path d="M158.766 10.09H159.141L183.082 25.207V25.582H182.707L158.766 10.461" fill="#211e1e"/>
<path d="M138.605 27.188 138.969 21.789 139.867 23.949 142.027 23.047 138.605 27.188" fill="#211e1e" fill-rule="evenodd"/>
<path d="M145.266 10.09H145.641V10.461L140.063 24.145H139.688V23.77" fill="#211e1e"/>
<path d="M98.105 27.188 102.066 23.41 101.168 25.57 103.508 26.289 98.105 27.188" fill="#211e1e" fill-rule="evenodd"/>
<path d="M131.766 10.09H132.141V10.461L101.359 25.762H100.988V25.387" fill="#211e1e"/>
<path d="M37.445 27.188 42.129 24.488 40.688 26.469 42.668 27.73 37.445 27.188" fill="#211e1e" fill-rule="evenodd"/>
<path d="M118.266 10.09H118.641V10.461L40.883 26.664H40.508V26.289" fill="#211e1e"/>
<path d="M273.605 27.188 268.207 27.73 270.188 26.469 268.746 24.668 273.605 27.188" fill="#211e1e" fill-rule="evenodd"/>
<path d="M185.766 10.09H186.141L270.383 26.289V26.664H270.008L185.766 10.461" fill="#211e1e"/>
</g>
</svg>
