<svg xmlns="http://www.w3.org/2000/svg" xmlns:xlink="http://www.w3.org/1999/xlink" xmlns:inkscape="http://www.inkscape.org/namespaces/inkscape" version="1.1" width="373.03" height="139.868" viewBox="0 0 373.03 139.868">
<defs>
<path id="font_1_4" d="M.24299622 .66760256C.23199463 .6816101 .23098755 .6826172 .21099854 .6826172H.04399109V.6496124H.07199097C.08999634 .6496124 .09799194 .6496124 .117996219 .6476135 .14399719 .64460757 .14498902 .6436157 .14498902 .62461856V.10694885C.14498902 .080963138 .14498902 .032989503 .04399109 .032989503V0C.08898926 .0029907227 .13598633 .0029907227 .1619873 .0029907227 .18798828 .0029907227 .23498535 .0029907227 .27999879 0V.032989503C.1789856 .032989503 .1789856 .080963138 .1789856 .10694885V.6166229L.6119995 .01499939C.62098696 .0029907227 .6230011 0 .6329956 0 .6499939 0 .6499939 .009994507 .6499939 .027999878V.5756531C.6499939 .6016388 .6499939 .6496124 .7509918 .6496124V.6826172C.70599368 .6796112 .6589966 .6796112 .6329956 .6796112 .6069946 .6796112 .55999758 .6796112 .5149994 .6826172V.6496124C.6159973 .6496124 .6159973 .6016388 .6159973 .5756531V.14892578L.24299622 .66760256Z"/>
<path id="font_1_10" d="M.19499207 .61586C.19499207 .64486697 .17199707 .671875 .13899231 .671875 .10998535 .671875 .083999637 .64886477 .083999637 .61686709 .083999637 .5818634 .11299133 .5608673 .13899231 .5608673 .17399597 .5608673 .19499207 .58987429 .19499207 .61586M.04499817 .43040467V.3973999C.10899353 .3973999 .117996219 .39138795 .117996219 .34233094V.078048709C.117996219 .032989503 .10598755 .032989503 .041992189 .032989503V0C.08099365 .0029907227 .13699341 .0029907227 .1519928 .0029907227 .16499329 .0029907227 .22499085 .0029907227 .2599945 0V.032989503C.19499207 .032989503 .19099427 .037994386 .19099427 .077041629V.44140626L.04499817 .43040467Z"/>
<path id="font_1_11" d="M.30099488 .27212525 .38598634 .34016419C.45199586 .3921814 .49398805 .39718629 .5189972 .39819337V.43121339C.49499513 .4282074 .48098756 .4282074 .43998719 .4282074 .3909912 .4282074 .3769989 .42919923 .33299256 .43121339V.39819337C.35198976 .39718629 .35598756 .3841858 .35598756 .37817384 .35598756 .35716249 .33599855 .34016419 .32798768 .33415223L.18399048 .21809387V.69433596L.034988405 .68333438V.6503296C.102996829 .6503296 .11099243 .6433258 .11099243 .5942993V.07801819C.11099243 .032989503 .09899902 .032989503 .034988405 .032989503V0C.07398987 .0029907227 .12799073 .0029907227 .14498902 .0029907227 .16499329 .0029907227 .21699524 .0029907227 .2559967 0V.032989503C.19198609 .032989503 .17999268 .032989503 .17999268 .07801819V.17506409L.24798584 .22909546C.25099183 .22909546 .2769928 .19407654 .29299928 .17506409 .30799867 .15405274 .32398988 .13404846 .33999635 .11402893 .35398866 .09402466 .375 .06800842 .375 .053009035 .375 .035995485 .35598756 .032989503 .34399415 .032989503V0C.3869934 .0029907227 .43199159 .0029907227 .44898988 .0029907227 .4869995 .0029907227 .5069885 .0029907227 .5419922 0V.032989503C.5 .032989503 .48199464 .036987306 .44599916 .08401489L.30099488 .27212525Z"/>
<path id="font_1_14" d="M.5 .21325684C.5 .3382721 .39698792 .44628907 .2649994 .44628907 .1329956 .44628907 .02999878 .3382721 .02999878 .21325684 .02999878 .08824158 .13699341-.009765625 .2649994-.009765625 .3939972-.009765625 .5 .08824158 .5 .21325684M.2649994 .021224976C.21099854 .021224976 .16899109 .047225954 .14698792 .082229617 .12199402 .12324524 .11898804 .17224121 .11898804 .22225952 .11898804 .2602539 .11898804 .32026673 .1499939 .363266 .17599488 .3982849 .21798706 .41827394 .2649994 .41827394 .31698609 .41827394 .3600006 .39328004 .3829956 .35827638 .4099884 .31626893 .41099549 .2622528 .41099549 .22225952 .41099549 .17625427 .40899659 .12124634 .3809967 .07923889 .35398866 .039230348 .30899049 .021224976 .2649994 .021224976Z"/>
<path id="font_1_12" d="M.19099427 .69433596 .041992189 .68333438V.6503296C.10998535 .6503296 .117996219 .6433258 .117996219 .5942993V.07801819C.117996219 .032989503 .10598755 .032989503 .041992189 .032989503V0C.08099365 .0029907227 .13699341 .0029907227 .1539917 .0029907227 .17399597 .0029907227 .22799683 .0029907227 .2669983 0V.032989503C.20298767 .032989503 .19099427 .032989503 .19099427 .07801819V.69433596Z"/>
<path id="font_1_5" d="M.41999818 .29855348C.41999818 .39653016 .32499696 .44628907 .23399353 .44628907 .15098572 .44628907 .07699585 .4143219 .07699585 .34857179 .07699585 .318573 .09799194 .30056764 .12399292 .30056764 .1519928 .30056764 .17098999 .3205719 .17098999 .3475647 .17098999 .37156678 .1559906 .38856507 .13398743 .3935547 .17098999 .41827394 .22499085 .41827394 .23199463 .41827394 .28799439 .41827394 .34399415 .37957765 .34399415 .2975464V.2662201C.28599549 .26322938 .21899414 .2602234 .14898682 .23123169 .06098938 .19322205 .04399109 .13522339 .04399109 .10223389 .04399109 .016220093 .14498902-.009765625 .21398926-.009765625 .2869873-.009765625 .33198548 .031219483 .35398866 .07122803 .35899354 .033233644 .3849945-.004776001 .42900086-.004776001 .43899537-.004776001 .5239868-.00077819827 .5239868 .09022522V.14523316H.49299623V.09022522C.49299623 .049224855 .47799684 .033233644 .45700074 .033233644 .41999818 .033233644 .41999818 .07922363 .41999818 .09022522V.29855348M.34399415 .1412201C.34399415 .04421997 .2619934 .018234253 .22200012 .018234253 .16999817 .018234253 .12599182 .053222658 .12599182 .10122681 .12599182 .16722107 .18798828 .23522949 .34399415 .24023438V.1412201Z"/>
<path id="font_1_17" d="M.33399964 .43040467V.3973999C.4019928 .3973999 .4099884 .39039613 .4099884 .34136964V.16729737C.4099884 .08125305 .35798646 .018234253 .2829895 .018234253 .19699097 .018234253 .19299317 .06124878 .19299317 .11126709V.44140626L.040985109 .43040467V.3973999C.116989139 .3973999 .116989139 .39439393 .116989139 .3053589V.1552887C.116989139 .08325195 .116989139-.009765625 .2769928-.009765625 .37098695-.009765625 .40699769 .0622406 .4119873 .071243289H.41299439V-.009765625L.56199648 .00022888184V.033233644C.49398805 .033233644 .48599244 .040237428 .48599244 .089263919V.44140626L.33399964 .43040467Z"/>
<path id="font_1_16" d="M.35598756 .4202881C.35598756 .4362793 .35598756 .44628907 .34298707 .44628907 .33799745 .44628907 .33499146 .44628907 .31900025 .4302826 .31698609 .4292755 .30799867 .4202881 .30499269 .4202881 .3039856 .4202881 .3019867 .4202881 .29599 .4242859 .27999879 .43528749 .25099183 .44628907 .20599365 .44628907 .06599426 .44628907 .034988405 .37026979 .034988405 .32226563 .034988405 .27226258 .07199097 .24325562 .07499695 .24024964 .114990238 .21025086 .13798523 .20625305 .20498657 .19424439 .2519989 .18525696 .32899476 .17124939 .32899476 .10324097 .32899476 .0642395 .30299378 .018234253 .21099854 .018234253 .10998535 .018234253 .08099365 .09623718 .067993167 .14924622 .06399536 .1622467 .06298828 .16725159 .050994874 .16725159 .034988405 .16725159 .034988405 .15924073 .034988405 .14024353V.016220093C.034988405 .00022888184 .034988405-.009765625 .04798889-.009765625 .053985597-.009765625 .054992677-.008773804 .07299805 .010223389 .07798767 .0152282719 .08898926 .02822876 .09399414 .033233644 .13899231-.0077667238 .18598938-.009765625 .21199036-.009765625 .33898927-.009765625 .3829956 .06323242 .3829956 .12924195 .3829956 .1772461 .35398866 .24725342 .23498535 .2692566 .22698975 .2712555 .17098999 .28126527 .16699219 .28126527 .13598633 .28826905 .08898926 .30926515 .08898926 .34927369 .08898926 .37927247 .11099243 .4212799 .20599365 .4212799 .31799317 .4212799 .32299806 .33926393 .32499696 .31126405 .32598878 .30326844 .33299256 .30026246 .33999635 .30026246 .35598756 .30026246 .35598756 .30726625 .35598756 .32626344V.4202881Z"/>
<path id="font_1_8" d="M.41299439 .22851563C.43499757 .22851563 .44099427 .22851563 .44099427 .25151063 .44099427 .34039308 .3919983 .44628907 .25099183 .44628907 .1269989 .44628907 .02999878 .3433838 .02999878 .21949768 .02999878 .09031677 .13798523-.009765625 .2639923-.009765625 .3909912-.009765625 .44099427 .097335819 .44099427 .12036133 .44099427 .12435913 .43798829 .13438416 .4249878 .13438416 .4139862 .13438416 .4119873 .12736511 .4099884 .12136841 .37399293 .024230957 .28799439 .021224976 .269989 .021224976 .22499085 .021224976 .1789856 .042251588 .14898682 .08831787 .11898804 .13438416 .11898804 .19847107 .11898804 .22851563H.41299439M.11999512 .25450135C.1289978 .39431764 .21398926 .41827394 .25099183 .41827394 .36799623 .41827394 .37199403 .27748109 .37298585 .25450135H.11999512Z"/>
<path id="font_1_13" d="M.48599244 .3032837C.48599244 .38737489 .44799806 .44140626 .34298707 .44140626 .24398804 .44140626 .19898987 .36935426 .18699646 .34532167H.18598938V.44140626L.040985109 .43040467V.39738465C.10899353 .39738465 .116989139 .39038087 .116989139 .34132386V.07803345C.116989139 .032989503 .10499573 .032989503 .040985109 .032989503V0C.083999637 .0029907227 .12799073 .0029907227 .15499878 .0029907227 .18399048 .0029907227 .22599793 .0029907227 .2689972 0V.032989503C.20498657 .032989503 .19299317 .032989503 .19299317 .07803345V.25923158C.19299317 .36434938 .272995 .4133911 .33399964 .4133911 .394989 .4133911 .4099884 .37036134 .4099884 .3072815V.07803345C.4099884 .032989503 .397995 .032989503 .33399964 .032989503V0C.3769989 .0029907227 .42099 .0029907227 .44799806 .0029907227 .47698976 .0029907227 .5189972 .0029907227 .56199648 0V.032989503C.49798585 .032989503 .48599244 .032989503 .48599244 .07803345V.3032837Z"/>
<path id="font_1_15" d="M.18399048 .22821045C.18399048 .30329896 .21499634 .4113922 .31098939 .4133911 .30499269 .4093933 .29499818 .4013977 .29499818 .3783722 .29499818 .34735108 .31900025 .33332826 .33898927 .33332826 .36299134 .33332826 .38398744 .34934999 .38398744 .3783722 .38398744 .4133911 .35198976 .44140626 .30799867 .44140626 .24299622 .44140626 .19898987 .39239503 .17799378 .33633424H.1769867V.44140626L.034988405 .43040467V.3973999C.102996829 .3973999 .11099243 .39039613 .11099243 .3413391V.078048709C.11099243 .032989503 .09899902 .032989503 .034988405 .032989503V0C.07398987 .0029907227 .1289978 .0029907227 .15299988 .0029907227 .21199036 .0029907227 .21398926 .0029907227 .2789917 0V.032989503H.25898744C.18598938 .032989503 .18399048 .044006349 .18399048 .08004761V.22821045Z"/>
<path id="font_1_3" d="M.4119873 .60461428C.4119873 .6496124 .42399598 .6496124 .48799134 .6496124V.6826172C.43699647 .6796112 .40899659 .6796112 .35299684 .6796112 .30899049 .6796112 .23298645 .6796112 .19198609 .6826172V.6496124H.22599793C.31999208 .6496124 .32299806 .63760378 .32299806 .6006012V.14859009C.32299806 .05657959 .2689972 .006515503 .21598816 .006515503 .17298889 .006515503 .1269989 .026535035 .10398865 .05758667 .13198853 .05859375 .1619873 .07559204 .1619873 .113586429 .1619873 .14859009 .1349945 .1685791 .10699463 .1685791 .085998538 .1685791 .051986696 .15458679 .051986696 .111587528 .051986696 .03755188 .125-.021484375 .21899414-.021484375 .31098939-.021484375 .4119873 .03855896 .4119873 .14859009V.60461428Z"/>
<path id="font_1_7" d="M.36799623 .39746095C.33999635 .3884735 .33599855 .36547853 .33599855 .35346986 .33599855 .32647706 .35499574 .30647279 .3829956 .30647279 .40899659 .30647279 .42999269 .32447816 .42999269 .35447694 .42999269 .41627503 .3619995 .44628907 .2679901 .44628907 .1289978 .44628907 .034988405 .33547975 .034988405 .21640015 .034988405 .089279178 .13899231-.009765625 .2649994-.009765625 .4059906-.009765625 .44099427 .108306888 .44099427 .12031555 .44099427 .13232422 .42799378 .13232422 .4249878 .13232422 .41799928 .13232422 .41299439 .13131714 .4099884 .12130737 .40299989 .10029602 .375 .021224976 .2749939 .021224976 .21299744 .021224976 .12399292 .0692749 .12399292 .21739197 .12399292 .3614807 .19799805 .4152832 .2709961 .4152832 .27999879 .4152832 .33299256 .4152832 .36799623 .39746095Z"/>
<path id="font_1_6" d="M.18399048 .69433596 .034988405 .68333438V.6503296C.102996829 .6503296 .11099243 .6433258 .11099243 .5943451V.00022888184H.14199829L.17799378 .0622406C.20199585 .02822876 .24899292-.009765625 .31698609-.009765625 .44400025-.009765625 .55400088 .088256839 .55400088 .2163086 .55400088 .34236146 .45098878 .44140626 .32899476 .44140626 .25 .44140626 .20098877 .39839173 .18399048 .38038636V.69433596M.18699646 .31636048C.18699646 .33535768 .18699646 .33737184 .20199585 .3553772 .23098755 .39239503 .27799989 .4133911 .32299806 .4133911 .375 .4133911 .4139862 .38238526 .43399049 .35237123 .45098878 .32536317 .46499635 .29034425 .46499635 .21731568 .46499635 .19430542 .46499635 .12327576 .42900086 .07624817 .3929901 .031234742 .34599305 .018234253 .31298829 .018234253 .2649994 .018234253 .22499085 .04324341 .19898987 .08226013 .18699646 .101257327 .18699646 .102264408 .18699646 .121276859V.31636048Z"/>
<path id="font_1_2" d="M.23699951 .6016388C.23699951 .6396179 .23999024 .6496124 .31900025 .6496124H.34298707V.6826172C.2630005 .6796112 .26098634 .6796112 .19099427 .6796112 .12098694 .6796112 .11898804 .6796112 .038986207 .6826172V.6496124H.06298828C.14199829 .6496124 .14498902 .6396179 .14498902 .6016388V.080963138C.14498902 .04298401 .14199829 .032989503 .06298828 .032989503H.038986207V0C.11898804 .0029907227 .12098694 .0029907227 .19099427 .0029907227 .26098634 .0029907227 .2630005 .0029907227 .34298707 0V.032989503H.31900025C.23999024 .032989503 .23699951 .04298401 .23699951 .080963138V.6016388Z"/>
<path id="font_1_9" d="M.48599244 .3032837C.48599244 .38737489 .44799806 .44140626 .34298707 .44140626 .25498963 .44140626 .20899964 .38537599 .19099427 .35333253H.18998719V.69433596L.040985109 .68333438V.6503296C.10899353 .6503296 .116989139 .6433258 .116989139 .5943451V.07803345C.116989139 .032989503 .10499573 .032989503 .040985109 .032989503V0C.083999637 .0029907227 .12799073 .0029907227 .15499878 .0029907227 .18399048 .0029907227 .22599793 .0029907227 .2689972 0V.032989503C.20498657 .032989503 .19299317 .032989503 .19299317 .07803345V.25923158C.19299317 .36434938 .272995 .4133911 .33399964 .4133911 .394989 .4133911 .4099884 .37036134 .4099884 .3072815V.07803345C.4099884 .032989503 .397995 .032989503 .33399964 .032989503V0C.3769989 .0029907227 .42099 .0029907227 .44799806 .0029907227 .47698976 .0029907227 .5189972 .0029907227 .56199648 0V.032989503C.49798585 .032989503 .48599244 .032989503 .48599244 .07803345V.3032837Z"/>
<path id="font_1_1" d="M.04598999 .6826172V.6496124H.067993167C.14498902 .6496124 .14698792 .63861086 .14698792 .6016388V.080963138C.14698792 .04399109 .14498902 .032989503 .067993167 .032989503H.04598999V0H.42599488C.60598757 0 .7509918 .1499176 .7509918 .33480836 .7509918 .52767947 .6049957 .6826172 .42599488 .6826172H.04598999M.28399659 .032989503C.23799134 .032989503 .23599243 .039993287 .23599243 .07395935V.6086273C.23599243 .64260867 .23799134 .6496124 .28399659 .6496124H.39898683C.47698976 .6496124 .5419922 .61763 .58599856 .5676575 .6499939 .49169923 .6499939 .38476563 .6499939 .33580018 .6499939 .28483583 .6499939 .18688965 .58699038 .11294556 .5519867 .07197571 .48799134 .032989503 .39898683 .032989503H.28399659Z"/>
</defs>
<path transform="matrix(1,0,0,-1,127.415,6.1539919)" stroke-width=".79701" stroke-linecap="butt" stroke-miterlimit="10" stroke-linejoin="miter" fill="none" stroke="#000000" d="M-31.14581-5.75626H31.14582V5.7562506H-31.14581Z"/>
<use data-text="N" xlink:href="#font_1_4" transform="matrix(7.9701,0,0,-7.9701,99.259,8.921997)"/>
<use data-text="i" xlink:href="#font_1_10" transform="matrix(7.9701,0,0,-7.9701,105.6032,8.921997)"/>
<use data-text="k" xlink:href="#font_1_11" transform="matrix(7.9701,0,0,-7.9701,107.954387,8.921997)"/>
<use data-text="o" xlink:href="#font_1_14" transform="matrix(7.9701,0,0,-7.9701,112.19448,8.921997)"/>
<use data-text="l" xlink:href="#font_1_12" transform="matrix(7.9701,0,0,-7.9701,116.41863,8.921997)"/>
<use data-text="a" xlink:href="#font_1_5" transform="matrix(7.9701,0,0,-7.9701,118.77779,8.921997)"/>
<use data-text="u" xlink:href="#font_1_17" transform="matrix(7.9701,0,0,-7.9701,123.00194,8.921997)"/>
<use data-text="s" xlink:href="#font_1_16" transform="matrix(7.9701,0,0,-7.9701,127.7043,8.921997)"/>
<use data-text="s" xlink:href="#font_1_16" transform="matrix(7.9701,0,0,-7.9701,133.87317,8.921997)"/>
<use data-text="e" xlink:href="#font_1_8" transform="matrix(7.9701,0,0,-7.9701,137.21265,8.921997)"/>
<use data-text="n" xlink:href="#font_1_13" transform="matrix(7.9701,0,0,-7.9701,140.97454,8.921997)"/>
<use data-text="i" xlink:href="#font_1_10" transform="matrix(7.9701,0,0,-7.9701,145.6769,8.921997)"/>
<use data-text="o" xlink:href="#font_1_14" transform="matrix(7.9701,0,0,-7.9701,148.02808,8.921997)"/>
<use data-text="r" xlink:href="#font_1_15" transform="matrix(7.9701,0,0,-7.9701,152.2602,8.921997)"/>
<path transform="matrix(1,0,0,-1,127.415,6.1539919)" stroke-width=".79701" stroke-linecap="butt" stroke-miterlimit="10" stroke-linejoin="miter" fill="none" stroke="#000000" d="M-127.0184-48.27647H-99.75609V-36.76396H-127.0184Z"/>
<use data-text="J" xlink:href="#font_1_3" transform="matrix(7.9701,0,0,-7.9701,3.387001,51.440996)"/>
<use data-text="a" xlink:href="#font_1_5" transform="matrix(7.9701,0,0,-7.9701,7.7386758,51.440996)"/>
<use data-text="c" xlink:href="#font_1_7" transform="matrix(7.9701,0,0,-7.9701,11.970799,51.440996)"/>
<use data-text="o" xlink:href="#font_1_14" transform="matrix(7.9701,0,0,-7.9701,15.732687,51.440996)"/>
<use data-text="b" xlink:href="#font_1_6" transform="matrix(7.9701,0,0,-7.9701,19.96481,51.440996)"/>
<path transform="matrix(1,0,0,-1,127.415,6.1539919)" stroke-width=".79701" stroke-linecap="butt" stroke-miterlimit="10" stroke-linejoin="miter" fill="none" stroke="#000000" d="M0-6.15475V-21.2601H-113.38725V-36.36545"/>
<path transform="matrix(1,0,0,-1,127.415,6.1539919)" stroke-width=".79701" stroke-linecap="butt" stroke-miterlimit="10" stroke-linejoin="miter" fill="none" stroke="#000000" d="M-18.65132-48.27647H18.65138V-36.76396H-18.65132Z"/>
<use data-text="N" xlink:href="#font_1_4" transform="matrix(7.9701,0,0,-7.9701,111.753,51.440996)"/>
<use data-text="i" xlink:href="#font_1_10" transform="matrix(7.9701,0,0,-7.9701,118.0972,51.440996)"/>
<use data-text="c" xlink:href="#font_1_7" transform="matrix(7.9701,0,0,-7.9701,120.44838,51.440996)"/>
<use data-text="o" xlink:href="#font_1_14" transform="matrix(7.9701,0,0,-7.9701,124.210269,51.440996)"/>
<use data-text="l" xlink:href="#font_1_12" transform="matrix(7.9701,0,0,-7.9701,128.44239,51.440996)"/>
<use data-text="a" xlink:href="#font_1_5" transform="matrix(7.9701,0,0,-7.9701,130.79357,51.440996)"/>
<use data-text="u" xlink:href="#font_1_17" transform="matrix(7.9701,0,0,-7.9701,135.02568,51.440996)"/>
<use data-text="s" xlink:href="#font_1_16" transform="matrix(7.9701,0,0,-7.9701,139.72805,51.440996)"/>
<path transform="matrix(1,0,0,-1,127.415,6.1539919)" stroke-width=".79701" stroke-linecap="butt" stroke-miterlimit="10" stroke-linejoin="miter" fill="none" stroke="#000000" d="M0-6.15475V-21.2601H.00002V-36.36545"/>
<path transform="matrix(1,0,0,-1,127.415,6.1539919)" stroke-width=".79701" stroke-linecap="butt" stroke-miterlimit="10" stroke-linejoin="miter" fill="none" stroke="#000000" d="M-21.58759-90.79669H21.587693V-79.28418H-21.58759Z"/>
<use data-text="N" xlink:href="#font_1_4" transform="matrix(7.9701,0,0,-7.9701,108.817,93.961)"/>
<use data-text="i" xlink:href="#font_1_10" transform="matrix(7.9701,0,0,-7.9701,115.1612,93.961)"/>
<use data-text="c" xlink:href="#font_1_7" transform="matrix(7.9701,0,0,-7.9701,117.51238,93.961)"/>
<use data-text="o" xlink:href="#font_1_14" transform="matrix(7.9701,0,0,-7.9701,121.27427,93.961)"/>
<use data-text="l" xlink:href="#font_1_12" transform="matrix(7.9701,0,0,-7.9701,125.50639,93.961)"/>
<use data-text="a" xlink:href="#font_1_5" transform="matrix(7.9701,0,0,-7.9701,127.857578,93.961)"/>
<use data-text="u" xlink:href="#font_1_17" transform="matrix(7.9701,0,0,-7.9701,132.08969,93.961)"/>
<use data-text="s" xlink:href="#font_1_16" transform="matrix(7.9701,0,0,-7.9701,136.79206,93.961)"/>
<use data-text="I" xlink:href="#font_1_2" transform="matrix(7.9701,0,0,-7.9701,142.95294,93.961)"/>
<path transform="matrix(1,0,0,-1,127.415,6.1539919)" stroke-width=".79701" stroke-linecap="butt" stroke-miterlimit="10" stroke-linejoin="miter" fill="none" stroke="#000000" d="M.00002-48.67497V-63.78032H.00003V-78.88567"/>
<path transform="matrix(1,0,0,-1,127.415,6.1539919)" stroke-width=".79701" stroke-linecap="butt" stroke-miterlimit="10" stroke-linejoin="miter" fill="none" stroke="#000000" d="M96.93332-48.27647H129.84128V-36.76396H96.93332Z"/>
<use data-text="J" xlink:href="#font_1_3" transform="matrix(7.9701,0,0,-7.9701,227.336,51.440996)"/>
<use data-text="o" xlink:href="#font_1_14" transform="matrix(7.9701,0,0,-7.9701,231.68767,51.440996)"/>
<use data-text="h" xlink:href="#font_1_9" transform="matrix(7.9701,0,0,-7.9701,235.91979,51.440996)"/>
<use data-text="a" xlink:href="#font_1_5" transform="matrix(7.9701,0,0,-7.9701,240.62215,51.440996)"/>
<use data-text="n" xlink:href="#font_1_13" transform="matrix(7.9701,0,0,-7.9701,244.85427,51.440996)"/>
<use data-text="n" xlink:href="#font_1_13" transform="matrix(7.9701,0,0,-7.9701,249.55663,51.440996)"/>
<path transform="matrix(1,0,0,-1,127.415,6.1539919)" stroke-width=".79701" stroke-linecap="butt" stroke-miterlimit="10" stroke-linejoin="miter" fill="none" stroke="#000000" d="M0-6.15475V-21.2601H113.38731V-36.36545"/>
<path transform="matrix(1,0,0,-1,127.415,6.1539919)" stroke-width=".79701" stroke-linecap="butt" stroke-miterlimit="10" stroke-linejoin="miter" fill="none" stroke="#000000" d="M33.46356-90.79669H79.92384V-79.28418H33.46356Z"/>
<use data-text="N" xlink:href="#font_1_4" transform="matrix(7.9701,0,0,-7.9701,163.867,93.961)"/>
<use data-text="i" xlink:href="#font_1_10" transform="matrix(7.9701,0,0,-7.9701,170.21121,93.961)"/>
<use data-text="c" xlink:href="#font_1_7" transform="matrix(7.9701,0,0,-7.9701,172.5624,93.961)"/>
<use data-text="o" xlink:href="#font_1_14" transform="matrix(7.9701,0,0,-7.9701,176.32428,93.961)"/>
<use data-text="l" xlink:href="#font_1_12" transform="matrix(7.9701,0,0,-7.9701,180.5564,93.961)"/>
<use data-text="a" xlink:href="#font_1_5" transform="matrix(7.9701,0,0,-7.9701,182.90758,93.961)"/>
<use data-text="u" xlink:href="#font_1_17" transform="matrix(7.9701,0,0,-7.9701,187.1397,93.961)"/>
<use data-text="s" xlink:href="#font_1_16" transform="matrix(7.9701,0,0,-7.9701,191.84206,93.961)"/>
<use data-text="I" xlink:href="#font_1_2" transform="matrix(7.9701,0,0,-7.9701,198.00295,93.961)"/>
<use data-text="I" xlink:href="#font_1_2" transform="matrix(7.9701,0,0,-7.9701,201.2946,93.961)"/>
<path transform="matrix(1,0,0,-1,127.415,6.1539919)" stroke-width=".79701" stroke-linecap="butt" stroke-miterlimit="10" stroke-linejoin="miter" fill="none" stroke="#000000" d="M113.38731-48.67497V-63.78032H56.69371V-78.88567"/>
<path transform="matrix(1,0,0,-1,127.415,6.1539919)" stroke-width=".79701" stroke-linecap="butt" stroke-miterlimit="10" stroke-linejoin="miter" fill="none" stroke="#000000" d="M98.46239-90.79669H128.31229V-79.28418H98.46239Z"/>
<use data-text="D" xlink:href="#font_1_1" transform="matrix(7.9701,0,0,-7.9701,228.86499,93.961)"/>
<use data-text="a" xlink:href="#font_1_5" transform="matrix(7.9701,0,0,-7.9701,235.32874,93.961)"/>
<use data-text="n" xlink:href="#font_1_13" transform="matrix(7.9701,0,0,-7.9701,239.56085,93.961)"/>
<use data-text="i" xlink:href="#font_1_10" transform="matrix(7.9701,0,0,-7.9701,244.26322,93.961)"/>
<use data-text="e" xlink:href="#font_1_8" transform="matrix(7.9701,0,0,-7.9701,246.6144,93.961)"/>
<use data-text="l" xlink:href="#font_1_12" transform="matrix(7.9701,0,0,-7.9701,250.37628,93.961)"/>
<path transform="matrix(1,0,0,-1,127.415,6.1539919)" stroke-width=".79701" stroke-linecap="butt" stroke-miterlimit="10" stroke-linejoin="miter" fill="none" stroke="#000000" d="M113.38731-48.67497V-63.78032H113.38734V-78.88567"/>
<path transform="matrix(1,0,0,-1,127.415,6.1539919)" stroke-width=".79701" stroke-linecap="butt" stroke-miterlimit="10" stroke-linejoin="miter" fill="none" stroke="#000000" d="M149.0482-90.79669H191.11374V-79.28418H149.0482Z"/>
<use data-text="J" xlink:href="#font_1_3" transform="matrix(7.9701,0,0,-7.9701,279.45,93.961)"/>
<use data-text="o" xlink:href="#font_1_14" transform="matrix(7.9701,0,0,-7.9701,283.8017,93.961)"/>
<use data-text="h" xlink:href="#font_1_9" transform="matrix(7.9701,0,0,-7.9701,288.0338,93.961)"/>
<use data-text="a" xlink:href="#font_1_5" transform="matrix(7.9701,0,0,-7.9701,292.73619,93.961)"/>
<use data-text="n" xlink:href="#font_1_13" transform="matrix(7.9701,0,0,-7.9701,296.9683,93.961)"/>
<use data-text="n" xlink:href="#font_1_13" transform="matrix(7.9701,0,0,-7.9701,301.67066,93.961)"/>
<use data-text="I" xlink:href="#font_1_2" transform="matrix(7.9701,0,0,-7.9701,309.19444,93.961)"/>
<use data-text="I" xlink:href="#font_1_2" transform="matrix(7.9701,0,0,-7.9701,312.48609,93.961)"/>
<path transform="matrix(1,0,0,-1,127.415,6.1539919)" stroke-width=".79701" stroke-linecap="butt" stroke-miterlimit="10" stroke-linejoin="miter" fill="none" stroke="#000000" d="M113.38731-48.67497V-63.78032H170.08098V-78.88567"/>
<path transform="matrix(1,0,0,-1,127.415,6.1539919)" stroke-width=".79701" stroke-linecap="butt" stroke-miterlimit="10" stroke-linejoin="miter" fill="none" stroke="#000000" d="M90.7121-133.31693H136.06264V-121.80441H90.7121Z"/>
<use data-text="J" xlink:href="#font_1_3" transform="matrix(7.9701,0,0,-7.9701,221.11499,136.48099)"/>
<use data-text="o" xlink:href="#font_1_14" transform="matrix(7.9701,0,0,-7.9701,225.46666,136.48099)"/>
<use data-text="h" xlink:href="#font_1_9" transform="matrix(7.9701,0,0,-7.9701,229.69878,136.48099)"/>
<use data-text="a" xlink:href="#font_1_5" transform="matrix(7.9701,0,0,-7.9701,234.40114,136.48099)"/>
<use data-text="n" xlink:href="#font_1_13" transform="matrix(7.9701,0,0,-7.9701,238.63326,136.48099)"/>
<use data-text="n" xlink:href="#font_1_13" transform="matrix(7.9701,0,0,-7.9701,243.33562,136.48099)"/>
<use data-text="I" xlink:href="#font_1_2" transform="matrix(7.9701,0,0,-7.9701,250.85939,136.48099)"/>
<use data-text="I" xlink:href="#font_1_2" transform="matrix(7.9701,0,0,-7.9701,254.15105,136.48099)"/>
<use data-text="I" xlink:href="#font_1_2" transform="matrix(7.9701,0,0,-7.9701,257.43476,136.48099)"/>
<path transform="matrix(1,0,0,-1,127.415,6.1539919)" stroke-width=".79701" stroke-linecap="butt" stroke-miterlimit="10" stroke-linejoin="miter" fill="none" stroke="#000000" d="M170.08098-91.1952V-106.30054H113.38737V-121.4059"/>
<path transform="matrix(1,0,0,-1,127.415,6.1539919)" stroke-width=".79701" stroke-linecap="butt" stroke-miterlimit="10" stroke-linejoin="miter" fill="none" stroke="#000000" d="M150.57726-133.31693H189.58473V-121.80441H150.57726Z"/>
<use data-text="D" xlink:href="#font_1_1" transform="matrix(7.9701,0,0,-7.9701,280.979,136.48099)"/>
<use data-text="a" xlink:href="#font_1_5" transform="matrix(7.9701,0,0,-7.9701,287.44276,136.48099)"/>
<use data-text="n" xlink:href="#font_1_13" transform="matrix(7.9701,0,0,-7.9701,291.67488,136.48099)"/>
<use data-text="i" xlink:href="#font_1_10" transform="matrix(7.9701,0,0,-7.9701,296.37724,136.48099)"/>
<use data-text="e" xlink:href="#font_1_8" transform="matrix(7.9701,0,0,-7.9701,298.7284,136.48099)"/>
<use data-text="l" xlink:href="#font_1_12" transform="matrix(7.9701,0,0,-7.9701,302.4903,136.48099)"/>
<use data-text="I" xlink:href="#font_1_2" transform="matrix(7.9701,0,0,-7.9701,307.66288,136.48099)"/>
<use data-text="I" xlink:href="#font_1_2" transform="matrix(7.9701,0,0,-7.9701,310.95454,136.48099)"/>
<path transform="matrix(1,0,0,-1,127.415,6.1539919)" stroke-width=".79701" stroke-linecap="butt" stroke-miterlimit="10" stroke-linejoin="miter" fill="none" stroke="#000000" d="M170.08098-91.1952V-106.30054H170.08101V-121.4059"/>
<path transform="matrix(1,0,0,-1,127.415,6.1539919)" stroke-width=".79701" stroke-linecap="butt" stroke-miterlimit="10" stroke-linejoin="miter" fill="none" stroke="#000000" d="M208.32946-133.31693H245.21982V-121.80441H208.32946Z"/>
<use data-text="J" xlink:href="#font_1_3" transform="matrix(7.9701,0,0,-7.9701,338.731,136.48099)"/>
<use data-text="a" xlink:href="#font_1_5" transform="matrix(7.9701,0,0,-7.9701,343.08268,136.48099)"/>
<use data-text="k" xlink:href="#font_1_11" transform="matrix(7.9701,0,0,-7.9701,347.3148,136.48099)"/>
<use data-text="o" xlink:href="#font_1_14" transform="matrix(7.9701,0,0,-7.9701,351.5469,136.48099)"/>
<use data-text="b" xlink:href="#font_1_6" transform="matrix(7.9701,0,0,-7.9701,355.77903,136.48099)"/>
<use data-text="I" xlink:href="#font_1_2" transform="matrix(7.9701,0,0,-7.9701,363.31077,136.48099)"/>
<use data-text="I" xlink:href="#font_1_2" transform="matrix(7.9701,0,0,-7.9701,366.59446,136.48099)"/>
<path transform="matrix(1,0,0,-1,127.415,6.1539919)" stroke-width=".79701" stroke-linecap="butt" stroke-miterlimit="10" stroke-linejoin="miter" fill="none" stroke="#000000" d="M170.08098-91.1952V-106.30054H226.77465V-121.4059"/>
</svg>
