<svg xmlns="http://www.w3.org/2000/svg" xmlns:xlink="http://www.w3.org/1999/xlink" xmlns:inkscape="http://www.inkscape.org/namespaces/inkscape" version="1.1" width="345.25077" height="61.738538" viewBox="0 0 345.25077 61.738538">
<g>
<path stroke-width="1.501954" stroke-linecap="butt" stroke-linejoin="round" fill="none" stroke="#a82e1e" d="M0 44.863 345.25 44.996"/>
<path stroke-width="1.501954" stroke-linecap="butt" stroke-linejoin="round" fill="none" stroke="#a82e1e" d="M19.227 .004 19.359 45.063"/>
<path stroke-width="1.501954" stroke-linecap="butt" stroke-linejoin="round" fill="none" stroke="#a82e1e" d="M38.449 .004 38.586 45.063"/>
<path stroke-width="1.501954" stroke-linecap="butt" stroke-linejoin="round" fill="none" stroke="#a82e1e" d="M57.676 .004 57.809 45.063"/>
<path stroke-width="1.501954" stroke-linecap="butt" stroke-linejoin="round" fill="none" stroke="#a82e1e" d="M76.898 .004 77.035 45.063"/>
<path stroke-width="1.501954" stroke-linecap="butt" stroke-linejoin="round" fill="none" stroke="#a82e1e" d="M96.125 .004 96.258 45.063"/>
<path stroke-width="1.501954" stroke-linecap="butt" stroke-linejoin="round" fill="none" stroke="#a82e1e" d="M115.352 .004 115.484 45.063"/>
<path stroke-width="1.501954" stroke-linecap="butt" stroke-linejoin="round" fill="none" stroke="#a82e1e" d="M134.574 .004 134.711 45.063"/>
<path stroke-width="1.501954" stroke-linecap="butt" stroke-linejoin="round" fill="none" stroke="#a82e1e" d="M153.801 .004 153.934 45.063"/>
<path stroke-width="1.501954" stroke-linecap="butt" stroke-linejoin="round" fill="none" stroke="#a82e1e" d="M173.023 .004 173.16 45.063"/>
<path stroke-width="1.501954" stroke-linecap="butt" stroke-linejoin="round" fill="none" stroke="#a82e1e" d="M192.25 .004 192.383 45.063"/>
<path stroke-width="1.501954" stroke-linecap="butt" stroke-linejoin="round" fill="none" stroke="#a82e1e" d="M211.477 .004 211.609 45.063"/>
<path stroke-width="1.501954" stroke-linecap="butt" stroke-linejoin="round" fill="none" stroke="#a82e1e" d="M230.699 .004 230.836 45.063"/>
<path stroke-width="1.501954" stroke-linecap="butt" stroke-linejoin="round" fill="none" stroke="#a82e1e" d="M249.926 .004 250.059 45.063"/>
<path stroke-width="1.501954" stroke-linecap="butt" stroke-linejoin="round" fill="none" stroke="#a82e1e" d="M269.148 .004 269.285 45.063"/>
<path stroke-width="1.501954" stroke-linecap="butt" stroke-linejoin="round" fill="none" stroke="#a82e1e" d="M288.375 .004 288.508 45.063"/>
<path stroke-width="1.501954" stroke-linecap="butt" stroke-linejoin="round" fill="none" stroke="#a82e1e" d="M307.602 .004 307.734 45.063"/>
<path stroke-width="1.501954" stroke-linecap="butt" stroke-linejoin="round" fill="none" stroke="#a82e1e" d="M326.223 .004 326.359 45.063"/>
<path d="M30.641 31.578C32.152 33.09 32.152 35.539 30.641 37.055 29.129 38.566 26.676 38.566 25.164 37.055 23.652 35.539 23.652 33.09 25.164 31.578 26.676 30.066 29.129 30.066 30.641 31.578"/>
<path d="M108.293 31.578C109.805 33.09 109.805 35.539 108.293 37.055 106.781 38.566 104.328 38.566 102.816 37.055 101.305 35.539 101.305 33.09 102.816 31.578 104.328 30.066 106.781 30.066 108.293 31.578"/>
<path d="M108.609 20.363C110.121 21.875 110.121 24.328 108.609 25.84 107.098 27.352 104.645 27.352 103.133 25.84 101.621 24.328 101.621 21.875 103.133 20.363 104.645 18.852 107.098 18.852 108.609 20.363"/>
<path d="M166.117 31.578C167.629 33.09 167.629 35.539 166.117 37.055 164.605 38.566 162.152 38.566 160.641 37.055 159.129 35.539 159.129 33.09 160.641 31.578 162.152 30.066 164.605 30.066 166.117 31.578"/>
<path d="M300.859 30.426C302.371 31.938 302.371 34.391 300.859 35.902 299.348 37.414 296.895 37.414 295.383 35.902 293.871 34.391 293.871 31.938 295.383 30.426 296.895 28.914 299.348 28.914 300.859 30.426"/>
<path d="M300.543 19.563C302.055 21.074 302.055 23.523 300.543 25.039 299.031 26.551 296.578 26.551 295.066 25.039 293.555 23.523 293.555 21.074 295.066 19.563 296.578 18.051 299.031 18.051 300.543 19.563"/>
<path d="M300.859 8.613C302.371 10.125 302.371 12.578 300.859 14.09 299.348 15.602 296.895 15.602 295.383 14.09 293.871 12.578 293.871 10.125 295.383 8.613 296.895 7.102 299.348 7.102 300.859 8.613"/>
<path d="M223.957 31.313C225.473 32.824 225.473 35.273 223.957 36.785 222.445 38.297 219.996 38.297 218.484 36.785 216.973 35.273 216.973 32.824 218.484 31.313 219.996 29.797 222.445 29.797 223.957 31.313"/>
<path d="M243.719 31.578C245.23 33.09 245.23 35.539 243.719 37.055 242.207 38.566 239.754 38.566 238.242 37.055 236.73 35.539 236.73 33.09 238.242 31.578 239.754 30.066 242.207 30.066 243.719 31.578"/>
<path d="M127.816 31.578C129.328 33.09 129.328 35.539 127.816 37.055 126.305 38.566 123.855 38.566 122.344 37.055 120.828 35.539 120.828 33.09 122.344 31.578 123.855 30.066 126.305 30.066 127.816 31.578"/>
<path d="M70.16 31.578C71.672 33.09 71.672 35.539 70.16 37.055 68.648 38.566 66.195 38.566 64.684 37.055 63.172 35.539 63.172 33.09 64.684 31.578 66.195 30.066 68.648 30.066 70.16 31.578"/>
<path d="M27.527 61.738C29.355 61.738 29.746 59.551 29.746 58.316 29.746 57.082 29.34 54.895 27.527 54.895 25.699 54.895 25.293 57.066 25.293 58.316 25.293 59.566 25.699 61.738 27.527 61.738ZM27.527 61.098C26.246 61.098 26.215 59.035 26.215 58.332 26.215 57.676 26.23 55.551 27.527 55.551 28.824 55.551 28.824 57.66 28.824 58.316 28.824 59.035 28.809 61.098 27.527 61.098ZM27.527 61.098"/>
<path d="M45.055 61.582H49.398V60.926H47.664V54.895L45.055 55.707V56.254L46.789 55.863V60.926H45.055ZM45.055 61.582"/>
<path d="M64.406 61.582H68.109V60.832H65.438C65.5 60.598 65.531 60.41 65.797 60.035 65.984 59.738 66.266 59.379 66.672 59.004L67.031 58.645C67.422 58.285 68.141 57.613 68.141 56.707 68.141 55.863 67.609 54.895 66.156 54.895 65.391 54.895 64.891 55.113 64.578 55.238V56.004C64.969 55.801 65.453 55.551 66.063 55.551 66.844 55.551 67.219 56.098 67.219 56.707 67.219 57.332 66.859 57.879 66.406 58.332L66.016 58.723C65.688 59.051 64.922 59.816 64.406 60.832ZM64.406 61.582"/>
<path d="M84.137 61.551C84.434 61.629 84.84 61.738 85.48 61.738 85.637 61.738 86.293 61.738 86.762 61.473 87.465 61.082 87.73 60.363 87.73 59.785 87.73 59.426 87.637 59.035 87.371 58.676 87.074 58.27 86.684 58.145 86.355 58.035 86.59 57.926 86.887 57.785 87.184 57.41 87.465 57.035 87.527 56.676 87.527 56.395 87.527 55.816 87.215 54.895 85.684 54.895 84.949 54.895 84.496 55.051 84.23 55.16V55.91C84.48 55.785 84.996 55.551 85.637 55.551 86.23 55.551 86.668 55.895 86.668 56.535 86.668 56.926 86.527 57.16 86.418 57.301 86.059 57.785 85.59 57.785 84.996 57.785H84.73V58.41H85.168C85.762 58.41 86.059 58.52 86.371 58.754 86.652 58.973 86.809 59.395 86.809 59.785 86.809 60.223 86.559 61.098 85.496 61.098 85.074 61.098 84.668 60.973 84.137 60.785ZM84.137 61.551"/>
<path d="M105.738 61.582H106.551V59.848H107.426V59.191H106.551V55.066H105.738L103.035 59.113V59.848H105.738ZM105.738 56.238V59.191H103.754ZM105.738 56.238"/>
<path d="M123.172 61.551C123.469 61.629 123.859 61.738 124.375 61.738 125.531 61.738 126.5 60.926 126.5 59.676 126.5 59.051 126.266 58.504 125.906 58.16 125.266 57.535 124.359 57.52 124.016 57.52V55.816H126.328V55.066H123.281V58.176C123.453 58.16 123.531 58.16 123.672 58.16 124.75 58.16 125.578 58.504 125.578 59.613 125.578 60.488 125.063 61.098 124.344 61.098 123.891 61.098 123.438 60.91 123.172 60.801ZM123.172 61.551"/>
<path d="M145.992 55.145C145.648 55.051 145.195 54.895 144.664 54.895 143.633 54.895 142.117 55.66 142.117 58.457 142.117 59.848 142.461 61.738 144.289 61.738 145.742 61.738 146.336 60.457 146.336 59.457 146.336 58.176 145.414 57.41 144.523 57.41 144.133 57.41 143.758 57.551 143.461 57.77 143.258 57.926 143.148 58.066 143.023 58.254 143.008 56.863 143.477 55.551 144.742 55.551 145.195 55.551 145.555 55.707 145.992 55.879ZM144.367 61.098C143.523 61.098 143.133 60.316 143.133 59.441 143.133 58.082 144.164 58.035 144.305 58.035 145.117 58.035 145.508 58.801 145.508 59.629 145.508 60.098 145.305 61.098 144.367 61.098ZM144.367 61.098"/>
<path d="M163.457 58.27C162.566 59.863 162.191 60.52 162.066 61.582H163.098C163.145 61.223 163.207 60.676 163.66 59.613 164.301 58.082 164.973 56.91 165.645 55.801V55.066H161.723V55.879H164.816ZM163.457 58.27"/>
<path d="M182.184 58.035C181.23 58.613 180.965 59.41 180.965 59.941 180.965 60.738 181.512 61.738 182.996 61.738 184.465 61.738 185.105 60.723 185.105 59.863 185.105 58.848 184.309 58.348 183.715 57.988 184.512 57.504 184.855 56.879 184.855 56.301 184.855 56.066 184.793 55.738 184.559 55.426 184.262 55.066 183.824 54.895 183.168 54.895 181.559 54.895 181.293 56.051 181.293 56.535 181.293 57.129 181.621 57.613 182.184 58.035ZM183.23 58.738C183.934 59.145 184.246 59.566 184.246 60.051 184.246 60.582 183.809 61.098 183.074 61.098 182.355 61.098 181.824 60.613 181.824 59.832 181.824 59.066 182.309 58.66 182.652 58.379ZM182.98 57.551C182.246 57.113 182.105 56.738 182.105 56.41 182.105 56.051 182.34 55.551 183.09 55.551 183.918 55.551 184.059 56.191 184.059 56.457 184.059 56.801 183.84 57.301 183.215 57.691ZM182.98 57.551"/>
<path d="M200.711 61.504C201.055 61.613 201.523 61.738 202.039 61.738 203.023 61.738 204.586 61.004 204.586 58.191 204.586 56.801 204.242 54.895 202.398 54.895 200.93 54.895 200.352 56.207 200.352 57.191 200.352 58.457 201.273 59.223 202.18 59.223 202.555 59.223 202.93 59.098 203.227 58.879 203.43 58.723 203.539 58.582 203.664 58.395 203.68 59.832 203.18 61.098 201.961 61.098 201.555 61.098 201.227 60.973 200.711 60.77ZM202.32 55.551C203.164 55.551 203.57 56.332 203.57 57.207 203.57 58.566 202.523 58.613 202.383 58.613 201.602 58.613 201.195 57.863 201.195 57.02 201.195 56.535 201.383 55.551 202.32 55.551ZM202.32 55.551"/>
<path d="M217.227 61.582H221.57V60.926H219.836V54.895L217.227 55.707V56.254L218.961 55.863V60.926H217.227ZM217.227 61.582"/>
<path d="M224.559 61.738C226.387 61.738 226.777 59.551 226.777 58.316 226.777 57.082 226.371 54.895 224.559 54.895 222.73 54.895 222.324 57.066 222.324 58.316 222.324 59.566 222.73 61.738 224.559 61.738ZM224.559 61.098C223.277 61.098 223.246 59.035 223.246 58.332 223.246 57.676 223.262 55.551 224.559 55.551 225.855 55.551 225.855 57.66 225.855 58.316 225.855 59.035 225.84 61.098 224.559 61.098ZM224.559 61.098"/>
<path d="M236.656 61.582H241V60.926H239.266V54.895L236.656 55.707V56.254L238.391 55.863V60.926H236.656ZM236.656 61.582"/>
<path d="M242.082 61.582H246.426V60.926H244.691V54.895L242.082 55.707V56.254L243.816 55.863V60.926H242.082ZM242.082 61.582"/>
<path d="M256.09 61.582H260.434V60.926H258.699V54.895L256.09 55.707V56.254L257.824 55.863V60.926H256.09ZM256.09 61.582"/>
<path d="M261.434 61.582H265.137V60.832H262.465C262.527 60.598 262.559 60.41 262.824 60.035 263.012 59.738 263.293 59.379 263.699 59.004L264.059 58.645C264.449 58.285 265.168 57.613 265.168 56.707 265.168 55.863 264.637 54.895 263.184 54.895 262.418 54.895 261.918 55.113 261.605 55.238V56.004C261.996 55.801 262.48 55.551 263.09 55.551 263.871 55.551 264.246 56.098 264.246 56.707 264.246 57.332 263.887 57.879 263.434 58.332L263.043 58.723C262.715 59.051 261.949 59.816 261.434 60.832ZM261.434 61.582"/>
<path d="M275.52 61.582H279.863V60.926H278.129V54.895L275.52 55.707V56.254L277.254 55.863V60.926H275.52ZM275.52 61.582"/>
<path d="M281.164 61.551C281.461 61.629 281.867 61.738 282.508 61.738 282.664 61.738 283.32 61.738 283.789 61.473 284.492 61.082 284.758 60.363 284.758 59.785 284.758 59.426 284.664 59.035 284.398 58.676 284.102 58.27 283.711 58.145 283.383 58.035 283.617 57.926 283.914 57.785 284.211 57.41 284.492 57.035 284.555 56.676 284.555 56.395 284.555 55.816 284.242 54.895 282.711 54.895 281.977 54.895 281.523 55.051 281.258 55.16V55.91C281.508 55.785 282.023 55.551 282.664 55.551 283.258 55.551 283.695 55.895 283.695 56.535 283.695 56.926 283.555 57.16 283.445 57.301 283.086 57.785 282.617 57.785 282.023 57.785H281.758V58.41H282.195C282.789 58.41 283.086 58.52 283.398 58.754 283.68 58.973 283.836 59.395 283.836 59.785 283.836 60.223 283.586 61.098 282.523 61.098 282.102 61.098 281.695 60.973 281.164 60.785ZM281.164 61.551"/>
<path d="M294.953 61.582H299.297V60.926H297.563V54.895L294.953 55.707V56.254L296.688 55.863V60.926H294.953ZM294.953 61.582"/>
<path d="M302.766 61.582H303.578V59.848H304.453V59.191H303.578V55.066H302.766L300.063 59.113V59.848H302.766ZM302.766 56.238V59.191H300.781ZM302.766 56.238"/>
<path d="M314.383 61.582H318.727V60.926H316.992V54.895L314.383 55.707V56.254L316.117 55.863V60.926H314.383ZM314.383 61.582"/>
<path d="M320.199 61.551C320.496 61.629 320.887 61.738 321.402 61.738 322.559 61.738 323.527 60.926 323.527 59.676 323.527 59.051 323.293 58.504 322.934 58.16 322.293 57.535 321.387 57.52 321.043 57.52V55.816H323.355V55.066H320.309V58.176C320.48 58.16 320.559 58.16 320.699 58.16 321.777 58.16 322.605 58.504 322.605 59.613 322.605 60.488 322.09 61.098 321.371 61.098 320.918 61.098 320.465 60.91 320.199 60.801ZM320.199 61.551"/>
</g>
</svg>
