<svg xmlns="http://www.w3.org/2000/svg" xmlns:xlink="http://www.w3.org/1999/xlink" xmlns:inkscape="http://www.inkscape.org/namespaces/inkscape" version="1.1" width="402.96" height="232.08" viewBox="0 0 402.96 232.08">
<defs>
<clipPath id="clip_1">
<path transform="matrix(.24,0,0,.24,0,0)" d="M0 0H1679.1666V965.07266H0Z" clip-rule="evenodd"/>
</clipPath>
<clipPath id="clip_2">
<path transform="matrix(.24,0,0,.24,0,0)" d="M0 0H1679.1666V959.0969H0Z" clip-rule="evenodd"/>
</clipPath>
<path id="font_3_79" d="M.063964847 0V.7158203H.15185547V0H.063964847Z"/>
<path id="font_3_72" d="M.42089845 .16699219 .51171877 .15576172C.49739585 .10270182 .47086589 .061523439 .4321289 .032226564 .39339195 .0029296876 .34391276-.01171875 .2836914-.01171875 .20784505-.01171875 .14770508 .01163737 .103271488 .05834961 .05883789 .10506185 .036621095 .17057292 .036621095 .2548828 .036621095 .3421224 .05908203 .40983073 .104003909 .4580078 .14892578 .5061849 .20719402 .53027346 .2788086 .53027346 .34814454 .53027346 .40478517 .5067088 .44873048 .45957948 .49267579 .41246034 .51464846 .34616599 .51464846 .2606964 .51464846 .25549827 .51448568 .247701 .51416018 .23730469H.1274414C.13069661 .1805013 .14680989 .13700359 .17578125 .10681152 .20475261 .07661947 .24088542 .061523439 .2841797 .061523439 .31640626 .061523439 .34391276 .0699056 .36669923 .08666992 .3894857 .10344442 .4075521 .1302185 .42089845 .16699219M.13232422 .31054688H.421875C.41796876 .3534546 .40690104 .38563539 .38867188 .40708924 .3606771 .4403839 .3243815 .45703126 .27978517 .45703126 .23942058 .45703126 .20548503 .44374085 .17797852 .41716004 .150472 .3905894 .1352539 .35505168 .13232422 .31054688Z"/>
<path id="font_3_73" d="M.08691406 0V.4501953H.009277344V.5185547H.08691406V.5736084C.08691406 .6083577 .09000651 .6341756 .096191409 .651062 .104654949 .6737874 .11954752 .69221499 .14086914 .7063446 .16219075 .72047427 .1920573 .72753909 .23046875 .72753909 .25520835 .72753909 .2825521 .7246094 .3125 .71875L.2993164 .64208987C.28108726 .64534506 .26383464 .64697268 .2475586 .64697268 .22086589 .64697268 .20198567 .6412964 .19091797 .62994387 .17985027 .6185913 .1743164 .5973511 .1743164 .56622317V.5185547H.27539063V.4501953H.1743164V0H.08691406Z"/>
<path id="font_3_87" d="M.2578125 .07763672 .2705078 0C.24576824-.0045572917 .22363281-.0068359377 .20410156-.0068359377 .17220052-.0068359377 .14746094-.0017903646 .12988281 .008300781 .11230469 .018391928 .0999349 .031656904 .09277344 .048095704 .08561198 .06453451 .08203125 .099121097 .08203125 .15185547V.4501953H.017578125V.5185547H.08203125V.6473236L.1694336 .7001953V.5185547H.2578125V.4501953H.1694336V.14697266C.1694336 .121907558 .17097982 .10579427 .17407227 .09863281 .17716472 .09147135 .18221028 .08577474 .18920899 .08154297 .19620769 .077311199 .20621746 .07519531 .21923828 .07519531 .2290039 .07519531 .24186199 .07600912 .2578125 .07763672Z"/>
<path id="font_3_85" d="M.064941409 0V.5185547H.14404297V.4404297C.16422527 .4770101 .18286133 .50112918 .19995117 .51278689 .21704102 .5244446 .23583985 .53027346 .25634767 .53027346 .28597007 .53027346 .31608073 .520874 .3466797 .5020752L.31640626 .42089845C.29492188 .43359376 .2734375 .4399414 .25195313 .4399414 .23274739 .4399414 .2154948 .43415324 .20019531 .4225769 .18489583 .41101075 .17399089 .3949636 .16748047 .37443543 .15771485 .3431549 .15283203 .3089396 .15283203 .27178956V0H.064941409Z"/>
<path id="font_3_76" d="M.06640625 .6142578V.7158203H.15429688V.6142578H.06640625M.06640625 0V.5185547H.15429688V0H.06640625Z"/>
<path id="font_3_74" d="M.049804689-.04296875 .1352539-.055664064C.13883464-.08203125 .14876302-.10123698 .16503906-.11328125 .18684896-.1295573 .21663411-.13769531 .25439454-.13769531 .29508464-.13769531 .3264974-.12953694 .3486328-.113220218 .37076823-.09691366 .3857422-.07407633 .3935547-.044708253 .39811198-.026774088 .40022788 .010904948 .39990235 .06832886 .36149089 .022776286 .3136393 0 .25634767 0 .1850586 0 .12988281 .025716147 .09082031 .07714844 .051757814 .12858074 .032226564 .19026692 .032226564 .26220704 .032226564 .3116862 .041178388 .35734049 .05908203 .39916993 .07698568 .44099937 .10294596 .47330729 .13696289 .49609376 .17097982 .5188802 .2109375 .53027346 .25683595 .53027346 .31803385 .53027346 .3684896 .5053711 .40820313 .4555664V.5185547H.4892578V.070007327C.4892578-.010772705 .48103843-.06801859 .4645996-.10173035 .4481608-.1354421 .42211915-.16206868 .3864746-.1816101 .35083009-.2011617 .30696617-.2109375 .2548828-.2109375 .19303386-.2109375 .1430664-.19698079 .10498047-.16906739 .06689453-.14115398 .048502607-.099121097 .049804689-.04296875M.122558597 .26853944C.122558597 .20067851 .1360677 .15116374 .16308594 .11999512 .19010417 .0888265 .22395833 .07324219 .26464845 .07324219 .30501304 .07324219 .3388672 .08874512 .36621095 .11975098 .3935547 .15075684 .40722657 .19938152 .40722657 .265625 .40722657 .3289388 .3931478 .3766683 .36499024 .40881349 .33683268 .44095866 .30289714 .45703126 .2631836 .45703126 .2241211 .45703126 .19091797 .4412028 .16357422 .4095459 .13623047 .377889 .122558597 .33088685 .122558597 .26853944Z"/>
<path id="font_3_75" d="M.06591797 0V.7158203H.1538086V.45898438C.19482422 .50651046 .24658203 .53027346 .30908204 .53027346 .3474935 .53027346 .38085938 .5227051 .4091797 .50756838 .4375 .49243165 .45776368 .47151695 .4699707 .44482423 .48217774 .4181315 .48828126 .37939454 .48828126 .32861329V0H.40039063V.32861329C.40039063 .3725586 .39086915 .40454103 .37182618 .42456056 .3527832 .44458009 .32584635 .45458985 .29101563 .45458985 .26497398 .45458985 .24047852 .4478353 .2175293 .43432618 .19458008 .42081706 .17822266 .4025065 .16845703 .37939454 .1586914 .35628257 .1538086 .3243815 .1538086 .2836914V0H.06591797Z"/>
<path id="font_3_48" d="M.07421875 0V.7158203H.21679688L.38623048 .20898438C.40185548 .16178386 .4132487 .12646485 .42041017 .103027347 .4285482 .12906902 .4412435 .1673177 .4584961 .21777344L.6298828 .7158203H.7573242V0H.6660156V.5991211L.4580078 0H.3725586L.16552735 .609375V0H.07421875Z"/>
<path id="font_3_46" d="M.07324219 0V.7158203H.16796875V.36083985L.5234375 .7158203H.65185549L.3515625 .42578126 .66503909 0H.54003909L.28515626 .3623047 .16796875 .24804688V0H.07324219Z"/>
<path id="font_3_51" d="M.07714844 0V.7158203H.34716798C.394694 .7158203 .4309896 .71354678 .4560547 .70899966 .49121095 .70314028 .5206706 .69200137 .5444336 .6755829 .5681966 .6591644 .587321 .63615927 .60180667 .6065674 .6162923 .57698568 .62353518 .5444743 .62353518 .5090332 .62353518 .44822184 .6041667 .39676414 .5654297 .35466004 .5266927 .31255595 .45670573 .2915039 .35546876 .2915039H.171875V0H.07714844M.171875 .37597657H.3569336C.4181315 .37597657 .46158854 .38734437 .4873047 .41007997 .5130208 .4328257 .5258789 .4648336 .5258789 .5061035 .5258789 .5359904 .51831057 .5615743 .5031738 .5828552 .4880371 .60413619 .46809898 .6181895 .44335938 .62501528 .42740885 .6292369 .39794923 .63134768 .35498048 .63134768H.171875V.37597657Z"/>
<path id="font_3_36" d="M-.0014648438 0 .2734375 .7158203H.37548829L.66845706 0H.5605469L.47705079 .21582031H.17773438L.099121097 0H-.0014648438M.20507813 .2939453H.4477539L.37304688 .4921875C.3502604 .5524089 .33333335 .601888 .32226563 .640625 .31315104 .59472659 .30029298 .5491536 .2836914 .50390627L.20507813 .2939453Z"/>
<path id="font_3_49" d="M.076171878 0V.7158203H.17333985L.5493164 .1538086V.7158203H.6401367V0H.54296877L.16699219 .5625V0H.076171878Z"/>
<path id="font_3_54" d="M.044921876 .23046875 .13427735 .23828125C.13850911 .20247396 .14835613 .1730957 .16381836 .15014649 .1792806 .12719727 .20328777 .10864258 .23583985 .09448242 .26839195 .080322269 .30501304 .07324219 .34570313 .07324219 .38183595 .07324219 .41373698 .07861328 .44140626 .08935547 .46907554 .100097659 .4896647 .11482748 .5031738 .13354492 .5166829 .15226238 .5234375 .1726888 .5234375 .19482422 .5234375 .21728516 .51692709 .23689778 .50390627 .2536621 .4908854 .27042643 .46940104 .28450523 .43945313 .29589845 .4202474 .3033854 .37776695 .3150228 .31201173 .33081056 .24625652 .3465983 .20019531 .36149089 .17382813 .37548829 .13964844 .39339195 .11417643 .41560874 .09741211 .44213868 .08064779 .4686686 .072265628 .4983724 .072265628 .53125 .072265628 .5673828 .08251953 .6011556 .103027347 .63256838 .123535159 .66398116 .15348308 .6878255 .1928711 .70410159 .23225911 .7203776 .27604167 .7285156 .32421876 .7285156 .37727867 .7285156 .42407228 .7199707 .4645996 .70288088 .50512698 .685791 .5362956 .66064456 .55810549 .6274414 .57991537 .5942383 .5916341 .5566406 .5932617 .51464846L.5024414 .5078125C.4975586 .55322268 .48103843 .5875244 .45288087 .6107178 .4247233 .63391116 .38313804 .6455078 .328125 .6455078 .27083335 .6455078 .22908528 .6349996 .20288086 .61398318 .17667644 .59297689 .16357422 .5676524 .16357422 .53800967 .16357422 .51227316 .17285156 .49109904 .19140625 .4744873 .20963542 .4578654 .25724284 .44084168 .33422853 .42341615 .4112142 .4059906 .46402995 .39076234 .49267579 .37773133 .53434249 .3585154 .5651042 .33416239 .58496096 .30467225 .6048177 .27519227 .6147461 .24123128 .6147461 .2027893 .6147461 .16468303 .6038411 .12876892 .58203127 .095047 .5602214 .061335248 .52888998 .035110475 .4880371 .01637268 .44718424-.0023549398 .40120445-.01171875 .35009767-.01171875 .285319-.01171875 .2310384-.0022786458 .18725586 .016601563 .14347331 .03548177 .10913086 .06388346 .084228519 .10180664 .059326173 .13972982 .046223958 .18261719 .044921876 .23046875Z"/>
<path id="font_3_80" d="M.06591797 0V.5185547H.14453125V.44628907C.1608073 .47153727 .18245442 .4918467 .20947266 .5072174 .23649089 .5225881 .2672526 .53027346 .3017578 .53027346 .34016929 .53027346 .37166343 .52233889 .39624024 .5064697 .42081706 .49061076 .43815104 .46843467 .4482422 .4399414 .4892578 .5001628 .54264327 .53027346 .60839846 .53027346 .65983077 .53027346 .69938156 .5160319 .7270508 .48754884 .75472006 .45906578 .7685547 .4152018 .7685547 .35595704V0H.68115237V.3270111C.68115237 .36220805 .678304 .38754273 .6726074 .40301515 .6669108 .4184977 .6565755 .43096415 .64160159 .44041444 .6266276 .44986473 .6090495 .45458985 .5888672 .45458985 .5524089 .45458985 .52213546 .44244895 .49804688 .4181671 .47395835 .39389549 .46191407 .3550364 .46191407 .30158998V0H.37402345V.33728028C.37402345 .37638346 .36686198 .40571086 .35253907 .42526246 .33821617 .44481407 .31477867 .45458985 .28222657 .45458985 .25748698 .45458985 .23461914 .44806925 .21362305 .43502809 .19262696 .42199708 .17740886 .40293376 .16796875 .37783814 .15852864 .3527527 .1538086 .31658427 .1538086 .2693329V0H.06591797Z"/>
</defs>
<g clip-path="url(#clip_1)">
<path transform="matrix(.7170818,0,0,.7170818,0,0)" d="M0 0H562V323H0Z" fill="#ffffff"/>
</g>
<g clip-path="url(#clip_2)">
<path transform="matrix(.7170818,0,0,.7170818,.3585409,.3585409)" stroke-width="1" stroke-linecap="butt" stroke-miterlimit="10" stroke-linejoin="miter" fill="none" stroke="#0000ff" d="M262.58 69.82 142.98 137.07"/>
<path transform="matrix(.7170818,0,0,.7170818,.3585409,.3585409)" d="M138.41 139.65 142.79 133.16 142.98 137.07 146.22 139.27 138.41 139.65Z" fill="#0000ff"/>
<path transform="matrix(.7170818,0,0,.7170818,.3585409,.3585409)" stroke-width="1" stroke-linecap="butt" stroke-miterlimit="10" stroke-linejoin="miter" fill="none" stroke="#0000ff" d="M138.41 139.65 142.79 133.16 142.98 137.07 146.22 139.27 138.41 139.65Z"/>
<path transform="matrix(.7170818,0,0,.7170818,0,0)" d="M187 69H215V94H187Z" fill="#ffffff"/>
<use data-text="l" xlink:href="#font_3_79" transform="matrix(15.058718,0,0,-15.058718,133.73575,63.82028)" fill="#0000ff"/>
<use data-text="e" xlink:href="#font_3_72" transform="matrix(15.058718,0,0,-15.058718,137.0788,63.82028)" fill="#0000ff"/>
<use data-text="f" xlink:href="#font_3_73" transform="matrix(15.058718,0,0,-15.058718,145.45143,63.82028)" fill="#0000ff"/>
<use data-text="t" xlink:href="#font_3_87" transform="matrix(15.058718,0,0,-15.058718,149.63776,63.82028)" fill="#0000ff"/>
<path transform="matrix(.7170818,0,0,.7170818,.3585409,.3585409)" stroke-width="1" stroke-linecap="butt" stroke-miterlimit="10" stroke-linejoin="miter" fill="none" stroke="#0000ff" d="M297.42 69.82 417.02 137.07"/>
<path transform="matrix(.7170818,0,0,.7170818,.3585409,.3585409)" d="M421.59 139.65 413.78 139.27 417.02 137.07 417.21 133.16 421.59 139.65Z" fill="#0000ff"/>
<path transform="matrix(.7170818,0,0,.7170818,.3585409,.3585409)" stroke-width="1" stroke-linecap="butt" stroke-miterlimit="10" stroke-linejoin="miter" fill="none" stroke="#0000ff" d="M421.59 139.65 413.78 139.27 417.02 137.07 417.21 133.16 421.59 139.65Z"/>
<path transform="matrix(.7170818,0,0,.7170818,0,0)" d="M340 69H381V94H340Z" fill="#ffffff"/>
<use data-text="r" xlink:href="#font_3_85" transform="matrix(15.058718,0,0,-15.058718,243.86383,63.82028)" fill="#0000ff"/>
<use data-text="i" xlink:href="#font_3_76" transform="matrix(15.058718,0,0,-15.058718,248.87839,63.82028)" fill="#0000ff"/>
<use data-text="g" xlink:href="#font_3_74" transform="matrix(15.058718,0,0,-15.058718,252.22142,63.82028)" fill="#0000ff"/>
<use data-text="h" xlink:href="#font_3_75" transform="matrix(15.058718,0,0,-15.058718,260.59407,63.82028)" fill="#0000ff"/>
<use data-text="t" xlink:href="#font_3_87" transform="matrix(15.058718,0,0,-15.058718,268.9667,63.82028)" fill="#0000ff"/>
<path transform="matrix(.7170818,0,0,.7170818,.3585409,.3585409)" d="M300 60C299.99998 61.313215 299.87187 62.613817 299.61567 63.9018 299.35948 65.18978 298.9801 66.4404 298.47758 67.653659 297.975 68.86691 297.35896 70.01949 296.62937 71.11139 295.89979 72.2033 295.07069 73.21355 294.14213 74.14213 293.2135 75.07071 292.20329 75.899799 291.1114 76.62938 290.01948 77.35896 288.86689 77.97503 287.65364 78.47758 286.44038 78.980129 285.18977 79.3595 283.9018 79.61569 282.6138 79.871898 281.3132 79.99999 280 80 278.68678 79.99999 277.38618 79.871898 276.09819 79.61569 274.81019 79.3595 273.55955 78.980129 272.3463 78.47758 271.13304 77.97503 269.98048 77.35896 268.88859 76.62938 267.7967 75.899799 266.78645 75.07071 265.85786 74.14213 264.92927 73.21355 264.1002 72.2033 263.3706 71.11139 262.641 70.01949 262.0249 68.86691 261.52238 67.653659 261.0198 66.4404 260.64045 65.18978 260.38426 63.9018 260.12806 62.613817 259.99998 61.313215 260 60 259.99998 58.68678 260.12806 57.386175 260.38426 56.09819 260.64045 54.8102 261.0198 53.559579 261.52238 52.346326 262.0249 51.133069 262.641 49.980489 263.37059 48.888589 264.10017 47.796689 264.92927 46.786447 265.85786 45.85786 266.78645 44.92927 267.7967 44.100187 268.88859 43.3706 269.98048 42.641019 271.13304 42.024953 272.3463 41.522405 273.55955 41.01986 274.81019 40.640489 276.09819 40.384294 277.38618 40.128099 278.68678 40 280 40 281.3132 40 282.6138 40.128099 283.9018 40.384294 285.18977 40.640489 286.44038 41.01986 287.65364 41.522405 288.86689 42.024953 290.01948 42.641019 291.11137 43.3706 292.20326 44.100187 293.2135 44.92927 294.14213 45.85786 295.07069 46.786447 295.89979 47.796689 296.62937 48.888589 297.35896 49.980489 297.975 51.133069 298.47758 52.346326 298.9801 53.559579 299.35948 54.8102 299.61567 56.09819 299.87187 57.386175 299.99998 58.68678 300 60Z" fill="#ffffff"/>
<path transform="matrix(.7170818,0,0,.7170818,.3585409,.3585409)" stroke-width="1" stroke-linecap="butt" stroke-miterlimit="4" stroke-linejoin="miter" fill="none" stroke="#000000" d="M300 60C299.99998 61.313215 299.87187 62.613817 299.61567 63.9018 299.35948 65.18978 298.9801 66.4404 298.47758 67.653659 297.975 68.86691 297.35896 70.01949 296.62937 71.11139 295.89979 72.2033 295.07069 73.21355 294.14213 74.14213 293.2135 75.07071 292.20329 75.899799 291.1114 76.62938 290.01948 77.35896 288.86689 77.97503 287.65364 78.47758 286.44038 78.980129 285.18977 79.3595 283.9018 79.61569 282.6138 79.871898 281.3132 79.99999 280 80 278.68678 79.99999 277.38618 79.871898 276.09819 79.61569 274.81019 79.3595 273.55955 78.980129 272.3463 78.47758 271.13304 77.97503 269.98048 77.35896 268.88859 76.62938 267.7967 75.899799 266.78645 75.07071 265.85786 74.14213 264.92927 73.21355 264.1002 72.2033 263.3706 71.11139 262.641 70.01949 262.0249 68.86691 261.52238 67.653659 261.0198 66.4404 260.64045 65.18978 260.38426 63.9018 260.12806 62.613817 259.99998 61.313215 260 60 259.99998 58.68678 260.12806 57.386175 260.38426 56.09819 260.64045 54.8102 261.0198 53.559579 261.52238 52.346326 262.0249 51.133069 262.641 49.980489 263.37059 48.888589 264.10017 47.796689 264.92927 46.786447 265.85786 45.85786 266.78645 44.92927 267.7967 44.100187 268.88859 43.3706 269.98048 42.641019 271.13304 42.024953 272.3463 41.522405 273.55955 41.01986 274.81019 40.640489 276.09819 40.384294 277.38618 40.128099 278.68678 40 280 40 281.3132 40 282.6138 40.128099 283.9018 40.384294 285.18977 40.640489 286.44038 41.01986 287.65364 41.522405 288.86689 42.024953 290.01948 42.641019 291.11137 43.3706 292.20326 44.100187 293.2135 44.92927 294.14213 45.85786 295.07069 46.786447 295.89979 47.796689 296.62937 48.888589 297.35896 49.980489 297.975 51.133069 298.47758 52.346326 298.9801 53.559579 299.35948 54.8102 299.61567 56.09819 299.87187 57.386175 299.99998 58.68678 300 60Z"/>
<use data-text="M" xlink:href="#font_3_48" transform="matrix(15.058718,0,0,-15.058718,194.50844,48.761564)"/>
<path transform="matrix(.7170818,0,0,.7170818,.3585409,.3585409)" stroke-width="1" stroke-linecap="butt" stroke-miterlimit="10" stroke-linejoin="miter" fill="none" stroke="#0000ff" d="M106.79 165.01 57.52 220.3"/>
<path transform="matrix(.7170818,0,0,.7170818,.3585409,.3585409)" d="M54.03 224.22 56.08 216.66 57.52 220.3 61.3 221.32 54.03 224.22Z" fill="#0000ff"/>
<path transform="matrix(.7170818,0,0,.7170818,.3585409,.3585409)" stroke-width="1" stroke-linecap="butt" stroke-miterlimit="10" stroke-linejoin="miter" fill="none" stroke="#0000ff" d="M54.03 224.22 56.08 216.66 57.52 220.3 61.3 221.32 54.03 224.22Z"/>
<path transform="matrix(.7170818,0,0,.7170818,.3585409,.3585409)" stroke-width="1" stroke-linecap="butt" stroke-miterlimit="10" stroke-linejoin="miter" fill="none" stroke="#0000ff" d="M133.21 165.01 182.43 220.34"/>
<path transform="matrix(.7170818,0,0,.7170818,.3585409,.3585409)" d="M185.92 224.26 178.65 221.36 182.43 220.34 183.88 216.7 185.92 224.26Z" fill="#0000ff"/>
<path transform="matrix(.7170818,0,0,.7170818,.3585409,.3585409)" stroke-width="1" stroke-linecap="butt" stroke-miterlimit="10" stroke-linejoin="miter" fill="none" stroke="#0000ff" d="M185.92 224.26 178.65 221.36 182.43 220.34 183.88 216.7 185.92 224.26Z"/>
<path transform="matrix(.7170818,0,0,.7170818,.3585409,.3585409)" d="M140 150C140 151.31322 139.8719 152.61382 139.61569 153.9018 139.35948 155.18978 138.98012 156.44039 138.47757 157.65366 137.97502 158.86693 137.35897 160.0195 136.62937 161.1114 135.89978 162.20331 135.0707 163.21355 134.14212 164.14214 133.21352 165.07071 132.20328 165.8998 131.11138 166.62937 130.01947 167.35895 128.8669 167.97502 127.653659 168.47757 126.4404 168.98012 125.18978 169.3595 123.901798 169.6157 122.61381 169.8719 121.31321 170 120 170 118.686779 170 117.38617 169.8719 116.09818 169.6157 114.810199 169.3595 113.55957 168.98012 112.34631 168.47757 111.133068 167.97502 109.980487 167.35895 108.88858 166.62938 107.796688 165.8998 106.78644 165.07071 105.85786 164.14214 104.92927 163.21355 104.10018 162.2033 103.3706 161.11139 102.64101 160.0195 102.02494 158.86693 101.5224 157.65366 101.01985 156.44039 100.64048 155.18978 100.384288 153.9018 100.12809 152.61382 99.99999 151.31322 100 150 99.99999 148.68679 100.12809 147.38619 100.384288 146.09819 100.64047 144.81021 101.019847 143.55959 101.52239 142.34633 102.02494 141.13307 102.64101 139.98049 103.37059 138.88858 104.10018 137.79669 104.92927 136.78646 105.85786 135.85787 106.78644 134.92928 107.796688 134.10019 108.88858 133.3706 109.980487 132.64102 111.133068 132.02495 112.34631 131.5224 113.55957 131.01985 114.810199 130.64048 116.09818 130.3843 117.38617 130.1281 118.686779 130 120 130 121.31321 130 122.61381 130.1281 123.901798 130.3843 125.18977 130.64048 126.44039 131.01985 127.65365 131.5224 128.8669 132.02495 130.01947 132.64102 131.11138 133.3706 132.20328 134.10019 133.21352 134.92928 134.14212 135.85787 135.0707 136.78646 135.89978 137.79669 136.62937 138.88858 137.35897 139.98049 137.97502 141.13307 138.47757 142.34633 138.98012 143.55959 139.35948 144.81021 139.61569 146.09819 139.8719 147.38619 140 148.68679 140 150Z" fill="#ffffff"/>
<path transform="matrix(.7170818,0,0,.7170818,.3585409,.3585409)" stroke-width="1" stroke-linecap="butt" stroke-miterlimit="4" stroke-linejoin="miter" fill="none" stroke="#000000" d="M140 150C140 151.31322 139.8719 152.61382 139.61569 153.9018 139.35948 155.18978 138.98012 156.44039 138.47757 157.65366 137.97502 158.86693 137.35897 160.0195 136.62937 161.1114 135.89978 162.20331 135.0707 163.21355 134.14212 164.14214 133.21352 165.07071 132.20328 165.8998 131.11138 166.62937 130.01947 167.35895 128.8669 167.97502 127.653659 168.47757 126.4404 168.98012 125.18978 169.3595 123.901798 169.6157 122.61381 169.8719 121.31321 170 120 170 118.686779 170 117.38617 169.8719 116.09818 169.6157 114.810199 169.3595 113.55957 168.98012 112.34631 168.47757 111.133068 167.97502 109.980487 167.35895 108.88858 166.62938 107.796688 165.8998 106.78644 165.07071 105.85786 164.14214 104.92927 163.21355 104.10018 162.2033 103.3706 161.11139 102.64101 160.0195 102.02494 158.86693 101.5224 157.65366 101.01985 156.44039 100.64048 155.18978 100.384288 153.9018 100.12809 152.61382 99.99999 151.31322 100 150 99.99999 148.68679 100.12809 147.38619 100.384288 146.09819 100.64047 144.81021 101.019847 143.55959 101.52239 142.34633 102.02494 141.13307 102.64101 139.98049 103.37059 138.88858 104.10018 137.79669 104.92927 136.78646 105.85786 135.85787 106.78644 134.92928 107.796688 134.10019 108.88858 133.3706 109.980487 132.64102 111.133068 132.02495 112.34631 131.5224 113.55957 131.01985 114.810199 130.64048 116.09818 130.3843 117.38617 130.1281 118.686779 130 120 130 121.31321 130 122.61381 130.1281 123.901798 130.3843 125.18977 130.64048 126.44039 131.01985 127.65365 131.5224 128.8669 132.02495 130.01947 132.64102 131.11138 133.3706 132.20328 134.10019 133.21352 134.92928 134.14212 135.85787 135.0707 136.78646 135.89978 137.79669 136.62937 138.88858 137.35897 139.98049 137.97502 141.13307 138.47757 142.34633 138.98012 143.55959 139.35948 144.81021 139.61569 146.09819 139.8719 147.38619 140 148.68679 140 150Z"/>
<use data-text="K" xlink:href="#font_3_46" transform="matrix(15.058718,0,0,-15.058718,81.019039,113.29892)"/>
<path transform="matrix(.7170818,0,0,.7170818,.3585409,.3585409)" stroke-width="1" stroke-linecap="butt" stroke-miterlimit="10" stroke-linejoin="miter" fill="none" stroke="#0000ff" d="M426.79 165.01 377.52 220.3"/>
<path transform="matrix(.7170818,0,0,.7170818,.3585409,.3585409)" d="M374.03 224.22 376.08 216.66 377.52 220.3 381.3 221.32 374.03 224.22Z" fill="#0000ff"/>
<path transform="matrix(.7170818,0,0,.7170818,.3585409,.3585409)" stroke-width="1" stroke-linecap="butt" stroke-miterlimit="10" stroke-linejoin="miter" fill="none" stroke="#0000ff" d="M374.03 224.22 376.08 216.66 377.52 220.3 381.3 221.32 374.03 224.22Z"/>
<path transform="matrix(.7170818,0,0,.7170818,.3585409,.3585409)" stroke-width="1" stroke-linecap="butt" stroke-miterlimit="10" stroke-linejoin="miter" fill="none" stroke="#0000ff" d="M453.21 165.01 502.48 220.3"/>
<path transform="matrix(.7170818,0,0,.7170818,.3585409,.3585409)" d="M505.97 224.22 498.7 221.32 502.48 220.3 503.92 216.66 505.97 224.22Z" fill="#0000ff"/>
<path transform="matrix(.7170818,0,0,.7170818,.3585409,.3585409)" stroke-width="1" stroke-linecap="butt" stroke-miterlimit="10" stroke-linejoin="miter" fill="none" stroke="#0000ff" d="M505.97 224.22 498.7 221.32 502.48 220.3 503.92 216.66 505.97 224.22Z"/>
<path transform="matrix(.7170818,0,0,.7170818,.3585409,.3585409)" d="M460 150C459.99998 151.31322 459.87187 152.61382 459.61567 153.9018 459.35948 155.18978 458.98008 156.44039 458.47755 157.65366 457.975 158.86693 457.35893 160.0195 456.62934 161.1114 455.89976 162.20331 455.07066 163.21355 454.1421 164.14214 453.21348 165.07071 452.20323 165.8998 451.11134 166.62937 450.0194 167.35895 448.86683 167.97502 447.6536 168.47757 446.44035 168.98012 445.18974 169.3595 443.90177 169.6157 442.61378 169.8719 441.3132 170 440 170 438.68678 170 437.38618 169.8719 436.09819 169.6157 434.81019 169.3595 433.55955 168.98012 432.34629 168.47757 431.13304 167.97502 429.98045 167.35895 428.88856 166.62938 427.79667 165.8998 426.7864 165.07071 425.85786 164.14214 424.92924 163.21355 424.10014 162.2033 423.37055 161.11139 422.64097 160.0195 422.0249 158.86693 421.52238 157.65366 421.01985 156.44039 420.64048 155.18978 420.38429 153.9018 420.12809 152.61382 420 151.31322 420 150 420 148.68679 420.1281 147.38619 420.3843 146.09819 420.6405 144.81021 421.01988 143.55959 421.5224 142.34633 422.02494 141.13307 422.641 139.98049 423.37059 138.88858 424.10017 137.79669 424.92924 136.78646 425.85786 135.85787 426.7864 134.92928 427.79667 134.10019 428.88859 133.3706 429.98048 132.64102 431.13304 132.02495 432.34629 131.5224 433.55955 131.01985 434.81019 130.64048 436.09819 130.3843 437.38618 130.1281 438.68678 130 440 130 441.3132 130 442.61378 130.1281 443.90174 130.3843 445.18974 130.64048 446.44035 131.01985 447.6536 131.5224 448.86683 132.02495 450.0194 132.64102 451.11134 133.3706 452.20323 134.10019 453.21348 134.92928 454.1421 135.85787 455.07066 136.78646 455.89976 137.79669 456.62934 138.88858 457.35893 139.98049 457.975 141.13307 458.47755 142.34633 458.98008 143.55959 459.35948 144.81021 459.61567 146.09819 459.87187 147.38619 459.99998 148.68679 460 150Z" fill="#ffffff"/>
<path transform="matrix(.7170818,0,0,.7170818,.3585409,.3585409)" stroke-width="1" stroke-linecap="butt" stroke-miterlimit="4" stroke-linejoin="miter" fill="none" stroke="#000000" d="M460 150C459.99998 151.31322 459.87187 152.61382 459.61567 153.9018 459.35948 155.18978 458.98008 156.44039 458.47755 157.65366 457.975 158.86693 457.35893 160.0195 456.62934 161.1114 455.89976 162.20331 455.07066 163.21355 454.1421 164.14214 453.21348 165.07071 452.20323 165.8998 451.11134 166.62937 450.0194 167.35895 448.86683 167.97502 447.6536 168.47757 446.44035 168.98012 445.18974 169.3595 443.90177 169.6157 442.61378 169.8719 441.3132 170 440 170 438.68678 170 437.38618 169.8719 436.09819 169.6157 434.81019 169.3595 433.55955 168.98012 432.34629 168.47757 431.13304 167.97502 429.98045 167.35895 428.88856 166.62938 427.79667 165.8998 426.7864 165.07071 425.85786 164.14214 424.92924 163.21355 424.10014 162.2033 423.37055 161.11139 422.64097 160.0195 422.0249 158.86693 421.52238 157.65366 421.01985 156.44039 420.64048 155.18978 420.38429 153.9018 420.12809 152.61382 420 151.31322 420 150 420 148.68679 420.1281 147.38619 420.3843 146.09819 420.6405 144.81021 421.01988 143.55959 421.5224 142.34633 422.02494 141.13307 422.641 139.98049 423.37059 138.88858 424.10017 137.79669 424.92924 136.78646 425.85786 135.85787 426.7864 134.92928 427.79667 134.10019 428.88859 133.3706 429.98048 132.64102 431.13304 132.02495 432.34629 131.5224 433.55955 131.01985 434.81019 130.64048 436.09819 130.3843 437.38618 130.1281 438.68678 130 440 130 441.3132 130 442.61378 130.1281 443.90174 130.3843 445.18974 130.64048 446.44035 131.01985 447.6536 131.5224 448.86683 132.02495 450.0194 132.64102 451.11134 133.3706 452.20323 134.10019 453.21348 134.92928 454.1421 135.85787 455.07066 136.78646 455.89976 137.79669 456.62934 138.88858 457.35893 139.98049 457.975 141.13307 458.47755 142.34633 458.98008 143.55959 459.35948 144.81021 459.61567 146.09819 459.87187 147.38619 459.99998 148.68679 460 150Z"/>
<use data-text="P" xlink:href="#font_3_51" transform="matrix(15.058718,0,0,-15.058718,310.4852,113.29892)"/>
<path transform="matrix(.7170818,0,0,.7170818,.3585409,.3585409)" stroke-width="1" stroke-linecap="butt" stroke-miterlimit="10" stroke-linejoin="miter" fill="none" stroke="#0000ff" d="M32 258.33 10.75 305.92"/>
<path transform="matrix(.7170818,0,0,.7170818,.3585409,.3585409)" d="M8.6 310.71 8.26 302.9 10.75 305.92 14.65 305.75 8.6 310.71Z" fill="#0000ff"/>
<path transform="matrix(.7170818,0,0,.7170818,.3585409,.3585409)" stroke-width="1" stroke-linecap="butt" stroke-miterlimit="10" stroke-linejoin="miter" fill="none" stroke="#0000ff" d="M8.6 310.71 8.26 302.9 10.75 305.92 14.65 305.75 8.6 310.71Z"/>
<path transform="matrix(.7170818,0,0,.7170818,.3585409,.3585409)" stroke-width="1" stroke-linecap="butt" stroke-miterlimit="10" stroke-linejoin="miter" fill="none" stroke="#0000ff" d="M48 258.33 69.25 305.92"/>
<path transform="matrix(.7170818,0,0,.7170818,.3585409,.3585409)" d="M71.4 310.71 65.35 305.75 69.25 305.92 71.74 302.9 71.4 310.71Z" fill="#0000ff"/>
<path transform="matrix(.7170818,0,0,.7170818,.3585409,.3585409)" stroke-width="1" stroke-linecap="butt" stroke-miterlimit="10" stroke-linejoin="miter" fill="none" stroke="#0000ff" d="M71.4 310.71 65.35 305.75 69.25 305.92 71.74 302.9 71.4 310.71Z"/>
<path transform="matrix(.7170818,0,0,.7170818,.3585409,.3585409)" d="M60 240C59.999998 241.31322 59.871896 242.6138 59.6157 243.90178 59.3595 245.18976 58.98013 246.44039 58.477586 247.65366 57.975038 248.86692 57.35897 250.0195 56.629388 251.1114 55.8998 252.20331 55.070718 253.21356 54.14213 254.14214 53.213544 255.07071 52.203298 255.8998 51.111398 256.62937 50.019498 257.35896 48.866918 257.97505 47.653665 258.47758 46.44041 258.9801 45.18979 259.35948 43.901803 259.61567 42.613817 259.87187 41.313215 259.99998 40 260 38.68678 259.99998 37.386178 259.87187 36.098196 259.61567 34.810209 259.35948 33.559587 258.9801 32.34633 258.47758 31.133072 257.97505 29.980494 257.35899 28.888592 256.6294 27.79669 255.8998 26.786448 255.07071 25.857863 254.14214 24.929276 253.21356 24.10019 252.20331 23.370604 251.11139 22.641018 250.01949 22.024952 248.86692 21.522406 247.65366 21.01986 246.44039 20.640488 245.18976 20.384293 243.90178 20.128096 242.6138 19.999999 241.31322 20 240 19.999999 238.68677 20.128096 237.38616 20.384293 236.09818 20.640488 234.81018 21.01986 233.55956 21.522406 232.3463 22.024952 231.13304 22.641018 229.98046 23.370604 228.88855 24.10019 227.79666 24.929276 226.78643 25.857863 225.85785 26.786448 224.92926 27.79669 224.10018 28.888592 223.37059 29.980494 222.641 31.133072 222.02495 32.34633 221.5224 33.559587 221.01985 34.810209 220.64049 36.098196 220.3843 37.386178 220.1281 38.68678 220 40 220 41.313215 220 42.613817 220.1281 43.901803 220.3843 45.18979 220.64049 46.44041 221.01985 47.653665 221.5224 48.866918 222.02495 50.019498 222.641 51.1114 223.37059 52.2033 224.10018 53.213544 224.92926 54.14213 225.85785 55.070718 226.78643 55.8998 227.79666 56.629384 228.88855 57.35897 229.98046 57.975038 231.13304 58.477586 232.3463 58.98013 233.55956 59.359506 234.81018 59.615705 236.09818 59.871896 237.38616 59.999998 238.68677 60 240Z" fill="#ffffff"/>
<path transform="matrix(.7170818,0,0,.7170818,.3585409,.3585409)" stroke-width="1" stroke-linecap="butt" stroke-miterlimit="4" stroke-linejoin="miter" fill="none" stroke="#000000" d="M60 240C59.999998 241.31322 59.871896 242.6138 59.6157 243.90178 59.3595 245.18976 58.98013 246.44039 58.477586 247.65366 57.975038 248.86692 57.35897 250.0195 56.629388 251.1114 55.8998 252.20331 55.070718 253.21356 54.14213 254.14214 53.213544 255.07071 52.203298 255.8998 51.111398 256.62937 50.019498 257.35896 48.866918 257.97505 47.653665 258.47758 46.44041 258.9801 45.18979 259.35948 43.901803 259.61567 42.613817 259.87187 41.313215 259.99998 40 260 38.68678 259.99998 37.386178 259.87187 36.098196 259.61567 34.810209 259.35948 33.559587 258.9801 32.34633 258.47758 31.133072 257.97505 29.980494 257.35899 28.888592 256.6294 27.79669 255.8998 26.786448 255.07071 25.857863 254.14214 24.929276 253.21356 24.10019 252.20331 23.370604 251.11139 22.641018 250.01949 22.024952 248.86692 21.522406 247.65366 21.01986 246.44039 20.640488 245.18976 20.384293 243.90178 20.128096 242.6138 19.999999 241.31322 20 240 19.999999 238.68677 20.128096 237.38616 20.384293 236.09818 20.640488 234.81018 21.01986 233.55956 21.522406 232.3463 22.024952 231.13304 22.641018 229.98046 23.370604 228.88855 24.10019 227.79666 24.929276 226.78643 25.857863 225.85785 26.786448 224.92926 27.79669 224.10018 28.888592 223.37059 29.980494 222.641 31.133072 222.02495 32.34633 221.5224 33.559587 221.01985 34.810209 220.64049 36.098196 220.3843 37.386178 220.1281 38.68678 220 40 220 41.313215 220 42.613817 220.1281 43.901803 220.3843 45.18979 220.64049 46.44041 221.01985 47.653665 221.5224 48.866918 222.02495 50.019498 222.641 51.1114 223.37059 52.2033 224.10018 53.213544 224.92926 54.14213 225.85785 55.070718 226.78643 55.8998 227.79666 56.629384 228.88855 57.35897 229.98046 57.975038 231.13304 58.477586 232.3463 58.98013 233.55956 59.359506 234.81018 59.615705 236.09818 59.871896 237.38616 59.999998 238.68677 60 240Z"/>
<use data-text="A" xlink:href="#font_3_36" transform="matrix(15.058718,0,0,-15.058718,23.652495,177.83629)"/>
<path transform="matrix(.7170818,0,0,.7170818,.3585409,.3585409)" stroke-width="1" stroke-linecap="butt" stroke-miterlimit="10" stroke-linejoin="miter" fill="none" stroke="#0000ff" d="M352 258.33 330.75 305.92"/>
<path transform="matrix(.7170818,0,0,.7170818,.3585409,.3585409)" d="M328.6 310.71 328.26 302.9 330.75 305.92 334.65 305.75 328.6 310.71Z" fill="#0000ff"/>
<path transform="matrix(.7170818,0,0,.7170818,.3585409,.3585409)" stroke-width="1" stroke-linecap="butt" stroke-miterlimit="10" stroke-linejoin="miter" fill="none" stroke="#0000ff" d="M328.6 310.71 328.26 302.9 330.75 305.92 334.65 305.75 328.6 310.71Z"/>
<path transform="matrix(.7170818,0,0,.7170818,.3585409,.3585409)" stroke-width="1" stroke-linecap="butt" stroke-miterlimit="10" stroke-linejoin="miter" fill="none" stroke="#0000ff" d="M368 258.33 389.25 305.92"/>
<path transform="matrix(.7170818,0,0,.7170818,.3585409,.3585409)" d="M391.4 310.71 385.35 305.75 389.25 305.92 391.74 302.9 391.4 310.71Z" fill="#0000ff"/>
<path transform="matrix(.7170818,0,0,.7170818,.3585409,.3585409)" stroke-width="1" stroke-linecap="butt" stroke-miterlimit="10" stroke-linejoin="miter" fill="none" stroke="#0000ff" d="M391.4 310.71 385.35 305.75 389.25 305.92 391.74 302.9 391.4 310.71Z"/>
<path transform="matrix(.7170818,0,0,.7170818,.3585409,.3585409)" d="M380 240C379.99998 241.31322 379.87187 242.6138 379.61567 243.90178 379.35948 245.18976 378.98008 246.44039 378.47755 247.65366 377.97499 248.86692 377.35893 250.0195 376.62934 251.1114 375.89976 252.20331 375.07066 253.21356 374.1421 254.14214 373.21348 255.07071 372.20323 255.8998 371.11134 256.62937 370.01945 257.35896 368.86686 257.97505 367.6536 258.47758 366.44035 258.9801 365.18974 259.35948 363.90177 259.61567 362.6138 259.87187 361.3132 259.99998 360 260 358.6868 259.99998 357.38618 259.87187 356.09819 259.61567 354.81019 259.35948 353.55955 258.9801 352.34629 258.47758 351.133 257.97505 349.98045 257.35899 348.88859 256.6294 347.79667 255.8998 346.7864 255.07071 345.85786 254.14214 344.92927 253.21356 344.1002 252.20331 343.3706 251.11139 342.64103 250.01949 342.02494 248.86692 341.52238 247.65366 341.01985 246.44039 340.64048 245.18976 340.38429 243.90178 340.12809 242.6138 340 241.31322 340 240 340 238.68677 340.12809 237.38616 340.38429 236.09818 340.64048 234.81018 341.01985 233.55956 341.52238 232.3463 342.02494 231.13304 342.64103 229.98046 343.3706 228.88855 344.1002 227.79666 344.92927 226.78643 345.85786 225.85785 346.7864 224.92926 347.79667 224.10018 348.88856 223.37059 349.98045 222.641 351.133 222.02495 352.34629 221.5224 353.55955 221.01985 354.81016 220.64049 356.09815 220.3843 357.38618 220.1281 358.6868 220 360 220 361.3132 220 362.6138 220.1281 363.90177 220.3843 365.18974 220.64049 366.44035 221.01985 367.6536 221.5224 368.86686 222.02495 370.01945 222.641 371.11134 223.37059 372.20323 224.10018 373.21348 224.92926 374.1421 225.85785 375.07066 226.78643 375.89976 227.79666 376.62934 228.88855 377.35893 229.98046 377.97499 231.13304 378.47755 232.3463 378.98008 233.55956 379.35948 234.81018 379.61567 236.09818 379.87187 237.38616 379.99998 238.68677 380 240Z" fill="#ffffff"/>
<path transform="matrix(.7170818,0,0,.7170818,.3585409,.3585409)" stroke-width="1" stroke-linecap="butt" stroke-miterlimit="4" stroke-linejoin="miter" fill="none" stroke="#000000" d="M380 240C379.99998 241.31322 379.87187 242.6138 379.61567 243.90178 379.35948 245.18976 378.98008 246.44039 378.47755 247.65366 377.97499 248.86692 377.35893 250.0195 376.62934 251.1114 375.89976 252.20331 375.07066 253.21356 374.1421 254.14214 373.21348 255.07071 372.20323 255.8998 371.11134 256.62937 370.01945 257.35896 368.86686 257.97505 367.6536 258.47758 366.44035 258.9801 365.18974 259.35948 363.90177 259.61567 362.6138 259.87187 361.3132 259.99998 360 260 358.6868 259.99998 357.38618 259.87187 356.09819 259.61567 354.81019 259.35948 353.55955 258.9801 352.34629 258.47758 351.133 257.97505 349.98045 257.35899 348.88859 256.6294 347.79667 255.8998 346.7864 255.07071 345.85786 254.14214 344.92927 253.21356 344.1002 252.20331 343.3706 251.11139 342.64103 250.01949 342.02494 248.86692 341.52238 247.65366 341.01985 246.44039 340.64048 245.18976 340.38429 243.90178 340.12809 242.6138 340 241.31322 340 240 340 238.68677 340.12809 237.38616 340.38429 236.09818 340.64048 234.81018 341.01985 233.55956 341.52238 232.3463 342.02494 231.13304 342.64103 229.98046 343.3706 228.88855 344.1002 227.79666 344.92927 226.78643 345.85786 225.85785 346.7864 224.92926 347.79667 224.10018 348.88856 223.37059 349.98045 222.641 351.133 222.02495 352.34629 221.5224 353.55955 221.01985 354.81016 220.64049 356.09815 220.3843 357.38618 220.1281 358.6868 220 360 220 361.3132 220 362.6138 220.1281 363.90177 220.3843 365.18974 220.64049 366.44035 221.01985 367.6536 221.5224 368.86686 222.02495 370.01945 222.641 371.11134 223.37059 372.20323 224.10018 373.21348 224.92926 374.1421 225.85785 375.07066 226.78643 375.89976 227.79666 376.62934 228.88855 377.35893 229.98046 377.97499 231.13304 378.47755 232.3463 378.98008 233.55956 379.35948 234.81018 379.61567 236.09818 379.87187 237.38616 379.99998 238.68677 380 240Z"/>
<use data-text="N" xlink:href="#font_3_49" transform="matrix(15.058718,0,0,-15.058718,252.7041,177.83629)"/>
<path transform="matrix(.7170818,0,0,.7170818,.3585409,.3585409)" stroke-width="1" stroke-linecap="butt" stroke-miterlimit="10" stroke-linejoin="miter" fill="none" stroke="#0000ff" d="M512 258.33 490.75 305.92"/>
<path transform="matrix(.7170818,0,0,.7170818,.3585409,.3585409)" d="M488.6 310.71 488.26 302.9 490.75 305.92 494.65 305.75 488.6 310.71Z" fill="#0000ff"/>
<path transform="matrix(.7170818,0,0,.7170818,.3585409,.3585409)" stroke-width="1" stroke-linecap="butt" stroke-miterlimit="10" stroke-linejoin="miter" fill="none" stroke="#0000ff" d="M488.6 310.71 488.26 302.9 490.75 305.92 494.65 305.75 488.6 310.71Z"/>
<path transform="matrix(.7170818,0,0,.7170818,.3585409,.3585409)" stroke-width="1" stroke-linecap="butt" stroke-miterlimit="10" stroke-linejoin="miter" fill="none" stroke="#0000ff" d="M528 258.33 549.25 305.92"/>
<path transform="matrix(.7170818,0,0,.7170818,.3585409,.3585409)" d="M551.4 310.71 545.35 305.75 549.25 305.92 551.74 302.9 551.4 310.71Z" fill="#0000ff"/>
<path transform="matrix(.7170818,0,0,.7170818,.3585409,.3585409)" stroke-width="1" stroke-linecap="butt" stroke-miterlimit="10" stroke-linejoin="miter" fill="none" stroke="#0000ff" d="M551.4 310.71 545.35 305.75 549.25 305.92 551.74 302.9 551.4 310.71Z"/>
<path transform="matrix(.7170818,0,0,.7170818,.3585409,.3585409)" d="M540 240C540 241.31322 539.8719 242.6138 539.61569 243.90178 539.3595 245.18976 538.9801 246.44039 538.4775 247.65366 537.9749 248.86692 537.3588 250.0195 536.6293 251.1114 535.8997 252.20331 535.0707 253.21356 534.1421 254.14214 533.21347 255.07071 532.2032 255.8998 531.1113 256.62937 530.0195 257.35896 528.8669 257.97505 527.6536 258.47758 526.44039 258.9801 525.18978 259.35948 523.9018 259.61567 522.61386 259.87187 521.31326 259.99998 520 260 518.68679 259.99998 517.38619 259.87187 516.09817 259.61567 514.8101 259.35948 513.5595 258.9801 512.34628 258.47758 511.133 257.97505 509.9804 257.35899 508.8885 256.6294 507.7966 255.8998 506.78639 255.07071 505.85783 254.14214 504.9292 253.21356 504.10014 252.20331 503.37055 251.11139 502.64097 250.01949 502.02488 248.86692 501.52235 247.65366 501.0198 246.44039 500.64045 245.18976 500.38426 243.90178 500.12806 242.6138 499.99998 241.31322 500 240 499.99998 238.68677 500.12806 237.38616 500.38426 236.09818 500.64045 234.81018 501.01979 233.55956 501.5223 232.3463 502.02485 231.13304 502.64094 229.98046 503.3705 228.88855 504.1001 227.79666 504.9292 226.78643 505.85783 225.85785 506.78639 224.92926 507.7966 224.10018 508.88853 223.37059 509.9804 222.641 511.133 222.02495 512.34628 221.5224 513.5595 221.01985 514.8101 220.64049 516.09817 220.3843 517.38619 220.1281 518.68679 220 520 220 521.31326 220 522.61386 220.1281 523.9018 220.3843 525.18978 220.64049 526.44039 221.01985 527.6536 221.5224 528.8669 222.02495 530.0195 222.641 531.1113 223.37059 532.2032 224.10018 533.21347 224.92926 534.1421 225.85785 535.0707 226.78643 535.8997 227.79666 536.6293 228.88855 537.3588 229.98046 537.9749 231.13304 538.4775 232.3463 538.9801 233.55956 539.3595 234.81018 539.61569 236.09818 539.8719 237.38616 540 238.68677 540 240Z" fill="#ffffff"/>
<path transform="matrix(.7170818,0,0,.7170818,.3585409,.3585409)" stroke-width="1" stroke-linecap="butt" stroke-miterlimit="4" stroke-linejoin="miter" fill="none" stroke="#000000" d="M540 240C540 241.31322 539.8719 242.6138 539.61569 243.90178 539.3595 245.18976 538.9801 246.44039 538.4775 247.65366 537.9749 248.86692 537.3588 250.0195 536.6293 251.1114 535.8997 252.20331 535.0707 253.21356 534.1421 254.14214 533.21347 255.07071 532.2032 255.8998 531.1113 256.62937 530.0195 257.35896 528.8669 257.97505 527.6536 258.47758 526.44039 258.9801 525.18978 259.35948 523.9018 259.61567 522.61386 259.87187 521.31326 259.99998 520 260 518.68679 259.99998 517.38619 259.87187 516.09817 259.61567 514.8101 259.35948 513.5595 258.9801 512.34628 258.47758 511.133 257.97505 509.9804 257.35899 508.8885 256.6294 507.7966 255.8998 506.78639 255.07071 505.85783 254.14214 504.9292 253.21356 504.10014 252.20331 503.37055 251.11139 502.64097 250.01949 502.02488 248.86692 501.52235 247.65366 501.0198 246.44039 500.64045 245.18976 500.38426 243.90178 500.12806 242.6138 499.99998 241.31322 500 240 499.99998 238.68677 500.12806 237.38616 500.38426 236.09818 500.64045 234.81018 501.01979 233.55956 501.5223 232.3463 502.02485 231.13304 502.64094 229.98046 503.3705 228.88855 504.1001 227.79666 504.9292 226.78643 505.85783 225.85785 506.78639 224.92926 507.7966 224.10018 508.88853 223.37059 509.9804 222.641 511.133 222.02495 512.34628 221.5224 513.5595 221.01985 514.8101 220.64049 516.09817 220.3843 517.38619 220.1281 518.68679 220 520 220 521.31326 220 522.61386 220.1281 523.9018 220.3843 525.18978 220.64049 526.44039 221.01985 527.6536 221.5224 528.8669 222.02495 530.0195 222.641 531.1113 223.37059 532.2032 224.10018 533.21347 224.92926 534.1421 225.85785 535.0707 226.78643 535.8997 227.79666 536.6293 228.88855 537.3588 229.98046 537.9749 231.13304 538.4775 232.3463 538.9801 233.55956 539.3595 234.81018 539.61569 236.09818 539.8719 237.38616 540 238.68677 540 240Z"/>
<use data-text="S" xlink:href="#font_3_54" transform="matrix(15.058718,0,0,-15.058718,367.85176,177.83629)"/>
<use data-text="i" xlink:href="#font_3_76" transform="matrix(15.058718,0,0,-15.058718,186.91185,17.209963)" fill="#0000ff"/>
<use data-text="t" xlink:href="#font_3_87" transform="matrix(15.058718,0,0,-15.058718,190.25489,17.209963)" fill="#0000ff"/>
<use data-text="e" xlink:href="#font_3_72" transform="matrix(15.058718,0,0,-15.058718,194.44121,17.209963)" fill="#0000ff"/>
<use data-text="m" xlink:href="#font_3_80" transform="matrix(15.058718,0,0,-15.058718,202.81386,17.209963)" fill="#0000ff"/>
</g>
</svg>
