<svg xmlns="http://www.w3.org/2000/svg" xmlns:xlink="http://www.w3.org/1999/xlink" xmlns:inkscape="http://www.inkscape.org/namespaces/inkscape" version="1.1" width="574.73696" height="148.15747" viewBox="0 0 574.73696 148.15747">
<defs>
<clipPath id="clip_1">
<path d="M156.156 61.063H181.156V102.063H156.156Z"/>
</clipPath>
<clipPath id="clip_2">
<path d="M0 0H575V149H0Z"/>
</clipPath>
<clipPath id="clip_3">
<path d="M151.156 56.063H181.156V88.063H151.156Z"/>
</clipPath>
<clipPath id="clip_4">
<path d="M0 0H575V149H0Z"/>
</clipPath>
<clipPath id="clip_5">
<path d="M356.156 11.063H402.156V58.063H356.156Z"/>
</clipPath>
<clipPath id="clip_6">
<path d="M0 0H575V149H0Z"/>
</clipPath>
<clipPath id="clip_7">
<path d="M379.156 34.063H402.156V75.063H379.156Z"/>
</clipPath>
<clipPath id="clip_8">
<path d="M0 0H575V149H0Z"/>
</clipPath>
<clipPath id="clip_9">
<path d="M374.156 29.063H402.156V61.063H374.156Z"/>
</clipPath>
<clipPath id="clip_10">
<path d="M0 0H575V149H0Z"/>
</clipPath>
<clipPath id="clip_11">
<path d="M543.156 118.063H573.156V149.001H543.156Z"/>
</clipPath>
<clipPath id="clip_12">
<path d="M0 0H575V149H0Z"/>
</clipPath>
</defs>
<g>
<path transform="matrix(.997607,0,0,-1,0,0)" stroke-width="1.938268" stroke-linecap="butt" stroke-miterlimit="4" stroke-linejoin="miter" fill="none" stroke="#211e1e" d="M144.263-49.055 95.063-27.629"/>
<g clip-path="url(#clip_1)">
<g clip-path="url(#clip_2)">
<path transform="matrix(.997607,0,0,-1,0,0)" stroke-width="1.938268" stroke-linecap="butt" stroke-miterlimit="4" stroke-linejoin="miter" fill="none" stroke="#211e1e" d="M167.589-72.316 178.427-90.688"/>
</g>
</g>
<path transform="matrix(.997607,0,0,-1,0,0)" stroke-width="1.938268" stroke-linecap="butt" stroke-miterlimit="4" stroke-linejoin="miter" fill="none" stroke="#211e1e" d="M167.428-72.984 156.593-91.352"/>
<path transform="matrix(.997607,0,0,-1,0,0)" stroke-width="1.938268" stroke-linecap="butt" stroke-miterlimit="4" stroke-linejoin="miter" fill="none" stroke="#211e1e" d="M118.244-72.297 107.409-90.672"/>
<path transform="matrix(.997607,0,0,-1,0,0)" stroke-width="1.938268" stroke-linecap="butt" stroke-miterlimit="4" stroke-linejoin="miter" fill="none" stroke="#211e1e" d="M120.562-71.938 131.4-90.309"/>
<path transform="matrix(.997607,0,0,-1,0,0)" stroke-width="1.938268" stroke-linecap="butt" stroke-miterlimit="4" stroke-linejoin="miter" fill="none" stroke="#211e1e" d="M120.202-72.301 144.49-49.969"/>
<path transform="matrix(.997607,0,0,-1,0,0)" stroke-width="1.938268" stroke-linecap="butt" stroke-miterlimit="4" stroke-linejoin="miter" fill="none" stroke="#211e1e" d="M144.02-48.801 167.765-72.07"/>
<path transform="matrix(.997607,0,0,-1,0,0)" stroke-width="1.938268" stroke-linecap="butt" stroke-miterlimit="4" stroke-linejoin="miter" fill="none" stroke="#211e1e" d="M51.604-49.465 31.098-71.242"/>
<path transform="matrix(.997607,0,0,-1,0,0)" stroke-width="1.938268" stroke-linecap="butt" stroke-miterlimit="4" stroke-linejoin="miter" fill="none" stroke="#211e1e" d="M51.369-49.008 76.742-73.648"/>
<path transform="matrix(.997607,0,0,-1,0,0)" stroke-width="1.938268" stroke-linecap="butt" stroke-miterlimit="4" stroke-linejoin="miter" fill="none" stroke="#211e1e" d="M74.863-72.727 64.032-91.094"/>
<path transform="matrix(.997607,0,0,-1,0,0)" stroke-width="1.938268" stroke-linecap="butt" stroke-miterlimit="4" stroke-linejoin="miter" fill="none" stroke="#211e1e" d="M30.303-73.227 19.468-91.594"/>
<path transform="matrix(.997607,0,0,-1,0,0)" stroke-width="1.938268" stroke-linecap="butt" stroke-miterlimit="4" stroke-linejoin="miter" fill="none" stroke="#211e1e" d="M74.628-72.27 85.462-90.637"/>
<path transform="matrix(.997607,0,0,-1,0,0)" stroke-width="1.938268" stroke-linecap="butt" stroke-miterlimit="4" stroke-linejoin="miter" fill="none" stroke="#211e1e" d="M98.125-26.207 50.574-50.391"/>
<path transform="matrix(.997607,0,0,-1,0,0)" stroke-width="1.938268" stroke-linecap="butt" stroke-miterlimit="4" stroke-linejoin="miter" fill="none" stroke="#211e1e" d="M31.893-73.145 42.731-91.516"/>
<path d="M177.422 72.313C177.422 77.953 172.863 82.52 167.238 82.52 161.613 82.52 157.055 77.953 157.055 72.313 157.055 66.684 161.613 62.109 167.238 62.109 172.863 62.109 177.422 66.684 177.422 72.313" fill="#ffffff"/>
<g clip-path="url(#clip_3)">
<g clip-path="url(#clip_4)">
<path transform="matrix(.997607,0,0,-1,0,0)" stroke-width=".969134" stroke-linecap="butt" stroke-miterlimit="4" stroke-linejoin="miter" fill="none" stroke="#211e1e" d="M177.847-72.313C177.847-77.953 173.278-82.52 167.639-82.52 162.001-82.52 157.431-77.953 157.431-72.313 157.431-66.684 162.001-62.109 167.639-62.109 173.278-62.109 177.847-66.684 177.847-72.313ZM177.847-72.313"/>
</g>
<path d="M163.051 77.949H164.504L167.535 73.355 170.41 77.949H172.176L168.473 72.059 171.988 66.746H170.535L167.77 70.934 165.145 66.746H163.379L166.832 72.23ZM163.051 77.949" fill="#211e1e"/>
</g>
<path d="M133.121 48.582C133.121 54.223 137.684 58.789 143.301 58.789 148.926 58.789 153.484 54.223 153.484 48.582 153.484 42.953 148.926 38.375 143.301 38.375 137.684 38.375 133.121 42.953 133.121 48.582" fill="#ffffff"/>
<path transform="matrix(.997607,0,0,-1,0,0)" stroke-width=".969134" stroke-linecap="butt" stroke-miterlimit="4" stroke-linejoin="miter" fill="none" stroke="#211e1e" d="M133.44-48.582C133.44-54.223 138.014-58.789 143.645-58.789 149.283-58.789 153.853-54.223 153.853-48.582 153.853-42.953 149.283-38.375 143.645-38.375 138.014-38.375 133.44-42.953 133.44-48.582ZM133.44-48.582"/>
<path d="M139.484 53.949C140.375 54.199 141.484 54.496 142.688 54.496 143.469 54.496 144.375 54.355 145.094 53.965 146.141 53.371 146.688 52.309 146.688 51.199 146.688 49.637 145.703 48.918 144.484 48.262L142.453 47.215C142.031 46.996 140.953 46.434 140.953 45.434 140.953 44.105 142.156 43.84 142.969 43.84 144.25 43.84 145.359 44.277 145.875 44.48V43.199C145.219 42.996 144.25 42.73 142.984 42.73 141.672 42.73 141.047 43.059 140.625 43.387 139.969 43.887 139.563 44.715 139.563 45.637 139.563 47.012 140.328 47.793 141.703 48.512L143.859 49.652C144.438 49.965 145.203 50.512 145.203 51.402 145.203 52.684 144.141 53.371 142.875 53.371 141.453 53.371 140.172 52.809 139.484 52.496ZM139.484 53.949" fill="#211e1e"/>
<path d="M109.918 71.84C109.918 77.48 114.48 82.047 120.098 82.047 125.723 82.047 130.277 77.48 130.277 71.84 130.277 66.211 125.723 61.633 120.098 61.633 114.48 61.633 109.918 66.211 109.918 71.84" fill="#ffffff"/>
<path transform="matrix(.997607,0,0,-1,0,0)" stroke-width=".969134" stroke-linecap="butt" stroke-miterlimit="4" stroke-linejoin="miter" fill="none" stroke="#211e1e" d="M110.182-71.84C110.182-77.48 114.755-82.047 120.386-82.047 126.024-82.047 130.59-77.48 130.59-71.84 130.59-66.211 126.024-61.633 120.386-61.633 114.755-61.633 110.182-66.211 110.182-71.84ZM110.182-71.84"/>
<path d="M116.438 77.477H117.922V72.68H119.266L122.313 77.477H124.125L120.641 72.258C121.109 72.023 121.656 71.742 122.109 71.164 122.672 70.477 122.891 69.602 122.891 68.992 122.891 68.07 122.406 66.961 121.422 66.57 120.688 66.273 120.078 66.273 119.141 66.273H116.438ZM117.922 67.383H118.844C119.672 67.383 121.313 67.383 121.313 69.086 121.313 70.352 120.516 71.57 118.719 71.57H117.922ZM117.922 67.383" fill="#211e1e"/>
<path d="M61.477 49.004C61.477 54.645 56.918 59.211 51.293 59.211 45.672 59.211 41.113 54.645 41.113 49.004 41.113 43.375 45.672 38.801 51.293 38.801 56.918 38.801 61.477 43.375 61.477 49.004" fill="#ffffff"/>
<path transform="matrix(.997607,0,0,-1,0,0)" stroke-width=".969134" stroke-linecap="butt" stroke-miterlimit="4" stroke-linejoin="miter" fill="none" stroke="#211e1e" d="M61.624-49.004C61.624-54.645 57.054-59.211 51.416-59.211 45.781-59.211 41.212-54.645 41.212-49.004 41.212-43.375 45.781-38.801 51.416-38.801 57.054-38.801 61.624-43.375 61.624-49.004ZM61.624-49.004"/>
<path d="M55.625 43.594C54.734 43.328 53.828 43.156 52.891 43.156 51.938 43.156 50.328 43.422 49.203 44.719 48.25 45.813 47.813 47.594 47.813 49.125 47.813 51.766 49.094 54.922 52.938 54.922 54.266 54.922 55.219 54.578 55.75 54.375V53.156C55.219 53.359 54.344 53.688 53.328 53.688 51.313 53.688 49.375 52.297 49.375 49.109 49.375 46.938 50.281 44.266 52.859 44.266 54.125 44.266 55.156 44.734 55.625 44.953ZM55.625 43.594" fill="#211e1e"/>
<path d="M84.68 72.266C84.68 77.906 80.121 82.473 74.5 82.473 68.875 82.473 64.316 77.906 64.316 72.266 64.316 66.637 68.875 62.063 74.5 62.063 80.121 62.063 84.68 66.637 84.68 72.266" fill="#ffffff"/>
<path transform="matrix(.997607,0,0,-1,0,0)" stroke-width=".969134" stroke-linecap="butt" stroke-miterlimit="4" stroke-linejoin="miter" fill="none" stroke="#211e1e" d="M84.883-72.266C84.883-77.902 80.313-82.473 74.679-82.473 69.04-82.473 64.471-77.902 64.471-72.266 64.471-66.637 69.04-62.063 74.679-62.063 80.313-62.063 84.883-66.637 84.883-72.266ZM84.883-72.266"/>
<path d="M71.48 78.082H78.355V76.973H72.965V72.707H77.246V71.582H72.965V67.988H78.027V66.879H71.48ZM71.48 78.082" fill="#211e1e"/>
<path d="M107.883 25.746C107.883 31.387 103.324 35.953 97.703 35.953 92.078 35.953 87.52 31.387 87.52 25.746 87.52 20.117 92.078 15.543 97.703 15.543 103.324 15.543 107.883 20.117 107.883 25.746" fill="#ffffff"/>
<path transform="matrix(.997607,0,0,-1,0,0)" stroke-width=".969134" stroke-linecap="butt" stroke-miterlimit="4" stroke-linejoin="miter" fill="none" stroke="#211e1e" d="M108.142-25.746C108.142-31.387 103.572-35.953 97.937-35.953 92.299-35.953 87.729-31.387 87.729-25.746 87.729-20.117 92.299-15.543 97.937-15.543 103.572-15.543 108.142-20.117 108.142-25.746ZM108.142-25.746"/>
<path d="M94.547 31.383H96.031V26.055H100.156V31.383H101.641V20.18H100.156V24.93H96.031V20.18H94.547ZM94.547 31.383" fill="#211e1e"/>
<path d="M40.582 72.723C40.582 78.363 36.02 82.93 30.398 82.93 24.773 82.93 20.219 78.363 20.219 72.723 20.219 67.094 24.773 62.52 30.398 62.52 36.02 62.52 40.582 67.094 40.582 72.723" fill="#ffffff"/>
<path transform="matrix(.997607,0,0,-1,0,0)" stroke-width=".969134" stroke-linecap="butt" stroke-miterlimit="4" stroke-linejoin="miter" fill="none" stroke="#211e1e" d="M40.679-72.723C40.679-78.363 36.106-82.93 30.471-82.93 24.833-82.93 20.267-78.363 20.267-72.723 20.267-67.094 24.833-62.52 30.471-62.52 36.106-62.52 40.679-67.094 40.679-72.723ZM40.679-72.723"/>
<path d="M26.227 78.359H27.508L28.586 75.188H32.695L33.773 78.359H35.352L31.539 67.156H30.039ZM30.648 69.156 32.32 74.063H28.961ZM30.648 69.156" fill="#211e1e"/>
<path d="M.047 17.559C.047 18.23 .016 18.965 0 19.418H1.422L1.5 18.434H1.531C2 19.246 2.75 19.574 3.609 19.574 5.094 19.574 6.594 18.387 6.594 16.012 6.609 14.012 5.469 12.668 3.859 12.668 2.859 12.668 2.141 13.09 1.734 13.715H1.719V9.793H.047ZM1.719 15.621C1.719 15.465 1.734 15.309 1.766 15.184 1.938 14.449 2.563 13.965 3.25 13.965 4.359 13.965 4.906 14.918 4.906 16.074 4.906 17.418 4.266 18.246 3.234 18.246 2.516 18.246 1.938 17.762 1.75 17.09 1.734 16.965 1.719 16.824 1.719 16.699ZM1.719 15.621" fill="#bd2317"/>
<path d="M13.559 16.59C13.59 16.434 13.605 16.184 13.605 15.871 13.605 14.434 12.902 12.668 10.762 12.668 8.652 12.668 7.543 14.387 7.543 16.215 7.543 18.23 8.809 19.559 10.949 19.559 11.887 19.559 12.684 19.371 13.246 19.137L12.996 17.996C12.48 18.168 11.949 18.293 11.168 18.293 10.105 18.293 9.184 17.777 9.137 16.59ZM9.137 15.418C9.215 14.746 9.652 13.809 10.668 13.809 11.777 13.809 12.059 14.809 12.043 15.418ZM9.137 15.418" fill="#bd2317"/>
<path d="M14.543 19.09C15.027 19.371 15.746 19.559 16.543 19.559 18.293 19.559 19.23 18.684 19.23 17.48 19.215 16.496 18.668 15.887 17.465 15.465 16.637 15.152 16.324 14.965 16.324 14.543 16.324 14.137 16.637 13.84 17.246 13.84 17.824 13.84 18.355 14.059 18.637 14.23L18.965 13.059C18.574 12.84 17.949 12.668 17.215 12.668 15.684 12.668 14.715 13.559 14.715 14.73 14.715 15.512 15.246 16.215 16.527 16.652 17.34 16.949 17.621 17.168 17.621 17.621 17.621 18.043 17.293 18.355 16.559 18.355 15.965 18.355 15.246 18.105 14.887 17.871ZM14.543 19.09" fill="#bd2317"/>
<path d="M20.859 11.574V12.809H19.938V14.059H20.859V17.168C20.859 18.027 21.031 18.652 21.391 19.027 21.703 19.371 22.203 19.574 22.828 19.574 23.344 19.574 23.797 19.48 24.031 19.387L24 18.137C23.813 18.184 23.656 18.199 23.359 18.199 22.719 18.199 22.5 17.793 22.5 16.98V14.059H24.094V12.809H22.5V11.121ZM20.859 11.574" fill="#bd2317"/>
<path d="M32.754 17.98C32.441 18.121 32.02 18.23 31.441 18.23 30.316 18.23 29.426 17.465 29.426 16.105 29.426 14.902 30.176 13.965 31.441 13.965 32.051 13.965 32.441 14.09 32.707 14.23L33.004 12.965C32.629 12.793 32.004 12.668 31.395 12.668 29.082 12.668 27.723 14.199 27.723 16.184 27.723 18.23 29.066 19.559 31.129 19.559 31.957 19.559 32.645 19.371 32.988 19.215ZM32.754 17.98" fill="#bd2317"/>
<path d="M39.348 15.465C39.348 14.012 38.738 12.668 36.613 12.668 35.582 12.668 34.723 12.949 34.238 13.246L34.566 14.34C35.004 14.043 35.691 13.84 36.332 13.84 37.504 13.84 37.676 14.559 37.676 14.996V15.105C35.238 15.09 33.77 15.949 33.77 17.605 33.77 18.605 34.504 19.574 35.832 19.574 36.707 19.574 37.395 19.199 37.785 18.684H37.832L37.941 19.418H39.441C39.363 19.012 39.348 18.434 39.348 17.824ZM37.723 17.105C37.723 17.215 37.723 17.34 37.676 17.465 37.52 17.934 37.035 18.371 36.363 18.371 35.832 18.371 35.41 18.074 35.41 17.418 35.41 16.418 36.535 16.184 37.723 16.184ZM37.723 17.105" fill="#bd2317"/>
<path d="M40.695 19.09C41.18 19.371 41.898 19.559 42.695 19.559 44.445 19.559 45.383 18.684 45.383 17.48 45.367 16.496 44.82 15.887 43.617 15.465 42.789 15.152 42.477 14.965 42.477 14.543 42.477 14.137 42.789 13.84 43.398 13.84 43.977 13.84 44.508 14.059 44.789 14.23L45.117 13.059C44.727 12.84 44.102 12.668 43.367 12.668 41.836 12.668 40.867 13.559 40.867 14.73 40.867 15.512 41.398 16.215 42.68 16.652 43.492 16.949 43.773 17.168 43.773 17.621 43.773 18.043 43.445 18.355 42.711 18.355 42.117 18.355 41.398 18.105 41.039 17.871ZM40.695 19.09" fill="#bd2317"/>
<path d="M52.336 16.59C52.367 16.434 52.383 16.184 52.383 15.871 52.383 14.434 51.68 12.668 49.539 12.668 47.43 12.668 46.32 14.387 46.32 16.215 46.32 18.23 47.586 19.559 49.727 19.559 50.664 19.559 51.461 19.371 52.023 19.137L51.773 17.996C51.258 18.168 50.727 18.293 49.945 18.293 48.883 18.293 47.961 17.777 47.914 16.59ZM47.914 15.418C47.992 14.746 48.43 13.809 49.445 13.809 50.555 13.809 50.836 14.809 50.82 15.418ZM47.914 15.418" fill="#bd2317"/>
<path transform="matrix(.997607,0,0,-1,0,0)" stroke-width="1.938268" stroke-linecap="butt" stroke-miterlimit="4" stroke-linejoin="miter" fill="none" stroke="#211e1e" d="M252.209-69.047 241.374-87.418"/>
<path transform="matrix(.997607,0,0,-1,0,0)" stroke-width="1.938268" stroke-linecap="butt" stroke-miterlimit="4" stroke-linejoin="miter" fill="none" stroke="#211e1e" d="M251.97-68.59 277.343-93.23"/>
<path transform="matrix(.997607,0,0,-1,0,0)" stroke-width="1.938268" stroke-linecap="butt" stroke-miterlimit="4" stroke-linejoin="miter" fill="none" stroke="#211e1e" d="M275.468-92.309 264.633-110.676"/>
<path transform="matrix(.997607,0,0,-1,0,0)" stroke-width="1.938268" stroke-linecap="butt" stroke-miterlimit="4" stroke-linejoin="miter" fill="none" stroke="#211e1e" d="M275.233-91.848 286.067-110.219"/>
<path transform="matrix(.997607,0,0,-1,0,0)" stroke-width="1.938268" stroke-linecap="butt" stroke-miterlimit="4" stroke-linejoin="miter" fill="none" stroke="#211e1e" d="M323.148-91.848 333.983-110.219"/>
<path transform="matrix(.997607,0,0,-1,0,0)" stroke-width="1.938268" stroke-linecap="butt" stroke-miterlimit="4" stroke-linejoin="miter" fill="none" stroke="#211e1e" d="M298.727-45.789 251.179-69.973"/>
<path transform="matrix(.997607,0,0,-1,0,0)" stroke-width="1.938268" stroke-linecap="butt" stroke-miterlimit="4" stroke-linejoin="miter" fill="none" stroke="#211e1e" d="M298.48-45.332 344.152-67.066"/>
<path transform="matrix(.997607,0,0,-1,0,0)" stroke-width="1.938268" stroke-linecap="butt" stroke-miterlimit="4" stroke-linejoin="miter" fill="none" stroke="#211e1e" d="M321.985-92.309 311.151-110.676"/>
<path transform="matrix(.997607,0,0,-1,0,0)" stroke-width="1.938268" stroke-linecap="butt" stroke-miterlimit="4" stroke-linejoin="miter" fill="none" stroke="#211e1e" d="M345.17-69.047 321.75-91.852"/>
<path transform="matrix(.997607,0,0,-1,0,0)" stroke-width="1.938268" stroke-linecap="butt" stroke-miterlimit="4" stroke-linejoin="miter" fill="none" stroke="#211e1e" d="M344.935-68.59 355.769-86.957"/>
<path transform="matrix(.997607,0,0,-1,0,0)" stroke-width="1.938268" stroke-linecap="butt" stroke-miterlimit="4" stroke-linejoin="miter" fill="none" stroke="#211e1e" d="M368.428-22.531 297.697-46.715"/>
<g clip-path="url(#clip_5)">
<g clip-path="url(#clip_6)">
<path transform="matrix(.997607,0,0,-1,0,0)" stroke-width="1.938268" stroke-linecap="butt" stroke-miterlimit="4" stroke-linejoin="miter" fill="none" stroke="#211e1e" d="M368.194-22.07 393.571-46.711"/>
</g>
</g>
<path transform="matrix(.997607,0,0,-1,0,0)" stroke-width="1.938268" stroke-linecap="butt" stroke-miterlimit="4" stroke-linejoin="miter" fill="none" stroke="#211e1e" d="M391.687-45.789 380.857-64.156"/>
<g clip-path="url(#clip_7)">
<g clip-path="url(#clip_8)">
<path transform="matrix(.997607,0,0,-1,0,0)" stroke-width="1.938268" stroke-linecap="butt" stroke-miterlimit="4" stroke-linejoin="miter" fill="none" stroke="#211e1e" d="M391.452-45.332 402.287-63.699"/>
</g>
</g>
<path d="M261.602 68.586C261.602 74.227 257.039 78.793 251.418 78.793 245.797 78.793 241.238 74.227 241.238 68.586 241.238 62.957 245.797 58.383 251.418 58.383 257.039 58.383 261.602 62.957 261.602 68.586" fill="#ffffff"/>
<path transform="matrix(.997607,0,0,-1,0,0)" stroke-width=".969134" stroke-linecap="butt" stroke-miterlimit="4" stroke-linejoin="miter" fill="none" stroke="#211e1e" d="M262.229-68.586C262.229-74.227 257.656-78.793 252.021-78.793 246.386-78.793 241.817-74.227 241.817-68.586 241.817-62.957 246.386-58.383 252.021-58.383 257.656-58.383 262.229-62.957 262.229-68.586ZM262.229-68.586"/>
<path d="M247.246 74.223H248.527L249.605 71.051H253.715L254.793 74.223H256.371L252.559 63.02H251.059ZM251.668 65.02 253.34 69.926H249.98ZM251.668 65.02" fill="#211e1e"/>
<path d="M284.805 91.844C284.805 97.484 280.242 102.051 274.621 102.051 269 102.051 264.441 97.484 264.441 91.844 264.441 86.219 269 81.641 274.621 81.641 280.242 81.641 284.805 86.219 284.805 91.844" fill="#ffffff"/>
<path transform="matrix(.997607,0,0,-1,0,0)" stroke-width=".969134" stroke-linecap="butt" stroke-miterlimit="4" stroke-linejoin="miter" fill="none" stroke="#211e1e" d="M285.488-91.844C285.488-97.484 280.914-102.051 275.28-102.051 269.645-102.051 265.076-97.484 265.076-91.844 265.076-86.215 269.645-81.641 275.28-81.641 280.914-81.641 285.488-86.215 285.488-91.844ZM285.488-91.844"/>
<path d="M278.559 86.617C277.668 86.352 276.762 86.18 275.824 86.18 274.871 86.18 273.262 86.445 272.137 87.742 271.184 88.836 270.746 90.617 270.746 92.148 270.746 94.789 272.027 97.945 275.871 97.945 277.199 97.945 278.152 97.602 278.684 97.398V96.18C278.152 96.383 277.277 96.711 276.262 96.711 274.246 96.711 272.309 95.32 272.309 92.133 272.309 89.961 273.215 87.289 275.793 87.289 277.059 87.289 278.09 87.758 278.559 87.977ZM278.559 86.617" fill="#211e1e"/>
<path d="M308.008 45.328C308.008 50.969 303.445 55.535 297.824 55.535 292.203 55.535 287.645 50.969 287.645 45.328 287.645 39.699 292.203 35.125 297.824 35.125 303.445 35.125 308.008 39.699 308.008 45.328" fill="#ffffff"/>
<path transform="matrix(.997607,0,0,-1,0,0)" stroke-width=".969134" stroke-linecap="butt" stroke-miterlimit="4" stroke-linejoin="miter" fill="none" stroke="#211e1e" d="M308.747-45.328C308.747-50.969 304.173-55.535 298.539-55.535 292.904-55.535 288.334-50.969 288.334-45.328 288.334-39.699 292.904-35.125 298.539-35.125 304.173-35.125 308.747-39.699 308.747-45.328ZM308.747-45.328"/>
<path d="M295.199 50.961H302.074V49.852H296.684V45.586H300.965V44.461H296.684V40.867H301.746V39.758H295.199ZM295.199 50.961" fill="#211e1e"/>
<path d="M331.211 91.844C331.211 97.484 326.652 102.051 321.027 102.051 315.406 102.051 310.848 97.484 310.848 91.844 310.848 86.219 315.406 81.641 321.027 81.641 326.652 81.641 331.211 86.219 331.211 91.844" fill="#ffffff"/>
<path transform="matrix(.997607,0,0,-1,0,0)" stroke-width=".969134" stroke-linecap="butt" stroke-miterlimit="4" stroke-linejoin="miter" fill="none" stroke="#211e1e" d="M332.005-91.844C332.005-97.484 327.436-102.051 321.797-102.051 316.163-102.051 311.593-97.484 311.593-91.844 311.593-86.215 316.163-81.641 321.797-81.641 327.436-81.641 332.005-86.215 332.005-91.844ZM332.005-91.844"/>
<path d="M317.871 97.484H319.355V92.156H323.48V97.484H324.965V86.281H323.48V91.031H319.355V86.281H317.871ZM317.871 97.484" fill="#211e1e"/>
<path d="M354.34 68.586C354.34 74.227 349.781 78.793 344.156 78.793 338.535 78.793 333.977 74.227 333.977 68.586 333.977 62.957 338.535 58.383 344.156 58.383 349.781 58.383 354.34 62.957 354.34 68.586" fill="#ffffff"/>
<path transform="matrix(.997607,0,0,-1,0,0)" stroke-width="1.938268" stroke-linecap="butt" stroke-miterlimit="4" stroke-linejoin="miter" fill="none" stroke="#211e1e" d="M355.19-68.586C355.19-74.227 350.62-78.793 344.982-78.793 339.347-78.793 334.778-74.227 334.778-68.586 334.778-62.957 339.347-58.383 344.982-58.383 350.62-58.383 355.19-62.957 355.19-68.586ZM355.19-68.586"/>
<path d="M341.281 74.223H342.766V69.426H344.109L347.156 74.223H348.969L345.484 69.004C345.953 68.77 346.5 68.488 346.953 67.91 347.516 67.223 347.734 66.348 347.734 65.738 347.734 64.816 347.25 63.707 346.266 63.316 345.531 63.02 344.922 63.02 343.984 63.02H341.281ZM342.766 64.129H343.688C344.516 64.129 346.156 64.129 346.156 65.832 346.156 67.098 345.359 68.316 343.563 68.316H342.766ZM342.766 64.129" fill="#211e1e"/>
<path d="M377.543 22.066C377.543 27.707 372.988 32.273 367.363 32.273 361.738 32.273 357.18 27.707 357.18 22.066 357.18 16.438 361.738 11.863 367.363 11.863 372.988 11.863 377.543 16.438 377.543 22.066" fill="#ffffff"/>
<path transform="matrix(.997607,0,0,-1,0,0)" stroke-width=".969134" stroke-linecap="butt" stroke-miterlimit="4" stroke-linejoin="miter" fill="none" stroke="#211e1e" d="M378.449-22.066C378.449-27.707 373.883-32.273 368.244-32.273 362.606-32.273 358.036-27.707 358.036-22.066 358.036-16.438 362.606-11.863 368.244-11.863 373.883-11.863 378.449-16.438 378.449-22.066ZM378.449-22.066"/>
<path d="M364.332 27.438C365.223 27.688 366.332 27.984 367.535 27.984 368.316 27.984 369.223 27.844 369.941 27.453 370.988 26.859 371.535 25.797 371.535 24.688 371.535 23.125 370.551 22.406 369.332 21.75L367.301 20.703C366.879 20.484 365.801 19.922 365.801 18.922 365.801 17.594 367.004 17.328 367.816 17.328 369.098 17.328 370.207 17.766 370.723 17.969V16.688C370.066 16.484 369.098 16.219 367.832 16.219 366.52 16.219 365.895 16.547 365.473 16.875 364.816 17.375 364.41 18.203 364.41 19.125 364.41 20.5 365.176 21.281 366.551 22L368.707 23.141C369.285 23.453 370.051 24 370.051 24.891 370.051 26.172 368.988 26.859 367.723 26.859 366.301 26.859 365.02 26.297 364.332 25.984ZM364.332 27.438" fill="#211e1e"/>
<path d="M400.746 45.328C400.746 50.969 396.191 55.535 390.566 55.535 384.941 55.535 380.383 50.969 380.383 45.328 380.383 39.699 384.941 35.125 390.566 35.125 396.191 35.125 400.746 39.699 400.746 45.328" fill="#ffffff"/>
<g clip-path="url(#clip_9)">
<g clip-path="url(#clip_10)">
<path transform="matrix(.997607,0,0,-1,0,0)" stroke-width=".969134" stroke-linecap="butt" stroke-miterlimit="4" stroke-linejoin="miter" fill="none" stroke="#211e1e" d="M401.707-45.328C401.707-50.969 397.142-55.535 391.503-55.535 385.865-55.535 381.295-50.969 381.295-45.328 381.295-39.699 385.865-35.125 391.503-35.125 397.142-35.125 401.707-39.699 401.707-45.328ZM401.707-45.328"/>
</g>
<path d="M386.379 50.961H387.832L390.863 46.367 393.738 50.961H395.504L391.801 45.07 395.316 39.758H393.863L391.098 43.945 388.473 39.758H386.707L390.16 45.242ZM386.379 50.961" fill="#211e1e"/>
</g>
<path d="M221.313 12.281V13.516H220.391V14.766H221.313V17.875C221.313 18.734 221.484 19.359 221.844 19.734 222.156 20.078 222.656 20.281 223.281 20.281 223.797 20.281 224.25 20.188 224.484 20.094L224.453 18.844C224.266 18.891 224.109 18.906 223.813 18.906 223.172 18.906 222.953 18.5 222.953 17.688V14.766H224.547V13.516H222.953V11.828ZM221.313 12.281" fill="#bd2317"/>
<path d="M225.109 13.516 227.531 19.578C227.594 19.75 227.609 19.844 227.609 19.906 227.609 19.984 227.578 20.078 227.516 20.203 227.281 20.656 226.922 21.047 226.594 21.25 226.266 21.5 225.922 21.641 225.641 21.719L226.016 23.109C226.422 23.047 227.094 22.844 227.766 22.266 228.531 21.594 229.141 20.484 230.047 18.016L231.703 13.516H229.922L228.891 17.047C228.766 17.469 228.641 17.969 228.547 18.328H228.5C228.406 17.969 228.266 17.469 228.125 17.063L226.953 13.516ZM225.109 13.516" fill="#bd2317"/>
<path d="M232.66 22.813H234.332V19.391H234.348C234.691 19.922 235.379 20.281 236.207 20.281 237.707 20.281 239.207 19.125 239.207 16.734 239.207 14.672 237.957 13.375 236.441 13.375 235.441 13.375 234.66 13.797 234.176 14.531H234.145L234.066 13.516H232.613C232.629 14.141 232.66 14.844 232.66 15.719ZM234.332 16.344C234.332 16.203 234.348 16.063 234.379 15.922 234.551 15.188 235.191 14.688 235.879 14.688 236.957 14.688 237.52 15.641 237.52 16.797 237.52 18.109 236.895 18.984 235.848 18.984 235.129 18.984 234.551 18.5 234.363 17.813 234.348 17.672 234.332 17.516 234.332 17.359ZM234.332 16.344" fill="#bd2317"/>
<path d="M242.25 20.125V13.516H240.578V20.125ZM241.422 10.766C240.859 10.766 240.484 11.156 240.484 11.672 240.484 12.156 240.844 12.578 241.406 12.578 241.984 12.578 242.359 12.156 242.359 11.672 242.344 11.156 241.984 10.766 241.422 10.766ZM241.422 10.766" fill="#bd2317"/>
<path d="M248.652 18.688C248.34 18.828 247.918 18.938 247.34 18.938 246.215 18.938 245.324 18.172 245.324 16.813 245.324 15.609 246.074 14.672 247.34 14.672 247.949 14.672 248.34 14.797 248.605 14.938L248.902 13.672C248.527 13.5 247.902 13.375 247.293 13.375 244.98 13.375 243.621 14.906 243.621 16.891 243.621 18.938 244.965 20.266 247.027 20.266 247.855 20.266 248.543 20.078 248.887 19.922ZM248.652 18.688" fill="#bd2317"/>
<path d="M255.246 16.172C255.246 14.719 254.637 13.375 252.512 13.375 251.48 13.375 250.621 13.656 250.137 13.953L250.465 15.047C250.902 14.75 251.59 14.547 252.23 14.547 253.402 14.547 253.574 15.266 253.574 15.703V15.813C251.137 15.797 249.668 16.656 249.668 18.313 249.668 19.313 250.402 20.281 251.73 20.281 252.605 20.281 253.293 19.906 253.684 19.391H253.73L253.84 20.125H255.34C255.262 19.719 255.246 19.141 255.246 18.531ZM253.621 17.813C253.621 17.922 253.621 18.047 253.574 18.172 253.418 18.641 252.934 19.078 252.262 19.078 251.73 19.078 251.309 18.781 251.309 18.125 251.309 17.125 252.434 16.891 253.621 16.891ZM253.621 17.813" fill="#bd2317"/>
<path d="M256.996 10.5H258.668V20.125H256.996Z" fill="#bd2317"/>
<path d="M267.887 18.688C267.574 18.828 267.152 18.938 266.574 18.938 265.449 18.938 264.559 18.172 264.559 16.813 264.559 15.609 265.309 14.672 266.574 14.672 267.184 14.672 267.574 14.797 267.84 14.938L268.137 13.672C267.762 13.5 267.137 13.375 266.527 13.375 264.215 13.375 262.855 14.906 262.855 16.891 262.855 18.938 264.199 20.266 266.262 20.266 267.09 20.266 267.777 20.078 268.121 19.922ZM267.887 18.688" fill="#bd2317"/>
<path d="M274.48 16.172C274.48 14.719 273.871 13.375 271.746 13.375 270.715 13.375 269.855 13.656 269.371 13.953L269.699 15.047C270.137 14.75 270.824 14.547 271.465 14.547 272.637 14.547 272.809 15.266 272.809 15.703V15.813C270.371 15.797 268.902 16.656 268.902 18.313 268.902 19.313 269.637 20.281 270.965 20.281 271.84 20.281 272.527 19.906 272.918 19.391H272.965L273.074 20.125H274.574C274.496 19.719 274.48 19.141 274.48 18.531ZM272.855 17.813C272.855 17.922 272.855 18.047 272.809 18.172 272.652 18.641 272.168 19.078 271.496 19.078 270.965 19.078 270.543 18.781 270.543 18.125 270.543 17.125 271.668 16.891 272.855 16.891ZM272.855 17.813" fill="#bd2317"/>
<path d="M275.824 19.797C276.309 20.078 277.027 20.266 277.824 20.266 279.574 20.266 280.512 19.391 280.512 18.188 280.496 17.203 279.949 16.594 278.746 16.172 277.918 15.859 277.605 15.672 277.605 15.25 277.605 14.844 277.918 14.547 278.527 14.547 279.105 14.547 279.637 14.766 279.918 14.938L280.246 13.766C279.855 13.547 279.23 13.375 278.496 13.375 276.965 13.375 275.996 14.266 275.996 15.438 275.996 16.219 276.527 16.922 277.809 17.359 278.621 17.656 278.902 17.875 278.902 18.328 278.902 18.75 278.574 19.063 277.84 19.063 277.246 19.063 276.527 18.813 276.168 18.578ZM275.824 19.797" fill="#bd2317"/>
<path d="M287.469 17.297C287.5 17.141 287.516 16.891 287.516 16.578 287.516 15.141 286.813 13.375 284.672 13.375 282.563 13.375 281.453 15.094 281.453 16.922 281.453 18.938 282.719 20.266 284.859 20.266 285.797 20.266 286.594 20.078 287.156 19.844L286.906 18.703C286.391 18.875 285.859 19 285.078 19 284.016 19 283.094 18.484 283.047 17.297ZM283.047 16.125C283.125 15.453 283.563 14.516 284.578 14.516 285.688 14.516 285.969 15.516 285.953 16.125ZM283.047 16.125" fill="#bd2317"/>
<path transform="matrix(.997607,0,0,-1,0,0)" stroke-width="1.938268" stroke-linecap="butt" stroke-miterlimit="4" stroke-linejoin="miter" fill="none" stroke="#211e1e" d="M490.651-51.199 508.416-70.582"/>
<path transform="matrix(.997607,0,0,-1,0,0)" stroke-width="1.938268" stroke-linecap="butt" stroke-miterlimit="4" stroke-linejoin="miter" fill="none" stroke="#211e1e" d="M449.787-11.148 469.976-31.496"/>
<path transform="matrix(.997607,0,0,-1,0,0)" stroke-width="1.938268" stroke-linecap="butt" stroke-miterlimit="4" stroke-linejoin="miter" fill="none" stroke="#211e1e" d="M448.01-10.496 440.883-27.121"/>
<path transform="matrix(.997607,0,0,-1,0,0)" stroke-width="1.938268" stroke-linecap="butt" stroke-miterlimit="4" stroke-linejoin="miter" fill="none" stroke="#211e1e" d="M509.884-69.336 499.05-87.707"/>
<path transform="matrix(.997607,0,0,-1,0,0)" stroke-width="1.938268" stroke-linecap="butt" stroke-miterlimit="4" stroke-linejoin="miter" fill="none" stroke="#211e1e" d="M547.368-109.996 563.994-127.898"/>
<path transform="matrix(.997607,0,0,-1,0,0)" stroke-width="1.938268" stroke-linecap="butt" stroke-miterlimit="4" stroke-linejoin="miter" fill="none" stroke="#211e1e" d="M528.444-90.289 547.18-110.32"/>
<path transform="matrix(.997607,0,0,-1,0,0)" stroke-width="1.938268" stroke-linecap="butt" stroke-miterlimit="4" stroke-linejoin="miter" fill="none" stroke="#211e1e" d="M508.095-70.262 527.477-89.645"/>
<path transform="matrix(.997607,0,0,-1,0,0)" stroke-width="1.938268" stroke-linecap="butt" stroke-miterlimit="4" stroke-linejoin="miter" fill="none" stroke="#211e1e" d="M564.797-129.883 575.291-146.824"/>
<path transform="matrix(.997607,0,0,-1,0,0)" stroke-width="1.938268" stroke-linecap="butt" stroke-miterlimit="4" stroke-linejoin="miter" fill="none" stroke="#211e1e" d="M528.221-90.16 521.267-106.586"/>
<path transform="matrix(.997607,0,0,-1,0,0)" stroke-width="1.938268" stroke-linecap="butt" stroke-miterlimit="4" stroke-linejoin="miter" fill="none" stroke="#211e1e" d="M545.665-109.863 538.711-126.293"/>
<g clip-path="url(#clip_11)">
<g clip-path="url(#clip_12)">
<path transform="matrix(.997607,0,0,-1,0,0)" stroke-width="1.938268" stroke-linecap="butt" stroke-miterlimit="4" stroke-linejoin="miter" fill="none" stroke="#211e1e" d="M563.203-129.801 555.904-147.793"/>
</g>
</g>
<path transform="matrix(.997607,0,0,-1,0,0)" stroke-width="1.938268" stroke-linecap="butt" stroke-miterlimit="4" stroke-linejoin="miter" fill="none" stroke="#211e1e" d="M471.139-32.508 489.358-50.23"/>
<path transform="matrix(.997607,0,0,-1,0,0)" stroke-width="1.938268" stroke-linecap="butt" stroke-miterlimit="4" stroke-linejoin="miter" fill="none" stroke="#211e1e" d="M469.181-31.582 462.223-48.012"/>
<path transform="matrix(.997607,0,0,-1,0,0)" stroke-width="1.938268" stroke-linecap="butt" stroke-miterlimit="4" stroke-linejoin="miter" fill="none" stroke="#211e1e" d="M488.239-51.934 481.281-68.367"/>
<path d="M436.539 10.688C436.539 16.328 441.102 20.895 446.723 20.895 452.344 20.895 456.902 16.328 456.902 10.688 456.902 5.059 452.344 .484 446.723 .484 441.102 .484 436.539 5.059 436.539 10.688" fill="#ffffff"/>
<path transform="matrix(.997607,0,0,-1,0,0)" stroke-width=".969134" stroke-linecap="butt" stroke-miterlimit="4" stroke-linejoin="miter" fill="none" stroke="#211e1e" d="M437.586-10.688C437.586-16.328 442.16-20.895 447.794-20.895 453.429-20.895 457.998-16.328 457.998-10.688 457.998-5.059 453.429-.484 447.794-.484 442.16-.484 437.586-5.059 437.586-10.688ZM437.586-10.688"/>
<path d="M441.77 16.32H443.051L444.129 13.148H448.238L449.316 16.32H450.895L447.082 5.117H445.582ZM446.191 7.117 447.863 12.023H444.504ZM446.191 7.117" fill="#211e1e"/>
<path d="M517.754 70.715C517.754 76.355 513.195 80.922 507.57 80.922 501.949 80.922 497.391 76.355 497.391 70.715 497.391 65.086 501.949 60.512 507.57 60.512 513.195 60.512 517.754 65.086 517.754 70.715" fill="#ffffff"/>
<path transform="matrix(.997607,0,0,-1,0,0)" stroke-width=".969134" stroke-linecap="butt" stroke-miterlimit="4" stroke-linejoin="miter" fill="none" stroke="#211e1e" d="M518.996-70.715C518.996-76.355 514.426-80.922 508.788-80.922 503.153-80.922 498.584-76.355 498.584-70.715 498.584-65.086 503.153-60.512 508.788-60.512 514.426-60.512 518.996-65.086 518.996-70.715ZM518.996-70.715"/>
<path d="M510.73 76.352H509.246V71.023H505.121V76.352H503.637V65.148H505.121V69.898H509.246V65.148H510.73ZM510.73 76.352" fill="#211e1e"/>
<path d="M536.066 109.535C536.066 115.176 540.621 119.746 546.246 119.746 551.867 119.746 556.426 115.176 556.426 109.535 556.426 103.91 551.867 99.336 546.246 99.336 540.621 99.336 536.066 103.91 536.066 109.535" fill="#ffffff"/>
<path transform="matrix(.997607,0,0,-1,0,0)" stroke-width=".969134" stroke-linecap="butt" stroke-miterlimit="4" stroke-linejoin="miter" fill="none" stroke="#211e1e" d="M537.352-109.535C537.352-115.176 541.918-119.746 547.556-119.746 553.191-119.746 557.76-115.176 557.76-109.535 557.76-103.91 553.191-99.336 547.556-99.336 541.918-99.336 537.352-103.91 537.352-109.535ZM537.352-109.535"/>
<path d="M542.434 114.906C543.324 115.156 544.434 115.453 545.637 115.453 546.418 115.453 547.324 115.313 548.043 114.922 549.09 114.328 549.637 113.266 549.637 112.156 549.637 110.594 548.652 109.875 547.434 109.219L545.402 108.172C544.98 107.953 543.902 107.391 543.902 106.391 543.902 105.063 545.105 104.797 545.918 104.797 547.199 104.797 548.309 105.234 548.824 105.438V104.156C548.168 103.953 547.199 103.688 545.934 103.688 544.621 103.688 543.996 104.016 543.574 104.344 542.918 104.844 542.512 105.672 542.512 106.594 542.512 107.969 543.277 108.75 544.652 109.469L546.809 110.609C547.387 110.922 548.152 111.469 548.152 112.359 548.152 113.641 547.09 114.328 545.824 114.328 544.402 114.328 543.121 113.766 542.434 113.453ZM542.434 114.906" fill="#211e1e"/>
<path d="M516.73 90.156C516.73 95.797 521.289 100.363 526.91 100.363 532.531 100.363 537.09 95.797 537.09 90.156 537.09 84.527 532.531 79.953 526.91 79.953 521.289 79.953 516.73 84.527 516.73 90.156" fill="#ffffff"/>
<path transform="matrix(.997607,0,0,-1,0,0)" stroke-width=".969134" stroke-linecap="butt" stroke-miterlimit="4" stroke-linejoin="miter" fill="none" stroke="#211e1e" d="M517.97-90.156C517.97-95.797 522.539-100.363 528.174-100.363 533.809-100.363 538.378-95.797 538.378-90.156 538.378-84.527 533.809-79.953 528.174-79.953 522.539-79.953 517.97-84.527 517.97-90.156ZM517.97-90.156"/>
<path d="M523.645 95.973H525.129V91.176H526.473L529.52 95.973H531.332L527.848 90.754C528.316 90.52 528.863 90.238 529.316 89.66 529.879 88.973 530.098 88.098 530.098 87.488 530.098 86.566 529.613 85.457 528.629 85.066 527.895 84.77 527.285 84.77 526.348 84.77H523.645ZM525.129 85.879H526.051C526.879 85.879 528.52 85.879 528.52 87.582 528.52 88.848 527.723 90.066 525.926 90.066H525.129ZM525.129 85.879" fill="#211e1e"/>
<path d="M553.09 129.379C553.09 135.02 557.652 139.586 563.277 139.586 568.898 139.586 573.457 135.02 573.457 129.379 573.457 123.75 568.898 119.176 563.277 119.176 557.652 119.176 553.09 123.75 553.09 129.379" fill="#ffffff"/>
<path transform="matrix(.997607,0,0,-1,0,0)" stroke-width=".969134" stroke-linecap="butt" stroke-miterlimit="4" stroke-linejoin="miter" fill="none" stroke="#211e1e" d="M554.416-129.379C554.416-135.02 558.99-139.586 564.628-139.586 570.263-139.586 574.833-135.02 574.833-129.379 574.833-123.75 570.263-119.176 564.628-119.176 558.99-119.176 554.416-123.75 554.416-129.379ZM554.416-129.379"/>
<path d="M558.305 135.016H559.758L562.789 130.422 565.664 135.016H567.43L563.727 129.125 567.242 123.813H565.789L563.023 128 560.398 123.813H558.633L562.086 129.297ZM558.305 135.016" fill="#211e1e"/>
<path d="M478.055 31.121C478.055 36.762 473.492 41.328 467.871 41.328 462.25 41.328 457.691 36.762 457.691 31.121 457.691 25.492 462.25 20.918 467.871 20.918 473.492 20.918 478.055 25.492 478.055 31.121" fill="#ffffff"/>
<path transform="matrix(.997607,0,0,-1,0,0)" stroke-width=".969134" stroke-linecap="butt" stroke-miterlimit="4" stroke-linejoin="miter" fill="none" stroke="#211e1e" d="M479.201-31.121C479.201-36.762 474.628-41.328 468.993-41.328 463.359-41.328 458.789-36.762 458.789-31.121 458.789-25.492 463.359-20.918 468.993-20.918 474.628-20.918 479.201-25.492 479.201-31.121ZM479.201-31.121"/>
<path d="M472.203 25.715C471.313 25.449 470.406 25.277 469.469 25.277 468.516 25.277 466.906 25.543 465.781 26.84 464.828 27.934 464.391 29.715 464.391 31.246 464.391 33.887 465.672 37.043 469.516 37.043 470.844 37.043 471.797 36.699 472.328 36.496V35.277C471.797 35.48 470.922 35.809 469.906 35.809 467.891 35.809 465.953 34.418 465.953 31.23 465.953 29.059 466.859 26.387 469.438 26.387 470.703 26.387 471.734 26.855 472.203 27.074ZM472.203 25.715" fill="#211e1e"/>
<path d="M497.391 50.504C497.391 56.145 492.828 60.711 487.207 60.711 481.586 60.711 477.027 56.145 477.027 50.504 477.027 44.875 481.586 40.301 487.207 40.301 492.828 40.301 497.391 44.875 497.391 50.504" fill="#ffffff"/>
<path transform="matrix(.997607,0,0,-1,0,0)" stroke-width=".969134" stroke-linecap="butt" stroke-miterlimit="4" stroke-linejoin="miter" fill="none" stroke="#211e1e" d="M498.584-50.504C498.584-56.145 494.01-60.711 488.376-60.711 482.741-60.711 478.172-56.145 478.172-50.504 478.172-44.875 482.741-40.301 488.376-40.301 494.01-40.301 498.584-44.875 498.584-50.504ZM498.584-50.504"/>
<path d="M484.586 56.145H491.461V55.035H486.07V50.77H490.352V49.645H486.07V46.051H491.133V44.941H484.586ZM484.586 56.145" fill="#211e1e"/>
<path d="M507.066 13.59 509.02 20.199H510.566L511.41 17.512C511.598 16.855 511.77 16.215 511.91 15.402H511.941C512.082 16.199 512.238 16.824 512.441 17.512L513.223 20.199H514.77L516.832 13.59H515.207L514.473 16.527C514.301 17.293 514.129 18.012 514.035 18.73H514.004C513.863 18.012 513.691 17.293 513.488 16.527L512.66 13.59H511.301L510.441 16.605C510.254 17.277 510.051 18.012 509.91 18.73H509.879C509.754 18.012 509.613 17.293 509.457 16.59L508.77 13.59ZM507.066 13.59" fill="#bd2317"/>
<path d="M520.73 13.449C518.73 13.449 517.309 14.777 517.309 16.949 517.309 19.074 518.762 20.355 520.621 20.355 522.293 20.355 523.996 19.262 523.996 16.84 523.996 14.824 522.684 13.449 520.73 13.449ZM520.684 14.652C521.824 14.652 522.277 15.84 522.277 16.871 522.277 18.215 521.621 19.137 520.668 19.137 519.668 19.137 519.027 18.184 519.027 16.902 519.027 15.809 519.512 14.652 520.684 14.652ZM520.684 14.652" fill="#bd2317"/>
<path d="M525.363 20.199H527.035V16.762C527.035 16.59 527.051 16.418 527.066 16.262 527.223 15.512 527.77 15.012 528.566 15.012 528.77 15.012 528.91 15.012 529.066 15.043V13.48C528.926 13.465 528.832 13.449 528.66 13.449 527.957 13.449 527.176 13.918 526.848 14.84H526.816L526.738 13.59H525.316C525.348 14.184 525.363 14.824 525.363 15.73ZM525.363 20.199" fill="#bd2317"/>
<path d="M529.777 19.871C530.262 20.152 530.98 20.34 531.777 20.34 533.527 20.34 534.465 19.465 534.465 18.262 534.449 17.277 533.902 16.668 532.699 16.246 531.871 15.934 531.559 15.746 531.559 15.324 531.559 14.918 531.871 14.621 532.48 14.621 533.059 14.621 533.59 14.84 533.871 15.012L534.199 13.84C533.809 13.621 533.184 13.449 532.449 13.449 530.918 13.449 529.949 14.34 529.949 15.512 529.949 16.293 530.48 16.996 531.762 17.434 532.574 17.73 532.855 17.949 532.855 18.402 532.855 18.824 532.527 19.137 531.793 19.137 531.199 19.137 530.48 18.887 530.121 18.652ZM529.777 19.871" fill="#bd2317"/>
<path d="M536.094 12.355V13.59H535.172V14.84H536.094V17.949C536.094 18.809 536.266 19.434 536.625 19.809 536.938 20.152 537.438 20.355 538.063 20.355 538.578 20.355 539.031 20.262 539.266 20.168L539.234 18.918C539.047 18.965 538.891 18.98 538.594 18.98 537.953 18.98 537.734 18.574 537.734 17.762V14.84H539.328V13.59H537.734V11.902ZM536.094 12.355" fill="#bd2317"/>
<path d="M547.988 18.762C547.676 18.902 547.254 19.012 546.676 19.012 545.551 19.012 544.66 18.246 544.66 16.887 544.66 15.684 545.41 14.746 546.676 14.746 547.285 14.746 547.676 14.871 547.941 15.012L548.238 13.746C547.863 13.574 547.238 13.449 546.629 13.449 544.316 13.449 542.957 14.98 542.957 16.965 542.957 19.012 544.301 20.34 546.363 20.34 547.191 20.34 547.879 20.152 548.223 19.996ZM547.988 18.762" fill="#bd2317"/>
<path d="M554.582 16.246C554.582 14.793 553.973 13.449 551.848 13.449 550.816 13.449 549.957 13.73 549.473 14.027L549.801 15.121C550.238 14.824 550.926 14.621 551.566 14.621 552.738 14.621 552.91 15.34 552.91 15.777V15.887C550.473 15.871 549.004 16.73 549.004 18.387 549.004 19.387 549.738 20.355 551.066 20.355 551.941 20.355 552.629 19.98 553.02 19.465H553.066L553.176 20.199H554.676C554.598 19.793 554.582 19.215 554.582 18.605ZM552.957 17.887C552.957 17.996 552.957 18.121 552.91 18.246 552.754 18.715 552.27 19.152 551.598 19.152 551.066 19.152 550.645 18.855 550.645 18.199 550.645 17.199 551.77 16.965 552.957 16.965ZM552.957 17.887" fill="#bd2317"/>
<path d="M555.926 19.871C556.41 20.152 557.129 20.34 557.926 20.34 559.676 20.34 560.613 19.465 560.613 18.262 560.598 17.277 560.051 16.668 558.848 16.246 558.02 15.934 557.707 15.746 557.707 15.324 557.707 14.918 558.02 14.621 558.629 14.621 559.207 14.621 559.738 14.84 560.02 15.012L560.348 13.84C559.957 13.621 559.332 13.449 558.598 13.449 557.066 13.449 556.098 14.34 556.098 15.512 556.098 16.293 556.629 16.996 557.91 17.434 558.723 17.73 559.004 17.949 559.004 18.402 559.004 18.824 558.676 19.137 557.941 19.137 557.348 19.137 556.629 18.887 556.27 18.652ZM555.926 19.871" fill="#bd2317"/>
<path d="M567.57 17.371C567.602 17.215 567.617 16.965 567.617 16.652 567.617 15.215 566.914 13.449 564.773 13.449 562.664 13.449 561.555 15.168 561.555 16.996 561.555 19.012 562.82 20.34 564.961 20.34 565.898 20.34 566.695 20.152 567.258 19.918L567.008 18.777C566.492 18.949 565.961 19.074 565.18 19.074 564.117 19.074 563.195 18.559 563.148 17.371ZM563.148 16.199C563.227 15.527 563.664 14.59 564.68 14.59 565.789 14.59 566.07 15.59 566.055 16.199ZM563.148 16.199" fill="#bd2317"/>
</g>
</svg>
