<svg xmlns="http://www.w3.org/2000/svg" xmlns:xlink="http://www.w3.org/1999/xlink" xmlns:inkscape="http://www.inkscape.org/namespaces/inkscape" version="1.1" width="359.4" height="155.31229" viewBox="0 0 359.4 155.31229">
<defs>
<path id="font_1_1" d="M.53515627 .7050781V.60839846C.49772135 .62646487 .46240235 .6399333 .42919923 .6488037 .3959961 .65767416 .36393229 .6621094 .3330078 .6621094 .27929688 .6621094 .23787435 .6516774 .20874024 .6308136 .17960613 .6099599 .16503906 .58030197 .16503906 .5418396 .16503906 .5095723 .17472331 .48520408 .1940918 .46873475 .21346028 .4522756 .25016276 .43899537 .30419923 .42889405L.36376954 .41670228C.43733726 .4026947 .49161784 .37802125 .5266113 .34268189 .5616048 .3073527 .57910159 .26005046 .57910159 .20077515 .57910159 .13010662 .5554199 .076533 .50805667 .04005432 .46069337 .0035858155 .39127604-.0146484379 .2998047-.0146484379 .26529948-.0146484379 .228597-.010701497 .18969727-.0028076173 .15079753 .005086263 .11051432 .016764323 .068847659 .032226564V.13378906C.10888672 .11116537 .14811199 .09411621 .18652344 .0826416 .22493489 .07116699 .2626953 .06542969 .2998047 .06542969 .35611979 .06542969 .3995768 .07650757 .43017579 .09866333 .46077476 .12082926 .47607423 .15244039 .47607423 .1934967 .47607423 .22934468 .4650879 .25737 .44311524 .27757264 .42114259 .29778544 .38509117 .3129425 .33496095 .32304383L.27490235 .3347473C.20133464 .3494059 .14811199 .37236534 .115234378 .4036255 .08235677 .43489585 .06591797 .4783783 .06591797 .5340729 .06591797 .5985565 .08862305 .6493632 .1340332 .6864929 .17944336 .7236226 .24202474 .7421875 .32177735 .7421875 .35595704 .7421875 .39078776 .73909506 .42626954 .73291018 .4617513 .7267253 .49804688 .71744796 .53515627 .7050781Z"/>
<path id="font_1_2" d="M.09814453 .7294922H.55908206V.6464844H.19677735V.43066407H.5439453V.34765626H.19677735V.08300781H.5678711V0H.09814453V.7294922Z"/>
<path id="font_1_3" d="M.06298828 .7294922H.16894531L.35009767 .4584961 .53222659 .7294922H.6381836L.4038086 .37916566 .6538086 0H.54785159L.34277345 .3100586 .13623047 0H.029785157L.29003907 .38941957 .06298828 .7294922Z"/>
<path id="font_1_4" d="M.34179688 .6323242 .20800781 .26953126H.47607423L.34179688 .6323242M.2861328 .7294922H.39794923L.67578127 0H.5732422L.50683596 .1875H.17822266L.111816409 0H.0078125L.2861328 .7294922Z"/>
<path id="font_1_5" d="M.44384767 .34228517C.4650065 .33511354 .4855957 .3197937 .50561526 .29632569 .52563479 .27286784 .54573568 .24060567 .56591799 .19953919L.6660156 0H.5600586L.46679688 .18730164C.44270835 .23621114 .4193522 .26865135 .39672853 .2846222 .37410484 .30060325 .34326173 .30859376 .30419923 .30859376H.19677735V0H.09814453V.7294922H.32080079C.40413413 .7294922 .4663086 .71207687 .5073242 .6772461 .54833987 .64241537 .56884768 .58984377 .56884768 .51953127 .56884768 .4736328 .5581868 .43554688 .53686526 .40527345 .51554366 .375 .48453776 .3540039 .44384767 .34228517M.19677735 .6484375V.38964845H.32080079C.3683268 .38964845 .40421549 .40063478 .4284668 .42260743 .4527181 .44458009 .46484376 .47688804 .46484376 .51953127 .46484376 .5621745 .4527181 .59431967 .4284668 .6159668 .40421549 .63761398 .3683268 .6484375 .32080079 .6484375H.19677735Z"/>
<path id="font_1_6" d="M.64404299 .67285159V.5683594C.61083987 .5994466 .57543948 .62268069 .5378418 .6380615 .50024417 .6534424 .46028648 .6611328 .41796876 .6611328 .3346354 .6611328 .27083335 .63564047 .2265625 .58465579 .18229167 .5336711 .16015625 .45996095 .16015625 .3635254 .16015625 .26741538 .18229167 .193868 .2265625 .1428833 .27083335 .0918986 .3346354 .06640625 .41796876 .06640625 .46028648 .06640625 .50024417 .07409668 .5378418 .08947754 .57543948 .1048584 .61083987 .12809246 .64404299 .15917969V.055664064C.6095378 .032226564 .57299807 .0146484379 .5344238 .0029296876 .4958496-.0087890629 .45507813-.0146484379 .41210938-.0146484379 .3017578-.0146484379 .21484375 .019144694 .15136719 .08673096 .087890628 .1543274 .056152345 .24659221 .056152345 .3635254 .056152345 .4807841 .087890628 .5732066 .15136719 .64079287 .21484375 .7083893 .3017578 .7421875 .41210938 .7421875 .45572917 .7421875 .49682618 .7364095 .5354004 .7248535 .5739746 .71329757 .6101888 .69596359 .64404299 .67285159Z"/>
<path id="font_1_7" d="M.09814453 .7294922H.19677735V.43066407H.5551758V.7294922H.6538086V0H.5551758V.34765626H.19677735V0H.09814453V.7294922Z"/>
<path id="font_1_8" d="M.09814453 .7294922H.24511719L.43115235 .23339844 .61816409 .7294922H.7651367V0H.6689453V.640625L.48095704 .140625H.38183595L.19384766 .640625V0H.09814453V.7294922Z"/>
<path id="font_2_1" d="M.2861328 .7597656H.5361328V0H.44580079V.6845703H.28515626C.2529297 .6845703 .23055013 .67808029 .21801758 .6651001 .20548503 .6521301 .19921875 .6287791 .19921875 .595047V.546875H.34716798V.4765625H.19921875V0H.10888672V.4765625H.022949219V.546875H.10888672V.58496096C.10888672 .6458333 .123046878 .69018557 .15136719 .7180176 .1796875 .7458496 .22460938 .7597656 .2861328 .7597656Z"/>
<path id="font_1_9" d="M.30615235 .484375C.25797526 .484375 .21988933 .4655304 .19189453 .4278412 .16389974 .39016215 .14990235 .3385315 .14990235 .27294923 .14990235 .20736695 .16381836 .1557312 .19165039 .11804199 .21948242 .08036295 .25764976 .061523439 .30615235 .061523439 .3540039 .061523439 .3919271 .080444339 .41992188 .11828613 .44791667 .1561381 .46191407 .20769246 .46191407 .27294923 .46191407 .33788047 .44791667 .38934837 .41992188 .4273529 .3919271 .46536765 .3540039 .484375 .30615235 .484375M.30615235 .5605469C.38427735 .5605469 .44563804 .5351105 .49023438 .48423768 .53483077 .43337504 .5571289 .36294557 .5571289 .27294923 .5571289 .1832784 .53483077 .11292521 .49023438 .06188965 .44563804 .010864258 .38427735-.0146484379 .30615235-.0146484379 .22770183-.0146484379 .16625977 .010864258 .12182617 .06188965 .07739258 .11292521 .05517578 .1832784 .05517578 .27294923 .05517578 .36294557 .07739258 .43337504 .12182617 .48423768 .16625977 .5351105 .22770183 .5605469 .30615235 .5605469Z"/>
<path id="font_1_10" d="M.4111328 .46289063C.40104167 .46891276 .39005534 .473348 .37817384 .4761963 .36629234 .4790446 .3531901 .48046876 .3388672 .48046876 .28808595 .48046876 .24910482 .4639028 .22192383 .43077088 .19474285 .39764915 .18115235 .3500875 .18115235 .28808595V0H.09082031V.546875H.18115235V.46191407C.20003255 .49527995 .22460938 .52006027 .2548828 .5362549 .28515626 .5524495 .3219401 .5605469 .36523438 .5605469 .37141929 .5605469 .37825523 .56013998 .3857422 .5593262 .39322917 .5585124 .40152995 .5572917 .41064454 .55566409L.4111328 .46289063Z"/>
<path id="font_1_11" d="M.3100586 .75878909C.2664388 .68391928 .23404949 .6098633 .21289063 .5366211 .19173177 .4633789 .18115235 .38916017 .18115235 .31396485 .18115235 .23876953 .19181316 .16430664 .21313477 .09057617 .23445638 .016845704 .2667643-.057291669 .3100586-.13183594H.2319336C.18310547-.055338544 .14656575 .019856772 .12231445 .09375 .09806315 .16764324 .0859375 .24104817 .0859375 .31396485 .0859375 .386556 .09798177 .4596354 .12207031 .5332031 .14615886 .6067708 .18277996 .6819661 .2319336 .75878909H.3100586Z"/>
<path id="font_1_12" d="M.59521487 .10359192V.2998047H.43408204V.38085938H.6928711V.06738281C.65478518 .040364583 .61279299 .01993815 .56689456 .0061035158 .5209961-.0077311198 .47200523-.0146484379 .41992188-.0146484379 .3059896-.0146484379 .21687825 .018656413 .15258789 .08526611 .08829752 .15187581 .056152345 .2446289 .056152345 .3635254 .056152345 .4827474 .08829752 .57566329 .15258789 .64227297 .21687825 .70888265 .3059896 .7421875 .41992188 .7421875 .4674479 .7421875 .51261398 .7363281 .5554199 .7246094 .5982259 .7128906 .6376953 .695638 .6738281 .67285159V.5673828C.6373698 .59847006 .5986328 .6218669 .5576172 .63757327 .51660159 .6532796 .47347007 .6611328 .42822267 .6611328 .33902995 .6611328 .27205406 .63621017 .22729492 .58636477 .18253581 .53651937 .16015625 .4622396 .16015625 .3635254 .16015625 .26513673 .18253581 .1910197 .22729492 .14117432 .27205406 .09132894 .33902995 .06640625 .42822267 .06640625 .46305339 .06640625 .49414063 .0694224 .5214844 .07545471 .5488281 .08148702 .57340499 .09086609 .59521487 .10359192Z"/>
<path id="font_1_13" d="M.080078128 .75878909H.15820313C.20703125 .6819661 .24357097 .6067708 .26782228 .5332031 .29207359 .4596354 .30419923 .386556 .30419923 .31396485 .30419923 .24104817 .29207359 .16764324 .26782228 .09375 .24357097 .019856772 .20703125-.055338544 .15820313-.13183594H.080078128C.1233724-.057291669 .15568035 .016845704 .17700196 .09057617 .19832357 .16430664 .20898438 .23876953 .20898438 .31396485 .20898438 .38916017 .19832357 .4633789 .17700196 .5366211 .15568035 .6098633 .1233724 .68391928 .080078128 .75878909Z"/>
<path id="font_1_14" d="M.48779298 .5263672V.4423828C.46240235 .45638023 .43693034 .46687828 .41137696 .47387696 .38582359 .48087565 .36002604 .484375 .33398438 .484375 .27571617 .484375 .23046875 .46585594 .19824219 .42881776 .16601563 .39178977 .14990235 .3398336 .14990235 .27294923 .14990235 .20606487 .16601563 .15410359 .19824219 .11706543 .23046875 .08003744 .27571617 .061523439 .33398438 .061523439 .36002604 .061523439 .38582359 .06502279 .41137696 .072021488 .43693034 .07902018 .46240235 .08951823 .48779298 .103515628V.020507813C.46272788 .0087890629 .43676759 0 .4099121-.005859375 .38305665-.01171875 .3544922-.0146484379 .32421876-.0146484379 .24186199-.0146484379 .1764323 .011271159 .12792969 .06311035 .079427089 .11495972 .05517578 .184906 .05517578 .27294923 .05517578 .36229453 .07967123 .43256126 .12866211 .4837494 .177653 .5349477 .24479167 .5605469 .33007813 .5605469 .3577474 .5605469 .38476563 .55769857 .4111328 .55200198 .4375 .54630538 .46305339 .53776046 .48779298 .5263672Z"/>
<path id="font_1_15" d="M.5620117 .29589845V.25195313H.14892578C.15283203 .1899414 .1714681 .1427002 .20483399 .11022949 .23819988 .07775879 .28466798 .061523439 .34423829 .061523439 .3787435 .061523439 .41219078 .06575521 .44458009 .07421875 .4769694 .08268229 .50911459 .0953776 .5410156 .11230469V.02734375C.50878909 .013671875 .4757487 .0032552083 .44189454-.00390625 .40804038-.011067708 .3736979-.0146484379 .3388672-.0146484379 .2516276-.0146484379 .18253581 .010782878 .1315918 .061645509 .08064779 .11251831 .05517578 .18132019 .05517578 .26805116 .05517578 .35772196 .0793457 .42888896 .12768555 .48155213 .17602539 .5342153 .24121094 .5605469 .3232422 .5605469 .3968099 .5605469 .45499674 .53681948 .49780274 .48936463 .5406087 .44191996 .5620117 .37743125 .5620117 .29589845M.47216798 .32226563C.47151695 .37157188 .45776368 .4109141 .4309082 .44029237 .40405274 .4696808 .3684896 .484375 .32421876 .484375 .27408854 .484375 .2339681 .47016908 .20385742 .4417572 .17374675 .4133555 .15641277 .3733622 .15185547 .32177735L.47216798 .32226563Z"/>
<path id="font_1_16" d="M.09423828 .546875H.18408203V0H.09423828V.546875M.09423828 .7597656H.18408203V.6455078H.09423828V.7597656Z"/>
<path id="font_1_17" d="M.09423828 .7597656H.18408203V0H.09423828V.7597656Z"/>
<path id="font_1_18" d="M.5488281 .33007813V0H.45898438V.32714845C.45898438 .379069 .44889323 .41792808 .42871095 .4437256 .40852867 .4695231 .37825523 .48242188 .33789063 .48242188 .28938804 .48242188 .2511393 .46691386 .22314453 .43589784 .19514974 .40489198 .18115235 .36262004 .18115235 .30908204V0H.09082031V.546875H.18115235V.46191407C.20263672 .49495445 .22794597 .5196533 .25708009 .53601077 .2862142 .55236819 .31982423 .5605469 .35791017 .5605469 .4207357 .5605469 .46826173 .54105636 .5004883 .5020752 .53271487 .4630941 .5488281 .40576173 .5488281 .33007813Z"/>
<path id="font_1_19" d="M.45410157 .2800293C.45410157 .34521485 .44067384 .3957316 .41381837 .4315796 .3869629 .46742759 .34928385 .48535157 .30078126 .48535157 .25260417 .48535157 .21508789 .46742759 .18823242 .4315796 .16137696 .3957316 .14794922 .34521485 .14794922 .2800293 .14794922 .21516927 .16137696 .16481526 .18823242 .12896729 .21508789 .0931193 .25260417 .07519531 .30078126 .07519531 .34928385 .07519531 .3869629 .0931193 .41381837 .12896729 .44067384 .16481526 .45410157 .21516927 .45410157 .2800293M.5439453 .067871097C.5439453-.025227866 .5232747-.09448242 .4819336-.13989258 .44059245-.18530274 .37727867-.20800781 .2919922-.20800781 .26041667-.20800781 .23063152-.20568848 .20263672-.2010498 .17464192-.19641114 .14746094-.18929036 .12109375-.1796875V-.091796878C.14746094-.10611979 .17350261-.11669922 .19921875-.123535159 .22493489-.1303711 .2511393-.13378906 .27783204-.13378906 .3367513-.13378906 .38085938-.1184082 .41015626-.087646488 .43945313-.056884767 .45410157-.010416667 .45410157 .051757814V.09667969C.43554688 .06429037 .41178385 .040079755 .3828125 .024047852 .35384117 .00801595 .3191732 0 .2788086 0 .2117513 0 .15771485 .02557373 .11669922 .07672119 .075683597 .12787883 .05517578 .1956482 .05517578 .2800293 .05517578 .36473594 .075683597 .43266297 .11669922 .48381043 .15771485 .5349681 .2117513 .5605469 .2788086 .5605469 .3191732 .5605469 .35384117 .55253097 .3828125 .536499 .41178385 .5204671 .43554688 .4962565 .45410157 .4638672V.546875H.5439453V.067871097Z"/>
<path id="font_1_20" d="M.39404298 .6621094C.32242839 .6621094 .2655436 .63539126 .22338867 .58195498 .18123372 .52852889 .16015625 .455719 .16015625 .3635254 .16015625 .27165733 .18123372 .19900513 .22338867 .14556885 .2655436 .09214274 .32242839 .06542969 .39404298 .06542969 .46565757 .06542969 .5223796 .09214274 .564209 .14556885 .6060384 .19900513 .6269531 .27165733 .6269531 .3635254 .6269531 .455719 .6060384 .52852889 .564209 .58195498 .5223796 .63539126 .46565757 .6621094 .39404298 .6621094M.53222659 .0126953129 .6621094-.12890625H.54296877L.4350586-.012634277C.4243164-.013305664 .41609703-.013809204 .4104004-.014144897 .40470378-.014480591 .3992513-.0146484379 .39404298-.0146484379 .2915039-.0146484379 .20955403 .019632975 .14819336 .0881958 .08683268 .1567688 .056152345 .24854534 .056152345 .3635254 .056152345 .47883097 .08683268 .5707652 .14819336 .639328 .20955403 .707901 .2915039 .7421875 .39404298 .7421875 .4962565 .7421875 .5779622 .707901 .63916018 .639328 .7003581 .5707652 .73095706 .4788259 .73095706 .36351014 .73095706 .27882386 .71394857 .20634969 .67993167 .14608765 .64591476 .0858256 .5966797 .041361493 .53222659 .0126953129Z"/>
<path id="font_1_21" d="M.19677735 .6484375V.08105469H.31591798C.4165039 .08105469 .49015299 .10386149 .53686526 .1494751 .58357748 .1950887 .6069336 .26708985 .6069336 .36547853 .6069336 .46321617 .58357748 .53481039 .53686526 .58026126 .49015299 .6257121 .4165039 .6484375 .31591798 .6484375H.19677735M.09814453 .7294922H.30078126C.44205729 .7294922 .54573568 .70009359 .6118164 .6412964 .67789718 .5824992 .7109375 .4905599 .7109375 .36547853 .7109375 .2397461 .6777344 .1473999 .6113281 .08843994 .5449219 .02947998 .44140626 0 .30078126 0H.09814453V.7294922Z"/>
</defs>
<g>
<path stroke-width=".8" stroke-linecap="butt" stroke-miterlimit="4" stroke-linejoin="miter" fill="none" stroke="#000000" d="M158.738 142.445 144.738 155.016"/>
<path stroke-width=".8" stroke-linecap="butt" stroke-miterlimit="4" stroke-linejoin="miter" fill="none" stroke="#000000" d="M168.098 142.059 182.098 154.344"/>
<path d="M187.004 9.344C187.004 14.078 183.422 17.914 179.004 17.914 174.586 17.914 171.004 14.078 171.004 9.344 171.004 4.609 174.586 .773 179.004 .773 183.422 .773 187.004 4.609 187.004 9.344ZM187.004 9.344" fill="#ffffff"/>
<path stroke-width="1.556" stroke-linecap="butt" stroke-miterlimit="4" stroke-linejoin="miter" fill="none" stroke="#000000" d="M187.004 9.344C187.004 14.078 183.422 17.914 179.004 17.914 174.586 17.914 171.004 14.078 171.004 9.344 171.004 4.609 174.586 .773 179.004 .773 183.422 .773 187.004 4.609 187.004 9.344ZM187.004 9.344"/>
<use data-text="S" xlink:href="#font_1_1" transform="matrix(11.2,0,0,-11.2,175.64286,13.456985)"/>
<path d="M108.273 42.387C108.273 47.121 104.691 50.961 100.273 50.961 95.855 50.961 92.273 47.121 92.273 42.387 92.273 37.652 95.855 33.816 100.273 33.816 104.691 33.816 108.273 37.652 108.273 42.387ZM108.273 42.387" fill="#ffffff"/>
<path stroke-width="1.556" stroke-linecap="butt" stroke-miterlimit="4" stroke-linejoin="miter" fill="none" stroke="#000000" d="M108.273 42.387C108.273 47.121 104.691 50.961 100.273 50.961 95.855 50.961 92.273 47.121 92.273 42.387 92.273 37.652 95.855 33.816 100.273 33.816 104.691 33.816 108.273 37.652 108.273 42.387ZM108.273 42.387"/>
<use data-text="E" xlink:href="#font_1_2" transform="matrix(11.2,0,0,-11.2,96.91411,46.50142)"/>
<path d="M348.16 41.93C348.16 46.664 344.578 50.504 340.16 50.504 335.742 50.504 332.16 46.664 332.16 41.93 332.16 37.195 335.742 33.359 340.16 33.359 344.578 33.359 348.16 37.195 348.16 41.93ZM348.16 41.93" fill="#ffffff"/>
<path stroke-width="1.556" stroke-linecap="butt" stroke-miterlimit="4" stroke-linejoin="miter" fill="none" stroke="#000000" d="M348.16 41.93C348.16 46.664 344.578 50.504 340.16 50.504 335.742 50.504 332.16 46.664 332.16 41.93 332.16 37.195 335.742 33.359 340.16 33.359 344.578 33.359 348.16 37.195 348.16 41.93ZM348.16 41.93"/>
<use data-text="X" xlink:href="#font_1_3" transform="matrix(11.2,0,0,-11.2,336.7998,46.04428)"/>
<path d="M28.445 74.215C28.445 78.949 24.863 82.789 20.445 82.789 16.027 82.789 12.445 78.949 12.445 74.215 12.445 69.484 16.027 65.645 20.445 65.645 24.863 65.645 28.445 69.484 28.445 74.215ZM28.445 74.215" fill="#ffffff"/>
<path stroke-width="1.556" stroke-linecap="butt" stroke-miterlimit="4" stroke-linejoin="miter" fill="none" stroke="#000000" d="M28.445 74.215C28.445 78.949 24.863 82.789 20.445 82.789 16.027 82.789 12.445 78.949 12.445 74.215 12.445 69.484 16.027 65.645 20.445 65.645 24.863 65.645 28.445 69.484 28.445 74.215ZM28.445 74.215"/>
<use data-text="A" xlink:href="#font_1_4" transform="matrix(11.2,0,0,-11.2,17.085547,78.32999)"/>
<path d="M187.703 74.504C187.703 79.234 184.121 83.074 179.703 83.074 175.285 83.074 171.703 79.234 171.703 74.504 171.703 69.77 175.285 65.93 179.703 65.93 184.121 65.93 187.703 69.77 187.703 74.504ZM187.703 74.504" fill="#ffffff"/>
<path stroke-width="1.556" stroke-linecap="butt" stroke-miterlimit="4" stroke-linejoin="miter" fill="none" stroke="#000000" d="M187.703 74.504C187.703 79.234 184.121 83.074 179.703 83.074 175.285 83.074 171.703 79.234 171.703 74.504 171.703 69.77 175.285 65.93 179.703 65.93 184.121 65.93 187.703 69.77 187.703 74.504ZM187.703 74.504"/>
<use data-text="R" xlink:href="#font_1_5" transform="matrix(11.2,0,0,-11.2,176.3427,78.6157)"/>
<path d="M76.273 106.387C76.273 111.121 72.691 114.961 68.273 114.961 63.855 114.961 60.273 111.121 60.273 106.387 60.273 101.652 63.855 97.816 68.273 97.816 72.691 97.816 76.273 101.652 76.273 106.387ZM76.273 106.387" fill="#ffffff"/>
<path stroke-width="1.556" stroke-linecap="butt" stroke-miterlimit="4" stroke-linejoin="miter" fill="none" stroke="#000000" d="M76.273 106.387C76.273 111.121 72.691 114.961 68.273 114.961 63.855 114.961 60.273 111.121 60.273 106.387 60.273 101.652 63.855 97.816 68.273 97.816 72.691 97.816 76.273 101.652 76.273 106.387ZM76.273 106.387"/>
<use data-text="C" xlink:href="#font_1_6" transform="matrix(11.2,0,0,-11.2,63.771265,110.5014)"/>
<path d="M140.273 106.387C140.273 111.121 136.691 114.961 132.273 114.961 127.855 114.961 124.273 111.121 124.273 106.387 124.273 101.652 127.855 97.816 132.273 97.816 136.691 97.816 140.273 101.652 140.273 106.387ZM140.273 106.387" fill="#ffffff"/>
<path stroke-width="1.556" stroke-linecap="butt" stroke-miterlimit="4" stroke-linejoin="miter" fill="none" stroke="#000000" d="M140.273 106.387C140.273 111.121 136.691 114.961 132.273 114.961 127.855 114.961 124.273 111.121 124.273 106.387 124.273 101.652 127.855 97.816 132.273 97.816 136.691 97.816 140.273 101.652 140.273 106.387ZM140.273 106.387"/>
<use data-text="H" xlink:href="#font_1_7" transform="matrix(11.2,0,0,-11.2,128.45696,110.5014)"/>
<path d="M171.816 138.387C171.816 143.121 168.234 146.961 163.816 146.961 159.398 146.961 155.816 143.121 155.816 138.387 155.816 133.652 159.398 129.816 163.816 129.816 168.234 129.816 171.816 133.652 171.816 138.387ZM171.816 138.387" fill="#ffffff"/>
<path stroke-width="1.556" stroke-linecap="butt" stroke-miterlimit="4" stroke-linejoin="miter" fill="none" stroke="#000000" d="M171.816 138.387C171.816 143.121 168.234 146.961 163.816 146.961 159.398 146.961 155.816 143.121 155.816 138.387 155.816 133.652 159.398 129.816 163.816 129.816 168.234 129.816 171.816 133.652 171.816 138.387ZM171.816 138.387"/>
<use data-text="M" xlink:href="#font_1_8" transform="matrix(11.2,0,0,-11.2,158.85698,142.5014)"/>
<path stroke-width=".8" stroke-linecap="butt" stroke-miterlimit="4" stroke-linejoin="miter" fill="none" stroke="#000000" d="M27.133 68.672 92.273 43.816"/>
<path stroke-width=".8" stroke-linecap="butt" stroke-miterlimit="4" stroke-linejoin="miter" fill="none" stroke="#000000" d="M107.133 37.531 171.418 11.816"/>
<path stroke-width=".8" stroke-linecap="butt" stroke-miterlimit="4" stroke-linejoin="miter" fill="none" stroke="#000000" d="M27.703 77.816 60.848 102.672"/>
<path stroke-width=".8" stroke-linecap="butt" stroke-miterlimit="4" stroke-linejoin="miter" fill="none" stroke="#000000" d="M108.562 43.531 171.988 72.387"/>
<path stroke-width=".8" stroke-linecap="butt" stroke-miterlimit="4" stroke-linejoin="miter" fill="none" stroke="#000000" d="M139.988 102.961 173.133 79.816"/>
<path stroke-width=".8" stroke-linecap="butt" stroke-miterlimit="4" stroke-linejoin="miter" fill="none" stroke="#000000" d="M139.133 110.672 158.848 131.246"/>
<path stroke-width=".8" stroke-linecap="butt" stroke-miterlimit="4" stroke-linejoin="miter" fill="none" stroke="#000000" d="M186.562 12.387 332.273 41.246"/>
<path stroke-width=".8" stroke-linecap="butt" stroke-miterlimit="4" stroke-linejoin="miter" fill="none" stroke="#000000" d="M14.273 80.102 .273 92.672"/>
<path stroke-width=".8" stroke-linecap="butt" stroke-miterlimit="4" stroke-linejoin="miter" fill="none" stroke="#000000" d="M61.848 111.246 47.848 123.816"/>
<path stroke-width=".8" stroke-linecap="butt" stroke-miterlimit="4" stroke-linejoin="miter" fill="none" stroke="#000000" d="M126.645 111.875 112.645 124.445"/>
<path stroke-width=".8" stroke-linecap="butt" stroke-miterlimit="4" stroke-linejoin="miter" fill="none" stroke="#000000" d="M335.77 49.629 321.77 62.199"/>
<path stroke-width=".8" stroke-linecap="butt" stroke-miterlimit="4" stroke-linejoin="miter" fill="none" stroke="#000000" d="M345.133 49.246 359.133 61.531"/>
<path stroke-width=".8" stroke-linecap="butt" stroke-miterlimit="4" stroke-linejoin="miter" fill="none" stroke="#000000" d="M185.047 80.988 199.047 93.273"/>
<path stroke-width=".8" stroke-linecap="butt" stroke-miterlimit="4" stroke-linejoin="miter" fill="none" stroke="#000000" d="M74.477 112.453 88.477 124.738"/>
<use data-text="&#xfb02;" xlink:href="#font_2_1" transform="matrix(11.2,0,0,-11.2,79.76072,11.394333)"/>
<use data-text="o" xlink:href="#font_1_9" transform="matrix(11.2,0,0,-11.2,86.80552,11.394333)"/>
<use data-text="o" xlink:href="#font_1_9" transform="matrix(11.2,0,0,-11.2,93.64872,11.394333)"/>
<use data-text="r" xlink:href="#font_1_10" transform="matrix(11.2,0,0,-11.2,100.49192,11.394333)"/>
<use data-text="(" xlink:href="#font_1_11" transform="matrix(11.2,0,0,-11.2,105.09512,11.394333)"/>
<use data-text="G" xlink:href="#font_1_12" transform="matrix(11.2,0,0,-11.2,109.46312,11.394333)"/>
<use data-text=")" xlink:href="#font_1_13" transform="matrix(11.2,0,0,-11.2,118.13192,11.394333)"/>
<path stroke-width=".8" stroke-linecap="butt" stroke-miterlimit="4" stroke-linejoin="miter" fill="none" stroke="#000000" d="M100.332 13.91V31.621"/>
<path transform="matrix(0,-1,1,0,0,0)" d="M-28.422 100.332-26.824 98.73-32.422 100.332-26.824 101.934ZM-28.422 100.332" fill-rule="evenodd"/>
<path transform="matrix(0,-1,1,0,0,0)" stroke-width=".4" stroke-linecap="butt" stroke-miterlimit="4" stroke-linejoin="miter" fill="none" stroke="#000000" d="M-28.422 100.332-26.824 98.73-32.422 100.332-26.824 101.934ZM-28.422 100.332"/>
<use data-text="c" xlink:href="#font_1_14" transform="matrix(11.2,0,0,-11.2,152.76863,40.69187)"/>
<use data-text="e" xlink:href="#font_1_15" transform="matrix(11.2,0,0,-11.2,158.91744,40.69187)"/>
<use data-text="i" xlink:href="#font_1_16" transform="matrix(11.2,0,0,-11.2,165.80544,40.69187)"/>
<use data-text="l" xlink:href="#font_1_17" transform="matrix(11.2,0,0,-11.2,168.90784,40.69187)"/>
<use data-text="i" xlink:href="#font_1_16" transform="matrix(11.2,0,0,-11.2,172.01024,40.69187)"/>
<use data-text="n" xlink:href="#font_1_18" transform="matrix(11.2,0,0,-11.2,175.11264,40.69187)"/>
<use data-text="g" xlink:href="#font_1_19" transform="matrix(11.2,0,0,-11.2,182.20224,40.69187)"/>
<use data-text="(" xlink:href="#font_1_11" transform="matrix(11.2,0,0,-11.2,189.30304,40.69187)"/>
<use data-text="Q" xlink:href="#font_1_20" transform="matrix(11.2,0,0,-11.2,193.67104,40.69187)"/>
<use data-text=")" xlink:href="#font_1_13" transform="matrix(11.2,0,0,-11.2,202.48545,40.69187)"/>
<path stroke-width=".8" stroke-linecap="butt" stroke-miterlimit="4" stroke-linejoin="miter" fill="none" stroke="#000000" d="M179.738 43.207V60.922"/>
<path transform="matrix(0,-1,1,0,0,0)" d="M-57.719 179.738-56.121 178.141-61.719 179.738-56.121 181.34ZM-57.719 179.738" fill-rule="evenodd"/>
<path transform="matrix(0,-1,1,0,0,0)" stroke-width=".4" stroke-linecap="butt" stroke-miterlimit="4" stroke-linejoin="miter" fill="none" stroke="#000000" d="M-57.719 179.738-56.121 178.141-61.719 179.738-56.121 181.34ZM-57.719 179.738"/>
<use data-text="&#xfb02;" xlink:href="#font_2_1" transform="matrix(11.2,0,0,-11.2,47.511476,75.09186)"/>
<use data-text="o" xlink:href="#font_1_9" transform="matrix(11.2,0,0,-11.2,54.556276,75.09186)"/>
<use data-text="o" xlink:href="#font_1_9" transform="matrix(11.2,0,0,-11.2,61.399477,75.09186)"/>
<use data-text="r" xlink:href="#font_1_10" transform="matrix(11.2,0,0,-11.2,68.242679,75.09186)"/>
<use data-text="(" xlink:href="#font_1_11" transform="matrix(11.2,0,0,-11.2,72.84588,75.09186)"/>
<use data-text="D" xlink:href="#font_1_21" transform="matrix(11.2,0,0,-11.2,77.21388,75.09186)"/>
<use data-text=")" xlink:href="#font_1_13" transform="matrix(11.2,0,0,-11.2,85.83788,75.09186)"/>
<path stroke-width=".8" stroke-linecap="butt" stroke-miterlimit="4" stroke-linejoin="miter" fill="none" stroke="#000000" d="M68.082 77.605V95.32"/>
<path transform="matrix(0,-1,1,0,0,0)" d="M-92.121 68.082-90.52 66.484-96.121 68.082-90.52 69.684ZM-92.121 68.082" fill-rule="evenodd"/>
<path transform="matrix(0,-1,1,0,0,0)" stroke-width=".4" stroke-linecap="butt" stroke-miterlimit="4" stroke-linejoin="miter" fill="none" stroke="#000000" d="M-92.121 68.082-90.52 66.484-96.121 68.082-90.52 69.684ZM-92.121 68.082"/>
</g>
</svg>
