<svg xmlns="http://www.w3.org/2000/svg" xmlns:xlink="http://www.w3.org/1999/xlink" xmlns:inkscape="http://www.inkscape.org/namespaces/inkscape" version="1.1" width="388.47383" height="1186.9435" viewBox="0 0 388.47383 1186.9435">
<defs>
<path id="font_1_1" d="M.53515627 .7050781V.60839846C.49772135 .62646487 .46240235 .6399333 .42919923 .6488037 .3959961 .65767416 .36393229 .6621094 .3330078 .6621094 .27929688 .6621094 .23787435 .6516774 .20874024 .6308136 .17960613 .6099599 .16503906 .58030197 .16503906 .5418396 .16503906 .5095723 .17472331 .48520408 .1940918 .46873475 .21346028 .4522756 .25016276 .43899537 .30419923 .42889405L.36376954 .41670228C.43733726 .4026947 .49161784 .37802125 .5266113 .34268189 .5616048 .3073527 .57910159 .26005046 .57910159 .20077515 .57910159 .13010662 .5554199 .076533 .50805667 .04005432 .46069337 .0035858155 .39127604-.0146484379 .2998047-.0146484379 .26529948-.0146484379 .228597-.010701497 .18969727-.0028076173 .15079753 .005086263 .11051432 .016764323 .068847659 .032226564V.13378906C.10888672 .11116537 .14811199 .09411621 .18652344 .0826416 .22493489 .07116699 .2626953 .06542969 .2998047 .06542969 .35611979 .06542969 .3995768 .07650757 .43017579 .09866333 .46077476 .12082926 .47607423 .15244039 .47607423 .1934967 .47607423 .22934468 .4650879 .25737 .44311524 .27757264 .42114259 .29778544 .38509117 .3129425 .33496095 .32304383L.27490235 .3347473C.20133464 .3494059 .14811199 .37236534 .115234378 .4036255 .08235677 .43489585 .06591797 .4783783 .06591797 .5340729 .06591797 .5985565 .08862305 .6493632 .1340332 .6864929 .17944336 .7236226 .24202474 .7421875 .32177735 .7421875 .35595704 .7421875 .39078776 .73909506 .42626954 .73291018 .4617513 .7267253 .49804688 .71744796 .53515627 .7050781Z"/>
<path id="font_1_2" d="M.09814453 .7294922H.55908206V.6464844H.19677735V.43066407H.5439453V.34765626H.19677735V.08300781H.5678711V0H.09814453V.7294922Z"/>
<path id="font_1_3" d="M.06298828 .7294922H.16894531L.35009767 .4584961 .53222659 .7294922H.6381836L.4038086 .37916566 .6538086 0H.54785159L.34277345 .3100586 .13623047 0H.029785157L.29003907 .38941957 .06298828 .7294922Z"/>
<path id="font_1_4" d="M.44384767 .34228517C.4650065 .33511354 .4855957 .3197937 .50561526 .29632569 .52563479 .27286784 .54573568 .24060567 .56591799 .19953919L.6660156 0H.5600586L.46679688 .18730164C.44270835 .23621114 .4193522 .26865135 .39672853 .2846222 .37410484 .30060325 .34326173 .30859376 .30419923 .30859376H.19677735V0H.09814453V.7294922H.32080079C.40413413 .7294922 .4663086 .71207687 .5073242 .6772461 .54833987 .64241537 .56884768 .58984377 .56884768 .51953127 .56884768 .4736328 .5581868 .43554688 .53686526 .40527345 .51554366 .375 .48453776 .3540039 .44384767 .34228517M.19677735 .6484375V.38964845H.32080079C.3683268 .38964845 .40421549 .40063478 .4284668 .42260743 .4527181 .44458009 .46484376 .47688804 .46484376 .51953127 .46484376 .5621745 .4527181 .59431967 .4284668 .6159668 .40421549 .63761398 .3683268 .6484375 .32080079 .6484375H.19677735Z"/>
<path id="font_1_5" d="M.64404299 .67285159V.5683594C.61083987 .5994466 .57543948 .62268069 .5378418 .6380615 .50024417 .6534424 .46028648 .6611328 .41796876 .6611328 .3346354 .6611328 .27083335 .63564047 .2265625 .58465579 .18229167 .5336711 .16015625 .45996095 .16015625 .3635254 .16015625 .26741538 .18229167 .193868 .2265625 .1428833 .27083335 .0918986 .3346354 .06640625 .41796876 .06640625 .46028648 .06640625 .50024417 .07409668 .5378418 .08947754 .57543948 .1048584 .61083987 .12809246 .64404299 .15917969V.055664064C.6095378 .032226564 .57299807 .0146484379 .5344238 .0029296876 .4958496-.0087890629 .45507813-.0146484379 .41210938-.0146484379 .3017578-.0146484379 .21484375 .019144694 .15136719 .08673096 .087890628 .1543274 .056152345 .24659221 .056152345 .3635254 .056152345 .4807841 .087890628 .5732066 .15136719 .64079287 .21484375 .7083893 .3017578 .7421875 .41210938 .7421875 .45572917 .7421875 .49682618 .7364095 .5354004 .7248535 .5739746 .71329757 .6101888 .69596359 .64404299 .67285159Z"/>
<path id="font_1_6" d="M.09814453 .7294922H.19677735V.43066407H.5551758V.7294922H.6538086V0H.5551758V.34765626H.19677735V0H.09814453V.7294922Z"/>
<path id="font_1_7" d="M.09814453 .7294922H.24511719L.43115235 .23339844 .61816409 .7294922H.7651367V0H.6689453V.640625L.48095704 .140625H.38183595L.19384766 .640625V0H.09814453V.7294922Z"/>
<path id="font_1_8" d="M.5488281 .33007813V0H.45898438V.32714845C.45898438 .379069 .44889323 .41792808 .42871095 .4437256 .40852867 .4695231 .37825523 .48242188 .33789063 .48242188 .28938804 .48242188 .2511393 .46691386 .22314453 .43589784 .19514974 .40489198 .18115235 .36262004 .18115235 .30908204V0H.09082031V.546875H.18115235V.46191407C.20263672 .49495445 .22794597 .5196533 .25708009 .53601077 .2862142 .55236819 .31982423 .5605469 .35791017 .5605469 .4207357 .5605469 .46826173 .54105636 .5004883 .5020752 .53271487 .4630941 .5488281 .40576173 .5488281 .33007813Z"/>
<path id="font_1_9" d="M.30615235 .484375C.25797526 .484375 .21988933 .4655304 .19189453 .4278412 .16389974 .39016215 .14990235 .3385315 .14990235 .27294923 .14990235 .20736695 .16381836 .1557312 .19165039 .11804199 .21948242 .08036295 .25764976 .061523439 .30615235 .061523439 .3540039 .061523439 .3919271 .080444339 .41992188 .11828613 .44791667 .1561381 .46191407 .20769246 .46191407 .27294923 .46191407 .33788047 .44791667 .38934837 .41992188 .4273529 .3919271 .46536765 .3540039 .484375 .30615235 .484375M.30615235 .5605469C.38427735 .5605469 .44563804 .5351105 .49023438 .48423768 .53483077 .43337504 .5571289 .36294557 .5571289 .27294923 .5571289 .1832784 .53483077 .11292521 .49023438 .06188965 .44563804 .010864258 .38427735-.0146484379 .30615235-.0146484379 .22770183-.0146484379 .16625977 .010864258 .12182617 .06188965 .07739258 .11292521 .05517578 .1832784 .05517578 .27294923 .05517578 .36294557 .07739258 .43337504 .12182617 .48423768 .16625977 .5351105 .22770183 .5605469 .30615235 .5605469Z"/>
<path id="font_1_10" d="M.45410157 .4638672V.7597656H.5439453V0H.45410157V.08203125C.43522135 .049316408 .41137696 .025024414 .38256837 .009155273 .35375978-.006713867 .3191732-.0146484379 .2788086-.0146484379 .21272786-.0146484379 .15893555 .011764526 .11743164 .064590457 .075927738 .11741638 .05517578 .18686931 .05517578 .27294923 .05517578 .35902915 .075927738 .42848207 .11743164 .48130799 .15893555 .5341339 .21272786 .5605469 .2788086 .5605469 .3191732 .5605469 .35375978 .5526123 .38256837 .53674319 .41137696 .520874 .43522135 .49658204 .45410157 .4638672M.14794922 .27294923C.14794922 .2067159 .16153972 .15475464 .1887207 .11706543 .21590169 .07938639 .25325523 .060546876 .30078126 .060546876 .34830729 .060546876 .3857422 .07938639 .41308595 .11706543 .4404297 .15475464 .45410157 .2067159 .45410157 .27294923 .45410157 .33918254 .4404297 .3911387 .41308595 .42881776 .3857422 .46650697 .34830729 .48535157 .30078126 .48535157 .25325523 .48535157 .21590169 .46650697 .1887207 .42881776 .16153972 .3911387 .14794922 .33918254 .14794922 .27294923Z"/>
<path id="font_1_11" d="M.5620117 .29589845V.25195313H.14892578C.15283203 .1899414 .1714681 .1427002 .20483399 .11022949 .23819988 .07775879 .28466798 .061523439 .34423829 .061523439 .3787435 .061523439 .41219078 .06575521 .44458009 .07421875 .4769694 .08268229 .50911459 .0953776 .5410156 .11230469V.02734375C.50878909 .013671875 .4757487 .0032552083 .44189454-.00390625 .40804038-.011067708 .3736979-.0146484379 .3388672-.0146484379 .2516276-.0146484379 .18253581 .010782878 .1315918 .061645509 .08064779 .11251831 .05517578 .18132019 .05517578 .26805116 .05517578 .35772196 .0793457 .42888896 .12768555 .48155213 .17602539 .5342153 .24121094 .5605469 .3232422 .5605469 .3968099 .5605469 .45499674 .53681948 .49780274 .48936463 .5406087 .44191996 .5620117 .37743125 .5620117 .29589845M.47216798 .32226563C.47151695 .37157188 .45776368 .4109141 .4309082 .44029237 .40405274 .4696808 .3684896 .484375 .32421876 .484375 .27408854 .484375 .2339681 .47016908 .20385742 .4417572 .17374675 .4133555 .15641277 .3733622 .15185547 .32177735L.47216798 .32226563Z"/>
<path id="font_1_12" d="M0 0Z"/>
<path id="font_1_13" d="M.18310547 .70214846V.546875H.36816407V.4765625H.18310547V.18005371C.18310547 .13550823 .18920899 .106892909 .20141602 .09420776 .21362305 .0815328 .23844402 .07519531 .2758789 .07519531H.36816407V0H.2758789C.20654297 0 .1586914 .01292928 .13232422 .03878784 .10595703 .06465658 .09277344 .1117452 .09277344 .18005371V.4765625H.026855469V.546875H.09277344V.70214846H.18310547Z"/>
<path id="font_1_14" d="M.09423828 .7597656H.18408203V0H.09423828V.7597656Z"/>
<path id="font_1_15" d="M.4428711 .53125V.44628907C.41748048 .4593099 .39111329 .46907554 .36376954 .47558595 .33642579 .48209635 .30810548 .48535157 .2788086 .48535157 .23421224 .48535157 .20076497 .47850038 .1784668 .46479798 .15616863 .45109559 .14501953 .430542 .14501953 .4031372 .14501953 .38226319 .1529948 .36587016 .16894531 .35395814 .18489583 .3420461 .21695964 .33070884 .26513673 .3199463L.29589845 .31307984C.35970054 .2993876 .4050293 .2800649 .43188478 .2551117 .45874024 .23016866 .47216798 .19535828 .47216798 .15068054 .47216798 .09980774 .45206706 .05953471 .41186524 .02986145 .37166343 .00018819173 .31640626-.0146484379 .24609375-.0146484379 .21679688-.0146484379 .1862793-.01180013 .15454102-.0061035158 .122802738-.00040690104 .08935547 .0081380209 .05419922 .01953125V.11230469C.087402347 .095052089 .12011719 .08211263 .15234375 .07348633 .18457031 .06486002 .21647136 .060546876 .24804688 .060546876 .2903646 .060546876 .32291667 .06780497 .34570313 .08232117 .3684896 .096837367 .3798828 .11730448 .3798828 .14372254 .3798828 .16818746 .37166343 .1869456 .3552246 .19999695 .3387858 .2130483 .30273438 .22560628 .24707031 .2376709L.21582031 .24501038C.16015625 .25674949 .11995443 .274765 .095214847 .299057 .07047526 .32335917 .05810547 .3567098 .05810547 .3991089 .05810547 .4506429 .07633463 .49043275 .11279297 .5184784 .1492513 .54652407 .20100911 .5605469 .2680664 .5605469 .30126954 .5605469 .33251954 .55810549 .3618164 .55322268 .39111329 .54833987 .4181315 .5410156 .4428711 .53125Z"/>
<path id="font_1_16" d="M.34277345 .27539063C.27018229 .27539063 .21988933 .26704917 .19189453 .2503662 .16389974 .23369344 .14990235 .20524597 .14990235 .1650238 .14990235 .13298035 .16040039 .107554119 .18139649 .08874512 .20239258 .06994629 .23095703 .060546876 .26708985 .060546876 .31689454 .060546876 .3568522 .07828776 .3869629 .11376953 .41707359 .14926148 .4321289 .19644673 .4321289 .25532533V.27539063H.34277345M.52197268 .3125V0H.4321289V.08300781C.4116211 .049641927 .38606773 .025024414 .35546876 .009155273 .32486979-.006713867 .2874349-.0146484379 .24316406-.0146484379 .18717449-.0146484379 .1426595 .0010986328 .10961914 .032592775 .07657877 .064097087 .060058595 .106287639 .060058595 .15916443 .060058595 .22085063 .08064779 .2673594 .12182617 .2986908 .16300456 .33003236 .22444661 .34570313 .30615235 .34570313H.4321289V.3544922C.4321289 .39583335 .41853843 .42781578 .39135743 .45043946 .36417643 .47306315 .32600913 .484375 .27685548 .484375 .24560547 .484375 .21516927 .4806315 .18554688 .47314454 .15592449 .46565757 .1274414 .4544271 .100097659 .43945313V.52246096C.13297527 .53515627 .1648763 .54467776 .19580078 .5510254 .22672527 .55737307 .25683595 .5605469 .2861328 .5605469 .36523438 .5605469 .4243164 .54003909 .4633789 .49902345 .5024414 .4580078 .52197268 .39583335 .52197268 .3125Z"/>
<path id="font_1_17" d="M.4111328 .46289063C.40104167 .46891276 .39005534 .473348 .37817384 .4761963 .36629234 .4790446 .3531901 .48046876 .3388672 .48046876 .28808595 .48046876 .24910482 .4639028 .22192383 .43077088 .19474285 .39764915 .18115235 .3500875 .18115235 .28808595V0H.09082031V.546875H.18115235V.46191407C.20003255 .49527995 .22460938 .52006027 .2548828 .5362549 .28515626 .5524495 .3219401 .5605469 .36523438 .5605469 .37141929 .5605469 .37825523 .56013998 .3857422 .5593262 .39322917 .5585124 .40152995 .5572917 .41064454 .55566409L.4111328 .46289063Z"/>
<path id="font_1_18" d="M.48779298 .5263672V.4423828C.46240235 .45638023 .43693034 .46687828 .41137696 .47387696 .38582359 .48087565 .36002604 .484375 .33398438 .484375 .27571617 .484375 .23046875 .46585594 .19824219 .42881776 .16601563 .39178977 .14990235 .3398336 .14990235 .27294923 .14990235 .20606487 .16601563 .15410359 .19824219 .11706543 .23046875 .08003744 .27571617 .061523439 .33398438 .061523439 .36002604 .061523439 .38582359 .06502279 .41137696 .072021488 .43693034 .07902018 .46240235 .08951823 .48779298 .103515628V.020507813C.46272788 .0087890629 .43676759 0 .4099121-.005859375 .38305665-.01171875 .3544922-.0146484379 .32421876-.0146484379 .24186199-.0146484379 .1764323 .011271159 .12792969 .06311035 .079427089 .11495972 .05517578 .184906 .05517578 .27294923 .05517578 .36229453 .07967123 .43256126 .12866211 .4837494 .177653 .5349477 .24479167 .5605469 .33007813 .5605469 .3577474 .5605469 .38476563 .55769857 .4111328 .55200198 .4375 .54630538 .46305339 .53776046 .48779298 .5263672Z"/>
<path id="font_1_19" d="M.5488281 .33007813V0H.45898438V.32714845C.45898438 .379069 .44889323 .41792808 .42871095 .4437256 .40852867 .4695231 .37825523 .48242188 .33789063 .48242188 .28938804 .48242188 .2511393 .46691386 .22314453 .43589784 .19514974 .40489198 .18115235 .36262004 .18115235 .30908204V0H.09082031V.7597656H.18115235V.46191407C.20263672 .49495445 .22794597 .5196533 .25708009 .53601077 .2862142 .55236819 .31982423 .5605469 .35791017 .5605469 .4207357 .5605469 .46826173 .54105636 .5004883 .5020752 .53271487 .4630941 .5488281 .40576173 .5488281 .33007813Z"/>
<path id="font_1_20" d="M.37109376 .7597656V.6845703H.28515626C.2529297 .6845703 .23055013 .67808029 .21801758 .6651001 .20548503 .6521301 .19921875 .6287791 .19921875 .595047V.546875H.34716798V.4765625H.19921875V0H.10888672V.4765625H.022949219V.546875H.10888672V.5848236C.10888672 .6457469 .123046878 .6901347 .15136719 .71798709 .1796875 .7458394 .22460938 .7597656 .2861328 .7597656H.37109376Z"/>
<path id="font_1_21" d="M.09082031 .7597656H.18115235V.31103517L.44921876 .546875H.56396487L.27392579 .29101563 .5761719 0H.45898438L.18115235 .26708985V0H.09082031V.7597656Z"/>
<path id="font_1_22" d="M.32177735-.05078125C.29638673-.115885417 .27164714-.15836589 .2475586-.17822266 .22347005-.19807942 .19124349-.20800781 .1508789-.20800781H.07910156V-.1328125H.13183594C.15657552-.1328125 .17578125-.12695313 .18945313-.115234378 .203125-.103515628 .21826172-.07584635 .23486328-.032226564L.25097657 .0087890629 .029785157 .546875H.125L.29589845 .119140628 .46679688 .546875H.5620117L.32177735-.05078125Z"/>
<path id="font_1_23" d="M.09423828 .546875H.18408203V0H.09423828V.546875M.09423828 .7597656H.18408203V.6455078H.09423828V.7597656Z"/>
<path id="font_1_24" d="M.45410157 .2800293C.45410157 .34521485 .44067384 .3957316 .41381837 .4315796 .3869629 .46742759 .34928385 .48535157 .30078126 .48535157 .25260417 .48535157 .21508789 .46742759 .18823242 .4315796 .16137696 .3957316 .14794922 .34521485 .14794922 .2800293 .14794922 .21516927 .16137696 .16481526 .18823242 .12896729 .21508789 .0931193 .25260417 .07519531 .30078126 .07519531 .34928385 .07519531 .3869629 .0931193 .41381837 .12896729 .44067384 .16481526 .45410157 .21516927 .45410157 .2800293M.5439453 .067871097C.5439453-.025227866 .5232747-.09448242 .4819336-.13989258 .44059245-.18530274 .37727867-.20800781 .2919922-.20800781 .26041667-.20800781 .23063152-.20568848 .20263672-.2010498 .17464192-.19641114 .14746094-.18929036 .12109375-.1796875V-.091796878C.14746094-.10611979 .17350261-.11669922 .19921875-.123535159 .22493489-.1303711 .2511393-.13378906 .27783204-.13378906 .3367513-.13378906 .38085938-.1184082 .41015626-.087646488 .43945313-.056884767 .45410157-.010416667 .45410157 .051757814V.09667969C.43554688 .06429037 .41178385 .040079755 .3828125 .024047852 .35384117 .00801595 .3191732 0 .2788086 0 .2117513 0 .15771485 .02557373 .11669922 .07672119 .075683597 .12787883 .05517578 .1956482 .05517578 .2800293 .05517578 .36473594 .075683597 .43266297 .11669922 .48381043 .15771485 .5349681 .2117513 .5605469 .2788086 .5605469 .3191732 .5605469 .35384117 .55253097 .3828125 .536499 .41178385 .5204671 .43554688 .4962565 .45410157 .4638672V.546875H.5439453V.067871097Z"/>
<path id="font_1_25" d="M.34179688 .6323242 .20800781 .26953126H.47607423L.34179688 .6323242M.2861328 .7294922H.39794923L.67578127 0H.5732422L.50683596 .1875H.17822266L.111816409 0H.0078125L.2861328 .7294922Z"/>
<path id="font_2_16" d="M.15899658 .5830078V.4433136H.09298706V.36132813H.15899658V.1933136C.15899658 .13331604 .1599884 .07432556 .20098877 .031326295 .23098755 .00032043458 .28799439-.013671875 .33198548-.013671875 .41299439-.013671875 .5009918 .026321412 .5529938 .050323488L.519989 .12931824 .48799134 .11631775C.42999269 .092315677 .3829956 .07232666 .32398988 .07232666 .24499512 .07232666 .24598694 .124313358 .24598694 .1933136V.36132813H.47399903V.4433136H.24598694V.5830078H.15899658Z"/>
<path id="font_2_17" d="M.02999878 .453125V.37112428H.09799194L.23899842 .23730469 .08699036 .08198547H.01499939V0H.24598694V.08198547H.19999695L.2979889 .17817688 .394989 .08198547H.34899903V0H.58499148V.08198547H.5169983L.35699464 .23730469 .49398805 .37112428H.55999758V.453125H.33699037V.37112428H.38198854L.2979889 .29621888 .21998596 .37112428H.2619934V.453125H.02999878Z"/>
<path id="font_1_26" d="M.1171875 .12402344H.22021485V.040039064L.14013672-.11621094H.07714844L.1171875 .040039064V.12402344Z"/>
<path id="font_1_27" d="M.08496094 .21582031V.546875H.17480469V.21923828C.17480469 .1673177 .18489583 .12837728 .20507813 .10241699 .22526042 .0764567 .25553385 .06347656 .29589845 .06347656 .34440104 .06347656 .3827311 .07897949 .41088868 .10998535 .43904624 .14100139 .453125 .1832784 .453125 .2368164V.546875H.54296877V0H.453125V.083984378C.4313151 .05061849 .40600587 .025838217 .37719728 .009643555 .34838868-.006551107 .3149414-.0146484379 .27685548-.0146484379 .21402996-.0146484379 .16634114 .0049235026 .13378906 .044067384 .10123698 .083211269 .08496094 .14046224 .08496094 .21582031M.31103517 .5605469V.5605469Z"/>
<path id="font_2_13" d="M0 .453125V.37112428H.056991579V.08198547H0V0H.21299744V.08198547H.14399719V.33781434C.16699219 .35980226 .18998719 .38078309 .21798706 .38078309 .2619934 .38078309 .2619934 .3228302 .2619934 .28585816V0H.4079895V.08198547H.34899903V.3288269C.36799623 .35180665 .3889923 .38078309 .4229889 .38078309 .46699525 .38078309 .46699525 .33981324 .46699525 .28186036V0H.59999087V.08198547H.55400088V.28186036C.55400088 .33381654 .5529938 .46679688 .4269867 .46679688 .37599183 .46679688 .34399415 .43878175 .32099916 .41978456 .31298829 .43078614 .2899933 .46679688 .23899842 .46679688 .19198609 .46679688 .1599884 .43478395 .14299011 .41978456V.453125H0Z"/>
<path id="font_2_11" d="M.114990238 .453125V.37112428H.2579956V.08198547H.08799744V0H.5119934V.08198547H.34498597V.453125H.114990238M.23899842 .54003909H.34498597V.6720276H.23899842V.54003909Z"/>
<path id="font_2_14" d="M.022994996 .453125V.37112428H.10398865V.08198547H.020996094V0H.2669983V.08198547H.19099427V.3128357C.23399353 .34381105 .28199769 .38078309 .33799745 .38078309 .3869934 .38078309 .41299439 .3368225 .41299439 .28285218V.08198547H.32899476V0H.58099368V.08198547H.5V.28684999C.5 .39178468 .43598939 .46679688 .33599855 .46679688 .2709961 .46679688 .22399903 .4337921 .19099427 .41078187V.453125H.022994996Z"/>
<path id="font_2_18" d="M.397995 .6660156 .394989 .66200259C.3929901 .65901187 .3849945 .6470032 .3829956 .6450043 .33699037 .5750122 .2679901 .42100526 .2679901 .28700257 .2679901 .17300415 .31900025 .024002076 .3909912-.08299255 .394989-.08799744 .394989-.08898926 .397995-.09298706H.48999024C.42799378 .025009156 .36499024 .14401245 .36499024 .28700257 .36499024 .43000794 .43199159 .556015 .48999024 .6660156H.397995Z"/>
<path id="font_2_2" d="M.2999878 .15437317C.25498963 .15437317 .20599365 .12236023 .20599365 .069366458 .20599365 .015365601 .25498963-.015625 .2999878-.015625 .34599305-.015625 .3939972 .01637268 .3939972 .069366458 .3939972 .12336731 .34298707 .15437317 .2999878 .15437317Z"/>
<path id="font_2_15" d="M.070999149 .453125V.37112428H.18199158V.08198547H.06199646V0H.45399476V.08198547H.2689972V.2690735C.2769928 .27685548 .36799623 .38078309 .43299867 .38078309 .46699525 .38078309 .48599244 .35681153 .49699403 .33781434L.58599856 .40579225C.56399539 .4277954 .526001 .46679688 .44999696 .46679688 .3639984 .46679688 .31098939 .41879273 .2689972 .37878419V.453125H.070999149Z"/>
<path id="font_2_9" d="M.397995 .453125V.41001893C.35499574 .44403077 .2999878 .45703126 .2619934 .45703126 .14399719 .45703126 .035995485 .36201478 .035995485 .23191834 .035995485 .110824588 .13398743 .0078125 .26098634 .0078125 .33799745 .0078125 .3809967 .042800905 .397995 .05680847 .397995 .0048065187 .397995-.039276124 .34298707-.059295656 .32099916-.06732178 .29699708-.0703125 .1619873-.0703125V-.15231323H.2659912C.3929901-.15231323 .4850006-.11631775 .4850006 .044799806V.37112428H.56399539V.453125H.397995M.397995 .23095703C.397995 .15988159 .34298707 .093811038 .2639923 .093811038 .18899536 .093811038 .12799073 .15586853 .12799073 .23295594 .12799073 .3140564 .19499207 .37112428 .2649994 .37112428 .33499146 .37112428 .397995 .3140564 .397995 .23095703Z"/>
<path id="font_2_10" d="M.011993408 .63442996 .018997193 .55041506 .10899353 .556427V.08198547H.025985718V0H.27198792V.08198547H.19599915V.3128357C.2749939 .37179566 .31599427 .38078309 .34298707 .38078309 .3959961 .38078309 .41799928 .3328247 .41799928 .28385926V.08198547H.33399964V0H.58599856V.08198547H.5049896V.28785707C.5049896 .39279176 .43998719 .46679688 .34098817 .46679688 .2749939 .46679688 .22698975 .43278504 .19599915 .41078187V.6484375L.011993408 .63442996Z"/>
<path id="font_2_1" d="M.20298767-.09298706C.22799683-.052993776 .24699402-.024993897 .27398683 .037002565 .30699159 .11401367 .33198548 .20500183 .33198548 .28700257 .33198548 .352005 .31298829 .49700929 .20599365 .66200259 .20498657 .66200259 .20298767 .66500857 .20298767 .6660156H.10998535C.1749878 .54200747 .23498535 .42800904 .23498535 .28700257 .23498535 .14300537 .16699219 .01499939 .116989139-.07899475 .115997318-.08099365 .11099243-.08999634 .10998535-.09298706H.20298767Z"/>
<path id="font_2_12" d="M.09199524 .63142397 .099990848 .5484314 .2559967 .5584259V.08198547H.08799744V0H.5109863V.08198547H.34298707V.6484375L.09199524 .63142397Z"/>
<path id="font_2_7" d="M.5359955 .14431763C.48199464 .11231995 .397995 .07232666 .31498719 .07232666 .18499756 .07232666 .1619873 .1583252 .15299988 .19433594H.54499819C.54599 .20332337 .5479889 .23233032 .5479889 .25532533 .5479889 .3529358 .46798707 .46679688 .30999757 .46679688 .1559906 .46679688 .06098938 .3529358 .06098938 .22433472 .06098938 .09832764 .14898682-.013671875 .31698609-.013671875 .394989-.013671875 .48599244 .015319824 .57598879 .06732178L.5359955 .14431763M.15899658 .2763214C.16899109 .30319215 .19999695 .38078309 .31098939 .38078309 .33898927 .38078309 .42900086 .37879945 .45599366 .2763214H.15899658Z"/>
<path id="font_2_8" d="M.083999637 .4423828V.36038209H.18499756V.08198547H.083999637V0H.47799684V.08198547H.27198792V.36038209H.47799684V.4423828H.27198792V.47644044C.27198792 .52952578 .269989 .55656436 .34498597 .55656436 .36698915 .55656436 .4149933 .5545654 .48599244 .5395355L.5209961 .6255493C.4909973 .63056948 .42199708 .6425781 .35598756 .6425781 .19198609 .6425781 .18499756 .54956057 .18499756 .47743226V.4423828H.083999637Z"/>
<path id="font_2_6" d="M.2709961 .6269531 .2619934 .5419769 .4229889 .5539856V.4050293C.37998963 .43902589 .32398988 .45703126 .2749939 .45703126 .15899658 .45703126 .04399109 .36402894 .04399109 .2241211 .04399109 .09921265 .14498902-.009765625 .2769928-.009765625 .30499269-.009765625 .36799623-.004776001 .4229889 .04222107V0H.59098818V.08198547H.5099945V.6484375L.2709961 .6269531M.42099 .2230072C.42099 .13719177 .35299684 .07623291 .27799989 .07623291 .20098877 .07623291 .13598633 .1381836 .13598633 .22512818 .13598633 .31407167 .20298767 .37101747 .27799989 .37101747 .37399293 .37101747 .42099 .28800965 .42099 .2230072Z"/>
<path id="font_2_5" d="M.2939911 .2890625 .19499207 .5830078H.0029907227V.5010071H.066986087L.06098938 .08198547H.0029907227V0H.25V.08198547H.14498902L.1499939 .4380188H.1619873L.2559967 .15405274H.34399415L.43899537 .4380188H.45098878L.45599366 .08198547H.35099793V0H.59799197V.08198547H.5399933L.5339966 .5010071H.59599307V.5830078H.4039917L.31199647 .2890625H.2939911Z"/>
<path id="font_2_3" d="M.11199951 .625V.30116273L.1579895 .275177C.18499756 .29716493 .22399903 .32714845 .2849884 .32714845 .3619995 .32714845 .41099549 .2711792 .41099549 .19923401 .41099549 .14726258 .3849945 .07331848 .2749939 .07331848 .20799256 .07331848 .147995 .10029602 .11299133 .11529541 .11199951 .11628723 .10598755 .11828613 .10398865 .11929321L.07299805 .03831482C.1559906 .0063171389 .20599365-.013671875 .27999879-.013671875 .44599916-.013671875 .5029907 .11329651 .5029907 .20222473 .5029907 .31814576 .41799928 .410141 .2919922 .410141 .24398804 .410141 .20799256 .3971405 .19499207 .39213563V.5389862H.47399903V.625H.11199951Z"/>
<path id="font_2_4" d="M.08999634 .625V.45298768H.17599488V.5399933H.4119873L.21798706 0H.31498719L.5079956 .5569916V.625H.08999634Z"/>
<path id="font_1_28" d="M.18115235 .08203125V-.20800781H.09082031V.546875H.18115235V.4638672C.20003255 .49658204 .22387696 .520874 .25268556 .53674319 .28149415 .5526123 .31591798 .5605469 .35595704 .5605469 .42236329 .5605469 .47631837 .5341339 .51782229 .48130799 .5593262 .42848207 .5800781 .35902915 .5800781 .27294923 .5800781 .18686931 .5593262 .11741638 .51782229 .064590457 .47631837 .011764526 .42236329-.0146484379 .35595704-.0146484379 .31591798-.0146484379 .28149415-.006713867 .25268556 .009155273 .22387696 .025024414 .20003255 .049316408 .18115235 .08203125M.4868164 .27294923C.4868164 .33918254 .47322593 .3911387 .44604493 .42881776 .41886393 .46650697 .3815104 .48535157 .33398438 .48535157 .28645835 .48535157 .24910482 .46650697 .22192383 .42881776 .19474285 .3911387 .18115235 .33918254 .18115235 .27294923 .18115235 .2067159 .19474285 .15475464 .22192383 .11706543 .24910482 .07938639 .28645835 .060546876 .33398438 .060546876 .3815104 .060546876 .41886393 .07938639 .44604493 .11706543 .47322593 .15475464 .4868164 .2067159 .4868164 .27294923Z"/>
<path id="font_1_29" d="M.029785157 .546875H.125L.29589845 .087890628 .46679688 .546875H.5620117L.3569336 0H.23486328L.029785157 .546875Z"/>
</defs>
<g>
<path stroke-width="1.6" stroke-linecap="butt" stroke-miterlimit="4" stroke-linejoin="miter" fill="none" stroke="#800000" d="M27.961 834.648 112.004 814.445 222.719 832.223"/>
<path stroke-width="1.6" stroke-linecap="butt" stroke-miterlimit="4" stroke-linejoin="miter" fill="none" stroke="#cccccc" d="M82.387 240.832 112.102 272.832"/>
<path stroke-width="1.6" stroke-linecap="butt" stroke-miterlimit="4" stroke-linejoin="miter" fill="none" stroke="#cccccc" d="M224.559 306.66 254.273 338.66"/>
<path stroke-width="1.6" stroke-linecap="butt" stroke-miterlimit="4" stroke-linejoin="miter" fill="none" stroke="#cccccc" d="M224.102 175.234 253.816 207.234"/>
<path stroke-width="1.6" stroke-linecap="butt" stroke-miterlimit="4" stroke-linejoin="miter" fill="none" stroke="#cccccc" d="M225.586 303.805 194.73 339.234"/>
<path stroke-width="1.6" stroke-linecap="butt" stroke-miterlimit="4" stroke-linejoin="miter" fill="none" stroke="#cccccc" d="M177.816 235.461 146.957 270.891"/>
<path stroke-width="1.6" stroke-linecap="butt" stroke-miterlimit="4" stroke-linejoin="miter" fill="none" stroke="#cccccc" d="M82.957 238.203 52.102 273.633"/>
<path stroke-width="1.6" stroke-linecap="butt" stroke-miterlimit="4" stroke-linejoin="miter" fill="none" stroke="#cccccc" d="M33.586 174.891 2.73 210.32"/>
<path stroke-width="1.6" stroke-linecap="butt" stroke-miterlimit="4" stroke-linejoin="miter" fill="none" stroke="#cccccc" d="M177.016 246.32 225.016 302.32"/>
<path stroke-width="1.6" stroke-linecap="butt" stroke-miterlimit="4" stroke-linejoin="miter" fill="none" stroke="#cccccc" d="M221.586 178.891 175.871 239.461"/>
<path stroke-width="1.6" stroke-linecap="butt" stroke-miterlimit="4" stroke-linejoin="miter" fill="none" stroke="#cccccc" d="M31.871 177.746 81.016 237.176"/>
<path d="M29.586 175.461 108.445 116.035" fill="#cccccc"/>
<path stroke-width="1.6" stroke-linecap="butt" stroke-miterlimit="4" stroke-linejoin="miter" fill="none" stroke="#cccccc" d="M29.586 175.461 108.445 116.035"/>
<path d="M113.016 116.035 226.156 176.605" fill="#cccccc"/>
<path stroke-width="1.6" stroke-linecap="butt" stroke-miterlimit="4" stroke-linejoin="miter" fill="none" stroke="#cccccc" d="M113.016 116.035 226.156 176.605"/>
<path stroke-width="1.6" stroke-linecap="butt" stroke-miterlimit="4" stroke-linejoin="miter" fill="none" stroke="#cccccc" d="M356.445 118.777 386.156 150.777"/>
<path stroke-width="1.6" stroke-linecap="butt" stroke-miterlimit="4" stroke-linejoin="miter" fill="none" stroke="#cccccc" d="M348.445 117.176 317.586 152.605"/>
<path stroke-width="1.6" stroke-linecap="butt" stroke-miterlimit="4" stroke-linejoin="miter" fill="none" stroke="#cccccc" d="M292.445 47.461 351.871 114.891"/>
<path d="M111.871 111.461 284.445 48.605"/>
<path stroke-width="1.6" stroke-linecap="butt" stroke-miterlimit="4" stroke-linejoin="miter" fill="none" stroke="#800000" d="M111.871 111.461 284.445 48.605"/>
<path transform="matrix(1,0,0,.945277,0,0)" d="M307.094 51.539C307.094 62.568 298.898 71.511 288.785 71.511 278.676 71.511 270.477 62.568 270.477 51.539 270.477 40.51 278.676 31.567 288.785 31.567 298.898 31.567 307.094 40.51 307.094 51.539ZM307.094 51.539" fill="#ffffff"/>
<path transform="matrix(1,0,0,.945277,0,0)" stroke-width="1.645661" stroke-linecap="square" stroke-miterlimit="4" stroke-linejoin="miter" fill="none" stroke="#800000" d="M307.094 51.539C307.094 62.568 298.898 71.511 288.785 71.511 278.676 71.511 270.477 62.568 270.477 51.539 270.477 40.51 278.676 31.567 288.785 31.567 298.898 31.567 307.094 40.51 307.094 51.539ZM307.094 51.539"/>
<use data-text="S" xlink:href="#font_1_1" transform="matrix(17.6,0,0,-17.6,283.3007,55.461793)" fill="#800000"/>
<path transform="matrix(1,0,0,.945277,0,0)" d="M130.18 119.124C130.18 130.154 121.984 139.096 111.871 139.096 101.762 139.096 93.562 130.154 93.562 119.124 93.562 108.095 101.762 99.152 111.871 99.152 121.984 99.152 130.18 108.095 130.18 119.124ZM130.18 119.124" fill="#ffffff"/>
<path transform="matrix(1,0,0,.945277,0,0)" stroke-width="1.645661" stroke-linecap="square" stroke-miterlimit="4" stroke-linejoin="miter" fill="none" stroke="#800000" d="M130.18 119.124C130.18 130.154 121.984 139.096 111.871 139.096 101.762 139.096 93.562 130.154 93.562 119.124 93.562 108.095 101.762 99.152 111.871 99.152 121.984 99.152 130.18 108.095 130.18 119.124ZM130.18 119.124"/>
<use data-text="E" xlink:href="#font_1_2" transform="matrix(17.6,0,0,-17.6,106.386409,119.347537)" fill="#800000"/>
<path transform="matrix(1,0,0,.945277,0,0)" d="M370.18 119.124C370.18 130.154 361.984 139.096 351.871 139.096 341.762 139.096 333.562 130.154 333.562 119.124 333.562 108.095 341.762 99.152 351.871 99.152 361.984 99.152 370.18 108.095 370.18 119.124ZM370.18 119.124" fill="#ffffff"/>
<path transform="matrix(1,0,0,.945277,0,0)" stroke-width="1.645661" stroke-linecap="square" stroke-miterlimit="4" stroke-linejoin="miter" fill="none" stroke="#cccccc" d="M370.18 119.124C370.18 130.154 361.984 139.096 351.871 139.096 341.762 139.096 333.562 130.154 333.562 119.124 333.562 108.095 341.762 99.152 351.871 99.152 361.984 99.152 370.18 108.095 370.18 119.124ZM370.18 119.124"/>
<use data-text="X" xlink:href="#font_1_3" transform="matrix(17.6,0,0,-17.6,346.3864,119.347537)" fill="#cccccc"/>
<path transform="matrix(1,0,0,.945277,0,0)" d="M49.039 185.618C49.039 196.652 40.84 205.59 30.73 205.59 20.617 205.59 12.422 196.652 12.422 185.618 12.422 174.589 20.617 165.647 30.73 165.647 40.84 165.647 49.039 174.589 49.039 185.618ZM49.039 185.618" fill="#ffffff"/>
<path transform="matrix(1,0,0,.945277,0,0)" stroke-width="1.645661" stroke-linecap="square" stroke-miterlimit="4" stroke-linejoin="miter" fill="none" stroke="#cccccc" d="M49.039 185.618C49.039 196.652 40.84 205.59 30.73 205.59 20.617 205.59 12.422 196.652 12.422 185.618 12.422 174.589 20.617 165.647 30.73 165.647 40.84 165.647 49.039 174.589 49.039 185.618ZM49.039 185.618"/>
<path transform="matrix(1,0,0,.945277,0,0)" d="M242.18 184.412C242.18 195.441 233.984 204.384 223.871 204.384 213.762 204.384 205.562 195.441 205.562 184.412 205.562 173.378 213.762 164.436 223.871 164.436 233.984 164.436 242.18 173.378 242.18 184.412ZM242.18 184.412" fill="#ffffff"/>
<path transform="matrix(1,0,0,.945277,0,0)" stroke-width="1.645661" stroke-linecap="square" stroke-miterlimit="4" stroke-linejoin="miter" fill="none" stroke="#cccccc" d="M242.18 184.412C242.18 195.441 233.984 204.384 223.871 204.384 213.762 204.384 205.562 195.441 205.562 184.412 205.562 173.378 213.762 164.436 223.871 164.436 233.984 164.436 242.18 173.378 242.18 184.412ZM242.18 184.412"/>
<use data-text="R" xlink:href="#font_1_4" transform="matrix(17.6,0,0,-17.6,218.38642,181.06183)" fill="#cccccc"/>
<path transform="matrix(1,0,0,.945277,0,0)" d="M99.324 253.323C99.324 264.357 91.125 273.295 81.016 273.295 70.902 273.295 62.707 264.357 62.707 253.323 62.707 242.294 70.902 233.352 81.016 233.352 91.125 233.352 99.324 242.294 99.324 253.323ZM99.324 253.323" fill="#ffffff"/>
<path transform="matrix(1,0,0,.945277,0,0)" stroke-width="1.645661" stroke-linecap="square" stroke-miterlimit="4" stroke-linejoin="miter" fill="none" stroke="#cccccc" d="M99.324 253.323C99.324 264.357 91.125 273.295 81.016 273.295 70.902 273.295 62.707 264.357 62.707 253.323 62.707 242.294 70.902 233.352 81.016 233.352 91.125 233.352 99.324 242.294 99.324 253.323ZM99.324 253.323"/>
<use data-text="C" xlink:href="#font_1_5" transform="matrix(17.6,0,0,-17.6,75.52926,246.20465)" fill="#cccccc"/>
<path transform="matrix(1,0,0,.945277,0,0)" d="M194.18 252.117C194.18 263.146 185.984 272.089 175.871 272.089 165.762 272.089 157.562 263.146 157.562 252.117 157.562 241.083 165.762 232.141 175.871 232.141 185.984 232.141 194.18 241.083 194.18 252.117ZM194.18 252.117" fill="#ffffff"/>
<path transform="matrix(1,0,0,.945277,0,0)" stroke-width="1.645661" stroke-linecap="square" stroke-miterlimit="4" stroke-linejoin="miter" fill="none" stroke="#cccccc" d="M194.18 252.117C194.18 263.146 185.984 272.089 175.871 272.089 165.762 272.089 157.562 263.146 157.562 252.117 157.562 241.083 165.762 232.141 175.871 232.141 185.984 232.141 194.18 241.083 194.18 252.117ZM194.18 252.117"/>
<use data-text="H" xlink:href="#font_1_6" transform="matrix(17.6,0,0,-17.6,170.3864,245.06177)" fill="#cccccc"/>
<path transform="matrix(1,0,0,.945277,0,0)" d="M242.18 321.028C242.18 332.062 233.984 341 223.871 341 213.762 341 205.562 332.062 205.562 321.028 205.562 309.999 213.762 301.057 223.871 301.057 233.984 301.057 242.18 309.999 242.18 321.028ZM242.18 321.028" fill="#ffffff"/>
<path transform="matrix(1,0,0,.945277,0,0)" stroke-width="1.645661" stroke-linecap="square" stroke-miterlimit="4" stroke-linejoin="miter" fill="none" stroke="#cccccc" d="M242.18 321.028C242.18 332.062 233.984 341 223.871 341 213.762 341 205.562 332.062 205.562 321.028 205.562 309.999 213.762 301.057 223.871 301.057 233.984 301.057 242.18 309.999 242.18 321.028ZM242.18 321.028"/>
<use data-text="M" xlink:href="#font_1_7" transform="matrix(17.6,0,0,-17.6,218.38642,310.20466)" fill="#cccccc"/>
<use data-text="n" xlink:href="#font_1_8" transform="matrix(14.4,0,0,-14.4,56.244577,65.166019)"/>
<use data-text="o" xlink:href="#font_1_9" transform="matrix(14.4,0,0,-14.4,65.35977,65.166019)"/>
<use data-text="d" xlink:href="#font_1_10" transform="matrix(14.4,0,0,-14.4,74.15817,65.166019)"/>
<use data-text="e" xlink:href="#font_1_11" transform="matrix(14.4,0,0,-14.4,83.28777,65.166019)"/>
<use data-text=" " xlink:href="#font_1_12" transform="matrix(14.4,0,0,-14.4,92.143779,65.166019)"/>
<use data-text="t" xlink:href="#font_1_13" transform="matrix(14.4,0,0,-14.4,96.70857,65.166019)"/>
<use data-text="o" xlink:href="#font_1_9" transform="matrix(14.4,0,0,-14.4,102.35337,65.166019)"/>
<use data-text=" " xlink:href="#font_1_12" transform="matrix(14.4,0,0,-14.4,111.15177,65.166019)"/>
<use data-text="d" xlink:href="#font_1_10" transform="matrix(14.4,0,0,-14.4,115.71657,65.166019)"/>
<use data-text="e" xlink:href="#font_1_11" transform="matrix(14.4,0,0,-14.4,124.84617,65.166019)"/>
<use data-text="l" xlink:href="#font_1_14" transform="matrix(14.4,0,0,-14.4,133.70217,65.166019)"/>
<use data-text="e" xlink:href="#font_1_11" transform="matrix(14.4,0,0,-14.4,137.69097,65.166019)"/>
<use data-text="t" xlink:href="#font_1_13" transform="matrix(14.4,0,0,-14.4,146.54697,65.166019)"/>
<use data-text="e" xlink:href="#font_1_11" transform="matrix(14.4,0,0,-14.4,152.19178,65.166019)"/>
<use data-text="s" xlink:href="#font_1_15" transform="matrix(14.4,0,0,-14.4,197.66593,124.158939)"/>
<use data-text="e" xlink:href="#font_1_11" transform="matrix(14.4,0,0,-14.4,205.15393,124.158939)"/>
<use data-text="a" xlink:href="#font_1_16" transform="matrix(14.4,0,0,-14.4,214.00994,124.158939)"/>
<use data-text="r" xlink:href="#font_1_17" transform="matrix(14.4,0,0,-14.4,222.82274,124.158939)"/>
<use data-text="c" xlink:href="#font_1_18" transform="matrix(14.4,0,0,-14.4,228.45314,124.158939)"/>
<use data-text="h" xlink:href="#font_1_19" transform="matrix(14.4,0,0,-14.4,236.35874,124.158939)"/>
<use data-text=" " xlink:href="#font_1_12" transform="matrix(14.4,0,0,-14.4,245.47394,124.158939)"/>
<use data-text="f" xlink:href="#font_1_20" transform="matrix(14.4,0,0,-14.4,250.08194,124.158939)"/>
<use data-text="o" xlink:href="#font_1_9" transform="matrix(14.4,0,0,-14.4,255.15074,124.158939)"/>
<use data-text="r" xlink:href="#font_1_17" transform="matrix(14.4,0,0,-14.4,263.94914,124.158939)"/>
<use data-text=" " xlink:href="#font_1_12" transform="matrix(14.4,0,0,-14.4,269.86753,124.158939)"/>
<use data-text="k" xlink:href="#font_1_21" transform="matrix(14.4,0,0,-14.4,274.4323,124.158939)"/>
<use data-text="e" xlink:href="#font_1_11" transform="matrix(14.4,0,0,-14.4,282.2803,124.158939)"/>
<use data-text="y" xlink:href="#font_1_22" transform="matrix(14.4,0,0,-14.4,291.1363,124.158939)"/>
<use data-text=" " xlink:href="#font_1_12" transform="matrix(14.4,0,0,-14.4,299.6467,124.158939)"/>
<use data-text="E" xlink:href="#font_1_2" transform="matrix(14.4,0,0,-14.4,304.2115,124.158939)"/>
<use data-text="d" xlink:href="#font_1_10" transform="matrix(14.4,0,0,-14.4,2.2141114,10.940674)"/>
<use data-text="e" xlink:href="#font_1_11" transform="matrix(14.4,0,0,-14.4,11.343711,10.940674)"/>
<use data-text="l" xlink:href="#font_1_14" transform="matrix(14.4,0,0,-14.4,20.19971,10.940674)"/>
<use data-text="e" xlink:href="#font_1_11" transform="matrix(14.4,0,0,-14.4,24.18851,10.940674)"/>
<use data-text="t" xlink:href="#font_1_13" transform="matrix(14.4,0,0,-14.4,33.04451,10.940674)"/>
<use data-text="i" xlink:href="#font_1_23" transform="matrix(14.4,0,0,-14.4,38.68931,10.940674)"/>
<use data-text="n" xlink:href="#font_1_8" transform="matrix(14.4,0,0,-14.4,42.67811,10.940674)"/>
<use data-text="g" xlink:href="#font_1_24" transform="matrix(14.4,0,0,-14.4,51.79331,10.940674)"/>
<use data-text=" " xlink:href="#font_1_12" transform="matrix(14.4,0,0,-14.4,60.92291,10.940674)"/>
<use data-text="E" xlink:href="#font_1_2" transform="matrix(14.4,0,0,-14.4,65.48771,10.940674)"/>
<path stroke-width=".8" stroke-linecap="butt" stroke-miterlimit="4" stroke-linejoin="miter" fill="none" stroke="#000000" d="M94.227 70.016 102.309 91.027"/>
<path transform="matrix(-.384615,-1,1,-.384615,0,0)" d="M-110.588 58.626-109.094 57.13-114.321 58.624-109.095 60.118ZM-110.588 58.626" fill-rule="evenodd"/>
<path transform="matrix(-.384615,-1,1,-.384615,0,0)" stroke-width=".373338" stroke-linecap="butt" stroke-miterlimit="4" stroke-linejoin="miter" fill="none" stroke="#000000" d="M-110.588 58.626-109.094 57.13-114.321 58.624-109.095 60.118ZM-110.588 58.626"/>
<path stroke-width=".8" stroke-linecap="butt" stroke-miterlimit="4" stroke-linejoin="miter" fill="none" stroke="#000000" d="M241.305 111.23 221.102 74.863"/>
<path transform="matrix(.555556,1,-1,.555556,0,0)" d="M153.868-137.174 155.266-138.573 150.372-137.175 155.267-135.776ZM153.868-137.174" fill-rule="evenodd"/>
<path transform="matrix(.555556,1,-1,.555556,0,0)" stroke-width=".349663" stroke-linecap="butt" stroke-miterlimit="4" stroke-linejoin="miter" fill="none" stroke="#000000" d="M153.868-137.174 155.266-138.573 150.372-137.175 155.267-135.776ZM153.868-137.174"/>
<path stroke-width="1.6" stroke-linecap="butt" stroke-miterlimit="4" stroke-linejoin="miter" fill="none" stroke="#cccccc" d="M82.34 562.688 112.055 594.688"/>
<path stroke-width="1.6" stroke-linecap="butt" stroke-miterlimit="4" stroke-linejoin="miter" fill="none" stroke="#cccccc" d="M224.512 628.52 254.227 660.52"/>
<path stroke-width="1.6" stroke-linecap="butt" stroke-miterlimit="4" stroke-linejoin="miter" fill="none" stroke="#cccccc" d="M224.055 497.09 253.77 529.09"/>
<path stroke-width="1.6" stroke-linecap="butt" stroke-miterlimit="4" stroke-linejoin="miter" fill="none" stroke="#cccccc" d="M225.539 625.66 194.684 661.09"/>
<path stroke-width="1.6" stroke-linecap="butt" stroke-miterlimit="4" stroke-linejoin="miter" fill="none" stroke="#800000" d="M177.77 557.316 146.91 592.746"/>
<path stroke-width="1.6" stroke-linecap="butt" stroke-miterlimit="4" stroke-linejoin="miter" fill="none" stroke="#cccccc" d="M82.91 560.062 52.055 595.488"/>
<path stroke-width="1.6" stroke-linecap="butt" stroke-miterlimit="4" stroke-linejoin="miter" fill="none" stroke="#cccccc" d="M33.539 496.746 2.684 532.176"/>
<path stroke-width="1.6" stroke-linecap="butt" stroke-miterlimit="4" stroke-linejoin="miter" fill="none" stroke="#cccccc" d="M176.969 568.176 224.969 624.176"/>
<path stroke-width="1.6" stroke-linecap="butt" stroke-miterlimit="4" stroke-linejoin="miter" fill="none" stroke="#800000" d="M221.539 500.746 175.824 561.316"/>
<path stroke-width="1.6" stroke-linecap="butt" stroke-miterlimit="4" stroke-linejoin="miter" fill="none" stroke="#cccccc" d="M31.824 499.605 80.969 559.031"/>
<path d="M29.539 497.316 108.398 437.891" fill="#cccccc"/>
<path stroke-width="1.6" stroke-linecap="butt" stroke-miterlimit="4" stroke-linejoin="miter" fill="none" stroke="#cccccc" d="M29.539 497.316 108.398 437.891"/>
<path d="M112.969 437.891 226.109 498.461" fill="#cccccc"/>
<path stroke-width="1.6" stroke-linecap="butt" stroke-miterlimit="4" stroke-linejoin="miter" fill="none" stroke="#800000" d="M112.969 437.891 226.109 498.461"/>
<path stroke-width="1.6" stroke-linecap="butt" stroke-miterlimit="4" stroke-linejoin="miter" fill="none" stroke="#cccccc" d="M356.398 440.633 386.109 472.633"/>
<path stroke-width="1.6" stroke-linecap="butt" stroke-miterlimit="4" stroke-linejoin="miter" fill="none" stroke="#cccccc" d="M348.398 439.031 317.539 474.461"/>
<path d="M292.398 369.316 351.824 436.746" fill="#cccccc"/>
<path stroke-width="1.6" stroke-linecap="butt" stroke-miterlimit="4" stroke-linejoin="miter" fill="none" stroke="#cccccc" d="M292.398 369.316 351.824 436.746"/>
<path d="M111.824 433.316 284.398 370.461"/>
<path stroke-width="1.6" stroke-linecap="butt" stroke-miterlimit="4" stroke-linejoin="miter" fill="none" stroke="#cccccc" d="M111.824 433.316 284.398 370.461"/>
<path transform="matrix(1,0,0,.945277,0,0)" d="M307.047 392.027C307.047 403.06 298.852 411.999 288.738 411.999 278.629 411.999 270.434 403.06 270.434 392.027 270.434 380.998 278.629 372.055 288.738 372.055 298.852 372.055 307.047 380.998 307.047 392.027ZM307.047 392.027" fill="#ffffff"/>
<path transform="matrix(1,0,0,.945277,0,0)" stroke-width="1.645661" stroke-linecap="square" stroke-miterlimit="4" stroke-linejoin="miter" fill="none" stroke="#cccccc" d="M307.047 392.027C307.047 403.06 298.852 411.999 288.738 411.999 278.629 411.999 270.434 403.06 270.434 392.027 270.434 380.998 278.629 372.055 288.738 372.055 298.852 372.055 307.047 380.998 307.047 392.027ZM307.047 392.027"/>
<use data-text="S" xlink:href="#font_1_1" transform="matrix(17.6,0,0,-17.6,283.2541,377.318)" fill="#cccccc"/>
<path transform="matrix(1,0,0,.945277,0,0)" d="M130.133 459.612C130.133 470.641 121.938 479.584 111.824 479.584 101.715 479.584 93.516 470.641 93.516 459.612 93.516 448.583 101.715 439.64 111.824 439.64 121.938 439.64 130.133 448.583 130.133 459.612ZM130.133 459.612" fill="#ffffff"/>
<path transform="matrix(1,0,0,.945277,0,0)" stroke-width="1.645661" stroke-linecap="square" stroke-miterlimit="4" stroke-linejoin="miter" fill="none" stroke="#800000" d="M130.133 459.612C130.133 470.641 121.938 479.584 111.824 479.584 101.715 479.584 93.516 470.641 93.516 459.612 93.516 448.583 101.715 439.64 111.824 439.64 121.938 439.64 130.133 448.583 130.133 459.612ZM130.133 459.612"/>
<use data-text="E" xlink:href="#font_1_2" transform="matrix(17.6,0,0,-17.6,106.339809,441.20375)" fill="#cccccc"/>
<path transform="matrix(1,0,0,.945277,0,0)" d="M370.133 459.612C370.133 470.641 361.938 479.584 351.824 479.584 341.715 479.584 333.516 470.641 333.516 459.612 333.516 448.583 341.715 439.64 351.824 439.64 361.938 439.64 370.133 448.583 370.133 459.612ZM370.133 459.612" fill="#ffffff"/>
<path transform="matrix(1,0,0,.945277,0,0)" stroke-width="1.645661" stroke-linecap="square" stroke-miterlimit="4" stroke-linejoin="miter" fill="none" stroke="#cccccc" d="M370.133 459.612C370.133 470.641 361.938 479.584 351.824 479.584 341.715 479.584 333.516 470.641 333.516 459.612 333.516 448.583 341.715 439.64 351.824 439.64 361.938 439.64 370.133 448.583 370.133 459.612ZM370.133 459.612"/>
<use data-text="X" xlink:href="#font_1_3" transform="matrix(17.6,0,0,-17.6,346.33985,441.20375)" fill="#cccccc"/>
<path transform="matrix(1,0,0,.945277,0,0)" d="M48.992 526.106C48.992 537.14 40.793 546.082 30.684 546.082 20.57 546.082 12.375 537.14 12.375 526.106 12.375 515.077 20.57 506.134 30.684 506.134 40.793 506.134 48.992 515.077 48.992 526.106ZM48.992 526.106" fill="#ffffff"/>
<path transform="matrix(1,0,0,.945277,0,0)" stroke-width="1.645661" stroke-linecap="square" stroke-miterlimit="4" stroke-linejoin="miter" fill="none" stroke="#cccccc" d="M48.992 526.106C48.992 537.14 40.793 546.082 30.684 546.082 20.57 546.082 12.375 537.14 12.375 526.106 12.375 515.077 20.57 506.134 30.684 506.134 40.793 506.134 48.992 515.077 48.992 526.106ZM48.992 526.106"/>
<use data-text="A" xlink:href="#font_1_25" transform="matrix(17.6,0,0,-17.6,25.196963,504.06086)" fill="#cccccc"/>
<path transform="matrix(1,0,0,.945277,0,0)" d="M242.133 524.9C242.133 535.929 233.938 544.871 223.824 544.871 213.715 544.871 205.516 535.929 205.516 524.9 205.516 513.87 213.715 504.928 223.824 504.928 233.938 504.928 242.133 513.87 242.133 524.9ZM242.133 524.9" fill="#ffffff"/>
<path transform="matrix(1,0,0,.945277,0,0)" stroke-width="1.645661" stroke-linecap="square" stroke-miterlimit="4" stroke-linejoin="miter" fill="none" stroke="#800000" d="M242.133 524.9C242.133 535.929 233.938 544.871 223.824 544.871 213.715 544.871 205.516 535.929 205.516 524.9 205.516 513.87 213.715 504.928 223.824 504.928 233.938 504.928 242.133 513.87 242.133 524.9ZM242.133 524.9"/>
<use data-text="R" xlink:href="#font_1_4" transform="matrix(17.6,0,0,-17.6,218.33983,502.91798)" fill="#cccccc"/>
<path transform="matrix(1,0,0,.945277,0,0)" d="M99.277 593.811C99.277 604.845 91.078 613.787 80.969 613.787 70.855 613.787 62.66 604.845 62.66 593.811 62.66 582.782 70.855 573.839 80.969 573.839 91.078 573.839 99.277 582.782 99.277 593.811ZM99.277 593.811" fill="#ffffff"/>
<path transform="matrix(1,0,0,.945277,0,0)" stroke-width="1.645661" stroke-linecap="square" stroke-miterlimit="4" stroke-linejoin="miter" fill="none" stroke="#cccccc" d="M99.277 593.811C99.277 604.845 91.078 613.787 80.969 613.787 70.855 613.787 62.66 604.845 62.66 593.811 62.66 582.782 70.855 573.839 80.969 573.839 91.078 573.839 99.277 582.782 99.277 593.811ZM99.277 593.811"/>
<use data-text="C" xlink:href="#font_1_5" transform="matrix(17.6,0,0,-17.6,75.48266,568.06088)" fill="#cccccc"/>
<path transform="matrix(1,0,0,.945277,0,0)" d="M194.133 592.605C194.133 603.634 185.938 612.576 175.824 612.576 165.715 612.576 157.516 603.634 157.516 592.605 157.516 581.575 165.715 572.633 175.824 572.633 185.938 572.633 194.133 581.575 194.133 592.605ZM194.133 592.605" fill="#ffffff"/>
<path transform="matrix(1,0,0,.945277,0,0)" stroke-width="1.645661" stroke-linecap="square" stroke-miterlimit="4" stroke-linejoin="miter" fill="none" stroke="#800000" d="M194.133 592.605C194.133 603.634 185.938 612.576 175.824 612.576 165.715 612.576 157.516 603.634 157.516 592.605 157.516 581.575 165.715 572.633 175.824 572.633 185.938 572.633 194.133 581.575 194.133 592.605ZM194.133 592.605"/>
<use data-text="H" xlink:href="#font_1_6" transform="matrix(17.6,0,0,-17.6,170.33979,566.91799)" fill="#cccccc"/>
<path transform="matrix(1,0,0,.945277,0,0)" d="M242.133 661.516C242.133 672.55 233.938 681.492 223.824 681.492 213.715 681.492 205.516 672.55 205.516 661.516 205.516 650.487 213.715 641.544 223.824 641.544 233.938 641.544 242.133 650.487 242.133 661.516ZM242.133 661.516" fill="#ffffff"/>
<path transform="matrix(1,0,0,.945277,0,0)" stroke-width="1.645661" stroke-linecap="square" stroke-miterlimit="4" stroke-linejoin="miter" fill="none" stroke="#cccccc" d="M242.133 661.516C242.133 672.55 233.938 681.492 223.824 681.492 213.715 681.492 205.516 672.55 205.516 661.516 205.516 650.487 213.715 641.544 223.824 641.544 233.938 641.544 242.133 650.487 242.133 661.516ZM242.133 661.516"/>
<use data-text="M" xlink:href="#font_1_7" transform="matrix(17.6,0,0,-17.6,218.33983,632.0608)" fill="#cccccc"/>
<path stroke-width=".8" stroke-linecap="butt" stroke-miterlimit="4" stroke-linejoin="miter" fill="none" stroke="#000000" d="M94.18 391.871 102.262 412.883"/>
<path transform="matrix(-.384615,-1,1,-.384615,0,0)" d="M-390.951-49.253-389.458-50.748-394.685-49.255-389.459-47.761ZM-390.951-49.253" fill-rule="evenodd"/>
<path transform="matrix(-.384615,-1,1,-.384615,0,0)" stroke-width=".373338" stroke-linecap="butt" stroke-miterlimit="4" stroke-linejoin="miter" fill="none" stroke="#000000" d="M-390.951-49.253-389.458-50.748-394.685-49.255-389.459-47.761ZM-390.951-49.253"/>
<use data-text="t" xlink:href="#font_2_16" transform="matrix(14.4,0,0,-14.4,87.77758,386.7661)"/>
<path stroke-width=".8" stroke-linecap="butt" stroke-miterlimit="4" stroke-linejoin="miter" fill="none" stroke="#000000" d="M156.465 518.211 164.547 539.219"/>
<path transform="matrix(-.384615,-1,1,-.384615,0,0)" d="M-521.879-37.324-520.386-38.82-525.612-37.327-520.386-35.832ZM-521.879-37.324" fill-rule="evenodd"/>
<path transform="matrix(-.384615,-1,1,-.384615,0,0)" stroke-width=".373338" stroke-linecap="butt" stroke-miterlimit="4" stroke-linejoin="miter" fill="none" stroke="#000000" d="M-521.879-37.324-520.386-38.82-525.612-37.327-520.386-35.832ZM-521.879-37.324"/>
<use data-text="x" xlink:href="#font_2_17" transform="matrix(14.4,0,0,-14.4,150.06188,513.1047)"/>
<use data-text="g" xlink:href="#font_1_24" transform="matrix(14.4,0,0,-14.4,59.880525,636.5083)"/>
<use data-text="o" xlink:href="#font_1_9" transform="matrix(14.4,0,0,-14.4,69.010128,636.5083)"/>
<use data-text=" " xlink:href="#font_1_12" transform="matrix(14.4,0,0,-14.4,77.808528,636.5083)"/>
<use data-text="r" xlink:href="#font_1_17" transform="matrix(14.4,0,0,-14.4,82.37332,636.5083)"/>
<use data-text="i" xlink:href="#font_1_23" transform="matrix(14.4,0,0,-14.4,88.29172,636.5083)"/>
<use data-text="g" xlink:href="#font_1_24" transform="matrix(14.4,0,0,-14.4,92.28052,636.5083)"/>
<use data-text="h" xlink:href="#font_1_19" transform="matrix(14.4,0,0,-14.4,101.41012,636.5083)"/>
<use data-text="t" xlink:href="#font_1_13" transform="matrix(14.4,0,0,-14.4,110.525318,636.5083)"/>
<use data-text="," xlink:href="#font_1_26" transform="matrix(14.4,0,0,-14.4,116.17011,636.5083)"/>
<use data-text=" " xlink:href="#font_1_12" transform="matrix(14.4,0,0,-14.4,120.73491,636.5083)"/>
<use data-text="t" xlink:href="#font_1_13" transform="matrix(14.4,0,0,-14.4,125.3429,636.5083)"/>
<use data-text="h" xlink:href="#font_1_19" transform="matrix(14.4,0,0,-14.4,130.9877,636.5083)"/>
<use data-text="e" xlink:href="#font_1_11" transform="matrix(14.4,0,0,-14.4,140.1029,636.5083)"/>
<use data-text="n" xlink:href="#font_1_8" transform="matrix(14.4,0,0,-14.4,148.95891,636.5083)"/>
<use data-text="g" xlink:href="#font_1_24" transform="matrix(14.4,0,0,-14.4,67.88209,654.5083)"/>
<use data-text="o" xlink:href="#font_1_9" transform="matrix(14.4,0,0,-14.4,77.01169,654.5083)"/>
<use data-text=" " xlink:href="#font_1_12" transform="matrix(14.4,0,0,-14.4,85.81009,654.5083)"/>
<use data-text="l" xlink:href="#font_1_14" transform="matrix(14.4,0,0,-14.4,90.374889,654.5083)"/>
<use data-text="e" xlink:href="#font_1_11" transform="matrix(14.4,0,0,-14.4,94.363689,654.5083)"/>
<use data-text="f" xlink:href="#font_1_20" transform="matrix(14.4,0,0,-14.4,103.21969,654.5083)"/>
<use data-text="t" xlink:href="#font_1_13" transform="matrix(14.4,0,0,-14.4,108.01489,654.5083)"/>
<use data-text=" " xlink:href="#font_1_12" transform="matrix(14.4,0,0,-14.4,113.65969,654.5083)"/>
<use data-text="u" xlink:href="#font_1_27" transform="matrix(14.4,0,0,-14.4,118.22449,654.5083)"/>
<use data-text="n" xlink:href="#font_1_8" transform="matrix(14.4,0,0,-14.4,127.33969,654.5083)"/>
<use data-text="t" xlink:href="#font_1_13" transform="matrix(14.4,0,0,-14.4,136.4981,654.5083)"/>
<use data-text="i" xlink:href="#font_1_23" transform="matrix(14.4,0,0,-14.4,142.1429,654.5083)"/>
<use data-text="l" xlink:href="#font_1_14" transform="matrix(14.4,0,0,-14.4,146.1317,654.5083)"/>
<use data-text="r" xlink:href="#font_1_17" transform="matrix(14.4,0,0,-14.4,62.29928,672.5083)"/>
<use data-text="e" xlink:href="#font_1_11" transform="matrix(14.4,0,0,-14.4,67.91528,672.5083)"/>
<use data-text="a" xlink:href="#font_1_16" transform="matrix(14.4,0,0,-14.4,76.771289,672.5083)"/>
<use data-text="c" xlink:href="#font_1_18" transform="matrix(14.4,0,0,-14.4,85.58408,672.5083)"/>
<use data-text="h" xlink:href="#font_1_19" transform="matrix(14.4,0,0,-14.4,93.489688,672.5083)"/>
<use data-text="i" xlink:href="#font_1_23" transform="matrix(14.4,0,0,-14.4,102.64809,672.5083)"/>
<use data-text="n" xlink:href="#font_1_8" transform="matrix(14.4,0,0,-14.4,106.63689,672.5083)"/>
<use data-text="g" xlink:href="#font_1_24" transform="matrix(14.4,0,0,-14.4,115.75209,672.5083)"/>
<use data-text=" " xlink:href="#font_1_12" transform="matrix(14.4,0,0,-14.4,124.88169,672.5083)"/>
<use data-text="n" xlink:href="#font_1_8" transform="matrix(14.4,0,0,-14.4,129.44649,672.5083)"/>
<use data-text="u" xlink:href="#font_1_27" transform="matrix(14.4,0,0,-14.4,138.56169,672.5083)"/>
<use data-text="l" xlink:href="#font_1_14" transform="matrix(14.4,0,0,-14.4,147.7201,672.5083)"/>
<use data-text="l" xlink:href="#font_1_14" transform="matrix(14.4,0,0,-14.4,151.7089,672.5083)"/>
<use data-text="l" xlink:href="#font_1_14" transform="matrix(14.4,0,0,-14.4,82.36647,690.5083)"/>
<use data-text="e" xlink:href="#font_1_11" transform="matrix(14.4,0,0,-14.4,86.35527,690.5083)"/>
<use data-text="f" xlink:href="#font_1_20" transform="matrix(14.4,0,0,-14.4,95.21127,690.5083)"/>
<use data-text="t" xlink:href="#font_1_13" transform="matrix(14.4,0,0,-14.4,100.00648,690.5083)"/>
<use data-text=" " xlink:href="#font_1_12" transform="matrix(14.4,0,0,-14.4,105.651279,690.5083)"/>
<use data-text="l" xlink:href="#font_1_14" transform="matrix(14.4,0,0,-14.4,110.21607,690.5083)"/>
<use data-text="i" xlink:href="#font_1_23" transform="matrix(14.4,0,0,-14.4,114.20487,690.5083)"/>
<use data-text="n" xlink:href="#font_1_8" transform="matrix(14.4,0,0,-14.4,118.19367,690.5083)"/>
<use data-text="k" xlink:href="#font_1_21" transform="matrix(14.4,0,0,-14.4,127.30887,690.5083)"/>
<path stroke-width=".8" stroke-linecap="butt" stroke-miterlimit="4" stroke-linejoin="miter" fill="none" stroke="#000000" d="M113.621 622.77 143.523 595.293"/>
<path transform="matrix(-1,.918919,-.918919,-1,0,0)" d="M221.13-394.261 222.305-395.438 218.184-394.26 222.305-393.083ZM221.13-394.261" fill-rule="evenodd"/>
<path transform="matrix(-1,.918919,-.918919,-1,0,0)" stroke-width=".294531" stroke-linecap="butt" stroke-miterlimit="4" stroke-linejoin="miter" fill="none" stroke="#000000" d="M221.13-394.261 222.305-395.438 218.184-394.26 222.305-393.083ZM221.13-394.261"/>
<use data-text="s" xlink:href="#font_1_15" transform="matrix(14.4,0,0,-14.4,239.6883,576.7073)"/>
<use data-text="u" xlink:href="#font_1_27" transform="matrix(14.4,0,0,-14.4,247.1763,576.7073)"/>
<use data-text="c" xlink:href="#font_1_18" transform="matrix(14.4,0,0,-14.4,256.2915,576.7073)"/>
<use data-text="c" xlink:href="#font_1_18" transform="matrix(14.4,0,0,-14.4,264.1971,576.7073)"/>
<use data-text="e" xlink:href="#font_1_11" transform="matrix(14.4,0,0,-14.4,272.14595,576.7073)"/>
<use data-text="s" xlink:href="#font_1_15" transform="matrix(14.4,0,0,-14.4,281.00193,576.7073)"/>
<use data-text="s" xlink:href="#font_1_15" transform="matrix(14.4,0,0,-14.4,288.48994,576.7073)"/>
<use data-text="o" xlink:href="#font_1_9" transform="matrix(14.4,0,0,-14.4,295.97795,576.7073)"/>
<use data-text="r" xlink:href="#font_1_17" transform="matrix(14.4,0,0,-14.4,304.77635,576.7073)"/>
<use data-text="m" xlink:href="#font_2_13" transform="matrix(14.4,0,0,-14.4,232.41518,588.8291)"/>
<use data-text="i" xlink:href="#font_2_11" transform="matrix(14.4,0,0,-14.4,241.05518,588.8291)"/>
<use data-text="n" xlink:href="#font_2_14" transform="matrix(14.4,0,0,-14.4,249.69518,588.8291)"/>
<use data-text="(" xlink:href="#font_2_18" transform="matrix(14.4,0,0,-14.4,258.33518,588.8291)"/>
<use data-text="t" xlink:href="#font_2_16" transform="matrix(14.4,0,0,-14.4,266.9752,588.8291)"/>
<use data-text="." xlink:href="#font_2_2" transform="matrix(14.4,0,0,-14.4,275.6152,588.8291)"/>
<use data-text="r" xlink:href="#font_2_15" transform="matrix(14.4,0,0,-14.4,284.25523,588.8291)"/>
<use data-text="i" xlink:href="#font_2_11" transform="matrix(14.4,0,0,-14.4,292.89524,588.8291)"/>
<use data-text="g" xlink:href="#font_2_9" transform="matrix(14.4,0,0,-14.4,301.49205,588.8291)"/>
<use data-text="h" xlink:href="#font_2_10" transform="matrix(14.4,0,0,-14.4,310.13206,588.8291)"/>
<use data-text="t" xlink:href="#font_2_16" transform="matrix(14.4,0,0,-14.4,318.77207,588.8291)"/>
<use data-text=")" xlink:href="#font_2_1" transform="matrix(14.4,0,0,-14.4,327.41209,588.8291)"/>
<path stroke-width=".8" stroke-linecap="butt" stroke-miterlimit="4" stroke-linejoin="miter" fill="none" stroke="#000000" d="M233.223 573.477 196.859 563.777"/>
<path transform="matrix(1,.266667,-.266667,1,0,0)" d="M327.239 477.338 328.784 475.793 323.376 477.337 328.784 478.883ZM327.239 477.338" fill-rule="evenodd"/>
<path transform="matrix(1,.266667,-.266667,1,0,0)" stroke-width=".386494" stroke-linecap="butt" stroke-miterlimit="4" stroke-linejoin="miter" fill="none" stroke="#000000" d="M327.239 477.338 328.784 475.793 323.376 477.337 328.784 478.883ZM327.239 477.338"/>
<path stroke-width="1.6" stroke-linecap="butt" stroke-miterlimit="4" stroke-linejoin="miter" fill="none" stroke="#cccccc" d="M81.309 898.031 111.023 930.031"/>
<path stroke-width="1.6" stroke-linecap="butt" stroke-miterlimit="4" stroke-linejoin="miter" fill="none" stroke="#cccccc" d="M181.457 896.789 211.172 928.789"/>
<path stroke-width="1.6" stroke-linecap="butt" stroke-miterlimit="4" stroke-linejoin="miter" fill="none" stroke="#cccccc" d="M223.023 832.434 252.738 864.434"/>
<path d="M176.738 892.66 145.879 928.09" fill="#cccccc"/>
<path stroke-width="1.6" stroke-linecap="butt" stroke-miterlimit="4" stroke-linejoin="miter" fill="none" stroke="#cccccc" d="M176.738 892.66 145.879 928.09"/>
<path stroke-width="1.6" stroke-linecap="butt" stroke-miterlimit="4" stroke-linejoin="miter" fill="none" stroke="#cccccc" d="M81.879 895.402 51.023 930.832"/>
<path stroke-width="1.6" stroke-linecap="butt" stroke-miterlimit="4" stroke-linejoin="miter" fill="none" stroke="#cccccc" d="M32.508 832.09 1.652 867.52"/>
<path d="M220.508 836.09 174.793 896.66" fill="#800000"/>
<path stroke-width="1.6" stroke-linecap="butt" stroke-miterlimit="4" stroke-linejoin="miter" fill="none" stroke="#800000" d="M220.508 836.09 174.793 896.66"/>
<path stroke-width="1.6" stroke-linecap="butt" stroke-miterlimit="4" stroke-linejoin="miter" fill="none" stroke="#cccccc" d="M30.793 834.945 79.938 894.375"/>
<path d="M28.508 832.66 107.367 773.234" fill="#cccccc"/>
<path stroke-width="1.6" stroke-linecap="butt" stroke-miterlimit="4" stroke-linejoin="miter" fill="none" stroke="#cccccc" d="M28.508 832.66 107.367 773.234"/>
<path d="M111.938 773.234 225.078 833.805" fill="#cccccc"/>
<path stroke-width="1.6" stroke-linecap="butt" stroke-miterlimit="4" stroke-linejoin="miter" fill="none" stroke="#cccccc" d="M111.938 773.234 225.078 833.805"/>
<path stroke-width="1.6" stroke-linecap="butt" stroke-miterlimit="4" stroke-linejoin="miter" fill="none" stroke="#cccccc" d="M355.367 775.977 385.078 807.977"/>
<path stroke-width="1.6" stroke-linecap="butt" stroke-miterlimit="4" stroke-linejoin="miter" fill="none" stroke="#cccccc" d="M347.367 774.375 316.508 809.805"/>
<path d="M291.367 704.66 350.793 772.09" fill="#cccccc"/>
<path stroke-width="1.6" stroke-linecap="butt" stroke-miterlimit="4" stroke-linejoin="miter" fill="none" stroke="#cccccc" d="M291.367 704.66 350.793 772.09"/>
<path d="M110.793 768.66 283.367 705.805"/>
<path stroke-width="1.6" stroke-linecap="butt" stroke-miterlimit="4" stroke-linejoin="miter" fill="none" stroke="#cccccc" d="M110.793 768.66 283.367 705.805"/>
<path transform="matrix(1,0,0,.945277,0,0)" d="M306.016 746.784C306.016 757.813 297.82 766.756 287.707 766.756 277.598 766.756 269.398 757.813 269.398 746.784 269.398 735.755 277.598 726.812 287.707 726.812 297.82 726.812 306.016 735.755 306.016 746.784ZM306.016 746.784" fill="#ffffff"/>
<path transform="matrix(1,0,0,.945277,0,0)" stroke-width="1.645661" stroke-linecap="square" stroke-miterlimit="4" stroke-linejoin="miter" fill="none" stroke="#cccccc" d="M306.016 746.784C306.016 757.813 297.82 766.756 287.707 766.756 277.598 766.756 269.398 757.813 269.398 746.784 269.398 735.755 277.598 726.812 287.707 726.812 297.82 726.812 306.016 735.755 306.016 746.784ZM306.016 746.784"/>
<use data-text="S" xlink:href="#font_1_1" transform="matrix(17.6,0,0,-17.6,282.22267,712.66128)" fill="#cccccc"/>
<path transform="matrix(1,0,0,.945277,0,0)" d="M129.102 814.369C129.102 825.398 120.906 834.341 110.793 834.341 100.684 834.341 92.484 825.398 92.484 814.369 92.484 803.34 100.684 794.397 110.793 794.397 120.906 794.397 129.102 803.34 129.102 814.369ZM129.102 814.369" fill="#ffffff"/>
<path transform="matrix(1,0,0,.945277,0,0)" stroke-width="1.645661" stroke-linecap="square" stroke-miterlimit="4" stroke-linejoin="miter" fill="none" stroke="#cccccc" d="M129.102 814.369C129.102 825.398 120.906 834.341 110.793 834.341 100.684 834.341 92.484 825.398 92.484 814.369 92.484 803.34 100.684 794.397 110.793 794.397 120.906 794.397 129.102 803.34 129.102 814.369ZM129.102 814.369"/>
<use data-text="E" xlink:href="#font_1_2" transform="matrix(17.6,0,0,-17.6,105.30834,776.547)" fill="#cccccc"/>
<path transform="matrix(1,0,0,.945277,0,0)" d="M369.102 814.369C369.102 825.398 360.906 834.341 350.793 834.341 340.684 834.341 332.484 825.398 332.484 814.369 332.484 803.34 340.684 794.397 350.793 794.397 360.906 794.397 369.102 803.34 369.102 814.369ZM369.102 814.369" fill="#ffffff"/>
<path transform="matrix(1,0,0,.945277,0,0)" stroke-width="1.645661" stroke-linecap="square" stroke-miterlimit="4" stroke-linejoin="miter" fill="none" stroke="#cccccc" d="M369.102 814.369C369.102 825.398 360.906 834.341 350.793 834.341 340.684 834.341 332.484 825.398 332.484 814.369 332.484 803.34 340.684 794.397 350.793 794.397 360.906 794.397 369.102 803.34 369.102 814.369ZM369.102 814.369"/>
<use data-text="X" xlink:href="#font_1_3" transform="matrix(17.6,0,0,-17.6,345.30839,776.547)" fill="#cccccc"/>
<path transform="matrix(1,0,0,.945277,0,0)" d="M47.961 880.863C47.961 891.897 39.762 900.835 29.652 900.835 19.539 900.835 11.344 891.897 11.344 880.863 11.344 869.834 19.539 860.891 29.652 860.891 39.762 860.891 47.961 869.834 47.961 880.863ZM47.961 880.863" fill="#ffffff"/>
<path transform="matrix(1,0,0,.945277,0,0)" stroke-width="1.645661" stroke-linecap="square" stroke-miterlimit="4" stroke-linejoin="miter" fill="none" stroke="#cccccc" d="M47.961 880.863C47.961 891.897 39.762 900.835 29.652 900.835 19.539 900.835 11.344 891.897 11.344 880.863 11.344 869.834 19.539 860.891 29.652 860.891 39.762 860.891 47.961 869.834 47.961 880.863ZM47.961 880.863"/>
<use data-text="A" xlink:href="#font_1_25" transform="matrix(17.6,0,0,-17.6,24.165524,839.4041)" fill="#cccccc"/>
<path transform="matrix(1,0,0,.945277,0,0)" d="M241.102 879.657C241.102 890.686 232.906 899.628 222.793 899.628 212.684 899.628 204.484 890.686 204.484 879.657 204.484 868.623 212.684 859.685 222.793 859.685 232.906 859.685 241.102 868.623 241.102 879.657ZM241.102 879.657" fill="#ffffff"/>
<path transform="matrix(1,0,0,.945277,0,0)" stroke-width="1.645661" stroke-linecap="square" stroke-miterlimit="4" stroke-linejoin="miter" fill="none" stroke="#800000" d="M241.102 879.657C241.102 890.686 232.906 899.628 222.793 899.628 212.684 899.628 204.484 890.686 204.484 879.657 204.484 868.623 212.684 859.685 222.793 859.685 232.906 859.685 241.102 868.623 241.102 879.657ZM241.102 879.657"/>
<use data-text="R" xlink:href="#font_1_4" transform="matrix(17.6,0,0,-17.6,217.3084,838.2612)" fill="#cccccc"/>
<path transform="matrix(1,0,0,.945277,0,0)" d="M98.246 948.568C98.246 959.602 90.047 968.54 79.938 968.54 69.824 968.54 61.629 959.602 61.629 948.568 61.629 937.539 69.824 928.596 79.938 928.596 90.047 928.596 98.246 937.539 98.246 948.568ZM98.246 948.568" fill="#ffffff"/>
<path transform="matrix(1,0,0,.945277,0,0)" stroke-width="1.645661" stroke-linecap="square" stroke-miterlimit="4" stroke-linejoin="miter" fill="none" stroke="#cccccc" d="M98.246 948.568C98.246 959.602 90.047 968.54 79.938 968.54 69.824 968.54 61.629 959.602 61.629 948.568 61.629 937.539 69.824 928.596 79.938 928.596 90.047 928.596 98.246 937.539 98.246 948.568ZM98.246 948.568"/>
<use data-text="C" xlink:href="#font_1_5" transform="matrix(17.6,0,0,-17.6,74.45121,903.4042)" fill="#cccccc"/>
<path transform="matrix(1,0,0,.945277,0,0)" d="M193.102 947.362C193.102 958.391 184.906 967.333 174.793 967.333 164.684 967.333 156.484 958.391 156.484 947.362 156.484 936.328 164.684 927.39 174.793 927.39 184.906 927.39 193.102 936.328 193.102 947.362ZM193.102 947.362" fill="#ffffff"/>
<path transform="matrix(1,0,0,.945277,0,0)" stroke-width="1.645661" stroke-linecap="square" stroke-miterlimit="4" stroke-linejoin="miter" fill="none" stroke="#cccccc" d="M193.102 947.362C193.102 958.391 184.906 967.333 174.793 967.333 164.684 967.333 156.484 958.391 156.484 947.362 156.484 936.328 164.684 927.39 174.793 927.39 184.906 927.39 193.102 936.328 193.102 947.362ZM193.102 947.362"/>
<use data-text="M" xlink:href="#font_1_7" transform="matrix(17.6,0,0,-17.6,169.30834,902.2613)" fill="#cccccc"/>
<path stroke-width=".8" stroke-linecap="butt" stroke-miterlimit="4" stroke-linejoin="miter" fill="none" stroke="#000000" d="M13.145 788.633 21.227 809.645"/>
<path transform="matrix(-.384615,-1,1,-.384615,0,0)" d="M-709.433-252.781-707.94-254.277-713.166-252.783-707.94-251.289ZM-709.433-252.781" fill-rule="evenodd"/>
<path transform="matrix(-.384615,-1,1,-.384615,0,0)" stroke-width=".373338" stroke-linecap="butt" stroke-miterlimit="4" stroke-linejoin="miter" fill="none" stroke="#000000" d="M-709.433-252.781-707.94-254.277-713.166-252.783-707.94-251.289ZM-709.433-252.781"/>
<use data-text="t" xlink:href="#font_2_16" transform="matrix(14.4,0,0,-14.4,-1.3392,785.14297)"/>
<use data-text="." xlink:href="#font_2_2" transform="matrix(14.4,0,0,-14.4,7.3008005,785.14297)"/>
<use data-text="l" xlink:href="#font_2_12" transform="matrix(14.4,0,0,-14.4,15.940801,785.14297)"/>
<use data-text="e" xlink:href="#font_2_7" transform="matrix(14.4,0,0,-14.4,24.580801,785.14297)"/>
<use data-text="f" xlink:href="#font_2_8" transform="matrix(14.4,0,0,-14.4,33.220804,785.14297)"/>
<use data-text="t" xlink:href="#font_2_16" transform="matrix(14.4,0,0,-14.4,41.8608,785.14297)"/>
<path stroke-width=".8" stroke-linecap="butt" stroke-miterlimit="4" stroke-linejoin="miter" fill="none" stroke="#000000" d="M79.824 783.094 96.652 798.047"/>
<path transform="matrix(-1,-.88856,.88856,-1,0,0)" d="M-447.871-397.962-446.675-399.157-450.862-397.96-446.674-396.764ZM-447.871-397.962" fill-rule="evenodd"/>
<path transform="matrix(-1,-.88856,.88856,-1,0,0)" stroke-width=".299013" stroke-linecap="butt" stroke-miterlimit="4" stroke-linejoin="miter" fill="none" stroke="#000000" d="M-447.871-397.962-446.675-399.157-450.862-397.96-446.674-396.764ZM-447.871-397.962"/>
<use data-text="x" xlink:href="#font_2_17" transform="matrix(14.4,0,0,-14.4,72.25882,778.94949)"/>
<path transform="matrix(1,0,0,.945277,0,0)" d="M129.488 863.354C129.488 874.388 121.293 883.326 111.18 883.326 101.07 883.326 92.871 874.388 92.871 863.354 92.871 852.325 101.07 843.383 111.18 843.383 121.293 843.383 129.488 852.325 129.488 863.354ZM129.488 863.354" fill="#ffffff"/>
<path transform="matrix(1,0,0,.945277,0,0)" stroke-width="1.645661" stroke-linecap="square" stroke-miterlimit="4" stroke-linejoin="miter" fill="none" stroke="#800000" d="M129.488 863.354C129.488 874.388 121.293 883.326 111.18 883.326 101.07 883.326 92.871 874.388 92.871 863.354 92.871 852.325 101.07 843.383 111.18 843.383 121.293 843.383 129.488 852.325 129.488 863.354ZM129.488 863.354"/>
<use data-text="H" xlink:href="#font_1_6" transform="matrix(17.6,0,0,-17.6,105.69494,822.8532)" fill="#cccccc"/>
<use data-text="d" xlink:href="#font_2_6" transform="matrix(14.4,0,0,-14.4,198.27043,784.85159)"/>
<use data-text="e" xlink:href="#font_2_7" transform="matrix(14.4,0,0,-14.4,206.91043,784.85159)"/>
<use data-text="l" xlink:href="#font_2_12" transform="matrix(14.4,0,0,-14.4,215.55043,784.85159)"/>
<use data-text="M" xlink:href="#font_2_5" transform="matrix(14.4,0,0,-14.4,224.19043,784.85159)"/>
<use data-text="i" xlink:href="#font_2_11" transform="matrix(14.4,0,0,-14.4,232.83043,784.85159)"/>
<use data-text="n" xlink:href="#font_2_14" transform="matrix(14.4,0,0,-14.4,241.47043,784.85159)"/>
<use data-text="(" xlink:href="#font_2_18" transform="matrix(14.4,0,0,-14.4,250.11043,784.85159)"/>
<use data-text="t" xlink:href="#font_2_16" transform="matrix(14.4,0,0,-14.4,258.75044,784.85159)"/>
<use data-text="." xlink:href="#font_2_2" transform="matrix(14.4,0,0,-14.4,267.34724,784.85159)"/>
<use data-text="r" xlink:href="#font_2_15" transform="matrix(14.4,0,0,-14.4,275.98725,784.85159)"/>
<use data-text="i" xlink:href="#font_2_11" transform="matrix(14.4,0,0,-14.4,284.62727,784.85159)"/>
<use data-text="g" xlink:href="#font_2_9" transform="matrix(14.4,0,0,-14.4,293.26728,784.85159)"/>
<use data-text="h" xlink:href="#font_2_10" transform="matrix(14.4,0,0,-14.4,301.9073,784.85159)"/>
<use data-text="t" xlink:href="#font_2_16" transform="matrix(14.4,0,0,-14.4,310.5473,784.85159)"/>
<use data-text=")" xlink:href="#font_2_1" transform="matrix(14.4,0,0,-14.4,319.18733,784.85159)"/>
<path stroke-width=".8" stroke-linecap="butt" stroke-miterlimit="4" stroke-linejoin="miter" fill="none" stroke="#000000" d="M245.344 788.586 229.992 810.406"/>
<path transform="matrix(.703703,-1,1,.703703,0,0)" d="M-431.146 535.231-429.836 533.922-434.415 535.231-429.835 536.538ZM-431.146 535.231" fill-rule="evenodd"/>
<path transform="matrix(.703703,-1,1,.703703,0,0)" stroke-width=".327123" stroke-linecap="butt" stroke-miterlimit="4" stroke-linejoin="miter" fill="none" stroke="#000000" d="M-431.146 535.231-429.836 533.922-434.415 535.231-429.835 536.538ZM-431.146 535.231"/>
<path stroke-width="1.6" stroke-linecap="butt" stroke-miterlimit="4" stroke-linejoin="miter" fill="none" stroke="#cccccc" d="M81.121 1153.617 110.832 1185.617"/>
<path stroke-width="1.6" stroke-linecap="butt" stroke-miterlimit="4" stroke-linejoin="miter" fill="none" stroke="#cccccc" d="M181.27 1152.371 210.984 1184.371"/>
<path stroke-width="1.6" stroke-linecap="butt" stroke-miterlimit="4" stroke-linejoin="miter" fill="none" stroke="#cccccc" d="M222.832 1088.016 252.547 1120.016"/>
<path d="M176.547 1148.246 145.691 1183.676" fill="#cccccc"/>
<path stroke-width="1.6" stroke-linecap="butt" stroke-miterlimit="4" stroke-linejoin="miter" fill="none" stroke="#cccccc" d="M176.547 1148.246 145.691 1183.676"/>
<path stroke-width="1.6" stroke-linecap="butt" stroke-miterlimit="4" stroke-linejoin="miter" fill="none" stroke="#cccccc" d="M81.691 1150.988 50.832 1186.418"/>
<path stroke-width="1.6" stroke-linecap="butt" stroke-miterlimit="4" stroke-linejoin="miter" fill="none" stroke="#cccccc" d="M32.32 1087.676 1.461 1123.102"/>
<path d="M220.32 1091.676 174.605 1152.246" fill="#800000"/>
<path stroke-width="1.6" stroke-linecap="butt" stroke-miterlimit="4" stroke-linejoin="miter" fill="none" stroke="#cccccc" d="M220.32 1091.676 174.605 1152.246"/>
<path stroke-width="1.6" stroke-linecap="butt" stroke-miterlimit="4" stroke-linejoin="miter" fill="none" stroke="#cccccc" d="M30.605 1090.531 79.746 1149.961"/>
<path d="M28.32 1088.246 107.176 1028.816" fill="#cccccc"/>
<path stroke-width="1.6" stroke-linecap="butt" stroke-miterlimit="4" stroke-linejoin="miter" fill="none" stroke="#cccccc" d="M28.32 1088.246 107.176 1028.816"/>
<path d="M111.746 1028.816 224.891 1089.391" fill="#cccccc"/>
<path stroke-width="1.6" stroke-linecap="butt" stroke-miterlimit="4" stroke-linejoin="miter" fill="none" stroke="#cccccc" d="M111.746 1028.816 224.891 1089.391"/>
<path stroke-width="1.6" stroke-linecap="butt" stroke-miterlimit="4" stroke-linejoin="miter" fill="none" stroke="#cccccc" d="M355.176 1031.559 384.891 1063.559"/>
<path stroke-width="1.6" stroke-linecap="butt" stroke-miterlimit="4" stroke-linejoin="miter" fill="none" stroke="#cccccc" d="M347.176 1029.961 316.32 1065.391"/>
<path d="M291.176 960.246 350.605 1027.676" fill="#cccccc"/>
<path stroke-width="1.6" stroke-linecap="butt" stroke-miterlimit="4" stroke-linejoin="miter" fill="none" stroke="#cccccc" d="M291.176 960.246 350.605 1027.676"/>
<path d="M110.605 1024.246 283.176 961.391"/>
<path stroke-width="1.6" stroke-linecap="butt" stroke-miterlimit="4" stroke-linejoin="miter" fill="none" stroke="#800000" d="M110.605 1024.246 283.176 961.391"/>
<path transform="matrix(1,0,0,.945277,0,0)" d="M305.828 1017.166C305.828 1028.195 297.629 1037.138 287.52 1037.138 277.406 1037.138 269.211 1028.195 269.211 1017.166 269.211 1006.137 277.406 997.194 287.52 997.194 297.629 997.194 305.828 1006.137 305.828 1017.166ZM305.828 1017.166" fill="#ffffff"/>
<path transform="matrix(1,0,0,.945277,0,0)" stroke-width="1.645661" stroke-linecap="square" stroke-miterlimit="4" stroke-linejoin="miter" fill="none" stroke="#800000" d="M305.828 1017.166C305.828 1028.195 297.629 1037.138 287.52 1037.138 277.406 1037.138 269.211 1028.195 269.211 1017.166 269.211 1006.137 277.406 997.194 287.52 997.194 297.629 997.194 305.828 1006.137 305.828 1017.166ZM305.828 1017.166"/>
<use data-text="S" xlink:href="#font_1_1" transform="matrix(17.6,0,0,-17.6,282.03358,968.246)" fill="#cccccc"/>
<path transform="matrix(1,0,0,.945277,0,0)" d="M128.914 1084.751C128.914 1095.78 120.715 1104.723 110.605 1104.723 100.492 1104.723 92.297 1095.78 92.297 1084.751 92.297 1073.718 100.492 1064.775 110.605 1064.775 120.715 1064.775 128.914 1073.718 128.914 1084.751ZM128.914 1084.751" fill="#ffffff"/>
<path transform="matrix(1,0,0,.945277,0,0)" stroke-width="1.645661" stroke-linecap="square" stroke-miterlimit="4" stroke-linejoin="miter" fill="none" stroke="#800000" d="M128.914 1084.751C128.914 1095.78 120.715 1104.723 110.605 1104.723 100.492 1104.723 92.297 1095.78 92.297 1084.751 92.297 1073.718 100.492 1064.775 110.605 1064.775 120.715 1064.775 128.914 1073.718 128.914 1084.751ZM128.914 1084.751"/>
<use data-text="H" xlink:href="#font_1_6" transform="matrix(17.6,0,0,-17.6,105.11928,1032.1317)" fill="#cccccc"/>
<path transform="matrix(1,0,0,.945277,0,0)" d="M368.914 1084.751C368.914 1095.78 360.715 1104.723 350.605 1104.723 340.492 1104.723 332.297 1095.78 332.297 1084.751 332.297 1073.718 340.492 1064.775 350.605 1064.775 360.715 1064.775 368.914 1073.718 368.914 1084.751ZM368.914 1084.751" fill="#ffffff"/>
<path transform="matrix(1,0,0,.945277,0,0)" stroke-width="1.645661" stroke-linecap="square" stroke-miterlimit="4" stroke-linejoin="miter" fill="none" stroke="#cccccc" d="M368.914 1084.751C368.914 1095.78 360.715 1104.723 350.605 1104.723 340.492 1104.723 332.297 1095.78 332.297 1084.751 332.297 1073.718 340.492 1064.775 350.605 1064.775 360.715 1064.775 368.914 1073.718 368.914 1084.751ZM368.914 1084.751"/>
<use data-text="X" xlink:href="#font_1_3" transform="matrix(17.6,0,0,-17.6,345.11933,1032.1317)" fill="#cccccc"/>
<path transform="matrix(1,0,0,.945277,0,0)" d="M47.77 1151.245C47.77 1162.275 39.574 1171.217 29.461 1171.217 19.352 1171.217 11.152 1162.275 11.152 1151.245 11.152 1140.216 19.352 1131.273 29.461 1131.273 39.574 1131.273 47.77 1140.216 47.77 1151.245ZM47.77 1151.245" fill="#ffffff"/>
<path transform="matrix(1,0,0,.945277,0,0)" stroke-width="1.645661" stroke-linecap="square" stroke-miterlimit="4" stroke-linejoin="miter" fill="none" stroke="#cccccc" d="M47.77 1151.245C47.77 1162.275 39.574 1171.217 29.461 1171.217 19.352 1171.217 11.152 1162.275 11.152 1151.245 11.152 1140.216 19.352 1131.273 29.461 1131.273 39.574 1131.273 47.77 1140.216 47.77 1151.245ZM47.77 1151.245"/>
<use data-text="A" xlink:href="#font_1_25" transform="matrix(17.6,0,0,-17.6,23.976456,1094.9888)" fill="#cccccc"/>
<path transform="matrix(1,0,0,.945277,0,0)" d="M240.914 1150.034C240.914 1161.068 232.715 1170.01 222.605 1170.01 212.492 1170.01 204.297 1161.068 204.297 1150.034 204.297 1139.005 212.492 1130.063 222.605 1130.063 232.715 1130.063 240.914 1139.005 240.914 1150.034ZM240.914 1150.034" fill="#ffffff"/>
<path transform="matrix(1,0,0,.945277,0,0)" stroke-width="1.645661" stroke-linecap="square" stroke-miterlimit="4" stroke-linejoin="miter" fill="none" stroke="#cccccc" d="M240.914 1150.034C240.914 1161.068 232.715 1170.01 222.605 1170.01 212.492 1170.01 204.297 1161.068 204.297 1150.034 204.297 1139.005 212.492 1130.063 222.605 1130.063 232.715 1130.063 240.914 1139.005 240.914 1150.034ZM240.914 1150.034"/>
<use data-text="R" xlink:href="#font_1_4" transform="matrix(17.6,0,0,-17.6,217.11933,1093.8461)" fill="#cccccc"/>
<path transform="matrix(1,0,0,.945277,0,0)" d="M98.055 1218.95C98.055 1229.98 89.859 1238.922 79.746 1238.922 69.637 1238.922 61.441 1229.98 61.441 1218.95 61.441 1207.921 69.637 1198.978 79.746 1198.978 89.859 1198.978 98.055 1207.921 98.055 1218.95ZM98.055 1218.95" fill="#ffffff"/>
<path transform="matrix(1,0,0,.945277,0,0)" stroke-width="1.645661" stroke-linecap="square" stroke-miterlimit="4" stroke-linejoin="miter" fill="none" stroke="#cccccc" d="M98.055 1218.95C98.055 1229.98 89.859 1238.922 79.746 1238.922 69.637 1238.922 61.441 1229.98 61.441 1218.95 61.441 1207.921 69.637 1198.978 79.746 1198.978 89.859 1198.978 98.055 1207.921 98.055 1218.95ZM98.055 1218.95"/>
<use data-text="C" xlink:href="#font_1_5" transform="matrix(17.6,0,0,-17.6,74.26214,1158.989)" fill="#cccccc"/>
<path transform="matrix(1,0,0,.945277,0,0)" d="M192.914 1217.739C192.914 1228.773 184.715 1237.715 174.605 1237.715 164.492 1237.715 156.297 1228.773 156.297 1217.739 156.297 1206.71 164.492 1197.768 174.605 1197.768 184.715 1197.768 192.914 1206.71 192.914 1217.739ZM192.914 1217.739" fill="#ffffff"/>
<path transform="matrix(1,0,0,.945277,0,0)" stroke-width="1.645661" stroke-linecap="square" stroke-miterlimit="4" stroke-linejoin="miter" fill="none" stroke="#cccccc" d="M192.914 1217.739C192.914 1228.773 184.715 1237.715 174.605 1237.715 164.492 1237.715 156.297 1228.773 156.297 1217.739 156.297 1206.71 164.492 1197.768 174.605 1197.768 184.715 1197.768 192.914 1206.71 192.914 1217.739ZM192.914 1217.739"/>
<use data-text="M" xlink:href="#font_1_7" transform="matrix(17.6,0,0,-17.6,169.11928,1157.8461)" fill="#cccccc"/>
<use data-text="5" xlink:href="#font_2_3" transform="matrix(14.4,0,0,-14.4,90.99382,1004.354)"/>
<use data-text="7" xlink:href="#font_2_4" transform="matrix(14.4,0,0,-14.4,269.58879,942.1286)"/>
<use data-text="u" xlink:href="#font_1_27" transform="matrix(14.4,0,0,-14.4,264.78007,1102.0178)"/>
<use data-text="p" xlink:href="#font_1_28" transform="matrix(14.4,0,0,-14.4,273.89527,1102.0178)"/>
<use data-text="d" xlink:href="#font_1_10" transform="matrix(14.4,0,0,-14.4,283.02488,1102.0178)"/>
<use data-text="a" xlink:href="#font_1_16" transform="matrix(14.4,0,0,-14.4,292.15449,1102.0178)"/>
<use data-text="t" xlink:href="#font_1_13" transform="matrix(14.4,0,0,-14.4,300.9673,1102.0178)"/>
<use data-text="e" xlink:href="#font_1_11" transform="matrix(14.4,0,0,-14.4,306.6121,1102.0178)"/>
<use data-text=" " xlink:href="#font_1_12" transform="matrix(14.4,0,0,-14.4,315.46809,1102.0178)"/>
<use data-text="l" xlink:href="#font_1_14" transform="matrix(14.4,0,0,-14.4,320.03288,1102.0178)"/>
<use data-text="i" xlink:href="#font_1_23" transform="matrix(14.4,0,0,-14.4,324.02168,1102.0178)"/>
<use data-text="n" xlink:href="#font_1_8" transform="matrix(14.4,0,0,-14.4,328.01048,1102.0178)"/>
<use data-text="k" xlink:href="#font_1_21" transform="matrix(14.4,0,0,-14.4,337.12568,1102.0178)"/>
<use data-text="s" xlink:href="#font_1_15" transform="matrix(14.4,0,0,-14.4,345.50648,1102.0178)"/>
<use data-text=" " xlink:href="#font_1_12" transform="matrix(14.4,0,0,-14.4,352.99449,1102.0178)"/>
<use data-text="a" xlink:href="#font_1_16" transform="matrix(14.4,0,0,-14.4,357.55928,1102.0178)"/>
<use data-text="n" xlink:href="#font_1_8" transform="matrix(14.4,0,0,-14.4,366.37208,1102.0178)"/>
<use data-text="d" xlink:href="#font_1_10" transform="matrix(14.4,0,0,-14.4,375.5305,1102.0178)"/>
<use data-text="n" xlink:href="#font_1_8" transform="matrix(14.4,0,0,-14.4,261.10975,1120.0178)"/>
<use data-text="o" xlink:href="#font_1_9" transform="matrix(14.4,0,0,-14.4,270.22496,1120.0178)"/>
<use data-text="d" xlink:href="#font_1_10" transform="matrix(14.4,0,0,-14.4,279.02336,1120.0178)"/>
<use data-text="e" xlink:href="#font_1_11" transform="matrix(14.4,0,0,-14.4,288.15296,1120.0178)"/>
<use data-text=" " xlink:href="#font_1_12" transform="matrix(14.4,0,0,-14.4,297.00895,1120.0178)"/>
<use data-text="c" xlink:href="#font_1_18" transform="matrix(14.4,0,0,-14.4,301.57374,1120.0178)"/>
<use data-text="o" xlink:href="#font_1_9" transform="matrix(14.4,0,0,-14.4,309.47935,1120.0178)"/>
<use data-text="u" xlink:href="#font_1_27" transform="matrix(14.4,0,0,-14.4,318.27775,1120.0178)"/>
<use data-text="n" xlink:href="#font_1_8" transform="matrix(14.4,0,0,-14.4,327.39295,1120.0178)"/>
<use data-text="t" xlink:href="#font_1_13" transform="matrix(14.4,0,0,-14.4,336.55137,1120.0178)"/>
<use data-text="s" xlink:href="#font_1_15" transform="matrix(14.4,0,0,-14.4,342.19618,1120.0178)"/>
<use data-text=" " xlink:href="#font_1_12" transform="matrix(14.4,0,0,-14.4,349.68418,1120.0178)"/>
<use data-text="a" xlink:href="#font_1_16" transform="matrix(14.4,0,0,-14.4,354.24897,1120.0178)"/>
<use data-text="f" xlink:href="#font_1_20" transform="matrix(14.4,0,0,-14.4,363.06178,1120.0178)"/>
<use data-text="t" xlink:href="#font_1_13" transform="matrix(14.4,0,0,-14.4,367.90016,1120.0178)"/>
<use data-text="e" xlink:href="#font_1_11" transform="matrix(14.4,0,0,-14.4,373.54496,1120.0178)"/>
<use data-text="r" xlink:href="#font_1_17" transform="matrix(14.4,0,0,-14.4,382.40095,1120.0178)"/>
<use data-text="r" xlink:href="#font_1_17" transform="matrix(14.4,0,0,-14.4,273.18943,1138.0178)"/>
<use data-text="e" xlink:href="#font_1_11" transform="matrix(14.4,0,0,-14.4,278.80543,1138.0178)"/>
<use data-text="c" xlink:href="#font_1_18" transform="matrix(14.4,0,0,-14.4,287.6614,1138.0178)"/>
<use data-text="u" xlink:href="#font_1_27" transform="matrix(14.4,0,0,-14.4,295.56703,1138.0178)"/>
<use data-text="r" xlink:href="#font_1_17" transform="matrix(14.4,0,0,-14.4,304.68223,1138.0178)"/>
<use data-text="s" xlink:href="#font_1_15" transform="matrix(14.4,0,0,-14.4,310.64384,1138.0178)"/>
<use data-text="i" xlink:href="#font_1_23" transform="matrix(14.4,0,0,-14.4,318.13185,1138.0178)"/>
<use data-text="v" xlink:href="#font_1_29" transform="matrix(14.4,0,0,-14.4,322.12065,1138.0178)"/>
<use data-text="e" xlink:href="#font_1_11" transform="matrix(14.4,0,0,-14.4,330.63105,1138.0178)"/>
<use data-text=" " xlink:href="#font_1_12" transform="matrix(14.4,0,0,-14.4,339.48704,1138.0178)"/>
<use data-text="c" xlink:href="#font_1_18" transform="matrix(14.4,0,0,-14.4,344.05183,1138.0178)"/>
<use data-text="a" xlink:href="#font_1_16" transform="matrix(14.4,0,0,-14.4,351.95744,1138.0178)"/>
<use data-text="l" xlink:href="#font_1_14" transform="matrix(14.4,0,0,-14.4,360.77024,1138.0178)"/>
<use data-text="l" xlink:href="#font_1_14" transform="matrix(14.4,0,0,-14.4,364.75904,1138.0178)"/>
<use data-text="s" xlink:href="#font_1_15" transform="matrix(14.4,0,0,-14.4,368.74784,1138.0178)"/>
<path stroke-width=".8" stroke-linecap="butt" stroke-miterlimit="4" stroke-linejoin="miter" fill="none" stroke="#000000" d="M327.121 1085.738 216.094 990.301"/>
<path transform="matrix(1,.859566,-.859566,1,0,0)" d="M616.234 462.692 617.446 461.479 613.201 462.694 617.447 463.908ZM616.234 462.692" fill-rule="evenodd"/>
<path transform="matrix(1,.859566,-.859566,1,0,0)" stroke-width=".303339" stroke-linecap="butt" stroke-miterlimit="4" stroke-linejoin="miter" fill="none" stroke="#000000" d="M616.234 462.692 617.446 461.479 613.201 462.694 617.447 463.908ZM616.234 462.692"/>
<use data-text="A" xlink:href="#font_1_25" transform="matrix(17.6,0,0,-17.6,23.784319,182.38727)" fill="#cccccc"/>
</g>
</svg>
