<svg xmlns="http://www.w3.org/2000/svg" xmlns:xlink="http://www.w3.org/1999/xlink" xmlns:inkscape="http://www.inkscape.org/namespaces/inkscape" version="1.1" width="359.4" height="167.60489" viewBox="0 0 359.4 167.60489">
<defs>
<path id="font_1_1" d="M.53515627 .7050781V.60839846C.49772135 .62646487 .46240235 .6399333 .42919923 .6488037 .3959961 .65767416 .36393229 .6621094 .3330078 .6621094 .27929688 .6621094 .23787435 .6516774 .20874024 .6308136 .17960613 .6099599 .16503906 .58030197 .16503906 .5418396 .16503906 .5095723 .17472331 .48520408 .1940918 .46873475 .21346028 .4522756 .25016276 .43899537 .30419923 .42889405L.36376954 .41670228C.43733726 .4026947 .49161784 .37802125 .5266113 .34268189 .5616048 .3073527 .57910159 .26005046 .57910159 .20077515 .57910159 .13010662 .5554199 .076533 .50805667 .04005432 .46069337 .0035858155 .39127604-.0146484379 .2998047-.0146484379 .26529948-.0146484379 .228597-.010701497 .18969727-.0028076173 .15079753 .005086263 .11051432 .016764323 .068847659 .032226564V.13378906C.10888672 .11116537 .14811199 .09411621 .18652344 .0826416 .22493489 .07116699 .2626953 .06542969 .2998047 .06542969 .35611979 .06542969 .3995768 .07650757 .43017579 .09866333 .46077476 .12082926 .47607423 .15244039 .47607423 .1934967 .47607423 .22934468 .4650879 .25737 .44311524 .27757264 .42114259 .29778544 .38509117 .3129425 .33496095 .32304383L.27490235 .3347473C.20133464 .3494059 .14811199 .37236534 .115234378 .4036255 .08235677 .43489585 .06591797 .4783783 .06591797 .5340729 .06591797 .5985565 .08862305 .6493632 .1340332 .6864929 .17944336 .7236226 .24202474 .7421875 .32177735 .7421875 .35595704 .7421875 .39078776 .73909506 .42626954 .73291018 .4617513 .7267253 .49804688 .71744796 .53515627 .7050781Z"/>
<path id="font_1_2" d="M.09814453 .7294922H.55908206V.6464844H.19677735V.43066407H.5439453V.34765626H.19677735V.08300781H.5678711V0H.09814453V.7294922Z"/>
<path id="font_1_3" d="M.06298828 .7294922H.16894531L.35009767 .4584961 .53222659 .7294922H.6381836L.4038086 .37916566 .6538086 0H.54785159L.34277345 .3100586 .13623047 0H.029785157L.29003907 .38941957 .06298828 .7294922Z"/>
<path id="font_1_4" d="M.34179688 .6323242 .20800781 .26953126H.47607423L.34179688 .6323242M.2861328 .7294922H.39794923L.67578127 0H.5732422L.50683596 .1875H.17822266L.111816409 0H.0078125L.2861328 .7294922Z"/>
<path id="font_1_5" d="M.44384767 .34228517C.4650065 .33511354 .4855957 .3197937 .50561526 .29632569 .52563479 .27286784 .54573568 .24060567 .56591799 .19953919L.6660156 0H.5600586L.46679688 .18730164C.44270835 .23621114 .4193522 .26865135 .39672853 .2846222 .37410484 .30060325 .34326173 .30859376 .30419923 .30859376H.19677735V0H.09814453V.7294922H.32080079C.40413413 .7294922 .4663086 .71207687 .5073242 .6772461 .54833987 .64241537 .56884768 .58984377 .56884768 .51953127 .56884768 .4736328 .5581868 .43554688 .53686526 .40527345 .51554366 .375 .48453776 .3540039 .44384767 .34228517M.19677735 .6484375V.38964845H.32080079C.3683268 .38964845 .40421549 .40063478 .4284668 .42260743 .4527181 .44458009 .46484376 .47688804 .46484376 .51953127 .46484376 .5621745 .4527181 .59431967 .4284668 .6159668 .40421549 .63761398 .3683268 .6484375 .32080079 .6484375H.19677735Z"/>
<path id="font_1_6" d="M.64404299 .67285159V.5683594C.61083987 .5994466 .57543948 .62268069 .5378418 .6380615 .50024417 .6534424 .46028648 .6611328 .41796876 .6611328 .3346354 .6611328 .27083335 .63564047 .2265625 .58465579 .18229167 .5336711 .16015625 .45996095 .16015625 .3635254 .16015625 .26741538 .18229167 .193868 .2265625 .1428833 .27083335 .0918986 .3346354 .06640625 .41796876 .06640625 .46028648 .06640625 .50024417 .07409668 .5378418 .08947754 .57543948 .1048584 .61083987 .12809246 .64404299 .15917969V.055664064C.6095378 .032226564 .57299807 .0146484379 .5344238 .0029296876 .4958496-.0087890629 .45507813-.0146484379 .41210938-.0146484379 .3017578-.0146484379 .21484375 .019144694 .15136719 .08673096 .087890628 .1543274 .056152345 .24659221 .056152345 .3635254 .056152345 .4807841 .087890628 .5732066 .15136719 .64079287 .21484375 .7083893 .3017578 .7421875 .41210938 .7421875 .45572917 .7421875 .49682618 .7364095 .5354004 .7248535 .5739746 .71329757 .6101888 .69596359 .64404299 .67285159Z"/>
<path id="font_1_7" d="M.09814453 .7294922H.19677735V.43066407H.5551758V.7294922H.6538086V0H.5551758V.34765626H.19677735V0H.09814453V.7294922Z"/>
<path id="font_1_8" d="M.09814453 .7294922H.24511719L.43115235 .23339844 .61816409 .7294922H.7651367V0H.6689453V.640625L.48095704 .140625H.38183595L.19384766 .640625V0H.09814453V.7294922Z"/>
<path id="font_1_9" d="M.5488281 .33007813V0H.45898438V.32714845C.45898438 .379069 .44889323 .41792808 .42871095 .4437256 .40852867 .4695231 .37825523 .48242188 .33789063 .48242188 .28938804 .48242188 .2511393 .46691386 .22314453 .43589784 .19514974 .40489198 .18115235 .36262004 .18115235 .30908204V0H.09082031V.546875H.18115235V.46191407C.20263672 .49495445 .22794597 .5196533 .25708009 .53601077 .2862142 .55236819 .31982423 .5605469 .35791017 .5605469 .4207357 .5605469 .46826173 .54105636 .5004883 .5020752 .53271487 .4630941 .5488281 .40576173 .5488281 .33007813Z"/>
<path id="font_1_10" d="M.30615235 .484375C.25797526 .484375 .21988933 .4655304 .19189453 .4278412 .16389974 .39016215 .14990235 .3385315 .14990235 .27294923 .14990235 .20736695 .16381836 .1557312 .19165039 .11804199 .21948242 .08036295 .25764976 .061523439 .30615235 .061523439 .3540039 .061523439 .3919271 .080444339 .41992188 .11828613 .44791667 .1561381 .46191407 .20769246 .46191407 .27294923 .46191407 .33788047 .44791667 .38934837 .41992188 .4273529 .3919271 .46536765 .3540039 .484375 .30615235 .484375M.30615235 .5605469C.38427735 .5605469 .44563804 .5351105 .49023438 .48423768 .53483077 .43337504 .5571289 .36294557 .5571289 .27294923 .5571289 .1832784 .53483077 .11292521 .49023438 .06188965 .44563804 .010864258 .38427735-.0146484379 .30615235-.0146484379 .22770183-.0146484379 .16625977 .010864258 .12182617 .06188965 .07739258 .11292521 .05517578 .1832784 .05517578 .27294923 .05517578 .36294557 .07739258 .43337504 .12182617 .48423768 .16625977 .5351105 .22770183 .5605469 .30615235 .5605469Z"/>
<path id="font_1_11" d="M.45410157 .4638672V.7597656H.5439453V0H.45410157V.08203125C.43522135 .049316408 .41137696 .025024414 .38256837 .009155273 .35375978-.006713867 .3191732-.0146484379 .2788086-.0146484379 .21272786-.0146484379 .15893555 .011764526 .11743164 .064590457 .075927738 .11741638 .05517578 .18686931 .05517578 .27294923 .05517578 .35902915 .075927738 .42848207 .11743164 .48130799 .15893555 .5341339 .21272786 .5605469 .2788086 .5605469 .3191732 .5605469 .35375978 .5526123 .38256837 .53674319 .41137696 .520874 .43522135 .49658204 .45410157 .4638672M.14794922 .27294923C.14794922 .2067159 .16153972 .15475464 .1887207 .11706543 .21590169 .07938639 .25325523 .060546876 .30078126 .060546876 .34830729 .060546876 .3857422 .07938639 .41308595 .11706543 .4404297 .15475464 .45410157 .2067159 .45410157 .27294923 .45410157 .33918254 .4404297 .3911387 .41308595 .42881776 .3857422 .46650697 .34830729 .48535157 .30078126 .48535157 .25325523 .48535157 .21590169 .46650697 .1887207 .42881776 .16153972 .3911387 .14794922 .33918254 .14794922 .27294923Z"/>
<path id="font_1_12" d="M.5620117 .29589845V.25195313H.14892578C.15283203 .1899414 .1714681 .1427002 .20483399 .11022949 .23819988 .07775879 .28466798 .061523439 .34423829 .061523439 .3787435 .061523439 .41219078 .06575521 .44458009 .07421875 .4769694 .08268229 .50911459 .0953776 .5410156 .11230469V.02734375C.50878909 .013671875 .4757487 .0032552083 .44189454-.00390625 .40804038-.011067708 .3736979-.0146484379 .3388672-.0146484379 .2516276-.0146484379 .18253581 .010782878 .1315918 .061645509 .08064779 .11251831 .05517578 .18132019 .05517578 .26805116 .05517578 .35772196 .0793457 .42888896 .12768555 .48155213 .17602539 .5342153 .24121094 .5605469 .3232422 .5605469 .3968099 .5605469 .45499674 .53681948 .49780274 .48936463 .5406087 .44191996 .5620117 .37743125 .5620117 .29589845M.47216798 .32226563C.47151695 .37157188 .45776368 .4109141 .4309082 .44029237 .40405274 .4696808 .3684896 .484375 .32421876 .484375 .27408854 .484375 .2339681 .47016908 .20385742 .4417572 .17374675 .4133555 .15641277 .3733622 .15185547 .32177735L.47216798 .32226563Z"/>
<path id="font_1_13" d="M0 0Z"/>
<path id="font_1_14" d="M.48779298 .5263672V.4423828C.46240235 .45638023 .43693034 .46687828 .41137696 .47387696 .38582359 .48087565 .36002604 .484375 .33398438 .484375 .27571617 .484375 .23046875 .46585594 .19824219 .42881776 .16601563 .39178977 .14990235 .3398336 .14990235 .27294923 .14990235 .20606487 .16601563 .15410359 .19824219 .11706543 .23046875 .08003744 .27571617 .061523439 .33398438 .061523439 .36002604 .061523439 .38582359 .06502279 .41137696 .072021488 .43693034 .07902018 .46240235 .08951823 .48779298 .103515628V.020507813C.46272788 .0087890629 .43676759 0 .4099121-.005859375 .38305665-.01171875 .3544922-.0146484379 .32421876-.0146484379 .24186199-.0146484379 .1764323 .011271159 .12792969 .06311035 .079427089 .11495972 .05517578 .184906 .05517578 .27294923 .05517578 .36229453 .07967123 .43256126 .12866211 .4837494 .177653 .5349477 .24479167 .5605469 .33007813 .5605469 .3577474 .5605469 .38476563 .55769857 .4111328 .55200198 .4375 .54630538 .46305339 .53776046 .48779298 .5263672Z"/>
<path id="font_1_15" d="M.08496094 .21582031V.546875H.17480469V.21923828C.17480469 .1673177 .18489583 .12837728 .20507813 .10241699 .22526042 .0764567 .25553385 .06347656 .29589845 .06347656 .34440104 .06347656 .3827311 .07897949 .41088868 .10998535 .43904624 .14100139 .453125 .1832784 .453125 .2368164V.546875H.54296877V0H.453125V.083984378C.4313151 .05061849 .40600587 .025838217 .37719728 .009643555 .34838868-.006551107 .3149414-.0146484379 .27685548-.0146484379 .21402996-.0146484379 .16634114 .0049235026 .13378906 .044067384 .10123698 .083211269 .08496094 .14046224 .08496094 .21582031M.31103517 .5605469V.5605469Z"/>
<path id="font_1_16" d="M.18310547 .70214846V.546875H.36816407V.4765625H.18310547V.18005371C.18310547 .13550823 .18920899 .106892909 .20141602 .09420776 .21362305 .0815328 .23844402 .07519531 .2758789 .07519531H.36816407V0H.2758789C.20654297 0 .1586914 .01292928 .13232422 .03878784 .10595703 .06465658 .09277344 .1117452 .09277344 .18005371V.4765625H.026855469V.546875H.09277344V.70214846H.18310547Z"/>
<path id="font_1_17" d="M.3178711 .34570313C.2709961 .34570313 .23413086 .33317057 .20727539 .30810548 .18041992 .28304038 .16699219 .24853516 .16699219 .20458985 .16699219 .16064453 .18041992 .12613933 .20727539 .10107422 .23413086 .07600912 .2709961 .06347656 .3178711 .06347656 .3647461 .06347656 .40169273 .07609049 .42871095 .10131836 .45572917 .12654622 .46923829 .16097005 .46923829 .20458985 .46923829 .24853516 .45581056 .28304038 .42895509 .30810548 .4020996 .33317057 .36507163 .34570313 .3178711 .34570313M.21923828 .3879547C.17692058 .39838157 .1439616 .41808573 .12036133 .44706727 .09676107 .47605897 .08496094 .5114034 .08496094 .5531006 .08496094 .6114095 .10571289 .6575012 .1472168 .69137576 .1887207 .72525027 .24560547 .7421875 .3178711 .7421875 .39046226 .7421875 .44742839 .72525027 .48876954 .69137576 .53011068 .6575012 .55078127 .6114095 .55078127 .5531006 .55078127 .5114034 .53898116 .47605897 .51538088 .44706727 .4917806 .41808573 .45898438 .39838157 .4169922 .3879547 .46451823 .37687684 .5015462 .35521446 .5280762 .32296754 .55460616 .2907206 .5678711 .25130717 .5678711 .20472718 .5678711 .13404846 .54630538 .07981364 .5031738 .042022706 .46004234 .0042419435 .39827476-.0146484379 .3178711-.0146484379 .23746746-.0146484379 .17569988 .0042419435 .13256836 .042022706 .08943685 .07981364 .067871097 .13404846 .067871097 .20472718 .067871097 .25130717 .081217449 .2907206 .107910159 .32296754 .13460286 .35521446 .17171224 .37687684 .21923828 .3879547M.18310547 .5439453C.18310547 .5061849 .1949056 .47672526 .21850586 .4555664 .24210613 .43440757 .27522788 .42382813 .3178711 .42382813 .3601888 .42382813 .39331056 .43440757 .41723634 .4555664 .4411621 .47672526 .453125 .5061849 .453125 .5439453 .453125 .58170577 .4411621 .61116537 .41723634 .6323242 .39331056 .6534831 .3601888 .6640625 .3178711 .6640625 .27522788 .6640625 .24210613 .6534831 .21850586 .6323242 .1949056 .61116537 .18310547 .58170577 .18310547 .5439453Z"/>
<path id="font_1_18" d="M.33007813 .4033203C.28580729 .4033203 .25073243 .3881836 .22485352 .35791017 .19897461 .32763673 .18603516 .2861328 .18603516 .23339844 .18603516 .18098958 .19897461 .13956706 .22485352 .10913086 .25073243 .078694667 .28580729 .06347656 .33007813 .06347656 .37434898 .06347656 .40942384 .078694667 .43530274 .10913086 .46118165 .13956706 .4741211 .18098958 .4741211 .23339844 .4741211 .2861328 .46118165 .32763673 .43530274 .35791017 .40942384 .3881836 .37434898 .4033203 .33007813 .4033203M.5258789 .7128906V.6230469C.50113937 .6347656 .4761556 .64371749 .45092774 .64990237 .42569987 .6560872 .40071617 .6591797 .37597657 .6591797 .3108724 .6591797 .26114909 .6371663 .22680664 .59313967 .19246419 .549113 .17285156 .48258464 .16796875 .3935547 .18717449 .421875 .21126302 .44360353 .24023438 .45874024 .26920573 .47387696 .30110679 .4814453 .3359375 .4814453 .4091797 .4814453 .46704103 .45922853 .5095215 .41479493 .55200198 .37036134 .5732422 .30989585 .5732422 .23339844 .5732422 .15852864 .55110678 .098470058 .50683596 .053222658 .4625651 .007975261 .40364585-.0146484379 .33007813-.0146484379 .24576824-.0146484379 .18131511 .01767985 .13671875 .082336429 .0921224 .146993 .06982422 .24072266 .06982422 .3635254 .06982422 .47883097 .09716797 .5707652 .15185547 .639328 .20654297 .707901 .2799479 .7421875 .3720703 .7421875 .3968099 .7421875 .4217936 .7397461 .44702149 .7348633 .47224937 .72998049 .49853517 .72265627 .5258789 .7128906Z"/>
<path id="font_1_19" d="M.12402344 .08300781H.28515626V.63964846L.10986328 .6044922V.69433596L.2841797 .7294922H.3828125V.08300781H.5439453V0H.12402344V.08300781Z"/>
<path id="font_1_20" d="M.40576173 .3935547C.45296226 .3834432 .48982749 .36239625 .5163574 .33041383 .5428874 .29844157 .55615237 .258962 .55615237 .2119751 .55615237 .13986206 .5314128 .08406067 .4819336 .044570924 .43245445 .005091349 .36214195-.0146484379 .2709961-.0146484379 .24039714-.0146484379 .208903-.01163737 .17651367-.0056152346 .14412435 .00040690104 .110677089 .0094401049 .076171878 .021484375V.1171875C.103515628 .10107422 .13346355 .088907878 .16601563 .08068848 .1985677 .07246908 .23258464 .068359378 .2680664 .068359378 .32991538 .068359378 .37703453 .080607097 .40942384 .10510254 .44181315 .12960816 .4580078 .16521709 .4580078 .21192932 .4580078 .2550405 .44295249 .28876243 .4128418 .3130951 .3827311 .33743797 .3408203 .34960938 .28710938 .34960938H.20214844V.43066407H.29101563C.33951823 .43066407 .3766276 .44032798 .40234376 .45965577 .4280599 .47898356 .44091798 .50683596 .44091798 .5432129 .44091798 .5805664 .42765299 .6092326 .40112306 .6292114 .3745931 .64919027 .33658854 .6591797 .28710938 .6591797 .26009117 .6591797 .2311198 .65625 .20019531 .6503906 .16927083 .64453127 .1352539 .6354167 .09814453 .6230469V.7109375C.13557942 .7213542 .1706543 .7291667 .20336914 .734375 .23608399 .7395833 .2669271 .7421875 .29589845 .7421875 .37076823 .7421875 .43001304 .7251994 .4736328 .69122317 .5172526 .6572571 .5390625 .6113434 .5390625 .55348208 .5390625 .5131785 .52750656 .47913108 .50439456 .45133973 .48128257 .42354838 .44840495 .4042867 .40576173 .3935547Z"/>
<path id="font_1_21" d="M.19189453 .08300781H.5361328V0H.07324219V.08300781C.110677089 .12174479 .16170247 .17374675 .22631836 .23901367 .29093424 .3042806 .33154298 .34635417 .34814454 .36523438 .37972007 .40071617 .40177409 .43074546 .41430665 .45532228 .4268392 .47989909 .43310548 .50406906 .43310548 .52783206 .43310548 .56656906 .41951499 .59814456 .39233399 .6225586 .36515299 .64697268 .3297526 .6591797 .2861328 .6591797 .25520835 .6591797 .22257488 .6537679 .18823242 .64294436 .15388997 .6321208 .1171875 .61572268 .078125 .59375V.6933594C.11783854 .70947268 .15494792 .721639 .18945313 .7298584 .22395833 .7380778 .25553385 .7421875 .2841797 .7421875 .35970054 .7421875 .41992188 .7233073 .46484376 .6855469 .5097656 .64778646 .53222659 .59733077 .53222659 .5341797 .53222659 .50423178 .5266113 .47583009 .51538088 .4489746 .5041504 .42211915 .48372398 .39046226 .45410157 .3540039 .44596354 .3445638 .42008464 .31730143 .37646485 .2722168 .33284507 .22713216 .27132163 .1640625 .19189453 .08300781Z"/>
</defs>
<g>
<path stroke-width=".8" stroke-linecap="butt" stroke-miterlimit="4" stroke-linejoin="miter" fill="none" stroke="#000000" d="M169.25 154.344 183.25 166.629"/>
<path stroke-width=".8" stroke-linecap="butt" stroke-miterlimit="4" stroke-linejoin="miter" fill="none" stroke="#000000" d="M159.891 154.727 145.891 167.297"/>
<path d="M187 22.191C187 26.926 183.418 30.762 179 30.762 174.582 30.762 171 26.926 171 22.191 171 17.457 174.582 13.617 179 13.617 183.418 13.617 187 17.457 187 22.191ZM187 22.191" fill="#ffffff"/>
<path stroke-width="1.556" stroke-linecap="butt" stroke-miterlimit="4" stroke-linejoin="miter" fill="none" stroke="#000000" d="M187 22.191C187 26.926 183.418 30.762 179 30.762 174.582 30.762 171 26.926 171 22.191 171 17.457 174.582 13.617 179 13.617 183.418 13.617 187 17.457 187 22.191ZM187 22.191"/>
<use data-text="S" xlink:href="#font_1_1" transform="matrix(11.2,0,0,-11.2,175.63925,26.30394)"/>
<path d="M108.27 55.234C108.27 59.969 104.691 63.805 100.27 63.805 95.852 63.805 92.27 59.969 92.27 55.234 92.27 50.5 95.852 46.664 100.27 46.664 104.691 46.664 108.27 50.5 108.27 55.234ZM108.27 55.234" fill="#ffffff"/>
<path stroke-width="1.556" stroke-linecap="butt" stroke-miterlimit="4" stroke-linejoin="miter" fill="none" stroke="#000000" d="M108.27 55.234C108.27 59.969 104.691 63.805 100.27 63.805 95.852 63.805 92.27 59.969 92.27 55.234 92.27 50.5 95.852 46.664 100.27 46.664 104.691 46.664 108.27 50.5 108.27 55.234ZM108.27 55.234"/>
<use data-text="E" xlink:href="#font_1_2" transform="matrix(11.2,0,0,-11.2,96.339138,58.77694)"/>
<path d="M348.156 54.777C348.156 59.512 344.574 63.348 340.156 63.348 335.738 63.348 332.156 59.512 332.156 54.777 332.156 50.043 335.738 46.207 340.156 46.207 344.574 46.207 348.156 50.043 348.156 54.777ZM348.156 54.777" fill="#ffffff"/>
<path stroke-width="1.556" stroke-linecap="butt" stroke-miterlimit="4" stroke-linejoin="miter" fill="none" stroke="#000000" d="M348.156 54.777C348.156 59.512 344.574 63.348 340.156 63.348 335.738 63.348 332.156 59.512 332.156 54.777 332.156 50.043 335.738 46.207 340.156 46.207 344.574 46.207 348.156 50.043 348.156 54.777ZM348.156 54.777"/>
<use data-text="X" xlink:href="#font_1_3" transform="matrix(11.2,0,0,-11.2,336.79615,58.89125)"/>
<path d="M28.441 87.062C28.441 91.797 24.859 95.633 20.441 95.633 16.023 95.633 12.441 91.797 12.441 87.062 12.441 82.328 16.023 78.492 20.441 78.492 24.859 78.492 28.441 82.328 28.441 87.062ZM28.441 87.062" fill="#ffffff"/>
<path stroke-width="1.556" stroke-linecap="butt" stroke-miterlimit="4" stroke-linejoin="miter" fill="none" stroke="#000000" d="M28.441 87.062C28.441 91.797 24.859 95.633 20.441 95.633 16.023 95.633 12.441 91.797 12.441 87.062 12.441 82.328 16.023 78.492 20.441 78.492 24.859 78.492 28.441 82.328 28.441 87.062ZM28.441 87.062"/>
<use data-text="A" xlink:href="#font_1_4" transform="matrix(11.2,0,0,-11.2,16.51051,90.034099)"/>
<path d="M187.699 87.348C187.699 92.082 184.117 95.922 179.699 95.922 175.281 95.922 171.699 92.082 171.699 87.348 171.699 82.613 175.281 78.777 179.699 78.777 184.117 78.777 187.699 82.613 187.699 87.348ZM187.699 87.348" fill="#ffffff"/>
<path stroke-width="1.556" stroke-linecap="butt" stroke-miterlimit="4" stroke-linejoin="miter" fill="none" stroke="#000000" d="M187.699 87.348C187.699 92.082 184.117 95.922 179.699 95.922 175.281 95.922 171.699 92.082 171.699 87.348 171.699 82.613 175.281 78.777 179.699 78.777 184.117 78.777 187.699 82.613 187.699 87.348ZM187.699 87.348"/>
<use data-text="R" xlink:href="#font_1_5" transform="matrix(11.2,0,0,-11.2,176.3392,91.46266)"/>
<path d="M76.27 119.234C76.27 123.969 72.691 127.805 68.27 127.805 63.852 127.805 60.27 123.969 60.27 119.234 60.27 114.5 63.852 110.664 68.27 110.664 72.691 110.664 76.27 114.5 76.27 119.234ZM76.27 119.234" fill="#ffffff"/>
<path stroke-width="1.556" stroke-linecap="butt" stroke-miterlimit="4" stroke-linejoin="miter" fill="none" stroke="#000000" d="M76.27 119.234C76.27 123.969 72.691 127.805 68.27 127.805 63.852 127.805 60.27 123.969 60.27 119.234 60.27 114.5 63.852 110.664 68.27 110.664 72.691 110.664 76.27 114.5 76.27 119.234ZM76.27 119.234"/>
<use data-text="C" xlink:href="#font_1_6" transform="matrix(11.2,0,0,-11.2,64.33913,123.34836)"/>
<path d="M140.27 119.234C140.27 123.969 136.691 127.805 132.27 127.805 127.852 127.805 124.27 123.969 124.27 119.234 124.27 114.5 127.852 110.664 132.27 110.664 136.691 110.664 140.27 114.5 140.27 119.234ZM140.27 119.234" fill="#ffffff"/>
<path stroke-width="1.556" stroke-linecap="butt" stroke-miterlimit="4" stroke-linejoin="miter" fill="none" stroke="#000000" d="M140.27 119.234C140.27 123.969 136.691 127.805 132.27 127.805 127.852 127.805 124.27 123.969 124.27 119.234 124.27 114.5 127.852 110.664 132.27 110.664 136.691 110.664 140.27 114.5 140.27 119.234ZM140.27 119.234"/>
<use data-text="H" xlink:href="#font_1_7" transform="matrix(11.2,0,0,-11.2,128.4534,123.34836)"/>
<path d="M171.812 151.234C171.812 155.969 168.234 159.805 163.812 159.805 159.395 159.805 155.812 155.969 155.812 151.234 155.812 146.5 159.395 142.664 163.812 142.664 168.234 142.664 171.812 146.5 171.812 151.234ZM171.812 151.234" fill="#ffffff"/>
<path stroke-width="1.556" stroke-linecap="butt" stroke-miterlimit="4" stroke-linejoin="miter" fill="none" stroke="#000000" d="M171.812 151.234C171.812 155.969 168.234 159.805 163.812 159.805 159.395 159.805 155.812 155.969 155.812 151.234 155.812 146.5 159.395 142.664 163.812 142.664 168.234 142.664 171.812 146.5 171.812 151.234ZM171.812 151.234"/>
<use data-text="M" xlink:href="#font_1_8" transform="matrix(11.2,0,0,-11.2,158.85343,155.34836)"/>
<path stroke-width=".8" stroke-linecap="butt" stroke-miterlimit="4" stroke-linejoin="miter" fill="none" stroke="#000000" d="M27.129 81.52 92.27 56.664"/>
<path stroke-width=".8" stroke-linecap="butt" stroke-miterlimit="4" stroke-linejoin="miter" fill="none" stroke="#000000" d="M107.129 50.379 171.414 24.664"/>
<path stroke-width=".8" stroke-linecap="butt" stroke-miterlimit="4" stroke-linejoin="miter" fill="none" stroke="#000000" d="M27.699 90.664 60.844 115.52"/>
<path stroke-width=".8" stroke-linecap="butt" stroke-miterlimit="4" stroke-linejoin="miter" fill="none" stroke="#000000" d="M108.559 56.379 171.984 85.234"/>
<path stroke-width=".8" stroke-linecap="butt" stroke-miterlimit="4" stroke-linejoin="miter" fill="none" stroke="#000000" d="M139.984 115.805 173.129 92.664"/>
<path stroke-width=".8" stroke-linecap="butt" stroke-miterlimit="4" stroke-linejoin="miter" fill="none" stroke="#000000" d="M139.129 123.52 158.844 144.094"/>
<path stroke-width=".8" stroke-linecap="butt" stroke-miterlimit="4" stroke-linejoin="miter" fill="none" stroke="#000000" d="M186.559 25.234 332.27 54.094"/>
<path stroke-width=".8" stroke-linecap="butt" stroke-miterlimit="4" stroke-linejoin="miter" fill="none" stroke="#000000" d="M14.27 92.949 .27 105.52"/>
<path stroke-width=".8" stroke-linecap="butt" stroke-miterlimit="4" stroke-linejoin="miter" fill="none" stroke="#000000" d="M61.844 124.094 47.844 136.664"/>
<path stroke-width=".8" stroke-linecap="butt" stroke-miterlimit="4" stroke-linejoin="miter" fill="none" stroke="#000000" d="M126.645 124.719 112.645 137.293"/>
<path stroke-width=".8" stroke-linecap="butt" stroke-miterlimit="4" stroke-linejoin="miter" fill="none" stroke="#000000" d="M335.77 62.477 321.77 75.047"/>
<path stroke-width=".8" stroke-linecap="butt" stroke-miterlimit="4" stroke-linejoin="miter" fill="none" stroke="#000000" d="M345.129 62.094 359.129 74.379"/>
<path stroke-width=".8" stroke-linecap="butt" stroke-miterlimit="4" stroke-linejoin="miter" fill="none" stroke="#000000" d="M185.043 93.836 199.043 106.121"/>
<path stroke-width=".8" stroke-linecap="butt" stroke-miterlimit="4" stroke-linejoin="miter" fill="none" stroke="#000000" d="M74.473 125.297 88.473 137.586"/>
<use data-text="n" xlink:href="#font_1_9" transform="matrix(11.2,0,0,-11.2,146.95713,43.4413)"/>
<use data-text="o" xlink:href="#font_1_10" transform="matrix(11.2,0,0,-11.2,154.04673,43.4413)"/>
<use data-text="d" xlink:href="#font_1_11" transform="matrix(11.2,0,0,-11.2,160.88993,43.4413)"/>
<use data-text="e" xlink:href="#font_1_12" transform="matrix(11.2,0,0,-11.2,167.99073,43.4413)"/>
<use data-text=" " xlink:href="#font_1_13" transform="matrix(11.2,0,0,-11.2,174.87873,43.4413)"/>
<use data-text="c" xlink:href="#font_1_14" transform="matrix(11.2,0,0,-11.2,178.42913,43.4413)"/>
<use data-text="o" xlink:href="#font_1_10" transform="matrix(11.2,0,0,-11.2,184.57793,43.4413)"/>
<use data-text="u" xlink:href="#font_1_15" transform="matrix(11.2,0,0,-11.2,191.42113,43.4413)"/>
<use data-text="n" xlink:href="#font_1_9" transform="matrix(11.2,0,0,-11.2,198.51073,43.4413)"/>
<use data-text="t" xlink:href="#font_1_16" transform="matrix(11.2,0,0,-11.2,205.63393,43.4413)"/>
<path stroke-width=".8" stroke-linecap="butt" stroke-miterlimit="4" stroke-linejoin="miter" fill="none" stroke="#000000" d="M180.328 45.957V63.668"/>
<path transform="matrix(0,-1,1,0,0,0)" d="M-60.469 180.328-58.871 178.73-64.469 180.328-58.871 181.93ZM-60.469 180.328" fill-rule="evenodd"/>
<path transform="matrix(0,-1,1,0,0,0)" stroke-width=".4" stroke-linecap="butt" stroke-miterlimit="4" stroke-linejoin="miter" fill="none" stroke="#000000" d="M-60.469 180.328-58.871 178.73-64.469 180.328-58.871 181.93ZM-60.469 180.328"/>
<use data-text="8" xlink:href="#font_1_17" transform="matrix(11.2,0,0,-11.2,175.47144,8.3125)"/>
<use data-text="6" xlink:href="#font_1_18" transform="matrix(11.2,0,0,-11.2,95.33985,42.103715)"/>
<use data-text="1" xlink:href="#font_1_19" transform="matrix(11.2,0,0,-11.2,335.33985,40.503717)"/>
<use data-text="3" xlink:href="#font_1_20" transform="matrix(11.2,0,0,-11.2,176.93985,75.70371)"/>
<use data-text="2" xlink:href="#font_1_21" transform="matrix(11.2,0,0,-11.2,15.225571,74.21802)"/>
<use data-text="1" xlink:href="#font_1_19" transform="matrix(11.2,0,0,-11.2,64.82557,106.21802)"/>
<use data-text="2" xlink:href="#font_1_21" transform="matrix(11.2,0,0,-11.2,128.82238,106.21802)"/>
<use data-text="1" xlink:href="#font_1_19" transform="matrix(11.2,0,0,-11.2,159.22556,138.21802)"/>
</g>
</svg>
