<svg xmlns="http://www.w3.org/2000/svg" xmlns:xlink="http://www.w3.org/1999/xlink" xmlns:inkscape="http://www.inkscape.org/namespaces/inkscape" version="1.1" width="765.12" height="183.12" viewBox="0 0 765.12 183.12">
<defs>
<clipPath id="clip_1">
<path transform="matrix(.24,0,0,.24,0,0)" d="M0 0H3187.4998V760.9257H0Z" clip-rule="evenodd"/>
</clipPath>
<clipPath id="clip_2">
<path transform="matrix(.24,0,0,.24,0,0)" d="M0 0H3187.4998V757.92996H0Z" clip-rule="evenodd"/>
</clipPath>
<path id="font_3_48" d="M.07421875 0V.7158203H.21679688L.38623048 .20898438C.40185548 .16178386 .4132487 .12646485 .42041017 .103027347 .4285482 .12906902 .4412435 .1673177 .4584961 .21777344L.6298828 .7158203H.7573242V0H.6660156V.5991211L.4580078 0H.3725586L.16552735 .609375V0H.07421875Z"/>
<path id="font_3_40" d="M.07910156 0V.7158203H.5966797V.63134768H.17382813V.41210938H.5698242V.32910157H.17382813V.084472659H.61328127V0H.07910156Z"/>
<path id="font_3_42" d="M.41210938 .28222657V.36523438L.71533206 .36572267V.10058594C.66878256 .063313808 .62076827 .03527832 .57128909 .016479493 .5218099-.002319336 .47102867-.01171875 .4189453-.01171875 .3486328-.01171875 .28474937 .0033365887 .22729492 .033447267 .1698405 .063557948 .12646485 .10709635 .09716797 .1640625 .067871097 .22102864 .053222658 .28466798 .053222658 .35498048 .053222658 .42464195 .06778971 .4896647 .09692383 .5500488 .12605794 .6104329 .16796875 .65527346 .22265625 .6845703 .27734376 .7138672 .34033204 .7285156 .4116211 .7285156 .4633789 .7285156 .51017257 .7201538 .55200198 .7034302 .59383139 .68670657 .6266276 .6634013 .6503906 .6335144 .6741536 .6036377 .69222006 .56466677 .70458987 .51660159L.6191406 .49316407C.60839846 .5296224 .59505209 .55826827 .57910159 .57910159 .56315109 .5999349 .54036459 .61661788 .5107422 .6291504 .48111979 .6416829 .4482422 .6479492 .41210938 .6479492 .3688151 .6479492 .33138023 .64135238 .2998047 .62815859 .26822917 .6149648 .24275716 .59761556 .22338867 .57611086 .20402019 .55460616 .18896485 .53098556 .17822266 .505249 .15999349 .4609375 .1508789 .41288249 .1508789 .36108399 .1508789 .29723106 .16186524 .24379985 .18383789 .2007904 .20581055 .15778096 .23779297 .12584941 .27978517 .10499573 .32177735 .08415222 .3663737 .07373047 .41357423 .07373047 .45458985 .07373047 .4946289 .08167521 .5336914 .0975647 .5727539 .113454189 .6023763 .13041179 .6225586 .1484375V.28222657H.41210938Z"/>
</defs>
<g clip-path="url(#clip_1)">
<path transform="matrix(.7189849,0,0,.7189849,0,0)" d="M0 0H1064V254H0Z" fill="#ffffff"/>
</g>
<g clip-path="url(#clip_2)">
<path transform="matrix(.7189849,0,0,.7189849,.35949246,.35949246)" stroke-width="1" stroke-linecap="butt" stroke-miterlimit="10" stroke-linejoin="miter" fill="none" stroke="#000000" d="M189.94 15.47 255.3 48.15"/>
<path transform="matrix(.7189849,0,0,.7189849,.35949246,.35949246)" d="M260 50.5H252.17L255.3 48.15V44.24L260 50.5Z"/>
<path transform="matrix(.7189849,0,0,.7189849,.35949246,.35949246)" stroke-width="1" stroke-linecap="butt" stroke-miterlimit="10" stroke-linejoin="miter" fill="none" stroke="#000000" d="M260 50.5H252.17L255.3 48.15V44.24L260 50.5Z"/>
<path transform="matrix(.7189849,0,0,.7189849,.35949246,.35949246)" stroke-width="1" stroke-linecap="butt" stroke-miterlimit="10" stroke-linejoin="miter" fill="none" stroke="#000000" d="M172.03 15.42 115.64 43.68"/>
<path transform="matrix(.7189849,0,0,.7189849,.35949246,.35949246)" d="M110.94 46.03 115.63 39.76 115.64 43.68 118.77 46.02 110.94 46.03Z"/>
<path transform="matrix(.7189849,0,0,.7189849,.35949246,.35949246)" stroke-width="1" stroke-linecap="butt" stroke-miterlimit="10" stroke-linejoin="miter" fill="none" stroke="#000000" d="M110.94 46.03 115.63 39.76 115.64 43.68 118.77 46.02 110.94 46.03Z"/>
<path transform="matrix(.7189849,0,0,.7189849,.35949246,.35949246)" d="M191 11C190.99999 11.656609 190.93593 12.30691 190.80783 12.950903 190.67974 13.594895 190.49004 14.220205 190.23876 14.826834 189.98749 15.433461 189.67946 16.00975 189.31467 16.5557 188.94988 17.10165 188.53533 17.606774 188.07105 18.071068 187.60675 18.53536 187.10163 18.949902 186.55567 19.314694 186.00972 19.679488 185.43343 19.98752 184.8268 20.238795 184.22017 20.490067 183.59487 20.679753 182.95088 20.80785 182.3069 20.93595 181.6566 20.999999 181 21 180.34339 20.999999 179.69309 20.93595 179.04909 20.80785 178.40509 20.679753 177.77979 20.490067 177.17314 20.238795 176.56652 19.98752 175.99022 19.679488 175.44428 19.314694 174.89833 18.949902 174.3932 18.53536 173.92893 18.071068 173.46463 17.606774 173.05008 17.10165 172.68529 16.5557 172.3205 16.00975 172.01247 15.433461 171.7612 14.826834 171.50992 14.220205 171.32024 13.594895 171.19214 12.950903 171.06404 12.30691 171 11.656609 171 11 171 10.34339 171.06404 9.693089 171.19214 9.049096 171.32024 8.405103 171.50992 7.7797925 171.7612 7.173165 172.01247 6.566537 172.3205 5.9902479 172.68529 5.4442975 173.05008 4.8983466 173.46463 4.3932249 173.92893 3.928932 174.3932 3.464639 174.89833 3.050096 175.44428 2.6853035 175.99022 2.3205109 176.56652 2.0124779 177.17314 1.7612045 177.77979 1.509931 178.40509 1.3202453 179.04909 1.1921471 179.69309 1.064049 180.34339 1 181 1 181.6566 1 182.3069 1.0640491 182.95088 1.1921473 183.59487 1.3202453 184.22017 1.5099311 184.8268 1.7612046 185.43343 2.0124779 186.00972 2.3205109 186.55567 2.6853035 187.10163 3.050096 187.60675 3.464639 188.07105 3.928932 188.53533 4.3932249 188.94988 4.8983466 189.31467 5.4442975 189.67946 5.9902479 189.98749 6.566537 190.23876 7.173165 190.49004 7.7797925 190.67974 8.405103 190.80783 9.049096 190.93593 9.693089 190.99999 10.34339 191 11Z" fill="#fff2cc"/>
<path transform="matrix(.7189849,0,0,.7189849,.35949246,.35949246)" stroke-width="1" stroke-linecap="butt" stroke-miterlimit="4" stroke-linejoin="miter" fill="none" stroke="#d6b656" d="M191 11C190.99999 11.656609 190.93593 12.30691 190.80783 12.950903 190.67974 13.594895 190.49004 14.220205 190.23876 14.826834 189.98749 15.433461 189.67946 16.00975 189.31467 16.5557 188.94988 17.10165 188.53533 17.606774 188.07105 18.071068 187.60675 18.53536 187.10163 18.949902 186.55567 19.314694 186.00972 19.679488 185.43343 19.98752 184.8268 20.238795 184.22017 20.490067 183.59487 20.679753 182.95088 20.80785 182.3069 20.93595 181.6566 20.999999 181 21 180.34339 20.999999 179.69309 20.93595 179.04909 20.80785 178.40509 20.679753 177.77979 20.490067 177.17314 20.238795 176.56652 19.98752 175.99022 19.679488 175.44428 19.314694 174.89833 18.949902 174.3932 18.53536 173.92893 18.071068 173.46463 17.606774 173.05008 17.10165 172.68529 16.5557 172.3205 16.00975 172.01247 15.433461 171.7612 14.826834 171.50992 14.220205 171.32024 13.594895 171.19214 12.950903 171.06404 12.30691 171 11.656609 171 11 171 10.34339 171.06404 9.693089 171.19214 9.049096 171.32024 8.405103 171.50992 7.7797925 171.7612 7.173165 172.01247 6.566537 172.3205 5.9902479 172.68529 5.4442975 173.05008 4.8983466 173.46463 4.3932249 173.92893 3.928932 174.3932 3.464639 174.89833 3.050096 175.44428 2.6853035 175.99022 2.3205109 176.56652 2.0124779 177.17314 1.7612045 177.77979 1.509931 178.40509 1.3202453 179.04909 1.1921471 179.69309 1.064049 180.34339 1 181 1 181.6566 1 182.3069 1.0640491 182.95088 1.1921473 183.59487 1.3202453 184.22017 1.5099311 184.8268 1.7612046 185.43343 2.0124779 186.00972 2.3205109 186.55567 2.6853035 187.10163 3.050096 187.60675 3.464639 188.07105 3.928932 188.53533 4.3932249 188.94988 4.8983466 189.31467 5.4442975 189.67946 5.9902479 189.98749 6.566537 190.23876 7.173165 190.49004 7.7797925 190.67974 8.405103 190.80783 9.049096 190.93593 9.693089 190.99999 10.34339 191 11Z"/>
<use data-text="M" xlink:href="#font_3_48" transform="matrix(8.627819,0,0,-8.627819,126.54134,11.503758)"/>
<path transform="matrix(.7189849,0,0,.7189849,.35949246,.35949246)" d="M341 251.5H338V250.5H341M335 251.5H332V250.5H335M329 251.5H326V250.5H329M323 251.5H320V250.5H323M317 251.5H314V250.5H317M311 251.5H308V250.5H311M305 251.5H302V250.5H305M299 251.5H296V250.5H299M293 251.5H290V250.5H293M287 251.5H284V250.5H287M281 251.5H278V250.5H281M275 251.5H272V250.5H275M269 251.5H266V250.5H269M263 251.5H260V250.5H263M257 251.5H254V250.5H257M251 251.5H248V250.5H251M245 251.5H242V250.5H245M239 251.5H236V250.5H239M233 251.5H230V250.5H233M227 251.5H224V250.5H227M221 251.5H218V250.5H221M215 251.5H212V250.5H215M209 251.5H206V250.5H209M203 251.5H200V250.5H203M197 251.5H194V250.5H197M191 251.5H188V250.5H191M185 251.5H182V250.5H185M179 251.5H176V250.5H179M173 251.5H170V250.5H173M167 251.5H164V250.5H167M161 251.5H158V250.5H161M155 251.5H152V250.5H155M149 251.5H146V250.5H149M143 251.5H140V250.5H143M137 251.5H134V250.5H137M131 251.5H128V250.5H131M125 251.5H122V250.5H125M119 251.5H116V250.5H119M113 251.5H110V250.5H113M107 251.5H104V250.5H107M101 251.5H98V250.5H101M95 251.5H92V250.5H95M89 251.5H86V250.5H89M83 251.5H80V250.5H83M77 251.5H74V250.5H77M71 251.5H68V250.5H71M65 251.5H62V250.5H65M59 251.5H56V250.5H59M53 251.5H50V250.5H53M47 251.5H44V250.5H47M41 251.5H38V250.5H41M35 251.5H32V250.5H35M29 251.5H26V250.5H29M23 251.5H20V250.5H23M17 251.5H14V250.5H17M11 251.5H8V250.5H11M5 251.5H2V250.5H5"/>
<path transform="matrix(.7189849,0,0,.7189849,.35949246,.35949246)" d="M341 211.5H338V210.5H341M335 211.5H332V210.5H335M329 211.5H326V210.5H329M323 211.5H320V210.5H323M317 211.5H314V210.5H317M311 211.5H308V210.5H311M305 211.5H302V210.5H305M299 211.5H296V210.5H299M293 211.5H290V210.5H293M287 211.5H284V210.5H287M281 211.5H278V210.5H281M275 211.5H272V210.5H275M269 211.5H266V210.5H269M263 211.5H260V210.5H263M257 211.5H254V210.5H257M251 211.5H248V210.5H251M245 211.5H242V210.5H245M239 211.5H236V210.5H239M233 211.5H230V210.5H233M227 211.5H224V210.5H227M221 211.5H218V210.5H221M215 211.5H212V210.5H215M209 211.5H206V210.5H209M203 211.5H200V210.5H203M197 211.5H194V210.5H197M191 211.5H188V210.5H191M185 211.5H182V210.5H185M179 211.5H176V210.5H179M173 211.5H170V210.5H173M167 211.5H164V210.5H167M161 211.5H158V210.5H161M155 211.5H152V210.5H155M149 211.5H146V210.5H149M143 211.5H140V210.5H143M137 211.5H134V210.5H137M131 211.5H128V210.5H131M125 211.5H122V210.5H125M119 211.5H116V210.5H119M113 211.5H110V210.5H113M107 211.5H104V210.5H107M101 211.5H98V210.5H101M95 211.5H92V210.5H95M89 211.5H86V210.5H89M83 211.5H80V210.5H83M77 211.5H74V210.5H77M71 211.5H68V210.5H71M65 211.5H62V210.5H65M59 211.5H56V210.5H59M53 211.5H50V210.5H53M47 211.5H44V210.5H47M41 211.5H38V210.5H41M35 211.5H32V210.5H35M29 211.5H26V210.5H29M23 211.5H20V210.5H23M17 211.5H14V210.5H17M11 211.5H8V210.5H11M5 211.5H2V210.5H5"/>
<path transform="matrix(.7189849,0,0,.7189849,.35949246,.35949246)" d="M341 171.5H338V170.5H341M335 171.5H332V170.5H335M329 171.5H326V170.5H329M323 171.5H320V170.5H323M317 171.5H314V170.5H317M311 171.5H308V170.5H311M305 171.5H302V170.5H305M299 171.5H296V170.5H299M293 171.5H290V170.5H293M287 171.5H284V170.5H287M281 171.5H278V170.5H281M275 171.5H272V170.5H275M269 171.5H266V170.5H269M263 171.5H260V170.5H263M257 171.5H254V170.5H257M251 171.5H248V170.5H251M245 171.5H242V170.5H245M239 171.5H236V170.5H239M233 171.5H230V170.5H233M227 171.5H224V170.5H227M221 171.5H218V170.5H221M215 171.5H212V170.5H215M209 171.5H206V170.5H209M203 171.5H200V170.5H203M197 171.5H194V170.5H197M191 171.5H188V170.5H191M185 171.5H182V170.5H185M179 171.5H176V170.5H179M173 171.5H170V170.5H173M167 171.5H164V170.5H167M161 171.5H158V170.5H161M155 171.5H152V170.5H155M149 171.5H146V170.5H149M143 171.5H140V170.5H143M137 171.5H134V170.5H137M131 171.5H128V170.5H131M125 171.5H122V170.5H125M119 171.5H116V170.5H119M113 171.5H110V170.5H113M107 171.5H104V170.5H107M101 171.5H98V170.5H101M95 171.5H92V170.5H95M89 171.5H86V170.5H89M83 171.5H80V170.5H83M77 171.5H74V170.5H77M71 171.5H68V170.5H71M65 171.5H62V170.5H65M59 171.5H56V170.5H59M53 171.5H50V170.5H53M47 171.5H44V170.5H47M41 171.5H38V170.5H41M35 171.5H32V170.5H35M29 171.5H26V170.5H29M23 171.5H20V170.5H23M17 171.5H14V170.5H17M11 171.5H8V170.5H11M5 171.5H2V170.5H5"/>
<path transform="matrix(.7189849,0,0,.7189849,.35949246,.35949246)" stroke-width="1" stroke-linecap="butt" stroke-miterlimit="10" stroke-linejoin="miter" fill="none" stroke="#000000" d="M93.93 58.07 65.5 86.5"/>
<path transform="matrix(.7189849,0,0,.7189849,.35949246,.35949246)" d="M61.79 90.21 64.27 82.78 65.5 86.5 69.22 87.73 61.79 90.21Z"/>
<path transform="matrix(.7189849,0,0,.7189849,.35949246,.35949246)" stroke-width="1" stroke-linecap="butt" stroke-miterlimit="10" stroke-linejoin="miter" fill="none" stroke="#000000" d="M61.79 90.21 64.27 82.78 65.5 86.5 69.22 87.73 61.79 90.21Z"/>
<path transform="matrix(.7189849,0,0,.7189849,.35949246,.35949246)" stroke-width="1" stroke-linecap="butt" stroke-miterlimit="10" stroke-linejoin="miter" fill="none" stroke="#000000" d="M108.07 58.07 129.43 79.43"/>
<path transform="matrix(.7189849,0,0,.7189849,.35949246,.35949246)" d="M133.14 83.14 125.71 80.66 129.43 79.43 130.66 75.71 133.14 83.14Z"/>
<path transform="matrix(.7189849,0,0,.7189849,.35949246,.35949246)" stroke-width="1" stroke-linecap="butt" stroke-miterlimit="10" stroke-linejoin="miter" fill="none" stroke="#000000" d="M133.14 83.14 125.71 80.66 129.43 79.43 130.66 75.71 133.14 83.14Z"/>
<path transform="matrix(.7189849,0,0,.7189849,.35949246,.35949246)" d="M111 51C110.99999 51.656606 110.93594 52.306905 110.80784 52.950899 110.67975 53.59489 110.49006 54.2202 110.238788 54.826826 109.98751 55.433454 109.67948 56.009744 109.3147 56.555696 108.9499 57.101644 108.535358 57.606767 108.07107 58.071065 107.60678 58.535356 107.101657 58.949899 106.5557 59.314687 106.00975 59.67948 105.43346 59.98752 104.82683 60.23879 104.2202 60.490064 103.59489 60.67975 102.9509 60.80785 102.30691 60.935949 101.65661 60.999998 101 61 100.34338 60.999998 99.69308 60.935949 99.04909 60.807847 98.40509 60.67975 97.77978 60.490064 97.17315 60.23879 96.56652 59.98752 95.990238 59.67948 95.44428 59.314687 94.89833 58.949899 94.39321 58.535356 93.928928 58.071065 93.46462 57.606767 93.05008 57.101644 92.685298 56.555696 92.320499 56.009744 92.01247 55.433454 91.7612 54.826826 91.509929 54.2202 91.32024 53.59489 91.19214 52.950899 91.06404 52.306905 90.99999 51.656606 91 51 90.99999 50.343389 91.06404 49.69308 91.19214 49.049089 91.32023 48.405096 91.50992 47.779787 91.76119 47.173158 92.01247 46.56653 92.320499 45.99024 92.68529 45.44429 93.05008 44.898344 93.46462 44.39322 93.928928 43.92893 94.39321 43.464635 94.89833 43.05009 95.44428 42.6853 95.990238 42.320508 96.56653 42.012475 97.17316 41.761205 97.77978 41.509935 98.40509 41.320249 99.04909 41.192148 99.69308 41.06405 100.34338 41 101 41 101.65661 41 102.306919 41.06405 102.950908 41.192148 103.594898 41.320249 104.2202 41.509935 104.82683 41.761205 105.43346 42.012475 106.00975 42.320508 106.55571 42.6853 107.10166 43.05009 107.60678 43.464635 108.07107 43.92893 108.535358 44.39322 108.9499 44.898344 109.31469 45.444295 109.67948 45.990243 109.98751 46.566534 110.238788 47.17316 110.49006 47.779787 110.67975 48.405096 110.807849 49.049089 110.93594 49.69308 110.99999 50.343389 111 51Z" fill="#fff2cc"/>
<path transform="matrix(.7189849,0,0,.7189849,.35949246,.35949246)" stroke-width="1" stroke-linecap="butt" stroke-miterlimit="4" stroke-linejoin="miter" fill="none" stroke="#d6b656" d="M111 51C110.99999 51.656606 110.93594 52.306905 110.80784 52.950899 110.67975 53.59489 110.49006 54.2202 110.238788 54.826826 109.98751 55.433454 109.67948 56.009744 109.3147 56.555696 108.9499 57.101644 108.535358 57.606767 108.07107 58.071065 107.60678 58.535356 107.101657 58.949899 106.5557 59.314687 106.00975 59.67948 105.43346 59.98752 104.82683 60.23879 104.2202 60.490064 103.59489 60.67975 102.9509 60.80785 102.30691 60.935949 101.65661 60.999998 101 61 100.34338 60.999998 99.69308 60.935949 99.04909 60.807847 98.40509 60.67975 97.77978 60.490064 97.17315 60.23879 96.56652 59.98752 95.990238 59.67948 95.44428 59.314687 94.89833 58.949899 94.39321 58.535356 93.928928 58.071065 93.46462 57.606767 93.05008 57.101644 92.685298 56.555696 92.320499 56.009744 92.01247 55.433454 91.7612 54.826826 91.509929 54.2202 91.32024 53.59489 91.19214 52.950899 91.06404 52.306905 90.99999 51.656606 91 51 90.99999 50.343389 91.06404 49.69308 91.19214 49.049089 91.32023 48.405096 91.50992 47.779787 91.76119 47.173158 92.01247 46.56653 92.320499 45.99024 92.68529 45.44429 93.05008 44.898344 93.46462 44.39322 93.928928 43.92893 94.39321 43.464635 94.89833 43.05009 95.44428 42.6853 95.990238 42.320508 96.56653 42.012475 97.17316 41.761205 97.77978 41.509935 98.40509 41.320249 99.04909 41.192148 99.69308 41.06405 100.34338 41 101 41 101.65661 41 102.306919 41.06405 102.950908 41.192148 103.594898 41.320249 104.2202 41.509935 104.82683 41.761205 105.43346 42.012475 106.00975 42.320508 106.55571 42.6853 107.10166 43.05009 107.60678 43.464635 108.07107 43.92893 108.535358 44.39322 108.9499 44.898344 109.31469 45.444295 109.67948 45.990243 109.98751 46.566534 110.238788 47.17316 110.49006 47.779787 110.67975 48.405096 110.807849 49.049089 110.93594 49.69308 110.99999 50.343389 111 51Z"/>
<use data-text="E" xlink:href="#font_3_40" transform="matrix(8.627819,0,0,-8.627819,69.7303,40.263154)"/>
<path transform="matrix(.7189849,0,0,.7189849,.35949246,.35949246)" d="M41 211 61 91 81 211H41Z" fill="#ff0000"/>
<path transform="matrix(.7189849,0,0,.7189849,.35949246,.35949246)" stroke-width="1" stroke-linecap="butt" stroke-miterlimit="10" stroke-linejoin="miter" fill="none" stroke="#666666" d="M41 211 61 91 81 211H41Z"/>
<path transform="matrix(.7189849,0,0,.7189849,.35949246,.35949246)" d="M101 251 116 131 131 251H101Z" fill="#00ff00"/>
<path transform="matrix(.7189849,0,0,.7189849,.35949246,.35949246)" stroke-width="1" stroke-linecap="butt" stroke-miterlimit="10" stroke-linejoin="miter" fill="none" stroke="#666666" d="M101 251 116 131 131 251H101Z"/>
<path transform="matrix(.7189849,0,0,.7189849,.35949246,.35949246)" d="M221 171 261 51 301 171H221Z" fill="#0000ff"/>
<path transform="matrix(.7189849,0,0,.7189849,.35949246,.35949246)" stroke-width="1" stroke-linecap="butt" stroke-miterlimit="10" stroke-linejoin="miter" fill="none" stroke="#666666" d="M221 171 261 51 301 171H221Z"/>
<path transform="matrix(.7189849,0,0,.7189849,.35949246,.35949246)" stroke-width="1" stroke-linecap="butt" stroke-miterlimit="10" stroke-linejoin="miter" fill="none" stroke="#000000" d="M135.7 99.48 119.38 125.6"/>
<path transform="matrix(.7189849,0,0,.7189849,.35949246,.35949246)" d="M116.59 130.05 117.33 122.26 119.38 125.6 123.27 125.97 116.59 130.05Z"/>
<path transform="matrix(.7189849,0,0,.7189849,.35949246,.35949246)" stroke-width="1" stroke-linecap="butt" stroke-miterlimit="10" stroke-linejoin="miter" fill="none" stroke="#000000" d="M116.59 130.05 117.33 122.26 119.38 125.6 123.27 125.97 116.59 130.05Z"/>
<path transform="matrix(.7189849,0,0,.7189849,.35949246,.35949246)" stroke-width="1" stroke-linecap="butt" stroke-miterlimit="10" stroke-linejoin="miter" fill="none" stroke="#000000" d="M146.3 99.48 162.62 125.6"/>
<path transform="matrix(.7189849,0,0,.7189849,.35949246,.35949246)" d="M165.41 130.05 158.73 125.97 162.62 125.6 164.67 122.26 165.41 130.05Z"/>
<path transform="matrix(.7189849,0,0,.7189849,.35949246,.35949246)" stroke-width="1" stroke-linecap="butt" stroke-miterlimit="10" stroke-linejoin="miter" fill="none" stroke="#000000" d="M165.41 130.05 158.73 125.97 162.62 125.6 164.67 122.26 165.41 130.05Z"/>
<path transform="matrix(.7189849,0,0,.7189849,.35949246,.35949246)" d="M151 91C151 91.65661 150.93595 92.30691 150.80785 92.9509 150.67975 93.59489 150.49005 94.22019 150.23879 94.82682 149.9875 95.43345 149.67946 96.00974 149.31467 96.555698 148.94988 97.10164 148.53534 97.60676 148.07106 98.07106 147.60677 98.53535 147.10164 98.94989 146.5557 99.31468 146.00975 99.679477 145.43346 99.9875 144.82683 100.23878 144.2202 100.49006 143.5949 100.67975 142.9509 100.807849 142.3069 100.93595 141.6566 101 141 101 140.34339 101 139.69309 100.93595 139.04909 100.807849 138.40509 100.67975 137.77977 100.49006 137.17314 100.23878 136.56652 99.9875 135.99022 99.679477 135.44426 99.31468 134.89833 98.94989 134.39322 98.53535 133.92893 98.07106 133.46463 97.60676 133.05008 97.10164 132.68529 96.55569 132.3205 96.009738 132.01245 95.43345 131.76119 94.82682 131.50992 94.22019 131.32024 93.59489 131.19214 92.9509 131.06404 92.30691 130.99999 91.65661 131 91 130.99999 90.34338 131.06404 89.69308 131.19214 89.04908 131.32024 88.40509 131.50992 87.77978 131.76119 87.17316 132.01245 86.56652 132.32048 85.990238 132.68527 85.44429 133.05008 84.89834 133.46463 84.39321 133.92893 83.928928 134.39322 83.46464 134.89833 83.050098 135.44428 82.6853 135.99022 82.32051 136.56652 82.012477 137.17314 81.7612 137.77977 81.509929 138.40509 81.32024 139.04909 81.19215 139.69309 81.06405 140.34339 81 141 81 141.6566 81 142.3069 81.06405 142.9509 81.19215 143.5949 81.32024 144.2202 81.509929 144.82683 81.7612 145.43346 82.012477 146.00974 82.32051 146.55568 82.6853 147.10164 83.050098 147.60677 83.46464 148.07106 83.928928 148.53534 84.39321 148.94988 84.89834 149.31467 85.44429 149.67946 85.990238 149.9875 86.56652 150.23879 87.17316 150.49005 87.77978 150.67975 88.40509 150.80785 89.04908 150.93595 89.69308 151 90.34338 151 91Z" fill="#fff2cc"/>
<path transform="matrix(.7189849,0,0,.7189849,.35949246,.35949246)" stroke-width="1" stroke-linecap="butt" stroke-miterlimit="4" stroke-linejoin="miter" fill="none" stroke="#d6b656" d="M151 91C151 91.65661 150.93595 92.30691 150.80785 92.9509 150.67975 93.59489 150.49005 94.22019 150.23879 94.82682 149.9875 95.43345 149.67946 96.00974 149.31467 96.555698 148.94988 97.10164 148.53534 97.60676 148.07106 98.07106 147.60677 98.53535 147.10164 98.94989 146.5557 99.31468 146.00975 99.679477 145.43346 99.9875 144.82683 100.23878 144.2202 100.49006 143.5949 100.67975 142.9509 100.807849 142.3069 100.93595 141.6566 101 141 101 140.34339 101 139.69309 100.93595 139.04909 100.807849 138.40509 100.67975 137.77977 100.49006 137.17314 100.23878 136.56652 99.9875 135.99022 99.679477 135.44426 99.31468 134.89833 98.94989 134.39322 98.53535 133.92893 98.07106 133.46463 97.60676 133.05008 97.10164 132.68529 96.55569 132.3205 96.009738 132.01245 95.43345 131.76119 94.82682 131.50992 94.22019 131.32024 93.59489 131.19214 92.9509 131.06404 92.30691 130.99999 91.65661 131 91 130.99999 90.34338 131.06404 89.69308 131.19214 89.04908 131.32024 88.40509 131.50992 87.77978 131.76119 87.17316 132.01245 86.56652 132.32048 85.990238 132.68527 85.44429 133.05008 84.89834 133.46463 84.39321 133.92893 83.928928 134.39322 83.46464 134.89833 83.050098 135.44428 82.6853 135.99022 82.32051 136.56652 82.012477 137.17314 81.7612 137.77977 81.509929 138.40509 81.32024 139.04909 81.19215 139.69309 81.06405 140.34339 81 141 81 141.6566 81 142.3069 81.06405 142.9509 81.19215 143.5949 81.32024 144.2202 81.509929 144.82683 81.7612 145.43346 82.012477 146.00974 82.32051 146.55568 82.6853 147.10164 83.050098 147.60677 83.46464 148.07106 83.928928 148.53534 84.39321 148.94988 84.89834 149.31467 85.44429 149.67946 85.990238 149.9875 86.56652 150.23879 87.17316 150.49005 87.77978 150.67975 88.40509 150.80785 89.04908 150.93595 89.69308 151 90.34338 151 91Z"/>
<use data-text="G" xlink:href="#font_3_42" transform="matrix(8.627819,0,0,-8.627819,98.01786,69.02255)"/>
<path transform="matrix(.7189849,0,0,.7189849,.35949246,.35949246)" d="M151 251 166 131 181 251H151Z" fill="#ffff33"/>
<path transform="matrix(.7189849,0,0,.7189849,.35949246,.35949246)" stroke-width="1" stroke-linecap="butt" stroke-miterlimit="10" stroke-linejoin="miter" fill="none" stroke="#666666" d="M151 251 166 131 181 251H151Z"/>
<path transform="matrix(.7189849,0,0,.7189849,.35949246,.35949246)" stroke-width="1" stroke-linecap="butt" stroke-miterlimit="10" stroke-linejoin="miter" fill="none" stroke="#000000" d="M554.82 15.71 615.38 48"/>
<path transform="matrix(.7189849,0,0,.7189849,.35949246,.35949246)" d="M620.01 50.47 612.19 50.27 615.38 48 615.48 44.09 620.01 50.47Z"/>
<path transform="matrix(.7189849,0,0,.7189849,.35949246,.35949246)" stroke-width="1" stroke-linecap="butt" stroke-miterlimit="10" stroke-linejoin="miter" fill="none" stroke="#000000" d="M620.01 50.47 612.19 50.27 615.38 48 615.48 44.09 620.01 50.47Z"/>
<path transform="matrix(.7189849,0,0,.7189849,.35949246,.35949246)" stroke-width="1" stroke-linecap="butt" stroke-miterlimit="10" stroke-linejoin="miter" fill="none" stroke="#000000" d="M537.45 16.19 494.94 42.42"/>
<path transform="matrix(.7189849,0,0,.7189849,.35949246,.35949246)" d="M490.47 45.17 494.59 38.52 494.94 42.42 498.26 44.48 490.47 45.17Z"/>
<path transform="matrix(.7189849,0,0,.7189849,.35949246,.35949246)" stroke-width="1" stroke-linecap="butt" stroke-miterlimit="10" stroke-linejoin="miter" fill="none" stroke="#000000" d="M490.47 45.17 494.59 38.52 494.94 42.42 498.26 44.48 490.47 45.17Z"/>
<path transform="matrix(.7189849,0,0,.7189849,.35949246,.35949246)" d="M556 11C556 11.656609 555.9359 12.30691 555.8078 12.950903 555.6797 13.594895 555.49 14.220205 555.2387 14.826834 554.9874 15.433461 554.67947 16.00975 554.31466 16.5557 553.9499 17.10165 553.53536 17.606774 553.07107 18.071068 552.60678 18.53536 552.1016 18.949902 551.5557 19.314694 551.00979 19.679488 550.4334 19.98752 549.8268 20.238795 549.22018 20.490067 548.59487 20.679753 547.95089 20.80785 547.3069 20.93595 546.6566 20.999999 546 21 545.3434 20.999999 544.69308 20.93595 544.049 20.80785 543.405 20.679753 542.7797 20.490067 542.1731 20.238795 541.56649 19.98752 540.9902 19.679488 540.4443 19.314694 539.8983 18.949902 539.3932 18.53536 538.9289 18.071068 538.4646 17.606774 538.05007 17.10165 537.68527 16.5557 537.32046 16.00975 537.0124 15.433461 536.7611 14.826834 536.5098 14.220205 536.3202 13.594895 536.19216 12.950903 536.064 12.30691 536 11.656609 536 11 536 10.34339 536.064 9.693089 536.19216 9.049096 536.3202 8.405103 536.5098 7.7797925 536.7611 7.173165 537.0124 6.566537 537.32046 5.9902479 537.68527 5.4442975 538.05007 4.8983466 538.4646 4.3932249 538.9289 3.928932 539.3932 3.464639 539.8983 3.050096 540.4443 2.6853035 540.9902 2.3205109 541.56649 2.0124779 542.1731 1.7612045 542.7797 1.509931 543.405 1.3202453 544.049 1.1921471 544.69308 1.064049 545.3434 1 546 1 546.6566 1 547.3069 1.0640491 547.95089 1.1921473 548.59487 1.3202453 549.22018 1.5099311 549.8268 1.7612046 550.4334 2.0124779 551.00979 2.3205109 551.5557 2.6853035 552.1016 3.050096 552.60678 3.464639 553.07107 3.928932 553.53536 4.3932249 553.9499 4.8983466 554.31466 5.4442975 554.67947 5.9902479 554.9874 6.566537 555.2387 7.173165 555.49 7.7797925 555.6797 8.405103 555.8078 9.049096 555.9359 9.693089 556 10.34339 556 11Z" fill="#fff2cc"/>
<path transform="matrix(.7189849,0,0,.7189849,.35949246,.35949246)" stroke-width="1" stroke-linecap="butt" stroke-miterlimit="4" stroke-linejoin="miter" fill="none" stroke="#d6b656" d="M556 11C556 11.656609 555.9359 12.30691 555.8078 12.950903 555.6797 13.594895 555.49 14.220205 555.2387 14.826834 554.9874 15.433461 554.67947 16.00975 554.31466 16.5557 553.9499 17.10165 553.53536 17.606774 553.07107 18.071068 552.60678 18.53536 552.1016 18.949902 551.5557 19.314694 551.00979 19.679488 550.4334 19.98752 549.8268 20.238795 549.22018 20.490067 548.59487 20.679753 547.95089 20.80785 547.3069 20.93595 546.6566 20.999999 546 21 545.3434 20.999999 544.69308 20.93595 544.049 20.80785 543.405 20.679753 542.7797 20.490067 542.1731 20.238795 541.56649 19.98752 540.9902 19.679488 540.4443 19.314694 539.8983 18.949902 539.3932 18.53536 538.9289 18.071068 538.4646 17.606774 538.05007 17.10165 537.68527 16.5557 537.32046 16.00975 537.0124 15.433461 536.7611 14.826834 536.5098 14.220205 536.3202 13.594895 536.19216 12.950903 536.064 12.30691 536 11.656609 536 11 536 10.34339 536.064 9.693089 536.19216 9.049096 536.3202 8.405103 536.5098 7.7797925 536.7611 7.173165 537.0124 6.566537 537.32046 5.9902479 537.68527 5.4442975 538.05007 4.8983466 538.4646 4.3932249 538.9289 3.928932 539.3932 3.464639 539.8983 3.050096 540.4443 2.6853035 540.9902 2.3205109 541.56649 2.0124779 542.1731 1.7612045 542.7797 1.509931 543.405 1.3202453 544.049 1.1921471 544.69308 1.064049 545.3434 1 546 1 546.6566 1 547.3069 1.0640491 547.95089 1.1921473 548.59487 1.3202453 549.22018 1.5099311 549.8268 1.7612046 550.4334 2.0124779 551.00979 2.3205109 551.5557 2.6853035 552.1016 3.050096 552.60678 3.464639 553.07107 3.928932 553.53536 4.3932249 553.9499 4.8983466 554.31466 5.4442975 554.67947 5.9902479 554.9874 6.566537 555.2387 7.173165 555.49 7.7797925 555.6797 8.405103 555.8078 9.049096 555.9359 9.693089 556 10.34339 556 11Z"/>
<use data-text="M" xlink:href="#font_3_48" transform="matrix(8.627819,0,0,-8.627819,388.97084,11.503758)"/>
<path transform="matrix(.7189849,0,0,.7189849,.35949246,.35949246)" d="M701 251.5H698V250.5H701M695 251.5H692V250.5H695M689 251.5H686V250.5H689M683 251.5H680V250.5H683M677 251.5H674V250.5H677M671 251.5H668V250.5H671M665 251.5H662V250.5H665M659 251.5H656V250.5H659M653 251.5H650V250.5H653M647 251.5H644V250.5H647M641 251.5H638V250.5H641M635 251.5H632V250.5H635M629 251.5H626V250.5H629M623 251.5H620V250.5H623M617 251.5H614V250.5H617M611 251.5H608V250.5H611M605 251.5H602V250.5H605M599 251.5H596V250.5H599M593 251.5H590V250.5H593M587 251.5H584V250.5H587M581 251.5H578V250.5H581M575 251.5H572V250.5H575M569 251.5H566V250.5H569M563 251.5H560V250.5H563M557 251.5H554V250.5H557M551 251.5H548V250.5H551M545 251.5H542V250.5H545M539 251.5H536V250.5H539M533 251.5H530V250.5H533M527 251.5H524V250.5H527M521 251.5H518V250.5H521M515 251.5H512V250.5H515M509 251.5H506V250.5H509M503 251.5H500V250.5H503M497 251.5H494V250.5H497M491 251.5H488V250.5H491M485 251.5H482V250.5H485M479 251.5H476V250.5H479M473 251.5H470V250.5H473M467 251.5H464V250.5H467M461 251.5H458V250.5H461M455 251.5H452V250.5H455M449 251.5H446V250.5H449M443 251.5H440V250.5H443M437 251.5H434V250.5H437M431 251.5H428V250.5H431M425 251.5H422V250.5H425M419 251.5H416V250.5H419M413 251.5H410V250.5H413M407 251.5H404V250.5H407M401 251.5H398V250.5H401M395 251.5H392V250.5H395M389 251.5H386V250.5H389M383 251.5H380V250.5H383M377 251.5H374V250.5H377M371 251.5H368V250.5H371M365 251.5H362V250.5H365"/>
<path transform="matrix(.7189849,0,0,.7189849,.35949246,.35949246)" d="M701 211.5H698V210.5H701M695 211.5H692V210.5H695M689 211.5H686V210.5H689M683 211.5H680V210.5H683M677 211.5H674V210.5H677M671 211.5H668V210.5H671M665 211.5H662V210.5H665M659 211.5H656V210.5H659M653 211.5H650V210.5H653M647 211.5H644V210.5H647M641 211.5H638V210.5H641M635 211.5H632V210.5H635M629 211.5H626V210.5H629M623 211.5H620V210.5H623M617 211.5H614V210.5H617M611 211.5H608V210.5H611M605 211.5H602V210.5H605M599 211.5H596V210.5H599M593 211.5H590V210.5H593M587 211.5H584V210.5H587M581 211.5H578V210.5H581M575 211.5H572V210.5H575M569 211.5H566V210.5H569M563 211.5H560V210.5H563M557 211.5H554V210.5H557M551 211.5H548V210.5H551M545 211.5H542V210.5H545M539 211.5H536V210.5H539M533 211.5H530V210.5H533M527 211.5H524V210.5H527M521 211.5H518V210.5H521M515 211.5H512V210.5H515M509 211.5H506V210.5H509M503 211.5H500V210.5H503M497 211.5H494V210.5H497M491 211.5H488V210.5H491M485 211.5H482V210.5H485M479 211.5H476V210.5H479M473 211.5H470V210.5H473M467 211.5H464V210.5H467M461 211.5H458V210.5H461M455 211.5H452V210.5H455M449 211.5H446V210.5H449M443 211.5H440V210.5H443M437 211.5H434V210.5H437M431 211.5H428V210.5H431M425 211.5H422V210.5H425M419 211.5H416V210.5H419M413 211.5H410V210.5H413M407 211.5H404V210.5H407M401 211.5H398V210.5H401M395 211.5H392V210.5H395M389 211.5H386V210.5H389M383 211.5H380V210.5H383M377 211.5H374V210.5H377M371 211.5H368V210.5H371M365 211.5H362V210.5H365"/>
<path transform="matrix(.7189849,0,0,.7189849,.35949246,.35949246)" d="M701 171.5H698V170.5H701M695 171.5H692V170.5H695M689 171.5H686V170.5H689M683 171.5H680V170.5H683M677 171.5H674V170.5H677M671 171.5H668V170.5H671M665 171.5H662V170.5H665M659 171.5H656V170.5H659M653 171.5H650V170.5H653M647 171.5H644V170.5H647M641 171.5H638V170.5H641M635 171.5H632V170.5H635M629 171.5H626V170.5H629M623 171.5H620V170.5H623M617 171.5H614V170.5H617M611 171.5H608V170.5H611M605 171.5H602V170.5H605M599 171.5H596V170.5H599M593 171.5H590V170.5H593M587 171.5H584V170.5H587M581 171.5H578V170.5H581M575 171.5H572V170.5H575M569 171.5H566V170.5H569M563 171.5H560V170.5H563M557 171.5H554V170.5H557M551 171.5H548V170.5H551M545 171.5H542V170.5H545M539 171.5H536V170.5H539M533 171.5H530V170.5H533M527 171.5H524V170.5H527M521 171.5H518V170.5H521M515 171.5H512V170.5H515M509 171.5H506V170.5H509M503 171.5H500V170.5H503M497 171.5H494V170.5H497M491 171.5H488V170.5H491M485 171.5H482V170.5H485M479 171.5H476V170.5H479M473 171.5H470V170.5H473M467 171.5H464V170.5H467M461 171.5H458V170.5H461M455 171.5H452V170.5H455M449 171.5H446V170.5H449M443 171.5H440V170.5H443M437 171.5H434V170.5H437M431 171.5H428V170.5H431M425 171.5H422V170.5H425M419 171.5H416V170.5H419M413 171.5H410V170.5H413M407 171.5H404V170.5H407M401 171.5H398V170.5H401M395 171.5H392V170.5H395M389 171.5H386V170.5H389M383 171.5H380V170.5H383M377 171.5H374V170.5H377M371 171.5H368V170.5H371M365 171.5H362V170.5H365"/>
<path transform="matrix(.7189849,0,0,.7189849,.35949246,.35949246)" stroke-width="1" stroke-linecap="butt" stroke-miterlimit="10" stroke-linejoin="miter" fill="none" stroke="#000000" d="M435.7 99.48 419.38 125.6"/>
<path transform="matrix(.7189849,0,0,.7189849,.35949246,.35949246)" d="M416.59 130.05 417.33 122.26 419.38 125.6 423.27 125.97 416.59 130.05Z"/>
<path transform="matrix(.7189849,0,0,.7189849,.35949246,.35949246)" stroke-width="1" stroke-linecap="butt" stroke-miterlimit="10" stroke-linejoin="miter" fill="none" stroke="#000000" d="M416.59 130.05 417.33 122.26 419.38 125.6 423.27 125.97 416.59 130.05Z"/>
<path transform="matrix(.7189849,0,0,.7189849,.35949246,.35949246)" stroke-width="1" stroke-linecap="butt" stroke-miterlimit="10" stroke-linejoin="miter" fill="none" stroke="#000000" d="M446.3 99.48 462.62 125.6"/>
<path transform="matrix(.7189849,0,0,.7189849,.35949246,.35949246)" d="M465.41 130.05 458.73 125.97 462.62 125.6 464.67 122.26 465.41 130.05Z"/>
<path transform="matrix(.7189849,0,0,.7189849,.35949246,.35949246)" stroke-width="1" stroke-linecap="butt" stroke-miterlimit="10" stroke-linejoin="miter" fill="none" stroke="#000000" d="M465.41 130.05 458.73 125.97 462.62 125.6 464.67 122.26 465.41 130.05Z"/>
<path transform="matrix(.00000000000000004402513,.7189849,-.7189849,.00000000000000004402513,382.85948,-251.2852)" d="M451 91C450.99998 91.65661 450.9359 92.30691 450.8078 92.9509 450.67973 93.59489 450.49003 94.22019 450.23878 94.82682 449.9875 95.43345 449.67945 96.00974 449.31465 96.555698 448.94987 97.10164 448.5353 97.60676 448.07106 98.07106 447.60673 98.53535 447.1016 98.94989 446.55567 99.31468 446.0097 99.679477 445.4334 99.9875 444.82679 100.23878 444.22016 100.49006 443.59486 100.67975 442.95088 100.807849 442.3069 100.93595 441.6566 101 441 101 440.34339 101 439.69306 100.93595 439.04905 100.807849 438.40507 100.67975 437.77976 100.49006 437.17314 100.23878 436.56648 99.9875 435.9902 99.679477 435.44429 99.31468 434.89836 98.94989 434.39323 98.53535 433.92893 98.07106 433.4646 97.60676 433.05006 97.10164 432.68528 96.55569 432.32048 96.009738 432.01243 95.43345 431.76118 94.82682 431.50993 94.22019 431.32023 93.59489 431.1921 92.9509 431.06404 92.30691 431 91.65661 431 91 431 90.34338 431.06404 89.69308 431.1921 89.04908 431.32023 88.40509 431.50993 87.77978 431.76118 87.17316 432.01243 86.56652 432.32048 85.990238 432.68528 85.44429 433.05006 84.89834 433.4646 84.39321 433.92893 83.928928 434.39323 83.46464 434.89836 83.050098 435.44429 82.6853 435.9902 82.32051 436.56648 82.012477 437.17314 81.7612 437.77976 81.509929 438.40507 81.32024 439.04905 81.19215 439.69306 81.06405 440.34339 81 441 81 441.6566 81 442.3069 81.06405 442.95088 81.19215 443.59486 81.32024 444.22016 81.509929 444.82679 81.7612 445.4334 82.012477 446.0097 82.32051 446.55567 82.6853 447.1016 83.050098 447.60673 83.46464 448.07106 83.928928 448.5353 84.39321 448.94987 84.89834 449.31465 85.44429 449.67945 85.990238 449.9875 86.56652 450.23878 87.17316 450.49003 87.77978 450.67973 88.40509 450.8078 89.04908 450.9359 89.69308 450.99998 90.34338 451 91Z" fill="#fff2cc"/>
<path transform="matrix(.00000000000000004402513,.7189849,-.7189849,.00000000000000004402513,382.85948,-251.2852)" stroke-width="1" stroke-linecap="butt" stroke-miterlimit="4" stroke-linejoin="miter" fill="none" stroke="#d6b656" d="M451 91C450.99998 91.65661 450.9359 92.30691 450.8078 92.9509 450.67973 93.59489 450.49003 94.22019 450.23878 94.82682 449.9875 95.43345 449.67945 96.00974 449.31465 96.555698 448.94987 97.10164 448.5353 97.60676 448.07106 98.07106 447.60673 98.53535 447.1016 98.94989 446.55567 99.31468 446.0097 99.679477 445.4334 99.9875 444.82679 100.23878 444.22016 100.49006 443.59486 100.67975 442.95088 100.807849 442.3069 100.93595 441.6566 101 441 101 440.34339 101 439.69306 100.93595 439.04905 100.807849 438.40507 100.67975 437.77976 100.49006 437.17314 100.23878 436.56648 99.9875 435.9902 99.679477 435.44429 99.31468 434.89836 98.94989 434.39323 98.53535 433.92893 98.07106 433.4646 97.60676 433.05006 97.10164 432.68528 96.55569 432.32048 96.009738 432.01243 95.43345 431.76118 94.82682 431.50993 94.22019 431.32023 93.59489 431.1921 92.9509 431.06404 92.30691 431 91.65661 431 91 431 90.34338 431.06404 89.69308 431.1921 89.04908 431.32023 88.40509 431.50993 87.77978 431.76118 87.17316 432.01243 86.56652 432.32048 85.990238 432.68528 85.44429 433.05006 84.89834 433.4646 84.39321 433.92893 83.928928 434.39323 83.46464 434.89836 83.050098 435.44429 82.6853 435.9902 82.32051 436.56648 82.012477 437.17314 81.7612 437.77976 81.509929 438.40507 81.32024 439.04905 81.19215 439.69306 81.06405 440.34339 81 441 81 441.6566 81 442.3069 81.06405 442.95088 81.19215 443.59486 81.32024 444.22016 81.509929 444.82679 81.7612 445.4334 82.012477 446.0097 82.32051 446.55567 82.6853 447.1016 83.050098 447.60673 83.46464 448.07106 83.928928 448.5353 84.39321 448.94987 84.89834 449.31465 85.44429 449.67945 85.990238 449.9875 86.56652 450.23878 87.17316 450.49003 87.77978 450.67973 88.40509 450.8078 89.04908 450.9359 89.69308 450.99998 90.34338 451 91Z"/>
<use data-text="E" xlink:href="#font_3_40" transform="matrix(8.627819,0,0,-8.627819,314.18519,69.02255)"/>
<path transform="matrix(.7189849,0,0,.7189849,.35949246,.35949246)" d="M401 251 416 131 431 251H401Z" fill="#ff0000"/>
<path transform="matrix(.7189849,0,0,.7189849,.35949246,.35949246)" stroke-width="1" stroke-linecap="butt" stroke-miterlimit="10" stroke-linejoin="miter" fill="none" stroke="#666666" d="M401 251 416 131 431 251H401Z"/>
<path transform="matrix(.7189849,0,0,.7189849,.35949246,.35949246)" d="M451 251 466 131 481 251H451Z" fill="#00ff00"/>
<path transform="matrix(.7189849,0,0,.7189849,.35949246,.35949246)" stroke-width="1" stroke-linecap="butt" stroke-miterlimit="10" stroke-linejoin="miter" fill="none" stroke="#666666" d="M451 251 466 131 481 251H451Z"/>
<path transform="matrix(.7189849,0,0,.7189849,.35949246,.35949246)" d="M581 171 621 51 661 171H581Z" fill="#0000ff"/>
<path transform="matrix(.7189849,0,0,.7189849,.35949246,.35949246)" stroke-width="1" stroke-linecap="butt" stroke-miterlimit="10" stroke-linejoin="miter" fill="none" stroke="#666666" d="M581 171 621 51 661 171H581Z"/>
<path transform="matrix(.7189849,0,0,.7189849,.35949246,.35949246)" stroke-width="1" stroke-linecap="butt" stroke-miterlimit="10" stroke-linejoin="miter" fill="none" stroke="#000000" d="M488.07 58.07 516.5 86.5"/>
<path transform="matrix(.7189849,0,0,.7189849,.35949246,.35949246)" d="M520.21 90.21 512.78 87.73 516.5 86.5 517.73 82.78 520.21 90.21Z"/>
<path transform="matrix(.7189849,0,0,.7189849,.35949246,.35949246)" stroke-width="1" stroke-linecap="butt" stroke-miterlimit="10" stroke-linejoin="miter" fill="none" stroke="#000000" d="M520.21 90.21 512.78 87.73 516.5 86.5 517.73 82.78 520.21 90.21Z"/>
<path transform="matrix(.7189849,0,0,.7189849,.35949246,.35949246)" stroke-width="1" stroke-linecap="butt" stroke-miterlimit="10" stroke-linejoin="miter" fill="none" stroke="#000000" d="M473.93 58.07 452.57 79.43"/>
<path transform="matrix(.7189849,0,0,.7189849,.35949246,.35949246)" d="M448.86 83.14 451.34 75.71 452.57 79.43 456.29 80.66 448.86 83.14Z"/>
<path transform="matrix(.7189849,0,0,.7189849,.35949246,.35949246)" stroke-width="1" stroke-linecap="butt" stroke-miterlimit="10" stroke-linejoin="miter" fill="none" stroke="#000000" d="M448.86 83.14 451.34 75.71 452.57 79.43 456.29 80.66 448.86 83.14Z"/>
<path transform="matrix(.7189849,0,0,.7189849,.35949246,.35949246)" d="M491 51C490.99998 51.656606 490.9359 52.306905 490.80784 52.950899 490.67973 53.59489 490.49003 54.2202 490.23878 54.826826 489.9875 55.433454 489.67945 56.009744 489.31468 56.555696 488.9499 57.101644 488.53535 57.606767 488.07106 58.071065 487.60673 58.535356 487.1016 58.949899 486.55564 59.314687 486.00968 59.67948 485.43339 59.98752 484.82679 60.23879 484.22016 60.490064 483.59486 60.67975 482.95085 60.80785 482.3069 60.935949 481.6566 60.999998 481 61 480.34336 60.999998 479.69306 60.935949 479.04905 60.807847 478.40507 60.67975 477.77976 60.490064 477.17314 60.23879 476.5665 59.98752 475.9902 59.67948 475.44429 59.314687 474.8983 58.949899 474.39317 58.535356 473.9289 58.071065 473.4646 57.606767 473.05006 57.101644 472.68528 56.555696 472.32044 56.009744 472.0124 55.433454 471.76115 54.826826 471.50987 54.2202 471.3202 53.59489 471.1921 52.950899 471.06404 52.306905 470.99998 51.656606 471 51 470.99998 50.343389 471.06404 49.69308 471.1921 49.049089 471.3202 48.405096 471.50987 47.779787 471.76115 47.173158 472.0124 46.56653 472.32044 45.99024 472.68525 45.44429 473.05006 44.898344 473.4646 44.39322 473.9289 43.92893 474.39317 43.464635 474.8983 43.05009 475.44425 42.6853 475.9902 42.320508 476.5665 42.012475 477.17314 41.761205 477.77976 41.509935 478.40507 41.320249 479.04908 41.192148 479.69306 41.06405 480.34336 41 481 41 481.6566 41 482.3069 41.06405 482.95088 41.192148 483.59486 41.320249 484.22016 41.509935 484.82679 41.761205 485.43339 42.012475 486.00968 42.320508 486.55567 42.6853 487.1016 43.05009 487.60673 43.464635 488.07106 43.92893 488.53535 44.39322 488.9499 44.898344 489.31468 45.444295 489.67945 45.990243 489.9875 46.566534 490.23878 47.17316 490.49003 47.779787 490.67973 48.405096 490.80784 49.049089 490.9359 49.69308 490.99998 50.343389 491 51Z" fill="#fff2cc"/>
<path transform="matrix(.7189849,0,0,.7189849,.35949246,.35949246)" stroke-width="1" stroke-linecap="butt" stroke-miterlimit="4" stroke-linejoin="miter" fill="none" stroke="#d6b656" d="M491 51C490.99998 51.656606 490.9359 52.306905 490.80784 52.950899 490.67973 53.59489 490.49003 54.2202 490.23878 54.826826 489.9875 55.433454 489.67945 56.009744 489.31468 56.555696 488.9499 57.101644 488.53535 57.606767 488.07106 58.071065 487.60673 58.535356 487.1016 58.949899 486.55564 59.314687 486.00968 59.67948 485.43339 59.98752 484.82679 60.23879 484.22016 60.490064 483.59486 60.67975 482.95085 60.80785 482.3069 60.935949 481.6566 60.999998 481 61 480.34336 60.999998 479.69306 60.935949 479.04905 60.807847 478.40507 60.67975 477.77976 60.490064 477.17314 60.23879 476.5665 59.98752 475.9902 59.67948 475.44429 59.314687 474.8983 58.949899 474.39317 58.535356 473.9289 58.071065 473.4646 57.606767 473.05006 57.101644 472.68528 56.555696 472.32044 56.009744 472.0124 55.433454 471.76115 54.826826 471.50987 54.2202 471.3202 53.59489 471.1921 52.950899 471.06404 52.306905 470.99998 51.656606 471 51 470.99998 50.343389 471.06404 49.69308 471.1921 49.049089 471.3202 48.405096 471.50987 47.779787 471.76115 47.173158 472.0124 46.56653 472.32044 45.99024 472.68525 45.44429 473.05006 44.898344 473.4646 44.39322 473.9289 43.92893 474.39317 43.464635 474.8983 43.05009 475.44425 42.6853 475.9902 42.320508 476.5665 42.012475 477.17314 41.761205 477.77976 41.509935 478.40507 41.320249 479.04908 41.192148 479.69306 41.06405 480.34336 41 481 41 481.6566 41 482.3069 41.06405 482.95088 41.192148 483.59486 41.320249 484.22016 41.509935 484.82679 41.761205 485.43339 42.012475 486.00968 42.320508 486.55567 42.6853 487.1016 43.05009 487.60673 43.464635 488.07106 43.92893 488.53535 44.39322 488.9499 44.898344 489.31468 45.444295 489.67945 45.990243 489.9875 46.566534 490.23878 47.17316 490.49003 47.779787 490.67973 48.405096 490.80784 49.049089 490.9359 49.69308 490.99998 50.343389 491 51Z"/>
<use data-text="G" xlink:href="#font_3_42" transform="matrix(8.627819,0,0,-8.627819,342.47273,40.263154)"/>
<path transform="matrix(.7189849,0,0,.7189849,.35949246,.35949246)" d="M501 211 521 91 541 211H501Z" fill="#ffff33"/>
<path transform="matrix(.7189849,0,0,.7189849,.35949246,.35949246)" stroke-width="1" stroke-linecap="butt" stroke-miterlimit="10" stroke-linejoin="miter" fill="none" stroke="#666666" d="M501 211 521 91 541 211H501Z"/>
<path transform="matrix(.7189849,0,0,.7189849,.35949246,.35949246)" stroke-width="1" stroke-linecap="butt" stroke-miterlimit="10" stroke-linejoin="miter" fill="none" stroke="#000000" d="M973.93 58.07 945.5 86.5"/>
<path transform="matrix(.7189849,0,0,.7189849,.35949246,.35949246)" d="M941.79 90.21 944.27 82.78 945.5 86.5 949.22 87.73 941.79 90.21Z"/>
<path transform="matrix(.7189849,0,0,.7189849,.35949246,.35949246)" stroke-width="1" stroke-linecap="butt" stroke-miterlimit="10" stroke-linejoin="miter" fill="none" stroke="#000000" d="M941.79 90.21 944.27 82.78 945.5 86.5 949.22 87.73 941.79 90.21Z"/>
<path transform="matrix(.7189849,0,0,.7189849,.35949246,.35949246)" stroke-width="1" stroke-linecap="butt" stroke-miterlimit="10" stroke-linejoin="miter" fill="none" stroke="#000000" d="M988.07 58.07 1016.5 86.5"/>
<path transform="matrix(.7189849,0,0,.7189849,.35949246,.35949246)" d="M1020.21 90.21 1012.78 87.73 1016.5 86.5 1017.73 82.78 1020.21 90.21Z"/>
<path transform="matrix(.7189849,0,0,.7189849,.35949246,.35949246)" stroke-width="1" stroke-linecap="butt" stroke-miterlimit="10" stroke-linejoin="miter" fill="none" stroke="#000000" d="M1020.21 90.21 1012.78 87.73 1016.5 86.5 1017.73 82.78 1020.21 90.21Z"/>
<path transform="matrix(.7189849,0,0,.7189849,.35949246,.35949246)" d="M991 51C990.99996 51.656606 990.9359 52.306905 990.8078 52.950899 990.6796 53.59489 990.4899 54.2202 990.2387 54.826826 989.9874 55.433454 989.6794 56.009744 989.3146 56.555696 988.94979 57.101644 988.5353 57.606767 988.071 58.071065 987.6067 58.535356 987.1015 58.949899 986.55557 59.314687 986.00967 59.67948 985.43338 59.98752 984.8267 60.23879 984.2201 60.490064 983.5948 60.67975 982.9508 60.80785 982.3068 60.935949 981.65658 60.999998 981 61 980.3433 60.999998 979.693 60.935949 979.049 60.807847 978.40499 60.67975 977.77969 60.490064 977.17306 60.23879 976.5664 59.98752 975.9901 59.67948 975.44418 59.314687 974.8982 58.949899 974.3931 58.535356 973.92886 58.071065 973.46456 57.606767 973.0499 57.101644 972.6851 56.555696 972.3203 56.009744 972.01229 55.433454 971.761 54.826826 971.5097 54.2202 971.32009 53.59489 971.192 52.950899 971.06399 52.306905 970.99996 51.656606 971 51 970.99996 50.343389 971.06399 49.69308 971.192 49.049089 971.32009 48.405096 971.5097 47.779787 971.761 47.173158 972.01229 46.56653 972.3203 45.99024 972.6851 45.44429 973.0499 44.898344 973.46456 44.39322 973.92886 43.92893 974.3931 43.464635 974.8982 43.05009 975.4441 42.6853 975.99008 42.320508 976.5664 42.012475 977.17306 41.761205 977.77969 41.509935 978.40499 41.320249 979.049 41.192148 979.693 41.06405 980.3433 41 981 41 981.65658 41 982.3068 41.06405 982.9508 41.192148 983.5948 41.320249 984.2201 41.509935 984.8267 41.761205 985.43338 42.012475 986.00967 42.320508 986.5556 42.6853 987.10159 43.05009 987.6067 43.464635 988.071 43.92893 988.5353 44.39322 988.94979 44.898344 989.3146 45.444295 989.6794 45.990243 989.9874 46.566534 990.2387 47.17316 990.4899 47.779787 990.6796 48.405096 990.8078 49.049089 990.9359 49.69308 990.99996 50.343389 991 51Z" fill="#fff2cc"/>
<path transform="matrix(.7189849,0,0,.7189849,.35949246,.35949246)" stroke-width="1" stroke-linecap="butt" stroke-miterlimit="4" stroke-linejoin="miter" fill="none" stroke="#d6b656" d="M991 51C990.99996 51.656606 990.9359 52.306905 990.8078 52.950899 990.6796 53.59489 990.4899 54.2202 990.2387 54.826826 989.9874 55.433454 989.6794 56.009744 989.3146 56.555696 988.94979 57.101644 988.5353 57.606767 988.071 58.071065 987.6067 58.535356 987.1015 58.949899 986.55557 59.314687 986.00967 59.67948 985.43338 59.98752 984.8267 60.23879 984.2201 60.490064 983.5948 60.67975 982.9508 60.80785 982.3068 60.935949 981.65658 60.999998 981 61 980.3433 60.999998 979.693 60.935949 979.049 60.807847 978.40499 60.67975 977.77969 60.490064 977.17306 60.23879 976.5664 59.98752 975.9901 59.67948 975.44418 59.314687 974.8982 58.949899 974.3931 58.535356 973.92886 58.071065 973.46456 57.606767 973.0499 57.101644 972.6851 56.555696 972.3203 56.009744 972.01229 55.433454 971.761 54.826826 971.5097 54.2202 971.32009 53.59489 971.192 52.950899 971.06399 52.306905 970.99996 51.656606 971 51 970.99996 50.343389 971.06399 49.69308 971.192 49.049089 971.32009 48.405096 971.5097 47.779787 971.761 47.173158 972.01229 46.56653 972.3203 45.99024 972.6851 45.44429 973.0499 44.898344 973.46456 44.39322 973.92886 43.92893 974.3931 43.464635 974.8982 43.05009 975.4441 42.6853 975.99008 42.320508 976.5664 42.012475 977.17306 41.761205 977.77969 41.509935 978.40499 41.320249 979.049 41.192148 979.693 41.06405 980.3433 41 981 41 981.65658 41 982.3068 41.06405 982.9508 41.192148 983.5948 41.320249 984.2201 41.509935 984.8267 41.761205 985.43338 42.012475 986.00967 42.320508 986.5556 42.6853 987.10159 43.05009 987.6067 43.464635 988.071 43.92893 988.5353 44.39322 988.94979 44.898344 989.3146 45.444295 989.6794 45.990243 989.9874 46.566534 990.2387 47.17316 990.4899 47.779787 990.6796 48.405096 990.8078 49.049089 990.9359 49.69308 990.99996 50.343389 991 51Z"/>
<use data-text="M" xlink:href="#font_3_48" transform="matrix(8.627819,0,0,-8.627819,701.72927,40.263154)"/>
<path transform="matrix(.7189849,0,0,.7189849,.35949246,.35949246)" d="M1061 251.5H1058V250.5H1061M1055 251.5H1052V250.5H1055M1049 251.5H1046V250.5H1049M1043 251.5H1040V250.5H1043M1037 251.5H1034V250.5H1037M1031 251.5H1028V250.5H1031M1025 251.5H1022V250.5H1025M1019 251.5H1016V250.5H1019M1013 251.5H1010V250.5H1013M1007 251.5H1004V250.5H1007M1001 251.5H998V250.5H1001M995 251.5H992V250.5H995M989 251.5H986V250.5H989M983 251.5H980V250.5H983M977 251.5H974V250.5H977M971 251.5H968V250.5H971M965 251.5H962V250.5H965M959 251.5H956V250.5H959M953 251.5H950V250.5H953M947 251.5H944V250.5H947M941 251.5H938V250.5H941M935 251.5H932V250.5H935M929 251.5H926V250.5H929M923 251.5H920V250.5H923M917 251.5H914V250.5H917M911 251.5H908V250.5H911M905 251.5H902V250.5H905M899 251.5H896V250.5H899M893 251.5H890V250.5H893M887 251.5H884V250.5H887M881 251.5H878V250.5H881M875 251.5H872V250.5H875M869 251.5H866V250.5H869M863 251.5H860V250.5H863M857 251.5H854V250.5H857M851 251.5H848V250.5H851M845 251.5H842V250.5H845M839 251.5H836V250.5H839M833 251.5H830V250.5H833M827 251.5H824V250.5H827M821 251.5H818V250.5H821M815 251.5H812V250.5H815M809 251.5H806V250.5H809M803 251.5H800V250.5H803M797 251.5H794V250.5H797M791 251.5H788V250.5H791M785 251.5H782V250.5H785M779 251.5H776V250.5H779M773 251.5H770V250.5H773M767 251.5H764V250.5H767M761 251.5H758V250.5H761M755 251.5H752V250.5H755M749 251.5H746V250.5H749M743 251.5H740V250.5H743M737 251.5H734V250.5H737M731 251.5H728V250.5H731M725 251.5H722V250.5H725"/>
<path transform="matrix(.7189849,0,0,.7189849,.35949246,.35949246)" d="M1061 211.5H1058V210.5H1061M1055 211.5H1052V210.5H1055M1049 211.5H1046V210.5H1049M1043 211.5H1040V210.5H1043M1037 211.5H1034V210.5H1037M1031 211.5H1028V210.5H1031M1025 211.5H1022V210.5H1025M1019 211.5H1016V210.5H1019M1013 211.5H1010V210.5H1013M1007 211.5H1004V210.5H1007M1001 211.5H998V210.5H1001M995 211.5H992V210.5H995M989 211.5H986V210.5H989M983 211.5H980V210.5H983M977 211.5H974V210.5H977M971 211.5H968V210.5H971M965 211.5H962V210.5H965M959 211.5H956V210.5H959M953 211.5H950V210.5H953M947 211.5H944V210.5H947M941 211.5H938V210.5H941M935 211.5H932V210.5H935M929 211.5H926V210.5H929M923 211.5H920V210.5H923M917 211.5H914V210.5H917M911 211.5H908V210.5H911M905 211.5H902V210.5H905M899 211.5H896V210.5H899M893 211.5H890V210.5H893M887 211.5H884V210.5H887M881 211.5H878V210.5H881M875 211.5H872V210.5H875M869 211.5H866V210.5H869M863 211.5H860V210.5H863M857 211.5H854V210.5H857M851 211.5H848V210.5H851M845 211.5H842V210.5H845M839 211.5H836V210.5H839M833 211.5H830V210.5H833M827 211.5H824V210.5H827M821 211.5H818V210.5H821M815 211.5H812V210.5H815M809 211.5H806V210.5H809M803 211.5H800V210.5H803M797 211.5H794V210.5H797M791 211.5H788V210.5H791M785 211.5H782V210.5H785M779 211.5H776V210.5H779M773 211.5H770V210.5H773M767 211.5H764V210.5H767M761 211.5H758V210.5H761M755 211.5H752V210.5H755M749 211.5H746V210.5H749M743 211.5H740V210.5H743M737 211.5H734V210.5H737M731 211.5H728V210.5H731M725 211.5H722V210.5H725"/>
<path transform="matrix(.7189849,0,0,.7189849,.35949246,.35949246)" d="M1061 171.5H1058V170.5H1061M1055 171.5H1052V170.5H1055M1049 171.5H1046V170.5H1049M1043 171.5H1040V170.5H1043M1037 171.5H1034V170.5H1037M1031 171.5H1028V170.5H1031M1025 171.5H1022V170.5H1025M1019 171.5H1016V170.5H1019M1013 171.5H1010V170.5H1013M1007 171.5H1004V170.5H1007M1001 171.5H998V170.5H1001M995 171.5H992V170.5H995M989 171.5H986V170.5H989M983 171.5H980V170.5H983M977 171.5H974V170.5H977M971 171.5H968V170.5H971M965 171.5H962V170.5H965M959 171.5H956V170.5H959M953 171.5H950V170.5H953M947 171.5H944V170.5H947M941 171.5H938V170.5H941M935 171.5H932V170.5H935M929 171.5H926V170.5H929M923 171.5H920V170.5H923M917 171.5H914V170.5H917M911 171.5H908V170.5H911M905 171.5H902V170.5H905M899 171.5H896V170.5H899M893 171.5H890V170.5H893M887 171.5H884V170.5H887M881 171.5H878V170.5H881M875 171.5H872V170.5H875M869 171.5H866V170.5H869M863 171.5H860V170.5H863M857 171.5H854V170.5H857M851 171.5H848V170.5H851M845 171.5H842V170.5H845M839 171.5H836V170.5H839M833 171.5H830V170.5H833M827 171.5H824V170.5H827M821 171.5H818V170.5H821M815 171.5H812V170.5H815M809 171.5H806V170.5H809M803 171.5H800V170.5H803M797 171.5H794V170.5H797M791 171.5H788V170.5H791M785 171.5H782V170.5H785M779 171.5H776V170.5H779M773 171.5H770V170.5H773M767 171.5H764V170.5H767M761 171.5H758V170.5H761M755 171.5H752V170.5H755M749 171.5H746V170.5H749M743 171.5H740V170.5H743M737 171.5H734V170.5H737M731 171.5H728V170.5H731M725 171.5H722V170.5H725"/>
<path transform="matrix(.7189849,0,0,.7189849,.35949246,.35949246)" stroke-width="1" stroke-linecap="butt" stroke-miterlimit="10" stroke-linejoin="miter" fill="none" stroke="#000000" d="M813.93 58.07 785.5 86.5"/>
<path transform="matrix(.7189849,0,0,.7189849,.35949246,.35949246)" d="M781.79 90.21 784.27 82.78 785.5 86.5 789.22 87.73 781.79 90.21Z"/>
<path transform="matrix(.7189849,0,0,.7189849,.35949246,.35949246)" stroke-width="1" stroke-linecap="butt" stroke-miterlimit="10" stroke-linejoin="miter" fill="none" stroke="#000000" d="M781.79 90.21 784.27 82.78 785.5 86.5 789.22 87.73 781.79 90.21Z"/>
<path transform="matrix(.7189849,0,0,.7189849,.35949246,.35949246)" stroke-width="1" stroke-linecap="butt" stroke-miterlimit="10" stroke-linejoin="miter" fill="none" stroke="#000000" d="M828.07 58.07 856.5 86.5"/>
<path transform="matrix(.7189849,0,0,.7189849,.35949246,.35949246)" d="M860.21 90.21 852.78 87.73 856.5 86.5 857.73 82.78 860.21 90.21Z"/>
<path transform="matrix(.7189849,0,0,.7189849,.35949246,.35949246)" stroke-width="1" stroke-linecap="butt" stroke-miterlimit="10" stroke-linejoin="miter" fill="none" stroke="#000000" d="M860.21 90.21 852.78 87.73 856.5 86.5 857.73 82.78 860.21 90.21Z"/>
<path transform="matrix(.7189849,0,0,.7189849,.35949246,.35949246)" d="M831 51C830.99996 51.656606 830.9359 52.306905 830.8078 52.950899 830.6797 53.59489 830.49 54.2202 830.2387 54.826826 829.9874 55.433454 829.6794 56.009744 829.3146 56.555696 828.94979 57.101644 828.5353 57.606767 828.071 58.071065 827.6067 58.535356 827.1015 58.949899 826.55557 59.314687 826.0096 59.67948 825.4333 59.98752 824.8267 60.23879 824.2201 60.490064 823.5948 60.67975 822.9508 60.80785 822.3068 60.935949 821.65658 60.999998 821 61 820.3433 60.999998 819.693 60.935949 819.049 60.807847 818.405 60.67975 817.7797 60.490064 817.1731 60.23879 816.56649 59.98752 815.9902 59.67948 815.4442 59.314687 814.89828 58.949899 814.3932 58.535356 813.9289 58.071065 813.4646 57.606767 813.05 57.101644 812.6852 56.555696 812.32046 56.009744 812.0124 55.433454 811.7611 54.826826 811.5098 54.2202 811.3202 53.59489 811.1921 52.950899 811.06399 52.306905 810.99996 51.656606 811 51 810.99996 50.343389 811.06399 49.69308 811.1921 49.049089 811.3202 48.405096 811.5099 47.779787 811.76119 47.173158 812.01248 46.56653 812.32046 45.99024 812.68527 45.44429 813.05007 44.898344 813.4646 44.39322 813.9289 43.92893 814.3932 43.464635 814.89828 43.05009 815.4442 42.6853 815.9902 42.320508 816.56649 42.012475 817.1731 41.761205 817.7797 41.509935 818.405 41.320249 819.0491 41.192148 819.69308 41.06405 820.3433 41 821 41 821.65658 41 822.3068 41.06405 822.9508 41.192148 823.5948 41.320249 824.2201 41.509935 824.8267 41.761205 825.4333 42.012475 826.0096 42.320508 826.55557 42.6853 827.1015 43.05009 827.6067 43.464635 828.071 43.92893 828.5353 44.39322 828.94979 44.898344 829.3146 45.444295 829.6793 45.990243 829.98739 46.566534 830.23867 47.17316 830.4899 47.779787 830.6797 48.405096 830.8078 49.049089 830.9359 49.69308 830.99996 50.343389 831 51Z" fill="#fff2cc"/>
<path transform="matrix(.7189849,0,0,.7189849,.35949246,.35949246)" stroke-width="1" stroke-linecap="butt" stroke-miterlimit="4" stroke-linejoin="miter" fill="none" stroke="#d6b656" d="M831 51C830.99996 51.656606 830.9359 52.306905 830.8078 52.950899 830.6797 53.59489 830.49 54.2202 830.2387 54.826826 829.9874 55.433454 829.6794 56.009744 829.3146 56.555696 828.94979 57.101644 828.5353 57.606767 828.071 58.071065 827.6067 58.535356 827.1015 58.949899 826.55557 59.314687 826.0096 59.67948 825.4333 59.98752 824.8267 60.23879 824.2201 60.490064 823.5948 60.67975 822.9508 60.80785 822.3068 60.935949 821.65658 60.999998 821 61 820.3433 60.999998 819.693 60.935949 819.049 60.807847 818.405 60.67975 817.7797 60.490064 817.1731 60.23879 816.56649 59.98752 815.9902 59.67948 815.4442 59.314687 814.89828 58.949899 814.3932 58.535356 813.9289 58.071065 813.4646 57.606767 813.05 57.101644 812.6852 56.555696 812.32046 56.009744 812.0124 55.433454 811.7611 54.826826 811.5098 54.2202 811.3202 53.59489 811.1921 52.950899 811.06399 52.306905 810.99996 51.656606 811 51 810.99996 50.343389 811.06399 49.69308 811.1921 49.049089 811.3202 48.405096 811.5099 47.779787 811.76119 47.173158 812.01248 46.56653 812.32046 45.99024 812.68527 45.44429 813.05007 44.898344 813.4646 44.39322 813.9289 43.92893 814.3932 43.464635 814.89828 43.05009 815.4442 42.6853 815.9902 42.320508 816.56649 42.012475 817.1731 41.761205 817.7797 41.509935 818.405 41.320249 819.0491 41.192148 819.69308 41.06405 820.3433 41 821 41 821.65658 41 822.3068 41.06405 822.9508 41.192148 823.5948 41.320249 824.2201 41.509935 824.8267 41.761205 825.4333 42.012475 826.0096 42.320508 826.55557 42.6853 827.1015 43.05009 827.6067 43.464635 828.071 43.92893 828.5353 44.39322 828.94979 44.898344 829.3146 45.444295 829.6793 45.990243 829.98739 46.566534 830.23867 47.17316 830.4899 47.779787 830.6797 48.405096 830.8078 49.049089 830.9359 49.69308 830.99996 50.343389 831 51Z"/>
<use data-text="E" xlink:href="#font_3_40" transform="matrix(8.627819,0,0,-8.627819,587.3994,40.263154)"/>
<path transform="matrix(.7189849,0,0,.7189849,.35949246,.35949246)" d="M761 211 781 91 801 211H761Z" fill="#ff0000"/>
<path transform="matrix(.7189849,0,0,.7189849,.35949246,.35949246)" stroke-width="1" stroke-linecap="butt" stroke-miterlimit="10" stroke-linejoin="miter" fill="none" stroke="#666666" d="M761 211 781 91 801 211H761Z"/>
<path transform="matrix(.7189849,0,0,.7189849,.35949246,.35949246)" d="M841 211 861 91 881 211H841Z" fill="#00ff00"/>
<path transform="matrix(.7189849,0,0,.7189849,.35949246,.35949246)" stroke-width="1" stroke-linecap="butt" stroke-miterlimit="10" stroke-linejoin="miter" fill="none" stroke="#666666" d="M841 211 861 91 881 211H841Z"/>
<path transform="matrix(.7189849,0,0,.7189849,.35949246,.35949246)" d="M1001 211 1021 91 1041 211H1001Z" fill="#0000ff"/>
<path transform="matrix(.7189849,0,0,.7189849,.35949246,.35949246)" stroke-width="1" stroke-linecap="butt" stroke-miterlimit="10" stroke-linejoin="miter" fill="none" stroke="#666666" d="M1001 211 1021 91 1041 211H1001Z"/>
<path transform="matrix(.7189849,0,0,.7189849,.35949246,.35949246)" stroke-width="1" stroke-linecap="butt" stroke-miterlimit="10" stroke-linejoin="miter" fill="none" stroke="#000000" d="M892.03 15.42 835.64 43.68"/>
<path transform="matrix(.7189849,0,0,.7189849,.35949246,.35949246)" d="M830.94 46.03 835.63 39.76 835.64 43.68 838.77 46.02 830.94 46.03Z"/>
<path transform="matrix(.7189849,0,0,.7189849,.35949246,.35949246)" stroke-width="1" stroke-linecap="butt" stroke-miterlimit="10" stroke-linejoin="miter" fill="none" stroke="#000000" d="M830.94 46.03 835.63 39.76 835.64 43.68 838.77 46.02 830.94 46.03Z"/>
<path transform="matrix(.7189849,0,0,.7189849,.35949246,.35949246)" stroke-width="1" stroke-linecap="butt" stroke-miterlimit="10" stroke-linejoin="miter" fill="none" stroke="#000000" d="M909.97 15.42 966.36 43.68"/>
<path transform="matrix(.7189849,0,0,.7189849,.35949246,.35949246)" d="M971.06 46.03 963.23 46.02 966.36 43.68 966.37 39.76 971.06 46.03Z"/>
<path transform="matrix(.7189849,0,0,.7189849,.35949246,.35949246)" stroke-width="1" stroke-linecap="butt" stroke-miterlimit="10" stroke-linejoin="miter" fill="none" stroke="#000000" d="M971.06 46.03 963.23 46.02 966.36 43.68 966.37 39.76 971.06 46.03Z"/>
<path transform="matrix(.7189849,0,0,.7189849,.35949246,.35949246)" d="M911 11C910.99996 11.656609 910.9359 12.30691 910.8078 12.950903 910.6797 13.594895 910.49 14.220205 910.2387 14.826834 909.9874 15.433461 909.67947 16.00975 909.31466 16.5557 908.9498 17.10165 908.53536 17.606774 908.07107 18.071068 907.60678 18.53536 907.1016 18.949902 906.55569 19.314694 906.0097 19.679488 905.4334 19.98752 904.8268 20.238795 904.22018 20.490067 903.59487 20.679753 902.9508 20.80785 902.3068 20.93595 901.65658 20.999999 901 21 900.3433 20.999999 899.693 20.93595 899.049 20.80785 898.405 20.679753 897.77969 20.490067 897.17306 20.238795 896.5664 19.98752 895.9901 19.679488 895.44418 19.314694 894.8982 18.949902 894.3931 18.53536 893.92886 18.071068 893.46456 17.606774 893.05 17.10165 892.68527 16.5557 892.3204 16.00975 892.0123 15.433461 891.7611 14.826834 891.5098 14.220205 891.3202 13.594895 891.19216 12.950903 891.064 12.30691 890.99996 11.656609 891 11 890.99996 10.34339 891.064 9.693089 891.19216 9.049096 891.3202 8.405103 891.5098 7.7797925 891.7611 7.173165 892.0123 6.566537 892.3204 5.9902479 892.68527 5.4442975 893.05 4.8983466 893.46456 4.3932249 893.92886 3.928932 894.3931 3.464639 894.8982 3.050096 895.44418 2.6853035 895.9901 2.3205109 896.5664 2.0124779 897.17306 1.7612045 897.77969 1.509931 898.405 1.3202453 899.049 1.1921471 899.693 1.064049 900.3433 1 901 1 901.65658 1 902.3068 1.0640491 902.9508 1.1921473 903.59487 1.3202453 904.22018 1.5099311 904.8268 1.7612046 905.4334 2.0124779 906.0097 2.3205109 906.55569 2.6853035 907.1016 3.050096 907.60678 3.464639 908.07107 3.928932 908.53536 4.3932249 908.9498 4.8983466 909.3146 5.4442975 909.6794 5.9902479 909.98739 6.566537 910.23867 7.173165 910.4899 7.7797925 910.6797 8.405103 910.8078 9.049096 910.9359 9.693089 910.99996 10.34339 911 11Z" fill="#fff2cc"/>
<path transform="matrix(.7189849,0,0,.7189849,.35949246,.35949246)" stroke-width="1" stroke-linecap="butt" stroke-miterlimit="4" stroke-linejoin="miter" fill="none" stroke="#d6b656" d="M911 11C910.99996 11.656609 910.9359 12.30691 910.8078 12.950903 910.6797 13.594895 910.49 14.220205 910.2387 14.826834 909.9874 15.433461 909.67947 16.00975 909.31466 16.5557 908.9498 17.10165 908.53536 17.606774 908.07107 18.071068 907.60678 18.53536 907.1016 18.949902 906.55569 19.314694 906.0097 19.679488 905.4334 19.98752 904.8268 20.238795 904.22018 20.490067 903.59487 20.679753 902.9508 20.80785 902.3068 20.93595 901.65658 20.999999 901 21 900.3433 20.999999 899.693 20.93595 899.049 20.80785 898.405 20.679753 897.77969 20.490067 897.17306 20.238795 896.5664 19.98752 895.9901 19.679488 895.44418 19.314694 894.8982 18.949902 894.3931 18.53536 893.92886 18.071068 893.46456 17.606774 893.05 17.10165 892.68527 16.5557 892.3204 16.00975 892.0123 15.433461 891.7611 14.826834 891.5098 14.220205 891.3202 13.594895 891.19216 12.950903 891.064 12.30691 890.99996 11.656609 891 11 890.99996 10.34339 891.064 9.693089 891.19216 9.049096 891.3202 8.405103 891.5098 7.7797925 891.7611 7.173165 892.0123 6.566537 892.3204 5.9902479 892.68527 5.4442975 893.05 4.8983466 893.46456 4.3932249 893.92886 3.928932 894.3931 3.464639 894.8982 3.050096 895.44418 2.6853035 895.9901 2.3205109 896.5664 2.0124779 897.17306 1.7612045 897.77969 1.509931 898.405 1.3202453 899.049 1.1921471 899.693 1.064049 900.3433 1 901 1 901.65658 1 902.3068 1.0640491 902.9508 1.1921473 903.59487 1.3202453 904.22018 1.5099311 904.8268 1.7612046 905.4334 2.0124779 906.0097 2.3205109 906.55569 2.6853035 907.1016 3.050096 907.60678 3.464639 908.07107 3.928932 908.53536 4.3932249 908.9498 4.8983466 909.3146 5.4442975 909.6794 5.9902479 909.98739 6.566537 910.23867 7.173165 910.4899 7.7797925 910.6797 8.405103 910.8078 9.049096 910.9359 9.693089 910.99996 10.34339 911 11Z"/>
<use data-text="G" xlink:href="#font_3_42" transform="matrix(8.627819,0,0,-8.627819,644.4464,11.503758)"/>
<path transform="matrix(.7189849,0,0,.7189849,.35949246,.35949246)" d="M921 211 941 91 961 211H921Z" fill="#ffff33"/>
<path transform="matrix(.7189849,0,0,.7189849,.35949246,.35949246)" stroke-width="1" stroke-linecap="butt" stroke-miterlimit="10" stroke-linejoin="miter" fill="none" stroke="#666666" d="M921 211 941 91 961 211H921Z"/>
</g>
</svg>
