<svg xmlns="http://www.w3.org/2000/svg" xmlns:xlink="http://www.w3.org/1999/xlink" xmlns:inkscape="http://www.inkscape.org/namespaces/inkscape" version="1.1" width="464.87998" height="196.08" viewBox="0 0 464.87998 196.08">
<defs>
<clipPath id="clip_1">
<path transform="matrix(.24,0,0,.24,0,0)" d="M0 0H1937.4999V814.52859H0Z" clip-rule="evenodd"/>
</clipPath>
<clipPath id="clip_2">
<path transform="matrix(.24,0,0,.24,0,0)" d="M0 0H1937.4999V814.52859H0Z" clip-rule="evenodd"/>
</clipPath>
<path id="font_3_19" d="M.27441407 .71875C.34375 .71875 .39794923 .6939952 .43701173 .6444855 .4835612 .585851 .50683596 .48861695 .50683596 .3527832 .50683596 .21727498 .48339845 .119878139 .43652345 .06059265 .39778648 .011734009 .34375-.0126953129 .27441407-.0126953129 .20475261-.0126953129 .14860027 .014094035 .10595703 .06767273 .063313808 .1212616 .041992189 .2167867 .041992189 .35424806 .041992189 .48910523 .06542969 .5861766 .11230469 .64546206 .15104167 .6943207 .20507813 .71875 .27441407 .71875M.27441407 .6044922C.2578125 .6044922 .2430013 .5992076 .22998047 .5886383 .21695964 .57806906 .20686849 .5591278 .19970703 .5318146 .19026692 .4963633 .18554688 .4366862 .18554688 .3527832 .18554688 .26888023 .18977864 .2112376 .19824219 .17985535 .20670574 .1484731 .21736653 .12757874 .23022461 .11717224 .24308269 .10676575 .2578125 .1015625 .27441407 .1015625 .29101563 .1015625 .3058268 .10684713 .31884767 .11741638 .3318685 .12798564 .34195964 .14692688 .3491211 .17424011 .3585612 .20936585 .36328126 .26888023 .36328126 .3527832 .36328126 .4366862 .35904948 .49432884 .35058595 .52571108 .3421224 .5570933 .33146159 .57806906 .31860353 .5886383 .30574546 .5992076 .29101563 .6044922 .27441407 .6044922Z"/>
<path id="font_3_29" d="M.09814453 .38085938V.5185547H.23535156V.38085938H.09814453M.09814453 0V.13769531H.23535156V0H.09814453Z"/>
<path id="font_3_20" d="M.3935547 0H.25634767V.51652529C.20621746 .46946717 .14713542 .43466188 .07910156 .41210938V.5371094C.11490885 .54885867 .1538086 .5711314 .19580078 .6039276 .23779297 .636734 .26660157 .6750081 .28222657 .71875H.3935547V0Z"/>
<path id="font_3_21" d="M.5058594 .12792969V0H.024902344C.030110678 .048136396 .045735677 .09375 .071777347 .13684082 .09781901 .17994182 .1492513 .2371114 .22607422 .3083496 .2879232 .36591593 .32584635 .40494285 .33984376 .4254303 .35872398 .45373027 .36816407 .4817047 .36816407 .50935366 .36816407 .53993228 .35994468 .5634308 .34350587 .57984927 .32706706 .5962779 .30436198 .6044922 .27539063 .6044922 .2467448 .6044922 .22395833 .5958252 .20703125 .5784912 .19010417 .5611674 .18033855 .5323995 .17773438 .4921875L.041015626 .5059204C.049153646 .5817668 .07470703 .63619998 .11767578 .66922 .16064453 .70224 .21435547 .71875 .2788086 .71875 .34944663 .71875 .4049479 .6997223 .4453125 .66166689 .4856771 .62361147 .5058594 .5762889 .5058594 .5196991 .5058594 .4874929 .50008139 .4568329 .4885254 .42771913 .4769694 .3986155 .45865885 .36812846 .43359376 .33625794 .4169922 .31510926 .38704429 .2846934 .34375 .24501038 .30045573 .20533753 .2730306 .17899578 .2614746 .1659851 .24991863 .15297444 .24055989 .1402893 .23339844 .12792969H.5058594Z"/>
<path id="font_3_3" d="M0 0Z"/>
<clipPath id="clip_4">
<path transform="matrix(.24,0,0,.24,0,0)" d="M197.64296 350.36708H248.551V410.25889H197.64296Z" clip-rule="evenodd"/>
</clipPath>
<clipPath id="clip_5">
<path transform="matrix(.24,0,0,.24,0,0)" d="M556.9938 110.79984H607.9018V170.69165H556.9938Z" clip-rule="evenodd"/>
</clipPath>
<clipPath id="clip_6">
<path transform="matrix(.24,0,0,.24,0,0)" d="M1203.8253 350.36708H1254.7334V410.25889H1203.8253Z" clip-rule="evenodd"/>
</clipPath>
<clipPath id="clip_7">
<path transform="matrix(.24,0,0,.24,0,0)" d="M1515.2627 356.35624H1566.1708V401.2751H1515.2627Z" clip-rule="evenodd"/>
</clipPath>
<clipPath id="clip_8">
<path transform="matrix(.24,0,0,.24,0,0)" d="M527.0479 356.35624H577.95596V401.2751H527.0479Z" clip-rule="evenodd"/>
</clipPath>
<clipPath id="clip_9">
<path transform="matrix(.24,0,0,.24,0,0)" d="M1724.884 595.92349H1775.7921V640.8423H1724.884Z" clip-rule="evenodd"/>
</clipPath>
<clipPath id="clip_10">
<path transform="matrix(.24,0,0,.24,0,0)" d="M1149.9226 116.789028H1200.8307V161.70789H1149.9226Z" clip-rule="evenodd"/>
</clipPath>
<clipPath id="clip_11">
<path transform="matrix(.24,0,0,.24,0,0)" d="M467.1561 589.93429H518.06417V649.82608H467.1561Z" clip-rule="evenodd"/>
</clipPath>
<clipPath id="clip_12">
<path transform="matrix(.24,0,0,.24,0,0)" d="M1485.3168 589.93429H1536.2249V649.82608H1485.3168Z" clip-rule="evenodd"/>
</clipPath>
<clipPath id="clip_13">
<path transform="matrix(.24,0,0,.24,0,0)" d="M736.6692 595.92349H787.5772V640.8423H736.6692Z" clip-rule="evenodd"/>
</clipPath>
</defs>
<g clip-path="url(#clip_1)">
<path transform="matrix(.71870169,0,0,.71870169,0,0)" d="M0 0H647V272H0Z" fill="#ffffff"/>
</g>
<g clip-path="url(#clip_2)">
<path transform="matrix(.71870169,0,0,.71870169,.35935084,.35935084)" d="M333 16C333 16.491269 332.9358 16.981354 332.8074 17.470259 332.679 17.95916 332.48698 18.444525 332.23139 18.926354 331.9758 19.408185 331.65785 19.884158 331.27757 20.35427 330.89729 20.824385 330.45646 21.286379 329.9551 21.74025 329.4538 22.194125 328.89439 22.63769 328.27684 23.07095 327.65925 23.50421 326.98658 23.925076 326.25877 24.33355 325.53096 24.742026 324.7515 25.13614 323.9204 25.515896 323.08934 25.895653 322.2106 26.25922 321.28425 26.6066 320.35789 26.95398 319.38838 27.283499 318.3757 27.595154 317.36305 27.906813 316.31205 28.199109 315.22276 28.47204 314.1335 28.744976 313.0112 28.997235 311.85585 29.228817 310.70048 29.460402 309.5176 29.670193 308.30729 29.85819 307.09696 30.046193 305.86497 30.211499 304.61134 30.354105 303.3577 30.496714 302.08848 30.615939 300.8036 30.711779 299.51875 30.807621 298.22447 30.87962 296.92073 30.927773 295.61698 30.975924 294.31007 31 293 31 291.68995 31 290.38307 30.975924 289.0793 30.92777 287.77558 30.87962 286.48124 30.807621 285.19636 30.711779 283.91148 30.615939 282.6422 30.496714 281.38856 30.354107 280.13493 30.211499 278.90296 30.046193 277.69264 29.85819 276.48228 29.670193 275.29945 29.460402 274.1441 29.228817 272.98875 28.997235 271.86643 28.744976 270.77717 28.47204 269.6879 28.199109 268.6369 27.906813 267.62425 27.595154 266.61158 27.283499 265.64207 26.95398 264.7157 26.6066 263.78938 26.25922 262.91065 25.895653 262.07957 25.515896 261.24848 25.13614 260.46903 24.742026 259.74119 24.33355 259.01338 23.925076 258.3407 23.50421 257.72315 23.07095 257.1056 22.63769 256.54615 22.194125 256.0448 21.74025 255.54347 21.286379 255.10268 20.824385 254.72238 20.35427 254.3421 19.884158 254.02417 19.408185 253.76857 18.926354 253.513 18.444525 253.32103 17.95916 253.19263 17.470259 253.06423 16.981354 253.00002 16.491269 253 16 253.00002 15.508732 253.06423 15.018646 253.19263 14.529743 253.32103 14.040839 253.513 13.555473 253.76857 13.073644 254.02417 12.591816 254.3421 12.115844 254.72238 11.645729 255.10268 11.175614 255.54347 10.713621 256.0448 10.2597479 256.54615 9.805876 257.1056 9.362309 257.72315 8.929049 258.3407 8.495788 259.01338 8.074921 259.74119 7.6664459 260.46903 7.2579715 261.24848 6.8638565 262.07957 6.4841005 262.91065 6.104345 263.78938 5.740777 264.7157 5.393398 265.64207 5.0460188 266.61158 4.7165005 267.62425 4.404843 268.6369 4.0931856 269.6879 3.8008898 270.77717 3.5279554 271.86643 3.2550214 272.98875 3.002763 274.1441 2.7711807 275.29945 2.5395985 276.48228 2.3298074 277.69264 2.1418069 278.90296 1.9538066 280.13493 1.7885027 281.38856 1.645895 282.6422 1.5032873 283.91148 1.3840625 285.19636 1.2882208 286.48124 1.1923791 287.77558 1.120382 289.0793 1.0722292 290.38307 1.0240764 291.68995 1 293 1 294.31007 1 295.61698 1.0240764 296.92073 1.0722292 298.22447 1.120382 299.51875 1.1923791 300.8036 1.2882208 302.08848 1.3840625 303.3577 1.5032873 304.61134 1.6458951 305.86497 1.7885027 307.09696 1.9538066 308.30729 2.1418069 309.5176 2.3298074 310.70048 2.5395985 311.85585 2.7711807 313.0112 3.002763 314.1335 3.2550214 315.22279 3.5279554 316.31208 3.8008898 317.36305 4.0931856 318.3757 4.404843 319.38838 4.7165005 320.35789 5.0460188 321.28425 5.393398 322.2106 5.740777 323.08934 6.104345 323.9204 6.4841005 324.7515 6.8638565 325.5309 7.2579715 326.25874 7.6664459 326.98655 8.074921 327.65925 8.495789 328.27684 8.9290499 328.89439 9.362309 329.4538 9.805876 329.9551 10.259748 330.45646 10.713622 330.89729 11.175615 331.2776 11.64573 331.65788 12.115845 331.9758 12.591817 332.23139 13.073645 332.48698 13.555474 332.679 14.04084 332.8074 14.529744 332.9358 15.018646 333 15.508732 333 16Z" fill="#ffffff"/>
<path transform="matrix(.71870169,0,0,.71870169,.35935084,.35935084)" stroke-width="1" stroke-linecap="butt" stroke-miterlimit="4" stroke-linejoin="miter" fill="none" stroke="#000000" d="M333 16C333 16.491269 332.9358 16.981354 332.8074 17.470259 332.679 17.95916 332.48698 18.444525 332.23139 18.926354 331.9758 19.408185 331.65785 19.884158 331.27757 20.35427 330.89729 20.824385 330.45646 21.286379 329.9551 21.74025 329.4538 22.194125 328.89439 22.63769 328.27684 23.07095 327.65925 23.50421 326.98658 23.925076 326.25877 24.33355 325.53096 24.742026 324.7515 25.13614 323.9204 25.515896 323.08934 25.895653 322.2106 26.25922 321.28425 26.6066 320.35789 26.95398 319.38838 27.283499 318.3757 27.595154 317.36305 27.906813 316.31205 28.199109 315.22276 28.47204 314.1335 28.744976 313.0112 28.997235 311.85585 29.228817 310.70048 29.460402 309.5176 29.670193 308.30729 29.85819 307.09696 30.046193 305.86497 30.211499 304.61134 30.354105 303.3577 30.496714 302.08848 30.615939 300.8036 30.711779 299.51875 30.807621 298.22447 30.87962 296.92073 30.927773 295.61698 30.975924 294.31007 31 293 31 291.68995 31 290.38307 30.975924 289.0793 30.92777 287.77558 30.87962 286.48124 30.807621 285.19636 30.711779 283.91148 30.615939 282.6422 30.496714 281.38856 30.354107 280.13493 30.211499 278.90296 30.046193 277.69264 29.85819 276.48228 29.670193 275.29945 29.460402 274.1441 29.228817 272.98875 28.997235 271.86643 28.744976 270.77717 28.47204 269.6879 28.199109 268.6369 27.906813 267.62425 27.595154 266.61158 27.283499 265.64207 26.95398 264.7157 26.6066 263.78938 26.25922 262.91065 25.895653 262.07957 25.515896 261.24848 25.13614 260.46903 24.742026 259.74119 24.33355 259.01338 23.925076 258.3407 23.50421 257.72315 23.07095 257.1056 22.63769 256.54615 22.194125 256.0448 21.74025 255.54347 21.286379 255.10268 20.824385 254.72238 20.35427 254.3421 19.884158 254.02417 19.408185 253.76857 18.926354 253.513 18.444525 253.32103 17.95916 253.19263 17.470259 253.06423 16.981354 253.00002 16.491269 253 16 253.00002 15.508732 253.06423 15.018646 253.19263 14.529743 253.32103 14.040839 253.513 13.555473 253.76857 13.073644 254.02417 12.591816 254.3421 12.115844 254.72238 11.645729 255.10268 11.175614 255.54347 10.713621 256.0448 10.2597479 256.54615 9.805876 257.1056 9.362309 257.72315 8.929049 258.3407 8.495788 259.01338 8.074921 259.74119 7.6664459 260.46903 7.2579715 261.24848 6.8638565 262.07957 6.4841005 262.91065 6.104345 263.78938 5.740777 264.7157 5.393398 265.64207 5.0460188 266.61158 4.7165005 267.62425 4.404843 268.6369 4.0931856 269.6879 3.8008898 270.77717 3.5279554 271.86643 3.2550214 272.98875 3.002763 274.1441 2.7711807 275.29945 2.5395985 276.48228 2.3298074 277.69264 2.1418069 278.90296 1.9538066 280.13493 1.7885027 281.38856 1.645895 282.6422 1.5032873 283.91148 1.3840625 285.19636 1.2882208 286.48124 1.1923791 287.77558 1.120382 289.0793 1.0722292 290.38307 1.0240764 291.68995 1 293 1 294.31007 1 295.61698 1.0240764 296.92073 1.0722292 298.22447 1.120382 299.51875 1.1923791 300.8036 1.2882208 302.08848 1.3840625 303.3577 1.5032873 304.61134 1.6458951 305.86497 1.7885027 307.09696 1.9538066 308.30729 2.1418069 309.5176 2.3298074 310.70048 2.5395985 311.85585 2.7711807 313.0112 3.002763 314.1335 3.2550214 315.22279 3.5279554 316.31208 3.8008898 317.36305 4.0931856 318.3757 4.404843 319.38838 4.7165005 320.35789 5.0460188 321.28425 5.393398 322.2106 5.740777 323.08934 6.104345 323.9204 6.4841005 324.7515 6.8638565 325.5309 7.2579715 326.25874 7.6664459 326.98655 8.074921 327.65925 8.495789 328.27684 8.9290499 328.89439 9.362309 329.4538 9.805876 329.9551 10.259748 330.45646 10.713622 330.89729 11.175615 331.2776 11.64573 331.65788 12.115845 331.9758 12.591817 332.23139 13.073645 332.48698 13.555474 332.679 14.04084 332.8074 14.529744 332.9358 15.018646 333 15.508732 333 16Z"/>
<use data-text="0" xlink:href="#font_3_19" transform="matrix(12.93663,0,0,-12.93663,201.22524,15.811437)"/>
<use data-text=":" xlink:href="#font_3_29" transform="matrix(12.93663,0,0,-12.93663,208.418,15.811437)"/>
<use data-text="1" xlink:href="#font_3_20" transform="matrix(12.93663,0,0,-12.93663,212.72589,15.811437)"/>
<path transform="matrix(.71870169,0,0,.71870169,.35935084,.35935084)" d="M165 96C165 96.49127 164.93579 96.98136 164.80739 97.47026 164.67897 97.95916 164.48697 98.44452 164.23139 98.926349 163.97582 99.40818 163.6579 99.88415 163.2776 100.35426 162.89733 100.82438 162.45652 101.28638 161.95516 101.74024 161.45383 102.19412 160.89438 102.63769 160.27683 103.070949 159.65927 103.50421 158.98659 103.92507 158.25876 104.33354 157.53095 104.74203 156.7515 105.13615 155.92041 105.5159 155.08931 105.89565 154.2106 106.259227 153.28426 106.6066 152.35793 106.95398 151.38842 107.2835 150.37574 107.59516 149.36304 107.906818 148.31206 108.19911 147.22278 108.47204 146.13353 108.74498 145.01122 108.99724 143.85585 109.22882 142.7005 109.460399 141.51766 109.67019 140.30731 109.858188 139.097 110.04618 137.86502 110.211498 136.61138 110.35411 135.35773 110.49671 134.08847 110.61594 132.8036 110.71178 131.51874 110.807628 130.22443 110.87962 128.9207 110.92777 127.61695 110.97592 126.31005 111 125 111 123.68996 111 122.383068 110.97592 121.079319 110.92777 119.77557 110.87962 118.48126 110.80762 117.19638 110.71177 115.91151 110.61593 114.64224 110.496707 113.3886 110.3541 112.134967 110.21149 110.902988 110.04618 109.69265 109.858188 108.48233 109.67019 107.299488 109.460399 106.14413 109.22882 104.98877 108.99724 103.866458 108.74498 102.77718 108.47204 101.68792 108.19911 100.63695 107.906818 99.624279 107.59515 98.61159 107.2835 97.642078 106.95398 96.71573 106.6066 95.78938 106.259227 94.91067 105.89566 94.07959 105.51591 93.2485 105.13615 92.46903 104.74203 91.7412 104.33354 91.01338 103.92507 90.3407 103.50421 89.72315 103.070949 89.1056 102.63769 88.54615 102.19412 88.044818 101.74024 87.54348 101.28638 87.10268 100.82438 86.72239 100.35426 86.3421 99.88415 86.02416 99.40818 85.768589 98.926349 85.51301 98.44452 85.32102 97.95916 85.19261 97.47026 85.0642 96.98136 85 96.49127 85 96 85 95.508739 85.0642 95.01865 85.19261 94.52975 85.32102 94.04084 85.51301 93.55547 85.768589 93.07364 86.02416 92.59181 86.342098 92.115848 86.72238 91.64573 87.10267 91.17561 87.54348 90.71362 88.044818 90.25974 88.54615 89.80588 89.1056 89.36231 89.72315 88.92905 90.3407 88.49578 91.01339 88.07491 91.74121 87.66644 92.46903 87.25797 93.24849 86.86385 94.07958 86.4841 94.91067 86.10435 95.78938 85.740779 96.71573 85.393398 97.642078 85.04601 98.61159 84.71649 99.624279 84.40484 100.63695 84.09318 101.68792 83.80088 102.77718 83.52795 103.866458 83.25502 104.98877 83.00276 106.14413 82.77117 107.299488 82.5396 108.48233 82.3298 109.69265 82.1418 110.902988 81.953807 112.134967 81.7885 113.3886 81.6459 114.64224 81.50328 115.91151 81.384059 117.19638 81.288219 118.48126 81.19238 119.77557 81.120388 121.079319 81.072238 122.383068 81.02408 123.68996 81 125 81 126.31005 81 127.61695 81.02408 128.9207 81.072238 130.22443 81.120388 131.51874 81.19238 132.8036 81.288219 134.08847 81.384059 135.35773 81.50328 136.61138 81.64589 137.86502 81.7885 139.097 81.953807 140.30731 82.1418 141.51766 82.3298 142.7005 82.5396 143.85585 82.77118 145.01122 83.00276 146.13353 83.25502 147.22278 83.52795 148.31206 83.80088 149.36304 84.09318 150.37574 84.40484 151.38842 84.71649 152.35793 85.04601 153.28426 85.393398 154.2106 85.740779 155.08931 86.10435 155.9204 86.4841 156.7515 86.86385 157.53095 87.257968 158.25876 87.666439 158.98659 88.07491 159.65927 88.49578 160.27683 88.92904 160.89438 89.362308 161.45383 89.80588 161.95516 90.25974 162.45652 90.71362 162.89733 91.17561 163.2776 91.64573 163.6579 92.115848 163.97582 92.59181 164.23139 93.07364 164.48697 93.55547 164.67897 94.04084 164.80739 94.52975 164.93579 95.01865 165 95.508739 165 96Z" fill="#ffffff"/>
<path transform="matrix(.71870169,0,0,.71870169,.35935084,.35935084)" stroke-width="1" stroke-linecap="butt" stroke-miterlimit="4" stroke-linejoin="miter" fill="none" stroke="#000000" d="M165 96C165 96.49127 164.93579 96.98136 164.80739 97.47026 164.67897 97.95916 164.48697 98.44452 164.23139 98.926349 163.97582 99.40818 163.6579 99.88415 163.2776 100.35426 162.89733 100.82438 162.45652 101.28638 161.95516 101.74024 161.45383 102.19412 160.89438 102.63769 160.27683 103.070949 159.65927 103.50421 158.98659 103.92507 158.25876 104.33354 157.53095 104.74203 156.7515 105.13615 155.92041 105.5159 155.08931 105.89565 154.2106 106.259227 153.28426 106.6066 152.35793 106.95398 151.38842 107.2835 150.37574 107.59516 149.36304 107.906818 148.31206 108.19911 147.22278 108.47204 146.13353 108.74498 145.01122 108.99724 143.85585 109.22882 142.7005 109.460399 141.51766 109.67019 140.30731 109.858188 139.097 110.04618 137.86502 110.211498 136.61138 110.35411 135.35773 110.49671 134.08847 110.61594 132.8036 110.71178 131.51874 110.807628 130.22443 110.87962 128.9207 110.92777 127.61695 110.97592 126.31005 111 125 111 123.68996 111 122.383068 110.97592 121.079319 110.92777 119.77557 110.87962 118.48126 110.80762 117.19638 110.71177 115.91151 110.61593 114.64224 110.496707 113.3886 110.3541 112.134967 110.21149 110.902988 110.04618 109.69265 109.858188 108.48233 109.67019 107.299488 109.460399 106.14413 109.22882 104.98877 108.99724 103.866458 108.74498 102.77718 108.47204 101.68792 108.19911 100.63695 107.906818 99.624279 107.59515 98.61159 107.2835 97.642078 106.95398 96.71573 106.6066 95.78938 106.259227 94.91067 105.89566 94.07959 105.51591 93.2485 105.13615 92.46903 104.74203 91.7412 104.33354 91.01338 103.92507 90.3407 103.50421 89.72315 103.070949 89.1056 102.63769 88.54615 102.19412 88.044818 101.74024 87.54348 101.28638 87.10268 100.82438 86.72239 100.35426 86.3421 99.88415 86.02416 99.40818 85.768589 98.926349 85.51301 98.44452 85.32102 97.95916 85.19261 97.47026 85.0642 96.98136 85 96.49127 85 96 85 95.508739 85.0642 95.01865 85.19261 94.52975 85.32102 94.04084 85.51301 93.55547 85.768589 93.07364 86.02416 92.59181 86.342098 92.115848 86.72238 91.64573 87.10267 91.17561 87.54348 90.71362 88.044818 90.25974 88.54615 89.80588 89.1056 89.36231 89.72315 88.92905 90.3407 88.49578 91.01339 88.07491 91.74121 87.66644 92.46903 87.25797 93.24849 86.86385 94.07958 86.4841 94.91067 86.10435 95.78938 85.740779 96.71573 85.393398 97.642078 85.04601 98.61159 84.71649 99.624279 84.40484 100.63695 84.09318 101.68792 83.80088 102.77718 83.52795 103.866458 83.25502 104.98877 83.00276 106.14413 82.77117 107.299488 82.5396 108.48233 82.3298 109.69265 82.1418 110.902988 81.953807 112.134967 81.7885 113.3886 81.6459 114.64224 81.50328 115.91151 81.384059 117.19638 81.288219 118.48126 81.19238 119.77557 81.120388 121.079319 81.072238 122.383068 81.02408 123.68996 81 125 81 126.31005 81 127.61695 81.02408 128.9207 81.072238 130.22443 81.120388 131.51874 81.19238 132.8036 81.288219 134.08847 81.384059 135.35773 81.50328 136.61138 81.64589 137.86502 81.7885 139.097 81.953807 140.30731 82.1418 141.51766 82.3298 142.7005 82.5396 143.85585 82.77118 145.01122 83.00276 146.13353 83.25502 147.22278 83.52795 148.31206 83.80088 149.36304 84.09318 150.37574 84.40484 151.38842 84.71649 152.35793 85.04601 153.28426 85.393398 154.2106 85.740779 155.08931 86.10435 155.9204 86.4841 156.7515 86.86385 157.53095 87.257968 158.25876 87.666439 158.98659 88.07491 159.65927 88.49578 160.27683 88.92904 160.89438 89.362308 161.45383 89.80588 161.95516 90.25974 162.45652 90.71362 162.89733 91.17561 163.2776 91.64573 163.6579 92.115848 163.97582 92.59181 164.23139 93.07364 164.48697 93.55547 164.67897 94.04084 164.80739 94.52975 164.93579 95.01865 165 95.508739 165 96Z"/>
<use data-text="1" xlink:href="#font_3_20" transform="matrix(12.93663,0,0,-12.93663,80.48335,73.30757)"/>
<use data-text=":" xlink:href="#font_3_29" transform="matrix(12.93663,0,0,-12.93663,87.676128,73.30757)"/>
<use data-text="2" xlink:href="#font_3_21" transform="matrix(12.93663,0,0,-12.93663,91.984027,73.30757)"/>
<path transform="matrix(.71870169,0,0,.71870169,.35935084,.35935084)" stroke-width="1" stroke-linecap="butt" stroke-miterlimit="10" stroke-linejoin="miter" fill="none" stroke="#0000ff" d="M268.23 27.78 155.5 81.48"/>
<path transform="matrix(.71870169,0,0,.71870169,.35935084,.35935084)" d="M150.76 83.73 155.57 77.56 155.5 81.48 158.58 83.88 150.76 83.73Z" fill="#0000ff"/>
<path transform="matrix(.71870169,0,0,.71870169,.35935084,.35935084)" stroke-width="1" stroke-linecap="butt" stroke-miterlimit="10" stroke-linejoin="miter" fill="none" stroke="#0000ff" d="M150.76 83.73 155.57 77.56 155.5 81.48 158.58 83.88 150.76 83.73Z"/>
<path transform="matrix(.71870169,0,0,.71870169,.35935084,.35935084)" d="M501 96C501.00004 96.49127 500.93583 96.98136 500.8074 97.47026 500.679 97.95916 500.48698 98.44452 500.23139 98.926349 499.9758 99.40818 499.65788 99.88415 499.2776 100.35426 498.8973 100.82438 498.45649 101.28638 497.9551 101.74024 497.4538 102.19412 496.89436 102.63769 496.2768 103.070949 495.65925 103.50421 494.98655 103.92507 494.2587 104.33354 493.5309 104.74203 492.7515 105.13615 491.9204 105.5159 491.08934 105.89565 490.2106 106.259227 489.28425 106.6066 488.3579 106.95398 487.3884 107.2835 486.37574 107.59516 485.36305 107.906818 484.31205 108.19911 483.22276 108.47204 482.1335 108.74498 481.0112 108.99724 479.85585 109.22882 478.70048 109.460399 477.51765 109.67019 476.30729 109.858188 475.09696 110.04618 473.865 110.211498 472.61137 110.35411 471.35774 110.49671 470.08848 110.61594 468.8036 110.71178 467.5187 110.807628 466.22444 110.87962 464.9207 110.92777 463.61695 110.97592 462.31007 111 461 111 459.68998 111 458.3831 110.97592 457.07936 110.92777 455.77558 110.87962 454.48124 110.80762 453.19636 110.71177 451.91148 110.61593 450.6422 110.496707 449.38859 110.3541 448.13496 110.21149 446.90296 110.04618 445.6926 109.858188 444.4823 109.67019 443.29945 109.460399 442.14408 109.22882 440.9887 108.99724 439.8664 108.74498 438.77714 108.47204 437.6879 108.19911 436.63694 107.906818 435.62425 107.59515 434.61158 107.2835 433.64207 106.95398 432.7157 106.6066 431.7894 106.259227 430.91069 105.89566 430.07957 105.51591 429.24848 105.13615 428.46903 104.74203 427.74119 104.33354 427.01338 103.92507 426.3407 103.50421 425.72315 103.070949 425.10563 102.63769 424.54618 102.19412 424.0448 101.74024 423.54347 101.28638 423.10267 100.82438 422.72239 100.35426 422.34208 99.88415 422.02415 99.40818 421.76856 98.926349 421.51298 98.44452 421.32099 97.95916 421.1926 97.47026 421.0642 96.98136 421 96.49127 421 96 421 95.508739 421.0642 95.01865 421.1926 94.52975 421.32099 94.04084 421.51295 93.55547 421.76853 93.07364 422.0241 92.59181 422.34208 92.115848 422.72236 91.64573 423.10264 91.17561 423.54347 90.71362 424.04478 90.25974 424.54615 89.80588 425.1056 89.36231 425.72315 88.92905 426.3407 88.49578 427.01338 88.07491 427.74119 87.66644 428.46903 87.25797 429.24848 86.86385 430.07957 86.4841 430.91069 86.10435 431.7894 85.740779 432.7157 85.393398 433.64207 85.04601 434.61158 84.71649 435.62425 84.40484 436.63694 84.09318 437.6879 83.80088 438.77714 83.52795 439.8664 83.25502 440.98875 83.00276 442.1441 82.77117 443.29948 82.5396 444.4823 82.3298 445.69264 82.1418 446.90296 81.953807 448.13496 81.7885 449.38859 81.6459 450.64225 81.50328 451.9115 81.384059 453.19636 81.288219 454.48124 81.19238 455.77558 81.120388 457.07936 81.072238 458.3831 81.02408 459.68998 81 461 81 462.31007 81 463.61695 81.02408 464.9207 81.072238 466.22444 81.120388 467.5187 81.19238 468.80357 81.288219 470.08848 81.384059 471.35774 81.50328 472.61137 81.64589 473.865 81.7885 475.09696 81.953807 476.30729 82.1418 477.51765 82.3298 478.70048 82.5396 479.85585 82.77118 481.0112 83.00276 482.1335 83.25502 483.22276 83.52795 484.31205 83.80088 485.36305 84.09318 486.3757 84.40484 487.3884 84.71649 488.3579 85.04601 489.28425 85.393398 490.2106 85.740779 491.0893 86.10435 491.92039 86.4841 492.75148 86.86385 493.5309 87.257968 494.2587 87.666439 494.98655 88.07491 495.65925 88.49578 496.2768 88.92904 496.89436 89.362308 497.4538 89.80588 497.9551 90.25974 498.45649 90.71362 498.8973 91.17561 499.27763 91.64573 499.6579 92.115848 499.9758 92.59181 500.23139 93.07364 500.48698 93.55547 500.679 94.04084 500.8074 94.52975 500.93583 95.01865 501.00004 95.508739 501 96Z" fill="#ffffff"/>
<path transform="matrix(.71870169,0,0,.71870169,.35935084,.35935084)" stroke-width="1" stroke-linecap="butt" stroke-miterlimit="4" stroke-linejoin="miter" fill="none" stroke="#000000" d="M501 96C501.00004 96.49127 500.93583 96.98136 500.8074 97.47026 500.679 97.95916 500.48698 98.44452 500.23139 98.926349 499.9758 99.40818 499.65788 99.88415 499.2776 100.35426 498.8973 100.82438 498.45649 101.28638 497.9551 101.74024 497.4538 102.19412 496.89436 102.63769 496.2768 103.070949 495.65925 103.50421 494.98655 103.92507 494.2587 104.33354 493.5309 104.74203 492.7515 105.13615 491.9204 105.5159 491.08934 105.89565 490.2106 106.259227 489.28425 106.6066 488.3579 106.95398 487.3884 107.2835 486.37574 107.59516 485.36305 107.906818 484.31205 108.19911 483.22276 108.47204 482.1335 108.74498 481.0112 108.99724 479.85585 109.22882 478.70048 109.460399 477.51765 109.67019 476.30729 109.858188 475.09696 110.04618 473.865 110.211498 472.61137 110.35411 471.35774 110.49671 470.08848 110.61594 468.8036 110.71178 467.5187 110.807628 466.22444 110.87962 464.9207 110.92777 463.61695 110.97592 462.31007 111 461 111 459.68998 111 458.3831 110.97592 457.07936 110.92777 455.77558 110.87962 454.48124 110.80762 453.19636 110.71177 451.91148 110.61593 450.6422 110.496707 449.38859 110.3541 448.13496 110.21149 446.90296 110.04618 445.6926 109.858188 444.4823 109.67019 443.29945 109.460399 442.14408 109.22882 440.9887 108.99724 439.8664 108.74498 438.77714 108.47204 437.6879 108.19911 436.63694 107.906818 435.62425 107.59515 434.61158 107.2835 433.64207 106.95398 432.7157 106.6066 431.7894 106.259227 430.91069 105.89566 430.07957 105.51591 429.24848 105.13615 428.46903 104.74203 427.74119 104.33354 427.01338 103.92507 426.3407 103.50421 425.72315 103.070949 425.10563 102.63769 424.54618 102.19412 424.0448 101.74024 423.54347 101.28638 423.10267 100.82438 422.72239 100.35426 422.34208 99.88415 422.02415 99.40818 421.76856 98.926349 421.51298 98.44452 421.32099 97.95916 421.1926 97.47026 421.0642 96.98136 421 96.49127 421 96 421 95.508739 421.0642 95.01865 421.1926 94.52975 421.32099 94.04084 421.51295 93.55547 421.76853 93.07364 422.0241 92.59181 422.34208 92.115848 422.72236 91.64573 423.10264 91.17561 423.54347 90.71362 424.04478 90.25974 424.54615 89.80588 425.1056 89.36231 425.72315 88.92905 426.3407 88.49578 427.01338 88.07491 427.74119 87.66644 428.46903 87.25797 429.24848 86.86385 430.07957 86.4841 430.91069 86.10435 431.7894 85.740779 432.7157 85.393398 433.64207 85.04601 434.61158 84.71649 435.62425 84.40484 436.63694 84.09318 437.6879 83.80088 438.77714 83.52795 439.8664 83.25502 440.98875 83.00276 442.1441 82.77117 443.29948 82.5396 444.4823 82.3298 445.69264 82.1418 446.90296 81.953807 448.13496 81.7885 449.38859 81.6459 450.64225 81.50328 451.9115 81.384059 453.19636 81.288219 454.48124 81.19238 455.77558 81.120388 457.07936 81.072238 458.3831 81.02408 459.68998 81 461 81 462.31007 81 463.61695 81.02408 464.9207 81.072238 466.22444 81.120388 467.5187 81.19238 468.80357 81.288219 470.08848 81.384059 471.35774 81.50328 472.61137 81.64589 473.865 81.7885 475.09696 81.953807 476.30729 82.1418 477.51765 82.3298 478.70048 82.5396 479.85585 82.77118 481.0112 83.00276 482.1335 83.25502 483.22276 83.52795 484.31205 83.80088 485.36305 84.09318 486.3757 84.40484 487.3884 84.71649 488.3579 85.04601 489.28425 85.393398 490.2106 85.740779 491.0893 86.10435 491.92039 86.4841 492.75148 86.86385 493.5309 87.257968 494.2587 87.666439 494.98655 88.07491 495.65925 88.49578 496.2768 88.92904 496.89436 89.362308 497.4538 89.80588 497.9551 90.25974 498.45649 90.71362 498.8973 91.17561 499.27763 91.64573 499.6579 92.115848 499.9758 92.59181 500.23139 93.07364 500.48698 93.55547 500.679 94.04084 500.8074 94.52975 500.93583 95.01865 501.00004 95.508739 501 96Z"/>
<use data-text="0" xlink:href="#font_3_19" transform="matrix(12.93663,0,0,-12.93663,321.9671,73.30757)"/>
<use data-text=":" xlink:href="#font_3_29" transform="matrix(12.93663,0,0,-12.93663,329.15989,73.30757)"/>
<use data-text="2" xlink:href="#font_3_21" transform="matrix(12.93663,0,0,-12.93663,333.46778,73.30757)"/>
<path transform="matrix(.71870169,0,0,.71870169,.35935084,.35935084)" stroke-width="1" stroke-linecap="butt" stroke-miterlimit="10" stroke-linejoin="miter" fill="none" stroke="#0000ff" d="M317.77 27.78 430.5 81.48"/>
<path transform="matrix(.71870169,0,0,.71870169,.35935084,.35935084)" d="M435.24 83.73 427.42 83.88 430.5 81.48 430.43 77.56 435.24 83.73Z" fill="#0000ff"/>
<path transform="matrix(.71870169,0,0,.71870169,.35935084,.35935084)" stroke-width="1" stroke-linecap="butt" stroke-miterlimit="10" stroke-linejoin="miter" fill="none" stroke="#0000ff" d="M435.24 83.73 427.42 83.88 430.5 81.48 430.43 77.56 435.24 83.73Z"/>
<path transform="matrix(.71870169,0,0,.71870169,.35935084,.35935084)" d="M5.5 161H76.5C77.09673 161 77.67076 161.11418 78.22207 161.34253 78.773387 161.57089 79.26002 161.89606 79.68198 162.31801 80.10393 162.73996 80.429088 163.2266 80.65745 163.77791 80.8858 164.32923 80.99999 164.90326 81 165.5V186.5C80.99999 187.09671 80.8858 187.67072 80.65745 188.22203 80.429088 188.77335 80.10393 189.26 79.68198 189.68196 79.26002 190.10391 78.773387 190.42906 78.22207 190.65743 77.67076 190.88579 77.09673 190.99999 76.5 191H5.5C4.9032628 190.99999 4.329237 190.88579 3.777924 190.65743 3.226611 190.42906 2.7399762 190.10391 2.3180195 189.68196 1.8960625 189.26 1.5709034 188.77336 1.3425419 188.22205 1.1141806 187.67073 .99999997 187.09671 1 186.5V165.5C.99999997 164.90326 1.1141806 164.32923 1.3425419 163.77791 1.5709034 163.2266 1.8960625 162.73996 2.3180195 162.31801 2.7399762 161.89606 3.226611 161.57089 3.777924 161.34253 4.329237 161.11418 4.9032628 161 5.5 161Z" fill="#fff2cc"/>
<path transform="matrix(.71870169,0,0,.71870169,.35935084,.35935084)" stroke-width="1" stroke-linecap="butt" stroke-miterlimit="4" stroke-linejoin="miter" fill="none" stroke="#d6b656" d="M5.5 161H76.5C77.09673 161 77.67076 161.11418 78.22207 161.34253 78.773387 161.57089 79.26002 161.89606 79.68198 162.31801 80.10393 162.73996 80.429088 163.2266 80.65745 163.77791 80.8858 164.32923 80.99999 164.90326 81 165.5V186.5C80.99999 187.09671 80.8858 187.67072 80.65745 188.22203 80.429088 188.77335 80.10393 189.26 79.68198 189.68196 79.26002 190.10391 78.773387 190.42906 78.22207 190.65743 77.67076 190.88579 77.09673 190.99999 76.5 191H5.5C4.9032628 190.99999 4.329237 190.88579 3.777924 190.65743 3.226611 190.42906 2.7399762 190.10391 2.3180195 189.68196 1.8960625 189.26 1.5709034 188.77336 1.3425419 188.22205 1.1141806 187.67073 .99999997 187.09671 1 186.5V165.5C.99999997 164.90326 1.1141806 164.32923 1.3425419 163.77791 1.5709034 163.2266 1.8960625 162.73996 2.3180195 162.31801 2.7399762 161.89606 3.226611 161.57089 3.777924 161.34253 4.329237 161.11418 4.9032628 161 5.5 161Z"/>
<use data-text="0" xlink:href="#font_3_19" transform="matrix(12.93663,0,0,-12.93663,15.080452,132.2411)"/>
<use data-text=" " xlink:href="#font_3_3" transform="matrix(12.93663,0,0,-12.93663,22.27322,132.2411)"/>
<use data-text="1" xlink:href="#font_3_20" transform="matrix(12.93663,0,0,-12.93663,25.869603,132.2411)"/>
<use data-text=" " xlink:href="#font_3_3" transform="matrix(12.93663,0,0,-12.93663,33.06237,132.2411)"/>
<use data-text="2" xlink:href="#font_3_21" transform="matrix(12.93663,0,0,-12.93663,36.658758,132.2411)"/>
<path transform="matrix(.71870169,0,0,.71870169,.35935084,.35935084)" stroke-width="1" stroke-linecap="butt" stroke-miterlimit="10" stroke-linejoin="miter" fill="none" stroke="#0000ff" d="M110.39 109.96 61.36 156.61"/>
<path transform="matrix(.71870169,0,0,.71870169,.35935084,.35935084)" d="M57.56 160.23 60.22 152.87 61.36 156.61 65.04 157.94 57.56 160.23Z" fill="#0000ff"/>
<path transform="matrix(.71870169,0,0,.71870169,.35935084,.35935084)" stroke-width="1" stroke-linecap="butt" stroke-miterlimit="10" stroke-linejoin="miter" fill="none" stroke="#0000ff" d="M57.56 160.23 60.22 152.87 61.36 156.61 65.04 157.94 57.56 160.23Z"/>
<path transform="matrix(.71870169,0,0,.71870169,.35935084,.35935084)" d="M249 176C249 176.49127 248.93579 176.98136 248.80739 177.47025 248.67897 177.95915 248.48697 178.44452 248.23139 178.92635 247.97582 179.40818 247.65789 179.88414 247.27759 180.35425 246.8973 180.82436 246.45648 181.28635 245.95514 181.7402 245.45383 182.19408 244.8944 182.63765 244.27684 183.07093 243.65929 183.50418 242.98659 183.92505 242.25876 184.33351 241.53095 184.742 240.7515 185.13613 239.92041 185.51589 239.08933 185.89565 238.2106 186.25922 237.28426 186.60659 236.35791 186.95397 235.3884 187.28348 234.3757 187.59514 233.36302 187.9068 232.31206 188.1991 231.22278 188.47202 230.13353 188.74495 229.01122 188.99723 227.85587 189.2288 226.7005 189.46038 225.51766 189.67015 224.30731 189.85816 223.097 190.04616 221.865 190.21147 220.61136 190.35408 219.35774 190.49669 218.08849 190.6159 216.80359 190.71175 215.51873 190.80759 214.22443 190.8796 212.92069 190.92777 211.61695 190.97592 210.31005 191 209 191 207.68994 191 206.38304 190.97592 205.0793 190.92777 203.77556 190.8796 202.48125 190.80759 201.19637 190.71175 199.9115 190.6159 198.64225 190.49669 197.3886 190.35408 196.13495 190.21147 194.90297 190.04616 193.69263 189.85816 192.4823 189.67015 191.29946 189.46038 190.1441 189.22879 188.98876 188.99721 187.86644 188.74494 186.77716 188.472 185.68791 188.19908 184.63694 187.9068 183.62424 187.59514 182.61157 187.28348 181.64206 186.95397 180.71572 186.60659 179.78937 186.25922 178.91066 185.89565 178.07958 185.51589 177.24849 185.13613 176.46903 184.742 175.7412 184.33353 175.01338 183.92505 174.3407 183.50418 173.72315 183.07094 173.10559 182.63767 172.54615 182.19409 172.0448 181.74022 171.54347 181.28635 171.10266 180.82436 170.72237 180.35425 170.34209 179.88414 170.02416 179.40816 169.76857 178.92633 169.513 178.4445 169.32102 177.95915 169.19261 177.47026 169.06421 176.98136 169.00002 176.49127 169 176 169.00002 175.50875 169.06421 175.01865 169.19261 174.52974 169.32102 174.04084 169.513 173.55547 169.76857 173.07364 170.02416 172.59181 170.34209 172.11585 170.72237 171.64572 171.10266 171.17562 171.54347 170.71363 172.0448 170.25974 172.54615 169.80587 173.10559 169.3623 173.72315 168.92903 174.3407 168.49579 175.01338 168.07492 175.7412 167.66643 176.46903 167.25797 177.24849 166.86386 178.07956 166.4841 178.91066 166.10434 179.78937 165.74077 180.71572 165.39339 181.64206 165.04602 182.61157 164.7165 183.62425 164.40485 184.63694 164.09319 185.68791 163.80088 186.77716 163.52794 187.86644 163.25502 188.98876 163.00276 190.1441 162.77118 191.29946 162.5396 192.4823 162.3298 193.69263 162.1418 194.90297 161.9538 196.13495 161.7885 197.3886 161.64589 198.64225 161.5033 199.9115 161.38407 201.19637 161.28821 202.48125 161.19237 203.77556 161.12038 205.07932 161.07224 206.38304 161.02408 207.68994 161 209 161 210.31005 161 211.61695 161.02408 212.92069 161.07224 214.22443 161.12038 215.51873 161.19237 216.80359 161.28821 218.08849 161.38407 219.35774 161.5033 220.61139 161.64589 221.865 161.7885 223.09699 161.9538 224.3073 162.1418 225.51764 162.3298 226.70049 162.53961 227.85587 162.7712 229.01122 163.00278 230.13353 163.25502 231.22278 163.52794 232.31206 163.80088 233.36302 164.09319 234.3757 164.40485 235.3884 164.7165 236.35791 165.04602 237.28426 165.39339 238.2106 165.74077 239.08933 166.10434 239.9204 166.4841 240.7515 166.86386 241.53095 167.25797 242.25876 167.66643 242.98659 168.07492 243.65929 168.49579 244.27684 168.92903 244.8944 169.3623 245.45383 169.80587 245.95514 170.25974 246.45648 170.71363 246.8973 171.17562 247.27759 171.64572 247.65789 172.11585 247.97582 172.59181 248.23139 173.07364 248.48697 173.55547 248.67897 174.04084 248.8074 174.52974 248.9358 175.01865 249 175.50875 249 176Z" fill="#ffffff"/>
<path transform="matrix(.71870169,0,0,.71870169,.35935084,.35935084)" stroke-width="1" stroke-linecap="butt" stroke-miterlimit="4" stroke-linejoin="miter" fill="none" stroke="#000000" d="M249 176C249 176.49127 248.93579 176.98136 248.80739 177.47025 248.67897 177.95915 248.48697 178.44452 248.23139 178.92635 247.97582 179.40818 247.65789 179.88414 247.27759 180.35425 246.8973 180.82436 246.45648 181.28635 245.95514 181.7402 245.45383 182.19408 244.8944 182.63765 244.27684 183.07093 243.65929 183.50418 242.98659 183.92505 242.25876 184.33351 241.53095 184.742 240.7515 185.13613 239.92041 185.51589 239.08933 185.89565 238.2106 186.25922 237.28426 186.60659 236.35791 186.95397 235.3884 187.28348 234.3757 187.59514 233.36302 187.9068 232.31206 188.1991 231.22278 188.47202 230.13353 188.74495 229.01122 188.99723 227.85587 189.2288 226.7005 189.46038 225.51766 189.67015 224.30731 189.85816 223.097 190.04616 221.865 190.21147 220.61136 190.35408 219.35774 190.49669 218.08849 190.6159 216.80359 190.71175 215.51873 190.80759 214.22443 190.8796 212.92069 190.92777 211.61695 190.97592 210.31005 191 209 191 207.68994 191 206.38304 190.97592 205.0793 190.92777 203.77556 190.8796 202.48125 190.80759 201.19637 190.71175 199.9115 190.6159 198.64225 190.49669 197.3886 190.35408 196.13495 190.21147 194.90297 190.04616 193.69263 189.85816 192.4823 189.67015 191.29946 189.46038 190.1441 189.22879 188.98876 188.99721 187.86644 188.74494 186.77716 188.472 185.68791 188.19908 184.63694 187.9068 183.62424 187.59514 182.61157 187.28348 181.64206 186.95397 180.71572 186.60659 179.78937 186.25922 178.91066 185.89565 178.07958 185.51589 177.24849 185.13613 176.46903 184.742 175.7412 184.33353 175.01338 183.92505 174.3407 183.50418 173.72315 183.07094 173.10559 182.63767 172.54615 182.19409 172.0448 181.74022 171.54347 181.28635 171.10266 180.82436 170.72237 180.35425 170.34209 179.88414 170.02416 179.40816 169.76857 178.92633 169.513 178.4445 169.32102 177.95915 169.19261 177.47026 169.06421 176.98136 169.00002 176.49127 169 176 169.00002 175.50875 169.06421 175.01865 169.19261 174.52974 169.32102 174.04084 169.513 173.55547 169.76857 173.07364 170.02416 172.59181 170.34209 172.11585 170.72237 171.64572 171.10266 171.17562 171.54347 170.71363 172.0448 170.25974 172.54615 169.80587 173.10559 169.3623 173.72315 168.92903 174.3407 168.49579 175.01338 168.07492 175.7412 167.66643 176.46903 167.25797 177.24849 166.86386 178.07956 166.4841 178.91066 166.10434 179.78937 165.74077 180.71572 165.39339 181.64206 165.04602 182.61157 164.7165 183.62425 164.40485 184.63694 164.09319 185.68791 163.80088 186.77716 163.52794 187.86644 163.25502 188.98876 163.00276 190.1441 162.77118 191.29946 162.5396 192.4823 162.3298 193.69263 162.1418 194.90297 161.9538 196.13495 161.7885 197.3886 161.64589 198.64225 161.5033 199.9115 161.38407 201.19637 161.28821 202.48125 161.19237 203.77556 161.12038 205.07932 161.07224 206.38304 161.02408 207.68994 161 209 161 210.31005 161 211.61695 161.02408 212.92069 161.07224 214.22443 161.12038 215.51873 161.19237 216.80359 161.28821 218.08849 161.38407 219.35774 161.5033 220.61139 161.64589 221.865 161.7885 223.09699 161.9538 224.3073 162.1418 225.51764 162.3298 226.70049 162.53961 227.85587 162.7712 229.01122 163.00278 230.13353 163.25502 231.22278 163.52794 232.31206 163.80088 233.36302 164.09319 234.3757 164.40485 235.3884 164.7165 236.35791 165.04602 237.28426 165.39339 238.2106 165.74077 239.08933 166.10434 239.9204 166.4841 240.7515 166.86386 241.53095 167.25797 242.25876 167.66643 242.98659 168.07492 243.65929 168.49579 244.27684 168.92903 244.8944 169.3623 245.45383 169.80587 245.95514 170.25974 246.45648 170.71363 246.8973 171.17562 247.27759 171.64572 247.65789 172.11585 247.97582 172.59181 248.23139 173.07364 248.48697 173.55547 248.67897 174.04084 248.8074 174.52974 248.9358 175.01865 249 175.50875 249 176Z"/>
<use data-text="0" xlink:href="#font_3_19" transform="matrix(12.93663,0,0,-12.93663,140.8543,130.8037)"/>
<use data-text=":" xlink:href="#font_3_29" transform="matrix(12.93663,0,0,-12.93663,148.04706,130.8037)"/>
<use data-text="2" xlink:href="#font_3_21" transform="matrix(12.93663,0,0,-12.93663,152.35497,130.8037)"/>
<path transform="matrix(.71870169,0,0,.71870169,.35935084,.35935084)" stroke-width="1" stroke-linecap="butt" stroke-miterlimit="10" stroke-linejoin="miter" fill="none" stroke="#0000ff" d="M139.6 109.97 189.73 157.65"/>
<path transform="matrix(.71870169,0,0,.71870169,.35935084,.35935084)" d="M193.54 161.27 186.05 158.98 189.73 157.65 190.88 153.91 193.54 161.27Z" fill="#0000ff"/>
<path transform="matrix(.71870169,0,0,.71870169,.35935084,.35935084)" stroke-width="1" stroke-linecap="butt" stroke-miterlimit="10" stroke-linejoin="miter" fill="none" stroke="#0000ff" d="M193.54 161.27 186.05 158.98 189.73 157.65 190.88 153.91 193.54 161.27Z"/>
<path transform="matrix(.71870169,0,0,.71870169,.35935084,.35935084)" d="M113.5 241H184.5C185.09673 241 185.67076 241.11417 186.22208 241.34252 186.77336 241.57086 187.26 241.89603 187.68198 242.318 188.10393 242.73995 188.4291 243.22658 188.65744 243.7779 188.8858 244.32921 188.99999 244.90325 189 245.5V266.5C188.99999 267.0967 188.8858 267.67073 188.65744 268.22203 188.4291 268.77336 188.10393 269.25999 187.68198 269.68196 187.26 270.1039 186.77336 270.42906 186.22206 270.6574 185.67075 270.88578 185.09673 270.99998 184.5 271H113.5C112.90325 270.99998 112.32922 270.88578 111.777919 270.6574 111.2266 270.42906 110.73997 270.1039 110.318019 269.68196 109.89606 269.25999 109.57089 268.77336 109.34253 268.22203 109.114177 267.67073 109 267.0967 109 266.5V245.5C109 244.90325 109.11418 244.32921 109.34254 243.7779 109.57089 243.22658 109.89606 242.73995 110.318019 242.318 110.73997 241.89603 111.2266 241.57086 111.777919 241.34252 112.32922 241.11417 112.90325 241 113.5 241Z" fill="#fff2cc"/>
<path transform="matrix(.71870169,0,0,.71870169,.35935084,.35935084)" stroke-width="1" stroke-linecap="butt" stroke-miterlimit="4" stroke-linejoin="miter" fill="none" stroke="#d6b656" d="M113.5 241H184.5C185.09673 241 185.67076 241.11417 186.22208 241.34252 186.77336 241.57086 187.26 241.89603 187.68198 242.318 188.10393 242.73995 188.4291 243.22658 188.65744 243.7779 188.8858 244.32921 188.99999 244.90325 189 245.5V266.5C188.99999 267.0967 188.8858 267.67073 188.65744 268.22203 188.4291 268.77336 188.10393 269.25999 187.68198 269.68196 187.26 270.1039 186.77336 270.42906 186.22206 270.6574 185.67075 270.88578 185.09673 270.99998 184.5 271H113.5C112.90325 270.99998 112.32922 270.88578 111.777919 270.6574 111.2266 270.42906 110.73997 270.1039 110.318019 269.68196 109.89606 269.25999 109.57089 268.77336 109.34253 268.22203 109.114177 267.67073 109 267.0967 109 266.5V245.5C109 244.90325 109.11418 244.32921 109.34254 243.7779 109.57089 243.22658 109.89606 242.73995 110.318019 242.318 110.73997 241.89603 111.2266 241.57086 111.777919 241.34252 112.32922 241.11417 112.90325 241 113.5 241Z"/>
<use data-text="0" xlink:href="#font_3_19" transform="matrix(12.93663,0,0,-12.93663,92.70023,189.73725)"/>
<use data-text=" " xlink:href="#font_3_3" transform="matrix(12.93663,0,0,-12.93663,99.893,189.73725)"/>
<use data-text="2" xlink:href="#font_3_21" transform="matrix(12.93663,0,0,-12.93663,103.48938,189.73725)"/>
<use data-text=" " xlink:href="#font_3_3" transform="matrix(12.93663,0,0,-12.93663,110.68214,189.73725)"/>
<use data-text="1" xlink:href="#font_3_20" transform="matrix(12.93663,0,0,-12.93663,114.27852,189.73725)"/>
<path transform="matrix(.71870169,0,0,.71870169,.35935084,.35935084)" stroke-width="1" stroke-linecap="butt" stroke-miterlimit="10" stroke-linejoin="miter" fill="none" stroke="#0000ff" d="M198.32 190.46 164.08 235.91"/>
<path transform="matrix(.71870169,0,0,.71870169,.35935084,.35935084)" d="M160.92 240.11 162.34 232.41 164.08 235.91 167.93 236.62 160.92 240.11Z" fill="#0000ff"/>
<path transform="matrix(.71870169,0,0,.71870169,.35935084,.35935084)" stroke-width="1" stroke-linecap="butt" stroke-miterlimit="10" stroke-linejoin="miter" fill="none" stroke="#0000ff" d="M160.92 240.11 162.34 232.41 164.08 235.91 167.93 236.62 160.92 240.11Z"/>
<path transform="matrix(.71870169,0,0,.71870169,.35935084,.35935084)" d="M233.5 241H304.5C305.0967 241 305.67073 241.11417 306.22203 241.34252 306.77336 241.57086 307.25999 241.89603 307.68196 242.318 308.10389 242.73995 308.42906 243.22658 308.6574 243.7779 308.88578 244.32921 308.99998 244.90325 309 245.5V266.5C308.99998 267.0967 308.88578 267.67073 308.6574 268.22203 308.42906 268.77336 308.10389 269.25999 307.68196 269.68196 307.25999 270.1039 306.77336 270.42906 306.22203 270.6574 305.67073 270.88578 305.0967 270.99998 304.5 271H233.5C232.90325 270.99998 232.32921 270.88578 231.7779 270.6574 231.22658 270.42906 230.73995 270.1039 230.318 269.68196 229.89603 269.25999 229.57086 268.77336 229.3425 268.22203 229.11415 267.67073 228.99999 267.0967 229 266.5V245.5C228.99999 244.90325 229.11415 244.32921 229.3425 243.7779 229.57086 243.22658 229.89603 242.73995 230.318 242.318 230.73995 241.89603 231.22658 241.57086 231.7779 241.34252 232.32921 241.11417 232.90325 241 233.5 241Z" fill="#fff2cc"/>
<path transform="matrix(.71870169,0,0,.71870169,.35935084,.35935084)" stroke-width="1" stroke-linecap="butt" stroke-miterlimit="4" stroke-linejoin="miter" fill="none" stroke="#d6b656" d="M233.5 241H304.5C305.0967 241 305.67073 241.11417 306.22203 241.34252 306.77336 241.57086 307.25999 241.89603 307.68196 242.318 308.10389 242.73995 308.42906 243.22658 308.6574 243.7779 308.88578 244.32921 308.99998 244.90325 309 245.5V266.5C308.99998 267.0967 308.88578 267.67073 308.6574 268.22203 308.42906 268.77336 308.10389 269.25999 307.68196 269.68196 307.25999 270.1039 306.77336 270.42906 306.22203 270.6574 305.67073 270.88578 305.0967 270.99998 304.5 271H233.5C232.90325 270.99998 232.32921 270.88578 231.7779 270.6574 231.22658 270.42906 230.73995 270.1039 230.318 269.68196 229.89603 269.25999 229.57086 268.77336 229.3425 268.22203 229.11415 267.67073 228.99999 267.0967 229 266.5V245.5C228.99999 244.90325 229.11415 244.32921 229.3425 243.7779 229.57086 243.22658 229.89603 242.73995 230.318 242.318 230.73995 241.89603 231.22658 241.57086 231.7779 241.34252 232.32921 241.11417 232.90325 241 233.5 241Z"/>
<use data-text="2" xlink:href="#font_3_21" transform="matrix(12.93663,0,0,-12.93663,178.94443,189.73725)"/>
<use data-text=" " xlink:href="#font_3_3" transform="matrix(12.93663,0,0,-12.93663,186.13719,189.73725)"/>
<use data-text="0" xlink:href="#font_3_19" transform="matrix(12.93663,0,0,-12.93663,189.73358,189.73725)"/>
<use data-text=" " xlink:href="#font_3_3" transform="matrix(12.93663,0,0,-12.93663,196.92635,189.73725)"/>
<use data-text="1" xlink:href="#font_3_20" transform="matrix(12.93663,0,0,-12.93663,200.52272,189.73725)"/>
<path transform="matrix(.71870169,0,0,.71870169,.35935084,.35935084)" stroke-width="1" stroke-linecap="butt" stroke-miterlimit="10" stroke-linejoin="miter" fill="none" stroke="#0000ff" d="M219.68 190.46 253.92 235.91"/>
<path transform="matrix(.71870169,0,0,.71870169,.35935084,.35935084)" d="M257.08 240.11 250.07 236.62 253.92 235.91 255.66 232.41 257.08 240.11Z" fill="#0000ff"/>
<path transform="matrix(.71870169,0,0,.71870169,.35935084,.35935084)" stroke-width="1" stroke-linecap="butt" stroke-miterlimit="10" stroke-linejoin="miter" fill="none" stroke="#0000ff" d="M257.08 240.11 250.07 236.62 253.92 235.91 255.66 232.41 257.08 240.11Z"/>
<path transform="matrix(.71870169,0,0,.71870169,.35935084,.35935084)" d="M341.5 161H412.5C413.0967 161 413.67073 161.11418 414.22203 161.34253 414.77333 161.57089 415.25996 161.89606 415.68196 162.31801 416.10389 162.73996 416.42906 163.2266 416.6574 163.77791 416.88578 164.32923 416.99998 164.90326 417 165.5V186.5C416.99998 187.09671 416.88578 187.67072 416.6574 188.22203 416.42906 188.77335 416.10389 189.26 415.68196 189.68196 415.25996 190.10391 414.77333 190.42906 414.22203 190.65743 413.67073 190.88579 413.0967 190.99999 412.5 191H341.5C340.90324 190.99999 340.3292 190.88579 339.7779 190.65743 339.22657 190.42906 338.73994 190.10391 338.318 189.68196 337.89604 189.26 337.57087 188.77336 337.34248 188.22205 337.11415 187.67073 336.99998 187.09671 337 186.5V165.5C336.99998 164.90326 337.11415 164.32923 337.34248 163.77791 337.57087 163.2266 337.89604 162.73996 338.318 162.31801 338.73994 161.89606 339.22657 161.57089 339.7779 161.34253 340.3292 161.11418 340.90324 161 341.5 161Z" fill="#fff2cc"/>
<path transform="matrix(.71870169,0,0,.71870169,.35935084,.35935084)" stroke-width="1" stroke-linecap="butt" stroke-miterlimit="4" stroke-linejoin="miter" fill="none" stroke="#d6b656" d="M341.5 161H412.5C413.0967 161 413.67073 161.11418 414.22203 161.34253 414.77333 161.57089 415.25996 161.89606 415.68196 162.31801 416.10389 162.73996 416.42906 163.2266 416.6574 163.77791 416.88578 164.32923 416.99998 164.90326 417 165.5V186.5C416.99998 187.09671 416.88578 187.67072 416.6574 188.22203 416.42906 188.77335 416.10389 189.26 415.68196 189.68196 415.25996 190.10391 414.77333 190.42906 414.22203 190.65743 413.67073 190.88579 413.0967 190.99999 412.5 191H341.5C340.90324 190.99999 340.3292 190.88579 339.7779 190.65743 339.22657 190.42906 338.73994 190.10391 338.318 189.68196 337.89604 189.26 337.57087 188.77336 337.34248 188.22205 337.11415 187.67073 336.99998 187.09671 337 186.5V165.5C336.99998 164.90326 337.11415 164.32923 337.34248 163.77791 337.57087 163.2266 337.89604 162.73996 338.318 162.31801 338.73994 161.89606 339.22657 161.57089 339.7779 161.34253 340.3292 161.11418 340.90324 161 341.5 161Z"/>
<use data-text="1" xlink:href="#font_3_20" transform="matrix(12.93663,0,0,-12.93663,256.5642,132.2411)"/>
<use data-text=" " xlink:href="#font_3_3" transform="matrix(12.93663,0,0,-12.93663,263.757,132.2411)"/>
<use data-text="0" xlink:href="#font_3_19" transform="matrix(12.93663,0,0,-12.93663,267.35337,132.2411)"/>
<use data-text=" " xlink:href="#font_3_3" transform="matrix(12.93663,0,0,-12.93663,274.5461,132.2411)"/>
<use data-text="2" xlink:href="#font_3_21" transform="matrix(12.93663,0,0,-12.93663,278.1425,132.2411)"/>
<path transform="matrix(.71870169,0,0,.71870169,.35935084,.35935084)" stroke-width="1" stroke-linecap="butt" stroke-miterlimit="10" stroke-linejoin="miter" fill="none" stroke="#0000ff" d="M446.39 109.96 397.36 156.61"/>
<path transform="matrix(.71870169,0,0,.71870169,.35935084,.35935084)" d="M393.56 160.23 396.22 152.87 397.36 156.61 401.04 157.94 393.56 160.23Z" fill="#0000ff"/>
<path transform="matrix(.71870169,0,0,.71870169,.35935084,.35935084)" stroke-width="1" stroke-linecap="butt" stroke-miterlimit="10" stroke-linejoin="miter" fill="none" stroke="#0000ff" d="M393.56 160.23 396.22 152.87 397.36 156.61 401.04 157.94 393.56 160.23Z"/>
<path transform="matrix(.71870169,0,0,.71870169,.35935084,.35935084)" d="M585 176C585 176.49127 584.9358 176.98136 584.8073 177.47025 584.67898 177.95915 584.48696 178.44452 584.2313 178.92635 583.97579 179.40818 583.65786 179.88414 583.2775 180.35425 582.8972 180.82436 582.4564 181.28635 581.9551 181.7402 581.45376 182.19408 580.8943 182.63765 580.2768 183.07093 579.6592 183.50418 578.9865 183.92505 578.25869 184.33351 577.5309 184.742 576.75149 185.13613 575.92037 185.51589 575.0893 185.89565 574.2106 186.25922 573.28427 186.60659 572.3579 186.95397 571.3884 187.28348 570.37576 187.59514 569.36306 187.9068 568.3121 188.1991 567.22286 188.47202 566.13357 188.74495 565.0112 188.99723 563.8559 189.2288 562.7005 189.46038 561.51766 189.67015 560.30728 189.85816 559.0969 190.04616 557.8649 190.21147 556.6113 190.35408 555.3577 190.49669 554.08847 190.6159 552.8035 190.71175 551.5187 190.80759 550.2244 190.8796 548.9207 190.92777 547.617 190.97592 546.3101 191 545 191 543.69 191 542.3831 190.97592 541.07937 190.92777 539.7756 190.8796 538.48129 190.80759 537.1963 190.71175 535.91146 190.6159 534.6422 190.49669 533.3886 190.35408 532.135 190.21147 530.903 190.04616 529.6926 189.85816 528.48239 189.67015 527.2995 189.46038 526.1441 189.22879 524.9888 188.99721 523.86648 188.74494 522.77719 188.472 521.6879 188.19908 520.63699 187.9068 519.62429 187.59514 518.6116 187.28348 517.642 186.95397 516.7157 186.60659 515.78939 186.25922 514.91067 185.89565 514.0795 185.51589 513.2485 185.13613 512.469 184.742 511.74116 184.33353 511.01335 183.92505 510.34068 183.50418 509.72315 183.07094 509.1056 182.63767 508.54615 182.19409 508.04478 181.74022 507.54347 181.28635 507.10267 180.82436 506.72239 180.35425 506.3421 179.88414 506.02415 179.40816 505.76856 178.92633 505.513 178.4445 505.321 177.95915 505.1926 177.47026 505.0642 176.98136 505 176.49127 505 176 505 175.50875 505.0642 175.01865 505.1926 174.52974 505.321 174.04084 505.513 173.55547 505.76856 173.07364 506.02415 172.59181 506.3421 172.11585 506.72239 171.64572 507.10267 171.17562 507.54347 170.71363 508.04478 170.25974 508.54615 169.80587 509.1056 169.3623 509.7231 168.92903 510.34068 168.49579 511.01335 168.07492 511.74116 167.66643 512.469 167.25797 513.2485 166.86386 514.0795 166.4841 514.91067 166.10434 515.78939 165.74077 516.7157 165.39339 517.642 165.04602 518.6116 164.7165 519.62429 164.40485 520.63699 164.09319 521.6879 163.80088 522.77719 163.52794 523.86648 163.25502 524.9888 163.00276 526.1441 162.77118 527.2995 162.5396 528.48239 162.3298 529.6926 162.1418 530.903 161.9538 532.135 161.7885 533.3886 161.64589 534.6422 161.5033 535.91146 161.38407 537.1963 161.28821 538.48129 161.19237 539.7756 161.12038 541.07937 161.07224 542.3831 161.02408 543.69 161 545 161 546.3101 161 547.617 161.02408 548.9207 161.07224 550.2244 161.12038 551.5187 161.19237 552.8035 161.28821 554.08847 161.38407 555.3577 161.5033 556.6114 161.64589 557.865 161.7885 559.0969 161.9538 560.30728 162.1418 561.51766 162.3298 562.7005 162.53961 563.8559 162.7712 565.0112 163.00278 566.13357 163.25502 567.2228 163.52794 568.3121 163.80088 569.36306 164.09319 570.37576 164.40485 571.3884 164.7165 572.3579 165.04602 573.28427 165.39339 574.2106 165.74077 575.0893 166.10434 575.92037 166.4841 576.75149 166.86386 577.5309 167.25797 578.25869 167.66643 578.9865 168.07492 579.6592 168.49579 580.2768 168.92903 580.8943 169.3623 581.45376 169.80587 581.9551 170.25974 582.4564 170.71363 582.8972 171.17562 583.2775 171.64572 583.65786 172.11585 583.97579 172.59181 584.2313 173.07364 584.48696 173.55547 584.67898 174.04084 584.8073 174.52974 584.9358 175.01865 585 175.50875 585 176Z" fill="#ffffff"/>
<path transform="matrix(.71870169,0,0,.71870169,.35935084,.35935084)" stroke-width="1" stroke-linecap="butt" stroke-miterlimit="4" stroke-linejoin="miter" fill="none" stroke="#000000" d="M585 176C585 176.49127 584.9358 176.98136 584.8073 177.47025 584.67898 177.95915 584.48696 178.44452 584.2313 178.92635 583.97579 179.40818 583.65786 179.88414 583.2775 180.35425 582.8972 180.82436 582.4564 181.28635 581.9551 181.7402 581.45376 182.19408 580.8943 182.63765 580.2768 183.07093 579.6592 183.50418 578.9865 183.92505 578.25869 184.33351 577.5309 184.742 576.75149 185.13613 575.92037 185.51589 575.0893 185.89565 574.2106 186.25922 573.28427 186.60659 572.3579 186.95397 571.3884 187.28348 570.37576 187.59514 569.36306 187.9068 568.3121 188.1991 567.22286 188.47202 566.13357 188.74495 565.0112 188.99723 563.8559 189.2288 562.7005 189.46038 561.51766 189.67015 560.30728 189.85816 559.0969 190.04616 557.8649 190.21147 556.6113 190.35408 555.3577 190.49669 554.08847 190.6159 552.8035 190.71175 551.5187 190.80759 550.2244 190.8796 548.9207 190.92777 547.617 190.97592 546.3101 191 545 191 543.69 191 542.3831 190.97592 541.07937 190.92777 539.7756 190.8796 538.48129 190.80759 537.1963 190.71175 535.91146 190.6159 534.6422 190.49669 533.3886 190.35408 532.135 190.21147 530.903 190.04616 529.6926 189.85816 528.48239 189.67015 527.2995 189.46038 526.1441 189.22879 524.9888 188.99721 523.86648 188.74494 522.77719 188.472 521.6879 188.19908 520.63699 187.9068 519.62429 187.59514 518.6116 187.28348 517.642 186.95397 516.7157 186.60659 515.78939 186.25922 514.91067 185.89565 514.0795 185.51589 513.2485 185.13613 512.469 184.742 511.74116 184.33353 511.01335 183.92505 510.34068 183.50418 509.72315 183.07094 509.1056 182.63767 508.54615 182.19409 508.04478 181.74022 507.54347 181.28635 507.10267 180.82436 506.72239 180.35425 506.3421 179.88414 506.02415 179.40816 505.76856 178.92633 505.513 178.4445 505.321 177.95915 505.1926 177.47026 505.0642 176.98136 505 176.49127 505 176 505 175.50875 505.0642 175.01865 505.1926 174.52974 505.321 174.04084 505.513 173.55547 505.76856 173.07364 506.02415 172.59181 506.3421 172.11585 506.72239 171.64572 507.10267 171.17562 507.54347 170.71363 508.04478 170.25974 508.54615 169.80587 509.1056 169.3623 509.7231 168.92903 510.34068 168.49579 511.01335 168.07492 511.74116 167.66643 512.469 167.25797 513.2485 166.86386 514.0795 166.4841 514.91067 166.10434 515.78939 165.74077 516.7157 165.39339 517.642 165.04602 518.6116 164.7165 519.62429 164.40485 520.63699 164.09319 521.6879 163.80088 522.77719 163.52794 523.86648 163.25502 524.9888 163.00276 526.1441 162.77118 527.2995 162.5396 528.48239 162.3298 529.6926 162.1418 530.903 161.9538 532.135 161.7885 533.3886 161.64589 534.6422 161.5033 535.91146 161.38407 537.1963 161.28821 538.48129 161.19237 539.7756 161.12038 541.07937 161.07224 542.3831 161.02408 543.69 161 545 161 546.3101 161 547.617 161.02408 548.9207 161.07224 550.2244 161.12038 551.5187 161.19237 552.8035 161.28821 554.08847 161.38407 555.3577 161.5033 556.6114 161.64589 557.865 161.7885 559.0969 161.9538 560.30728 162.1418 561.51766 162.3298 562.7005 162.53961 563.8559 162.7712 565.0112 163.00278 566.13357 163.25502 567.2228 163.52794 568.3121 163.80088 569.36306 164.09319 570.37576 164.40485 571.3884 164.7165 572.3579 165.04602 573.28427 165.39339 574.2106 165.74077 575.0893 166.10434 575.92037 166.4841 576.75149 166.86386 577.5309 167.25797 578.25869 167.66643 578.9865 168.07492 579.6592 168.49579 580.2768 168.92903 580.8943 169.3623 581.45376 169.80587 581.9551 170.25974 582.4564 170.71363 582.8972 171.17562 583.2775 171.64572 583.65786 172.11585 583.97579 172.59181 584.2313 173.07364 584.48696 173.55547 584.67898 174.04084 584.8073 174.52974 584.9358 175.01865 585 175.50875 585 176Z"/>
<use data-text="1" xlink:href="#font_3_20" transform="matrix(12.93663,0,0,-12.93663,382.33805,130.8037)"/>
<use data-text=":" xlink:href="#font_3_29" transform="matrix(12.93663,0,0,-12.93663,389.53083,130.8037)"/>
<use data-text="2" xlink:href="#font_3_21" transform="matrix(12.93663,0,0,-12.93663,393.8387,130.8037)"/>
<path transform="matrix(.71870169,0,0,.71870169,.35935084,.35935084)" stroke-width="1" stroke-linecap="butt" stroke-miterlimit="10" stroke-linejoin="miter" fill="none" stroke="#0000ff" d="M475.6 109.97 525.73 157.65"/>
<path transform="matrix(.71870169,0,0,.71870169,.35935084,.35935084)" d="M529.54 161.27 522.05 158.98 525.73 157.65 526.88 153.91 529.54 161.27Z" fill="#0000ff"/>
<path transform="matrix(.71870169,0,0,.71870169,.35935084,.35935084)" stroke-width="1" stroke-linecap="butt" stroke-miterlimit="10" stroke-linejoin="miter" fill="none" stroke="#0000ff" d="M529.54 161.27 522.05 158.98 525.73 157.65 526.88 153.91 529.54 161.27Z"/>
<path transform="matrix(.71870169,0,0,.71870169,.35935084,.35935084)" d="M449.5 241H520.5C521.09677 241 521.6707 241.11417 522.22207 241.34252 522.7734 241.57086 523.26 241.89603 523.68197 242.318 524.1039 242.73995 524.4291 243.22658 524.6574 243.7779 524.88577 244.32921 524.99996 244.90325 525 245.5V266.5C524.99996 267.0967 524.88577 267.67073 524.6574 268.22203 524.4291 268.77336 524.1039 269.25999 523.68197 269.68196 523.26 270.1039 522.7734 270.42906 522.22207 270.6574 521.6707 270.88578 521.09677 270.99998 520.5 271H449.5C448.90324 270.99998 448.3292 270.88578 447.77787 270.6574 447.22654 270.42906 446.7399 270.1039 446.31797 269.68196 445.896 269.25999 445.57084 268.77336 445.34248 268.22203 445.1141 267.67073 444.99998 267.0967 445 266.5V245.5C444.99998 244.90325 445.1141 244.32921 445.34248 243.7779 445.57084 243.22658 445.896 242.73995 446.31797 242.318 446.7399 241.89603 447.22654 241.57086 447.77784 241.34252 448.3292 241.11417 448.90324 241 449.5 241Z" fill="#fff2cc"/>
<path transform="matrix(.71870169,0,0,.71870169,.35935084,.35935084)" stroke-width="1" stroke-linecap="butt" stroke-miterlimit="4" stroke-linejoin="miter" fill="none" stroke="#d6b656" d="M449.5 241H520.5C521.09677 241 521.6707 241.11417 522.22207 241.34252 522.7734 241.57086 523.26 241.89603 523.68197 242.318 524.1039 242.73995 524.4291 243.22658 524.6574 243.7779 524.88577 244.32921 524.99996 244.90325 525 245.5V266.5C524.99996 267.0967 524.88577 267.67073 524.6574 268.22203 524.4291 268.77336 524.1039 269.25999 523.68197 269.68196 523.26 270.1039 522.7734 270.42906 522.22207 270.6574 521.6707 270.88578 521.09677 270.99998 520.5 271H449.5C448.90324 270.99998 448.3292 270.88578 447.77787 270.6574 447.22654 270.42906 446.7399 270.1039 446.31797 269.68196 445.896 269.25999 445.57084 268.77336 445.34248 268.22203 445.1141 267.67073 444.99998 267.0967 445 266.5V245.5C444.99998 244.90325 445.1141 244.32921 445.34248 243.7779 445.57084 243.22658 445.896 242.73995 446.31797 242.318 446.7399 241.89603 447.22654 241.57086 447.77784 241.34252 448.3292 241.11417 448.90324 241 449.5 241Z"/>
<use data-text="1" xlink:href="#font_3_20" transform="matrix(12.93663,0,0,-12.93663,334.184,189.73725)"/>
<use data-text=" " xlink:href="#font_3_3" transform="matrix(12.93663,0,0,-12.93663,341.37675,189.73725)"/>
<use data-text="2" xlink:href="#font_3_21" transform="matrix(12.93663,0,0,-12.93663,344.97315,189.73725)"/>
<use data-text=" " xlink:href="#font_3_3" transform="matrix(12.93663,0,0,-12.93663,352.1659,189.73725)"/>
<use data-text="0" xlink:href="#font_3_19" transform="matrix(12.93663,0,0,-12.93663,355.76228,189.73725)"/>
<path transform="matrix(.71870169,0,0,.71870169,.35935084,.35935084)" stroke-width="1" stroke-linecap="butt" stroke-miterlimit="10" stroke-linejoin="miter" fill="none" stroke="#0000ff" d="M534.32 190.46 500.08 235.91"/>
<path transform="matrix(.71870169,0,0,.71870169,.35935084,.35935084)" d="M496.92 240.11 498.34 232.41 500.08 235.91 503.93 236.62 496.92 240.11Z" fill="#0000ff"/>
<path transform="matrix(.71870169,0,0,.71870169,.35935084,.35935084)" stroke-width="1" stroke-linecap="butt" stroke-miterlimit="10" stroke-linejoin="miter" fill="none" stroke="#0000ff" d="M496.92 240.11 498.34 232.41 500.08 235.91 503.93 236.62 496.92 240.11Z"/>
<path transform="matrix(.71870169,0,0,.71870169,.35935084,.35935084)" d="M569.5 241H640.5C641.0966 241 641.67068 241.11417 642.222 241.34252 642.7733 241.57086 643.25997 241.89603 643.68197 242.318 644.1039 242.73995 644.429 243.22658 644.6574 243.7779 644.88577 244.32921 644.99996 244.90325 645 245.5V266.5C644.99996 267.0967 644.88577 267.67073 644.6574 268.22203 644.429 268.77336 644.1039 269.25999 643.68197 269.68196 643.25997 270.1039 642.7733 270.42906 642.222 270.6574 641.67068 270.88578 641.0966 270.99998 640.5 271H569.5C568.9032 270.99998 568.32919 270.88578 567.7779 270.6574 567.22659 270.42906 566.7399 270.1039 566.318 269.68196 565.89596 269.25999 565.5708 268.77336 565.34249 268.22203 565.11416 267.67073 564.99996 267.0967 565 266.5V245.5C564.99996 244.90325 565.11416 244.32921 565.34249 243.7779 565.5708 243.22658 565.89596 242.73995 566.318 242.318 566.7399 241.89603 567.22659 241.57086 567.7779 241.34252 568.32919 241.11417 568.9032 241 569.5 241Z" fill="#fff2cc"/>
<path transform="matrix(.71870169,0,0,.71870169,.35935084,.35935084)" stroke-width="1" stroke-linecap="butt" stroke-miterlimit="4" stroke-linejoin="miter" fill="none" stroke="#d6b656" d="M569.5 241H640.5C641.0966 241 641.67068 241.11417 642.222 241.34252 642.7733 241.57086 643.25997 241.89603 643.68197 242.318 644.1039 242.73995 644.429 243.22658 644.6574 243.7779 644.88577 244.32921 644.99996 244.90325 645 245.5V266.5C644.99996 267.0967 644.88577 267.67073 644.6574 268.22203 644.429 268.77336 644.1039 269.25999 643.68197 269.68196 643.25997 270.1039 642.7733 270.42906 642.222 270.6574 641.67068 270.88578 641.0966 270.99998 640.5 271H569.5C568.9032 270.99998 568.32919 270.88578 567.7779 270.6574 567.22659 270.42906 566.7399 270.1039 566.318 269.68196 565.89596 269.25999 565.5708 268.77336 565.34249 268.22203 565.11416 267.67073 564.99996 267.0967 565 266.5V245.5C564.99996 244.90325 565.11416 244.32921 565.34249 243.7779 565.5708 243.22658 565.89596 242.73995 566.318 242.318 566.7399 241.89603 567.22659 241.57086 567.7779 241.34252 568.32919 241.11417 568.9032 241 569.5 241Z"/>
<use data-text="2" xlink:href="#font_3_21" transform="matrix(12.93663,0,0,-12.93663,420.4282,189.73725)"/>
<use data-text=" " xlink:href="#font_3_3" transform="matrix(12.93663,0,0,-12.93663,427.62095,189.73725)"/>
<use data-text="1" xlink:href="#font_3_20" transform="matrix(12.93663,0,0,-12.93663,431.21736,189.73725)"/>
<use data-text=" " xlink:href="#font_3_3" transform="matrix(12.93663,0,0,-12.93663,438.41014,189.73725)"/>
<use data-text="0" xlink:href="#font_3_19" transform="matrix(12.93663,0,0,-12.93663,442.00654,189.73725)"/>
<path transform="matrix(.71870169,0,0,.71870169,.35935084,.35935084)" stroke-width="1" stroke-linecap="butt" stroke-miterlimit="10" stroke-linejoin="miter" fill="none" stroke="#0000ff" d="M555.68 190.46 589.92 235.91"/>
<path transform="matrix(.71870169,0,0,.71870169,.35935084,.35935084)" d="M593.08 240.11 586.07 236.62 589.92 235.91 591.66 232.41 593.08 240.11Z" fill="#0000ff"/>
<path transform="matrix(.71870169,0,0,.71870169,.35935084,.35935084)" stroke-width="1" stroke-linecap="butt" stroke-miterlimit="10" stroke-linejoin="miter" fill="none" stroke="#0000ff" d="M593.08 240.11 586.07 236.62 589.92 235.91 591.66 232.41 593.08 240.11Z"/>
</g>
<g clip-path="url(#clip_4)">
<path transform="matrix(.015688617,0,0,-.015512663,47.43648,94.85388)" d="M674 636C679.3333 636 684 634 688 630 692 626 694 621 694 615 694 609 691.6667 604.3333 687 601 686.3333 600.3333 596.3334 557.3333 417 472L151 346 399 228C591 137.33333 688.3333 90.333339 691 87 693 83 694 79.333339 694 76 694 64 688 57.333333 676 56H670L382 192C188.66666 283.33335 91.333339 329.66667 90 331 85.333339 334.33335 83 340 83 348 83.666667 355.33335 88 361 96 365 101.333339 367.66667 196.66666 412.66667 382 500 567.3334 587.3333 661.6667 632 665 634 667.6667 635.3333 670.6667 636 674 636ZM84-118C84-111.333339 89-104.666667 99-98H678C688.6667-102 694-108.666667 694-118 694-126 689-132.66667 679-138H98C88.666667-133.33333 84-126.666667 84-118Z"/>
<path transform="matrix(.015688617,0,0,-.015512663,47.43648,94.85388)" stroke-width="0" stroke-linecap="butt" stroke-miterlimit="4" stroke-linejoin="miter" fill="none" stroke="#000000" stroke-opacity=".0157" d="M674 636C679.3333 636 684 634 688 630 692 626 694 621 694 615 694 609 691.6667 604.3333 687 601 686.3333 600.3333 596.3334 557.3333 417 472L151 346 399 228C591 137.33333 688.3333 90.333339 691 87 693 83 694 79.333339 694 76 694 64 688 57.333333 676 56H670L382 192C188.66666 283.33335 91.333339 329.66667 90 331 85.333339 334.33335 83 340 83 348 83.666667 355.33335 88 361 96 365 101.333339 367.66667 196.66666 412.66667 382 500 567.3334 587.3333 661.6667 632 665 634 667.6667 635.3333 670.6667 636 674 636ZM84-118C84-111.333339 89-104.666667 99-98H678C688.6667-102 694-108.666667 694-118 694-126 689-132.66667 679-138H98C88.666667-133.33333 84-126.666667 84-118Z"/>
</g>
<g clip-path="url(#clip_5)">
<path transform="matrix(.015688617,0,0,-.015512663,133.68067,37.35775)" d="M674 636C679.3333 636 684 634 688 630 692 626 694 621 694 615 694 609 691.6667 604.3333 687 601 686.3333 600.3333 596.3334 557.3333 417 472L151 346 399 228C591 137.33333 688.3333 90.333339 691 87 693 83 694 79.333339 694 76 694 64 688 57.333333 676 56H670L382 192C188.66666 283.33335 91.333339 329.66667 90 331 85.333339 334.33335 83 340 83 348 83.666667 355.33335 88 361 96 365 101.333339 367.66667 196.66666 412.66667 382 500 567.3334 587.3333 661.6667 632 665 634 667.6667 635.3333 670.6667 636 674 636ZM84-118C84-111.333339 89-104.666667 99-98H678C688.6667-102 694-108.666667 694-118 694-126 689-132.66667 679-138H98C88.666667-133.33333 84-126.666667 84-118Z"/>
<path transform="matrix(.015688617,0,0,-.015512663,133.68067,37.35775)" stroke-width="0" stroke-linecap="butt" stroke-miterlimit="4" stroke-linejoin="miter" fill="none" stroke="#000000" stroke-opacity=".0157" d="M674 636C679.3333 636 684 634 688 630 692 626 694 621 694 615 694 609 691.6667 604.3333 687 601 686.3333 600.3333 596.3334 557.3333 417 472L151 346 399 228C591 137.33333 688.3333 90.333339 691 87 693 83 694 79.333339 694 76 694 64 688 57.333333 676 56H670L382 192C188.66666 283.33335 91.333339 329.66667 90 331 85.333339 334.33335 83 340 83 348 83.666667 355.33335 88 361 96 365 101.333339 367.66667 196.66666 412.66667 382 500 567.3334 587.3333 661.6667 632 665 634 667.6667 635.3333 670.6667 636 674 636ZM84-118C84-111.333339 89-104.666667 99-98H678C688.6667-102 694-108.666667 694-118 694-126 689-132.66667 679-138H98C88.666667-133.33333 84-126.666667 84-118Z"/>
</g>
<g clip-path="url(#clip_6)">
<path transform="matrix(.015688617,0,0,-.015512663,288.92024,94.85388)" d="M674 636C679.3333 636 684 634 688 630 692 626 694 621 694 615 694 609 691.6667 604.3333 687 601 686.3333 600.3333 596.3334 557.3333 417 472L151 346 399 228C591 137.33333 688.3333 90.333339 691 87 693 83 694 79.333339 694 76 694 64 688 57.333333 676 56H670L382 192C188.66666 283.33335 91.333339 329.66667 90 331 85.333339 334.33335 83 340 83 348 83.666667 355.33335 88 361 96 365 101.333339 367.66667 196.66666 412.66667 382 500 567.3334 587.3333 661.6667 632 665 634 667.6667 635.3333 670.6667 636 674 636ZM84-118C84-111.333339 89-104.666667 99-98H678C688.6667-102 694-108.666667 694-118 694-126 689-132.66667 679-138H98C88.666667-133.33333 84-126.666667 84-118Z"/>
<path transform="matrix(.015688617,0,0,-.015512663,288.92024,94.85388)" stroke-width="0" stroke-linecap="butt" stroke-miterlimit="4" stroke-linejoin="miter" fill="none" stroke="#000000" stroke-opacity=".0157" d="M674 636C679.3333 636 684 634 688 630 692 626 694 621 694 615 694 609 691.6667 604.3333 687 601 686.3333 600.3333 596.3334 557.3333 417 472L151 346 399 228C591 137.33333 688.3333 90.333339 691 87 693 83 694 79.333339 694 76 694 64 688 57.333333 676 56H670L382 192C188.66666 283.33335 91.333339 329.66667 90 331 85.333339 334.33335 83 340 83 348 83.666667 355.33335 88 361 96 365 101.333339 367.66667 196.66666 412.66667 382 500 567.3334 587.3333 661.6667 632 665 634 667.6667 635.3333 670.6667 636 674 636ZM84-118C84-111.333339 89-104.666667 99-98H678C688.6667-102 694-108.666667 694-118 694-126 689-132.66667 679-138H98C88.666667-133.33333 84-126.666667 84-118Z"/>
</g>
<g clip-path="url(#clip_7)">
<path transform="matrix(.015685266,0,0,-.01548926,363.66654,94.845378)" d="M84 520C84 525.3333 85.333339 529.6667 88 533 90.666667 536.3333 93.333339 538.3333 96 539L99 540C103.666667 540 155 517 253 471 351 425 448 379.33335 544 334L687 265C691.6667 261.66667 694 256.66667 694 250 694 243.33333 691.6667 238.33333 687 235 685.6667 233.66667 588.3334 187.33335 395 96L107-40H101C89-38.666669 83-32 83-20 83-19.333334 83-18.333334 83-17 82.333339-12.333333 87.333339-7 98-1 110.666667 5.666667 160.66666 29.666665 248 71 300 95.66667 343.33335 116 378 132L626 250 378 368C186 458.6667 88.666667 505.66667 86 509 84.666667 511.66667 84 515.3333 84 520Z"/>
<path transform="matrix(.015685266,0,0,-.01548926,363.66654,94.845378)" stroke-width="0" stroke-linecap="butt" stroke-miterlimit="4" stroke-linejoin="miter" fill="none" stroke="#000000" stroke-opacity=".0157" d="M84 520C84 525.3333 85.333339 529.6667 88 533 90.666667 536.3333 93.333339 538.3333 96 539L99 540C103.666667 540 155 517 253 471 351 425 448 379.33335 544 334L687 265C691.6667 261.66667 694 256.66667 694 250 694 243.33333 691.6667 238.33333 687 235 685.6667 233.66667 588.3334 187.33335 395 96L107-40H101C89-38.666669 83-32 83-20 83-19.333334 83-18.333334 83-17 82.333339-12.333333 87.333339-7 98-1 110.666667 5.666667 160.66666 29.666665 248 71 300 95.66667 343.33335 116 378 132L626 250 378 368C186 458.6667 88.666667 505.66667 86 509 84.666667 511.66667 84 515.3333 84 520Z"/>
</g>
<g clip-path="url(#clip_8)">
<path transform="matrix(.015685266,0,0,-.01548926,126.494968,94.845378)" d="M84 520C84 525.3333 85.333339 529.6667 88 533 90.666667 536.3333 93.333339 538.3333 96 539L99 540C103.666667 540 155 517 253 471 351 425 448 379.33335 544 334L687 265C691.6667 261.66667 694 256.66667 694 250 694 243.33333 691.6667 238.33333 687 235 685.6667 233.66667 588.3334 187.33335 395 96L107-40H101C89-38.666669 83-32 83-20 83-19.333334 83-18.333334 83-17 82.333339-12.333333 87.333339-7 98-1 110.666667 5.666667 160.66666 29.666665 248 71 300 95.66667 343.33335 116 378 132L626 250 378 368C186 458.6667 88.666667 505.66667 86 509 84.666667 511.66667 84 515.3333 84 520Z"/>
<path transform="matrix(.015685266,0,0,-.01548926,126.494968,94.845378)" stroke-width="0" stroke-linecap="butt" stroke-miterlimit="4" stroke-linejoin="miter" fill="none" stroke="#000000" stroke-opacity=".0157" d="M84 520C84 525.3333 85.333339 529.6667 88 533 90.666667 536.3333 93.333339 538.3333 96 539L99 540C103.666667 540 155 517 253 471 351 425 448 379.33335 544 334L687 265C691.6667 261.66667 694 256.66667 694 250 694 243.33333 691.6667 238.33333 687 235 685.6667 233.66667 588.3334 187.33335 395 96L107-40H101C89-38.666669 83-32 83-20 83-19.333334 83-18.333334 83-17 82.333339-12.333333 87.333339-7 98-1 110.666667 5.666667 160.66666 29.666665 248 71 300 95.66667 343.33335 116 378 132L626 250 378 368C186 458.6667 88.666667 505.66667 86 509 84.666667 511.66667 84 515.3333 84 520Z"/>
</g>
<g clip-path="url(#clip_9)">
<path transform="matrix(.015685266,0,0,-.01548926,413.97566,152.34152)" d="M84 520C84 525.3333 85.333339 529.6667 88 533 90.666667 536.3333 93.333339 538.3333 96 539L99 540C103.666667 540 155 517 253 471 351 425 448 379.33335 544 334L687 265C691.6667 261.66667 694 256.66667 694 250 694 243.33333 691.6667 238.33333 687 235 685.6667 233.66667 588.3334 187.33335 395 96L107-40H101C89-38.666669 83-32 83-20 83-19.333334 83-18.333334 83-17 82.333339-12.333333 87.333339-7 98-1 110.666667 5.666667 160.66666 29.666665 248 71 300 95.66667 343.33335 116 378 132L626 250 378 368C186 458.6667 88.666667 505.66667 86 509 84.666667 511.66667 84 515.3333 84 520Z"/>
<path transform="matrix(.015685266,0,0,-.01548926,413.97566,152.34152)" stroke-width="0" stroke-linecap="butt" stroke-miterlimit="4" stroke-linejoin="miter" fill="none" stroke="#000000" stroke-opacity=".0157" d="M84 520C84 525.3333 85.333339 529.6667 88 533 90.666667 536.3333 93.333339 538.3333 96 539L99 540C103.666667 540 155 517 253 471 351 425 448 379.33335 544 334L687 265C691.6667 261.66667 694 256.66667 694 250 694 243.33333 691.6667 238.33333 687 235 685.6667 233.66667 588.3334 187.33335 395 96L107-40H101C89-38.666669 83-32 83-20 83-19.333334 83-18.333334 83-17 82.333339-12.333333 87.333339-7 98-1 110.666667 5.666667 160.66666 29.666665 248 71 300 95.66667 343.33335 116 378 132L626 250 378 368C186 458.6667 88.666667 505.66667 86 509 84.666667 511.66667 84 515.3333 84 520Z"/>
</g>
<g clip-path="url(#clip_10)">
<path transform="matrix(.015685266,0,0,-.01548926,275.9849,37.34925)" d="M84 520C84 525.3333 85.333339 529.6667 88 533 90.666667 536.3333 93.333339 538.3333 96 539L99 540C103.666667 540 155 517 253 471 351 425 448 379.33335 544 334L687 265C691.6667 261.66667 694 256.66667 694 250 694 243.33333 691.6667 238.33333 687 235 685.6667 233.66667 588.3334 187.33335 395 96L107-40H101C89-38.666669 83-32 83-20 83-19.333334 83-18.333334 83-17 82.333339-12.333333 87.333339-7 98-1 110.666667 5.666667 160.66666 29.666665 248 71 300 95.66667 343.33335 116 378 132L626 250 378 368C186 458.6667 88.666667 505.66667 86 509 84.666667 511.66667 84 515.3333 84 520Z"/>
<path transform="matrix(.015685266,0,0,-.01548926,275.9849,37.34925)" stroke-width="0" stroke-linecap="butt" stroke-miterlimit="4" stroke-linejoin="miter" fill="none" stroke="#000000" stroke-opacity=".0157" d="M84 520C84 525.3333 85.333339 529.6667 88 533 90.666667 536.3333 93.333339 538.3333 96 539L99 540C103.666667 540 155 517 253 471 351 425 448 379.33335 544 334L687 265C691.6667 261.66667 694 256.66667 694 250 694 243.33333 691.6667 238.33333 687 235 685.6667 233.66667 588.3334 187.33335 395 96L107-40H101C89-38.666669 83-32 83-20 83-19.333334 83-18.333334 83-17 82.333339-12.333333 87.333339-7 98-1 110.666667 5.666667 160.66666 29.666665 248 71 300 95.66667 343.33335 116 378 132L626 250 378 368C186 458.6667 88.666667 505.66667 86 509 84.666667 511.66667 84 515.3333 84 520Z"/>
</g>
<g clip-path="url(#clip_11)">
<path transform="matrix(.015688617,0,0,-.015512663,112.11963,152.35)" d="M674 636C679.3333 636 684 634 688 630 692 626 694 621 694 615 694 609 691.6667 604.3333 687 601 686.3333 600.3333 596.3334 557.3333 417 472L151 346 399 228C591 137.33333 688.3333 90.333339 691 87 693 83 694 79.333339 694 76 694 64 688 57.333333 676 56H670L382 192C188.66666 283.33335 91.333339 329.66667 90 331 85.333339 334.33335 83 340 83 348 83.666667 355.33335 88 361 96 365 101.333339 367.66667 196.66666 412.66667 382 500 567.3334 587.3333 661.6667 632 665 634 667.6667 635.3333 670.6667 636 674 636ZM84-118C84-111.333339 89-104.666667 99-98H678C688.6667-102 694-108.666667 694-118 694-126 689-132.66667 679-138H98C88.666667-133.33333 84-126.666667 84-118Z"/>
<path transform="matrix(.015688617,0,0,-.015512663,112.11963,152.35)" stroke-width="0" stroke-linecap="butt" stroke-miterlimit="4" stroke-linejoin="miter" fill="none" stroke="#000000" stroke-opacity=".0157" d="M674 636C679.3333 636 684 634 688 630 692 626 694 621 694 615 694 609 691.6667 604.3333 687 601 686.3333 600.3333 596.3334 557.3333 417 472L151 346 399 228C591 137.33333 688.3333 90.333339 691 87 693 83 694 79.333339 694 76 694 64 688 57.333333 676 56H670L382 192C188.66666 283.33335 91.333339 329.66667 90 331 85.333339 334.33335 83 340 83 348 83.666667 355.33335 88 361 96 365 101.333339 367.66667 196.66666 412.66667 382 500 567.3334 587.3333 661.6667 632 665 634 667.6667 635.3333 670.6667 636 674 636ZM84-118C84-111.333339 89-104.666667 99-98H678C688.6667-102 694-108.666667 694-118 694-126 689-132.66667 679-138H98C88.666667-133.33333 84-126.666667 84-118Z"/>
</g>
<g clip-path="url(#clip_12)">
<path transform="matrix(.015688617,0,0,-.015512663,356.47819,152.35)" d="M674 636C679.3333 636 684 634 688 630 692 626 694 621 694 615 694 609 691.6667 604.3333 687 601 686.3333 600.3333 596.3334 557.3333 417 472L151 346 399 228C591 137.33333 688.3333 90.333339 691 87 693 83 694 79.333339 694 76 694 64 688 57.333333 676 56H670L382 192C188.66666 283.33335 91.333339 329.66667 90 331 85.333339 334.33335 83 340 83 348 83.666667 355.33335 88 361 96 365 101.333339 367.66667 196.66666 412.66667 382 500 567.3334 587.3333 661.6667 632 665 634 667.6667 635.3333 670.6667 636 674 636ZM84-118C84-111.333339 89-104.666667 99-98H678C688.6667-102 694-108.666667 694-118 694-126 689-132.66667 679-138H98C88.666667-133.33333 84-126.666667 84-118Z"/>
<path transform="matrix(.015688617,0,0,-.015512663,356.47819,152.35)" stroke-width="0" stroke-linecap="butt" stroke-miterlimit="4" stroke-linejoin="miter" fill="none" stroke="#000000" stroke-opacity=".0157" d="M674 636C679.3333 636 684 634 688 630 692 626 694 621 694 615 694 609 691.6667 604.3333 687 601 686.3333 600.3333 596.3334 557.3333 417 472L151 346 399 228C591 137.33333 688.3333 90.333339 691 87 693 83 694 79.333339 694 76 694 64 688 57.333333 676 56H670L382 192C188.66666 283.33335 91.333339 329.66667 90 331 85.333339 334.33335 83 340 83 348 83.666667 355.33335 88 361 96 365 101.333339 367.66667 196.66666 412.66667 382 500 567.3334 587.3333 661.6667 632 665 634 667.6667 635.3333 670.6667 636 674 636ZM84-118C84-111.333339 89-104.666667 99-98H678C688.6667-102 694-108.666667 694-118 694-126 689-132.66667 679-138H98C88.666667-133.33333 84-126.666667 84-118Z"/>
</g>
<g clip-path="url(#clip_13)">
<path transform="matrix(.015685266,0,0,-.01548926,176.80408,152.34152)" d="M84 520C84 525.3333 85.333339 529.6667 88 533 90.666667 536.3333 93.333339 538.3333 96 539L99 540C103.666667 540 155 517 253 471 351 425 448 379.33335 544 334L687 265C691.6667 261.66667 694 256.66667 694 250 694 243.33333 691.6667 238.33333 687 235 685.6667 233.66667 588.3334 187.33335 395 96L107-40H101C89-38.666669 83-32 83-20 83-19.333334 83-18.333334 83-17 82.333339-12.333333 87.333339-7 98-1 110.666667 5.666667 160.66666 29.666665 248 71 300 95.66667 343.33335 116 378 132L626 250 378 368C186 458.6667 88.666667 505.66667 86 509 84.666667 511.66667 84 515.3333 84 520Z"/>
<path transform="matrix(.015685266,0,0,-.01548926,176.80408,152.34152)" stroke-width="0" stroke-linecap="butt" stroke-miterlimit="4" stroke-linejoin="miter" fill="none" stroke="#000000" stroke-opacity=".0157" d="M84 520C84 525.3333 85.333339 529.6667 88 533 90.666667 536.3333 93.333339 538.3333 96 539L99 540C103.666667 540 155 517 253 471 351 425 448 379.33335 544 334L687 265C691.6667 261.66667 694 256.66667 694 250 694 243.33333 691.6667 238.33333 687 235 685.6667 233.66667 588.3334 187.33335 395 96L107-40H101C89-38.666669 83-32 83-20 83-19.333334 83-18.333334 83-17 82.333339-12.333333 87.333339-7 98-1 110.666667 5.666667 160.66666 29.666665 248 71 300 95.66667 343.33335 116 378 132L626 250 378 368C186 458.6667 88.666667 505.66667 86 509 84.666667 511.66667 84 515.3333 84 520Z"/>
</g>
</svg>
