<svg xmlns="http://www.w3.org/2000/svg" xmlns:xlink="http://www.w3.org/1999/xlink" xmlns:inkscape="http://www.inkscape.org/namespaces/inkscape" version="1.1" width="351.12" height="255.12" viewBox="0 0 351.12 255.12">
<defs>
<clipPath id="clip_1">
<path transform="matrix(.24,0,0,.24,0,0)" d="M0 0H1462.4999V1060.9119H0Z" clip-rule="evenodd"/>
</clipPath>
<clipPath id="clip_2">
<path transform="matrix(.24,0,0,.24,0,0)" d="M0 0H1462.4999V1057.9149H0Z" clip-rule="evenodd"/>
</clipPath>
<clipPath id="clip_3">
<path transform="matrix(.24,0,0,.24,0,0)" d="M116.88012 1000.9733H128.86783V1042.9303H116.88012Z" clip-rule="evenodd"/>
</clipPath>
<clipPath id="clip_4">
<path transform="matrix(.24,0,0,.24,0,0)" d="M419.56965 1000.9733H533.4528V1042.9303H419.56965Z" clip-rule="evenodd"/>
</clipPath>
<clipPath id="clip_5">
<path transform="matrix(.24,0,0,.24,0,0)" d="M587.3975 1009.9641H626.35757V1039.9334H587.3975Z" clip-rule="evenodd"/>
</clipPath>
<clipPath id="clip_6">
<path transform="matrix(.24,0,0,.24,0,0)" d="M659.3237 1000.9733H773.2069V1042.9303H659.3237Z" clip-rule="evenodd"/>
</clipPath>
<clipPath id="clip_7">
<path transform="matrix(.24,0,0,.24,0,0)" d="M1312.6536 1009.9641H1333.6321V1039.9334H1312.6536Z" clip-rule="evenodd"/>
</clipPath>
<clipPath id="clip_8">
<path transform="matrix(.24,0,0,.24,0,0)" d="M0 0H1462.4999V1057.9149H0Z" clip-rule="evenodd"/>
</clipPath>
<clipPath id="clip_9">
<path transform="matrix(.24,0,0,.24,0,0)" d="M113.883197 281.71107H125.870899V323.66804H113.883197Z" clip-rule="evenodd"/>
</clipPath>
<clipPath id="clip_10">
<path transform="matrix(.24,0,0,.24,0,0)" d="M416.57273 281.71107H530.45596V323.66804H416.57273Z" clip-rule="evenodd"/>
</clipPath>
<clipPath id="clip_11">
<path transform="matrix(.24,0,0,.24,0,0)" d="M584.4006 290.70185H623.3606V320.6711H584.4006Z" clip-rule="evenodd"/>
</clipPath>
<clipPath id="clip_12">
<path transform="matrix(.24,0,0,.24,0,0)" d="M656.3268 281.71107H770.20999V323.66804H656.3268Z" clip-rule="evenodd"/>
</clipPath>
<clipPath id="clip_13">
<path transform="matrix(.24,0,0,.24,0,0)" d="M1309.6567 290.70185H1330.6353V320.6711H1309.6567Z" clip-rule="evenodd"/>
</clipPath>
</defs>
<g clip-path="url(#clip_1)">
<path transform="matrix(.71926227,0,0,.71926227,0,0)" d="M0 0H488V354H0Z" fill="#ffffff"/>
</g>
<g clip-path="url(#clip_2)">
<path transform="matrix(.71926227,0,0,.71926227,.35963113,.35963113)" d="M31 1H51V81H31Z" fill="#dae8fc" fill-opacity=".702"/>
<path transform="matrix(.71926227,0,0,.71926227,.35963113,.35963113)" stroke-width="1" stroke-linecap="butt" stroke-miterlimit="4" stroke-linejoin="miter" fill="none" stroke="#6c8ebf" stroke-opacity=".702" d="M31 1H51V81H31Z"/>
<path transform="matrix(.71926227,0,0,.71926227,.35963113,.35963113)" d="M71 41H91V81H71Z" fill="#dae8fc" fill-opacity=".702"/>
<path transform="matrix(.71926227,0,0,.71926227,.35963113,.35963113)" stroke-width="1" stroke-linecap="butt" stroke-miterlimit="4" stroke-linejoin="miter" fill="none" stroke="#6c8ebf" stroke-opacity=".702" d="M71 41H91V81H71Z"/>
<path transform="matrix(.71926227,0,0,.71926227,.35963113,.35963113)" d="M111 41H131V81H111Z" fill="#dae8fc" fill-opacity=".702"/>
<path transform="matrix(.71926227,0,0,.71926227,.35963113,.35963113)" stroke-width="1" stroke-linecap="butt" stroke-miterlimit="4" stroke-linejoin="miter" fill="none" stroke="#6c8ebf" stroke-opacity=".702" d="M111 41H131V81H111Z"/>
<path transform="matrix(.71926227,0,0,.71926227,.35963113,.35963113)" d="M151 1H171V81H151Z" fill="#dae8fc" fill-opacity=".702"/>
<path transform="matrix(.71926227,0,0,.71926227,.35963113,.35963113)" stroke-width="1" stroke-linecap="butt" stroke-miterlimit="4" stroke-linejoin="miter" fill="none" stroke="#6c8ebf" stroke-opacity=".702" d="M151 1H171V81H151Z"/>
<path transform="matrix(.71926227,0,0,.71926227,.35963113,.35963113)" d="M192.86 61H212.86V81H192.86Z" fill="#dae8fc" fill-opacity=".702"/>
<path transform="matrix(.71926227,0,0,.71926227,.35963113,.35963113)" stroke-width="1" stroke-linecap="butt" stroke-miterlimit="4" stroke-linejoin="miter" fill="none" stroke="#6c8ebf" stroke-opacity=".702" d="M192.86 61H212.86V81H192.86Z"/>
<path transform="matrix(.71926227,0,0,.71926227,.35963113,.35963113)" d="M232.86 41H252.86V81H232.86Z" fill="#dae8fc" fill-opacity=".702"/>
<path transform="matrix(.71926227,0,0,.71926227,.35963113,.35963113)" stroke-width="1" stroke-linecap="butt" stroke-miterlimit="4" stroke-linejoin="miter" fill="none" stroke="#6c8ebf" stroke-opacity=".702" d="M232.86 41H252.86V81H232.86Z"/>
<path transform="matrix(.71926227,0,0,.71926227,.35963113,.35963113)" d="M272.86 1H292.86V81H272.86Z" fill="#dae8fc" fill-opacity=".702"/>
<path transform="matrix(.71926227,0,0,.71926227,.35963113,.35963113)" stroke-width="1" stroke-linecap="butt" stroke-miterlimit="4" stroke-linejoin="miter" fill="none" stroke="#6c8ebf" stroke-opacity=".702" d="M272.86 1H292.86V81H272.86Z"/>
<path transform="matrix(.71926227,0,0,.71926227,.35963113,.35963113)" d="M312.86 41H332.86V81H312.86Z" fill="#dae8fc" fill-opacity=".702"/>
<path transform="matrix(.71926227,0,0,.71926227,.35963113,.35963113)" stroke-width="1" stroke-linecap="butt" stroke-miterlimit="4" stroke-linejoin="miter" fill="none" stroke="#6c8ebf" stroke-opacity=".702" d="M312.86 41H332.86V81H312.86Z"/>
<path transform="matrix(.71926227,0,0,.71926227,.35963113,.35963113)" d="M351 41H371V81H351Z" fill="#dae8fc" fill-opacity=".702"/>
<path transform="matrix(.71926227,0,0,.71926227,.35963113,.35963113)" stroke-width="1" stroke-linecap="butt" stroke-miterlimit="4" stroke-linejoin="miter" fill="none" stroke="#6c8ebf" stroke-opacity=".702" d="M351 41H371V81H351Z"/>
<path transform="matrix(.71926227,0,0,.71926227,.35963113,.35963113)" d="M391 1H411V81H391Z" fill="#dae8fc" fill-opacity=".702"/>
<path transform="matrix(.71926227,0,0,.71926227,.35963113,.35963113)" stroke-width="1" stroke-linecap="butt" stroke-miterlimit="4" stroke-linejoin="miter" fill="none" stroke="#6c8ebf" stroke-opacity=".702" d="M391 1H411V81H391Z"/>
<path transform="matrix(.71926227,0,0,.71926227,.35963113,.35963113)" d="M431 51H451V81H431Z" fill="#dae8fc" fill-opacity=".702"/>
<path transform="matrix(.71926227,0,0,.71926227,.35963113,.35963113)" stroke-width="1" stroke-linecap="butt" stroke-miterlimit="4" stroke-linejoin="miter" fill="none" stroke="#6c8ebf" stroke-opacity=".702" d="M431 51H451V81H431Z"/>
<path transform="matrix(.71926227,0,0,.71926227,.35963113,.35963113)" d="M41 321 241 121 441 321H41Z" fill="#fff2cc"/>
<path transform="matrix(.71926227,0,0,.71926227,.35963113,.35963113)" stroke-width="1" stroke-linecap="butt" stroke-miterlimit="10" stroke-linejoin="miter" fill="none" stroke="#d6b656" d="M41 321 241 121 441 321H41Z"/>
<path transform="matrix(.71926227,0,0,.71926227,.35963113,.35963113)" d="M41 321 101 261 161 321H41Z" fill="#f8cecc" fill-opacity=".702"/>
<path transform="matrix(.71926227,0,0,.71926227,.35963113,.35963113)" stroke-width="1" stroke-linecap="butt" stroke-miterlimit="10" stroke-linejoin="miter" fill="none" stroke="#b85450" stroke-opacity=".702" d="M41 321 101 261 161 321H41Z"/>
<path transform="matrix(.71926227,0,0,.71926227,.35963113,.35963113)" d="M241 321 341 221 441 321H241Z" fill="#f8cecc" fill-opacity=".702"/>
<path transform="matrix(.71926227,0,0,.71926227,.35963113,.35963113)" stroke-width="1" stroke-linecap="butt" stroke-miterlimit="10" stroke-linejoin="miter" fill="none" stroke="#b85450" stroke-opacity=".702" d="M241 321 341 221 441 321H241Z"/>
<path transform="matrix(.71926227,0,0,.71926227,.35963113,.35963113)" stroke-width="1" stroke-linecap="butt" stroke-miterlimit="10" stroke-linejoin="miter" fill="none" stroke="#999999" d="M441 331V311"/>
<path transform="matrix(.71926227,0,0,.71926227,.35963113,.35963113)" stroke-width="1" stroke-linecap="butt" stroke-miterlimit="10" stroke-linejoin="miter" fill="none" stroke="#999999" d="M401 331V311"/>
<path transform="matrix(.71926227,0,0,.71926227,.35963113,.35963113)" stroke-width="1" stroke-linecap="butt" stroke-miterlimit="10" stroke-linejoin="miter" fill="none" stroke="#999999" d="M360.8 331V311"/>
<path transform="matrix(.71926227,0,0,.71926227,.35963113,.35963113)" stroke-width="1" stroke-linecap="butt" stroke-miterlimit="10" stroke-linejoin="miter" fill="none" stroke="#999999" d="M320.8 331V311"/>
<path transform="matrix(.71926227,0,0,.71926227,.35963113,.35963113)" stroke-width="1" stroke-linecap="butt" stroke-miterlimit="10" stroke-linejoin="miter" fill="none" stroke="#999999" d="M281.2 331V311"/>
<path transform="matrix(.71926227,0,0,.71926227,.35963113,.35963113)" stroke-width="1" stroke-linecap="butt" stroke-miterlimit="10" stroke-linejoin="miter" fill="none" stroke="#999999" d="M241.2 331V311"/>
<path transform="matrix(.71926227,0,0,.71926227,.35963113,.35963113)" stroke-width="1" stroke-linecap="butt" stroke-miterlimit="10" stroke-linejoin="miter" fill="none" stroke="#999999" d="M201 331V311"/>
<path transform="matrix(.71926227,0,0,.71926227,.35963113,.35963113)" stroke-width="1" stroke-linecap="butt" stroke-miterlimit="10" stroke-linejoin="miter" fill="none" stroke="#999999" d="M161 331V311"/>
<path transform="matrix(.71926227,0,0,.71926227,.35963113,.35963113)" stroke-width="1" stroke-linecap="butt" stroke-miterlimit="10" stroke-linejoin="miter" fill="none" stroke="#999999" d="M121.2 331V311"/>
<path transform="matrix(.71926227,0,0,.71926227,.35963113,.35963113)" stroke-width="1" stroke-linecap="butt" stroke-miterlimit="10" stroke-linejoin="miter" fill="none" stroke="#999999" d="M81.2 331V311"/>
<path transform="matrix(.71926227,0,0,.71926227,.35963113,.35963113)" stroke-width="1" stroke-linecap="butt" stroke-miterlimit="10" stroke-linejoin="miter" fill="none" stroke="#999999" d="M41 331V311"/>
<path transform="matrix(.71926227,0,0,.71926227,.35963113,.35963113)" stroke-width="1" stroke-linecap="butt" stroke-miterlimit="10" stroke-linejoin="miter" fill="none" stroke="#999999" d="M1 321H483.29"/>
</g>
<g clip-path="url(#clip_3)">
<path transform="matrix(.009638355,0,0,-.0103076859,28.051228,248.83798)" d="M117 59C117 37 125.33333 26 142 26 166.66667 26 187.66667 61 205 131 209 144.33333 212.33333 151.33333 215 152 216.33333 152.66667 219.66667 153 225 153H229C235 153 239 153 241 153 243 153 244.66667 152.33333 246 151 247.33333 149.66667 248 147.33333 248 144 247.33333 140 246.33333 134.66667 245 128 243.66667 121.333339 240 108.66667 234 90 228 71.33333 221.33333 55.666669 214 43 206.66667 30.333333 196.33333 18 183 6 169.66667-6 154.33333-11.666667 137-11 113-11 90.66667-3.666667 70 11 49.333333 25.666668 38.666669 50.333333 38 85 38 93 38.333333 98.666667 39 102L104 360C146 530 167 617.6667 167 623 167 625 166.66667 626.6667 166 628 165.33333 629.3333 164 630.6667 162 632 160 633.3333 158.33333 634 157 634 155.66667 634 153 634.3333 149 635 145 635.6667 142.33333 636 141 636 139.66667 636 136.66667 636.3333 132 637 127.333339 637.6667 124 637.6667 122 637 115.333339 637 111 637 109 637 107 637 104.333339 637.3333 101 638 97.666667 638.6667 95.666667 639.6667 95 641 94.333339 642.3333 94 644.3333 94 647 94 648.3333 94.666667 653 96 661 99.333339 673.6667 103 680.6667 107 682 111 683.3333 135 685.3333 179 688 189 688.6667 200.33333 689.3333 213 690 225.66667 690.6667 235.66667 691.6667 243 693 250.33333 694.3333 254 694.6667 254 694 262 694 266 691.3333 266 686 266 678.6667 241.66667 578.6667 193 386 144.33333 193.33333 119.333339 92.333339 118 83 118 81.666667 118 79 118 75 118 71 117.666667 67.666667 117 65V59Z"/>
<path transform="matrix(.009638355,0,0,-.0103076859,28.051228,248.83798)" stroke-width="0" stroke-linecap="butt" stroke-miterlimit="4" stroke-linejoin="miter" fill="none" stroke="#000000" stroke-opacity=".0118" d="M117 59C117 37 125.33333 26 142 26 166.66667 26 187.66667 61 205 131 209 144.33333 212.33333 151.33333 215 152 216.33333 152.66667 219.66667 153 225 153H229C235 153 239 153 241 153 243 153 244.66667 152.33333 246 151 247.33333 149.66667 248 147.33333 248 144 247.33333 140 246.33333 134.66667 245 128 243.66667 121.333339 240 108.66667 234 90 228 71.33333 221.33333 55.666669 214 43 206.66667 30.333333 196.33333 18 183 6 169.66667-6 154.33333-11.666667 137-11 113-11 90.66667-3.666667 70 11 49.333333 25.666668 38.666669 50.333333 38 85 38 93 38.333333 98.666667 39 102L104 360C146 530 167 617.6667 167 623 167 625 166.66667 626.6667 166 628 165.33333 629.3333 164 630.6667 162 632 160 633.3333 158.33333 634 157 634 155.66667 634 153 634.3333 149 635 145 635.6667 142.33333 636 141 636 139.66667 636 136.66667 636.3333 132 637 127.333339 637.6667 124 637.6667 122 637 115.333339 637 111 637 109 637 107 637 104.333339 637.3333 101 638 97.666667 638.6667 95.666667 639.6667 95 641 94.333339 642.3333 94 644.3333 94 647 94 648.3333 94.666667 653 96 661 99.333339 673.6667 103 680.6667 107 682 111 683.3333 135 685.3333 179 688 189 688.6667 200.33333 689.3333 213 690 225.66667 690.6667 235.66667 691.6667 243 693 250.33333 694.3333 254 694.6667 254 694 262 694 266 691.3333 266 686 266 678.6667 241.66667 578.6667 193 386 144.33333 193.33333 119.333339 92.333339 118 83 118 81.666667 118 79 118 75 118 71 117.666667 67.666667 117 65V59Z"/>
</g>
<g clip-path="url(#clip_4)">
<path transform="matrix(.010501158,0,0,-.010342719,100.70122,248.13336)" d="M21 287C21.666666 291 22.666666 296.33335 24 303 25.333334 309.66667 29.333333 322.33335 36 341 42.666669 359.66667 49.333333 375.33335 56 388 62.666669 400.66667 73.333339 413 88 425 102.666667 437 117.333339 442.66667 132 442 146.66667 441.33335 161 439 175 435 189 431 199 425 205 417 211 409 216.33333 401.66667 221 395 225.66667 388.33335 228.33333 382 229 376L231 369C231 367.66667 231.33333 367 232 367L243 378C283 420.66667 330 442 384 442 395.33335 442 405.66667 441.33335 415 440 424.33335 438.66667 433 436.33335 441 433 449 429.66667 455.33335 426.33335 460 423 464.66667 419.66667 469.66667 415.66667 475 411 480.33335 406.33335 483.66667 402 485 398 486.33335 394 489 389.66667 493 385 497 380.33335 498.33335 376.33335 497 373 495.66667 369.66667 496.66667 366.66667 500 364 503.33335 361.33335 504 359 502 357L510 367C552 417 601.6667 442 659 442 695 442 724 433 746 415 768 397 779.3333 370.66667 780 336 780 302 767.3333 249.33335 742 178 716.6667 106.666667 704 64 704 50 704.6667 40.666666 706.3333 34.333333 709 31 711.6667 27.666666 716.6667 26 724 26 742.6667 26 760 36 776 56 792 76 805 103.33333 815 138 817 145.33333 819 149.66667 821 151 823 152.33333 828.3333 153 837 153 850.3333 153 857 150.33333 857 145 857 144.33333 855.6667 139.33333 853 130 847.6667 110.666667 840.3333 91.66667 831 73 821.6667 54.333333 806.3333 35.666669 785 17 763.6667-1.6666679 740.6667-10.666667 716-10 684.6667-10 662-1 648 17 634 35 627 53.666666 627 73 627 85.666667 639 125.666667 663 193 687 260.33335 699.3333 311 700 345 700 384.33335 685.3333 404 656 404H651C593.6667 404 545.3333 370.33335 506 303L499 291 466 157C444 69.666667 431.33335 22.666668 428 16 419.33335-2 405-11 385-11 376.33335-11 369.33335-8.666667 364-4 358.66667 .666667 355 4.6666667 353 8 351 11.333334 350 14.666666 350 18 350 25.333334 361.33335 73 384 161L420 307C422 317 423 329.66667 423 345 423 384.33335 408.33335 404 379 404H374C316.66667 404 268.33335 370.33335 229 303L222 291 189 157C167 69.666667 154.33333 22.666668 151 16 142.33333-2 128-11 108-11 99.333339-11 92.333339-9 87-5 81.666667-1 78 3 76 7 74 11 73.333339 14.333333 74 17 74 25.666668 86.666667 80.33333 112 181 138 283.6667 151 337.33335 151 342 153 352 154 361 154 369 154 393 145.66667 405 129 405 114.333339 405 102 395.66667 92 377 82 358.33335 74.333339 338 69 316 63.666669 294 59.666669 282 57 280 55.666669 278.66667 50.333337 278 41 278H27C23 282 21 285 21 287Z"/>
<path transform="matrix(.010501158,0,0,-.010342719,100.70122,248.13336)" stroke-width="0" stroke-linecap="butt" stroke-miterlimit="4" stroke-linejoin="miter" fill="none" stroke="#000000" stroke-opacity=".0118" d="M21 287C21.666666 291 22.666666 296.33335 24 303 25.333334 309.66667 29.333333 322.33335 36 341 42.666669 359.66667 49.333333 375.33335 56 388 62.666669 400.66667 73.333339 413 88 425 102.666667 437 117.333339 442.66667 132 442 146.66667 441.33335 161 439 175 435 189 431 199 425 205 417 211 409 216.33333 401.66667 221 395 225.66667 388.33335 228.33333 382 229 376L231 369C231 367.66667 231.33333 367 232 367L243 378C283 420.66667 330 442 384 442 395.33335 442 405.66667 441.33335 415 440 424.33335 438.66667 433 436.33335 441 433 449 429.66667 455.33335 426.33335 460 423 464.66667 419.66667 469.66667 415.66667 475 411 480.33335 406.33335 483.66667 402 485 398 486.33335 394 489 389.66667 493 385 497 380.33335 498.33335 376.33335 497 373 495.66667 369.66667 496.66667 366.66667 500 364 503.33335 361.33335 504 359 502 357L510 367C552 417 601.6667 442 659 442 695 442 724 433 746 415 768 397 779.3333 370.66667 780 336 780 302 767.3333 249.33335 742 178 716.6667 106.666667 704 64 704 50 704.6667 40.666666 706.3333 34.333333 709 31 711.6667 27.666666 716.6667 26 724 26 742.6667 26 760 36 776 56 792 76 805 103.33333 815 138 817 145.33333 819 149.66667 821 151 823 152.33333 828.3333 153 837 153 850.3333 153 857 150.33333 857 145 857 144.33333 855.6667 139.33333 853 130 847.6667 110.666667 840.3333 91.66667 831 73 821.6667 54.333333 806.3333 35.666669 785 17 763.6667-1.6666679 740.6667-10.666667 716-10 684.6667-10 662-1 648 17 634 35 627 53.666666 627 73 627 85.666667 639 125.666667 663 193 687 260.33335 699.3333 311 700 345 700 384.33335 685.3333 404 656 404H651C593.6667 404 545.3333 370.33335 506 303L499 291 466 157C444 69.666667 431.33335 22.666668 428 16 419.33335-2 405-11 385-11 376.33335-11 369.33335-8.666667 364-4 358.66667 .666667 355 4.6666667 353 8 351 11.333334 350 14.666666 350 18 350 25.333334 361.33335 73 384 161L420 307C422 317 423 329.66667 423 345 423 384.33335 408.33335 404 379 404H374C316.66667 404 268.33335 370.33335 229 303L222 291 189 157C167 69.666667 154.33333 22.666668 151 16 142.33333-2 128-11 108-11 99.333339-11 92.333339-9 87-5 81.666667-1 78 3 76 7 74 11 73.333339 14.333333 74 17 74 25.666668 86.666667 80.33333 112 181 138 283.6667 151 337.33335 151 342 153 352 154 361 154 369 154 393 145.66667 405 129 405 114.333339 405 102 395.66667 92 377 82 358.33335 74.333339 338 69 316 63.666669 294 59.666669 282 57 280 55.666669 278.66667 50.333337 278 41 278H27C23 282 21 285 21 287Z"/>
<path transform="matrix(.010501158,0,0,-.010342719,112.25249,248.13336)" d="M84 237C84 237 84 241.33333 84 250 84 258.66667 88.666667 265.33335 98 270H679C689 264.66667 694 258 694 250 694 242 689 235.33333 679 230H98C88.666667 234.66667 84 241.33333 84 250V237Z"/>
<path transform="matrix(.010501158,0,0,-.010342719,112.25249,248.13336)" stroke-width="0" stroke-linecap="butt" stroke-miterlimit="4" stroke-linejoin="miter" fill="none" stroke="#000000" stroke-opacity=".0118" d="M84 237C84 237 84 241.33333 84 250 84 258.66667 88.666667 265.33335 98 270H679C689 264.66667 694 258 694 250 694 242 689 235.33333 679 230H98C88.666667 234.66667 84 241.33333 84 250V237Z"/>
<path transform="matrix(.010501158,0,0,-.010342719,122.764148,248.13336)" d="M213 578 200 573C190.66667 569.6667 177.33333 566.3333 160 563 142.66667 559.6667 123.333339 557.3333 102 556H83V602H102C133.33333 603.3333 162.33333 608.3333 189 617 215.66667 625.6667 234.33333 633.6667 245 641 255.66667 648.3333 265 655.6667 273 663 274.33335 665 278.33335 666 285 666 291 666 296.66667 664 302 660V361L303 61C307.66667 56.333333 311.66667 53.333333 315 52 318.33335 50.666669 326.33335 49.333333 339 48 351.66667 46.666669 372.33335 46 401 46H427V0H416C402 2 349 3 257 3 166.33333 3 114 2 100 0H88V46H114C128.66667 46 141.33333 46 152 46 162.66667 46 171 46.333333 177 47 183 47.666669 188.33333 48.666669 193 50 197.66667 51.333333 200.33333 52 201 52 201.66667 52 203.66667 53.666669 207 57 210.33333 60.333333 212.33333 61.666669 213 61V578Z"/>
<path transform="matrix(.010501158,0,0,-.010342719,122.764148,248.13336)" stroke-width="0" stroke-linecap="butt" stroke-miterlimit="4" stroke-linejoin="miter" fill="none" stroke="#000000" stroke-opacity=".0118" d="M213 578 200 573C190.66667 569.6667 177.33333 566.3333 160 563 142.66667 559.6667 123.333339 557.3333 102 556H83V602H102C133.33333 603.3333 162.33333 608.3333 189 617 215.66667 625.6667 234.33333 633.6667 245 641 255.66667 648.3333 265 655.6667 273 663 274.33335 665 278.33335 666 285 666 291 666 296.66667 664 302 660V361L303 61C307.66667 56.333333 311.66667 53.333333 315 52 318.33335 50.666669 326.33335 49.333333 339 48 351.66667 46.666669 372.33335 46 401 46H427V0H416C402 2 349 3 257 3 166.33333 3 114 2 100 0H88V46H114C128.66667 46 141.33333 46 152 46 162.66667 46 171 46.333333 177 47 183 47.666669 188.33333 48.666669 193 50 197.66667 51.333333 200.33333 52 201 52 201.66667 52 203.66667 53.666669 207 57 210.33333 60.333333 212.33333 61.666669 213 61V578Z"/>
</g>
<g clip-path="url(#clip_5)">
<path transform="matrix(.010643608,0,0,-.010323231,140.9754,248.13286)" d="M21 287C21.666666 291 22.666666 296.33335 24 303 25.333334 309.66667 29.333333 322.33335 36 341 42.666669 359.66667 49.333333 375.33335 56 388 62.666669 400.66667 73.333339 413 88 425 102.666667 437 117.333339 442.66667 132 442 146.66667 441.33335 161 439 175 435 189 431 199 425 205 417 211 409 216.33333 401.66667 221 395 225.66667 388.33335 228.33333 382 229 376L231 369C231 367.66667 231.33333 367 232 367L243 378C283 420.66667 330 442 384 442 395.33335 442 405.66667 441.33335 415 440 424.33335 438.66667 433 436.33335 441 433 449 429.66667 455.33335 426.33335 460 423 464.66667 419.66667 469.66667 415.66667 475 411 480.33335 406.33335 483.66667 402 485 398 486.33335 394 489 389.66667 493 385 497 380.33335 498.33335 376.33335 497 373 495.66667 369.66667 496.66667 366.66667 500 364 503.33335 361.33335 504 359 502 357L510 367C552 417 601.6667 442 659 442 695 442 724 433 746 415 768 397 779.3333 370.66667 780 336 780 302 767.3333 249.33335 742 178 716.6667 106.666667 704 64 704 50 704.6667 40.666666 706.3333 34.333333 709 31 711.6667 27.666666 716.6667 26 724 26 742.6667 26 760 36 776 56 792 76 805 103.33333 815 138 817 145.33333 819 149.66667 821 151 823 152.33333 828.3333 153 837 153 850.3333 153 857 150.33333 857 145 857 144.33333 855.6667 139.33333 853 130 847.6667 110.666667 840.3333 91.66667 831 73 821.6667 54.333333 806.3333 35.666669 785 17 763.6667-1.6666679 740.6667-10.666667 716-10 684.6667-10 662-1 648 17 634 35 627 53.666666 627 73 627 85.666667 639 125.666667 663 193 687 260.33335 699.3333 311 700 345 700 384.33335 685.3333 404 656 404H651C593.6667 404 545.3333 370.33335 506 303L499 291 466 157C444 69.666667 431.33335 22.666668 428 16 419.33335-2 405-11 385-11 376.33335-11 369.33335-8.666667 364-4 358.66667 .666667 355 4.6666667 353 8 351 11.333334 350 14.666666 350 18 350 25.333334 361.33335 73 384 161L420 307C422 317 423 329.66667 423 345 423 384.33335 408.33335 404 379 404H374C316.66667 404 268.33335 370.33335 229 303L222 291 189 157C167 69.666667 154.33333 22.666668 151 16 142.33333-2 128-11 108-11 99.333339-11 92.333339-9 87-5 81.666667-1 78 3 76 7 74 11 73.333339 14.333333 74 17 74 25.666668 86.666667 80.33333 112 181 138 283.6667 151 337.33335 151 342 153 352 154 361 154 369 154 393 145.66667 405 129 405 114.333339 405 102 395.66667 92 377 82 358.33335 74.333339 338 69 316 63.666669 294 59.666669 282 57 280 55.666669 278.66667 50.333337 278 41 278H27C23 282 21 285 21 287Z"/>
<path transform="matrix(.010643608,0,0,-.010323231,140.9754,248.13286)" stroke-width="0" stroke-linecap="butt" stroke-miterlimit="4" stroke-linejoin="miter" fill="none" stroke="#000000" stroke-opacity=".0118" d="M21 287C21.666666 291 22.666666 296.33335 24 303 25.333334 309.66667 29.333333 322.33335 36 341 42.666669 359.66667 49.333333 375.33335 56 388 62.666669 400.66667 73.333339 413 88 425 102.666667 437 117.333339 442.66667 132 442 146.66667 441.33335 161 439 175 435 189 431 199 425 205 417 211 409 216.33333 401.66667 221 395 225.66667 388.33335 228.33333 382 229 376L231 369C231 367.66667 231.33333 367 232 367L243 378C283 420.66667 330 442 384 442 395.33335 442 405.66667 441.33335 415 440 424.33335 438.66667 433 436.33335 441 433 449 429.66667 455.33335 426.33335 460 423 464.66667 419.66667 469.66667 415.66667 475 411 480.33335 406.33335 483.66667 402 485 398 486.33335 394 489 389.66667 493 385 497 380.33335 498.33335 376.33335 497 373 495.66667 369.66667 496.66667 366.66667 500 364 503.33335 361.33335 504 359 502 357L510 367C552 417 601.6667 442 659 442 695 442 724 433 746 415 768 397 779.3333 370.66667 780 336 780 302 767.3333 249.33335 742 178 716.6667 106.666667 704 64 704 50 704.6667 40.666666 706.3333 34.333333 709 31 711.6667 27.666666 716.6667 26 724 26 742.6667 26 760 36 776 56 792 76 805 103.33333 815 138 817 145.33333 819 149.66667 821 151 823 152.33333 828.3333 153 837 153 850.3333 153 857 150.33333 857 145 857 144.33333 855.6667 139.33333 853 130 847.6667 110.666667 840.3333 91.66667 831 73 821.6667 54.333333 806.3333 35.666669 785 17 763.6667-1.6666679 740.6667-10.666667 716-10 684.6667-10 662-1 648 17 634 35 627 53.666666 627 73 627 85.666667 639 125.666667 663 193 687 260.33335 699.3333 311 700 345 700 384.33335 685.3333 404 656 404H651C593.6667 404 545.3333 370.33335 506 303L499 291 466 157C444 69.666667 431.33335 22.666668 428 16 419.33335-2 405-11 385-11 376.33335-11 369.33335-8.666667 364-4 358.66667 .666667 355 4.6666667 353 8 351 11.333334 350 14.666666 350 18 350 25.333334 361.33335 73 384 161L420 307C422 317 423 329.66667 423 345 423 384.33335 408.33335 404 379 404H374C316.66667 404 268.33335 370.33335 229 303L222 291 189 157C167 69.666667 154.33333 22.666668 151 16 142.33333-2 128-11 108-11 99.333339-11 92.333339-9 87-5 81.666667-1 78 3 76 7 74 11 73.333339 14.333333 74 17 74 25.666668 86.666667 80.33333 112 181 138 283.6667 151 337.33335 151 342 153 352 154 361 154 369 154 393 145.66667 405 129 405 114.333339 405 102 395.66667 92 377 82 358.33335 74.333339 338 69 316 63.666669 294 59.666669 282 57 280 55.666669 278.66667 50.333337 278 41 278H27C23 282 21 285 21 287Z"/>
</g>
<g clip-path="url(#clip_6)">
<path transform="matrix(.010501158,0,0,-.010342719,158.24219,248.13336)" d="M21 287C21.666666 291 22.666666 296.33335 24 303 25.333334 309.66667 29.333333 322.33335 36 341 42.666669 359.66667 49.333333 375.33335 56 388 62.666669 400.66667 73.333339 413 88 425 102.666667 437 117.333339 442.66667 132 442 146.66667 441.33335 161 439 175 435 189 431 199 425 205 417 211 409 216.33333 401.66667 221 395 225.66667 388.33335 228.33333 382 229 376L231 369C231 367.66667 231.33333 367 232 367L243 378C283 420.66667 330 442 384 442 395.33335 442 405.66667 441.33335 415 440 424.33335 438.66667 433 436.33335 441 433 449 429.66667 455.33335 426.33335 460 423 464.66667 419.66667 469.66667 415.66667 475 411 480.33335 406.33335 483.66667 402 485 398 486.33335 394 489 389.66667 493 385 497 380.33335 498.33335 376.33335 497 373 495.66667 369.66667 496.66667 366.66667 500 364 503.33335 361.33335 504 359 502 357L510 367C552 417 601.6667 442 659 442 695 442 724 433 746 415 768 397 779.3333 370.66667 780 336 780 302 767.3333 249.33335 742 178 716.6667 106.666667 704 64 704 50 704.6667 40.666666 706.3333 34.333333 709 31 711.6667 27.666666 716.6667 26 724 26 742.6667 26 760 36 776 56 792 76 805 103.33333 815 138 817 145.33333 819 149.66667 821 151 823 152.33333 828.3333 153 837 153 850.3333 153 857 150.33333 857 145 857 144.33333 855.6667 139.33333 853 130 847.6667 110.666667 840.3333 91.66667 831 73 821.6667 54.333333 806.3333 35.666669 785 17 763.6667-1.6666679 740.6667-10.666667 716-10 684.6667-10 662-1 648 17 634 35 627 53.666666 627 73 627 85.666667 639 125.666667 663 193 687 260.33335 699.3333 311 700 345 700 384.33335 685.3333 404 656 404H651C593.6667 404 545.3333 370.33335 506 303L499 291 466 157C444 69.666667 431.33335 22.666668 428 16 419.33335-2 405-11 385-11 376.33335-11 369.33335-8.666667 364-4 358.66667 .666667 355 4.6666667 353 8 351 11.333334 350 14.666666 350 18 350 25.333334 361.33335 73 384 161L420 307C422 317 423 329.66667 423 345 423 384.33335 408.33335 404 379 404H374C316.66667 404 268.33335 370.33335 229 303L222 291 189 157C167 69.666667 154.33333 22.666668 151 16 142.33333-2 128-11 108-11 99.333339-11 92.333339-9 87-5 81.666667-1 78 3 76 7 74 11 73.333339 14.333333 74 17 74 25.666668 86.666667 80.33333 112 181 138 283.6667 151 337.33335 151 342 153 352 154 361 154 369 154 393 145.66667 405 129 405 114.333339 405 102 395.66667 92 377 82 358.33335 74.333339 338 69 316 63.666669 294 59.666669 282 57 280 55.666669 278.66667 50.333337 278 41 278H27C23 282 21 285 21 287Z"/>
<path transform="matrix(.010501158,0,0,-.010342719,158.24219,248.13336)" stroke-width="0" stroke-linecap="butt" stroke-miterlimit="4" stroke-linejoin="miter" fill="none" stroke="#000000" stroke-opacity=".0118" d="M21 287C21.666666 291 22.666666 296.33335 24 303 25.333334 309.66667 29.333333 322.33335 36 341 42.666669 359.66667 49.333333 375.33335 56 388 62.666669 400.66667 73.333339 413 88 425 102.666667 437 117.333339 442.66667 132 442 146.66667 441.33335 161 439 175 435 189 431 199 425 205 417 211 409 216.33333 401.66667 221 395 225.66667 388.33335 228.33333 382 229 376L231 369C231 367.66667 231.33333 367 232 367L243 378C283 420.66667 330 442 384 442 395.33335 442 405.66667 441.33335 415 440 424.33335 438.66667 433 436.33335 441 433 449 429.66667 455.33335 426.33335 460 423 464.66667 419.66667 469.66667 415.66667 475 411 480.33335 406.33335 483.66667 402 485 398 486.33335 394 489 389.66667 493 385 497 380.33335 498.33335 376.33335 497 373 495.66667 369.66667 496.66667 366.66667 500 364 503.33335 361.33335 504 359 502 357L510 367C552 417 601.6667 442 659 442 695 442 724 433 746 415 768 397 779.3333 370.66667 780 336 780 302 767.3333 249.33335 742 178 716.6667 106.666667 704 64 704 50 704.6667 40.666666 706.3333 34.333333 709 31 711.6667 27.666666 716.6667 26 724 26 742.6667 26 760 36 776 56 792 76 805 103.33333 815 138 817 145.33333 819 149.66667 821 151 823 152.33333 828.3333 153 837 153 850.3333 153 857 150.33333 857 145 857 144.33333 855.6667 139.33333 853 130 847.6667 110.666667 840.3333 91.66667 831 73 821.6667 54.333333 806.3333 35.666669 785 17 763.6667-1.6666679 740.6667-10.666667 716-10 684.6667-10 662-1 648 17 634 35 627 53.666666 627 73 627 85.666667 639 125.666667 663 193 687 260.33335 699.3333 311 700 345 700 384.33335 685.3333 404 656 404H651C593.6667 404 545.3333 370.33335 506 303L499 291 466 157C444 69.666667 431.33335 22.666668 428 16 419.33335-2 405-11 385-11 376.33335-11 369.33335-8.666667 364-4 358.66667 .666667 355 4.6666667 353 8 351 11.333334 350 14.666666 350 18 350 25.333334 361.33335 73 384 161L420 307C422 317 423 329.66667 423 345 423 384.33335 408.33335 404 379 404H374C316.66667 404 268.33335 370.33335 229 303L222 291 189 157C167 69.666667 154.33333 22.666668 151 16 142.33333-2 128-11 108-11 99.333339-11 92.333339-9 87-5 81.666667-1 78 3 76 7 74 11 73.333339 14.333333 74 17 74 25.666668 86.666667 80.33333 112 181 138 283.6667 151 337.33335 151 342 153 352 154 361 154 369 154 393 145.66667 405 129 405 114.333339 405 102 395.66667 92 377 82 358.33335 74.333339 338 69 316 63.666669 294 59.666669 282 57 280 55.666669 278.66667 50.333337 278 41 278H27C23 282 21 285 21 287Z"/>
<path transform="matrix(.010501158,0,0,-.010342719,169.79346,248.13336)" d="M56 237C56 237 56 241.33333 56 250 56 258.66667 60.666666 265.33335 70 270H369V420L370 570C376.66667 578.6667 383 583 389 583 397.66667 583 404.33335 578 409 568V270H707C717 264.66667 722 258 722 250 722 242 717 235.33333 707 230H409V-68C403.66667-77.333339 397.66667-82 391-82H389 387C379-82 373-77.333339 369-68V230H70C60.666666 234.66667 56 241.33333 56 250V237Z"/>
<path transform="matrix(.010501158,0,0,-.010342719,169.79346,248.13336)" stroke-width="0" stroke-linecap="butt" stroke-miterlimit="4" stroke-linejoin="miter" fill="none" stroke="#000000" stroke-opacity=".0118" d="M56 237C56 237 56 241.33333 56 250 56 258.66667 60.666666 265.33335 70 270H369V420L370 570C376.66667 578.6667 383 583 389 583 397.66667 583 404.33335 578 409 568V270H707C717 264.66667 722 258 722 250 722 242 717 235.33333 707 230H409V-68C403.66667-77.333339 397.66667-82 391-82H389 387C379-82 373-77.333339 369-68V230H70C60.666666 234.66667 56 241.33333 56 250V237Z"/>
<path transform="matrix(.010501158,0,0,-.010342719,180.30513,248.13336)" d="M213 578 200 573C190.66667 569.6667 177.33333 566.3333 160 563 142.66667 559.6667 123.333339 557.3333 102 556H83V602H102C133.33333 603.3333 162.33333 608.3333 189 617 215.66667 625.6667 234.33333 633.6667 245 641 255.66667 648.3333 265 655.6667 273 663 274.33335 665 278.33335 666 285 666 291 666 296.66667 664 302 660V361L303 61C307.66667 56.333333 311.66667 53.333333 315 52 318.33335 50.666669 326.33335 49.333333 339 48 351.66667 46.666669 372.33335 46 401 46H427V0H416C402 2 349 3 257 3 166.33333 3 114 2 100 0H88V46H114C128.66667 46 141.33333 46 152 46 162.66667 46 171 46.333333 177 47 183 47.666669 188.33333 48.666669 193 50 197.66667 51.333333 200.33333 52 201 52 201.66667 52 203.66667 53.666669 207 57 210.33333 60.333333 212.33333 61.666669 213 61V578Z"/>
<path transform="matrix(.010501158,0,0,-.010342719,180.30513,248.13336)" stroke-width="0" stroke-linecap="butt" stroke-miterlimit="4" stroke-linejoin="miter" fill="none" stroke="#000000" stroke-opacity=".0118" d="M213 578 200 573C190.66667 569.6667 177.33333 566.3333 160 563 142.66667 559.6667 123.333339 557.3333 102 556H83V602H102C133.33333 603.3333 162.33333 608.3333 189 617 215.66667 625.6667 234.33333 633.6667 245 641 255.66667 648.3333 265 655.6667 273 663 274.33335 665 278.33335 666 285 666 291 666 296.66667 664 302 660V361L303 61C307.66667 56.333333 311.66667 53.333333 315 52 318.33335 50.666669 326.33335 49.333333 339 48 351.66667 46.666669 372.33335 46 401 46H427V0H416C402 2 349 3 257 3 166.33333 3 114 2 100 0H88V46H114C128.66667 46 141.33333 46 152 46 162.66667 46 171 46.333333 177 47 183 47.666669 188.33333 48.666669 193 50 197.66667 51.333333 200.33333 52 201 52 201.66667 52 203.66667 53.666669 207 57 210.33333 60.333333 212.33333 61.666669 213 61V578Z"/>
</g>
<g clip-path="url(#clip_7)">
<path transform="matrix(.011151354,0,0,-.010315249,315.03684,248.1312)" d="M21 287C21.666666 289 22.333334 291.66667 23 295 23.666666 298.33335 25.333334 305.66667 28 317 30.666666 328.33335 34 338.66667 38 348 42 357.33335 47 368.33335 53 381 59 393.66667 65.666667 403.66667 73 411 80.333339 418.33335 89 425.66667 99 433 109 440.33335 120 443.33335 132 442 151.33333 442 168.33333 438 183 430 197.66667 422 208 414.66667 214 408 220 401.33335 223.66667 394.66667 225 388 226.33333 384 227.33333 382 228 382 228.66667 382 231.33333 384.33335 236 389 268 423.66667 305 441 347 441H350C382 441 406 427.33335 422 400 427.33335 387.33335 430 375 430 363 430 343 425.66667 327 417 315 408.33335 303 399.66667 295.33335 391 292 382.33335 288.66667 374 287.33335 366 288 352.66667 288 342 291.66667 334 299 326 306.33335 322 316 322 328 322 360 340.66667 381.33335 378 392 363.33335 400.66667 351.33335 405 342 405 304.66667 405 270.33335 380.33335 239 331 232.33333 320.33335 227.33333 309.33335 224 298 220.66667 286.66667 209.33333 242.33335 190 165 167.33333 71.666667 154.33333 22 151 16 142.33333-2 128-11 108-11 99.333339-11 92.333339-9 87-5 81.666667-1 78 3 76 7 74 11 73.333339 14.333333 74 17 74 25.666668 87.33333 83 114 189 140.66667 295 154 354 154 366 154 392 145.33333 405 128 405 114 405 102 395.66667 92 377 82 358.33335 74 338 68 316 62 294 58.333333 282 57 280 55.666669 278.66667 50.333337 278 41 278H27C23 282 21 285 21 287Z"/>
<path transform="matrix(.011151354,0,0,-.010315249,315.03684,248.1312)" stroke-width="0" stroke-linecap="butt" stroke-miterlimit="4" stroke-linejoin="miter" fill="none" stroke="#000000" stroke-opacity=".0118" d="M21 287C21.666666 289 22.333334 291.66667 23 295 23.666666 298.33335 25.333334 305.66667 28 317 30.666666 328.33335 34 338.66667 38 348 42 357.33335 47 368.33335 53 381 59 393.66667 65.666667 403.66667 73 411 80.333339 418.33335 89 425.66667 99 433 109 440.33335 120 443.33335 132 442 151.33333 442 168.33333 438 183 430 197.66667 422 208 414.66667 214 408 220 401.33335 223.66667 394.66667 225 388 226.33333 384 227.33333 382 228 382 228.66667 382 231.33333 384.33335 236 389 268 423.66667 305 441 347 441H350C382 441 406 427.33335 422 400 427.33335 387.33335 430 375 430 363 430 343 425.66667 327 417 315 408.33335 303 399.66667 295.33335 391 292 382.33335 288.66667 374 287.33335 366 288 352.66667 288 342 291.66667 334 299 326 306.33335 322 316 322 328 322 360 340.66667 381.33335 378 392 363.33335 400.66667 351.33335 405 342 405 304.66667 405 270.33335 380.33335 239 331 232.33333 320.33335 227.33333 309.33335 224 298 220.66667 286.66667 209.33333 242.33335 190 165 167.33333 71.666667 154.33333 22 151 16 142.33333-2 128-11 108-11 99.333339-11 92.333339-9 87-5 81.666667-1 78 3 76 7 74 11 73.333339 14.333333 74 17 74 25.666668 87.33333 83 114 189 140.66667 295 154 354 154 366 154 392 145.33333 405 128 405 114 405 102 395.66667 92 377 82 358.33335 74 338 68 316 62 294 58.333333 282 57 280 55.666669 278.66667 50.333337 278 41 278H27C23 282 21 285 21 287Z"/>
</g>
<g clip-path="url(#clip_8)">
<path transform="matrix(.71926227,0,0,.71926227,.35963113,.35963113)" stroke-width="1" stroke-linecap="butt" stroke-miterlimit="10" stroke-linejoin="miter" fill="none" stroke="#999999" d="M441.86 91V71"/>
<path transform="matrix(.71926227,0,0,.71926227,.35963113,.35963113)" stroke-width="1" stroke-linecap="butt" stroke-miterlimit="10" stroke-linejoin="miter" fill="none" stroke="#999999" d="M401.86 91V71"/>
<path transform="matrix(.71926227,0,0,.71926227,.35963113,.35963113)" stroke-width="1" stroke-linecap="butt" stroke-miterlimit="10" stroke-linejoin="miter" fill="none" stroke="#999999" d="M361.66 91V71"/>
<path transform="matrix(.71926227,0,0,.71926227,.35963113,.35963113)" stroke-width="1" stroke-linecap="butt" stroke-miterlimit="10" stroke-linejoin="miter" fill="none" stroke="#999999" d="M321.66 91V71"/>
<path transform="matrix(.71926227,0,0,.71926227,.35963113,.35963113)" stroke-width="1" stroke-linecap="butt" stroke-miterlimit="10" stroke-linejoin="miter" fill="none" stroke="#999999" d="M282.06 91V71"/>
<path transform="matrix(.71926227,0,0,.71926227,.35963113,.35963113)" stroke-width="1" stroke-linecap="butt" stroke-miterlimit="10" stroke-linejoin="miter" fill="none" stroke="#999999" d="M242.06 91V71"/>
<path transform="matrix(.71926227,0,0,.71926227,.35963113,.35963113)" stroke-width="1" stroke-linecap="butt" stroke-miterlimit="10" stroke-linejoin="miter" fill="none" stroke="#999999" d="M201.86 91V71"/>
<path transform="matrix(.71926227,0,0,.71926227,.35963113,.35963113)" stroke-width="1" stroke-linecap="butt" stroke-miterlimit="10" stroke-linejoin="miter" fill="none" stroke="#999999" d="M161.86 91V71"/>
<path transform="matrix(.71926227,0,0,.71926227,.35963113,.35963113)" stroke-width="1" stroke-linecap="butt" stroke-miterlimit="10" stroke-linejoin="miter" fill="none" stroke="#999999" d="M122.06 91V71"/>
<path transform="matrix(.71926227,0,0,.71926227,.35963113,.35963113)" stroke-width="1" stroke-linecap="butt" stroke-miterlimit="10" stroke-linejoin="miter" fill="none" stroke="#999999" d="M82.06 91V71"/>
<path transform="matrix(.71926227,0,0,.71926227,.35963113,.35963113)" stroke-width="1" stroke-linecap="butt" stroke-miterlimit="10" stroke-linejoin="miter" fill="none" stroke="#999999" d="M41.86 91V71"/>
<path transform="matrix(.71926227,0,0,.71926227,.35963113,.35963113)" stroke-width="1" stroke-linecap="butt" stroke-miterlimit="10" stroke-linejoin="miter" fill="none" stroke="#999999" d="M1.86 81H484.15"/>
</g>
<g clip-path="url(#clip_9)">
<path transform="matrix(.009638355,0,0,-.0103076859,27.331967,76.21504)" d="M117 59C117 37 125.33333 26 142 26 166.66667 26 187.66667 61 205 131 209 144.33333 212.33333 151.33333 215 152 216.33333 152.66667 219.66667 153 225 153H229C235 153 239 153 241 153 243 153 244.66667 152.33333 246 151 247.33333 149.66667 248 147.33333 248 144 247.33333 140 246.33333 134.66667 245 128 243.66667 121.333339 240 108.66667 234 90 228 71.33333 221.33333 55.666669 214 43 206.66667 30.333333 196.33333 18 183 6 169.66667-6 154.33333-11.666667 137-11 113-11 90.66667-3.666667 70 11 49.333333 25.666668 38.666669 50.333333 38 85 38 93 38.333333 98.666667 39 102L104 360C146 530 167 617.6667 167 623 167 625 166.66667 626.6667 166 628 165.33333 629.3333 164 630.6667 162 632 160 633.3333 158.33333 634 157 634 155.66667 634 153 634.3333 149 635 145 635.6667 142.33333 636 141 636 139.66667 636 136.66667 636.3333 132 637 127.333339 637.6667 124 637.6667 122 637 115.333339 637 111 637 109 637 107 637 104.333339 637.3333 101 638 97.666667 638.6667 95.666667 639.6667 95 641 94.333339 642.3333 94 644.3333 94 647 94 648.3333 94.666667 653 96 661 99.333339 673.6667 103 680.6667 107 682 111 683.3333 135 685.3333 179 688 189 688.6667 200.33333 689.3333 213 690 225.66667 690.6667 235.66667 691.6667 243 693 250.33333 694.3333 254 694.6667 254 694 262 694 266 691.3333 266 686 266 678.6667 241.66667 578.6667 193 386 144.33333 193.33333 119.333339 92.333339 118 83 118 81.666667 118 79 118 75 118 71 117.666667 67.666667 117 65V59Z"/>
<path transform="matrix(.009638355,0,0,-.0103076859,27.331967,76.21504)" stroke-width="0" stroke-linecap="butt" stroke-miterlimit="4" stroke-linejoin="miter" fill="none" stroke="#000000" stroke-opacity=".0118" d="M117 59C117 37 125.33333 26 142 26 166.66667 26 187.66667 61 205 131 209 144.33333 212.33333 151.33333 215 152 216.33333 152.66667 219.66667 153 225 153H229C235 153 239 153 241 153 243 153 244.66667 152.33333 246 151 247.33333 149.66667 248 147.33333 248 144 247.33333 140 246.33333 134.66667 245 128 243.66667 121.333339 240 108.66667 234 90 228 71.33333 221.33333 55.666669 214 43 206.66667 30.333333 196.33333 18 183 6 169.66667-6 154.33333-11.666667 137-11 113-11 90.66667-3.666667 70 11 49.333333 25.666668 38.666669 50.333333 38 85 38 93 38.333333 98.666667 39 102L104 360C146 530 167 617.6667 167 623 167 625 166.66667 626.6667 166 628 165.33333 629.3333 164 630.6667 162 632 160 633.3333 158.33333 634 157 634 155.66667 634 153 634.3333 149 635 145 635.6667 142.33333 636 141 636 139.66667 636 136.66667 636.3333 132 637 127.333339 637.6667 124 637.6667 122 637 115.333339 637 111 637 109 637 107 637 104.333339 637.3333 101 638 97.666667 638.6667 95.666667 639.6667 95 641 94.333339 642.3333 94 644.3333 94 647 94 648.3333 94.666667 653 96 661 99.333339 673.6667 103 680.6667 107 682 111 683.3333 135 685.3333 179 688 189 688.6667 200.33333 689.3333 213 690 225.66667 690.6667 235.66667 691.6667 243 693 250.33333 694.3333 254 694.6667 254 694 262 694 266 691.3333 266 686 266 678.6667 241.66667 578.6667 193 386 144.33333 193.33333 119.333339 92.333339 118 83 118 81.666667 118 79 118 75 118 71 117.666667 67.666667 117 65V59Z"/>
</g>
<g clip-path="url(#clip_10)">
<path transform="matrix(.010501158,0,0,-.010342719,99.98196,75.51042)" d="M21 287C21.666666 291 22.666666 296.33335 24 303 25.333334 309.66667 29.333333 322.33335 36 341 42.666669 359.66667 49.333333 375.33335 56 388 62.666669 400.66667 73.333339 413 88 425 102.666667 437 117.333339 442.66667 132 442 146.66667 441.33335 161 439 175 435 189 431 199 425 205 417 211 409 216.33333 401.66667 221 395 225.66667 388.33335 228.33333 382 229 376L231 369C231 367.66667 231.33333 367 232 367L243 378C283 420.66667 330 442 384 442 395.33335 442 405.66667 441.33335 415 440 424.33335 438.66667 433 436.33335 441 433 449 429.66667 455.33335 426.33335 460 423 464.66667 419.66667 469.66667 415.66667 475 411 480.33335 406.33335 483.66667 402 485 398 486.33335 394 489 389.66667 493 385 497 380.33335 498.33335 376.33335 497 373 495.66667 369.66667 496.66667 366.66667 500 364 503.33335 361.33335 504 359 502 357L510 367C552 417 601.6667 442 659 442 695 442 724 433 746 415 768 397 779.3333 370.66667 780 336 780 302 767.3333 249.33335 742 178 716.6667 106.666667 704 64 704 50 704.6667 40.666666 706.3333 34.333333 709 31 711.6667 27.666666 716.6667 26 724 26 742.6667 26 760 36 776 56 792 76 805 103.33333 815 138 817 145.33333 819 149.66667 821 151 823 152.33333 828.3333 153 837 153 850.3333 153 857 150.33333 857 145 857 144.33333 855.6667 139.33333 853 130 847.6667 110.666667 840.3333 91.66667 831 73 821.6667 54.333333 806.3333 35.666669 785 17 763.6667-1.6666679 740.6667-10.666667 716-10 684.6667-10 662-1 648 17 634 35 627 53.666666 627 73 627 85.666667 639 125.666667 663 193 687 260.33335 699.3333 311 700 345 700 384.33335 685.3333 404 656 404H651C593.6667 404 545.3333 370.33335 506 303L499 291 466 157C444 69.666667 431.33335 22.666668 428 16 419.33335-2 405-11 385-11 376.33335-11 369.33335-8.666667 364-4 358.66667 .666667 355 4.6666667 353 8 351 11.333334 350 14.666666 350 18 350 25.333334 361.33335 73 384 161L420 307C422 317 423 329.66667 423 345 423 384.33335 408.33335 404 379 404H374C316.66667 404 268.33335 370.33335 229 303L222 291 189 157C167 69.666667 154.33333 22.666668 151 16 142.33333-2 128-11 108-11 99.333339-11 92.333339-9 87-5 81.666667-1 78 3 76 7 74 11 73.333339 14.333333 74 17 74 25.666668 86.666667 80.33333 112 181 138 283.6667 151 337.33335 151 342 153 352 154 361 154 369 154 393 145.66667 405 129 405 114.333339 405 102 395.66667 92 377 82 358.33335 74.333339 338 69 316 63.666669 294 59.666669 282 57 280 55.666669 278.66667 50.333337 278 41 278H27C23 282 21 285 21 287Z"/>
<path transform="matrix(.010501158,0,0,-.010342719,99.98196,75.51042)" stroke-width="0" stroke-linecap="butt" stroke-miterlimit="4" stroke-linejoin="miter" fill="none" stroke="#000000" stroke-opacity=".0118" d="M21 287C21.666666 291 22.666666 296.33335 24 303 25.333334 309.66667 29.333333 322.33335 36 341 42.666669 359.66667 49.333333 375.33335 56 388 62.666669 400.66667 73.333339 413 88 425 102.666667 437 117.333339 442.66667 132 442 146.66667 441.33335 161 439 175 435 189 431 199 425 205 417 211 409 216.33333 401.66667 221 395 225.66667 388.33335 228.33333 382 229 376L231 369C231 367.66667 231.33333 367 232 367L243 378C283 420.66667 330 442 384 442 395.33335 442 405.66667 441.33335 415 440 424.33335 438.66667 433 436.33335 441 433 449 429.66667 455.33335 426.33335 460 423 464.66667 419.66667 469.66667 415.66667 475 411 480.33335 406.33335 483.66667 402 485 398 486.33335 394 489 389.66667 493 385 497 380.33335 498.33335 376.33335 497 373 495.66667 369.66667 496.66667 366.66667 500 364 503.33335 361.33335 504 359 502 357L510 367C552 417 601.6667 442 659 442 695 442 724 433 746 415 768 397 779.3333 370.66667 780 336 780 302 767.3333 249.33335 742 178 716.6667 106.666667 704 64 704 50 704.6667 40.666666 706.3333 34.333333 709 31 711.6667 27.666666 716.6667 26 724 26 742.6667 26 760 36 776 56 792 76 805 103.33333 815 138 817 145.33333 819 149.66667 821 151 823 152.33333 828.3333 153 837 153 850.3333 153 857 150.33333 857 145 857 144.33333 855.6667 139.33333 853 130 847.6667 110.666667 840.3333 91.66667 831 73 821.6667 54.333333 806.3333 35.666669 785 17 763.6667-1.6666679 740.6667-10.666667 716-10 684.6667-10 662-1 648 17 634 35 627 53.666666 627 73 627 85.666667 639 125.666667 663 193 687 260.33335 699.3333 311 700 345 700 384.33335 685.3333 404 656 404H651C593.6667 404 545.3333 370.33335 506 303L499 291 466 157C444 69.666667 431.33335 22.666668 428 16 419.33335-2 405-11 385-11 376.33335-11 369.33335-8.666667 364-4 358.66667 .666667 355 4.6666667 353 8 351 11.333334 350 14.666666 350 18 350 25.333334 361.33335 73 384 161L420 307C422 317 423 329.66667 423 345 423 384.33335 408.33335 404 379 404H374C316.66667 404 268.33335 370.33335 229 303L222 291 189 157C167 69.666667 154.33333 22.666668 151 16 142.33333-2 128-11 108-11 99.333339-11 92.333339-9 87-5 81.666667-1 78 3 76 7 74 11 73.333339 14.333333 74 17 74 25.666668 86.666667 80.33333 112 181 138 283.6667 151 337.33335 151 342 153 352 154 361 154 369 154 393 145.66667 405 129 405 114.333339 405 102 395.66667 92 377 82 358.33335 74.333339 338 69 316 63.666669 294 59.666669 282 57 280 55.666669 278.66667 50.333337 278 41 278H27C23 282 21 285 21 287Z"/>
<path transform="matrix(.010501158,0,0,-.010342719,111.53323,75.51042)" d="M84 237C84 237 84 241.33333 84 250 84 258.66667 88.666667 265.33335 98 270H679C689 264.66667 694 258 694 250 694 242 689 235.33333 679 230H98C88.666667 234.66667 84 241.33333 84 250V237Z"/>
<path transform="matrix(.010501158,0,0,-.010342719,111.53323,75.51042)" stroke-width="0" stroke-linecap="butt" stroke-miterlimit="4" stroke-linejoin="miter" fill="none" stroke="#000000" stroke-opacity=".0118" d="M84 237C84 237 84 241.33333 84 250 84 258.66667 88.666667 265.33335 98 270H679C689 264.66667 694 258 694 250 694 242 689 235.33333 679 230H98C88.666667 234.66667 84 241.33333 84 250V237Z"/>
<path transform="matrix(.010501158,0,0,-.010342719,122.04489,75.51042)" d="M213 578 200 573C190.66667 569.6667 177.33333 566.3333 160 563 142.66667 559.6667 123.333339 557.3333 102 556H83V602H102C133.33333 603.3333 162.33333 608.3333 189 617 215.66667 625.6667 234.33333 633.6667 245 641 255.66667 648.3333 265 655.6667 273 663 274.33335 665 278.33335 666 285 666 291 666 296.66667 664 302 660V361L303 61C307.66667 56.333333 311.66667 53.333333 315 52 318.33335 50.666669 326.33335 49.333333 339 48 351.66667 46.666669 372.33335 46 401 46H427V0H416C402 2 349 3 257 3 166.33333 3 114 2 100 0H88V46H114C128.66667 46 141.33333 46 152 46 162.66667 46 171 46.333333 177 47 183 47.666669 188.33333 48.666669 193 50 197.66667 51.333333 200.33333 52 201 52 201.66667 52 203.66667 53.666669 207 57 210.33333 60.333333 212.33333 61.666669 213 61V578Z"/>
<path transform="matrix(.010501158,0,0,-.010342719,122.04489,75.51042)" stroke-width="0" stroke-linecap="butt" stroke-miterlimit="4" stroke-linejoin="miter" fill="none" stroke="#000000" stroke-opacity=".0118" d="M213 578 200 573C190.66667 569.6667 177.33333 566.3333 160 563 142.66667 559.6667 123.333339 557.3333 102 556H83V602H102C133.33333 603.3333 162.33333 608.3333 189 617 215.66667 625.6667 234.33333 633.6667 245 641 255.66667 648.3333 265 655.6667 273 663 274.33335 665 278.33335 666 285 666 291 666 296.66667 664 302 660V361L303 61C307.66667 56.333333 311.66667 53.333333 315 52 318.33335 50.666669 326.33335 49.333333 339 48 351.66667 46.666669 372.33335 46 401 46H427V0H416C402 2 349 3 257 3 166.33333 3 114 2 100 0H88V46H114C128.66667 46 141.33333 46 152 46 162.66667 46 171 46.333333 177 47 183 47.666669 188.33333 48.666669 193 50 197.66667 51.333333 200.33333 52 201 52 201.66667 52 203.66667 53.666669 207 57 210.33333 60.333333 212.33333 61.666669 213 61V578Z"/>
</g>
<g clip-path="url(#clip_11)">
<path transform="matrix(.010643608,0,0,-.010323231,140.25614,75.50992)" d="M21 287C21.666666 291 22.666666 296.33335 24 303 25.333334 309.66667 29.333333 322.33335 36 341 42.666669 359.66667 49.333333 375.33335 56 388 62.666669 400.66667 73.333339 413 88 425 102.666667 437 117.333339 442.66667 132 442 146.66667 441.33335 161 439 175 435 189 431 199 425 205 417 211 409 216.33333 401.66667 221 395 225.66667 388.33335 228.33333 382 229 376L231 369C231 367.66667 231.33333 367 232 367L243 378C283 420.66667 330 442 384 442 395.33335 442 405.66667 441.33335 415 440 424.33335 438.66667 433 436.33335 441 433 449 429.66667 455.33335 426.33335 460 423 464.66667 419.66667 469.66667 415.66667 475 411 480.33335 406.33335 483.66667 402 485 398 486.33335 394 489 389.66667 493 385 497 380.33335 498.33335 376.33335 497 373 495.66667 369.66667 496.66667 366.66667 500 364 503.33335 361.33335 504 359 502 357L510 367C552 417 601.6667 442 659 442 695 442 724 433 746 415 768 397 779.3333 370.66667 780 336 780 302 767.3333 249.33335 742 178 716.6667 106.666667 704 64 704 50 704.6667 40.666666 706.3333 34.333333 709 31 711.6667 27.666666 716.6667 26 724 26 742.6667 26 760 36 776 56 792 76 805 103.33333 815 138 817 145.33333 819 149.66667 821 151 823 152.33333 828.3333 153 837 153 850.3333 153 857 150.33333 857 145 857 144.33333 855.6667 139.33333 853 130 847.6667 110.666667 840.3333 91.66667 831 73 821.6667 54.333333 806.3333 35.666669 785 17 763.6667-1.6666679 740.6667-10.666667 716-10 684.6667-10 662-1 648 17 634 35 627 53.666666 627 73 627 85.666667 639 125.666667 663 193 687 260.33335 699.3333 311 700 345 700 384.33335 685.3333 404 656 404H651C593.6667 404 545.3333 370.33335 506 303L499 291 466 157C444 69.666667 431.33335 22.666668 428 16 419.33335-2 405-11 385-11 376.33335-11 369.33335-8.666667 364-4 358.66667 .666667 355 4.6666667 353 8 351 11.333334 350 14.666666 350 18 350 25.333334 361.33335 73 384 161L420 307C422 317 423 329.66667 423 345 423 384.33335 408.33335 404 379 404H374C316.66667 404 268.33335 370.33335 229 303L222 291 189 157C167 69.666667 154.33333 22.666668 151 16 142.33333-2 128-11 108-11 99.333339-11 92.333339-9 87-5 81.666667-1 78 3 76 7 74 11 73.333339 14.333333 74 17 74 25.666668 86.666667 80.33333 112 181 138 283.6667 151 337.33335 151 342 153 352 154 361 154 369 154 393 145.66667 405 129 405 114.333339 405 102 395.66667 92 377 82 358.33335 74.333339 338 69 316 63.666669 294 59.666669 282 57 280 55.666669 278.66667 50.333337 278 41 278H27C23 282 21 285 21 287Z"/>
<path transform="matrix(.010643608,0,0,-.010323231,140.25614,75.50992)" stroke-width="0" stroke-linecap="butt" stroke-miterlimit="4" stroke-linejoin="miter" fill="none" stroke="#000000" stroke-opacity=".0118" d="M21 287C21.666666 291 22.666666 296.33335 24 303 25.333334 309.66667 29.333333 322.33335 36 341 42.666669 359.66667 49.333333 375.33335 56 388 62.666669 400.66667 73.333339 413 88 425 102.666667 437 117.333339 442.66667 132 442 146.66667 441.33335 161 439 175 435 189 431 199 425 205 417 211 409 216.33333 401.66667 221 395 225.66667 388.33335 228.33333 382 229 376L231 369C231 367.66667 231.33333 367 232 367L243 378C283 420.66667 330 442 384 442 395.33335 442 405.66667 441.33335 415 440 424.33335 438.66667 433 436.33335 441 433 449 429.66667 455.33335 426.33335 460 423 464.66667 419.66667 469.66667 415.66667 475 411 480.33335 406.33335 483.66667 402 485 398 486.33335 394 489 389.66667 493 385 497 380.33335 498.33335 376.33335 497 373 495.66667 369.66667 496.66667 366.66667 500 364 503.33335 361.33335 504 359 502 357L510 367C552 417 601.6667 442 659 442 695 442 724 433 746 415 768 397 779.3333 370.66667 780 336 780 302 767.3333 249.33335 742 178 716.6667 106.666667 704 64 704 50 704.6667 40.666666 706.3333 34.333333 709 31 711.6667 27.666666 716.6667 26 724 26 742.6667 26 760 36 776 56 792 76 805 103.33333 815 138 817 145.33333 819 149.66667 821 151 823 152.33333 828.3333 153 837 153 850.3333 153 857 150.33333 857 145 857 144.33333 855.6667 139.33333 853 130 847.6667 110.666667 840.3333 91.66667 831 73 821.6667 54.333333 806.3333 35.666669 785 17 763.6667-1.6666679 740.6667-10.666667 716-10 684.6667-10 662-1 648 17 634 35 627 53.666666 627 73 627 85.666667 639 125.666667 663 193 687 260.33335 699.3333 311 700 345 700 384.33335 685.3333 404 656 404H651C593.6667 404 545.3333 370.33335 506 303L499 291 466 157C444 69.666667 431.33335 22.666668 428 16 419.33335-2 405-11 385-11 376.33335-11 369.33335-8.666667 364-4 358.66667 .666667 355 4.6666667 353 8 351 11.333334 350 14.666666 350 18 350 25.333334 361.33335 73 384 161L420 307C422 317 423 329.66667 423 345 423 384.33335 408.33335 404 379 404H374C316.66667 404 268.33335 370.33335 229 303L222 291 189 157C167 69.666667 154.33333 22.666668 151 16 142.33333-2 128-11 108-11 99.333339-11 92.333339-9 87-5 81.666667-1 78 3 76 7 74 11 73.333339 14.333333 74 17 74 25.666668 86.666667 80.33333 112 181 138 283.6667 151 337.33335 151 342 153 352 154 361 154 369 154 393 145.66667 405 129 405 114.333339 405 102 395.66667 92 377 82 358.33335 74.333339 338 69 316 63.666669 294 59.666669 282 57 280 55.666669 278.66667 50.333337 278 41 278H27C23 282 21 285 21 287Z"/>
</g>
<g clip-path="url(#clip_12)">
<path transform="matrix(.010501158,0,0,-.010342719,157.52292,75.51042)" d="M21 287C21.666666 291 22.666666 296.33335 24 303 25.333334 309.66667 29.333333 322.33335 36 341 42.666669 359.66667 49.333333 375.33335 56 388 62.666669 400.66667 73.333339 413 88 425 102.666667 437 117.333339 442.66667 132 442 146.66667 441.33335 161 439 175 435 189 431 199 425 205 417 211 409 216.33333 401.66667 221 395 225.66667 388.33335 228.33333 382 229 376L231 369C231 367.66667 231.33333 367 232 367L243 378C283 420.66667 330 442 384 442 395.33335 442 405.66667 441.33335 415 440 424.33335 438.66667 433 436.33335 441 433 449 429.66667 455.33335 426.33335 460 423 464.66667 419.66667 469.66667 415.66667 475 411 480.33335 406.33335 483.66667 402 485 398 486.33335 394 489 389.66667 493 385 497 380.33335 498.33335 376.33335 497 373 495.66667 369.66667 496.66667 366.66667 500 364 503.33335 361.33335 504 359 502 357L510 367C552 417 601.6667 442 659 442 695 442 724 433 746 415 768 397 779.3333 370.66667 780 336 780 302 767.3333 249.33335 742 178 716.6667 106.666667 704 64 704 50 704.6667 40.666666 706.3333 34.333333 709 31 711.6667 27.666666 716.6667 26 724 26 742.6667 26 760 36 776 56 792 76 805 103.33333 815 138 817 145.33333 819 149.66667 821 151 823 152.33333 828.3333 153 837 153 850.3333 153 857 150.33333 857 145 857 144.33333 855.6667 139.33333 853 130 847.6667 110.666667 840.3333 91.66667 831 73 821.6667 54.333333 806.3333 35.666669 785 17 763.6667-1.6666679 740.6667-10.666667 716-10 684.6667-10 662-1 648 17 634 35 627 53.666666 627 73 627 85.666667 639 125.666667 663 193 687 260.33335 699.3333 311 700 345 700 384.33335 685.3333 404 656 404H651C593.6667 404 545.3333 370.33335 506 303L499 291 466 157C444 69.666667 431.33335 22.666668 428 16 419.33335-2 405-11 385-11 376.33335-11 369.33335-8.666667 364-4 358.66667 .666667 355 4.6666667 353 8 351 11.333334 350 14.666666 350 18 350 25.333334 361.33335 73 384 161L420 307C422 317 423 329.66667 423 345 423 384.33335 408.33335 404 379 404H374C316.66667 404 268.33335 370.33335 229 303L222 291 189 157C167 69.666667 154.33333 22.666668 151 16 142.33333-2 128-11 108-11 99.333339-11 92.333339-9 87-5 81.666667-1 78 3 76 7 74 11 73.333339 14.333333 74 17 74 25.666668 86.666667 80.33333 112 181 138 283.6667 151 337.33335 151 342 153 352 154 361 154 369 154 393 145.66667 405 129 405 114.333339 405 102 395.66667 92 377 82 358.33335 74.333339 338 69 316 63.666669 294 59.666669 282 57 280 55.666669 278.66667 50.333337 278 41 278H27C23 282 21 285 21 287Z"/>
<path transform="matrix(.010501158,0,0,-.010342719,157.52292,75.51042)" stroke-width="0" stroke-linecap="butt" stroke-miterlimit="4" stroke-linejoin="miter" fill="none" stroke="#000000" stroke-opacity=".0118" d="M21 287C21.666666 291 22.666666 296.33335 24 303 25.333334 309.66667 29.333333 322.33335 36 341 42.666669 359.66667 49.333333 375.33335 56 388 62.666669 400.66667 73.333339 413 88 425 102.666667 437 117.333339 442.66667 132 442 146.66667 441.33335 161 439 175 435 189 431 199 425 205 417 211 409 216.33333 401.66667 221 395 225.66667 388.33335 228.33333 382 229 376L231 369C231 367.66667 231.33333 367 232 367L243 378C283 420.66667 330 442 384 442 395.33335 442 405.66667 441.33335 415 440 424.33335 438.66667 433 436.33335 441 433 449 429.66667 455.33335 426.33335 460 423 464.66667 419.66667 469.66667 415.66667 475 411 480.33335 406.33335 483.66667 402 485 398 486.33335 394 489 389.66667 493 385 497 380.33335 498.33335 376.33335 497 373 495.66667 369.66667 496.66667 366.66667 500 364 503.33335 361.33335 504 359 502 357L510 367C552 417 601.6667 442 659 442 695 442 724 433 746 415 768 397 779.3333 370.66667 780 336 780 302 767.3333 249.33335 742 178 716.6667 106.666667 704 64 704 50 704.6667 40.666666 706.3333 34.333333 709 31 711.6667 27.666666 716.6667 26 724 26 742.6667 26 760 36 776 56 792 76 805 103.33333 815 138 817 145.33333 819 149.66667 821 151 823 152.33333 828.3333 153 837 153 850.3333 153 857 150.33333 857 145 857 144.33333 855.6667 139.33333 853 130 847.6667 110.666667 840.3333 91.66667 831 73 821.6667 54.333333 806.3333 35.666669 785 17 763.6667-1.6666679 740.6667-10.666667 716-10 684.6667-10 662-1 648 17 634 35 627 53.666666 627 73 627 85.666667 639 125.666667 663 193 687 260.33335 699.3333 311 700 345 700 384.33335 685.3333 404 656 404H651C593.6667 404 545.3333 370.33335 506 303L499 291 466 157C444 69.666667 431.33335 22.666668 428 16 419.33335-2 405-11 385-11 376.33335-11 369.33335-8.666667 364-4 358.66667 .666667 355 4.6666667 353 8 351 11.333334 350 14.666666 350 18 350 25.333334 361.33335 73 384 161L420 307C422 317 423 329.66667 423 345 423 384.33335 408.33335 404 379 404H374C316.66667 404 268.33335 370.33335 229 303L222 291 189 157C167 69.666667 154.33333 22.666668 151 16 142.33333-2 128-11 108-11 99.333339-11 92.333339-9 87-5 81.666667-1 78 3 76 7 74 11 73.333339 14.333333 74 17 74 25.666668 86.666667 80.33333 112 181 138 283.6667 151 337.33335 151 342 153 352 154 361 154 369 154 393 145.66667 405 129 405 114.333339 405 102 395.66667 92 377 82 358.33335 74.333339 338 69 316 63.666669 294 59.666669 282 57 280 55.666669 278.66667 50.333337 278 41 278H27C23 282 21 285 21 287Z"/>
<path transform="matrix(.010501158,0,0,-.010342719,169.07419,75.51042)" d="M56 237C56 237 56 241.33333 56 250 56 258.66667 60.666666 265.33335 70 270H369V420L370 570C376.66667 578.6667 383 583 389 583 397.66667 583 404.33335 578 409 568V270H707C717 264.66667 722 258 722 250 722 242 717 235.33333 707 230H409V-68C403.66667-77.333339 397.66667-82 391-82H389 387C379-82 373-77.333339 369-68V230H70C60.666666 234.66667 56 241.33333 56 250V237Z"/>
<path transform="matrix(.010501158,0,0,-.010342719,169.07419,75.51042)" stroke-width="0" stroke-linecap="butt" stroke-miterlimit="4" stroke-linejoin="miter" fill="none" stroke="#000000" stroke-opacity=".0118" d="M56 237C56 237 56 241.33333 56 250 56 258.66667 60.666666 265.33335 70 270H369V420L370 570C376.66667 578.6667 383 583 389 583 397.66667 583 404.33335 578 409 568V270H707C717 264.66667 722 258 722 250 722 242 717 235.33333 707 230H409V-68C403.66667-77.333339 397.66667-82 391-82H389 387C379-82 373-77.333339 369-68V230H70C60.666666 234.66667 56 241.33333 56 250V237Z"/>
<path transform="matrix(.010501158,0,0,-.010342719,179.58586,75.51042)" d="M213 578 200 573C190.66667 569.6667 177.33333 566.3333 160 563 142.66667 559.6667 123.333339 557.3333 102 556H83V602H102C133.33333 603.3333 162.33333 608.3333 189 617 215.66667 625.6667 234.33333 633.6667 245 641 255.66667 648.3333 265 655.6667 273 663 274.33335 665 278.33335 666 285 666 291 666 296.66667 664 302 660V361L303 61C307.66667 56.333333 311.66667 53.333333 315 52 318.33335 50.666669 326.33335 49.333333 339 48 351.66667 46.666669 372.33335 46 401 46H427V0H416C402 2 349 3 257 3 166.33333 3 114 2 100 0H88V46H114C128.66667 46 141.33333 46 152 46 162.66667 46 171 46.333333 177 47 183 47.666669 188.33333 48.666669 193 50 197.66667 51.333333 200.33333 52 201 52 201.66667 52 203.66667 53.666669 207 57 210.33333 60.333333 212.33333 61.666669 213 61V578Z"/>
<path transform="matrix(.010501158,0,0,-.010342719,179.58586,75.51042)" stroke-width="0" stroke-linecap="butt" stroke-miterlimit="4" stroke-linejoin="miter" fill="none" stroke="#000000" stroke-opacity=".0118" d="M213 578 200 573C190.66667 569.6667 177.33333 566.3333 160 563 142.66667 559.6667 123.333339 557.3333 102 556H83V602H102C133.33333 603.3333 162.33333 608.3333 189 617 215.66667 625.6667 234.33333 633.6667 245 641 255.66667 648.3333 265 655.6667 273 663 274.33335 665 278.33335 666 285 666 291 666 296.66667 664 302 660V361L303 61C307.66667 56.333333 311.66667 53.333333 315 52 318.33335 50.666669 326.33335 49.333333 339 48 351.66667 46.666669 372.33335 46 401 46H427V0H416C402 2 349 3 257 3 166.33333 3 114 2 100 0H88V46H114C128.66667 46 141.33333 46 152 46 162.66667 46 171 46.333333 177 47 183 47.666669 188.33333 48.666669 193 50 197.66667 51.333333 200.33333 52 201 52 201.66667 52 203.66667 53.666669 207 57 210.33333 60.333333 212.33333 61.666669 213 61V578Z"/>
</g>
<g clip-path="url(#clip_13)">
<path transform="matrix(.011151354,0,0,-.010315249,314.3176,75.50826)" d="M21 287C21.666666 289 22.333334 291.66667 23 295 23.666666 298.33335 25.333334 305.66667 28 317 30.666666 328.33335 34 338.66667 38 348 42 357.33335 47 368.33335 53 381 59 393.66667 65.666667 403.66667 73 411 80.333339 418.33335 89 425.66667 99 433 109 440.33335 120 443.33335 132 442 151.33333 442 168.33333 438 183 430 197.66667 422 208 414.66667 214 408 220 401.33335 223.66667 394.66667 225 388 226.33333 384 227.33333 382 228 382 228.66667 382 231.33333 384.33335 236 389 268 423.66667 305 441 347 441H350C382 441 406 427.33335 422 400 427.33335 387.33335 430 375 430 363 430 343 425.66667 327 417 315 408.33335 303 399.66667 295.33335 391 292 382.33335 288.66667 374 287.33335 366 288 352.66667 288 342 291.66667 334 299 326 306.33335 322 316 322 328 322 360 340.66667 381.33335 378 392 363.33335 400.66667 351.33335 405 342 405 304.66667 405 270.33335 380.33335 239 331 232.33333 320.33335 227.33333 309.33335 224 298 220.66667 286.66667 209.33333 242.33335 190 165 167.33333 71.666667 154.33333 22 151 16 142.33333-2 128-11 108-11 99.333339-11 92.333339-9 87-5 81.666667-1 78 3 76 7 74 11 73.333339 14.333333 74 17 74 25.666668 87.33333 83 114 189 140.66667 295 154 354 154 366 154 392 145.33333 405 128 405 114 405 102 395.66667 92 377 82 358.33335 74 338 68 316 62 294 58.333333 282 57 280 55.666669 278.66667 50.333337 278 41 278H27C23 282 21 285 21 287Z"/>
<path transform="matrix(.011151354,0,0,-.010315249,314.3176,75.50826)" stroke-width="0" stroke-linecap="butt" stroke-miterlimit="4" stroke-linejoin="miter" fill="none" stroke="#000000" stroke-opacity=".0118" d="M21 287C21.666666 289 22.333334 291.66667 23 295 23.666666 298.33335 25.333334 305.66667 28 317 30.666666 328.33335 34 338.66667 38 348 42 357.33335 47 368.33335 53 381 59 393.66667 65.666667 403.66667 73 411 80.333339 418.33335 89 425.66667 99 433 109 440.33335 120 443.33335 132 442 151.33333 442 168.33333 438 183 430 197.66667 422 208 414.66667 214 408 220 401.33335 223.66667 394.66667 225 388 226.33333 384 227.33333 382 228 382 228.66667 382 231.33333 384.33335 236 389 268 423.66667 305 441 347 441H350C382 441 406 427.33335 422 400 427.33335 387.33335 430 375 430 363 430 343 425.66667 327 417 315 408.33335 303 399.66667 295.33335 391 292 382.33335 288.66667 374 287.33335 366 288 352.66667 288 342 291.66667 334 299 326 306.33335 322 316 322 328 322 360 340.66667 381.33335 378 392 363.33335 400.66667 351.33335 405 342 405 304.66667 405 270.33335 380.33335 239 331 232.33333 320.33335 227.33333 309.33335 224 298 220.66667 286.66667 209.33333 242.33335 190 165 167.33333 71.666667 154.33333 22 151 16 142.33333-2 128-11 108-11 99.333339-11 92.333339-9 87-5 81.666667-1 78 3 76 7 74 11 73.333339 14.333333 74 17 74 25.666668 87.33333 83 114 189 140.66667 295 154 354 154 366 154 392 145.33333 405 128 405 114 405 102 395.66667 92 377 82 358.33335 74 338 68 316 62 294 58.333333 282 57 280 55.666669 278.66667 50.333337 278 41 278H27C23 282 21 285 21 287Z"/>
</g>
</svg>
