<svg xmlns="http://www.w3.org/2000/svg" xmlns:xlink="http://www.w3.org/1999/xlink" xmlns:inkscape="http://www.inkscape.org/namespaces/inkscape" version="1.1" width="588.95999" height="168" viewBox="0 0 588.95999 168">
<defs>
<clipPath id="clip_1">
<path transform="matrix(.24,0,0,.24,0,0)" d="M0 0H2455V694.93899H0Z" clip-rule="evenodd"/>
</clipPath>
</defs>
<g clip-path="url(#clip_1)">
<path transform="matrix(.7189024,0,0,.7189024,0,0)" d="M437.62 21H458.31V41.690004H437.62Z" fill="#dae8fc"/>
<path transform="matrix(.7189024,0,0,.7189024,0,0)" stroke-width="2" stroke-linecap="butt" stroke-miterlimit="4" stroke-linejoin="miter" fill="none" stroke="#000000" d="M437.62 21H458.31V41.690004H437.62Z"/>
<path transform="matrix(.7189024,0,0,.7189024,0,0)" d="M168.66 110.66H189.35V131.35H168.66Z" fill="#dae8fc"/>
<path transform="matrix(.7189024,0,0,.7189024,0,0)" stroke-width="2" stroke-linecap="butt" stroke-miterlimit="4" stroke-linejoin="miter" fill="none" stroke="#000000" d="M168.66 110.66H189.35V131.35H168.66Z"/>
<path transform="matrix(.7189024,0,0,.7189024,0,0)" d="M437.62 110.66H458.31V131.35H437.62Z" fill="#dae8fc"/>
<path transform="matrix(.7189024,0,0,.7189024,0,0)" stroke-width="2" stroke-linecap="butt" stroke-miterlimit="4" stroke-linejoin="miter" fill="none" stroke="#000000" d="M437.62 110.66H458.31V131.35H437.62Z"/>
<path transform="matrix(.7189024,0,0,.7189024,0,0)" d="M706.59 110.66H727.28V131.35H706.59Z" fill="#dae8fc"/>
<path transform="matrix(.7189024,0,0,.7189024,0,0)" stroke-width="2" stroke-linecap="butt" stroke-miterlimit="4" stroke-linejoin="miter" fill="none" stroke="#000000" d="M706.59 110.66H727.28V131.35H706.59Z"/>
<path transform="matrix(.7189024,0,0,.7189024,0,0)" d="M79 200.31H99.69V221H79Z" fill="#dae8fc"/>
<path transform="matrix(.7189024,0,0,.7189024,0,0)" stroke-width="2" stroke-linecap="butt" stroke-miterlimit="4" stroke-linejoin="miter" fill="none" stroke="#000000" d="M79 200.31H99.69V221H79Z"/>
<path transform="matrix(.7189024,0,0,.7189024,0,0)" d="M168.66 200.31H189.35V221H168.66Z" fill="#dae8fc"/>
<path transform="matrix(.7189024,0,0,.7189024,0,0)" stroke-width="2" stroke-linecap="butt" stroke-miterlimit="4" stroke-linejoin="miter" fill="none" stroke="#000000" d="M168.66 200.31H189.35V221H168.66Z"/>
<path transform="matrix(.7189024,0,0,.7189024,0,0)" d="M258.31 200.31H279V221H258.31Z" fill="#dae8fc"/>
<path transform="matrix(.7189024,0,0,.7189024,0,0)" stroke-width="2" stroke-linecap="butt" stroke-miterlimit="4" stroke-linejoin="miter" fill="none" stroke="#000000" d="M258.31 200.31H279V221H258.31Z"/>
<path transform="matrix(.7189024,0,0,.7189024,0,0)" d="M347.97 200.31H368.66V221H347.97Z" fill="#dae8fc"/>
<path transform="matrix(.7189024,0,0,.7189024,0,0)" stroke-width="2" stroke-linecap="butt" stroke-miterlimit="4" stroke-linejoin="miter" fill="none" stroke="#000000" d="M347.97 200.31H368.66V221H347.97Z"/>
<path transform="matrix(.7189024,0,0,.7189024,0,0)" d="M437.62 200.31H458.31V221H437.62Z" fill="#dae8fc"/>
<path transform="matrix(.7189024,0,0,.7189024,0,0)" stroke-width="2" stroke-linecap="butt" stroke-miterlimit="4" stroke-linejoin="miter" fill="none" stroke="#000000" d="M437.62 200.31H458.31V221H437.62Z"/>
<path transform="matrix(.7189024,0,0,.7189024,0,0)" d="M527.28 200.31H547.97006V221H527.28Z" fill="#dae8fc"/>
<path transform="matrix(.7189024,0,0,.7189024,0,0)" stroke-width="2" stroke-linecap="butt" stroke-miterlimit="4" stroke-linejoin="miter" fill="none" stroke="#000000" d="M527.28 200.31H547.97006V221H527.28Z"/>
<path transform="matrix(.7189024,0,0,.7189024,0,0)" d="M616.93 200.31H637.62V221H616.93Z" fill="#dae8fc"/>
<path transform="matrix(.7189024,0,0,.7189024,0,0)" stroke-width="2" stroke-linecap="butt" stroke-miterlimit="4" stroke-linejoin="miter" fill="none" stroke="#000000" d="M616.93 200.31H637.62V221H616.93Z"/>
<path transform="matrix(.7189024,0,0,.7189024,0,0)" d="M706.59 200.31H727.28V221H706.59Z" fill="#dae8fc"/>
<path transform="matrix(.7189024,0,0,.7189024,0,0)" stroke-width="2" stroke-linecap="butt" stroke-miterlimit="4" stroke-linejoin="miter" fill="none" stroke="#000000" d="M706.59 200.31H727.28V221H706.59Z"/>
<path transform="matrix(.7189024,0,0,.7189024,0,0)" d="M796.24 200.31H816.93V221H796.24Z" fill="#dae8fc"/>
<path transform="matrix(.7189024,0,0,.7189024,0,0)" stroke-width="2" stroke-linecap="butt" stroke-miterlimit="4" stroke-linejoin="miter" fill="none" stroke="#000000" d="M796.24 200.31H816.93V221H796.24Z"/>
<path transform="matrix(.7189024,0,0,.7189024,.3594512,.3594512)" stroke-width="1" stroke-linecap="butt" stroke-miterlimit="10" stroke-linejoin="miter" fill="none" stroke="#0000ff" d="M437.62 33.07 186.78 108.32"/>
<path transform="matrix(.7189024,0,0,.7189024,.3594512,.3594512)" d="M180.07 110.33 185.77 104.97 187.78 111.67 180.07 110.33Z" fill="#0000ff"/>
<path transform="matrix(.7189024,0,0,.7189024,.3594512,.3594512)" stroke-width="1" stroke-linecap="butt" stroke-miterlimit="10" stroke-linejoin="miter" fill="none" stroke="#0000ff" d="M180.07 110.33 185.77 104.97 187.78 111.67 180.07 110.33Z"/>
<path transform="matrix(.7189024,0,0,.7189024,.3594512,.3594512)" stroke-width="1" stroke-linecap="butt" stroke-miterlimit="10" stroke-linejoin="miter" fill="none" stroke="#0000ff" d="M447.96 41.69V102.54"/>
<path transform="matrix(.7189024,0,0,.7189024,.3594512,.3594512)" d="M447.96 109.54 444.46 102.54H451.46L447.96 109.54Z" fill="#0000ff"/>
<path transform="matrix(.7189024,0,0,.7189024,.3594512,.3594512)" stroke-width="1" stroke-linecap="butt" stroke-miterlimit="10" stroke-linejoin="miter" fill="none" stroke="#0000ff" d="M447.96 109.54 444.46 102.54H451.46L447.96 109.54Z"/>
<path transform="matrix(.7189024,0,0,.7189024,.3594512,.3594512)" stroke-width="1" stroke-linecap="butt" stroke-miterlimit="10" stroke-linejoin="miter" fill="none" stroke="#0000ff" d="M458.31 33.07 709.15 108.32"/>
<path transform="matrix(.7189024,0,0,.7189024,.3594512,.3594512)" d="M715.86 110.33 708.15 111.67 710.16 104.97 715.86 110.33Z" fill="#0000ff"/>
<path transform="matrix(.7189024,0,0,.7189024,.3594512,.3594512)" stroke-width="1" stroke-linecap="butt" stroke-miterlimit="10" stroke-linejoin="miter" fill="none" stroke="#0000ff" d="M715.86 110.33 708.15 111.67 710.16 104.97 715.86 110.33Z"/>
<path transform="matrix(.7189024,0,0,.7189024,.3594512,.3594512)" stroke-width="1" stroke-linecap="butt" stroke-miterlimit="10" stroke-linejoin="miter" fill="none" stroke="#0000ff" d="M168.66 126.17 95.28 194.77"/>
<path transform="matrix(.7189024,0,0,.7189024,.3594512,.3594512)" d="M90.16 199.55 92.89 192.21 97.67 197.32 90.16 199.55Z" fill="#0000ff"/>
<path transform="matrix(.7189024,0,0,.7189024,.3594512,.3594512)" stroke-width="1" stroke-linecap="butt" stroke-miterlimit="10" stroke-linejoin="miter" fill="none" stroke="#0000ff" d="M90.16 199.55 92.89 192.21 97.67 197.32 90.16 199.55Z"/>
<path transform="matrix(.7189024,0,0,.7189024,.3594512,.3594512)" stroke-width="1" stroke-linecap="butt" stroke-miterlimit="10" stroke-linejoin="miter" fill="none" stroke="#0000ff" d="M179 131.34V192.19"/>
<path transform="matrix(.7189024,0,0,.7189024,.3594512,.3594512)" d="M179 199.19 175.5 192.19H182.5L179 199.19Z" fill="#0000ff"/>
<path transform="matrix(.7189024,0,0,.7189024,.3594512,.3594512)" stroke-width="1" stroke-linecap="butt" stroke-miterlimit="10" stroke-linejoin="miter" fill="none" stroke="#0000ff" d="M179 199.19 175.5 192.19H182.5L179 199.19Z"/>
<path transform="matrix(.7189024,0,0,.7189024,.3594512,.3594512)" stroke-width="1" stroke-linecap="butt" stroke-miterlimit="10" stroke-linejoin="miter" fill="none" stroke="#0000ff" d="M189.34 126.17 262.72 194.77"/>
<path transform="matrix(.7189024,0,0,.7189024,.3594512,.3594512)" d="M267.84 199.55 260.33 197.32 265.11 192.21 267.84 199.55Z" fill="#0000ff"/>
<path transform="matrix(.7189024,0,0,.7189024,.3594512,.3594512)" stroke-width="1" stroke-linecap="butt" stroke-miterlimit="10" stroke-linejoin="miter" fill="none" stroke="#0000ff" d="M267.84 199.55 260.33 197.32 265.11 192.21 267.84 199.55Z"/>
<path transform="matrix(.7189024,0,0,.7189024,.3594512,.3594512)" stroke-width="1" stroke-linecap="butt" stroke-miterlimit="10" stroke-linejoin="miter" fill="none" stroke="#0000ff" d="M437.62 126.17 364.24 194.77"/>
<path transform="matrix(.7189024,0,0,.7189024,.3594512,.3594512)" d="M359.13 199.55 361.85 192.21 366.63 197.32 359.13 199.55Z" fill="#0000ff"/>
<path transform="matrix(.7189024,0,0,.7189024,.3594512,.3594512)" stroke-width="1" stroke-linecap="butt" stroke-miterlimit="10" stroke-linejoin="miter" fill="none" stroke="#0000ff" d="M359.13 199.55 361.85 192.21 366.63 197.32 359.13 199.55Z"/>
<path transform="matrix(.7189024,0,0,.7189024,.3594512,.3594512)" stroke-width="1" stroke-linecap="butt" stroke-miterlimit="10" stroke-linejoin="miter" fill="none" stroke="#0000ff" d="M447.96 131.34V192.19"/>
<path transform="matrix(.7189024,0,0,.7189024,.3594512,.3594512)" d="M447.96 199.19 444.46 192.19H451.46L447.96 199.19Z" fill="#0000ff"/>
<path transform="matrix(.7189024,0,0,.7189024,.3594512,.3594512)" stroke-width="1" stroke-linecap="butt" stroke-miterlimit="10" stroke-linejoin="miter" fill="none" stroke="#0000ff" d="M447.96 199.19 444.46 192.19H451.46L447.96 199.19Z"/>
<path transform="matrix(.7189024,0,0,.7189024,.3594512,.3594512)" stroke-width="1" stroke-linecap="butt" stroke-miterlimit="10" stroke-linejoin="miter" fill="none" stroke="#0000ff" d="M458.31 126.17 531.69 194.77"/>
<path transform="matrix(.7189024,0,0,.7189024,.3594512,.3594512)" d="M536.8 199.55 529.3 197.32 534.08 192.21 536.8 199.55Z" fill="#0000ff"/>
<path transform="matrix(.7189024,0,0,.7189024,.3594512,.3594512)" stroke-width="1" stroke-linecap="butt" stroke-miterlimit="10" stroke-linejoin="miter" fill="none" stroke="#0000ff" d="M536.8 199.55 529.3 197.32 534.08 192.21 536.8 199.55Z"/>
<path transform="matrix(.7189024,0,0,.7189024,.3594512,.3594512)" stroke-width="1" stroke-linecap="butt" stroke-miterlimit="10" stroke-linejoin="miter" fill="none" stroke="#0000ff" d="M706.59 126.17 633.21 194.77"/>
<path transform="matrix(.7189024,0,0,.7189024,.3594512,.3594512)" d="M628.09 199.55 630.82 192.21 635.6 197.32 628.09 199.55Z" fill="#0000ff"/>
<path transform="matrix(.7189024,0,0,.7189024,.3594512,.3594512)" stroke-width="1" stroke-linecap="butt" stroke-miterlimit="10" stroke-linejoin="miter" fill="none" stroke="#0000ff" d="M628.09 199.55 630.82 192.21 635.6 197.32 628.09 199.55Z"/>
<path transform="matrix(.7189024,0,0,.7189024,.3594512,.3594512)" stroke-width="1" stroke-linecap="butt" stroke-miterlimit="10" stroke-linejoin="miter" fill="none" stroke="#0000ff" d="M716.93 131.34V192.19"/>
<path transform="matrix(.7189024,0,0,.7189024,.3594512,.3594512)" d="M716.93 199.19 713.43 192.19H720.43L716.93 199.19Z" fill="#0000ff"/>
<path transform="matrix(.7189024,0,0,.7189024,.3594512,.3594512)" stroke-width="1" stroke-linecap="butt" stroke-miterlimit="10" stroke-linejoin="miter" fill="none" stroke="#0000ff" d="M716.93 199.19 713.43 192.19H720.43L716.93 199.19Z"/>
<path transform="matrix(.7189024,0,0,.7189024,.3594512,.3594512)" stroke-width="1" stroke-linecap="butt" stroke-miterlimit="10" stroke-linejoin="miter" fill="none" stroke="#0000ff" d="M727.27 126.17 800.65 194.77"/>
<path transform="matrix(.7189024,0,0,.7189024,.3594512,.3594512)" d="M805.77 199.55 798.26 197.32 803.04 192.21 805.77 199.55Z" fill="#0000ff"/>
<path transform="matrix(.7189024,0,0,.7189024,.3594512,.3594512)" stroke-width="1" stroke-linecap="butt" stroke-miterlimit="10" stroke-linejoin="miter" fill="none" stroke="#0000ff" d="M805.77 199.55 798.26 197.32 803.04 192.21 805.77 199.55Z"/>
<path transform="matrix(.7189024,0,0,.7189024,.3594512,.3594512)" stroke-width="1" stroke-linecap="butt" stroke-miterlimit="10" stroke-linejoin="miter" fill="none" stroke="#000000" d="M486.05 41.23C480.28 53.01 465.22 60.9 448.29 61 431.37 61.1 416.13 53.4 410.1 41.69"/>
<path transform="matrix(.013474438,0,0,-.013474438,301.94145,51.95198)" d="M33 157C33 224.33335 58.333333 288.33335 109 349 159.66667 409.66667 216.66666 440.33335 280 441 314 441 344 424.66667 370 392 380.66667 412 396 422 416 422 424.66667 422 432.33335 419.33335 439 414 445.66667 408.66667 449 402 449 394 449 385.33335 436.66667 332 412 234 387.33335 136 374.66667 80.666667 374 68 374 51.333333 376.33335 40.333333 381 35 385.66667 29.666666 392.66667 26.666666 402 26 408 26.666666 414.66667 29.666666 422 35 436 48.333337 449.66667 80.33333 463 131 467 144.33333 470.33335 151.33333 473 152 474.33335 152.66667 477.66667 153 483 153H487C499.66667 153 506 150 506 144 506 140 504.33335 131 501 117 497.66667 103 491 85 481 63 471 41 460.33335 24.333334 449 13 440.33335 4.333333 429.66667-2.6666666 417-8 411.66667-9.333333 403.66667-10 393-10 370.33335-10 351.33335-5 336 5 320.66667 15 310.66667 25.333333 306 36L300 51C299.33335 51.666669 298 51.333333 296 50 294.66667 48.666669 293.33335 47.333333 292 46 252.66666 8.666664 212.66667-10 172-10 135.33333-10 103 3.333332 75 30 47 56.666669 33 99 33 157ZM351 328C351 332 349.33335 339.33335 346 350 342.66667 360.66667 335 372.33335 323 385 311 397.66667 295.66667 404.33335 277 405 253.66667 405 231.33333 394.66667 210 374 188.66667 353.33335 172 326.33335 160 293 140.66667 240.33333 127 185.66667 119 129 119 127 119 123.333339 119 118 119 112.666667 118.666667 108.666667 118 106 118 76 124 55.333337 136 44 148 32.666666 162.33333 26.666666 179 26 204.33333 26 229.33333 37 254 59 278.66667 81 293.33335 98 298 110 299.33335 112.666667 308.33335 148.33333 325 217 341.66667 285.6667 350.33335 322.66667 351 328Z"/>
<path transform="matrix(.013474438,0,0,-.013474438,301.94145,51.95198)" stroke-width="0" stroke-linecap="butt" stroke-miterlimit="4" stroke-linejoin="miter" fill="none" stroke="#000000" stroke-opacity=".1684" d="M33 157C33 224.33335 58.333333 288.33335 109 349 159.66667 409.66667 216.66666 440.33335 280 441 314 441 344 424.66667 370 392 380.66667 412 396 422 416 422 424.66667 422 432.33335 419.33335 439 414 445.66667 408.66667 449 402 449 394 449 385.33335 436.66667 332 412 234 387.33335 136 374.66667 80.666667 374 68 374 51.333333 376.33335 40.333333 381 35 385.66667 29.666666 392.66667 26.666666 402 26 408 26.666666 414.66667 29.666666 422 35 436 48.333337 449.66667 80.33333 463 131 467 144.33333 470.33335 151.33333 473 152 474.33335 152.66667 477.66667 153 483 153H487C499.66667 153 506 150 506 144 506 140 504.33335 131 501 117 497.66667 103 491 85 481 63 471 41 460.33335 24.333334 449 13 440.33335 4.333333 429.66667-2.6666666 417-8 411.66667-9.333333 403.66667-10 393-10 370.33335-10 351.33335-5 336 5 320.66667 15 310.66667 25.333333 306 36L300 51C299.33335 51.666669 298 51.333333 296 50 294.66667 48.666669 293.33335 47.333333 292 46 252.66666 8.666664 212.66667-10 172-10 135.33333-10 103 3.333332 75 30 47 56.666669 33 99 33 157ZM351 328C351 332 349.33335 339.33335 346 350 342.66667 360.66667 335 372.33335 323 385 311 397.66667 295.66667 404.33335 277 405 253.66667 405 231.33333 394.66667 210 374 188.66667 353.33335 172 326.33335 160 293 140.66667 240.33333 127 185.66667 119 129 119 127 119 123.333339 119 118 119 112.666667 118.666667 108.666667 118 106 118 76 124 55.333337 136 44 148 32.666666 162.33333 26.666666 179 26 204.33333 26 229.33333 37 254 59 278.66667 81 293.33335 98 298 110 299.33335 112.666667 308.33335 148.33333 325 217 341.66667 285.6667 350.33335 322.66667 351 328Z"/>
<path transform="matrix(.7189024,0,0,.7189024,.3594512,.3594512)" stroke-width="1" stroke-linecap="butt" stroke-miterlimit="10" stroke-linejoin="miter" fill="none" stroke="#000000" d="M39 214.63V27.37"/>
<path transform="matrix(.7189024,0,0,.7189024,.3594512,.3594512)" d="M39 219.88 35.5 212.88 39 214.63 42.5 212.88 39 219.88Z"/>
<path transform="matrix(.7189024,0,0,.7189024,.3594512,.3594512)" stroke-width="1" stroke-linecap="butt" stroke-miterlimit="10" stroke-linejoin="miter" fill="none" stroke="#000000" d="M39 219.88 35.5 212.88 39 214.63 42.5 212.88 39 219.88Z"/>
<path transform="matrix(.7189024,0,0,.7189024,.3594512,.3594512)" d="M39 22.12 42.5 29.12 39 27.37 35.5 29.12 39 22.12Z"/>
<path transform="matrix(.7189024,0,0,.7189024,.3594512,.3594512)" stroke-width="1" stroke-linecap="butt" stroke-miterlimit="10" stroke-linejoin="miter" fill="none" stroke="#000000" d="M39 22.12 42.5 29.12 39 27.37 35.5 29.12 39 22.12Z"/>
<path transform="matrix(.7189024,0,0,.7189024,0,0)" d="M17 106H62V125H17Z" fill="#ffffff"/>
<path transform="matrix(.013492359,0,0,-.013492359,12.22134,87.00625)" d="M42 46H56C82 46 97.666667 50.666666 103 60V68C103 74 103 81.666667 103 91 103 100.333339 103 111.333339 103 124 103 136.66667 103.333339 151 104 167 104.666667 183 104.666667 199.66667 104 217 103.333339 234.33333 103.333339 252.66667 104 272 104.666667 291.33335 104.666667 310.33335 104 329 104 353.66667 104 379.66667 104 407 104 434.33335 104 459.33335 104 482 104 504.66667 104 524.6667 104 542 104 559.3333 103.666667 574 103 586 102.333339 598 102.333339 603.6667 103 603 101 615.6667 96.333339 624 89 628 81.666667 632 66.66667 635 44 637H26V660C26 675.3333 26.666666 683 28 683L38 684C44.666669 684.6667 54.333333 685.3333 67 686 79.666667 686.6667 92 687.3333 104 688 115.333339 688.6667 127.666667 689.3333 141 690 154.33333 690.6667 164.33333 691.6667 171 693 177.66667 694.3333 181.33333 694.6667 182 694H185V379C185 167.66666 185.33333 61.333333 186 60 188.66667 54.666669 192.66667 51 198 49 212 47 228.33333 46 247 46H263V0H255L232 1C216.66667 1.6666668 200.33333 2 183 2 165.66667 2 153 2.3333333 145 3 137 3.6666668 124.333339 3.6666668 107 3 89.666667 2.3333333 73 1.6666668 57 1L34 0H26V46H42Z"/>
<path transform="matrix(.013492359,0,0,-.013492359,12.22134,87.00625)" stroke-width="0" stroke-linecap="butt" stroke-miterlimit="4" stroke-linejoin="miter" fill="none" stroke="#000000" stroke-opacity=".1687" d="M42 46H56C82 46 97.666667 50.666666 103 60V68C103 74 103 81.666667 103 91 103 100.333339 103 111.333339 103 124 103 136.66667 103.333339 151 104 167 104.666667 183 104.666667 199.66667 104 217 103.333339 234.33333 103.333339 252.66667 104 272 104.666667 291.33335 104.666667 310.33335 104 329 104 353.66667 104 379.66667 104 407 104 434.33335 104 459.33335 104 482 104 504.66667 104 524.6667 104 542 104 559.3333 103.666667 574 103 586 102.333339 598 102.333339 603.6667 103 603 101 615.6667 96.333339 624 89 628 81.666667 632 66.66667 635 44 637H26V660C26 675.3333 26.666666 683 28 683L38 684C44.666669 684.6667 54.333333 685.3333 67 686 79.666667 686.6667 92 687.3333 104 688 115.333339 688.6667 127.666667 689.3333 141 690 154.33333 690.6667 164.33333 691.6667 171 693 177.66667 694.3333 181.33333 694.6667 182 694H185V379C185 167.66666 185.33333 61.333333 186 60 188.66667 54.666669 192.66667 51 198 49 212 47 228.33333 46 247 46H263V0H255L232 1C216.66667 1.6666668 200.33333 2 183 2 165.66667 2 153 2.3333333 145 3 137 3.6666668 124.333339 3.6666668 107 3 89.666667 2.3333333 73 1.6666668 57 1L34 0H26V46H42Z"/>
<path transform="matrix(.013492359,0,0,-.013492359,15.972215,87.00625)" d="M28 214C28 277.33335 49.666666 332 93 378 136.33335 424 188.66666 447.33335 250 448 310 448 361.66667 425.33335 405 380 448.33335 334.66667 470.33335 279.6667 471 215 471 151.66666 449.66667 98.333339 407 55 364.33335 11.666664 312-10 250-10 185.33333-10 132.33335 12.333332 91 57 49.666666 101.66667 28.666666 154 28 214ZM250 30C331.33335 30 372 84.33333 372 193V225 250C372 264.66667 371.66667 277.33335 371 288 370.33335 298.66667 368 311.33335 364 326 360 340.66667 354.66667 352.66667 348 362 341.33335 371.33335 331 380.66667 317 390 303 399.33335 286.66667 406 268 410 264.66667 410.66667 259.33335 411 252 411 232 411 213 407 195 399 166.33333 384.33335 147.66667 364 139 338 130.33333 312 126 281.33335 126 246V226C126 162 132.33333 117 145 91 166.33333 50.333333 201.33333 30 250 30Z"/>
<path transform="matrix(.013492359,0,0,-.013492359,15.972215,87.00625)" stroke-width="0" stroke-linecap="butt" stroke-miterlimit="4" stroke-linejoin="miter" fill="none" stroke="#000000" stroke-opacity=".1687" d="M28 214C28 277.33335 49.666666 332 93 378 136.33335 424 188.66666 447.33335 250 448 310 448 361.66667 425.33335 405 380 448.33335 334.66667 470.33335 279.6667 471 215 471 151.66666 449.66667 98.333339 407 55 364.33335 11.666664 312-10 250-10 185.33333-10 132.33335 12.333332 91 57 49.666666 101.66667 28.666666 154 28 214ZM250 30C331.33335 30 372 84.33333 372 193V225 250C372 264.66667 371.66667 277.33335 371 288 370.33335 298.66667 368 311.33335 364 326 360 340.66667 354.66667 352.66667 348 362 341.33335 371.33335 331 380.66667 317 390 303 399.33335 286.66667 406 268 410 264.66667 410.66667 259.33335 411 252 411 232 411 213 407 195 399 166.33333 384.33335 147.66667 364 139 338 130.33333 312 126 281.33335 126 246V226C126 162 132.33333 117 145 91 166.33333 50.333333 201.33333 30 250 30Z"/>
<path transform="matrix(.013492359,0,0,-.013492359,22.718396,87.00625)" d="M329 409C358.33335 438.33335 391.66667 453 429 453 449 453 463.33335 446.66667 472 434 480.66667 421.33335 485 408.66667 485 396 485 386.66667 482 378.33335 476 371 470 363.66667 461 360 449 360 427 360 414.66667 370 412 390 410.66667 399.33335 411.66667 406.33335 415 411 415 411.66667 415.33335 412.66667 416 414V415C397.33335 413 379.66667 405.66667 363 393 357.66667 389.66667 355 387.33335 355 386 355 385.33335 356.33335 383.66667 359 381 361.66667 378.33335 364.66667 374.33335 368 369 371.33335 363.66667 375 357.66667 379 351 383 344.33335 386 335.66667 388 325 390 314.33335 391.33335 303.33335 392 292 392 250.66666 375.66667 215.66667 343 187 310.33335 158.33333 270 143.66667 222 143 188.66666 143 155.66667 152.33333 123 171 115.666667 159 112 146.33333 112 133 112 109.666667 120.666667 92.333339 138 81 144 77 149.66667 75 155 75 160.33333 75 184.33333 74.333339 227 73 283 72.333339 319 70.333339 335 67 375.66667 61 407.66667 47.333337 431 26 457 0 470-32.666666 470-72 470-116.66667 444-151 392-175 352-195.66667 304.66667-206 250-206 194.66666-206 147-195.66667 107-175 55-151.66667 29-118.333339 29-75 29-51 36-31 50-15 64 1 78 12 92 18L103 24C79 44.666669 67 72.666667 67 108 67 139.33333 76.666667 167.66667 96 193 66.666667 222.33333 52 255.33333 52 292 52 334 68.666667 369.33335 102 398 135.33335 426.66667 175.66666 441.33335 223 442 257 442 288.66667 433.33335 318 416L329 409ZM299 343C295.66667 361.66667 287 376.33335 273 387 259 397.66667 241.66667 403.33335 221 404 201.66667 404 185 398.66667 171 388 157 377.33335 148.33333 362.33335 145 343 143 331.66667 142 314.66667 142 292 142 262.66667 144.33333 241 149 227 153.66667 213 163.66667 201.33333 179 192 190.33333 185.33333 204.66667 182 222 182 236.66667 182 249.33333 184.33333 260 189 270.66667 193.66667 278.33335 199.66667 283 207 287.66667 214.33333 291.33335 221 294 227 296.66667 233 298.33335 238 299 242 301 252.66667 302 269.33335 302 292 302 314.66667 301 331.66667 299 343ZM403-75C403-58.333333 398.33335-44.666669 389-34 379.66667-23.333333 366-15.666667 348-11 330-6.333333 313.66667-3.3333336 299-2 284.33335-.6666666 266.33335 0 245 0H218C173.33333 0 146.66667-2 138-6 124.666667-12 114.333339-21.333333 107-34 99.666667-46.666669 95.666667-60 95-74 95-80.666667 97-88.333339 101-97 105-105.666667 112-115.666667 122-127 132-138.33333 148-147.66667 170-155 192-162.33333 218.66667-166.33333 250-167 296-167 333-157.66667 361-139 389-120.33333 403-99 403-75Z"/>
<path transform="matrix(.013492359,0,0,-.013492359,22.718396,87.00625)" stroke-width="0" stroke-linecap="butt" stroke-miterlimit="4" stroke-linejoin="miter" fill="none" stroke="#000000" stroke-opacity=".1687" d="M329 409C358.33335 438.33335 391.66667 453 429 453 449 453 463.33335 446.66667 472 434 480.66667 421.33335 485 408.66667 485 396 485 386.66667 482 378.33335 476 371 470 363.66667 461 360 449 360 427 360 414.66667 370 412 390 410.66667 399.33335 411.66667 406.33335 415 411 415 411.66667 415.33335 412.66667 416 414V415C397.33335 413 379.66667 405.66667 363 393 357.66667 389.66667 355 387.33335 355 386 355 385.33335 356.33335 383.66667 359 381 361.66667 378.33335 364.66667 374.33335 368 369 371.33335 363.66667 375 357.66667 379 351 383 344.33335 386 335.66667 388 325 390 314.33335 391.33335 303.33335 392 292 392 250.66666 375.66667 215.66667 343 187 310.33335 158.33333 270 143.66667 222 143 188.66666 143 155.66667 152.33333 123 171 115.666667 159 112 146.33333 112 133 112 109.666667 120.666667 92.333339 138 81 144 77 149.66667 75 155 75 160.33333 75 184.33333 74.333339 227 73 283 72.333339 319 70.333339 335 67 375.66667 61 407.66667 47.333337 431 26 457 0 470-32.666666 470-72 470-116.66667 444-151 392-175 352-195.66667 304.66667-206 250-206 194.66666-206 147-195.66667 107-175 55-151.66667 29-118.333339 29-75 29-51 36-31 50-15 64 1 78 12 92 18L103 24C79 44.666669 67 72.666667 67 108 67 139.33333 76.666667 167.66667 96 193 66.666667 222.33333 52 255.33333 52 292 52 334 68.666667 369.33335 102 398 135.33335 426.66667 175.66666 441.33335 223 442 257 442 288.66667 433.33335 318 416L329 409ZM299 343C295.66667 361.66667 287 376.33335 273 387 259 397.66667 241.66667 403.33335 221 404 201.66667 404 185 398.66667 171 388 157 377.33335 148.33333 362.33335 145 343 143 331.66667 142 314.66667 142 292 142 262.66667 144.33333 241 149 227 153.66667 213 163.66667 201.33333 179 192 190.33333 185.33333 204.66667 182 222 182 236.66667 182 249.33333 184.33333 260 189 270.66667 193.66667 278.33335 199.66667 283 207 287.66667 214.33333 291.33335 221 294 227 296.66667 233 298.33335 238 299 242 301 252.66667 302 269.33335 302 292 302 314.66667 301 331.66667 299 343ZM403-75C403-58.333333 398.33335-44.666669 389-34 379.66667-23.333333 366-15.666667 348-11 330-6.333333 313.66667-3.3333336 299-2 284.33335-.6666666 266.33335 0 245 0H218C173.33333 0 146.66667-2 138-6 124.666667-12 114.333339-21.333333 107-34 99.666667-46.666669 95.666667-60 95-74 95-80.666667 97-88.333339 101-97 105-105.666667 112-115.666667 122-127 132-138.33333 148-147.66667 170-155 192-162.33333 218.66667-166.33333 250-167 296-167 333-157.66667 361-139 389-120.33333 403-99 403-75Z"/>
<path transform="matrix(.009539097,0,0,-.009539097,29.90982,90.2633)" d="M73 647C73 653.6667 74.333339 661.3333 77 670 79.666667 678.6667 83.666667 683 89 683 89.666667 683 113.666667 684.6667 161 688 208.33335 691.3333 232.66667 693.3333 234 694 242 694 246 691 246 685 246 679 234.66667 631.3333 212 542 206.66667 519.3333 201 496 195 472 189 448 184 430 180 418L176 399C176 397 178 398 182 402 214.66667 428.66667 248.33333 442 283 442 324.33335 442 357.66667 426.66667 383 396 408.33335 365.33335 421.33335 326.66667 422 280 422 206 395.66667 139 343 79 290.33335 19 233.66667-11 173-11 139.66666-11 109.333339 1.666666 82 27 54.666666 52.333337 40.666669 93.33333 40 150V159C40 173 42.666669 192.33333 48 217 53.333333 241.66667 69.666667 307.3333 97 414 130.33335 545.3334 147 615 147 623 147 631 134.33333 635.6667 109 637 105.666667 637 103 637 101 637H96C89.333339 637 85 637 83 637 81 637 78.666667 638 76 640 73.333339 642 72.333339 644.3333 73 647ZM336 325V331C336 380.33335 315.66667 405 275 405 263.66667 405 252 402.33335 240 397 228 391.66667 217 384.66667 207 376 197 367.33335 188.33333 359.33335 181 352 173.66667 344.66667 167.66667 337.33335 163 330L157 322 136 236C121.333339 178.66666 114 138 114 114 114 82 122 58 138 42 148.66667 31.333333 162 26 178 26 200 26 222.33333 36.666666 245 58 261.66667 73.333339 275 92 285 114 295 136 306 171 318 219 330 267 336 302.33335 336 325Z"/>
<path transform="matrix(.009539097,0,0,-.009539097,29.90982,90.2633)" stroke-width="0" stroke-linecap="butt" stroke-miterlimit="4" stroke-linejoin="miter" fill="none" stroke="#000000" stroke-opacity=".1192" d="M73 647C73 653.6667 74.333339 661.3333 77 670 79.666667 678.6667 83.666667 683 89 683 89.666667 683 113.666667 684.6667 161 688 208.33335 691.3333 232.66667 693.3333 234 694 242 694 246 691 246 685 246 679 234.66667 631.3333 212 542 206.66667 519.3333 201 496 195 472 189 448 184 430 180 418L176 399C176 397 178 398 182 402 214.66667 428.66667 248.33333 442 283 442 324.33335 442 357.66667 426.66667 383 396 408.33335 365.33335 421.33335 326.66667 422 280 422 206 395.66667 139 343 79 290.33335 19 233.66667-11 173-11 139.66666-11 109.333339 1.666666 82 27 54.666666 52.333337 40.666669 93.33333 40 150V159C40 173 42.666669 192.33333 48 217 53.333333 241.66667 69.666667 307.3333 97 414 130.33335 545.3334 147 615 147 623 147 631 134.33333 635.6667 109 637 105.666667 637 103 637 101 637H96C89.333339 637 85 637 83 637 81 637 78.666667 638 76 640 73.333339 642 72.333339 644.3333 73 647ZM336 325V331C336 380.33335 315.66667 405 275 405 263.66667 405 252 402.33335 240 397 228 391.66667 217 384.66667 207 376 197 367.33335 188.33333 359.33335 181 352 173.66667 344.66667 167.66667 337.33335 163 330L157 322 136 236C121.333339 178.66666 114 138 114 114 114 82 122 58 138 42 148.66667 31.333333 162 26 178 26 200 26 222.33333 36.666666 245 58 261.66667 73.333339 275 92 285 114 295 136 306 171 318 219 330 267 336 302.33335 336 325Z"/>
<path transform="matrix(.013492359,0,0,-.013492359,36.925848,87.00625)" d="M21 287C21.666666 291 22.666666 296.33335 24 303 25.333334 309.66667 29.333333 322.33335 36 341 42.666669 359.66667 49.333333 375.33335 56 388 62.666669 400.66667 73.666667 413 89 425 104.333339 437 119.666667 442.66667 135 442 159 442 179 436 195 424 211 412 221 400.66667 225 390 229 379.33335 231 372.33335 231 369 231 367.66667 231.33333 367 232 367L243 378C283.66667 420.66667 330 442 382 442 418 442 447 433 469 415 491 397 502.33335 370.66667 503 336 503.66667 301.33335 491 249 465 179 439 109 426.33335 66.666667 427 52 427 34.666666 432.66667 26 444 26 448 26 451 26.333334 453 27 472.33335 30.333334 489.66667 43 505 65 520.3333 87 532 113.666667 540 145 541.3333 150.33333 548 153 560 153 573.3333 153 580 150.33333 580 145 580 144.33333 578.6667 139.33333 576 130 570.6667 110.666667 563.3333 91.66667 554 73 544.6667 54.333333 529.3333 35.666669 508 17 486.66667-1.6666679 463.66667-10.666667 439-10 407.66667-10 385-1 371 17 357 35 350 53.666666 350 73 350 85.666667 362 125.666667 386 193 410 260.33335 422.33335 311 423 345 423 384.33335 408.33335 404 379 404H374C316.66667 404 268.33335 370.33335 229 303L222 291 189 157C167 69.666667 154.33333 22.666668 151 16 142.33333-2 128-11 108-11 99.333339-11 92.333339-9 87-5 81.666667-1 78 3 76 7 74 11 73.333339 14.333333 74 17 74 25.666668 86.666667 80 112 180 137.33333 280 150.66667 334.33335 152 343 152.66667 346.33335 153 354 153 366 153 392 145 405 129 405 103.666667 405 82.66667 371.6667 66 305 62 291.66667 60 284.66667 60 284 58.666669 280 52.333337 278 41 278H27C23 282 21 285 21 287Z"/>
<path transform="matrix(.013492359,0,0,-.013492359,36.925848,87.00625)" stroke-width="0" stroke-linecap="butt" stroke-miterlimit="4" stroke-linejoin="miter" fill="none" stroke="#000000" stroke-opacity=".1687" d="M21 287C21.666666 291 22.666666 296.33335 24 303 25.333334 309.66667 29.333333 322.33335 36 341 42.666669 359.66667 49.333333 375.33335 56 388 62.666669 400.66667 73.666667 413 89 425 104.333339 437 119.666667 442.66667 135 442 159 442 179 436 195 424 211 412 221 400.66667 225 390 229 379.33335 231 372.33335 231 369 231 367.66667 231.33333 367 232 367L243 378C283.66667 420.66667 330 442 382 442 418 442 447 433 469 415 491 397 502.33335 370.66667 503 336 503.66667 301.33335 491 249 465 179 439 109 426.33335 66.666667 427 52 427 34.666666 432.66667 26 444 26 448 26 451 26.333334 453 27 472.33335 30.333334 489.66667 43 505 65 520.3333 87 532 113.666667 540 145 541.3333 150.33333 548 153 560 153 573.3333 153 580 150.33333 580 145 580 144.33333 578.6667 139.33333 576 130 570.6667 110.666667 563.3333 91.66667 554 73 544.6667 54.333333 529.3333 35.666669 508 17 486.66667-1.6666679 463.66667-10.666667 439-10 407.66667-10 385-1 371 17 357 35 350 53.666666 350 73 350 85.666667 362 125.666667 386 193 410 260.33335 422.33335 311 423 345 423 384.33335 408.33335 404 379 404H374C316.66667 404 268.33335 370.33335 229 303L222 291 189 157C167 69.666667 154.33333 22.666668 151 16 142.33333-2 128-11 108-11 99.333339-11 92.333339-9 87-5 81.666667-1 78 3 76 7 74 11 73.333339 14.333333 74 17 74 25.666668 86.666667 80 112 180 137.33333 280 150.66667 334.33335 152 343 152.66667 346.33335 153 354 153 366 153 392 145 405 129 405 103.666667 405 82.66667 371.6667 66 305 62 291.66667 60 284.66667 60 284 58.666669 280 52.333337 278 41 278H27C23 282 21 285 21 287Z"/>
</g>
</svg>
