<svg xmlns="http://www.w3.org/2000/svg" xmlns:xlink="http://www.w3.org/1999/xlink" xmlns:inkscape="http://www.inkscape.org/namespaces/inkscape" version="1.1" width="420.873" height="139.624" viewBox="0 0 420.873 139.624">
<defs>
<path id="font_1_1" d="M.46299745 .63082888C.46998597 .64682009 .47099305 .64682009 .47099305 .65483096 .47099305 .67881777 .45098878 .69381716 .43299867 .69381716 .4079895 .69381716 .3999939 .67681887 .394989 .66581729L.066986087-.020019532C.05999756-.036026 .05899048-.036026 .05899048-.044021608 .05899048-.06800842 .07899475-.08300781 .09700012-.08300781 .12199402-.08300781 .12998963-.06600952 .1349945-.055023195L.46299745 .63082888Z"/>
<path id="font_1_3" d="M.17098999 .5683136C.17098999 .60232546 .16099549 .6113281 .12799073 .6113281H.053985597C.037994386 .6113281 .010986328 .6113281 .010986328 .57832339 .010986328 .5453186 .037994386 .5453186 .053985597 .5453186H.09498596V.04310608C.09498596 .025115967 .09498596 .00010681152 .1329956 .00010681152 .17098999 .00010681152 .17098999 .024108887 .17098999 .042114259 .20199585 .0121154789 .24099732-.0048828127 .2849884-.0048828127 .3959961-.0048828127 .49598695 .08906555 .49598695 .21582031 .49598695 .33659364 .40699769 .43554688 .29499818 .43554688 .24798584 .43554688 .20698548 .41853334 .17098999 .39053346V.5683136M.17098999 .2627411C.17098999 .32063294 .22999573 .36953736 .29100038 .36953736 .36099244 .36953736 .41999818 .30166627 .41999818 .21582031 .41999818 .12498474 .35198976 .06111145 .28199769 .06111145 .20799256 .06111145 .17098999 .14395142 .17098999 .19386292V.2627411Z"/>
<path id="font_1_10" d="M.31599427 .55830386C.31599427 .5883026 .2919922 .6123047 .2619934 .6123047 .23199463 .6123047 .20799256 .5883026 .20799256 .55830386 .20799256 .5282898 .23199463 .504303 .2619934 .504303 .2919922 .504303 .31599427 .5282898 .31599427 .55830386M.1309967 .43066407C.115997318 .43066407 .08699036 .43066407 .08699036 .3976593 .08699036 .36465455 .116989139 .36465455 .1309967 .36465455H.23999024V.06599426H.12298584C.10798645 .06599426 .07899475 .06599426 .07899475 .032989503 .07899475 0 .10899353 0 .12298584 0H.4169922C.43099977 0 .46099855 0 .46099855 .032989503 .46099855 .06599426 .43099977 .06599426 .4169922 .06599426H.31599427V.38764955C.31599427 .42166139 .30599977 .43066407 .272995 .43066407H.1309967Z"/>
<path id="font_1_13" d="M.43499757 .29066468C.43499757 .39053346 .3849945 .43554688 .30299378 .43554688 .22898865 .43554688 .18099976 .39553834 .17098999 .38554383 .17098999 .4155426 .16799927 .430542 .12799073 .430542H.053985597C.037994386 .430542 .010986328 .430542 .010986328 .39753724 .010986328 .36454774 .037994386 .36454774 .053985597 .36454774H.09498596V.06599426H.053985597C.037994386 .06599426 .010986328 .06599426 .010986328 .032989503 .010986328 0 .037994386 0 .053985597 0H.21199036C.22799683 0 .25498963 0 .25498963 .032989503 .25498963 .06599426 .22799683 .06599426 .21199036 .06599426H.17098999V.23773194C.17098999 .33358766 .24798584 .36953736 .2979889 .36953736 .34399415 .36953736 .35899354 .34757997 .35899354 .28866578V.06599426H.32598878C.31098939 .06599426 .2829895 .06599426 .2829895 .032989503 .2829895 0 .31098939 0 .32598878 0H.47599793C.49198915 0 .5189972 0 .5189972 .032989503 .5189972 .06599426 .49198915 .06599426 .47599793 .06599426H.43499757V.29066468Z"/>
<path id="font_1_6" d="M.4269867 .18847656C.44599916 .18847656 .46998597 .18847656 .46998597 .22647095 .46998597 .3464508 .4019928 .43945313 .272995 .43945313 .1499939 .43945313 .052993776 .33944703 .052993776 .21746826 .052993776 .098220828 .15299988-.0048828127 .2889862-.0048828127 .42599488-.0048828127 .46998597 .08317566 .46998597 .10824585 .46998597 .13031006 .45298768 .139328 .43199159 .139328 .4149933 .139328 .40499879 .13832093 .394989 .11627197 .375 .071136478 .32598878 .06111145 .2939911 .06111145 .22099304 .06111145 .147995 .10925293 .13198853 .18847656H.4269867M.1329956 .25346376C.147995 .3234558 .20698548 .3734436 .272995 .3734436 .36299134 .3734436 .38598634 .3034668 .3919983 .25346376H.1329956Z"/>
<path id="font_1_18" d="M.22799683 .36465455H.3880005C.40299989 .36465455 .43099977 .36465455 .43099977 .3976593 .43099977 .43066407 .40299989 .43066407 .3880005 .43066407H.22799683V.5106964C.22799683 .5296936 .22799683 .55371096 .18998719 .55371096 .1519928 .55371096 .1519928 .5287018 .1519928 .5106964V.43066407H.068984989C.053985597 .43066407 .024993897 .43066407 .024993897 .3976593 .024993897 .36465455 .052993776 .36465455 .067993167 .36465455H.1519928V.13699341C.1519928 .02911377 .22799683-.0048828127 .2979889-.0048828127 .3880005-.0048828127 .45399476 .05810547 .45399476 .13000489 .45399476 .16395569 .4249878 .16395569 .41600038 .16395569 .3899994 .16395569 .3789978 .15397644 .37799073 .12901306 .37599183 .08807373 .33999635 .06111145 .3019867 .06111145 .22799683 .06111145 .22799683 .11602783 .22799683 .13899231V.36465455Z"/>
<path id="font_1_4" d="M.46998597 .1081543C.46998597 .13018799 .45298768 .13919068 .43199159 .13919068 .41799928 .13919068 .4039917 .13919068 .394989 .11616516 .3769989 .072128299 .33699037 .06111145 .30099488 .06111145 .21798706 .06111145 .147995 .12918091 .147995 .21627808 .147995 .26733399 .17999268 .3734436 .30699159 .3734436 .33599855 .3734436 .35299684 .3714447 .35798646 .37043763 .36099244 .3694458 .3619995 .36843873 .3619995 .35943605 .3639984 .33039857 .3849945 .313385 .4099884 .313385 .43998719 .313385 .45899964 .33540345 .45899964 .36242677 .45899964 .43945313 .35499574 .43945313 .30899049 .43945313 .1309967 .43945313 .07199097 .30136109 .07199097 .21627808 .07199097 .09614563 .16799927-.0048828127 .29599-.0048828127 .43798829-.0048828127 .46998597 .09114075 .46998597 .1081543Z"/>
<path id="font_1_9" d="M.43499757 .29066468C.43499757 .39053346 .3849945 .43554688 .30299378 .43554688 .22898865 .43554688 .18099976 .39553834 .17098999 .38554383V.5683136C.17098999 .60232546 .16099549 .6113281 .12799073 .6113281H.053985597C.037994386 .6113281 .010986328 .6113281 .010986328 .57832339 .010986328 .5453186 .037994386 .5453186 .053985597 .5453186H.09498596V.06599426H.053985597C.037994386 .06599426 .010986328 .06599426 .010986328 .032989503 .010986328 0 .037994386 0 .053985597 0H.21199036C.22799683 0 .25498963 0 .25498963 .032989503 .25498963 .06599426 .22799683 .06599426 .21199036 .06599426H.17098999V.23773194C.17098999 .33358766 .24798584 .36953736 .2979889 .36953736 .34399415 .36953736 .35899354 .34757997 .35899354 .28866578V.06599426H.32598878C.31098939 .06599426 .2829895 .06599426 .2829895 .032989503 .2829895 0 .31098939 0 .32598878 0H.47599793C.49198915 0 .5189972 0 .5189972 .032989503 .5189972 .06599426 .49198915 .06599426 .47599793 .06599426H.43499757V.29066468Z"/>
<path id="font_1_14" d="M.47499085 .21627808C.47499085 .33840943 .3809967 .43945313 .2649994 .43945313 .14898682 .43945313 .054992677 .33840943 .054992677 .21627808 .054992677 .09114075 .15098572-.0048828127 .2649994-.0048828127 .3789978-.0048828127 .47499085 .09114075 .47499085 .21627808M.2649994 .06111145C.19299317 .06111145 .1309967 .13218689 .1309967 .22328186 .1309967 .31037904 .19400025 .3734436 .2649994 .3734436 .33599855 .3734436 .39898683 .31037904 .39898683 .22328186 .39898683 .13218689 .33699037 .06111145 .2649994 .06111145Z"/>
<path id="font_1_12" d="M.46499635 .3007202C.46499635 .32369996 .46499635 .4356537 .375 .4356537 .34199525 .4356537 .30099488 .4206543 .2749939 .3866577 .2559967 .4226532 .22799683 .4356537 .19898987 .4356537 .17799378 .4356537 .14498902 .42965699 .11399841 .40264894 .10798645 .43066407 .084991458 .43066407 .069992069 .43066407H.037994386C.022994996 .43066407-.005004883 .43066407-.005004883 .3976593-.005004883 .36465455 .018997193 .36465455 .050994874 .36465455V.06599426C.018997193 .06599426-.005004883 .06599426-.005004883 .032989503-.005004883 0 .022994996 0 .037994386 0H.12599182C.14099121 0 .16899109 0 .16899109 .032989503 .16899109 .06599426 .14498902 .06599426 .11299133 .06599426V.24079895C.11299133 .32369996 .1559906 .36965943 .19599915 .36965943 .21699524 .36965943 .22698975 .3466797 .22698975 .2957306V.06599426C.21699524 .06599426 .18798828 .06599426 .18798828 .032989503 .18798828 0 .21598816 0 .23098755 0H.3019867C.31698609 0 .34498597 0 .34498597 .032989503 .34498597 .06599426 .32099916 .06599426 .2889862 .06599426V.24079895C.2889862 .32369996 .33198548 .36965943 .37199403 .36965943 .3929901 .36965943 .40299989 .3466797 .40299989 .2957306V.06599426C.3929901 .06599426 .3639984 .06599426 .3639984 .032989503 .3639984 0 .3919983 0 .40699769 0H.47799684C.49299623 0 .5209961 0 .5209961 .032989503 .5209961 .06599426 .49699403 .06599426 .46499635 .06599426V.3007202Z"/>
<path id="font_1_2" d="M.43099977 .28224183C.43099977 .36543275 .3659973 .43945313 .22898865 .43945313 .18199158 .43945313 .07899475 .43945313 .07899475 .36242677 .07899475 .33535768 .09799194 .31330873 .12799073 .31330873 .14698792 .31330873 .17399597 .32533265 .17599488 .36141969 .17599488 .36943055 .1769867 .37043763 .18998719 .37243653 .20098877 .3734436 .21798706 .3734436 .22999573 .3734436 .31199647 .3734436 .35499574 .33636476 .35499574 .28125 .24798584 .28125 .052993776 .25624085 .052993776 .13310242 .052993776 .05899048 .12199402-.005004883 .22299195-.005004883 .30299378-.005004883 .35299684 .024993897 .3659973 .033996583 .3869934 .0029907227 .42900086 0 .47698976 0 .5039978 0 .5299988 0 .5299988 .032989503 .5299988 .06599426 .5019989 .06599426 .48799134 .06599426 .44999696 .06599426 .44099427 .069000247 .43099977 .07299805V.28224183M.35499574 .14312744C.35499574 .12208557 .35499574 .0990448 .31599427 .08001709 .2809906 .06199646 .24198914 .06098938 .22898865 .06098938 .16999817 .06098938 .1289978 .09603882 .1289978 .13310242 .1289978 .18618775 .23899842 .21624756 .35499574 .21723938V.14312744Z"/>
<path id="font_1_17" d="M.43299867 .3964386C.43299867 .411438 .43299867 .43945313 .3999939 .43945313 .3769989 .43945313 .37199403 .42744447 .36898805 .42144776 .32798768 .43945313 .28799439 .43945313 .2649994 .43945313 .09498596 .43945313 .07299805 .35542298 .07299805 .3203888 .07299805 .22729492 .17799378 .2112732 .2659912 .19725037 .31999208 .18824768 .39698792 .17623902 .39698792 .127182 .39698792 .09114075 .35899354 .06111145 .27198792 .06111145 .20999146 .06111145 .16999817 .08213806 .14898682 .14219666 .14399719 .15821839 .13999939 .17022705 .11099243 .17022705 .07299805 .17022705 .07299805 .14520264 .07299805 .127182V.038116456C.07299805 .023117066 .07299805-.0048828127 .10598755-.0048828127 .115997318-.0048828127 .13398743-.0018920899 .14399719 .02810669 .19499207-.0048828127 .25099183-.0048828127 .2709961-.0048828127 .44099427-.0048828127 .46299745 .089141849 .46299745 .12617493 .46299745 .15020752 .45498658 .18624878 .4169922 .215271 .3769989 .2453003 .33799745 .25131227 .2679901 .26332093 .19999695 .27433778 .13899231 .28434754 .13899231 .3203888 .13899231 .34040834 .16299439 .3734436 .2630005 .3734436 .35299684 .3734436 .35598756 .3414154 .35699464 .32339479 .35899354 .29135133 .38398744 .29135133 .394989 .29135133 .43299867 .29135133 .43299867 .3153839 .43299867 .33439637V.3964386Z"/>
<path id="font_2_1" d="M.20298767 .054992677C.20298767 .08898926 .1749878 .11099243 .147995 .11099243 .115997318 .11099243 .09199524 .084991458 .09199524 .055999757 .09199524 .021987915 .11999512 0 .14698792 0 .1789856 0 .20298767 .025985718 .20298767 .054992677Z"/>
<path id="font_1_11" d="M.30299378 .5683136C.30299378 .60232546 .29299928 .6113281 .2599945 .6113281H.101989749C.08699036 .6113281 .057998659 .6113281 .057998659 .57832339 .057998659 .5453186 .08799744 .5453186 .101989749 .5453186H.22698975V.06599426H.101989749C.08699036 .06599426 .057998659 .06599426 .057998659 .032989503 .057998659 0 .08799744 0 .101989749 0H.42799378C.44299317 0 .47200013 0 .47200013 .032989503 .47200013 .06599426 .44198609 .06599426 .42799378 .06599426H.30299378V.5683136Z"/>
<path id="font_1_15" d="M.21199036-.22167969C.22799683-.22167969 .25498963-.22167969 .25498963-.18869019 .25498963-.15568543 .22799683-.15568543 .21199036-.15568543H.17098999V.042114259C.20199585 .0121154789 .24099732-.0048828127 .2849884-.0048828127 .3959961-.0048828127 .49598695 .08906555 .49598695 .21588135 .49598695 .33670045 .40699769 .4356537 .29499818 .4356537 .24798584 .4356537 .20698548 .4186554 .17098999 .39065553 .17098999 .43066407 .14898682 .43066407 .12799073 .43066407H.053985597C.037994386 .43066407 .010986328 .43066407 .010986328 .3976593 .010986328 .36465455 .037994386 .36465455 .053985597 .36465455H.09498596V-.15568543H.053985597C.037994386-.15568543 .010986328-.15568543 .010986328-.18869019 .010986328-.22167969 .037994386-.22167969 .053985597-.22167969H.21199036M.17098999 .26280213C.17098999 .3207245 .22999573 .36965943 .29100038 .36965943 .36099244 .36965943 .41999818 .3017578 .41999818 .21588135 .41999818 .12501526 .35198976 .06111145 .28199769 .06111145 .20799256 .06111145 .17098999 .14398194 .17098999 .19390869V.26280213Z"/>
<path id="font_1_16" d="M.22599793 .18286133C.22599793 .2917328 .3039856 .36965943 .40098573 .36965943 .40299989 .33068849 .43099977 .32270814 .44699098 .32270814 .47200013 .32270814 .49299623 .34068299 .49299623 .36965943 .49299623 .39465333 .47499085 .4356537 .39698792 .4356537 .30499269 .4356537 .25099183 .3826599 .22599793 .35766603V.38764955C.22599793 .42166139 .21598816 .43066407 .18299866 .43066407H.07398987C.05999756 .43066407 .02999878 .43066407 .02999878 .3976593 .02999878 .36465455 .05999756 .36465455 .07398987 .36465455H.1499939V.06599426H.07398987C.05999756 .06599426 .02999878 .06599426 .02999878 .032989503 .02999878 0 .05999756 0 .07398987 0H.33198548C.34799195 0 .375 0 .375 .032989503 .375 .06599426 .34799195 .06599426 .33198548 .06599426H.22599793V.18286133Z"/>
<path id="font_1_19" d="M.43499757 .38764955C.43499757 .42166139 .4249878 .43066407 .3919983 .43066407H.31799317C.3019867 .43066407 .2749939 .43066407 .2749939 .3976593 .2749939 .36465455 .3019867 .36465455 .31799317 .36465455H.35899354V.15496826C.35899354 .07608032 .28599549 .06111145 .24798584 .06111145 .17098999 .06111145 .17098999 .09007263 .17098999 .119018558V.38764955C.17098999 .42166139 .16099549 .43066407 .12799073 .43066407H.053985597C.037994386 .43066407 .010986328 .43066407 .010986328 .3976593 .010986328 .36465455 .037994386 .36465455 .053985597 .36465455H.09498596V.11602783C.09498596 .024108887 .1579895-.0048828127 .24198914-.0048828127 .29499818-.0048828127 .33299256 .010116577 .35798646 .02911377 .36299134 .00010681152 .3869934 .00010681152 .4019928 .00010681152H.47599793C.49198915 .00010681152 .5189972 .00010681152 .5189972 .033111574 .5189972 .066101077 .49198915 .066101077 .47599793 .066101077H.43499757V.38764955Z"/>
<path id="font_1_20" d="M.43399049 .36465455C.45098878 .36465455 .47799684 .36465455 .48399354 .36665345 .49499513 .37065126 .5049896 .37965394 .5049896 .3976593 .5049896 .43066407 .47599793 .43066407 .45899964 .43066407H.34799195C.33099366 .43066407 .3019867 .43066407 .3019867 .3976593 .3019867 .39465333 .30299378 .37565614 .31999208 .36766053 .32699586 .36465455 .35198976 .36465455 .36898805 .36465455 .35699464 .33171083 .33399964 .26080323 .31799317 .21487427 .30299378 .16894531 .2809906 .1030426 .2749939 .07807922H.27398683C.2709961 .092056278 .2649994 .11003113 .22399903 .21786499L.1659851 .36465455C.18099976 .36465455 .20399475 .36465455 .21099854 .36766053 .21998596 .37065126 .22999573 .380661 .22999573 .3976593 .22999573 .43066407 .20098877 .43066407 .18399048 .43066407H.07299805C.055999757 .43066407 .026992798 .43066407 .026992798 .3976593 .026992798 .39265443 .0289917 .37265016 .04798889 .36665345 .053985597 .36465455 .08198547 .36465455 .09899902 .36465455L.23899842 .013168335C.24198914 .0051879885 .24299622 .0021972657 .24299622 .00019836426 .24299622-.0028076173 .21699524-.08268738 .20799256-.10066223 .19099427-.13461304 .16499329-.15757752 .12799073-.16056824L.13699341-.14160156C.13598633-.10964966 .11399841-.09466553 .08999634-.09466553 .06298828-.09466553 .042999269-.11264038 .042999269-.14259339 .042999269-.18257141 .07499695-.2265625 .1269989-.2265625 .20599365-.2265625 .2579956-.14958191 .2809906-.08268738L.43399049 .36465455Z"/>
<path id="font_1_5" d="M.43499757 .5683136C.43499757 .60232546 .4249878 .6113281 .3919983 .6113281H.31799317C.3019867 .6113281 .2749939 .6113281 .2749939 .57832339 .2749939 .5453186 .3019867 .5453186 .31799317 .5453186H.35899354V.3945465C.31298829 .430542 .2709961 .43554688 .24398804 .43554688 .1329956 .43554688 .033996583 .3415985 .033996583 .21482849 .033996583 .093048099 .125-.0048828127 .23498535-.0048828127 .28799439-.0048828127 .32998658 .019104004 .35899354 .04710388 .35899354 .019104004 .35899354 .00010681152 .4019928 .00010681152H.47599793C.49198915 .00010681152 .5189972 .00010681152 .5189972 .033111574 .5189972 .066101077 .49198915 .066101077 .47599793 .066101077H.43499757V.5683136M.35899354 .19685364C.35899354 .13996887 .31298829 .06111145 .23799134 .06111145 .17098999 .06111145 .10998535 .12698365 .10998535 .21482849 .10998535 .30366517 .17599488 .36953736 .24899292 .36953736 .30799867 .36953736 .35899354 .31863404 .35899354 .2637329V.19685364Z"/>
<path id="font_1_7" d="M.25898744 .36465455H.37799073C.3929901 .36465455 .42099 .36465455 .42099 .3976593 .42099 .43066407 .3929901 .43066407 .37799073 .43066407H.25898744V.47686769C.25898744 .54016116 .30699159 .5502014 .34899903 .5502014 .35198976 .51805117 .37799073 .5039978 .3959961 .5039978 .4169922 .5039978 .44299317 .5200653 .44299317 .5522003 .44299317 .61621096 .35899354 .61621096 .34298707 .61621096 .2659912 .61621096 .18299866 .5742035 .18299866 .47988893V.43066407H.08699036C.07199097 .43066407 .042999269 .43066407 .042999269 .3976593 .042999269 .36465455 .070999149 .36465455 .085998538 .36465455H.18299866V.06599426H.085998538C.07199097 .06599426 .041992189 .06599426 .041992189 .032989503 .041992189 0 .07199097 0 .085998538 0H.35598756C.36999513 0 .3999939 0 .3999939 .032989503 .3999939 .06599426 .36999513 .06599426 .35598756 .06599426H.25898744V.36465455Z"/>
<path id="font_1_8" d="M.14498902 .13771057C.1619873 .1277008 .19499207 .113708499 .23498535 .113708499 .33198548 .113708499 .4059906 .18769837 .4059906 .2746277 .4059906 .30958558 .3929901 .3405609 .3809967 .35954286 .40098573 .37054444 .4119873 .37153626 .42900086 .37353517 .43499757 .34954835 .45298768 .338562 .47200013 .338562 .49598695 .338562 .5149994 .35754396 .5149994 .38154603 .5149994 .41253663 .48999024 .4405365 .43899537 .4405365 .4119873 .4405365 .36898805 .4325409 .33399964 .40653993 .32499696 .41253663 .2869873 .43554688 .23599243 .43554688 .13899231 .43554688 .06498718 .36154176 .06498718 .2746277 .06498718 .24264527 .07598877 .20767212 .09700012 .18170166 .08898926 .16870117 .07699585 .14170838 .07699585 .113708499 .07699585 .084869388 .08898926 .05697632 .100997928 .04196167 .05899048 .017974854 .02999878-.030929566 .02999878-.07978821 .02999878-.1675415 .13798523-.22753906 .2649994-.22753906 .3919983-.22753906 .5-.1675415 .5-.07978821 .5 .0069732668 .42399598 .05897522 .31698609 .06297302 .2869873 .063964847 .21299744 .061965944 .18399048 .065963748 .13999939 .065963748 .13999939 .112701419 .13999939 .113708499 .13999939 .1257019 .14299011 .13270569 .14498902 .13771057M.23498535 .17871094C.18499756 .17871094 .14099121 .2206726 .14099121 .2746277 .14099121 .3285675 .18499756 .37054444 .23498535 .37054444 .2869873 .37054444 .32998658 .32757569 .32998658 .2746277 .32998658 .22267151 .28799439 .17871094 .23498535 .17871094M.23699951 .0009765625C.32499696 .0009765625 .43699647 .0009765625 .43699647-.07978821 .43699647-.120666507 .36499024-.16255188 .2649994-.16255188 .1639862-.16255188 .09298706-.11967468 .09298706-.07978821 .09298706-.040908815 .1289978-.000030517579 .18199158 .0009765625H.23699951Z"/>
</defs>
<use data-text="/" xlink:href="#font_1_1" transform="matrix(7.9701,0,0,-7.9701,177.135,8.356995)"/>
<use data-text="b" xlink:href="#font_1_3" transform="matrix(7.9701,0,0,-7.9701,2.8220063,50.87699)"/>
<use data-text="i" xlink:href="#font_1_10" transform="matrix(7.9701,0,0,-7.9701,7.0541298,50.87699)"/>
<use data-text="n" xlink:href="#font_1_13" transform="matrix(7.9701,0,0,-7.9701,11.286253,50.87699)"/>
<path transform="matrix(1,0,0,-1,179.252,5.921997)" stroke-width=".79701" stroke-linecap="butt" stroke-miterlimit="10" stroke-linejoin="miter" fill="none" stroke="#000000" d="M0-6.32054V-21.2601H-170.08081V-36.86385"/>
<use data-text="e" xlink:href="#font_1_6" transform="matrix(7.9701,0,0,-7.9701,45.341997,50.646997)"/>
<use data-text="t" xlink:href="#font_1_18" transform="matrix(7.9701,0,0,-7.9701,49.57412,50.646997)"/>
<use data-text="c" xlink:href="#font_1_4" transform="matrix(7.9701,0,0,-7.9701,53.806245,50.646997)"/>
<path transform="matrix(1,0,0,-1,179.252,5.921997)" stroke-width=".79701" stroke-linecap="butt" stroke-miterlimit="10" stroke-linejoin="miter" fill="none" stroke="#000000" d="M0-6.32054V-21.2601H-127.56058V-37.09314"/>
<use data-text="h" xlink:href="#font_1_9" transform="matrix(7.9701,0,0,-7.9701,85.744998,50.87699)"/>
<use data-text="o" xlink:href="#font_1_14" transform="matrix(7.9701,0,0,-7.9701,89.97712,50.87699)"/>
<use data-text="m" xlink:href="#font_1_12" transform="matrix(7.9701,0,0,-7.9701,94.20924,50.87699)"/>
<use data-text="e" xlink:href="#font_1_6" transform="matrix(7.9701,0,0,-7.9701,98.44137,50.87699)"/>
<path transform="matrix(1,0,0,-1,179.252,5.921997)" stroke-width=".79701" stroke-linecap="butt" stroke-miterlimit="10" stroke-linejoin="miter" fill="none" stroke="#000000" d="M0-6.32054V-21.2601H-85.04036V-36.86385"/>
<use data-text="a" xlink:href="#font_1_2" transform="matrix(7.9701,0,0,-7.9701,43.225008,92.676998)"/>
<use data-text="n" xlink:href="#font_1_13" transform="matrix(7.9701,0,0,-7.9701,47.45713,92.676998)"/>
<use data-text="n" xlink:href="#font_1_13" transform="matrix(7.9701,0,0,-7.9701,51.689256,92.676998)"/>
<use data-text="e" xlink:href="#font_1_6" transform="matrix(7.9701,0,0,-7.9701,55.92138,92.676998)"/>
<path transform="matrix(1,0,0,-1,179.252,5.921997)" stroke-width=".79701" stroke-linecap="butt" stroke-miterlimit="10" stroke-linejoin="miter" fill="none" stroke="#000000" d="M-85.04036-48.17657V-63.78032H-127.56055V-80.1036"/>
<use data-text="s" xlink:href="#font_1_17" transform="matrix(7.9701,0,0,-7.9701,87.862,92.676998)"/>
<use data-text="a" xlink:href="#font_1_2" transform="matrix(7.9701,0,0,-7.9701,92.094127,92.676998)"/>
<use data-text="m" xlink:href="#font_1_12" transform="matrix(7.9701,0,0,-7.9701,96.32625,92.676998)"/>
<path transform="matrix(1,0,0,-1,179.252,5.921997)" stroke-width=".79701" stroke-linecap="butt" stroke-miterlimit="10" stroke-linejoin="miter" fill="none" stroke="#000000" d="M-85.04036-48.17657V-63.78032H-85.04033V-80.1036"/>
<use data-text="." xlink:href="#font_2_1" transform="matrix(7.9701,0,0,-7.9701,131.793,91.40399)"/>
<use data-text="." xlink:href="#font_2_1" transform="matrix(7.9701,0,0,-7.9701,135.55489,91.40399)"/>
<use data-text="." xlink:href="#font_2_1" transform="matrix(7.9701,0,0,-7.9701,139.31678,91.40399)"/>
<path transform="matrix(1,0,0,-1,179.252,5.921997)" stroke-width=".79701" stroke-linecap="butt" stroke-miterlimit="10" stroke-linejoin="miter" fill="none" stroke="#000000" d="M-85.04036-48.17657V-63.78032H-42.52011V-81.37662"/>
<use data-text="l" xlink:href="#font_1_11" transform="matrix(7.9701,0,0,-7.9701,130.381,50.87699)"/>
<use data-text="i" xlink:href="#font_1_10" transform="matrix(7.9701,0,0,-7.9701,134.61312,50.87699)"/>
<use data-text="b" xlink:href="#font_1_3" transform="matrix(7.9701,0,0,-7.9701,138.84523,50.87699)"/>
<path transform="matrix(1,0,0,-1,179.252,5.921997)" stroke-width=".79701" stroke-linecap="butt" stroke-miterlimit="10" stroke-linejoin="miter" fill="none" stroke="#000000" d="M0-6.32054V-21.2601H-42.52014V-36.86385"/>
<use data-text="o" xlink:href="#font_1_14" transform="matrix(7.9701,0,0,-7.9701,172.901,49.761995)"/>
<use data-text="p" xlink:href="#font_1_15" transform="matrix(7.9701,0,0,-7.9701,177.13312,49.761995)"/>
<use data-text="t" xlink:href="#font_1_18" transform="matrix(7.9701,0,0,-7.9701,181.36524,49.761995)"/>
<path transform="matrix(1,0,0,-1,179.252,5.921997)" stroke-width=".79701" stroke-linecap="butt" stroke-miterlimit="10" stroke-linejoin="miter" fill="none" stroke="#000000" d="M0-6.32054V-21.2601H.00006V-36.20757"/>
<use data-text="p" xlink:href="#font_1_15" transform="matrix(7.9701,0,0,-7.9701,213.304,49.271997)"/>
<use data-text="r" xlink:href="#font_1_16" transform="matrix(7.9701,0,0,-7.9701,217.53612,49.271997)"/>
<use data-text="o" xlink:href="#font_1_14" transform="matrix(7.9701,0,0,-7.9701,221.76824,49.271997)"/>
<use data-text="c" xlink:href="#font_1_4" transform="matrix(7.9701,0,0,-7.9701,226.00035,49.271997)"/>
<path transform="matrix(1,0,0,-1,179.252,5.921997)" stroke-width=".79701" stroke-linecap="butt" stroke-miterlimit="10" stroke-linejoin="miter" fill="none" stroke="#000000" d="M0-6.32054V-21.2601H42.5203V-36.69781"/>
<use data-text="t" xlink:href="#font_1_18" transform="matrix(7.9701,0,0,-7.9701,257.94,49.761995)"/>
<use data-text="m" xlink:href="#font_1_12" transform="matrix(7.9701,0,0,-7.9701,262.17213,49.761995)"/>
<use data-text="p" xlink:href="#font_1_15" transform="matrix(7.9701,0,0,-7.9701,266.40425,49.761995)"/>
<path transform="matrix(1,0,0,-1,179.252,5.921997)" stroke-width=".79701" stroke-linecap="butt" stroke-miterlimit="10" stroke-linejoin="miter" fill="none" stroke="#000000" d="M0-6.32054V-21.2601H85.04051V-36.20757"/>
<use data-text="u" xlink:href="#font_1_19" transform="matrix(7.9701,0,0,-7.9701,300.46,50.15699)"/>
<use data-text="s" xlink:href="#font_1_17" transform="matrix(7.9701,0,0,-7.9701,304.6921,50.15699)"/>
<use data-text="r" xlink:href="#font_1_16" transform="matrix(7.9701,0,0,-7.9701,308.92424,50.15699)"/>
<path transform="matrix(1,0,0,-1,179.252,5.921997)" stroke-width=".79701" stroke-linecap="butt" stroke-miterlimit="10" stroke-linejoin="miter" fill="none" stroke="#000000" d="M0-6.32054V-21.2601H127.56073V-37.58339"/>
<use data-text="b" xlink:href="#font_1_3" transform="matrix(7.9701,0,0,-7.9701,194.161,93.395999)"/>
<use data-text="i" xlink:href="#font_1_10" transform="matrix(7.9701,0,0,-7.9701,198.39311,93.395999)"/>
<use data-text="n" xlink:href="#font_1_13" transform="matrix(7.9701,0,0,-7.9701,202.62523,93.395999)"/>
<path transform="matrix(1,0,0,-1,179.252,5.921997)" stroke-width=".79701" stroke-linecap="butt" stroke-miterlimit="10" stroke-linejoin="miter" fill="none" stroke="#000000" d="M127.56073-47.45705V-63.78032H21.26024V-79.38406"/>
<use data-text="a" xlink:href="#font_1_2" transform="matrix(7.9701,0,0,-7.9701,79.393,135.03)"/>
<use data-text="c" xlink:href="#font_1_4" transform="matrix(7.9701,0,0,-7.9701,83.62512,135.03)"/>
<use data-text="y" xlink:href="#font_1_20" transform="matrix(7.9701,0,0,-7.9701,87.85725,135.03)"/>
<use data-text="c" xlink:href="#font_1_4" transform="matrix(7.9701,0,0,-7.9701,92.08937,135.03)"/>
<use data-text="l" xlink:href="#font_1_11" transform="matrix(7.9701,0,0,-7.9701,96.321498,135.03)"/>
<use data-text="i" xlink:href="#font_1_10" transform="matrix(7.9701,0,0,-7.9701,100.55362,135.03)"/>
<use data-text="c" xlink:href="#font_1_4" transform="matrix(7.9701,0,0,-7.9701,104.78574,135.03)"/>
<path transform="matrix(1,0,0,-1,179.252,5.921997)" stroke-width=".79701" stroke-linecap="butt" stroke-miterlimit="10" stroke-linejoin="miter" fill="none" stroke="#000000" d="M21.26024-90.69681V-106.30054H-85.04025V-121.01872"/>
<use data-text="d" xlink:href="#font_1_5" transform="matrix(7.9701,0,0,-7.9701,128.264,135.916)"/>
<use data-text="i" xlink:href="#font_1_10" transform="matrix(7.9701,0,0,-7.9701,132.49613,135.916)"/>
<use data-text="f" xlink:href="#font_1_7" transform="matrix(7.9701,0,0,-7.9701,136.72824,135.916)"/>
<use data-text="f" xlink:href="#font_1_7" transform="matrix(7.9701,0,0,-7.9701,140.96036,135.916)"/>
<path transform="matrix(1,0,0,-1,179.252,5.921997)" stroke-width=".79701" stroke-linecap="butt" stroke-miterlimit="10" stroke-linejoin="miter" fill="none" stroke="#000000" d="M21.26024-90.69681V-106.30054H-42.52003V-121.9043"/>
<use data-text="d" xlink:href="#font_1_5" transform="matrix(7.9701,0,0,-7.9701,172.901,135.916)"/>
<use data-text="o" xlink:href="#font_1_14" transform="matrix(7.9701,0,0,-7.9701,177.13312,135.916)"/>
<use data-text="t" xlink:href="#font_1_18" transform="matrix(7.9701,0,0,-7.9701,181.36524,135.916)"/>
<path transform="matrix(1,0,0,-1,179.252,5.921997)" stroke-width=".79701" stroke-linecap="butt" stroke-miterlimit="10" stroke-linejoin="miter" fill="none" stroke="#000000" d="M21.26024-90.69681V-106.30054H.00017V-121.9043"/>
<use data-text="g" xlink:href="#font_1_8" transform="matrix(7.9701,0,0,-7.9701,217.538,134.311)"/>
<use data-text="c" xlink:href="#font_1_4" transform="matrix(7.9701,0,0,-7.9701,221.77011,134.311)"/>
<path transform="matrix(1,0,0,-1,179.252,5.921997)" stroke-width=".79701" stroke-linecap="butt" stroke-miterlimit="10" stroke-linejoin="miter" fill="none" stroke="#000000" d="M21.26024-90.69681V-106.30054H42.5204V-121.73825"/>
<use data-text="n" xlink:href="#font_1_13" transform="matrix(7.9701,0,0,-7.9701,253.706,135.687)"/>
<use data-text="e" xlink:href="#font_1_6" transform="matrix(7.9701,0,0,-7.9701,257.9381,135.687)"/>
<use data-text="a" xlink:href="#font_1_2" transform="matrix(7.9701,0,0,-7.9701,262.17024,135.687)"/>
<use data-text="t" xlink:href="#font_1_18" transform="matrix(7.9701,0,0,-7.9701,266.40235,135.687)"/>
<use data-text="o" xlink:href="#font_1_14" transform="matrix(7.9701,0,0,-7.9701,270.63447,135.687)"/>
<path transform="matrix(1,0,0,-1,179.252,5.921997)" stroke-width=".79701" stroke-linecap="butt" stroke-miterlimit="10" stroke-linejoin="miter" fill="none" stroke="#000000" d="M21.26024-90.69681V-106.30054H85.04062V-122.13359"/>
<use data-text="." xlink:href="#font_2_1" transform="matrix(7.9701,0,0,-7.9701,301.872,133.924)"/>
<use data-text="." xlink:href="#font_2_1" transform="matrix(7.9701,0,0,-7.9701,305.63389,133.924)"/>
<use data-text="." xlink:href="#font_2_1" transform="matrix(7.9701,0,0,-7.9701,309.39576,133.924)"/>
<path transform="matrix(1,0,0,-1,179.252,5.921997)" stroke-width=".79701" stroke-linecap="butt" stroke-miterlimit="10" stroke-linejoin="miter" fill="none" stroke="#000000" d="M21.26024-90.69681V-106.30054H127.56084V-123.89685"/>
<use data-text="i" xlink:href="#font_1_10" transform="matrix(7.9701,0,0,-7.9701,228.212,93.395999)"/>
<use data-text="n" xlink:href="#font_1_13" transform="matrix(7.9701,0,0,-7.9701,232.44412,93.395999)"/>
<use data-text="c" xlink:href="#font_1_4" transform="matrix(7.9701,0,0,-7.9701,236.67624,93.395999)"/>
<use data-text="l" xlink:href="#font_1_11" transform="matrix(7.9701,0,0,-7.9701,240.90836,93.395999)"/>
<use data-text="u" xlink:href="#font_1_19" transform="matrix(7.9701,0,0,-7.9701,245.14048,93.395999)"/>
<use data-text="d" xlink:href="#font_1_5" transform="matrix(7.9701,0,0,-7.9701,249.37259,93.395999)"/>
<use data-text="e" xlink:href="#font_1_6" transform="matrix(7.9701,0,0,-7.9701,253.6047,93.395999)"/>
<path transform="matrix(1,0,0,-1,179.252,5.921997)" stroke-width=".79701" stroke-linecap="butt" stroke-miterlimit="10" stroke-linejoin="miter" fill="none" stroke="#000000" d="M127.56073-47.45705V-63.78032H63.78046V-79.38406"/>
<use data-text="l" xlink:href="#font_1_11" transform="matrix(7.9701,0,0,-7.9701,274.966,93.395999)"/>
<use data-text="o" xlink:href="#font_1_14" transform="matrix(7.9701,0,0,-7.9701,279.19813,93.395999)"/>
<use data-text="c" xlink:href="#font_1_4" transform="matrix(7.9701,0,0,-7.9701,283.43025,93.395999)"/>
<use data-text="a" xlink:href="#font_1_2" transform="matrix(7.9701,0,0,-7.9701,287.66236,93.395999)"/>
<use data-text="l" xlink:href="#font_1_11" transform="matrix(7.9701,0,0,-7.9701,291.89448,93.395999)"/>
<path transform="matrix(1,0,0,-1,179.252,5.921997)" stroke-width=".79701" stroke-linecap="butt" stroke-miterlimit="10" stroke-linejoin="miter" fill="none" stroke="#000000" d="M127.56073-47.45705V-63.78032H106.30067V-79.38406"/>
<use data-text="s" xlink:href="#font_1_17" transform="matrix(7.9701,0,0,-7.9701,317.486,93.395999)"/>
<use data-text="h" xlink:href="#font_1_9" transform="matrix(7.9701,0,0,-7.9701,321.7181,93.395999)"/>
<use data-text="a" xlink:href="#font_1_2" transform="matrix(7.9701,0,0,-7.9701,325.95024,93.395999)"/>
<use data-text="r" xlink:href="#font_1_16" transform="matrix(7.9701,0,0,-7.9701,330.18235,93.395999)"/>
<use data-text="e" xlink:href="#font_1_6" transform="matrix(7.9701,0,0,-7.9701,334.41447,93.395999)"/>
<path transform="matrix(1,0,0,-1,179.252,5.921997)" stroke-width=".79701" stroke-linecap="butt" stroke-miterlimit="10" stroke-linejoin="miter" fill="none" stroke="#000000" d="M127.56073-47.45705V-63.78032H148.82089V-79.38406"/>
<use data-text="s" xlink:href="#font_1_17" transform="matrix(7.9701,0,0,-7.9701,364.24,92.676998)"/>
<use data-text="r" xlink:href="#font_1_16" transform="matrix(7.9701,0,0,-7.9701,368.4721,92.676998)"/>
<use data-text="c" xlink:href="#font_1_4" transform="matrix(7.9701,0,0,-7.9701,372.70423,92.676998)"/>
<path transform="matrix(1,0,0,-1,179.252,5.921997)" stroke-width=".79701" stroke-linecap="butt" stroke-miterlimit="10" stroke-linejoin="miter" fill="none" stroke="#000000" d="M127.56073-47.45705V-63.78032H191.34113V-80.1036"/>
<use data-text="." xlink:href="#font_2_1" transform="matrix(7.9701,0,0,-7.9701,408.17103,91.40399)"/>
<use data-text="." xlink:href="#font_2_1" transform="matrix(7.9701,0,0,-7.9701,411.9329,91.40399)"/>
<use data-text="." xlink:href="#font_2_1" transform="matrix(7.9701,0,0,-7.9701,415.69477,91.40399)"/>
<path transform="matrix(1,0,0,-1,179.252,5.921997)" stroke-width=".79701" stroke-linecap="butt" stroke-miterlimit="10" stroke-linejoin="miter" fill="none" stroke="#000000" d="M127.56073-47.45705V-63.78032H233.86135V-81.37662"/>
<use data-text="." xlink:href="#font_2_1" transform="matrix(7.9701,0,0,-7.9701,344.391,48.883996)"/>
<use data-text="." xlink:href="#font_2_1" transform="matrix(7.9701,0,0,-7.9701,348.15287,48.883996)"/>
<use data-text="." xlink:href="#font_2_1" transform="matrix(7.9701,0,0,-7.9701,351.91474,48.883996)"/>
<path transform="matrix(1,0,0,-1,179.252,5.921997)" stroke-width=".79701" stroke-linecap="butt" stroke-miterlimit="10" stroke-linejoin="miter" fill="none" stroke="#000000" d="M0-6.32054V-21.2601H170.08097V-38.8564"/>
</svg>
