<svg xmlns="http://www.w3.org/2000/svg" xmlns:xlink="http://www.w3.org/1999/xlink" xmlns:inkscape="http://www.inkscape.org/namespaces/inkscape" version="1.1" width="364.874" height="144.84178" viewBox="0 0 364.874 144.84178">
<g>
<path transform="matrix(1,0,0,-1,0,0)" d="M283.688-118.555H297.188V-131.157H283.688Z" fill="#e6e6e6"/>
<path transform="matrix(1,0,0,-1,0,0)" stroke-width=".374" stroke-linecap="butt" stroke-miterlimit="10" stroke-linejoin="miter" fill="none" stroke="#211e1e" d="M283.688-118.555H297.188V-131.157H283.688Z"/>
<path transform="matrix(1,0,0,-1,0,0)" d="M297.188-118.555H310.688V-131.157H297.188Z" fill="#e6e6e6"/>
<path transform="matrix(1,0,0,-1,0,0)" stroke-width=".374" stroke-linecap="butt" stroke-miterlimit="10" stroke-linejoin="miter" fill="none" stroke="#211e1e" d="M297.188-118.555H310.688V-131.157H297.188Z"/>
<path transform="matrix(1,0,0,-1,0,0)" d="M270.188-118.555H283.688V-131.157H270.188Z" fill="#e6e6e6"/>
<path transform="matrix(1,0,0,-1,0,0)" stroke-width=".374" stroke-linecap="butt" stroke-miterlimit="10" stroke-linejoin="miter" fill="none" stroke="#211e1e" d="M270.188-118.555H283.688V-131.157H270.188Z"/>
<path transform="matrix(1,0,0,-1,0,0)" d="M229.688-118.555H243.188V-131.157H229.688Z" fill="#e6e6e6"/>
<path transform="matrix(1,0,0,-1,0,0)" stroke-width=".374" stroke-linecap="butt" stroke-miterlimit="10" stroke-linejoin="miter" fill="none" stroke="#211e1e" d="M229.688-118.555H243.188V-131.157H229.688Z"/>
<path transform="matrix(1,0,0,-1,0,0)" d="M243.188-118.555H256.688V-131.157H243.188Z" fill="#e6e6e6"/>
<path transform="matrix(1,0,0,-1,0,0)" stroke-width=".374" stroke-linecap="butt" stroke-miterlimit="10" stroke-linejoin="miter" fill="none" stroke="#211e1e" d="M243.188-118.555H256.688V-131.157H243.188Z"/>
<path transform="matrix(1,0,0,-1,0,0)" d="M216.188-118.555H229.688V-131.157H216.188Z" fill="#e6e6e6"/>
<path transform="matrix(1,0,0,-1,0,0)" stroke-width=".374" stroke-linecap="butt" stroke-miterlimit="10" stroke-linejoin="miter" fill="none" stroke="#211e1e" d="M216.188-118.555H229.688V-131.157H216.188Z"/>
<path transform="matrix(1,0,0,-1,0,0)" d="M229.688-104.156H243.188V-116.757999H229.688Z" fill="#e6e6e6"/>
<path transform="matrix(1,0,0,-1,0,0)" stroke-width=".374" stroke-linecap="butt" stroke-miterlimit="10" stroke-linejoin="miter" fill="none" stroke="#211e1e" d="M229.688-104.156H243.188V-116.757999H229.688Z"/>
<path transform="matrix(1,0,0,-1,0,0)" d="M243.188-104.156H256.688V-116.757999H243.188Z" fill="#e6e6e6"/>
<path transform="matrix(1,0,0,-1,0,0)" stroke-width=".374" stroke-linecap="butt" stroke-miterlimit="10" stroke-linejoin="miter" fill="none" stroke="#211e1e" d="M243.188-104.156H256.688V-116.757999H243.188Z"/>
<path transform="matrix(1,0,0,-1,0,0)" d="M216.188-104.156H229.688V-116.757999H216.188Z" fill="#e6e6e6"/>
<path transform="matrix(1,0,0,-1,0,0)" stroke-width=".374" stroke-linecap="butt" stroke-miterlimit="10" stroke-linejoin="miter" fill="none" stroke="#211e1e" d="M216.188-104.156H229.688V-116.757999H216.188Z"/>
<path transform="matrix(1,0,0,-1,0,0)" d="M337.688-77.156H351.188V-90.656H337.688Z" fill="#e6e6e6"/>
<path transform="matrix(1,0,0,-1,0,0)" stroke-width=".374" stroke-linecap="butt" stroke-miterlimit="10" stroke-linejoin="miter" fill="none" stroke="#211e1e" d="M337.688-77.156H351.188V-90.656H337.688Z"/>
<path transform="matrix(1,0,0,-1,0,0)" d="M351.188-77.156H364.688V-90.656H351.188Z" fill="#e6e6e6"/>
<path transform="matrix(1,0,0,-1,0,0)" stroke-width=".374" stroke-linecap="butt" stroke-miterlimit="10" stroke-linejoin="miter" fill="none" stroke="#211e1e" d="M351.188-77.156H364.688V-90.656H351.188Z"/>
<path transform="matrix(1,0,0,-1,0,0)" d="M324.188-77.156H337.688V-90.656H324.188Z" fill="#e6e6e6"/>
<path transform="matrix(1,0,0,-1,0,0)" stroke-width=".374" stroke-linecap="butt" stroke-miterlimit="10" stroke-linejoin="miter" fill="none" stroke="#211e1e" d="M324.188-77.156H337.688V-90.656H324.188Z"/>
<path transform="matrix(1,0,0,-1,0,0)" d="M283.688-77.156H297.188V-90.656H283.688Z" fill="#e6e6e6"/>
<path transform="matrix(1,0,0,-1,0,0)" stroke-width=".374" stroke-linecap="butt" stroke-miterlimit="10" stroke-linejoin="miter" fill="none" stroke="#211e1e" d="M283.688-77.156H297.188V-90.656H283.688Z"/>
<path transform="matrix(1,0,0,-1,0,0)" d="M297.188-77.156H310.688V-90.656H297.188Z" fill="#e6e6e6"/>
<path transform="matrix(1,0,0,-1,0,0)" stroke-width=".374" stroke-linecap="butt" stroke-miterlimit="10" stroke-linejoin="miter" fill="none" stroke="#211e1e" d="M297.188-77.156H310.688V-90.656H297.188Z"/>
<path transform="matrix(1,0,0,-1,0,0)" d="M270.188-77.156H283.688V-90.656H270.188Z" fill="#e6e6e6"/>
<path transform="matrix(1,0,0,-1,0,0)" stroke-width=".374" stroke-linecap="butt" stroke-miterlimit="10" stroke-linejoin="miter" fill="none" stroke="#211e1e" d="M270.188-77.156H283.688V-90.656H270.188Z"/>
<path transform="matrix(1,0,0,-1,0,0)" d="M229.688-77.156H243.188V-90.656H229.688Z" fill="#e6e6e6"/>
<path transform="matrix(1,0,0,-1,0,0)" stroke-width=".374" stroke-linecap="butt" stroke-miterlimit="10" stroke-linejoin="miter" fill="none" stroke="#211e1e" d="M229.688-77.156H243.188V-90.656H229.688Z"/>
<path transform="matrix(1,0,0,-1,0,0)" d="M243.188-77.156H256.688V-90.656H243.188Z" fill="#e6e6e6"/>
<path transform="matrix(1,0,0,-1,0,0)" stroke-width=".374" stroke-linecap="butt" stroke-miterlimit="10" stroke-linejoin="miter" fill="none" stroke="#211e1e" d="M243.188-77.156H256.688V-90.656H243.188Z"/>
<path transform="matrix(1,0,0,-1,0,0)" d="M216.188-77.156H229.688V-90.656H216.188Z" fill="#e6e6e6"/>
<path transform="matrix(1,0,0,-1,0,0)" stroke-width=".374" stroke-linecap="butt" stroke-miterlimit="10" stroke-linejoin="miter" fill="none" stroke="#211e1e" d="M216.188-77.156H229.688V-90.656H216.188Z"/>
<path transform="matrix(1,0,0,-1,0,0)" d="M229.688-23.156H243.188V-36.656H229.688Z" fill="#e6e6e6"/>
<path transform="matrix(1,0,0,-1,0,0)" stroke-width=".374" stroke-linecap="butt" stroke-miterlimit="10" stroke-linejoin="miter" fill="none" stroke="#211e1e" d="M229.688-23.156H243.188V-36.656H229.688Z"/>
<path transform="matrix(1,0,0,-1,0,0)" d="M243.188-23.156H256.688V-36.656H243.188Z" fill="#e6e6e6"/>
<path transform="matrix(1,0,0,-1,0,0)" stroke-width=".374" stroke-linecap="butt" stroke-miterlimit="10" stroke-linejoin="miter" fill="none" stroke="#211e1e" d="M243.188-23.156H256.688V-36.656H243.188Z"/>
<path transform="matrix(1,0,0,-1,0,0)" d="M216.188-23.156H229.688V-36.656H216.188Z" fill="#e6e6e6"/>
<path transform="matrix(1,0,0,-1,0,0)" stroke-width=".374" stroke-linecap="butt" stroke-miterlimit="10" stroke-linejoin="miter" fill="none" stroke="#211e1e" d="M216.188-23.156H229.688V-36.656H216.188Z"/>
<path transform="matrix(1,0,0,-1,0,0)" d="M169.027-9.656H196.027V-23.156H169.027Z" fill="#a6a8ab"/>
<path transform="matrix(1,0,0,-1,0,0)" stroke-width=".374" stroke-linecap="butt" stroke-miterlimit="10" stroke-linejoin="miter" fill="none" stroke="#211e1e" d="M169.027-9.656H196.027V-23.156H169.027Z"/>
<path transform="matrix(1,0,0,-1,0,0)" d="M169.027-23.156H196.027V-36.656H169.027Z" fill="#e6e6e6"/>
<path transform="matrix(1,0,0,-1,0,0)" stroke-width=".374" stroke-linecap="butt" stroke-miterlimit="10" stroke-linejoin="miter" fill="none" stroke="#211e1e" d="M169.027-23.156H196.027V-36.656H169.027Z"/>
<path transform="matrix(1,0,0,-1,0,0)" d="M169.027-36.656H196.027V-50.156H169.027Z" fill="#a6a8ab"/>
<path transform="matrix(1,0,0,-1,0,0)" stroke-width=".374" stroke-linecap="butt" stroke-miterlimit="10" stroke-linejoin="miter" fill="none" stroke="#211e1e" d="M169.027-36.656H196.027V-50.156H169.027Z"/>
<path transform="matrix(1,0,0,-1,0,0)" d="M169.027-50.156H196.027V-63.656H169.027Z" fill="#a6a8ab"/>
<path transform="matrix(1,0,0,-1,0,0)" stroke-width=".374" stroke-linecap="butt" stroke-miterlimit="10" stroke-linejoin="miter" fill="none" stroke="#211e1e" d="M169.027-50.156H196.027V-63.656H169.027Z"/>
<path transform="matrix(1,0,0,-1,0,0)" d="M169.027-63.656H196.027V-77.156H169.027Z" fill="#a6a8ab"/>
<path transform="matrix(1,0,0,-1,0,0)" stroke-width=".374" stroke-linecap="butt" stroke-miterlimit="10" stroke-linejoin="miter" fill="none" stroke="#211e1e" d="M169.027-63.656H196.027V-77.156H169.027Z"/>
<path transform="matrix(1,0,0,-1,0,0)" d="M169.027-77.156H196.027V-90.656H169.027Z" fill="#e6e6e6"/>
<path transform="matrix(1,0,0,-1,0,0)" stroke-width=".374" stroke-linecap="butt" stroke-miterlimit="10" stroke-linejoin="miter" fill="none" stroke="#211e1e" d="M169.027-77.156H196.027V-90.656H169.027Z"/>
<path transform="matrix(1,0,0,-1,0,0)" d="M169.027-90.656H196.027V-104.156H169.027Z" fill="#a6a8ab"/>
<path transform="matrix(1,0,0,-1,0,0)" stroke-width=".374" stroke-linecap="butt" stroke-miterlimit="10" stroke-linejoin="miter" fill="none" stroke="#211e1e" d="M169.027-90.656H196.027V-104.156H169.027Z"/>
<path transform="matrix(1,0,0,-1,0,0)" d="M169.027-104.156H196.027V-117.656H169.027Z" fill="#e6e6e6"/>
<path transform="matrix(1,0,0,-1,0,0)" stroke-width=".374" stroke-linecap="butt" stroke-miterlimit="10" stroke-linejoin="miter" fill="none" stroke="#211e1e" d="M169.027-104.156H196.027V-117.656H169.027Z"/>
<path transform="matrix(1,0,0,-1,0,0)" d="M169.027-117.656H196.027V-131.156H169.027Z" fill="#e6e6e6"/>
<path transform="matrix(1,0,0,-1,0,0)" stroke-width=".374" stroke-linecap="butt" stroke-miterlimit="10" stroke-linejoin="miter" fill="none" stroke="#211e1e" d="M169.027-117.656H196.027V-131.156H169.027Z"/>
<path transform="matrix(1,0,0,-1,0,0)" d="M169.027-131.156H196.027V-144.656H169.027Z" fill="#a6a8ab"/>
<path transform="matrix(1,0,0,-1,0,0)" stroke-width=".374" stroke-linecap="butt" stroke-miterlimit="10" stroke-linejoin="miter" fill="none" stroke="#211e1e" d="M169.027-131.156H196.027V-144.656H169.027Z"/>
<path transform="matrix(1,0,0,-1,0,0)" d="M283.688-23.156H297.188V-36.656H283.688Z" fill="#e6e6e6"/>
<path transform="matrix(1,0,0,-1,0,0)" stroke-width=".374" stroke-linecap="butt" stroke-miterlimit="10" stroke-linejoin="miter" fill="none" stroke="#211e1e" d="M283.688-23.156H297.188V-36.656H283.688Z"/>
<path transform="matrix(1,0,0,-1,0,0)" d="M297.188-23.156H310.688V-36.656H297.188Z" fill="#e6e6e6"/>
<path transform="matrix(1,0,0,-1,0,0)" stroke-width=".374" stroke-linecap="butt" stroke-miterlimit="10" stroke-linejoin="miter" fill="none" stroke="#211e1e" d="M297.188-23.156H310.688V-36.656H297.188Z"/>
<path transform="matrix(1,0,0,-1,0,0)" d="M270.188-23.156H283.688V-36.656H270.188Z" fill="#e6e6e6"/>
<path transform="matrix(1,0,0,-1,0,0)" stroke-width=".374" stroke-linecap="butt" stroke-miterlimit="10" stroke-linejoin="miter" fill="none" stroke="#211e1e" d="M270.188-23.156H283.688V-36.656H270.188Z"/>
<path d="M138.609 77.246C138.609 110.797 107.621 137.996 69.398 137.996 31.176 137.996 .188 110.797 .188 77.246 .188 43.695 31.176 16.496 69.398 16.496 107.621 16.496 138.609 43.695 138.609 77.246" fill="#a6a8ab"/>
<path transform="matrix(1,0,0,-1,0,0)" stroke-width=".374" stroke-linecap="butt" stroke-miterlimit="10" stroke-linejoin="miter" fill="none" stroke="#211e1e" d="M138.609-77.246C138.609-110.797 107.621-137.996 69.398-137.996 31.176-137.996 .188-110.797 .188-77.246 .188-43.695 31.176-16.496 69.398-16.496 107.621-16.496 138.609-43.695 138.609-77.246ZM138.609-77.246"/>
<path d="M121.688 87.328C121.688 107.855 97.512 124.496 67.688 124.496 37.863 124.496 13.688 107.855 13.688 87.328 13.688 66.797 37.863 50.156 67.688 50.156 97.512 50.156 121.688 66.797 121.688 87.328" fill="#e6e6e6"/>
<path transform="matrix(1,0,0,-1,0,0)" stroke-width=".374" stroke-linecap="butt" stroke-miterlimit="10" stroke-linejoin="miter" fill="none" stroke="#211e1e" d="M121.688-87.328C121.688-107.855 97.512-124.496 67.688-124.496 37.863-124.496 13.688-107.855 13.688-87.328 13.688-66.797 37.863-50.156 67.688-50.156 97.512-50.156 121.688-66.797 121.688-87.328ZM121.688-87.328"/>
<path d="M169.027 28.195 163.449 31.977 164.887 29.457 162.188 28.016 169.027 28.195" fill="#211e1e" fill-rule="evenodd"/>
<path d="M164.707 29.277H165.082V29.652L57.801 60.43H57.426V60.055" fill="#211e1e"/>
<path d="M169.027 31.617 163.988 36.117 165.066 33.418 162.367 32.336 169.027 31.617" fill="#211e1e" fill-rule="evenodd"/>
<path d="M164.887 33.238H165.262V33.609L67.883 77.352H67.508V76.977" fill="#211e1e"/>
<path d="M169.027 110.996 162.367 112.258 164.707 110.457 162.906 108.297 169.027 110.996" fill="#211e1e" fill-rule="evenodd"/>
<path d="M108.008 103.977H108.383L164.902 110.277V110.652H164.527L108.008 104.352" fill="#211e1e"/>
<path d="M169.027 87.238 162.906 90.117 164.707 87.777 162.367 86.156 169.027 87.238" fill="#211e1e" fill-rule="evenodd"/>
<path d="M164.527 87.598H164.902V87.969L71.301 100.93H70.926V100.555" fill="#211e1e"/>
<path d="M72.727 100.828C72.727 101.77 71.961 102.535 71.02 102.535 70.074 102.535 69.309 101.77 69.309 100.828 69.309 99.883 70.074 99.117 71.02 99.117 71.961 99.117 72.727 99.883 72.727 100.828" fill="#211e1e"/>
<path transform="matrix(1,0,0,-1,0,0)" stroke-width=".374" stroke-linecap="butt" stroke-miterlimit="10" stroke-linejoin="miter" fill="none" stroke="#211e1e" d="M72.727-100.828C72.727-101.77 71.961-102.535 71.02-102.535 70.074-102.535 69.309-101.77 69.309-100.828 69.309-99.883 70.074-99.117 71.02-99.117 71.961-99.117 72.727-99.883 72.727-100.828ZM72.727-100.828"/>
<path d="M109.809 104.156C109.809 105.051 109.082 105.777 108.188 105.777 107.293 105.777 106.566 105.051 106.566 104.156 106.566 103.262 107.293 102.535 108.188 102.535 109.082 102.535 109.809 103.262 109.809 104.156" fill="#211e1e"/>
<path transform="matrix(1,0,0,-1,0,0)" stroke-width=".374" stroke-linecap="butt" stroke-miterlimit="10" stroke-linejoin="miter" fill="none" stroke="#211e1e" d="M109.809-104.156C109.809-105.051 109.082-105.777 108.188-105.777 107.293-105.777 106.566-105.051 106.566-104.156 106.566-103.262 107.293-102.535 108.188-102.535 109.082-102.535 109.809-103.262 109.809-104.156ZM109.809-104.156"/>
<path d="M59.227 60.328C59.227 61.27 58.461 62.035 57.52 62.035 56.574 62.035 55.809 61.27 55.809 60.328 55.809 59.383 56.574 58.617 57.52 58.617 58.461 58.617 59.227 59.383 59.227 60.328" fill="#211e1e"/>
<path transform="matrix(1,0,0,-1,0,0)" stroke-width=".374" stroke-linecap="butt" stroke-miterlimit="10" stroke-linejoin="miter" fill="none" stroke="#211e1e" d="M59.227-60.328C59.227-61.27 58.461-62.035 57.52-62.035 56.574-62.035 55.809-61.27 55.809-60.328 55.809-59.383 56.574-58.617 57.52-58.617 58.461-58.617 59.227-59.383 59.227-60.328ZM59.227-60.328"/>
<path d="M69.309 77.156C69.309 78.051 68.582 78.777 67.688 78.777 66.793 78.777 66.066 78.051 66.066 77.156 66.066 76.262 66.793 75.535 67.688 75.535 68.582 75.535 69.309 76.262 69.309 77.156" fill="#211e1e"/>
<path transform="matrix(1,0,0,-1,0,0)" stroke-width=".374" stroke-linecap="butt" stroke-miterlimit="10" stroke-linejoin="miter" fill="none" stroke="#211e1e" d="M69.309-77.156C69.309-78.051 68.582-78.777 67.688-78.777 66.793-78.777 66.066-78.051 66.066-77.156 66.066-76.262 66.793-75.535 67.688-75.535 68.582-75.535 69.309-76.262 69.309-77.156ZM69.309-77.156"/>
<path d="M180.016 5.875H182.609V5.734C182.297 5.719 182.078 5.688 181.969 5.656 181.859 5.609 181.813 5.5 181.813 5.328 181.813 5.266 181.828 5.156 181.859 5.063 181.859 4.969 181.891 4.891 181.922 4.797L183.172 .313H183.688C184.047 .313 184.297 .391 184.422 .516 184.547 .656 184.609 .859 184.609 1.125L184.594 1.453 184.75 1.469 185.141 0H180.344L179.969 1.391 180.125 1.406C180.406 .891 180.672 .578 180.906 .469 181.125 .359 181.578 .313 182.266 .313L180.953 5.063C180.875 5.328 180.75 5.531 180.563 5.609 180.453 5.672 180.281 5.719 180.016 5.734ZM180.016 5.875" fill="#211e1e"/>
<path d="M65.816 28.262C65.723 28.574 65.66 28.855 65.613 29.105 65.566 29.371 65.535 29.559 65.535 29.715 65.535 30.168 65.723 30.527 66.098 30.824 66.473 31.105 66.926 31.262 67.457 31.262 68.145 31.262 68.676 31.074 69.051 30.73 69.41 30.371 69.707 29.777 69.926 28.934L70.551 26.668C70.707 26.105 70.848 25.762 70.941 25.621 71.035 25.496 71.223 25.402 71.488 25.34V25.199H69.691V25.34C69.879 25.355 70.035 25.371 70.113 25.418 70.254 25.48 70.332 25.59 70.332 25.762 70.332 25.809 70.316 25.855 70.301 25.934 70.285 25.996 70.27 26.09 70.238 26.215L69.535 28.902C69.348 29.574 69.113 30.074 68.801 30.387 68.504 30.715 68.082 30.871 67.566 30.871 67.348 30.871 67.145 30.824 66.926 30.73 66.551 30.543 66.363 30.23 66.363 29.777 66.363 29.637 66.395 29.402 66.473 29.074 66.535 28.871 66.582 28.652 66.66 28.418L67.332 26.012C67.395 25.73 67.52 25.559 67.707 25.465 67.816 25.402 67.988 25.355 68.238 25.34V25.199H65.77V25.34C66.02 25.355 66.191 25.371 66.301 25.418 66.41 25.465 66.473 25.559 66.473 25.715 66.473 25.793 66.457 25.887 66.441 26.012 66.426 26.074 66.395 26.168 66.363 26.277ZM65.816 28.262" fill="#211e1e"/>
<path d="M35.695 38.531C35.695 39.594 36.055 40.547 36.742 41.375 37.164 41.891 37.555 42.234 37.914 42.406L38.023 42.25C37.367 41.828 36.93 41.172 36.68 40.313 36.555 39.813 36.492 39.188 36.492 38.422 36.492 37.391 36.664 36.563 37.023 35.953 37.211 35.594 37.555 35.234 38.023 34.859L37.945 34.719C37.43 35 36.992 35.375 36.617 35.844 36.008 36.625 35.695 37.516 35.695 38.531ZM35.695 38.531" fill="#211e1e"/>
<path d="M38.363 36.734V36.859C38.566 36.875 38.707 36.906 38.77 36.969 38.863 37.031 38.926 37.188 38.926 37.422V39.703C38.926 40.125 39.035 40.422 39.27 40.609 39.488 40.781 39.738 40.875 39.988 40.875 40.27 40.875 40.535 40.781 40.785 40.609 40.941 40.5 41.129 40.313 41.332 40.078V40.797C41.332 40.813 41.332 40.828 41.332 40.844L41.348 40.859C41.613 40.766 41.785 40.703 41.863 40.672 42.035 40.609 42.16 40.578 42.238 40.547 42.316 40.531 42.441 40.5 42.598 40.453V40.328C42.363 40.344 42.207 40.297 42.145 40.234 42.066 40.156 42.035 40.016 42.035 39.828V36.734H40.613V36.875C40.879 36.891 41.051 36.922 41.145 37 41.223 37.078 41.27 37.219 41.27 37.453V39.844C41.16 39.984 41.051 40.078 40.941 40.156 40.754 40.281 40.566 40.344 40.363 40.344 40.066 40.344 39.863 40.234 39.754 40.016 39.707 39.891 39.676 39.734 39.676 39.531V36.734ZM38.363 36.734" fill="#211e1e"/>
<path d="M42.941 40.797H44.879V40.672C44.676 40.656 44.52 40.625 44.426 40.547 44.332 40.484 44.285 40.344 44.285 40.125V37.672C44.441 37.516 44.582 37.406 44.676 37.344 44.848 37.219 45.02 37.156 45.191 37.156 45.441 37.156 45.613 37.234 45.707 37.406 45.801 37.578 45.848 37.781 45.848 38.031V39.922C45.848 40.219 45.801 40.406 45.723 40.484 45.629 40.578 45.488 40.641 45.27 40.672V40.797H47.145V40.672C46.957 40.672 46.801 40.609 46.723 40.531 46.645 40.422 46.598 40.281 46.598 40.063V38.016C46.598 37.453 46.441 37.047 46.129 36.828 45.957 36.703 45.785 36.656 45.582 36.656 45.348 36.656 45.098 36.734 44.879 36.875 44.723 36.969 44.52 37.141 44.238 37.391V36.75C44.238 36.719 44.238 36.703 44.238 36.688 44.238 36.672 44.223 36.672 44.191 36.672L43.785 36.797C43.348 36.938 43.051 37.031 42.941 37.078V37.219C42.988 37.219 43.004 37.219 43.035 37.219 43.066 37.203 43.098 37.203 43.113 37.203 43.285 37.203 43.41 37.266 43.457 37.375 43.504 37.453 43.52 37.578 43.52 37.766V40C43.52 40.266 43.473 40.438 43.395 40.516 43.301 40.594 43.16 40.641 42.941 40.672ZM42.941 40.797" fill="#211e1e"/>
<path d="M48.02 35.125C48.02 35.25 48.066 35.359 48.16 35.438 48.254 35.531 48.363 35.578 48.488 35.578 48.613 35.578 48.723 35.531 48.801 35.438 48.895 35.359 48.941 35.25 48.941 35.125 48.941 34.984 48.895 34.891 48.801 34.797 48.723 34.703 48.613 34.656 48.488 34.656 48.363 34.656 48.254 34.703 48.16 34.797 48.066 34.891 48.02 34.984 48.02 35.125ZM47.457 40.797H49.598V40.672C49.316 40.641 49.129 40.594 49.051 40.516 48.973 40.422 48.926 40.219 48.926 39.891V36.734C48.926 36.703 48.926 36.688 48.926 36.672 48.895 36.672 48.848 36.688 48.754 36.719 48.566 36.797 48.207 36.922 47.691 37.094L47.504 37.156V37.297C47.645 37.25 47.738 37.234 47.77 37.219 47.801 37.219 47.832 37.219 47.863 37.219 48.004 37.219 48.098 37.281 48.145 37.391 48.16 37.469 48.176 37.609 48.176 37.797V39.875C48.176 40.219 48.129 40.438 48.051 40.516 47.973 40.594 47.77 40.641 47.457 40.672ZM47.457 40.797" fill="#211e1e"/>
<path d="M49.941 36.703V36.844C50.098 36.859 50.191 36.906 50.27 36.953 50.395 37.047 50.504 37.219 50.613 37.484L51.957 40.703C51.988 40.75 52.004 40.797 52.02 40.828 52.051 40.859 52.066 40.875 52.113 40.875 52.129 40.875 52.145 40.875 52.176 40.844 52.176 40.828 52.191 40.781 52.223 40.734L53.488 37.563C53.613 37.266 53.707 37.078 53.77 36.984 53.832 36.906 53.941 36.859 54.082 36.844V36.703H52.832V36.844C52.941 36.859 53.02 36.875 53.098 36.906 53.207 36.938 53.254 37.031 53.254 37.141 53.254 37.203 53.238 37.281 53.207 37.391 53.176 37.5 53.129 37.594 53.098 37.688L52.316 39.641 51.395 37.438C51.363 37.344 51.332 37.281 51.316 37.234 51.301 37.203 51.301 37.156 51.301 37.109 51.301 37.016 51.332 36.938 51.395 36.922 51.457 36.891 51.566 36.859 51.723 36.844V36.703ZM49.941 36.703" fill="#211e1e"/>
<path d="M56.348 36.672C55.785 36.672 55.332 36.891 54.988 37.313 54.629 37.75 54.473 38.25 54.473 38.844 54.473 39.391 54.613 39.859 54.91 40.281 55.207 40.703 55.645 40.906 56.191 40.906 56.676 40.906 57.082 40.75 57.395 40.422 57.738 40.109 57.957 39.766 58.066 39.391L57.926 39.344C57.738 39.641 57.551 39.859 57.332 40.016 57.129 40.188 56.863 40.266 56.566 40.266 56.191 40.266 55.863 40.109 55.582 39.797 55.301 39.484 55.145 39 55.129 38.328H57.895C57.895 37.797 57.738 37.391 57.426 37.109 57.113 36.813 56.754 36.672 56.348 36.672ZM56.098 37C56.426 37 56.676 37.125 56.816 37.391 56.879 37.531 56.941 37.75 56.973 38.047H55.145C55.176 37.797 55.254 37.609 55.332 37.438 55.52 37.141 55.77 37 56.098 37ZM56.098 37" fill="#211e1e"/>
<path d="M58.328 40.797H60.484V40.656C60.219 40.656 60.016 40.609 59.906 40.516 59.781 40.422 59.734 40.234 59.734 39.984V38C59.734 37.828 59.797 37.672 59.953 37.5 60.094 37.328 60.219 37.25 60.328 37.25 60.391 37.25 60.484 37.313 60.594 37.406 60.719 37.5 60.813 37.563 60.922 37.563 61.031 37.563 61.125 37.516 61.203 37.438 61.266 37.344 61.313 37.25 61.313 37.125 61.313 36.984 61.266 36.875 61.156 36.797 61.078 36.703 60.953 36.656 60.797 36.656 60.609 36.656 60.438 36.734 60.266 36.875 60.094 37.031 59.906 37.234 59.719 37.5V36.766C59.719 36.719 59.719 36.688 59.719 36.672 59.719 36.656 59.688 36.641 59.672 36.641 59.516 36.719 59.375 36.781 59.219 36.844 59.156 36.859 59.031 36.906 58.859 36.969 58.688 37.031 58.516 37.094 58.344 37.156V37.297C58.391 37.281 58.453 37.281 58.5 37.266 58.547 37.266 58.594 37.266 58.609 37.266 58.766 37.266 58.859 37.328 58.906 37.438 58.969 37.563 59 37.781 59 38.063V40.047C59 40.281 58.953 40.438 58.859 40.516 58.781 40.578 58.594 40.625 58.328 40.656ZM58.328 40.797" fill="#211e1e"/>
<path d="M61.746 40.828H61.871C61.887 40.797 61.902 40.766 61.934 40.75 61.965 40.719 61.996 40.703 62.027 40.703 62.074 40.703 62.199 40.734 62.418 40.781 62.637 40.844 62.84 40.875 63.012 40.875 63.434 40.875 63.762 40.766 64.027 40.547 64.277 40.328 64.402 40.047 64.402 39.703 64.402 39.25 64.09 38.859 63.48 38.516L62.902 38.203C62.496 38 62.293 37.75 62.293 37.484 62.293 37.313 62.355 37.172 62.48 37.047 62.59 36.922 62.746 36.859 62.949 36.859 63.293 36.859 63.559 37 63.746 37.297 63.84 37.453 63.918 37.672 63.98 37.953H64.105L64.09 36.734H63.98C63.965 36.766 63.934 36.781 63.918 36.797 63.902 36.813 63.855 36.813 63.793 36.813 63.777 36.813 63.668 36.797 63.48 36.734 63.309 36.672 63.137 36.641 62.965 36.641 62.621 36.641 62.324 36.75 62.09 36.969 61.855 37.172 61.73 37.438 61.73 37.766 61.73 38.031 61.824 38.266 61.996 38.469 62.168 38.656 62.434 38.859 62.793 39.047L63.277 39.328C63.465 39.438 63.59 39.547 63.668 39.656 63.73 39.781 63.777 39.891 63.777 40.016 63.777 40.219 63.715 40.359 63.574 40.484 63.449 40.609 63.277 40.672 63.059 40.672 62.668 40.672 62.371 40.516 62.152 40.172 62.059 40 61.949 39.75 61.887 39.406H61.746ZM61.746 40.828" fill="#211e1e"/>
<path d="M66.844 36.672C66.281 36.672 65.828 36.891 65.484 37.313 65.125 37.75 64.969 38.25 64.969 38.844 64.969 39.391 65.109 39.859 65.406 40.281 65.703 40.703 66.141 40.906 66.688 40.906 67.172 40.906 67.578 40.75 67.891 40.422 68.234 40.109 68.453 39.766 68.563 39.391L68.422 39.344C68.234 39.641 68.047 39.859 67.828 40.016 67.625 40.188 67.359 40.266 67.063 40.266 66.688 40.266 66.359 40.109 66.078 39.797 65.797 39.484 65.641 39 65.625 38.328H68.391C68.391 37.797 68.234 37.391 67.922 37.109 67.609 36.813 67.25 36.672 66.844 36.672ZM66.594 37C66.922 37 67.172 37.125 67.313 37.391 67.375 37.531 67.438 37.75 67.469 38.047H65.641C65.672 37.797 65.75 37.609 65.828 37.438 66.016 37.141 66.266 37 66.594 37ZM66.594 37" fill="#211e1e"/>
<path d="M71.25 38.75C71.25 39.391 71.453 39.891 71.844 40.313 72.234 40.719 72.703 40.938 73.266 40.938 73.859 40.938 74.328 40.719 74.703 40.281 75.078 39.859 75.266 39.344 75.266 38.766 75.266 38.141 75.078 37.625 74.688 37.234 74.313 36.859 73.828 36.672 73.25 36.672 72.656 36.672 72.188 36.875 71.813 37.281 71.438 37.688 71.25 38.172 71.25 38.75ZM73.125 36.938C73.547 36.938 73.875 37.156 74.094 37.609 74.328 38.063 74.438 38.531 74.438 39.047 74.438 39.531 74.359 39.922 74.172 40.234 74 40.531 73.734 40.688 73.422 40.688 73 40.688 72.672 40.453 72.422 40 72.188 39.563 72.078 39.063 72.078 38.547 72.078 37.891 72.219 37.438 72.516 37.156 72.688 37.016 72.891 36.938 73.125 36.938ZM73.125 36.938" fill="#211e1e"/>
<path d="M75.719 40.797H78.063V40.672C77.688 40.641 77.453 40.594 77.359 40.484 77.266 40.406 77.219 40.188 77.219 39.859V37.063H78.328V36.75H77.219V35.703C77.219 35.516 77.234 35.359 77.281 35.234 77.375 35.016 77.516 34.906 77.734 34.906 77.828 34.906 77.922 34.922 77.969 34.969 78.031 35.016 78.078 35.063 78.109 35.125L78.188 35.25C78.281 35.375 78.344 35.469 78.406 35.516 78.469 35.563 78.547 35.594 78.625 35.594 78.719 35.594 78.813 35.563 78.875 35.484 78.953 35.406 78.984 35.313 78.984 35.219 78.984 35.047 78.891 34.906 78.688 34.797 78.469 34.703 78.234 34.656 77.984 34.656 77.344 34.656 76.906 34.953 76.656 35.578 76.531 35.891 76.469 36.281 76.469 36.75H75.719V37.063H76.469V39.859C76.469 40.188 76.422 40.406 76.328 40.5 76.219 40.594 76.016 40.656 75.719 40.672ZM75.719 40.797" fill="#211e1e"/>
<path d="M80.797 40.797H82.906V40.672C82.688 40.672 82.547 40.641 82.453 40.609 82.297 40.531 82.234 40.406 82.234 40.203V38.563L83.594 40.344C83.609 40.391 83.641 40.422 83.656 40.453 83.672 40.469 83.672 40.516 83.672 40.531 83.672 40.578 83.656 40.609 83.609 40.625 83.578 40.641 83.531 40.656 83.484 40.656L83.313 40.672V40.797H85.281V40.672C85.031 40.656 84.813 40.547 84.609 40.375 84.391 40.203 84.078 39.844 83.656 39.313L82.844 38.25 83.125 38.031C83.672 37.5 84.063 37.188 84.266 37.078 84.469 36.969 84.734 36.906 85.063 36.875V36.75H83.219V36.875C83.391 36.891 83.516 36.906 83.578 36.922 83.641 36.938 83.672 36.984 83.672 37.047 83.672 37.078 83.656 37.125 83.625 37.172 83.594 37.219 83.531 37.281 83.453 37.359L82.234 38.438V34.734C82.234 34.719 82.234 34.688 82.219 34.688 82.219 34.672 82.219 34.672 82.188 34.672 82.172 34.672 82.094 34.688 81.969 34.734 81.75 34.813 81.5 34.891 81.188 34.969L80.797 35.078V35.203C80.859 35.188 80.891 35.188 80.938 35.188 80.984 35.188 81.031 35.188 81.078 35.188 81.219 35.188 81.313 35.203 81.391 35.266 81.453 35.313 81.5 35.453 81.5 35.656V40.063C81.5 40.297 81.453 40.453 81.359 40.531 81.266 40.609 81.078 40.656 80.797 40.672ZM80.797 40.797" fill="#211e1e"/>
<path d="M87.344 36.672C86.781 36.672 86.328 36.891 85.984 37.313 85.625 37.75 85.469 38.25 85.469 38.844 85.469 39.391 85.609 39.859 85.906 40.281 86.203 40.703 86.641 40.906 87.188 40.906 87.672 40.906 88.078 40.75 88.391 40.422 88.734 40.109 88.953 39.766 89.063 39.391L88.922 39.344C88.734 39.641 88.547 39.859 88.328 40.016 88.125 40.188 87.859 40.266 87.563 40.266 87.188 40.266 86.859 40.109 86.578 39.797 86.297 39.484 86.141 39 86.125 38.328H88.891C88.891 37.797 88.734 37.391 88.422 37.109 88.109 36.813 87.75 36.672 87.344 36.672ZM87.094 37C87.422 37 87.672 37.125 87.813 37.391 87.875 37.531 87.938 37.75 87.969 38.047H86.141C86.172 37.797 86.25 37.609 86.328 37.438 86.516 37.141 86.766 37 87.094 37ZM87.094 37" fill="#211e1e"/>
<path d="M89.402 36.875C89.543 36.906 89.668 36.938 89.73 37.016 89.809 37.094 89.902 37.219 89.996 37.438L91.371 40.422C91.387 40.453 91.402 40.484 91.418 40.531 91.418 40.578 91.418 40.594 91.418 40.625 91.418 40.75 91.324 41.016 91.152 41.422 90.98 41.813 90.809 42.016 90.652 42.016 90.59 42.016 90.48 41.984 90.324 41.922 90.184 41.875 90.059 41.844 89.996 41.844 89.855 41.844 89.762 41.875 89.668 41.953 89.59 42.031 89.543 42.125 89.543 42.25 89.543 42.422 89.605 42.547 89.762 42.641 89.902 42.719 90.059 42.766 90.215 42.766 90.543 42.766 90.824 42.609 91.043 42.328 91.262 42.047 91.496 41.594 91.73 40.953L93.121 37.297C93.168 37.172 93.215 37.078 93.277 37.016 93.34 36.938 93.434 36.906 93.543 36.875V36.75H92.34V36.875L92.465 36.891C92.559 36.906 92.621 36.922 92.668 36.953 92.73 36.984 92.746 37.047 92.746 37.125 92.746 37.156 92.746 37.219 92.73 37.297 92.699 37.375 92.684 37.438 92.684 37.453L91.84 39.672 90.84 37.469C90.793 37.391 90.762 37.328 90.746 37.281 90.73 37.234 90.73 37.203 90.73 37.156 90.73 37.031 90.793 36.969 90.934 36.922 91.012 36.906 91.121 36.875 91.262 36.875V36.75H89.402ZM89.402 36.875" fill="#211e1e"/>
<path d="M94.246 40.828H94.371C94.387 40.797 94.402 40.766 94.434 40.75 94.465 40.719 94.496 40.703 94.527 40.703 94.574 40.703 94.699 40.734 94.918 40.781 95.137 40.844 95.34 40.875 95.512 40.875 95.934 40.875 96.262 40.766 96.527 40.547 96.777 40.328 96.902 40.047 96.902 39.703 96.902 39.25 96.59 38.859 95.98 38.516L95.402 38.203C94.996 38 94.793 37.75 94.793 37.484 94.793 37.313 94.855 37.172 94.98 37.047 95.09 36.922 95.246 36.859 95.449 36.859 95.793 36.859 96.059 37 96.246 37.297 96.34 37.453 96.418 37.672 96.48 37.953H96.605L96.59 36.734H96.48C96.465 36.766 96.434 36.781 96.418 36.797 96.402 36.813 96.355 36.813 96.293 36.813 96.277 36.813 96.168 36.797 95.98 36.734 95.809 36.672 95.637 36.641 95.465 36.641 95.121 36.641 94.824 36.75 94.59 36.969 94.355 37.172 94.23 37.438 94.23 37.766 94.23 38.031 94.324 38.266 94.496 38.469 94.668 38.656 94.934 38.859 95.293 39.047L95.777 39.328C95.965 39.438 96.09 39.547 96.168 39.656 96.23 39.781 96.277 39.891 96.277 40.016 96.277 40.219 96.215 40.359 96.074 40.484 95.949 40.609 95.777 40.672 95.559 40.672 95.168 40.672 94.871 40.516 94.652 40.172 94.559 40 94.449 39.75 94.387 39.406H94.246ZM94.246 40.828" fill="#211e1e"/>
<path d="M99.84 38.578C99.84 37.578 99.527 36.688 98.918 35.891 98.512 35.359 98.09 34.969 97.621 34.719L97.512 34.859C98.137 35.281 98.559 35.891 98.793 36.625 98.965 37.172 99.043 37.859 99.043 38.688 99.043 39.734 98.871 40.578 98.496 41.203 98.293 41.563 97.965 41.906 97.512 42.25L97.59 42.406C97.762 42.313 97.98 42.172 98.23 41.953 98.621 41.641 98.934 41.297 99.152 40.922 99.387 40.578 99.543 40.219 99.668 39.813 99.777 39.422 99.84 39.016 99.84 38.578ZM99.84 38.578" fill="#211e1e"/>
<path d="M27.789 78.234H30.023V78.094C29.805 78.078 29.664 78.047 29.586 78.016 29.445 77.969 29.383 77.844 29.383 77.688 29.383 77.656 29.383 77.625 29.398 77.594 29.398 77.563 29.398 77.531 29.398 77.5L29.492 77.156 30.023 75.172 30.117 75.188 30.992 76.703C31.133 76.953 31.258 77.188 31.352 77.391 31.445 77.594 31.492 77.734 31.492 77.828 31.492 77.922 31.43 77.984 31.305 78.031 31.211 78.047 31.055 78.078 30.82 78.094V78.234H33.289V78.094C33.039 78.078 32.867 78.047 32.758 77.984 32.648 77.922 32.539 77.797 32.414 77.594L30.852 74.859 33.555 72.828C33.711 72.703 33.867 72.609 33.992 72.563 34.07 72.531 34.148 72.516 34.227 72.5V72.359H32.227V72.5C32.43 72.516 32.57 72.531 32.664 72.563 32.742 72.594 32.773 72.641 32.773 72.734 32.773 72.875 32.57 73.109 32.195 73.422 31.961 73.625 31.664 73.844 31.305 74.109L30.18 74.875H30.117L30.586 73.172C30.664 72.906 30.789 72.719 30.977 72.625 31.086 72.563 31.258 72.516 31.492 72.5V72.359H29.039V72.5C29.289 72.516 29.477 72.531 29.57 72.594 29.68 72.641 29.727 72.75 29.727 72.875 29.727 72.953 29.727 73.047 29.711 73.125 29.695 73.219 29.664 73.328 29.633 73.438L28.523 77.422C28.445 77.703 28.352 77.891 28.227 77.969 28.133 78.031 27.992 78.078 27.789 78.094ZM27.789 78.234" fill="#211e1e"/>
<path d="M18.773 85.688C18.773 86.75 19.133 87.703 19.82 88.531 20.242 89.047 20.633 89.391 20.992 89.563L21.102 89.406C20.445 88.984 20.008 88.328 19.758 87.469 19.633 86.969 19.57 86.344 19.57 85.578 19.57 84.547 19.742 83.719 20.102 83.109 20.289 82.75 20.633 82.391 21.102 82.016L21.023 81.875C20.508 82.156 20.07 82.531 19.695 83 19.086 83.781 18.773 84.672 18.773 85.688ZM18.773 85.688" fill="#211e1e"/>
<path d="M23.941 86.906C23.941 87.078 23.863 87.219 23.676 87.328 23.504 87.438 23.316 87.484 23.129 87.484 22.988 87.484 22.863 87.438 22.738 87.359 22.566 87.234 22.473 87.031 22.473 86.781 22.473 86.438 22.691 86.141 23.113 85.891 23.332 85.75 23.613 85.625 23.941 85.516ZM21.691 87.078C21.691 87.344 21.785 87.578 21.973 87.75 22.16 87.922 22.379 88.016 22.629 88.016 22.863 88.016 23.113 87.938 23.395 87.781 23.535 87.688 23.723 87.547 23.957 87.344 23.957 87.531 24.004 87.688 24.098 87.813 24.191 87.938 24.332 88 24.535 88 24.707 88 24.879 87.953 25.035 87.844 25.145 87.766 25.254 87.688 25.348 87.563V87.328C25.238 87.406 25.16 87.469 25.113 87.484 25.066 87.516 25.02 87.516 24.941 87.516 24.832 87.516 24.754 87.453 24.707 87.328 24.691 87.266 24.676 87.156 24.676 86.984V85.219C24.676 84.844 24.629 84.547 24.52 84.328 24.316 83.969 23.926 83.781 23.363 83.781 22.863 83.781 22.504 83.891 22.238 84.125 21.988 84.344 21.863 84.563 21.863 84.766 21.863 84.859 21.91 84.969 21.973 85.063 22.051 85.141 22.145 85.188 22.27 85.188 22.363 85.188 22.441 85.156 22.504 85.125 22.598 85.063 22.66 84.953 22.66 84.781 22.66 84.766 22.645 84.703 22.645 84.625 22.629 84.531 22.613 84.484 22.613 84.438 22.613 84.313 22.676 84.203 22.816 84.125 22.941 84.031 23.098 84 23.238 84 23.551 84 23.754 84.094 23.863 84.297 23.926 84.422 23.941 84.625 23.941 84.922V85.297C23.129 85.594 22.598 85.844 22.332 86.016 21.91 86.297 21.691 86.641 21.691 87.078ZM21.691 87.078" fill="#211e1e"/>
<path d="M27.594 83.813C27 83.813 26.531 84.031 26.141 84.469 25.75 84.906 25.563 85.422 25.563 86.031 25.563 86.641 25.75 87.141 26.094 87.5 26.453 87.859 26.859 88.031 27.313 88.031 27.766 88.031 28.188 87.844 28.531 87.453 28.719 87.234 28.891 86.969 29.063 86.609L28.938 86.531C28.766 86.781 28.625 86.969 28.484 87.078 28.25 87.281 27.984 87.375 27.672 87.375 27.234 87.375 26.891 87.203 26.641 86.859 26.391 86.5 26.266 86.094 26.266 85.656 26.266 85.188 26.391 84.797 26.609 84.5 26.844 84.203 27.125 84.063 27.453 84.063 27.625 84.063 27.75 84.094 27.844 84.156 27.938 84.219 28 84.328 28.047 84.484L28.094 84.688C28.125 84.828 28.188 84.938 28.25 85 28.344 85.078 28.422 85.109 28.531 85.109 28.672 85.109 28.766 85.063 28.844 84.984 28.906 84.906 28.938 84.813 28.938 84.719 28.938 84.484 28.813 84.281 28.547 84.094 28.281 83.906 27.953 83.813 27.594 83.813ZM27.594 83.813" fill="#211e1e"/>
<path d="M30.746 83.906V82.828C30.746 82.797 30.746 82.781 30.746 82.766 30.73 82.766 30.699 82.766 30.668 82.766 30.34 83.203 30.137 83.484 30.043 83.578 29.965 83.688 29.809 83.828 29.605 83.984 29.543 84.047 29.496 84.078 29.48 84.094 29.465 84.109 29.465 84.141 29.465 84.172 29.465 84.188 29.465 84.188 29.465 84.203 29.48 84.203 29.496 84.219 29.512 84.234H29.98V86.875C29.98 87.172 30.027 87.406 30.09 87.578 30.215 87.875 30.449 88.031 30.793 88.031 30.949 88.031 31.105 87.984 31.277 87.906 31.449 87.813 31.621 87.672 31.762 87.469L31.871 87.328 31.746 87.234C31.652 87.344 31.559 87.422 31.496 87.469 31.402 87.516 31.324 87.547 31.215 87.547 30.996 87.547 30.855 87.453 30.793 87.234 30.746 87.141 30.73 86.969 30.73 86.75L30.746 84.234H31.637V83.906ZM30.746 83.906" fill="#211e1e"/>
<path d="M31.938 83.891V84.016C32.141 84.031 32.281 84.063 32.344 84.125 32.438 84.188 32.5 84.344 32.5 84.578V86.859C32.5 87.281 32.609 87.578 32.844 87.766 33.063 87.938 33.313 88.031 33.563 88.031 33.844 88.031 34.109 87.938 34.359 87.766 34.516 87.656 34.703 87.469 34.906 87.234V87.953C34.906 87.969 34.906 87.984 34.906 88L34.922 88.016C35.188 87.922 35.359 87.859 35.438 87.828 35.609 87.766 35.734 87.734 35.813 87.703 35.891 87.688 36.016 87.656 36.172 87.609V87.484C35.938 87.5 35.781 87.453 35.719 87.391 35.641 87.313 35.609 87.172 35.609 86.984V83.891H34.188V84.031C34.453 84.047 34.625 84.078 34.719 84.156 34.797 84.234 34.844 84.375 34.844 84.609V87C34.734 87.141 34.625 87.234 34.516 87.313 34.328 87.438 34.141 87.5 33.938 87.5 33.641 87.5 33.438 87.391 33.328 87.172 33.281 87.047 33.25 86.891 33.25 86.688V83.891ZM31.938 83.891" fill="#211e1e"/>
<path d="M38.938 86.906C38.938 87.078 38.859 87.219 38.672 87.328 38.5 87.438 38.313 87.484 38.125 87.484 37.984 87.484 37.859 87.438 37.734 87.359 37.563 87.234 37.469 87.031 37.469 86.781 37.469 86.438 37.688 86.141 38.109 85.891 38.328 85.75 38.609 85.625 38.938 85.516ZM36.688 87.078C36.688 87.344 36.781 87.578 36.969 87.75 37.156 87.922 37.375 88.016 37.625 88.016 37.859 88.016 38.109 87.938 38.391 87.781 38.531 87.688 38.719 87.547 38.953 87.344 38.953 87.531 39 87.688 39.094 87.813 39.188 87.938 39.328 88 39.531 88 39.703 88 39.875 87.953 40.031 87.844 40.141 87.766 40.25 87.688 40.344 87.563V87.328C40.234 87.406 40.156 87.469 40.109 87.484 40.063 87.516 40.016 87.516 39.938 87.516 39.828 87.516 39.75 87.453 39.703 87.328 39.688 87.266 39.672 87.156 39.672 86.984V85.219C39.672 84.844 39.625 84.547 39.516 84.328 39.313 83.969 38.922 83.781 38.359 83.781 37.859 83.781 37.5 83.891 37.234 84.125 36.984 84.344 36.859 84.563 36.859 84.766 36.859 84.859 36.906 84.969 36.969 85.063 37.047 85.141 37.141 85.188 37.266 85.188 37.359 85.188 37.438 85.156 37.5 85.125 37.594 85.063 37.656 84.953 37.656 84.781 37.656 84.766 37.641 84.703 37.641 84.625 37.625 84.531 37.609 84.484 37.609 84.438 37.609 84.313 37.672 84.203 37.813 84.125 37.938 84.031 38.094 84 38.234 84 38.547 84 38.75 84.094 38.859 84.297 38.922 84.422 38.938 84.625 38.938 84.922V85.297C38.125 85.594 37.594 85.844 37.328 86.016 36.906 86.297 36.688 86.641 36.688 87.078ZM36.688 87.078" fill="#211e1e"/>
<path d="M40.543 87.953H42.668V87.828C42.387 87.813 42.215 87.75 42.121 87.688 42.043 87.609 41.996 87.453 41.996 87.188V81.922C41.996 81.859 41.996 81.828 41.98 81.813 41.98 81.781 41.965 81.781 41.949 81.781 41.387 81.953 40.918 82.094 40.512 82.203V82.344C40.59 82.328 40.652 82.313 40.699 82.313 40.746 82.297 40.793 82.297 40.84 82.297 41.012 82.297 41.137 82.359 41.199 82.484 41.215 82.547 41.23 82.688 41.23 82.875V87.172C41.23 87.422 41.199 87.578 41.09 87.672 40.996 87.75 40.809 87.797 40.543 87.828ZM40.543 87.953" fill="#211e1e"/>
<path d="M20.902 97.855H23.012V97.73C22.793 97.73 22.652 97.699 22.559 97.668 22.402 97.59 22.34 97.465 22.34 97.262V95.621L23.699 97.402C23.715 97.449 23.746 97.48 23.762 97.512 23.777 97.527 23.777 97.574 23.777 97.59 23.777 97.637 23.762 97.668 23.715 97.684 23.684 97.699 23.637 97.715 23.59 97.715L23.418 97.73V97.855H25.387V97.73C25.137 97.715 24.918 97.605 24.715 97.434 24.496 97.262 24.184 96.902 23.762 96.371L22.949 95.309 23.23 95.09C23.777 94.559 24.168 94.246 24.371 94.137 24.574 94.027 24.84 93.965 25.168 93.934V93.809H23.324V93.934C23.496 93.949 23.621 93.965 23.684 93.98 23.746 93.996 23.777 94.043 23.777 94.105 23.777 94.137 23.762 94.184 23.73 94.23 23.699 94.277 23.637 94.34 23.559 94.418L22.34 95.496V91.793C22.34 91.777 22.34 91.746 22.324 91.746 22.324 91.73 22.324 91.73 22.293 91.73 22.277 91.73 22.199 91.746 22.074 91.793 21.855 91.871 21.605 91.949 21.293 92.027L20.902 92.137V92.262C20.965 92.246 20.996 92.246 21.043 92.246 21.09 92.246 21.137 92.246 21.184 92.246 21.324 92.246 21.418 92.262 21.496 92.324 21.559 92.371 21.605 92.512 21.605 92.715V97.121C21.605 97.355 21.559 97.512 21.465 97.59 21.371 97.668 21.184 97.715 20.902 97.73ZM20.902 97.855" fill="#211e1e"/>
<path d="M27.449 93.73C26.887 93.73 26.434 93.949 26.09 94.371 25.73 94.809 25.574 95.309 25.574 95.902 25.574 96.449 25.715 96.918 26.012 97.34 26.309 97.762 26.746 97.965 27.293 97.965 27.777 97.965 28.184 97.809 28.496 97.48 28.84 97.168 29.059 96.824 29.168 96.449L29.027 96.402C28.84 96.699 28.652 96.918 28.434 97.074 28.23 97.246 27.965 97.324 27.668 97.324 27.293 97.324 26.965 97.168 26.684 96.855 26.402 96.543 26.246 96.059 26.23 95.387H28.996C28.996 94.855 28.84 94.449 28.527 94.168 28.215 93.871 27.855 93.73 27.449 93.73ZM27.199 94.059C27.527 94.059 27.777 94.184 27.918 94.449 27.98 94.59 28.043 94.809 28.074 95.105H26.246C26.277 94.855 26.355 94.668 26.434 94.496 26.621 94.199 26.871 94.059 27.199 94.059ZM27.199 94.059" fill="#211e1e"/>
<path d="M29.508 93.934C29.648 93.965 29.773 93.996 29.836 94.074 29.914 94.152 30.008 94.277 30.102 94.496L31.477 97.48C31.492 97.512 31.508 97.543 31.523 97.59 31.523 97.637 31.523 97.652 31.523 97.684 31.523 97.809 31.43 98.074 31.258 98.48 31.086 98.871 30.914 99.074 30.758 99.074 30.695 99.074 30.586 99.043 30.43 98.98 30.289 98.934 30.164 98.902 30.102 98.902 29.961 98.902 29.867 98.934 29.773 99.012 29.695 99.09 29.648 99.184 29.648 99.309 29.648 99.48 29.711 99.605 29.867 99.699 30.008 99.777 30.164 99.824 30.32 99.824 30.648 99.824 30.93 99.668 31.148 99.387 31.367 99.105 31.602 98.652 31.836 98.012L33.227 94.355C33.273 94.23 33.32 94.137 33.383 94.074 33.445 93.996 33.539 93.965 33.648 93.934V93.809H32.445V93.934L32.57 93.949C32.664 93.965 32.727 93.98 32.773 94.012 32.836 94.043 32.852 94.105 32.852 94.184 32.852 94.215 32.852 94.277 32.836 94.355 32.805 94.434 32.789 94.496 32.789 94.512L31.945 96.73 30.945 94.527C30.898 94.449 30.867 94.387 30.852 94.34 30.836 94.293 30.836 94.262 30.836 94.215 30.836 94.09 30.898 94.027 31.039 93.98 31.117 93.965 31.227 93.934 31.367 93.934V93.809H29.508ZM29.508 93.934" fill="#211e1e"/>
<path d="M34.352 97.887H34.477C34.492 97.855 34.508 97.824 34.539 97.809 34.57 97.777 34.602 97.762 34.633 97.762 34.68 97.762 34.805 97.793 35.023 97.84 35.242 97.902 35.445 97.934 35.617 97.934 36.039 97.934 36.367 97.824 36.633 97.605 36.883 97.387 37.008 97.105 37.008 96.762 37.008 96.309 36.695 95.918 36.086 95.574L35.508 95.262C35.102 95.059 34.898 94.809 34.898 94.543 34.898 94.371 34.961 94.23 35.086 94.105 35.195 93.98 35.352 93.918 35.555 93.918 35.898 93.918 36.164 94.059 36.352 94.355 36.445 94.512 36.523 94.73 36.586 95.012H36.711L36.695 93.793H36.586C36.57 93.824 36.539 93.84 36.523 93.855 36.508 93.871 36.461 93.871 36.398 93.871 36.383 93.871 36.273 93.855 36.086 93.793 35.914 93.73 35.742 93.699 35.57 93.699 35.227 93.699 34.93 93.809 34.695 94.027 34.461 94.23 34.336 94.496 34.336 94.824 34.336 95.09 34.43 95.324 34.602 95.527 34.773 95.715 35.039 95.918 35.398 96.105L35.883 96.387C36.07 96.496 36.195 96.605 36.273 96.715 36.336 96.84 36.383 96.949 36.383 97.074 36.383 97.277 36.32 97.418 36.18 97.543 36.055 97.668 35.883 97.73 35.664 97.73 35.273 97.73 34.977 97.574 34.758 97.23 34.664 97.059 34.555 96.809 34.492 96.465H34.352ZM34.352 97.887" fill="#211e1e"/>
<path d="M39.945 95.637C39.945 94.637 39.633 93.746 39.023 92.949 38.617 92.418 38.195 92.027 37.727 91.777L37.617 91.918C38.242 92.34 38.664 92.949 38.898 93.684 39.07 94.23 39.148 94.918 39.148 95.746 39.148 96.793 38.977 97.637 38.602 98.262 38.398 98.621 38.07 98.965 37.617 99.309L37.695 99.465C37.867 99.371 38.086 99.23 38.336 99.012 38.727 98.699 39.039 98.355 39.258 97.98 39.492 97.637 39.648 97.277 39.773 96.871 39.883 96.48 39.945 96.074 39.945 95.637ZM39.945 95.637" fill="#211e1e"/>
<path d="M99.727 77.156C99.727 78.051 98.961 78.777 98.02 78.777 97.074 78.777 96.309 78.051 96.309 77.156 96.309 76.262 97.074 75.535 98.02 75.535 98.961 75.535 99.727 76.262 99.727 77.156" fill="#211e1e"/>
<path transform="matrix(1,0,0,-1,0,0)" stroke-width=".374" stroke-linecap="butt" stroke-miterlimit="10" stroke-linejoin="miter" fill="none" stroke="#211e1e" d="M99.727-77.156C99.727-78.051 98.961-78.777 98.02-78.777 97.074-78.777 96.309-78.051 96.309-77.156 96.309-76.262 97.074-75.535 98.02-75.535 98.961-75.535 99.727-76.262 99.727-77.156ZM99.727-77.156"/>
<path d="M169.027 80.578 162.547 82.195 164.707 80.395 162.727 78.238 169.027 80.578" fill="#211e1e" fill-rule="evenodd"/>
<path d="M97.926 76.977H98.301L164.902 80.215V80.59H164.527L97.926 77.352" fill="#211e1e"/>
<path d="M270.188 26.578 263.887 28.555 265.867 26.578 263.887 24.598 270.188 26.578" fill="#211e1e" fill-rule="evenodd"/>
<path transform="matrix(1,0,0,-1,0,0)" stroke-width=".374" stroke-linecap="butt" stroke-miterlimit="10" stroke-linejoin="miter" fill="none" stroke="#211e1e" d="M249.848-26.582H266.063"/>
<path d="M307.086 26.395H307.461V26.77L300.801 33.43H300.426V33.055" fill="#211e1e"/>
<path d="M270.188 80.578 263.887 82.555 265.867 80.578 263.887 78.598 270.188 80.578" fill="#211e1e" fill-rule="evenodd"/>
<path transform="matrix(1,0,0,-1,0,0)" stroke-width=".374" stroke-linecap="butt" stroke-miterlimit="10" stroke-linejoin="miter" fill="none" stroke="#211e1e" d="M249.848-80.582H266.063"/>
<path d="M253.086 107.395H253.461V107.77L246.801 114.43H246.426V114.055" fill="#211e1e"/>
<path d="M59.227 114.328C59.227 115.27 58.461 116.035 57.52 116.035 56.574 116.035 55.809 115.27 55.809 114.328 55.809 113.383 56.574 112.617 57.52 112.617 58.461 112.617 59.227 113.383 59.227 114.328" fill="#211e1e"/>
<path transform="matrix(1,0,0,-1,0,0)" stroke-width=".374" stroke-linecap="butt" stroke-miterlimit="10" stroke-linejoin="miter" fill="none" stroke="#211e1e" d="M59.227-114.328C59.227-115.27 58.461-116.035 57.52-116.035 56.574-116.035 55.809-115.27 55.809-114.328 55.809-113.383 56.574-112.617 57.52-112.617 58.461-112.617 59.227-113.383 59.227-114.328ZM59.227-114.328"/>
<path d="M82.809 87.328C82.809 88.27 82.082 89.035 81.188 89.035 80.293 89.035 79.566 88.27 79.566 87.328 79.566 86.383 80.293 85.617 81.188 85.617 82.082 85.617 82.809 86.383 82.809 87.328" fill="#211e1e"/>
<path transform="matrix(1,0,0,-1,0,0)" stroke-width=".374" stroke-linecap="butt" stroke-miterlimit="10" stroke-linejoin="miter" fill="none" stroke="#211e1e" d="M82.809-87.328C82.809-88.27 82.082-89.035 81.188-89.035 80.293-89.035 79.566-88.27 79.566-87.328 79.566-86.383 80.293-85.617 81.188-85.617 82.082-85.617 82.809-86.383 82.809-87.328ZM82.809-87.328"/>
<path d="M169.027 126.117 162.367 127.375 164.707 125.578 162.727 123.418 169.027 126.117" fill="#211e1e" fill-rule="evenodd"/>
<path d="M57.426 114.055H57.801L164.902 125.395V125.77H164.527L57.426 114.43" fill="#211e1e"/>
<path d="M169.027 83.996 162.727 86.156 164.707 83.996 162.547 82.195 169.027 83.996" fill="#211e1e" fill-rule="evenodd"/>
<path d="M164.527 83.816H164.902V84.191L81.383 87.43H81.008V87.055" fill="#211e1e"/>
<path d="M89.648 107.488C89.648 108.43 88.883 109.195 87.938 109.195 86.992 109.195 86.227 108.43 86.227 107.488 86.227 106.543 86.992 105.777 87.938 105.777 88.883 105.777 89.648 106.543 89.648 107.488" fill="#211e1e"/>
<path transform="matrix(1,0,0,-1,0,0)" stroke-width=".374" stroke-linecap="butt" stroke-miterlimit="10" stroke-linejoin="miter" fill="none" stroke="#211e1e" d="M89.648-107.488C89.648-108.43 88.883-109.195 87.938-109.195 86.992-109.195 86.227-108.43 86.227-107.488 86.227-106.543 86.992-105.777 87.938-105.777 88.883-105.777 89.648-106.543 89.648-107.488ZM89.648-107.488"/>
<path d="M169.027 121.617 162.367 122.516 164.707 120.895 162.906 118.555 169.027 121.617" fill="#211e1e" fill-rule="evenodd"/>
<path d="M87.848 107.395H88.223L164.902 120.715V121.09H164.527L87.848 107.77" fill="#211e1e"/>
<path d="M324.188 80.578 317.887 82.555 319.867 80.578 317.887 78.598 324.188 80.578" fill="#211e1e" fill-rule="evenodd"/>
<path transform="matrix(1,0,0,-1,0,0)" stroke-width=".374" stroke-linecap="butt" stroke-miterlimit="10" stroke-linejoin="miter" fill="none" stroke="#211e1e" d="M303.848-80.582H320.063"/>
<path d="M361.086 80.395H361.461V80.77L354.801 87.43H354.426V87.055" fill="#211e1e"/>
<path d="M307.086 120.895H307.461V121.27L300.801 127.93H300.426V127.555" fill="#211e1e"/>
<path d="M270.188 121.078 263.887 123.055 265.867 121.078 263.887 119.098 270.188 121.078" fill="#211e1e" fill-rule="evenodd"/>
<path transform="matrix(1,0,0,-1,0,0)" stroke-width=".374" stroke-linecap="butt" stroke-miterlimit="10" stroke-linejoin="miter" fill="none" stroke="#211e1e" d="M249.848-121.082H266.063"/>
<path d="M216.188 29.996 209.887 31.977 211.867 29.996 209.887 27.836 216.188 29.996" fill="#211e1e" fill-rule="evenodd"/>
<path transform="matrix(1,0,0,-1,0,0)" stroke-width=".374" stroke-linecap="butt" stroke-miterlimit="10" stroke-linejoin="miter" fill="none" stroke="#211e1e" d="M182.348-30.004H212.063"/>
<path d="M216.188 83.996 209.887 85.977 211.867 83.996 209.887 81.836 216.188 83.996" fill="#211e1e" fill-rule="evenodd"/>
<path transform="matrix(1,0,0,-1,0,0)" stroke-width=".374" stroke-linecap="butt" stroke-miterlimit="10" stroke-linejoin="miter" fill="none" stroke="#211e1e" d="M182.348-84.004H212.063"/>
<path d="M216.188 110.996 209.887 112.977 211.867 110.996 209.887 108.836 216.188 110.996" fill="#211e1e" fill-rule="evenodd"/>
<path transform="matrix(1,0,0,-1,0,0)" stroke-width=".374" stroke-linecap="butt" stroke-miterlimit="10" stroke-linejoin="miter" fill="none" stroke="#211e1e" d="M182.348-111.004H212.063"/>
<path d="M216.188 124.496 209.887 126.477 211.867 124.496 209.887 122.336 216.188 124.496" fill="#211e1e" fill-rule="evenodd"/>
<path transform="matrix(1,0,0,-1,0,0)" stroke-width=".374" stroke-linecap="butt" stroke-miterlimit="10" stroke-linejoin="miter" fill="none" stroke="#211e1e" d="M182.348-124.504H212.063"/>
<path d="M187.387 11.098H187.762V11.469L177.5 21.73H177.129V21.355" fill="#211e1e"/>
<path d="M187.387 38.098H187.762V38.469L177.5 48.73H177.129V48.355" fill="#211e1e"/>
<path d="M187.387 65.098H187.762V65.469L177.5 75.73H177.129V75.355" fill="#211e1e"/>
<path d="M187.387 92.098H187.762V92.469L177.5 102.73H177.129V102.355" fill="#211e1e"/>
<path d="M187.387 132.598H187.762V132.969L177.5 143.23H177.129V142.855" fill="#211e1e"/>
<path d="M187.387 51.598H187.762V51.969L177.5 62.23H177.129V61.855" fill="#211e1e"/>
<path d="M48.684 64.375 49.105 62.75 49.559 62.422C49.652 62.688 49.746 62.922 49.824 63.125 49.918 63.328 49.996 63.516 50.059 63.641 50.23 64 50.355 64.234 50.449 64.328 50.543 64.422 50.652 64.469 50.777 64.469 50.965 64.469 51.121 64.391 51.277 64.234 51.418 64.078 51.574 63.828 51.762 63.484L51.621 63.391C51.512 63.594 51.418 63.75 51.355 63.813 51.262 63.938 51.168 64 51.09 64 50.996 64 50.887 63.906 50.793 63.719 50.699 63.531 50.465 62.953 50.074 62.016 50.793 61.375 51.246 61 51.434 60.875 51.605 60.734 51.809 60.672 52.043 60.656V60.516H50.387V60.656C50.59 60.672 50.73 60.672 50.793 60.688 50.855 60.719 50.887 60.75 50.887 60.828 50.887 60.938 50.762 61.094 50.527 61.313 50.293 61.516 49.855 61.875 49.199 62.391L50.387 58.281 50.371 58.234C50.355 58.234 50.246 58.25 50.074 58.297 49.902 58.344 49.793 58.359 49.777 58.359 49.684 58.375 49.574 58.391 49.402 58.422 49.262 58.438 49.09 58.469 48.918 58.484V58.625C49.168 58.609 49.324 58.625 49.402 58.656 49.48 58.672 49.512 58.766 49.512 58.891 49.512 58.922 49.512 58.953 49.512 58.969 49.512 59 49.496 59.016 49.496 59.047L48.012 64.375ZM48.684 64.375" fill="#211e1e"/>
<path d="M53.852 62.246H53.82L52.617 62.855V62.949C52.695 62.918 52.789 62.887 52.867 62.84 52.961 62.809 53.039 62.809 53.102 62.809 53.18 62.809 53.227 62.824 53.258 62.887 53.289 62.934 53.305 63.012 53.305 63.121V66.121C53.305 66.324 53.258 66.449 53.18 66.512 53.102 66.574 52.93 66.605 52.664 66.621V66.715H54.492V66.621C54.258 66.621 54.086 66.59 53.992 66.543 53.914 66.496 53.867 66.387 53.867 66.215V62.309C53.867 62.293 53.867 62.277 53.867 62.277 53.867 62.262 53.867 62.262 53.852 62.246ZM53.852 62.246" fill="#211e1e"/>
<path d="M62.184 104.875 62.605 103.25 63.059 102.922C63.152 103.188 63.246 103.422 63.324 103.625 63.418 103.828 63.496 104.016 63.559 104.141 63.73 104.5 63.855 104.734 63.949 104.828 64.043 104.922 64.152 104.969 64.277 104.969 64.465 104.969 64.621 104.891 64.777 104.734 64.918 104.578 65.074 104.328 65.262 103.984L65.121 103.891C65.012 104.094 64.918 104.25 64.855 104.313 64.762 104.438 64.668 104.5 64.59 104.5 64.496 104.5 64.387 104.406 64.293 104.219 64.199 104.031 63.965 103.453 63.574 102.516 64.293 101.875 64.746 101.5 64.934 101.375 65.105 101.234 65.309 101.172 65.543 101.156V101.016H63.887V101.156C64.09 101.172 64.23 101.172 64.293 101.188 64.355 101.219 64.387 101.25 64.387 101.328 64.387 101.438 64.262 101.594 64.027 101.813 63.793 102.016 63.355 102.375 62.699 102.891L63.887 98.781 63.871 98.734C63.855 98.734 63.746 98.75 63.574 98.797 63.402 98.844 63.293 98.859 63.277 98.859 63.184 98.875 63.074 98.891 62.902 98.922 62.762 98.938 62.59 98.969 62.418 98.984V99.125C62.668 99.109 62.824 99.125 62.902 99.156 62.98 99.172 63.012 99.266 63.012 99.391 63.012 99.422 63.012 99.453 63.012 99.469 63.012 99.5 62.996 99.516 62.996 99.547L61.512 104.875ZM62.184 104.875" fill="#211e1e"/>
<path d="M65.586 107.215H68.18L68.539 106.309 68.445 106.277C68.352 106.465 68.258 106.59 68.164 106.637 68.086 106.684 67.945 106.715 67.727 106.715H66.242C67.055 105.871 67.586 105.277 67.836 104.949 68.086 104.621 68.195 104.277 68.195 103.934 68.195 103.59 68.086 103.309 67.852 103.074 67.633 102.855 67.336 102.73 66.977 102.73 66.68 102.73 66.398 102.84 66.148 103.027 65.883 103.215 65.695 103.574 65.586 104.074L65.727 104.09C65.82 103.84 65.93 103.668 66.023 103.543 66.195 103.324 66.445 103.215 66.742 103.215 66.977 103.215 67.18 103.309 67.367 103.48 67.539 103.637 67.617 103.887 67.617 104.199 67.617 104.574 67.477 104.949 67.195 105.324 66.914 105.715 66.367 106.309 65.586 107.137ZM65.586 107.215" fill="#211e1e"/>
<path d="M99.266 104.875 99.688 103.25 100.141 102.922C100.234 103.188 100.328 103.422 100.406 103.625 100.5 103.828 100.578 104.016 100.641 104.141 100.813 104.5 100.938 104.734 101.031 104.828 101.125 104.922 101.234 104.969 101.359 104.969 101.547 104.969 101.703 104.891 101.859 104.734 102 104.578 102.156 104.328 102.344 103.984L102.203 103.891C102.094 104.094 102 104.25 101.938 104.313 101.844 104.438 101.75 104.5 101.672 104.5 101.578 104.5 101.469 104.406 101.375 104.219 101.281 104.031 101.047 103.453 100.656 102.516 101.375 101.875 101.828 101.5 102.016 101.375 102.188 101.234 102.391 101.172 102.625 101.156V101.016H100.969V101.156C101.172 101.172 101.313 101.172 101.375 101.188 101.438 101.219 101.469 101.25 101.469 101.328 101.469 101.438 101.344 101.594 101.109 101.813 100.875 102.016 100.438 102.375 99.781 102.891L100.969 98.781 100.953 98.734C100.938 98.734 100.828 98.75 100.656 98.797 100.484 98.844 100.375 98.859 100.359 98.859 100.266 98.875 100.156 98.891 99.984 98.922 99.844 98.938 99.672 98.969 99.5 98.984V99.125C99.75 99.109 99.906 99.125 99.984 99.156 100.063 99.172 100.094 99.266 100.094 99.391 100.094 99.422 100.094 99.453 100.094 99.469 100.094 99.5 100.078 99.516 100.078 99.547L98.594 104.875ZM99.266 104.875" fill="#211e1e"/>
<path d="M102.98 106.652C102.902 106.652 102.84 106.668 102.809 106.73 102.777 106.777 102.746 106.84 102.746 106.887 102.746 106.98 102.809 107.059 102.918 107.137 103.012 107.215 103.215 107.262 103.48 107.262 104.074 107.262 104.527 107.105 104.855 106.793 105.184 106.48 105.34 106.121 105.34 105.699 105.34 105.355 105.23 105.074 104.98 104.84 104.855 104.73 104.699 104.621 104.496 104.527 104.668 104.402 104.793 104.293 104.887 104.199 105.027 104.027 105.105 103.824 105.105 103.621 105.105 103.371 105.012 103.168 104.84 102.98 104.652 102.809 104.402 102.715 104.074 102.715 103.762 102.715 103.48 102.809 103.246 103.012 103.012 103.199 102.855 103.465 102.762 103.793L102.871 103.824C102.98 103.621 103.09 103.48 103.184 103.387 103.371 103.199 103.574 103.121 103.809 103.121 104.012 103.121 104.199 103.168 104.355 103.309 104.512 103.418 104.59 103.605 104.59 103.84 104.59 104.105 104.496 104.324 104.293 104.48 104.09 104.652 103.809 104.793 103.465 104.918L103.48 104.996C103.512 104.996 103.543 104.996 103.574 104.996 103.59 104.996 103.621 104.996 103.652 104.996 104.121 104.996 104.48 105.137 104.668 105.434 104.793 105.605 104.855 105.824 104.855 106.043 104.855 106.293 104.777 106.512 104.637 106.715 104.48 106.918 104.262 107.027 103.949 107.027 103.809 107.027 103.652 106.965 103.449 106.84 103.262 106.715 103.09 106.652 102.98 106.652ZM102.98 106.652" fill="#211e1e"/>
<path d="M58.766 81.297 59.188 79.672 59.641 79.344C59.734 79.609 59.828 79.844 59.906 80.047 60 80.25 60.078 80.438 60.141 80.563 60.313 80.922 60.438 81.156 60.531 81.25 60.625 81.344 60.734 81.391 60.859 81.391 61.047 81.391 61.203 81.313 61.359 81.156 61.5 81 61.656 80.75 61.844 80.406L61.703 80.313C61.594 80.516 61.5 80.672 61.438 80.734 61.344 80.859 61.25 80.922 61.172 80.922 61.078 80.922 60.969 80.828 60.875 80.641 60.781 80.453 60.547 79.875 60.156 78.938 60.875 78.297 61.328 77.922 61.516 77.797 61.688 77.656 61.891 77.594 62.125 77.578V77.438H60.469V77.578C60.672 77.594 60.813 77.594 60.875 77.609 60.938 77.641 60.969 77.672 60.969 77.75 60.969 77.859 60.844 78.016 60.609 78.234 60.375 78.438 59.938 78.797 59.281 79.313L60.469 75.203 60.453 75.156C60.438 75.156 60.328 75.172 60.156 75.219 59.984 75.266 59.875 75.281 59.859 75.281 59.766 75.297 59.656 75.313 59.484 75.344 59.344 75.359 59.172 75.391 59 75.406V75.547C59.25 75.531 59.406 75.547 59.484 75.578 59.563 75.594 59.594 75.688 59.594 75.813 59.594 75.844 59.594 75.875 59.594 75.891 59.594 75.922 59.578 75.938 59.578 75.969L58.094 81.297ZM58.766 81.297" fill="#211e1e"/>
<path d="M63.902 82.09H62.309L63.902 79.855ZM62.043 82.09V82.527H63.902V83.637H64.434V82.527H65.105V82.09H64.434V79.168H64.121ZM62.043 82.09" fill="#211e1e"/>
<path d="M89.184 81.297 89.605 79.672 90.059 79.344C90.152 79.609 90.246 79.844 90.324 80.047 90.418 80.25 90.496 80.438 90.559 80.563 90.73 80.922 90.855 81.156 90.949 81.25 91.043 81.344 91.152 81.391 91.277 81.391 91.465 81.391 91.621 81.313 91.777 81.156 91.918 81 92.074 80.75 92.262 80.406L92.121 80.313C92.012 80.516 91.918 80.672 91.855 80.734 91.762 80.859 91.668 80.922 91.59 80.922 91.496 80.922 91.387 80.828 91.293 80.641 91.199 80.453 90.965 79.875 90.574 78.938 91.293 78.297 91.746 77.922 91.934 77.797 92.105 77.656 92.309 77.594 92.543 77.578V77.438H90.887V77.578C91.09 77.594 91.23 77.594 91.293 77.609 91.355 77.641 91.387 77.672 91.387 77.75 91.387 77.859 91.262 78.016 91.027 78.234 90.793 78.438 90.355 78.797 89.699 79.313L90.887 75.203 90.871 75.156C90.855 75.156 90.746 75.172 90.574 75.219 90.402 75.266 90.293 75.281 90.277 75.281 90.184 75.297 90.074 75.313 89.902 75.344 89.762 75.359 89.59 75.391 89.418 75.406V75.547C89.668 75.531 89.824 75.547 89.902 75.578 89.98 75.594 90.012 75.688 90.012 75.813 90.012 75.844 90.012 75.875 90.012 75.891 90.012 75.922 89.996 75.938 89.996 75.969L88.512 81.297ZM89.184 81.297" fill="#211e1e"/>
<path d="M92.883 83.043C92.789 83.043 92.711 83.059 92.664 83.105 92.617 83.152 92.602 83.215 92.602 83.277 92.602 83.449 92.695 83.574 92.93 83.637 93.055 83.684 93.227 83.699 93.43 83.699 93.961 83.699 94.398 83.543 94.727 83.23 95.07 82.902 95.242 82.512 95.242 82.027 95.242 81.809 95.211 81.605 95.133 81.418 95.039 81.23 94.93 81.059 94.773 80.902 94.586 80.73 94.367 80.59 94.086 80.496 93.93 80.449 93.664 80.387 93.305 80.324L93.586 79.762H94.852C94.898 79.762 94.93 79.762 94.977 79.746 95.008 79.746 95.039 79.73 95.039 79.715L95.289 79.105 95.242 79.059C95.18 79.121 95.133 79.168 95.086 79.199 95.055 79.215 94.992 79.23 94.93 79.23H93.539L92.836 80.793C92.836 80.809 92.82 80.809 92.82 80.824 92.82 80.84 92.82 80.855 92.805 80.871 92.836 80.887 92.836 80.902 92.852 80.902 92.867 80.902 92.898 80.902 92.945 80.902 93.227 80.902 93.539 80.98 93.867 81.121 94.461 81.355 94.773 81.762 94.773 82.324 94.773 82.652 94.68 82.918 94.492 83.137 94.305 83.355 94.086 83.465 93.836 83.465 93.727 83.465 93.57 83.387 93.367 83.246 93.164 83.105 93.008 83.043 92.883 83.043ZM92.883 83.043" fill="#211e1e"/>
<path d="M48.684 118.375 49.105 116.75 49.559 116.422C49.652 116.688 49.746 116.922 49.824 117.125 49.918 117.328 49.996 117.516 50.059 117.641 50.23 118 50.355 118.234 50.449 118.328 50.543 118.422 50.652 118.469 50.777 118.469 50.965 118.469 51.121 118.391 51.277 118.234 51.418 118.078 51.574 117.828 51.762 117.484L51.621 117.391C51.512 117.594 51.418 117.75 51.355 117.813 51.262 117.938 51.168 118 51.09 118 50.996 118 50.887 117.906 50.793 117.719 50.699 117.531 50.465 116.953 50.074 116.016 50.793 115.375 51.246 115 51.434 114.875 51.605 114.734 51.809 114.672 52.043 114.656V114.516H50.387V114.656C50.59 114.672 50.73 114.672 50.793 114.688 50.855 114.719 50.887 114.75 50.887 114.828 50.887 114.938 50.762 115.094 50.527 115.313 50.293 115.516 49.855 115.875 49.199 116.391L50.387 112.281 50.371 112.234C50.355 112.234 50.246 112.25 50.074 112.297 49.902 112.344 49.793 112.359 49.777 112.359 49.684 112.375 49.574 112.391 49.402 112.422 49.262 112.438 49.09 112.469 48.918 112.484V112.625C49.168 112.609 49.324 112.625 49.402 112.656 49.48 112.672 49.512 112.766 49.512 112.891 49.512 112.922 49.512 112.953 49.512 112.969 49.512 113 49.496 113.016 49.496 113.047L48.012 118.375ZM48.684 118.375" fill="#211e1e"/>
<path d="M54.992 119.23C54.992 118.793 54.883 118.449 54.648 118.215 54.414 117.98 54.117 117.855 53.773 117.855 53.602 117.855 53.43 117.887 53.242 117.965 53.148 117.996 53.039 118.059 52.898 118.152 52.961 117.902 53.055 117.668 53.18 117.434 53.32 117.184 53.477 116.98 53.633 116.84 53.789 116.668 53.961 116.559 54.164 116.48 54.352 116.387 54.586 116.309 54.867 116.262L54.852 116.168C54.18 116.168 53.555 116.387 53.023 116.84 52.414 117.402 52.102 118.059 52.102 118.824 52.102 119.418 52.273 119.887 52.586 120.246 52.898 120.605 53.242 120.777 53.617 120.777 54.039 120.777 54.352 120.621 54.617 120.309 54.867 119.996 54.992 119.637 54.992 119.23ZM54.398 119.48C54.398 119.777 54.352 120.043 54.227 120.262 54.117 120.48 53.93 120.574 53.664 120.574 53.336 120.574 53.102 120.418 52.945 120.074 52.789 119.73 52.727 119.387 52.727 119.043 52.727 118.777 52.758 118.574 52.82 118.465 52.93 118.262 53.148 118.152 53.492 118.152 53.867 118.152 54.117 118.34 54.273 118.715 54.352 118.934 54.398 119.199 54.398 119.48ZM54.398 119.48" fill="#211e1e"/>
<path d="M72.266 91.375 72.688 89.75 73.141 89.422C73.234 89.688 73.328 89.922 73.406 90.125 73.5 90.328 73.578 90.516 73.641 90.641 73.813 91 73.938 91.234 74.031 91.328 74.125 91.422 74.234 91.469 74.359 91.469 74.547 91.469 74.703 91.391 74.859 91.234 75 91.078 75.156 90.828 75.344 90.484L75.203 90.391C75.094 90.594 75 90.75 74.938 90.813 74.844 90.938 74.75 91 74.672 91 74.578 91 74.469 90.906 74.375 90.719 74.281 90.531 74.047 89.953 73.656 89.016 74.375 88.375 74.828 88 75.016 87.875 75.188 87.734 75.391 87.672 75.625 87.656V87.516H73.969V87.656C74.172 87.672 74.313 87.672 74.375 87.688 74.438 87.719 74.469 87.75 74.469 87.828 74.469 87.938 74.344 88.094 74.109 88.313 73.875 88.516 73.438 88.875 72.781 89.391L73.969 85.281 73.953 85.234C73.938 85.234 73.828 85.25 73.656 85.297 73.484 85.344 73.375 85.359 73.359 85.359 73.266 85.375 73.156 85.391 72.984 85.422 72.844 85.438 72.672 85.469 72.5 85.484V85.625C72.75 85.609 72.906 85.625 72.984 85.656 73.063 85.672 73.094 85.766 73.094 85.891 73.094 85.922 73.094 85.953 73.094 85.969 73.094 86 73.078 86.016 73.078 86.047L71.594 91.375ZM72.266 91.375" fill="#211e1e"/>
<path d="M75.996 89.309C75.934 89.449 75.887 89.559 75.855 89.652 75.824 89.73 75.73 89.934 75.605 90.293L75.715 90.34C75.855 90.121 75.965 89.98 76.059 89.902 76.152 89.84 76.309 89.809 76.512 89.809H77.918L76.621 93.777H77.043L78.449 89.418V89.309ZM75.996 89.309" fill="#211e1e"/>
<path d="M78.926 111.715 79.348 110.09 79.801 109.762C79.895 110.027 79.988 110.262 80.066 110.465 80.16 110.668 80.238 110.855 80.301 110.98 80.473 111.34 80.598 111.574 80.691 111.668 80.785 111.762 80.895 111.809 81.02 111.809 81.207 111.809 81.363 111.73 81.52 111.574 81.66 111.418 81.816 111.168 82.004 110.824L81.863 110.73C81.754 110.934 81.66 111.09 81.598 111.152 81.504 111.277 81.41 111.34 81.332 111.34 81.238 111.34 81.129 111.246 81.035 111.059 80.941 110.871 80.707 110.293 80.316 109.355 81.035 108.715 81.488 108.34 81.676 108.215 81.848 108.074 82.051 108.012 82.285 107.996V107.855H80.629V107.996C80.832 108.012 80.973 108.012 81.035 108.027 81.098 108.059 81.129 108.09 81.129 108.168 81.129 108.277 81.004 108.434 80.77 108.652 80.535 108.855 80.098 109.215 79.441 109.73L80.629 105.621 80.613 105.574C80.598 105.574 80.488 105.59 80.316 105.637 80.145 105.684 80.035 105.699 80.02 105.699 79.926 105.715 79.816 105.73 79.645 105.762 79.504 105.777 79.332 105.809 79.16 105.824V105.965C79.41 105.949 79.566 105.965 79.645 105.996 79.723 106.012 79.754 106.105 79.754 106.23 79.754 106.262 79.754 106.293 79.754 106.309 79.754 106.34 79.738 106.355 79.738 106.387L78.254 111.715ZM78.926 111.715" fill="#211e1e"/>
<path d="M83.938 113.93C83.703 113.93 83.5 113.852 83.344 113.68 83.203 113.492 83.125 113.258 83.125 112.977 83.125 112.789 83.172 112.617 83.25 112.43 83.344 112.242 83.469 112.086 83.656 111.977 84.078 112.273 84.359 112.492 84.484 112.633 84.625 112.789 84.688 112.977 84.688 113.211 84.688 113.414 84.625 113.586 84.5 113.727 84.375 113.867 84.188 113.93 83.938 113.93ZM83.969 111.461C83.734 111.305 83.531 111.148 83.375 110.977 83.219 110.805 83.141 110.602 83.141 110.414 83.141 110.227 83.203 110.07 83.344 109.945 83.469 109.82 83.641 109.758 83.844 109.758 84.094 109.758 84.281 109.836 84.406 109.977 84.531 110.117 84.609 110.289 84.609 110.508 84.609 110.727 84.531 110.93 84.406 111.102 84.328 111.195 84.188 111.32 83.969 111.461ZM83.484 111.836C83.188 112.023 83 112.195 82.875 112.32 82.703 112.539 82.625 112.773 82.625 113.055 82.625 113.383 82.75 113.633 83 113.836 83.25 114.023 83.547 114.117 83.906 114.117 84.297 114.117 84.609 114.008 84.844 113.805 85.078 113.586 85.203 113.336 85.203 113.023 85.203 112.742 85.125 112.508 84.969 112.305 84.797 112.102 84.531 111.867 84.172 111.586 84.438 111.445 84.641 111.305 84.766 111.195 84.969 110.992 85.078 110.773 85.078 110.508 85.078 110.273 84.969 110.055 84.766 109.852 84.563 109.664 84.281 109.57 83.938 109.57 83.563 109.57 83.25 109.68 83.016 109.867 82.766 110.07 82.656 110.32 82.656 110.602 82.656 110.852 82.734 111.086 82.891 111.289 83 111.43 83.188 111.602 83.484 111.836ZM83.484 111.836" fill="#211e1e"/>
<path d="M233.723 32.336 234.145 30.711 234.598 30.383C234.691 30.648 234.785 30.883 234.863 31.086 234.957 31.289 235.035 31.477 235.098 31.602 235.27 31.961 235.395 32.195 235.488 32.289 235.582 32.383 235.691 32.43 235.816 32.43 236.004 32.43 236.16 32.352 236.316 32.195 236.457 32.039 236.613 31.789 236.801 31.445L236.66 31.352C236.551 31.555 236.457 31.711 236.395 31.773 236.301 31.898 236.207 31.961 236.129 31.961 236.035 31.961 235.926 31.867 235.832 31.68 235.738 31.492 235.504 30.914 235.113 29.977 235.832 29.336 236.285 28.961 236.473 28.836 236.645 28.695 236.848 28.633 237.082 28.617V28.477H235.426V28.617C235.629 28.633 235.77 28.633 235.832 28.648 235.895 28.68 235.926 28.711 235.926 28.789 235.926 28.898 235.801 29.055 235.566 29.273 235.332 29.477 234.895 29.836 234.238 30.352L235.426 26.242 235.41 26.195C235.395 26.195 235.285 26.211 235.113 26.258 234.941 26.305 234.832 26.32 234.816 26.32 234.723 26.336 234.613 26.352 234.441 26.383 234.301 26.398 234.129 26.43 233.957 26.445V26.586C234.207 26.57 234.363 26.586 234.441 26.617 234.52 26.633 234.551 26.727 234.551 26.852 234.551 26.883 234.551 26.914 234.551 26.93 234.551 26.961 234.535 26.977 234.535 27.008L233.051 32.336ZM233.723 32.336" fill="#211e1e"/>
<path d="M239.035 30.207H239.004L237.801 30.816V30.91C237.879 30.879 237.973 30.848 238.051 30.801 238.145 30.77 238.223 30.77 238.285 30.77 238.363 30.77 238.41 30.785 238.441 30.848 238.473 30.895 238.488 30.973 238.488 31.082V34.082C238.488 34.285 238.441 34.41 238.363 34.473 238.285 34.535 238.113 34.566 237.848 34.582V34.676H239.676V34.582C239.441 34.582 239.27 34.551 239.176 34.504 239.098 34.457 239.051 34.348 239.051 34.176V30.27C239.051 30.254 239.051 30.238 239.051 30.238 239.051 30.223 239.051 30.223 239.035 30.207ZM239.035 30.207" fill="#211e1e"/>
<path d="M287.723 86.336 288.145 84.711 288.598 84.383C288.691 84.648 288.785 84.883 288.863 85.086 288.957 85.289 289.035 85.477 289.098 85.602 289.27 85.961 289.395 86.195 289.488 86.289 289.582 86.383 289.691 86.43 289.816 86.43 290.004 86.43 290.16 86.352 290.316 86.195 290.457 86.039 290.613 85.789 290.801 85.445L290.66 85.352C290.551 85.555 290.457 85.711 290.395 85.773 290.301 85.898 290.207 85.961 290.129 85.961 290.035 85.961 289.926 85.867 289.832 85.68 289.738 85.492 289.504 84.914 289.113 83.977 289.832 83.336 290.285 82.961 290.473 82.836 290.645 82.695 290.848 82.633 291.082 82.617V82.477H289.426V82.617C289.629 82.633 289.77 82.633 289.832 82.648 289.895 82.68 289.926 82.711 289.926 82.789 289.926 82.898 289.801 83.055 289.566 83.273 289.332 83.477 288.895 83.836 288.238 84.352L289.426 80.242 289.41 80.195C289.395 80.195 289.285 80.211 289.113 80.258 288.941 80.305 288.832 80.32 288.816 80.32 288.723 80.336 288.613 80.352 288.441 80.383 288.301 80.398 288.129 80.43 287.957 80.445V80.586C288.207 80.57 288.363 80.586 288.441 80.617 288.52 80.633 288.551 80.727 288.551 80.852 288.551 80.883 288.551 80.914 288.551 80.93 288.551 80.961 288.535 80.977 288.535 81.008L287.051 86.336ZM287.723 86.336" fill="#211e1e"/>
<path d="M291.27 88.676H293.863L294.223 87.77 294.129 87.738C294.035 87.926 293.941 88.051 293.848 88.098 293.77 88.145 293.629 88.176 293.41 88.176H291.926C292.738 87.332 293.27 86.738 293.52 86.41 293.77 86.082 293.879 85.738 293.879 85.395 293.879 85.051 293.77 84.77 293.535 84.535 293.316 84.316 293.02 84.191 292.66 84.191 292.363 84.191 292.082 84.301 291.832 84.488 291.566 84.676 291.379 85.035 291.27 85.535L291.41 85.551C291.504 85.301 291.613 85.129 291.707 85.004 291.879 84.785 292.129 84.676 292.426 84.676 292.66 84.676 292.863 84.77 293.051 84.941 293.223 85.098 293.301 85.348 293.301 85.66 293.301 86.035 293.16 86.41 292.879 86.785 292.598 87.176 292.051 87.77 291.27 88.598ZM291.27 88.676" fill="#211e1e"/>
<path d="M233.723 113.336 234.145 111.711 234.598 111.383C234.691 111.648 234.785 111.883 234.863 112.086 234.957 112.289 235.035 112.477 235.098 112.602 235.27 112.961 235.395 113.195 235.488 113.289 235.582 113.383 235.691 113.43 235.816 113.43 236.004 113.43 236.16 113.352 236.316 113.195 236.457 113.039 236.613 112.789 236.801 112.445L236.66 112.352C236.551 112.555 236.457 112.711 236.395 112.773 236.301 112.898 236.207 112.961 236.129 112.961 236.035 112.961 235.926 112.867 235.832 112.68 235.738 112.492 235.504 111.914 235.113 110.977 235.832 110.336 236.285 109.961 236.473 109.836 236.645 109.695 236.848 109.633 237.082 109.617V109.477H235.426V109.617C235.629 109.633 235.77 109.633 235.832 109.648 235.895 109.68 235.926 109.711 235.926 109.789 235.926 109.898 235.801 110.055 235.566 110.273 235.332 110.477 234.895 110.836 234.238 111.352L235.426 107.242 235.41 107.195C235.395 107.195 235.285 107.211 235.113 107.258 234.941 107.305 234.832 107.32 234.816 107.32 234.723 107.336 234.613 107.352 234.441 107.383 234.301 107.398 234.129 107.43 233.957 107.445V107.586C234.207 107.57 234.363 107.586 234.441 107.617 234.52 107.633 234.551 107.727 234.551 107.852 234.551 107.883 234.551 107.914 234.551 107.93 234.551 107.961 234.535 107.977 234.535 108.008L233.051 113.336ZM233.723 113.336" fill="#211e1e"/>
<path d="M237.582 115.113C237.504 115.113 237.441 115.129 237.41 115.191 237.379 115.238 237.348 115.301 237.348 115.348 237.348 115.441 237.41 115.52 237.52 115.598 237.613 115.676 237.816 115.723 238.082 115.723 238.676 115.723 239.129 115.566 239.457 115.254 239.785 114.941 239.941 114.582 239.941 114.16 239.941 113.816 239.832 113.535 239.582 113.301 239.457 113.191 239.301 113.082 239.098 112.988 239.27 112.863 239.395 112.754 239.488 112.66 239.629 112.488 239.707 112.285 239.707 112.082 239.707 111.832 239.613 111.629 239.441 111.441 239.254 111.27 239.004 111.176 238.676 111.176 238.363 111.176 238.082 111.27 237.848 111.473 237.613 111.66 237.457 111.926 237.363 112.254L237.473 112.285C237.582 112.082 237.691 111.941 237.785 111.848 237.973 111.66 238.176 111.582 238.41 111.582 238.613 111.582 238.801 111.629 238.957 111.77 239.113 111.879 239.191 112.066 239.191 112.301 239.191 112.566 239.098 112.785 238.895 112.941 238.691 113.113 238.41 113.254 238.066 113.379L238.082 113.457C238.113 113.457 238.145 113.457 238.176 113.457 238.191 113.457 238.223 113.457 238.254 113.457 238.723 113.457 239.082 113.598 239.27 113.895 239.395 114.066 239.457 114.285 239.457 114.504 239.457 114.754 239.379 114.973 239.238 115.176 239.082 115.379 238.863 115.488 238.551 115.488 238.41 115.488 238.254 115.426 238.051 115.301 237.863 115.176 237.691 115.113 237.582 115.113ZM237.582 115.113" fill="#211e1e"/>
<path d="M287.723 32.336 288.145 30.711 288.598 30.383C288.691 30.648 288.785 30.883 288.863 31.086 288.957 31.289 289.035 31.477 289.098 31.602 289.27 31.961 289.395 32.195 289.488 32.289 289.582 32.383 289.691 32.43 289.816 32.43 290.004 32.43 290.16 32.352 290.316 32.195 290.457 32.039 290.613 31.789 290.801 31.445L290.66 31.352C290.551 31.555 290.457 31.711 290.395 31.773 290.301 31.898 290.207 31.961 290.129 31.961 290.035 31.961 289.926 31.867 289.832 31.68 289.738 31.492 289.504 30.914 289.113 29.977 289.832 29.336 290.285 28.961 290.473 28.836 290.645 28.695 290.848 28.633 291.082 28.617V28.477H289.426V28.617C289.629 28.633 289.77 28.633 289.832 28.648 289.895 28.68 289.926 28.711 289.926 28.789 289.926 28.898 289.801 29.055 289.566 29.273 289.332 29.477 288.895 29.836 288.238 30.352L289.426 26.242 289.41 26.195C289.395 26.195 289.285 26.211 289.113 26.258 288.941 26.305 288.832 26.32 288.816 26.32 288.723 26.336 288.613 26.352 288.441 26.383 288.301 26.398 288.129 26.43 287.957 26.445V26.586C288.207 26.57 288.363 26.586 288.441 26.617 288.52 26.633 288.551 26.727 288.551 26.852 288.551 26.883 288.551 26.914 288.551 26.93 288.551 26.961 288.535 26.977 288.535 27.008L287.051 32.336ZM287.723 32.336" fill="#211e1e"/>
<path d="M293.004 33.129H291.41L293.004 30.895ZM291.145 33.129V33.566H293.004V34.676H293.535V33.566H294.207V33.129H293.535V30.207H293.223ZM291.145 33.129" fill="#211e1e"/>
<path d="M233.723 86.336 234.145 84.711 234.598 84.383C234.691 84.648 234.785 84.883 234.863 85.086 234.957 85.289 235.035 85.477 235.098 85.602 235.27 85.961 235.395 86.195 235.488 86.289 235.582 86.383 235.691 86.43 235.816 86.43 236.004 86.43 236.16 86.352 236.316 86.195 236.457 86.039 236.613 85.789 236.801 85.445L236.66 85.352C236.551 85.555 236.457 85.711 236.395 85.773 236.301 85.898 236.207 85.961 236.129 85.961 236.035 85.961 235.926 85.867 235.832 85.68 235.738 85.492 235.504 84.914 235.113 83.977 235.832 83.336 236.285 82.961 236.473 82.836 236.645 82.695 236.848 82.633 237.082 82.617V82.477H235.426V82.617C235.629 82.633 235.77 82.633 235.832 82.648 235.895 82.68 235.926 82.711 235.926 82.789 235.926 82.898 235.801 83.055 235.566 83.273 235.332 83.477 234.895 83.836 234.238 84.352L235.426 80.242 235.41 80.195C235.395 80.195 235.285 80.211 235.113 80.258 234.941 80.305 234.832 80.32 234.816 80.32 234.723 80.336 234.613 80.352 234.441 80.383 234.301 80.398 234.129 80.43 233.957 80.445V80.586C234.207 80.57 234.363 80.586 234.441 80.617 234.52 80.633 234.551 80.727 234.551 80.852 234.551 80.883 234.551 80.914 234.551 80.93 234.551 80.961 234.535 80.977 234.535 81.008L233.051 86.336ZM233.723 86.336" fill="#211e1e"/>
<path d="M237.566 88.082C237.473 88.082 237.395 88.098 237.348 88.145 237.301 88.191 237.285 88.254 237.285 88.316 237.285 88.488 237.379 88.613 237.613 88.676 237.738 88.723 237.91 88.738 238.113 88.738 238.645 88.738 239.082 88.582 239.41 88.27 239.754 87.941 239.926 87.551 239.926 87.066 239.926 86.848 239.895 86.645 239.816 86.457 239.723 86.27 239.613 86.098 239.457 85.941 239.27 85.77 239.051 85.629 238.77 85.535 238.613 85.488 238.348 85.426 237.988 85.363L238.27 84.801H239.535C239.582 84.801 239.613 84.801 239.66 84.785 239.691 84.785 239.723 84.77 239.723 84.754L239.973 84.145 239.926 84.098C239.863 84.16 239.816 84.207 239.77 84.238 239.738 84.254 239.676 84.27 239.613 84.27H238.223L237.52 85.832C237.52 85.848 237.504 85.848 237.504 85.863 237.504 85.879 237.504 85.895 237.488 85.91 237.52 85.926 237.52 85.941 237.535 85.941 237.551 85.941 237.582 85.941 237.629 85.941 237.91 85.941 238.223 86.02 238.551 86.16 239.145 86.395 239.457 86.801 239.457 87.363 239.457 87.691 239.363 87.957 239.176 88.176 238.988 88.395 238.77 88.504 238.52 88.504 238.41 88.504 238.254 88.426 238.051 88.285 237.848 88.145 237.691 88.082 237.566 88.082ZM237.566 88.082" fill="#211e1e"/>
<path d="M287.723 126.836 288.145 125.211 288.598 124.883C288.691 125.148 288.785 125.383 288.863 125.586 288.957 125.789 289.035 125.977 289.098 126.102 289.27 126.461 289.395 126.695 289.488 126.789 289.582 126.883 289.691 126.93 289.816 126.93 290.004 126.93 290.16 126.852 290.316 126.695 290.457 126.539 290.613 126.289 290.801 125.945L290.66 125.852C290.551 126.055 290.457 126.211 290.395 126.273 290.301 126.398 290.207 126.461 290.129 126.461 290.035 126.461 289.926 126.367 289.832 126.18 289.738 125.992 289.504 125.414 289.113 124.477 289.832 123.836 290.285 123.461 290.473 123.336 290.645 123.195 290.848 123.133 291.082 123.117V122.977H289.426V123.117C289.629 123.133 289.77 123.133 289.832 123.148 289.895 123.18 289.926 123.211 289.926 123.289 289.926 123.398 289.801 123.555 289.566 123.773 289.332 123.977 288.895 124.336 288.238 124.852L289.426 120.742 289.41 120.695C289.395 120.695 289.285 120.711 289.113 120.758 288.941 120.805 288.832 120.82 288.816 120.82 288.723 120.836 288.613 120.852 288.441 120.883 288.301 120.898 288.129 120.93 287.957 120.945V121.086C288.207 121.07 288.363 121.086 288.441 121.117 288.52 121.133 288.551 121.227 288.551 121.352 288.551 121.383 288.551 121.414 288.551 121.43 288.551 121.461 288.535 121.477 288.535 121.508L287.051 126.836ZM287.723 126.836" fill="#211e1e"/>
<path d="M294.176 127.691C294.176 127.254 294.066 126.91 293.832 126.676 293.598 126.441 293.301 126.316 292.957 126.316 292.785 126.316 292.613 126.348 292.426 126.426 292.332 126.457 292.223 126.52 292.082 126.613 292.145 126.363 292.238 126.129 292.363 125.895 292.504 125.645 292.66 125.441 292.816 125.301 292.973 125.129 293.145 125.02 293.348 124.941 293.535 124.848 293.77 124.77 294.051 124.723L294.035 124.629C293.363 124.629 292.738 124.848 292.207 125.301 291.598 125.863 291.285 126.52 291.285 127.285 291.285 127.879 291.457 128.348 291.77 128.707 292.082 129.066 292.426 129.238 292.801 129.238 293.223 129.238 293.535 129.082 293.801 128.77 294.051 128.457 294.176 128.098 294.176 127.691ZM293.582 127.941C293.582 128.238 293.535 128.504 293.41 128.723 293.301 128.941 293.113 129.035 292.848 129.035 292.52 129.035 292.285 128.879 292.129 128.535 291.973 128.191 291.91 127.848 291.91 127.504 291.91 127.238 291.941 127.035 292.004 126.926 292.113 126.723 292.332 126.613 292.676 126.613 293.051 126.613 293.301 126.801 293.457 127.176 293.535 127.395 293.582 127.66 293.582 127.941ZM293.582 127.941" fill="#211e1e"/>
<path d="M341.723 86.336 342.145 84.711 342.598 84.383C342.691 84.648 342.785 84.883 342.863 85.086 342.957 85.289 343.035 85.477 343.098 85.602 343.27 85.961 343.395 86.195 343.488 86.289 343.582 86.383 343.691 86.43 343.816 86.43 344.004 86.43 344.16 86.352 344.316 86.195 344.457 86.039 344.613 85.789 344.801 85.445L344.66 85.352C344.551 85.555 344.457 85.711 344.395 85.773 344.301 85.898 344.207 85.961 344.129 85.961 344.035 85.961 343.926 85.867 343.832 85.68 343.738 85.492 343.504 84.914 343.113 83.977 343.832 83.336 344.285 82.961 344.473 82.836 344.645 82.695 344.848 82.633 345.082 82.617V82.477H343.426V82.617C343.629 82.633 343.77 82.633 343.832 82.648 343.895 82.68 343.926 82.711 343.926 82.789 343.926 82.898 343.801 83.055 343.566 83.273 343.332 83.477 342.895 83.836 342.238 84.352L343.426 80.242 343.41 80.195C343.395 80.195 343.285 80.211 343.113 80.258 342.941 80.305 342.832 80.32 342.816 80.32 342.723 80.336 342.613 80.352 342.441 80.383 342.301 80.398 342.129 80.43 341.957 80.445V80.586C342.207 80.57 342.363 80.586 342.441 80.617 342.52 80.633 342.551 80.727 342.551 80.852 342.551 80.883 342.551 80.914 342.551 80.93 342.551 80.961 342.535 80.977 342.535 81.008L341.051 86.336ZM341.723 86.336" fill="#211e1e"/>
<path d="M345.598 84.27C345.535 84.41 345.488 84.52 345.457 84.613 345.426 84.691 345.332 84.895 345.207 85.254L345.316 85.301C345.457 85.082 345.566 84.941 345.66 84.863 345.754 84.801 345.91 84.77 346.113 84.77H347.52L346.223 88.738H346.645L348.051 84.379V84.27ZM345.598 84.27" fill="#211e1e"/>
<path d="M233.723 126.836 234.145 125.211 234.598 124.883C234.691 125.148 234.785 125.383 234.863 125.586 234.957 125.789 235.035 125.977 235.098 126.102 235.27 126.461 235.395 126.695 235.488 126.789 235.582 126.883 235.691 126.93 235.816 126.93 236.004 126.93 236.16 126.852 236.316 126.695 236.457 126.539 236.613 126.289 236.801 125.945L236.66 125.852C236.551 126.055 236.457 126.211 236.395 126.273 236.301 126.398 236.207 126.461 236.129 126.461 236.035 126.461 235.926 126.367 235.832 126.18 235.738 125.992 235.504 125.414 235.113 124.477 235.832 123.836 236.285 123.461 236.473 123.336 236.645 123.195 236.848 123.133 237.082 123.117V122.977H235.426V123.117C235.629 123.133 235.77 123.133 235.832 123.148 235.895 123.18 235.926 123.211 235.926 123.289 235.926 123.398 235.801 123.555 235.566 123.773 235.332 123.977 234.895 124.336 234.238 124.852L235.426 120.742 235.41 120.695C235.395 120.695 235.285 120.711 235.113 120.758 234.941 120.805 234.832 120.82 234.816 120.82 234.723 120.836 234.613 120.852 234.441 120.883 234.301 120.898 234.129 120.93 233.957 120.945V121.086C234.207 121.07 234.363 121.086 234.441 121.117 234.52 121.133 234.551 121.227 234.551 121.352 234.551 121.383 234.551 121.414 234.551 121.43 234.551 121.461 234.535 121.477 234.535 121.508L233.051 126.836ZM233.723 126.836" fill="#211e1e"/>
<path d="M238.738 129.051C238.504 129.051 238.301 128.973 238.145 128.801 238.004 128.613 237.926 128.379 237.926 128.098 237.926 127.91 237.973 127.738 238.051 127.551 238.145 127.363 238.27 127.207 238.457 127.098 238.879 127.395 239.16 127.613 239.285 127.754 239.426 127.91 239.488 128.098 239.488 128.332 239.488 128.535 239.426 128.707 239.301 128.848 239.176 128.988 238.988 129.051 238.738 129.051ZM238.77 126.582C238.535 126.426 238.332 126.27 238.176 126.098 238.02 125.926 237.941 125.723 237.941 125.535 237.941 125.348 238.004 125.191 238.145 125.066 238.27 124.941 238.441 124.879 238.645 124.879 238.895 124.879 239.082 124.957 239.207 125.098 239.332 125.238 239.41 125.41 239.41 125.629 239.41 125.848 239.332 126.051 239.207 126.223 239.129 126.316 238.988 126.441 238.77 126.582ZM238.285 126.957C237.988 127.145 237.801 127.316 237.676 127.441 237.504 127.66 237.426 127.895 237.426 128.176 237.426 128.504 237.551 128.754 237.801 128.957 238.051 129.145 238.348 129.238 238.707 129.238 239.098 129.238 239.41 129.129 239.645 128.926 239.879 128.707 240.004 128.457 240.004 128.145 240.004 127.863 239.926 127.629 239.77 127.426 239.598 127.223 239.332 126.988 238.973 126.707 239.238 126.566 239.441 126.426 239.566 126.316 239.77 126.113 239.879 125.895 239.879 125.629 239.879 125.395 239.77 125.176 239.566 124.973 239.363 124.785 239.082 124.691 238.738 124.691 238.363 124.691 238.051 124.801 237.816 124.988 237.566 125.191 237.457 125.441 237.457 125.723 237.457 125.973 237.535 126.207 237.691 126.41 237.801 126.551 237.988 126.723 238.285 126.957ZM238.285 126.957" fill="#211e1e"/>
<path d="M226.086 26.395H226.461V26.77L219.801 33.43H219.426V33.055" fill="#211e1e"/>
<path d="M226.086 80.395H226.461V80.77L219.801 87.43H219.426V87.055" fill="#211e1e"/>
<path d="M226.086 107.395H226.461V107.77L219.801 114.43H219.426V114.055" fill="#211e1e"/>
<path d="M226.086 120.895H226.461V121.27L219.801 127.93H219.426V127.555" fill="#211e1e"/>
<path d="M256.688 33.238 262.988 31.258 261.008 33.238 262.988 35.215 256.688 33.238" fill="#211e1e" fill-rule="evenodd"/>
<path transform="matrix(1,0,0,-1,0,0)" stroke-width=".374" stroke-linecap="butt" stroke-miterlimit="10" stroke-linejoin="miter" fill="none" stroke="#211e1e" d="M260.828-33.242H277.223"/>
<path d="M256.688 87.238 262.988 85.258 261.008 87.238 262.988 89.215 256.688 87.238" fill="#211e1e" fill-rule="evenodd"/>
<path transform="matrix(1,0,0,-1,0,0)" stroke-width=".374" stroke-linecap="butt" stroke-miterlimit="10" stroke-linejoin="miter" fill="none" stroke="#211e1e" d="M260.828-87.242H277.223"/>
<path d="M256.688 127.738 262.988 125.758 261.008 127.738 262.988 129.715 256.688 127.738" fill="#211e1e" fill-rule="evenodd"/>
<path transform="matrix(1,0,0,-1,0,0)" stroke-width=".374" stroke-linecap="butt" stroke-miterlimit="10" stroke-linejoin="miter" fill="none" stroke="#211e1e" d="M260.828-127.742H277.223"/>
<path d="M310.688 87.238 316.988 85.258 315.008 87.238 316.988 89.215 310.688 87.238" fill="#211e1e" fill-rule="evenodd"/>
<path transform="matrix(1,0,0,-1,0,0)" stroke-width=".374" stroke-linecap="butt" stroke-miterlimit="10" stroke-linejoin="miter" fill="none" stroke="#211e1e" d="M314.828-87.242H331.223"/>
</g>
</svg>
