<svg xmlns="http://www.w3.org/2000/svg" xmlns:xlink="http://www.w3.org/1999/xlink" xmlns:inkscape="http://www.inkscape.org/namespaces/inkscape" version="1.1" width="155.78142" height="93.37641" viewBox="0 0 155.78142 93.37641">
<g>
<path d="M72.395 9.66 59.98 18.719" fill="#bd2317"/>
<path d="M60.258 18.52 61.551 19.055 61.531 19.102 59.5 19.625C58.863 19.906 58.223 20.188 57.586 20.465L58.969 18.902 60.09 17.125 60.133 17.117" fill="#bd2317"/>
<path transform="matrix(1,0,0,-1,0,0)" stroke-width=".503" stroke-linecap="butt" stroke-miterlimit="4" stroke-linejoin="miter" fill="none" stroke="#bd2317" d="M72.395-9.66 59.98-18.719"/>
<path d="M60.117 18.617 60.766 18.887 60.758 18.91 59.742 19.172C59.422 19.313 59.102 19.453 58.785 19.59 59.016 19.332 59.246 19.07 59.477 18.809L60.035 17.922 60.059 17.918" fill="#bd2317"/>
<path d="M77.762 43.879 65.348 52.938" fill="#bd2317"/>
<path d="M65.625 52.738 66.918 53.277 66.898 53.32 64.867 53.848C64.23 54.125 63.59 54.406 62.953 54.688 63.414 54.164 63.875 53.645 64.336 53.121L65.457 51.344 65.5 51.336" fill="#bd2317"/>
<path transform="matrix(1,0,0,-1,0,0)" stroke-width=".503" stroke-linecap="butt" stroke-miterlimit="4" stroke-linejoin="miter" fill="none" stroke="#bd2317" d="M77.762-43.879 65.348-52.938"/>
<path d="M65.488 52.836 66.133 53.105 66.125 53.129 65.109 53.391C64.789 53.531 64.473 53.672 64.152 53.813 64.383 53.551 64.613 53.289 64.844 53.027L65.402 52.141 65.426 52.137" fill="#bd2317"/>
<path d="M12.715 24.086C12.715 24.668 12.242 25.141 11.66 25.141 11.078 25.141 10.605 24.668 10.605 24.086 10.605 23.504 11.078 23.031 11.66 23.031 12.242 23.031 12.715 23.504 12.715 24.086" fill="#211e1e"/>
<path d="M20.949 24.086C20.949 24.668 20.477 25.141 19.895 25.141 19.313 25.141 18.84 24.668 18.84 24.086 18.84 23.504 19.313 23.031 19.895 23.031 20.477 23.031 20.949 23.504 20.949 24.086" fill="#211e1e"/>
<path d="M23.695 24.086C23.695 24.668 23.223 25.141 22.641 25.141 22.059 25.141 21.586 24.668 21.586 24.086 21.586 23.504 22.059 23.031 22.641 23.031 23.223 23.031 23.695 23.504 23.695 24.086" fill="#211e1e"/>
<path d="M37.418 24.086C37.418 24.668 36.945 25.141 36.363 25.141 35.781 25.141 35.309 24.668 35.309 24.086 35.309 23.504 35.781 23.031 36.363 23.031 36.945 23.031 37.418 23.504 37.418 24.086" fill="#211e1e"/>
<path d="M40.164 24.086C40.164 24.668 39.691 25.141 39.109 25.141 38.527 25.141 38.055 24.668 38.055 24.086 38.055 23.504 38.527 23.031 39.109 23.031 39.691 23.031 40.164 23.504 40.164 24.086" fill="#211e1e"/>
<path d="M42.906 24.086C42.906 24.668 42.434 25.141 41.852 25.141 41.273 25.141 40.801 24.668 40.801 24.086 40.801 23.504 41.273 23.031 41.852 23.031 42.434 23.031 42.906 23.504 42.906 24.086" fill="#211e1e"/>
<path d="M45.652 24.086C45.652 24.668 45.18 25.141 44.598 25.141 44.016 25.141 43.543 24.668 43.543 24.086 43.543 23.504 44.016 23.031 44.598 23.031 45.18 23.031 45.652 23.504 45.652 24.086" fill="#211e1e"/>
<path d="M48.398 24.086C48.398 24.668 47.926 25.141 47.344 25.141 46.762 25.141 46.289 24.668 46.289 24.086 46.289 23.504 46.762 23.031 47.344 23.031 47.926 23.031 48.398 23.504 48.398 24.086" fill="#211e1e"/>
<path d="M51.141 24.086C51.141 24.668 50.668 25.141 50.086 25.141 49.504 25.141 49.031 24.668 49.031 24.086 49.031 23.504 49.504 23.031 50.086 23.031 50.668 23.031 51.141 23.504 51.141 24.086" fill="#211e1e"/>
<path d="M53.887 24.086C53.887 24.668 53.418 25.141 52.832 25.141 52.254 25.141 51.777 24.668 51.777 24.086 51.777 23.504 52.254 23.031 52.832 23.031 53.418 23.031 53.887 23.504 53.887 24.086" fill="#211e1e"/>
<path d="M56.633 24.086C56.633 24.668 56.16 25.141 55.578 25.141 54.996 25.141 54.523 24.668 54.523 24.086 54.523 23.504 54.996 23.031 55.578 23.031 56.16 23.031 56.633 23.504 56.633 24.086" fill="#211e1e"/>
<path d="M59.379 24.086C59.379 24.668 58.906 25.141 58.32 25.141 57.742 25.141 57.27 24.668 57.27 24.086 57.27 23.504 57.742 23.031 58.32 23.031 58.906 23.031 59.379 23.504 59.379 24.086" fill="#211e1e"/>
<path d="M65.199 24.086C65.199 24.668 64.73 25.141 64.148 25.141 63.566 25.141 63.094 24.668 63.094 24.086 63.094 23.504 63.566 23.031 64.148 23.031 64.73 23.031 65.199 23.504 65.199 24.086" fill="#211e1e"/>
<path d="M67.945 24.086C67.945 24.668 67.473 25.141 66.891 25.141 66.309 25.141 65.836 24.668 65.836 24.086 65.836 23.504 66.309 23.031 66.891 23.031 67.473 23.031 67.945 23.504 67.945 24.086" fill="#211e1e"/>
<path d="M70.691 24.086C70.691 24.668 70.219 25.141 69.637 25.141 69.055 25.141 68.582 24.668 68.582 24.086 68.582 23.504 69.055 23.031 69.637 23.031 70.219 23.031 70.691 23.504 70.691 24.086" fill="#211e1e"/>
<path d="M73.438 24.086C73.438 24.668 72.965 25.141 72.383 25.141 71.801 25.141 71.328 24.668 71.328 24.086 71.328 23.504 71.801 23.031 72.383 23.031 72.965 23.031 73.438 23.504 73.438 24.086" fill="#211e1e"/>
<path d="M76.18 24.086C76.18 24.668 75.711 25.141 75.129 25.141 74.547 25.141 74.07 24.668 74.07 24.086 74.07 23.504 74.547 23.031 75.129 23.031 75.711 23.031 76.18 23.504 76.18 24.086" fill="#211e1e"/>
<path d="M78.926 24.086C78.926 24.668 78.453 25.141 77.871 25.141 77.289 25.141 76.816 24.668 76.816 24.086 76.816 23.504 77.289 23.031 77.871 23.031 78.453 23.031 78.926 23.504 78.926 24.086" fill="#211e1e"/>
<path d="M81.672 24.086C81.672 24.668 81.199 25.141 80.617 25.141 80.035 25.141 79.563 24.668 79.563 24.086 79.563 23.504 80.035 23.031 80.617 23.031 81.199 23.031 81.672 23.504 81.672 24.086" fill="#211e1e"/>
<path d="M84.414 24.086C84.414 24.668 83.941 25.141 83.359 25.141 82.781 25.141 82.309 24.668 82.309 24.086 82.309 23.504 82.781 23.031 83.359 23.031 83.941 23.031 84.414 23.504 84.414 24.086" fill="#211e1e"/>
<path d="M87.16 24.086C87.16 24.668 86.688 25.141 86.105 25.141 85.523 25.141 85.051 24.668 85.051 24.086 85.051 23.504 85.523 23.031 86.105 23.031 86.688 23.031 87.16 23.504 87.16 24.086" fill="#211e1e"/>
<path d="M89.906 24.086C89.906 24.668 89.434 25.141 88.852 25.141 88.27 25.141 87.797 24.668 87.797 24.086 87.797 23.504 88.27 23.031 88.852 23.031 89.434 23.031 89.906 23.504 89.906 24.086" fill="#211e1e"/>
<path d="M92.648 24.086C92.648 24.668 92.18 25.141 91.598 25.141 91.016 25.141 90.543 24.668 90.543 24.086 90.543 23.504 91.016 23.031 91.598 23.031 92.18 23.031 92.648 23.504 92.648 24.086" fill="#211e1e"/>
<path d="M95.395 24.086C95.395 24.668 94.922 25.141 94.34 25.141 93.758 25.141 93.285 24.668 93.285 24.086 93.285 23.504 93.758 23.031 94.34 23.031 94.922 23.031 95.395 23.504 95.395 24.086" fill="#211e1e"/>
<path d="M98.141 24.086C98.141 24.668 97.668 25.141 97.086 25.141 96.504 25.141 96.031 24.668 96.031 24.086 96.031 23.504 96.504 23.031 97.086 23.031 97.668 23.031 98.141 23.504 98.141 24.086" fill="#211e1e"/>
<path d="M103.629 24.086C103.629 24.668 103.156 25.141 102.574 25.141 101.992 25.141 101.52 24.668 101.52 24.086 101.52 23.504 101.992 23.031 102.574 23.031 103.156 23.031 103.629 23.504 103.629 24.086" fill="#211e1e"/>
<path d="M111.863 24.086C111.863 24.668 111.395 25.141 110.809 25.141 110.227 25.141 109.754 24.668 109.754 24.086 109.754 23.504 110.227 23.031 110.809 23.031 111.395 23.031 111.863 23.504 111.863 24.086" fill="#211e1e"/>
<path d="M117.355 24.086C117.355 24.668 116.883 25.141 116.301 25.141 115.719 25.141 115.246 24.668 115.246 24.086 115.246 23.504 115.719 23.031 116.301 23.031 116.883 23.031 117.355 23.504 117.355 24.086" fill="#211e1e"/>
<path d="M125.586 24.086C125.586 24.668 125.113 25.141 124.531 25.141 123.953 25.141 123.48 24.668 123.48 24.086 123.48 23.504 123.953 23.031 124.531 23.031 125.113 23.031 125.586 23.504 125.586 24.086" fill="#211e1e"/>
<path d="M133.824 24.086C133.824 24.668 133.352 25.141 132.77 25.141 132.188 25.141 131.715 24.668 131.715 24.086 131.715 23.504 132.188 23.031 132.77 23.031 133.352 23.031 133.824 23.504 133.824 24.086" fill="#211e1e"/>
<path d="M139.313 24.086C139.313 24.668 138.84 25.141 138.258 25.141 137.676 25.141 137.203 24.668 137.203 24.086 137.203 23.504 137.676 23.031 138.258 23.031 138.84 23.031 139.313 23.504 139.313 24.086" fill="#211e1e"/>
<path d="M142.059 24.086C142.059 24.668 141.586 25.141 141.004 25.141 140.422 25.141 139.949 24.668 139.949 24.086 139.949 23.504 140.422 23.031 141.004 23.031 141.586 23.031 142.059 23.504 142.059 24.086" fill="#211e1e"/>
<path d="M155.781 24.086C155.781 24.668 155.309 25.141 154.727 25.141 154.145 25.141 153.672 24.668 153.672 24.086 153.672 23.504 154.145 23.031 154.727 23.031 155.309 23.031 155.781 23.504 155.781 24.086" fill="#211e1e"/>
<path d="M62.523 55.91C62.523 56.57 61.984 57.105 61.324 57.105 60.664 57.105 60.129 56.57 60.129 55.91 60.129 55.25 60.664 54.711 61.324 54.711 61.984 54.711 62.523 55.25 62.523 55.91" fill="#bd2317"/>
<path d="M12.715 55.957C12.715 56.539 12.242 57.012 11.66 57.012 11.078 57.012 10.605 56.539 10.605 55.957 10.605 55.375 11.078 54.902 11.66 54.902 12.242 54.902 12.715 55.375 12.715 55.957" fill="#211e1e"/>
<path d="M20.949 55.957C20.949 56.539 20.477 57.012 19.895 57.012 19.313 57.012 18.84 56.539 18.84 55.957 18.84 55.375 19.313 54.902 19.895 54.902 20.477 54.902 20.949 55.375 20.949 55.957" fill="#211e1e"/>
<path d="M23.695 55.957C23.695 56.539 23.223 57.012 22.641 57.012 22.059 57.012 21.586 56.539 21.586 55.957 21.586 55.375 22.059 54.902 22.641 54.902 23.223 54.902 23.695 55.375 23.695 55.957" fill="#211e1e"/>
<path d="M37.418 55.957C37.418 56.539 36.945 57.012 36.363 57.012 35.781 57.012 35.309 56.539 35.309 55.957 35.309 55.375 35.781 54.902 36.363 54.902 36.945 54.902 37.418 55.375 37.418 55.957" fill="#211e1e"/>
<path d="M40.164 55.957C40.164 56.539 39.691 57.012 39.109 57.012 38.527 57.012 38.055 56.539 38.055 55.957 38.055 55.375 38.527 54.902 39.109 54.902 39.691 54.902 40.164 55.375 40.164 55.957" fill="#211e1e"/>
<path d="M42.906 55.957C42.906 56.539 42.434 57.012 41.852 57.012 41.273 57.012 40.801 56.539 40.801 55.957 40.801 55.375 41.273 54.902 41.852 54.902 42.434 54.902 42.906 55.375 42.906 55.957" fill="#211e1e"/>
<path d="M45.652 55.957C45.652 56.539 45.18 57.012 44.598 57.012 44.016 57.012 43.543 56.539 43.543 55.957 43.543 55.375 44.016 54.902 44.598 54.902 45.18 54.902 45.652 55.375 45.652 55.957" fill="#211e1e"/>
<path d="M48.398 55.957C48.398 56.539 47.926 57.012 47.344 57.012 46.762 57.012 46.289 56.539 46.289 55.957 46.289 55.375 46.762 54.902 47.344 54.902 47.926 54.902 48.398 55.375 48.398 55.957" fill="#211e1e"/>
<path d="M51.141 55.957C51.141 56.539 50.668 57.012 50.086 57.012 49.504 57.012 49.031 56.539 49.031 55.957 49.031 55.375 49.504 54.902 50.086 54.902 50.668 54.902 51.141 55.375 51.141 55.957" fill="#211e1e"/>
<path d="M53.887 55.957C53.887 56.539 53.418 57.012 52.832 57.012 52.254 57.012 51.777 56.539 51.777 55.957 51.777 55.375 52.254 54.902 52.832 54.902 53.418 54.902 53.887 55.375 53.887 55.957" fill="#211e1e"/>
<path d="M56.633 55.957C56.633 56.539 56.16 57.012 55.578 57.012 54.996 57.012 54.523 56.539 54.523 55.957 54.523 55.375 54.996 54.902 55.578 54.902 56.16 54.902 56.633 55.375 56.633 55.957" fill="#211e1e"/>
<path d="M59.379 55.957C59.379 56.539 58.906 57.012 58.32 57.012 57.742 57.012 57.27 56.539 57.27 55.957 57.27 55.375 57.742 54.902 58.32 54.902 58.906 54.902 59.379 55.375 59.379 55.957" fill="#211e1e"/>
<path d="M65.199 55.957C65.199 56.539 64.73 57.012 64.148 57.012 63.566 57.012 63.094 56.539 63.094 55.957 63.094 55.375 63.566 54.902 64.148 54.902 64.73 54.902 65.199 55.375 65.199 55.957" fill="#211e1e"/>
<path d="M67.945 55.957C67.945 56.539 67.473 57.012 66.891 57.012 66.309 57.012 65.836 56.539 65.836 55.957 65.836 55.375 66.309 54.902 66.891 54.902 67.473 54.902 67.945 55.375 67.945 55.957" fill="#211e1e"/>
<path d="M70.691 55.957C70.691 56.539 70.219 57.012 69.637 57.012 69.055 57.012 68.582 56.539 68.582 55.957 68.582 55.375 69.055 54.902 69.637 54.902 70.219 54.902 70.691 55.375 70.691 55.957" fill="#211e1e"/>
<path d="M73.438 55.957C73.438 56.539 72.965 57.012 72.383 57.012 71.801 57.012 71.328 56.539 71.328 55.957 71.328 55.375 71.801 54.902 72.383 54.902 72.965 54.902 73.438 55.375 73.438 55.957" fill="#211e1e"/>
<path d="M76.18 55.957C76.18 56.539 75.711 57.012 75.129 57.012 74.547 57.012 74.07 56.539 74.07 55.957 74.07 55.375 74.547 54.902 75.129 54.902 75.711 54.902 76.18 55.375 76.18 55.957" fill="#211e1e"/>
<path d="M78.926 55.957C78.926 56.539 78.453 57.012 77.871 57.012 77.289 57.012 76.816 56.539 76.816 55.957 76.816 55.375 77.289 54.902 77.871 54.902 78.453 54.902 78.926 55.375 78.926 55.957" fill="#211e1e"/>
<path d="M81.672 55.957C81.672 56.539 81.199 57.012 80.617 57.012 80.035 57.012 79.563 56.539 79.563 55.957 79.563 55.375 80.035 54.902 80.617 54.902 81.199 54.902 81.672 55.375 81.672 55.957" fill="#211e1e"/>
<path d="M84.414 55.957C84.414 56.539 83.941 57.012 83.359 57.012 82.781 57.012 82.309 56.539 82.309 55.957 82.309 55.375 82.781 54.902 83.359 54.902 83.941 54.902 84.414 55.375 84.414 55.957" fill="#211e1e"/>
<path d="M87.16 55.957C87.16 56.539 86.688 57.012 86.105 57.012 85.523 57.012 85.051 56.539 85.051 55.957 85.051 55.375 85.523 54.902 86.105 54.902 86.688 54.902 87.16 55.375 87.16 55.957" fill="#211e1e"/>
<path d="M89.906 55.957C89.906 56.539 89.434 57.012 88.852 57.012 88.27 57.012 87.797 56.539 87.797 55.957 87.797 55.375 88.27 54.902 88.852 54.902 89.434 54.902 89.906 55.375 89.906 55.957" fill="#211e1e"/>
<path d="M92.648 55.957C92.648 56.539 92.18 57.012 91.598 57.012 91.016 57.012 90.543 56.539 90.543 55.957 90.543 55.375 91.016 54.902 91.598 54.902 92.18 54.902 92.648 55.375 92.648 55.957" fill="#211e1e"/>
<path d="M95.395 55.957C95.395 56.539 94.922 57.012 94.34 57.012 93.758 57.012 93.285 56.539 93.285 55.957 93.285 55.375 93.758 54.902 94.34 54.902 94.922 54.902 95.395 55.375 95.395 55.957" fill="#211e1e"/>
<path d="M98.141 55.957C98.141 56.539 97.668 57.012 97.086 57.012 96.504 57.012 96.031 56.539 96.031 55.957 96.031 55.375 96.504 54.902 97.086 54.902 97.668 54.902 98.141 55.375 98.141 55.957" fill="#211e1e"/>
<path d="M103.629 55.957C103.629 56.539 103.156 57.012 102.574 57.012 101.992 57.012 101.52 56.539 101.52 55.957 101.52 55.375 101.992 54.902 102.574 54.902 103.156 54.902 103.629 55.375 103.629 55.957" fill="#211e1e"/>
<path d="M111.863 55.957C111.863 56.539 111.395 57.012 110.809 57.012 110.227 57.012 109.754 56.539 109.754 55.957 109.754 55.375 110.227 54.902 110.809 54.902 111.395 54.902 111.863 55.375 111.863 55.957" fill="#211e1e"/>
<path d="M117.355 55.957C117.355 56.539 116.883 57.012 116.301 57.012 115.719 57.012 115.246 56.539 115.246 55.957 115.246 55.375 115.719 54.902 116.301 54.902 116.883 54.902 117.355 55.375 117.355 55.957" fill="#211e1e"/>
<path d="M125.586 55.957C125.586 56.539 125.113 57.012 124.531 57.012 123.953 57.012 123.48 56.539 123.48 55.957 123.48 55.375 123.953 54.902 124.531 54.902 125.113 54.902 125.586 55.375 125.586 55.957" fill="#211e1e"/>
<path d="M133.824 55.957C133.824 56.539 133.352 57.012 132.77 57.012 132.188 57.012 131.715 56.539 131.715 55.957 131.715 55.375 132.188 54.902 132.77 54.902 133.352 54.902 133.824 55.375 133.824 55.957" fill="#211e1e"/>
<path d="M139.313 55.957C139.313 56.539 138.84 57.012 138.258 57.012 137.676 57.012 137.203 56.539 137.203 55.957 137.203 55.375 137.676 54.902 138.258 54.902 138.84 54.902 139.313 55.375 139.313 55.957" fill="#211e1e"/>
<path d="M142.059 55.957C142.059 56.539 141.586 57.012 141.004 57.012 140.422 57.012 139.949 56.539 139.949 55.957 139.949 55.375 140.422 54.902 141.004 54.902 141.586 54.902 142.059 55.375 142.059 55.957" fill="#211e1e"/>
<path d="M155.781 55.957C155.781 56.539 155.309 57.012 154.727 57.012 154.145 57.012 153.672 56.539 153.672 55.957 153.672 55.375 154.145 54.902 154.727 54.902 155.309 54.902 155.781 55.375 155.781 55.957" fill="#211e1e"/>
<path d="M69.699 5.844C69.934 5.844 70.387 5.766 70.824 5.594 71.918 5.141 72.715 4.016 72.715 2.609 72.715 1.516 72.137 .594 71.121 .594 70.074 .594 69.496 1.531 69.496 2.281 69.496 3.125 70.027 3.75 70.902 3.75 71.074 3.75 71.23 3.719 71.402 3.625L71.965 3.313C71.684 4.625 70.887 5.406 69.668 5.672ZM71.012 .844C71.824 .844 72.012 1.922 72.012 2.594 72.012 2.734 71.996 2.938 71.98 3.078 71.809 3.203 71.496 3.313 71.215 3.313 70.543 3.313 70.152 2.734 70.152 1.984 70.152 1.531 70.34 .844 71.012 .844ZM71.012 .844" fill="#bd2317"/>
<path d="M73.441 6.078 76.082 .375H75.598L72.957 6.078ZM73.441 6.078" fill="#bd2317"/>
<path d="M79 .547C78.672 .609 78.266 .703 77.969 .813 77.141 1.125 75.922 2.031 75.922 3.813 75.922 5.063 76.641 5.813 77.531 5.813 78.516 5.813 79.188 5 79.188 4.047 79.188 3.234 78.609 2.563 77.734 2.563 77.563 2.563 77.406 2.609 77.25 2.688L76.719 2.953C76.938 1.828 77.656 1.281 78.156 1.031 78.469 .891 78.781 .797 79.047 .75ZM77.672 5.578C77.016 5.578 76.625 4.828 76.625 3.875 76.625 3.563 76.625 3.359 76.672 3.188 76.859 3.078 77.141 2.969 77.453 2.969 78.188 2.969 78.516 3.641 78.516 4.328 78.516 4.891 78.359 5.578 77.672 5.578ZM77.672 5.578" fill="#bd2317"/>
<path d="M79.664 4.297H81.711V5C81.711 5.438 81.664 5.484 80.945 5.531V5.719H83.008V5.531C82.367 5.484 82.32 5.438 82.32 5V4.297H83.102V3.922H82.32V.656H81.977C81.195 1.766 80.43 2.906 79.664 4.078ZM80.18 3.922C80.664 3.094 81.164 2.297 81.695 1.484H81.711V3.922ZM80.18 3.922" fill="#bd2317"/>
<path d="M87.816 4.813C87.582 5 87.191 5.359 86.738 5.359 86.332 5.359 86.176 5 86.176 4.516 86.176 3.969 86.332 3.359 86.582 2.969 86.754 2.672 86.973 2.484 87.207 2.484 87.426 2.484 87.629 2.625 87.77 2.813 87.848 2.922 87.957 2.891 88.051 2.828 88.191 2.734 88.27 2.609 88.27 2.484 88.27 2.328 88.035 2.125 87.738 2.125 87.207 2.125 86.707 2.406 86.379 2.703 85.816 3.203 85.52 4.063 85.52 4.703 85.52 5.406 85.848 5.813 86.332 5.813 86.676 5.813 87.41 5.531 87.941 4.969ZM87.816 4.813" fill="#bd2317"/>
<path d="M89.066 5.594C89.113 5.156 89.316 4.266 89.379 4.031 89.629 3.594 90.52 2.641 90.941 2.641 91.176 2.641 91.145 2.891 91.066 3.266L90.613 5.188C90.52 5.609 90.566 5.813 90.754 5.813 90.879 5.813 91.535 5.453 91.941 5.047L91.848 4.891C91.613 5.063 91.332 5.25 91.254 5.25 91.176 5.25 91.191 5.156 91.254 4.922L91.691 2.969C91.863 2.203 91.566 2.125 91.441 2.125 91.363 2.125 91.254 2.156 91.113 2.219 90.66 2.422 90.113 2.797 89.504 3.516H89.488L90.145 .344C90.191 .141 90.176 0 90.082 0 90.02 0 89.441 .203 88.832 .328V.484H89.27C89.52 .484 89.535 .531 89.457 .875L88.707 4.578C88.629 5 88.551 5.406 88.457 5.813ZM89.066 5.594" fill="#bd2317"/>
<path d="M94.5 5.344C94.422 5.734 94.578 5.813 94.672 5.813 94.797 5.813 95.453 5.453 95.859 5.047L95.781 4.891C95.531 5.063 95.25 5.281 95.172 5.281 95.094 5.281 95.109 5.156 95.156 4.922 95.313 4 95.516 3.094 95.688 2.266L95.641 2.234C95.563 2.234 95.438 2.203 95.328 2.188 95.172 2.156 95.031 2.125 94.906 2.125 94.406 2.125 93.75 2.438 93.344 2.813 92.828 3.25 92.453 4.141 92.453 4.969 92.453 5.656 92.75 5.813 92.922 5.813 93.047 5.813 93.453 5.547 93.594 5.438 93.984 5.109 94.359 4.734 94.703 4.313H94.719ZM94.484 2.469C94.75 2.469 94.906 2.516 95.031 2.563 95.016 2.859 94.828 3.688 94.719 3.906 94.594 4.156 94.297 4.484 94.109 4.703 93.797 5.031 93.453 5.281 93.328 5.281 93.172 5.281 93.109 5.063 93.109 4.75 93.109 4.469 93.172 3.906 93.406 3.422 93.641 2.891 93.906 2.672 94.141 2.547 94.234 2.5 94.359 2.469 94.484 2.469ZM94.484 2.469" fill="#bd2317"/>
<path d="M97.105 5.594C97.152 5.156 97.355 4.266 97.418 4.125 97.668 3.672 98.605 2.641 99.027 2.641 99.246 2.641 99.199 2.891 99.105 3.266L98.637 5.203C98.543 5.625 98.574 5.813 98.777 5.813 98.887 5.813 99.559 5.453 99.965 5.047L99.871 4.891C99.637 5.063 99.34 5.25 99.262 5.25 99.199 5.25 99.23 5.156 99.277 4.922 99.434 4.25 99.59 3.609 99.73 3.016 99.934 2.203 99.668 2.125 99.543 2.125 99.449 2.125 99.324 2.156 99.168 2.219 98.809 2.391 98.199 2.797 97.527 3.594H97.512L97.684 2.859C97.793 2.406 97.809 2.125 97.59 2.125 97.418 2.125 96.84 2.516 96.402 2.953L96.48 3.125C96.684 2.922 96.996 2.719 97.09 2.719 97.152 2.719 97.137 2.859 97.059 3.172L96.762 4.5C96.637 5.016 96.574 5.391 96.465 5.813ZM97.105 5.594" fill="#bd2317"/>
<path d="M102.836 4.813C102.602 5 102.211 5.359 101.758 5.359 101.352 5.359 101.195 5 101.195 4.516 101.195 3.969 101.352 3.359 101.602 2.969 101.773 2.672 101.992 2.484 102.227 2.484 102.445 2.484 102.648 2.625 102.789 2.813 102.867 2.922 102.977 2.891 103.07 2.828 103.211 2.734 103.289 2.609 103.289 2.484 103.289 2.328 103.055 2.125 102.758 2.125 102.227 2.125 101.727 2.406 101.398 2.703 100.836 3.203 100.539 4.063 100.539 4.703 100.539 5.406 100.867 5.813 101.352 5.813 101.695 5.813 102.43 5.531 102.961 4.969ZM102.836 4.813" fill="#bd2317"/>
<path d="M105.914 4.734C105.414 5.219 105.008 5.359 104.695 5.359 104.18 5.359 104.086 4.813 104.086 4.406 104.086 4.359 104.102 4.25 104.117 4.203 104.883 3.984 106.242 3.469 106.242 2.734 106.242 2.406 105.977 2.125 105.57 2.125 105.227 2.125 104.742 2.344 104.383 2.625 103.789 3.078 103.461 3.906 103.461 4.641 103.461 5.594 103.977 5.813 104.289 5.813 104.555 5.813 105.227 5.719 106.039 4.891ZM104.148 3.969C104.305 3.078 104.68 2.672 104.93 2.531 105.008 2.484 105.117 2.453 105.211 2.453 105.383 2.453 105.617 2.563 105.617 2.859 105.617 3.281 105.273 3.641 104.148 3.969ZM104.148 3.969" fill="#bd2317"/>
<path d="M110.441 2.125C110.238 2.125 109.91 2.219 109.582 2.422 109.02 2.75 108.426 3.5 108.426 4.625 108.426 5.188 108.691 5.813 109.441 5.813 109.785 5.813 110.301 5.578 110.629 5.281 111.16 4.797 111.473 3.969 111.473 3.25 111.473 2.578 111.129 2.125 110.441 2.125ZM109.066 4.438C109.066 3.234 109.676 2.594 109.926 2.484 110.004 2.453 110.113 2.422 110.191 2.422 110.598 2.422 110.832 2.734 110.832 3.359 110.848 4.406 110.301 5.344 109.957 5.469 109.895 5.484 109.785 5.516 109.707 5.516 109.254 5.516 109.066 5.031 109.066 4.438ZM109.066 4.438" fill="#bd2317"/>
<path d="M112.23 2.328 112.012 2.531 112.027 2.609H112.699C112.59 3.344 112.496 3.969 112.34 4.984 112.121 6.484 111.949 7.016 111.793 7.141 111.746 7.188 111.668 7.219 111.59 7.219 111.496 7.219 111.34 7.141 111.23 7.094 111.137 7.047 111.059 7.109 111.012 7.156 110.949 7.219 110.871 7.344 110.871 7.422 110.871 7.578 111.074 7.672 111.215 7.672 111.371 7.672 111.762 7.531 112.105 7.109 112.371 6.766 112.746 6 113.059 4.172 113.121 3.828 113.184 3.5 113.324 2.609L114.137 2.531 114.309 2.328H113.371C113.605 .828 113.809 .391 114.152 .391 114.402 .391 114.59 .484 114.777 .656 114.824 .703 114.918 .703 114.996 .641 115.059 .578 115.168 .453 115.168 .344 115.168 .188 114.949 0 114.684 0 114.215 0 113.715 .281 113.387 .688 113.074 1.063 112.855 1.672 112.746 2.328ZM112.23 2.328" fill="#bd2317"/>
<path d="M116.852 5.594C116.898 5.156 117.102 4.266 117.164 4.125 117.414 3.672 118.352 2.641 118.773 2.641 118.992 2.641 118.945 2.891 118.852 3.266L118.383 5.203C118.289 5.625 118.32 5.813 118.523 5.813 118.633 5.813 119.305 5.453 119.711 5.047L119.617 4.891C119.383 5.063 119.086 5.25 119.008 5.25 118.945 5.25 118.977 5.156 119.023 4.922 119.18 4.25 119.336 3.609 119.477 3.016 119.68 2.203 119.414 2.125 119.289 2.125 119.195 2.125 119.07 2.156 118.914 2.219 118.555 2.391 117.945 2.797 117.273 3.594H117.258L117.43 2.859C117.539 2.406 117.555 2.125 117.336 2.125 117.164 2.125 116.586 2.516 116.148 2.953L116.227 3.125C116.43 2.922 116.742 2.719 116.836 2.719 116.898 2.719 116.883 2.859 116.805 3.172L116.508 4.5C116.383 5.016 116.32 5.391 116.211 5.813ZM116.852 5.594" fill="#bd2317"/>
<path d="M122.742 4.734C122.242 5.219 121.836 5.359 121.523 5.359 121.008 5.359 120.914 4.813 120.914 4.406 120.914 4.359 120.93 4.25 120.945 4.203 121.711 3.984 123.07 3.469 123.07 2.734 123.07 2.406 122.805 2.125 122.398 2.125 122.055 2.125 121.57 2.344 121.211 2.625 120.617 3.078 120.289 3.906 120.289 4.641 120.289 5.594 120.805 5.813 121.117 5.813 121.383 5.813 122.055 5.719 122.867 4.891ZM120.977 3.969C121.133 3.078 121.508 2.672 121.758 2.531 121.836 2.484 121.945 2.453 122.039 2.453 122.211 2.453 122.445 2.563 122.445 2.859 122.445 3.281 122.102 3.641 120.977 3.969ZM120.977 3.969" fill="#bd2317"/>
<path d="M126.273 2.219C125.742 3.141 125.258 4.016 124.727 4.891H124.711C124.711 4.313 124.664 3.453 124.648 2.969 124.633 2.422 124.586 2.125 124.398 2.125 124.133 2.125 123.664 2.609 123.32 3L123.398 3.141C123.727 2.875 123.867 2.734 123.977 2.734 124.055 2.734 124.086 2.938 124.102 3.344 124.117 3.641 124.18 5.109 124.227 5.813H124.445C124.867 5.125 125.445 4.125 125.992 3.219H126.008C126.117 4.094 126.195 4.984 126.273 5.813H126.477C126.914 5.234 127.93 3.703 128.164 3.344 128.367 3.047 128.508 2.828 128.508 2.594 128.508 2.297 128.336 2.125 128.164 2.125 127.992 2.125 127.82 2.328 127.82 2.5 127.82 2.578 127.883 2.672 127.883 2.859 127.883 3.172 127.68 3.547 127.477 3.875 127.227 4.297 126.961 4.703 126.773 4.984H126.758C126.664 4.047 126.555 3.078 126.461 2.219ZM126.273 2.219" fill="#bd2317"/>
<path d="M133.664 5.047C133.492 5.25 133.336 5.313 133.242 5.313 133.148 5.313 133.07 5.234 132.945 5.047 132.742 4.703 132.383 3.859 132.227 3.375 132.508 3.094 132.727 2.938 132.93 2.813 133.086 2.719 133.242 2.688 133.367 2.688 133.508 2.688 133.57 2.688 133.617 2.703 133.727 2.734 133.898 2.469 133.898 2.359 133.898 2.266 133.82 2.125 133.539 2.125 133.227 2.125 132.586 2.703 132.07 3.25 131.914 3.422 131.758 3.594 131.57 3.828H131.555L132.305 .328C132.352 .141 132.352 0 132.273 0 132.195 0 131.633 .203 131.008 .328V.484H131.414C131.664 .484 131.68 .531 131.617 .875 131.367 2.063 131.117 3.313 130.836 4.563 130.742 4.984 130.664 5.406 130.57 5.813L131.195 5.594C131.211 5.406 131.273 5.031 131.383 4.594 131.445 4.266 131.508 4.156 131.82 3.828 132.023 4.359 132.211 4.859 132.414 5.281 132.617 5.734 132.805 5.813 132.977 5.813 133.133 5.813 133.414 5.688 133.789 5.172ZM133.664 5.047" fill="#bd2317"/>
<path d="M136.625 4.734C136.125 5.219 135.719 5.359 135.406 5.359 134.891 5.359 134.797 4.813 134.797 4.406 134.797 4.359 134.813 4.25 134.828 4.203 135.594 3.984 136.953 3.469 136.953 2.734 136.953 2.406 136.688 2.125 136.281 2.125 135.938 2.125 135.453 2.344 135.094 2.625 134.5 3.078 134.172 3.906 134.172 4.641 134.172 5.594 134.688 5.813 135 5.813 135.266 5.813 135.938 5.719 136.75 4.891ZM134.859 3.969C135.016 3.078 135.391 2.672 135.641 2.531 135.719 2.484 135.828 2.453 135.922 2.453 136.094 2.453 136.328 2.563 136.328 2.859 136.328 3.281 135.984 3.641 134.859 3.969ZM134.859 3.969" fill="#bd2317"/>
<path d="M140.344 2.125C140.141 2.125 139.938 2.328 139.938 2.516 139.953 2.578 140.047 2.656 140.031 2.891 139.984 3.156 139.813 3.453 139.594 3.859 139.328 4.297 139.063 4.688 138.813 5.078H138.797C138.781 4.266 138.703 3.438 138.688 2.969 138.641 2.422 138.578 2.125 138.422 2.125 138.141 2.125 137.672 2.625 137.313 3L137.391 3.141C137.719 2.875 137.875 2.734 137.969 2.734 138.078 2.734 138.094 2.969 138.156 3.344 138.188 3.625 138.313 5.172 138.297 5.734 137.922 6.313 137.469 6.875 136.672 7.547L136.75 7.672 137.547 7.375C137.938 6.875 138.219 6.422 138.656 5.734 139.016 5.188 139.984 3.719 140.234 3.359 140.516 2.984 140.688 2.719 140.688 2.547 140.672 2.297 140.516 2.125 140.344 2.125ZM140.344 2.125" fill="#bd2317"/>
<path d="M77.934 13.645C77.98 13.207 78.184 12.316 78.246 12.082 78.496 11.645 79.387 10.691 79.809 10.691 80.043 10.691 80.012 10.941 79.934 11.316L79.48 13.238C79.387 13.66 79.434 13.863 79.621 13.863 79.746 13.863 80.402 13.504 80.809 13.098L80.715 12.941C80.48 13.113 80.199 13.301 80.121 13.301 80.043 13.301 80.059 13.207 80.121 12.973L80.559 11.02C80.73 10.254 80.434 10.176 80.309 10.176 80.23 10.176 80.121 10.207 79.98 10.27 79.527 10.473 78.98 10.848 78.371 11.566H78.355L79.012 8.395C79.059 8.191 79.043 8.051 78.949 8.051 78.887 8.051 78.309 8.254 77.699 8.379V8.535H78.137C78.387 8.535 78.402 8.582 78.324 8.926L77.574 12.629C77.496 13.051 77.418 13.457 77.324 13.863ZM77.934 13.645" fill="#bd2317"/>
<path d="M82.945 12.832C82.68 13.051 82.352 13.27 82.273 13.27 82.211 13.27 82.227 13.176 82.273 12.988L82.82 10.77C82.883 10.457 82.977 10.176 82.758 10.176 82.57 10.176 81.867 10.566 81.398 11.004L81.492 11.176C81.68 10.988 82.07 10.77 82.164 10.77 82.227 10.77 82.227 10.848 82.148 11.145L81.617 13.379C81.508 13.77 81.633 13.863 81.758 13.863 82.008 13.863 82.789 13.254 83.039 13.004ZM82.742 9.082C82.992 9.082 83.164 8.863 83.164 8.613 83.148 8.457 83.055 8.285 82.82 8.285 82.523 8.285 82.367 8.551 82.383 8.77 82.398 8.957 82.523 9.082 82.742 9.082ZM82.742 9.082" fill="#bd2317"/>
<path d="M85.266 12.785C85.078 12.941 84.703 13.332 84.516 13.332 84.438 13.332 84.406 13.145 84.484 12.785L84.953 10.66 85.813 10.629 86.047 10.379H85.016L85.266 9.332 85.203 9.285 84.609 9.77 84.453 10.379H83.906L83.672 10.566 83.734 10.66H84.375L83.875 12.973C83.734 13.582 83.891 13.863 84.047 13.863 84.422 13.863 85.141 13.223 85.406 12.879ZM85.266 12.785" fill="#bd2317"/>
<path d="M87.676 12.785C87.488 12.941 87.113 13.332 86.926 13.332 86.848 13.332 86.816 13.145 86.895 12.785L87.363 10.66 88.223 10.629 88.457 10.379H87.426L87.676 9.332 87.613 9.285 87.02 9.77 86.863 10.379H86.316L86.082 10.566 86.145 10.66H86.785L86.285 12.973C86.145 13.582 86.301 13.863 86.457 13.863 86.832 13.863 87.551 13.223 87.816 12.879ZM87.676 12.785" fill="#bd2317"/>
<path d="M90.012 12.832C89.746 13.051 89.418 13.27 89.34 13.27 89.277 13.27 89.293 13.176 89.34 12.988L89.887 10.77C89.949 10.457 90.043 10.176 89.824 10.176 89.637 10.176 88.934 10.566 88.465 11.004L88.559 11.176C88.746 10.988 89.137 10.77 89.23 10.77 89.293 10.77 89.293 10.848 89.215 11.145L88.684 13.379C88.574 13.77 88.699 13.863 88.824 13.863 89.074 13.863 89.855 13.254 90.105 13.004ZM89.809 9.082C90.059 9.082 90.23 8.863 90.23 8.613 90.215 8.457 90.121 8.285 89.887 8.285 89.59 8.285 89.434 8.551 89.449 8.77 89.465 8.957 89.59 9.082 89.809 9.082ZM89.809 9.082" fill="#bd2317"/>
<path d="M91.398 13.645C91.445 13.207 91.648 12.316 91.711 12.176 91.961 11.723 92.898 10.691 93.32 10.691 93.539 10.691 93.492 10.941 93.398 11.316L92.93 13.254C92.836 13.676 92.867 13.863 93.07 13.863 93.18 13.863 93.852 13.504 94.258 13.098L94.164 12.941C93.93 13.113 93.633 13.301 93.555 13.301 93.492 13.301 93.523 13.207 93.57 12.973 93.727 12.301 93.883 11.66 94.023 11.066 94.227 10.254 93.961 10.176 93.836 10.176 93.742 10.176 93.617 10.207 93.461 10.27 93.102 10.441 92.492 10.848 91.82 11.645H91.805L91.977 10.91C92.086 10.457 92.102 10.176 91.883 10.176 91.711 10.176 91.133 10.566 90.695 11.004L90.773 11.176C90.977 10.973 91.289 10.77 91.383 10.77 91.445 10.77 91.43 10.91 91.352 11.223L91.055 12.551C90.93 13.066 90.867 13.441 90.758 13.863ZM91.398 13.645" fill="#bd2317"/>
<path d="M95.578 11.723C95.578 11.41 95.656 11.113 95.797 10.863 95.969 10.598 96.172 10.457 96.391 10.457 96.797 10.457 96.969 10.785 96.969 11.238 96.969 12.004 96.469 12.52 96.094 12.52 95.813 12.52 95.578 12.254 95.578 11.723ZM95.953 15.41C95.453 15.41 94.922 15.238 94.922 14.738 94.922 14.395 95.203 14.066 95.813 13.832 95.875 13.863 96.063 13.988 96.328 14.145 96.719 14.363 96.953 14.598 96.953 14.832 96.953 15.223 96.391 15.41 95.953 15.41ZM96.625 10.176C96.344 10.176 95.906 10.348 95.563 10.629 95.156 10.957 94.953 11.441 94.953 11.879 94.953 12.395 95.266 12.723 95.734 12.816 95.359 13.066 95.234 13.16 95.234 13.301 95.234 13.379 95.359 13.551 95.625 13.707 94.719 14.145 94.266 14.52 94.266 14.895 94.266 15.457 94.969 15.723 95.625 15.723 96.141 15.723 97.438 15.395 97.438 14.582 97.438 14.301 97.203 13.973 96.656 13.645 96.313 13.441 95.828 13.207 95.828 13.02 95.828 12.941 95.875 12.895 95.984 12.816 96.469 12.629 96.797 12.457 97.016 12.285 97.25 12.082 97.563 11.707 97.563 11.145 97.563 10.988 97.531 10.848 97.469 10.723 97.531 10.707 97.578 10.707 97.641 10.691 97.797 10.676 98.031 10.551 98.281 10.301L98.234 10.207C98.063 10.285 97.828 10.332 97.203 10.379 97.063 10.254 96.844 10.176 96.625 10.176ZM96.625 10.176" fill="#bd2317"/>
<path d="M101.734 12.785C101.547 12.941 101.172 13.332 100.984 13.332 100.906 13.332 100.875 13.145 100.953 12.785L101.422 10.66 102.281 10.629 102.516 10.379H101.484L101.734 9.332 101.672 9.285 101.078 9.77 100.922 10.379H100.375L100.141 10.566 100.203 10.66H100.844L100.344 12.973C100.203 13.582 100.359 13.863 100.516 13.863 100.891 13.863 101.609 13.223 101.875 12.879ZM101.734 12.785" fill="#bd2317"/>
<path d="M103.063 13.645C103.109 13.207 103.313 12.316 103.375 12.082 103.625 11.645 104.516 10.691 104.938 10.691 105.172 10.691 105.141 10.941 105.063 11.316L104.609 13.238C104.516 13.66 104.563 13.863 104.75 13.863 104.875 13.863 105.531 13.504 105.938 13.098L105.844 12.941C105.609 13.113 105.328 13.301 105.25 13.301 105.172 13.301 105.188 13.207 105.25 12.973L105.688 11.02C105.859 10.254 105.563 10.176 105.438 10.176 105.359 10.176 105.25 10.207 105.109 10.27 104.656 10.473 104.109 10.848 103.5 11.566H103.484L104.141 8.395C104.188 8.191 104.172 8.051 104.078 8.051 104.016 8.051 103.438 8.254 102.828 8.379V8.535H103.266C103.516 8.535 103.531 8.582 103.453 8.926L102.703 12.629C102.625 13.051 102.547 13.457 102.453 13.863ZM103.063 13.645" fill="#bd2317"/>
<path d="M108.074 12.832C107.809 13.051 107.48 13.27 107.402 13.27 107.34 13.27 107.355 13.176 107.402 12.988L107.949 10.77C108.012 10.457 108.105 10.176 107.887 10.176 107.699 10.176 106.996 10.566 106.527 11.004L106.621 11.176C106.809 10.988 107.199 10.77 107.293 10.77 107.355 10.77 107.355 10.848 107.277 11.145L106.746 13.379C106.637 13.77 106.762 13.863 106.887 13.863 107.137 13.863 107.918 13.254 108.168 13.004ZM107.871 9.082C108.121 9.082 108.293 8.863 108.293 8.613 108.277 8.457 108.184 8.285 107.949 8.285 107.652 8.285 107.496 8.551 107.512 8.77 107.527 8.957 107.652 9.082 107.871 9.082ZM107.871 9.082" fill="#bd2317"/>
<path d="M109.242 13.863C109.93 13.863 110.633 13.176 110.633 12.551 110.633 12.27 110.555 12.051 110.055 11.723 109.805 11.551 109.461 11.316 109.461 11.066 109.461 10.77 109.68 10.566 109.898 10.566 110.164 10.566 110.383 10.707 110.508 10.879 110.555 10.941 110.648 10.941 110.758 10.848 110.852 10.754 110.883 10.66 110.898 10.551 110.898 10.379 110.602 10.176 110.336 10.176 109.961 10.176 109.586 10.426 109.383 10.598 109.008 10.941 108.977 11.27 108.977 11.426 108.977 11.816 109.383 12.004 109.727 12.27 110.102 12.566 110.164 12.754 110.164 12.957 110.164 13.254 109.898 13.457 109.664 13.457 109.445 13.457 109.195 13.395 108.945 13.098 108.867 13.02 108.805 13.02 108.711 13.066 108.57 13.129 108.477 13.285 108.477 13.395 108.477 13.66 108.945 13.863 109.242 13.863ZM109.242 13.863" fill="#bd2317"/>
<path d="M115.402 12.863C115.168 13.051 114.777 13.41 114.324 13.41 113.918 13.41 113.762 13.051 113.762 12.566 113.762 12.02 113.918 11.41 114.168 11.02 114.34 10.723 114.559 10.535 114.793 10.535 115.012 10.535 115.215 10.676 115.355 10.863 115.434 10.973 115.543 10.941 115.637 10.879 115.777 10.785 115.855 10.66 115.855 10.535 115.855 10.379 115.621 10.176 115.324 10.176 114.793 10.176 114.293 10.457 113.965 10.754 113.402 11.254 113.105 12.113 113.105 12.754 113.105 13.457 113.434 13.863 113.918 13.863 114.262 13.863 114.996 13.582 115.527 13.02ZM115.402 12.863" fill="#bd2317"/>
<path d="M117.48 12.801C117.262 13.004 116.871 13.301 116.777 13.301 116.715 13.301 116.699 13.207 116.746 13.035L117.73 8.379C117.762 8.191 117.762 8.051 117.668 8.051 117.605 8.051 117.074 8.238 116.418 8.379V8.535H116.84C117.09 8.535 117.105 8.582 117.027 8.926L116.168 13.066C116.043 13.676 116.152 13.863 116.324 13.863 116.449 13.863 117.23 13.395 117.574 12.973ZM117.48 12.801" fill="#bd2317"/>
<path d="M121.02 10.395C120.941 10.848 120.801 11.426 120.738 11.613 120.551 12.035 119.52 13.363 119.113 13.363 118.895 13.363 118.926 13.098 119.035 12.613L119.457 10.691C119.52 10.379 119.52 10.176 119.301 10.176 119.129 10.176 118.566 10.566 118.113 11.004L118.207 11.176C118.41 10.973 118.723 10.77 118.816 10.77 118.879 10.77 118.848 10.91 118.785 11.223L118.395 12.895C118.207 13.754 118.52 13.863 118.613 13.863 118.832 13.863 119.082 13.723 119.27 13.598 119.77 13.27 120.223 12.723 120.598 12.207H120.613L120.395 13.238C120.301 13.66 120.348 13.863 120.52 13.863 120.629 13.863 121.301 13.504 121.707 13.098L121.613 12.941C121.379 13.113 121.082 13.301 121.004 13.301 120.941 13.301 120.957 13.207 121.02 12.973L121.629 10.176H121.551ZM121.02 10.395" fill="#bd2317"/>
<path d="M122.801 13.863C123.488 13.863 124.191 13.176 124.191 12.551 124.191 12.27 124.113 12.051 123.613 11.723 123.363 11.551 123.02 11.316 123.02 11.066 123.02 10.77 123.238 10.566 123.457 10.566 123.723 10.566 123.941 10.707 124.066 10.879 124.113 10.941 124.207 10.941 124.316 10.848 124.41 10.754 124.441 10.66 124.457 10.551 124.457 10.379 124.16 10.176 123.895 10.176 123.52 10.176 123.145 10.426 122.941 10.598 122.566 10.941 122.535 11.27 122.535 11.426 122.535 11.816 122.941 12.004 123.285 12.27 123.66 12.566 123.723 12.754 123.723 12.957 123.723 13.254 123.457 13.457 123.223 13.457 123.004 13.457 122.754 13.395 122.504 13.098 122.426 13.02 122.363 13.02 122.27 13.066 122.129 13.129 122.035 13.285 122.035 13.395 122.035 13.66 122.504 13.863 122.801 13.863ZM122.801 13.863" fill="#bd2317"/>
<path d="M126.531 12.785C126.344 12.941 125.969 13.332 125.781 13.332 125.703 13.332 125.672 13.145 125.75 12.785L126.219 10.66 127.078 10.629 127.313 10.379H126.281L126.531 9.332 126.469 9.285 125.875 9.77 125.719 10.379H125.172L124.938 10.566 125 10.66H125.641L125.141 12.973C125 13.582 125.156 13.863 125.313 13.863 125.688 13.863 126.406 13.223 126.672 12.879ZM126.531 12.785" fill="#bd2317"/>
<path d="M129.691 12.785C129.191 13.27 128.785 13.41 128.473 13.41 127.957 13.41 127.863 12.863 127.863 12.457 127.863 12.41 127.879 12.301 127.895 12.254 128.66 12.035 130.02 11.52 130.02 10.785 130.02 10.457 129.754 10.176 129.348 10.176 129.004 10.176 128.52 10.395 128.16 10.676 127.566 11.129 127.238 11.957 127.238 12.691 127.238 13.645 127.754 13.863 128.066 13.863 128.332 13.863 129.004 13.77 129.816 12.941ZM127.926 12.02C128.082 11.129 128.457 10.723 128.707 10.582 128.785 10.535 128.895 10.504 128.988 10.504 129.16 10.504 129.395 10.613 129.395 10.91 129.395 11.332 129.051 11.691 127.926 12.02ZM127.926 12.02" fill="#bd2317"/>
<path d="M131.531 10.176C131.328 10.176 130.797 10.566 130.375 11.004L130.469 11.176C130.656 10.988 130.984 10.77 131.078 10.77 131.141 10.77 131.125 10.91 131.031 11.332L130.766 12.598C130.688 13.02 130.594 13.441 130.484 13.863L131.141 13.645C131.172 13.348 131.281 12.816 131.453 12.02 131.563 11.723 131.703 11.426 131.906 11.145 132.125 10.863 132.25 10.801 132.328 10.801 132.406 10.801 132.516 10.848 132.594 10.91 132.656 10.957 132.75 10.957 132.828 10.91 132.906 10.848 132.984 10.754 133.031 10.66 133.078 10.582 133.078 10.457 133.031 10.379 132.969 10.27 132.828 10.176 132.641 10.176 132.438 10.176 131.938 10.66 131.531 11.395H131.516L131.625 10.91C131.719 10.457 131.719 10.176 131.531 10.176ZM131.531 10.176" fill="#bd2317"/>
<path d="M81.078 39.266C80.906 39.469 80.75 39.531 80.656 39.531 80.563 39.531 80.484 39.453 80.359 39.266 80.156 38.922 79.797 38.078 79.641 37.594 79.922 37.313 80.141 37.156 80.344 37.031 80.5 36.938 80.656 36.906 80.781 36.906 80.922 36.906 80.984 36.906 81.031 36.922 81.141 36.953 81.313 36.688 81.313 36.578 81.313 36.484 81.234 36.344 80.953 36.344 80.641 36.344 80 36.922 79.484 37.469 79.328 37.641 79.172 37.813 78.984 38.047H78.969L79.719 34.547C79.766 34.359 79.766 34.219 79.688 34.219 79.609 34.219 79.047 34.422 78.422 34.547V34.703H78.828C79.078 34.703 79.094 34.75 79.031 35.094 78.781 36.281 78.531 37.531 78.25 38.781 78.156 39.203 78.078 39.625 77.984 40.031L78.609 39.813C78.625 39.625 78.688 39.25 78.797 38.813 78.859 38.484 78.922 38.375 79.234 38.047 79.438 38.578 79.625 39.078 79.828 39.5 80.031 39.953 80.219 40.031 80.391 40.031 80.547 40.031 80.828 39.906 81.203 39.391ZM81.078 39.266" fill="#bd2317"/>
<path d="M84.035 38.953C83.535 39.438 83.129 39.578 82.816 39.578 82.301 39.578 82.207 39.031 82.207 38.625 82.207 38.578 82.223 38.469 82.238 38.422 83.004 38.203 84.363 37.688 84.363 36.953 84.363 36.625 84.098 36.344 83.691 36.344 83.348 36.344 82.863 36.563 82.504 36.844 81.91 37.297 81.582 38.125 81.582 38.859 81.582 39.813 82.098 40.031 82.41 40.031 82.676 40.031 83.348 39.938 84.16 39.109ZM82.27 38.188C82.426 37.297 82.801 36.891 83.051 36.75 83.129 36.703 83.238 36.672 83.332 36.672 83.504 36.672 83.738 36.781 83.738 37.078 83.738 37.5 83.395 37.859 82.27 38.188ZM82.27 38.188" fill="#bd2317"/>
<path d="M87.766 36.344C87.563 36.344 87.359 36.547 87.359 36.734 87.375 36.797 87.469 36.875 87.453 37.109 87.406 37.375 87.234 37.672 87.016 38.078 86.75 38.516 86.484 38.906 86.234 39.297H86.219C86.203 38.484 86.125 37.656 86.109 37.188 86.063 36.641 86 36.344 85.844 36.344 85.563 36.344 85.094 36.844 84.734 37.219L84.813 37.359C85.141 37.094 85.297 36.953 85.391 36.953 85.5 36.953 85.516 37.188 85.578 37.563 85.609 37.844 85.734 39.391 85.719 39.953 85.344 40.531 84.891 41.094 84.094 41.766L84.172 41.891 84.969 41.594C85.359 41.094 85.641 40.641 86.078 39.953 86.438 39.406 87.406 37.938 87.656 37.578 87.938 37.203 88.109 36.938 88.109 36.766 88.094 36.516 87.938 36.344 87.766 36.344ZM87.766 36.344" fill="#bd2317"/>
<path d="M91.621 38.969C91.402 39.172 91.012 39.469 90.918 39.469 90.855 39.469 90.84 39.375 90.887 39.203L91.871 34.547C91.902 34.359 91.902 34.219 91.809 34.219 91.746 34.219 91.215 34.406 90.559 34.547V34.703H90.98C91.23 34.703 91.246 34.75 91.168 35.094L90.309 39.234C90.184 39.844 90.293 40.031 90.465 40.031 90.59 40.031 91.371 39.563 91.715 39.141ZM91.621 38.969" fill="#bd2317"/>
<path d="M94.141 39.563C94.063 39.953 94.219 40.031 94.313 40.031 94.438 40.031 95.094 39.672 95.5 39.266L95.422 39.109C95.172 39.281 94.891 39.5 94.813 39.5 94.734 39.5 94.75 39.375 94.797 39.141 94.953 38.219 95.156 37.313 95.328 36.484L95.281 36.453C95.203 36.453 95.078 36.422 94.969 36.406 94.813 36.375 94.672 36.344 94.547 36.344 94.047 36.344 93.391 36.656 92.984 37.031 92.469 37.469 92.094 38.359 92.094 39.188 92.094 39.875 92.391 40.031 92.563 40.031 92.688 40.031 93.094 39.766 93.234 39.656 93.625 39.328 94 38.953 94.344 38.531H94.359ZM94.125 36.688C94.391 36.688 94.547 36.734 94.672 36.781 94.656 37.078 94.469 37.906 94.359 38.125 94.234 38.375 93.938 38.703 93.75 38.922 93.438 39.25 93.094 39.5 92.969 39.5 92.813 39.5 92.75 39.281 92.75 38.969 92.75 38.688 92.813 38.125 93.047 37.641 93.281 37.109 93.547 36.891 93.781 36.766 93.875 36.719 94 36.688 94.125 36.688ZM94.125 36.688" fill="#bd2317"/>
<path d="M96.746 39.813C96.793 39.375 96.996 38.484 97.059 38.344 97.309 37.891 98.246 36.859 98.668 36.859 98.887 36.859 98.84 37.109 98.746 37.484L98.277 39.422C98.184 39.844 98.215 40.031 98.418 40.031 98.527 40.031 99.199 39.672 99.605 39.266L99.512 39.109C99.277 39.281 98.98 39.469 98.902 39.469 98.84 39.469 98.871 39.375 98.918 39.141 99.074 38.469 99.23 37.828 99.371 37.234 99.574 36.422 99.309 36.344 99.184 36.344 99.09 36.344 98.965 36.375 98.809 36.438 98.449 36.609 97.84 37.016 97.168 37.813H97.152L97.324 37.078C97.434 36.625 97.449 36.344 97.23 36.344 97.059 36.344 96.48 36.734 96.043 37.172L96.121 37.344C96.324 37.141 96.637 36.938 96.73 36.938 96.793 36.938 96.777 37.078 96.699 37.391L96.402 38.719C96.277 39.234 96.215 39.609 96.105 40.031ZM96.746 39.813" fill="#bd2317"/>
<path d="M102.574 34.703H102.996C103.262 34.703 103.277 34.75 103.199 35.094L102.949 36.375C102.762 36.344 102.621 36.344 102.527 36.344 102.043 36.344 101.387 36.688 101.074 36.984 100.543 37.453 100.152 38.297 100.152 39.156 100.152 39.813 100.449 40.031 100.668 40.031 100.84 40.031 101.262 39.75 101.387 39.641 101.793 39.344 102.152 38.984 102.512 38.453H102.543L102.34 39.391C102.23 39.953 102.387 40.031 102.48 40.031 102.605 40.031 103.262 39.672 103.668 39.266L103.574 39.109C103.34 39.281 103.043 39.469 102.98 39.469 102.918 39.469 102.934 39.375 102.98 39.141 103.262 37.609 103.574 36.078 103.902 34.547 103.934 34.359 103.949 34.219 103.855 34.219 103.793 34.219 103.184 34.422 102.574 34.547ZM101.074 39.531C100.887 39.531 100.809 39.313 100.809 38.984 100.809 38.563 100.934 37.984 101.168 37.516 101.371 37.094 101.605 36.891 101.777 36.781 101.902 36.703 102.09 36.656 102.293 36.656 102.543 36.656 102.746 36.703 102.887 36.781 102.824 37.188 102.637 37.938 102.465 38.203 102.246 38.5 102.043 38.766 101.855 38.953 101.527 39.297 101.246 39.531 101.074 39.531ZM101.074 39.531" fill="#bd2317"/>
<path d="M104.738 40.031C105.426 40.031 106.129 39.344 106.129 38.719 106.129 38.438 106.051 38.219 105.551 37.891 105.301 37.719 104.957 37.484 104.957 37.234 104.957 36.938 105.176 36.734 105.395 36.734 105.66 36.734 105.879 36.875 106.004 37.047 106.051 37.109 106.145 37.109 106.254 37.016 106.348 36.922 106.379 36.828 106.395 36.719 106.395 36.547 106.098 36.344 105.832 36.344 105.457 36.344 105.082 36.594 104.879 36.766 104.504 37.109 104.473 37.438 104.473 37.594 104.473 37.984 104.879 38.172 105.223 38.438 105.598 38.734 105.66 38.922 105.66 39.125 105.66 39.422 105.395 39.625 105.16 39.625 104.941 39.625 104.691 39.563 104.441 39.266 104.363 39.188 104.301 39.188 104.207 39.234 104.066 39.297 103.973 39.453 103.973 39.563 103.973 39.828 104.441 40.031 104.738 40.031ZM104.738 40.031" fill="#bd2317"/>
<path d="M109.246 39.813C109.293 39.375 109.496 38.484 109.559 38.25 109.809 37.813 110.699 36.859 111.121 36.859 111.355 36.859 111.324 37.109 111.246 37.484L110.793 39.406C110.699 39.828 110.746 40.031 110.934 40.031 111.059 40.031 111.715 39.672 112.121 39.266L112.027 39.109C111.793 39.281 111.512 39.469 111.434 39.469 111.355 39.469 111.371 39.375 111.434 39.141L111.871 37.188C112.043 36.422 111.746 36.344 111.621 36.344 111.543 36.344 111.434 36.375 111.293 36.438 110.84 36.641 110.293 37.016 109.684 37.734H109.668L110.324 34.563C110.371 34.359 110.355 34.219 110.262 34.219 110.199 34.219 109.621 34.422 109.012 34.547V34.703H109.449C109.699 34.703 109.715 34.75 109.637 35.094L108.887 38.797C108.809 39.219 108.73 39.625 108.637 40.031ZM109.246 39.813" fill="#bd2317"/>
<path d="M115.148 38.953C114.648 39.438 114.242 39.578 113.93 39.578 113.414 39.578 113.32 39.031 113.32 38.625 113.32 38.578 113.336 38.469 113.352 38.422 114.117 38.203 115.477 37.688 115.477 36.953 115.477 36.625 115.211 36.344 114.805 36.344 114.461 36.344 113.977 36.563 113.617 36.844 113.023 37.297 112.695 38.125 112.695 38.859 112.695 39.813 113.211 40.031 113.523 40.031 113.789 40.031 114.461 39.938 115.273 39.109ZM113.383 38.188C113.539 37.297 113.914 36.891 114.164 36.75 114.242 36.703 114.352 36.672 114.445 36.672 114.617 36.672 114.852 36.781 114.852 37.078 114.852 37.5 114.508 37.859 113.383 38.188ZM113.383 38.188" fill="#bd2317"/>
<path d="M116.984 36.344C116.781 36.344 116.25 36.734 115.828 37.172L115.922 37.344C116.109 37.156 116.438 36.938 116.531 36.938 116.594 36.938 116.578 37.078 116.484 37.5L116.219 38.766C116.141 39.188 116.047 39.609 115.938 40.031L116.594 39.813C116.625 39.516 116.734 38.984 116.906 38.188 117.016 37.891 117.156 37.594 117.359 37.313 117.578 37.031 117.703 36.969 117.781 36.969 117.859 36.969 117.969 37.016 118.047 37.078 118.109 37.125 118.203 37.125 118.281 37.078 118.359 37.016 118.438 36.922 118.484 36.828 118.531 36.75 118.531 36.625 118.484 36.547 118.422 36.438 118.281 36.344 118.094 36.344 117.891 36.344 117.391 36.828 116.984 37.563H116.969L117.078 37.078C117.172 36.625 117.172 36.344 116.984 36.344ZM116.984 36.344" fill="#bd2317"/>
<path d="M121.02 38.953C120.52 39.438 120.113 39.578 119.801 39.578 119.285 39.578 119.191 39.031 119.191 38.625 119.191 38.578 119.207 38.469 119.223 38.422 119.988 38.203 121.348 37.688 121.348 36.953 121.348 36.625 121.082 36.344 120.676 36.344 120.332 36.344 119.848 36.563 119.488 36.844 118.895 37.297 118.566 38.125 118.566 38.859 118.566 39.813 119.082 40.031 119.395 40.031 119.66 40.031 120.332 39.938 121.145 39.109ZM119.254 38.188C119.41 37.297 119.785 36.891 120.035 36.75 120.113 36.703 120.223 36.672 120.316 36.672 120.488 36.672 120.723 36.781 120.723 37.078 120.723 37.5 120.379 37.859 119.254 38.188ZM119.254 38.188" fill="#bd2317"/>
<path d="M81.762 47.051C81.496 47.27 81.168 47.488 81.09 47.488 81.027 47.488 81.043 47.395 81.09 47.207L81.637 44.988C81.699 44.676 81.793 44.395 81.574 44.395 81.387 44.395 80.684 44.785 80.215 45.223L80.309 45.395C80.496 45.207 80.887 44.988 80.98 44.988 81.043 44.988 81.043 45.066 80.965 45.363L80.434 47.598C80.324 47.988 80.449 48.082 80.574 48.082 80.824 48.082 81.605 47.473 81.855 47.223ZM81.559 43.301C81.809 43.301 81.98 43.082 81.98 42.832 81.965 42.676 81.871 42.504 81.637 42.504 81.34 42.504 81.184 42.77 81.199 42.988 81.215 43.176 81.34 43.301 81.559 43.301ZM81.559 43.301" fill="#bd2317"/>
<path d="M83.137 47.863C83.184 47.426 83.387 46.535 83.449 46.395 83.699 45.941 84.637 44.91 85.059 44.91 85.277 44.91 85.23 45.16 85.137 45.535L84.668 47.473C84.574 47.895 84.605 48.082 84.809 48.082 84.918 48.082 85.59 47.723 85.996 47.316L85.902 47.16C85.668 47.332 85.371 47.52 85.293 47.52 85.23 47.52 85.262 47.426 85.309 47.191 85.465 46.52 85.621 45.879 85.762 45.285 85.965 44.473 85.699 44.395 85.574 44.395 85.48 44.395 85.355 44.426 85.199 44.488 84.84 44.66 84.23 45.066 83.559 45.863H83.543L83.715 45.129C83.824 44.676 83.84 44.395 83.621 44.395 83.449 44.395 82.871 44.785 82.434 45.223L82.512 45.395C82.715 45.191 83.027 44.988 83.121 44.988 83.184 44.988 83.168 45.129 83.09 45.441L82.793 46.77C82.668 47.285 82.605 47.66 82.496 48.082ZM83.137 47.863" fill="#bd2317"/>
<path d="M90.129 47.004C89.941 47.16 89.566 47.551 89.379 47.551 89.301 47.551 89.27 47.363 89.348 47.004L89.816 44.879 90.676 44.848 90.91 44.598H89.879L90.129 43.551 90.066 43.504 89.473 43.988 89.316 44.598H88.77L88.535 44.785 88.598 44.879H89.238L88.738 47.191C88.598 47.801 88.754 48.082 88.91 48.082 89.285 48.082 90.004 47.441 90.27 47.098ZM90.129 47.004" fill="#bd2317"/>
<path d="M91.453 47.863C91.5 47.426 91.703 46.535 91.766 46.301 92.016 45.863 92.906 44.91 93.328 44.91 93.563 44.91 93.531 45.16 93.453 45.535L93 47.457C92.906 47.879 92.953 48.082 93.141 48.082 93.266 48.082 93.922 47.723 94.328 47.316L94.234 47.16C94 47.332 93.719 47.52 93.641 47.52 93.563 47.52 93.578 47.426 93.641 47.191L94.078 45.238C94.25 44.473 93.953 44.395 93.828 44.395 93.75 44.395 93.641 44.426 93.5 44.488 93.047 44.691 92.5 45.066 91.891 45.785H91.875L92.531 42.613C92.578 42.41 92.563 42.27 92.469 42.27 92.406 42.27 91.828 42.473 91.219 42.598V42.754H91.656C91.906 42.754 91.922 42.801 91.844 43.145L91.094 46.848C91.016 47.27 90.938 47.676 90.844 48.082ZM91.453 47.863" fill="#bd2317"/>
<path d="M96.879 47.613C96.801 48.004 96.957 48.082 97.051 48.082 97.176 48.082 97.832 47.723 98.238 47.316L98.16 47.16C97.91 47.332 97.629 47.551 97.551 47.551 97.473 47.551 97.488 47.426 97.535 47.191 97.691 46.27 97.895 45.363 98.066 44.535L98.02 44.504C97.941 44.504 97.816 44.473 97.707 44.457 97.551 44.426 97.41 44.395 97.285 44.395 96.785 44.395 96.129 44.707 95.723 45.082 95.207 45.52 94.832 46.41 94.832 47.238 94.832 47.926 95.129 48.082 95.301 48.082 95.426 48.082 95.832 47.816 95.973 47.707 96.363 47.379 96.738 47.004 97.082 46.582H97.098ZM96.863 44.738C97.129 44.738 97.285 44.785 97.41 44.832 97.395 45.129 97.207 45.957 97.098 46.176 96.973 46.426 96.676 46.754 96.488 46.973 96.176 47.301 95.832 47.551 95.707 47.551 95.551 47.551 95.488 47.332 95.488 47.02 95.488 46.738 95.551 46.176 95.785 45.691 96.02 45.16 96.285 44.941 96.52 44.816 96.613 44.77 96.738 44.738 96.863 44.738ZM96.863 44.738" fill="#bd2317"/>
<path d="M100.414 47.004C100.227 47.16 99.852 47.551 99.664 47.551 99.586 47.551 99.555 47.363 99.633 47.004L100.102 44.879 100.961 44.848 101.195 44.598H100.164L100.414 43.551 100.352 43.504 99.758 43.988 99.602 44.598H99.055L98.82 44.785 98.883 44.879H99.523L99.023 47.191C98.883 47.801 99.039 48.082 99.195 48.082 99.57 48.082 100.289 47.441 100.555 47.098ZM100.414 47.004" fill="#bd2317"/>
<path d="M105.414 47.004C104.914 47.488 104.508 47.629 104.195 47.629 103.68 47.629 103.586 47.082 103.586 46.676 103.586 46.629 103.602 46.52 103.617 46.473 104.383 46.254 105.742 45.738 105.742 45.004 105.742 44.676 105.477 44.395 105.07 44.395 104.727 44.395 104.242 44.613 103.883 44.895 103.289 45.348 102.961 46.176 102.961 46.91 102.961 47.863 103.477 48.082 103.789 48.082 104.055 48.082 104.727 47.988 105.539 47.16ZM103.648 46.238C103.805 45.348 104.18 44.941 104.43 44.801 104.508 44.754 104.617 44.723 104.711 44.723 104.883 44.723 105.117 44.832 105.117 45.129 105.117 45.551 104.773 45.91 103.648 46.238ZM103.648 46.238" fill="#bd2317"/>
<path d="M107.254 48.082C107.738 47.504 108.441 46.535 108.926 45.879 109.348 45.301 109.488 45.066 109.488 44.832 109.488 44.566 109.332 44.395 109.16 44.395 108.941 44.395 108.785 44.582 108.785 44.785 108.785 44.832 108.863 44.926 108.863 45.113 108.863 45.426 108.598 45.879 108.332 46.27 108.113 46.582 107.848 46.957 107.582 47.301H107.566C107.551 46.551 107.52 45.723 107.488 45.238 107.441 44.691 107.395 44.395 107.238 44.395 106.957 44.395 106.488 44.895 106.129 45.27L106.207 45.41C106.535 45.145 106.691 45.004 106.785 45.004 106.895 45.004 106.91 45.238 106.941 45.613 106.973 45.91 107.035 47.426 107.051 48.082ZM107.254 48.082" fill="#bd2317"/>
<path d="M112.168 47.004C111.668 47.488 111.262 47.629 110.949 47.629 110.434 47.629 110.34 47.082 110.34 46.676 110.34 46.629 110.355 46.52 110.371 46.473 111.137 46.254 112.496 45.738 112.496 45.004 112.496 44.676 112.23 44.395 111.824 44.395 111.48 44.395 110.996 44.613 110.637 44.895 110.043 45.348 109.715 46.176 109.715 46.91 109.715 47.863 110.23 48.082 110.543 48.082 110.809 48.082 111.48 47.988 112.293 47.16ZM110.402 46.238C110.559 45.348 110.934 44.941 111.184 44.801 111.262 44.754 111.371 44.723 111.465 44.723 111.637 44.723 111.871 44.832 111.871 45.129 111.871 45.551 111.527 45.91 110.402 46.238ZM110.402 46.238" fill="#bd2317"/>
<path d="M113.648 47.863C113.695 47.426 113.898 46.535 113.961 46.395 114.211 45.941 115.148 44.91 115.57 44.91 115.789 44.91 115.742 45.16 115.648 45.535L115.18 47.473C115.086 47.895 115.117 48.082 115.32 48.082 115.43 48.082 116.102 47.723 116.508 47.316L116.414 47.16C116.18 47.332 115.883 47.52 115.805 47.52 115.742 47.52 115.773 47.426 115.82 47.191 115.977 46.52 116.133 45.879 116.273 45.285 116.477 44.473 116.211 44.395 116.086 44.395 115.992 44.395 115.867 44.426 115.711 44.488 115.352 44.66 114.742 45.066 114.07 45.863H114.055L114.227 45.129C114.336 44.676 114.352 44.395 114.133 44.395 113.961 44.395 113.383 44.785 112.945 45.223L113.023 45.395C113.227 45.191 113.539 44.988 113.633 44.988 113.695 44.988 113.68 45.129 113.602 45.441L113.305 46.77C113.18 47.285 113.117 47.66 113.008 48.082ZM113.648 47.863" fill="#bd2317"/>
<path d="M118.789 47.004C118.602 47.16 118.227 47.551 118.039 47.551 117.961 47.551 117.93 47.363 118.008 47.004L118.477 44.879 119.336 44.848 119.57 44.598H118.539L118.789 43.551 118.727 43.504 118.133 43.988 117.977 44.598H117.43L117.195 44.785 117.258 44.879H117.898L117.398 47.191C117.258 47.801 117.414 48.082 117.57 48.082 117.945 48.082 118.664 47.441 118.93 47.098ZM118.789 47.004" fill="#bd2317"/>
<path d="M75.637 72.273C75.559 72.664 75.715 72.742 75.809 72.742 75.934 72.742 76.59 72.383 76.996 71.977L76.918 71.82C76.668 71.992 76.387 72.211 76.309 72.211 76.23 72.211 76.246 72.086 76.293 71.852 76.449 70.93 76.652 70.023 76.824 69.195L76.777 69.164C76.699 69.164 76.574 69.133 76.465 69.117 76.309 69.086 76.168 69.055 76.043 69.055 75.543 69.055 74.887 69.367 74.48 69.742 73.965 70.18 73.59 71.07 73.59 71.898 73.59 72.586 73.887 72.742 74.059 72.742 74.184 72.742 74.59 72.477 74.73 72.367 75.121 72.039 75.496 71.664 75.84 71.242H75.855ZM75.621 69.398C75.887 69.398 76.043 69.445 76.168 69.492 76.152 69.789 75.965 70.617 75.855 70.836 75.73 71.086 75.434 71.414 75.246 71.633 74.934 71.961 74.59 72.211 74.465 72.211 74.309 72.211 74.246 71.992 74.246 71.68 74.246 71.398 74.309 70.836 74.543 70.352 74.777 69.82 75.043 69.602 75.277 69.477 75.371 69.43 75.496 69.398 75.621 69.398ZM75.621 69.398" fill="#bd2317"/>
<path d="M78.234 72.523C78.281 72.086 78.484 71.195 78.547 71.055 78.797 70.602 79.734 69.57 80.156 69.57 80.375 69.57 80.328 69.82 80.234 70.195L79.766 72.133C79.672 72.555 79.703 72.742 79.906 72.742 80.016 72.742 80.688 72.383 81.094 71.977L81 71.82C80.766 71.992 80.469 72.18 80.391 72.18 80.328 72.18 80.359 72.086 80.406 71.852 80.563 71.18 80.719 70.539 80.859 69.945 81.063 69.133 80.797 69.055 80.672 69.055 80.578 69.055 80.453 69.086 80.297 69.148 79.938 69.32 79.328 69.727 78.656 70.523H78.641L78.813 69.789C78.922 69.336 78.938 69.055 78.719 69.055 78.547 69.055 77.969 69.445 77.531 69.883L77.609 70.055C77.813 69.852 78.125 69.648 78.219 69.648 78.281 69.648 78.266 69.789 78.188 70.102L77.891 71.43C77.766 71.945 77.703 72.32 77.594 72.742ZM78.234 72.523" fill="#bd2317"/>
<path d="M84.063 67.414H84.484C84.75 67.414 84.766 67.461 84.688 67.805L84.438 69.086C84.25 69.055 84.109 69.055 84.016 69.055 83.531 69.055 82.875 69.398 82.563 69.695 82.031 70.164 81.641 71.008 81.641 71.867 81.641 72.523 81.938 72.742 82.156 72.742 82.328 72.742 82.75 72.461 82.875 72.352 83.281 72.055 83.641 71.695 84 71.164H84.031L83.828 72.102C83.719 72.664 83.875 72.742 83.969 72.742 84.094 72.742 84.75 72.383 85.156 71.977L85.063 71.82C84.828 71.992 84.531 72.18 84.469 72.18 84.406 72.18 84.422 72.086 84.469 71.852 84.75 70.32 85.063 68.789 85.391 67.258 85.422 67.07 85.438 66.93 85.344 66.93 85.281 66.93 84.672 67.133 84.063 67.258ZM82.563 72.242C82.375 72.242 82.297 72.023 82.297 71.695 82.297 71.273 82.422 70.695 82.656 70.227 82.859 69.805 83.094 69.602 83.266 69.492 83.391 69.414 83.578 69.367 83.781 69.367 84.031 69.367 84.234 69.414 84.375 69.492 84.313 69.898 84.125 70.648 83.953 70.914 83.734 71.211 83.531 71.477 83.344 71.664 83.016 72.008 82.734 72.242 82.563 72.242ZM82.563 72.242" fill="#bd2317"/>
<path d="M87.762 69.258 87.543 69.461 87.559 69.539H88.23C88.121 70.273 88.027 70.898 87.871 71.914 87.652 73.414 87.48 73.945 87.324 74.07 87.277 74.117 87.199 74.148 87.121 74.148 87.027 74.148 86.871 74.07 86.762 74.023 86.668 73.977 86.59 74.039 86.543 74.086 86.48 74.148 86.402 74.273 86.402 74.352 86.402 74.508 86.605 74.602 86.746 74.602 86.902 74.602 87.293 74.461 87.637 74.039 87.902 73.695 88.277 72.93 88.59 71.102 88.652 70.758 88.715 70.43 88.855 69.539L89.668 69.461 89.84 69.258H88.902C89.137 67.758 89.34 67.32 89.684 67.32 89.934 67.32 90.121 67.414 90.309 67.586 90.355 67.633 90.449 67.633 90.527 67.57 90.59 67.508 90.699 67.383 90.699 67.273 90.699 67.117 90.48 66.93 90.215 66.93 89.746 66.93 89.246 67.211 88.918 67.617 88.605 67.992 88.387 68.602 88.277 69.258ZM87.762 69.258" fill="#bd2317"/>
<path d="M91.715 69.055C91.512 69.055 91.184 69.148 90.855 69.352 90.293 69.68 89.699 70.43 89.699 71.555 89.699 72.117 89.965 72.742 90.715 72.742 91.059 72.742 91.574 72.508 91.902 72.211 92.434 71.727 92.746 70.898 92.746 70.18 92.746 69.508 92.402 69.055 91.715 69.055ZM90.34 71.367C90.34 70.164 90.949 69.523 91.199 69.414 91.277 69.383 91.387 69.352 91.465 69.352 91.871 69.352 92.105 69.664 92.105 70.289 92.121 71.336 91.574 72.273 91.23 72.398 91.168 72.414 91.059 72.445 90.98 72.445 90.527 72.445 90.34 71.961 90.34 71.367ZM90.34 71.367" fill="#bd2317"/>
<path d="M94.512 69.055C94.309 69.055 93.777 69.445 93.355 69.883L93.449 70.055C93.637 69.867 93.965 69.648 94.059 69.648 94.121 69.648 94.105 69.789 94.012 70.211L93.746 71.477C93.668 71.898 93.574 72.32 93.465 72.742L94.121 72.523C94.152 72.227 94.262 71.695 94.434 70.898 94.543 70.602 94.684 70.305 94.887 70.023 95.105 69.742 95.23 69.68 95.309 69.68 95.387 69.68 95.496 69.727 95.574 69.789 95.637 69.836 95.73 69.836 95.809 69.789 95.887 69.727 95.965 69.633 96.012 69.539 96.059 69.461 96.059 69.336 96.012 69.258 95.949 69.148 95.809 69.055 95.621 69.055 95.418 69.055 94.918 69.539 94.512 70.273H94.496L94.605 69.789C94.699 69.336 94.699 69.055 94.512 69.055ZM94.512 69.055" fill="#bd2317"/>
<path d="M101.84 71.82C101.605 71.992 101.309 72.18 101.23 72.18 101.168 72.18 101.184 72.086 101.246 71.852 101.402 71.18 101.574 70.539 101.715 69.945 101.918 69.133 101.637 69.055 101.512 69.055 101.418 69.055 101.293 69.086 101.137 69.148 100.777 69.32 100.152 69.727 99.496 70.555H99.48L99.637 69.867C99.809 69.133 99.559 69.055 99.434 69.055 99.355 69.055 99.184 69.102 99.027 69.18 98.668 69.352 98.121 69.727 97.465 70.523H97.449L97.621 69.789C97.73 69.336 97.746 69.055 97.543 69.055 97.355 69.055 96.777 69.445 96.34 69.883L96.418 70.055C96.621 69.852 96.934 69.648 97.027 69.648 97.09 69.648 97.074 69.789 96.996 70.102L96.684 71.43C96.574 71.945 96.496 72.32 96.387 72.742L97.027 72.523C97.074 72.086 97.293 71.195 97.34 71.055 97.605 70.602 98.512 69.57 98.934 69.57 99.137 69.57 99.121 69.773 99.043 70.086L98.73 71.414C98.637 71.867 98.527 72.305 98.418 72.742L99.059 72.523C99.121 72.086 99.309 71.367 99.387 71.055 99.621 70.602 100.559 69.57 100.98 69.57 101.215 69.57 101.184 69.82 101.09 70.195L100.605 72.117C100.496 72.539 100.543 72.742 100.73 72.742 100.855 72.742 101.512 72.383 101.934 71.977ZM101.84 71.82" fill="#bd2317"/>
<path d="M103.074 72.742C103.762 72.742 104.465 72.055 104.465 71.43 104.465 71.148 104.387 70.93 103.887 70.602 103.637 70.43 103.293 70.195 103.293 69.945 103.293 69.648 103.512 69.445 103.73 69.445 103.996 69.445 104.215 69.586 104.34 69.758 104.387 69.82 104.48 69.82 104.59 69.727 104.684 69.633 104.715 69.539 104.73 69.43 104.73 69.258 104.434 69.055 104.168 69.055 103.793 69.055 103.418 69.305 103.215 69.477 102.84 69.82 102.809 70.148 102.809 70.305 102.809 70.695 103.215 70.883 103.559 71.148 103.934 71.445 103.996 71.633 103.996 71.836 103.996 72.133 103.73 72.336 103.496 72.336 103.277 72.336 103.027 72.273 102.777 71.977 102.699 71.898 102.637 71.898 102.543 71.945 102.402 72.008 102.309 72.164 102.309 72.273 102.309 72.539 102.777 72.742 103.074 72.742ZM103.074 72.742" fill="#bd2317"/>
<path d="M108.934 72.273C108.855 72.664 109.012 72.742 109.105 72.742 109.23 72.742 109.887 72.383 110.293 71.977L110.215 71.82C109.965 71.992 109.684 72.211 109.605 72.211 109.527 72.211 109.543 72.086 109.59 71.852 109.746 70.93 109.949 70.023 110.121 69.195L110.074 69.164C109.996 69.164 109.871 69.133 109.762 69.117 109.605 69.086 109.465 69.055 109.34 69.055 108.84 69.055 108.184 69.367 107.777 69.742 107.262 70.18 106.887 71.07 106.887 71.898 106.887 72.586 107.184 72.742 107.355 72.742 107.48 72.742 107.887 72.477 108.027 72.367 108.418 72.039 108.793 71.664 109.137 71.242H109.152ZM108.918 69.398C109.184 69.398 109.34 69.445 109.465 69.492 109.449 69.789 109.262 70.617 109.152 70.836 109.027 71.086 108.73 71.414 108.543 71.633 108.23 71.961 107.887 72.211 107.762 72.211 107.605 72.211 107.543 71.992 107.543 71.68 107.543 71.398 107.605 70.836 107.84 70.352 108.074 69.82 108.34 69.602 108.574 69.477 108.668 69.43 108.793 69.398 108.918 69.398ZM108.918 69.398" fill="#bd2317"/>
<path d="M118.195 71.82C117.961 71.992 117.664 72.18 117.586 72.18 117.523 72.18 117.539 72.086 117.602 71.852 117.758 71.18 117.93 70.539 118.07 69.945 118.273 69.133 117.992 69.055 117.867 69.055 117.773 69.055 117.648 69.086 117.492 69.148 117.133 69.32 116.508 69.727 115.852 70.555H115.836L115.992 69.867C116.164 69.133 115.914 69.055 115.789 69.055 115.711 69.055 115.539 69.102 115.383 69.18 115.023 69.352 114.477 69.727 113.82 70.523H113.805L113.977 69.789C114.086 69.336 114.102 69.055 113.898 69.055 113.711 69.055 113.133 69.445 112.695 69.883L112.773 70.055C112.977 69.852 113.289 69.648 113.383 69.648 113.445 69.648 113.43 69.789 113.352 70.102L113.039 71.43C112.93 71.945 112.852 72.32 112.742 72.742L113.383 72.523C113.43 72.086 113.648 71.195 113.695 71.055 113.961 70.602 114.867 69.57 115.289 69.57 115.492 69.57 115.477 69.773 115.398 70.086L115.086 71.414C114.992 71.867 114.883 72.305 114.773 72.742L115.414 72.523C115.477 72.086 115.664 71.367 115.742 71.055 115.977 70.602 116.914 69.57 117.336 69.57 117.57 69.57 117.539 69.82 117.445 70.195L116.961 72.117C116.852 72.539 116.898 72.742 117.086 72.742 117.211 72.742 117.867 72.383 118.289 71.977ZM118.195 71.82" fill="#bd2317"/>
<path d="M121.883 69.273C121.805 69.727 121.664 70.305 121.602 70.492 121.414 70.914 120.383 72.242 119.977 72.242 119.758 72.242 119.789 71.977 119.898 71.492L120.32 69.57C120.383 69.258 120.383 69.055 120.164 69.055 119.992 69.055 119.43 69.445 118.977 69.883L119.07 70.055C119.273 69.852 119.586 69.648 119.68 69.648 119.742 69.648 119.711 69.789 119.648 70.102L119.258 71.773C119.07 72.633 119.383 72.742 119.477 72.742 119.695 72.742 119.945 72.602 120.133 72.477 120.633 72.148 121.086 71.602 121.461 71.086H121.477L121.258 72.117C121.164 72.539 121.211 72.742 121.383 72.742 121.492 72.742 122.164 72.383 122.57 71.977L122.477 71.82C122.242 71.992 121.945 72.18 121.867 72.18 121.805 72.18 121.82 72.086 121.883 71.852L122.492 69.055H122.414ZM121.883 69.273" fill="#bd2317"/>
<path d="M125.391 71.742C125.156 71.93 124.766 72.289 124.313 72.289 123.906 72.289 123.75 71.93 123.75 71.445 123.75 70.898 123.906 70.289 124.156 69.898 124.328 69.602 124.547 69.414 124.781 69.414 125 69.414 125.203 69.555 125.344 69.742 125.422 69.852 125.531 69.82 125.625 69.758 125.766 69.664 125.844 69.539 125.844 69.414 125.844 69.258 125.609 69.055 125.313 69.055 124.781 69.055 124.281 69.336 123.953 69.633 123.391 70.133 123.094 70.992 123.094 71.633 123.094 72.336 123.422 72.742 123.906 72.742 124.25 72.742 124.984 72.461 125.516 71.898ZM125.391 71.742" fill="#bd2317"/>
<path d="M126.633 72.523C126.68 72.086 126.883 71.195 126.945 70.961 127.195 70.523 128.086 69.57 128.508 69.57 128.742 69.57 128.711 69.82 128.633 70.195L128.18 72.117C128.086 72.539 128.133 72.742 128.32 72.742 128.445 72.742 129.102 72.383 129.508 71.977L129.414 71.82C129.18 71.992 128.898 72.18 128.82 72.18 128.742 72.18 128.758 72.086 128.82 71.852L129.258 69.898C129.43 69.133 129.133 69.055 129.008 69.055 128.93 69.055 128.82 69.086 128.68 69.148 128.227 69.352 127.68 69.727 127.07 70.445H127.055L127.711 67.273C127.758 67.07 127.742 66.93 127.648 66.93 127.586 66.93 127.008 67.133 126.398 67.258V67.414H126.836C127.086 67.414 127.102 67.461 127.023 67.805L126.273 71.508C126.195 71.93 126.117 72.336 126.023 72.742ZM126.633 72.523" fill="#bd2317"/>
<path d="M82.797 79.73C82.578 79.934 82.188 80.23 82.094 80.23 82.031 80.23 82.016 80.137 82.063 79.965L83.047 75.309C83.078 75.121 83.078 74.98 82.984 74.98 82.922 74.98 82.391 75.168 81.734 75.309V75.465H82.156C82.406 75.465 82.422 75.512 82.344 75.855L81.484 79.996C81.359 80.605 81.469 80.793 81.641 80.793 81.766 80.793 82.547 80.324 82.891 79.902ZM82.797 79.73" fill="#bd2317"/>
<path d="M85.363 77.105C85.16 77.105 84.832 77.199 84.504 77.402 83.941 77.73 83.348 78.48 83.348 79.605 83.348 80.168 83.613 80.793 84.363 80.793 84.707 80.793 85.223 80.559 85.551 80.262 86.082 79.777 86.395 78.949 86.395 78.23 86.395 77.559 86.051 77.105 85.363 77.105ZM83.988 79.418C83.988 78.215 84.598 77.574 84.848 77.465 84.926 77.434 85.035 77.402 85.113 77.402 85.52 77.402 85.754 77.715 85.754 78.34 85.77 79.387 85.223 80.324 84.879 80.449 84.816 80.465 84.707 80.496 84.629 80.496 84.176 80.496 83.988 80.012 83.988 79.418ZM83.988 79.418" fill="#bd2317"/>
<path d="M87.742 80.574C87.789 80.137 87.992 79.246 88.055 79.105 88.305 78.652 89.242 77.621 89.664 77.621 89.883 77.621 89.836 77.871 89.742 78.246L89.273 80.184C89.18 80.605 89.211 80.793 89.414 80.793 89.523 80.793 90.195 80.434 90.602 80.027L90.508 79.871C90.273 80.043 89.977 80.23 89.898 80.23 89.836 80.23 89.867 80.137 89.914 79.902 90.07 79.23 90.227 78.59 90.367 77.996 90.57 77.184 90.305 77.105 90.18 77.105 90.086 77.105 89.961 77.137 89.805 77.199 89.445 77.371 88.836 77.777 88.164 78.574H88.148L88.32 77.84C88.43 77.387 88.445 77.105 88.227 77.105 88.055 77.105 87.477 77.496 87.039 77.934L87.117 78.105C87.32 77.902 87.633 77.699 87.727 77.699 87.789 77.699 87.773 77.84 87.695 78.152L87.398 79.48C87.273 79.996 87.211 80.371 87.102 80.793ZM87.742 80.574" fill="#bd2317"/>
<path d="M91.926 78.652C91.926 78.34 92.004 78.043 92.145 77.793 92.316 77.527 92.52 77.387 92.738 77.387 93.145 77.387 93.316 77.715 93.316 78.168 93.316 78.934 92.816 79.449 92.441 79.449 92.16 79.449 91.926 79.184 91.926 78.652ZM92.301 82.34C91.801 82.34 91.27 82.168 91.27 81.668 91.27 81.324 91.551 80.996 92.16 80.762 92.223 80.793 92.41 80.918 92.676 81.074 93.066 81.293 93.301 81.527 93.301 81.762 93.301 82.152 92.738 82.34 92.301 82.34ZM92.973 77.105C92.691 77.105 92.254 77.277 91.91 77.559 91.504 77.887 91.301 78.371 91.301 78.809 91.301 79.324 91.613 79.652 92.082 79.746 91.707 79.996 91.582 80.09 91.582 80.23 91.582 80.309 91.707 80.48 91.973 80.637 91.066 81.074 90.613 81.449 90.613 81.824 90.613 82.387 91.316 82.652 91.973 82.652 92.488 82.652 93.785 82.324 93.785 81.512 93.785 81.23 93.551 80.902 93.004 80.574 92.66 80.371 92.176 80.137 92.176 79.949 92.176 79.871 92.223 79.824 92.332 79.746 92.816 79.559 93.145 79.387 93.363 79.215 93.598 79.012 93.91 78.637 93.91 78.074 93.91 77.918 93.879 77.777 93.816 77.652 93.879 77.637 93.926 77.637 93.988 77.621 94.145 77.605 94.379 77.48 94.629 77.23L94.582 77.137C94.41 77.215 94.176 77.262 93.551 77.309 93.41 77.184 93.191 77.105 92.973 77.105ZM92.973 77.105" fill="#bd2317"/>
<path d="M96.977 79.715C96.477 80.199 96.07 80.34 95.758 80.34 95.242 80.34 95.148 79.793 95.148 79.387 95.148 79.34 95.164 79.23 95.18 79.184 95.945 78.965 97.305 78.449 97.305 77.715 97.305 77.387 97.039 77.105 96.633 77.105 96.289 77.105 95.805 77.324 95.445 77.605 94.852 78.059 94.523 78.887 94.523 79.621 94.523 80.574 95.039 80.793 95.352 80.793 95.617 80.793 96.289 80.699 97.102 79.871ZM95.211 78.949C95.367 78.059 95.742 77.652 95.992 77.512 96.07 77.465 96.18 77.434 96.273 77.434 96.445 77.434 96.68 77.543 96.68 77.84 96.68 78.262 96.336 78.621 95.211 78.949ZM95.211 78.949" fill="#bd2317"/>
<path d="M98.82 77.105C98.617 77.105 98.086 77.496 97.664 77.934L97.758 78.105C97.945 77.918 98.273 77.699 98.367 77.699 98.43 77.699 98.414 77.84 98.32 78.262L98.055 79.527C97.977 79.949 97.883 80.371 97.773 80.793L98.43 80.574C98.461 80.277 98.57 79.746 98.742 78.949 98.852 78.652 98.992 78.355 99.195 78.074 99.414 77.793 99.539 77.73 99.617 77.73 99.695 77.73 99.805 77.777 99.883 77.84 99.945 77.887 100.039 77.887 100.117 77.84 100.195 77.777 100.273 77.684 100.32 77.59 100.367 77.512 100.367 77.387 100.32 77.309 100.258 77.199 100.117 77.105 99.93 77.105 99.727 77.105 99.227 77.59 98.82 78.324H98.805L98.914 77.84C99.008 77.387 99.008 77.105 98.82 77.105ZM98.82 77.105" fill="#bd2317"/>
<path d="M104.613 79.793C104.379 79.98 103.988 80.34 103.535 80.34 103.129 80.34 102.973 79.98 102.973 79.496 102.973 78.949 103.129 78.34 103.379 77.949 103.551 77.652 103.77 77.465 104.004 77.465 104.223 77.465 104.426 77.605 104.566 77.793 104.645 77.902 104.754 77.871 104.848 77.809 104.988 77.715 105.066 77.59 105.066 77.465 105.066 77.309 104.832 77.105 104.535 77.105 104.004 77.105 103.504 77.387 103.176 77.684 102.613 78.184 102.316 79.043 102.316 79.684 102.316 80.387 102.645 80.793 103.129 80.793 103.473 80.793 104.207 80.512 104.738 79.949ZM104.613 79.793" fill="#bd2317"/>
<path d="M106.695 79.73C106.477 79.934 106.086 80.23 105.992 80.23 105.93 80.23 105.914 80.137 105.961 79.965L106.945 75.309C106.977 75.121 106.977 74.98 106.883 74.98 106.82 74.98 106.289 75.168 105.633 75.309V75.465H106.055C106.305 75.465 106.32 75.512 106.242 75.855L105.383 79.996C105.258 80.605 105.367 80.793 105.539 80.793 105.664 80.793 106.445 80.324 106.789 79.902ZM106.695 79.73" fill="#bd2317"/>
<path d="M110.23 77.324C110.152 77.777 110.012 78.355 109.949 78.543 109.762 78.965 108.73 80.293 108.324 80.293 108.105 80.293 108.137 80.027 108.246 79.543L108.668 77.621C108.73 77.309 108.73 77.105 108.512 77.105 108.34 77.105 107.777 77.496 107.324 77.934L107.418 78.105C107.621 77.902 107.934 77.699 108.027 77.699 108.09 77.699 108.059 77.84 107.996 78.152L107.605 79.824C107.418 80.684 107.73 80.793 107.824 80.793 108.043 80.793 108.293 80.652 108.48 80.527 108.98 80.199 109.434 79.652 109.809 79.137H109.824L109.605 80.168C109.512 80.59 109.559 80.793 109.73 80.793 109.84 80.793 110.512 80.434 110.918 80.027L110.824 79.871C110.59 80.043 110.293 80.23 110.215 80.23 110.152 80.23 110.168 80.137 110.23 79.902L110.84 77.105H110.762ZM110.23 77.324" fill="#bd2317"/>
<path d="M112.012 80.793C112.699 80.793 113.402 80.105 113.402 79.48 113.402 79.199 113.324 78.98 112.824 78.652 112.574 78.48 112.23 78.246 112.23 77.996 112.23 77.699 112.449 77.496 112.668 77.496 112.934 77.496 113.152 77.637 113.277 77.809 113.324 77.871 113.418 77.871 113.527 77.777 113.621 77.684 113.652 77.59 113.668 77.48 113.668 77.309 113.371 77.105 113.105 77.105 112.73 77.105 112.355 77.355 112.152 77.527 111.777 77.871 111.746 78.199 111.746 78.355 111.746 78.746 112.152 78.934 112.496 79.199 112.871 79.496 112.934 79.684 112.934 79.887 112.934 80.184 112.668 80.387 112.434 80.387 112.215 80.387 111.965 80.324 111.715 80.027 111.637 79.949 111.574 79.949 111.48 79.996 111.34 80.059 111.246 80.215 111.246 80.324 111.246 80.59 111.715 80.793 112.012 80.793ZM112.012 80.793" fill="#bd2317"/>
<path d="M115.746 79.715C115.559 79.871 115.184 80.262 114.996 80.262 114.918 80.262 114.887 80.074 114.965 79.715L115.434 77.59 116.293 77.559 116.527 77.309H115.496L115.746 76.262 115.684 76.215 115.09 76.699 114.934 77.309H114.387L114.152 77.496 114.215 77.59H114.855L114.355 79.902C114.215 80.512 114.371 80.793 114.527 80.793 114.902 80.793 115.621 80.152 115.887 79.809ZM115.746 79.715" fill="#bd2317"/>
<path d="M118.902 79.715C118.402 80.199 117.996 80.34 117.684 80.34 117.168 80.34 117.074 79.793 117.074 79.387 117.074 79.34 117.09 79.23 117.105 79.184 117.871 78.965 119.23 78.449 119.23 77.715 119.23 77.387 118.965 77.105 118.559 77.105 118.215 77.105 117.73 77.324 117.371 77.605 116.777 78.059 116.449 78.887 116.449 79.621 116.449 80.574 116.965 80.793 117.277 80.793 117.543 80.793 118.215 80.699 119.027 79.871ZM117.137 78.949C117.293 78.059 117.668 77.652 117.918 77.512 117.996 77.465 118.105 77.434 118.199 77.434 118.371 77.434 118.605 77.543 118.605 77.84 118.605 78.262 118.262 78.621 117.137 78.949ZM117.137 78.949" fill="#bd2317"/>
<path d="M120.746 77.105C120.543 77.105 120.012 77.496 119.59 77.934L119.684 78.105C119.871 77.918 120.199 77.699 120.293 77.699 120.355 77.699 120.34 77.84 120.246 78.262L119.98 79.527C119.902 79.949 119.809 80.371 119.699 80.793L120.355 80.574C120.387 80.277 120.496 79.746 120.668 78.949 120.777 78.652 120.918 78.355 121.121 78.074 121.34 77.793 121.465 77.73 121.543 77.73 121.621 77.73 121.73 77.777 121.809 77.84 121.871 77.887 121.965 77.887 122.043 77.84 122.121 77.777 122.199 77.684 122.246 77.59 122.293 77.512 122.293 77.387 122.246 77.309 122.184 77.199 122.043 77.105 121.855 77.105 121.652 77.105 121.152 77.59 120.746 78.324H120.73L120.84 77.84C120.934 77.387 120.934 77.105 120.746 77.105ZM120.746 77.105" fill="#bd2317"/>
<path d="M79.773 76.59 67.363 85.648" fill="#bd2317"/>
<path d="M67.637 85.449 68.93 85.984 68.91 86.031 66.879 86.555C66.242 86.836 65.605 87.117 64.969 87.395 65.43 86.875 65.891 86.352 66.352 85.828L67.469 84.055 67.516 84.047" fill="#bd2317"/>
<path transform="matrix(1,0,0,-1,0,0)" stroke-width=".503" stroke-linecap="butt" stroke-miterlimit="4" stroke-linejoin="miter" fill="none" stroke="#bd2317" d="M79.773-76.59 67.363-85.648"/>
<path d="M67.5 85.547 68.145 85.816 68.137 85.84 67.121 86.102C66.805 86.238 66.484 86.379 66.164 86.52 66.395 86.262 66.625 86 66.855 85.738L67.418 84.852 67.438 84.848" fill="#bd2317"/>
<path d="M12.715 90.68C12.715 91.262 12.242 91.734 11.66 91.734 11.078 91.734 10.605 91.262 10.605 90.68 10.605 90.098 11.078 89.621 11.66 89.621 12.242 89.621 12.715 90.098 12.715 90.68" fill="#211e1e"/>
<path d="M20.949 90.68C20.949 91.262 20.477 91.734 19.895 91.734 19.313 91.734 18.84 91.262 18.84 90.68 18.84 90.098 19.313 89.621 19.895 89.621 20.477 89.621 20.949 90.098 20.949 90.68" fill="#211e1e"/>
<path d="M23.695 90.68C23.695 91.262 23.223 91.734 22.641 91.734 22.059 91.734 21.586 91.262 21.586 90.68 21.586 90.098 22.059 89.621 22.641 89.621 23.223 89.621 23.695 90.098 23.695 90.68" fill="#211e1e"/>
<path d="M37.418 90.68C37.418 91.262 36.945 91.734 36.363 91.734 35.781 91.734 35.309 91.262 35.309 90.68 35.309 90.098 35.781 89.621 36.363 89.621 36.945 89.621 37.418 90.098 37.418 90.68" fill="#211e1e"/>
<path d="M40.164 90.68C40.164 91.262 39.691 91.734 39.109 91.734 38.527 91.734 38.055 91.262 38.055 90.68 38.055 90.098 38.527 89.621 39.109 89.621 39.691 89.621 40.164 90.098 40.164 90.68" fill="#211e1e"/>
<path d="M42.906 90.68C42.906 91.262 42.434 91.734 41.852 91.734 41.273 91.734 40.801 91.262 40.801 90.68 40.801 90.098 41.273 89.621 41.852 89.621 42.434 89.621 42.906 90.098 42.906 90.68" fill="#211e1e"/>
<path d="M45.652 90.68C45.652 91.262 45.18 91.734 44.598 91.734 44.016 91.734 43.543 91.262 43.543 90.68 43.543 90.098 44.016 89.621 44.598 89.621 45.18 89.621 45.652 90.098 45.652 90.68" fill="#211e1e"/>
<path d="M48.398 90.68C48.398 91.262 47.926 91.734 47.344 91.734 46.762 91.734 46.289 91.262 46.289 90.68 46.289 90.098 46.762 89.621 47.344 89.621 47.926 89.621 48.398 90.098 48.398 90.68" fill="#211e1e"/>
<path d="M51.141 90.68C51.141 91.262 50.668 91.734 50.086 91.734 49.504 91.734 49.031 91.262 49.031 90.68 49.031 90.098 49.504 89.621 50.086 89.621 50.668 89.621 51.141 90.098 51.141 90.68" fill="#211e1e"/>
<path d="M53.887 90.68C53.887 91.262 53.418 91.734 52.832 91.734 52.254 91.734 51.777 91.262 51.777 90.68 51.777 90.098 52.254 89.621 52.832 89.621 53.418 89.621 53.887 90.098 53.887 90.68" fill="#211e1e"/>
<path d="M56.633 90.68C56.633 91.262 56.16 91.734 55.578 91.734 54.996 91.734 54.523 91.262 54.523 90.68 54.523 90.098 54.996 89.621 55.578 89.621 56.16 89.621 56.633 90.098 56.633 90.68" fill="#211e1e"/>
<path d="M59.379 90.68C59.379 91.262 58.906 91.734 58.32 91.734 57.742 91.734 57.27 91.262 57.27 90.68 57.27 90.098 57.742 89.621 58.32 89.621 58.906 89.621 59.379 90.098 59.379 90.68" fill="#211e1e"/>
<path d="M65.199 90.68C65.199 91.262 64.73 91.734 64.148 91.734 63.566 91.734 63.094 91.262 63.094 90.68 63.094 90.098 63.566 89.621 64.148 89.621 64.73 89.621 65.199 90.098 65.199 90.68" fill="#211e1e"/>
<path d="M62.293 90.68C62.293 91.262 61.82 91.734 61.238 91.734 60.656 91.734 60.184 91.262 60.184 90.68 60.184 90.098 60.656 89.621 61.238 89.621 61.82 89.621 62.293 90.098 62.293 90.68" fill="#211e1e"/>
<path d="M67.945 90.68C67.945 91.262 67.473 91.734 66.891 91.734 66.309 91.734 65.836 91.262 65.836 90.68 65.836 90.098 66.309 89.621 66.891 89.621 67.473 89.621 67.945 90.098 67.945 90.68" fill="#211e1e"/>
<path d="M70.691 90.68C70.691 91.262 70.219 91.734 69.637 91.734 69.055 91.734 68.582 91.262 68.582 90.68 68.582 90.098 69.055 89.621 69.637 89.621 70.219 89.621 70.691 90.098 70.691 90.68" fill="#211e1e"/>
<path d="M73.438 90.68C73.438 91.262 72.965 91.734 72.383 91.734 71.801 91.734 71.328 91.262 71.328 90.68 71.328 90.098 71.801 89.621 72.383 89.621 72.965 89.621 73.438 90.098 73.438 90.68" fill="#211e1e"/>
<path d="M76.18 90.68C76.18 91.262 75.711 91.734 75.129 91.734 74.547 91.734 74.07 91.262 74.07 90.68 74.07 90.098 74.547 89.621 75.129 89.621 75.711 89.621 76.18 90.098 76.18 90.68" fill="#211e1e"/>
<path d="M78.926 90.68C78.926 91.262 78.453 91.734 77.871 91.734 77.289 91.734 76.816 91.262 76.816 90.68 76.816 90.098 77.289 89.621 77.871 89.621 78.453 89.621 78.926 90.098 78.926 90.68" fill="#211e1e"/>
<path d="M81.672 90.68C81.672 91.262 81.199 91.734 80.617 91.734 80.035 91.734 79.563 91.262 79.563 90.68 79.563 90.098 80.035 89.621 80.617 89.621 81.199 89.621 81.672 90.098 81.672 90.68" fill="#211e1e"/>
<path d="M84.414 90.68C84.414 91.262 83.941 91.734 83.359 91.734 82.781 91.734 82.309 91.262 82.309 90.68 82.309 90.098 82.781 89.621 83.359 89.621 83.941 89.621 84.414 90.098 84.414 90.68" fill="#211e1e"/>
<path d="M87.16 90.68C87.16 91.262 86.688 91.734 86.105 91.734 85.523 91.734 85.051 91.262 85.051 90.68 85.051 90.098 85.523 89.621 86.105 89.621 86.688 89.621 87.16 90.098 87.16 90.68" fill="#211e1e"/>
<path d="M89.906 90.68C89.906 91.262 89.434 91.734 88.852 91.734 88.27 91.734 87.797 91.262 87.797 90.68 87.797 90.098 88.27 89.621 88.852 89.621 89.434 89.621 89.906 90.098 89.906 90.68" fill="#211e1e"/>
<path d="M92.648 90.68C92.648 91.262 92.18 91.734 91.598 91.734 91.016 91.734 90.543 91.262 90.543 90.68 90.543 90.098 91.016 89.621 91.598 89.621 92.18 89.621 92.648 90.098 92.648 90.68" fill="#211e1e"/>
<path d="M95.395 90.68C95.395 91.262 94.922 91.734 94.34 91.734 93.758 91.734 93.285 91.262 93.285 90.68 93.285 90.098 93.758 89.621 94.34 89.621 94.922 89.621 95.395 90.098 95.395 90.68" fill="#211e1e"/>
<path d="M98.141 90.68C98.141 91.262 97.668 91.734 97.086 91.734 96.504 91.734 96.031 91.262 96.031 90.68 96.031 90.098 96.504 89.621 97.086 89.621 97.668 89.621 98.141 90.098 98.141 90.68" fill="#211e1e"/>
<path d="M103.629 90.68C103.629 91.262 103.156 91.734 102.574 91.734 101.992 91.734 101.52 91.262 101.52 90.68 101.52 90.098 101.992 89.621 102.574 89.621 103.156 89.621 103.629 90.098 103.629 90.68" fill="#211e1e"/>
<path d="M111.863 90.68C111.863 91.262 111.395 91.734 110.809 91.734 110.227 91.734 109.754 91.262 109.754 90.68 109.754 90.098 110.227 89.621 110.809 89.621 111.395 89.621 111.863 90.098 111.863 90.68" fill="#211e1e"/>
<path d="M117.355 90.68C117.355 91.262 116.883 91.734 116.301 91.734 115.719 91.734 115.246 91.262 115.246 90.68 115.246 90.098 115.719 89.621 116.301 89.621 116.883 89.621 117.355 90.098 117.355 90.68" fill="#211e1e"/>
<path d="M114.84 24.086C114.84 24.668 114.367 25.141 113.781 25.141 113.203 25.141 112.73 24.668 112.73 24.086 112.73 23.504 113.203 23.031 113.781 23.031 114.367 23.031 114.84 23.504 114.84 24.086" fill="#211e1e"/>
<path d="M114.84 55.957C114.84 56.539 114.367 57.012 113.781 57.012 113.203 57.012 112.73 56.539 112.73 55.957 112.73 55.375 113.203 54.902 113.781 54.902 114.367 54.902 114.84 55.375 114.84 55.957" fill="#211e1e"/>
<path d="M114.84 90.68C114.84 91.262 114.367 91.734 113.781 91.734 113.203 91.734 112.73 91.262 112.73 90.68 112.73 90.098 113.203 89.621 113.781 89.621 114.367 89.621 114.84 90.098 114.84 90.68" fill="#211e1e"/>
<path d="M106.535 24.086C106.535 24.668 106.063 25.141 105.48 25.141 104.898 25.141 104.426 24.668 104.426 24.086 104.426 23.504 104.898 23.031 105.48 23.031 106.063 23.031 106.535 23.504 106.535 24.086" fill="#211e1e"/>
<path d="M106.535 55.957C106.535 56.539 106.063 57.012 105.48 57.012 104.898 57.012 104.426 56.539 104.426 55.957 104.426 55.375 104.898 54.902 105.48 54.902 106.063 54.902 106.535 55.375 106.535 55.957" fill="#211e1e"/>
<path d="M106.535 90.68C106.535 91.262 106.063 91.734 105.48 91.734 104.898 91.734 104.426 91.262 104.426 90.68 104.426 90.098 104.898 89.621 105.48 89.621 106.063 89.621 106.535 90.098 106.535 90.68" fill="#211e1e"/>
<path d="M125.586 90.68C125.586 91.262 125.113 91.734 124.531 91.734 123.953 91.734 123.48 91.262 123.48 90.68 123.48 90.098 123.953 89.621 124.531 89.621 125.113 89.621 125.586 90.098 125.586 90.68" fill="#211e1e"/>
<path d="M133.824 90.68C133.824 91.262 133.352 91.734 132.77 91.734 132.188 91.734 131.715 91.262 131.715 90.68 131.715 90.098 132.188 89.621 132.77 89.621 133.352 89.621 133.824 90.098 133.824 90.68" fill="#211e1e"/>
<path d="M139.313 90.68C139.313 91.262 138.84 91.734 138.258 91.734 137.676 91.734 137.203 91.262 137.203 90.68 137.203 90.098 137.676 89.621 138.258 89.621 138.84 89.621 139.313 90.098 139.313 90.68" fill="#211e1e"/>
<path d="M142.059 90.68C142.059 91.262 141.586 91.734 141.004 91.734 140.422 91.734 139.949 91.262 139.949 90.68 139.949 90.098 140.422 89.621 141.004 89.621 141.586 89.621 142.059 90.098 142.059 90.68" fill="#211e1e"/>
<path d="M155.781 90.68C155.781 91.262 155.309 91.734 154.727 91.734 154.145 91.734 153.672 91.262 153.672 90.68 153.672 90.098 154.145 89.621 154.727 89.621 155.309 89.621 155.781 90.098 155.781 90.68" fill="#211e1e"/>
<path transform="matrix(1,0,0,-1,0,0)" stroke-width=".503" stroke-linecap="butt" stroke-miterlimit="4" stroke-linejoin="miter" fill="none" stroke="#bd2317" d="M61.035-26.699H33.277V-21.664H61.035ZM99.145-93.125H33.867V-88.09H99.145ZM99.145-93.125"/>
<path d="M.25 17.75C.25 18.109 .234 18.484 .219 18.719H.953L1 18.203H1.016C1.266 18.625 1.656 18.797 2.094 18.797 2.875 18.797 3.656 18.188 3.656 16.953 3.672 15.906 3.063 15.203 2.219 15.203 1.719 15.203 1.344 15.422 1.125 15.766H1.109V13.719H.25ZM1.109 16.75C1.109 16.656 1.125 16.578 1.141 16.516 1.234 16.141 1.563 15.891 1.906 15.891 2.484 15.891 2.781 16.375 2.781 16.984 2.781 17.688 2.438 18.109 1.906 18.109 1.531 18.109 1.219 17.859 1.141 17.5 1.125 17.438 1.109 17.375 1.109 17.297ZM1.109 16.75" fill="#bd2317"/>
<path d="M7.277 17.25C7.293 17.172 7.309 17.047 7.309 16.875 7.309 16.125 6.934 15.203 5.824 15.203 4.73 15.203 4.152 16.109 4.152 17.063 4.152 18.109 4.809 18.797 5.918 18.797 6.418 18.797 6.824 18.703 7.121 18.578L6.996 17.984C6.715 18.078 6.434 18.141 6.043 18.141 5.48 18.141 4.996 17.859 4.98 17.25ZM4.98 16.641C5.012 16.281 5.246 15.797 5.777 15.797 6.355 15.797 6.496 16.328 6.496 16.641ZM4.98 16.641" fill="#bd2317"/>
<path d="M8.977 18.719V15.938H9.711V15.281H8.961V15.109C8.961 14.688 9.102 14.328 9.539 14.328 9.695 14.328 9.805 14.359 9.914 14.391L9.961 13.719C9.836 13.688 9.648 13.641 9.414 13.641 9.117 13.641 8.773 13.734 8.523 13.969 8.227 14.25 8.102 14.688 8.102 15.141V15.281H7.633V15.938H8.102V18.719ZM8.977 18.719" fill="#bd2317"/>
<path d="M11.723 15.203C10.691 15.203 9.957 15.906 9.957 17.031 9.957 18.141 10.707 18.797 11.676 18.797 12.551 18.797 13.441 18.234 13.441 16.969 13.441 15.922 12.754 15.203 11.723 15.203ZM11.707 15.844C12.301 15.844 12.535 16.453 12.535 17 12.535 17.688 12.191 18.172 11.707 18.172 11.176 18.172 10.848 17.672 10.848 17 10.848 16.438 11.098 15.844 11.707 15.844ZM11.707 15.844" fill="#bd2317"/>
<path d="M14.148 18.719H15.008V16.938C15.008 16.844 15.023 16.75 15.039 16.672 15.117 16.281 15.398 16.016 15.805 16.016 15.914 16.016 15.992 16.031 16.07 16.047V15.234C15.992 15.219 15.945 15.203 15.867 15.203 15.492 15.203 15.086 15.453 14.914 15.938H14.898L14.867 15.281H14.117C14.133 15.594 14.148 15.922 14.148 16.391ZM14.148 18.719" fill="#bd2317"/>
<path d="M19.5 17.25C19.516 17.172 19.531 17.047 19.531 16.875 19.531 16.125 19.156 15.203 18.047 15.203 16.953 15.203 16.375 16.109 16.375 17.063 16.375 18.109 17.031 18.797 18.141 18.797 18.641 18.797 19.047 18.703 19.344 18.578L19.219 17.984C18.938 18.078 18.656 18.141 18.266 18.141 17.703 18.141 17.219 17.859 17.203 17.25ZM17.203 16.641C17.234 16.281 17.469 15.797 18 15.797 18.578 15.797 18.719 16.328 18.719 16.641ZM17.203 16.641" fill="#bd2317"/>
<path d="M2.906 80.652C2.906 79.902 2.594 79.199 1.5 79.199 .953 79.199 .5 79.355 .25 79.512L.422 80.074C.656 79.918 1 79.824 1.344 79.824 1.953 79.824 2.047 80.199 2.047 80.418V80.48C.781 80.465 0 80.918 0 81.777 0 82.293 .391 82.793 1.078 82.793 1.531 82.793 1.891 82.605 2.094 82.34H2.125L2.188 82.715H2.969C2.922 82.496 2.906 82.199 2.906 81.887ZM2.063 81.512C2.063 81.574 2.063 81.637 2.047 81.699 1.953 81.949 1.719 82.168 1.359 82.168 1.078 82.168 .859 82.012 .859 81.684 .859 81.152 1.453 81.027 2.063 81.043ZM2.063 81.512" fill="#bd2317"/>
<path d="M4.797 82.715V79.934H5.531V79.277H4.781V79.105C4.781 78.684 4.922 78.324 5.359 78.324 5.516 78.324 5.625 78.355 5.734 78.387L5.781 77.715C5.656 77.684 5.469 77.637 5.234 77.637 4.938 77.637 4.594 77.73 4.344 77.965 4.047 78.246 3.922 78.684 3.922 79.137V79.277H3.453V79.934H3.922V82.715ZM4.797 82.715" fill="#bd2317"/>
<path d="M6.309 78.637V79.277H5.824V79.934H6.309V81.543C6.309 81.996 6.387 82.309 6.574 82.512 6.746 82.684 6.996 82.793 7.324 82.793 7.59 82.793 7.824 82.746 7.949 82.699L7.934 82.043C7.84 82.074 7.762 82.074 7.605 82.074 7.277 82.074 7.152 81.871 7.152 81.449V79.934H7.98V79.277H7.152V78.402ZM6.309 78.637" fill="#bd2317"/>
<path d="M11.504 81.246C11.52 81.168 11.535 81.043 11.535 80.871 11.535 80.121 11.16 79.199 10.051 79.199 8.957 79.199 8.379 80.105 8.379 81.059 8.379 82.105 9.035 82.793 10.145 82.793 10.645 82.793 11.051 82.699 11.348 82.574L11.223 81.98C10.941 82.074 10.66 82.137 10.27 82.137 9.707 82.137 9.223 81.855 9.207 81.246ZM9.207 80.637C9.238 80.277 9.473 79.793 10.004 79.793 10.582 79.793 10.723 80.324 10.723 80.637ZM9.207 80.637" fill="#bd2317"/>
<path d="M12.234 82.715H13.094V80.934C13.094 80.84 13.109 80.746 13.125 80.668 13.203 80.277 13.484 80.012 13.891 80.012 14 80.012 14.078 80.027 14.156 80.043V79.23C14.078 79.215 14.031 79.199 13.953 79.199 13.578 79.199 13.172 79.449 13 79.934H12.984L12.953 79.277H12.203C12.219 79.59 12.234 79.918 12.234 80.387ZM12.234 82.715" fill="#bd2317"/>
</g>
</svg>
