<svg xmlns="http://www.w3.org/2000/svg" xmlns:xlink="http://www.w3.org/1999/xlink" xmlns:inkscape="http://www.inkscape.org/namespaces/inkscape" version="1.1" width="279.12" height="217.92" viewBox="0 0 279.12 217.92">
<defs>
<clipPath id="clip_1">
<path transform="matrix(.24,0,0,.24,0,0)" d="M0 0H1162.4999V907.82858H0Z" clip-rule="evenodd"/>
</clipPath>
<clipPath id="clip_2">
<path transform="matrix(.24,0,0,.24,0,0)" d="M0 0H1162.4999V904.8324H0Z" clip-rule="evenodd"/>
</clipPath>
<path id="font_3_19" d="M.041503908 .35327149C.041503908 .43784587 .05021159 .50591537 .06762695 .55747988 .08504232 .6090444 .11092123 .6488139 .14526367 .67678835 .17960613 .70476278 .22281902 .71875 .27490235 .71875 .3133138 .71875 .34700523 .711024 .37597657 .6955719 .4049479 .6801198 .4288737 .6578369 .4477539 .62872317 .46663413 .5996094 .4814453 .56414797 .4921875 .52233889 .5029297 .48053996 .5083008 .42418418 .5083008 .35327149 .5083008 .26934815 .49967448 .2016042 .48242188 .15003968 .46516929 .098475139 .43937174 .058624269 .4050293 .03048706 .37068687 .0023498536 .3273112-.01171875 .27490235-.01171875 .20589192-.01171875 .1516927 .013005574 .11230469 .062454225 .065104167 .12198385 .041503908 .21892293 .041503908 .35327149M.13183594 .35351563C.13183594 .23639934 .14558919 .15845235 .1730957 .11967468 .20060222 .08090719 .23453777 .061523439 .27490235 .061523439 .31526695 .061523439 .34920249 .08098856 .37670899 .11991882 .40421549 .15884908 .41796876 .23671468 .41796876 .35351563 .41796876 .47095744 .40421549 .5489807 .37670899 .58758547 .34920249 .6262004 .3149414 .6455078 .27392579 .6455078 .2335612 .6455078 .20133464 .62847396 .1772461 .5944061 .14697266 .5509288 .13183594 .47063194 .13183594 .35351563Z"/>
<path id="font_3_20" d="M.3725586 0H.28466798V.5600586C.26350913 .5398763 .23575847 .51969406 .20141602 .49951173 .16707357 .47932945 .13623047 .46419273 .10888672 .45410157V.5390625C.15804036 .5621745 .20100911 .59016928 .23779297 .6230469 .2745768 .6559245 .3006185 .6878255 .31591798 .71875H.3725586V0Z"/>
<path id="font_3_21" d="M.50341799 .084472659V0H.030273438C.029622397 .021148682 .033040365 .041483564 .040527345 .06100464 .052571615 .09321085 .07185873 .124928798 .09838867 .15615845 .12491862 .1873881 .1632487 .22350057 .2133789 .26449586 .29117839 .3282369 .34375 .37872825 .37109376 .41596986 .3984375 .45321147 .41210938 .48841859 .41210938 .5215912 .41210938 .5563914 .3996582 .5857442 .37475587 .60964968 .34985353 .6335551 .3173828 .6455078 .27734376 .6455078 .23502605 .6455078 .20117188 .6328125 .17578125 .6074219 .15039063 .58203127 .13753255 .546875 .13720703 .5019531L.046875 .5112457C.053059896 .5787811 .07633463 .630249 .11669922 .6656494 .1570638 .7010498 .21126302 .71875 .27929688 .71875 .34798179 .71875 .40234376 .69970199 .4423828 .66160586 .48242188 .6235097 .5024414 .57629397 .5024414 .5199585 .5024414 .4913025 .49658204 .46313478 .48486329 .43545533 .47314454 .40777589 .45369468 .3786316 .42651368 .34802247 .39933268 .3174235 .35416667 .27542115 .29101563 .22201538 .23828125 .17779541 .20442708 .14779663 .18945313 .13201905 .17447917 .116251628 .16210938 .10040283 .15234375 .084472659H.50341799Z"/>
<path id="font_3_22" d="M.041992189 .19042969 .12988281 .20214844C.13997396 .15234375 .15714519 .11645508 .18139649 .09448242 .20564778 .072509769 .2351888 .061523439 .27001954 .061523439 .3113607 .061523439 .3462728 .07582092 .37475587 .10441589 .40323893 .13301087 .41748048 .1684316 .41748048 .2106781 .41748048 .25098167 .40429688 .2842102 .3779297 .31036378 .3515625 .3365275 .31803385 .34960938 .27734376 .34960938 .2607422 .34960938 .24007161 .34635417 .21533203 .33984376L.22509766 .4169922C.23095703 .41634117 .23567708 .41601563 .23925781 .41601563 .27669273 .41601563 .31038413 .42569987 .34033204 .44506837 .37027995 .46443687 .3852539 .4942932 .3852539 .53463748 .3852539 .56658938 .37434898 .59305319 .35253907 .61402896 .33072917 .63501486 .30257163 .6455078 .2680664 .6455078 .23388672 .6455078 .20540364 .6347656 .18261719 .61328127 .15983074 .5917969 .1451823 .5595703 .13867188 .51660159L.05078125 .53222659C.061523439 .591451 .0859375 .63734439 .12402344 .6699066 .16210938 .7024689 .20947266 .71875 .26611329 .71875 .30517579 .71875 .34114585 .71039327 .37402345 .6936798 .40690104 .67696639 .43204753 .6541646 .4494629 .62527468 .46687828 .59639486 .47558595 .5657247 .47558595 .53326418 .47558595 .5024312 .46728517 .47435508 .4506836 .44903565 .43408204 .4237264 .40950523 .40360514 .37695313 .38867188 .41927085 .37890626 .45214845 .35864259 .47558595 .32788087 .49902345 .29711915 .5107422 .2586263 .5107422 .21240235 .5107422 .14990235 .48795573 .09692383 .4423828 .053466798 .3968099 .010009766 .33919273-.01171875 .26953126-.01171875 .20670574-.01171875 .15454102 .007044474 .11303711 .044570924 .0715332 .082097377 .047851564 .13071697 .041992189 .19042969Z"/>
<path id="font_3_23" d="M.3232422 0V.17138672H.0126953129V.25195313L.33935548 .7158203H.4111328V.25195313H.5078125V.17138672H.4111328V0H.3232422M.3232422 .25195313V.57470706L.099121097 .25195313H.3232422Z"/>
<path id="font_3_24" d="M.041503908 .18847656 .13378906 .19628906C.140625 .15151978 .15649414 .117863979 .18139649 .095321658 .20629883 .07278951 .23632813 .061523439 .27148438 .061523439 .3138021 .061523439 .34960938 .077448528 .37890626 .109298709 .40820313 .14115906 .42285157 .18341573 .42285157 .23606873 .42285157 .28612773 .4087728 .32562257 .38061524 .35455323 .35245768 .3834839 .31559245 .39794923 .27001954 .39794923 .24169922 .39794923 .21614583 .39156596 .19335938 .37879945 .17057292 .36603294 .15266927 .34946696 .13964844 .32910157L.057128908 .33984376 .12646485 .70703127H.48242188V.62402346H.19677735L.15820313 .43115235C.20117188 .46077476 .24625652 .47558595 .29345704 .47558595 .35595704 .47558595 .4086914 .45391337 .45166017 .41056825 .4946289 .36723329 .5161133 .31151835 .5161133 .24342346 .5161133 .17857361 .49723307 .122528079 .45947267 .075286868 .41357423 .017283122 .35091148-.01171875 .27148438-.01171875 .2063802-.01171875 .15323894 .006556193 .11206055 .04310608 .070882167 .07965597 .04736328 .1281128 .041503908 .18847656Z"/>
<path id="font_3_25" d="M.4975586 .5400543 .41015626 .5332031C.40234376 .5675557 .39127604 .59251406 .37695313 .608078 .3531901 .6330312 .32389323 .6455078 .2890625 .6455078 .26106773 .6455078 .23649089 .637736 .21533203 .6221924 .18766277 .602122 .16585286 .57282 .14990235 .5342865 .13395183 .49575297 .12565105 .4408671 .125 .3696289 .14615886 .40185548 .17203777 .42578126 .20263672 .44140626 .23323567 .45703126 .26529948 .46484376 .29882813 .46484376 .35742188 .46484376 .40730796 .44327799 .44848634 .40014649 .4896647 .35701499 .5102539 .30126954 .5102539 .23291016 .5102539 .18798828 .50056967 .14624024 .48120118 .107666019 .46183268 .0690918 .43522135 .03955078 .4013672 .019042969 .36751304-.0014648438 .32910157-.01171875 .2861328-.01171875 .21289063-.01171875 .15315755 .015197754 .106933597 .06903076 .060709638 .12287394 .037597658 .2116038 .037597658 .33522035 .037597658 .47347514 .06315104 .57399496 .11425781 .6367798 .15885417 .6914266 .21891277 .71875 .2944336 .71875 .3507487 .71875 .39689128 .70292159 .43286134 .67126467 .4688314 .6396077 .49039714 .595871 .4975586 .5400543M.13867188 .23287964C.13867188 .20269776 .1451009 .17381287 .15795899 .14622498 .17081706 .118637088 .18880208 .09762064 .21191406 .08317566 .23502605 .068740848 .25927735 .061523439 .28466798 .061523439 .32177735 .061523439 .35367839 .07645162 .3803711 .10630798 .4070638 .13616435 .42041017 .17673238 .42041017 .22801209 .42041017 .27734886 .40722657 .31621299 .38085938 .3446045 .3544922 .3730062 .32128907 .38720704 .28125 .38720704 .24153646 .38720704 .20784505 .3730062 .18017578 .3446045 .15250652 .31621299 .13867188 .27897135 .13867188 .23287964Z"/>
<clipPath id="clip_4">
<path transform="matrix(.24,0,0,.24,0,0)" d="M113.85309 5.9922678H254.67137V62.91881H113.85309Z" clip-rule="evenodd"/>
</clipPath>
<clipPath id="clip_5">
<path transform="matrix(.24,0,0,.24,0,0)" d="M952.77059 5.9922678H1093.5889V62.91881H952.77059Z" clip-rule="evenodd"/>
</clipPath>
</defs>
<g clip-path="url(#clip_1)">
<path transform="matrix(.7190721,0,0,.7190721,0,0)" d="M0 0H388V303H0Z" fill="#ffffff"/>
</g>
<g clip-path="url(#clip_2)">
<path transform="matrix(.7190721,0,0,.7190721,.35953606,.35953606)" d="M21 21H101V61H21Z" fill="#fff2cc"/>
<path transform="matrix(.7190721,0,0,.7190721,.35953606,.35953606)" stroke-width="1" stroke-linecap="butt" stroke-miterlimit="4" stroke-linejoin="miter" fill="none" stroke="#d6b656" d="M21 21H101V61H21Z"/>
<path transform="matrix(.7190721,0,0,.7190721,.35953606,.35953606)" d="M21 61H101V101H21Z" fill="#fff2cc"/>
<path transform="matrix(.7190721,0,0,.7190721,.35953606,.35953606)" stroke-width="1" stroke-linecap="butt" stroke-miterlimit="4" stroke-linejoin="miter" fill="none" stroke="#d6b656" d="M21 61H101V101H21Z"/>
<path transform="matrix(.7190721,0,0,.7190721,.35953606,.35953606)" d="M21 101H101V141H21Z" fill="#fff2cc"/>
<path transform="matrix(.7190721,0,0,.7190721,.35953606,.35953606)" stroke-width="1" stroke-linecap="butt" stroke-miterlimit="4" stroke-linejoin="miter" fill="none" stroke="#d6b656" d="M21 101H101V141H21Z"/>
<path transform="matrix(.7190721,0,0,.7190721,.35953606,.35953606)" d="M21 141H101V181H21Z" fill="#fff2cc"/>
<path transform="matrix(.7190721,0,0,.7190721,.35953606,.35953606)" stroke-width="1" stroke-linecap="butt" stroke-miterlimit="4" stroke-linejoin="miter" fill="none" stroke="#d6b656" d="M21 141H101V181H21Z"/>
<path transform="matrix(.7190721,0,0,.7190721,.35953606,.35953606)" d="M21 181H101V221H21Z" fill="#fff2cc"/>
<path transform="matrix(.7190721,0,0,.7190721,.35953606,.35953606)" stroke-width="1" stroke-linecap="butt" stroke-miterlimit="4" stroke-linejoin="miter" fill="none" stroke="#d6b656" d="M21 181H101V221H21Z"/>
<path transform="matrix(.7190721,0,0,.7190721,.35953606,.35953606)" d="M21 221H101V261H21Z" fill="#fff2cc"/>
<path transform="matrix(.7190721,0,0,.7190721,.35953606,.35953606)" stroke-width="1" stroke-linecap="butt" stroke-miterlimit="4" stroke-linejoin="miter" fill="none" stroke="#d6b656" d="M21 221H101V261H21Z"/>
<path transform="matrix(.7190721,0,0,.7190721,.35953606,.35953606)" d="M21 261H101V301H21Z" fill="#fff2cc"/>
<path transform="matrix(.7190721,0,0,.7190721,.35953606,.35953606)" stroke-width="1" stroke-linecap="butt" stroke-miterlimit="4" stroke-linejoin="miter" fill="none" stroke="#d6b656" d="M21 261H101V301H21Z"/>
<use data-text="0" xlink:href="#font_3_19" transform="matrix(8.628865,0,0,-8.628865,5.864932,33.077318)"/>
<use data-text="1" xlink:href="#font_3_20" transform="matrix(8.628865,0,0,-8.628865,5.864932,61.840204)"/>
<use data-text="2" xlink:href="#font_3_21" transform="matrix(8.628865,0,0,-8.628865,5.864932,90.60309)"/>
<use data-text="3" xlink:href="#font_3_22" transform="matrix(8.628865,0,0,-8.628865,5.864932,119.36597)"/>
<use data-text="4" xlink:href="#font_3_23" transform="matrix(8.628865,0,0,-8.628865,5.864932,148.12886)"/>
<use data-text="5" xlink:href="#font_3_24" transform="matrix(8.628865,0,0,-8.628865,5.864932,176.89174)"/>
<use data-text="6" xlink:href="#font_3_25" transform="matrix(8.628865,0,0,-8.628865,5.864932,205.65462)"/>
<path transform="matrix(.00000000000000004403047,-.7190721,.7190721,.00000000000000004403047,13.842137,72.80605)" d="M51 27.88C62.666669 27.88 68.5 32.253335 68.5 41 68.5 49.753335 62.666669 54.13 51 54.13V27.88Z" fill="#ffffff"/>
<path transform="matrix(.00000000000000004403047,-.7190721,.7190721,.00000000000000004403047,13.842137,72.80605)" stroke-width="1" stroke-linecap="butt" stroke-miterlimit="10" stroke-linejoin="miter" fill="none" stroke="#000000" d="M51 27.88C62.666669 27.88 68.5 32.253335 68.5 41 68.5 49.753335 62.666669 54.13 51 54.13V27.88Z"/>
<path transform="matrix(.00000000000000004403047,-.7190721,.7190721,.00000000000000004403047,-14.920746,101.56893)" d="M51 67.88C62.666669 67.88 68.5 72.253337 68.5 81 68.5 89.753337 62.666669 94.13 51 94.13V67.88Z" fill="#ffffff"/>
<path transform="matrix(.00000000000000004403047,-.7190721,.7190721,.00000000000000004403047,-14.920746,101.56893)" stroke-width="1" stroke-linecap="butt" stroke-miterlimit="10" stroke-linejoin="miter" fill="none" stroke="#000000" d="M51 67.88C62.666669 67.88 68.5 72.253337 68.5 81 68.5 89.753337 62.666669 94.13 51 94.13V67.88Z"/>
<path transform="matrix(.00000000000000004403047,-.7190721,.7190721,.00000000000000004403047,-43.683629,130.33182)" d="M51 107.88C62.666669 107.88 68.5 112.253337 68.5 121 68.5 129.75334 62.666669 134.13 51 134.13V107.88Z" fill="#ffffff"/>
<path transform="matrix(.00000000000000004403047,-.7190721,.7190721,.00000000000000004403047,-43.683629,130.33182)" stroke-width="1" stroke-linecap="butt" stroke-miterlimit="10" stroke-linejoin="miter" fill="none" stroke="#000000" d="M51 107.88C62.666669 107.88 68.5 112.253337 68.5 121 68.5 129.75334 62.666669 134.13 51 134.13V107.88Z"/>
<path transform="matrix(.00000000000000004403047,-.7190721,.7190721,.00000000000000004403047,-72.44651,159.0947)" d="M51 147.88C62.666669 147.88 68.5 152.25334 68.5 161 68.5 169.75334 62.666669 174.13 51 174.13V147.88Z" fill="#ffffff"/>
<path transform="matrix(.00000000000000004403047,-.7190721,.7190721,.00000000000000004403047,-72.44651,159.0947)" stroke-width="1" stroke-linecap="butt" stroke-miterlimit="10" stroke-linejoin="miter" fill="none" stroke="#000000" d="M51 147.88C62.666669 147.88 68.5 152.25334 68.5 161 68.5 169.75334 62.666669 174.13 51 174.13V147.88Z"/>
<path transform="matrix(.00000000000000004403047,-.7190721,.7190721,.00000000000000004403047,-101.2094,187.85758)" d="M51 187.88C62.666669 187.88 68.5 192.25334 68.5 201 68.5 209.75334 62.666669 214.13 51 214.13V187.88Z" fill="#ffffff"/>
<path transform="matrix(.00000000000000004403047,-.7190721,.7190721,.00000000000000004403047,-101.2094,187.85758)" stroke-width="1" stroke-linecap="butt" stroke-miterlimit="10" stroke-linejoin="miter" fill="none" stroke="#000000" d="M51 187.88C62.666669 187.88 68.5 192.25334 68.5 201 68.5 209.75334 62.666669 214.13 51 214.13V187.88Z"/>
<path transform="matrix(.00000000000000004403047,-.7190721,.7190721,.00000000000000004403047,-129.97229,216.62047)" d="M51 227.88C62.666669 227.88 68.5 232.25334 68.5 241 68.5 249.75334 62.666669 254.13 51 254.13V227.88Z" fill="#ffffff"/>
<path transform="matrix(.00000000000000004403047,-.7190721,.7190721,.00000000000000004403047,-129.97229,216.62047)" stroke-width="1" stroke-linecap="butt" stroke-miterlimit="10" stroke-linejoin="miter" fill="none" stroke="#000000" d="M51 227.88C62.666669 227.88 68.5 232.25334 68.5 241 68.5 249.75334 62.666669 254.13 51 254.13V227.88Z"/>
<path transform="matrix(.00000000000000004403047,-.7190721,.7190721,.00000000000000004403047,-158.73517,245.38335)" d="M51 267.88C62.666669 267.88 68.5 272.25334 68.5 281 68.5 289.75334 62.666669 294.13 51 294.13V267.88Z" fill="#ffffff"/>
<path transform="matrix(.00000000000000004403047,-.7190721,.7190721,.00000000000000004403047,-158.73517,245.38335)" stroke-width="1" stroke-linecap="butt" stroke-miterlimit="10" stroke-linejoin="miter" fill="none" stroke="#000000" d="M51 267.88C62.666669 267.88 68.5 272.25334 68.5 281 68.5 289.75334 62.666669 294.13 51 294.13V267.88Z"/>
<path transform="matrix(.7190721,0,0,.7190721,.35953606,.35953606)" d="M301 21H381V61H301Z" fill="#fff2cc"/>
<path transform="matrix(.7190721,0,0,.7190721,.35953606,.35953606)" stroke-width="1" stroke-linecap="butt" stroke-miterlimit="4" stroke-linejoin="miter" fill="none" stroke="#d6b656" d="M301 21H381V61H301Z"/>
<path transform="matrix(.7190721,0,0,.7190721,.35953606,.35953606)" d="M301 61H381V101H301Z" fill="#fff2cc"/>
<path transform="matrix(.7190721,0,0,.7190721,.35953606,.35953606)" stroke-width="1" stroke-linecap="butt" stroke-miterlimit="4" stroke-linejoin="miter" fill="none" stroke="#d6b656" d="M301 61H381V101H301Z"/>
<path transform="matrix(.7190721,0,0,.7190721,.35953606,.35953606)" d="M301 101H381V141H301Z" fill="#fff2cc"/>
<path transform="matrix(.7190721,0,0,.7190721,.35953606,.35953606)" stroke-width="1" stroke-linecap="butt" stroke-miterlimit="4" stroke-linejoin="miter" fill="none" stroke="#d6b656" d="M301 101H381V141H301Z"/>
<path transform="matrix(.7190721,0,0,.7190721,.35953606,.35953606)" d="M301 141H381V181H301Z" fill="#fff2cc"/>
<path transform="matrix(.7190721,0,0,.7190721,.35953606,.35953606)" stroke-width="1" stroke-linecap="butt" stroke-miterlimit="4" stroke-linejoin="miter" fill="none" stroke="#d6b656" d="M301 141H381V181H301Z"/>
<path transform="matrix(.7190721,0,0,.7190721,.35953606,.35953606)" d="M301 181H381V221H301Z" fill="#fff2cc"/>
<path transform="matrix(.7190721,0,0,.7190721,.35953606,.35953606)" stroke-width="1" stroke-linecap="butt" stroke-miterlimit="4" stroke-linejoin="miter" fill="none" stroke="#d6b656" d="M301 181H381V221H301Z"/>
<path transform="matrix(.7190721,0,0,.7190721,.35953606,.35953606)" d="M301 221H381V261H301Z" fill="#fff2cc"/>
<path transform="matrix(.7190721,0,0,.7190721,.35953606,.35953606)" stroke-width="1" stroke-linecap="butt" stroke-miterlimit="4" stroke-linejoin="miter" fill="none" stroke="#d6b656" d="M301 221H381V261H301Z"/>
<path transform="matrix(.7190721,0,0,.7190721,.35953606,.35953606)" d="M301 261H381V301H301Z" fill="#fff2cc"/>
<path transform="matrix(.7190721,0,0,.7190721,.35953606,.35953606)" stroke-width="1" stroke-linecap="butt" stroke-miterlimit="4" stroke-linejoin="miter" fill="none" stroke="#d6b656" d="M301 261H381V301H301Z"/>
<use data-text="0" xlink:href="#font_3_19" transform="matrix(8.628865,0,0,-8.628865,207.20513,33.077318)"/>
<use data-text="1" xlink:href="#font_3_20" transform="matrix(8.628865,0,0,-8.628865,207.20513,61.840204)"/>
<use data-text="2" xlink:href="#font_3_21" transform="matrix(8.628865,0,0,-8.628865,207.20513,90.60309)"/>
<use data-text="3" xlink:href="#font_3_22" transform="matrix(8.628865,0,0,-8.628865,207.20513,119.36597)"/>
<use data-text="4" xlink:href="#font_3_23" transform="matrix(8.628865,0,0,-8.628865,207.20513,148.12886)"/>
<use data-text="5" xlink:href="#font_3_24" transform="matrix(8.628865,0,0,-8.628865,207.20513,176.89174)"/>
<use data-text="6" xlink:href="#font_3_25" transform="matrix(8.628865,0,0,-8.628865,207.20513,205.65462)"/>
<path transform="matrix(.00000000000000004403047,-.7190721,.7190721,.00000000000000004403047,215.18231,274.14625)" d="M331 27.88C342.66667 27.88 348.5 32.253335 348.5 41 348.5 49.753335 342.66667 54.13 331 54.13V27.88Z" fill="#ffffff"/>
<path transform="matrix(.00000000000000004403047,-.7190721,.7190721,.00000000000000004403047,215.18231,274.14625)" stroke-width="1" stroke-linecap="butt" stroke-miterlimit="10" stroke-linejoin="miter" fill="none" stroke="#000000" d="M331 27.88C342.66667 27.88 348.5 32.253335 348.5 41 348.5 49.753335 342.66667 54.13 331 54.13V27.88Z"/>
<path transform="matrix(.00000000000000004403047,-.7190721,.7190721,.00000000000000004403047,186.41944,302.90913)" d="M331 67.88C342.66667 67.88 348.5 72.253337 348.5 81 348.5 89.753337 342.66667 94.13 331 94.13V67.88Z" fill="#ffffff"/>
<path transform="matrix(.00000000000000004403047,-.7190721,.7190721,.00000000000000004403047,186.41944,302.90913)" stroke-width="1" stroke-linecap="butt" stroke-miterlimit="10" stroke-linejoin="miter" fill="none" stroke="#000000" d="M331 67.88C342.66667 67.88 348.5 72.253337 348.5 81 348.5 89.753337 342.66667 94.13 331 94.13V67.88Z"/>
<path transform="matrix(.00000000000000004403047,-.7190721,.7190721,.00000000000000004403047,157.65656,331.672)" d="M331 107.88C342.66667 107.88 348.5 112.253337 348.5 121 348.5 129.75334 342.66667 134.13 331 134.13V107.88Z" fill="#ffffff"/>
<path transform="matrix(.00000000000000004403047,-.7190721,.7190721,.00000000000000004403047,157.65656,331.672)" stroke-width="1" stroke-linecap="butt" stroke-miterlimit="10" stroke-linejoin="miter" fill="none" stroke="#000000" d="M331 107.88C342.66667 107.88 348.5 112.253337 348.5 121 348.5 129.75334 342.66667 134.13 331 134.13V107.88Z"/>
<path transform="matrix(.00000000000000004403047,-.7190721,.7190721,.00000000000000004403047,128.89368,360.43489)" d="M331 147.88C342.66667 147.88 348.5 152.25334 348.5 161 348.5 169.75334 342.66667 174.13 331 174.13V147.88Z" fill="#ffffff"/>
<path transform="matrix(.00000000000000004403047,-.7190721,.7190721,.00000000000000004403047,128.89368,360.43489)" stroke-width="1" stroke-linecap="butt" stroke-miterlimit="10" stroke-linejoin="miter" fill="none" stroke="#000000" d="M331 147.88C342.66667 147.88 348.5 152.25334 348.5 161 348.5 169.75334 342.66667 174.13 331 174.13V147.88Z"/>
<path transform="matrix(.00000000000000004403047,-.7190721,.7190721,.00000000000000004403047,100.13079,389.19779)" d="M331 187.88C342.66667 187.88 348.5 192.25334 348.5 201 348.5 209.75334 342.66667 214.13 331 214.13V187.88Z" fill="#ffffff"/>
<path transform="matrix(.00000000000000004403047,-.7190721,.7190721,.00000000000000004403047,100.13079,389.19779)" stroke-width="1" stroke-linecap="butt" stroke-miterlimit="10" stroke-linejoin="miter" fill="none" stroke="#000000" d="M331 187.88C342.66667 187.88 348.5 192.25334 348.5 201 348.5 209.75334 342.66667 214.13 331 214.13V187.88Z"/>
<path transform="matrix(.00000000000000004403047,-.7190721,.7190721,.00000000000000004403047,71.367908,417.96067)" d="M331 227.88C342.66667 227.88 348.5 232.25334 348.5 241 348.5 249.75334 342.66667 254.13 331 254.13V227.88Z" fill="#ffffff"/>
<path transform="matrix(.00000000000000004403047,-.7190721,.7190721,.00000000000000004403047,71.367908,417.96067)" stroke-width="1" stroke-linecap="butt" stroke-miterlimit="10" stroke-linejoin="miter" fill="none" stroke="#000000" d="M331 227.88C342.66667 227.88 348.5 232.25334 348.5 241 348.5 249.75334 342.66667 254.13 331 254.13V227.88Z"/>
<path transform="matrix(.00000000000000004403047,-.7190721,.7190721,.00000000000000004403047,42.605024,446.72355)" d="M331 267.88C342.66667 267.88 348.5 272.25334 348.5 281 348.5 289.75334 342.66667 294.13 331 294.13V267.88Z" fill="#ffffff"/>
<path transform="matrix(.00000000000000004403047,-.7190721,.7190721,.00000000000000004403047,42.605024,446.72355)" stroke-width="1" stroke-linecap="butt" stroke-miterlimit="10" stroke-linejoin="miter" fill="none" stroke="#000000" d="M331 267.88C342.66667 267.88 348.5 272.25334 348.5 281 348.5 289.75334 342.66667 294.13 331 294.13V267.88Z"/>
</g>
<g clip-path="url(#clip_4)">
<path transform="matrix(.012220706,0,0,-.012732871,27.33392,11.293385)" d="M40 437C27.333333 437 21 439.66667 21 445 21 448.33335 26.333333 467 37 501 47.666669 535 59 568.6667 71 602L88 651C91.333339 663 95.666667 671.6667 101 677H569 659C680.3333 677 693 676.6667 697 676 701 675.3333 703.3333 672.3333 704 667 704 663 698.3333 625 687 553 675.6667 481 669.3333 444.66667 668 444 668 439.33335 661.6667 437 649 437 643 437 639 437 637 437 635 437 633 438.66667 631 442L629 445C629 449 631 464 635 490 639 516 641 536.3333 641 551 641 574.3333 636.6667 592 628 604 619.3333 616 601 624.3333 573 629 569.6667 629.6667 550.3333 630.3333 515 631 484.33335 631 465 630.6667 457 630 449 629.3333 443 626.6667 439 622 438.33335 621.3333 414.66667 528.3334 368 343 321.33335 157.66666 298 63.333333 298 60 298 52 327.33335 47.333333 386 46 407.33335 46 421 45.666669 427 45 433 44.333333 436 41.333333 436 36 436 32.666669 435 28 433 22 430.33335 10 427.33335 3 424 1L422 0C420 0 417.66667 0 415 0 411.66667 0 394.33335 .3333333 363 1 331.66667 1.6666668 286.66667 2 228 2 142 2 87.333339 1.3333334 64 0H49C45 4 43 7 43 9 43 11 43.666669 17 45 27 47.666669 35.666669 51 42 55 46H83 94C147.33335 46 179 49 189 55 189.66667 55.666669 190.33333 56 191 56 194.33333 58 197.66667 64.666667 201 76 204.33333 87.333339 217.66667 139.66666 241 233 252.33333 278.33335 261.66667 315.33335 269 344 315.66667 527.3334 339 621 339 625 339 628.3333 329.33335 630 310 630H279C234.33333 630 205 628 191 624 161 617.3333 137.66667 603.6667 121 583 104.33333 562.3333 86.333339 523.6667 67 467 62.333333 452.33335 59 443.66667 57 441 55 438.33335 50.333333 437 43 437H40Z"/>
<path transform="matrix(.012220706,0,0,-.012732871,27.33392,11.293385)" stroke-width="0" stroke-linecap="butt" stroke-miterlimit="4" stroke-linejoin="miter" fill="none" stroke="#000000" stroke-opacity=".0118" d="M40 437C27.333333 437 21 439.66667 21 445 21 448.33335 26.333333 467 37 501 47.666669 535 59 568.6667 71 602L88 651C91.333339 663 95.666667 671.6667 101 677H569 659C680.3333 677 693 676.6667 697 676 701 675.3333 703.3333 672.3333 704 667 704 663 698.3333 625 687 553 675.6667 481 669.3333 444.66667 668 444 668 439.33335 661.6667 437 649 437 643 437 639 437 637 437 635 437 633 438.66667 631 442L629 445C629 449 631 464 635 490 639 516 641 536.3333 641 551 641 574.3333 636.6667 592 628 604 619.3333 616 601 624.3333 573 629 569.6667 629.6667 550.3333 630.3333 515 631 484.33335 631 465 630.6667 457 630 449 629.3333 443 626.6667 439 622 438.33335 621.3333 414.66667 528.3334 368 343 321.33335 157.66666 298 63.333333 298 60 298 52 327.33335 47.333333 386 46 407.33335 46 421 45.666669 427 45 433 44.333333 436 41.333333 436 36 436 32.666669 435 28 433 22 430.33335 10 427.33335 3 424 1L422 0C420 0 417.66667 0 415 0 411.66667 0 394.33335 .3333333 363 1 331.66667 1.6666668 286.66667 2 228 2 142 2 87.333339 1.3333334 64 0H49C45 4 43 7 43 9 43 11 43.666669 17 45 27 47.666669 35.666669 51 42 55 46H83 94C147.33335 46 179 49 189 55 189.66667 55.666669 190.33333 56 191 56 194.33333 58 197.66667 64.666667 201 76 204.33333 87.333339 217.66667 139.66666 241 233 252.33333 278.33335 261.66667 315.33335 269 344 315.66667 527.3334 339 621 339 625 339 628.3333 329.33335 630 310 630H279C234.33333 630 205 628 191 624 161 617.3333 137.66667 603.6667 121 583 104.33333 562.3333 86.333339 523.6667 67 467 62.333333 452.33335 59 443.66667 57 441 55 438.33335 50.333333 437 43 437H40Z"/>
<path transform="matrix(.008640039,0,0,-.00900214,34.470815,13.203317)" d="M213 578 200 573C190.66667 569.6667 177.33333 566.3333 160 563 142.66667 559.6667 123.333339 557.3333 102 556H83V602H102C133.33333 603.3333 162.33333 608.3333 189 617 215.66667 625.6667 234.33333 633.6667 245 641 255.66667 648.3333 265 655.6667 273 663 274.33335 665 278.33335 666 285 666 291 666 296.66667 664 302 660V361L303 61C307.66667 56.333333 311.66667 53.333333 315 52 318.33335 50.666669 326.33335 49.333333 339 48 351.66667 46.666669 372.33335 46 401 46H427V0H416C402 2 349 3 257 3 166.33333 3 114 2 100 0H88V46H114C128.66667 46 141.33333 46 152 46 162.66667 46 171 46.333333 177 47 183 47.666669 188.33333 48.666669 193 50 197.66667 51.333333 200.33333 52 201 52 201.66667 52 203.66667 53.666669 207 57 210.33333 60.333333 212.33333 61.666669 213 61V578Z"/>
<path transform="matrix(.008640039,0,0,-.00900214,34.470815,13.203317)" stroke-width="0" stroke-linecap="butt" stroke-miterlimit="4" stroke-linejoin="miter" fill="none" stroke="#000000" stroke-opacity=".0078" d="M213 578 200 573C190.66667 569.6667 177.33333 566.3333 160 563 142.66667 559.6667 123.333339 557.3333 102 556H83V602H102C133.33333 603.3333 162.33333 608.3333 189 617 215.66667 625.6667 234.33333 633.6667 245 641 255.66667 648.3333 265 655.6667 273 663 274.33335 665 278.33335 666 285 666 291 666 296.66667 664 302 660V361L303 61C307.66667 56.333333 311.66667 53.333333 315 52 318.33335 50.666669 326.33335 49.333333 339 48 351.66667 46.666669 372.33335 46 401 46H427V0H416C402 2 349 3 257 3 166.33333 3 114 2 100 0H88V46H114C128.66667 46 141.33333 46 152 46 162.66667 46 171 46.333333 177 47 183 47.666669 188.33333 48.666669 193 50 197.66667 51.333333 200.33333 52 201 52 201.66667 52 203.66667 53.666669 207 57 210.33333 60.333333 212.33333 61.666669 213 61V578Z"/>
<path transform="matrix(.012220706,0,0,-.012732871,40.01901,11.293385)" d="M78 35C78 35 78 43.333333 78 60 78 76.66667 83.333339 91 94 103 104.666667 115 119 121 137 121 155.66667 121 172.33333 112.66667 187 96 201.66667 79.33333 209.33333 50 210 8 210-15.333334 207-38 201-60 195-82 188-101 180-117 172-133 163.33333-146.66667 154-158 144.66667-169.33333 136.66667-178.33333 130-185 123.333339-191.66667 119-194.66667 117-194 114.333339-194 110-191 104-185 98-179 95-174.66667 95-172 95-169.33333 98.666667-164 106-156 113.333339-148 121.666667-138 131-126 140.33333-114 149-97.333339 157-76 165-54.666666 170.33333-30.333334 173-3V9L172 8C170.66667 7.3333337 169 6.6666667 167 6 165 5.3333337 163 4.3333337 161 3 159 1.6666666 156 1 152 1 148 1 144 .6666667 140 0 122 0 107.333339 5.666666 96 17L78 35Z"/>
<path transform="matrix(.012220706,0,0,-.012732871,40.01901,11.293385)" stroke-width="0" stroke-linecap="butt" stroke-miterlimit="4" stroke-linejoin="miter" fill="none" stroke="#000000" stroke-opacity=".0118" d="M78 35C78 35 78 43.333333 78 60 78 76.66667 83.333339 91 94 103 104.666667 115 119 121 137 121 155.66667 121 172.33333 112.66667 187 96 201.66667 79.33333 209.33333 50 210 8 210-15.333334 207-38 201-60 195-82 188-101 180-117 172-133 163.33333-146.66667 154-158 144.66667-169.33333 136.66667-178.33333 130-185 123.333339-191.66667 119-194.66667 117-194 114.333339-194 110-191 104-185 98-179 95-174.66667 95-172 95-169.33333 98.666667-164 106-156 113.333339-148 121.666667-138 131-126 140.33333-114 149-97.333339 157-76 165-54.666666 170.33333-30.333334 173-3V9L172 8C170.66667 7.3333337 169 6.6666667 167 6 165 5.3333337 163 4.3333337 161 3 159 1.6666666 156 1 152 1 148 1 144 .6666667 140 0 122 0 107.333339 5.666666 96 17L78 35Z"/>
<path transform="matrix(.012220706,0,0,-.012732871,48.5124,11.293385)" d="M137 683C137.66667 683 161.66666 684.6667 209 688 256.33335 691.3333 280.66667 693.3333 282 694 290 694 294 691 294 685 294 677.6667 282 627.3333 258 534 232.66667 435.3333 220 385 220 383 220 381.66667 222.33333 383.33335 227 388 267.66667 424 311 442 357 442 393 442 422 433 444 415 466 397 477.33335 370.66667 478 336 478 302 465.33335 249.33335 440 178 414.66667 106.666667 402 64 402 50 402.66667 40.666666 404.33335 34.333333 407 31 409.66667 27.666666 414.66667 26 422 26 440.66667 26 458 36 474 56 490 76 503 103.33333 513 138 515 145.33333 517 149.66667 519 151 521 152.33333 526.3333 153 535 153 548.3333 153 555 150.33333 555 145 555 144.33333 553.6667 139.33333 551 130 540.3333 90.666667 523.3333 58.333337 500 33 477.33335 4.333332 450.33335-10 419-10H414C382.66667-10 360-1 346 17 332 35 325 54 325 74 325 84.666667 337 124 361 192 385 260 397.33335 311 398 345 398 384.33335 383.33335 404 354 404H349C293.66667 404 245.66667 371.33335 205 306L198 293 164 158C142.66667 71.33333 130.33333 24 127 16 118.333339-2 103.66667-11 83-11 73.666667-11 65.666667-8 59-2 52.333333 4 48.666669 10 48 16 48 25.333334 72.33333 126.66666 121 320L195 616C195 624.6667 192.66667 630 188 632 183.33333 634 170.33333 635.6667 149 637H128C124 641 122 643.6667 122 645 122 646.3333 122.666667 652.6667 124 664 127.333339 676.6667 131.66667 683 137 683Z"/>
<path transform="matrix(.012220706,0,0,-.012732871,48.5124,11.293385)" stroke-width="0" stroke-linecap="butt" stroke-miterlimit="4" stroke-linejoin="miter" fill="none" stroke="#000000" stroke-opacity=".0118" d="M137 683C137.66667 683 161.66666 684.6667 209 688 256.33335 691.3333 280.66667 693.3333 282 694 290 694 294 691 294 685 294 677.6667 282 627.3333 258 534 232.66667 435.3333 220 385 220 383 220 381.66667 222.33333 383.33335 227 388 267.66667 424 311 442 357 442 393 442 422 433 444 415 466 397 477.33335 370.66667 478 336 478 302 465.33335 249.33335 440 178 414.66667 106.666667 402 64 402 50 402.66667 40.666666 404.33335 34.333333 407 31 409.66667 27.666666 414.66667 26 422 26 440.66667 26 458 36 474 56 490 76 503 103.33333 513 138 515 145.33333 517 149.66667 519 151 521 152.33333 526.3333 153 535 153 548.3333 153 555 150.33333 555 145 555 144.33333 553.6667 139.33333 551 130 540.3333 90.666667 523.3333 58.333337 500 33 477.33335 4.333332 450.33335-10 419-10H414C382.66667-10 360-1 346 17 332 35 325 54 325 74 325 84.666667 337 124 361 192 385 260 397.33335 311 398 345 398 384.33335 383.33335 404 354 404H349C293.66667 404 245.66667 371.33335 205 306L198 293 164 158C142.66667 71.33333 130.33333 24 127 16 118.333339-2 103.66667-11 83-11 73.666667-11 65.666667-8 59-2 52.333333 4 48.666669 10 48 16 48 25.333334 72.33333 126.66666 121 320L195 616C195 624.6667 192.66667 630 188 632 183.33333 634 170.33333 635.6667 149 637H128C124 641 122 643.6667 122 645 122 646.3333 122.666667 652.6667 124 664 127.333339 676.6667 131.66667 683 137 683Z"/>
<path transform="matrix(.008640039,0,0,-.00900214,55.551534,13.203317)" d="M213 578 200 573C190.66667 569.6667 177.33333 566.3333 160 563 142.66667 559.6667 123.333339 557.3333 102 556H83V602H102C133.33333 603.3333 162.33333 608.3333 189 617 215.66667 625.6667 234.33333 633.6667 245 641 255.66667 648.3333 265 655.6667 273 663 274.33335 665 278.33335 666 285 666 291 666 296.66667 664 302 660V361L303 61C307.66667 56.333333 311.66667 53.333333 315 52 318.33335 50.666669 326.33335 49.333333 339 48 351.66667 46.666669 372.33335 46 401 46H427V0H416C402 2 349 3 257 3 166.33333 3 114 2 100 0H88V46H114C128.66667 46 141.33333 46 152 46 162.66667 46 171 46.333333 177 47 183 47.666669 188.33333 48.666669 193 50 197.66667 51.333333 200.33333 52 201 52 201.66667 52 203.66667 53.666669 207 57 210.33333 60.333333 212.33333 61.666669 213 61V578Z"/>
<path transform="matrix(.008640039,0,0,-.00900214,55.551534,13.203317)" stroke-width="0" stroke-linecap="butt" stroke-miterlimit="4" stroke-linejoin="miter" fill="none" stroke="#000000" stroke-opacity=".0078" d="M213 578 200 573C190.66667 569.6667 177.33333 566.3333 160 563 142.66667 559.6667 123.333339 557.3333 102 556H83V602H102C133.33333 603.3333 162.33333 608.3333 189 617 215.66667 625.6667 234.33333 633.6667 245 641 255.66667 648.3333 265 655.6667 273 663 274.33335 665 278.33335 666 285 666 291 666 296.66667 664 302 660V361L303 61C307.66667 56.333333 311.66667 53.333333 315 52 318.33335 50.666669 326.33335 49.333333 339 48 351.66667 46.666669 372.33335 46 401 46H427V0H416C402 2 349 3 257 3 166.33333 3 114 2 100 0H88V46H114C128.66667 46 141.33333 46 152 46 162.66667 46 171 46.333333 177 47 183 47.666669 188.33333 48.666669 193 50 197.66667 51.333333 200.33333 52 201 52 201.66667 52 203.66667 53.666669 207 57 210.33333 60.333333 212.33333 61.666669 213 61V578Z"/>
</g>
<g clip-path="url(#clip_5)">
<path transform="matrix(.012220706,0,0,-.012732871,228.67412,11.293385)" d="M40 437C27.333333 437 21 439.66667 21 445 21 448.33335 26.333333 467 37 501 47.666669 535 59 568.6667 71 602L88 651C91.333339 663 95.666667 671.6667 101 677H569 659C680.3333 677 693 676.6667 697 676 701 675.3333 703.3333 672.3333 704 667 704 663 698.3333 625 687 553 675.6667 481 669.3333 444.66667 668 444 668 439.33335 661.6667 437 649 437 643 437 639 437 637 437 635 437 633 438.66667 631 442L629 445C629 449 631 464 635 490 639 516 641 536.3333 641 551 641 574.3333 636.6667 592 628 604 619.3333 616 601 624.3333 573 629 569.6667 629.6667 550.3333 630.3333 515 631 484.33335 631 465 630.6667 457 630 449 629.3333 443 626.6667 439 622 438.33335 621.3333 414.66667 528.3334 368 343 321.33335 157.66666 298 63.333333 298 60 298 52 327.33335 47.333333 386 46 407.33335 46 421 45.666669 427 45 433 44.333333 436 41.333333 436 36 436 32.666669 435 28 433 22 430.33335 10 427.33335 3 424 1L422 0C420 0 417.66667 0 415 0 411.66667 0 394.33335 .3333333 363 1 331.66667 1.6666668 286.66667 2 228 2 142 2 87.333339 1.3333334 64 0H49C45 4 43 7 43 9 43 11 43.666669 17 45 27 47.666669 35.666669 51 42 55 46H83 94C147.33335 46 179 49 189 55 189.66667 55.666669 190.33333 56 191 56 194.33333 58 197.66667 64.666667 201 76 204.33333 87.333339 217.66667 139.66666 241 233 252.33333 278.33335 261.66667 315.33335 269 344 315.66667 527.3334 339 621 339 625 339 628.3333 329.33335 630 310 630H279C234.33333 630 205 628 191 624 161 617.3333 137.66667 603.6667 121 583 104.33333 562.3333 86.333339 523.6667 67 467 62.333333 452.33335 59 443.66667 57 441 55 438.33335 50.333333 437 43 437H40Z"/>
<path transform="matrix(.012220706,0,0,-.012732871,228.67412,11.293385)" stroke-width="0" stroke-linecap="butt" stroke-miterlimit="4" stroke-linejoin="miter" fill="none" stroke="#000000" stroke-opacity=".0118" d="M40 437C27.333333 437 21 439.66667 21 445 21 448.33335 26.333333 467 37 501 47.666669 535 59 568.6667 71 602L88 651C91.333339 663 95.666667 671.6667 101 677H569 659C680.3333 677 693 676.6667 697 676 701 675.3333 703.3333 672.3333 704 667 704 663 698.3333 625 687 553 675.6667 481 669.3333 444.66667 668 444 668 439.33335 661.6667 437 649 437 643 437 639 437 637 437 635 437 633 438.66667 631 442L629 445C629 449 631 464 635 490 639 516 641 536.3333 641 551 641 574.3333 636.6667 592 628 604 619.3333 616 601 624.3333 573 629 569.6667 629.6667 550.3333 630.3333 515 631 484.33335 631 465 630.6667 457 630 449 629.3333 443 626.6667 439 622 438.33335 621.3333 414.66667 528.3334 368 343 321.33335 157.66666 298 63.333333 298 60 298 52 327.33335 47.333333 386 46 407.33335 46 421 45.666669 427 45 433 44.333333 436 41.333333 436 36 436 32.666669 435 28 433 22 430.33335 10 427.33335 3 424 1L422 0C420 0 417.66667 0 415 0 411.66667 0 394.33335 .3333333 363 1 331.66667 1.6666668 286.66667 2 228 2 142 2 87.333339 1.3333334 64 0H49C45 4 43 7 43 9 43 11 43.666669 17 45 27 47.666669 35.666669 51 42 55 46H83 94C147.33335 46 179 49 189 55 189.66667 55.666669 190.33333 56 191 56 194.33333 58 197.66667 64.666667 201 76 204.33333 87.333339 217.66667 139.66666 241 233 252.33333 278.33335 261.66667 315.33335 269 344 315.66667 527.3334 339 621 339 625 339 628.3333 329.33335 630 310 630H279C234.33333 630 205 628 191 624 161 617.3333 137.66667 603.6667 121 583 104.33333 562.3333 86.333339 523.6667 67 467 62.333333 452.33335 59 443.66667 57 441 55 438.33335 50.333333 437 43 437H40Z"/>
<path transform="matrix(.008640039,0,0,-.00900214,235.81099,13.203317)" d="M109 429C91 429 76.666667 435 66 447 55.333333 459 50 473.66667 50 491 50 538.3333 67.666667 579.3333 103 614 138.33335 648.6667 182.33333 666 235 666 295.66667 666 346.33335 647.3333 387 610 427.66667 572.6667 448.33335 524.3333 449 465 449 436.33335 442.33335 409 429 383 415.66667 357 399.66667 334.33335 381 315 362.33335 295.66667 335.66667 271 301 241 277 220.33333 243.66667 189.66667 201 149L142 93 218 92C322.6667 92 378.33335 93.666667 385 97 389.66667 98.333339 397.66667 128 409 186V189H449V186C448.33335 184 444 153.66667 436 95 428 36.333333 423 5.666667 421 3V0H50V19 31C50 35.666669 52 40.666669 56 46 60 51.333333 70 63 86 81 105.333339 102.333339 122 121 136 137 142 143.66667 153.33333 156 170 174 186.66667 192 198 204.33333 204 211 210 217.66667 219.66667 228.66667 233 244 246.33333 259.33335 255.66667 270.66667 261 278 266.33335 285.33335 274 295.33335 284 308 294 320.66667 301 331.33335 305 340 309 348.66667 314 358.33335 320 369 326 379.66667 330.33335 390.33335 333 401 335.66667 411.66667 338 421.66667 340 431 342 440.33335 343 451.33335 343 464 343 506 331.66667 542.3333 309 573 286.33335 603.6667 254 619 212 619 190 619 170.66667 613.3333 154 602 137.33333 590.6667 125.666667 579.6667 119 569 112.333339 558.3333 109 552 109 550 109 549.3333 110.666667 549 114 549 126 549 138.33333 544.3333 151 535 163.66667 525.6667 170 510.33335 170 489 170 472.33335 164.66667 458.33335 154 447 143.33333 435.66667 128.33333 429.66667 109 429Z"/>
<path transform="matrix(.008640039,0,0,-.00900214,235.81099,13.203317)" stroke-width="0" stroke-linecap="butt" stroke-miterlimit="4" stroke-linejoin="miter" fill="none" stroke="#000000" stroke-opacity=".0078" d="M109 429C91 429 76.666667 435 66 447 55.333333 459 50 473.66667 50 491 50 538.3333 67.666667 579.3333 103 614 138.33335 648.6667 182.33333 666 235 666 295.66667 666 346.33335 647.3333 387 610 427.66667 572.6667 448.33335 524.3333 449 465 449 436.33335 442.33335 409 429 383 415.66667 357 399.66667 334.33335 381 315 362.33335 295.66667 335.66667 271 301 241 277 220.33333 243.66667 189.66667 201 149L142 93 218 92C322.6667 92 378.33335 93.666667 385 97 389.66667 98.333339 397.66667 128 409 186V189H449V186C448.33335 184 444 153.66667 436 95 428 36.333333 423 5.666667 421 3V0H50V19 31C50 35.666669 52 40.666669 56 46 60 51.333333 70 63 86 81 105.333339 102.333339 122 121 136 137 142 143.66667 153.33333 156 170 174 186.66667 192 198 204.33333 204 211 210 217.66667 219.66667 228.66667 233 244 246.33333 259.33335 255.66667 270.66667 261 278 266.33335 285.33335 274 295.33335 284 308 294 320.66667 301 331.33335 305 340 309 348.66667 314 358.33335 320 369 326 379.66667 330.33335 390.33335 333 401 335.66667 411.66667 338 421.66667 340 431 342 440.33335 343 451.33335 343 464 343 506 331.66667 542.3333 309 573 286.33335 603.6667 254 619 212 619 190 619 170.66667 613.3333 154 602 137.33333 590.6667 125.666667 579.6667 119 569 112.333339 558.3333 109 552 109 550 109 549.3333 110.666667 549 114 549 126 549 138.33333 544.3333 151 535 163.66667 525.6667 170 510.33335 170 489 170 472.33335 164.66667 458.33335 154 447 143.33333 435.66667 128.33333 429.66667 109 429Z"/>
<path transform="matrix(.012220706,0,0,-.012732871,241.3592,11.293385)" d="M78 35C78 35 78 43.333333 78 60 78 76.66667 83.333339 91 94 103 104.666667 115 119 121 137 121 155.66667 121 172.33333 112.66667 187 96 201.66667 79.33333 209.33333 50 210 8 210-15.333334 207-38 201-60 195-82 188-101 180-117 172-133 163.33333-146.66667 154-158 144.66667-169.33333 136.66667-178.33333 130-185 123.333339-191.66667 119-194.66667 117-194 114.333339-194 110-191 104-185 98-179 95-174.66667 95-172 95-169.33333 98.666667-164 106-156 113.333339-148 121.666667-138 131-126 140.33333-114 149-97.333339 157-76 165-54.666666 170.33333-30.333334 173-3V9L172 8C170.66667 7.3333337 169 6.6666667 167 6 165 5.3333337 163 4.3333337 161 3 159 1.6666666 156 1 152 1 148 1 144 .6666667 140 0 122 0 107.333339 5.666666 96 17L78 35Z"/>
<path transform="matrix(.012220706,0,0,-.012732871,241.3592,11.293385)" stroke-width="0" stroke-linecap="butt" stroke-miterlimit="4" stroke-linejoin="miter" fill="none" stroke="#000000" stroke-opacity=".0118" d="M78 35C78 35 78 43.333333 78 60 78 76.66667 83.333339 91 94 103 104.666667 115 119 121 137 121 155.66667 121 172.33333 112.66667 187 96 201.66667 79.33333 209.33333 50 210 8 210-15.333334 207-38 201-60 195-82 188-101 180-117 172-133 163.33333-146.66667 154-158 144.66667-169.33333 136.66667-178.33333 130-185 123.333339-191.66667 119-194.66667 117-194 114.333339-194 110-191 104-185 98-179 95-174.66667 95-172 95-169.33333 98.666667-164 106-156 113.333339-148 121.666667-138 131-126 140.33333-114 149-97.333339 157-76 165-54.666666 170.33333-30.333334 173-3V9L172 8C170.66667 7.3333337 169 6.6666667 167 6 165 5.3333337 163 4.3333337 161 3 159 1.6666666 156 1 152 1 148 1 144 .6666667 140 0 122 0 107.333339 5.666666 96 17L78 35Z"/>
<path transform="matrix(.012220706,0,0,-.012732871,249.85259,11.293385)" d="M137 683C137.66667 683 161.66666 684.6667 209 688 256.33335 691.3333 280.66667 693.3333 282 694 290 694 294 691 294 685 294 677.6667 282 627.3333 258 534 232.66667 435.3333 220 385 220 383 220 381.66667 222.33333 383.33335 227 388 267.66667 424 311 442 357 442 393 442 422 433 444 415 466 397 477.33335 370.66667 478 336 478 302 465.33335 249.33335 440 178 414.66667 106.666667 402 64 402 50 402.66667 40.666666 404.33335 34.333333 407 31 409.66667 27.666666 414.66667 26 422 26 440.66667 26 458 36 474 56 490 76 503 103.33333 513 138 515 145.33333 517 149.66667 519 151 521 152.33333 526.3333 153 535 153 548.3333 153 555 150.33333 555 145 555 144.33333 553.6667 139.33333 551 130 540.3333 90.666667 523.3333 58.333337 500 33 477.33335 4.333332 450.33335-10 419-10H414C382.66667-10 360-1 346 17 332 35 325 54 325 74 325 84.666667 337 124 361 192 385 260 397.33335 311 398 345 398 384.33335 383.33335 404 354 404H349C293.66667 404 245.66667 371.33335 205 306L198 293 164 158C142.66667 71.33333 130.33333 24 127 16 118.333339-2 103.66667-11 83-11 73.666667-11 65.666667-8 59-2 52.333333 4 48.666669 10 48 16 48 25.333334 72.33333 126.66666 121 320L195 616C195 624.6667 192.66667 630 188 632 183.33333 634 170.33333 635.6667 149 637H128C124 641 122 643.6667 122 645 122 646.3333 122.666667 652.6667 124 664 127.333339 676.6667 131.66667 683 137 683Z"/>
<path transform="matrix(.012220706,0,0,-.012732871,249.85259,11.293385)" stroke-width="0" stroke-linecap="butt" stroke-miterlimit="4" stroke-linejoin="miter" fill="none" stroke="#000000" stroke-opacity=".0118" d="M137 683C137.66667 683 161.66666 684.6667 209 688 256.33335 691.3333 280.66667 693.3333 282 694 290 694 294 691 294 685 294 677.6667 282 627.3333 258 534 232.66667 435.3333 220 385 220 383 220 381.66667 222.33333 383.33335 227 388 267.66667 424 311 442 357 442 393 442 422 433 444 415 466 397 477.33335 370.66667 478 336 478 302 465.33335 249.33335 440 178 414.66667 106.666667 402 64 402 50 402.66667 40.666666 404.33335 34.333333 407 31 409.66667 27.666666 414.66667 26 422 26 440.66667 26 458 36 474 56 490 76 503 103.33333 513 138 515 145.33333 517 149.66667 519 151 521 152.33333 526.3333 153 535 153 548.3333 153 555 150.33333 555 145 555 144.33333 553.6667 139.33333 551 130 540.3333 90.666667 523.3333 58.333337 500 33 477.33335 4.333332 450.33335-10 419-10H414C382.66667-10 360-1 346 17 332 35 325 54 325 74 325 84.666667 337 124 361 192 385 260 397.33335 311 398 345 398 384.33335 383.33335 404 354 404H349C293.66667 404 245.66667 371.33335 205 306L198 293 164 158C142.66667 71.33333 130.33333 24 127 16 118.333339-2 103.66667-11 83-11 73.666667-11 65.666667-8 59-2 52.333333 4 48.666669 10 48 16 48 25.333334 72.33333 126.66666 121 320L195 616C195 624.6667 192.66667 630 188 632 183.33333 634 170.33333 635.6667 149 637H128C124 641 122 643.6667 122 645 122 646.3333 122.666667 652.6667 124 664 127.333339 676.6667 131.66667 683 137 683Z"/>
<path transform="matrix(.008640039,0,0,-.00900214,256.89173,13.203317)" d="M109 429C91 429 76.666667 435 66 447 55.333333 459 50 473.66667 50 491 50 538.3333 67.666667 579.3333 103 614 138.33335 648.6667 182.33333 666 235 666 295.66667 666 346.33335 647.3333 387 610 427.66667 572.6667 448.33335 524.3333 449 465 449 436.33335 442.33335 409 429 383 415.66667 357 399.66667 334.33335 381 315 362.33335 295.66667 335.66667 271 301 241 277 220.33333 243.66667 189.66667 201 149L142 93 218 92C322.6667 92 378.33335 93.666667 385 97 389.66667 98.333339 397.66667 128 409 186V189H449V186C448.33335 184 444 153.66667 436 95 428 36.333333 423 5.666667 421 3V0H50V19 31C50 35.666669 52 40.666669 56 46 60 51.333333 70 63 86 81 105.333339 102.333339 122 121 136 137 142 143.66667 153.33333 156 170 174 186.66667 192 198 204.33333 204 211 210 217.66667 219.66667 228.66667 233 244 246.33333 259.33335 255.66667 270.66667 261 278 266.33335 285.33335 274 295.33335 284 308 294 320.66667 301 331.33335 305 340 309 348.66667 314 358.33335 320 369 326 379.66667 330.33335 390.33335 333 401 335.66667 411.66667 338 421.66667 340 431 342 440.33335 343 451.33335 343 464 343 506 331.66667 542.3333 309 573 286.33335 603.6667 254 619 212 619 190 619 170.66667 613.3333 154 602 137.33333 590.6667 125.666667 579.6667 119 569 112.333339 558.3333 109 552 109 550 109 549.3333 110.666667 549 114 549 126 549 138.33333 544.3333 151 535 163.66667 525.6667 170 510.33335 170 489 170 472.33335 164.66667 458.33335 154 447 143.33333 435.66667 128.33333 429.66667 109 429Z"/>
<path transform="matrix(.008640039,0,0,-.00900214,256.89173,13.203317)" stroke-width="0" stroke-linecap="butt" stroke-miterlimit="4" stroke-linejoin="miter" fill="none" stroke="#000000" stroke-opacity=".0078" d="M109 429C91 429 76.666667 435 66 447 55.333333 459 50 473.66667 50 491 50 538.3333 67.666667 579.3333 103 614 138.33335 648.6667 182.33333 666 235 666 295.66667 666 346.33335 647.3333 387 610 427.66667 572.6667 448.33335 524.3333 449 465 449 436.33335 442.33335 409 429 383 415.66667 357 399.66667 334.33335 381 315 362.33335 295.66667 335.66667 271 301 241 277 220.33333 243.66667 189.66667 201 149L142 93 218 92C322.6667 92 378.33335 93.666667 385 97 389.66667 98.333339 397.66667 128 409 186V189H449V186C448.33335 184 444 153.66667 436 95 428 36.333333 423 5.666667 421 3V0H50V19 31C50 35.666669 52 40.666669 56 46 60 51.333333 70 63 86 81 105.333339 102.333339 122 121 136 137 142 143.66667 153.33333 156 170 174 186.66667 192 198 204.33333 204 211 210 217.66667 219.66667 228.66667 233 244 246.33333 259.33335 255.66667 270.66667 261 278 266.33335 285.33335 274 295.33335 284 308 294 320.66667 301 331.33335 305 340 309 348.66667 314 358.33335 320 369 326 379.66667 330.33335 390.33335 333 401 335.66667 411.66667 338 421.66667 340 431 342 440.33335 343 451.33335 343 464 343 506 331.66667 542.3333 309 573 286.33335 603.6667 254 619 212 619 190 619 170.66667 613.3333 154 602 137.33333 590.6667 125.666667 579.6667 119 569 112.333339 558.3333 109 552 109 550 109 549.3333 110.666667 549 114 549 126 549 138.33333 544.3333 151 535 163.66667 525.6667 170 510.33335 170 489 170 472.33335 164.66667 458.33335 154 447 143.33333 435.66667 128.33333 429.66667 109 429Z"/>
</g>
</svg>
