<svg xmlns="http://www.w3.org/2000/svg" xmlns:xlink="http://www.w3.org/1999/xlink" xmlns:inkscape="http://www.inkscape.org/namespaces/inkscape" version="1.1" width="268.06895" height="144.84163" viewBox="0 0 268.06895 144.84163">
<g>
<path transform="matrix(1,0,0,-1,0,0)" d="M175.688-9.656H216.188V-23.156H175.688Z" fill="#a6a8ab"/>
<path transform="matrix(1,0,0,-1,0,0)" stroke-width=".374" stroke-linecap="butt" stroke-miterlimit="10" stroke-linejoin="miter" fill="none" stroke="#211e1e" d="M175.688-9.656H216.188V-23.156H175.688Z"/>
<path d="M138.605 77.246C138.605 110.797 107.621 137.996 69.398 137.996 31.176 137.996 .188 110.797 .188 77.246 .188 43.695 31.176 16.496 69.398 16.496 107.621 16.496 138.605 43.695 138.605 77.246" fill="#a6a8ab"/>
<path transform="matrix(1,0,0,-1,0,0)" stroke-width=".374" stroke-linecap="butt" stroke-miterlimit="10" stroke-linejoin="miter" fill="none" stroke="#211e1e" d="M138.605-77.246C138.605-110.797 107.621-137.996 69.398-137.996 31.176-137.996 .188-110.797 .188-77.246 .188-43.695 31.176-16.496 69.398-16.496 107.621-16.496 138.605-43.695 138.605-77.246ZM138.605-77.246"/>
<path d="M121.688 87.328C121.688 107.855 97.512 124.496 67.688 124.496 37.863 124.496 13.688 107.855 13.688 87.328 13.688 66.797 37.863 50.156 67.688 50.156 97.512 50.156 121.688 66.797 121.688 87.328" fill="#e6e6e6"/>
<path transform="matrix(1,0,0,-1,0,0)" stroke-width=".374" stroke-linecap="butt" stroke-miterlimit="10" stroke-linejoin="miter" fill="none" stroke="#211e1e" d="M121.688-87.328C121.688-107.855 97.512-124.496 67.688-124.496 37.863-124.496 13.688-107.855 13.688-87.328 13.688-66.797 37.863-50.156 67.688-50.156 97.512-50.156 121.688-66.797 121.688-87.328ZM121.688-87.328"/>
<path d="M175.688 43.496 168.125 46.918 170.469 44.215 167.406 42.238 175.688 43.496" fill="#211e1e" fill-rule="evenodd"/>
<path d="M170.285 44.035H170.66V44.41L57.801 60.43H57.426V60.055" fill="#211e1e"/>
<path d="M175.688 56.996 168.309 60.777 170.469 57.898 167.406 56.098 175.688 56.996" fill="#211e1e" fill-rule="evenodd"/>
<path d="M170.285 57.715H170.66V58.09L67.883 77.352H67.508V76.977" fill="#211e1e"/>
<path d="M175.688 110.996 167.586 112.977 170.469 110.637 167.766 108.117 175.688 110.996" fill="#211e1e" fill-rule="evenodd"/>
<path d="M94.508 107.398H94.883L170.66 110.457V110.832H170.285L94.508 107.77" fill="#211e1e"/>
<path d="M175.688 85.617 168.125 89.035 170.469 86.336 167.406 84.355 175.688 85.617" fill="#211e1e" fill-rule="evenodd"/>
<path d="M170.285 86.156H170.66V86.531L64.461 100.93H64.086V100.555" fill="#211e1e"/>
<path d="M66.066 100.828C66.066 101.77 65.301 102.535 64.355 102.535 63.414 102.535 62.648 101.77 62.648 100.828 62.648 99.883 63.414 99.117 64.355 99.117 65.301 99.117 66.066 99.883 66.066 100.828" fill="#211e1e"/>
<path transform="matrix(1,0,0,-1,0,0)" stroke-width=".374" stroke-linecap="butt" stroke-miterlimit="10" stroke-linejoin="miter" fill="none" stroke="#211e1e" d="M66.066-100.828C66.066-101.77 65.301-102.535 64.355-102.535 63.414-102.535 62.648-101.77 62.648-100.828 62.648-99.883 63.414-99.117 64.355-99.117 65.301-99.117 66.066-99.883 66.066-100.828ZM66.066-100.828"/>
<path d="M96.309 107.488C96.309 108.43 95.582 109.195 94.688 109.195 93.793 109.195 93.066 108.43 93.066 107.488 93.066 106.543 93.793 105.777 94.688 105.777 95.582 105.777 96.309 106.543 96.309 107.488" fill="#211e1e"/>
<path transform="matrix(1,0,0,-1,0,0)" stroke-width=".374" stroke-linecap="butt" stroke-miterlimit="10" stroke-linejoin="miter" fill="none" stroke="#211e1e" d="M96.309-107.488C96.309-108.43 95.582-109.195 94.688-109.195 93.793-109.195 93.066-108.43 93.066-107.488 93.066-106.543 93.793-105.777 94.688-105.777 95.582-105.777 96.309-106.543 96.309-107.488ZM96.309-107.488"/>
<path d="M59.227 60.328C59.227 61.27 58.461 62.035 57.516 62.035 56.574 62.035 55.809 61.27 55.809 60.328 55.809 59.383 56.574 58.617 57.516 58.617 58.461 58.617 59.227 59.383 59.227 60.328" fill="#211e1e"/>
<path transform="matrix(1,0,0,-1,0,0)" stroke-width=".374" stroke-linecap="butt" stroke-miterlimit="10" stroke-linejoin="miter" fill="none" stroke="#211e1e" d="M59.227-60.328C59.227-61.27 58.461-62.035 57.516-62.035 56.574-62.035 55.809-61.27 55.809-60.328 55.809-59.383 56.574-58.617 57.516-58.617 58.461-58.617 59.227-59.383 59.227-60.328ZM59.227-60.328"/>
<path d="M69.309 77.156C69.309 78.051 68.582 78.777 67.688 78.777 66.793 78.777 66.066 78.051 66.066 77.156 66.066 76.262 66.793 75.535 67.688 75.535 68.582 75.535 69.309 76.262 69.309 77.156" fill="#211e1e"/>
<path transform="matrix(1,0,0,-1,0,0)" stroke-width=".374" stroke-linecap="butt" stroke-miterlimit="10" stroke-linejoin="miter" fill="none" stroke="#211e1e" d="M69.309-77.156C69.309-78.051 68.582-78.777 67.688-78.777 66.793-78.777 66.066-78.051 66.066-77.156 66.066-76.262 66.793-75.535 67.688-75.535 68.582-75.535 69.309-76.262 69.309-77.156ZM69.309-77.156"/>
<path d="M193.332 5.875H195.926V5.734C195.613 5.719 195.395 5.688 195.285 5.656 195.176 5.609 195.129 5.5 195.129 5.328 195.129 5.266 195.145 5.156 195.176 5.063 195.176 4.969 195.207 4.891 195.238 4.797L196.488 .313H197.004C197.363 .313 197.613 .391 197.738 .516 197.863 .656 197.926 .859 197.926 1.125L197.91 1.453 198.066 1.469 198.457 0H193.66L193.285 1.391 193.441 1.406C193.723 .891 193.988 .578 194.223 .469 194.441 .359 194.895 .313 195.582 .313L194.27 5.063C194.191 5.328 194.066 5.531 193.879 5.609 193.77 5.672 193.598 5.719 193.332 5.734ZM193.332 5.875" fill="#211e1e"/>
<path d="M65.633 28.262C65.539 28.574 65.477 28.855 65.43 29.105 65.383 29.371 65.352 29.559 65.352 29.715 65.352 30.168 65.539 30.527 65.914 30.824 66.289 31.105 66.742 31.262 67.273 31.262 67.961 31.262 68.492 31.074 68.867 30.73 69.227 30.371 69.523 29.777 69.742 28.934L70.367 26.668C70.523 26.105 70.664 25.762 70.758 25.621 70.852 25.496 71.039 25.402 71.305 25.34V25.199H69.508V25.34C69.695 25.355 69.852 25.371 69.93 25.418 70.07 25.48 70.148 25.59 70.148 25.762 70.148 25.809 70.133 25.855 70.117 25.934 70.102 25.996 70.086 26.09 70.055 26.215L69.352 28.902C69.164 29.574 68.93 30.074 68.617 30.387 68.32 30.715 67.898 30.871 67.383 30.871 67.164 30.871 66.961 30.824 66.742 30.73 66.367 30.543 66.18 30.23 66.18 29.777 66.18 29.637 66.211 29.402 66.289 29.074 66.352 28.871 66.398 28.652 66.477 28.418L67.148 26.012C67.211 25.73 67.336 25.559 67.523 25.465 67.633 25.402 67.805 25.355 68.055 25.34V25.199H65.586V25.34C65.836 25.355 66.008 25.371 66.117 25.418 66.227 25.465 66.289 25.559 66.289 25.715 66.289 25.793 66.273 25.887 66.258 26.012 66.242 26.074 66.211 26.168 66.18 26.277ZM65.633 28.262" fill="#211e1e"/>
<path d="M35.691 38.531C35.691 39.594 36.051 40.547 36.738 41.375 37.16 41.891 37.551 42.234 37.91 42.406L38.02 42.25C37.363 41.828 36.926 41.172 36.676 40.313 36.551 39.813 36.488 39.188 36.488 38.422 36.488 37.391 36.66 36.563 37.02 35.953 37.207 35.594 37.551 35.234 38.02 34.859L37.941 34.719C37.426 35 36.988 35.375 36.613 35.844 36.004 36.625 35.691 37.516 35.691 38.531ZM35.691 38.531" fill="#211e1e"/>
<path d="M38.363 36.734V36.859C38.566 36.875 38.707 36.906 38.77 36.969 38.863 37.031 38.926 37.188 38.926 37.422V39.703C38.926 40.125 39.035 40.422 39.27 40.609 39.488 40.781 39.738 40.875 39.988 40.875 40.27 40.875 40.535 40.781 40.785 40.609 40.941 40.5 41.129 40.313 41.332 40.078V40.797C41.332 40.813 41.332 40.828 41.332 40.844L41.348 40.859C41.613 40.766 41.785 40.703 41.863 40.672 42.035 40.609 42.16 40.578 42.238 40.547 42.316 40.531 42.441 40.5 42.598 40.453V40.328C42.363 40.344 42.207 40.297 42.145 40.234 42.066 40.156 42.035 40.016 42.035 39.828V36.734H40.613V36.875C40.879 36.891 41.051 36.922 41.145 37 41.223 37.078 41.27 37.219 41.27 37.453V39.844C41.16 39.984 41.051 40.078 40.941 40.156 40.754 40.281 40.566 40.344 40.363 40.344 40.066 40.344 39.863 40.234 39.754 40.016 39.707 39.891 39.676 39.734 39.676 39.531V36.734ZM38.363 36.734" fill="#211e1e"/>
<path d="M42.941 40.797H44.879V40.672C44.676 40.656 44.52 40.625 44.426 40.547 44.332 40.484 44.285 40.344 44.285 40.125V37.672C44.441 37.516 44.582 37.406 44.676 37.344 44.848 37.219 45.02 37.156 45.191 37.156 45.441 37.156 45.613 37.234 45.707 37.406 45.801 37.578 45.848 37.781 45.848 38.031V39.922C45.848 40.219 45.801 40.406 45.723 40.484 45.629 40.578 45.488 40.641 45.27 40.672V40.797H47.145V40.672C46.957 40.672 46.801 40.609 46.723 40.531 46.645 40.422 46.598 40.281 46.598 40.063V38.016C46.598 37.453 46.441 37.047 46.129 36.828 45.957 36.703 45.785 36.656 45.582 36.656 45.348 36.656 45.098 36.734 44.879 36.875 44.723 36.969 44.52 37.141 44.238 37.391V36.75C44.238 36.719 44.238 36.703 44.238 36.688 44.238 36.672 44.223 36.672 44.191 36.672L43.785 36.797C43.348 36.938 43.051 37.031 42.941 37.078V37.219C42.988 37.219 43.004 37.219 43.035 37.219 43.066 37.203 43.098 37.203 43.113 37.203 43.285 37.203 43.41 37.266 43.457 37.375 43.504 37.453 43.52 37.578 43.52 37.766V40C43.52 40.266 43.473 40.438 43.395 40.516 43.301 40.594 43.16 40.641 42.941 40.672ZM42.941 40.797" fill="#211e1e"/>
<path d="M48.02 35.125C48.02 35.25 48.066 35.359 48.16 35.438 48.254 35.531 48.363 35.578 48.488 35.578 48.613 35.578 48.723 35.531 48.801 35.438 48.895 35.359 48.941 35.25 48.941 35.125 48.941 34.984 48.895 34.891 48.801 34.797 48.723 34.703 48.613 34.656 48.488 34.656 48.363 34.656 48.254 34.703 48.16 34.797 48.066 34.891 48.02 34.984 48.02 35.125ZM47.457 40.797H49.598V40.672C49.316 40.641 49.129 40.594 49.051 40.516 48.973 40.422 48.926 40.219 48.926 39.891V36.734C48.926 36.703 48.926 36.688 48.926 36.672 48.895 36.672 48.848 36.688 48.754 36.719 48.566 36.797 48.207 36.922 47.691 37.094L47.504 37.156V37.297C47.645 37.25 47.738 37.234 47.77 37.219 47.801 37.219 47.832 37.219 47.863 37.219 48.004 37.219 48.098 37.281 48.145 37.391 48.16 37.469 48.176 37.609 48.176 37.797V39.875C48.176 40.219 48.129 40.438 48.051 40.516 47.973 40.594 47.77 40.641 47.457 40.672ZM47.457 40.797" fill="#211e1e"/>
<path d="M49.941 36.703V36.844C50.098 36.859 50.191 36.906 50.27 36.953 50.395 37.047 50.504 37.219 50.613 37.484L51.957 40.703C51.988 40.75 52.004 40.797 52.02 40.828 52.051 40.859 52.066 40.875 52.113 40.875 52.129 40.875 52.145 40.875 52.176 40.844 52.176 40.828 52.191 40.781 52.223 40.734L53.488 37.563C53.613 37.266 53.707 37.078 53.77 36.984 53.832 36.906 53.941 36.859 54.082 36.844V36.703H52.832V36.844C52.941 36.859 53.02 36.875 53.098 36.906 53.207 36.938 53.254 37.031 53.254 37.141 53.254 37.203 53.238 37.281 53.207 37.391 53.176 37.5 53.129 37.594 53.098 37.688L52.316 39.641 51.395 37.438C51.363 37.344 51.332 37.281 51.316 37.234 51.301 37.203 51.301 37.156 51.301 37.109 51.301 37.016 51.332 36.938 51.395 36.922 51.457 36.891 51.566 36.859 51.723 36.844V36.703ZM49.941 36.703" fill="#211e1e"/>
<path d="M56.348 36.672C55.785 36.672 55.332 36.891 54.988 37.313 54.629 37.75 54.473 38.25 54.473 38.844 54.473 39.391 54.613 39.859 54.91 40.281 55.207 40.703 55.645 40.906 56.191 40.906 56.676 40.906 57.082 40.75 57.395 40.422 57.738 40.109 57.957 39.766 58.066 39.391L57.926 39.344C57.738 39.641 57.551 39.859 57.332 40.016 57.129 40.188 56.863 40.266 56.566 40.266 56.191 40.266 55.863 40.109 55.582 39.797 55.301 39.484 55.145 39 55.129 38.328H57.895C57.895 37.797 57.738 37.391 57.426 37.109 57.113 36.813 56.754 36.672 56.348 36.672ZM56.098 37C56.426 37 56.676 37.125 56.816 37.391 56.879 37.531 56.941 37.75 56.973 38.047H55.145C55.176 37.797 55.254 37.609 55.332 37.438 55.52 37.141 55.77 37 56.098 37ZM56.098 37" fill="#211e1e"/>
<path d="M58.328 40.797H60.484V40.656C60.219 40.656 60.016 40.609 59.906 40.516 59.781 40.422 59.734 40.234 59.734 39.984V38C59.734 37.828 59.797 37.672 59.953 37.5 60.094 37.328 60.219 37.25 60.328 37.25 60.391 37.25 60.484 37.313 60.594 37.406 60.719 37.5 60.813 37.563 60.922 37.563 61.031 37.563 61.125 37.516 61.203 37.438 61.266 37.344 61.313 37.25 61.313 37.125 61.313 36.984 61.266 36.875 61.156 36.797 61.078 36.703 60.953 36.656 60.797 36.656 60.609 36.656 60.438 36.734 60.266 36.875 60.094 37.031 59.906 37.234 59.719 37.5V36.766C59.719 36.719 59.719 36.688 59.719 36.672 59.719 36.656 59.688 36.641 59.672 36.641 59.516 36.719 59.375 36.781 59.219 36.844 59.156 36.859 59.031 36.906 58.859 36.969 58.688 37.031 58.516 37.094 58.344 37.156V37.297C58.391 37.281 58.453 37.281 58.5 37.266 58.547 37.266 58.594 37.266 58.609 37.266 58.766 37.266 58.859 37.328 58.906 37.438 58.969 37.563 59 37.781 59 38.063V40.047C59 40.281 58.953 40.438 58.859 40.516 58.781 40.578 58.594 40.625 58.328 40.656ZM58.328 40.797" fill="#211e1e"/>
<path d="M61.746 40.828H61.871C61.887 40.797 61.902 40.766 61.934 40.75 61.965 40.719 61.996 40.703 62.027 40.703 62.074 40.703 62.199 40.734 62.418 40.781 62.637 40.844 62.84 40.875 63.012 40.875 63.434 40.875 63.762 40.766 64.027 40.547 64.277 40.328 64.402 40.047 64.402 39.703 64.402 39.25 64.09 38.859 63.48 38.516L62.902 38.203C62.496 38 62.293 37.75 62.293 37.484 62.293 37.313 62.355 37.172 62.48 37.047 62.59 36.922 62.746 36.859 62.949 36.859 63.293 36.859 63.559 37 63.746 37.297 63.84 37.453 63.918 37.672 63.98 37.953H64.105L64.09 36.734H63.98C63.965 36.766 63.934 36.781 63.918 36.797 63.902 36.813 63.855 36.813 63.793 36.813 63.777 36.813 63.668 36.797 63.48 36.734 63.309 36.672 63.137 36.641 62.965 36.641 62.621 36.641 62.324 36.75 62.09 36.969 61.855 37.172 61.73 37.438 61.73 37.766 61.73 38.031 61.824 38.266 61.996 38.469 62.168 38.656 62.434 38.859 62.793 39.047L63.277 39.328C63.465 39.438 63.59 39.547 63.668 39.656 63.73 39.781 63.777 39.891 63.777 40.016 63.777 40.219 63.715 40.359 63.574 40.484 63.449 40.609 63.277 40.672 63.059 40.672 62.668 40.672 62.371 40.516 62.152 40.172 62.059 40 61.949 39.75 61.887 39.406H61.746ZM61.746 40.828" fill="#211e1e"/>
<path d="M66.844 36.672C66.281 36.672 65.828 36.891 65.484 37.313 65.125 37.75 64.969 38.25 64.969 38.844 64.969 39.391 65.109 39.859 65.406 40.281 65.703 40.703 66.141 40.906 66.688 40.906 67.172 40.906 67.578 40.75 67.891 40.422 68.234 40.109 68.453 39.766 68.563 39.391L68.422 39.344C68.234 39.641 68.047 39.859 67.828 40.016 67.625 40.188 67.359 40.266 67.063 40.266 66.688 40.266 66.359 40.109 66.078 39.797 65.797 39.484 65.641 39 65.625 38.328H68.391C68.391 37.797 68.234 37.391 67.922 37.109 67.609 36.813 67.25 36.672 66.844 36.672ZM66.594 37C66.922 37 67.172 37.125 67.313 37.391 67.375 37.531 67.438 37.75 67.469 38.047H65.641C65.672 37.797 65.75 37.609 65.828 37.438 66.016 37.141 66.266 37 66.594 37ZM66.594 37" fill="#211e1e"/>
<path d="M71.246 38.75C71.246 39.391 71.449 39.891 71.84 40.313 72.23 40.719 72.699 40.938 73.262 40.938 73.855 40.938 74.324 40.719 74.699 40.281 75.074 39.859 75.262 39.344 75.262 38.766 75.262 38.141 75.074 37.625 74.684 37.234 74.309 36.859 73.824 36.672 73.246 36.672 72.652 36.672 72.184 36.875 71.809 37.281 71.434 37.688 71.246 38.172 71.246 38.75ZM73.121 36.938C73.543 36.938 73.871 37.156 74.09 37.609 74.324 38.063 74.434 38.531 74.434 39.047 74.434 39.531 74.355 39.922 74.168 40.234 73.996 40.531 73.73 40.688 73.418 40.688 72.996 40.688 72.668 40.453 72.418 40 72.184 39.563 72.074 39.063 72.074 38.547 72.074 37.891 72.215 37.438 72.512 37.156 72.684 37.016 72.887 36.938 73.121 36.938ZM73.121 36.938" fill="#211e1e"/>
<path d="M75.715 40.797H78.059V40.672C77.684 40.641 77.449 40.594 77.355 40.484 77.262 40.406 77.215 40.188 77.215 39.859V37.063H78.324V36.75H77.215V35.703C77.215 35.516 77.23 35.359 77.277 35.234 77.371 35.016 77.512 34.906 77.73 34.906 77.824 34.906 77.918 34.922 77.965 34.969 78.027 35.016 78.074 35.063 78.105 35.125L78.184 35.25C78.277 35.375 78.34 35.469 78.402 35.516 78.465 35.563 78.543 35.594 78.621 35.594 78.715 35.594 78.809 35.563 78.871 35.484 78.949 35.406 78.98 35.313 78.98 35.219 78.98 35.047 78.887 34.906 78.684 34.797 78.465 34.703 78.23 34.656 77.98 34.656 77.34 34.656 76.902 34.953 76.652 35.578 76.527 35.891 76.465 36.281 76.465 36.75H75.715V37.063H76.465V39.859C76.465 40.188 76.418 40.406 76.324 40.5 76.215 40.594 76.012 40.656 75.715 40.672ZM75.715 40.797" fill="#211e1e"/>
<path d="M80.797 40.797H82.906V40.672C82.688 40.672 82.547 40.641 82.453 40.609 82.297 40.531 82.234 40.406 82.234 40.203V38.563L83.594 40.344C83.609 40.391 83.641 40.422 83.656 40.453 83.672 40.469 83.672 40.516 83.672 40.531 83.672 40.578 83.656 40.609 83.609 40.625 83.578 40.641 83.531 40.656 83.484 40.656L83.313 40.672V40.797H85.281V40.672C85.031 40.656 84.813 40.547 84.609 40.375 84.391 40.203 84.078 39.844 83.656 39.313L82.844 38.25 83.125 38.031C83.672 37.5 84.063 37.188 84.266 37.078 84.469 36.969 84.734 36.906 85.063 36.875V36.75H83.219V36.875C83.391 36.891 83.516 36.906 83.578 36.922 83.641 36.938 83.672 36.984 83.672 37.047 83.672 37.078 83.656 37.125 83.625 37.172 83.594 37.219 83.531 37.281 83.453 37.359L82.234 38.438V34.734C82.234 34.719 82.234 34.688 82.219 34.688 82.219 34.672 82.219 34.672 82.188 34.672 82.172 34.672 82.094 34.688 81.969 34.734 81.75 34.813 81.5 34.891 81.188 34.969L80.797 35.078V35.203C80.859 35.188 80.891 35.188 80.938 35.188 80.984 35.188 81.031 35.188 81.078 35.188 81.219 35.188 81.313 35.203 81.391 35.266 81.453 35.313 81.5 35.453 81.5 35.656V40.063C81.5 40.297 81.453 40.453 81.359 40.531 81.266 40.609 81.078 40.656 80.797 40.672ZM80.797 40.797" fill="#211e1e"/>
<path d="M87.344 36.672C86.781 36.672 86.328 36.891 85.984 37.313 85.625 37.75 85.469 38.25 85.469 38.844 85.469 39.391 85.609 39.859 85.906 40.281 86.203 40.703 86.641 40.906 87.188 40.906 87.672 40.906 88.078 40.75 88.391 40.422 88.734 40.109 88.953 39.766 89.063 39.391L88.922 39.344C88.734 39.641 88.547 39.859 88.328 40.016 88.125 40.188 87.859 40.266 87.563 40.266 87.188 40.266 86.859 40.109 86.578 39.797 86.297 39.484 86.141 39 86.125 38.328H88.891C88.891 37.797 88.734 37.391 88.422 37.109 88.109 36.813 87.75 36.672 87.344 36.672ZM87.094 37C87.422 37 87.672 37.125 87.813 37.391 87.875 37.531 87.938 37.75 87.969 38.047H86.141C86.172 37.797 86.25 37.609 86.328 37.438 86.516 37.141 86.766 37 87.094 37ZM87.094 37" fill="#211e1e"/>
<path d="M89.402 36.875C89.543 36.906 89.668 36.938 89.73 37.016 89.809 37.094 89.902 37.219 89.996 37.438L91.371 40.422C91.387 40.453 91.402 40.484 91.418 40.531 91.418 40.578 91.418 40.594 91.418 40.625 91.418 40.75 91.324 41.016 91.152 41.422 90.98 41.813 90.809 42.016 90.652 42.016 90.59 42.016 90.48 41.984 90.324 41.922 90.184 41.875 90.059 41.844 89.996 41.844 89.855 41.844 89.762 41.875 89.668 41.953 89.59 42.031 89.543 42.125 89.543 42.25 89.543 42.422 89.605 42.547 89.762 42.641 89.902 42.719 90.059 42.766 90.215 42.766 90.543 42.766 90.824 42.609 91.043 42.328 91.262 42.047 91.496 41.594 91.73 40.953L93.121 37.297C93.168 37.172 93.215 37.078 93.277 37.016 93.34 36.938 93.434 36.906 93.543 36.875V36.75H92.34V36.875L92.465 36.891C92.559 36.906 92.621 36.922 92.668 36.953 92.73 36.984 92.746 37.047 92.746 37.125 92.746 37.156 92.746 37.219 92.73 37.297 92.699 37.375 92.684 37.438 92.684 37.453L91.84 39.672 90.84 37.469C90.793 37.391 90.762 37.328 90.746 37.281 90.73 37.234 90.73 37.203 90.73 37.156 90.73 37.031 90.793 36.969 90.934 36.922 91.012 36.906 91.121 36.875 91.262 36.875V36.75H89.402ZM89.402 36.875" fill="#211e1e"/>
<path d="M94.246 40.828H94.371C94.387 40.797 94.402 40.766 94.434 40.75 94.465 40.719 94.496 40.703 94.527 40.703 94.574 40.703 94.699 40.734 94.918 40.781 95.137 40.844 95.34 40.875 95.512 40.875 95.934 40.875 96.262 40.766 96.527 40.547 96.777 40.328 96.902 40.047 96.902 39.703 96.902 39.25 96.59 38.859 95.98 38.516L95.402 38.203C94.996 38 94.793 37.75 94.793 37.484 94.793 37.313 94.855 37.172 94.98 37.047 95.09 36.922 95.246 36.859 95.449 36.859 95.793 36.859 96.059 37 96.246 37.297 96.34 37.453 96.418 37.672 96.48 37.953H96.605L96.59 36.734H96.48C96.465 36.766 96.434 36.781 96.418 36.797 96.402 36.813 96.355 36.813 96.293 36.813 96.277 36.813 96.168 36.797 95.98 36.734 95.809 36.672 95.637 36.641 95.465 36.641 95.121 36.641 94.824 36.75 94.59 36.969 94.355 37.172 94.23 37.438 94.23 37.766 94.23 38.031 94.324 38.266 94.496 38.469 94.668 38.656 94.934 38.859 95.293 39.047L95.777 39.328C95.965 39.438 96.09 39.547 96.168 39.656 96.23 39.781 96.277 39.891 96.277 40.016 96.277 40.219 96.215 40.359 96.074 40.484 95.949 40.609 95.777 40.672 95.559 40.672 95.168 40.672 94.871 40.516 94.652 40.172 94.559 40 94.449 39.75 94.387 39.406H94.246ZM94.246 40.828" fill="#211e1e"/>
<path d="M99.84 38.578C99.84 37.578 99.527 36.688 98.918 35.891 98.512 35.359 98.09 34.969 97.621 34.719L97.512 34.859C98.137 35.281 98.559 35.891 98.793 36.625 98.965 37.172 99.043 37.859 99.043 38.688 99.043 39.734 98.871 40.578 98.496 41.203 98.293 41.563 97.965 41.906 97.512 42.25L97.59 42.406C97.762 42.313 97.98 42.172 98.23 41.953 98.621 41.641 98.934 41.297 99.152 40.922 99.387 40.578 99.543 40.219 99.668 39.813 99.777 39.422 99.84 39.016 99.84 38.578ZM99.84 38.578" fill="#211e1e"/>
<path d="M27.789 78.234H30.023V78.094C29.805 78.078 29.664 78.047 29.586 78.016 29.445 77.969 29.383 77.844 29.383 77.688 29.383 77.656 29.383 77.625 29.398 77.594 29.398 77.563 29.398 77.531 29.398 77.5L29.492 77.156 30.023 75.172 30.117 75.188 30.992 76.703C31.133 76.953 31.258 77.188 31.352 77.391 31.445 77.594 31.492 77.734 31.492 77.828 31.492 77.922 31.43 77.984 31.305 78.031 31.211 78.047 31.055 78.078 30.82 78.094V78.234H33.289V78.094C33.039 78.078 32.867 78.047 32.758 77.984 32.648 77.922 32.539 77.797 32.414 77.594L30.852 74.859 33.555 72.828C33.711 72.703 33.867 72.609 33.992 72.563 34.07 72.531 34.148 72.516 34.227 72.5V72.359H32.227V72.5C32.43 72.516 32.57 72.531 32.664 72.563 32.742 72.594 32.773 72.641 32.773 72.734 32.773 72.875 32.57 73.109 32.195 73.422 31.961 73.625 31.664 73.844 31.305 74.109L30.18 74.875H30.117L30.586 73.172C30.664 72.906 30.789 72.719 30.977 72.625 31.086 72.563 31.258 72.516 31.492 72.5V72.359H29.039V72.5C29.289 72.516 29.477 72.531 29.57 72.594 29.68 72.641 29.727 72.75 29.727 72.875 29.727 72.953 29.727 73.047 29.711 73.125 29.695 73.219 29.664 73.328 29.633 73.438L28.523 77.422C28.445 77.703 28.352 77.891 28.227 77.969 28.133 78.031 27.992 78.078 27.789 78.094ZM27.789 78.234" fill="#211e1e"/>
<path d="M18.773 85.688C18.773 86.75 19.133 87.703 19.82 88.531 20.242 89.047 20.633 89.391 20.992 89.563L21.102 89.406C20.445 88.984 20.008 88.328 19.758 87.469 19.633 86.969 19.57 86.344 19.57 85.578 19.57 84.547 19.742 83.719 20.102 83.109 20.289 82.75 20.633 82.391 21.102 82.016L21.023 81.875C20.508 82.156 20.07 82.531 19.695 83 19.086 83.781 18.773 84.672 18.773 85.688ZM18.773 85.688" fill="#211e1e"/>
<path d="M23.941 86.906C23.941 87.078 23.863 87.219 23.676 87.328 23.504 87.438 23.316 87.484 23.129 87.484 22.988 87.484 22.863 87.438 22.738 87.359 22.566 87.234 22.473 87.031 22.473 86.781 22.473 86.438 22.691 86.141 23.113 85.891 23.332 85.75 23.613 85.625 23.941 85.516ZM21.691 87.078C21.691 87.344 21.785 87.578 21.973 87.75 22.16 87.922 22.379 88.016 22.629 88.016 22.863 88.016 23.113 87.938 23.395 87.781 23.535 87.688 23.723 87.547 23.957 87.344 23.957 87.531 24.004 87.688 24.098 87.813 24.191 87.938 24.332 88 24.535 88 24.707 88 24.879 87.953 25.035 87.844 25.145 87.766 25.254 87.688 25.348 87.563V87.328C25.238 87.406 25.16 87.469 25.113 87.484 25.066 87.516 25.02 87.516 24.941 87.516 24.832 87.516 24.754 87.453 24.707 87.328 24.691 87.266 24.676 87.156 24.676 86.984V85.219C24.676 84.844 24.629 84.547 24.52 84.328 24.316 83.969 23.926 83.781 23.363 83.781 22.863 83.781 22.504 83.891 22.238 84.125 21.988 84.344 21.863 84.563 21.863 84.766 21.863 84.859 21.91 84.969 21.973 85.063 22.051 85.141 22.145 85.188 22.27 85.188 22.363 85.188 22.441 85.156 22.504 85.125 22.598 85.063 22.66 84.953 22.66 84.781 22.66 84.766 22.645 84.703 22.645 84.625 22.629 84.531 22.613 84.484 22.613 84.438 22.613 84.313 22.676 84.203 22.816 84.125 22.941 84.031 23.098 84 23.238 84 23.551 84 23.754 84.094 23.863 84.297 23.926 84.422 23.941 84.625 23.941 84.922V85.297C23.129 85.594 22.598 85.844 22.332 86.016 21.91 86.297 21.691 86.641 21.691 87.078ZM21.691 87.078" fill="#211e1e"/>
<path d="M27.594 83.813C27 83.813 26.531 84.031 26.141 84.469 25.75 84.906 25.563 85.422 25.563 86.031 25.563 86.641 25.75 87.141 26.094 87.5 26.453 87.859 26.859 88.031 27.313 88.031 27.766 88.031 28.188 87.844 28.531 87.453 28.719 87.234 28.891 86.969 29.063 86.609L28.938 86.531C28.766 86.781 28.625 86.969 28.484 87.078 28.25 87.281 27.984 87.375 27.672 87.375 27.234 87.375 26.891 87.203 26.641 86.859 26.391 86.5 26.266 86.094 26.266 85.656 26.266 85.188 26.391 84.797 26.609 84.5 26.844 84.203 27.125 84.063 27.453 84.063 27.625 84.063 27.75 84.094 27.844 84.156 27.938 84.219 28 84.328 28.047 84.484L28.094 84.688C28.125 84.828 28.188 84.938 28.25 85 28.344 85.078 28.422 85.109 28.531 85.109 28.672 85.109 28.766 85.063 28.844 84.984 28.906 84.906 28.938 84.813 28.938 84.719 28.938 84.484 28.813 84.281 28.547 84.094 28.281 83.906 27.953 83.813 27.594 83.813ZM27.594 83.813" fill="#211e1e"/>
<path d="M30.746 83.906V82.828C30.746 82.797 30.746 82.781 30.746 82.766 30.73 82.766 30.699 82.766 30.668 82.766 30.34 83.203 30.137 83.484 30.043 83.578 29.965 83.688 29.809 83.828 29.605 83.984 29.543 84.047 29.496 84.078 29.48 84.094 29.465 84.109 29.465 84.141 29.465 84.172 29.465 84.188 29.465 84.188 29.465 84.203 29.48 84.203 29.496 84.219 29.512 84.234H29.98V86.875C29.98 87.172 30.027 87.406 30.09 87.578 30.215 87.875 30.449 88.031 30.793 88.031 30.949 88.031 31.105 87.984 31.277 87.906 31.449 87.813 31.621 87.672 31.762 87.469L31.871 87.328 31.746 87.234C31.652 87.344 31.559 87.422 31.496 87.469 31.402 87.516 31.324 87.547 31.215 87.547 30.996 87.547 30.855 87.453 30.793 87.234 30.746 87.141 30.73 86.969 30.73 86.75L30.746 84.234H31.637V83.906ZM30.746 83.906" fill="#211e1e"/>
<path d="M31.938 83.891V84.016C32.141 84.031 32.281 84.063 32.344 84.125 32.438 84.188 32.5 84.344 32.5 84.578V86.859C32.5 87.281 32.609 87.578 32.844 87.766 33.063 87.938 33.313 88.031 33.563 88.031 33.844 88.031 34.109 87.938 34.359 87.766 34.516 87.656 34.703 87.469 34.906 87.234V87.953C34.906 87.969 34.906 87.984 34.906 88L34.922 88.016C35.188 87.922 35.359 87.859 35.438 87.828 35.609 87.766 35.734 87.734 35.813 87.703 35.891 87.688 36.016 87.656 36.172 87.609V87.484C35.938 87.5 35.781 87.453 35.719 87.391 35.641 87.313 35.609 87.172 35.609 86.984V83.891H34.188V84.031C34.453 84.047 34.625 84.078 34.719 84.156 34.797 84.234 34.844 84.375 34.844 84.609V87C34.734 87.141 34.625 87.234 34.516 87.313 34.328 87.438 34.141 87.5 33.938 87.5 33.641 87.5 33.438 87.391 33.328 87.172 33.281 87.047 33.25 86.891 33.25 86.688V83.891ZM31.938 83.891" fill="#211e1e"/>
<path d="M38.938 86.906C38.938 87.078 38.859 87.219 38.672 87.328 38.5 87.438 38.313 87.484 38.125 87.484 37.984 87.484 37.859 87.438 37.734 87.359 37.563 87.234 37.469 87.031 37.469 86.781 37.469 86.438 37.688 86.141 38.109 85.891 38.328 85.75 38.609 85.625 38.938 85.516ZM36.688 87.078C36.688 87.344 36.781 87.578 36.969 87.75 37.156 87.922 37.375 88.016 37.625 88.016 37.859 88.016 38.109 87.938 38.391 87.781 38.531 87.688 38.719 87.547 38.953 87.344 38.953 87.531 39 87.688 39.094 87.813 39.188 87.938 39.328 88 39.531 88 39.703 88 39.875 87.953 40.031 87.844 40.141 87.766 40.25 87.688 40.344 87.563V87.328C40.234 87.406 40.156 87.469 40.109 87.484 40.063 87.516 40.016 87.516 39.938 87.516 39.828 87.516 39.75 87.453 39.703 87.328 39.688 87.266 39.672 87.156 39.672 86.984V85.219C39.672 84.844 39.625 84.547 39.516 84.328 39.313 83.969 38.922 83.781 38.359 83.781 37.859 83.781 37.5 83.891 37.234 84.125 36.984 84.344 36.859 84.563 36.859 84.766 36.859 84.859 36.906 84.969 36.969 85.063 37.047 85.141 37.141 85.188 37.266 85.188 37.359 85.188 37.438 85.156 37.5 85.125 37.594 85.063 37.656 84.953 37.656 84.781 37.656 84.766 37.641 84.703 37.641 84.625 37.625 84.531 37.609 84.484 37.609 84.438 37.609 84.313 37.672 84.203 37.813 84.125 37.938 84.031 38.094 84 38.234 84 38.547 84 38.75 84.094 38.859 84.297 38.922 84.422 38.938 84.625 38.938 84.922V85.297C38.125 85.594 37.594 85.844 37.328 86.016 36.906 86.297 36.688 86.641 36.688 87.078ZM36.688 87.078" fill="#211e1e"/>
<path d="M40.539 87.953H42.664V87.828C42.383 87.813 42.211 87.75 42.117 87.688 42.039 87.609 41.992 87.453 41.992 87.188V81.922C41.992 81.859 41.992 81.828 41.977 81.813 41.977 81.781 41.961 81.781 41.945 81.781 41.383 81.953 40.914 82.094 40.508 82.203V82.344C40.586 82.328 40.648 82.313 40.695 82.313 40.742 82.297 40.789 82.297 40.836 82.297 41.008 82.297 41.133 82.359 41.195 82.484 41.211 82.547 41.227 82.688 41.227 82.875V87.172C41.227 87.422 41.195 87.578 41.086 87.672 40.992 87.75 40.805 87.797 40.539 87.828ZM40.539 87.953" fill="#211e1e"/>
<path d="M20.902 97.855H23.012V97.73C22.793 97.73 22.652 97.699 22.559 97.668 22.402 97.59 22.34 97.465 22.34 97.262V95.621L23.699 97.402C23.715 97.449 23.746 97.48 23.762 97.512 23.777 97.527 23.777 97.574 23.777 97.59 23.777 97.637 23.762 97.668 23.715 97.684 23.684 97.699 23.637 97.715 23.59 97.715L23.418 97.73V97.855H25.387V97.73C25.137 97.715 24.918 97.605 24.715 97.434 24.496 97.262 24.184 96.902 23.762 96.371L22.949 95.309 23.23 95.09C23.777 94.559 24.168 94.246 24.371 94.137 24.574 94.027 24.84 93.965 25.168 93.934V93.809H23.324V93.934C23.496 93.949 23.621 93.965 23.684 93.98 23.746 93.996 23.777 94.043 23.777 94.105 23.777 94.137 23.762 94.184 23.73 94.23 23.699 94.277 23.637 94.34 23.559 94.418L22.34 95.496V91.793C22.34 91.777 22.34 91.746 22.324 91.746 22.324 91.73 22.324 91.73 22.293 91.73 22.277 91.73 22.199 91.746 22.074 91.793 21.855 91.871 21.605 91.949 21.293 92.027L20.902 92.137V92.262C20.965 92.246 20.996 92.246 21.043 92.246 21.09 92.246 21.137 92.246 21.184 92.246 21.324 92.246 21.418 92.262 21.496 92.324 21.559 92.371 21.605 92.512 21.605 92.715V97.121C21.605 97.355 21.559 97.512 21.465 97.59 21.371 97.668 21.184 97.715 20.902 97.73ZM20.902 97.855" fill="#211e1e"/>
<path d="M27.449 93.73C26.887 93.73 26.434 93.949 26.09 94.371 25.73 94.809 25.574 95.309 25.574 95.902 25.574 96.449 25.715 96.918 26.012 97.34 26.309 97.762 26.746 97.965 27.293 97.965 27.777 97.965 28.184 97.809 28.496 97.48 28.84 97.168 29.059 96.824 29.168 96.449L29.027 96.402C28.84 96.699 28.652 96.918 28.434 97.074 28.23 97.246 27.965 97.324 27.668 97.324 27.293 97.324 26.965 97.168 26.684 96.855 26.402 96.543 26.246 96.059 26.23 95.387H28.996C28.996 94.855 28.84 94.449 28.527 94.168 28.215 93.871 27.855 93.73 27.449 93.73ZM27.199 94.059C27.527 94.059 27.777 94.184 27.918 94.449 27.98 94.59 28.043 94.809 28.074 95.105H26.246C26.277 94.855 26.355 94.668 26.434 94.496 26.621 94.199 26.871 94.059 27.199 94.059ZM27.199 94.059" fill="#211e1e"/>
<path d="M29.508 93.934C29.648 93.965 29.773 93.996 29.836 94.074 29.914 94.152 30.008 94.277 30.102 94.496L31.477 97.48C31.492 97.512 31.508 97.543 31.523 97.59 31.523 97.637 31.523 97.652 31.523 97.684 31.523 97.809 31.43 98.074 31.258 98.48 31.086 98.871 30.914 99.074 30.758 99.074 30.695 99.074 30.586 99.043 30.43 98.98 30.289 98.934 30.164 98.902 30.102 98.902 29.961 98.902 29.867 98.934 29.773 99.012 29.695 99.09 29.648 99.184 29.648 99.309 29.648 99.48 29.711 99.605 29.867 99.699 30.008 99.777 30.164 99.824 30.32 99.824 30.648 99.824 30.93 99.668 31.148 99.387 31.367 99.105 31.602 98.652 31.836 98.012L33.227 94.355C33.273 94.23 33.32 94.137 33.383 94.074 33.445 93.996 33.539 93.965 33.648 93.934V93.809H32.445V93.934L32.57 93.949C32.664 93.965 32.727 93.98 32.773 94.012 32.836 94.043 32.852 94.105 32.852 94.184 32.852 94.215 32.852 94.277 32.836 94.355 32.805 94.434 32.789 94.496 32.789 94.512L31.945 96.73 30.945 94.527C30.898 94.449 30.867 94.387 30.852 94.34 30.836 94.293 30.836 94.262 30.836 94.215 30.836 94.09 30.898 94.027 31.039 93.98 31.117 93.965 31.227 93.934 31.367 93.934V93.809H29.508ZM29.508 93.934" fill="#211e1e"/>
<path d="M34.352 97.887H34.477C34.492 97.855 34.508 97.824 34.539 97.809 34.57 97.777 34.602 97.762 34.633 97.762 34.68 97.762 34.805 97.793 35.023 97.84 35.242 97.902 35.445 97.934 35.617 97.934 36.039 97.934 36.367 97.824 36.633 97.605 36.883 97.387 37.008 97.105 37.008 96.762 37.008 96.309 36.695 95.918 36.086 95.574L35.508 95.262C35.102 95.059 34.898 94.809 34.898 94.543 34.898 94.371 34.961 94.23 35.086 94.105 35.195 93.98 35.352 93.918 35.555 93.918 35.898 93.918 36.164 94.059 36.352 94.355 36.445 94.512 36.523 94.73 36.586 95.012H36.711L36.695 93.793H36.586C36.57 93.824 36.539 93.84 36.523 93.855 36.508 93.871 36.461 93.871 36.398 93.871 36.383 93.871 36.273 93.855 36.086 93.793 35.914 93.73 35.742 93.699 35.57 93.699 35.227 93.699 34.93 93.809 34.695 94.027 34.461 94.23 34.336 94.496 34.336 94.824 34.336 95.09 34.43 95.324 34.602 95.527 34.773 95.715 35.039 95.918 35.398 96.105L35.883 96.387C36.07 96.496 36.195 96.605 36.273 96.715 36.336 96.84 36.383 96.949 36.383 97.074 36.383 97.277 36.32 97.418 36.18 97.543 36.055 97.668 35.883 97.73 35.664 97.73 35.273 97.73 34.977 97.574 34.758 97.23 34.664 97.059 34.555 96.809 34.492 96.465H34.352ZM34.352 97.887" fill="#211e1e"/>
<path d="M39.945 95.637C39.945 94.637 39.633 93.746 39.023 92.949 38.617 92.418 38.195 92.027 37.727 91.777L37.617 91.918C38.242 92.34 38.664 92.949 38.898 93.684 39.07 94.23 39.148 94.918 39.148 95.746 39.148 96.793 38.977 97.637 38.602 98.262 38.398 98.621 38.07 98.965 37.617 99.309L37.695 99.465C37.867 99.371 38.086 99.23 38.336 99.012 38.727 98.699 39.039 98.355 39.258 97.98 39.492 97.637 39.648 97.277 39.773 96.871 39.883 96.48 39.945 96.074 39.945 95.637ZM39.945 95.637" fill="#211e1e"/>
<path d="M225.543 19.219C225.027 19.219 224.668 18.844 224.496 18.094 224.402 17.688 224.34 17.156 224.34 16.5 224.34 15.781 224.387 15.203 224.48 14.781 224.668 13.953 225.012 13.547 225.496 13.547 225.996 13.547 226.34 13.953 226.512 14.734 226.621 15.156 226.668 15.734 226.668 16.453 226.668 17.344 226.574 18.031 226.418 18.5 226.262 18.984 225.965 19.219 225.543 19.219ZM225.527 13.313C224.777 13.313 224.23 13.688 223.871 14.438 223.605 14.984 223.465 15.625 223.465 16.391 223.465 17.344 223.668 18.109 224.059 18.672 224.434 19.203 224.902 19.469 225.48 19.469 226.324 19.469 226.918 18.984 227.262 18 227.449 17.484 227.543 16.938 227.543 16.344 227.543 15.609 227.387 14.953 227.09 14.375 226.715 13.672 226.199 13.313 225.527 13.313ZM225.527 13.313" fill="#211e1e"/>
<path d="M226.582 136.906C226.27 136.906 225.91 137.125 225.504 137.547 225.207 137.859 224.91 138.25 224.582 138.734L225.066 136.938 225.035 136.906C224.379 137.047 223.91 137.156 223.613 137.188V137.344C223.832 137.328 223.988 137.344 224.066 137.359 224.145 137.391 224.191 137.453 224.191 137.578 224.191 137.609 224.191 137.641 224.191 137.656 224.176 137.703 224.176 137.719 224.16 137.766L223.301 140.875H223.988C224.129 140.375 224.254 140 224.348 139.734 224.504 139.297 224.676 138.953 224.848 138.703 225.02 138.422 225.254 138.141 225.535 137.828 225.801 137.531 226.035 137.375 226.238 137.375 226.301 137.375 226.363 137.391 226.395 137.438 226.426 137.469 226.441 137.531 226.441 137.594 226.441 137.625 226.441 137.656 226.426 137.672 226.426 137.703 226.426 137.719 226.426 137.75L225.535 140.875H226.207C226.41 140.156 226.551 139.703 226.613 139.5 226.691 139.297 226.816 139.031 226.988 138.719 227.191 138.422 227.426 138.109 227.691 137.813 227.957 137.516 228.191 137.375 228.395 137.375 228.457 137.375 228.504 137.391 228.535 137.422 228.566 137.469 228.582 137.531 228.582 137.594 228.582 137.609 228.582 137.641 228.582 137.656 228.582 137.688 228.566 137.719 228.566 137.75L227.879 140.203C227.863 140.266 227.863 140.328 227.848 140.375 227.848 140.422 227.848 140.484 227.848 140.531 227.848 140.703 227.895 140.828 227.988 140.906 228.051 140.953 228.129 140.969 228.223 140.969 228.441 140.969 228.645 140.891 228.863 140.703 229.082 140.531 229.285 140.297 229.504 140L229.551 139.938 229.41 139.828C229.238 140.031 229.129 140.156 229.098 140.203 229.051 140.25 229.004 140.297 228.941 140.359 228.879 140.422 228.832 140.469 228.801 140.5 228.754 140.531 228.707 140.531 228.66 140.531 228.598 140.531 228.566 140.516 228.551 140.469 228.52 140.438 228.52 140.391 228.52 140.359L229.207 137.953C229.27 137.719 229.285 137.563 229.285 137.484 229.285 137.297 229.238 137.141 229.113 137.047 229.02 136.953 228.879 136.906 228.738 136.906 228.426 136.906 228.051 137.141 227.613 137.609 227.379 137.875 227.098 138.25 226.785 138.734 226.91 138.359 226.988 138.063 227.035 137.891 227.082 137.719 227.113 137.578 227.113 137.484 227.113 137.25 227.035 137.094 226.895 137 226.801 136.938 226.691 136.906 226.582 136.906ZM226.582 136.906" fill="#211e1e"/>
<path d="M229.672 138.641H234.203V139.063H229.672Z" fill="#211e1e"/>
<path d="M236.844 134.844H236.797L235.188 135.656V135.781C235.297 135.734 235.406 135.688 235.531 135.641 235.641 135.594 235.75 135.578 235.828 135.578 235.938 135.578 236.016 135.625 236.047 135.688 236.094 135.766 236.109 135.875 236.109 136.016V140.078C236.109 140.344 236.047 140.516 235.938 140.594 235.828 140.672 235.594 140.719 235.25 140.734V140.875H237.719V140.75C237.391 140.734 237.172 140.703 237.047 140.641 236.938 140.578 236.875 140.438 236.875 140.203V134.922C236.875 134.891 236.875 134.875 236.875 134.875 236.875 134.859 236.859 134.859 236.844 134.844ZM236.844 134.844" fill="#211e1e"/>
<path d="M99.727 80.488C99.727 81.43 98.961 82.195 98.016 82.195 97.074 82.195 96.309 81.43 96.309 80.488 96.309 79.543 97.074 78.777 98.016 78.777 98.961 78.777 99.727 79.543 99.727 80.488" fill="#211e1e"/>
<path transform="matrix(1,0,0,-1,0,0)" stroke-width=".374" stroke-linecap="butt" stroke-miterlimit="10" stroke-linejoin="miter" fill="none" stroke="#211e1e" d="M99.727-80.488C99.727-81.43 98.961-82.195 98.016-82.195 97.074-82.195 96.309-81.43 96.309-80.488 96.309-79.543 97.074-78.777 98.016-78.777 98.961-78.777 99.727-79.543 99.727-80.488ZM99.727-80.488"/>
<path d="M175.688 82.195 167.586 84.355 170.285 82.016 167.766 79.676 175.688 82.195" fill="#211e1e" fill-rule="evenodd"/>
<path d="M97.926 80.398H98.301L170.48 81.836V82.211H170.105L97.926 80.77" fill="#211e1e"/>
<path transform="matrix(1,0,0,-1,0,0)" d="M175.688-23.156H216.188V-36.656H175.688Z" fill="#a6a8ab"/>
<path transform="matrix(1,0,0,-1,0,0)" stroke-width=".374" stroke-linecap="butt" stroke-miterlimit="10" stroke-linejoin="miter" fill="none" stroke="#211e1e" d="M175.688-23.156H216.188V-36.656H175.688Z"/>
<path transform="matrix(1,0,0,-1,0,0)" d="M175.688-36.656H216.188V-50.156H175.688Z" fill="#e6e6e6"/>
<path transform="matrix(1,0,0,-1,0,0)" stroke-width=".374" stroke-linecap="butt" stroke-miterlimit="10" stroke-linejoin="miter" fill="none" stroke="#211e1e" d="M175.688-36.656H216.188V-50.156H175.688Z"/>
<path transform="matrix(1,0,0,-1,0,0)" d="M175.688-50.156H216.188V-63.656H175.688Z" fill="#e6e6e6"/>
<path transform="matrix(1,0,0,-1,0,0)" stroke-width=".374" stroke-linecap="butt" stroke-miterlimit="10" stroke-linejoin="miter" fill="none" stroke="#211e1e" d="M175.688-50.156H216.188V-63.656H175.688Z"/>
<path transform="matrix(1,0,0,-1,0,0)" d="M175.688-63.656H216.188V-77.156H175.688Z" fill="#a6a8ab"/>
<path transform="matrix(1,0,0,-1,0,0)" stroke-width=".374" stroke-linecap="butt" stroke-miterlimit="10" stroke-linejoin="miter" fill="none" stroke="#211e1e" d="M175.688-63.656H216.188V-77.156H175.688Z"/>
<path transform="matrix(1,0,0,-1,0,0)" d="M175.688-77.156H216.188V-90.656H175.688Z" fill="#e6e6e6"/>
<path transform="matrix(1,0,0,-1,0,0)" stroke-width=".374" stroke-linecap="butt" stroke-miterlimit="10" stroke-linejoin="miter" fill="none" stroke="#211e1e" d="M175.688-77.156H216.188V-90.656H175.688Z"/>
<path transform="matrix(1,0,0,-1,0,0)" d="M175.688-90.656H216.188V-104.156H175.688Z" fill="#a6a8ab"/>
<path transform="matrix(1,0,0,-1,0,0)" stroke-width=".374" stroke-linecap="butt" stroke-miterlimit="10" stroke-linejoin="miter" fill="none" stroke="#211e1e" d="M175.688-90.656H216.188V-104.156H175.688Z"/>
<path transform="matrix(1,0,0,-1,0,0)" d="M175.688-104.156H216.188V-117.656H175.688Z" fill="#e6e6e6"/>
<path transform="matrix(1,0,0,-1,0,0)" stroke-width=".374" stroke-linecap="butt" stroke-miterlimit="10" stroke-linejoin="miter" fill="none" stroke="#211e1e" d="M175.688-104.156H216.188V-117.656H175.688Z"/>
<path transform="matrix(1,0,0,-1,0,0)" d="M175.688-117.656H216.188V-131.156H175.688Z" fill="#a6a8ab"/>
<path transform="matrix(1,0,0,-1,0,0)" stroke-width=".374" stroke-linecap="butt" stroke-miterlimit="10" stroke-linejoin="miter" fill="none" stroke="#211e1e" d="M175.688-117.656H216.188V-131.156H175.688Z"/>
<path transform="matrix(1,0,0,-1,0,0)" d="M175.688-131.156H216.188V-144.656H175.688Z" fill="#a6a8ab"/>
<path transform="matrix(1,0,0,-1,0,0)" stroke-width=".374" stroke-linecap="butt" stroke-miterlimit="10" stroke-linejoin="miter" fill="none" stroke="#211e1e" d="M175.688-131.156H216.188V-144.656H175.688Z"/>
<path d="M48.145 64.734 48.566 63.109 49.02 62.781C49.113 63.047 49.207 63.281 49.285 63.484 49.379 63.688 49.457 63.875 49.52 64 49.691 64.359 49.816 64.594 49.91 64.688 50.004 64.781 50.113 64.828 50.238 64.828 50.426 64.828 50.582 64.75 50.738 64.594 50.879 64.438 51.035 64.188 51.223 63.844L51.082 63.75C50.973 63.953 50.879 64.109 50.816 64.172 50.723 64.297 50.629 64.359 50.551 64.359 50.457 64.359 50.348 64.266 50.254 64.078 50.16 63.891 49.926 63.313 49.535 62.375 50.254 61.734 50.707 61.359 50.895 61.234 51.066 61.094 51.27 61.031 51.504 61.016V60.875H49.848V61.016C50.051 61.031 50.191 61.031 50.254 61.047 50.316 61.078 50.348 61.109 50.348 61.188 50.348 61.297 50.223 61.453 49.988 61.672 49.754 61.875 49.316 62.234 48.66 62.75L49.848 58.641 49.832 58.594C49.816 58.594 49.707 58.609 49.535 58.656 49.363 58.703 49.254 58.719 49.238 58.719 49.145 58.734 49.035 58.75 48.863 58.781 48.723 58.797 48.551 58.828 48.379 58.844V58.984C48.629 58.969 48.785 58.984 48.863 59.016 48.941 59.031 48.973 59.125 48.973 59.25 48.973 59.281 48.973 59.313 48.973 59.328 48.973 59.359 48.957 59.375 48.957 59.406L47.473 64.734ZM48.145 64.734" fill="#211e1e"/>
<path d="M53.273 62.605H53.242L52.039 63.215V63.309C52.117 63.277 52.211 63.246 52.289 63.199 52.383 63.168 52.461 63.168 52.523 63.168 52.602 63.168 52.648 63.184 52.68 63.246 52.711 63.293 52.727 63.371 52.727 63.48V66.48C52.727 66.684 52.68 66.809 52.602 66.871 52.523 66.934 52.352 66.965 52.086 66.98V67.074H53.914V66.98C53.68 66.98 53.508 66.949 53.414 66.902 53.336 66.855 53.289 66.746 53.289 66.574V62.668C53.289 62.652 53.289 62.637 53.289 62.637 53.289 62.621 53.289 62.621 53.273 62.605ZM53.273 62.605" fill="#211e1e"/>
<path d="M54.805 105.234 55.227 103.609 55.68 103.281C55.773 103.547 55.867 103.781 55.945 103.984 56.039 104.188 56.117 104.375 56.18 104.5 56.352 104.859 56.477 105.094 56.57 105.188 56.664 105.281 56.773 105.328 56.898 105.328 57.086 105.328 57.242 105.25 57.398 105.094 57.539 104.938 57.695 104.688 57.883 104.344L57.742 104.25C57.633 104.453 57.539 104.609 57.477 104.672 57.383 104.797 57.289 104.859 57.211 104.859 57.117 104.859 57.008 104.766 56.914 104.578 56.82 104.391 56.586 103.813 56.195 102.875 56.914 102.234 57.367 101.859 57.555 101.734 57.727 101.594 57.93 101.531 58.164 101.516V101.375H56.508V101.516C56.711 101.531 56.852 101.531 56.914 101.547 56.977 101.578 57.008 101.609 57.008 101.688 57.008 101.797 56.883 101.953 56.648 102.172 56.414 102.375 55.977 102.734 55.32 103.25L56.508 99.141 56.492 99.094C56.477 99.094 56.367 99.109 56.195 99.156 56.023 99.203 55.914 99.219 55.898 99.219 55.805 99.234 55.695 99.25 55.523 99.281 55.383 99.297 55.211 99.328 55.039 99.344V99.484C55.289 99.469 55.445 99.484 55.523 99.516 55.602 99.531 55.633 99.625 55.633 99.75 55.633 99.781 55.633 99.813 55.633 99.828 55.633 99.859 55.617 99.875 55.617 99.906L54.133 105.234ZM54.805 105.234" fill="#211e1e"/>
<path d="M58.168 107.574H60.762L61.121 106.668 61.027 106.637C60.934 106.824 60.84 106.949 60.746 106.996 60.668 107.043 60.527 107.074 60.309 107.074H58.824C59.637 106.23 60.168 105.637 60.418 105.309 60.668 104.98 60.777 104.637 60.777 104.293 60.777 103.949 60.668 103.668 60.434 103.434 60.215 103.215 59.918 103.09 59.559 103.09 59.262 103.09 58.98 103.199 58.73 103.387 58.465 103.574 58.277 103.934 58.168 104.434L58.309 104.449C58.402 104.199 58.512 104.027 58.605 103.902 58.777 103.684 59.027 103.574 59.324 103.574 59.559 103.574 59.762 103.668 59.949 103.84 60.121 103.996 60.199 104.246 60.199 104.559 60.199 104.934 60.059 105.309 59.777 105.684 59.496 106.074 58.949 106.668 58.168 107.496ZM58.168 107.574" fill="#211e1e"/>
<path d="M85.223 112.074 85.645 110.449 86.098 110.121C86.191 110.387 86.285 110.621 86.363 110.824 86.457 111.027 86.535 111.215 86.598 111.34 86.77 111.699 86.895 111.934 86.988 112.027 87.082 112.121 87.191 112.168 87.316 112.168 87.504 112.168 87.66 112.09 87.816 111.934 87.957 111.777 88.113 111.527 88.301 111.184L88.16 111.09C88.051 111.293 87.957 111.449 87.895 111.512 87.801 111.637 87.707 111.699 87.629 111.699 87.535 111.699 87.426 111.605 87.332 111.418 87.238 111.23 87.004 110.652 86.613 109.715 87.332 109.074 87.785 108.699 87.973 108.574 88.145 108.434 88.348 108.371 88.582 108.355V108.215H86.926V108.355C87.129 108.371 87.27 108.371 87.332 108.387 87.395 108.418 87.426 108.449 87.426 108.527 87.426 108.637 87.301 108.793 87.066 109.012 86.832 109.215 86.395 109.574 85.738 110.09L86.926 105.98 86.91 105.934C86.895 105.934 86.785 105.949 86.613 105.996 86.441 106.043 86.332 106.059 86.316 106.059 86.223 106.074 86.113 106.09 85.941 106.121 85.801 106.137 85.629 106.168 85.457 106.184V106.324C85.707 106.309 85.863 106.324 85.941 106.355 86.02 106.371 86.051 106.465 86.051 106.59 86.051 106.621 86.051 106.652 86.051 106.668 86.051 106.699 86.035 106.715 86.035 106.746L84.551 112.074ZM85.223 112.074" fill="#211e1e"/>
<path d="M88.902 113.852C88.824 113.852 88.762 113.867 88.73 113.93 88.699 113.977 88.668 114.039 88.668 114.086 88.668 114.18 88.73 114.258 88.84 114.336 88.934 114.414 89.137 114.461 89.402 114.461 89.996 114.461 90.449 114.305 90.777 113.992 91.105 113.68 91.262 113.32 91.262 112.898 91.262 112.555 91.152 112.273 90.902 112.039 90.777 111.93 90.621 111.82 90.418 111.727 90.59 111.602 90.715 111.492 90.809 111.398 90.949 111.227 91.027 111.023 91.027 110.82 91.027 110.57 90.934 110.367 90.762 110.18 90.574 110.008 90.324 109.914 89.996 109.914 89.684 109.914 89.402 110.008 89.168 110.211 88.934 110.398 88.777 110.664 88.684 110.992L88.793 111.023C88.902 110.82 89.012 110.68 89.105 110.586 89.293 110.398 89.496 110.32 89.73 110.32 89.934 110.32 90.121 110.367 90.277 110.508 90.434 110.617 90.512 110.805 90.512 111.039 90.512 111.305 90.418 111.523 90.215 111.68 90.012 111.852 89.73 111.992 89.387 112.117L89.402 112.195C89.434 112.195 89.465 112.195 89.496 112.195 89.512 112.195 89.543 112.195 89.574 112.195 90.043 112.195 90.402 112.336 90.59 112.633 90.715 112.805 90.777 113.023 90.777 113.242 90.777 113.492 90.699 113.711 90.559 113.914 90.402 114.117 90.184 114.227 89.871 114.227 89.73 114.227 89.574 114.164 89.371 114.039 89.184 113.914 89.012 113.852 88.902 113.852ZM88.902 113.852" fill="#211e1e"/>
<path d="M58.223 81.656 58.645 80.031 59.098 79.703C59.191 79.969 59.285 80.203 59.363 80.406 59.457 80.609 59.535 80.797 59.598 80.922 59.77 81.281 59.895 81.516 59.988 81.609 60.082 81.703 60.191 81.75 60.316 81.75 60.504 81.75 60.66 81.672 60.816 81.516 60.957 81.359 61.113 81.109 61.301 80.766L61.16 80.672C61.051 80.875 60.957 81.031 60.895 81.094 60.801 81.219 60.707 81.281 60.629 81.281 60.535 81.281 60.426 81.188 60.332 81 60.238 80.813 60.004 80.234 59.613 79.297 60.332 78.656 60.785 78.281 60.973 78.156 61.145 78.016 61.348 77.953 61.582 77.938V77.797H59.926V77.938C60.129 77.953 60.27 77.953 60.332 77.969 60.395 78 60.426 78.031 60.426 78.109 60.426 78.219 60.301 78.375 60.066 78.594 59.832 78.797 59.395 79.156 58.738 79.672L59.926 75.563 59.91 75.516C59.895 75.516 59.785 75.531 59.613 75.578 59.441 75.625 59.332 75.641 59.316 75.641 59.223 75.656 59.113 75.672 58.941 75.703 58.801 75.719 58.629 75.75 58.457 75.766V75.906C58.707 75.891 58.863 75.906 58.941 75.938 59.02 75.953 59.051 76.047 59.051 76.172 59.051 76.203 59.051 76.234 59.051 76.25 59.051 76.281 59.035 76.297 59.035 76.328L57.551 81.656ZM58.223 81.656" fill="#211e1e"/>
<path d="M63.324 82.449H61.73L63.324 80.215ZM61.465 82.449V82.887H63.324V83.996H63.855V82.887H64.527V82.449H63.855V79.527H63.543ZM61.465 82.449" fill="#211e1e"/>
<path d="M88.645 85.074 89.066 83.449 89.52 83.121C89.613 83.387 89.707 83.621 89.785 83.824 89.879 84.027 89.957 84.215 90.02 84.34 90.191 84.699 90.316 84.934 90.41 85.027 90.504 85.121 90.613 85.168 90.738 85.168 90.926 85.168 91.082 85.09 91.238 84.934 91.379 84.777 91.535 84.527 91.723 84.184L91.582 84.09C91.473 84.293 91.379 84.449 91.316 84.512 91.223 84.637 91.129 84.699 91.051 84.699 90.957 84.699 90.848 84.605 90.754 84.418 90.66 84.23 90.426 83.652 90.035 82.715 90.754 82.074 91.207 81.699 91.395 81.574 91.566 81.434 91.77 81.371 92.004 81.355V81.215H90.348V81.355C90.551 81.371 90.691 81.371 90.754 81.387 90.816 81.418 90.848 81.449 90.848 81.527 90.848 81.637 90.723 81.793 90.488 82.012 90.254 82.215 89.816 82.574 89.16 83.09L90.348 78.98 90.332 78.934C90.316 78.934 90.207 78.949 90.035 78.996 89.863 79.043 89.754 79.059 89.738 79.059 89.645 79.074 89.535 79.09 89.363 79.121 89.223 79.137 89.051 79.168 88.879 79.184V79.324C89.129 79.309 89.285 79.324 89.363 79.355 89.441 79.371 89.473 79.465 89.473 79.59 89.473 79.621 89.473 79.652 89.473 79.668 89.473 79.699 89.457 79.715 89.457 79.746L87.973 85.074ZM88.645 85.074" fill="#211e1e"/>
<path d="M92.305 86.82C92.211 86.82 92.133 86.836 92.086 86.883 92.039 86.93 92.023 86.992 92.023 87.055 92.023 87.227 92.117 87.352 92.352 87.414 92.477 87.461 92.648 87.477 92.852 87.477 93.383 87.477 93.82 87.32 94.148 87.008 94.492 86.68 94.664 86.289 94.664 85.805 94.664 85.586 94.633 85.383 94.555 85.195 94.461 85.008 94.352 84.836 94.195 84.68 94.008 84.508 93.789 84.367 93.508 84.273 93.352 84.227 93.086 84.164 92.727 84.102L93.008 83.539H94.273C94.32 83.539 94.352 83.539 94.398 83.523 94.43 83.523 94.461 83.508 94.461 83.492L94.711 82.883 94.664 82.836C94.602 82.898 94.555 82.945 94.508 82.977 94.477 82.992 94.414 83.008 94.352 83.008H92.961L92.258 84.57C92.258 84.586 92.242 84.586 92.242 84.602 92.242 84.617 92.242 84.633 92.227 84.648 92.258 84.664 92.258 84.68 92.273 84.68 92.289 84.68 92.32 84.68 92.367 84.68 92.648 84.68 92.961 84.758 93.289 84.898 93.883 85.133 94.195 85.539 94.195 86.102 94.195 86.43 94.102 86.695 93.914 86.914 93.727 87.133 93.508 87.242 93.258 87.242 93.148 87.242 92.992 87.164 92.789 87.023 92.586 86.883 92.43 86.82 92.305 86.82ZM92.305 86.82" fill="#211e1e"/>
<path d="M224.285 40.805C224.52 40.789 224.66 40.789 224.738 40.82 224.832 40.852 224.879 40.93 224.879 41.055 224.879 41.07 224.863 41.102 224.863 41.133 224.863 41.148 224.848 41.195 224.848 41.227L223.363 46.555H224.051C224.238 45.82 224.379 45.352 224.457 45.148 224.535 44.93 224.629 44.711 224.77 44.492 224.973 44.164 225.238 43.836 225.535 43.523 225.832 43.211 226.082 43.055 226.27 43.055 226.332 43.055 226.395 43.07 226.441 43.117 226.488 43.148 226.52 43.211 226.52 43.289 226.52 43.32 226.504 43.336 226.504 43.367 226.504 43.383 226.504 43.414 226.488 43.43L225.832 46.008C225.816 46.055 225.801 46.086 225.801 46.117 225.801 46.148 225.801 46.18 225.801 46.227 225.801 46.367 225.832 46.477 225.91 46.539 226.004 46.617 226.098 46.648 226.207 46.648 226.473 46.648 226.723 46.523 226.988 46.273 227.129 46.148 227.301 45.914 227.504 45.617L227.395 45.508C227.191 45.773 227.035 45.945 226.973 46.023 226.848 46.148 226.738 46.211 226.645 46.211 226.598 46.211 226.566 46.211 226.551 46.18 226.52 46.148 226.504 46.117 226.504 46.055 226.504 46.023 226.52 45.977 226.535 45.914 226.535 45.867 226.551 45.805 226.566 45.742L227.16 43.648C227.176 43.57 227.191 43.508 227.207 43.414 227.223 43.32 227.223 43.258 227.223 43.195 227.223 42.977 227.16 42.805 227.035 42.727 226.91 42.633 226.77 42.586 226.629 42.586 226.301 42.586 225.926 42.805 225.52 43.227 225.285 43.492 224.988 43.883 224.613 44.414L225.707 40.492C225.707 40.477 225.691 40.445 225.66 40.43 225.645 40.43 225.613 40.43 225.598 40.445 225.566 40.445 225.379 40.492 225.035 40.555 224.957 40.57 224.848 40.586 224.738 40.602 224.613 40.617 224.473 40.633 224.285 40.664ZM224.285 40.805" fill="#211e1e"/>
<path d="M228.113 44.289C228.113 45.352 228.473 46.305 229.16 47.133 229.582 47.648 229.973 47.992 230.332 48.164L230.441 48.008C229.785 47.586 229.348 46.93 229.098 46.07 228.973 45.57 228.91 44.945 228.91 44.18 228.91 43.148 229.082 42.32 229.441 41.711 229.629 41.352 229.973 40.992 230.441 40.617L230.363 40.477C229.848 40.758 229.41 41.133 229.035 41.602 228.426 42.383 228.113 43.273 228.113 44.289ZM228.113 44.289" fill="#211e1e"/>
<path d="M231.383 46.555 231.805 44.93 232.258 44.602C232.352 44.867 232.445 45.102 232.523 45.305 232.617 45.508 232.695 45.695 232.758 45.82 232.93 46.18 233.055 46.414 233.148 46.508 233.242 46.602 233.352 46.648 233.477 46.648 233.664 46.648 233.82 46.57 233.977 46.414 234.117 46.258 234.273 46.008 234.461 45.664L234.32 45.57C234.211 45.773 234.117 45.93 234.055 45.992 233.961 46.117 233.867 46.18 233.789 46.18 233.695 46.18 233.586 46.086 233.492 45.898 233.398 45.711 233.164 45.133 232.773 44.195 233.492 43.555 233.945 43.18 234.133 43.055 234.305 42.914 234.508 42.852 234.742 42.836V42.695H233.086V42.836C233.289 42.852 233.43 42.852 233.492 42.867 233.555 42.898 233.586 42.93 233.586 43.008 233.586 43.117 233.461 43.273 233.227 43.492 232.992 43.695 232.555 44.055 231.898 44.57L233.086 40.461 233.07 40.414C233.055 40.414 232.945 40.43 232.773 40.477 232.602 40.523 232.492 40.539 232.477 40.539 232.383 40.555 232.273 40.57 232.102 40.602 231.961 40.617 231.789 40.648 231.617 40.664V40.805C231.867 40.789 232.023 40.805 232.102 40.836 232.18 40.852 232.211 40.945 232.211 41.07 232.211 41.102 232.211 41.133 232.211 41.148 232.211 41.18 232.195 41.195 232.195 41.227L230.711 46.555ZM231.383 46.555" fill="#211e1e"/>
<path d="M236.695 44.426H236.664L235.461 45.035V45.129C235.539 45.098 235.633 45.066 235.711 45.02 235.805 44.988 235.883 44.988 235.945 44.988 236.023 44.988 236.07 45.004 236.102 45.066 236.133 45.113 236.148 45.191 236.148 45.301V48.301C236.148 48.504 236.102 48.629 236.023 48.691 235.945 48.754 235.773 48.785 235.508 48.801V48.895H237.336V48.801C237.102 48.801 236.93 48.77 236.836 48.723 236.758 48.676 236.711 48.566 236.711 48.395V44.488C236.711 44.473 236.711 44.457 236.711 44.457 236.711 44.441 236.711 44.441 236.695 44.426ZM236.695 44.426" fill="#211e1e"/>
<path d="M240.527 44.336C240.527 43.336 240.215 42.445 239.605 41.648 239.199 41.117 238.777 40.727 238.309 40.477L238.199 40.617C238.824 41.039 239.246 41.648 239.48 42.383 239.652 42.93 239.73 43.617 239.73 44.445 239.73 45.492 239.559 46.336 239.184 46.961 238.98 47.32 238.652 47.664 238.199 48.008L238.277 48.164C238.449 48.07 238.668 47.93 238.918 47.711 239.309 47.398 239.621 47.055 239.84 46.68 240.074 46.336 240.23 45.977 240.355 45.57 240.465 45.18 240.527 44.773 240.527 44.336ZM240.527 44.336" fill="#211e1e"/>
<path d="M224.285 54.305C224.52 54.289 224.66 54.289 224.738 54.32 224.832 54.352 224.879 54.43 224.879 54.555 224.879 54.57 224.863 54.602 224.863 54.633 224.863 54.648 224.848 54.695 224.848 54.727L223.363 60.055H224.051C224.238 59.32 224.379 58.852 224.457 58.648 224.535 58.43 224.629 58.211 224.77 57.992 224.973 57.664 225.238 57.336 225.535 57.023 225.832 56.711 226.082 56.555 226.27 56.555 226.332 56.555 226.395 56.57 226.441 56.617 226.488 56.648 226.52 56.711 226.52 56.789 226.52 56.82 226.504 56.836 226.504 56.867 226.504 56.883 226.504 56.914 226.488 56.93L225.832 59.508C225.816 59.555 225.801 59.586 225.801 59.617 225.801 59.648 225.801 59.68 225.801 59.727 225.801 59.867 225.832 59.977 225.91 60.039 226.004 60.117 226.098 60.148 226.207 60.148 226.473 60.148 226.723 60.023 226.988 59.773 227.129 59.648 227.301 59.414 227.504 59.117L227.395 59.008C227.191 59.273 227.035 59.445 226.973 59.523 226.848 59.648 226.738 59.711 226.645 59.711 226.598 59.711 226.566 59.711 226.551 59.68 226.52 59.648 226.504 59.617 226.504 59.555 226.504 59.523 226.52 59.477 226.535 59.414 226.535 59.367 226.551 59.305 226.566 59.242L227.16 57.148C227.176 57.07 227.191 57.008 227.207 56.914 227.223 56.82 227.223 56.758 227.223 56.695 227.223 56.477 227.16 56.305 227.035 56.227 226.91 56.133 226.77 56.086 226.629 56.086 226.301 56.086 225.926 56.305 225.52 56.727 225.285 56.992 224.988 57.383 224.613 57.914L225.707 53.992C225.707 53.977 225.691 53.945 225.66 53.93 225.645 53.93 225.613 53.93 225.598 53.945 225.566 53.945 225.379 53.992 225.035 54.055 224.957 54.07 224.848 54.086 224.738 54.102 224.613 54.117 224.473 54.133 224.285 54.164ZM224.285 54.305" fill="#211e1e"/>
<path d="M228.113 57.789C228.113 58.852 228.473 59.805 229.16 60.633 229.582 61.148 229.973 61.492 230.332 61.664L230.441 61.508C229.785 61.086 229.348 60.43 229.098 59.57 228.973 59.07 228.91 58.445 228.91 57.68 228.91 56.648 229.082 55.82 229.441 55.211 229.629 54.852 229.973 54.492 230.441 54.117L230.363 53.977C229.848 54.258 229.41 54.633 229.035 55.102 228.426 55.883 228.113 56.773 228.113 57.789ZM228.113 57.789" fill="#211e1e"/>
<path d="M231.383 60.055 231.805 58.43 232.258 58.102C232.352 58.367 232.445 58.602 232.523 58.805 232.617 59.008 232.695 59.195 232.758 59.32 232.93 59.68 233.055 59.914 233.148 60.008 233.242 60.102 233.352 60.148 233.477 60.148 233.664 60.148 233.82 60.07 233.977 59.914 234.117 59.758 234.273 59.508 234.461 59.164L234.32 59.07C234.211 59.273 234.117 59.43 234.055 59.492 233.961 59.617 233.867 59.68 233.789 59.68 233.695 59.68 233.586 59.586 233.492 59.398 233.398 59.211 233.164 58.633 232.773 57.695 233.492 57.055 233.945 56.68 234.133 56.555 234.305 56.414 234.508 56.352 234.742 56.336V56.195H233.086V56.336C233.289 56.352 233.43 56.352 233.492 56.367 233.555 56.398 233.586 56.43 233.586 56.508 233.586 56.617 233.461 56.773 233.227 56.992 232.992 57.195 232.555 57.555 231.898 58.07L233.086 53.961 233.07 53.914C233.055 53.914 232.945 53.93 232.773 53.977 232.602 54.023 232.492 54.039 232.477 54.039 232.383 54.055 232.273 54.07 232.102 54.102 231.961 54.117 231.789 54.148 231.617 54.164V54.305C231.867 54.289 232.023 54.305 232.102 54.336 232.18 54.352 232.211 54.445 232.211 54.57 232.211 54.602 232.211 54.633 232.211 54.648 232.211 54.68 232.195 54.695 232.195 54.727L230.711 60.055ZM231.383 60.055" fill="#211e1e"/>
<path d="M236.664 60.848H235.07L236.664 58.613ZM234.805 60.848V61.285H236.664V62.395H237.195V61.285H237.867V60.848H237.195V57.926H236.883ZM234.805 60.848" fill="#211e1e"/>
<path d="M240.527 57.836C240.527 56.836 240.215 55.945 239.605 55.148 239.199 54.617 238.777 54.227 238.309 53.977L238.199 54.117C238.824 54.539 239.246 55.148 239.48 55.883 239.652 56.43 239.73 57.117 239.73 57.945 239.73 58.992 239.559 59.836 239.184 60.461 238.98 60.82 238.652 61.164 238.199 61.508L238.277 61.664C238.449 61.57 238.668 61.43 238.918 61.211 239.309 60.898 239.621 60.555 239.84 60.18 240.074 59.836 240.23 59.477 240.355 59.07 240.465 58.68 240.527 58.273 240.527 57.836ZM240.527 57.836" fill="#211e1e"/>
<path d="M224.285 108.305C224.52 108.289 224.66 108.289 224.738 108.32 224.832 108.352 224.879 108.43 224.879 108.555 224.879 108.57 224.863 108.602 224.863 108.633 224.863 108.648 224.848 108.695 224.848 108.727L223.363 114.055H224.051C224.238 113.32 224.379 112.852 224.457 112.648 224.535 112.43 224.629 112.211 224.77 111.992 224.973 111.664 225.238 111.336 225.535 111.023 225.832 110.711 226.082 110.555 226.27 110.555 226.332 110.555 226.395 110.57 226.441 110.617 226.488 110.648 226.52 110.711 226.52 110.789 226.52 110.82 226.504 110.836 226.504 110.867 226.504 110.883 226.504 110.914 226.488 110.93L225.832 113.508C225.816 113.555 225.801 113.586 225.801 113.617 225.801 113.648 225.801 113.68 225.801 113.727 225.801 113.867 225.832 113.977 225.91 114.039 226.004 114.117 226.098 114.148 226.207 114.148 226.473 114.148 226.723 114.023 226.988 113.773 227.129 113.648 227.301 113.414 227.504 113.117L227.395 113.008C227.191 113.273 227.035 113.445 226.973 113.523 226.848 113.648 226.738 113.711 226.645 113.711 226.598 113.711 226.566 113.711 226.551 113.68 226.52 113.648 226.504 113.617 226.504 113.555 226.504 113.523 226.52 113.477 226.535 113.414 226.535 113.367 226.551 113.305 226.566 113.242L227.16 111.148C227.176 111.07 227.191 111.008 227.207 110.914 227.223 110.82 227.223 110.758 227.223 110.695 227.223 110.477 227.16 110.305 227.035 110.227 226.91 110.133 226.77 110.086 226.629 110.086 226.301 110.086 225.926 110.305 225.52 110.727 225.285 110.992 224.988 111.383 224.613 111.914L225.707 107.992C225.707 107.977 225.691 107.945 225.66 107.93 225.645 107.93 225.613 107.93 225.598 107.945 225.566 107.945 225.379 107.992 225.035 108.055 224.957 108.07 224.848 108.086 224.738 108.102 224.613 108.117 224.473 108.133 224.285 108.164ZM224.285 108.305" fill="#211e1e"/>
<path d="M228.113 111.789C228.113 112.852 228.473 113.805 229.16 114.633 229.582 115.148 229.973 115.492 230.332 115.664L230.441 115.508C229.785 115.086 229.348 114.43 229.098 113.57 228.973 113.07 228.91 112.445 228.91 111.68 228.91 110.648 229.082 109.82 229.441 109.211 229.629 108.852 229.973 108.492 230.441 108.117L230.363 107.977C229.848 108.258 229.41 108.633 229.035 109.102 228.426 109.883 228.113 110.773 228.113 111.789ZM228.113 111.789" fill="#211e1e"/>
<path d="M231.383 114.055 231.805 112.43 232.258 112.102C232.352 112.367 232.445 112.602 232.523 112.805 232.617 113.008 232.695 113.195 232.758 113.32 232.93 113.68 233.055 113.914 233.148 114.008 233.242 114.102 233.352 114.148 233.477 114.148 233.664 114.148 233.82 114.07 233.977 113.914 234.117 113.758 234.273 113.508 234.461 113.164L234.32 113.07C234.211 113.273 234.117 113.43 234.055 113.492 233.961 113.617 233.867 113.68 233.789 113.68 233.695 113.68 233.586 113.586 233.492 113.398 233.398 113.211 233.164 112.633 232.773 111.695 233.492 111.055 233.945 110.68 234.133 110.555 234.305 110.414 234.508 110.352 234.742 110.336V110.195H233.086V110.336C233.289 110.352 233.43 110.352 233.492 110.367 233.555 110.398 233.586 110.43 233.586 110.508 233.586 110.617 233.461 110.773 233.227 110.992 232.992 111.195 232.555 111.555 231.898 112.07L233.086 107.961 233.07 107.914C233.055 107.914 232.945 107.93 232.773 107.977 232.602 108.023 232.492 108.039 232.477 108.039 232.383 108.055 232.273 108.07 232.102 108.102 231.961 108.117 231.789 108.148 231.617 108.164V108.305C231.867 108.289 232.023 108.305 232.102 108.336 232.18 108.352 232.211 108.445 232.211 108.57 232.211 108.602 232.211 108.633 232.211 108.648 232.211 108.68 232.195 108.695 232.195 108.727L230.711 114.055ZM231.383 114.055" fill="#211e1e"/>
<path d="M235.242 115.832C235.164 115.832 235.102 115.848 235.07 115.91 235.039 115.957 235.008 116.02 235.008 116.066 235.008 116.16 235.07 116.238 235.18 116.316 235.273 116.395 235.477 116.441 235.742 116.441 236.336 116.441 236.789 116.285 237.117 115.973 237.445 115.66 237.602 115.301 237.602 114.879 237.602 114.535 237.492 114.254 237.242 114.02 237.117 113.91 236.961 113.801 236.758 113.707 236.93 113.582 237.055 113.473 237.148 113.379 237.289 113.207 237.367 113.004 237.367 112.801 237.367 112.551 237.273 112.348 237.102 112.16 236.914 111.988 236.664 111.895 236.336 111.895 236.023 111.895 235.742 111.988 235.508 112.191 235.273 112.379 235.117 112.645 235.023 112.973L235.133 113.004C235.242 112.801 235.352 112.66 235.445 112.566 235.633 112.379 235.836 112.301 236.07 112.301 236.273 112.301 236.461 112.348 236.617 112.488 236.773 112.598 236.852 112.785 236.852 113.02 236.852 113.285 236.758 113.504 236.555 113.66 236.352 113.832 236.07 113.973 235.727 114.098L235.742 114.176C235.773 114.176 235.805 114.176 235.836 114.176 235.852 114.176 235.883 114.176 235.914 114.176 236.383 114.176 236.742 114.316 236.93 114.613 237.055 114.785 237.117 115.004 237.117 115.223 237.117 115.473 237.039 115.691 236.898 115.895 236.742 116.098 236.523 116.207 236.211 116.207 236.07 116.207 235.914 116.145 235.711 116.02 235.523 115.895 235.352 115.832 235.242 115.832ZM235.242 115.832" fill="#211e1e"/>
<path d="M240.527 111.836C240.527 110.836 240.215 109.945 239.605 109.148 239.199 108.617 238.777 108.227 238.309 107.977L238.199 108.117C238.824 108.539 239.246 109.148 239.48 109.883 239.652 110.43 239.73 111.117 239.73 111.945 239.73 112.992 239.559 113.836 239.184 114.461 238.98 114.82 238.652 115.164 238.199 115.508L238.277 115.664C238.449 115.57 238.668 115.43 238.918 115.211 239.309 114.898 239.621 114.555 239.84 114.18 240.074 113.836 240.23 113.477 240.355 113.07 240.465 112.68 240.527 112.273 240.527 111.836ZM240.527 111.836" fill="#211e1e"/>
<path d="M224.285 81.305C224.52 81.289 224.66 81.289 224.738 81.32 224.832 81.352 224.879 81.43 224.879 81.555 224.879 81.57 224.863 81.602 224.863 81.633 224.863 81.648 224.848 81.695 224.848 81.727L223.363 87.055H224.051C224.238 86.32 224.379 85.852 224.457 85.648 224.535 85.43 224.629 85.211 224.77 84.992 224.973 84.664 225.238 84.336 225.535 84.023 225.832 83.711 226.082 83.555 226.27 83.555 226.332 83.555 226.395 83.57 226.441 83.617 226.488 83.648 226.52 83.711 226.52 83.789 226.52 83.82 226.504 83.836 226.504 83.867 226.504 83.883 226.504 83.914 226.488 83.93L225.832 86.508C225.816 86.555 225.801 86.586 225.801 86.617 225.801 86.648 225.801 86.68 225.801 86.727 225.801 86.867 225.832 86.977 225.91 87.039 226.004 87.117 226.098 87.148 226.207 87.148 226.473 87.148 226.723 87.023 226.988 86.773 227.129 86.648 227.301 86.414 227.504 86.117L227.395 86.008C227.191 86.273 227.035 86.445 226.973 86.523 226.848 86.648 226.738 86.711 226.645 86.711 226.598 86.711 226.566 86.711 226.551 86.68 226.52 86.648 226.504 86.617 226.504 86.555 226.504 86.523 226.52 86.477 226.535 86.414 226.535 86.367 226.551 86.305 226.566 86.242L227.16 84.148C227.176 84.07 227.191 84.008 227.207 83.914 227.223 83.82 227.223 83.758 227.223 83.695 227.223 83.477 227.16 83.305 227.035 83.227 226.91 83.133 226.77 83.086 226.629 83.086 226.301 83.086 225.926 83.305 225.52 83.727 225.285 83.992 224.988 84.383 224.613 84.914L225.707 80.992C225.707 80.977 225.691 80.945 225.66 80.93 225.645 80.93 225.613 80.93 225.598 80.945 225.566 80.945 225.379 80.992 225.035 81.055 224.957 81.07 224.848 81.086 224.738 81.102 224.613 81.117 224.473 81.133 224.285 81.164ZM224.285 81.305" fill="#211e1e"/>
<path d="M228.113 84.789C228.113 85.852 228.473 86.805 229.16 87.633 229.582 88.148 229.973 88.492 230.332 88.664L230.441 88.508C229.785 88.086 229.348 87.43 229.098 86.57 228.973 86.07 228.91 85.445 228.91 84.68 228.91 83.648 229.082 82.82 229.441 82.211 229.629 81.852 229.973 81.492 230.441 81.117L230.363 80.977C229.848 81.258 229.41 81.633 229.035 82.102 228.426 82.883 228.113 83.773 228.113 84.789ZM228.113 84.789" fill="#211e1e"/>
<path d="M231.383 87.055 231.805 85.43 232.258 85.102C232.352 85.367 232.445 85.602 232.523 85.805 232.617 86.008 232.695 86.195 232.758 86.32 232.93 86.68 233.055 86.914 233.148 87.008 233.242 87.102 233.352 87.148 233.477 87.148 233.664 87.148 233.82 87.07 233.977 86.914 234.117 86.758 234.273 86.508 234.461 86.164L234.32 86.07C234.211 86.273 234.117 86.43 234.055 86.492 233.961 86.617 233.867 86.68 233.789 86.68 233.695 86.68 233.586 86.586 233.492 86.398 233.398 86.211 233.164 85.633 232.773 84.695 233.492 84.055 233.945 83.68 234.133 83.555 234.305 83.414 234.508 83.352 234.742 83.336V83.195H233.086V83.336C233.289 83.352 233.43 83.352 233.492 83.367 233.555 83.398 233.586 83.43 233.586 83.508 233.586 83.617 233.461 83.773 233.227 83.992 232.992 84.195 232.555 84.555 231.898 85.07L233.086 80.961 233.07 80.914C233.055 80.914 232.945 80.93 232.773 80.977 232.602 81.023 232.492 81.039 232.477 81.039 232.383 81.055 232.273 81.07 232.102 81.102 231.961 81.117 231.789 81.148 231.617 81.164V81.305C231.867 81.289 232.023 81.305 232.102 81.336 232.18 81.352 232.211 81.445 232.211 81.57 232.211 81.602 232.211 81.633 232.211 81.648 232.211 81.68 232.195 81.695 232.195 81.727L230.711 87.055ZM231.383 87.055" fill="#211e1e"/>
<path d="M234.93 89.395H237.523L237.883 88.488 237.789 88.457C237.695 88.645 237.602 88.77 237.508 88.816 237.43 88.863 237.289 88.895 237.07 88.895H235.586C236.398 88.051 236.93 87.457 237.18 87.129 237.43 86.801 237.539 86.457 237.539 86.113 237.539 85.77 237.43 85.488 237.195 85.254 236.977 85.035 236.68 84.91 236.32 84.91 236.023 84.91 235.742 85.02 235.492 85.207 235.227 85.395 235.039 85.754 234.93 86.254L235.07 86.27C235.164 86.02 235.273 85.848 235.367 85.723 235.539 85.504 235.789 85.395 236.086 85.395 236.32 85.395 236.523 85.488 236.711 85.66 236.883 85.816 236.961 86.066 236.961 86.379 236.961 86.754 236.82 87.129 236.539 87.504 236.258 87.895 235.711 88.488 234.93 89.316ZM234.93 89.395" fill="#211e1e"/>
<path d="M240.527 84.836C240.527 83.836 240.215 82.945 239.605 82.148 239.199 81.617 238.777 81.227 238.309 80.977L238.199 81.117C238.824 81.539 239.246 82.148 239.48 82.883 239.652 83.43 239.73 84.117 239.73 84.945 239.73 85.992 239.559 86.836 239.184 87.461 238.98 87.82 238.652 88.164 238.199 88.508L238.277 88.664C238.449 88.57 238.668 88.43 238.918 88.211 239.309 87.898 239.621 87.555 239.84 87.18 240.074 86.836 240.23 86.477 240.355 86.07 240.465 85.68 240.527 85.273 240.527 84.836ZM240.527 84.836" fill="#211e1e"/>
<path d="M243.48 85.383V85.992H248.027V85.383ZM243.48 83.57V84.164H248.027V83.57ZM243.48 83.57" fill="#211e1e"/>
<path d="M251.645 81.305C251.879 81.289 252.02 81.289 252.098 81.32 252.191 81.352 252.238 81.43 252.238 81.555 252.238 81.57 252.223 81.602 252.223 81.633 252.223 81.648 252.207 81.695 252.207 81.727L250.723 87.055H251.41C251.598 86.32 251.738 85.852 251.816 85.648 251.895 85.43 251.988 85.211 252.129 84.992 252.332 84.664 252.598 84.336 252.895 84.023 253.191 83.711 253.441 83.555 253.629 83.555 253.691 83.555 253.754 83.57 253.801 83.617 253.848 83.648 253.879 83.711 253.879 83.789 253.879 83.82 253.863 83.836 253.863 83.867 253.863 83.883 253.863 83.914 253.848 83.93L253.191 86.508C253.176 86.555 253.16 86.586 253.16 86.617 253.16 86.648 253.16 86.68 253.16 86.727 253.16 86.867 253.191 86.977 253.27 87.039 253.363 87.117 253.457 87.148 253.566 87.148 253.832 87.148 254.082 87.023 254.348 86.773 254.488 86.648 254.66 86.414 254.863 86.117L254.754 86.008C254.551 86.273 254.395 86.445 254.332 86.523 254.207 86.648 254.098 86.711 254.004 86.711 253.957 86.711 253.926 86.711 253.91 86.68 253.879 86.648 253.863 86.617 253.863 86.555 253.863 86.523 253.879 86.477 253.895 86.414 253.895 86.367 253.91 86.305 253.926 86.242L254.52 84.148C254.535 84.07 254.551 84.008 254.566 83.914 254.582 83.82 254.582 83.758 254.582 83.695 254.582 83.477 254.52 83.305 254.395 83.227 254.27 83.133 254.129 83.086 253.988 83.086 253.66 83.086 253.285 83.305 252.879 83.727 252.645 83.992 252.348 84.383 251.973 84.914L253.066 80.992C253.066 80.977 253.051 80.945 253.02 80.93 253.004 80.93 252.973 80.93 252.957 80.945 252.926 80.945 252.738 80.992 252.395 81.055 252.316 81.07 252.207 81.086 252.098 81.102 251.973 81.117 251.832 81.133 251.645 81.164ZM251.645 81.305" fill="#211e1e"/>
<path d="M255.473 84.789C255.473 85.852 255.832 86.805 256.52 87.633 256.941 88.148 257.332 88.492 257.691 88.664L257.801 88.508C257.145 88.086 256.707 87.43 256.457 86.57 256.332 86.07 256.27 85.445 256.27 84.68 256.27 83.648 256.441 82.82 256.801 82.211 256.988 81.852 257.332 81.492 257.801 81.117L257.723 80.977C257.207 81.258 256.77 81.633 256.395 82.102 255.785 82.883 255.473 83.773 255.473 84.789ZM255.473 84.789" fill="#211e1e"/>
<path d="M258.922 87.055 259.344 85.43 259.797 85.102C259.891 85.367 259.984 85.602 260.063 85.805 260.156 86.008 260.234 86.195 260.297 86.32 260.469 86.68 260.594 86.914 260.688 87.008 260.781 87.102 260.891 87.148 261.016 87.148 261.203 87.148 261.359 87.07 261.516 86.914 261.656 86.758 261.813 86.508 262 86.164L261.859 86.07C261.75 86.273 261.656 86.43 261.594 86.492 261.5 86.617 261.406 86.68 261.328 86.68 261.234 86.68 261.125 86.586 261.031 86.398 260.938 86.211 260.703 85.633 260.313 84.695 261.031 84.055 261.484 83.68 261.672 83.555 261.844 83.414 262.047 83.352 262.281 83.336V83.195H260.625V83.336C260.828 83.352 260.969 83.352 261.031 83.367 261.094 83.398 261.125 83.43 261.125 83.508 261.125 83.617 261 83.773 260.766 83.992 260.531 84.195 260.094 84.555 259.438 85.07L260.625 80.961 260.609 80.914C260.594 80.914 260.484 80.93 260.313 80.977 260.141 81.023 260.031 81.039 260.016 81.039 259.922 81.055 259.813 81.07 259.641 81.102 259.5 81.117 259.328 81.148 259.156 81.164V81.305C259.406 81.289 259.563 81.305 259.641 81.336 259.719 81.352 259.75 81.445 259.75 81.57 259.75 81.602 259.75 81.633 259.75 81.648 259.75 81.68 259.734 81.695 259.734 81.727L258.25 87.055ZM258.922 87.055" fill="#211e1e"/>
<path d="M262.586 88.801C262.492 88.801 262.414 88.816 262.367 88.863 262.32 88.91 262.305 88.973 262.305 89.035 262.305 89.207 262.398 89.332 262.633 89.395 262.758 89.441 262.93 89.457 263.133 89.457 263.664 89.457 264.102 89.301 264.43 88.988 264.773 88.66 264.945 88.27 264.945 87.785 264.945 87.566 264.914 87.363 264.836 87.176 264.742 86.988 264.633 86.816 264.477 86.66 264.289 86.488 264.07 86.348 263.789 86.254 263.633 86.207 263.367 86.145 263.008 86.082L263.289 85.52H264.555C264.602 85.52 264.633 85.52 264.68 85.504 264.711 85.504 264.742 85.488 264.742 85.473L264.992 84.863 264.945 84.816C264.883 84.879 264.836 84.926 264.789 84.957 264.758 84.973 264.695 84.988 264.633 84.988H263.242L262.539 86.551C262.539 86.566 262.523 86.566 262.523 86.582 262.523 86.598 262.523 86.613 262.508 86.629 262.539 86.645 262.539 86.66 262.555 86.66 262.57 86.66 262.602 86.66 262.648 86.66 262.93 86.66 263.242 86.738 263.57 86.879 264.164 87.113 264.477 87.52 264.477 88.082 264.477 88.41 264.383 88.676 264.195 88.895 264.008 89.113 263.789 89.223 263.539 89.223 263.43 89.223 263.273 89.145 263.07 89.004 262.867 88.863 262.711 88.801 262.586 88.801ZM262.586 88.801" fill="#211e1e"/>
<path d="M268.07 84.836C268.07 83.836 267.758 82.945 267.148 82.148 266.742 81.617 266.32 81.227 265.852 80.977L265.742 81.117C266.367 81.539 266.789 82.148 267.023 82.883 267.195 83.43 267.273 84.117 267.273 84.945 267.273 85.992 267.102 86.836 266.727 87.461 266.523 87.82 266.195 88.164 265.742 88.508L265.82 88.664C265.992 88.57 266.211 88.43 266.461 88.211 266.852 87.898 267.164 87.555 267.383 87.18 267.617 86.836 267.773 86.477 267.898 86.07 268.008 85.68 268.07 85.273 268.07 84.836ZM268.07 84.836" fill="#211e1e"/>
</g>
</svg>
