<svg xmlns="http://www.w3.org/2000/svg" xmlns:xlink="http://www.w3.org/1999/xlink" xmlns:inkscape="http://www.inkscape.org/namespaces/inkscape" version="1.1" width="394.15565" height="90.42362" viewBox="0 0 394.15565 90.42362">
<defs>
<clipPath id="clip_1">
<path d="M35.469 22.387H394.15699V24.387H35.469Z"/>
</clipPath>
<clipPath id="clip_2">
<path d="M0 0H395V91H0Z"/>
</clipPath>
</defs>
<g>
<g clip-path="url(#clip_1)">
<g clip-path="url(#clip_2)">
<path transform="matrix(1,0,0,-1,0,0)" stroke-width=".503" stroke-linecap="butt" stroke-miterlimit="4" stroke-linejoin="miter" fill="none" stroke="#bd2317" d="M36.426-23.301H394.156"/>
</g>
</g>
<path transform="matrix(1,0,0,-1,0,0)" stroke-width="2.654" stroke-linecap="square" stroke-linejoin="round" fill="none" stroke="#211e1e" d="M385.734-77.758V-33.742"/>
<path transform="matrix(1,0,0,-1,0,0)" stroke-width="2.654" stroke-linecap="square" stroke-linejoin="round" fill="none" stroke="#211e1e" d="M382.16-77.758V-12.25"/>
<path transform="matrix(1,0,0,-1,0,0)" stroke-width="2.654" stroke-linecap="square" stroke-linejoin="round" fill="none" stroke="#211e1e" d="M378.586-77.758V-32.207"/>
<path transform="matrix(1,0,0,-1,0,0)" stroke-width="2.654" stroke-linecap="square" stroke-linejoin="round" fill="none" stroke="#211e1e" d="M375.016-77.758V-28.113"/>
<path transform="matrix(1,0,0,-1,0,0)" stroke-width="2.654" stroke-linecap="square" stroke-linejoin="round" fill="none" stroke="#211e1e" d="M371.445-77.758V-22.996"/>
<path transform="matrix(1,0,0,-1,0,0)" stroke-width="2.654" stroke-linecap="square" stroke-linejoin="round" fill="none" stroke="#211e1e" d="M367.871-77.758V-26.578"/>
<path transform="matrix(1,0,0,-1,0,0)" stroke-width="2.654" stroke-linecap="square" stroke-linejoin="round" fill="none" stroke="#211e1e" d="M364.297-77.758V-24.02"/>
<path transform="matrix(1,0,0,-1,0,0)" stroke-width="2.654" stroke-linecap="square" stroke-linejoin="round" fill="none" stroke="#211e1e" d="M360.727-77.758V-23.508"/>
<path transform="matrix(1,0,0,-1,0,0)" stroke-width="2.654" stroke-linecap="square" stroke-linejoin="round" fill="none" stroke="#211e1e" d="M357.156-77.758V-27.09"/>
<path transform="matrix(1,0,0,-1,0,0)" stroke-width="2.654" stroke-linecap="square" stroke-linejoin="round" fill="none" stroke="#211e1e" d="M353.582-77.758V-21.973"/>
<path transform="matrix(1,0,0,-1,0,0)" stroke-width="2.654" stroke-linecap="square" stroke-linejoin="round" fill="none" stroke="#211e1e" d="M350.012-77.758V-29.648"/>
<path transform="matrix(1,0,0,-1,0,0)" stroke-width="2.654" stroke-linecap="square" stroke-linejoin="round" fill="none" stroke="#211e1e" d="M346.438-77.758V-13.785"/>
<path transform="matrix(1,0,0,-1,0,0)" stroke-width="2.654" stroke-linecap="square" stroke-linejoin="round" fill="none" stroke="#211e1e" d="M342.867-77.758V-25.043"/>
<path transform="matrix(1,0,0,-1,0,0)" stroke-width="2.654" stroke-linecap="square" stroke-linejoin="round" fill="none" stroke="#211e1e" d="M339.293-77.758V-9.176"/>
<path transform="matrix(1,0,0,-1,0,0)" stroke-width="2.654" stroke-linecap="square" stroke-linejoin="round" fill="none" stroke="#211e1e" d="M335.723-77.758V-26.578"/>
<path transform="matrix(1,0,0,-1,0,0)" stroke-width="2.654" stroke-linecap="square" stroke-linejoin="round" fill="none" stroke="#211e1e" d="M332.148-77.758V-25.043"/>
<path transform="matrix(1,0,0,-1,0,0)" stroke-width="2.654" stroke-linecap="square" stroke-linejoin="round" fill="none" stroke="#211e1e" d="M328.578-77.758V-23.508"/>
<path transform="matrix(1,0,0,-1,0,0)" stroke-width="2.654" stroke-linecap="square" stroke-linejoin="round" fill="none" stroke="#211e1e" d="M325.004-77.758V-22.484"/>
<path transform="matrix(1,0,0,-1,0,0)" stroke-width="2.654" stroke-linecap="square" stroke-linejoin="round" fill="none" stroke="#211e1e" d="M321.434-77.758V-19.414"/>
<path transform="matrix(1,0,0,-1,0,0)" stroke-width="2.654" stroke-linecap="square" stroke-linejoin="round" fill="none" stroke="#211e1e" d="M317.859-77.758V-27.602"/>
<path transform="matrix(1,0,0,-1,0,0)" stroke-width="2.654" stroke-linecap="square" stroke-linejoin="round" fill="none" stroke="#211e1e" d="M314.289-77.758V-30.672"/>
<path transform="matrix(1,0,0,-1,0,0)" stroke-width="2.654" stroke-linecap="square" stroke-linejoin="round" fill="none" stroke="#211e1e" d="M310.715-77.758V-27.09"/>
<path transform="matrix(1,0,0,-1,0,0)" stroke-width="2.654" stroke-linecap="square" stroke-linejoin="round" fill="none" stroke="#211e1e" d="M307.145-77.758V-29.137"/>
<path transform="matrix(1,0,0,-1,0,0)" stroke-width="2.654" stroke-linecap="square" stroke-linejoin="round" fill="none" stroke="#211e1e" d="M303.574-77.758V-24.531"/>
<path transform="matrix(1,0,0,-1,0,0)" stroke-width="2.654" stroke-linecap="square" stroke-linejoin="round" fill="none" stroke="#211e1e" d="M300-77.758V-22.484"/>
<path transform="matrix(1,0,0,-1,0,0)" stroke-width="2.654" stroke-linecap="square" stroke-linejoin="round" fill="none" stroke="#211e1e" d="M296.43-77.758V-25.555"/>
<path transform="matrix(1,0,0,-1,0,0)" stroke-width="2.654" stroke-linecap="square" stroke-linejoin="round" fill="none" stroke="#211e1e" d="M292.855-77.758V-32.723"/>
<path transform="matrix(1,0,0,-1,0,0)" stroke-width="2.654" stroke-linecap="square" stroke-linejoin="round" fill="none" stroke="#211e1e" d="M289.285-77.758V-26.578"/>
<path transform="matrix(1,0,0,-1,0,0)" stroke-width="2.654" stroke-linecap="square" stroke-linejoin="round" fill="none" stroke="#211e1e" d="M285.711-77.758V-27.602"/>
<path transform="matrix(1,0,0,-1,0,0)" stroke-width="2.654" stroke-linecap="square" stroke-linejoin="round" fill="none" stroke="#211e1e" d="M282.141-77.758V-23.508"/>
<path transform="matrix(1,0,0,-1,0,0)" stroke-width="2.654" stroke-linecap="square" stroke-linejoin="round" fill="none" stroke="#211e1e" d="M278.566-77.758V-18.902"/>
<path transform="matrix(1,0,0,-1,0,0)" stroke-width="2.654" stroke-linecap="square" stroke-linejoin="round" fill="none" stroke="#211e1e" d="M274.996-77.758V-17.879"/>
<path transform="matrix(1,0,0,-1,0,0)" stroke-width="2.654" stroke-linecap="square" stroke-linejoin="round" fill="none" stroke="#211e1e" d="M271.422-77.758V-33.23"/>
<path transform="matrix(1,0,0,-1,0,0)" stroke-width="2.654" stroke-linecap="square" stroke-linejoin="round" fill="none" stroke="#211e1e" d="M267.852-77.758V-34.254"/>
<path transform="matrix(1,0,0,-1,0,0)" stroke-width="2.654" stroke-linecap="square" stroke-linejoin="round" fill="none" stroke="#211e1e" d="M264.277-77.758V-30.672"/>
<path transform="matrix(1,0,0,-1,0,0)" stroke-width="2.654" stroke-linecap="square" stroke-linejoin="round" fill="none" stroke="#211e1e" d="M260.707-77.758V-23.508"/>
<path transform="matrix(1,0,0,-1,0,0)" stroke-width="2.654" stroke-linecap="square" stroke-linejoin="round" fill="none" stroke="#211e1e" d="M257.133-77.758V-28.625"/>
<path transform="matrix(1,0,0,-1,0,0)" stroke-width="2.654" stroke-linecap="square" stroke-linejoin="round" fill="none" stroke="#211e1e" d="M253.563-77.758V-17.879"/>
<path transform="matrix(1,0,0,-1,0,0)" stroke-width="2.654" stroke-linecap="square" stroke-linejoin="round" fill="none" stroke="#211e1e" d="M249.992-77.758V-23.508"/>
<path transform="matrix(1,0,0,-1,0,0)" stroke-width="2.654" stroke-linecap="square" stroke-linejoin="round" fill="none" stroke="#211e1e" d="M246.418-77.758V-20.949"/>
<path transform="matrix(1,0,0,-1,0,0)" stroke-width="2.654" stroke-linecap="square" stroke-linejoin="round" fill="none" stroke="#211e1e" d="M242.848-77.758V-28.625"/>
<path transform="matrix(1,0,0,-1,0,0)" stroke-width="2.654" stroke-linecap="square" stroke-linejoin="round" fill="none" stroke="#211e1e" d="M239.273-77.758V-13.273"/>
<path transform="matrix(1,0,0,-1,0,0)" stroke-width="2.654" stroke-linecap="square" stroke-linejoin="round" fill="none" stroke="#211e1e" d="M235.703-77.758V-33.23"/>
<path transform="matrix(1,0,0,-1,0,0)" stroke-width="2.654" stroke-linecap="square" stroke-linejoin="round" fill="none" stroke="#211e1e" d="M232.129-77.758V-22.484"/>
<path transform="matrix(1,0,0,-1,0,0)" stroke-width="2.654" stroke-linecap="square" stroke-linejoin="round" fill="none" stroke="#211e1e" d="M228.559-77.758V-24.02"/>
<path transform="matrix(1,0,0,-1,0,0)" stroke-width="2.654" stroke-linecap="square" stroke-linejoin="round" fill="none" stroke="#211e1e" d="M224.988-77.758V-23.508"/>
<path transform="matrix(1,0,0,-1,0,0)" stroke-width="2.654" stroke-linecap="square" stroke-linejoin="round" fill="none" stroke="#211e1e" d="M221.414-77.758V-29.137"/>
<path transform="matrix(1,0,0,-1,0,0)" stroke-width="2.654" stroke-linecap="square" stroke-linejoin="round" fill="none" stroke="#211e1e" d="M217.84-77.758V-28.113"/>
<path transform="matrix(1,0,0,-1,0,0)" stroke-width="2.654" stroke-linecap="square" stroke-linejoin="round" fill="none" stroke="#211e1e" d="M214.27-77.758V-22.484"/>
<path transform="matrix(1,0,0,-1,0,0)" stroke-width="2.654" stroke-linecap="square" stroke-linejoin="round" fill="none" stroke="#211e1e" d="M210.699-77.758V-16.344"/>
<path transform="matrix(1,0,0,-1,0,0)" stroke-width="2.654" stroke-linecap="square" stroke-linejoin="round" fill="none" stroke="#211e1e" d="M207.125-77.758V-22.996"/>
<path transform="matrix(1,0,0,-1,0,0)" stroke-width="2.654" stroke-linecap="square" stroke-linejoin="round" fill="none" stroke="#211e1e" d="M203.555-77.758V-21.461"/>
<path transform="matrix(1,0,0,-1,0,0)" stroke-width="2.654" stroke-linecap="square" stroke-linejoin="round" fill="none" stroke="#211e1e" d="M199.98-77.758V-24.02"/>
<path transform="matrix(1,0,0,-1,0,0)" stroke-width="2.654" stroke-linecap="square" stroke-linejoin="round" fill="none" stroke="#211e1e" d="M196.41-77.758V-27.09"/>
<path transform="matrix(1,0,0,-1,0,0)" stroke-width="2.654" stroke-linecap="square" stroke-linejoin="round" fill="none" stroke="#211e1e" d="M192.836-77.758V-34.766"/>
<path transform="matrix(1,0,0,-1,0,0)" stroke-width="2.654" stroke-linecap="square" stroke-linejoin="round" fill="none" stroke="#211e1e" d="M189.266-77.758V-31.695"/>
<path transform="matrix(1,0,0,-1,0,0)" stroke-width="2.654" stroke-linecap="square" stroke-linejoin="round" fill="none" stroke="#211e1e" d="M185.691-77.758V-31.184"/>
<path transform="matrix(1,0,0,-1,0,0)" stroke-width="2.654" stroke-linecap="square" stroke-linejoin="round" fill="none" stroke="#211e1e" d="M182.121-77.758V-32.723"/>
<path transform="matrix(1,0,0,-1,0,0)" stroke-width="2.654" stroke-linecap="square" stroke-linejoin="round" fill="none" stroke="#211e1e" d="M178.547-77.758V-21.973"/>
<path transform="matrix(1,0,0,-1,0,0)" stroke-width="2.654" stroke-linecap="square" stroke-linejoin="round" fill="none" stroke="#211e1e" d="M174.977-77.758V-29.137"/>
<path transform="matrix(1,0,0,-1,0,0)" stroke-width="2.654" stroke-linecap="square" stroke-linejoin="round" fill="none" stroke="#211e1e" d="M171.402-77.758V-32.723"/>
<path transform="matrix(1,0,0,-1,0,0)" stroke-width="2.654" stroke-linecap="square" stroke-linejoin="round" fill="none" stroke="#211e1e" d="M167.832-77.758V-24.02"/>
<path transform="matrix(1,0,0,-1,0,0)" stroke-width="2.654" stroke-linecap="square" stroke-linejoin="round" fill="none" stroke="#211e1e" d="M164.258-77.758V-26.578"/>
<path transform="matrix(1,0,0,-1,0,0)" stroke-width="2.654" stroke-linecap="square" stroke-linejoin="round" fill="none" stroke="#211e1e" d="M160.688-77.758V-22.484"/>
<path transform="matrix(1,0,0,-1,0,0)" stroke-width="2.654" stroke-linecap="square" stroke-linejoin="round" fill="none" stroke="#211e1e" d="M157.117-77.758V-34.766"/>
<path transform="matrix(1,0,0,-1,0,0)" stroke-width="2.654" stroke-linecap="square" stroke-linejoin="round" fill="none" stroke="#211e1e" d="M153.543-77.758V-28.113"/>
<path transform="matrix(1,0,0,-1,0,0)" stroke-width="2.654" stroke-linecap="square" stroke-linejoin="round" fill="none" stroke="#211e1e" d="M149.973-77.758V-30.16"/>
<path transform="matrix(1,0,0,-1,0,0)" stroke-width="2.654" stroke-linecap="square" stroke-linejoin="round" fill="none" stroke="#211e1e" d="M146.398-77.758V-15.832"/>
<path transform="matrix(1,0,0,-1,0,0)" stroke-width="2.654" stroke-linecap="square" stroke-linejoin="round" fill="none" stroke="#211e1e" d="M142.828-77.758V-27.09"/>
<path transform="matrix(1,0,0,-1,0,0)" stroke-width="2.654" stroke-linecap="square" stroke-linejoin="round" fill="none" stroke="#211e1e" d="M139.254-77.758V-25.555"/>
<path transform="matrix(1,0,0,-1,0,0)" stroke-width="2.654" stroke-linecap="square" stroke-linejoin="round" fill="none" stroke="#211e1e" d="M135.684-77.758V-19.926"/>
<path transform="matrix(1,0,0,-1,0,0)" stroke-width="2.654" stroke-linecap="square" stroke-linejoin="round" fill="none" stroke="#211e1e" d="M132.109-77.758V-28.113"/>
<path transform="matrix(1,0,0,-1,0,0)" stroke-width="2.654" stroke-linecap="square" stroke-linejoin="round" fill="none" stroke="#211e1e" d="M128.539-77.758V-26.066"/>
<path transform="matrix(1,0,0,-1,0,0)" stroke-width="2.654" stroke-linecap="square" stroke-linejoin="round" fill="none" stroke="#211e1e" d="M124.965-77.758V-22.484"/>
<path transform="matrix(1,0,0,-1,0,0)" stroke-width="2.654" stroke-linecap="square" stroke-linejoin="round" fill="none" stroke="#211e1e" d="M121.395-77.758V-26.578"/>
<path transform="matrix(1,0,0,-1,0,0)" stroke-width="2.654" stroke-linecap="square" stroke-linejoin="round" fill="none" stroke="#211e1e" d="M117.82-77.758V-26.578"/>
<path transform="matrix(1,0,0,-1,0,0)" stroke-width="2.654" stroke-linecap="square" stroke-linejoin="round" fill="none" stroke="#211e1e" d="M114.25-77.758V-12.25"/>
<path transform="matrix(1,0,0,-1,0,0)" stroke-width="2.654" stroke-linecap="square" stroke-linejoin="round" fill="none" stroke="#211e1e" d="M110.68-77.758V-23.508"/>
<path transform="matrix(1,0,0,-1,0,0)" stroke-width="2.654" stroke-linecap="square" stroke-linejoin="round" fill="none" stroke="#211e1e" d="M107.105-77.758V-22.996"/>
<path transform="matrix(1,0,0,-1,0,0)" stroke-width="2.654" stroke-linecap="square" stroke-linejoin="round" fill="none" stroke="#211e1e" d="M103.531-77.758V-29.137"/>
<path transform="matrix(1,0,0,-1,0,0)" stroke-width="2.654" stroke-linecap="square" stroke-linejoin="round" fill="none" stroke="#211e1e" d="M99.961-77.758V-31.695"/>
<path transform="matrix(1,0,0,-1,0,0)" stroke-width="2.654" stroke-linecap="square" stroke-linejoin="round" fill="none" stroke="#211e1e" d="M96.391-77.758V-26.066"/>
<path transform="matrix(1,0,0,-1,0,0)" stroke-width="2.654" stroke-linecap="square" stroke-linejoin="round" fill="none" stroke="#211e1e" d="M92.816-77.758V-18.902"/>
<path transform="matrix(1,0,0,-1,0,0)" stroke-width="2.654" stroke-linecap="square" stroke-linejoin="round" fill="none" stroke="#211e1e" d="M89.246-77.758V-26.066"/>
<path transform="matrix(1,0,0,-1,0,0)" stroke-width="2.654" stroke-linecap="square" stroke-linejoin="round" fill="none" stroke="#211e1e" d="M85.672-77.758V-17.367"/>
<path transform="matrix(1,0,0,-1,0,0)" stroke-width="2.654" stroke-linecap="square" stroke-linejoin="round" fill="none" stroke="#211e1e" d="M82.102-77.758V-17.879"/>
<path transform="matrix(1,0,0,-1,0,0)" stroke-width="2.654" stroke-linecap="square" stroke-linejoin="round" fill="none" stroke="#211e1e" d="M78.527-77.758V-26.066"/>
<path transform="matrix(1,0,0,-1,0,0)" stroke-width="2.654" stroke-linecap="square" stroke-linejoin="round" fill="none" stroke="#211e1e" d="M74.957-77.758V-21.973"/>
<path transform="matrix(1,0,0,-1,0,0)" stroke-width="2.654" stroke-linecap="square" stroke-linejoin="round" fill="none" stroke="#211e1e" d="M71.383-77.758V-24.531"/>
<path transform="matrix(1,0,0,-1,0,0)" stroke-width="2.654" stroke-linecap="square" stroke-linejoin="round" fill="none" stroke="#211e1e" d="M67.813-77.758V-26.066"/>
<path transform="matrix(1,0,0,-1,0,0)" stroke-width="2.654" stroke-linecap="square" stroke-linejoin="round" fill="none" stroke="#211e1e" d="M64.238-77.758V-27.09"/>
<path transform="matrix(1,0,0,-1,0,0)" stroke-width="2.654" stroke-linecap="square" stroke-linejoin="round" fill="none" stroke="#211e1e" d="M60.668-77.758V-24.531"/>
<path transform="matrix(1,0,0,-1,0,0)" stroke-width="2.654" stroke-linecap="square" stroke-linejoin="round" fill="none" stroke="#211e1e" d="M57.098-77.758V-26.066"/>
<path transform="matrix(1,0,0,-1,0,0)" stroke-width="2.654" stroke-linecap="square" stroke-linejoin="round" fill="none" stroke="#211e1e" d="M53.523-77.758V-21.973"/>
<path transform="matrix(1,0,0,-1,0,0)" stroke-width="2.654" stroke-linecap="square" stroke-linejoin="round" fill="none" stroke="#211e1e" d="M49.949-77.758V-23.508"/>
<path transform="matrix(1,0,0,-1,0,0)" stroke-width="2.654" stroke-linecap="square" stroke-linejoin="round" fill="none" stroke="#211e1e" d="M46.379-77.758V-18.391"/>
<path transform="matrix(1,0,0,-1,0,0)" stroke-width="2.654" stroke-linecap="square" stroke-linejoin="round" fill="none" stroke="#211e1e" d="M42.809-77.758V-29.137"/>
<path d="M42.793 86.922C44.027 86.922 44.293 85.453 44.293 84.625 44.293 83.797 44.012 82.344 42.793 82.344 41.574 82.344 41.309 83.797 41.309 84.625 41.309 85.469 41.574 86.922 42.793 86.922ZM42.793 86.484C41.934 86.484 41.918 85.109 41.918 84.641 41.918 84.188 41.934 82.781 42.793 82.781 43.668 82.781 43.668 84.188 43.668 84.625 43.668 85.109 43.652 86.484 42.793 86.484ZM42.793 86.484" fill="#211e1e"/>
<path d="M382.621 86.766C382.855 86.828 383.168 86.922 383.512 86.922 384.184 86.922 385.215 86.422 385.215 84.547 385.215 83.609 384.996 82.344 383.762 82.344 382.777 82.344 382.387 83.219 382.387 83.875 382.387 84.719 383.012 85.234 383.605 85.234 383.855 85.234 384.121 85.141 384.309 85 384.449 84.906 384.527 84.797 384.605 84.688 384.621 85.641 384.277 86.484 383.465 86.484 383.199 86.484 382.965 86.406 382.621 86.266ZM383.699 82.781C384.262 82.781 384.543 83.297 384.543 83.875 384.543 84.797 383.84 84.828 383.746 84.828 383.215 84.828 382.949 84.328 382.949 83.766 382.949 83.438 383.09 82.781 383.699 82.781ZM383.699 82.781" fill="#211e1e"/>
<path d="M388.645 82.5C388.426 82.438 388.129 82.344 387.77 82.344 387.082 82.344 386.051 82.859 386.051 84.719 386.051 85.656 386.285 86.922 387.52 86.922 388.488 86.922 388.895 86.063 388.895 85.391 388.895 84.531 388.27 84.031 387.676 84.031 387.41 84.031 387.16 84.109 386.957 84.266 386.832 84.359 386.754 84.453 386.66 84.578 386.66 83.656 386.973 82.781 387.816 82.781 388.129 82.781 388.363 82.875 388.645 83ZM387.566 86.484C387.004 86.484 386.738 85.969 386.738 85.391 386.738 84.469 387.441 84.438 387.535 84.438 388.066 84.438 388.332 84.953 388.332 85.5 388.332 85.828 388.191 86.484 387.566 86.484ZM387.566 86.484" fill="#211e1e"/>
<path d="M34.25 66.109H31.469V65.375H30.813V66.125H30.641C30.219 66.125 29.859 65.984 29.859 65.547 29.859 65.391 29.891 65.281 29.922 65.172L29.25 65.125C29.219 65.25 29.172 65.438 29.172 65.672 29.172 65.969 29.266 66.313 29.5 66.563 29.781 66.859 30.219 66.984 30.672 66.984H30.813V67.453H31.469V66.984H34.25ZM34.25 66.109" fill="#bd2317"/>
<path d="M34.25 64.832V63.973H32.469C32.375 63.973 32.281 63.957 32.203 63.941 31.813 63.863 31.547 63.582 31.547 63.176 31.547 63.066 31.563 62.988 31.578 62.91H30.766C30.75 62.988 30.734 63.035 30.734 63.113 30.734 63.488 30.984 63.895 31.469 64.066V64.082L30.813 64.113V64.863C31.125 64.848 31.453 64.832 31.922 64.832ZM34.25 64.832" fill="#bd2317"/>
<path d="M32.781 59.484C32.703 59.469 32.578 59.453 32.406 59.453 31.656 59.453 30.734 59.828 30.734 60.938 30.734 62.031 31.641 62.609 32.594 62.609 33.641 62.609 34.328 61.953 34.328 60.844 34.328 60.344 34.234 59.938 34.109 59.641L33.516 59.766C33.609 60.047 33.672 60.328 33.672 60.719 33.672 61.281 33.391 61.766 32.781 61.781ZM32.172 61.781C31.813 61.75 31.328 61.516 31.328 60.984 31.328 60.406 31.859 60.266 32.172 60.266ZM32.172 61.781" fill="#bd2317"/>
<path d="M35.641 56.457V55.598H31.813C31.453 55.598 31.125 55.582 30.813 55.566V56.41L31.281 56.426 31.266 56.441C30.953 56.629 30.734 56.957 30.734 57.441 30.734 58.176 31.328 58.973 32.594 58.973 33.656 58.973 34.328 58.316 34.328 57.535 34.328 57.035 34.109 56.676 33.781 56.473V56.457ZM32.813 56.457C32.891 56.457 33 56.473 33.078 56.504 33.422 56.598 33.641 56.895 33.641 57.238 33.641 57.785 33.172 58.098 32.547 58.098 31.891 58.098 31.422 57.785 31.422 57.223 31.422 56.832 31.703 56.566 32.016 56.488 32.094 56.473 32.172 56.457 32.234 56.457ZM32.813 56.457" fill="#bd2317"/>
<path d="M30.813 51.602V52.461H32.891C32.984 52.461 33.094 52.477 33.156 52.508 33.391 52.602 33.625 52.82 33.625 53.18 33.625 53.633 33.25 53.82 32.688 53.82H30.813V54.68H32.828C33.953 54.68 34.328 54.117 34.328 53.492 34.328 52.867 33.969 52.539 33.734 52.383V52.367L34.25 52.32V51.57C33.969 51.586 33.625 51.602 33.219 51.602ZM30.813 51.602" fill="#bd2317"/>
<path d="M32.781 47.754C32.703 47.738 32.578 47.723 32.406 47.723 31.656 47.723 30.734 48.098 30.734 49.207 30.734 50.301 31.641 50.879 32.594 50.879 33.641 50.879 34.328 50.223 34.328 49.113 34.328 48.613 34.234 48.207 34.109 47.91L33.516 48.035C33.609 48.316 33.672 48.598 33.672 48.988 33.672 49.551 33.391 50.035 32.781 50.051ZM32.172 50.051C31.813 50.02 31.328 49.785 31.328 49.254 31.328 48.676 31.859 48.535 32.172 48.535ZM32.172 50.051" fill="#bd2317"/>
<path d="M34.25 47.023V46.164H32.234C32.125 46.164 32.016 46.148 31.953 46.117 31.688 46.023 31.453 45.789 31.453 45.445 31.453 44.977 31.813 44.789 32.313 44.789H34.25V43.914H32.219C31.125 43.914 30.734 44.539 30.734 45.133 30.734 45.711 31.063 46.086 31.328 46.242V46.258L30.813 46.305V47.055C31.109 47.039 31.453 47.023 31.844 47.023ZM34.25 47.023" fill="#bd2317"/>
<path d="M33.5 40.59C33.578 40.762 33.641 40.98 33.641 41.277 33.641 41.871 33.234 42.324 32.531 42.324 31.906 42.34 31.422 41.949 31.422 41.277 31.422 40.965 31.484 40.762 31.547 40.621L30.891 40.465C30.813 40.668 30.734 40.996 30.734 41.309 30.734 42.512 31.531 43.215 32.563 43.215 33.625 43.215 34.328 42.527 34.328 41.449 34.328 41.027 34.234 40.668 34.141 40.48ZM33.5 40.59" fill="#bd2317"/>
<path d="M30.813 40.129 33.969 38.879C34.047 38.832 34.109 38.832 34.141 38.832 34.172 38.832 34.234 38.848 34.297 38.879 34.531 39.004 34.734 39.191 34.828 39.363 34.969 39.535 35.047 39.707 35.078 39.863L35.797 39.66C35.766 39.457 35.656 39.098 35.359 38.754 35.016 38.348 34.438 38.035 33.156 37.566L30.813 36.707V37.629L32.656 38.16C32.875 38.238 33.125 38.301 33.313 38.348V38.363C33.125 38.41 32.875 38.488 32.656 38.566L30.813 39.176ZM30.813 40.129" fill="#bd2317"/>
<path d="M196.363 83.875H195.504V88.875H196.363V87.703L196.66 87.359 197.645 88.875H198.707L197.254 86.844 198.535 85.438H197.488L196.645 86.547C196.566 86.672 196.473 86.813 196.379 86.953H196.363ZM196.363 83.875" fill="#bd2317"/>
<path d="M201.945 87.406C201.961 87.328 201.977 87.203 201.977 87.031 201.977 86.281 201.602 85.359 200.492 85.359 199.398 85.359 198.82 86.266 198.82 87.219 198.82 88.266 199.477 88.953 200.586 88.953 201.086 88.953 201.492 88.859 201.789 88.734L201.664 88.141C201.383 88.234 201.102 88.297 200.711 88.297 200.148 88.297 199.664 88.016 199.648 87.406ZM199.648 86.797C199.68 86.438 199.914 85.953 200.445 85.953 201.023 85.953 201.164 86.484 201.164 86.797ZM199.648 86.797" fill="#bd2317"/>
<path d="M202.246 85.438 203.496 88.594C203.543 88.672 203.543 88.734 203.543 88.766 203.543 88.797 203.527 88.859 203.496 88.922 203.371 89.156 203.184 89.359 203.012 89.453 202.84 89.594 202.668 89.672 202.512 89.703L202.715 90.422C202.918 90.391 203.277 90.281 203.621 89.984 204.027 89.641 204.34 89.063 204.809 87.781L205.668 85.438H204.746L204.215 87.281C204.137 87.5 204.074 87.75 204.027 87.938H204.012C203.965 87.75 203.887 87.5 203.809 87.281L203.199 85.438ZM202.246 85.438" fill="#bd2317"/>
<path d="M207.238 85.438 208.52 88.875H209.363L210.676 85.438H209.77L209.223 87.188C209.129 87.5 209.051 87.766 208.988 88.047H208.957C208.895 87.766 208.832 87.484 208.738 87.188L208.176 85.438ZM207.238 85.438" fill="#bd2317"/>
<path d="M213.82 86.813C213.82 86.063 213.508 85.359 212.414 85.359 211.867 85.359 211.414 85.516 211.164 85.672L211.336 86.234C211.57 86.078 211.914 85.984 212.258 85.984 212.867 85.984 212.961 86.359 212.961 86.578V86.641C211.695 86.625 210.914 87.078 210.914 87.938 210.914 88.453 211.305 88.953 211.992 88.953 212.445 88.953 212.805 88.766 213.008 88.5H213.039L213.102 88.875H213.883C213.836 88.656 213.82 88.359 213.82 88.047ZM212.977 87.672C212.977 87.734 212.977 87.797 212.961 87.859 212.867 88.109 212.633 88.328 212.273 88.328 211.992 88.328 211.773 88.172 211.773 87.844 211.773 87.313 212.367 87.188 212.977 87.203ZM212.977 87.672" fill="#bd2317"/>
<path d="M214.738 83.875H215.597V88.875H214.738Z" fill="#bd2317"/>
<path d="M219.613 85.438H218.754V87.516C218.754 87.609 218.738 87.719 218.707 87.781 218.613 88.016 218.395 88.25 218.035 88.25 217.582 88.25 217.395 87.875 217.395 87.313V85.438H216.535V87.453C216.535 88.578 217.098 88.953 217.723 88.953 218.348 88.953 218.676 88.594 218.832 88.359H218.848L218.895 88.875H219.645C219.629 88.594 219.613 88.25 219.613 87.844ZM219.613 85.438" fill="#bd2317"/>
<path d="M223.461 87.406C223.477 87.328 223.492 87.203 223.492 87.031 223.492 86.281 223.117 85.359 222.008 85.359 220.914 85.359 220.336 86.266 220.336 87.219 220.336 88.266 220.992 88.953 222.102 88.953 222.602 88.953 223.008 88.859 223.305 88.734L223.18 88.141C222.898 88.234 222.617 88.297 222.227 88.297 221.664 88.297 221.18 88.016 221.164 87.406ZM221.164 86.797C221.195 86.438 221.43 85.953 221.961 85.953 222.539 85.953 222.68 86.484 222.68 86.797ZM221.164 86.797" fill="#bd2317"/>
<path d="M0 .813 .547 .828C.734 .828 .766 .875 .766 1.156V4.625C.766 5.063 .719 5.109 0 5.156V5.344H2.156V5.156C1.422 5.109 1.391 5.063 1.391 4.625V.219C.891 .406 .406 .547 0 .641ZM0 .813" fill="#bd2317"/>
<path d="M3.863 .813 4.41 .828C4.598 .828 4.629 .875 4.629 1.156V4.625C4.629 5.063 4.582 5.109 3.863 5.156V5.344H6.02V5.156C5.285 5.109 5.254 5.063 5.254 4.625V.219C4.754 .406 4.27 .547 3.863 .641ZM3.863 .813" fill="#bd2317"/>
<path d="M8.738 5.203C7.973 5.203 7.785 3.953 7.785 2.828 7.785 1.719 7.973 .469 8.738 .469 9.473 .469 9.676 1.719 9.676 2.828 9.676 3.953 9.473 5.203 8.738 5.203ZM8.738 .219C7.504 .219 7.098 1.656 7.098 2.828 7.098 4.016 7.504 5.438 8.738 5.438 9.941 5.438 10.363 4.016 10.363 2.828 10.363 1.656 9.941 .219 8.738 .219ZM8.738 .219" fill="#bd2317"/>
<path d="M18.516 1.625C18.156 1.906 17.703 2.219 17.141 2.219 16.297 2.219 15.531 1.578 14.547 1.578 14 1.578 13.625 1.797 13.203 2.109V2.547C13.563 2.266 14.016 1.953 14.578 1.953 15.422 1.953 16.203 2.594 17.172 2.594 17.734 2.594 18.094 2.359 18.516 2.047ZM18.516 2.828C18.156 3.109 17.703 3.438 17.141 3.438 16.297 3.438 15.531 2.797 14.547 2.797 14 2.797 13.625 3.016 13.203 3.328V3.766C13.563 3.484 14.016 3.156 14.578 3.156 15.422 3.156 16.203 3.813 17.172 3.813 17.734 3.813 18.094 3.578 18.516 3.266ZM18.516 2.828" fill="#bd2317"/>
<path d="M21.992 .813 22.539 .828C22.727 .828 22.758 .875 22.758 1.156V4.625C22.758 5.063 22.711 5.109 21.992 5.156V5.344H24.148V5.156C23.414 5.109 23.383 5.063 23.383 4.625V.219C22.883 .406 22.398 .547 21.992 .641ZM21.992 .813" fill="#bd2317"/>
<path d="M26.867 5.203C26.102 5.203 25.914 3.953 25.914 2.828 25.914 1.719 26.102 .469 26.867 .469 27.602 .469 27.805 1.719 27.805 2.828 27.805 3.953 27.602 5.203 26.867 5.203ZM26.867 .219C25.633 .219 25.227 1.656 25.227 2.828 25.227 4.016 25.633 5.438 26.867 5.438 28.07 5.438 28.492 4.016 28.492 2.828 28.492 1.656 28.07 .219 26.867 .219ZM26.867 .219" fill="#bd2317"/>
<path d="M32.184 .172C31.855 .234 31.449 .328 31.152 .438 30.324 .75 29.105 1.656 29.105 3.438 29.105 4.688 29.824 5.438 30.715 5.438 31.699 5.438 32.371 4.625 32.371 3.672 32.371 2.859 31.793 2.188 30.918 2.188 30.746 2.188 30.59 2.234 30.434 2.313L29.902 2.578C30.121 1.453 30.84 .906 31.34 .656 31.652 .516 31.965 .422 32.23 .375ZM30.855 5.203C30.199 5.203 29.809 4.453 29.809 3.5 29.809 3.188 29.809 2.984 29.855 2.813 30.043 2.703 30.324 2.594 30.637 2.594 31.371 2.594 31.699 3.266 31.699 3.953 31.699 4.516 31.543 5.203 30.855 5.203ZM30.855 5.203" fill="#bd2317"/>
<path d="M33.219 .328C33.172 .672 33.141 1.016 33.078 1.422H33.281C33.422 .922 33.438 .875 33.969 .875H35.75C35.063 2.359 34.281 3.859 33.438 5.359L33.484 5.438 34.109 5.359C34.781 3.703 35.516 2.047 36.281 .406L36.234 .328ZM33.219 .328" fill="#bd2317"/>
<path d="M37.047 5.469C37.281 5.469 37.734 5.391 38.172 5.219 39.266 4.766 40.063 3.641 40.063 2.234 40.063 1.141 39.484 .219 38.469 .219 37.422 .219 36.844 1.156 36.844 1.906 36.844 2.75 37.375 3.375 38.25 3.375 38.422 3.375 38.578 3.344 38.75 3.25L39.313 2.938C39.031 4.25 38.234 5.031 37.016 5.297ZM38.359 .469C39.172 .469 39.359 1.547 39.359 2.219 39.359 2.359 39.344 2.563 39.328 2.703 39.156 2.828 38.844 2.938 38.563 2.938 37.891 2.938 37.5 2.359 37.5 1.609 37.5 1.156 37.688 .469 38.359 .469ZM38.359 .469" fill="#bd2317"/>
<path d="M41.004 5.703 42.707 0H42.254L40.535 5.703ZM41.004 5.703" fill="#bd2317"/>
<path d="M43.484 5.469C43.719 5.469 44.172 5.391 44.609 5.219 45.703 4.766 46.5 3.641 46.5 2.234 46.5 1.141 45.922 .219 44.906 .219 43.859 .219 43.281 1.156 43.281 1.906 43.281 2.75 43.813 3.375 44.688 3.375 44.859 3.375 45.016 3.344 45.188 3.25L45.75 2.938C45.469 4.25 44.672 5.031 43.453 5.297ZM44.797 .469C45.609 .469 45.797 1.547 45.797 2.219 45.797 2.359 45.781 2.563 45.766 2.703 45.594 2.828 45.281 2.938 45 2.938 44.328 2.938 43.938 2.359 43.938 1.609 43.938 1.156 44.125 .469 44.797 .469ZM44.797 .469" fill="#bd2317"/>
<path d="M47.379 .328C47.332 .672 47.301 1.016 47.238 1.422H47.441C47.582 .922 47.598 .875 48.129 .875H49.91C49.223 2.359 48.441 3.859 47.598 5.359L47.645 5.438 48.27 5.359C48.941 3.703 49.676 2.047 50.441 .406L50.395 .328ZM47.379 .328" fill="#bd2317"/>
<path d="M20.672 8.023 33.746 20.766" fill="#bd2317"/>
<path d="M33.504 20.527 33.82 19.164 33.867 19.172 34.723 21.09C35.105 21.668 35.488 22.25 35.871 22.832 35.277 22.465 34.688 22.098 34.098 21.73L32.16 20.926 32.145 20.883" fill="#bd2317"/>
<path transform="matrix(1,0,0,-1,0,0)" stroke-width=".503" stroke-linecap="butt" stroke-miterlimit="4" stroke-linejoin="miter" fill="none" stroke="#bd2317" d="M20.672-8.023 33.746-20.766"/>
<path d="M33.625 20.645 33.781 19.965 33.809 19.969 34.234 20.926C34.426 21.215 34.617 21.508 34.809 21.797 34.512 21.613 34.215 21.434 33.922 21.246L32.953 20.844 32.945 20.824" fill="#bd2317"/>
</g>
</svg>
