<svg xmlns="http://www.w3.org/2000/svg" xmlns:xlink="http://www.w3.org/1999/xlink" xmlns:inkscape="http://www.inkscape.org/namespaces/inkscape" version="1.1" width="223.04247" height="106.44022" viewBox="0 0 223.04247 106.44022">
<g>
<path transform="matrix(1,0,0,-1,0,0)" d="M114.848-20.211H222.84799V-33.711H114.848Z" fill="#dcdcde"/>
<path transform="matrix(1,0,0,-1,0,0)" stroke-width=".374" stroke-linecap="butt" stroke-miterlimit="10" stroke-linejoin="miter" fill="none" stroke="#211e1e" d="M114.848-20.211H222.84799V-33.711H114.848Z"/>
<path d="M114.848 40.371H222.84799V53.871H114.848Z" fill="#dcdcde"/>
<path transform="matrix(1,0,0,-1,0,0)" stroke-width=".374" stroke-linecap="butt" stroke-miterlimit="10" stroke-linejoin="miter" fill="none" stroke="#211e1e" d="M114.848-53.871H222.848V-40.371H114.848ZM114.848-16.793C114.848-14.902 126.938-13.371 141.848-13.371M168.848-10.043C168.848-11.883 156.762-13.371 141.848-13.371M195.848-13.371C180.938-13.371 168.848-11.883 168.848-10.043M195.848-13.371C210.762-13.371 222.848-14.902 222.848-16.793M125.02-86.633C119.402-86.633 114.848-85.543 114.848-84.203M125.02-86.633C130.637-86.633 135.188-87.719 135.188-89.063M135.188-89.063C135.188-87.719 139.703-86.633 145.27-86.633M155.348-84.203C155.348-85.543 150.836-86.633 145.27-86.633"/>
<path transform="matrix(1,0,0,-1,0,0)" d="M114.848-67.371H222.84799V-80.871H114.848Z" fill="#dcdcde"/>
<path transform="matrix(1,0,0,-1,0,0)" stroke-width=".374" stroke-linecap="butt" stroke-miterlimit="10" stroke-linejoin="miter" fill="none" stroke="#211e1e" d="M114.848-67.371H222.84799V-80.871H114.848Z"/>
<path d="M.188 67.371H108.188V80.871H.188Z" fill="#dcdcde"/>
<path transform="matrix(1,0,0,-1,0,0)" stroke-width=".374" stroke-linecap="butt" stroke-miterlimit="10" stroke-linejoin="miter" fill="none" stroke="#211e1e" d="M.188-80.871H108.188V-67.371H.188ZM.008-60.719H223.043"/>
<path transform="matrix(1,0,0,-1,0,0)" d="M114.848-92.754H155.34799V-106.254H114.848Z" fill="#dcdcde"/>
<path transform="matrix(1,0,0,-1,0,0)" stroke-width=".374" stroke-linecap="butt" stroke-miterlimit="10" stroke-linejoin="miter" fill="none" stroke="#211e1e" d="M114.848-92.754H155.34799V-106.254H114.848Z"/>
<path d="M103.625 45.883 103.297 45.555 101.297 47.555 99.313 45.555 98.984 45.883 100.969 47.883 98.984 49.867 99.313 50.195 101.297 48.211 103.297 50.195 103.625 49.867 101.641 47.883ZM103.625 45.883" fill="#211e1e"/>
<path d="M152.477 45.41H152.336C152.305 45.488 152.211 45.613 152.07 45.613 151.852 45.613 151.695 45.41 151.227 45.41 150.523 45.41 150.133 45.926 150.133 46.426 150.133 47.254 151.242 48.035 151.242 48.738 151.242 49.051 151.008 49.473 150.539 49.473 149.758 49.473 149.648 48.598 149.617 48.191H149.445L149.227 49.676H149.398C149.477 49.52 149.586 49.473 149.711 49.473 150.008 49.473 150.102 49.676 150.539 49.676 151.133 49.676 151.898 49.285 151.898 48.426 151.898 47.566 150.773 46.816 150.773 46.145 150.773 45.801 151.023 45.629 151.289 45.629 151.805 45.629 152.086 46.082 152.117 46.754H152.273ZM152.477 45.41" fill="#211e1e"/>
<path d="M162.457 46.613V46.098H156.426V46.613ZM162.457 48.441V47.926H156.426V48.441ZM162.457 48.441" fill="#211e1e"/>
<path d="M171.656 49.395C171.078 49.395 171.016 49.129 171 48.504L170.781 43.301H170.594L167.063 48.676C166.656 49.301 166.422 49.395 166.156 49.395L166.141 49.551H167.813L167.828 49.395C167.531 49.395 167.313 49.301 167.313 49.051 167.313 48.91 167.391 48.707 167.563 48.441L168.172 47.504H170.078L170.125 48.66C170.156 49.332 169.859 49.395 169.375 49.395L169.344 49.551H171.625ZM170.063 47.176H168.391L169.969 44.785ZM170.063 47.176" fill="#211e1e"/>
<path d="M175.91 47.27C175.91 46.957 175.66 46.723 175.348 46.723 175.051 46.723 174.785 46.957 174.785 47.27 174.785 47.582 175.051 47.832 175.348 47.832 175.66 47.832 175.91 47.582 175.91 47.27ZM175.91 47.27" fill="#211e1e"/>
<path d="M182.664 48.379 182.523 48.363C182.242 48.816 182.023 48.895 181.586 48.895H179.508C180.93 47.582 182.242 46.395 182.242 45.066 182.242 44.145 181.445 43.473 180.57 43.473 179.695 43.473 178.992 43.957 178.727 45.191H178.93C179.18 44.691 179.539 44.16 180.227 44.16 181.023 44.16 181.461 44.754 181.461 45.441 181.461 46.41 180.414 47.848 178.633 49.41V49.551H182.195ZM182.664 48.379" fill="#211e1e"/>
<path d="M187.273 44.094C187.273 43.766 187.211 43.422 186.914 43.422 186.773 43.422 186.602 43.516 186.602 43.703 186.602 43.969 186.961 43.844 186.961 44.375 186.961 45.047 186.445 46.094 185.898 46.094 185.648 46.094 185.539 45.891 185.539 45.625 185.539 45.547 185.586 45.328 185.602 45.234L186.023 43.422H185.445L185.039 45.172C184.898 45.797 184.617 46.094 184.398 46.094 184.227 46.094 184.117 45.922 184.117 45.641 184.117 45.203 184.414 44.359 184.414 44.031 184.414 43.625 184.117 43.422 183.852 43.422 183.445 43.422 183.273 43.766 183.273 43.984 183.273 44.063 183.289 44.125 183.336 44.188H183.461C183.461 44.125 183.461 44.125 183.461 44.109 183.461 44 183.492 43.781 183.695 43.781 183.789 43.781 183.852 43.844 183.852 44.047 183.852 44.266 183.555 45.203 183.555 45.563 183.555 46.063 183.961 46.328 184.289 46.328 184.68 46.328 185.023 46.094 185.195 45.813 185.258 46.141 185.508 46.328 185.898 46.328 186.695 46.328 187.273 44.938 187.273 44.094ZM187.273 44.094" fill="#211e1e"/>
<path d="M163.832 2.984C163.832 2.531 163.77 2.031 163.379 2.031 163.191 2.031 162.988 2.156 162.988 2.406 162.988 2.781 163.488 2.609 163.488 3.406 163.488 4.422 162.723 6.031 161.941 6.031 161.551 6.031 161.379 5.703 161.379 5.281 161.379 5.156 161.426 4.828 161.457 4.672L162.051 2.031H161.316L160.754 4.609C160.535 5.609 160.129 6.031 159.785 6.031 159.535 6.031 159.332 5.781 159.332 5.313 159.332 4.641 159.754 3.375 159.754 2.891 159.754 2.328 159.379 2.031 159.02 2.031 158.488 2.031 158.238 2.516 158.238 2.828 158.238 2.922 158.27 3 158.301 3.063H158.41C158.41 3.047 158.41 3.031 158.41 3 158.41 2.828 158.473 2.453 158.801 2.453 158.957 2.453 159.066 2.563 159.066 2.922 159.066 3.234 158.645 4.656 158.645 5.188 158.645 5.906 159.207 6.281 159.66 6.281 160.223 6.281 160.754 5.859 160.957 5.391 161.004 5.953 161.363 6.281 161.926 6.281 163.035 6.281 163.832 4.219 163.832 2.984ZM163.832 2.984" fill="#211e1e"/>
<path d="M167.113 .531C167.285 .531 167.395 .563 167.441 .641 167.488 .703 167.52 .828 167.52 1V5.672C167.52 5.797 167.676 5.922 167.988 6.047 168.301 6.188 168.629 6.25 168.957 6.25 169.598 6.25 170.129 6.031 170.52 5.578 170.926 5.141 171.113 4.609 171.113 3.984 171.113 3.406 170.973 2.938 170.66 2.563 170.363 2.203 169.988 2.016 169.551 2.016 169.207 2.016 168.895 2.125 168.629 2.359 168.473 2.484 168.348 2.609 168.285 2.75V.063C168.285 .031 168.285 .016 168.27 0 168.254 0 168.113 .047 167.832 .141 167.566 .234 167.254 .328 166.926 .406V.547ZM168.27 5.516V3.281C168.27 3.078 168.363 2.922 168.566 2.781 168.77 2.656 168.973 2.594 169.176 2.594 169.598 2.594 169.895 2.781 170.066 3.156 170.254 3.531 170.348 3.922 170.348 4.359 170.348 4.813 170.254 5.172 170.051 5.484 169.848 5.797 169.551 5.953 169.145 5.953 168.988 5.953 168.816 5.906 168.613 5.844 168.41 5.781 168.301 5.672 168.27 5.516ZM168.27 5.516" fill="#211e1e"/>
<path d="M172.125 .469C172.125 .594 172.172 .703 172.266 .781 172.359 .875 172.469 .922 172.594 .922 172.719 .922 172.828 .875 172.922 .781 173.016 .703 173.063 .594 173.063 .469 173.063 .344 173.016 .234 172.922 .141 172.828 .047 172.719 0 172.594 0 172.469 0 172.359 .047 172.266 .141 172.172 .234 172.125 .344 172.125 .469ZM171.563 6.172H173.719V6.047C173.438 6.016 173.25 5.969 173.156 5.875 173.078 5.797 173.047 5.578 173.047 5.266V2.078C173.047 2.063 173.047 2.031 173.031 2.016 173.016 2.016 172.969 2.031 172.875 2.078 172.672 2.156 172.313 2.281 171.797 2.453L171.609 2.516V2.656C171.75 2.609 171.844 2.594 171.875 2.578 171.906 2.578 171.938 2.578 171.969 2.578 172.109 2.578 172.203 2.641 172.25 2.75 172.281 2.828 172.281 2.953 172.281 3.156V5.25C172.281 5.594 172.234 5.813 172.156 5.875 172.078 5.969 171.875 6.016 171.563 6.047ZM171.563 6.172" fill="#211e1e"/>
<path d="M175.281 2.109V1.031C175.281 .984 175.281 .969 175.266 .953 175.266 .953 175.234 .953 175.203 .953 174.875 1.391 174.656 1.672 174.563 1.781 174.484 1.891 174.328 2.016 174.125 2.188 174.063 2.25 174.016 2.281 174 2.297 174 2.313 173.984 2.344 173.984 2.359 173.984 2.375 173.984 2.391 174 2.406 174 2.406 174.016 2.422 174.031 2.422H174.516V5.094C174.516 5.391 174.547 5.625 174.609 5.797 174.734 6.094 174.969 6.25 175.328 6.25 175.469 6.25 175.641 6.203 175.813 6.125 175.984 6.031 176.141 5.891 176.297 5.688L176.406 5.547 176.281 5.453C176.188 5.563 176.094 5.641 176.016 5.688 175.938 5.734 175.844 5.766 175.734 5.766 175.531 5.766 175.391 5.672 175.313 5.453 175.281 5.344 175.266 5.172 175.266 4.953V2.422H176.172V2.109ZM175.281 2.109" fill="#211e1e"/>
<path d="M176.828 6.203H176.953C176.969 6.172 177 6.141 177.016 6.125 177.047 6.094 177.078 6.078 177.109 6.078 177.156 6.078 177.281 6.109 177.516 6.156 177.719 6.219 177.922 6.25 178.109 6.25 178.516 6.25 178.859 6.141 179.125 5.922 179.375 5.703 179.5 5.422 179.5 5.063 179.5 4.609 179.188 4.219 178.563 3.891L177.984 3.563C177.578 3.359 177.375 3.109 177.375 2.844 177.375 2.672 177.438 2.531 177.563 2.406 177.688 2.266 177.828 2.203 178.047 2.203 178.391 2.203 178.641 2.359 178.844 2.656 178.938 2.813 179.016 3.031 179.078 3.313H179.203L179.188 2.078H179.078C179.063 2.125 179.031 2.141 179.016 2.156 178.984 2.172 178.953 2.172 178.891 2.172 178.875 2.172 178.766 2.141 178.578 2.094 178.391 2.031 178.219 2 178.063 2 177.703 2 177.406 2.109 177.172 2.313 176.938 2.531 176.828 2.797 176.828 3.125 176.828 3.391 176.906 3.625 177.078 3.828 177.25 4.031 177.516 4.219 177.875 4.422L178.375 4.703C178.563 4.813 178.688 4.922 178.75 5.031 178.828 5.156 178.859 5.266 178.859 5.391 178.859 5.578 178.797 5.734 178.672 5.859 178.547 5.984 178.375 6.047 178.156 6.047 177.75 6.047 177.453 5.875 177.25 5.547 177.141 5.375 177.031 5.109 176.969 4.781H176.828ZM176.828 6.203" fill="#211e1e"/>
<path d="M170.875 25.887H169.125L169.094 26.043C169.25 26.043 169.531 26.074 169.531 26.199 169.531 26.355 169.188 26.668 168.953 26.855 168.953 26.855 167.797 27.762 167.641 27.887L168.813 23.449C168.813 23.449 167.594 23.668 167.344 23.684V23.84C167.703 23.84 167.938 23.887 167.938 24.168 167.938 24.34 167.828 24.762 167.766 24.98L166.422 29.934H167.109L167.563 28.262 168.094 27.84C168.375 28.605 168.656 29.34 168.656 29.34 168.875 29.887 169.125 30.043 169.313 30.043 169.766 30.043 170.266 29.387 170.484 28.996L170.359 28.902C170.078 29.324 169.859 29.559 169.672 29.559 169.531 29.559 169.406 29.402 169.297 29.137 169.297 29.137 168.938 28.137 168.625 27.418L169.063 27.059C169.766 26.465 170.344 26.074 170.844 26.074ZM170.875 25.887" fill="#211e1e"/>
<path d="M168.688 71.98C168.688 71.699 168.469 71.512 168.266 71.512 167.578 71.512 166.859 73.012 166.578 73.637L167.156 71.512C167.156 71.512 165.922 71.746 165.656 71.777V71.918C166 71.918 166.25 71.902 166.25 72.262 166.25 72.434 166.141 72.777 166.094 72.996L165.406 75.652H166.094C166.297 74.715 167.313 72.168 167.781 72.168 168.031 72.168 167.875 72.527 168.234 72.527 168.484 72.527 168.688 72.309 168.688 71.98ZM168.688 71.98" fill="#211e1e"/>
<path d="M171.777 75.125C171.777 74.094 171.293 73.141 170.387 73.141 169.48 73.141 168.996 74.094 168.996 75.125 168.996 76.188 169.449 77.109 170.387 77.109 171.277 77.109 171.777 76.188 171.777 75.125ZM171.059 75.125C171.059 75.938 170.855 76.891 170.387 76.891 169.793 76.891 169.715 75.938 169.715 75.125 169.715 74.453 169.762 73.375 170.387 73.375 171.012 73.375 171.059 74.453 171.059 75.125ZM171.059 75.125" fill="#211e1e"/>
<path d="M53.477 71.98C53.477 71.699 53.258 71.512 53.055 71.512 52.367 71.512 51.648 73.012 51.367 73.637L51.945 71.512C51.945 71.512 50.711 71.746 50.445 71.777V71.918C50.789 71.918 51.039 71.902 51.039 72.262 51.039 72.434 50.93 72.777 50.883 72.996L50.195 75.652H50.883C51.086 74.715 52.102 72.168 52.57 72.168 52.82 72.168 52.664 72.527 53.023 72.527 53.273 72.527 53.477 72.309 53.477 71.98ZM53.477 71.98" fill="#211e1e"/>
<path d="M56.098 77.047V76.891C55.66 76.891 55.535 76.891 55.535 76.188V73.141H55.379L54.27 73.625 54.332 73.781C54.582 73.688 54.645 73.672 54.723 73.672 54.895 73.672 54.91 73.797 54.91 73.969V76.188C54.91 76.891 54.77 76.875 54.332 76.891V77.047ZM56.098 77.047" fill="#211e1e"/>
<path d="M130.898 101.535 130.773 101.426C130.555 101.738 130.242 102.113 130.07 102.113 130.008 102.113 129.961 102.051 129.961 101.973 129.961 101.613 130.711 99.504 130.711 98.957 130.711 98.488 130.367 98.332 130.148 98.332 129.352 98.332 128.43 99.645 128.008 100.332L129.164 95.988C129.164 95.988 127.945 96.207 127.695 96.223V96.379C128.055 96.379 128.289 96.426 128.289 96.707 128.289 96.879 128.18 97.301 128.117 97.52L126.773 102.473H127.445C127.477 102.363 127.617 101.863 127.617 101.863 128.18 99.754 129.398 98.848 129.742 98.848 129.883 98.848 130.008 98.941 130.008 99.113 130.008 99.488 129.227 101.707 129.242 102.16 129.258 102.379 129.352 102.582 129.617 102.582 130.133 102.582 130.617 101.973 130.898 101.535ZM130.898 101.535" fill="#211e1e"/>
<path d="M134.77 104.41V104.238C133.676 103.613 133.16 102.332 133.16 100.191 133.16 98.066 133.66 96.816 134.77 96.145V95.988C133.207 96.785 132.301 98.332 132.301 100.191 132.301 102.082 133.176 103.535 134.77 104.41ZM134.77 104.41" fill="#211e1e"/>
<path d="M139.516 98.426H137.766L137.734 98.582C137.891 98.582 138.172 98.613 138.172 98.738 138.172 98.895 137.828 99.207 137.594 99.395 137.594 99.395 136.438 100.301 136.281 100.426L137.453 95.988C137.453 95.988 136.234 96.207 135.984 96.223V96.379C136.344 96.379 136.578 96.426 136.578 96.707 136.578 96.879 136.469 97.301 136.406 97.52L135.063 102.473H135.75L136.203 100.801 136.734 100.379C137.016 101.145 137.297 101.879 137.297 101.879 137.516 102.426 137.766 102.582 137.953 102.582 138.406 102.582 138.906 101.926 139.125 101.535L139 101.441C138.719 101.863 138.5 102.098 138.313 102.098 138.172 102.098 138.047 101.941 137.938 101.676 137.938 101.676 137.578 100.676 137.266 99.957L137.703 99.598C138.406 99.004 138.984 98.613 139.484 98.613ZM139.516 98.426" fill="#211e1e"/>
<path d="M142.809 100.207C142.809 98.316 141.934 96.863 140.34 95.988V96.145C141.434 96.785 141.949 98.066 141.949 100.207 141.949 102.332 141.449 103.598 140.34 104.254V104.41C141.902 103.629 142.809 102.082 142.809 100.207ZM142.809 100.207" fill="#211e1e"/>
<path d="M162.727 86.453C162.164 86.453 161.711 86.672 161.352 87.094 161.008 87.531 160.836 88.031 160.836 88.625 160.836 89.172 160.977 89.656 161.289 90.078 161.586 90.5 162.008 90.703 162.57 90.703 163.039 90.703 163.445 90.547 163.773 90.219 164.117 89.906 164.336 89.563 164.461 89.188L164.305 89.125C164.117 89.422 163.93 89.656 163.711 89.813 163.508 89.984 163.242 90.063 162.93 90.063 162.555 90.063 162.227 89.906 161.945 89.594 161.664 89.281 161.523 88.781 161.492 88.109H164.273C164.273 87.578 164.117 87.172 163.805 86.891 163.492 86.594 163.133 86.453 162.727 86.453ZM162.461 86.781C162.805 86.781 163.039 86.906 163.195 87.172 163.258 87.313 163.32 87.531 163.352 87.828H161.508C161.539 87.578 161.617 87.375 161.711 87.219 161.883 86.922 162.148 86.781 162.461 86.781ZM162.461 86.781" fill="#211e1e"/>
<path d="M164.754 86.531V86.656C164.973 86.672 165.113 86.719 165.176 86.766 165.238 86.797 165.363 86.953 165.535 87.203L166.348 88.5 165.348 90C165.223 90.172 165.129 90.297 165.035 90.344 164.973 90.391 164.848 90.438 164.691 90.469V90.594H166.004V90.469C165.848 90.453 165.754 90.438 165.707 90.406 165.66 90.391 165.629 90.359 165.629 90.297 165.629 90.266 165.645 90.234 165.66 90.188 165.691 90.141 165.738 90.063 165.832 89.922L166.551 88.797C166.613 88.906 166.691 89.031 166.785 89.172 166.895 89.313 166.957 89.422 167.004 89.516 167.113 89.672 167.191 89.797 167.238 89.891 167.363 90.094 167.41 90.203 167.41 90.266 167.41 90.313 167.379 90.359 167.332 90.391 167.301 90.438 167.238 90.453 167.16 90.453L167.035 90.469V90.594H168.863V90.469C168.738 90.453 168.613 90.422 168.504 90.359 168.41 90.281 168.285 90.141 168.129 89.922L166.973 88.141 167.723 87.063C167.801 86.938 167.895 86.844 168.035 86.781 168.16 86.719 168.301 86.672 168.457 86.656V86.531H167.035V86.656C167.145 86.672 167.238 86.688 167.285 86.719 167.348 86.734 167.379 86.781 167.379 86.859 167.379 86.938 167.316 87.078 167.16 87.297 167.082 87.422 166.957 87.609 166.785 87.844 166.645 87.656 166.551 87.484 166.457 87.359 166.301 87.094 166.223 86.938 166.223 86.875 166.223 86.797 166.27 86.734 166.348 86.703 166.426 86.672 166.52 86.656 166.629 86.656V86.531ZM164.754 86.531" fill="#211e1e"/>
<path d="M170.422 86.531V85.453C170.422 85.406 170.422 85.391 170.406 85.375 170.406 85.375 170.375 85.375 170.344 85.375 170.016 85.813 169.797 86.094 169.703 86.203 169.625 86.313 169.469 86.438 169.266 86.609 169.203 86.672 169.156 86.703 169.141 86.719 169.141 86.734 169.125 86.766 169.125 86.781 169.125 86.797 169.125 86.813 169.141 86.828 169.141 86.828 169.156 86.844 169.172 86.844H169.656V89.516C169.656 89.813 169.688 90.047 169.75 90.219 169.875 90.516 170.109 90.672 170.469 90.672 170.609 90.672 170.781 90.625 170.953 90.547 171.125 90.453 171.281 90.313 171.438 90.109L171.547 89.969 171.422 89.875C171.328 89.984 171.234 90.063 171.156 90.109 171.078 90.156 170.984 90.188 170.875 90.188 170.672 90.188 170.531 90.094 170.453 89.875 170.422 89.766 170.406 89.594 170.406 89.375V86.844H171.313V86.531ZM170.422 86.531" fill="#211e1e"/>
<path d="M171.547 90.594H173.719V90.453C173.438 90.453 173.25 90.406 173.125 90.313 173.016 90.219 172.953 90.031 172.953 89.781V87.797C172.953 87.625 173.031 87.453 173.188 87.281 173.328 87.109 173.453 87.031 173.563 87.031 173.625 87.031 173.719 87.078 173.828 87.188 173.938 87.281 174.047 87.344 174.156 87.344 174.266 87.344 174.359 87.297 174.438 87.203 174.5 87.125 174.547 87.031 174.547 86.906 174.547 86.766 174.5 86.656 174.391 86.563 174.297 86.484 174.188 86.438 174.031 86.438 173.844 86.438 173.656 86.5 173.484 86.656 173.313 86.797 173.141 87.016 172.953 87.281V86.547C172.953 86.5 172.953 86.453 172.938 86.453 172.938 86.438 172.922 86.422 172.906 86.422 172.75 86.5 172.594 86.563 172.453 86.609 172.375 86.641 172.266 86.688 172.078 86.75 171.906 86.813 171.734 86.859 171.563 86.938V87.078C171.625 87.063 171.672 87.063 171.719 87.047 171.766 87.031 171.813 87.031 171.828 87.031 171.984 87.031 172.078 87.109 172.141 87.219 172.188 87.344 172.219 87.563 172.219 87.859V89.844C172.219 90.078 172.172 90.234 172.078 90.297 172 90.375 171.813 90.422 171.547 90.453ZM171.547 90.594" fill="#211e1e"/>
<path d="M177.078 89.547C177.078 89.719 176.984 89.859 176.813 89.953 176.641 90.063 176.453 90.125 176.25 90.125 176.109 90.125 175.984 90.078 175.875 90 175.703 89.875 175.609 89.672 175.609 89.406 175.609 89.078 175.813 88.781 176.234 88.516 176.469 88.375 176.75 88.25 177.078 88.141ZM174.813 89.719C174.813 89.984 174.906 90.219 175.094 90.391 175.281 90.563 175.5 90.656 175.75 90.656 176 90.656 176.25 90.578 176.516 90.422 176.672 90.328 176.859 90.172 177.094 89.984 177.094 90.172 177.141 90.328 177.234 90.453 177.328 90.578 177.469 90.641 177.672 90.641 177.844 90.641 178.016 90.594 178.172 90.484 178.281 90.406 178.391 90.328 178.484 90.203V89.953C178.375 90.047 178.297 90.109 178.25 90.125 178.219 90.156 178.156 90.156 178.078 90.156 177.969 90.156 177.891 90.094 177.844 89.969 177.828 89.906 177.813 89.781 177.813 89.609V87.859C177.813 87.469 177.766 87.172 177.656 86.953 177.453 86.594 177.063 86.406 176.5 86.406 176 86.406 175.625 86.516 175.375 86.734 175.125 86.969 174.984 87.188 174.984 87.391 174.984 87.484 175.031 87.594 175.094 87.688 175.172 87.766 175.266 87.813 175.391 87.813 175.484 87.813 175.563 87.797 175.625 87.75 175.734 87.688 175.781 87.578 175.781 87.406 175.781 87.375 175.781 87.328 175.766 87.25 175.75 87.156 175.734 87.109 175.734 87.063 175.734 86.938 175.813 86.828 175.938 86.734 176.078 86.656 176.219 86.625 176.375 86.625 176.688 86.625 176.891 86.719 176.984 86.922 177.047 87.031 177.078 87.25 177.078 87.547V87.922C176.266 88.219 175.734 88.469 175.469 88.656 175.031 88.922 174.813 89.281 174.813 89.719ZM174.813 89.719" fill="#211e1e"/>
<path d="M180.723 86.438C180.129 86.438 179.645 86.656 179.254 87.094 178.863 87.531 178.676 88.047 178.676 88.656 178.676 89.281 178.863 89.766 179.207 90.125 179.566 90.5 179.973 90.672 180.441 90.672 180.895 90.672 181.316 90.469 181.66 90.094 181.863 89.875 182.035 89.594 182.207 89.25L182.066 89.172C181.895 89.422 181.754 89.594 181.613 89.719 181.379 89.922 181.098 90.016 180.801 90.016 180.363 90.016 180.02 89.844 179.77 89.484 179.52 89.141 179.379 88.734 179.379 88.281 179.379 87.813 179.504 87.422 179.723 87.125 179.973 86.828 180.238 86.688 180.582 86.688 180.738 86.688 180.863 86.719 180.973 86.781 181.066 86.844 181.129 86.953 181.176 87.109L181.207 87.313C181.254 87.453 181.316 87.563 181.379 87.625 181.473 87.703 181.551 87.734 181.66 87.734 181.801 87.734 181.895 87.688 181.973 87.609 182.035 87.531 182.066 87.438 182.066 87.344 182.066 87.109 181.941 86.906 181.676 86.719 181.41 86.516 181.082 86.438 180.723 86.438ZM180.723 86.438" fill="#211e1e"/>
<path d="M183.863 86.531V85.453C183.863 85.406 183.863 85.391 183.848 85.375 183.848 85.375 183.816 85.375 183.785 85.375 183.457 85.813 183.238 86.094 183.145 86.203 183.066 86.313 182.91 86.438 182.707 86.609 182.645 86.672 182.598 86.703 182.582 86.719 182.582 86.734 182.566 86.766 182.566 86.781 182.566 86.797 182.566 86.813 182.582 86.828 182.582 86.828 182.598 86.844 182.613 86.844H183.098V89.516C183.098 89.813 183.129 90.047 183.191 90.219 183.316 90.516 183.551 90.672 183.91 90.672 184.051 90.672 184.223 90.625 184.395 90.547 184.566 90.453 184.723 90.313 184.879 90.109L184.988 89.969 184.863 89.875C184.77 89.984 184.676 90.063 184.598 90.109 184.52 90.156 184.426 90.188 184.316 90.188 184.113 90.188 183.973 90.094 183.895 89.875 183.863 89.766 183.848 89.594 183.848 89.375V86.844H184.754V86.531ZM183.863 86.531" fill="#211e1e"/>
<path d="M192.801 87.656C192.801 86.938 192.488 86.453 191.801 86.453 191.207 86.453 190.738 86.891 190.332 87.469L190.66 86.453C190.66 86.453 189.441 86.688 189.176 86.719V86.859C189.52 86.859 189.77 86.844 189.77 87.203 189.77 87.375 189.66 87.781 189.598 88L188.535 91.766C188.441 92.109 188.27 92.359 187.832 92.359L187.801 92.516H189.801L189.816 92.359C189.473 92.359 189.176 92.344 189.176 92.094 189.176 92.016 189.191 91.922 189.238 91.75L189.551 90.484C189.723 90.625 189.988 90.719 190.223 90.719 191.301 90.719 192.801 89.156 192.801 87.656ZM192.035 87.75C192.035 88.922 191.035 90.5 190.191 90.5 189.988 90.5 189.801 90.406 189.613 90.25 189.816 89.438 190.379 86.891 191.535 86.891 192.035 86.891 192.035 87.531 192.035 87.75ZM192.035 87.75" fill="#211e1e"/>
<path d="M195.93 84.953C196.102 84.953 196.211 84.984 196.258 85.063 196.305 85.125 196.336 85.25 196.336 85.422V90.094C196.336 90.219 196.492 90.344 196.805 90.469 197.117 90.609 197.445 90.672 197.773 90.672 198.414 90.672 198.945 90.453 199.336 90 199.742 89.563 199.93 89.031 199.93 88.406 199.93 87.828 199.789 87.359 199.477 86.984 199.18 86.625 198.805 86.438 198.367 86.438 198.023 86.438 197.711 86.547 197.445 86.781 197.289 86.906 197.164 87.031 197.102 87.172V84.484C197.102 84.453 197.102 84.438 197.086 84.422 197.07 84.422 196.93 84.469 196.648 84.563 196.383 84.656 196.07 84.75 195.742 84.828V84.969ZM197.086 89.938V87.703C197.086 87.5 197.18 87.344 197.383 87.203 197.586 87.078 197.789 87.016 197.992 87.016 198.414 87.016 198.711 87.203 198.883 87.578 199.07 87.953 199.164 88.344 199.164 88.781 199.164 89.234 199.07 89.594 198.867 89.906 198.664 90.219 198.367 90.375 197.961 90.375 197.805 90.375 197.633 90.328 197.43 90.266 197.227 90.203 197.117 90.094 197.086 89.938ZM197.086 89.938" fill="#211e1e"/>
<path d="M200.938 84.891C200.938 85.016 200.984 85.125 201.078 85.203 201.172 85.297 201.281 85.344 201.406 85.344 201.531 85.344 201.641 85.297 201.734 85.203 201.828 85.125 201.875 85.016 201.875 84.891 201.875 84.766 201.828 84.656 201.734 84.563 201.641 84.469 201.531 84.422 201.406 84.422 201.281 84.422 201.172 84.469 201.078 84.563 200.984 84.656 200.938 84.766 200.938 84.891ZM200.375 90.594H202.531V90.469C202.25 90.438 202.063 90.391 201.969 90.297 201.891 90.219 201.859 90 201.859 89.688V86.5C201.859 86.484 201.859 86.453 201.844 86.438 201.828 86.438 201.781 86.453 201.688 86.5 201.484 86.578 201.125 86.703 200.609 86.875L200.422 86.938V87.078C200.563 87.031 200.656 87.016 200.688 87 200.719 87 200.75 87 200.781 87 200.922 87 201.016 87.063 201.063 87.172 201.094 87.25 201.094 87.375 201.094 87.578V89.672C201.094 90.016 201.047 90.234 200.969 90.297 200.891 90.391 200.688 90.438 200.375 90.469ZM200.375 90.594" fill="#211e1e"/>
<path d="M204.098 86.531V85.453C204.098 85.406 204.098 85.391 204.082 85.375 204.082 85.375 204.051 85.375 204.02 85.375 203.691 85.813 203.473 86.094 203.379 86.203 203.301 86.313 203.145 86.438 202.941 86.609 202.879 86.672 202.832 86.703 202.816 86.719 202.816 86.734 202.801 86.766 202.801 86.781 202.801 86.797 202.801 86.813 202.816 86.828 202.816 86.828 202.832 86.844 202.848 86.844H203.332V89.516C203.332 89.813 203.363 90.047 203.426 90.219 203.551 90.516 203.785 90.672 204.145 90.672 204.285 90.672 204.457 90.625 204.629 90.547 204.801 90.453 204.957 90.313 205.113 90.109L205.223 89.969 205.098 89.875C205.004 89.984 204.91 90.063 204.832 90.109 204.754 90.156 204.66 90.188 204.551 90.188 204.348 90.188 204.207 90.094 204.129 89.875 204.098 89.766 204.082 89.594 204.082 89.375V86.844H204.988V86.531ZM204.098 86.531" fill="#211e1e"/>
<path d="M205.645 90.625H205.77C205.785 90.594 205.816 90.563 205.832 90.547 205.863 90.516 205.895 90.5 205.926 90.5 205.973 90.5 206.098 90.531 206.332 90.578 206.535 90.641 206.738 90.672 206.926 90.672 207.332 90.672 207.676 90.563 207.941 90.344 208.191 90.125 208.316 89.844 208.316 89.484 208.316 89.031 208.004 88.641 207.379 88.313L206.801 87.984C206.395 87.781 206.191 87.531 206.191 87.266 206.191 87.094 206.254 86.953 206.379 86.828 206.504 86.688 206.645 86.625 206.863 86.625 207.207 86.625 207.457 86.781 207.66 87.078 207.754 87.234 207.832 87.453 207.895 87.734H208.02L208.004 86.5H207.895C207.879 86.547 207.848 86.563 207.832 86.578 207.801 86.594 207.77 86.594 207.707 86.594 207.691 86.594 207.582 86.563 207.395 86.516 207.207 86.453 207.035 86.422 206.879 86.422 206.52 86.422 206.223 86.531 205.988 86.734 205.754 86.953 205.645 87.219 205.645 87.547 205.645 87.813 205.723 88.047 205.895 88.25 206.066 88.453 206.332 88.641 206.691 88.844L207.191 89.125C207.379 89.234 207.504 89.344 207.566 89.453 207.645 89.578 207.676 89.688 207.676 89.813 207.676 90 207.613 90.156 207.488 90.281 207.363 90.406 207.191 90.469 206.973 90.469 206.566 90.469 206.27 90.297 206.066 89.969 205.957 89.797 205.848 89.531 205.785 89.203H205.645ZM205.645 90.625" fill="#211e1e"/>
</g>
</svg>
