<svg xmlns="http://www.w3.org/2000/svg" xmlns:xlink="http://www.w3.org/1999/xlink" xmlns:inkscape="http://www.inkscape.org/namespaces/inkscape" version="1.1" width="403.91999" height="217.92" viewBox="0 0 403.91999 217.92">
<defs>
<clipPath id="clip_1">
<path transform="matrix(.24,0,0,.24,0,0)" d="M0 0H1683.3333V905.9502H0Z" clip-rule="evenodd"/>
</clipPath>
<clipPath id="clip_2">
<path transform="matrix(.24,0,0,.24,0,0)" d="M0 0H1683.3333V902.96029H0Z" clip-rule="evenodd"/>
</clipPath>
<path id="font_3_19" d="M.041503908 .35327149C.041503908 .43784587 .05021159 .50591537 .06762695 .55747988 .08504232 .6090444 .11092123 .6488139 .14526367 .67678835 .17960613 .70476278 .22281902 .71875 .27490235 .71875 .3133138 .71875 .34700523 .711024 .37597657 .6955719 .4049479 .6801198 .4288737 .6578369 .4477539 .62872317 .46663413 .5996094 .4814453 .56414797 .4921875 .52233889 .5029297 .48053996 .5083008 .42418418 .5083008 .35327149 .5083008 .26934815 .49967448 .2016042 .48242188 .15003968 .46516929 .098475139 .43937174 .058624269 .4050293 .03048706 .37068687 .0023498536 .3273112-.01171875 .27490235-.01171875 .20589192-.01171875 .1516927 .013005574 .11230469 .062454225 .065104167 .12198385 .041503908 .21892293 .041503908 .35327149M.13183594 .35351563C.13183594 .23639934 .14558919 .15845235 .1730957 .11967468 .20060222 .08090719 .23453777 .061523439 .27490235 .061523439 .31526695 .061523439 .34920249 .08098856 .37670899 .11991882 .40421549 .15884908 .41796876 .23671468 .41796876 .35351563 .41796876 .47095744 .40421549 .5489807 .37670899 .58758547 .34920249 .6262004 .3149414 .6455078 .27392579 .6455078 .2335612 .6455078 .20133464 .62847396 .1772461 .5944061 .14697266 .5509288 .13183594 .47063194 .13183594 .35351563Z"/>
<path id="font_3_20" d="M.3725586 0H.28466798V.5600586C.26350913 .5398763 .23575847 .51969406 .20141602 .49951173 .16707357 .47932945 .13623047 .46419273 .10888672 .45410157V.5390625C.15804036 .5621745 .20100911 .59016928 .23779297 .6230469 .2745768 .6559245 .3006185 .6878255 .31591798 .71875H.3725586V0Z"/>
<path id="font_3_21" d="M.50341799 .084472659V0H.030273438C.029622397 .021148682 .033040365 .041483564 .040527345 .06100464 .052571615 .09321085 .07185873 .124928798 .09838867 .15615845 .12491862 .1873881 .1632487 .22350057 .2133789 .26449586 .29117839 .3282369 .34375 .37872825 .37109376 .41596986 .3984375 .45321147 .41210938 .48841859 .41210938 .5215912 .41210938 .5563914 .3996582 .5857442 .37475587 .60964968 .34985353 .6335551 .3173828 .6455078 .27734376 .6455078 .23502605 .6455078 .20117188 .6328125 .17578125 .6074219 .15039063 .58203127 .13753255 .546875 .13720703 .5019531L.046875 .5112457C.053059896 .5787811 .07633463 .630249 .11669922 .6656494 .1570638 .7010498 .21126302 .71875 .27929688 .71875 .34798179 .71875 .40234376 .69970199 .4423828 .66160586 .48242188 .6235097 .5024414 .57629397 .5024414 .5199585 .5024414 .4913025 .49658204 .46313478 .48486329 .43545533 .47314454 .40777589 .45369468 .3786316 .42651368 .34802247 .39933268 .3174235 .35416667 .27542115 .29101563 .22201538 .23828125 .17779541 .20442708 .14779663 .18945313 .13201905 .17447917 .116251628 .16210938 .10040283 .15234375 .084472659H.50341799Z"/>
<path id="font_3_22" d="M.041992189 .19042969 .12988281 .20214844C.13997396 .15234375 .15714519 .11645508 .18139649 .09448242 .20564778 .072509769 .2351888 .061523439 .27001954 .061523439 .3113607 .061523439 .3462728 .07582092 .37475587 .10441589 .40323893 .13301087 .41748048 .1684316 .41748048 .2106781 .41748048 .25098167 .40429688 .2842102 .3779297 .31036378 .3515625 .3365275 .31803385 .34960938 .27734376 .34960938 .2607422 .34960938 .24007161 .34635417 .21533203 .33984376L.22509766 .4169922C.23095703 .41634117 .23567708 .41601563 .23925781 .41601563 .27669273 .41601563 .31038413 .42569987 .34033204 .44506837 .37027995 .46443687 .3852539 .4942932 .3852539 .53463748 .3852539 .56658938 .37434898 .59305319 .35253907 .61402896 .33072917 .63501486 .30257163 .6455078 .2680664 .6455078 .23388672 .6455078 .20540364 .6347656 .18261719 .61328127 .15983074 .5917969 .1451823 .5595703 .13867188 .51660159L.05078125 .53222659C.061523439 .591451 .0859375 .63734439 .12402344 .6699066 .16210938 .7024689 .20947266 .71875 .26611329 .71875 .30517579 .71875 .34114585 .71039327 .37402345 .6936798 .40690104 .67696639 .43204753 .6541646 .4494629 .62527468 .46687828 .59639486 .47558595 .5657247 .47558595 .53326418 .47558595 .5024312 .46728517 .47435508 .4506836 .44903565 .43408204 .4237264 .40950523 .40360514 .37695313 .38867188 .41927085 .37890626 .45214845 .35864259 .47558595 .32788087 .49902345 .29711915 .5107422 .2586263 .5107422 .21240235 .5107422 .14990235 .48795573 .09692383 .4423828 .053466798 .3968099 .010009766 .33919273-.01171875 .26953126-.01171875 .20670574-.01171875 .15454102 .007044474 .11303711 .044570924 .0715332 .082097377 .047851564 .13071697 .041992189 .19042969Z"/>
<path id="font_3_23" d="M.3232422 0V.17138672H.0126953129V.25195313L.33935548 .7158203H.4111328V.25195313H.5078125V.17138672H.4111328V0H.3232422M.3232422 .25195313V.57470706L.099121097 .25195313H.3232422Z"/>
<path id="font_3_24" d="M.041503908 .18847656 .13378906 .19628906C.140625 .15151978 .15649414 .117863979 .18139649 .095321658 .20629883 .07278951 .23632813 .061523439 .27148438 .061523439 .3138021 .061523439 .34960938 .077448528 .37890626 .109298709 .40820313 .14115906 .42285157 .18341573 .42285157 .23606873 .42285157 .28612773 .4087728 .32562257 .38061524 .35455323 .35245768 .3834839 .31559245 .39794923 .27001954 .39794923 .24169922 .39794923 .21614583 .39156596 .19335938 .37879945 .17057292 .36603294 .15266927 .34946696 .13964844 .32910157L.057128908 .33984376 .12646485 .70703127H.48242188V.62402346H.19677735L.15820313 .43115235C.20117188 .46077476 .24625652 .47558595 .29345704 .47558595 .35595704 .47558595 .4086914 .45391337 .45166017 .41056825 .4946289 .36723329 .5161133 .31151835 .5161133 .24342346 .5161133 .17857361 .49723307 .122528079 .45947267 .075286868 .41357423 .017283122 .35091148-.01171875 .27148438-.01171875 .2063802-.01171875 .15323894 .006556193 .11206055 .04310608 .070882167 .07965597 .04736328 .1281128 .041503908 .18847656Z"/>
<path id="font_3_25" d="M.4975586 .5400543 .41015626 .5332031C.40234376 .5675557 .39127604 .59251406 .37695313 .608078 .3531901 .6330312 .32389323 .6455078 .2890625 .6455078 .26106773 .6455078 .23649089 .637736 .21533203 .6221924 .18766277 .602122 .16585286 .57282 .14990235 .5342865 .13395183 .49575297 .12565105 .4408671 .125 .3696289 .14615886 .40185548 .17203777 .42578126 .20263672 .44140626 .23323567 .45703126 .26529948 .46484376 .29882813 .46484376 .35742188 .46484376 .40730796 .44327799 .44848634 .40014649 .4896647 .35701499 .5102539 .30126954 .5102539 .23291016 .5102539 .18798828 .50056967 .14624024 .48120118 .107666019 .46183268 .0690918 .43522135 .03955078 .4013672 .019042969 .36751304-.0014648438 .32910157-.01171875 .2861328-.01171875 .21289063-.01171875 .15315755 .015197754 .106933597 .06903076 .060709638 .12287394 .037597658 .2116038 .037597658 .33522035 .037597658 .47347514 .06315104 .57399496 .11425781 .6367798 .15885417 .6914266 .21891277 .71875 .2944336 .71875 .3507487 .71875 .39689128 .70292159 .43286134 .67126467 .4688314 .6396077 .49039714 .595871 .4975586 .5400543M.13867188 .23287964C.13867188 .20269776 .1451009 .17381287 .15795899 .14622498 .17081706 .118637088 .18880208 .09762064 .21191406 .08317566 .23502605 .068740848 .25927735 .061523439 .28466798 .061523439 .32177735 .061523439 .35367839 .07645162 .3803711 .10630798 .4070638 .13616435 .42041017 .17673238 .42041017 .22801209 .42041017 .27734886 .40722657 .31621299 .38085938 .3446045 .3544922 .3730062 .32128907 .38720704 .28125 .38720704 .24153646 .38720704 .20784505 .3730062 .18017578 .3446045 .15250652 .31621299 .13867188 .27897135 .13867188 .23287964Z"/>
<path id="font_3_26" d="M.04736328 .6225586V.70703127H.5107422V.6386719C.46516929 .5901286 .42000328 .5256246 .37524415 .4451599 .33048503 .36469523 .29589845 .2819519 .27148438 .19692993 .25390626 .13698323 .24267578 .07133993 .23779297 0H.14746094C.1484375 .056355794 .1595052 .12444051 .18066406 .20425415 .20182292 .28407798 .23217774 .3610433 .27172853 .43515016 .3112793 .50926718 .35335288 .57173666 .39794923 .6225586H.04736328Z"/>
<path id="font_3_27" d="M.17675781 .38916017C.14029949 .40246583 .11328125 .42145286 .095703128 .44612123 .078125 .47078959 .06933594 .5003255 .06933594 .534729 .06933594 .5866597 .08805338 .63031008 .12548828 .66567996 .16292317 .70106 .21272786 .71875 .27490235 .71875 .33740235 .71875 .3876953 .7006531 .42578126 .6644592 .4638672 .6282756 .48291017 .5842183 .48291017 .5322876 .48291017 .4991862 .47420249 .4703827 .4567871 .44587709 .43937174 .42137147 .4129232 .40246583 .3774414 .38916017 .42138673 .3748169 .45483399 .3516744 .4777832 .31973268 .5007324 .28780113 .51220706 .24966939 .51220706 .20533753 .51220706 .1440684 .4905599 .09257507 .44726563 .050857545 .40397135 .009140015 .34700523-.01171875 .2763672-.01171875 .20572917-.01171875 .14876302 .009221395 .10546875 .051101686 .06217448 .09298197 .040527345 .14521282 .040527345 .20779419 .040527345 .25439454 .052327474 .29342143 .075927738 .32487489 .09952799 .35632835 .13313802 .37775675 .17675781 .38916017M.15917969 .53707888C.15917969 .5035197 .17008464 .47608949 .19189453 .4547882 .21370442 .4334971 .24202474 .42285157 .27685548 .42285157 .31070964 .42285157 .3384603 .4334208 .36010743 .45455934 .38175456 .47569786 .39257813 .501592 .39257813 .5322418 .39257813 .5641937 .38142906 .5910594 .35913087 .61283877 .33683268 .6346181 .30908204 .6455078 .2758789 .6455078 .24235027 .6455078 .21451824 .6348572 .19238281 .6135559 .17024739 .59226486 .15917969 .56677249 .15917969 .53707888M.13085938 .20776367C.13085938 .18273926 .13680013 .15852864 .14868164 .13513184 .16056316 .11173502 .17822266 .09361776 .20166016 .08078003 .22509766 .0679423 .25032554 .061523439 .27734376 .061523439 .31933595 .061523439 .3540039 .07500712 .38134767 .10197449 .4086914 .12895203 .42236329 .16323853 .42236329 .20483399 .42236329 .24708049 .40828453 .28201295 .38012696 .30963136 .3519694 .33725993 .31673179 .35107423 .27441407 .35107423 .23307292 .35107423 .19881185 .3374227 .17163086 .31011964 .14444988 .28282676 .13085938 .24870809 .13085938 .20776367Z"/>
<path id="font_3_28" d="M.0546875 .16694641 .13916016 .17480469C.14632161 .13509114 .15999349 .106282558 .18017578 .088378909 .20035808 .07047526 .22623699 .061523439 .2578125 .061523439 .28483073 .061523439 .30851237 .067708339 .32885743 .080078128 .34920249 .092447917 .3658854 .1089681 .37890626 .12963867 .3919271 .15030925 .40283204 .17822266 .4116211 .2133789 .42041017 .24853516 .4248047 .28434245 .4248047 .32080079 .4248047 .32470704 .42464195 .3305664 .4243164 .3383789 .40673829 .31038413 .3827311 .28767906 .35229493 .27026368 .32185874 .2528483 .28889976 .24414063 .25341798 .24414063 .19417317 .24414063 .14404297 .26555888 .103027347 .3083954 .06201172 .3512319 .041503908 .40769959 .041503908 .47779847 .041503908 .55016586 .0629069 .6084137 .10571289 .6525421 .14851888 .6966807 .20214844 .71875 .26660157 .71875 .31315104 .71875 .3557129 .70622256 .3942871 .6811676 .43286134 .65612289 .4621582 .62042239 .48217774 .57406619 .50219729 .52770999 .51220706 .46061708 .51220706 .37278749 .51220706 .28137718 .5022786 .20858765 .48242188 .15441895 .4625651 .100260417 .43302409 .05903117 .39379884 .030731202 .35457359 .0024312337 .30859376-.01171875 .25585938-.01171875 .1998698-.01171875 .15413411 .00390625 .118652347 .03515625 .08317057 .06640625 .061848958 .1103363 .0546875 .16694641M.41455079 .48194886C.41455079 .5320994 .40112306 .57189437 .37426759 .6013336 .3474121 .6307831 .31510417 .6455078 .27734376 .6455078 .23828125 .6455078 .20426433 .62965396 .17529297 .59794619 .14632161 .5662384 .13183594 .5251465 .13183594 .4746704 .13183594 .42936198 .14558919 .3925527 .1730957 .36424256 .20060222 .3359324 .23453777 .32177735 .27490235 .32177735 .31559245 .32177735 .3490397 .3359324 .37524415 .36424256 .40144859 .3925527 .41455079 .43178813 .41455079 .48194886Z"/>
</defs>
<g clip-path="url(#clip_1)">
<path transform="matrix(.7175843,0,0,.7175843,0,0)" d="M0 0H563V303H0Z" fill="#ffffff"/>
</g>
<g clip-path="url(#clip_2)">
<path transform="matrix(.7175843,0,0,.7175843,.35879217,.35879217)" d="M41 1H81V41H41Z" fill="#bac8d3"/>
<path transform="matrix(.7175843,0,0,.7175843,.35879217,.35879217)" stroke-width="1" stroke-linecap="butt" stroke-miterlimit="4" stroke-linejoin="miter" fill="none" stroke="#999999" d="M41 1H81V41H41Z"/>
<path transform="matrix(.7175843,0,0,.7175843,.35879217,.35879217)" d="M1 1H41V41H1Z" fill="#bac8d3"/>
<path transform="matrix(.7175843,0,0,.7175843,.35879217,.35879217)" stroke-width="1" stroke-linecap="butt" stroke-miterlimit="4" stroke-linejoin="miter" fill="none" stroke="#999999" d="M1 1H41V41H1Z"/>
<path transform="matrix(.7175843,0,0,.7175843,.35879217,.35879217)" d="M161 1H201V41H161Z" fill="#bac8d3"/>
<path transform="matrix(.7175843,0,0,.7175843,.35879217,.35879217)" stroke-width="1" stroke-linecap="butt" stroke-miterlimit="4" stroke-linejoin="miter" fill="none" stroke="#999999" d="M161 1H201V41H161Z"/>
<path transform="matrix(.7175843,0,0,.7175843,.35879217,.35879217)" d="M201 1H241V41H201Z" fill="#bac8d3"/>
<path transform="matrix(.7175843,0,0,.7175843,.35879217,.35879217)" stroke-width="1" stroke-linecap="butt" stroke-miterlimit="4" stroke-linejoin="miter" fill="none" stroke="#999999" d="M201 1H241V41H201Z"/>
<path transform="matrix(.7175843,0,0,.7175843,.35879217,.35879217)" d="M241 1H281V41H241Z" fill="#bac8d3"/>
<path transform="matrix(.7175843,0,0,.7175843,.35879217,.35879217)" stroke-width="1" stroke-linecap="butt" stroke-miterlimit="4" stroke-linejoin="miter" fill="none" stroke="#999999" d="M241 1H281V41H241Z"/>
<path transform="matrix(.7175843,0,0,.7175843,.35879217,.35879217)" d="M281 1H321V41H281Z" fill="#bac8d3"/>
<path transform="matrix(.7175843,0,0,.7175843,.35879217,.35879217)" stroke-width="1" stroke-linecap="butt" stroke-miterlimit="4" stroke-linejoin="miter" fill="none" stroke="#999999" d="M281 1H321V41H281Z"/>
<use data-text="0" xlink:href="#font_3_19" transform="matrix(8.6110119,0,0,-8.6110119,13.02864,40.184724)"/>
<use data-text="1" xlink:href="#font_3_20" transform="matrix(8.6110119,0,0,-8.6110119,41.732015,40.184724)"/>
<use data-text="2" xlink:href="#font_3_21" transform="matrix(8.6110119,0,0,-8.6110119,70.43539,40.184724)"/>
<use data-text="3" xlink:href="#font_3_22" transform="matrix(8.6110119,0,0,-8.6110119,99.138759,40.184724)"/>
<use data-text="4" xlink:href="#font_3_23" transform="matrix(8.6110119,0,0,-8.6110119,127.84213,40.184724)"/>
<use data-text="5" xlink:href="#font_3_24" transform="matrix(8.6110119,0,0,-8.6110119,156.5455,40.184724)"/>
<use data-text="6" xlink:href="#font_3_25" transform="matrix(8.6110119,0,0,-8.6110119,185.24887,40.184724)"/>
<use data-text="7" xlink:href="#font_3_26" transform="matrix(8.6110119,0,0,-8.6110119,213.95224,40.184724)"/>
<use data-text="8" xlink:href="#font_3_27" transform="matrix(8.6110119,0,0,-8.6110119,242.65563,40.184724)"/>
<path transform="matrix(.7175843,0,0,.7175843,.35879217,.35879217)" d="M121 1H161V41H121Z" fill="#bac8d3"/>
<path transform="matrix(.7175843,0,0,.7175843,.35879217,.35879217)" stroke-width="1" stroke-linecap="butt" stroke-miterlimit="4" stroke-linejoin="miter" fill="none" stroke="#999999" d="M121 1H161V41H121Z"/>
<path transform="matrix(.7175843,0,0,.7175843,.35879217,.35879217)" d="M81 1H121V41H81Z" fill="#bac8d3"/>
<path transform="matrix(.7175843,0,0,.7175843,.35879217,.35879217)" stroke-width="1" stroke-linecap="butt" stroke-miterlimit="4" stroke-linejoin="miter" fill="none" stroke="#999999" d="M81 1H121V41H81Z"/>
<path transform="matrix(.7175843,0,0,.7175843,.35879217,.35879217)" d="M321 1H361V41H321Z" fill="#bac8d3"/>
<path transform="matrix(.7175843,0,0,.7175843,.35879217,.35879217)" stroke-width="1" stroke-linecap="butt" stroke-miterlimit="4" stroke-linejoin="miter" fill="none" stroke="#999999" d="M321 1H361V41H321Z"/>
<path transform="matrix(.7175843,0,0,.7175843,.35879217,.35879217)" d="M41 81H81V121H41Z" fill="#bac8d3"/>
<path transform="matrix(.7175843,0,0,.7175843,.35879217,.35879217)" stroke-width="1" stroke-linecap="butt" stroke-miterlimit="4" stroke-linejoin="miter" fill="none" stroke="#999999" d="M41 81H81V121H41Z"/>
<path transform="matrix(.7175843,0,0,.7175843,.35879217,.35879217)" d="M1 81H41V121H1Z" fill="#bac8d3"/>
<path transform="matrix(.7175843,0,0,.7175843,.35879217,.35879217)" stroke-width="1" stroke-linecap="butt" stroke-miterlimit="4" stroke-linejoin="miter" fill="none" stroke="#999999" d="M1 81H41V121H1Z"/>
<path transform="matrix(.7175843,0,0,.7175843,.35879217,.35879217)" d="M161 81H201V121H161Z" fill="#bac8d3"/>
<path transform="matrix(.7175843,0,0,.7175843,.35879217,.35879217)" stroke-width="1" stroke-linecap="butt" stroke-miterlimit="4" stroke-linejoin="miter" fill="none" stroke="#999999" d="M161 81H201V121H161Z"/>
<path transform="matrix(.7175843,0,0,.7175843,.35879217,.35879217)" d="M201 81H241V121H201Z" fill="#bac8d3"/>
<path transform="matrix(.7175843,0,0,.7175843,.35879217,.35879217)" stroke-width="1" stroke-linecap="butt" stroke-miterlimit="4" stroke-linejoin="miter" fill="none" stroke="#999999" d="M201 81H241V121H201Z"/>
<path transform="matrix(.7175843,0,0,.7175843,.35879217,.35879217)" d="M241 81H281V121H241Z" fill="#bac8d3"/>
<path transform="matrix(.7175843,0,0,.7175843,.35879217,.35879217)" stroke-width="1" stroke-linecap="butt" stroke-miterlimit="4" stroke-linejoin="miter" fill="none" stroke="#999999" d="M241 81H281V121H241Z"/>
<path transform="matrix(.7175843,0,0,.7175843,.35879217,.35879217)" d="M281 81H321V121H281Z" fill="#bac8d3"/>
<path transform="matrix(.7175843,0,0,.7175843,.35879217,.35879217)" stroke-width="1" stroke-linecap="butt" stroke-miterlimit="4" stroke-linejoin="miter" fill="none" stroke="#999999" d="M281 81H321V121H281Z"/>
<use data-text="1" xlink:href="#font_3_20" transform="matrix(8.6110119,0,0,-8.6110119,10.6404299,97.59147)"/>
<use data-text="4" xlink:href="#font_3_23" transform="matrix(8.6110119,0,0,-8.6110119,15.428153,97.59147)"/>
<use data-text="1" xlink:href="#font_3_20" transform="matrix(8.6110119,0,0,-8.6110119,39.343805,97.59147)"/>
<use data-text="5" xlink:href="#font_3_24" transform="matrix(8.6110119,0,0,-8.6110119,44.131528,97.59147)"/>
<use data-text="1" xlink:href="#font_3_20" transform="matrix(8.6110119,0,0,-8.6110119,68.04717,97.59147)"/>
<use data-text="6" xlink:href="#font_3_25" transform="matrix(8.6110119,0,0,-8.6110119,72.83489,97.59147)"/>
<use data-text="1" xlink:href="#font_3_20" transform="matrix(8.6110119,0,0,-8.6110119,96.75055,97.59147)"/>
<use data-text="7" xlink:href="#font_3_26" transform="matrix(8.6110119,0,0,-8.6110119,101.53827,97.59147)"/>
<use data-text="1" xlink:href="#font_3_20" transform="matrix(8.6110119,0,0,-8.6110119,125.45392,97.59147)"/>
<use data-text="8" xlink:href="#font_3_27" transform="matrix(8.6110119,0,0,-8.6110119,130.24164,97.59147)"/>
<use data-text="1" xlink:href="#font_3_20" transform="matrix(8.6110119,0,0,-8.6110119,154.15729,97.59147)"/>
<use data-text="9" xlink:href="#font_3_28" transform="matrix(8.6110119,0,0,-8.6110119,158.945,97.59147)"/>
<use data-text="2" xlink:href="#font_3_21" transform="matrix(8.6110119,0,0,-8.6110119,182.86067,97.59147)"/>
<use data-text="0" xlink:href="#font_3_19" transform="matrix(8.6110119,0,0,-8.6110119,187.64839,97.59147)"/>
<use data-text="2" xlink:href="#font_3_21" transform="matrix(8.6110119,0,0,-8.6110119,211.56404,97.59147)"/>
<use data-text="1" xlink:href="#font_3_20" transform="matrix(8.6110119,0,0,-8.6110119,216.35176,97.59147)"/>
<use data-text="2" xlink:href="#font_3_21" transform="matrix(8.6110119,0,0,-8.6110119,240.26741,97.59147)"/>
<use data-text="2" xlink:href="#font_3_21" transform="matrix(8.6110119,0,0,-8.6110119,245.05513,97.59147)"/>
<path transform="matrix(.7175843,0,0,.7175843,.35879217,.35879217)" d="M121 81H161V121H121Z" fill="#bac8d3"/>
<path transform="matrix(.7175843,0,0,.7175843,.35879217,.35879217)" stroke-width="1" stroke-linecap="butt" stroke-miterlimit="4" stroke-linejoin="miter" fill="none" stroke="#999999" d="M121 81H161V121H121Z"/>
<path transform="matrix(.7175843,0,0,.7175843,.35879217,.35879217)" d="M81 81H121V121H81Z" fill="#bac8d3"/>
<path transform="matrix(.7175843,0,0,.7175843,.35879217,.35879217)" stroke-width="1" stroke-linecap="butt" stroke-miterlimit="4" stroke-linejoin="miter" fill="none" stroke="#999999" d="M81 81H121V121H81Z"/>
<path transform="matrix(.7175843,0,0,.7175843,.35879217,.35879217)" d="M321 81H361V121H321Z" fill="#bac8d3"/>
<path transform="matrix(.7175843,0,0,.7175843,.35879217,.35879217)" stroke-width="1" stroke-linecap="butt" stroke-miterlimit="4" stroke-linejoin="miter" fill="none" stroke="#999999" d="M321 81H361V121H321Z"/>
<path transform="matrix(.7175843,0,0,.7175843,.35879217,.35879217)" d="M41 161H81V201H41Z" fill="#bac8d3"/>
<path transform="matrix(.7175843,0,0,.7175843,.35879217,.35879217)" stroke-width="1" stroke-linecap="butt" stroke-miterlimit="4" stroke-linejoin="miter" fill="none" stroke="#999999" d="M41 161H81V201H41Z"/>
<path transform="matrix(.7175843,0,0,.7175843,.35879217,.35879217)" d="M1 161H41V201H1Z" fill="#bac8d3"/>
<path transform="matrix(.7175843,0,0,.7175843,.35879217,.35879217)" stroke-width="1" stroke-linecap="butt" stroke-miterlimit="4" stroke-linejoin="miter" fill="none" stroke="#999999" d="M1 161H41V201H1Z"/>
<path transform="matrix(.7175843,0,0,.7175843,.35879217,.35879217)" d="M161 161H201V201H161Z" fill="#bac8d3"/>
<path transform="matrix(.7175843,0,0,.7175843,.35879217,.35879217)" stroke-width="1" stroke-linecap="butt" stroke-miterlimit="4" stroke-linejoin="miter" fill="none" stroke="#999999" d="M161 161H201V201H161Z"/>
<path transform="matrix(.7175843,0,0,.7175843,.35879217,.35879217)" d="M201 161H241V201H201Z" fill="#bac8d3"/>
<path transform="matrix(.7175843,0,0,.7175843,.35879217,.35879217)" stroke-width="1" stroke-linecap="butt" stroke-miterlimit="4" stroke-linejoin="miter" fill="none" stroke="#999999" d="M201 161H241V201H201Z"/>
<path transform="matrix(.7175843,0,0,.7175843,.35879217,.35879217)" d="M241 161H281V201H241Z" fill="#bac8d3"/>
<path transform="matrix(.7175843,0,0,.7175843,.35879217,.35879217)" stroke-width="1" stroke-linecap="butt" stroke-miterlimit="4" stroke-linejoin="miter" fill="none" stroke="#999999" d="M241 161H281V201H241Z"/>
<path transform="matrix(.7175843,0,0,.7175843,.35879217,.35879217)" d="M281 161H321V201H281Z" fill="#bac8d3"/>
<path transform="matrix(.7175843,0,0,.7175843,.35879217,.35879217)" stroke-width="1" stroke-linecap="butt" stroke-miterlimit="4" stroke-linejoin="miter" fill="none" stroke="#999999" d="M281 161H321V201H281Z"/>
<use data-text="2" xlink:href="#font_3_21" transform="matrix(8.6110119,0,0,-8.6110119,10.6404299,154.99822)"/>
<use data-text="8" xlink:href="#font_3_27" transform="matrix(8.6110119,0,0,-8.6110119,15.428153,154.99822)"/>
<use data-text="2" xlink:href="#font_3_21" transform="matrix(8.6110119,0,0,-8.6110119,39.343805,154.99822)"/>
<use data-text="9" xlink:href="#font_3_28" transform="matrix(8.6110119,0,0,-8.6110119,44.131528,154.99822)"/>
<use data-text="3" xlink:href="#font_3_22" transform="matrix(8.6110119,0,0,-8.6110119,68.04717,154.99822)"/>
<use data-text="0" xlink:href="#font_3_19" transform="matrix(8.6110119,0,0,-8.6110119,72.83489,154.99822)"/>
<use data-text="3" xlink:href="#font_3_22" transform="matrix(8.6110119,0,0,-8.6110119,96.75055,154.99822)"/>
<use data-text="1" xlink:href="#font_3_20" transform="matrix(8.6110119,0,0,-8.6110119,101.53827,154.99822)"/>
<use data-text="3" xlink:href="#font_3_22" transform="matrix(8.6110119,0,0,-8.6110119,125.45392,154.99822)"/>
<use data-text="2" xlink:href="#font_3_21" transform="matrix(8.6110119,0,0,-8.6110119,130.24164,154.99822)"/>
<use data-text="3" xlink:href="#font_3_22" transform="matrix(8.6110119,0,0,-8.6110119,154.15729,154.99822)"/>
<use data-text="3" xlink:href="#font_3_22" transform="matrix(8.6110119,0,0,-8.6110119,158.945,154.99822)"/>
<use data-text="3" xlink:href="#font_3_22" transform="matrix(8.6110119,0,0,-8.6110119,182.86067,154.99822)"/>
<use data-text="4" xlink:href="#font_3_23" transform="matrix(8.6110119,0,0,-8.6110119,187.64839,154.99822)"/>
<use data-text="3" xlink:href="#font_3_22" transform="matrix(8.6110119,0,0,-8.6110119,211.56404,154.99822)"/>
<use data-text="5" xlink:href="#font_3_24" transform="matrix(8.6110119,0,0,-8.6110119,216.35176,154.99822)"/>
<use data-text="3" xlink:href="#font_3_22" transform="matrix(8.6110119,0,0,-8.6110119,240.26741,154.99822)"/>
<use data-text="6" xlink:href="#font_3_25" transform="matrix(8.6110119,0,0,-8.6110119,245.05513,154.99822)"/>
<path transform="matrix(.7175843,0,0,.7175843,.35879217,.35879217)" d="M121 161H161V201H121Z" fill="#bac8d3"/>
<path transform="matrix(.7175843,0,0,.7175843,.35879217,.35879217)" stroke-width="1" stroke-linecap="butt" stroke-miterlimit="4" stroke-linejoin="miter" fill="none" stroke="#999999" d="M121 161H161V201H121Z"/>
<path transform="matrix(.7175843,0,0,.7175843,.35879217,.35879217)" d="M81 161H121V201H81Z" fill="#bac8d3"/>
<path transform="matrix(.7175843,0,0,.7175843,.35879217,.35879217)" stroke-width="1" stroke-linecap="butt" stroke-miterlimit="4" stroke-linejoin="miter" fill="none" stroke="#999999" d="M81 161H121V201H81Z"/>
<path transform="matrix(.7175843,0,0,.7175843,.35879217,.35879217)" d="M321 161H361V201H321Z" fill="#bac8d3"/>
<path transform="matrix(.7175843,0,0,.7175843,.35879217,.35879217)" stroke-width="1" stroke-linecap="butt" stroke-miterlimit="4" stroke-linejoin="miter" fill="none" stroke="#999999" d="M321 161H361V201H321Z"/>
<path transform="matrix(.7175843,0,0,.7175843,.35879217,.35879217)" d="M401 1H441V41H401Z" fill="#bac8d3"/>
<path transform="matrix(.7175843,0,0,.7175843,.35879217,.35879217)" stroke-width="1" stroke-linecap="butt" stroke-miterlimit="4" stroke-linejoin="miter" fill="none" stroke="#999999" d="M401 1H441V41H401Z"/>
<path transform="matrix(.7175843,0,0,.7175843,.35879217,.35879217)" d="M361 1H401V41H361Z" fill="#bac8d3"/>
<path transform="matrix(.7175843,0,0,.7175843,.35879217,.35879217)" stroke-width="1" stroke-linecap="butt" stroke-miterlimit="4" stroke-linejoin="miter" fill="none" stroke="#999999" d="M361 1H401V41H361Z"/>
<path transform="matrix(.7175843,0,0,.7175843,.35879217,.35879217)" d="M521 1H561V41H521Z" fill="#bac8d3"/>
<path transform="matrix(.7175843,0,0,.7175843,.35879217,.35879217)" stroke-width="1" stroke-linecap="butt" stroke-miterlimit="4" stroke-linejoin="miter" fill="none" stroke="#999999" d="M521 1H561V41H521Z"/>
<use data-text="9" xlink:href="#font_3_28" transform="matrix(8.6110119,0,0,-8.6110119,271.35899,40.184724)"/>
<use data-text="1" xlink:href="#font_3_20" transform="matrix(8.6110119,0,0,-8.6110119,297.67417,40.184724)"/>
<use data-text="0" xlink:href="#font_3_19" transform="matrix(8.6110119,0,0,-8.6110119,302.46189,40.184724)"/>
<use data-text="1" xlink:href="#font_3_20" transform="matrix(8.6110119,0,0,-8.6110119,326.69148,40.184724)"/>
<use data-text="1" xlink:href="#font_3_20" transform="matrix(8.6110119,0,0,-8.6110119,330.8414,40.184724)"/>
<use data-text="1" xlink:href="#font_3_20" transform="matrix(8.6110119,0,0,-8.6110119,355.0809,40.184724)"/>
<use data-text="2" xlink:href="#font_3_21" transform="matrix(8.6110119,0,0,-8.6110119,359.86863,40.184724)"/>
<use data-text="1" xlink:href="#font_3_20" transform="matrix(8.6110119,0,0,-8.6110119,383.78428,40.184724)"/>
<use data-text="3" xlink:href="#font_3_22" transform="matrix(8.6110119,0,0,-8.6110119,388.572,40.184724)"/>
<path transform="matrix(.7175843,0,0,.7175843,.35879217,.35879217)" d="M481 1H521V41H481Z" fill="#bac8d3"/>
<path transform="matrix(.7175843,0,0,.7175843,.35879217,.35879217)" stroke-width="1" stroke-linecap="butt" stroke-miterlimit="4" stroke-linejoin="miter" fill="none" stroke="#999999" d="M481 1H521V41H481Z"/>
<path transform="matrix(.7175843,0,0,.7175843,.35879217,.35879217)" d="M441 1H481V41H441Z" fill="#bac8d3"/>
<path transform="matrix(.7175843,0,0,.7175843,.35879217,.35879217)" stroke-width="1" stroke-linecap="butt" stroke-miterlimit="4" stroke-linejoin="miter" fill="none" stroke="#999999" d="M441 1H481V41H441Z"/>
<path transform="matrix(.7175843,0,0,.7175843,.35879217,.35879217)" d="M401 81H441V121H401Z" fill="#bac8d3"/>
<path transform="matrix(.7175843,0,0,.7175843,.35879217,.35879217)" stroke-width="1" stroke-linecap="butt" stroke-miterlimit="4" stroke-linejoin="miter" fill="none" stroke="#999999" d="M401 81H441V121H401Z"/>
<path transform="matrix(.7175843,0,0,.7175843,.35879217,.35879217)" d="M361 81H401V121H361Z" fill="#bac8d3"/>
<path transform="matrix(.7175843,0,0,.7175843,.35879217,.35879217)" stroke-width="1" stroke-linecap="butt" stroke-miterlimit="4" stroke-linejoin="miter" fill="none" stroke="#999999" d="M361 81H401V121H361Z"/>
<path transform="matrix(.7175843,0,0,.7175843,.35879217,.35879217)" d="M521 81H561V121H521Z" fill="#bac8d3"/>
<path transform="matrix(.7175843,0,0,.7175843,.35879217,.35879217)" stroke-width="1" stroke-linecap="butt" stroke-miterlimit="4" stroke-linejoin="miter" fill="none" stroke="#999999" d="M521 81H561V121H521Z"/>
<use data-text="2" xlink:href="#font_3_21" transform="matrix(8.6110119,0,0,-8.6110119,268.9708,97.59147)"/>
<use data-text="3" xlink:href="#font_3_22" transform="matrix(8.6110119,0,0,-8.6110119,273.7585,97.59147)"/>
<use data-text="2" xlink:href="#font_3_21" transform="matrix(8.6110119,0,0,-8.6110119,297.67417,97.59147)"/>
<use data-text="4" xlink:href="#font_3_23" transform="matrix(8.6110119,0,0,-8.6110119,302.46189,97.59147)"/>
<use data-text="2" xlink:href="#font_3_21" transform="matrix(8.6110119,0,0,-8.6110119,326.37754,97.59147)"/>
<use data-text="5" xlink:href="#font_3_24" transform="matrix(8.6110119,0,0,-8.6110119,331.16526,97.59147)"/>
<use data-text="2" xlink:href="#font_3_21" transform="matrix(8.6110119,0,0,-8.6110119,355.0809,97.59147)"/>
<use data-text="6" xlink:href="#font_3_25" transform="matrix(8.6110119,0,0,-8.6110119,359.86863,97.59147)"/>
<use data-text="2" xlink:href="#font_3_21" transform="matrix(8.6110119,0,0,-8.6110119,383.78428,97.59147)"/>
<use data-text="7" xlink:href="#font_3_26" transform="matrix(8.6110119,0,0,-8.6110119,388.572,97.59147)"/>
<path transform="matrix(.7175843,0,0,.7175843,.35879217,.35879217)" d="M481 81H521V121H481Z" fill="#bac8d3"/>
<path transform="matrix(.7175843,0,0,.7175843,.35879217,.35879217)" stroke-width="1" stroke-linecap="butt" stroke-miterlimit="4" stroke-linejoin="miter" fill="none" stroke="#999999" d="M481 81H521V121H481Z"/>
<path transform="matrix(.7175843,0,0,.7175843,.35879217,.35879217)" d="M441 81H481V121H441Z" fill="#bac8d3"/>
<path transform="matrix(.7175843,0,0,.7175843,.35879217,.35879217)" stroke-width="1" stroke-linecap="butt" stroke-miterlimit="4" stroke-linejoin="miter" fill="none" stroke="#999999" d="M441 81H481V121H441Z"/>
<path transform="matrix(.7175843,0,0,.7175843,.35879217,.35879217)" d="M401 161H441V201H401Z" fill="#bac8d3"/>
<path transform="matrix(.7175843,0,0,.7175843,.35879217,.35879217)" stroke-width="1" stroke-linecap="butt" stroke-miterlimit="4" stroke-linejoin="miter" fill="none" stroke="#999999" d="M401 161H441V201H401Z"/>
<path transform="matrix(.7175843,0,0,.7175843,.35879217,.35879217)" d="M361 161H401V201H361Z" fill="#bac8d3"/>
<path transform="matrix(.7175843,0,0,.7175843,.35879217,.35879217)" stroke-width="1" stroke-linecap="butt" stroke-miterlimit="4" stroke-linejoin="miter" fill="none" stroke="#999999" d="M361 161H401V201H361Z"/>
<path transform="matrix(.7175843,0,0,.7175843,.35879217,.35879217)" d="M521 161H561V201H521Z" fill="#bac8d3"/>
<path transform="matrix(.7175843,0,0,.7175843,.35879217,.35879217)" stroke-width="1" stroke-linecap="butt" stroke-miterlimit="4" stroke-linejoin="miter" fill="none" stroke="#999999" d="M521 161H561V201H521Z"/>
<use data-text="3" xlink:href="#font_3_22" transform="matrix(8.6110119,0,0,-8.6110119,268.9708,154.99822)"/>
<use data-text="7" xlink:href="#font_3_26" transform="matrix(8.6110119,0,0,-8.6110119,273.7585,154.99822)"/>
<use data-text="3" xlink:href="#font_3_22" transform="matrix(8.6110119,0,0,-8.6110119,297.67417,154.99822)"/>
<use data-text="8" xlink:href="#font_3_27" transform="matrix(8.6110119,0,0,-8.6110119,302.46189,154.99822)"/>
<use data-text="3" xlink:href="#font_3_22" transform="matrix(8.6110119,0,0,-8.6110119,326.37754,154.99822)"/>
<use data-text="9" xlink:href="#font_3_28" transform="matrix(8.6110119,0,0,-8.6110119,331.16526,154.99822)"/>
<use data-text="4" xlink:href="#font_3_23" transform="matrix(8.6110119,0,0,-8.6110119,355.0809,154.99822)"/>
<use data-text="0" xlink:href="#font_3_19" transform="matrix(8.6110119,0,0,-8.6110119,359.86863,154.99822)"/>
<use data-text="4" xlink:href="#font_3_23" transform="matrix(8.6110119,0,0,-8.6110119,383.78428,154.99822)"/>
<use data-text="1" xlink:href="#font_3_20" transform="matrix(8.6110119,0,0,-8.6110119,388.572,154.99822)"/>
<path transform="matrix(.7175843,0,0,.7175843,.35879217,.35879217)" d="M481 161H521V201H481Z" fill="#bac8d3"/>
<path transform="matrix(.7175843,0,0,.7175843,.35879217,.35879217)" stroke-width="1" stroke-linecap="butt" stroke-miterlimit="4" stroke-linejoin="miter" fill="none" stroke="#999999" d="M481 161H521V201H481Z"/>
<path transform="matrix(.7175843,0,0,.7175843,.35879217,.35879217)" d="M441 161H481V201H441Z" fill="#bac8d3"/>
<path transform="matrix(.7175843,0,0,.7175843,.35879217,.35879217)" stroke-width="1" stroke-linecap="butt" stroke-miterlimit="4" stroke-linejoin="miter" fill="none" stroke="#999999" d="M441 161H481V201H441Z"/>
<path transform="matrix(.7175843,0,0,.7175843,.35879217,.35879217)" d="M41 241H81V281H41Z" fill="#bac8d3"/>
<path transform="matrix(.7175843,0,0,.7175843,.35879217,.35879217)" stroke-width="1" stroke-linecap="butt" stroke-miterlimit="4" stroke-linejoin="miter" fill="none" stroke="#999999" d="M41 241H81V281H41Z"/>
<path transform="matrix(.7175843,0,0,.7175843,.35879217,.35879217)" d="M1 241H41V281H1Z" fill="#bac8d3"/>
<path transform="matrix(.7175843,0,0,.7175843,.35879217,.35879217)" stroke-width="1" stroke-linecap="butt" stroke-miterlimit="4" stroke-linejoin="miter" fill="none" stroke="#999999" d="M1 241H41V281H1Z"/>
<path transform="matrix(.7175843,0,0,.7175843,.35879217,.35879217)" d="M161 241H201V281H161Z" fill="#bac8d3"/>
<path transform="matrix(.7175843,0,0,.7175843,.35879217,.35879217)" stroke-width="1" stroke-linecap="butt" stroke-miterlimit="4" stroke-linejoin="miter" fill="none" stroke="#999999" d="M161 241H201V281H161Z"/>
<path transform="matrix(.7175843,0,0,.7175843,.35879217,.35879217)" d="M201 241H241V281H201Z" fill="#bac8d3"/>
<path transform="matrix(.7175843,0,0,.7175843,.35879217,.35879217)" stroke-width="1" stroke-linecap="butt" stroke-miterlimit="4" stroke-linejoin="miter" fill="none" stroke="#999999" d="M201 241H241V281H201Z"/>
<path transform="matrix(.7175843,0,0,.7175843,.35879217,.35879217)" d="M241 241H281V281H241Z" fill="#bac8d3"/>
<path transform="matrix(.7175843,0,0,.7175843,.35879217,.35879217)" stroke-width="1" stroke-linecap="butt" stroke-miterlimit="4" stroke-linejoin="miter" fill="none" stroke="#999999" d="M241 241H281V281H241Z"/>
<use data-text="4" xlink:href="#font_3_23" transform="matrix(8.6110119,0,0,-8.6110119,10.6404299,212.40496)"/>
<use data-text="2" xlink:href="#font_3_21" transform="matrix(8.6110119,0,0,-8.6110119,15.428153,212.40496)"/>
<use data-text="4" xlink:href="#font_3_23" transform="matrix(8.6110119,0,0,-8.6110119,39.343805,212.40496)"/>
<use data-text="3" xlink:href="#font_3_22" transform="matrix(8.6110119,0,0,-8.6110119,44.131528,212.40496)"/>
<use data-text="4" xlink:href="#font_3_23" transform="matrix(8.6110119,0,0,-8.6110119,68.04717,212.40496)"/>
<use data-text="4" xlink:href="#font_3_23" transform="matrix(8.6110119,0,0,-8.6110119,72.83489,212.40496)"/>
<use data-text="4" xlink:href="#font_3_23" transform="matrix(8.6110119,0,0,-8.6110119,96.75055,212.40496)"/>
<use data-text="5" xlink:href="#font_3_24" transform="matrix(8.6110119,0,0,-8.6110119,101.53827,212.40496)"/>
<use data-text="4" xlink:href="#font_3_23" transform="matrix(8.6110119,0,0,-8.6110119,125.45392,212.40496)"/>
<use data-text="6" xlink:href="#font_3_25" transform="matrix(8.6110119,0,0,-8.6110119,130.24164,212.40496)"/>
<use data-text="4" xlink:href="#font_3_23" transform="matrix(8.6110119,0,0,-8.6110119,154.15729,212.40496)"/>
<use data-text="7" xlink:href="#font_3_26" transform="matrix(8.6110119,0,0,-8.6110119,158.945,212.40496)"/>
<use data-text="4" xlink:href="#font_3_23" transform="matrix(8.6110119,0,0,-8.6110119,182.86067,212.40496)"/>
<use data-text="8" xlink:href="#font_3_27" transform="matrix(8.6110119,0,0,-8.6110119,187.64839,212.40496)"/>
<path transform="matrix(.7175843,0,0,.7175843,.35879217,.35879217)" d="M121 241H161V281H121Z" fill="#bac8d3"/>
<path transform="matrix(.7175843,0,0,.7175843,.35879217,.35879217)" stroke-width="1" stroke-linecap="butt" stroke-miterlimit="4" stroke-linejoin="miter" fill="none" stroke="#999999" d="M121 241H161V281H121Z"/>
<path transform="matrix(.7175843,0,0,.7175843,.35879217,.35879217)" d="M81 241H121V281H81Z" fill="#bac8d3"/>
<path transform="matrix(.7175843,0,0,.7175843,.35879217,.35879217)" stroke-width="1" stroke-linecap="butt" stroke-miterlimit="4" stroke-linejoin="miter" fill="none" stroke="#999999" d="M81 241H121V281H81Z"/>
<path transform="matrix(.7175843,0,0,.7175843,.35879217,.35879217)" d="M401 1H441V41H401Z" fill="#fff2cc"/>
<path transform="matrix(.7175843,0,0,.7175843,.35879217,.35879217)" stroke-width="1" stroke-linecap="butt" stroke-miterlimit="4" stroke-linejoin="miter" fill="none" stroke="#999999" d="M401 1H441V41H401Z"/>
<use data-text="1" xlink:href="#font_3_20" transform="matrix(11.481349,0,0,-11.481349,295.712,19.374777)"/>
<use data-text="0" xlink:href="#font_3_19" transform="matrix(11.481349,0,0,-11.481349,302.09565,19.374777)"/>
<path transform="matrix(.7175843,0,0,.7175843,.35879217,.35879217)" d="M441 1H481V41H441Z" fill="#fff2cc"/>
<path transform="matrix(.7175843,0,0,.7175843,.35879217,.35879217)" stroke-width="1" stroke-linecap="butt" stroke-miterlimit="4" stroke-linejoin="miter" fill="none" stroke="#999999" d="M441 1H481V41H441Z"/>
<use data-text="6" xlink:href="#font_3_25" transform="matrix(11.481349,0,0,-11.481349,324.41539,19.374777)"/>
<use data-text="0" xlink:href="#font_3_19" transform="matrix(11.481349,0,0,-11.481349,330.799,19.374777)"/>
<path transform="matrix(.7175843,0,0,.7175843,.35879217,.35879217)" d="M281 81H321V121H281Z" fill="#fff2cc"/>
<path transform="matrix(.7175843,0,0,.7175843,.35879217,.35879217)" stroke-width="1" stroke-linecap="butt" stroke-miterlimit="4" stroke-linejoin="miter" fill="none" stroke="#999999" d="M281 81H321V121H281Z"/>
<use data-text="7" xlink:href="#font_3_26" transform="matrix(11.481349,0,0,-11.481349,209.6019,76.781528)"/>
<use data-text="0" xlink:href="#font_3_19" transform="matrix(11.481349,0,0,-11.481349,215.98552,76.781528)"/>
<path transform="matrix(.7175843,0,0,.7175843,.35879217,.35879217)" d="M121 1H161V41H121Z" fill="#fff2cc"/>
<path transform="matrix(.7175843,0,0,.7175843,.35879217,.35879217)" stroke-width="1" stroke-linecap="butt" stroke-miterlimit="4" stroke-linejoin="miter" fill="none" stroke="#999999" d="M121 1H161V41H121Z"/>
<use data-text="5" xlink:href="#font_3_24" transform="matrix(11.481349,0,0,-11.481349,94.78841,19.374777)"/>
<use data-text="2" xlink:href="#font_3_21" transform="matrix(11.481349,0,0,-11.481349,101.17203,19.374777)"/>
<path transform="matrix(.7175843,0,0,.7175843,.35879217,.35879217)" d="M321 81H361V121H321Z" fill="#fff2cc"/>
<path transform="matrix(.7175843,0,0,.7175843,.35879217,.35879217)" stroke-width="1" stroke-linecap="butt" stroke-miterlimit="4" stroke-linejoin="miter" fill="none" stroke="#999999" d="M321 81H361V121H321Z"/>
<use data-text="2" xlink:href="#font_3_21" transform="matrix(11.481349,0,0,-11.481349,238.30527,76.781528)"/>
<use data-text="2" xlink:href="#font_3_21" transform="matrix(11.481349,0,0,-11.481349,244.68889,76.781528)"/>
<path transform="matrix(.7175843,0,0,.7175843,.35879217,.35879217)" d="M361 161H401V201H361Z" fill="#fff2cc"/>
<path transform="matrix(.7175843,0,0,.7175843,.35879217,.35879217)" stroke-width="1" stroke-linecap="butt" stroke-miterlimit="4" stroke-linejoin="miter" fill="none" stroke="#999999" d="M361 161H401V201H361Z"/>
<use data-text="3" xlink:href="#font_3_22" transform="matrix(11.481349,0,0,-11.481349,267.00865,134.18827)"/>
<use data-text="7" xlink:href="#font_3_26" transform="matrix(11.481349,0,0,-11.481349,273.39228,134.18827)"/>
<path transform="matrix(.7175843,0,0,.7175843,.35879217,.35879217)" d="M361 81H401V121H361Z" fill="#fff2cc"/>
<path transform="matrix(.7175843,0,0,.7175843,.35879217,.35879217)" stroke-width="1" stroke-linecap="butt" stroke-miterlimit="4" stroke-linejoin="miter" fill="none" stroke="#999999" d="M361 81H401V121H361Z"/>
<use data-text="7" xlink:href="#font_3_26" transform="matrix(11.481349,0,0,-11.481349,267.00865,76.781528)"/>
<use data-text="2" xlink:href="#font_3_21" transform="matrix(11.481349,0,0,-11.481349,273.39228,76.781528)"/>
</g>
</svg>
