<svg xmlns="http://www.w3.org/2000/svg" xmlns:xlink="http://www.w3.org/1999/xlink" xmlns:inkscape="http://www.inkscape.org/namespaces/inkscape" version="1.1" width="169.55722" height="186.34667" viewBox="0 0 169.55722 186.34667">
<g>
<path transform="matrix(1,0,0,-1,0,0)" stroke-width=".499" stroke-linecap="round" stroke-miterlimit="4" stroke-linejoin="miter" fill="none" stroke="#211e1e" d="M169.309-7.012H135.219V-.25H169.309ZM169.309-23.898H135.219V-17.137H169.309ZM169.309-30.66H135.219V-23.898H169.309ZM169.309-37.418H135.219V-30.66H169.309ZM169.309-44.18H135.219V-37.422H169.309ZM169.309-77.953H135.219V-71.195H169.309ZM169.309-84.715H135.219V-77.953H169.309ZM169.309-91.477H135.219V-84.715H169.309ZM169.309-98.238H135.219V-91.477H169.309ZM169.309-132.012H135.219V-125.25H169.309ZM169.309-138.773H135.219V-132.012H169.309ZM169.309-145.535H135.219V-138.773H169.309ZM169.309-152.293H135.219V-145.535H169.309ZM169.309-159.055H135.219V-152.293H169.309ZM169.309-165.816H135.219V-159.055H169.309ZM169.309-172.574H135.219V-165.816H169.309ZM169.309-179.336H135.219V-172.574H169.309ZM169.309-186.098H135.219V-179.336H169.309ZM169.309-61.066H135.219V-54.305H169.309ZM169.309-115.125H135.219V-108.363H169.309ZM77.922-30.672H9.746V-17.152H77.922ZM77.922-44.195H9.746V-30.672H77.922ZM77.922-57.719H9.746V-44.195H77.922ZM77.922-71.238H9.746V-57.719H77.922ZM77.922-84.762H9.746V-71.238H77.922ZM77.922-98.285H9.746V-84.762H77.922ZM77.922-111.805H9.746V-98.285H77.922ZM77.922-125.328H9.746V-111.805H77.922ZM77.922-138.852H9.746V-125.328H77.922ZM77.922-152.371H9.746V-138.852H77.922ZM97.887-37.434V-41.527"/>
<path transform="matrix(1,0,0,-1,0,0)" stroke-width=".599" stroke-linecap="butt" stroke-miterlimit="4" stroke-linejoin="miter" fill="none" stroke="#211e1e" d="M93.965-41.551H101.809M95.273-42.875H100.5M96.223-44.195H99.551"/>
<path transform="matrix(1,0,0,-1,0,0)" stroke-width=".499" stroke-linecap="round" stroke-miterlimit="4" stroke-linejoin="miter" fill="none" stroke="#211e1e" d="M77.922-37.434H97.887M97.887-64.48V-68.574"/>
<path transform="matrix(1,0,0,-1,0,0)" stroke-width=".599" stroke-linecap="butt" stroke-miterlimit="4" stroke-linejoin="miter" fill="none" stroke="#211e1e" d="M93.965-68.594H101.809M95.273-69.918H100.5M96.223-71.242H99.551"/>
<path transform="matrix(1,0,0,-1,0,0)" stroke-width=".499" stroke-linecap="round" stroke-miterlimit="4" stroke-linejoin="miter" fill="none" stroke="#211e1e" d="M97.887-91.523V-95.617"/>
<path transform="matrix(1,0,0,-1,0,0)" stroke-width=".599" stroke-linecap="butt" stroke-miterlimit="4" stroke-linejoin="miter" fill="none" stroke="#211e1e" d="M93.965-95.637H101.809M95.273-96.961H100.5M96.223-98.285H99.551"/>
<path transform="matrix(1,0,0,-1,0,0)" stroke-width=".499" stroke-linecap="round" stroke-miterlimit="4" stroke-linejoin="miter" fill="none" stroke="#211e1e" d="M97.887-118.57V-122.66"/>
<path transform="matrix(1,0,0,-1,0,0)" stroke-width=".599" stroke-linecap="butt" stroke-miterlimit="4" stroke-linejoin="miter" fill="none" stroke="#211e1e" d="M93.965-122.68H101.809M95.273-124.004H100.5M96.223-125.328H99.551"/>
<path transform="matrix(1,0,0,-1,0,0)" stroke-width=".499" stroke-linecap="round" stroke-miterlimit="4" stroke-linejoin="miter" fill="none" stroke="#211e1e" d="M77.922-64.48H97.887M77.922-91.523H97.887M77.922-118.57H97.887"/>
<path d="M3.188 24.023C3.188 25.43 2.828 26.273 2.016 26.273 1.203 26.273 .844 25.43 .844 24.023 .844 22.617 1.203 21.773 2.016 21.773 2.828 21.773 3.188 22.617 3.188 24.023ZM3.938 24.023C3.938 22.867 3.625 21.148 2.016 21.148 .406 21.148 .094 22.867 .094 24.023 .094 25.195 .406 26.914 2.016 26.914 3.625 26.914 3.938 25.195 3.938 24.023ZM3.938 24.023" fill="#211e1e"/>
<path d="M2.656 34.672H2.109C1.891 35.594 1.516 35.672 .609 35.734V36.297H1.906V40.281H2.656ZM2.656 34.672" fill="#211e1e"/>
<path d="M.844 50.207C.875 49.801 .922 48.816 1.984 48.816 2.813 48.816 3.094 49.379 3.094 49.832 3.094 50.566 2.656 50.801 2.063 51.145L1.328 51.566C.578 52.02 .047 52.629 0 53.801H3.844V53.145H.797C.828 52.926 1 52.488 1.766 52.066L2.344 51.738C3.188 51.301 3.844 50.863 3.844 49.863 3.844 48.816 3.063 48.191 2.094 48.191 1.484 48.191 .141 48.379 .141 50.207ZM.844 50.207" fill="#211e1e"/>
<path d="M1.578 64.73C1.688 64.73 1.797 64.73 1.906 64.73 2.391 64.73 3.219 64.824 3.219 65.762 3.219 66.402 2.719 66.84 2 66.84 .953 66.84 .813 66.137 .797 65.605H.063C.109 66.262 .281 66.902 .906 67.23 1.172 67.371 1.531 67.48 1.938 67.48 3.375 67.48 3.969 66.59 3.969 65.668 3.969 64.918 3.578 64.543 3.031 64.355V64.34C3.328 64.246 3.75 63.902 3.75 63.184 3.75 62.34 3.109 61.715 2.016 61.715 .547 61.715 .203 62.73 .203 63.543H.891C.922 63.152 .984 62.34 1.984 62.34 2.828 62.34 3.016 62.887 3.016 63.23 3.016 63.934 2.5 64.152 1.953 64.152 1.828 64.152 1.703 64.137 1.578 64.137ZM1.578 64.73" fill="#211e1e"/>
<path d="M3.969 79.488V78.879H3.156V75.238H2.563L0 78.801V79.488H2.453V80.848H3.156V79.488ZM2.438 76.332H2.453V78.879H.641ZM2.438 76.332" fill="#211e1e"/>
<path d="M1.203 89.555H3.594V88.867H.688L.266 91.883 .859 91.914C1.125 91.57 1.5 91.383 1.906 91.383 2.594 91.383 3.156 91.82 3.156 92.633 3.156 93.336 2.688 93.914 1.969 93.914 1.344 93.914 .844 93.617 .781 92.977H.047C.188 94.227 1.125 94.523 1.859 94.523 3.625 94.523 3.906 93.164 3.906 92.539 3.906 91.383 2.969 90.758 2.063 90.758 1.547 90.758 1.203 90.914 .969 91.102ZM1.203 89.555" fill="#211e1e"/>
<path d="M3.813 103.77C3.734 102.629 2.828 102.285 2.172 102.285 .5 102.285 .094 104.051 .094 105.285 .094 106.02 .203 106.707 .531 107.238 .938 107.848 1.547 108.051 1.984 108.051 2.766 108.051 3.109 107.832 3.391 107.504 3.781 107.082 3.938 106.676 3.938 106.098 3.938 104.754 2.859 104.316 2.172 104.316 1.406 104.316 1.016 104.707 .844 105.004L.828 104.988C.828 104.395 1.063 102.91 2.156 102.91 2.766 102.91 3.031 103.285 3.125 103.77ZM.922 106.176C.922 105.504 1.297 104.941 2.078 104.941 2.938 104.941 3.203 105.629 3.203 106.129 3.203 106.895 2.781 107.41 2.109 107.41 1.281 107.41 .922 106.77 .922 106.176ZM.922 106.176" fill="#211e1e"/>
<path d="M.094 116.602H3.188C2.109 117.867 1.078 119.867 .891 121.414H1.672C2.078 118.914 3.406 117.117 3.969 116.539V115.914H.094ZM.094 116.602" fill="#211e1e"/>
<path d="M3.719 130.762C3.719 130.105 3.234 129.324 2 129.324 .656 129.324 .297 130.277 .297 130.855 .297 131.387 .578 131.777 1.047 131.949 .453 132.199 .094 132.637 .094 133.324 .094 133.59 .094 134.199 .672 134.652 1.125 135.012 1.719 135.09 2.031 135.09 3.344 135.09 3.922 134.215 3.922 133.309 3.922 132.887 3.766 132.262 3 131.949 3.25 131.824 3.719 131.574 3.719 130.762ZM2.016 132.293C2.641 132.293 3.172 132.637 3.172 133.387 3.172 134.277 2.563 134.449 2.047 134.449 1.078 134.449 .844 133.777 .844 133.34 .844 132.824 1.219 132.293 2.016 132.293ZM2 131.699C1.484 131.699 1.016 131.371 1.016 130.824 1.016 130.465 1.203 129.949 1.953 129.949 2.781 129.949 3 130.449 3 130.793 3 131.293 2.609 131.699 2 131.699ZM2 131.699" fill="#211e1e"/>
<path d="M1.891 146.582C2.422 146.582 2.969 146.348 3.188 145.91L3.203 145.926C3.016 147.379 2.609 148.02 1.844 148.02 1.281 148.02 .938 147.676 .906 147.113H.203C.203 147.645 .547 148.613 1.859 148.613 3.797 148.613 3.906 146.051 3.906 145.441 3.906 144.535 3.719 142.848 1.938 142.848 .75 142.848 .125 143.754 .125 144.77 .125 145.879 .859 146.582 1.891 146.582ZM2 145.957C1.531 145.957 .859 145.816 .859 144.738 .859 143.988 1.297 143.473 1.938 143.473 2.75 143.473 3.078 144.035 3.078 144.676 3.078 145.785 2.375 145.957 2 145.957ZM2 145.957" fill="#211e1e"/>
<path transform="matrix(1,0,0,-1,0,0)" stroke-width=".499" stroke-linecap="round" stroke-miterlimit="4" stroke-linejoin="miter" fill="none" stroke="#211e1e" d="M77.922-23.914H116.035M77.922-50.957H116.035M77.922-78.004H116.035M77.922-105.047H116.035M77.922-132.09H116.035M77.922-145.613H116.035M116.035-84.715H130.469"/>
<path d="M132.125 83.996C130.965 83.645 130.211 83.32 129.281 82.949V86.488C129.613 86.328 130.965 85.789 132.125 85.441 133.363 85.066 134.488 84.809 135.219 84.719 134.488 84.625 133.363 84.367 132.125 83.996" fill="#211e1e"/>
<path transform="matrix(1,0,0,-1,0,0)" stroke-width=".499" stroke-linecap="round" stroke-miterlimit="4" stroke-linejoin="miter" fill="none" stroke="#211e1e" d="M116.035-111.742H130.469"/>
<path d="M132.125 111.023C130.965 110.672 130.211 110.352 129.281 109.977V113.512C129.613 113.355 130.965 112.816 132.125 112.469 133.363 112.094 134.488 111.836 135.219 111.746 134.488 111.656 133.363 111.398 132.125 111.023" fill="#211e1e"/>
<path transform="matrix(1,0,0,-1,0,0)" stroke-width=".499" stroke-linecap="round" stroke-miterlimit="4" stroke-linejoin="miter" fill="none" stroke="#211e1e" d="M116.035-155.672H130.469"/>
<path d="M132.125 154.953C130.965 154.605 130.211 154.281 129.281 153.906V157.445C129.613 157.285 130.965 156.75 132.125 156.398 133.363 156.023 134.488 155.766 135.219 155.676 134.488 155.586 133.363 155.328 132.125 154.953" fill="#211e1e"/>
<path transform="matrix(1,0,0,-1,0,0)" stroke-width=".499" stroke-linecap="round" stroke-miterlimit="4" stroke-linejoin="miter" fill="none" stroke="#211e1e" d="M116.035-30.656H130.469"/>
<path d="M132.125 29.938C130.965 29.586 130.211 29.266 129.281 28.891V32.43C129.613 32.27 130.965 31.73 132.125 31.383 133.363 31.008 134.488 30.754 135.219 30.66 134.488 30.57 133.363 30.313 132.125 29.938" fill="#211e1e"/>
<path transform="matrix(1,0,0,-1,0,0)" stroke-width=".499" stroke-linecap="round" stroke-miterlimit="4" stroke-linejoin="miter" fill="none" stroke="#211e1e" d="M116.035-3.629H130.469"/>
<path d="M132.125 2.91C130.965 2.559 130.211 2.238 129.281 1.863V5.398C129.613 5.242 130.965 4.703 132.125 4.355 133.363 3.98 134.488 3.723 135.219 3.633 134.488 3.539 133.363 3.285 132.125 2.91" fill="#211e1e"/>
<path transform="matrix(1,0,0,-1,0,0)" stroke-width=".499" stroke-linecap="round" stroke-miterlimit="4" stroke-linejoin="miter" fill="none" stroke="#211e1e" d="M116.035-57.27H130.469"/>
<path d="M132.125 56.551C130.965 56.199 130.211 55.875 129.281 55.504V59.039C129.613 58.883 130.965 58.344 132.125 57.996 133.363 57.621 134.488 57.363 135.219 57.273 134.488 57.18 133.363 56.922 132.125 56.551" fill="#211e1e"/>
<path transform="matrix(1,0,0,-1,0,0)" stroke-width=".499" stroke-linecap="round" stroke-miterlimit="4" stroke-linejoin="miter" fill="none" stroke="#211e1e" d="M116.035-3.629V-23.914M116.035-30.656V-50.945M116.035-57.27V-77.555M116.035-84.715V-105M116.035-111.742V-132.027M116.035-145.613V-155.672"/>
</g>
</svg>
