<svg xmlns="http://www.w3.org/2000/svg" xmlns:xlink="http://www.w3.org/1999/xlink" xmlns:inkscape="http://www.inkscape.org/namespaces/inkscape" version="1.1" width="606" height="406.08" viewBox="0 0 606 406.08">
<defs>
<clipPath id="clip_1">
<path transform="matrix(.24,0,0,.24,0,0)" d="M0 0H2525V1689.3239H0Z" clip-rule="evenodd"/>
</clipPath>
<clipPath id="clip_2">
<path transform="matrix(.24,0,0,.24,0,0)" d="M0 0H2525V1683.3333H0Z" clip-rule="evenodd"/>
</clipPath>
<path id="font_3_44" d="M.068359378 0V.7158203H.21289063V0H.068359378Z"/>
<path id="font_3_81" d="M.54345706 0H.40625V.26434327C.40625 .32027183 .4033203 .3564453 .39746095 .37286378 .39160157 .38928224 .38208009 .40204368 .36889649 .41114808 .3557129 .42025248 .33984376 .4248047 .32128907 .4248047 .29752604 .4248047 .27620445 .41829936 .25732423 .4052887 .23844402 .3922882 .22550456 .37505595 .21850586 .35359193 .21150716 .33213807 .20800781 .2924703 .20800781 .23458863V0H.07080078V.5185547H.19824219V.4423828C.24348958 .50097659 .30045573 .53027346 .36914063 .53027346 .39941407 .53027346 .42708335 .524821 .45214845 .513916 .47721354 .50301107 .49617515 .48909507 .5090332 .47216798 .5218913 .45524089 .5308431 .43603517 .5358887 .41455079 .54093429 .3930664 .54345706 .3623047 .54345706 .32226563V0Z"/>
<path id="font_3_71" d="M.5473633 0H.41992188V.076171878C.39876304 .04654948 .3737793 .024495444 .3449707 .010009766 .3161621-.0044759118 .28710938-.01171875 .2578125-.01171875 .19824219-.01171875 .1472168 .012288411 .10473633 .060302736 .06225586 .108317058 .041015626 .17529297 .041015626 .26123048 .041015626 .3491211 .0616862 .41593424 .103027347 .46166993 .14436849 .5074056 .19661458 .53027346 .25976563 .53027346 .31770835 .53027346 .36783854 .5061849 .41015626 .4580078V.7158203H.5473633V0M.18115235 .2702484C.18115235 .21499126 .18880208 .17501323 .20410156 .15031433 .22623699 .1145579 .25716148 .09667969 .296875 .09667969 .32845054 .09667969 .355306 .110087078 .3774414 .13690186 .3995768 .16371663 .41064454 .20377605 .41064454 .25708009 .41064454 .316569 .39990235 .35939536 .37841798 .38555909 .3569336 .4117228 .3294271 .4248047 .29589845 .4248047 .26334635 .4248047 .23608399 .4118856 .21411133 .38604737 .19213867 .36020915 .18115235 .3216095 .18115235 .2702484Z"/>
<path id="font_3_72" d="M.3720703 .16503906 .50878909 .14160156C.49121095 .09163412 .4634603 .053588869 .4255371 .02746582 .38761393 .0013427734 .34016929-.01171875 .28320313-.01171875 .19303386-.01171875 .12630208 .017740885 .08300781 .076660159 .048828126 .12386068 .03173828 .18343099 .03173828 .2553711 .03173828 .3413086 .05419922 .40861003 .099121097 .4572754 .14404297 .50594076 .20084636 .53027346 .26953126 .53027346 .3466797 .53027346 .4075521 .50480148 .45214845 .45385743 .49674479 .40291343 .5180664 .32486979 .5161133 .21972656H.17236328C.17333985 .17903646 .18440755 .14737956 .2055664 .12475586 .22672527 .102132167 .25309245 .09082031 .28466798 .09082031 .30615235 .09082031 .32421876 .09667969 .3388672 .10839844 .35351563 .12011719 .36458335 .13899739 .3720703 .16503906M.3798828 .30371095C.37890626 .34326173 .36865235 .3733317 .3491211 .3939209 .32958985 .4145101 .3058268 .4248047 .27783204 .4248047 .24788411 .4248047 .22314453 .41394554 .20361328 .39222718 .18408203 .37049867 .17447917 .34099327 .17480469 .30371095H.3798828Z"/>
<path id="font_3_91" d="M.005859375 0 .1928711 .26708985 .013671875 .5185547H.18115235L.27294923 .37597657 .3696289 .5185547H.5307617L.35498048 .27294923 .546875 0H.37841798L.27294923 .16064453 .1665039 0H.005859375Z"/>
<path id="font_3_39" d="M.072265628 .7158203H.33642579C.3959961 .7158203 .44140626 .711263 .47265626 .70214846 .51464846 .6897786 .55061849 .66780599 .5805664 .63623049 .61051437 .60465499 .6333008 .5659993 .6489258 .5202637 .6645508 .47452799 .6723633 .4181315 .6723633 .35107423 .6723633 .29215495 .66503909 .2413737 .6503906 .19873047 .632487 .14664714 .6069336 .10449219 .57373049 .072265628 .54866537 .047851564 .5148112 .028808594 .47216798 .015136719 .44026695 .0050455729 .3976237 0 .34423829 0H.072265628V.7158203M.21679688 .59472659V.12109375H.32470704C.36507163 .12109375 .39420573 .1233724 .41210938 .12792969 .43554688 .13377889 .45499674 .14369202 .47045899 .15766907 .48592124 .1716563 .49853517 .19466655 .5083008 .22669983 .5180664 .25873313 .5229492 .30238853 .5229492 .35766603 .5229492 .4129435 .5180664 .4553782 .5083008 .4849701 .49853517 .51456198 .48486329 .5376485 .46728517 .55422976 .44970704 .5708211 .42740885 .58204147 .40039063 .5878906 .38020835 .59244796 .34065757 .59472659 .28173829 .59472659H.21679688Z"/>
<path id="font_3_68" d="M.1743164 .35839845 .049804689 .38085938C.063802089 .4316508 .087890628 .46924845 .12207031 .49365235 .15625 .5180664 .20703125 .53027346 .27441407 .53027346 .33561198 .53027346 .3811849 .5230306 .4111328 .5085449 .44108073 .49405924 .4621582 .47566734 .47436524 .45336915 .48657228 .43107096 .49267579 .39013673 .49267579 .3305664L.49121095 .17041016C.49121095 .12483724 .4934082 .09122721 .49780274 .06958008 .50219729 .04793294 .5104167 .024739584 .52246096 0H.38671876C.38313804 .009114583 .3787435 .022623698 .37353517 .040527345 .3712565 .048665365 .3696289 .054036458 .36865235 .056640626 .34521485 .033854169 .32014976 .016764323 .29345704 .0053710939 .2667643-.0060221354 .23828125-.01171875 .20800781-.01171875 .15462239-.01171875 .11254883 .0027058919 .08178711 .031555177 .05102539 .06040446 .03564453 .09687296 .03564453 .1409607 .03564453 .1701355 .04264323 .19614665 .056640626 .21899414 .07063802 .2418518 .09025065 .25935874 .115478519 .2715149 .14070638 .28367106 .17708333 .2942861 .22460938 .30336 .28873698 .3153534 .33317057 .3265381 .35791017 .33691407V.35073854C.35791017 .37740074 .35139976 .39640809 .3383789 .40776063 .32535807 .41912333 .30078126 .4248047 .26464845 .4248047 .24023438 .4248047 .2211914 .41989137 .20751953 .4100647 .19384766 .4002482 .18277996 .38302613 .1743164 .35839845M.35791017 .24707031C.34033204 .24128215 .3125 .23436482 .27441407 .22631836 .23632813 .21828206 .21142578 .21040344 .19970703 .2026825 .18180339 .19013977 .17285156 .17421977 .17285156 .15492249 .17285156 .13594055 .18001302 .119532268 .19433594 .10569763 .20865886 .09187317 .22688802 .08496094 .24902344 .08496094 .27376304 .08496094 .29736329 .09300232 .31982423 .10908508 .33642579 .121302288 .34733073 .13626099 .35253907 .15396118 .35611979 .16553752 .35791017 .18756612 .35791017 .220047V.24707031Z"/>
<path id="font_3_87" d="M.3095703 .5185547V.4091797H.21582031V.200531C.21582031 .15827434 .2167155 .13365174 .21850586 .12666321 .22029622 .11968485 .22436524 .11391703 .23071289 .10935974 .23706055 .10481262 .24479167 .10253906 .25390626 .10253906 .26660157 .10253906 .2849935 .106933597 .30908204 .115722659L.32080079 .008880615C.28889976-.004852295 .25276695-.01171875 .21240235-.01171875 .18766277-.01171875 .16536458-.0075683596 .14550781 .0007324219 .12565105 .009033203 .111083988 .01977539 .10180664 .032958986 .0925293 .046142579 .08610026 .063964847 .08251953 .08642578 .079589847 .102376308 .078125 .13460286 .078125 .18310547V.4091797H.015136719V.5185547H.078125V.6220703L.21582031 .703125V.5185547H.3095703Z"/>
</defs>
<g clip-path="url(#clip_1)">
<path transform="matrix(.71886119,0,0,.71886119,0,0)" d="M0 0H843V564H0Z" fill="#ffffff"/>
</g>
<g clip-path="url(#clip_2)">
<path transform="matrix(.71886119,0,0,.71886119,.35943059,.35943059)" d="M481 41H841V561H481Z" fill="#dae8fc"/>
<path transform="matrix(.71886119,0,0,.71886119,.35943059,.35943059)" stroke-width="1" stroke-linecap="butt" stroke-miterlimit="4" stroke-linejoin="miter" fill="none" stroke="#6c8ebf" d="M481 41H841V561H481Z"/>
<path transform="matrix(.71886119,0,0,.71886119,.35943059,.35943059)" d="M241 261H361V301H241Z" fill="#ffffff"/>
<path transform="matrix(.71886119,0,0,.71886119,.35943059,.35943059)" stroke-width="1" stroke-linecap="butt" stroke-miterlimit="4" stroke-linejoin="miter" fill="none" stroke="#000000" d="M241 261H361V301H241Z"/>
<path transform="matrix(.71886119,0,0,.71886119,.35943059,.35943059)" d="M361 261H381V301H361Z" fill="#d5e8d4"/>
<path transform="matrix(.71886119,0,0,.71886119,.35943059,.35943059)" stroke-width="1" stroke-linecap="butt" stroke-miterlimit="4" stroke-linejoin="miter" fill="none" stroke="#82b366" d="M361 261H381V301H361Z"/>
<path transform="matrix(.71886119,0,0,.71886119,.35943059,.35943059)" d="M241 301H361V341H241Z" fill="#ffffff"/>
<path transform="matrix(.71886119,0,0,.71886119,.35943059,.35943059)" stroke-width="1" stroke-linecap="butt" stroke-miterlimit="4" stroke-linejoin="miter" fill="none" stroke="#000000" d="M241 301H361V341H241Z"/>
<path transform="matrix(.71886119,0,0,.71886119,.35943059,.35943059)" d="M361 301H381V341H361Z" fill="#d5e8d4"/>
<path transform="matrix(.71886119,0,0,.71886119,.35943059,.35943059)" stroke-width="1" stroke-linecap="butt" stroke-miterlimit="4" stroke-linejoin="miter" fill="none" stroke="#82b366" d="M361 301H381V341H361Z"/>
<path transform="matrix(.71886119,0,0,.71886119,.35943059,.35943059)" d="M241 381H361V421H241Z" fill="#ffffff"/>
<path transform="matrix(.71886119,0,0,.71886119,.35943059,.35943059)" stroke-width="1" stroke-linecap="butt" stroke-miterlimit="4" stroke-linejoin="miter" fill="none" stroke="#000000" d="M241 381H361V421H241Z"/>
<path transform="matrix(.71886119,0,0,.71886119,.35943059,.35943059)" d="M361 381H381V421H361Z" fill="#d5e8d4"/>
<path transform="matrix(.71886119,0,0,.71886119,.35943059,.35943059)" stroke-width="1" stroke-linecap="butt" stroke-miterlimit="4" stroke-linejoin="miter" fill="none" stroke="#82b366" d="M361 381H381V421H361Z"/>
<path transform="matrix(.71886119,0,0,.71886119,.35943059,.35943059)" d="M241 421H361V461H241Z" fill="#ffffff"/>
<path transform="matrix(.71886119,0,0,.71886119,.35943059,.35943059)" stroke-width="1" stroke-linecap="butt" stroke-miterlimit="4" stroke-linejoin="miter" fill="none" stroke="#000000" d="M241 421H361V461H241Z"/>
<path transform="matrix(.71886119,0,0,.71886119,.35943059,.35943059)" d="M361 421H381V461H361Z" fill="#d5e8d4"/>
<path transform="matrix(.71886119,0,0,.71886119,.35943059,.35943059)" stroke-width="1" stroke-linecap="butt" stroke-miterlimit="4" stroke-linejoin="miter" fill="none" stroke="#82b366" d="M361 421H381V461H361Z"/>
<path transform="matrix(.71886119,0,0,.71886119,.35943059,.35943059)" d="M481 321H601V361H481Z" fill="#ffffff"/>
<path transform="matrix(.71886119,0,0,.71886119,.35943059,.35943059)" stroke-width="1" stroke-linecap="butt" stroke-miterlimit="4" stroke-linejoin="miter" fill="none" stroke="#000000" d="M481 321H601V361H481Z"/>
<path transform="matrix(.71886119,0,0,.71886119,.35943059,.35943059)" d="M601 321H721V361H601Z" fill="#ffffff"/>
<path transform="matrix(.71886119,0,0,.71886119,.35943059,.35943059)" stroke-width="1" stroke-linecap="butt" stroke-miterlimit="4" stroke-linejoin="miter" fill="none" stroke="#000000" d="M601 321H721V361H601Z"/>
<path transform="matrix(.71886119,0,0,.71886119,.35943059,.35943059)" d="M721 321H841V361H721Z" fill="#ffffff"/>
<path transform="matrix(.71886119,0,0,.71886119,.35943059,.35943059)" stroke-width="1" stroke-linecap="butt" stroke-miterlimit="4" stroke-linejoin="miter" fill="none" stroke="#000000" d="M721 321H841V361H721Z"/>
<path transform="matrix(.71886119,0,0,.71886119,.35943059,.35943059)" d="M481 241H601V281H481Z" fill="#ffffff"/>
<path transform="matrix(.71886119,0,0,.71886119,.35943059,.35943059)" stroke-width="1" stroke-linecap="butt" stroke-miterlimit="4" stroke-linejoin="miter" fill="none" stroke="#000000" d="M481 241H601V281H481Z"/>
<path transform="matrix(.71886119,0,0,.71886119,.35943059,.35943059)" d="M601 241H721V281H601Z" fill="#ffffff"/>
<path transform="matrix(.71886119,0,0,.71886119,.35943059,.35943059)" stroke-width="1" stroke-linecap="butt" stroke-miterlimit="4" stroke-linejoin="miter" fill="none" stroke="#000000" d="M601 241H721V281H601Z"/>
<path transform="matrix(.71886119,0,0,.71886119,.35943059,.35943059)" d="M721 241H841V281H721Z" fill="#ffffff"/>
<path transform="matrix(.71886119,0,0,.71886119,.35943059,.35943059)" stroke-width="1" stroke-linecap="butt" stroke-miterlimit="4" stroke-linejoin="miter" fill="none" stroke="#000000" d="M721 241H841V281H721Z"/>
<path transform="matrix(.71886119,0,0,.71886119,.35943059,.35943059)" d="M481 401H601V441H481Z" fill="#ffffff"/>
<path transform="matrix(.71886119,0,0,.71886119,.35943059,.35943059)" stroke-width="1" stroke-linecap="butt" stroke-miterlimit="4" stroke-linejoin="miter" fill="none" stroke="#000000" d="M481 401H601V441H481Z"/>
<path transform="matrix(.71886119,0,0,.71886119,.35943059,.35943059)" d="M601 401H721V441H601Z" fill="#ffffff"/>
<path transform="matrix(.71886119,0,0,.71886119,.35943059,.35943059)" stroke-width="1" stroke-linecap="butt" stroke-miterlimit="4" stroke-linejoin="miter" fill="none" stroke="#000000" d="M601 401H721V441H601Z"/>
<path transform="matrix(.71886119,0,0,.71886119,.35943059,.35943059)" d="M721 401H841V441H721Z" fill="#ffffff"/>
<path transform="matrix(.71886119,0,0,.71886119,.35943059,.35943059)" stroke-width="1" stroke-linecap="butt" stroke-miterlimit="4" stroke-linejoin="miter" fill="none" stroke="#000000" d="M721 401H841V441H721Z"/>
<path transform="matrix(.71886119,0,0,.71886119,.35943059,.35943059)" d="M481 481H601V521H481Z" fill="#ffffff"/>
<path transform="matrix(.71886119,0,0,.71886119,.35943059,.35943059)" stroke-width="1" stroke-linecap="butt" stroke-miterlimit="4" stroke-linejoin="miter" fill="none" stroke="#000000" d="M481 481H601V521H481Z"/>
<path transform="matrix(.71886119,0,0,.71886119,.35943059,.35943059)" d="M601 481H721V521H601Z" fill="#ffffff"/>
<path transform="matrix(.71886119,0,0,.71886119,.35943059,.35943059)" stroke-width="1" stroke-linecap="butt" stroke-miterlimit="4" stroke-linejoin="miter" fill="none" stroke="#000000" d="M601 481H721V521H601Z"/>
<path transform="matrix(.71886119,0,0,.71886119,.35943059,.35943059)" d="M721 481H841V521H721Z" fill="#ffffff"/>
<path transform="matrix(.71886119,0,0,.71886119,.35943059,.35943059)" stroke-width="1" stroke-linecap="butt" stroke-miterlimit="4" stroke-linejoin="miter" fill="none" stroke="#000000" d="M721 481H841V521H721Z"/>
<path transform="matrix(.71886119,0,0,.71886119,.35943059,.35943059)" stroke-width="1" stroke-linecap="butt" stroke-miterlimit="10" stroke-linejoin="miter" fill="none" stroke="#0000ff" d="M375.39 443.39 475.41 497.95"/>
<path transform="matrix(.71886119,0,0,.71886119,.35943059,.35943059)" d="M480.02 500.46 472.2 500.19 475.41 497.95 475.55 494.04 480.02 500.46Z" fill="#0000ff"/>
<path transform="matrix(.71886119,0,0,.71886119,.35943059,.35943059)" stroke-width="1" stroke-linecap="butt" stroke-miterlimit="10" stroke-linejoin="miter" fill="none" stroke="#0000ff" d="M480.02 500.46 472.2 500.19 475.41 497.95 475.55 494.04 480.02 500.46Z"/>
<path transform="matrix(.71886119,0,0,.71886119,.35943059,.35943059)" d="M376 441C375.99998 441.663 375.87309 442.30079 375.61936 442.91337 375.3656 443.52595 375.00434 444.06666 374.5355 444.53553 374.06666 445.00437 373.52598 445.36564 372.9134 445.61933 372.3008 445.87309 371.66304 445.99998 371 446 370.33695 445.99998 369.69914 445.8731 369.08656 445.61936 368.47398 445.36564 367.93327 445.00437 367.46446 444.53553 366.9956 444.06666 366.6343 443.52595 366.38056 442.9134 366.12684 442.3008 365.99998 441.663 366 441 365.99998 440.33695 366.12684 439.69914 366.38056 439.08656 366.6343 438.47398 366.9956 437.9333 367.46446 437.46446 367.93327 436.9956 368.47398 436.6343 369.08656 436.38056 369.69914 436.12687 370.33695 436 371 436 371.66304 436 372.3008 436.12687 372.9134 436.38059 373.52598 436.6343 374.06666 436.9956 374.5355 437.46446 375.00434 437.9333 375.3656 438.47398 375.61936 439.08656 375.87309 439.69914 375.99998 440.33695 376 441Z"/>
<path transform="matrix(.71886119,0,0,.71886119,.35943059,.35943059)" stroke-width="1" stroke-linecap="butt" stroke-miterlimit="10" stroke-linejoin="miter" fill="none" stroke="#0000ff" d="M375.92 401.89 474.73 419.86"/>
<path transform="matrix(.71886119,0,0,.71886119,.35943059,.35943059)" d="M479.9 420.8 472.39 422.99 474.73 419.86 473.64 416.1 479.9 420.8Z" fill="#0000ff"/>
<path transform="matrix(.71886119,0,0,.71886119,.35943059,.35943059)" stroke-width="1" stroke-linecap="butt" stroke-miterlimit="10" stroke-linejoin="miter" fill="none" stroke="#0000ff" d="M479.9 420.8 472.39 422.99 474.73 419.86 473.64 416.1 479.9 420.8Z"/>
<path transform="matrix(.71886119,0,0,.71886119,.35943059,.35943059)" d="M376 401C375.99998 401.663 375.87309 402.30076 375.61936 402.91334 375.3656 403.5259 375.00434 404.06663 374.5355 404.5355 374.06666 405.00434 373.52598 405.3656 372.9134 405.61933 372.3008 405.87309 371.66304 405.99998 371 406 370.33695 405.99998 369.69914 405.8731 369.08656 405.61936 368.47398 405.3656 367.93327 405.00434 367.46446 404.5355 366.9956 404.06663 366.6343 403.5259 366.38056 402.91334 366.12684 402.30076 365.99998 401.663 366 401 365.99998 400.33695 366.12684 399.69914 366.38056 399.08656 366.6343 398.47398 366.9956 397.9333 367.46446 397.46446 367.93327 396.9956 368.47398 396.6343 369.08656 396.38056 369.69914 396.12687 370.33695 396 371 396 371.66304 396 372.3008 396.12687 372.9134 396.38059 373.52598 396.6343 374.06666 396.9956 374.5355 397.46446 375.00434 397.9333 375.3656 398.47398 375.61936 399.08656 375.87309 399.69914 375.99998 400.33695 376 401Z"/>
<path transform="matrix(.71886119,0,0,.71886119,.35943059,.35943059)" stroke-width="1" stroke-linecap="butt" stroke-miterlimit="10" stroke-linejoin="miter" fill="none" stroke="#0000ff" d="M375.92 321.89 474.73 339.86"/>
<path transform="matrix(.71886119,0,0,.71886119,.35943059,.35943059)" d="M479.9 340.8 472.39 342.99 474.73 339.86 473.64 336.1 479.9 340.8Z" fill="#0000ff"/>
<path transform="matrix(.71886119,0,0,.71886119,.35943059,.35943059)" stroke-width="1" stroke-linecap="butt" stroke-miterlimit="10" stroke-linejoin="miter" fill="none" stroke="#0000ff" d="M479.9 340.8 472.39 342.99 474.73 339.86 473.64 336.1 479.9 340.8Z"/>
<path transform="matrix(.71886119,0,0,.71886119,.35943059,.35943059)" d="M376 321C375.99998 321.66304 375.87309 322.3008 375.61936 322.91337 375.3656 323.52595 375.00434 324.06666 374.5355 324.5355 374.06666 325.00434 373.52598 325.3656 372.9134 325.61936 372.3008 325.87309 371.66304 325.99998 371 326 370.33695 325.99998 369.69914 325.87309 369.08656 325.61936 368.47398 325.3656 367.93327 325.00434 367.46446 324.5355 366.9956 324.06666 366.6343 323.52595 366.38056 322.91337 366.12684 322.3008 365.99998 321.66304 366 321 365.99998 320.33695 366.12684 319.69914 366.38056 319.08656 366.6343 318.47398 366.9956 317.93327 367.46446 317.46446 367.93327 316.9956 368.47398 316.6343 369.08656 316.38059 369.69914 316.12687 370.33695 316 371 316 371.66304 316 372.3008 316.12687 372.9134 316.38059 373.52598 316.6343 374.06666 316.9956 374.5355 317.46446 375.00434 317.93327 375.3656 318.47398 375.61936 319.08656 375.87309 319.69914 375.99998 320.33695 376 321Z"/>
<path transform="matrix(.71886119,0,0,.71886119,.35943059,.35943059)" stroke-width="1" stroke-linecap="butt" stroke-miterlimit="10" stroke-linejoin="miter" fill="none" stroke="#0000ff" d="M375.92 280.11 474.73 262.14"/>
<path transform="matrix(.71886119,0,0,.71886119,.35943059,.35943059)" d="M479.9 261.2 473.64 265.9 474.73 262.14 472.39 259.01 479.9 261.2Z" fill="#0000ff"/>
<path transform="matrix(.71886119,0,0,.71886119,.35943059,.35943059)" stroke-width="1" stroke-linecap="butt" stroke-miterlimit="10" stroke-linejoin="miter" fill="none" stroke="#0000ff" d="M479.9 261.2 473.64 265.9 474.73 262.14 472.39 259.01 479.9 261.2Z"/>
<path transform="matrix(.71886119,0,0,.71886119,.35943059,.35943059)" d="M376 281C375.99998 281.66304 375.87309 282.3008 375.61936 282.9134 375.3656 283.52598 375.00434 284.06669 374.5355 284.53553 374.06666 285.00437 373.52598 285.36564 372.9134 285.6194 372.3008 285.8731 371.66304 285.99998 371 286 370.33695 285.99998 369.69914 285.8731 369.08656 285.6194 368.47398 285.36564 367.93327 285.00437 367.46446 284.53553 366.9956 284.06669 366.6343 283.52598 366.38056 282.9134 366.12684 282.3008 365.99998 281.66304 366 281 365.99998 280.33695 366.12684 279.69914 366.38056 279.08656 366.6343 278.47398 366.9956 277.9333 367.46446 277.46446 367.93327 276.9956 368.47398 276.6343 369.08656 276.38056 369.69914 276.12687 370.33695 276 371 276 371.66304 276 372.3008 276.12687 372.9134 276.38056 373.52598 276.6343 374.06666 276.9956 374.5355 277.46446 375.00434 277.9333 375.3656 278.47398 375.61936 279.08656 375.87309 279.69914 375.99998 280.33695 376 281Z"/>
<path transform="matrix(.71886119,0,0,.71886119,.35943059,.35943059)" d="M241 141H361V181H241Z" fill="#ffffff"/>
<path transform="matrix(.71886119,0,0,.71886119,.35943059,.35943059)" stroke-width="1" stroke-linecap="butt" stroke-miterlimit="4" stroke-linejoin="miter" fill="none" stroke="#000000" d="M241 141H361V181H241Z"/>
<path transform="matrix(.71886119,0,0,.71886119,.35943059,.35943059)" d="M361 141H381V181H361Z" fill="#d5e8d4"/>
<path transform="matrix(.71886119,0,0,.71886119,.35943059,.35943059)" stroke-width="1" stroke-linecap="butt" stroke-miterlimit="4" stroke-linejoin="miter" fill="none" stroke="#82b366" d="M361 141H381V181H361Z"/>
<path transform="matrix(.71886119,0,0,.71886119,.35943059,.35943059)" d="M241 181H361V221H241Z" fill="#ffffff"/>
<path transform="matrix(.71886119,0,0,.71886119,.35943059,.35943059)" stroke-width="1" stroke-linecap="butt" stroke-miterlimit="4" stroke-linejoin="miter" fill="none" stroke="#000000" d="M241 181H361V221H241Z"/>
<path transform="matrix(.71886119,0,0,.71886119,.35943059,.35943059)" d="M361 181H381V221H361Z" fill="#d5e8d4"/>
<path transform="matrix(.71886119,0,0,.71886119,.35943059,.35943059)" stroke-width="1" stroke-linecap="butt" stroke-miterlimit="4" stroke-linejoin="miter" fill="none" stroke="#82b366" d="M361 181H381V221H361Z"/>
<path transform="matrix(.71886119,0,0,.71886119,.35943059,.35943059)" stroke-width="1" stroke-linecap="butt" stroke-miterlimit="10" stroke-linejoin="miter" fill="none" stroke="#0000ff" d="M375.92 200.11 474.73 182.14"/>
<path transform="matrix(.71886119,0,0,.71886119,.35943059,.35943059)" d="M479.9 181.2 473.64 185.9 474.73 182.14 472.39 179.01 479.9 181.2Z" fill="#0000ff"/>
<path transform="matrix(.71886119,0,0,.71886119,.35943059,.35943059)" stroke-width="1" stroke-linecap="butt" stroke-miterlimit="10" stroke-linejoin="miter" fill="none" stroke="#0000ff" d="M479.9 181.2 473.64 185.9 474.73 182.14 472.39 179.01 479.9 181.2Z"/>
<path transform="matrix(.71886119,0,0,.71886119,.35943059,.35943059)" d="M376 201C375.99998 201.66304 375.87309 202.30084 375.61936 202.9134 375.3656 203.52597 375.00434 204.06668 374.5355 204.53553 374.06666 205.00435 373.52598 205.36563 372.9134 205.61937 372.3008 205.87311 371.66304 205.99999 371 206 370.33695 205.99999 369.69914 205.87311 369.08656 205.61937 368.47398 205.36563 367.93327 205.00435 367.46446 204.53553 366.9956 204.06668 366.6343 203.52597 366.38056 202.9134 366.12684 202.30084 365.99998 201.66304 366 201 365.99998 200.33696 366.12684 199.69915 366.38056 199.08658 366.6343 198.47399 366.9956 197.93328 367.46446 197.46445 367.93327 196.9956 368.47398 196.63433 369.08656 196.38059 369.69914 196.12686 370.33695 196 371 196 371.66304 196 372.3008 196.12686 372.9134 196.38059 373.52598 196.63433 374.06666 196.9956 374.5355 197.46445 375.00434 197.93328 375.3656 198.47399 375.61936 199.08657 375.87309 199.69915 375.99998 200.33696 376 201Z"/>
<path transform="matrix(.71886119,0,0,.71886119,.35943059,.35943059)" stroke-width="1" stroke-linecap="butt" stroke-miterlimit="10" stroke-linejoin="miter" fill="none" stroke="#0000ff" d="M375.41 158.64 475.41 104.05"/>
<path transform="matrix(.71886119,0,0,.71886119,.35943059,.35943059)" d="M480.02 101.54 475.55 107.96 475.41 104.05 472.2 101.82 480.02 101.54Z" fill="#0000ff"/>
<path transform="matrix(.71886119,0,0,.71886119,.35943059,.35943059)" stroke-width="1" stroke-linecap="butt" stroke-miterlimit="10" stroke-linejoin="miter" fill="none" stroke="#0000ff" d="M480.02 101.54 475.55 107.96 475.41 104.05 472.2 101.82 480.02 101.54Z"/>
<path transform="matrix(.71886119,0,0,.71886119,.35943059,.35943059)" d="M376 161C375.99998 161.66304 375.87309 162.30084 375.61936 162.9134 375.3656 163.52597 375.00434 164.06667 374.5355 164.53553 374.06666 165.00437 373.52598 165.36565 372.9134 165.61939 372.3008 165.87313 371.66304 165.99999 371 166 370.33695 165.99999 369.69914 165.87313 369.08656 165.61939 368.47398 165.36565 367.93327 165.00437 367.46446 164.53553 366.9956 164.06667 366.6343 163.52597 366.38056 162.9134 366.12684 162.30084 365.99998 161.66304 366 161 365.99998 160.33695 366.12684 159.69913 366.38056 159.08657 366.6343 158.474 366.9956 157.93329 367.46446 157.46446 367.93327 156.9956 368.47398 156.63433 369.08656 156.3806 369.69914 156.12686 370.33695 156 371 156 371.66304 156 372.3008 156.12686 372.9134 156.3806 373.52598 156.63433 374.06666 156.9956 374.5355 157.46446 375.00434 157.93329 375.3656 158.474 375.61936 159.08657 375.87309 159.69913 375.99998 160.33695 376 161Z"/>
<path transform="matrix(.71886119,0,0,.71886119,.35943059,.35943059)" d="M481 161H601V201H481Z" fill="#ffffff"/>
<path transform="matrix(.71886119,0,0,.71886119,.35943059,.35943059)" stroke-width="1" stroke-linecap="butt" stroke-miterlimit="4" stroke-linejoin="miter" fill="none" stroke="#000000" d="M481 161H601V201H481Z"/>
<path transform="matrix(.71886119,0,0,.71886119,.35943059,.35943059)" d="M601 161H721V201H601Z" fill="#ffffff"/>
<path transform="matrix(.71886119,0,0,.71886119,.35943059,.35943059)" stroke-width="1" stroke-linecap="butt" stroke-miterlimit="4" stroke-linejoin="miter" fill="none" stroke="#000000" d="M601 161H721V201H601Z"/>
<path transform="matrix(.71886119,0,0,.71886119,.35943059,.35943059)" d="M721 161H841V201H721Z" fill="#ffffff"/>
<path transform="matrix(.71886119,0,0,.71886119,.35943059,.35943059)" stroke-width="1" stroke-linecap="butt" stroke-miterlimit="4" stroke-linejoin="miter" fill="none" stroke="#000000" d="M721 161H841V201H721Z"/>
<path transform="matrix(.71886119,0,0,.71886119,.35943059,.35943059)" d="M481 81H601V121H481Z" fill="#ffffff"/>
<path transform="matrix(.71886119,0,0,.71886119,.35943059,.35943059)" stroke-width="1" stroke-linecap="butt" stroke-miterlimit="4" stroke-linejoin="miter" fill="none" stroke="#000000" d="M481 81H601V121H481Z"/>
<path transform="matrix(.71886119,0,0,.71886119,.35943059,.35943059)" d="M601 81H721V121H601Z" fill="#ffffff"/>
<path transform="matrix(.71886119,0,0,.71886119,.35943059,.35943059)" stroke-width="1" stroke-linecap="butt" stroke-miterlimit="4" stroke-linejoin="miter" fill="none" stroke="#000000" d="M601 81H721V121H601Z"/>
<path transform="matrix(.71886119,0,0,.71886119,.35943059,.35943059)" d="M721 81H841V121H721Z" fill="#ffffff"/>
<path transform="matrix(.71886119,0,0,.71886119,.35943059,.35943059)" stroke-width="1" stroke-linecap="butt" stroke-miterlimit="4" stroke-linejoin="miter" fill="none" stroke="#000000" d="M721 81H841V121H721Z"/>
<path transform="matrix(.71886119,0,0,.71886119,.35943059,.35943059)" d="M1 281H121V321H1Z" fill="#ffffff"/>
<path transform="matrix(.71886119,0,0,.71886119,.35943059,.35943059)" stroke-width="1" stroke-linecap="butt" stroke-miterlimit="4" stroke-linejoin="miter" fill="none" stroke="#000000" d="M1 281H121V321H1Z"/>
<path transform="matrix(.71886119,0,0,.71886119,.35943059,.35943059)" d="M121 281H141V321H121Z" fill="#d5e8d4"/>
<path transform="matrix(.71886119,0,0,.71886119,.35943059,.35943059)" stroke-width="1" stroke-linecap="butt" stroke-miterlimit="4" stroke-linejoin="miter" fill="none" stroke="#82b366" d="M121 281H141V321H121Z"/>
<path transform="matrix(.71886119,0,0,.71886119,.35943059,.35943059)" d="M1 321H121V361H1Z" fill="#ffffff"/>
<path transform="matrix(.71886119,0,0,.71886119,.35943059,.35943059)" stroke-width="1" stroke-linecap="butt" stroke-miterlimit="4" stroke-linejoin="miter" fill="none" stroke="#000000" d="M1 321H121V361H1Z"/>
<path transform="matrix(.71886119,0,0,.71886119,.35943059,.35943059)" d="M121 321H141V361H121Z" fill="#d5e8d4"/>
<path transform="matrix(.71886119,0,0,.71886119,.35943059,.35943059)" stroke-width="1" stroke-linecap="butt" stroke-miterlimit="4" stroke-linejoin="miter" fill="none" stroke="#82b366" d="M121 321H141V361H121Z"/>
<path transform="matrix(.71886119,0,0,.71886119,.35943059,.35943059)" stroke-width="1" stroke-linecap="butt" stroke-miterlimit="10" stroke-linejoin="miter" fill="none" stroke="#0000ff" d="M135.04 343.94 235.85 417.25"/>
<path transform="matrix(.71886119,0,0,.71886119,.35943059,.35943059)" d="M240.1 420.34 232.38 419.06 235.85 417.25 236.49 413.39 240.1 420.34Z" fill="#0000ff"/>
<path transform="matrix(.71886119,0,0,.71886119,.35943059,.35943059)" stroke-width="1" stroke-linecap="butt" stroke-miterlimit="10" stroke-linejoin="miter" fill="none" stroke="#0000ff" d="M240.1 420.34 232.38 419.06 235.85 417.25 236.49 413.39 240.1 420.34Z"/>
<path transform="matrix(.71886119,0,0,.71886119,.35943059,.35943059)" d="M136 341C135.99999 341.663 135.87313 342.30079 135.61939 342.91337 135.36565 343.52595 135.00435 344.06666 134.53553 344.5355 134.06668 345.0043 133.52597 345.3656 132.9134 345.61936 132.30084 345.8731 131.66304 345.99998 131 346 130.33696 345.99998 129.69915 345.8731 129.08658 345.61936 128.474 345.3656 127.9333 345.0043 127.46446 344.5355 126.99561 344.06666 126.63432 343.52595 126.38059 342.91337 126.126857 342.30079 125.99999 341.663 126 341 125.99999 340.33695 126.126857 339.69914 126.38059 339.08659 126.63432 338.474 126.99561 337.9333 127.46446 337.46446 127.9333 336.99559 128.474 336.63429 129.08657 336.38059 129.69915 336.12687 130.33696 336 131 336 131.66304 336 132.30084 336.12687 132.9134 336.38059 133.52597 336.63429 134.06668 336.99559 134.53553 337.46446 135.00435 337.9333 135.36565 338.474 135.61939 339.08659 135.87313 339.69914 135.99999 340.33695 136 341Z"/>
<path transform="matrix(.71886119,0,0,.71886119,.35943059,.35943059)" stroke-width="1" stroke-linecap="butt" stroke-miterlimit="10" stroke-linejoin="miter" fill="none" stroke="#0000ff" d="M136 301H234.63"/>
<path transform="matrix(.71886119,0,0,.71886119,.35943059,.35943059)" d="M239.88 301 232.88 304.5 234.63 301 232.88 297.5 239.88 301Z" fill="#0000ff"/>
<path transform="matrix(.71886119,0,0,.71886119,.35943059,.35943059)" stroke-width="1" stroke-linecap="butt" stroke-miterlimit="10" stroke-linejoin="miter" fill="none" stroke="#0000ff" d="M239.88 301 232.88 304.5 234.63 301 232.88 297.5 239.88 301Z"/>
<path transform="matrix(.71886119,0,0,.71886119,.35943059,.35943059)" d="M136 301C135.99999 301.663 135.87313 302.30079 135.61939 302.91337 135.36565 303.52595 135.00435 304.06666 134.53553 304.5355 134.06668 305.00434 133.52597 305.3656 132.9134 305.61936 132.30084 305.8731 131.66304 305.99998 131 306 130.33696 305.99998 129.69915 305.8731 129.08658 305.61936 128.474 305.3656 127.9333 305.00434 127.46446 304.5355 126.99561 304.06666 126.63432 303.52595 126.38059 302.91337 126.126857 302.30079 125.99999 301.663 126 301 125.99999 300.33695 126.126857 299.6991 126.38059 299.08653 126.63432 298.47395 126.99561 297.93327 127.46446 297.46446 127.9333 296.9956 128.474 296.6343 129.08657 296.38059 129.69915 296.12687 130.33696 296 131 296 131.66304 296 132.30084 296.12687 132.9134 296.38059 133.52597 296.6343 134.06668 296.9956 134.53553 297.46446 135.00435 297.93327 135.36565 298.47395 135.61939 299.08653 135.87313 299.6991 135.99999 300.33695 136 301Z"/>
<path transform="matrix(.71886119,0,0,.71886119,.35943059,.35943059)" d="M1 241H121V281H1Z" fill="#ffffff"/>
<path transform="matrix(.71886119,0,0,.71886119,.35943059,.35943059)" stroke-width="1" stroke-linecap="butt" stroke-miterlimit="4" stroke-linejoin="miter" fill="none" stroke="#000000" d="M1 241H121V281H1Z"/>
<path transform="matrix(.71886119,0,0,.71886119,.35943059,.35943059)" d="M121 241H141V281H121Z" fill="#d5e8d4"/>
<path transform="matrix(.71886119,0,0,.71886119,.35943059,.35943059)" stroke-width="1" stroke-linecap="butt" stroke-miterlimit="4" stroke-linejoin="miter" fill="none" stroke="#82b366" d="M121 241H141V281H121Z"/>
<path transform="matrix(.71886119,0,0,.71886119,.35943059,.35943059)" stroke-width="1" stroke-linecap="butt" stroke-miterlimit="10" stroke-linejoin="miter" fill="none" stroke="#0000ff" d="M135.04 258.06 235.85 184.75"/>
<path transform="matrix(.71886119,0,0,.71886119,.35943059,.35943059)" d="M240.1 181.66 236.49 188.61 235.85 184.75 232.38 182.94 240.1 181.66Z" fill="#0000ff"/>
<path transform="matrix(.71886119,0,0,.71886119,.35943059,.35943059)" stroke-width="1" stroke-linecap="butt" stroke-miterlimit="10" stroke-linejoin="miter" fill="none" stroke="#0000ff" d="M240.1 181.66 236.49 188.61 235.85 184.75 232.38 182.94 240.1 181.66Z"/>
<path transform="matrix(.71886119,0,0,.71886119,.35943059,.35943059)" d="M136 261C135.99999 261.66304 135.87313 262.3008 135.61939 262.9134 135.36565 263.52598 135.00435 264.06669 134.53553 264.53553 134.06668 265.00437 133.52597 265.36564 132.9134 265.6194 132.30084 265.8731 131.66304 265.99998 131 266 130.33696 265.99998 129.69915 265.8731 129.08658 265.6194 128.474 265.36564 127.9333 265.00437 127.46446 264.53553 126.99561 264.06669 126.63432 263.52598 126.38059 262.9134 126.126857 262.3008 125.99999 261.66304 126 261 125.99999 260.33695 126.126857 259.69914 126.38059 259.08656 126.63432 258.47398 126.99561 257.9333 127.46446 257.46446 127.9333 256.9956 128.474 256.6343 129.08657 256.38059 129.69915 256.12687 130.33696 256 131 256 131.66304 256 132.30084 256.12687 132.9134 256.38059 133.52597 256.6343 134.06668 256.9956 134.53553 257.46446 135.00435 257.9333 135.36565 258.47398 135.61939 259.08656 135.87313 259.69914 135.99999 260.33695 136 261Z"/>
<use data-text="I" xlink:href="#font_3_44" transform="matrix(11.501779,0,0,-11.501779,115.09641,69.72953)"/>
<use data-text="n" xlink:href="#font_3_81" transform="matrix(11.501779,0,0,-11.501779,118.29391,69.72953)"/>
<use data-text="d" xlink:href="#font_3_71" transform="matrix(11.501779,0,0,-11.501779,125.321498,69.72953)"/>
<use data-text="e" xlink:href="#font_3_72" transform="matrix(11.501779,0,0,-11.501779,132.34908,69.72953)"/>
<use data-text="x" xlink:href="#font_3_91" transform="matrix(11.501779,0,0,-11.501779,138.74407,69.72953)"/>
<use data-text="D" xlink:href="#font_3_39" transform="matrix(11.501779,0,0,-11.501779,462.6995,12.22064)"/>
<use data-text="a" xlink:href="#font_3_68" transform="matrix(11.501779,0,0,-11.501779,471.00376,12.22064)"/>
<use data-text="t" xlink:href="#font_3_87" transform="matrix(11.501779,0,0,-11.501779,477.39875,12.22064)"/>
<use data-text="a" xlink:href="#font_3_68" transform="matrix(11.501779,0,0,-11.501779,481.22886,12.22064)"/>
</g>
</svg>
