<svg xmlns="http://www.w3.org/2000/svg" xmlns:xlink="http://www.w3.org/1999/xlink" xmlns:inkscape="http://www.inkscape.org/namespaces/inkscape" version="1.1" width="432.96" height="289.91999" viewBox="0 0 432.96 289.91999">
<defs>
<clipPath id="clip_1">
<path transform="matrix(.24,0,0,.24,0,0)" d="M0 0H1804.1666V1205.7697H0Z" clip-rule="evenodd"/>
</clipPath>
<clipPath id="clip_2">
<path transform="matrix(.24,0,0,.24,0,0)" d="M0 0H1804.1666V1202.7777H0Z" clip-rule="evenodd"/>
</clipPath>
<path id="font_3_36" d="M-.0014648438 0 .2734375 .7158203H.37548829L.66845706 0H.5605469L.47705079 .21582031H.17773438L.099121097 0H-.0014648438M.20507813 .2939453H.4477539L.37304688 .4921875C.3502604 .5524089 .33333335 .601888 .32226563 .640625 .31315104 .59472659 .30029298 .5491536 .2836914 .50390627L.20507813 .2939453Z"/>
<path id="font_3_88" d="M.40576173 0V.076171878C.36539714 .017578125 .31054688-.01171875 .24121094-.01171875 .21061199-.01171875 .18204753-.005859375 .15551758 .005859375 .12898763 .017578125 .10929362 .03230794 .09643555 .050048829 .08357748 .06778971 .07454427 .08951823 .06933594 .115234378 .06575521 .13248699 .063964847 .15983074 .063964847 .19726563V.5185547H.15185547V.23095703C.15185547 .1850586 .15364583 .15413411 .15722656 .1381836 .16276042 .11507162 .17447917 .09692383 .19238281 .083740238 .21028646 .07055664 .23242188 .063964847 .25878907 .063964847 .28515626 .063964847 .30989585 .0707194 .3330078 .084228519 .35611979 .09773763 .3724772 .116129558 .38208009 .1394043 .39168296 .16267903 .39648438 .19645183 .39648438 .24072266V.5185547H.484375V0H.40576173Z"/>
<path id="font_3_86" d="M.030761719 .15527344 .11767578 .16894531C.122558597 .13426717 .1361491 .107691448 .15844727 .08921814 .18074544 .070755008 .21191406 .061523439 .25195313 .061523439 .29231773 .061523439 .32226563 .06967672 .34179688 .08598328 .36132813 .10230001 .37109376 .12143453 .37109376 .14338684 .37109376 .16309102 .36246745 .17859395 .34521485 .18989563 .33317057 .1976471 .30322267 .20749919 .2553711 .2194519 .19091797 .23573812 .14624024 .24982707 .12133789 .26171876 .09643555 .27361045 .077555339 .29006449 .064697269 .31108094 .05183919 .33209739 .045410158 .35531108 .045410158 .38072206 .045410158 .40385438 .05069987 .4252777 .061279298 .44499208 .07185873 .46470643 .08626302 .4810791 .10449219 .4941101 .11816406 .5042114 .13680013 .5127614 .16040039 .51976016 .18400066 .526769 .20930989 .53027346 .23632813 .53027346 .27701823 .53027346 .31274415 .52437338 .34350587 .51257327 .37426759 .50078329 .39697267 .48480735 .4116211 .4646454 .42626954 .44449363 .4363607 .4175415 .44189454 .38378907L.35595704 .3720703C.35205079 .39876304 .34073893 .41959635 .32202149 .4345703 .30330406 .44954429 .27685548 .45703126 .24267578 .45703126 .2023112 .45703126 .17350261 .45038859 .15625 .43710328 .13899739 .42382813 .1303711 .40827943 .1303711 .39045716 .1303711 .37912498 .13395183 .3689219 .14111328 .35984803 .14827474 .35045878 .1595052 .34268699 .17480469 .3365326 .18359375 .33328758 .20947266 .32583619 .2524414 .31417848 .31461589 .29758708 .35799156 .28400675 .38256837 .2734375 .40714518 .26286827 .42643229 .24749756 .4404297 .22732544 .4544271 .2071635 .46142579 .18212383 .46142579 .15220642 .46142579 .12292989 .45288087 .09536234 .43579103 .069503787 .41870118 .043655397 .39404298 .02365621 .3618164 .009506226 .32958985-.0046437585 .2931315-.01171875 .2524414-.01171875 .1850586-.01171875 .13370769 .002319336 .09838867 .030395508 .063069667 .05847168 .040527345 .100097659 .030761719 .15527344Z"/>
<path id="font_3_87" d="M.2578125 .07763672 .2705078 0C.24576824-.0045572917 .22363281-.0068359377 .20410156-.0068359377 .17220052-.0068359377 .14746094-.0017903646 .12988281 .008300781 .11230469 .018391928 .0999349 .031656904 .09277344 .048095704 .08561198 .06453451 .08203125 .099121097 .08203125 .15185547V.4501953H.017578125V.5185547H.08203125V.6473236L.1694336 .7001953V.5185547H.2578125V.4501953H.1694336V.14697266C.1694336 .121907558 .17097982 .10579427 .17407227 .09863281 .17716472 .09147135 .18221028 .08577474 .18920899 .08154297 .19620769 .077311199 .20621746 .07519531 .21923828 .07519531 .2290039 .07519531 .24186199 .07600912 .2578125 .07763672Z"/>
<path id="font_3_85" d="M.064941409 0V.5185547H.14404297V.4404297C.16422527 .4770101 .18286133 .50112918 .19995117 .51278689 .21704102 .5244446 .23583985 .53027346 .25634767 .53027346 .28597007 .53027346 .31608073 .520874 .3466797 .5020752L.31640626 .42089845C.29492188 .43359376 .2734375 .4399414 .25195313 .4399414 .23274739 .4399414 .2154948 .43415324 .20019531 .4225769 .18489583 .41101075 .17399089 .3949636 .16748047 .37443543 .15771485 .3431549 .15283203 .3089396 .15283203 .27178956V0H.064941409Z"/>
<path id="font_3_68" d="M.40429688 .06402588C.37174479 .03633626 .34041343 .016789755 .31030274 .0053863527 .28019206-.0060170495 .24788411-.01171875 .2133789-.01171875 .15641277-.01171875 .11263021 .0022074383 .08203125 .030059815 .051432294 .05791219 .036132814 .09350077 .036132814 .13682556 .036132814 .16222637 .04191081 .18542989 .053466798 .20643616 .06502279 .22745259 .08015951 .24431356 .09887695 .25701905 .1175944 .26972453 .13867188 .2793325 .16210938 .2858429 .17936199 .29041038 .20540364 .29480998 .24023438 .29904176 .3111979 .30744425 .363444 .3174642 .39697267 .32910157 .3972982 .34109498 .39746095 .3487142 .39746095 .35195924 .39746095 .38763429 .38916017 .4127655 .3725586 .4273529 .35009767 .44713847 .31673179 .45703126 .27246095 .45703126 .2311198 .45703126 .20060222 .44978843 .1809082 .43530274 .16121419 .42081706 .14664714 .39518229 .13720703 .35839845L.05126953 .3701172C.05908203 .40701295 .0719401 .43680827 .08984375 .45950318 .1077474 .4821981 .1336263 .4996643 .16748047 .51190188 .20133464 .5241496 .24055989 .53027346 .28515626 .53027346 .3294271 .53027346 .36539714 .5250651 .3930664 .51464846 .4207357 .50423178 .44108073 .49112956 .45410157 .4753418 .4671224 .45955406 .47623698 .43961589 .4814453 .41552735 .484375 .40055339 .48583985 .37353517 .48583985 .33447267V.21728516C.48583985 .13557942 .48771159 .08390299 .49145509 .06225586 .49519859 .040608724 .5026042 .019856772 .5136719 0H.421875C.4127604 .018249512 .40690104 .039591474 .40429688 .06402588M.39697267 .2607422C.36507163 .24760945 .31722007 .2364502 .25341798 .2272644 .21728516 .22203572 .19173177 .21615093 .17675781 .20960999 .16178386 .20307923 .15022786 .19351705 .14208985 .18092346 .13395183 .16834004 .12988281 .15436809 .12988281 .13900757 .12988281 .115478519 .13875325 .09586588 .15649414 .08016968 .17423503 .06448364 .20019531 .056640626 .234375 .056640626 .26822917 .056640626 .29833985 .064081829 .32470704 .07896423 .35107423 .09384664 .37044273 .11420695 .3828125 .14004517 .3922526 .16000366 .39697267 .18944295 .39697267 .22836304V.2607422Z"/>
<path id="font_3_79" d="M.063964847 0V.7158203H.15185547V0H.063964847Z"/>
<path id="font_3_76" d="M.06640625 .6142578V.7158203H.15429688V.6142578H.06640625M.06640625 0V.5185547H.15429688V0H.06640625Z"/>
<path id="font_3_38" d="M.5878906 .25195313 .6826172 .22802735C.66276046 .15006511 .6270345 .09061686 .57543948 .049682619 .5238444 .008748372 .46077476-.01171875 .38623048-.01171875 .30908204-.01171875 .24633789 .0039876305 .19799805 .03540039 .1496582 .06681315 .11287435 .11230469 .087646488 .171875 .06241862 .23144531 .049804689 .29541017 .049804689 .36376954 .049804689 .4383138 .06404623 .5033366 .0925293 .5588379 .12101237 .6143392 .16153972 .65649417 .21411133 .68530276 .26668296 .7141113 .32454429 .7285156 .3876953 .7285156 .4593099 .7285156 .51953127 .71028646 .5683594 .6738281 .6171875 .6373698 .6512044 .5861003 .67041018 .52001956L.57714846 .49804688C.5605469 .55030319 .5364583 .5883484 .5048828 .6121826 .47330729 .63602706 .43359376 .6479492 .3857422 .6479492 .33072917 .6479492 .28474937 .6347402 .24780274 .60832217 .21085613 .58191427 .18489583 .5464528 .16992188 .50193789 .15494792 .45743308 .14746094 .4115448 .14746094 .36427308 .14746094 .30329896 .15633138 .25006614 .17407227 .20457459 .19181316 .15908306 .21940105 .12508647 .25683595 .10258484 .29427085 .080093387 .3347982 .068847659 .37841798 .068847659 .43147788 .068847659 .47639976 .084228519 .5131836 .114990238 .54996749 .14575196 .5748698 .19140625 .5878906 .25195313Z"/>
<path id="font_3_75" d="M.06591797 0V.7158203H.1538086V.45898438C.19482422 .50651046 .24658203 .53027346 .30908204 .53027346 .3474935 .53027346 .38085938 .5227051 .4091797 .50756838 .4375 .49243165 .45776368 .47151695 .4699707 .44482423 .48217774 .4181315 .48828126 .37939454 .48828126 .32861329V0H.40039063V.32861329C.40039063 .3725586 .39086915 .40454103 .37182618 .42456056 .3527832 .44458009 .32584635 .45458985 .29101563 .45458985 .26497398 .45458985 .24047852 .4478353 .2175293 .43432618 .19458008 .42081706 .17822266 .4025065 .16845703 .37939454 .1586914 .35628257 .1538086 .3243815 .1538086 .2836914V0H.06591797Z"/>
<path id="font_3_81" d="M.06591797 0V.5185547H.14501953V.4453125C.18310547 .5019531 .23811849 .53027346 .3100586 .53027346 .3413086 .53027346 .3700358 .5246582 .39624024 .51342776 .42244468 .50219729 .44205729 .48746745 .45507813 .46923829 .46809898 .45100913 .47721354 .42936198 .48242188 .40429688 .4856771 .38802085 .4873047 .35953776 .4873047 .31884767V0H.39941407V.31576539C.39941407 .35161338 .3959961 .37841798 .38916017 .3961792 .38232423 .41394044 .37019859 .42811585 .3527832 .43870545 .33536784 .44929505 .3149414 .45458985 .2915039 .45458985 .254069 .45458985 .22176107 .44269309 .19458008 .41889955 .1673991 .39511619 .1538086 .34998576 .1538086 .2835083V0H.06591797Z"/>
<path id="font_3_53" d="M.07861328 0V.7158203H.3959961C.4597982 .7158203 .5083008 .70939639 .5415039 .69654849 .57470706 .68371078 .601237 .6610362 .62109377 .6285248 .6409505 .59601339 .6508789 .5600891 .6508789 .52075198 .6508789 .47003175 .6344401 .4272766 .6015625 .39248658 .5686849 .3577067 .5179036 .3356018 .44921876 .32617188 .47428385 .31410728 .4933268 .3022054 .50634768 .2904663 .5340169 .26504518 .5602214 .23326111 .58496096 .19511414L.70947268 0H.59033206L.49560548 .14915467C.4679362 .19218445 .44514976 .22510784 .4272461 .2479248 .40934245 .27075196 .39331056 .2867279 .3791504 .29585267 .36499024 .30498759 .35058595 .3113505 .3359375 .3149414 .3251953 .31722007 .3076172 .31835938 .28320313 .31835938H.17333985V0H.07861328M.17333985 .40039063H.37695313C.4202474 .40039063 .45410157 .40485636 .47851563 .41378785 .5029297 .42271934 .5214844 .43701173 .5341797 .45666505 .546875 .47631837 .55322268 .49768067 .55322268 .52075198 .55322268 .5545349 .54093429 .5823059 .5163574 .60406497 .4917806 .62583419 .45296226 .63671877 .39990235 .63671877H.17333985V.40039063Z"/>
<path id="font_3_56" d="M.546875 .7158203H.64160159V.30252076C.64160159 .23063152 .63346359 .17354329 .6171875 .1312561 .60091146 .08896891 .5715332 .05456543 .52905276 .028045655 .48657228 .0015360514 .4308268-.01171875 .3618164-.01171875 .29475913-.01171875 .23990886-.00017293294 .19726563 .022918702 .15462239 .046020509 .124186199 .079447429 .10595703 .12319946 .08772787 .16695149 .07861328 .22672527 .07861328 .30252076V.7158203H.17333985V.3030548C.17333985 .24092102 .17911785 .19513448 .19067383 .16569519 .20222982 .13626607 .2220866 .11358134 .25024415 .09764099 .2784017 .081700649 .31282554 .07373047 .35351563 .07373047 .4231771 .07373047 .472819 .08950297 .5024414 .12104797 .5320638 .15260315 .546875 .2132721 .546875 .3030548V.7158203Z"/>
<path id="font_3_54" d="M.044921876 .23046875 .13427735 .23828125C.13850911 .20247396 .14835613 .1730957 .16381836 .15014649 .1792806 .12719727 .20328777 .10864258 .23583985 .09448242 .26839195 .080322269 .30501304 .07324219 .34570313 .07324219 .38183595 .07324219 .41373698 .07861328 .44140626 .08935547 .46907554 .100097659 .4896647 .11482748 .5031738 .13354492 .5166829 .15226238 .5234375 .1726888 .5234375 .19482422 .5234375 .21728516 .51692709 .23689778 .50390627 .2536621 .4908854 .27042643 .46940104 .28450523 .43945313 .29589845 .4202474 .3033854 .37776695 .3150228 .31201173 .33081056 .24625652 .3465983 .20019531 .36149089 .17382813 .37548829 .13964844 .39339195 .11417643 .41560874 .09741211 .44213868 .08064779 .4686686 .072265628 .4983724 .072265628 .53125 .072265628 .5673828 .08251953 .6011556 .103027347 .63256838 .123535159 .66398116 .15348308 .6878255 .1928711 .70410159 .23225911 .7203776 .27604167 .7285156 .32421876 .7285156 .37727867 .7285156 .42407228 .7199707 .4645996 .70288088 .50512698 .685791 .5362956 .66064456 .55810549 .6274414 .57991537 .5942383 .5916341 .5566406 .5932617 .51464846L.5024414 .5078125C.4975586 .55322268 .48103843 .5875244 .45288087 .6107178 .4247233 .63391116 .38313804 .6455078 .328125 .6455078 .27083335 .6455078 .22908528 .6349996 .20288086 .61398318 .17667644 .59297689 .16357422 .5676524 .16357422 .53800967 .16357422 .51227316 .17285156 .49109904 .19140625 .4744873 .20963542 .4578654 .25724284 .44084168 .33422853 .42341615 .4112142 .4059906 .46402995 .39076234 .49267579 .37773133 .53434249 .3585154 .5651042 .33416239 .58496096 .30467225 .6048177 .27519227 .6147461 .24123128 .6147461 .2027893 .6147461 .16468303 .6038411 .12876892 .58203127 .095047 .5602214 .061335248 .52888998 .035110475 .4880371 .01637268 .44718424-.0023549398 .40120445-.01171875 .35009767-.01171875 .285319-.01171875 .2310384-.0022786458 .18725586 .016601563 .14347331 .03548177 .10913086 .06388346 .084228519 .10180664 .059326173 .13972982 .046223958 .18261719 .044921876 .23046875Z"/>
<path id="font_3_37" d="M.07324219 0V.7158203H.34179688C.39648438 .7158203 .4403483 .70857748 .47338868 .6940918 .506429 .67960616 .5323079 .6573079 .5510254 .62719729 .56974288 .5970866 .57910159 .56559249 .57910159 .53271487 .57910159 .5021159 .5708008 .47330729 .5541992 .44628907 .53759768 .41927085 .51253256 .39746095 .4790039 .38085938 .52229818 .36816407 .5555827 .34651695 .5788574 .31591798 .60213217 .285319 .61376956 .2491862 .61376956 .20751953 .61376956 .17399089 .60668948 .14282227 .5925293 .11401367 .57836917 .08520508 .5608724 .06298828 .54003909 .04736328 .51920577 .03173828 .49308268 .01993815 .46166993 .011962891 .43025718 .0039876305 .3917643 0 .3461914 0H.07324219M.16796875 .41503907H.3227539C.3647461 .41503907 .39485679 .417806 .41308595 .42333985 .43717448 .4305013 .45532228 .4423828 .4675293 .45898438 .47973634 .47558595 .48583985 .49641929 .48583985 .5214844 .48583985 .5452474 .48014323 .5661621 .46875 .5842285 .45735679 .6022949 .44108073 .61466476 .41992188 .6213379 .39876304 .62801107 .36246745 .63134768 .31103517 .63134768H.16796875V.41503907M.16796875 .084472659H.3461914C.37679038 .084472659 .39827476 .08561198 .41064454 .087890628 .43245445 .091796878 .4506836 .09830729 .46533204 .107421878 .47998048 .11653646 .49202476 .12980144 .50146487 .1472168 .51090499 .16463216 .515625 .18473308 .515625 .20751953 .515625 .23421224 .50878909 .2574056 .4951172 .2770996 .4814453 .2967936 .46248374 .31062828 .43823243 .31860353 .4139811 .32657878 .379069 .3305664 .3334961 .3305664H.16796875V.084472659Z"/>
<path id="font_3_72" d="M.42089845 .16699219 .51171877 .15576172C.49739585 .10270182 .47086589 .061523439 .4321289 .032226564 .39339195 .0029296876 .34391276-.01171875 .2836914-.01171875 .20784505-.01171875 .14770508 .01163737 .103271488 .05834961 .05883789 .10506185 .036621095 .17057292 .036621095 .2548828 .036621095 .3421224 .05908203 .40983073 .104003909 .4580078 .14892578 .5061849 .20719402 .53027346 .2788086 .53027346 .34814454 .53027346 .40478517 .5067088 .44873048 .45957948 .49267579 .41246034 .51464846 .34616599 .51464846 .2606964 .51464846 .25549827 .51448568 .247701 .51416018 .23730469H.1274414C.13069661 .1805013 .14680989 .13700359 .17578125 .10681152 .20475261 .07661947 .24088542 .061523439 .2841797 .061523439 .31640626 .061523439 .34391276 .0699056 .36669923 .08666992 .3894857 .10344442 .4075521 .1302185 .42089845 .16699219M.13232422 .31054688H.421875C.41796876 .3534546 .40690104 .38563539 .38867188 .40708924 .3606771 .4403839 .3243815 .45703126 .27978517 .45703126 .23942058 .45703126 .20548503 .44374085 .17797852 .41716004 .150472 .3905894 .1352539 .35505168 .13232422 .31054688Z"/>
<path id="font_3_77" d="M.06542969 .61328127V.7158203H.15332031V.61328127H.06542969M-.045898439-.20166016-.029296875-.12695313C-.01171875-.13151042 .0021158856-.13378906 .012207031-.13378906 .030110678-.13378906 .04345703-.12784322 .052246095-.11595154 .061035158-.10405985 .06542969-.07433573 .06542969-.026779175V.5185547H.15332031V-.028686524C.15332031-.0925293 .14501953-.13699341 .12841797-.16207886 .10725912-.19465129 .07210287-.2109375 .022949219-.2109375-.00081380209-.2109375-.023763022-.20784505-.045898439-.20166016Z"/>
<path id="font_3_74" d="M.049804689-.04296875 .1352539-.055664064C.13883464-.08203125 .14876302-.10123698 .16503906-.11328125 .18684896-.1295573 .21663411-.13769531 .25439454-.13769531 .29508464-.13769531 .3264974-.12953694 .3486328-.113220218 .37076823-.09691366 .3857422-.07407633 .3935547-.044708253 .39811198-.026774088 .40022788 .010904948 .39990235 .06832886 .36149089 .022776286 .3136393 0 .25634767 0 .1850586 0 .12988281 .025716147 .09082031 .07714844 .051757814 .12858074 .032226564 .19026692 .032226564 .26220704 .032226564 .3116862 .041178388 .35734049 .05908203 .39916993 .07698568 .44099937 .10294596 .47330729 .13696289 .49609376 .17097982 .5188802 .2109375 .53027346 .25683595 .53027346 .31803385 .53027346 .3684896 .5053711 .40820313 .4555664V.5185547H.4892578V.070007327C.4892578-.010772705 .48103843-.06801859 .4645996-.10173035 .4481608-.1354421 .42211915-.16206868 .3864746-.1816101 .35083009-.2011617 .30696617-.2109375 .2548828-.2109375 .19303386-.2109375 .1430664-.19698079 .10498047-.16906739 .06689453-.14115398 .048502607-.099121097 .049804689-.04296875M.122558597 .26853944C.122558597 .20067851 .1360677 .15116374 .16308594 .11999512 .19010417 .0888265 .22395833 .07324219 .26464845 .07324219 .30501304 .07324219 .3388672 .08874512 .36621095 .11975098 .3935547 .15075684 .40722657 .19938152 .40722657 .265625 .40722657 .3289388 .3931478 .3766683 .36499024 .40881349 .33683268 .44095866 .30289714 .45703126 .2631836 .45703126 .2241211 .45703126 .19091797 .4412028 .16357422 .4095459 .13623047 .377889 .122558597 .33088685 .122558597 .26853944Z"/>
<path id="font_3_22" d="M.041992189 .19042969 .12988281 .20214844C.13997396 .15234375 .15714519 .11645508 .18139649 .09448242 .20564778 .072509769 .2351888 .061523439 .27001954 .061523439 .3113607 .061523439 .3462728 .07582092 .37475587 .10441589 .40323893 .13301087 .41748048 .1684316 .41748048 .2106781 .41748048 .25098167 .40429688 .2842102 .3779297 .31036378 .3515625 .3365275 .31803385 .34960938 .27734376 .34960938 .2607422 .34960938 .24007161 .34635417 .21533203 .33984376L.22509766 .4169922C.23095703 .41634117 .23567708 .41601563 .23925781 .41601563 .27669273 .41601563 .31038413 .42569987 .34033204 .44506837 .37027995 .46443687 .3852539 .4942932 .3852539 .53463748 .3852539 .56658938 .37434898 .59305319 .35253907 .61402896 .33072917 .63501486 .30257163 .6455078 .2680664 .6455078 .23388672 .6455078 .20540364 .6347656 .18261719 .61328127 .15983074 .5917969 .1451823 .5595703 .13867188 .51660159L.05078125 .53222659C.061523439 .591451 .0859375 .63734439 .12402344 .6699066 .16210938 .7024689 .20947266 .71875 .26611329 .71875 .30517579 .71875 .34114585 .71039327 .37402345 .6936798 .40690104 .67696639 .43204753 .6541646 .4494629 .62527468 .46687828 .59639486 .47558595 .5657247 .47558595 .53326418 .47558595 .5024312 .46728517 .47435508 .4506836 .44903565 .43408204 .4237264 .40950523 .40360514 .37695313 .38867188 .41927085 .37890626 .45214845 .35864259 .47558595 .32788087 .49902345 .29711915 .5107422 .2586263 .5107422 .21240235 .5107422 .14990235 .48795573 .09692383 .4423828 .053466798 .3968099 .010009766 .33919273-.01171875 .26953126-.01171875 .20670574-.01171875 .15454102 .007044474 .11303711 .044570924 .0715332 .082097377 .047851564 .13071697 .041992189 .19042969Z"/>
<path id="font_3_15" d="M.08886719 0V.10058594H.18896485V.000289917C.18896485-.036575319 .18245442-.066340129 .1694336-.08900452 .15641277-.11167908 .13574219-.12921143 .107421878-.14160156L.08300781-.103515628C.1015625-.0954183 .115234378-.08351135 .12402344-.0677948 .1328125-.052078248 .13769531-.02947998 .13867188 0H.08886719Z"/>
<path id="font_3_26" d="M.04736328 .6225586V.70703127H.5107422V.6386719C.46516929 .5901286 .42000328 .5256246 .37524415 .4451599 .33048503 .36469523 .29589845 .2819519 .27148438 .19692993 .25390626 .13698323 .24267578 .07133993 .23779297 0H.14746094C.1484375 .056355794 .1595052 .12444051 .18066406 .20425415 .20182292 .28407798 .23217774 .3610433 .27172853 .43515016 .3112793 .50926718 .35335288 .57173666 .39794923 .6225586H.04736328Z"/>
<path id="font_3_19" d="M.041503908 .35327149C.041503908 .43784587 .05021159 .50591537 .06762695 .55747988 .08504232 .6090444 .11092123 .6488139 .14526367 .67678835 .17960613 .70476278 .22281902 .71875 .27490235 .71875 .3133138 .71875 .34700523 .711024 .37597657 .6955719 .4049479 .6801198 .4288737 .6578369 .4477539 .62872317 .46663413 .5996094 .4814453 .56414797 .4921875 .52233889 .5029297 .48053996 .5083008 .42418418 .5083008 .35327149 .5083008 .26934815 .49967448 .2016042 .48242188 .15003968 .46516929 .098475139 .43937174 .058624269 .4050293 .03048706 .37068687 .0023498536 .3273112-.01171875 .27490235-.01171875 .20589192-.01171875 .1516927 .013005574 .11230469 .062454225 .065104167 .12198385 .041503908 .21892293 .041503908 .35327149M.13183594 .35351563C.13183594 .23639934 .14558919 .15845235 .1730957 .11967468 .20060222 .08090719 .23453777 .061523439 .27490235 .061523439 .31526695 .061523439 .34920249 .08098856 .37670899 .11991882 .40421549 .15884908 .41796876 .23671468 .41796876 .35351563 .41796876 .47095744 .40421549 .5489807 .37670899 .58758547 .34920249 .6262004 .3149414 .6455078 .27392579 .6455078 .2335612 .6455078 .20133464 .62847396 .1772461 .5944061 .14697266 .5509288 .13183594 .47063194 .13183594 .35351563Z"/>
<path id="font_3_24" d="M.041503908 .18847656 .13378906 .19628906C.140625 .15151978 .15649414 .117863979 .18139649 .095321658 .20629883 .07278951 .23632813 .061523439 .27148438 .061523439 .3138021 .061523439 .34960938 .077448528 .37890626 .109298709 .40820313 .14115906 .42285157 .18341573 .42285157 .23606873 .42285157 .28612773 .4087728 .32562257 .38061524 .35455323 .35245768 .3834839 .31559245 .39794923 .27001954 .39794923 .24169922 .39794923 .21614583 .39156596 .19335938 .37879945 .17057292 .36603294 .15266927 .34946696 .13964844 .32910157L.057128908 .33984376 .12646485 .70703127H.48242188V.62402346H.19677735L.15820313 .43115235C.20117188 .46077476 .24625652 .47558595 .29345704 .47558595 .35595704 .47558595 .4086914 .45391337 .45166017 .41056825 .4946289 .36723329 .5161133 .31151835 .5161133 .24342346 .5161133 .17857361 .49723307 .122528079 .45947267 .075286868 .41357423 .017283122 .35091148-.01171875 .27148438-.01171875 .2063802-.01171875 .15323894 .006556193 .11206055 .04310608 .070882167 .07965597 .04736328 .1281128 .041503908 .18847656Z"/>
<path id="font_3_27" d="M.17675781 .38916017C.14029949 .40246583 .11328125 .42145286 .095703128 .44612123 .078125 .47078959 .06933594 .5003255 .06933594 .534729 .06933594 .5866597 .08805338 .63031008 .12548828 .66567996 .16292317 .70106 .21272786 .71875 .27490235 .71875 .33740235 .71875 .3876953 .7006531 .42578126 .6644592 .4638672 .6282756 .48291017 .5842183 .48291017 .5322876 .48291017 .4991862 .47420249 .4703827 .4567871 .44587709 .43937174 .42137147 .4129232 .40246583 .3774414 .38916017 .42138673 .3748169 .45483399 .3516744 .4777832 .31973268 .5007324 .28780113 .51220706 .24966939 .51220706 .20533753 .51220706 .1440684 .4905599 .09257507 .44726563 .050857545 .40397135 .009140015 .34700523-.01171875 .2763672-.01171875 .20572917-.01171875 .14876302 .009221395 .10546875 .051101686 .06217448 .09298197 .040527345 .14521282 .040527345 .20779419 .040527345 .25439454 .052327474 .29342143 .075927738 .32487489 .09952799 .35632835 .13313802 .37775675 .17675781 .38916017M.15917969 .53707888C.15917969 .5035197 .17008464 .47608949 .19189453 .4547882 .21370442 .4334971 .24202474 .42285157 .27685548 .42285157 .31070964 .42285157 .3384603 .4334208 .36010743 .45455934 .38175456 .47569786 .39257813 .501592 .39257813 .5322418 .39257813 .5641937 .38142906 .5910594 .35913087 .61283877 .33683268 .6346181 .30908204 .6455078 .2758789 .6455078 .24235027 .6455078 .21451824 .6348572 .19238281 .6135559 .17024739 .59226486 .15917969 .56677249 .15917969 .53707888M.13085938 .20776367C.13085938 .18273926 .13680013 .15852864 .14868164 .13513184 .16056316 .11173502 .17822266 .09361776 .20166016 .08078003 .22509766 .0679423 .25032554 .061523439 .27734376 .061523439 .31933595 .061523439 .3540039 .07500712 .38134767 .10197449 .4086914 .12895203 .42236329 .16323853 .42236329 .20483399 .42236329 .24708049 .40828453 .28201295 .38012696 .30963136 .3519694 .33725993 .31673179 .35107423 .27441407 .35107423 .23307292 .35107423 .19881185 .3374227 .17163086 .31011964 .14444988 .28282676 .13085938 .24870809 .13085938 .20776367Z"/>
<path id="font_3_25" d="M.4975586 .5400543 .41015626 .5332031C.40234376 .5675557 .39127604 .59251406 .37695313 .608078 .3531901 .6330312 .32389323 .6455078 .2890625 .6455078 .26106773 .6455078 .23649089 .637736 .21533203 .6221924 .18766277 .602122 .16585286 .57282 .14990235 .5342865 .13395183 .49575297 .12565105 .4408671 .125 .3696289 .14615886 .40185548 .17203777 .42578126 .20263672 .44140626 .23323567 .45703126 .26529948 .46484376 .29882813 .46484376 .35742188 .46484376 .40730796 .44327799 .44848634 .40014649 .4896647 .35701499 .5102539 .30126954 .5102539 .23291016 .5102539 .18798828 .50056967 .14624024 .48120118 .107666019 .46183268 .0690918 .43522135 .03955078 .4013672 .019042969 .36751304-.0014648438 .32910157-.01171875 .2861328-.01171875 .21289063-.01171875 .15315755 .015197754 .106933597 .06903076 .060709638 .12287394 .037597658 .2116038 .037597658 .33522035 .037597658 .47347514 .06315104 .57399496 .11425781 .6367798 .15885417 .6914266 .21891277 .71875 .2944336 .71875 .3507487 .71875 .39689128 .70292159 .43286134 .67126467 .4688314 .6396077 .49039714 .595871 .4975586 .5400543M.13867188 .23287964C.13867188 .20269776 .1451009 .17381287 .15795899 .14622498 .17081706 .118637088 .18880208 .09762064 .21191406 .08317566 .23502605 .068740848 .25927735 .061523439 .28466798 .061523439 .32177735 .061523439 .35367839 .07645162 .3803711 .10630798 .4070638 .13616435 .42041017 .17673238 .42041017 .22801209 .42041017 .27734886 .40722657 .31621299 .38085938 .3446045 .3544922 .3730062 .32128907 .38720704 .28125 .38720704 .24153646 .38720704 .20784505 .3730062 .18017578 .3446045 .15250652 .31621299 .13867188 .27897135 .13867188 .23287964Z"/>
<path id="font_3_69" d="M.14697266 0H.06542969V.7158203H.15332031V.45950318C.19042969 .50668337 .23779297 .53027346 .29541017 .53027346 .3273112 .53027346 .35750328 .5238444 .38598634 .5109863 .4144694 .49812828 .4379069 .48006187 .45629884 .4567871 .47469078 .43351237 .48909507 .4054362 .49951173 .3725586 .5099284 .339681 .5151367 .30452476 .5151367 .26708985 .5151367 .17822266 .49316407 .10953776 .44921876 .061035158 .40527345 .012532552 .35253907-.01171875 .29101563-.01171875 .2298177-.01171875 .18180339 .014160156 .14697266 .06591797V0M.1459961 .26316834C.1459961 .20129903 .15445964 .15659587 .17138672 .12905884 .19905599 .08403524 .23649089 .061523439 .2836914 .061523439 .32210288 .061523439 .355306 .078125 .38330079 .111328128 .41129557 .14453125 .42529298 .19401042 .42529298 .25976563 .42529298 .32713828 .41186524 .37685649 .38500978 .4089203 .3581543 .44099427 .3256836 .45703126 .28759767 .45703126 .2491862 .45703126 .21598308 .4404297 .18798828 .40722657 .15999349 .37402345 .1459961 .32600404 .1459961 .26316834Z"/>
<path id="font_3_21" d="M.50341799 .084472659V0H.030273438C.029622397 .021148682 .033040365 .041483564 .040527345 .06100464 .052571615 .09321085 .07185873 .124928798 .09838867 .15615845 .12491862 .1873881 .1632487 .22350057 .2133789 .26449586 .29117839 .3282369 .34375 .37872825 .37109376 .41596986 .3984375 .45321147 .41210938 .48841859 .41210938 .5215912 .41210938 .5563914 .3996582 .5857442 .37475587 .60964968 .34985353 .6335551 .3173828 .6455078 .27734376 .6455078 .23502605 .6455078 .20117188 .6328125 .17578125 .6074219 .15039063 .58203127 .13753255 .546875 .13720703 .5019531L.046875 .5112457C.053059896 .5787811 .07633463 .630249 .11669922 .6656494 .1570638 .7010498 .21126302 .71875 .27929688 .71875 .34798179 .71875 .40234376 .69970199 .4423828 .66160586 .48242188 .6235097 .5024414 .57629397 .5024414 .5199585 .5024414 .4913025 .49658204 .46313478 .48486329 .43545533 .47314454 .40777589 .45369468 .3786316 .42651368 .34802247 .39933268 .3174235 .35416667 .27542115 .29101563 .22201538 .23828125 .17779541 .20442708 .14779663 .18945313 .13201905 .17447917 .116251628 .16210938 .10040283 .15234375 .084472659H.50341799Z"/>
<path id="font_3_28" d="M.0546875 .16694641 .13916016 .17480469C.14632161 .13509114 .15999349 .106282558 .18017578 .088378909 .20035808 .07047526 .22623699 .061523439 .2578125 .061523439 .28483073 .061523439 .30851237 .067708339 .32885743 .080078128 .34920249 .092447917 .3658854 .1089681 .37890626 .12963867 .3919271 .15030925 .40283204 .17822266 .4116211 .2133789 .42041017 .24853516 .4248047 .28434245 .4248047 .32080079 .4248047 .32470704 .42464195 .3305664 .4243164 .3383789 .40673829 .31038413 .3827311 .28767906 .35229493 .27026368 .32185874 .2528483 .28889976 .24414063 .25341798 .24414063 .19417317 .24414063 .14404297 .26555888 .103027347 .3083954 .06201172 .3512319 .041503908 .40769959 .041503908 .47779847 .041503908 .55016586 .0629069 .6084137 .10571289 .6525421 .14851888 .6966807 .20214844 .71875 .26660157 .71875 .31315104 .71875 .3557129 .70622256 .3942871 .6811676 .43286134 .65612289 .4621582 .62042239 .48217774 .57406619 .50219729 .52770999 .51220706 .46061708 .51220706 .37278749 .51220706 .28137718 .5022786 .20858765 .48242188 .15441895 .4625651 .100260417 .43302409 .05903117 .39379884 .030731202 .35457359 .0024312337 .30859376-.01171875 .25585938-.01171875 .1998698-.01171875 .15413411 .00390625 .118652347 .03515625 .08317057 .06640625 .061848958 .1103363 .0546875 .16694641M.41455079 .48194886C.41455079 .5320994 .40112306 .57189437 .37426759 .6013336 .3474121 .6307831 .31510417 .6455078 .27734376 .6455078 .23828125 .6455078 .20426433 .62965396 .17529297 .59794619 .14632161 .5662384 .13183594 .5251465 .13183594 .4746704 .13183594 .42936198 .14558919 .3925527 .1730957 .36424256 .20060222 .3359324 .23453777 .32177735 .27490235 .32177735 .31559245 .32177735 .3490397 .3359324 .37524415 .36424256 .40144859 .3925527 .41455079 .43178813 .41455079 .48194886Z"/>
<path id="font_3_48" d="M.07421875 0V.7158203H.21679688L.38623048 .20898438C.40185548 .16178386 .4132487 .12646485 .42041017 .103027347 .4285482 .12906902 .4412435 .1673177 .4584961 .21777344L.6298828 .7158203H.7573242V0H.6660156V.5991211L.4580078 0H.3725586L.16552735 .609375V0H.07421875Z"/>
<path id="font_3_82" d="M.033203126 .25927735C.033203126 .355306 .059895833 .42643229 .11328125 .47265626 .15787761 .5110677 .21223958 .53027346 .2763672 .53027346 .34765626 .53027346 .40592448 .5069173 .45117188 .46020509 .49641929 .41349284 .51904299 .34895835 .51904299 .26660157 .51904299 .1998698 .5090332 .14737956 .48901368 .10913086 .46899415 .070882167 .43986003 .041178388 .40161134 .020019532 .36336265-.0011393229 .3216146-.01171875 .2763672-.01171875 .20377605-.01171875 .1451009 .011555989 .1003418 .05810547 .055582685 .104654949 .033203126 .17171224 .033203126 .25927735M.123535159 .25952149C.123535159 .19335938 .13802083 .14381917 .16699219 .11090088 .19596355 .07798258 .23242188 .061523439 .2763672 .061523439 .31998698 .061523439 .35628257 .078063968 .3852539 .11114502 .41422526 .14422608 .42871095 .19465637 .42871095 .2624359 .42871095 .32632957 .4141439 .3747355 .38500978 .4076538 .35587565 .4405721 .31966148 .45703126 .2763672 .45703126 .23242188 .45703126 .19596355 .44065348 .16699219 .40789796 .13802083 .37514244 .123535159 .3256836 .123535159 .25952149Z"/>
<path id="font_3_70" d="M.40429688 .19042969 .49072267 .17919922C.48128257 .11947632 .45711265 .07272339 .4182129 .03894043 .37931315 .005167643 .33154298-.01171875 .27490235-.01171875 .2039388-.01171875 .14689128 .011474609 .103759769 .057861329 .060628255 .10424805 .0390625 .17073567 .0390625 .25732423 .0390625 .3133138 .048339845 .3623047 .06689453 .40429688 .08544922 .44628907 .11368815 .4777832 .15161133 .4987793 .1895345 .5197754 .23079427 .53027346 .27539063 .53027346 .33170573 .53027346 .37776695 .51598617 .41357423 .4874115 .4493815 .45884706 .47233073 .4182841 .48242188 .36572267L.39697267 .35253907C.38883464 .38720704 .37443034 .4132894 .35375978 .43078614 .3330892 .44828288 .30810548 .45703126 .2788086 .45703126 .23453777 .45703126 .1985677 .4412384 .17089844 .4096527 .14322917 .37807719 .12939453 .32811485 .12939453 .25976563 .12939453 .19043987 .14274089 .1400655 .1694336 .10864258 .1961263 .07722982 .23095703 .061523439 .27392579 .061523439 .308431 .061523439 .3372396 .07206217 .36035157 .09313965 .38346354 .114217128 .39811198 .14664714 .40429688 .19042969Z"/>
<path id="font_3_90" d="M.1616211 0 .0029296876 .5185547H.09375L.17626953 .21928406 .20703125 .107910159C.20833333 .11343384 .21728516 .14904277 .23388672 .21473694L.31640626 .5185547H.40673829L.484375 .21783448 .5102539 .118652347 .54003909 .21876526 .62890627 .5185547H.71435549L.5522461 0H.4609375L.37841798 .31071473 .35839845 .39892579 .25341798 0H.1616211Z"/>
<path id="font_3_58" d="M.20214844 0 .012207031 .7158203H.109375L.21826172 .24658203C.22998047 .19742839 .24007161 .14860027 .24853516 .100097659 .2667643 .17659505 .2775065 .22070313 .28076173 .23242188L.4169922 .7158203H.53125L.63378909 .35351563C.6595052 .26367188 .6780599 .17919922 .6894531 .100097659 .6985677 .14534505 .7104492 .19726563 .72509768 .25585938L.83740237 .7158203H.9326172L.7363281 0H.64501956L.49414063 .54541018C.4814453 .5909831 .47395835 .61897787 .4716797 .62939456 .46419273 .5965169 .457194 .56852218 .4506836 .54541018L.29882813 0H.20214844Z"/>
<path id="font_3_20" d="M.3725586 0H.28466798V.5600586C.26350913 .5398763 .23575847 .51969406 .20141602 .49951173 .16707357 .47932945 .13623047 .46419273 .10888672 .45410157V.5390625C.15804036 .5621745 .20100911 .59016928 .23779297 .6230469 .2745768 .6559245 .3006185 .6878255 .31591798 .71875H.3725586V0Z"/>
<path id="font_4_44" d="M.068359378 0V.7158203H.21289063V0H.068359378Z"/>
<path id="font_4_81" d="M.54345706 0H.40625V.26434327C.40625 .32027183 .4033203 .3564453 .39746095 .37286378 .39160157 .38928224 .38208009 .40204368 .36889649 .41114808 .3557129 .42025248 .33984376 .4248047 .32128907 .4248047 .29752604 .4248047 .27620445 .41829936 .25732423 .4052887 .23844402 .3922882 .22550456 .37505595 .21850586 .35359193 .21150716 .33213807 .20800781 .2924703 .20800781 .23458863V0H.07080078V.5185547H.19824219V.4423828C.24348958 .50097659 .30045573 .53027346 .36914063 .53027346 .39941407 .53027346 .42708335 .524821 .45214845 .513916 .47721354 .50301107 .49617515 .48909507 .5090332 .47216798 .5218913 .45524089 .5308431 .43603517 .5358887 .41455079 .54093429 .3930664 .54345706 .3623047 .54345706 .32226563V0Z"/>
<path id="font_4_71" d="M.5473633 0H.41992188V.076171878C.39876304 .04654948 .3737793 .024495444 .3449707 .010009766 .3161621-.0044759118 .28710938-.01171875 .2578125-.01171875 .19824219-.01171875 .1472168 .012288411 .10473633 .060302736 .06225586 .108317058 .041015626 .17529297 .041015626 .26123048 .041015626 .3491211 .0616862 .41593424 .103027347 .46166993 .14436849 .5074056 .19661458 .53027346 .25976563 .53027346 .31770835 .53027346 .36783854 .5061849 .41015626 .4580078V.7158203H.5473633V0M.18115235 .2702484C.18115235 .21499126 .18880208 .17501323 .20410156 .15031433 .22623699 .1145579 .25716148 .09667969 .296875 .09667969 .32845054 .09667969 .355306 .110087078 .3774414 .13690186 .3995768 .16371663 .41064454 .20377605 .41064454 .25708009 .41064454 .316569 .39990235 .35939536 .37841798 .38555909 .3569336 .4117228 .3294271 .4248047 .29589845 .4248047 .26334635 .4248047 .23608399 .4118856 .21411133 .38604737 .19213867 .36020915 .18115235 .3216095 .18115235 .2702484Z"/>
<path id="font_4_72" d="M.3720703 .16503906 .50878909 .14160156C.49121095 .09163412 .4634603 .053588869 .4255371 .02746582 .38761393 .0013427734 .34016929-.01171875 .28320313-.01171875 .19303386-.01171875 .12630208 .017740885 .08300781 .076660159 .048828126 .12386068 .03173828 .18343099 .03173828 .2553711 .03173828 .3413086 .05419922 .40861003 .099121097 .4572754 .14404297 .50594076 .20084636 .53027346 .26953126 .53027346 .3466797 .53027346 .4075521 .50480148 .45214845 .45385743 .49674479 .40291343 .5180664 .32486979 .5161133 .21972656H.17236328C.17333985 .17903646 .18440755 .14737956 .2055664 .12475586 .22672527 .102132167 .25309245 .09082031 .28466798 .09082031 .30615235 .09082031 .32421876 .09667969 .3388672 .10839844 .35351563 .12011719 .36458335 .13899739 .3720703 .16503906M.3798828 .30371095C.37890626 .34326173 .36865235 .3733317 .3491211 .3939209 .32958985 .4145101 .3058268 .4248047 .27783204 .4248047 .24788411 .4248047 .22314453 .41394554 .20361328 .39222718 .18408203 .37049867 .17447917 .34099327 .17480469 .30371095H.3798828Z"/>
<path id="font_4_91" d="M.005859375 0 .1928711 .26708985 .013671875 .5185547H.18115235L.27294923 .37597657 .3696289 .5185547H.5307617L.35498048 .27294923 .546875 0H.37841798L.27294923 .16064453 .1665039 0H.005859375Z"/>
<path id="font_4_39" d="M.072265628 .7158203H.33642579C.3959961 .7158203 .44140626 .711263 .47265626 .70214846 .51464846 .6897786 .55061849 .66780599 .5805664 .63623049 .61051437 .60465499 .6333008 .5659993 .6489258 .5202637 .6645508 .47452799 .6723633 .4181315 .6723633 .35107423 .6723633 .29215495 .66503909 .2413737 .6503906 .19873047 .632487 .14664714 .6069336 .10449219 .57373049 .072265628 .54866537 .047851564 .5148112 .028808594 .47216798 .015136719 .44026695 .0050455729 .3976237 0 .34423829 0H.072265628V.7158203M.21679688 .59472659V.12109375H.32470704C.36507163 .12109375 .39420573 .1233724 .41210938 .12792969 .43554688 .13377889 .45499674 .14369202 .47045899 .15766907 .48592124 .1716563 .49853517 .19466655 .5083008 .22669983 .5180664 .25873313 .5229492 .30238853 .5229492 .35766603 .5229492 .4129435 .5180664 .4553782 .5083008 .4849701 .49853517 .51456198 .48486329 .5376485 .46728517 .55422976 .44970704 .5708211 .42740885 .58204147 .40039063 .5878906 .38020835 .59244796 .34065757 .59472659 .28173829 .59472659H.21679688Z"/>
<path id="font_4_68" d="M.1743164 .35839845 .049804689 .38085938C.063802089 .4316508 .087890628 .46924845 .12207031 .49365235 .15625 .5180664 .20703125 .53027346 .27441407 .53027346 .33561198 .53027346 .3811849 .5230306 .4111328 .5085449 .44108073 .49405924 .4621582 .47566734 .47436524 .45336915 .48657228 .43107096 .49267579 .39013673 .49267579 .3305664L.49121095 .17041016C.49121095 .12483724 .4934082 .09122721 .49780274 .06958008 .50219729 .04793294 .5104167 .024739584 .52246096 0H.38671876C.38313804 .009114583 .3787435 .022623698 .37353517 .040527345 .3712565 .048665365 .3696289 .054036458 .36865235 .056640626 .34521485 .033854169 .32014976 .016764323 .29345704 .0053710939 .2667643-.0060221354 .23828125-.01171875 .20800781-.01171875 .15462239-.01171875 .11254883 .0027058919 .08178711 .031555177 .05102539 .06040446 .03564453 .09687296 .03564453 .1409607 .03564453 .1701355 .04264323 .19614665 .056640626 .21899414 .07063802 .2418518 .09025065 .25935874 .115478519 .2715149 .14070638 .28367106 .17708333 .2942861 .22460938 .30336 .28873698 .3153534 .33317057 .3265381 .35791017 .33691407V.35073854C.35791017 .37740074 .35139976 .39640809 .3383789 .40776063 .32535807 .41912333 .30078126 .4248047 .26464845 .4248047 .24023438 .4248047 .2211914 .41989137 .20751953 .4100647 .19384766 .4002482 .18277996 .38302613 .1743164 .35839845M.35791017 .24707031C.34033204 .24128215 .3125 .23436482 .27441407 .22631836 .23632813 .21828206 .21142578 .21040344 .19970703 .2026825 .18180339 .19013977 .17285156 .17421977 .17285156 .15492249 .17285156 .13594055 .18001302 .119532268 .19433594 .10569763 .20865886 .09187317 .22688802 .08496094 .24902344 .08496094 .27376304 .08496094 .29736329 .09300232 .31982423 .10908508 .33642579 .121302288 .34733073 .13626099 .35253907 .15396118 .35611979 .16553752 .35791017 .18756612 .35791017 .220047V.24707031Z"/>
<path id="font_4_87" d="M.3095703 .5185547V.4091797H.21582031V.200531C.21582031 .15827434 .2167155 .13365174 .21850586 .12666321 .22029622 .11968485 .22436524 .11391703 .23071289 .10935974 .23706055 .10481262 .24479167 .10253906 .25390626 .10253906 .26660157 .10253906 .2849935 .106933597 .30908204 .115722659L.32080079 .008880615C.28889976-.004852295 .25276695-.01171875 .21240235-.01171875 .18766277-.01171875 .16536458-.0075683596 .14550781 .0007324219 .12565105 .009033203 .111083988 .01977539 .10180664 .032958986 .0925293 .046142579 .08610026 .063964847 .08251953 .08642578 .079589847 .102376308 .078125 .13460286 .078125 .18310547V.4091797H.015136719V.5185547H.078125V.6220703L.21582031 .703125V.5185547H.3095703Z"/>
</defs>
<g clip-path="url(#clip_1)">
<path transform="matrix(.7180762,0,0,.7180762,0,0)" d="M0 0H603V403H0Z" fill="#ffffff"/>
</g>
<g clip-path="url(#clip_2)">
<path transform="matrix(.7180762,0,0,.7180762,.3590381,.3590381)" d="M241 41H601V401H241Z" fill="#dae8fc"/>
<path transform="matrix(.7180762,0,0,.7180762,.3590381,.3590381)" stroke-width="1" stroke-linecap="butt" stroke-miterlimit="4" stroke-linejoin="miter" fill="none" stroke="#6c8ebf" d="M241 41H601V401H241Z"/>
<path transform="matrix(.7180762,0,0,.7180762,.3590381,.3590381)" d="M1 161H121V201H1Z" fill="#ffffff"/>
<path transform="matrix(.7180762,0,0,.7180762,.3590381,.3590381)" stroke-width="1" stroke-linecap="butt" stroke-miterlimit="4" stroke-linejoin="miter" fill="none" stroke="#000000" d="M1 161H121V201H1Z"/>
<use data-text="A" xlink:href="#font_3_36" transform="matrix(10.053067,0,0,-10.053067,24.246293,134.28026)"/>
<use data-text="u" xlink:href="#font_3_88" transform="matrix(10.053067,0,0,-10.053067,30.951689,134.28026)"/>
<use data-text="s" xlink:href="#font_3_86" transform="matrix(10.053067,0,0,-10.053067,36.541196,134.28026)"/>
<use data-text="t" xlink:href="#font_3_87" transform="matrix(10.053067,0,0,-10.053067,41.56773,134.28026)"/>
<use data-text="r" xlink:href="#font_3_85" transform="matrix(10.053067,0,0,-10.053067,44.362485,134.28026)"/>
<use data-text="a" xlink:href="#font_3_68" transform="matrix(10.053067,0,0,-10.053067,47.71015,134.28026)"/>
<use data-text="l" xlink:href="#font_3_79" transform="matrix(10.053067,0,0,-10.053067,53.299665,134.28026)"/>
<use data-text="i" xlink:href="#font_3_76" transform="matrix(10.053067,0,0,-10.053067,55.531446,134.28026)"/>
<use data-text="a" xlink:href="#font_3_68" transform="matrix(10.053067,0,0,-10.053067,57.763227,134.28026)"/>
<path transform="matrix(.7180762,0,0,.7180762,.3590381,.3590381)" d="M121 161H141V201H121Z" fill="#d5e8d4"/>
<path transform="matrix(.7180762,0,0,.7180762,.3590381,.3590381)" stroke-width="1" stroke-linecap="butt" stroke-miterlimit="4" stroke-linejoin="miter" fill="none" stroke="#82b366" d="M121 161H141V201H121Z"/>
<path transform="matrix(.7180762,0,0,.7180762,.3590381,.3590381)" d="M1 201H121V241H1Z" fill="#ffffff"/>
<path transform="matrix(.7180762,0,0,.7180762,.3590381,.3590381)" stroke-width="1" stroke-linecap="butt" stroke-miterlimit="4" stroke-linejoin="miter" fill="none" stroke="#000000" d="M1 201H121V241H1Z"/>
<use data-text="C" xlink:href="#font_3_38" transform="matrix(10.053067,0,0,-10.053067,30.664099,163.00331)"/>
<use data-text="h" xlink:href="#font_3_75" transform="matrix(10.053067,0,0,-10.053067,37.922414,163.00331)"/>
<use data-text="i" xlink:href="#font_3_76" transform="matrix(10.053067,0,0,-10.053067,43.51192,163.00331)"/>
<use data-text="n" xlink:href="#font_3_81" transform="matrix(10.053067,0,0,-10.053067,45.743703,163.00331)"/>
<use data-text="a" xlink:href="#font_3_68" transform="matrix(10.053067,0,0,-10.053067,51.33321,163.00331)"/>
<path transform="matrix(.7180762,0,0,.7180762,.3590381,.3590381)" d="M121 201H141V241H121Z" fill="#d5e8d4"/>
<path transform="matrix(.7180762,0,0,.7180762,.3590381,.3590381)" stroke-width="1" stroke-linecap="butt" stroke-miterlimit="4" stroke-linejoin="miter" fill="none" stroke="#82b366" d="M121 201H141V241H121Z"/>
<path transform="matrix(.7180762,0,0,.7180762,.3590381,.3590381)" d="M1 241H121V281H1Z" fill="#ffffff"/>
<path transform="matrix(.7180762,0,0,.7180762,.3590381,.3590381)" stroke-width="1" stroke-linecap="butt" stroke-miterlimit="4" stroke-linejoin="miter" fill="none" stroke="#000000" d="M1 241H121V281H1Z"/>
<use data-text="R" xlink:href="#font_3_53" transform="matrix(10.053067,0,0,-10.053067,28.431332,191.72635)"/>
<use data-text="u" xlink:href="#font_3_88" transform="matrix(10.053067,0,0,-10.053067,35.689649,191.72635)"/>
<use data-text="s" xlink:href="#font_3_86" transform="matrix(10.053067,0,0,-10.053067,41.279153,191.72635)"/>
<use data-text="s" xlink:href="#font_3_86" transform="matrix(10.053067,0,0,-10.053067,46.305685,191.72635)"/>
<use data-text="i" xlink:href="#font_3_76" transform="matrix(10.053067,0,0,-10.053067,51.33222,191.72635)"/>
<use data-text="a" xlink:href="#font_3_68" transform="matrix(10.053067,0,0,-10.053067,53.564,191.72635)"/>
<path transform="matrix(.7180762,0,0,.7180762,.3590381,.3590381)" d="M121 241H141V281H121Z" fill="#d5e8d4"/>
<path transform="matrix(.7180762,0,0,.7180762,.3590381,.3590381)" stroke-width="1" stroke-linecap="butt" stroke-miterlimit="4" stroke-linejoin="miter" fill="none" stroke="#82b366" d="M121 241H141V281H121Z"/>
<path transform="matrix(.7180762,0,0,.7180762,.3590381,.3590381)" d="M1 281H121V321H1Z" fill="#ffffff"/>
<path transform="matrix(.7180762,0,0,.7180762,.3590381,.3590381)" stroke-width="1" stroke-linecap="butt" stroke-miterlimit="4" stroke-linejoin="miter" fill="none" stroke="#000000" d="M1 281H121V321H1Z"/>
<use data-text="U" xlink:href="#font_3_56" transform="matrix(10.053067,0,0,-10.053067,33.457864,220.4494)"/>
<use data-text="S" xlink:href="#font_3_54" transform="matrix(10.053067,0,0,-10.053067,40.71618,220.4494)"/>
<use data-text="A" xlink:href="#font_3_36" transform="matrix(10.053067,0,0,-10.053067,47.421575,220.4494)"/>
<path transform="matrix(.7180762,0,0,.7180762,.3590381,.3590381)" d="M121 281H141V321H121Z" fill="#d5e8d4"/>
<path transform="matrix(.7180762,0,0,.7180762,.3590381,.3590381)" stroke-width="1" stroke-linecap="butt" stroke-miterlimit="4" stroke-linejoin="miter" fill="none" stroke="#82b366" d="M121 281H141V321H121Z"/>
<path transform="matrix(.7180762,0,0,.7180762,.3590381,.3590381)" d="M241 161H361V201H241Z" fill="#ffffff"/>
<path transform="matrix(.7180762,0,0,.7180762,.3590381,.3590381)" stroke-width="1" stroke-linecap="butt" stroke-miterlimit="4" stroke-linejoin="miter" fill="none" stroke="#000000" d="M241 161H361V201H241Z"/>
<use data-text="C" xlink:href="#font_3_38" transform="matrix(10.053067,0,0,-10.053067,203.0024,134.28026)"/>
<use data-text="h" xlink:href="#font_3_75" transform="matrix(10.053067,0,0,-10.053067,210.26071,134.28026)"/>
<use data-text="i" xlink:href="#font_3_76" transform="matrix(10.053067,0,0,-10.053067,215.85022,134.28026)"/>
<use data-text="n" xlink:href="#font_3_81" transform="matrix(10.053067,0,0,-10.053067,218.082,134.28026)"/>
<use data-text="a" xlink:href="#font_3_68" transform="matrix(10.053067,0,0,-10.053067,223.6715,134.28026)"/>
<path transform="matrix(.7180762,0,0,.7180762,.3590381,.3590381)" d="M361 161H481V201H361Z" fill="#ffffff"/>
<path transform="matrix(.7180762,0,0,.7180762,.3590381,.3590381)" stroke-width="1" stroke-linecap="butt" stroke-miterlimit="4" stroke-linejoin="miter" fill="none" stroke="#000000" d="M361 161H481V201H361Z"/>
<use data-text="B" xlink:href="#font_3_37" transform="matrix(10.053067,0,0,-10.053067,287.21928,134.28026)"/>
<use data-text="e" xlink:href="#font_3_72" transform="matrix(10.053067,0,0,-10.053067,293.92469,134.28026)"/>
<use data-text="i" xlink:href="#font_3_76" transform="matrix(10.053067,0,0,-10.053067,299.5142,134.28026)"/>
<use data-text="j" xlink:href="#font_3_77" transform="matrix(10.053067,0,0,-10.053067,301.74598,134.28026)"/>
<use data-text="i" xlink:href="#font_3_76" transform="matrix(10.053067,0,0,-10.053067,303.97776,134.28026)"/>
<use data-text="n" xlink:href="#font_3_81" transform="matrix(10.053067,0,0,-10.053067,306.20954,134.28026)"/>
<use data-text="g" xlink:href="#font_3_74" transform="matrix(10.053067,0,0,-10.053067,311.79905,134.28026)"/>
<path transform="matrix(.7180762,0,0,.7180762,.3590381,.3590381)" d="M481 161H601V201H481Z" fill="#ffffff"/>
<path transform="matrix(.7180762,0,0,.7180762,.3590381,.3590381)" stroke-width="1" stroke-linecap="butt" stroke-miterlimit="4" stroke-linejoin="miter" fill="none" stroke="#000000" d="M481 161H601V201H481Z"/>
<use data-text="3" xlink:href="#font_3_22" transform="matrix(10.053067,0,0,-10.053067,366.1067,134.28026)"/>
<use data-text="," xlink:href="#font_3_15" transform="matrix(10.053067,0,0,-10.053067,371.69618,134.28026)"/>
<use data-text="7" xlink:href="#font_3_26" transform="matrix(10.053067,0,0,-10.053067,374.49098,134.28026)"/>
<use data-text="0" xlink:href="#font_3_19" transform="matrix(10.053067,0,0,-10.053067,380.08045,134.28026)"/>
<use data-text="5" xlink:href="#font_3_24" transform="matrix(10.053067,0,0,-10.053067,385.66996,134.28026)"/>
<use data-text="," xlink:href="#font_3_15" transform="matrix(10.053067,0,0,-10.053067,391.25947,134.28026)"/>
<use data-text="3" xlink:href="#font_3_22" transform="matrix(10.053067,0,0,-10.053067,394.05424,134.28026)"/>
<use data-text="8" xlink:href="#font_3_27" transform="matrix(10.053067,0,0,-10.053067,399.64375,134.28026)"/>
<use data-text="6" xlink:href="#font_3_25" transform="matrix(10.053067,0,0,-10.053067,405.23326,134.28026)"/>
<path transform="matrix(.7180762,0,0,.7180762,.3590381,.3590381)" d="M241 81H361V121H241Z" fill="#ffffff"/>
<path transform="matrix(.7180762,0,0,.7180762,.3590381,.3590381)" stroke-width="1" stroke-linecap="butt" stroke-miterlimit="4" stroke-linejoin="miter" fill="none" stroke="#000000" d="M241 81H361V121H241Z"/>
<use data-text="A" xlink:href="#font_3_36" transform="matrix(10.053067,0,0,-10.053067,196.5846,76.83416)"/>
<use data-text="u" xlink:href="#font_3_88" transform="matrix(10.053067,0,0,-10.053067,203.29,76.83416)"/>
<use data-text="s" xlink:href="#font_3_86" transform="matrix(10.053067,0,0,-10.053067,208.8795,76.83416)"/>
<use data-text="t" xlink:href="#font_3_87" transform="matrix(10.053067,0,0,-10.053067,213.90604,76.83416)"/>
<use data-text="r" xlink:href="#font_3_85" transform="matrix(10.053067,0,0,-10.053067,216.70078,76.83416)"/>
<use data-text="a" xlink:href="#font_3_68" transform="matrix(10.053067,0,0,-10.053067,220.04845,76.83416)"/>
<use data-text="l" xlink:href="#font_3_79" transform="matrix(10.053067,0,0,-10.053067,225.63794,76.83416)"/>
<use data-text="i" xlink:href="#font_3_76" transform="matrix(10.053067,0,0,-10.053067,227.86972,76.83416)"/>
<use data-text="a" xlink:href="#font_3_68" transform="matrix(10.053067,0,0,-10.053067,230.10152,76.83416)"/>
<path transform="matrix(.7180762,0,0,.7180762,.3590381,.3590381)" d="M361 81H481V121H361Z" fill="#ffffff"/>
<path transform="matrix(.7180762,0,0,.7180762,.3590381,.3590381)" stroke-width="1" stroke-linecap="butt" stroke-miterlimit="4" stroke-linejoin="miter" fill="none" stroke="#000000" d="M361 81H481V121H361Z"/>
<use data-text="C" xlink:href="#font_3_38" transform="matrix(10.053067,0,0,-10.053067,281.35127,76.83416)"/>
<use data-text="a" xlink:href="#font_3_68" transform="matrix(10.053067,0,0,-10.053067,288.60957,76.83416)"/>
<use data-text="n" xlink:href="#font_3_81" transform="matrix(10.053067,0,0,-10.053067,294.19908,76.83416)"/>
<use data-text="b" xlink:href="#font_3_69" transform="matrix(10.053067,0,0,-10.053067,299.78858,76.83416)"/>
<use data-text="e" xlink:href="#font_3_72" transform="matrix(10.053067,0,0,-10.053067,305.37806,76.83416)"/>
<use data-text="r" xlink:href="#font_3_85" transform="matrix(10.053067,0,0,-10.053067,310.96757,76.83416)"/>
<use data-text="r" xlink:href="#font_3_85" transform="matrix(10.053067,0,0,-10.053067,314.31526,76.83416)"/>
<use data-text="a" xlink:href="#font_3_68" transform="matrix(10.053067,0,0,-10.053067,317.6629,76.83416)"/>
<path transform="matrix(.7180762,0,0,.7180762,.3590381,.3590381)" d="M481 81H601V121H481Z" fill="#ffffff"/>
<path transform="matrix(.7180762,0,0,.7180762,.3590381,.3590381)" stroke-width="1" stroke-linecap="butt" stroke-miterlimit="4" stroke-linejoin="miter" fill="none" stroke="#000000" d="M481 81H601V121H481Z"/>
<use data-text="2" xlink:href="#font_3_21" transform="matrix(10.053067,0,0,-10.053067,366.1067,76.83416)"/>
<use data-text="," xlink:href="#font_3_15" transform="matrix(10.053067,0,0,-10.053067,371.69618,76.83416)"/>
<use data-text="9" xlink:href="#font_3_28" transform="matrix(10.053067,0,0,-10.053067,374.49098,76.83416)"/>
<use data-text="6" xlink:href="#font_3_25" transform="matrix(10.053067,0,0,-10.053067,380.08045,76.83416)"/>
<use data-text="9" xlink:href="#font_3_28" transform="matrix(10.053067,0,0,-10.053067,385.66996,76.83416)"/>
<use data-text="," xlink:href="#font_3_15" transform="matrix(10.053067,0,0,-10.053067,391.25947,76.83416)"/>
<use data-text="9" xlink:href="#font_3_28" transform="matrix(10.053067,0,0,-10.053067,394.05424,76.83416)"/>
<use data-text="0" xlink:href="#font_3_19" transform="matrix(10.053067,0,0,-10.053067,399.64375,76.83416)"/>
<use data-text="7" xlink:href="#font_3_26" transform="matrix(10.053067,0,0,-10.053067,405.23326,76.83416)"/>
<path transform="matrix(.7180762,0,0,.7180762,.3590381,.3590381)" d="M241 241H361V281H241Z" fill="#ffffff"/>
<path transform="matrix(.7180762,0,0,.7180762,.3590381,.3590381)" stroke-width="1" stroke-linecap="butt" stroke-miterlimit="4" stroke-linejoin="miter" fill="none" stroke="#000000" d="M241 241H361V281H241Z"/>
<use data-text="R" xlink:href="#font_3_53" transform="matrix(10.053067,0,0,-10.053067,200.76963,191.72635)"/>
<use data-text="u" xlink:href="#font_3_88" transform="matrix(10.053067,0,0,-10.053067,208.02794,191.72635)"/>
<use data-text="s" xlink:href="#font_3_86" transform="matrix(10.053067,0,0,-10.053067,213.61745,191.72635)"/>
<use data-text="s" xlink:href="#font_3_86" transform="matrix(10.053067,0,0,-10.053067,218.64398,191.72635)"/>
<use data-text="i" xlink:href="#font_3_76" transform="matrix(10.053067,0,0,-10.053067,223.67052,191.72635)"/>
<use data-text="a" xlink:href="#font_3_68" transform="matrix(10.053067,0,0,-10.053067,225.9023,191.72635)"/>
<path transform="matrix(.7180762,0,0,.7180762,.3590381,.3590381)" d="M361 241H481V281H361Z" fill="#ffffff"/>
<path transform="matrix(.7180762,0,0,.7180762,.3590381,.3590381)" stroke-width="1" stroke-linecap="butt" stroke-miterlimit="4" stroke-linejoin="miter" fill="none" stroke="#000000" d="M361 241H481V281H361Z"/>
<use data-text="M" xlink:href="#font_3_48" transform="matrix(10.053067,0,0,-10.053067,283.8645,191.72635)"/>
<use data-text="o" xlink:href="#font_3_82" transform="matrix(10.053067,0,0,-10.053067,292.2387,191.72635)"/>
<use data-text="s" xlink:href="#font_3_86" transform="matrix(10.053067,0,0,-10.053067,297.82823,191.72635)"/>
<use data-text="c" xlink:href="#font_3_70" transform="matrix(10.053067,0,0,-10.053067,302.85475,191.72635)"/>
<use data-text="o" xlink:href="#font_3_82" transform="matrix(10.053067,0,0,-10.053067,307.8813,191.72635)"/>
<use data-text="w" xlink:href="#font_3_90" transform="matrix(10.053067,0,0,-10.053067,313.47077,191.72635)"/>
<path transform="matrix(.7180762,0,0,.7180762,.3590381,.3590381)" d="M481 241H601V281H481Z" fill="#ffffff"/>
<path transform="matrix(.7180762,0,0,.7180762,.3590381,.3590381)" stroke-width="1" stroke-linecap="butt" stroke-miterlimit="4" stroke-linejoin="miter" fill="none" stroke="#000000" d="M481 241H601V281H481Z"/>
<use data-text="6" xlink:href="#font_3_25" transform="matrix(10.053067,0,0,-10.053067,366.1067,191.72635)"/>
<use data-text="," xlink:href="#font_3_15" transform="matrix(10.053067,0,0,-10.053067,371.69618,191.72635)"/>
<use data-text="5" xlink:href="#font_3_24" transform="matrix(10.053067,0,0,-10.053067,374.49098,191.72635)"/>
<use data-text="9" xlink:href="#font_3_28" transform="matrix(10.053067,0,0,-10.053067,380.08045,191.72635)"/>
<use data-text="2" xlink:href="#font_3_21" transform="matrix(10.053067,0,0,-10.053067,385.66996,191.72635)"/>
<use data-text="," xlink:href="#font_3_15" transform="matrix(10.053067,0,0,-10.053067,391.25947,191.72635)"/>
<use data-text="7" xlink:href="#font_3_26" transform="matrix(10.053067,0,0,-10.053067,394.05424,191.72635)"/>
<use data-text="3" xlink:href="#font_3_22" transform="matrix(10.053067,0,0,-10.053067,399.64375,191.72635)"/>
<use data-text="5" xlink:href="#font_3_24" transform="matrix(10.053067,0,0,-10.053067,405.23326,191.72635)"/>
<path transform="matrix(.7180762,0,0,.7180762,.3590381,.3590381)" d="M241 321H361V361H241Z" fill="#ffffff"/>
<path transform="matrix(.7180762,0,0,.7180762,.3590381,.3590381)" stroke-width="1" stroke-linecap="butt" stroke-miterlimit="4" stroke-linejoin="miter" fill="none" stroke="#000000" d="M241 321H361V361H241Z"/>
<use data-text="U" xlink:href="#font_3_56" transform="matrix(10.053067,0,0,-10.053067,205.79616,249.17246)"/>
<use data-text="S" xlink:href="#font_3_54" transform="matrix(10.053067,0,0,-10.053067,213.05448,249.17246)"/>
<use data-text="A" xlink:href="#font_3_36" transform="matrix(10.053067,0,0,-10.053067,219.75988,249.17246)"/>
<path transform="matrix(.7180762,0,0,.7180762,.3590381,.3590381)" d="M361 321H481V361H361Z" fill="#ffffff"/>
<path transform="matrix(.7180762,0,0,.7180762,.3590381,.3590381)" stroke-width="1" stroke-linecap="butt" stroke-miterlimit="4" stroke-linejoin="miter" fill="none" stroke="#000000" d="M361 321H481V361H361Z"/>
<use data-text="W" xlink:href="#font_3_58" transform="matrix(10.053067,0,0,-10.053067,275.94325,249.17246)"/>
<use data-text="a" xlink:href="#font_3_68" transform="matrix(10.053067,0,0,-10.053067,285.05876,249.17246)"/>
<use data-text="s" xlink:href="#font_3_86" transform="matrix(10.053067,0,0,-10.053067,290.64823,249.17246)"/>
<use data-text="h" xlink:href="#font_3_75" transform="matrix(10.053067,0,0,-10.053067,295.67478,249.17246)"/>
<use data-text="i" xlink:href="#font_3_76" transform="matrix(10.053067,0,0,-10.053067,301.26429,249.17246)"/>
<use data-text="n" xlink:href="#font_3_81" transform="matrix(10.053067,0,0,-10.053067,303.49607,249.17246)"/>
<use data-text="g" xlink:href="#font_3_74" transform="matrix(10.053067,0,0,-10.053067,309.08558,249.17246)"/>
<use data-text="t" xlink:href="#font_3_87" transform="matrix(10.053067,0,0,-10.053067,314.67506,249.17246)"/>
<use data-text="o" xlink:href="#font_3_82" transform="matrix(10.053067,0,0,-10.053067,317.46983,249.17246)"/>
<use data-text="n" xlink:href="#font_3_81" transform="matrix(10.053067,0,0,-10.053067,323.05934,249.17246)"/>
<path transform="matrix(.7180762,0,0,.7180762,.3590381,.3590381)" d="M481 321H601V361H481Z" fill="#ffffff"/>
<path transform="matrix(.7180762,0,0,.7180762,.3590381,.3590381)" stroke-width="1" stroke-linecap="butt" stroke-miterlimit="4" stroke-linejoin="miter" fill="none" stroke="#000000" d="M481 321H601V361H481Z"/>
<use data-text="3" xlink:href="#font_3_22" transform="matrix(10.053067,0,0,-10.053067,366.1067,249.17246)"/>
<use data-text="," xlink:href="#font_3_15" transform="matrix(10.053067,0,0,-10.053067,371.69618,249.17246)"/>
<use data-text="7" xlink:href="#font_3_26" transform="matrix(10.053067,0,0,-10.053067,374.49098,249.17246)"/>
<use data-text="1" xlink:href="#font_3_20" transform="matrix(10.053067,0,0,-10.053067,380.08045,249.17246)"/>
<use data-text="8" xlink:href="#font_3_27" transform="matrix(10.053067,0,0,-10.053067,385.66996,249.17246)"/>
<use data-text="," xlink:href="#font_3_15" transform="matrix(10.053067,0,0,-10.053067,391.25947,249.17246)"/>
<use data-text="6" xlink:href="#font_3_25" transform="matrix(10.053067,0,0,-10.053067,394.05424,249.17246)"/>
<use data-text="9" xlink:href="#font_3_28" transform="matrix(10.053067,0,0,-10.053067,399.64375,249.17246)"/>
<use data-text="1" xlink:href="#font_3_20" transform="matrix(10.053067,0,0,-10.053067,405.23326,249.17246)"/>
<path transform="matrix(.7180762,0,0,.7180762,.3590381,.3590381)" stroke-width="1" stroke-linecap="butt" stroke-miterlimit="10" stroke-linejoin="miter" fill="none" stroke="#0000ff" d="M135.7 302.71 235.02 338.82"/>
<path transform="matrix(.7180762,0,0,.7180762,.3590381,.3590381)" d="M239.95 340.62 232.17 341.52 235.02 338.82 234.57 334.94 239.95 340.62Z" fill="#0000ff"/>
<path transform="matrix(.7180762,0,0,.7180762,.3590381,.3590381)" stroke-width="1" stroke-linecap="butt" stroke-miterlimit="10" stroke-linejoin="miter" fill="none" stroke="#0000ff" d="M239.95 340.62 232.17 341.52 235.02 338.82 234.57 334.94 239.95 340.62Z"/>
<path transform="matrix(.7180762,0,0,.7180762,.3590381,.3590381)" d="M136 301C135.99999 301.663 135.87313 302.30079 135.61939 302.91337 135.36565 303.52595 135.00435 304.06666 134.53553 304.5355 134.06668 305.00434 133.52597 305.3656 132.9134 305.61936 132.30084 305.8731 131.66304 305.99998 131 306 130.33696 305.99998 129.69915 305.8731 129.08658 305.61936 128.474 305.3656 127.9333 305.00434 127.46446 304.5355 126.99561 304.06666 126.63432 303.52595 126.38059 302.91337 126.126857 302.30079 125.99999 301.663 126 301 125.99999 300.33695 126.126857 299.6991 126.38059 299.08653 126.63432 298.47395 126.99561 297.93327 127.46446 297.46446 127.9333 296.9956 128.474 296.6343 129.08657 296.38059 129.69915 296.12687 130.33696 296 131 296 131.66304 296 132.30084 296.12687 132.9134 296.38059 133.52597 296.6343 134.06668 296.9956 134.53553 297.46446 135.00435 297.93327 135.36565 298.47395 135.61939 299.08653 135.87313 299.6991 135.99999 300.33695 136 301Z"/>
<path transform="matrix(.7180762,0,0,.7180762,.3590381,.3590381)" stroke-width="1" stroke-linecap="butt" stroke-miterlimit="10" stroke-linejoin="miter" fill="none" stroke="#0000ff" d="M136 261H234.63"/>
<path transform="matrix(.7180762,0,0,.7180762,.3590381,.3590381)" d="M239.88 261 232.88 264.5 234.63 261 232.88 257.5 239.88 261Z" fill="#0000ff"/>
<path transform="matrix(.7180762,0,0,.7180762,.3590381,.3590381)" stroke-width="1" stroke-linecap="butt" stroke-miterlimit="10" stroke-linejoin="miter" fill="none" stroke="#0000ff" d="M239.88 261 232.88 264.5 234.63 261 232.88 257.5 239.88 261Z"/>
<path transform="matrix(.7180762,0,0,.7180762,.3590381,.3590381)" d="M136 261C135.99999 261.66304 135.87313 262.3008 135.61939 262.9134 135.36565 263.52598 135.00435 264.06669 134.53553 264.53553 134.06668 265.00437 133.52597 265.36564 132.9134 265.6194 132.30084 265.8731 131.66304 265.99998 131 266 130.33696 265.99998 129.69915 265.8731 129.08658 265.6194 128.474 265.36564 127.9333 265.00437 127.46446 264.53553 126.99561 264.06669 126.63432 263.52598 126.38059 262.9134 126.126857 262.3008 125.99999 261.66304 126 261 125.99999 260.33695 126.126857 259.69914 126.38059 259.08656 126.63432 258.47398 126.99561 257.9333 127.46446 257.46446 127.9333 256.9956 128.474 256.6343 129.08657 256.38059 129.69915 256.12687 130.33696 256 131 256 131.66304 256 132.30084 256.12687 132.9134 256.38059 133.52597 256.6343 134.06668 256.9956 134.53553 257.46446 135.00435 257.9333 135.36565 258.47398 135.61939 259.08656 135.87313 259.69914 135.99999 260.33695 136 261Z"/>
<path transform="matrix(.7180762,0,0,.7180762,.3590381,.3590381)" stroke-width="1" stroke-linecap="butt" stroke-miterlimit="10" stroke-linejoin="miter" fill="none" stroke="#0000ff" d="M135.7 219.29 235.02 183.18"/>
<path transform="matrix(.7180762,0,0,.7180762,.3590381,.3590381)" d="M239.95 181.38 234.57 187.06 235.02 183.18 232.17 180.48 239.95 181.38Z" fill="#0000ff"/>
<path transform="matrix(.7180762,0,0,.7180762,.3590381,.3590381)" stroke-width="1" stroke-linecap="butt" stroke-miterlimit="10" stroke-linejoin="miter" fill="none" stroke="#0000ff" d="M239.95 181.38 234.57 187.06 235.02 183.18 232.17 180.48 239.95 181.38Z"/>
<path transform="matrix(.7180762,0,0,.7180762,.3590381,.3590381)" d="M136 221C135.99999 221.66303 135.87313 222.30083 135.61939 222.91339 135.36565 223.52597 135.00435 224.06668 134.53553 224.53554 134.06668 225.00437 133.52597 225.36565 132.9134 225.61939 132.30084 225.87313 131.66304 225.99999 131 226 130.33696 225.99999 129.69915 225.87313 129.08658 225.61939 128.474 225.36565 127.9333 225.00437 127.46446 224.53554 126.99561 224.06668 126.63432 223.52597 126.38059 222.91339 126.126857 222.30083 125.99999 221.66303 126 221 125.99999 220.33695 126.126857 219.69913 126.38059 219.08655 126.63432 218.47399 126.99561 217.93328 127.46446 217.46445 127.9333 216.9956 128.474 216.63433 129.08657 216.38059 129.69915 216.12686 130.33696 216 131 216 131.66304 216 132.30084 216.12686 132.9134 216.38059 133.52597 216.63433 134.06668 216.9956 134.53553 217.46445 135.00435 217.93328 135.36565 218.47399 135.61939 219.08655 135.87313 219.69913 135.99999 220.33695 136 221Z"/>
<path transform="matrix(.7180762,0,0,.7180762,.3590381,.3590381)" stroke-width="1" stroke-linecap="butt" stroke-miterlimit="10" stroke-linejoin="miter" fill="none" stroke="#0000ff" d="M135.06 178.08 235.85 104.75"/>
<path transform="matrix(.7180762,0,0,.7180762,.3590381,.3590381)" d="M240.1 101.66 236.5 108.61 235.85 104.75 232.38 102.95 240.1 101.66Z" fill="#0000ff"/>
<path transform="matrix(.7180762,0,0,.7180762,.3590381,.3590381)" stroke-width="1" stroke-linecap="butt" stroke-miterlimit="10" stroke-linejoin="miter" fill="none" stroke="#0000ff" d="M240.1 101.66 236.5 108.61 235.85 104.75 232.38 102.95 240.1 101.66Z"/>
<path transform="matrix(.7180762,0,0,.7180762,.3590381,.3590381)" d="M136 181C135.99999 181.66303 135.87313 182.30083 135.61939 182.91339 135.36565 183.52596 135.00435 184.06667 134.53553 184.53553 134.06668 185.00435 133.52597 185.36563 132.9134 185.61937 132.30084 185.87311 131.66304 185.99999 131 186 130.33696 185.99999 129.69915 185.87311 129.08658 185.61937 128.474 185.36563 127.9333 185.00435 127.46446 184.53553 126.99561 184.06667 126.63432 183.52596 126.38059 182.91339 126.126857 182.30083 125.99999 181.66303 126 181 125.99999 180.33695 126.126857 179.69913 126.38059 179.08657 126.63432 178.474 126.99561 177.9333 127.46446 177.46446 127.9333 176.9956 128.474 176.63433 129.08657 176.38059 129.69915 176.12686 130.33696 176 131 176 131.66304 176 132.30084 176.12686 132.9134 176.38059 133.52597 176.63433 134.06668 176.9956 134.53553 177.46446 135.00435 177.9333 135.36565 178.474 135.61939 179.08657 135.87313 179.69913 135.99999 180.33695 136 181Z"/>
<use data-text="I" xlink:href="#font_4_44" transform="matrix(11.48922,0,0,-11.48922,28.801589,98.37644)"/>
<use data-text="n" xlink:href="#font_4_81" transform="matrix(11.48922,0,0,-11.48922,31.995594,98.37644)"/>
<use data-text="d" xlink:href="#font_4_71" transform="matrix(11.48922,0,0,-11.48922,39.015508,98.37644)"/>
<use data-text="e" xlink:href="#font_4_72" transform="matrix(11.48922,0,0,-11.48922,46.03542,98.37644)"/>
<use data-text="x" xlink:href="#font_4_91" transform="matrix(11.48922,0,0,-11.48922,52.423429,98.37644)"/>
<use data-text="D" xlink:href="#font_4_39" transform="matrix(11.48922,0,0,-11.48922,289.85597,12.207296)"/>
<use data-text="a" xlink:href="#font_4_68" transform="matrix(11.48922,0,0,-11.48922,298.15119,12.207296)"/>
<use data-text="t" xlink:href="#font_4_87" transform="matrix(11.48922,0,0,-11.48922,304.53919,12.207296)"/>
<use data-text="a" xlink:href="#font_4_68" transform="matrix(11.48922,0,0,-11.48922,308.36509,12.207296)"/>
</g>
</svg>
