<svg xmlns="http://www.w3.org/2000/svg" xmlns:xlink="http://www.w3.org/1999/xlink" xmlns:inkscape="http://www.inkscape.org/namespaces/inkscape" version="1.1" width="217.19776" height="404.29927" viewBox="0 0 217.19776 404.29927">
<g>
<path d="M212.273 130.301H154.34V161.008H212.273ZM212.273 161.258H154.34V191.844H212.273ZM212.273 192.094H154.34V222.676H212.273ZM212.273 222.926H154.34V253.508H212.273ZM212.273 253.758H154.34V284.344H212.273ZM212.273 284.594H154.34V315.176H212.273ZM212.273 315.426H154.34V346.133H212.273ZM212.273 315.426" fill="#cacaca"/>
<path stroke-width=".25" stroke-linecap="butt" stroke-miterlimit="10" stroke-linejoin="miter" fill="none" stroke="#e6e8eb" d="M154.34 315.301H212.273ZM154.34 315.301"/>
<path stroke-width=".25" stroke-linecap="butt" stroke-miterlimit="10" stroke-linejoin="miter" fill="none" stroke="#e6e8eb" d="M154.34 284.469H212.273ZM154.34 284.469"/>
<path stroke-width=".25" stroke-linecap="butt" stroke-miterlimit="10" stroke-linejoin="miter" fill="none" stroke="#e6e8eb" d="M154.34 253.633H212.273ZM154.34 253.633"/>
<path stroke-width=".25" stroke-linecap="butt" stroke-miterlimit="10" stroke-linejoin="miter" fill="none" stroke="#e6e8eb" d="M154.34 222.801H212.273ZM154.34 222.801"/>
<path stroke-width=".25" stroke-linecap="butt" stroke-miterlimit="10" stroke-linejoin="miter" fill="none" stroke="#e6e8eb" d="M154.34 191.969H212.273ZM154.34 191.969"/>
<path stroke-width=".25" stroke-linecap="butt" stroke-miterlimit="10" stroke-linejoin="miter" fill="none" stroke="#e6e8eb" d="M154.34 161.133H212.273ZM154.34 161.133"/>
<path d="M130.555 144.535C128.195 144.535 125.742 145.52 125.742 147.848 125.742 149.457 127.133 150.457 128.742 150.457 130.32 150.457 131.398 149.566 131.898 149.145 132.086 149.66 132.352 150.457 133.633 150.457 134.055 150.457 134.43 150.332 134.945 150.176L134.773 149.145C134.617 149.191 134.398 149.238 134.242 149.238 133.352 149.238 133.352 148.488 133.352 147.738V143.77C133.352 141.613 132.648 140.551 130.008 140.551 128.414 140.551 127.352 140.926 126.57 141.207V142.691C127.133 142.395 128.18 141.848 129.68 141.848 131.633 141.848 131.633 143.066 131.633 143.707V144.535ZM131.633 145.613V148.035C130.664 148.832 129.836 149.082 129.211 149.082 127.852 149.082 127.523 148.129 127.523 147.551 127.523 145.613 130.383 145.613 131.102 145.613ZM131.633 145.613" fill="#5c5c5c"/>
<path d="M185.621 150.629C189.277 150.629 190.059 146.254 190.059 143.785 190.059 141.301 189.246 136.957 185.621 136.957 181.98 136.957 181.168 141.285 181.168 143.785 181.168 146.27 181.98 150.629 185.621 150.629ZM185.621 149.332C183.059 149.332 183.012 145.223 183.012 143.801 183.012 142.488 183.027 138.254 185.621 138.254 188.215 138.254 188.23 142.473 188.23 143.785 188.23 145.207 188.184 149.332 185.621 149.332ZM185.621 149.332"/>
<path d="M126.086 181.242H127.383L127.711 180.055H127.82C128.195 180.508 128.867 181.352 130.43 181.352 132.477 181.352 134.414 179.633 134.414 176.055 134.414 173.414 133.273 171.383 130.93 171.383 129.07 171.383 128.133 172.867 127.82 173.367H127.711L127.82 171.586V167.258H126.086ZM127.82 174.695C129.102 172.852 130.383 172.852 130.57 172.852 132.586 172.852 132.586 175.57 132.586 176.227 132.586 177.492 132.383 178.648 131.711 179.352 131.383 179.727 130.82 180.055 130.195 180.055 129.773 180.055 128.898 179.93 127.82 178.758ZM127.82 174.695" fill="#5c5c5c"/>
<path d="M181.668 181.258H189.059V179.742H183.73C183.84 179.273 183.918 178.914 184.434 178.164 184.824 177.57 185.371 176.867 186.168 176.117L186.918 175.414C187.684 174.695 189.121 173.336 189.121 171.523 189.121 169.852 188.059 167.914 185.152 167.914 183.621 167.914 182.652 168.336 181.996 168.602V170.133C182.777 169.727 183.746 169.211 184.98 169.211 186.512 169.211 187.277 170.289 187.277 171.523 187.277 172.773 186.559 173.883 185.652 174.773L184.887 175.555C184.215 176.195 182.699 177.742 181.668 179.742ZM181.668 181.258"/>
<path d="M134.07 202.652C133.242 202.418 132.273 202.215 131.023 202.215 127.289 202.215 125.992 204.699 125.992 207.199 125.992 208.246 126.211 209.73 127.273 210.809 127.992 211.559 129.133 212.184 131.18 212.184 132.711 212.184 133.602 211.871 134.242 211.652V210.293C133.758 210.496 132.68 210.887 131.414 210.887 129.148 210.887 127.836 209.48 127.836 207.199 127.836 205.215 128.82 203.512 131.18 203.512 132.367 203.512 133.398 203.871 134.07 204.121ZM134.07 202.652" fill="#5c5c5c"/>
<path d="M182.59 212.012C183.184 212.199 183.98 212.418 185.012 212.418 187.324 212.418 189.246 210.777 189.246 208.293 189.246 207.027 188.762 205.949 188.059 205.246 186.793 204.012 184.98 203.996 184.293 203.965V200.59H188.918V199.074H182.824V205.293C183.168 205.262 183.324 205.246 183.605 205.246 185.762 205.246 187.418 205.949 187.418 208.168 187.418 209.918 186.371 211.121 184.949 211.121 184.059 211.121 183.137 210.762 182.59 210.543ZM182.59 212.012"/>
<path d="M132.289 242.801H134.023V228.926H132.289V233.051L132.398 234.348H132.289C131.914 233.879 131.227 233.051 129.68 233.051 127.602 233.051 125.664 234.77 125.664 238.332 125.664 241.02 126.836 243.02 129.164 243.02 131.039 243.02 131.945 241.566 132.289 241.02H132.398ZM132.289 239.707C130.992 241.535 129.695 241.535 129.523 241.535 127.508 241.535 127.508 238.816 127.508 238.176 127.508 236.895 127.711 235.738 128.367 235.035 128.727 234.66 129.273 234.348 129.914 234.348 130.32 234.348 131.195 234.473 132.289 235.645ZM132.289 239.707" fill="#5c5c5c"/>
<path d="M189.355 230.066C188.699 229.879 187.777 229.582 186.715 229.582 184.668 229.582 181.621 231.113 181.621 236.676 181.621 239.457 182.309 243.254 185.98 243.254 188.871 243.254 190.059 240.691 190.059 238.676 190.059 236.145 188.215 234.613 186.434 234.613 185.668 234.613 184.918 234.879 184.324 235.316 183.902 235.613 183.684 235.91 183.434 236.27 183.418 233.488 184.34 230.879 186.871 230.879 187.793 230.879 188.496 231.191 189.355 231.551ZM186.137 241.957C184.449 241.957 183.652 240.395 183.652 238.66 183.652 235.941 185.73 235.848 186.012 235.848 187.621 235.848 188.387 237.363 188.387 239.02 188.387 239.973 187.996 241.957 186.137 241.957ZM186.137 241.957"/>
<path d="M134.133 268.758C134.133 266.992 133.93 263.883 130.273 263.883 127.43 263.883 125.789 266.336 125.789 268.977 125.789 269.914 126.008 271.586 127.195 272.68 128.008 273.414 129.18 273.852 130.914 273.852 132.398 273.852 133.43 273.508 134.18 273.258V271.883C132.523 272.555 131.352 272.555 131.148 272.555 130.82 272.555 129.211 272.523 128.352 271.461 127.727 270.695 127.68 269.852 127.648 269.32H134.133ZM127.711 268.023C127.883 265.898 129.086 265.18 130.148 265.18 132.336 265.18 132.32 267.273 132.289 268.023ZM127.711 268.023" fill="#5c5c5c"/>
<path d="M184.059 266.664C182.137 267.82 181.605 269.414 181.605 270.477 181.605 272.07 182.684 274.086 185.652 274.086 188.59 274.086 189.887 272.055 189.887 270.32 189.887 268.289 188.277 267.32 187.09 266.602 188.699 265.602 189.355 264.367 189.355 263.227 189.355 262.742 189.246 262.07 188.762 261.461 188.184 260.742 187.309 260.414 185.996 260.414 182.777 260.414 182.262 262.727 182.262 263.68 182.262 264.867 182.902 265.82 184.059 266.664ZM186.137 268.07C187.543 268.898 188.152 269.742 188.152 270.695 188.152 271.758 187.277 272.789 185.809 272.789 184.387 272.789 183.309 271.836 183.309 270.273 183.309 268.742 184.293 267.93 184.965 267.367ZM185.637 265.711C184.152 264.836 183.887 264.07 183.887 263.43 183.887 262.727 184.34 261.711 185.84 261.711 187.512 261.711 187.793 262.992 187.793 263.523 187.793 264.211 187.34 265.211 186.105 265.992ZM185.637 265.711"/>
<path d="M128.461 304.465H130.195V296.434H134.742V295.137H130.195V293.949C130.195 293.012 130.195 291.668 132.57 291.668 133.82 291.668 134.602 291.934 135.102 292.121V290.746C134.57 290.59 133.836 290.371 132.414 290.371 128.461 290.371 128.461 292.887 128.461 294.137V295.137H125.852V296.434H128.461ZM128.461 304.465" fill="#5c5c5c"/>
<path d="M182.215 304.449C182.902 304.637 183.855 304.918 184.887 304.918 186.855 304.918 189.949 303.434 189.949 297.824 189.949 295.043 189.277 291.246 185.605 291.246 182.668 291.246 181.512 293.84 181.512 295.824 181.512 298.34 183.355 299.887 185.152 299.887 185.902 299.887 186.668 299.621 187.262 299.184 187.668 298.887 187.887 298.59 188.137 298.23 188.152 301.105 187.168 303.621 184.715 303.621 183.918 303.621 183.246 303.387 182.215 302.965ZM185.434 292.543C187.105 292.543 187.918 294.09 187.918 295.84 187.918 298.559 185.84 298.652 185.559 298.652 183.996 298.652 183.184 297.168 183.184 295.48 183.184 294.512 183.59 292.543 185.434 292.543ZM185.434 292.543"/>
<path d="M126.398 329.238H133.554V330.535H126.398Z" fill="#5c5c5c"/>
<path d="M176.406 335.426H185.078V334.129H181.609V322.082L176.406 323.707V324.785L179.875 324.02V334.129H176.406ZM176.406 335.426"/>
<path d="M187.086 335.426H194.477V333.91H189.148C189.258 333.441 189.336 333.082 189.852 332.332 190.242 331.738 190.789 331.035 191.586 330.285L192.336 329.582C193.102 328.863 194.539 327.504 194.539 325.691 194.539 324.02 193.477 322.082 190.57 322.082 189.039 322.082 188.07 322.504 187.414 322.77V324.301C188.195 323.895 189.164 323.379 190.398 323.379 191.93 323.379 192.695 324.457 192.695 325.691 192.695 326.941 191.977 328.051 191.07 328.941L190.305 329.723C189.633 330.363 188.117 331.91 187.086 333.91ZM187.086 335.426"/>
<path d="M13.094 12.344H14.625V3.859H10V5.016H13.094ZM12.891 1.922H14.813V0H12.891ZM12.891 1.922" fill="#005191"/>
<path d="M42.883 7.219C40.789 7.219 38.617 8.094 38.617 10.172 38.617 11.594 39.836 12.484 41.289 12.484 42.68 12.484 43.633 11.688 44.086 11.313 44.242 11.766 44.477 12.484 45.617 12.484 46.008 12.484 46.336 12.375 46.789 12.234L46.648 11.313C46.492 11.359 46.305 11.406 46.164 11.406 45.383 11.406 45.383 10.734 45.383 10.078V6.531C45.383 4.609 44.758 3.672 42.398 3.672 40.977 3.672 40.039 4 39.352 4.266V5.578C39.836 5.313 40.773 4.828 42.117 4.828 43.836 4.828 43.836 5.906 43.836 6.484V7.219ZM43.836 8.188V10.328C42.977 11.031 42.242 11.25 41.695 11.25 40.477 11.25 40.195 10.406 40.195 9.891 40.195 8.188 42.742 8.188 43.383 8.188ZM43.836 8.188" fill="#005191"/>
<path d="M50.652 14.641H55.465V13.5H51.996V1.156H55.465V0H50.652ZM50.652 14.641" fill="#005191"/>
<path d="M61.254 12.344H62.785V3.859H58.16V5.016H61.254ZM61.051 1.922H62.973V0H61.051ZM61.051 1.922" fill="#005191"/>
<path d="M72.605 0H67.793V1.156H71.262V13.5H67.793V14.641H72.605ZM72.605 0" fill="#005191"/>
<path d="M83.918 34.301H32.281V65.008H83.918ZM83.918 65.258H32.281V95.844H83.918ZM83.918 96.094H32.281V126.676H83.918ZM83.918 126.926H32.281V157.508H83.918ZM83.918 157.758H32.281V188.344H83.918ZM83.918 188.594H32.281V219.176H83.918ZM83.918 219.426H32.281V250.008H83.918ZM83.918 250.258H32.281V280.844H83.918ZM83.918 281.094H32.281V311.676H83.918ZM83.918 311.926H32.281V342.508H83.918ZM83.918 342.758H32.281V373.344H83.918ZM83.918 373.594H32.281V404.301H83.918ZM83.918 373.594" fill="#cacaca"/>
<path stroke-width=".25" stroke-linecap="butt" stroke-miterlimit="10" stroke-linejoin="miter" fill="none" stroke="#e6e8eb" d="M32.281 373.469H83.918ZM32.281 373.469"/>
<path stroke-width=".25" stroke-linecap="butt" stroke-miterlimit="10" stroke-linejoin="miter" fill="none" stroke="#e6e8eb" d="M32.281 342.633H83.918ZM32.281 342.633"/>
<path stroke-width=".25" stroke-linecap="butt" stroke-miterlimit="10" stroke-linejoin="miter" fill="none" stroke="#e6e8eb" d="M32.281 311.801H83.918ZM32.281 311.801"/>
<path stroke-width=".25" stroke-linecap="butt" stroke-miterlimit="10" stroke-linejoin="miter" fill="none" stroke="#e6e8eb" d="M32.281 280.969H83.918ZM32.281 280.969"/>
<path stroke-width=".25" stroke-linecap="butt" stroke-miterlimit="10" stroke-linejoin="miter" fill="none" stroke="#e6e8eb" d="M32.281 250.133H83.918ZM32.281 250.133"/>
<path stroke-width=".25" stroke-linecap="butt" stroke-miterlimit="10" stroke-linejoin="miter" fill="none" stroke="#e6e8eb" d="M32.281 219.301H83.918ZM32.281 219.301"/>
<path stroke-width=".25" stroke-linecap="butt" stroke-miterlimit="10" stroke-linejoin="miter" fill="none" stroke="#e6e8eb" d="M32.281 188.469H83.918ZM32.281 188.469"/>
<path stroke-width=".25" stroke-linecap="butt" stroke-miterlimit="10" stroke-linejoin="miter" fill="none" stroke="#e6e8eb" d="M32.281 157.633H83.918ZM32.281 157.633"/>
<path stroke-width=".25" stroke-linecap="butt" stroke-miterlimit="10" stroke-linejoin="miter" fill="none" stroke="#e6e8eb" d="M32.281 126.801H83.918ZM32.281 126.801"/>
<path stroke-width=".25" stroke-linecap="butt" stroke-miterlimit="10" stroke-linejoin="miter" fill="none" stroke="#e6e8eb" d="M32.281 95.969H83.918ZM32.281 95.969"/>
<path stroke-width=".25" stroke-linecap="butt" stroke-miterlimit="10" stroke-linejoin="miter" fill="none" stroke="#e6e8eb" d="M32.281 65.133H83.918ZM32.281 65.133"/>
<path d="M9.215 54.629C12.871 54.629 13.652 50.254 13.652 47.785 13.652 45.301 12.84 40.957 9.215 40.957 5.574 40.957 4.762 45.285 4.762 47.785 4.762 50.27 5.574 54.629 9.215 54.629ZM9.215 53.332C6.652 53.332 6.605 49.223 6.605 47.801 6.605 46.488 6.621 42.254 9.215 42.254 11.809 42.254 11.824 46.473 11.824 47.785 11.824 49.207 11.777 53.332 9.215 53.332ZM9.215 53.332" fill="#5c5c5c"/>
<path d="M60.418 54.301H62.152V40.426H60.418V44.551L60.527 45.848H60.418C60.043 45.379 59.355 44.551 57.809 44.551 55.73 44.551 53.793 46.27 53.793 49.832 53.793 52.52 54.965 54.52 57.293 54.52 59.168 54.52 60.074 53.066 60.418 52.52H60.527ZM60.418 51.207C59.121 53.035 57.824 53.035 57.652 53.035 55.637 53.035 55.637 50.316 55.637 49.676 55.637 48.395 55.84 47.238 56.496 46.535 56.855 46.16 57.402 45.848 58.043 45.848 58.449 45.848 59.324 45.973 60.418 47.145ZM60.418 51.207"/>
<path d="M5.418 85.133H14.09V83.836H10.621V71.789L5.418 73.414V74.492L8.887 73.727V83.836H5.418ZM5.418 85.133" fill="#5c5c5c"/>
<path d="M58.684 79.492C56.324 79.492 53.871 80.477 53.871 82.805 53.871 84.414 55.262 85.414 56.871 85.414 58.449 85.414 59.527 84.523 60.027 84.102 60.215 84.617 60.48 85.414 61.762 85.414 62.184 85.414 62.559 85.289 63.074 85.133L62.902 84.102C62.746 84.148 62.527 84.195 62.371 84.195 61.48 84.195 61.48 83.445 61.48 82.695V78.727C61.48 76.57 60.777 75.508 58.137 75.508 56.543 75.508 55.48 75.883 54.699 76.164V77.648C55.262 77.352 56.309 76.805 57.809 76.805 59.762 76.805 59.762 78.023 59.762 78.664V79.492ZM59.762 80.57V82.992C58.793 83.789 57.965 84.039 57.34 84.039 55.98 84.039 55.652 83.086 55.652 82.508 55.652 80.57 58.512 80.57 59.23 80.57ZM59.762 80.57"/>
<path d="M5.262 115.965H12.652V114.449H7.324C7.434 113.98 7.512 113.621 8.027 112.871 8.418 112.277 8.965 111.574 9.762 110.824L10.512 110.121C11.277 109.402 12.715 108.043 12.715 106.23 12.715 104.559 11.652 102.621 8.746 102.621 7.215 102.621 6.246 103.043 5.59 103.309V104.84C6.371 104.434 7.34 103.918 8.574 103.918 10.105 103.918 10.871 104.996 10.871 106.23 10.871 107.48 10.152 108.59 9.246 109.48L8.48 110.262C7.809 110.902 6.293 112.449 5.262 114.449ZM5.262 115.965" fill="#5c5c5c"/>
<path d="M62.199 106.777C61.371 106.543 60.402 106.34 59.152 106.34 55.418 106.34 54.121 108.824 54.121 111.324 54.121 112.371 54.34 113.855 55.402 114.934 56.121 115.684 57.262 116.309 59.309 116.309 60.84 116.309 61.73 115.996 62.371 115.777V114.418C61.887 114.621 60.809 115.012 59.543 115.012 57.277 115.012 55.965 113.605 55.965 111.324 55.965 109.34 56.949 107.637 59.309 107.637 60.496 107.637 61.527 107.996 62.199 108.246ZM62.199 106.777"/>
<path d="M5.855 146.723C6.449 146.91 7.246 147.129 8.527 147.129 8.84 147.129 10.152 147.129 11.105 146.582 12.512 145.785 13.027 144.348 13.027 143.207 13.027 142.504 12.824 141.707 12.324 141.004 11.715 140.191 10.934 139.926 10.293 139.707 10.762 139.488 11.355 139.223 11.934 138.473 12.48 137.723 12.637 137.004 12.637 136.426 12.637 135.285 11.996 133.457 8.934 133.457 7.465 133.457 6.559 133.77 6.043 133.973V135.473C6.527 135.223 7.559 134.754 8.855 134.754 10.027 134.754 10.902 135.441 10.902 136.723 10.902 137.488 10.637 137.988 10.418 138.254 9.699 139.207 8.762 139.223 7.559 139.223H7.059V140.457H7.902C9.09 140.457 9.684 140.676 10.324 141.16 10.887 141.598 11.184 142.441 11.184 143.223 11.184 144.098 10.684 145.832 8.559 145.832 7.715 145.832 6.918 145.582 5.855 145.191ZM5.855 146.723" fill="#5c5c5c"/>
<path d="M56.59 146.926H58.324V138.895H62.871V137.598H58.324V136.41C58.324 135.473 58.324 134.129 60.699 134.129 61.949 134.129 62.73 134.395 63.23 134.582V133.207C62.699 133.051 61.965 132.832 60.543 132.832 56.59 132.832 56.59 135.348 56.59 136.598V137.598H53.98V138.895H56.59ZM56.59 146.926"/>
<path d="M10.199 177.633H11.824V174.164H13.543V172.867H11.824V164.617H10.199L4.777 172.695V174.164H10.199ZM10.199 166.961V172.867H6.246ZM10.199 166.961" fill="#5c5c5c"/>
<path d="M56.59 177.758H58.324V169.727H62.871V168.43H58.324V167.242C58.324 166.305 58.324 164.961 60.699 164.961 61.949 164.961 62.73 165.227 63.23 165.414V164.039C62.699 163.883 61.965 163.664 60.543 163.664 56.59 163.664 56.59 166.18 56.59 167.43V168.43H53.98V169.727H56.59ZM56.59 177.758"/>
<path d="M6.184 208.387C6.777 208.574 7.574 208.793 8.605 208.793 10.918 208.793 12.84 207.152 12.84 204.668 12.84 203.402 12.355 202.324 11.652 201.621 10.387 200.387 8.574 200.371 7.887 200.34V196.965H12.512V195.449H6.418V201.668C6.762 201.637 6.918 201.621 7.199 201.621 9.355 201.621 11.012 202.324 11.012 204.543 11.012 206.293 9.965 207.496 8.543 207.496 7.652 207.496 6.73 207.137 6.184 206.918ZM6.184 208.387" fill="#5c5c5c"/>
<path d="M54.215 208.699H55.512L55.84 207.512H55.949C56.324 207.965 56.996 208.809 58.559 208.809 60.605 208.809 62.543 207.09 62.543 203.512 62.543 200.871 61.402 198.84 59.059 198.84 57.199 198.84 56.262 200.324 55.949 200.824H55.84L55.949 199.043V194.715H54.215ZM55.949 202.152C57.23 200.309 58.512 200.309 58.699 200.309 60.715 200.309 60.715 203.027 60.715 203.684 60.715 204.949 60.512 206.105 59.84 206.809 59.512 207.184 58.949 207.512 58.324 207.512 57.902 207.512 57.027 207.387 55.949 206.215ZM55.949 202.152"/>
<path d="M12.949 226.441C12.293 226.254 11.371 225.957 10.309 225.957 8.262 225.957 5.215 227.488 5.215 233.051 5.215 235.832 5.902 239.629 9.574 239.629 12.465 239.629 13.652 237.066 13.652 235.051 13.652 232.52 11.809 230.988 10.027 230.988 9.262 230.988 8.512 231.254 7.918 231.691 7.496 231.988 7.277 232.285 7.027 232.645 7.012 229.863 7.934 227.254 10.465 227.254 11.387 227.254 12.09 227.566 12.949 227.926ZM9.73 238.332C8.043 238.332 7.246 236.77 7.246 235.035 7.246 232.316 9.324 232.223 9.605 232.223 11.215 232.223 11.98 233.738 11.98 235.395 11.98 236.348 11.59 238.332 9.73 238.332ZM9.73 238.332" fill="#5c5c5c"/>
<path d="M60.418 239.426H62.152V225.551H60.418V229.676L60.527 230.973H60.418C60.043 230.504 59.355 229.676 57.809 229.676 55.73 229.676 53.793 231.395 53.793 234.957 53.793 237.645 54.965 239.645 57.293 239.645 59.168 239.645 60.074 238.191 60.418 237.645H60.527ZM60.418 236.332C59.121 238.16 57.824 238.16 57.652 238.16 55.637 238.16 55.637 235.441 55.637 234.801 55.637 233.52 55.84 232.363 56.496 231.66 56.855 231.285 57.402 230.973 58.043 230.973 58.449 230.973 59.324 231.098 60.418 232.27ZM60.418 236.332"/>
<path d="M9.043 263.523C7.246 266.711 6.512 268.008 6.262 270.133H8.324C8.418 269.43 8.543 268.336 9.434 266.195 10.699 263.148 12.074 260.805 13.402 258.57V257.117H5.559V258.742H11.746ZM9.043 263.523" fill="#5c5c5c"/>
<path d="M54.215 270.367H55.512L55.84 269.18H55.949C56.324 269.633 56.996 270.477 58.559 270.477 60.605 270.477 62.543 268.758 62.543 265.18 62.543 262.539 61.402 260.508 59.059 260.508 57.199 260.508 56.262 261.992 55.949 262.492H55.84L55.949 260.711V256.383H54.215ZM55.949 263.82C57.23 261.977 58.512 261.977 58.699 261.977 60.715 261.977 60.715 264.695 60.715 265.352 60.715 266.617 60.512 267.773 59.84 268.477 59.512 268.852 58.949 269.18 58.324 269.18 57.902 269.18 57.027 269.055 55.949 267.883ZM55.949 263.82"/>
<path d="M7.652 293.871C5.73 295.027 5.199 296.621 5.199 297.684 5.199 299.277 6.277 301.293 9.246 301.293 12.184 301.293 13.48 299.262 13.48 297.527 13.48 295.496 11.871 294.527 10.684 293.809 12.293 292.809 12.949 291.574 12.949 290.434 12.949 289.949 12.84 289.277 12.355 288.668 11.777 287.949 10.902 287.621 9.59 287.621 6.371 287.621 5.855 289.934 5.855 290.887 5.855 292.074 6.496 293.027 7.652 293.871ZM9.73 295.277C11.137 296.105 11.746 296.949 11.746 297.902 11.746 298.965 10.871 299.996 9.402 299.996 7.98 299.996 6.902 299.043 6.902 297.48 6.902 295.949 7.887 295.137 8.559 294.574ZM9.23 292.918C7.746 292.043 7.48 291.277 7.48 290.637 7.48 289.934 7.934 288.918 9.434 288.918 11.105 288.918 11.387 290.199 11.387 290.73 11.387 291.418 10.934 292.418 9.699 293.199ZM9.23 292.918" fill="#5c5c5c"/>
<path d="M56.59 301.09H58.324V293.059H62.871V291.762H58.324V290.574C58.324 289.637 58.324 288.293 60.699 288.293 61.949 288.293 62.73 288.559 63.23 288.746V287.371C62.699 287.215 61.965 286.996 60.543 286.996 56.59 286.996 56.59 289.512 56.59 290.762V291.762H53.98V293.059H56.59ZM56.59 301.09"/>
<path d="M5.809 331.66C6.496 331.848 7.449 332.129 8.48 332.129 10.449 332.129 13.543 330.645 13.543 325.035 13.543 322.254 12.871 318.457 9.199 318.457 6.262 318.457 5.105 321.051 5.105 323.035 5.105 325.551 6.949 327.098 8.746 327.098 9.496 327.098 10.262 326.832 10.855 326.395 11.262 326.098 11.48 325.801 11.73 325.441 11.746 328.316 10.762 330.832 8.309 330.832 7.512 330.832 6.84 330.598 5.809 330.176ZM9.027 319.754C10.699 319.754 11.512 321.301 11.512 323.051 11.512 325.77 9.434 325.863 9.152 325.863 7.59 325.863 6.777 324.379 6.777 322.691 6.777 321.723 7.184 319.754 9.027 319.754ZM9.027 319.754" fill="#5c5c5c"/>
<path d="M54.215 332.035H55.512L55.84 330.848H55.949C56.324 331.301 56.996 332.145 58.559 332.145 60.605 332.145 62.543 330.426 62.543 326.848 62.543 324.207 61.402 322.176 59.059 322.176 57.199 322.176 56.262 323.66 55.949 324.16H55.84L55.949 322.379V318.051H54.215ZM55.949 325.488C57.23 323.645 58.512 323.645 58.699 323.645 60.715 323.645 60.715 326.363 60.715 327.02 60.715 328.285 60.512 329.441 59.84 330.145 59.512 330.52 58.949 330.848 58.324 330.848 57.902 330.848 57.027 330.723 55.949 329.551ZM55.949 325.488"/>
<path d="M0 362.633H8.672V361.336H5.203V349.289L0 350.914V351.992L3.469 351.227V361.336H0ZM0 362.633" fill="#5c5c5c"/>
<path d="M14.633 362.961C18.289 362.961 19.07 358.586 19.07 356.117 19.07 353.633 18.258 349.289 14.633 349.289 10.992 349.289 10.18 353.617 10.18 356.117 10.18 358.602 10.992 362.961 14.633 362.961ZM14.633 361.664C12.07 361.664 12.023 357.555 12.023 356.133 12.023 354.82 12.039 350.586 14.633 350.586 17.227 350.586 17.242 354.805 17.242 356.117 17.242 357.539 17.195 361.664 14.633 361.664ZM14.633 361.664" fill="#5c5c5c"/>
<path d="M62.262 357.883C62.262 356.117 62.059 353.008 58.402 353.008 55.559 353.008 53.918 355.461 53.918 358.102 53.918 359.039 54.137 360.711 55.324 361.805 56.137 362.539 57.309 362.977 59.043 362.977 60.527 362.977 61.559 362.633 62.309 362.383V361.008C60.652 361.68 59.48 361.68 59.277 361.68 58.949 361.68 57.34 361.648 56.48 360.586 55.855 359.82 55.809 358.977 55.777 358.445H62.262ZM55.84 357.148C56.012 355.023 57.215 354.305 58.277 354.305 60.465 354.305 60.449 356.398 60.418 357.148ZM55.84 357.148"/>
<path d="M0 393.465H8.672V392.168H5.203V380.121L0 381.746V382.824L3.469 382.059V392.168H0ZM0 393.465" fill="#5c5c5c"/>
<path d="M10.836 393.465H19.508V392.168H16.039V380.121L10.836 381.746V382.824L14.305 382.059V392.168H10.836ZM10.836 393.465" fill="#5c5c5c"/>
<path d="M58.684 387.824C56.324 387.824 53.871 388.809 53.871 391.137 53.871 392.746 55.262 393.746 56.871 393.746 58.449 393.746 59.527 392.855 60.027 392.434 60.215 392.949 60.48 393.746 61.762 393.746 62.184 393.746 62.559 393.621 63.074 393.465L62.902 392.434C62.746 392.48 62.527 392.527 62.371 392.527 61.48 392.527 61.48 391.777 61.48 391.027V387.059C61.48 384.902 60.777 383.84 58.137 383.84 56.543 383.84 55.48 384.215 54.699 384.496V385.98C55.262 385.684 56.309 385.137 57.809 385.137 59.762 385.137 59.762 386.355 59.762 386.996V387.824ZM59.762 388.902V391.324C58.793 392.121 57.965 392.371 57.34 392.371 55.98 392.371 55.652 391.418 55.652 390.84 55.652 388.902 58.512 388.902 59.23 388.902ZM59.762 388.902"/>
<path d="M126.777 111.898H128.309V106.383C128.652 105.883 129.652 104.539 131.215 104.539 131.512 104.539 131.668 104.57 131.871 104.617V105.836H133.027V103.414C132.637 103.336 132.152 103.227 131.465 103.227 130.855 103.227 129.465 103.258 128.309 105.008H128.215L128.309 103.414H126.777ZM126.777 111.898" fill="#005191"/>
<path d="M152.086 103.633C151.352 103.414 150.477 103.227 149.367 103.227 146.055 103.227 144.898 105.43 144.898 107.664 144.898 108.586 145.086 109.914 146.039 110.867 146.68 111.523 147.68 112.086 149.508 112.086 150.867 112.086 151.664 111.82 152.227 111.633V110.414C151.789 110.586 150.836 110.945 149.711 110.945 147.695 110.945 146.523 109.695 146.523 107.664 146.523 105.898 147.414 104.383 149.508 104.383 150.555 104.383 151.477 104.695 152.086 104.93ZM152.086 103.633" fill="#005191"/>
<path d="M158.063 112.086C160.969 112.086 162.063 109.914 162.063 107.664 162.063 105.461 161.016 103.227 158.063 103.227 155.203 103.227 154.063 105.352 154.063 107.664 154.063 109.82 155.094 112.086 158.063 112.086ZM158.063 110.945C156.297 110.945 155.703 109.289 155.703 107.664 155.703 105.977 156.328 104.383 158.063 104.383 159.813 104.383 160.438 105.977 160.438 107.664 160.438 109.227 159.875 110.945 158.063 110.945ZM158.063 110.945" fill="#005191"/>
<path d="M171.086 103.414H169.555V108.977C168.523 110.336 167.789 110.633 167.133 110.633 165.789 110.633 165.789 109.477 165.789 108.805V103.414H164.258V109.227C164.258 110.32 164.383 110.727 164.789 111.273 165.227 111.852 166.008 112.086 166.68 112.086 167.336 112.086 168.648 111.852 169.555 110.32H169.648L169.555 111.898H171.086ZM171.086 103.414" fill="#005191"/>
<path d="M173.934 111.898H175.465V106.352C176.465 105.039 177.199 104.68 177.887 104.68 179.23 104.68 179.23 105.836 179.23 106.508V111.898H180.762V106.086C180.762 105.008 180.637 104.586 180.246 104.039 179.809 103.461 179.012 103.227 178.355 103.227 177.574 103.227 176.34 103.555 175.465 105.008H175.371L175.465 103.414H173.934ZM173.934 111.898" fill="#005191"/>
<path d="M185.285 108.852C185.285 111.039 185.676 112.086 188.551 112.086 188.738 112.086 189.598 112.086 190.738 111.898V110.711C190.113 110.852 189.473 110.945 188.832 110.945 188.41 110.945 187.645 110.883 187.176 110.492 186.863 110.258 186.816 109.945 186.816 109.117V104.758H190.582V103.617H186.816V101.789H185.285V103.617H183.176V104.758H185.285ZM185.285 108.852" fill="#005191"/>
<path d="M195.246 114.195H200.059V113.055H196.59V100.711H200.059V99.555H195.246ZM195.246 114.195" fill="#005191"/>
<path d="M203.832 111.898H205.363V106.383C205.707 105.883 206.707 104.539 208.27 104.539 208.566 104.539 208.723 104.57 208.926 104.617V105.836H210.082V103.414C209.691 103.336 209.207 103.227 208.52 103.227 207.91 103.227 206.52 103.258 205.363 105.008H205.27L205.363 103.414H203.832ZM203.832 111.898" fill="#005191"/>
<path d="M217.199 99.555H212.387V100.711H215.855V113.055H212.387V114.195H217.199ZM217.199 99.555" fill="#005191"/>
</g>
</svg>
