<svg xmlns="http://www.w3.org/2000/svg" xmlns:xlink="http://www.w3.org/1999/xlink" xmlns:inkscape="http://www.inkscape.org/namespaces/inkscape" version="1.1" width="239.56586" height="404.29927" viewBox="0 0 239.56586 404.29927">
<g>
<path d="M13.094 12.344H14.625V3.859H10V5.016H13.094ZM12.891 1.922H14.813V0H12.891ZM12.891 1.922" fill="#005191"/>
<path d="M42.883 7.219C40.789 7.219 38.617 8.094 38.617 10.172 38.617 11.594 39.836 12.484 41.289 12.484 42.68 12.484 43.633 11.688 44.086 11.313 44.242 11.766 44.477 12.484 45.617 12.484 46.008 12.484 46.336 12.375 46.789 12.234L46.648 11.313C46.492 11.359 46.305 11.406 46.164 11.406 45.383 11.406 45.383 10.734 45.383 10.078V6.531C45.383 4.609 44.758 3.672 42.398 3.672 40.977 3.672 40.039 4 39.352 4.266V5.578C39.836 5.313 40.773 4.828 42.117 4.828 43.836 4.828 43.836 5.906 43.836 6.484V7.219ZM43.836 8.188V10.328C42.977 11.031 42.242 11.25 41.695 11.25 40.477 11.25 40.195 10.406 40.195 9.891 40.195 8.188 42.742 8.188 43.383 8.188ZM43.836 8.188" fill="#005191"/>
<path d="M50.652 14.641H55.465V13.5H51.996V1.156H55.465V0H50.652ZM50.652 14.641" fill="#005191"/>
<path d="M61.254 12.344H62.785V3.859H58.16V5.016H61.254ZM61.051 1.922H62.973V0H61.051ZM61.051 1.922" fill="#005191"/>
<path d="M72.605 0H67.793V1.156H71.262V13.5H67.793V14.641H72.605ZM72.605 0" fill="#005191"/>
<path d="M83.918 34.301H32.281V65.008H83.918ZM83.918 65.258H32.281V95.844H83.918ZM83.918 96.094H32.281V126.676H83.918ZM83.918 126.926H32.281V157.508H83.918ZM83.918 157.758H32.281V188.344H83.918ZM83.918 188.594H32.281V219.176H83.918ZM83.918 219.426H32.281V250.008H83.918ZM83.918 250.258H32.281V280.844H83.918ZM83.918 281.094H32.281V311.676H83.918ZM83.918 311.926H32.281V342.508H83.918ZM83.918 342.758H32.281V373.344H83.918ZM83.918 373.594H32.281V404.301H83.918ZM83.918 373.594" fill="#cacaca"/>
<path stroke-width=".25" stroke-linecap="butt" stroke-miterlimit="10" stroke-linejoin="miter" fill="none" stroke="#e6e8eb" d="M32.281 373.469H83.918ZM32.281 373.469"/>
<path stroke-width=".25" stroke-linecap="butt" stroke-miterlimit="10" stroke-linejoin="miter" fill="none" stroke="#e6e8eb" d="M32.281 342.633H83.918ZM32.281 342.633"/>
<path stroke-width=".25" stroke-linecap="butt" stroke-miterlimit="10" stroke-linejoin="miter" fill="none" stroke="#e6e8eb" d="M32.281 311.801H83.918ZM32.281 311.801"/>
<path stroke-width=".25" stroke-linecap="butt" stroke-miterlimit="10" stroke-linejoin="miter" fill="none" stroke="#e6e8eb" d="M32.281 280.969H83.918ZM32.281 280.969"/>
<path stroke-width=".25" stroke-linecap="butt" stroke-miterlimit="10" stroke-linejoin="miter" fill="none" stroke="#e6e8eb" d="M32.281 250.133H83.918ZM32.281 250.133"/>
<path stroke-width=".25" stroke-linecap="butt" stroke-miterlimit="10" stroke-linejoin="miter" fill="none" stroke="#e6e8eb" d="M32.281 219.301H83.918ZM32.281 219.301"/>
<path stroke-width=".25" stroke-linecap="butt" stroke-miterlimit="10" stroke-linejoin="miter" fill="none" stroke="#e6e8eb" d="M32.281 188.469H83.918ZM32.281 188.469"/>
<path stroke-width=".25" stroke-linecap="butt" stroke-miterlimit="10" stroke-linejoin="miter" fill="none" stroke="#e6e8eb" d="M32.281 157.633H83.918ZM32.281 157.633"/>
<path stroke-width=".25" stroke-linecap="butt" stroke-miterlimit="10" stroke-linejoin="miter" fill="none" stroke="#e6e8eb" d="M32.281 126.801H83.918ZM32.281 126.801"/>
<path stroke-width=".25" stroke-linecap="butt" stroke-miterlimit="10" stroke-linejoin="miter" fill="none" stroke="#e6e8eb" d="M32.281 95.969H83.918ZM32.281 95.969"/>
<path stroke-width=".25" stroke-linecap="butt" stroke-miterlimit="10" stroke-linejoin="miter" fill="none" stroke="#e6e8eb" d="M32.281 65.133H83.918ZM32.281 65.133"/>
<path d="M9.215 54.629C12.871 54.629 13.652 50.254 13.652 47.785 13.652 45.301 12.84 40.957 9.215 40.957 5.574 40.957 4.762 45.285 4.762 47.785 4.762 50.27 5.574 54.629 9.215 54.629ZM9.215 53.332C6.652 53.332 6.605 49.223 6.605 47.801 6.605 46.488 6.621 42.254 9.215 42.254 11.809 42.254 11.824 46.473 11.824 47.785 11.824 49.207 11.777 53.332 9.215 53.332ZM9.215 53.332" fill="#5c5c5c"/>
<path d="M60.418 54.301H62.152V40.426H60.418V44.551L60.527 45.848H60.418C60.043 45.379 59.355 44.551 57.809 44.551 55.73 44.551 53.793 46.27 53.793 49.832 53.793 52.52 54.965 54.52 57.293 54.52 59.168 54.52 60.074 53.066 60.418 52.52H60.527ZM60.418 51.207C59.121 53.035 57.824 53.035 57.652 53.035 55.637 53.035 55.637 50.316 55.637 49.676 55.637 48.395 55.84 47.238 56.496 46.535 56.855 46.16 57.402 45.848 58.043 45.848 58.449 45.848 59.324 45.973 60.418 47.145ZM60.418 51.207"/>
<path d="M5.418 85.133H14.09V83.836H10.621V71.789L5.418 73.414V74.492L8.887 73.727V83.836H5.418ZM5.418 85.133" fill="#5c5c5c"/>
<path d="M58.684 79.492C56.324 79.492 53.871 80.477 53.871 82.805 53.871 84.414 55.262 85.414 56.871 85.414 58.449 85.414 59.527 84.523 60.027 84.102 60.215 84.617 60.48 85.414 61.762 85.414 62.184 85.414 62.559 85.289 63.074 85.133L62.902 84.102C62.746 84.148 62.527 84.195 62.371 84.195 61.48 84.195 61.48 83.445 61.48 82.695V78.727C61.48 76.57 60.777 75.508 58.137 75.508 56.543 75.508 55.48 75.883 54.699 76.164V77.648C55.262 77.352 56.309 76.805 57.809 76.805 59.762 76.805 59.762 78.023 59.762 78.664V79.492ZM59.762 80.57V82.992C58.793 83.789 57.965 84.039 57.34 84.039 55.98 84.039 55.652 83.086 55.652 82.508 55.652 80.57 58.512 80.57 59.23 80.57ZM59.762 80.57"/>
<path d="M5.262 115.965H12.652V114.449H7.324C7.434 113.98 7.512 113.621 8.027 112.871 8.418 112.277 8.965 111.574 9.762 110.824L10.512 110.121C11.277 109.402 12.715 108.043 12.715 106.23 12.715 104.559 11.652 102.621 8.746 102.621 7.215 102.621 6.246 103.043 5.59 103.309V104.84C6.371 104.434 7.34 103.918 8.574 103.918 10.105 103.918 10.871 104.996 10.871 106.23 10.871 107.48 10.152 108.59 9.246 109.48L8.48 110.262C7.809 110.902 6.293 112.449 5.262 114.449ZM5.262 115.965" fill="#5c5c5c"/>
<path d="M62.199 106.777C61.371 106.543 60.402 106.34 59.152 106.34 55.418 106.34 54.121 108.824 54.121 111.324 54.121 112.371 54.34 113.855 55.402 114.934 56.121 115.684 57.262 116.309 59.309 116.309 60.84 116.309 61.73 115.996 62.371 115.777V114.418C61.887 114.621 60.809 115.012 59.543 115.012 57.277 115.012 55.965 113.605 55.965 111.324 55.965 109.34 56.949 107.637 59.309 107.637 60.496 107.637 61.527 107.996 62.199 108.246ZM62.199 106.777"/>
<path d="M5.855 146.723C6.449 146.91 7.246 147.129 8.527 147.129 8.84 147.129 10.152 147.129 11.105 146.582 12.512 145.785 13.027 144.348 13.027 143.207 13.027 142.504 12.824 141.707 12.324 141.004 11.715 140.191 10.934 139.926 10.293 139.707 10.762 139.488 11.355 139.223 11.934 138.473 12.48 137.723 12.637 137.004 12.637 136.426 12.637 135.285 11.996 133.457 8.934 133.457 7.465 133.457 6.559 133.77 6.043 133.973V135.473C6.527 135.223 7.559 134.754 8.855 134.754 10.027 134.754 10.902 135.441 10.902 136.723 10.902 137.488 10.637 137.988 10.418 138.254 9.699 139.207 8.762 139.223 7.559 139.223H7.059V140.457H7.902C9.09 140.457 9.684 140.676 10.324 141.16 10.887 141.598 11.184 142.441 11.184 143.223 11.184 144.098 10.684 145.832 8.559 145.832 7.715 145.832 6.918 145.582 5.855 145.191ZM5.855 146.723" fill="#5c5c5c"/>
<path d="M56.59 146.926H58.324V138.895H62.871V137.598H58.324V136.41C58.324 135.473 58.324 134.129 60.699 134.129 61.949 134.129 62.73 134.395 63.23 134.582V133.207C62.699 133.051 61.965 132.832 60.543 132.832 56.59 132.832 56.59 135.348 56.59 136.598V137.598H53.98V138.895H56.59ZM56.59 146.926"/>
<path d="M10.199 177.633H11.824V174.164H13.543V172.867H11.824V164.617H10.199L4.777 172.695V174.164H10.199ZM10.199 166.961V172.867H6.246ZM10.199 166.961" fill="#5c5c5c"/>
<path d="M56.59 177.758H58.324V169.727H62.871V168.43H58.324V167.242C58.324 166.305 58.324 164.961 60.699 164.961 61.949 164.961 62.73 165.227 63.23 165.414V164.039C62.699 163.883 61.965 163.664 60.543 163.664 56.59 163.664 56.59 166.18 56.59 167.43V168.43H53.98V169.727H56.59ZM56.59 177.758"/>
<path d="M6.184 208.387C6.777 208.574 7.574 208.793 8.605 208.793 10.918 208.793 12.84 207.152 12.84 204.668 12.84 203.402 12.355 202.324 11.652 201.621 10.387 200.387 8.574 200.371 7.887 200.34V196.965H12.512V195.449H6.418V201.668C6.762 201.637 6.918 201.621 7.199 201.621 9.355 201.621 11.012 202.324 11.012 204.543 11.012 206.293 9.965 207.496 8.543 207.496 7.652 207.496 6.73 207.137 6.184 206.918ZM6.184 208.387" fill="#5c5c5c"/>
<path d="M54.215 208.699H55.512L55.84 207.512H55.949C56.324 207.965 56.996 208.809 58.559 208.809 60.605 208.809 62.543 207.09 62.543 203.512 62.543 200.871 61.402 198.84 59.059 198.84 57.199 198.84 56.262 200.324 55.949 200.824H55.84L55.949 199.043V194.715H54.215ZM55.949 202.152C57.23 200.309 58.512 200.309 58.699 200.309 60.715 200.309 60.715 203.027 60.715 203.684 60.715 204.949 60.512 206.105 59.84 206.809 59.512 207.184 58.949 207.512 58.324 207.512 57.902 207.512 57.027 207.387 55.949 206.215ZM55.949 202.152"/>
<path d="M12.949 226.441C12.293 226.254 11.371 225.957 10.309 225.957 8.262 225.957 5.215 227.488 5.215 233.051 5.215 235.832 5.902 239.629 9.574 239.629 12.465 239.629 13.652 237.066 13.652 235.051 13.652 232.52 11.809 230.988 10.027 230.988 9.262 230.988 8.512 231.254 7.918 231.691 7.496 231.988 7.277 232.285 7.027 232.645 7.012 229.863 7.934 227.254 10.465 227.254 11.387 227.254 12.09 227.566 12.949 227.926ZM9.73 238.332C8.043 238.332 7.246 236.77 7.246 235.035 7.246 232.316 9.324 232.223 9.605 232.223 11.215 232.223 11.98 233.738 11.98 235.395 11.98 236.348 11.59 238.332 9.73 238.332ZM9.73 238.332" fill="#5c5c5c"/>
<path d="M60.418 239.426H62.152V225.551H60.418V229.676L60.527 230.973H60.418C60.043 230.504 59.355 229.676 57.809 229.676 55.73 229.676 53.793 231.395 53.793 234.957 53.793 237.645 54.965 239.645 57.293 239.645 59.168 239.645 60.074 238.191 60.418 237.645H60.527ZM60.418 236.332C59.121 238.16 57.824 238.16 57.652 238.16 55.637 238.16 55.637 235.441 55.637 234.801 55.637 233.52 55.84 232.363 56.496 231.66 56.855 231.285 57.402 230.973 58.043 230.973 58.449 230.973 59.324 231.098 60.418 232.27ZM60.418 236.332"/>
<path d="M9.043 263.523C7.246 266.711 6.512 268.008 6.262 270.133H8.324C8.418 269.43 8.543 268.336 9.434 266.195 10.699 263.148 12.074 260.805 13.402 258.57V257.117H5.559V258.742H11.746ZM9.043 263.523" fill="#5c5c5c"/>
<path d="M54.215 270.367H55.512L55.84 269.18H55.949C56.324 269.633 56.996 270.477 58.559 270.477 60.605 270.477 62.543 268.758 62.543 265.18 62.543 262.539 61.402 260.508 59.059 260.508 57.199 260.508 56.262 261.992 55.949 262.492H55.84L55.949 260.711V256.383H54.215ZM55.949 263.82C57.23 261.977 58.512 261.977 58.699 261.977 60.715 261.977 60.715 264.695 60.715 265.352 60.715 266.617 60.512 267.773 59.84 268.477 59.512 268.852 58.949 269.18 58.324 269.18 57.902 269.18 57.027 269.055 55.949 267.883ZM55.949 263.82"/>
<path d="M7.652 293.871C5.73 295.027 5.199 296.621 5.199 297.684 5.199 299.277 6.277 301.293 9.246 301.293 12.184 301.293 13.48 299.262 13.48 297.527 13.48 295.496 11.871 294.527 10.684 293.809 12.293 292.809 12.949 291.574 12.949 290.434 12.949 289.949 12.84 289.277 12.355 288.668 11.777 287.949 10.902 287.621 9.59 287.621 6.371 287.621 5.855 289.934 5.855 290.887 5.855 292.074 6.496 293.027 7.652 293.871ZM9.73 295.277C11.137 296.105 11.746 296.949 11.746 297.902 11.746 298.965 10.871 299.996 9.402 299.996 7.98 299.996 6.902 299.043 6.902 297.48 6.902 295.949 7.887 295.137 8.559 294.574ZM9.23 292.918C7.746 292.043 7.48 291.277 7.48 290.637 7.48 289.934 7.934 288.918 9.434 288.918 11.105 288.918 11.387 290.199 11.387 290.73 11.387 291.418 10.934 292.418 9.699 293.199ZM9.23 292.918" fill="#5c5c5c"/>
<path d="M56.59 301.09H58.324V293.059H62.871V291.762H58.324V290.574C58.324 289.637 58.324 288.293 60.699 288.293 61.949 288.293 62.73 288.559 63.23 288.746V287.371C62.699 287.215 61.965 286.996 60.543 286.996 56.59 286.996 56.59 289.512 56.59 290.762V291.762H53.98V293.059H56.59ZM56.59 301.09"/>
<path d="M5.809 331.66C6.496 331.848 7.449 332.129 8.48 332.129 10.449 332.129 13.543 330.645 13.543 325.035 13.543 322.254 12.871 318.457 9.199 318.457 6.262 318.457 5.105 321.051 5.105 323.035 5.105 325.551 6.949 327.098 8.746 327.098 9.496 327.098 10.262 326.832 10.855 326.395 11.262 326.098 11.48 325.801 11.73 325.441 11.746 328.316 10.762 330.832 8.309 330.832 7.512 330.832 6.84 330.598 5.809 330.176ZM9.027 319.754C10.699 319.754 11.512 321.301 11.512 323.051 11.512 325.77 9.434 325.863 9.152 325.863 7.59 325.863 6.777 324.379 6.777 322.691 6.777 321.723 7.184 319.754 9.027 319.754ZM9.027 319.754" fill="#5c5c5c"/>
<path d="M54.215 332.035H55.512L55.84 330.848H55.949C56.324 331.301 56.996 332.145 58.559 332.145 60.605 332.145 62.543 330.426 62.543 326.848 62.543 324.207 61.402 322.176 59.059 322.176 57.199 322.176 56.262 323.66 55.949 324.16H55.84L55.949 322.379V318.051H54.215ZM55.949 325.488C57.23 323.645 58.512 323.645 58.699 323.645 60.715 323.645 60.715 326.363 60.715 327.02 60.715 328.285 60.512 329.441 59.84 330.145 59.512 330.52 58.949 330.848 58.324 330.848 57.902 330.848 57.027 330.723 55.949 329.551ZM55.949 325.488"/>
<path d="M0 362.633H8.672V361.336H5.203V349.289L0 350.914V351.992L3.469 351.227V361.336H0ZM0 362.633" fill="#5c5c5c"/>
<path d="M14.633 362.961C18.289 362.961 19.07 358.586 19.07 356.117 19.07 353.633 18.258 349.289 14.633 349.289 10.992 349.289 10.18 353.617 10.18 356.117 10.18 358.602 10.992 362.961 14.633 362.961ZM14.633 361.664C12.07 361.664 12.023 357.555 12.023 356.133 12.023 354.82 12.039 350.586 14.633 350.586 17.227 350.586 17.242 354.805 17.242 356.117 17.242 357.539 17.195 361.664 14.633 361.664ZM14.633 361.664" fill="#5c5c5c"/>
<path d="M62.262 357.883C62.262 356.117 62.059 353.008 58.402 353.008 55.559 353.008 53.918 355.461 53.918 358.102 53.918 359.039 54.137 360.711 55.324 361.805 56.137 362.539 57.309 362.977 59.043 362.977 60.527 362.977 61.559 362.633 62.309 362.383V361.008C60.652 361.68 59.48 361.68 59.277 361.68 58.949 361.68 57.34 361.648 56.48 360.586 55.855 359.82 55.809 358.977 55.777 358.445H62.262ZM55.84 357.148C56.012 355.023 57.215 354.305 58.277 354.305 60.465 354.305 60.449 356.398 60.418 357.148ZM55.84 357.148"/>
<path d="M0 393.465H8.672V392.168H5.203V380.121L0 381.746V382.824L3.469 382.059V392.168H0ZM0 393.465" fill="#5c5c5c"/>
<path d="M10.836 393.465H19.508V392.168H16.039V380.121L10.836 381.746V382.824L14.305 382.059V392.168H10.836ZM10.836 393.465" fill="#5c5c5c"/>
<path d="M58.684 387.824C56.324 387.824 53.871 388.809 53.871 391.137 53.871 392.746 55.262 393.746 56.871 393.746 58.449 393.746 59.527 392.855 60.027 392.434 60.215 392.949 60.48 393.746 61.762 393.746 62.184 393.746 62.559 393.621 63.074 393.465L62.902 392.434C62.746 392.48 62.527 392.527 62.371 392.527 61.48 392.527 61.48 391.777 61.48 391.027V387.059C61.48 384.902 60.777 383.84 58.137 383.84 56.543 383.84 55.48 384.215 54.699 384.496V385.98C55.262 385.684 56.309 385.137 57.809 385.137 59.762 385.137 59.762 386.355 59.762 386.996V387.824ZM59.762 388.902V391.324C58.793 392.121 57.965 392.371 57.34 392.371 55.98 392.371 55.652 391.418 55.652 390.84 55.652 388.902 58.512 388.902 59.23 388.902ZM59.762 388.902"/>
<path d="M231.473 108.52C231.473 111.02 232.426 114.582 235.52 114.582 238.613 114.582 239.566 111.02 239.566 108.52 239.566 106.02 238.613 102.441 235.52 102.441 232.426 102.441 231.473 106.02 231.473 108.52ZM233.098 108.52C233.098 105.754 233.77 103.598 235.535 103.598 237.254 103.598 237.926 105.754 237.926 108.52 237.926 111.285 237.27 113.441 235.535 113.441 233.785 113.441 233.098 111.285 233.098 108.52ZM233.098 108.52" fill="#8c3023"/>
<path d="M234.645 137.301H236.191V125.645L233.113 125.926V126.691H234.645ZM234.645 137.301" fill="#8c3023"/>
<path d="M231.785 161.301H238.66V159.957H233.645C234.395 156.816 238.723 155.957 238.723 152.629 238.723 150.551 237.082 149.441 235.129 149.441 234.066 149.441 233.02 149.707 232.066 150.176V151.535C232.973 151.02 233.863 150.598 234.941 150.598 236.27 150.598 237.098 151.379 237.098 152.723 237.098 155.379 233.145 156.691 231.785 159.957ZM231.785 161.301" fill="#8c3023"/>
<path d="M233.16 178.691H233.77C235.004 178.691 237.191 178.926 237.191 181.098 237.191 182.566 236.223 183.441 234.676 183.441 233.785 183.441 232.91 183.098 232.082 182.785V184.223C232.957 184.457 233.832 184.582 234.723 184.582 238.004 184.582 238.832 182.598 238.832 181.066 238.832 179.348 237.66 178.316 236.02 178.051V178.02C237.379 177.582 238.441 176.66 238.441 175.129 238.441 173.082 236.707 172.441 234.941 172.441 234.02 172.441 233.113 172.566 232.254 172.91V174.254C233.035 173.863 233.895 173.598 234.77 173.598 235.91 173.598 236.91 174.098 236.91 175.363 236.91 177.426 235.098 177.645 233.16 177.645ZM233.16 178.691" fill="#8c3023"/>
<path d="M232.707 203.863 236.551 198.613H236.582V203.863ZM237.926 208.301V205.02H239.473V203.863H237.926V196.738H236.488L231.27 203.863V205.02H236.488V208.301ZM237.926 208.301" fill="#8c3023"/>
<path d="M232.379 231.348C233.066 231.504 233.77 231.582 234.473 231.582 237.941 231.582 238.645 229.285 238.645 228.02 238.645 224.645 235.441 224.035 233.91 224.129V221.082H238.41V219.738H232.566V225.363L233.488 225.301C235.223 225.301 237.02 225.895 237.02 227.957 237.02 229.098 236.473 230.441 234.504 230.441 233.785 230.441 233.051 230.238 232.379 229.973ZM232.379 231.348" fill="#8c3023"/>
<path d="M175.891 112.379C175.359 112.848 174.656 113.238 173.922 113.238 173.172 113.238 172.531 112.707 172.531 111.926 172.531 110.582 174.25 110.191 175.156 110.191H175.891ZM178.531 113.395H178.25C177.391 113.426 177.438 112.535 177.438 111.91V108.145C177.438 106.457 176.469 105.629 174.703 105.629 173.672 105.629 172.688 105.863 171.734 106.27V107.535C172.484 107.129 173.469 106.785 174.328 106.785 175.734 106.785 175.891 107.488 175.891 108.707V109.27H175.281C172.328 109.27 171 110.613 171 112.16 171 113.566 172.094 114.488 173.484 114.488 174.484 114.488 175.422 113.895 176.094 113.223 176.219 113.957 176.75 114.488 177.516 114.488 177.859 114.488 178.328 114.41 178.656 114.254ZM178.531 113.395" fill="#8c3023"/>
<path d="M173.203 131.379C173.844 130.629 174.75 129.973 175.75 129.973 177.406 129.973 177.703 131.707 177.703 133.004 177.703 134.426 177.25 136.348 175.516 136.348 174.5 136.348 173.938 135.926 173.203 135.27ZM171.672 137.395H172.922L173.109 136.348H173.203C173.891 137.176 174.719 137.488 175.766 137.488 178.297 137.488 179.344 135.004 179.344 132.816 179.344 130.707 178.469 128.629 176.047 128.629 174.781 128.629 173.766 129.285 173.203 130.41H173.109L173.203 128.816V124.957H171.672ZM171.672 137.395" fill="#8c3023"/>
<path d="M177.625 152.895C176.844 152.738 176.031 152.629 175.203 152.629 172.031 152.629 171.156 155.16 171.156 157.066 171.156 158.457 171.734 161.488 175.203 161.488 176.063 161.488 176.906 161.285 177.719 161.051V159.816C177.047 160.16 176.281 160.348 175.516 160.348 173.609 160.348 172.797 158.801 172.797 157.082 172.797 155.441 173.547 153.785 175.391 153.785 176.156 153.785 176.906 153.957 177.625 154.191ZM177.625 152.895" fill="#8c3023"/>
<path d="M177.281 181.738C176.656 182.488 175.75 183.145 174.75 183.145 173.094 183.145 172.797 181.426 172.797 180.129 172.797 178.707 173.234 176.785 174.984 176.785 176 176.785 176.547 177.191 177.281 177.848ZM177.281 184.301H178.828V171.957H177.281V175.629L177.391 176.785H177.281C176.609 175.941 175.781 175.629 174.734 175.629 172.219 175.629 171.156 178.129 171.156 180.301 171.156 182.41 172.047 184.488 174.453 184.488 175.719 184.488 176.734 183.832 177.281 182.723H177.391ZM177.281 184.301" fill="#8c3023"/>
<path d="M178.063 204.301C178.141 202.113 177.484 199.629 174.813 199.629 172.375 199.629 171.156 201.848 171.156 204.066 171.156 205.457 171.734 208.488 175.203 208.488 176.297 208.488 177.203 208.285 178.063 208.02V206.785C177.266 207.145 176.5 207.348 175.641 207.348 173.781 207.348 172.844 206.082 172.797 204.301ZM172.844 203.238C172.906 202.113 173.406 200.785 174.719 200.785 176.109 200.785 176.453 202.098 176.422 203.238ZM172.844 203.238" fill="#8c3023"/>
<path d="M172.281 231.301H173.813V223.973H175.938V222.816H173.813V221.191C173.813 220.582 174.141 219.926 175.141 219.926 175.703 219.926 176.266 220.066 176.813 220.238V219.035C176.25 218.863 175.672 218.77 175.078 218.77 173.563 218.77 172.281 219.551 172.281 221.348V222.816H171.078V223.973H172.281ZM172.281 231.301" fill="#8c3023"/>
<path d="M139.605 114.301V105.816H138.059V111.316C137.465 112.254 136.559 113.145 135.371 113.145 134.668 113.145 134.199 112.676 134.199 111.848V105.816H132.652V112.051C132.652 113.316 133.527 114.488 135.027 114.488 136.309 114.488 137.355 113.738 138.059 112.723H138.152L138.059 114.301ZM139.605 114.301" fill="#8c3023"/>
<path d="M142.324 114.02C143.09 114.254 144.012 114.488 144.84 114.488 146.418 114.488 148.012 113.691 148.012 111.91 148.012 109.176 143.809 109.441 143.809 107.863 143.809 107.066 144.637 106.785 145.309 106.785 146.012 106.785 146.699 106.957 147.371 107.16V105.879C146.527 105.738 145.98 105.629 145.293 105.629 143.559 105.629 142.371 106.395 142.371 108.004 142.371 110.848 146.48 110.301 146.48 112.098 146.48 112.941 145.652 113.348 144.918 113.348 144.059 113.348 143.074 112.973 142.324 112.582ZM142.324 114.02" fill="#8c3023"/>
<path d="M157.016 110.301C157.094 108.113 156.438 105.629 153.766 105.629 151.328 105.629 150.109 107.848 150.109 110.066 150.109 111.457 150.688 114.488 154.156 114.488 155.25 114.488 156.156 114.285 157.016 114.02V112.785C156.219 113.145 155.453 113.348 154.594 113.348 152.734 113.348 151.797 112.082 151.75 110.301ZM151.797 109.238C151.859 108.113 152.359 106.785 153.672 106.785 155.063 106.785 155.406 108.098 155.375 109.238ZM151.797 109.238" fill="#8c3023"/>
<path d="M195.535 114.301H197.066V106.973H199.191V105.816H197.066V104.191C197.066 103.582 197.395 102.926 198.395 102.926 198.957 102.926 199.52 103.066 200.066 103.238V102.035C199.504 101.863 198.926 101.77 198.332 101.77 196.816 101.77 195.535 102.551 195.535 104.348V105.816H194.332V106.973H195.535ZM195.535 114.301" fill="#8c3023"/>
<path d="M204.332 114.488C207.816 114.488 208.379 111.457 208.379 110.066 208.379 108.16 207.52 105.629 204.332 105.629 201.16 105.629 200.285 108.16 200.285 110.066 200.285 111.457 200.863 114.488 204.332 114.488ZM204.332 113.348C202.473 113.348 201.926 111.645 201.926 110.066 201.926 108.473 202.473 106.785 204.332 106.785 206.207 106.785 206.754 108.473 206.754 110.066 206.754 111.645 206.207 113.348 204.332 113.348ZM204.332 113.348" fill="#8c3023"/>
<path d="M212.328 105.816H210.781V114.301H212.328V108.723C212.813 107.77 213.672 106.973 214.781 106.973 215.031 106.973 215.25 107.02 215.469 107.098V105.629H215.016C213.813 105.629 212.844 106.363 212.328 107.41H212.219ZM212.328 105.816" fill="#8c3023"/>
<path d="M195.535 137.301H197.066V129.973H199.191V128.816H197.066V127.191C197.066 126.582 197.395 125.926 198.395 125.926 198.957 125.926 199.52 126.066 200.066 126.238V125.035C199.504 124.863 198.926 124.77 198.332 124.77 196.816 124.77 195.535 125.551 195.535 127.348V128.816H194.332V129.973H195.535ZM195.535 137.301" fill="#8c3023"/>
<path d="M204.332 137.488C207.816 137.488 208.379 134.457 208.379 133.066 208.379 131.16 207.52 128.629 204.332 128.629 201.16 128.629 200.285 131.16 200.285 133.066 200.285 134.457 200.863 137.488 204.332 137.488ZM204.332 136.348C202.473 136.348 201.926 134.645 201.926 133.066 201.926 131.473 202.473 129.785 204.332 129.785 206.207 129.785 206.754 131.473 206.754 133.066 206.754 134.645 206.207 136.348 204.332 136.348ZM204.332 136.348" fill="#8c3023"/>
<path d="M212.328 128.816H210.781V137.301H212.328V131.723C212.813 130.77 213.672 129.973 214.781 129.973 215.031 129.973 215.25 130.02 215.469 130.098V128.629H215.016C213.813 128.629 212.844 129.363 212.328 130.41H212.219ZM212.328 128.816" fill="#8c3023"/>
<path d="M195.535 161.301H197.066V153.973H199.191V152.816H197.066V151.191C197.066 150.582 197.395 149.926 198.395 149.926 198.957 149.926 199.52 150.066 200.066 150.238V149.035C199.504 148.863 198.926 148.77 198.332 148.77 196.816 148.77 195.535 149.551 195.535 151.348V152.816H194.332V153.973H195.535ZM195.535 161.301" fill="#8c3023"/>
<path d="M204.332 161.488C207.816 161.488 208.379 158.457 208.379 157.066 208.379 155.16 207.52 152.629 204.332 152.629 201.16 152.629 200.285 155.16 200.285 157.066 200.285 158.457 200.863 161.488 204.332 161.488ZM204.332 160.348C202.473 160.348 201.926 158.645 201.926 157.066 201.926 155.473 202.473 153.785 204.332 153.785 206.207 153.785 206.754 155.473 206.754 157.066 206.754 158.645 206.207 160.348 204.332 160.348ZM204.332 160.348" fill="#8c3023"/>
<path d="M212.328 152.816H210.781V161.301H212.328V155.723C212.813 154.77 213.672 153.973 214.781 153.973 215.031 153.973 215.25 154.02 215.469 154.098V152.629H215.016C213.813 152.629 212.844 153.363 212.328 154.41H212.219ZM212.328 152.816" fill="#8c3023"/>
<path d="M195.535 184.301H197.066V176.973H199.191V175.816H197.066V174.191C197.066 173.582 197.395 172.926 198.395 172.926 198.957 172.926 199.52 173.066 200.066 173.238V172.035C199.504 171.863 198.926 171.77 198.332 171.77 196.816 171.77 195.535 172.551 195.535 174.348V175.816H194.332V176.973H195.535ZM195.535 184.301" fill="#8c3023"/>
<path d="M204.332 184.488C207.816 184.488 208.379 181.457 208.379 180.066 208.379 178.16 207.52 175.629 204.332 175.629 201.16 175.629 200.285 178.16 200.285 180.066 200.285 181.457 200.863 184.488 204.332 184.488ZM204.332 183.348C202.473 183.348 201.926 181.645 201.926 180.066 201.926 178.473 202.473 176.785 204.332 176.785 206.207 176.785 206.754 178.473 206.754 180.066 206.754 181.645 206.207 183.348 204.332 183.348ZM204.332 183.348" fill="#8c3023"/>
<path d="M212.328 175.816H210.781V184.301H212.328V178.723C212.813 177.77 213.672 176.973 214.781 176.973 215.031 176.973 215.25 177.02 215.469 177.098V175.629H215.016C213.813 175.629 212.844 176.363 212.328 177.41H212.219ZM212.328 175.816" fill="#8c3023"/>
<path d="M195.535 208.301H197.066V200.973H199.191V199.816H197.066V198.191C197.066 197.582 197.395 196.926 198.395 196.926 198.957 196.926 199.52 197.066 200.066 197.238V196.035C199.504 195.863 198.926 195.77 198.332 195.77 196.816 195.77 195.535 196.551 195.535 198.348V199.816H194.332V200.973H195.535ZM195.535 208.301" fill="#8c3023"/>
<path d="M204.332 208.488C207.816 208.488 208.379 205.457 208.379 204.066 208.379 202.16 207.52 199.629 204.332 199.629 201.16 199.629 200.285 202.16 200.285 204.066 200.285 205.457 200.863 208.488 204.332 208.488ZM204.332 207.348C202.473 207.348 201.926 205.645 201.926 204.066 201.926 202.473 202.473 200.785 204.332 200.785 206.207 200.785 206.754 202.473 206.754 204.066 206.754 205.645 206.207 207.348 204.332 207.348ZM204.332 207.348" fill="#8c3023"/>
<path d="M212.328 199.816H210.781V208.301H212.328V202.723C212.813 201.77 213.672 200.973 214.781 200.973 215.031 200.973 215.25 201.02 215.469 201.098V199.629H215.016C213.813 199.629 212.844 200.363 212.328 201.41H212.219ZM212.328 199.816" fill="#8c3023"/>
<path d="M195.535 231.301H197.066V223.973H199.191V222.816H197.066V221.191C197.066 220.582 197.395 219.926 198.395 219.926 198.957 219.926 199.52 220.066 200.066 220.238V219.035C199.504 218.863 198.926 218.77 198.332 218.77 196.816 218.77 195.535 219.551 195.535 221.348V222.816H194.332V223.973H195.535ZM195.535 231.301" fill="#8c3023"/>
<path d="M204.332 231.488C207.816 231.488 208.379 228.457 208.379 227.066 208.379 225.16 207.52 222.629 204.332 222.629 201.16 222.629 200.285 225.16 200.285 227.066 200.285 228.457 200.863 231.488 204.332 231.488ZM204.332 230.348C202.473 230.348 201.926 228.645 201.926 227.066 201.926 225.473 202.473 223.785 204.332 223.785 206.207 223.785 206.754 225.473 206.754 227.066 206.754 228.645 206.207 230.348 204.332 230.348ZM204.332 230.348" fill="#8c3023"/>
<path d="M212.328 222.816H210.781V231.301H212.328V225.723C212.813 224.77 213.672 223.973 214.781 223.973 215.031 223.973 215.25 224.02 215.469 224.098V222.629H215.016C213.813 222.629 212.844 223.363 212.328 224.41H212.219ZM212.328 222.816" fill="#8c3023"/>
<path stroke-width="2" stroke-linecap="butt" stroke-linejoin="round" fill="none" stroke="#8c3023" d="M77.098 81.172 77.984 81.633 117.789 102.414"/>
<path d="M82.332 78.488 71.602 78.301 77.891 87 77.984 81.633ZM82.332 78.488" fill="#8c3023"/>
</g>
</svg>
