<svg xmlns="http://www.w3.org/2000/svg" xmlns:xlink="http://www.w3.org/1999/xlink" xmlns:inkscape="http://www.inkscape.org/namespaces/inkscape" version="1.1" width="350.23738" height="404.29927" viewBox="0 0 350.23738 404.29927">
<g>
<path d="M212.273 130.301H154.34V161.008H212.273ZM212.273 161.258H154.34V191.844H212.273ZM212.273 192.094H154.34V222.676H212.273ZM212.273 222.926H154.34V253.508H212.273ZM212.273 253.758H154.34V284.344H212.273ZM212.273 284.594H154.34V315.176H212.273ZM212.273 315.426H154.34V346.133H212.273ZM212.273 315.426" fill="#cacaca"/>
<path stroke-width=".25" stroke-linecap="butt" stroke-miterlimit="10" stroke-linejoin="miter" fill="none" stroke="#e6e8eb" d="M154.34 315.301H212.273ZM154.34 315.301"/>
<path stroke-width=".25" stroke-linecap="butt" stroke-miterlimit="10" stroke-linejoin="miter" fill="none" stroke="#e6e8eb" d="M154.34 284.469H212.273ZM154.34 284.469"/>
<path stroke-width=".25" stroke-linecap="butt" stroke-miterlimit="10" stroke-linejoin="miter" fill="none" stroke="#e6e8eb" d="M154.34 253.633H212.273ZM154.34 253.633"/>
<path stroke-width=".25" stroke-linecap="butt" stroke-miterlimit="10" stroke-linejoin="miter" fill="none" stroke="#e6e8eb" d="M154.34 222.801H212.273ZM154.34 222.801"/>
<path stroke-width=".25" stroke-linecap="butt" stroke-miterlimit="10" stroke-linejoin="miter" fill="none" stroke="#e6e8eb" d="M154.34 191.969H212.273ZM154.34 191.969"/>
<path stroke-width=".25" stroke-linecap="butt" stroke-miterlimit="10" stroke-linejoin="miter" fill="none" stroke="#e6e8eb" d="M154.34 161.133H212.273ZM154.34 161.133"/>
<path d="M130.555 144.535C128.195 144.535 125.742 145.52 125.742 147.848 125.742 149.457 127.133 150.457 128.742 150.457 130.32 150.457 131.398 149.566 131.898 149.145 132.086 149.66 132.352 150.457 133.633 150.457 134.055 150.457 134.43 150.332 134.945 150.176L134.773 149.145C134.617 149.191 134.398 149.238 134.242 149.238 133.352 149.238 133.352 148.488 133.352 147.738V143.77C133.352 141.613 132.648 140.551 130.008 140.551 128.414 140.551 127.352 140.926 126.57 141.207V142.691C127.133 142.395 128.18 141.848 129.68 141.848 131.633 141.848 131.633 143.066 131.633 143.707V144.535ZM131.633 145.613V148.035C130.664 148.832 129.836 149.082 129.211 149.082 127.852 149.082 127.523 148.129 127.523 147.551 127.523 145.613 130.383 145.613 131.102 145.613ZM131.633 145.613" fill="#5c5c5c"/>
<path d="M181.668 150.301H189.059V148.785H183.73C183.84 148.316 183.918 147.957 184.434 147.207 184.824 146.613 185.371 145.91 186.168 145.16L186.918 144.457C187.684 143.738 189.121 142.379 189.121 140.566 189.121 138.895 188.059 136.957 185.152 136.957 183.621 136.957 182.652 137.379 181.996 137.645V139.176C182.777 138.77 183.746 138.254 184.98 138.254 186.512 138.254 187.277 139.332 187.277 140.566 187.277 141.816 186.559 142.926 185.652 143.816L184.887 144.598C184.215 145.238 182.699 146.785 181.668 148.785ZM181.668 150.301"/>
<path d="M126.086 181.242H127.383L127.711 180.055H127.82C128.195 180.508 128.867 181.352 130.43 181.352 132.477 181.352 134.414 179.633 134.414 176.055 134.414 173.414 133.273 171.383 130.93 171.383 129.07 171.383 128.133 172.867 127.82 173.367H127.711L127.82 171.586V167.258H126.086ZM127.82 174.695C129.102 172.852 130.383 172.852 130.57 172.852 132.586 172.852 132.586 175.57 132.586 176.227 132.586 177.492 132.383 178.648 131.711 179.352 131.383 179.727 130.82 180.055 130.195 180.055 129.773 180.055 128.898 179.93 127.82 178.758ZM127.82 174.695" fill="#5c5c5c"/>
<path d="M182.59 181.18C183.184 181.367 183.98 181.586 185.012 181.586 187.324 181.586 189.246 179.945 189.246 177.461 189.246 176.195 188.762 175.117 188.059 174.414 186.793 173.18 184.98 173.164 184.293 173.133V169.758H188.918V168.242H182.824V174.461C183.168 174.43 183.324 174.414 183.605 174.414 185.762 174.414 187.418 175.117 187.418 177.336 187.418 179.086 186.371 180.289 184.949 180.289 184.059 180.289 183.137 179.93 182.59 179.711ZM182.59 181.18"/>
<path d="M134.07 202.652C133.242 202.418 132.273 202.215 131.023 202.215 127.289 202.215 125.992 204.699 125.992 207.199 125.992 208.246 126.211 209.73 127.273 210.809 127.992 211.559 129.133 212.184 131.18 212.184 132.711 212.184 133.602 211.871 134.242 211.652V210.293C133.758 210.496 132.68 210.887 131.414 210.887 129.148 210.887 127.836 209.48 127.836 207.199 127.836 205.215 128.82 203.512 131.18 203.512 132.367 203.512 133.398 203.871 134.07 204.121ZM134.07 202.652" fill="#5c5c5c"/>
<path d="M189.355 199.23C188.699 199.043 187.777 198.746 186.715 198.746 184.668 198.746 181.621 200.277 181.621 205.84 181.621 208.621 182.309 212.418 185.98 212.418 188.871 212.418 190.059 209.855 190.059 207.84 190.059 205.309 188.215 203.777 186.434 203.777 185.668 203.777 184.918 204.043 184.324 204.48 183.902 204.777 183.684 205.074 183.434 205.434 183.418 202.652 184.34 200.043 186.871 200.043 187.793 200.043 188.496 200.355 189.355 200.715ZM186.137 211.121C184.449 211.121 183.652 209.559 183.652 207.824 183.652 205.105 185.73 205.012 186.012 205.012 187.621 205.012 188.387 206.527 188.387 208.184 188.387 209.137 187.996 211.121 186.137 211.121ZM186.137 211.121"/>
<path d="M132.289 242.801H134.023V228.926H132.289V233.051L132.398 234.348H132.289C131.914 233.879 131.227 233.051 129.68 233.051 127.602 233.051 125.664 234.77 125.664 238.332 125.664 241.02 126.836 243.02 129.164 243.02 131.039 243.02 131.945 241.566 132.289 241.02H132.398ZM132.289 239.707C130.992 241.535 129.695 241.535 129.523 241.535 127.508 241.535 127.508 238.816 127.508 238.176 127.508 236.895 127.711 235.738 128.367 235.035 128.727 234.66 129.273 234.348 129.914 234.348 130.32 234.348 131.195 234.473 132.289 235.645ZM132.289 239.707" fill="#5c5c5c"/>
<path d="M184.059 235.832C182.137 236.988 181.605 238.582 181.605 239.645 181.605 241.238 182.684 243.254 185.652 243.254 188.59 243.254 189.887 241.223 189.887 239.488 189.887 237.457 188.277 236.488 187.09 235.77 188.699 234.77 189.355 233.535 189.355 232.395 189.355 231.91 189.246 231.238 188.762 230.629 188.184 229.91 187.309 229.582 185.996 229.582 182.777 229.582 182.262 231.895 182.262 232.848 182.262 234.035 182.902 234.988 184.059 235.832ZM186.137 237.238C187.543 238.066 188.152 238.91 188.152 239.863 188.152 240.926 187.277 241.957 185.809 241.957 184.387 241.957 183.309 241.004 183.309 239.441 183.309 237.91 184.293 237.098 184.965 236.535ZM185.637 234.879C184.152 234.004 183.887 233.238 183.887 232.598 183.887 231.895 184.34 230.879 185.84 230.879 187.512 230.879 187.793 232.16 187.793 232.691 187.793 233.379 187.34 234.379 186.105 235.16ZM185.637 234.879"/>
<path d="M134.133 268.758C134.133 266.992 133.93 263.883 130.273 263.883 127.43 263.883 125.789 266.336 125.789 268.977 125.789 269.914 126.008 271.586 127.195 272.68 128.008 273.414 129.18 273.852 130.914 273.852 132.398 273.852 133.43 273.508 134.18 273.258V271.883C132.523 272.555 131.352 272.555 131.148 272.555 130.82 272.555 129.211 272.523 128.352 271.461 127.727 270.695 127.68 269.852 127.648 269.32H134.133ZM127.711 268.023C127.883 265.898 129.086 265.18 130.148 265.18 132.336 265.18 132.32 267.273 132.289 268.023ZM127.711 268.023" fill="#5c5c5c"/>
<path d="M182.215 273.617C182.902 273.805 183.855 274.086 184.887 274.086 186.855 274.086 189.949 272.602 189.949 266.992 189.949 264.211 189.277 260.414 185.605 260.414 182.668 260.414 181.512 263.008 181.512 264.992 181.512 267.508 183.355 269.055 185.152 269.055 185.902 269.055 186.668 268.789 187.262 268.352 187.668 268.055 187.887 267.758 188.137 267.398 188.152 270.273 187.168 272.789 184.715 272.789 183.918 272.789 183.246 272.555 182.215 272.133ZM185.434 261.711C187.105 261.711 187.918 263.258 187.918 265.008 187.918 267.727 185.84 267.82 185.559 267.82 183.996 267.82 183.184 266.336 183.184 264.648 183.184 263.68 183.59 261.711 185.434 261.711ZM185.434 261.711"/>
<path d="M128.461 304.465H130.195V296.434H134.742V295.137H130.195V293.949C130.195 293.012 130.195 291.668 132.57 291.668 133.82 291.668 134.602 291.934 135.102 292.121V290.746C134.57 290.59 133.836 290.371 132.414 290.371 128.461 290.371 128.461 292.887 128.461 294.137V295.137H125.852V296.434H128.461ZM128.461 304.465" fill="#5c5c5c"/>
<path d="M176.406 304.59H185.078V303.293H181.609V291.246L176.406 292.871V293.949L179.875 293.184V303.293H176.406ZM176.406 304.59"/>
<path d="M187.086 304.59H194.477V303.074H189.148C189.258 302.605 189.336 302.246 189.852 301.496 190.242 300.902 190.789 300.199 191.586 299.449L192.336 298.746C193.102 298.027 194.539 296.668 194.539 294.855 194.539 293.184 193.477 291.246 190.57 291.246 189.039 291.246 188.07 291.668 187.414 291.934V293.465C188.195 293.059 189.164 292.543 190.398 292.543 191.93 292.543 192.695 293.621 192.695 294.855 192.695 296.105 191.977 297.215 191.07 298.105L190.305 298.887C189.633 299.527 188.117 301.074 187.086 303.074ZM187.086 304.59"/>
<path d="M126.398 329.238H133.554V330.535H126.398Z" fill="#5c5c5c"/>
<path d="M176.406 335.426H185.078V334.129H181.609V322.082L176.406 323.707V324.785L179.875 324.02V334.129H176.406ZM176.406 335.426"/>
<path d="M187.086 335.426H194.477V333.91H189.148C189.258 333.441 189.336 333.082 189.852 332.332 190.242 331.738 190.789 331.035 191.586 330.285L192.336 329.582C193.102 328.863 194.539 327.504 194.539 325.691 194.539 324.02 193.477 322.082 190.57 322.082 189.039 322.082 188.07 322.504 187.414 322.77V324.301C188.195 323.895 189.164 323.379 190.398 323.379 191.93 323.379 192.695 324.457 192.695 325.691 192.695 326.941 191.977 328.051 191.07 328.941L190.305 329.723C189.633 330.363 188.117 331.91 187.086 333.91ZM187.086 335.426"/>
<path d="M13.094 12.344H14.625V3.859H10V5.016H13.094ZM12.891 1.922H14.813V0H12.891ZM12.891 1.922" fill="#005191"/>
<path d="M42.883 7.219C40.789 7.219 38.617 8.094 38.617 10.172 38.617 11.594 39.836 12.484 41.289 12.484 42.68 12.484 43.633 11.688 44.086 11.313 44.242 11.766 44.477 12.484 45.617 12.484 46.008 12.484 46.336 12.375 46.789 12.234L46.648 11.313C46.492 11.359 46.305 11.406 46.164 11.406 45.383 11.406 45.383 10.734 45.383 10.078V6.531C45.383 4.609 44.758 3.672 42.398 3.672 40.977 3.672 40.039 4 39.352 4.266V5.578C39.836 5.313 40.773 4.828 42.117 4.828 43.836 4.828 43.836 5.906 43.836 6.484V7.219ZM43.836 8.188V10.328C42.977 11.031 42.242 11.25 41.695 11.25 40.477 11.25 40.195 10.406 40.195 9.891 40.195 8.188 42.742 8.188 43.383 8.188ZM43.836 8.188" fill="#005191"/>
<path d="M50.652 14.641H55.465V13.5H51.996V1.156H55.465V0H50.652ZM50.652 14.641" fill="#005191"/>
<path d="M61.254 12.344H62.785V3.859H58.16V5.016H61.254ZM61.051 1.922H62.973V0H61.051ZM61.051 1.922" fill="#005191"/>
<path d="M72.605 0H67.793V1.156H71.262V13.5H67.793V14.641H72.605ZM72.605 0" fill="#005191"/>
<path d="M83.918 34.301H32.281V65.008H83.918ZM83.918 65.258H32.281V95.844H83.918ZM83.918 96.094H32.281V126.676H83.918ZM83.918 126.926H32.281V157.508H83.918ZM83.918 157.758H32.281V188.344H83.918ZM83.918 188.594H32.281V219.176H83.918ZM83.918 219.426H32.281V250.008H83.918ZM83.918 250.258H32.281V280.844H83.918ZM83.918 281.094H32.281V311.676H83.918ZM83.918 311.926H32.281V342.508H83.918ZM83.918 342.758H32.281V373.344H83.918ZM83.918 373.594H32.281V404.301H83.918ZM83.918 373.594" fill="#cacaca"/>
<path stroke-width=".25" stroke-linecap="butt" stroke-miterlimit="10" stroke-linejoin="miter" fill="none" stroke="#e6e8eb" d="M32.281 373.469H83.918ZM32.281 373.469"/>
<path stroke-width=".25" stroke-linecap="butt" stroke-miterlimit="10" stroke-linejoin="miter" fill="none" stroke="#e6e8eb" d="M32.281 342.633H83.918ZM32.281 342.633"/>
<path stroke-width=".25" stroke-linecap="butt" stroke-miterlimit="10" stroke-linejoin="miter" fill="none" stroke="#e6e8eb" d="M32.281 311.801H83.918ZM32.281 311.801"/>
<path stroke-width=".25" stroke-linecap="butt" stroke-miterlimit="10" stroke-linejoin="miter" fill="none" stroke="#e6e8eb" d="M32.281 280.969H83.918ZM32.281 280.969"/>
<path stroke-width=".25" stroke-linecap="butt" stroke-miterlimit="10" stroke-linejoin="miter" fill="none" stroke="#e6e8eb" d="M32.281 250.133H83.918ZM32.281 250.133"/>
<path stroke-width=".25" stroke-linecap="butt" stroke-miterlimit="10" stroke-linejoin="miter" fill="none" stroke="#e6e8eb" d="M32.281 219.301H83.918ZM32.281 219.301"/>
<path stroke-width=".25" stroke-linecap="butt" stroke-miterlimit="10" stroke-linejoin="miter" fill="none" stroke="#e6e8eb" d="M32.281 188.469H83.918ZM32.281 188.469"/>
<path stroke-width=".25" stroke-linecap="butt" stroke-miterlimit="10" stroke-linejoin="miter" fill="none" stroke="#e6e8eb" d="M32.281 157.633H83.918ZM32.281 157.633"/>
<path stroke-width=".25" stroke-linecap="butt" stroke-miterlimit="10" stroke-linejoin="miter" fill="none" stroke="#e6e8eb" d="M32.281 126.801H83.918ZM32.281 126.801"/>
<path stroke-width=".25" stroke-linecap="butt" stroke-miterlimit="10" stroke-linejoin="miter" fill="none" stroke="#e6e8eb" d="M32.281 95.969H83.918ZM32.281 95.969"/>
<path stroke-width=".25" stroke-linecap="butt" stroke-miterlimit="10" stroke-linejoin="miter" fill="none" stroke="#e6e8eb" d="M32.281 65.133H83.918ZM32.281 65.133"/>
<path d="M9.215 54.629C12.871 54.629 13.652 50.254 13.652 47.785 13.652 45.301 12.84 40.957 9.215 40.957 5.574 40.957 4.762 45.285 4.762 47.785 4.762 50.27 5.574 54.629 9.215 54.629ZM9.215 53.332C6.652 53.332 6.605 49.223 6.605 47.801 6.605 46.488 6.621 42.254 9.215 42.254 11.809 42.254 11.824 46.473 11.824 47.785 11.824 49.207 11.777 53.332 9.215 53.332ZM9.215 53.332" fill="#5c5c5c"/>
<path d="M58.684 48.535C56.324 48.535 53.871 49.52 53.871 51.848 53.871 53.457 55.262 54.457 56.871 54.457 58.449 54.457 59.527 53.566 60.027 53.145 60.215 53.66 60.48 54.457 61.762 54.457 62.184 54.457 62.559 54.332 63.074 54.176L62.902 53.145C62.746 53.191 62.527 53.238 62.371 53.238 61.48 53.238 61.48 52.488 61.48 51.738V47.77C61.48 45.613 60.777 44.551 58.137 44.551 56.543 44.551 55.48 44.926 54.699 45.207V46.691C55.262 46.395 56.309 45.848 57.809 45.848 59.762 45.848 59.762 47.066 59.762 47.707V48.535ZM59.762 49.613V52.035C58.793 52.832 57.965 53.082 57.34 53.082 55.98 53.082 55.652 52.129 55.652 51.551 55.652 49.613 58.512 49.613 59.23 49.613ZM59.762 49.613" fill="#8c3023"/>
<path d="M5.418 85.133H14.09V83.836H10.621V71.789L5.418 73.414V74.492L8.887 73.727V83.836H5.418ZM5.418 85.133" fill="#5c5c5c"/>
<path d="M58.684 79.492C56.324 79.492 53.871 80.477 53.871 82.805 53.871 84.414 55.262 85.414 56.871 85.414 58.449 85.414 59.527 84.523 60.027 84.102 60.215 84.617 60.48 85.414 61.762 85.414 62.184 85.414 62.559 85.289 63.074 85.133L62.902 84.102C62.746 84.148 62.527 84.195 62.371 84.195 61.48 84.195 61.48 83.445 61.48 82.695V78.727C61.48 76.57 60.777 75.508 58.137 75.508 56.543 75.508 55.48 75.883 54.699 76.164V77.648C55.262 77.352 56.309 76.805 57.809 76.805 59.762 76.805 59.762 78.023 59.762 78.664V79.492ZM59.762 80.57V82.992C58.793 83.789 57.965 84.039 57.34 84.039 55.98 84.039 55.652 83.086 55.652 82.508 55.652 80.57 58.512 80.57 59.23 80.57ZM59.762 80.57" fill="#8c3023"/>
<path d="M5.262 115.965H12.652V114.449H7.324C7.434 113.98 7.512 113.621 8.027 112.871 8.418 112.277 8.965 111.574 9.762 110.824L10.512 110.121C11.277 109.402 12.715 108.043 12.715 106.23 12.715 104.559 11.652 102.621 8.746 102.621 7.215 102.621 6.246 103.043 5.59 103.309V104.84C6.371 104.434 7.34 103.918 8.574 103.918 10.105 103.918 10.871 104.996 10.871 106.23 10.871 107.48 10.152 108.59 9.246 109.48L8.48 110.262C7.809 110.902 6.293 112.449 5.262 114.449ZM5.262 115.965" fill="#5c5c5c"/>
<path d="M54.215 116.199H55.512L55.84 115.012H55.949C56.324 115.465 56.996 116.309 58.559 116.309 60.605 116.309 62.543 114.59 62.543 111.012 62.543 108.371 61.402 106.34 59.059 106.34 57.199 106.34 56.262 107.824 55.949 108.324H55.84L55.949 106.543V102.215H54.215ZM55.949 109.652C57.23 107.809 58.512 107.809 58.699 107.809 60.715 107.809 60.715 110.527 60.715 111.184 60.715 112.449 60.512 113.605 59.84 114.309 59.512 114.684 58.949 115.012 58.324 115.012 57.902 115.012 57.027 114.887 55.949 113.715ZM55.949 109.652" fill="#8c3023"/>
<path d="M5.855 146.723C6.449 146.91 7.246 147.129 8.527 147.129 8.84 147.129 10.152 147.129 11.105 146.582 12.512 145.785 13.027 144.348 13.027 143.207 13.027 142.504 12.824 141.707 12.324 141.004 11.715 140.191 10.934 139.926 10.293 139.707 10.762 139.488 11.355 139.223 11.934 138.473 12.48 137.723 12.637 137.004 12.637 136.426 12.637 135.285 11.996 133.457 8.934 133.457 7.465 133.457 6.559 133.77 6.043 133.973V135.473C6.527 135.223 7.559 134.754 8.855 134.754 10.027 134.754 10.902 135.441 10.902 136.723 10.902 137.488 10.637 137.988 10.418 138.254 9.699 139.207 8.762 139.223 7.559 139.223H7.059V140.457H7.902C9.09 140.457 9.684 140.676 10.324 141.16 10.887 141.598 11.184 142.441 11.184 143.223 11.184 144.098 10.684 145.832 8.559 145.832 7.715 145.832 6.918 145.582 5.855 145.191ZM5.855 146.723" fill="#5c5c5c"/>
<path d="M54.215 147.035H55.512L55.84 145.848H55.949C56.324 146.301 56.996 147.145 58.559 147.145 60.605 147.145 62.543 145.426 62.543 141.848 62.543 139.207 61.402 137.176 59.059 137.176 57.199 137.176 56.262 138.66 55.949 139.16H55.84L55.949 137.379V133.051H54.215ZM55.949 140.488C57.23 138.645 58.512 138.645 58.699 138.645 60.715 138.645 60.715 141.363 60.715 142.02 60.715 143.285 60.512 144.441 59.84 145.145 59.512 145.52 58.949 145.848 58.324 145.848 57.902 145.848 57.027 145.723 55.949 144.551ZM55.949 140.488" fill="#8c3023"/>
<path d="M10.199 177.633H11.824V174.164H13.543V172.867H11.824V164.617H10.199L4.777 172.695V174.164H10.199ZM10.199 166.961V172.867H6.246ZM10.199 166.961" fill="#5c5c5c"/>
<path d="M54.215 177.867H55.512L55.84 176.68H55.949C56.324 177.133 56.996 177.977 58.559 177.977 60.605 177.977 62.543 176.258 62.543 172.68 62.543 170.039 61.402 168.008 59.059 168.008 57.199 168.008 56.262 169.492 55.949 169.992H55.84L55.949 168.211V163.883H54.215ZM55.949 171.32C57.23 169.477 58.512 169.477 58.699 169.477 60.715 169.477 60.715 172.195 60.715 172.852 60.715 174.117 60.512 175.273 59.84 175.977 59.512 176.352 58.949 176.68 58.324 176.68 57.902 176.68 57.027 176.555 55.949 175.383ZM55.949 171.32" fill="#8c3023"/>
<path d="M6.184 208.387C6.777 208.574 7.574 208.793 8.605 208.793 10.918 208.793 12.84 207.152 12.84 204.668 12.84 203.402 12.355 202.324 11.652 201.621 10.387 200.387 8.574 200.371 7.887 200.34V196.965H12.512V195.449H6.418V201.668C6.762 201.637 6.918 201.621 7.199 201.621 9.355 201.621 11.012 202.324 11.012 204.543 11.012 206.293 9.965 207.496 8.543 207.496 7.652 207.496 6.73 207.137 6.184 206.918ZM6.184 208.387" fill="#5c5c5c"/>
<path d="M62.199 199.277C61.371 199.043 60.402 198.84 59.152 198.84 55.418 198.84 54.121 201.324 54.121 203.824 54.121 204.871 54.34 206.355 55.402 207.434 56.121 208.184 57.262 208.809 59.309 208.809 60.84 208.809 61.73 208.496 62.371 208.277V206.918C61.887 207.121 60.809 207.512 59.543 207.512 57.277 207.512 55.965 206.105 55.965 203.824 55.965 201.84 56.949 200.137 59.309 200.137 60.496 200.137 61.527 200.496 62.199 200.746ZM62.199 199.277" fill="#8c3023"/>
<path d="M12.949 226.441C12.293 226.254 11.371 225.957 10.309 225.957 8.262 225.957 5.215 227.488 5.215 233.051 5.215 235.832 5.902 239.629 9.574 239.629 12.465 239.629 13.652 237.066 13.652 235.051 13.652 232.52 11.809 230.988 10.027 230.988 9.262 230.988 8.512 231.254 7.918 231.691 7.496 231.988 7.277 232.285 7.027 232.645 7.012 229.863 7.934 227.254 10.465 227.254 11.387 227.254 12.09 227.566 12.949 227.926ZM9.73 238.332C8.043 238.332 7.246 236.77 7.246 235.035 7.246 232.316 9.324 232.223 9.605 232.223 11.215 232.223 11.98 233.738 11.98 235.395 11.98 236.348 11.59 238.332 9.73 238.332ZM9.73 238.332" fill="#5c5c5c"/>
<path d="M60.418 239.426H62.152V225.551H60.418V229.676L60.527 230.973H60.418C60.043 230.504 59.355 229.676 57.809 229.676 55.73 229.676 53.793 231.395 53.793 234.957 53.793 237.645 54.965 239.645 57.293 239.645 59.168 239.645 60.074 238.191 60.418 237.645H60.527ZM60.418 236.332C59.121 238.16 57.824 238.16 57.652 238.16 55.637 238.16 55.637 235.441 55.637 234.801 55.637 233.52 55.84 232.363 56.496 231.66 56.855 231.285 57.402 230.973 58.043 230.973 58.449 230.973 59.324 231.098 60.418 232.27ZM60.418 236.332" fill="#8c3023"/>
<path d="M9.043 263.523C7.246 266.711 6.512 268.008 6.262 270.133H8.324C8.418 269.43 8.543 268.336 9.434 266.195 10.699 263.148 12.074 260.805 13.402 258.57V257.117H5.559V258.742H11.746ZM9.043 263.523" fill="#5c5c5c"/>
<path d="M60.418 270.258H62.152V256.383H60.418V260.508L60.527 261.805H60.418C60.043 261.336 59.355 260.508 57.809 260.508 55.73 260.508 53.793 262.227 53.793 265.789 53.793 268.477 54.965 270.477 57.293 270.477 59.168 270.477 60.074 269.023 60.418 268.477H60.527ZM60.418 267.164C59.121 268.992 57.824 268.992 57.652 268.992 55.637 268.992 55.637 266.273 55.637 265.633 55.637 264.352 55.84 263.195 56.496 262.492 56.855 262.117 57.402 261.805 58.043 261.805 58.449 261.805 59.324 261.93 60.418 263.102ZM60.418 267.164" fill="#8c3023"/>
<path d="M7.652 293.871C5.73 295.027 5.199 296.621 5.199 297.684 5.199 299.277 6.277 301.293 9.246 301.293 12.184 301.293 13.48 299.262 13.48 297.527 13.48 295.496 11.871 294.527 10.684 293.809 12.293 292.809 12.949 291.574 12.949 290.434 12.949 289.949 12.84 289.277 12.355 288.668 11.777 287.949 10.902 287.621 9.59 287.621 6.371 287.621 5.855 289.934 5.855 290.887 5.855 292.074 6.496 293.027 7.652 293.871ZM9.73 295.277C11.137 296.105 11.746 296.949 11.746 297.902 11.746 298.965 10.871 299.996 9.402 299.996 7.98 299.996 6.902 299.043 6.902 297.48 6.902 295.949 7.887 295.137 8.559 294.574ZM9.23 292.918C7.746 292.043 7.48 291.277 7.48 290.637 7.48 289.934 7.934 288.918 9.434 288.918 11.105 288.918 11.387 290.199 11.387 290.73 11.387 291.418 10.934 292.418 9.699 293.199ZM9.23 292.918" fill="#5c5c5c"/>
<path d="M62.262 296.215C62.262 294.449 62.059 291.34 58.402 291.34 55.559 291.34 53.918 293.793 53.918 296.434 53.918 297.371 54.137 299.043 55.324 300.137 56.137 300.871 57.309 301.309 59.043 301.309 60.527 301.309 61.559 300.965 62.309 300.715V299.34C60.652 300.012 59.48 300.012 59.277 300.012 58.949 300.012 57.34 299.98 56.48 298.918 55.855 298.152 55.809 297.309 55.777 296.777H62.262ZM55.84 295.48C56.012 293.355 57.215 292.637 58.277 292.637 60.465 292.637 60.449 294.73 60.418 295.48ZM55.84 295.48" fill="#8c3023"/>
<path d="M5.809 331.66C6.496 331.848 7.449 332.129 8.48 332.129 10.449 332.129 13.543 330.645 13.543 325.035 13.543 322.254 12.871 318.457 9.199 318.457 6.262 318.457 5.105 321.051 5.105 323.035 5.105 325.551 6.949 327.098 8.746 327.098 9.496 327.098 10.262 326.832 10.855 326.395 11.262 326.098 11.48 325.801 11.73 325.441 11.746 328.316 10.762 330.832 8.309 330.832 7.512 330.832 6.84 330.598 5.809 330.176ZM9.027 319.754C10.699 319.754 11.512 321.301 11.512 323.051 11.512 325.77 9.434 325.863 9.152 325.863 7.59 325.863 6.777 324.379 6.777 322.691 6.777 321.723 7.184 319.754 9.027 319.754ZM9.027 319.754" fill="#5c5c5c"/>
<path d="M56.59 331.926H58.324V323.895H62.871V322.598H58.324V321.41C58.324 320.473 58.324 319.129 60.699 319.129 61.949 319.129 62.73 319.395 63.23 319.582V318.207C62.699 318.051 61.965 317.832 60.543 317.832 56.59 317.832 56.59 320.348 56.59 321.598V322.598H53.98V323.895H56.59ZM56.59 331.926" fill="#8c3023"/>
<path d="M0 362.633H8.672V361.336H5.203V349.289L0 350.914V351.992L3.469 351.227V361.336H0ZM0 362.633" fill="#5c5c5c"/>
<path d="M14.633 362.961C18.289 362.961 19.07 358.586 19.07 356.117 19.07 353.633 18.258 349.289 14.633 349.289 10.992 349.289 10.18 353.617 10.18 356.117 10.18 358.602 10.992 362.961 14.633 362.961ZM14.633 361.664C12.07 361.664 12.023 357.555 12.023 356.133 12.023 354.82 12.039 350.586 14.633 350.586 17.227 350.586 17.242 354.805 17.242 356.117 17.242 357.539 17.195 361.664 14.633 361.664ZM14.633 361.664" fill="#5c5c5c"/>
<path d="M56.59 362.758H58.324V354.727H62.871V353.43H58.324V352.242C58.324 351.305 58.324 349.961 60.699 349.961 61.949 349.961 62.73 350.227 63.23 350.414V349.039C62.699 348.883 61.965 348.664 60.543 348.664 56.59 348.664 56.59 351.18 56.59 352.43V353.43H53.98V354.727H56.59ZM56.59 362.758" fill="#8c3023"/>
<path d="M0 393.465H8.672V392.168H5.203V380.121L0 381.746V382.824L3.469 382.059V392.168H0ZM0 393.465" fill="#5c5c5c"/>
<path d="M10.836 393.465H19.508V392.168H16.039V380.121L10.836 381.746V382.824L14.305 382.059V392.168H10.836ZM10.836 393.465" fill="#5c5c5c"/>
<path d="M56.59 393.59H58.324V385.559H62.871V384.262H58.324V383.074C58.324 382.137 58.324 380.793 60.699 380.793 61.949 380.793 62.73 381.059 63.23 381.246V379.871C62.699 379.715 61.965 379.496 60.543 379.496 56.59 379.496 56.59 382.012 56.59 383.262V384.262H53.98V385.559H56.59ZM56.59 393.59" fill="#8c3023"/>
<path d="M347.918 33.301H296.281V64.008H347.918ZM347.918 64.258H296.281V94.844H347.918ZM347.918 95.094H296.281V125.676H347.918ZM347.918 125.926H296.281V156.508H347.918ZM347.918 156.758H296.281V187.344H347.918ZM347.918 187.594H296.281V218.176H347.918ZM347.918 218.426H296.281V249.008H347.918ZM347.918 249.258H296.281V279.844H347.918ZM347.918 280.094H296.281V310.676H347.918ZM347.918 310.926H296.281V341.508H347.918ZM347.918 341.758H296.281V372.344H347.918ZM347.918 372.594H296.281V403.301H347.918ZM347.918 372.594" fill="#cacaca"/>
<path stroke-width=".25" stroke-linecap="butt" stroke-miterlimit="10" stroke-linejoin="miter" fill="none" stroke="#e6e8eb" d="M296.281 372.469H347.918ZM296.281 372.469"/>
<path stroke-width=".25" stroke-linecap="butt" stroke-miterlimit="10" stroke-linejoin="miter" fill="none" stroke="#e6e8eb" d="M296.281 341.633H347.918ZM296.281 341.633"/>
<path stroke-width=".25" stroke-linecap="butt" stroke-miterlimit="10" stroke-linejoin="miter" fill="none" stroke="#e6e8eb" d="M296.281 310.801H347.918ZM296.281 310.801"/>
<path stroke-width=".25" stroke-linecap="butt" stroke-miterlimit="10" stroke-linejoin="miter" fill="none" stroke="#e6e8eb" d="M296.281 279.969H347.918ZM296.281 279.969"/>
<path stroke-width=".25" stroke-linecap="butt" stroke-miterlimit="10" stroke-linejoin="miter" fill="none" stroke="#e6e8eb" d="M296.281 249.133H347.918ZM296.281 249.133"/>
<path stroke-width=".25" stroke-linecap="butt" stroke-miterlimit="10" stroke-linejoin="miter" fill="none" stroke="#e6e8eb" d="M296.281 218.301H347.918ZM296.281 218.301"/>
<path stroke-width=".25" stroke-linecap="butt" stroke-miterlimit="10" stroke-linejoin="miter" fill="none" stroke="#e6e8eb" d="M296.281 187.469H347.918ZM296.281 187.469"/>
<path stroke-width=".25" stroke-linecap="butt" stroke-miterlimit="10" stroke-linejoin="miter" fill="none" stroke="#e6e8eb" d="M296.281 156.633H347.918ZM296.281 156.633"/>
<path stroke-width=".25" stroke-linecap="butt" stroke-miterlimit="10" stroke-linejoin="miter" fill="none" stroke="#e6e8eb" d="M296.281 125.801H347.918ZM296.281 125.801"/>
<path stroke-width=".25" stroke-linecap="butt" stroke-miterlimit="10" stroke-linejoin="miter" fill="none" stroke="#e6e8eb" d="M296.281 94.969H347.918ZM296.281 94.969"/>
<path stroke-width=".25" stroke-linecap="butt" stroke-miterlimit="10" stroke-linejoin="miter" fill="none" stroke="#e6e8eb" d="M296.281 64.133H347.918ZM296.281 64.133"/>
<path d="M273.215 53.629C276.871 53.629 277.652 49.254 277.652 46.785 277.652 44.301 276.84 39.957 273.215 39.957 269.574 39.957 268.762 44.285 268.762 46.785 268.762 49.27 269.574 53.629 273.215 53.629ZM273.215 52.332C270.652 52.332 270.605 48.223 270.605 46.801 270.605 45.488 270.621 41.254 273.215 41.254 275.809 41.254 275.824 45.473 275.824 46.785 275.824 48.207 275.777 52.332 273.215 52.332ZM273.215 52.332" fill="#5c5c5c"/>
<path d="M322.684 47.535C320.324 47.535 317.871 48.52 317.871 50.848 317.871 52.457 319.262 53.457 320.871 53.457 322.449 53.457 323.527 52.566 324.027 52.145 324.215 52.66 324.48 53.457 325.762 53.457 326.184 53.457 326.559 53.332 327.074 53.176L326.902 52.145C326.746 52.191 326.527 52.238 326.371 52.238 325.48 52.238 325.48 51.488 325.48 50.738V46.77C325.48 44.613 324.777 43.551 322.137 43.551 320.543 43.551 319.48 43.926 318.699 44.207V45.691C319.262 45.395 320.309 44.848 321.809 44.848 323.762 44.848 323.762 46.066 323.762 46.707V47.535ZM323.762 48.613V51.035C322.793 51.832 321.965 52.082 321.34 52.082 319.98 52.082 319.652 51.129 319.652 50.551 319.652 48.613 322.512 48.613 323.23 48.613ZM323.762 48.613"/>
<path d="M269.418 84.133H278.09V82.836H274.621V70.789L269.418 72.414V73.492L272.887 72.727V82.836H269.418ZM269.418 84.133" fill="#5c5c5c"/>
<path d="M322.684 78.492C320.324 78.492 317.871 79.477 317.871 81.805 317.871 83.414 319.262 84.414 320.871 84.414 322.449 84.414 323.527 83.523 324.027 83.102 324.215 83.617 324.48 84.414 325.762 84.414 326.184 84.414 326.559 84.289 327.074 84.133L326.902 83.102C326.746 83.148 326.527 83.195 326.371 83.195 325.48 83.195 325.48 82.445 325.48 81.695V77.727C325.48 75.57 324.777 74.508 322.137 74.508 320.543 74.508 319.48 74.883 318.699 75.164V76.648C319.262 76.352 320.309 75.805 321.809 75.805 323.762 75.805 323.762 77.023 323.762 77.664V78.492ZM323.762 79.57V81.992C322.793 82.789 321.965 83.039 321.34 83.039 319.98 83.039 319.652 82.086 319.652 81.508 319.652 79.57 322.512 79.57 323.23 79.57ZM323.762 79.57"/>
<path d="M269.262 114.965H276.652V113.449H271.324C271.434 112.98 271.512 112.621 272.027 111.871 272.418 111.277 272.965 110.574 273.762 109.824L274.512 109.121C275.277 108.402 276.715 107.043 276.715 105.23 276.715 103.559 275.652 101.621 272.746 101.621 271.215 101.621 270.246 102.043 269.59 102.309V103.84C270.371 103.434 271.34 102.918 272.574 102.918 274.105 102.918 274.871 103.996 274.871 105.23 274.871 106.48 274.152 107.59 273.246 108.48L272.48 109.262C271.809 109.902 270.293 111.449 269.262 113.449ZM269.262 114.965" fill="#5c5c5c"/>
<path d="M318.215 115.199H319.512L319.84 114.012H319.949C320.324 114.465 320.996 115.309 322.559 115.309 324.605 115.309 326.543 113.59 326.543 110.012 326.543 107.371 325.402 105.34 323.059 105.34 321.199 105.34 320.262 106.824 319.949 107.324H319.84L319.949 105.543V101.215H318.215ZM319.949 108.652C321.23 106.809 322.512 106.809 322.699 106.809 324.715 106.809 324.715 109.527 324.715 110.184 324.715 111.449 324.512 112.605 323.84 113.309 323.512 113.684 322.949 114.012 322.324 114.012 321.902 114.012 321.027 113.887 319.949 112.715ZM319.949 108.652"/>
<path d="M269.855 145.723C270.449 145.91 271.246 146.129 272.527 146.129 272.84 146.129 274.152 146.129 275.105 145.582 276.512 144.785 277.027 143.348 277.027 142.207 277.027 141.504 276.824 140.707 276.324 140.004 275.715 139.191 274.934 138.926 274.293 138.707 274.762 138.488 275.355 138.223 275.934 137.473 276.48 136.723 276.637 136.004 276.637 135.426 276.637 134.285 275.996 132.457 272.934 132.457 271.465 132.457 270.559 132.77 270.043 132.973V134.473C270.527 134.223 271.559 133.754 272.855 133.754 274.027 133.754 274.902 134.441 274.902 135.723 274.902 136.488 274.637 136.988 274.418 137.254 273.699 138.207 272.762 138.223 271.559 138.223H271.059V139.457H271.902C273.09 139.457 273.684 139.676 274.324 140.16 274.887 140.598 275.184 141.441 275.184 142.223 275.184 143.098 274.684 144.832 272.559 144.832 271.715 144.832 270.918 144.582 269.855 144.191ZM269.855 145.723" fill="#5c5c5c"/>
<path d="M318.215 146.035H319.512L319.84 144.848H319.949C320.324 145.301 320.996 146.145 322.559 146.145 324.605 146.145 326.543 144.426 326.543 140.848 326.543 138.207 325.402 136.176 323.059 136.176 321.199 136.176 320.262 137.66 319.949 138.16H319.84L319.949 136.379V132.051H318.215ZM319.949 139.488C321.23 137.645 322.512 137.645 322.699 137.645 324.715 137.645 324.715 140.363 324.715 141.02 324.715 142.285 324.512 143.441 323.84 144.145 323.512 144.52 322.949 144.848 322.324 144.848 321.902 144.848 321.027 144.723 319.949 143.551ZM319.949 139.488"/>
<path d="M274.199 176.633H275.824V173.164H277.543V171.867H275.824V163.617H274.199L268.777 171.695V173.164H274.199ZM274.199 165.961V171.867H270.246ZM274.199 165.961" fill="#5c5c5c"/>
<path d="M318.215 176.867H319.512L319.84 175.68H319.949C320.324 176.133 320.996 176.977 322.559 176.977 324.605 176.977 326.543 175.258 326.543 171.68 326.543 169.039 325.402 167.008 323.059 167.008 321.199 167.008 320.262 168.492 319.949 168.992H319.84L319.949 167.211V162.883H318.215ZM319.949 170.32C321.23 168.477 322.512 168.477 322.699 168.477 324.715 168.477 324.715 171.195 324.715 171.852 324.715 173.117 324.512 174.273 323.84 174.977 323.512 175.352 322.949 175.68 322.324 175.68 321.902 175.68 321.027 175.555 319.949 174.383ZM319.949 170.32"/>
<path d="M270.184 207.387C270.777 207.574 271.574 207.793 272.605 207.793 274.918 207.793 276.84 206.152 276.84 203.668 276.84 202.402 276.355 201.324 275.652 200.621 274.387 199.387 272.574 199.371 271.887 199.34V195.965H276.512V194.449H270.418V200.668C270.762 200.637 270.918 200.621 271.199 200.621 273.355 200.621 275.012 201.324 275.012 203.543 275.012 205.293 273.965 206.496 272.543 206.496 271.652 206.496 270.73 206.137 270.184 205.918ZM270.184 207.387" fill="#5c5c5c"/>
<path d="M326.199 198.277C325.371 198.043 324.402 197.84 323.152 197.84 319.418 197.84 318.121 200.324 318.121 202.824 318.121 203.871 318.34 205.355 319.402 206.434 320.121 207.184 321.262 207.809 323.309 207.809 324.84 207.809 325.73 207.496 326.371 207.277V205.918C325.887 206.121 324.809 206.512 323.543 206.512 321.277 206.512 319.965 205.105 319.965 202.824 319.965 200.84 320.949 199.137 323.309 199.137 324.496 199.137 325.527 199.496 326.199 199.746ZM326.199 198.277"/>
<path d="M276.949 225.441C276.293 225.254 275.371 224.957 274.309 224.957 272.262 224.957 269.215 226.488 269.215 232.051 269.215 234.832 269.902 238.629 273.574 238.629 276.465 238.629 277.652 236.066 277.652 234.051 277.652 231.52 275.809 229.988 274.027 229.988 273.262 229.988 272.512 230.254 271.918 230.691 271.496 230.988 271.277 231.285 271.027 231.645 271.012 228.863 271.934 226.254 274.465 226.254 275.387 226.254 276.09 226.566 276.949 226.926ZM273.73 237.332C272.043 237.332 271.246 235.77 271.246 234.035 271.246 231.316 273.324 231.223 273.605 231.223 275.215 231.223 275.98 232.738 275.98 234.395 275.98 235.348 275.59 237.332 273.73 237.332ZM273.73 237.332" fill="#5c5c5c"/>
<path d="M324.418 238.426H326.152V224.551H324.418V228.676L324.527 229.973H324.418C324.043 229.504 323.355 228.676 321.809 228.676 319.73 228.676 317.793 230.395 317.793 233.957 317.793 236.645 318.965 238.645 321.293 238.645 323.168 238.645 324.074 237.191 324.418 236.645H324.527ZM324.418 235.332C323.121 237.16 321.824 237.16 321.652 237.16 319.637 237.16 319.637 234.441 319.637 233.801 319.637 232.52 319.84 231.363 320.496 230.66 320.855 230.285 321.402 229.973 322.043 229.973 322.449 229.973 323.324 230.098 324.418 231.27ZM324.418 235.332"/>
<path d="M273.043 262.523C271.246 265.711 270.512 267.008 270.262 269.133H272.324C272.418 268.43 272.543 267.336 273.434 265.195 274.699 262.148 276.074 259.805 277.402 257.57V256.117H269.559V257.742H275.746ZM273.043 262.523" fill="#5c5c5c"/>
<path d="M324.418 269.258H326.152V255.383H324.418V259.508L324.527 260.805H324.418C324.043 260.336 323.355 259.508 321.809 259.508 319.73 259.508 317.793 261.227 317.793 264.789 317.793 267.477 318.965 269.477 321.293 269.477 323.168 269.477 324.074 268.023 324.418 267.477H324.527ZM324.418 266.164C323.121 267.992 321.824 267.992 321.652 267.992 319.637 267.992 319.637 265.273 319.637 264.633 319.637 263.352 319.84 262.195 320.496 261.492 320.855 261.117 321.402 260.805 322.043 260.805 322.449 260.805 323.324 260.93 324.418 262.102ZM324.418 266.164"/>
<path d="M271.652 292.871C269.73 294.027 269.199 295.621 269.199 296.684 269.199 298.277 270.277 300.293 273.246 300.293 276.184 300.293 277.48 298.262 277.48 296.527 277.48 294.496 275.871 293.527 274.684 292.809 276.293 291.809 276.949 290.574 276.949 289.434 276.949 288.949 276.84 288.277 276.355 287.668 275.777 286.949 274.902 286.621 273.59 286.621 270.371 286.621 269.855 288.934 269.855 289.887 269.855 291.074 270.496 292.027 271.652 292.871ZM273.73 294.277C275.137 295.105 275.746 295.949 275.746 296.902 275.746 297.965 274.871 298.996 273.402 298.996 271.98 298.996 270.902 298.043 270.902 296.48 270.902 294.949 271.887 294.137 272.559 293.574ZM273.23 291.918C271.746 291.043 271.48 290.277 271.48 289.637 271.48 288.934 271.934 287.918 273.434 287.918 275.105 287.918 275.387 289.199 275.387 289.73 275.387 290.418 274.934 291.418 273.699 292.199ZM273.23 291.918" fill="#5c5c5c"/>
<path d="M326.262 295.215C326.262 293.449 326.059 290.34 322.402 290.34 319.559 290.34 317.918 292.793 317.918 295.434 317.918 296.371 318.137 298.043 319.324 299.137 320.137 299.871 321.309 300.309 323.043 300.309 324.527 300.309 325.559 299.965 326.309 299.715V298.34C324.652 299.012 323.48 299.012 323.277 299.012 322.949 299.012 321.34 298.98 320.48 297.918 319.855 297.152 319.809 296.309 319.777 295.777H326.262ZM319.84 294.48C320.012 292.355 321.215 291.637 322.277 291.637 324.465 291.637 324.449 293.73 324.418 294.48ZM319.84 294.48"/>
<path d="M269.809 330.66C270.496 330.848 271.449 331.129 272.48 331.129 274.449 331.129 277.543 329.645 277.543 324.035 277.543 321.254 276.871 317.457 273.199 317.457 270.262 317.457 269.105 320.051 269.105 322.035 269.105 324.551 270.949 326.098 272.746 326.098 273.496 326.098 274.262 325.832 274.855 325.395 275.262 325.098 275.48 324.801 275.73 324.441 275.746 327.316 274.762 329.832 272.309 329.832 271.512 329.832 270.84 329.598 269.809 329.176ZM273.027 318.754C274.699 318.754 275.512 320.301 275.512 322.051 275.512 324.77 273.434 324.863 273.152 324.863 271.59 324.863 270.777 323.379 270.777 321.691 270.777 320.723 271.184 318.754 273.027 318.754ZM273.027 318.754" fill="#5c5c5c"/>
<path d="M320.59 330.926H322.324V322.895H326.871V321.598H322.324V320.41C322.324 319.473 322.324 318.129 324.699 318.129 325.949 318.129 326.73 318.395 327.23 318.582V317.207C326.699 317.051 325.965 316.832 324.543 316.832 320.59 316.832 320.59 319.348 320.59 320.598V321.598H317.98V322.895H320.59ZM320.59 330.926"/>
<path d="M264 361.633H272.672V360.336H269.203V348.289L264 349.914V350.992L267.469 350.227V360.336H264ZM264 361.633" fill="#5c5c5c"/>
<path d="M278.633 361.961C282.289 361.961 283.07 357.586 283.07 355.117 283.07 352.633 282.258 348.289 278.633 348.289 274.992 348.289 274.18 352.617 274.18 355.117 274.18 357.602 274.992 361.961 278.633 361.961ZM278.633 360.664C276.07 360.664 276.023 356.555 276.023 355.133 276.023 353.82 276.039 349.586 278.633 349.586 281.227 349.586 281.242 353.805 281.242 355.117 281.242 356.539 281.195 360.664 278.633 360.664ZM278.633 360.664" fill="#5c5c5c"/>
<path d="M320.59 361.758H322.324V353.727H326.871V352.43H322.324V351.242C322.324 350.305 322.324 348.961 324.699 348.961 325.949 348.961 326.73 349.227 327.23 349.414V348.039C326.699 347.883 325.965 347.664 324.543 347.664 320.59 347.664 320.59 350.18 320.59 351.43V352.43H317.98V353.727H320.59ZM320.59 361.758"/>
<path d="M264 392.465H272.672V391.168H269.203V379.121L264 380.746V381.824L267.469 381.059V391.168H264ZM264 392.465" fill="#5c5c5c"/>
<path d="M274.836 392.465H283.508V391.168H280.039V379.121L274.836 380.746V381.824L278.305 381.059V391.168H274.836ZM274.836 392.465" fill="#5c5c5c"/>
<path d="M320.59 392.59H322.324V384.559H326.871V383.262H322.324V382.074C322.324 381.137 322.324 379.793 324.699 379.793 325.949 379.793 326.73 380.059 327.23 380.246V378.871C326.699 378.715 325.965 378.496 324.543 378.496 320.59 378.496 320.59 381.012 320.59 382.262V383.262H317.98V384.559H320.59ZM320.59 392.59"/>
<path d="M126.777 111.898H128.309V106.383C128.652 105.883 129.652 104.539 131.215 104.539 131.512 104.539 131.668 104.57 131.871 104.617V105.836H133.027V103.414C132.637 103.336 132.152 103.227 131.465 103.227 130.855 103.227 129.465 103.258 128.309 105.008H128.215L128.309 103.414H126.777ZM126.777 111.898" fill="#005191"/>
<path d="M152.086 103.633C151.352 103.414 150.477 103.227 149.367 103.227 146.055 103.227 144.898 105.43 144.898 107.664 144.898 108.586 145.086 109.914 146.039 110.867 146.68 111.523 147.68 112.086 149.508 112.086 150.867 112.086 151.664 111.82 152.227 111.633V110.414C151.789 110.586 150.836 110.945 149.711 110.945 147.695 110.945 146.523 109.695 146.523 107.664 146.523 105.898 147.414 104.383 149.508 104.383 150.555 104.383 151.477 104.695 152.086 104.93ZM152.086 103.633" fill="#005191"/>
<path d="M158.063 112.086C160.969 112.086 162.063 109.914 162.063 107.664 162.063 105.461 161.016 103.227 158.063 103.227 155.203 103.227 154.063 105.352 154.063 107.664 154.063 109.82 155.094 112.086 158.063 112.086ZM158.063 110.945C156.297 110.945 155.703 109.289 155.703 107.664 155.703 105.977 156.328 104.383 158.063 104.383 159.813 104.383 160.438 105.977 160.438 107.664 160.438 109.227 159.875 110.945 158.063 110.945ZM158.063 110.945" fill="#005191"/>
<path d="M171.086 103.414H169.555V108.977C168.523 110.336 167.789 110.633 167.133 110.633 165.789 110.633 165.789 109.477 165.789 108.805V103.414H164.258V109.227C164.258 110.32 164.383 110.727 164.789 111.273 165.227 111.852 166.008 112.086 166.68 112.086 167.336 112.086 168.648 111.852 169.555 110.32H169.648L169.555 111.898H171.086ZM171.086 103.414" fill="#005191"/>
<path d="M173.934 111.898H175.465V106.352C176.465 105.039 177.199 104.68 177.887 104.68 179.23 104.68 179.23 105.836 179.23 106.508V111.898H180.762V106.086C180.762 105.008 180.637 104.586 180.246 104.039 179.809 103.461 179.012 103.227 178.355 103.227 177.574 103.227 176.34 103.555 175.465 105.008H175.371L175.465 103.414H173.934ZM173.934 111.898" fill="#005191"/>
<path d="M185.285 108.852C185.285 111.039 185.676 112.086 188.551 112.086 188.738 112.086 189.598 112.086 190.738 111.898V110.711C190.113 110.852 189.473 110.945 188.832 110.945 188.41 110.945 187.645 110.883 187.176 110.492 186.863 110.258 186.816 109.945 186.816 109.117V104.758H190.582V103.617H186.816V101.789H185.285V103.617H183.176V104.758H185.285ZM185.285 108.852" fill="#005191"/>
<path d="M195.246 114.195H200.059V113.055H196.59V100.711H200.059V99.555H195.246ZM195.246 114.195" fill="#005191"/>
<path d="M203.832 111.898H205.363V106.383C205.707 105.883 206.707 104.539 208.27 104.539 208.566 104.539 208.723 104.57 208.926 104.617V105.836H210.082V103.414C209.691 103.336 209.207 103.227 208.52 103.227 207.91 103.227 206.52 103.258 205.363 105.008H205.27L205.363 103.414H203.832ZM203.832 111.898" fill="#005191"/>
<path d="M217.199 99.555H212.387V100.711H215.855V113.055H212.387V114.195H217.199ZM217.199 99.555" fill="#005191"/>
<path d="M271.461 12.344H272.992V3.859H268.367V5.016H271.461ZM271.258 1.922H273.18V0H271.258ZM271.258 1.922" fill="#005191"/>
<path d="M301.25 7.219C299.156 7.219 296.984 8.094 296.984 10.172 296.984 11.594 298.203 12.484 299.656 12.484 301.047 12.484 302 11.688 302.453 11.313 302.609 11.766 302.844 12.484 303.984 12.484 304.375 12.484 304.703 12.375 305.156 12.234L305.016 11.313C304.859 11.359 304.672 11.406 304.531 11.406 303.75 11.406 303.75 10.734 303.75 10.078V6.531C303.75 4.609 303.125 3.672 300.766 3.672 299.344 3.672 298.406 4 297.719 4.266V5.578C298.203 5.313 299.141 4.828 300.484 4.828 302.203 4.828 302.203 5.906 302.203 6.484V7.219ZM302.203 8.188V10.328C301.344 11.031 300.609 11.25 300.063 11.25 298.844 11.25 298.563 10.406 298.563 9.891 298.563 8.188 301.109 8.188 301.75 8.188ZM302.203 8.188" fill="#005191"/>
<path d="M313.758 3.859H312.227V9.422C311.195 10.781 310.461 11.078 309.805 11.078 308.461 11.078 308.461 9.922 308.461 9.25V3.859H306.93V9.672C306.93 10.766 307.055 11.172 307.461 11.719 307.898 12.297 308.68 12.531 309.352 12.531 310.008 12.531 311.32 12.297 312.227 10.766H312.32L312.227 12.344H313.758ZM313.758 3.859" fill="#005191"/>
<path d="M315.902 12.344H317.449L319.84 9.109 322.277 12.344H324.199L320.996 8.063 323.871 3.859H322.34L320.199 7 317.855 3.859H315.918L319.059 8.063ZM315.902 12.344" fill="#005191"/>
<path d="M328.285 14.641H333.098V13.5H329.629V1.156H333.098V0H328.285ZM328.285 14.641" fill="#005191"/>
<path d="M338.887 12.344H340.418V3.859H335.793V5.016H338.887ZM338.684 1.922H340.605V0H338.684ZM338.684 1.922" fill="#005191"/>
<path d="M350.238 0H345.426V1.156H348.895V13.5H345.426V14.641H350.238ZM350.238 0" fill="#005191"/>
</g>
</svg>
