<svg xmlns="http://www.w3.org/2000/svg" xmlns:xlink="http://www.w3.org/1999/xlink" xmlns:inkscape="http://www.inkscape.org/namespaces/inkscape" version="1.1" width="217.19776" height="416.53126" viewBox="0 0 217.19776 416.53126">
<g>
<path d="M212.273 142.531H154.34V173.238H212.273ZM212.273 173.488H154.34V204.074H212.273ZM212.273 204.324H154.34V234.906H212.273ZM212.273 235.156H154.34V265.738H212.273ZM212.273 265.988H154.34V296.574H212.273ZM212.273 296.824H154.34V327.406H212.273ZM212.273 327.656H154.34V358.363H212.273ZM212.273 327.656" fill="#cacaca"/>
<path stroke-width=".25" stroke-linecap="butt" stroke-miterlimit="10" stroke-linejoin="miter" fill="none" stroke="#e6e8eb" d="M154.34 327.531H212.273ZM154.34 327.531"/>
<path stroke-width=".25" stroke-linecap="butt" stroke-miterlimit="10" stroke-linejoin="miter" fill="none" stroke="#e6e8eb" d="M154.34 296.699H212.273ZM154.34 296.699"/>
<path stroke-width=".25" stroke-linecap="butt" stroke-miterlimit="10" stroke-linejoin="miter" fill="none" stroke="#e6e8eb" d="M154.34 265.863H212.273ZM154.34 265.863"/>
<path stroke-width=".25" stroke-linecap="butt" stroke-miterlimit="10" stroke-linejoin="miter" fill="none" stroke="#e6e8eb" d="M154.34 235.031H212.273ZM154.34 235.031"/>
<path stroke-width=".25" stroke-linecap="butt" stroke-miterlimit="10" stroke-linejoin="miter" fill="none" stroke="#e6e8eb" d="M154.34 204.199H212.273ZM154.34 204.199"/>
<path stroke-width=".25" stroke-linecap="butt" stroke-miterlimit="10" stroke-linejoin="miter" fill="none" stroke="#e6e8eb" d="M154.34 173.363H212.273ZM154.34 173.363"/>
<path d="M130.555 156.766C128.195 156.766 125.742 157.75 125.742 160.078 125.742 161.688 127.133 162.688 128.742 162.688 130.32 162.688 131.398 161.797 131.898 161.375 132.086 161.891 132.352 162.688 133.633 162.688 134.055 162.688 134.43 162.563 134.945 162.406L134.773 161.375C134.617 161.422 134.398 161.469 134.242 161.469 133.352 161.469 133.352 160.719 133.352 159.969V156C133.352 153.844 132.648 152.781 130.008 152.781 128.414 152.781 127.352 153.156 126.57 153.438V154.922C127.133 154.625 128.18 154.078 129.68 154.078 131.633 154.078 131.633 155.297 131.633 155.938V156.766ZM131.633 157.844V160.266C130.664 161.063 129.836 161.313 129.211 161.313 127.852 161.313 127.523 160.359 127.523 159.781 127.523 157.844 130.383 157.844 131.102 157.844ZM131.633 157.844" fill="#5c5c5c"/>
<path d="M185.621 162.859C189.277 162.859 190.059 158.484 190.059 156.016 190.059 153.531 189.246 149.188 185.621 149.188 181.98 149.188 181.168 153.516 181.168 156.016 181.168 158.5 181.98 162.859 185.621 162.859ZM185.621 161.563C183.059 161.563 183.012 157.453 183.012 156.031 183.012 154.719 183.027 150.484 185.621 150.484 188.215 150.484 188.23 154.703 188.23 156.016 188.23 157.438 188.184 161.563 185.621 161.563ZM185.621 161.563"/>
<path d="M126.086 193.473H127.383L127.711 192.285H127.82C128.195 192.738 128.867 193.582 130.43 193.582 132.477 193.582 134.414 191.863 134.414 188.285 134.414 185.645 133.273 183.613 130.93 183.613 129.07 183.613 128.133 185.098 127.82 185.598H127.711L127.82 183.816V179.488H126.086ZM127.82 186.926C129.102 185.082 130.383 185.082 130.57 185.082 132.586 185.082 132.586 187.801 132.586 188.457 132.586 189.723 132.383 190.879 131.711 191.582 131.383 191.957 130.82 192.285 130.195 192.285 129.773 192.285 128.898 192.16 127.82 190.988ZM127.82 186.926" fill="#5c5c5c"/>
<path d="M181.668 193.488H189.059V191.973H183.73C183.84 191.504 183.918 191.145 184.434 190.395 184.824 189.801 185.371 189.098 186.168 188.348L186.918 187.645C187.684 186.926 189.121 185.566 189.121 183.754 189.121 182.082 188.059 180.145 185.152 180.145 183.621 180.145 182.652 180.566 181.996 180.832V182.363C182.777 181.957 183.746 181.441 184.98 181.441 186.512 181.441 187.277 182.52 187.277 183.754 187.277 185.004 186.559 186.113 185.652 187.004L184.887 187.785C184.215 188.426 182.699 189.973 181.668 191.973ZM181.668 193.488"/>
<path d="M134.07 214.887C133.242 214.652 132.273 214.449 131.023 214.449 127.289 214.449 125.992 216.934 125.992 219.434 125.992 220.48 126.211 221.965 127.273 223.043 127.992 223.793 129.133 224.418 131.18 224.418 132.711 224.418 133.602 224.105 134.242 223.887V222.527C133.758 222.73 132.68 223.121 131.414 223.121 129.148 223.121 127.836 221.715 127.836 219.434 127.836 217.449 128.82 215.746 131.18 215.746 132.367 215.746 133.398 216.105 134.07 216.355ZM134.07 214.887" fill="#5c5c5c"/>
<path d="M182.262 224.246C182.855 224.434 183.652 224.652 184.934 224.652 185.246 224.652 186.559 224.652 187.512 224.105 188.918 223.309 189.434 221.871 189.434 220.73 189.434 220.027 189.23 219.23 188.73 218.527 188.121 217.715 187.34 217.449 186.699 217.23 187.168 217.012 187.762 216.746 188.34 215.996 188.887 215.246 189.043 214.527 189.043 213.949 189.043 212.809 188.402 210.98 185.34 210.98 183.871 210.98 182.965 211.293 182.449 211.496V212.996C182.934 212.746 183.965 212.277 185.262 212.277 186.434 212.277 187.309 212.965 187.309 214.246 187.309 215.012 187.043 215.512 186.824 215.777 186.105 216.73 185.168 216.746 183.965 216.746H183.465V217.98H184.309C185.496 217.98 186.09 218.199 186.73 218.684 187.293 219.121 187.59 219.965 187.59 220.746 187.59 221.621 187.09 223.355 184.965 223.355 184.121 223.355 183.324 223.105 182.262 222.715ZM182.262 224.246"/>
<path d="M132.289 255.031H134.023V241.156H132.289V245.281L132.398 246.578H132.289C131.914 246.109 131.227 245.281 129.68 245.281 127.602 245.281 125.664 247 125.664 250.563 125.664 253.25 126.836 255.25 129.164 255.25 131.039 255.25 131.945 253.797 132.289 253.25H132.398ZM132.289 251.938C130.992 253.766 129.695 253.766 129.523 253.766 127.508 253.766 127.508 251.047 127.508 250.406 127.508 249.125 127.711 247.969 128.367 247.266 128.727 246.891 129.273 246.578 129.914 246.578 130.32 246.578 131.195 246.703 132.289 247.875ZM132.289 251.938" fill="#5c5c5c"/>
<path d="M181.824 255.156H190.496V253.859H187.027V241.813L181.824 243.438V244.516L185.293 243.75V253.859H181.824ZM181.824 255.156"/>
<path d="M134.133 280.988C134.133 279.223 133.93 276.113 130.273 276.113 127.43 276.113 125.789 278.566 125.789 281.207 125.789 282.145 126.008 283.816 127.195 284.91 128.008 285.645 129.18 286.082 130.914 286.082 132.398 286.082 133.43 285.738 134.18 285.488V284.113C132.523 284.785 131.352 284.785 131.148 284.785 130.82 284.785 129.211 284.754 128.352 283.691 127.727 282.926 127.68 282.082 127.648 281.551H134.133ZM127.711 280.254C127.883 278.129 129.086 277.41 130.148 277.41 132.336 277.41 132.32 279.504 132.289 280.254ZM127.711 280.254" fill="#5c5c5c"/>
<path d="M181.668 285.988H189.059V284.473H183.73C183.84 284.004 183.918 283.645 184.434 282.895 184.824 282.301 185.371 281.598 186.168 280.848L186.918 280.145C187.684 279.426 189.121 278.066 189.121 276.254 189.121 274.582 188.059 272.645 185.152 272.645 183.621 272.645 182.652 273.066 181.996 273.332V274.863C182.777 274.457 183.746 273.941 184.98 273.941 186.512 273.941 187.277 275.02 187.277 276.254 187.277 277.504 186.559 278.613 185.652 279.504L184.887 280.285C184.215 280.926 182.699 282.473 181.668 284.473ZM181.668 285.988"/>
<path d="M128.461 316.699H130.195V308.668H134.742V307.371H130.195V306.184C130.195 305.246 130.195 303.902 132.57 303.902 133.82 303.902 134.602 304.168 135.102 304.355V302.98C134.57 302.824 133.836 302.605 132.414 302.605 128.461 302.605 128.461 305.121 128.461 306.371V307.371H125.852V308.668H128.461ZM128.461 316.699" fill="#5c5c5c"/>
<path d="M181.824 316.824H190.496V315.527H187.027V303.48L181.824 305.105V306.184L185.293 305.418V315.527H181.824ZM181.824 316.824"/>
<path d="M126.398 341.469H133.554V342.766H126.398Z" fill="#5c5c5c"/>
<path d="M182.262 347.578C182.855 347.766 183.652 347.984 184.934 347.984 185.246 347.984 186.559 347.984 187.512 347.438 188.918 346.641 189.434 345.203 189.434 344.063 189.434 343.359 189.23 342.563 188.73 341.859 188.121 341.047 187.34 340.781 186.699 340.563 187.168 340.344 187.762 340.078 188.34 339.328 188.887 338.578 189.043 337.859 189.043 337.281 189.043 336.141 188.402 334.313 185.34 334.313 183.871 334.313 182.965 334.625 182.449 334.828V336.328C182.934 336.078 183.965 335.609 185.262 335.609 186.434 335.609 187.309 336.297 187.309 337.578 187.309 338.344 187.043 338.844 186.824 339.109 186.105 340.063 185.168 340.078 183.965 340.078H183.465V341.313H184.309C185.496 341.313 186.09 341.531 186.73 342.016 187.293 342.453 187.59 343.297 187.59 344.078 187.59 344.953 187.09 346.688 184.965 346.688 184.121 346.688 183.324 346.438 182.262 346.047ZM182.262 347.578"/>
<path d="M13.094 24.574H14.625V16.09H10V17.246H13.094ZM12.891 14.152H14.813V12.23H12.891ZM12.891 14.152" fill="#005191"/>
<path d="M42.883 19.449C40.789 19.449 38.617 20.324 38.617 22.402 38.617 23.824 39.836 24.715 41.289 24.715 42.68 24.715 43.633 23.918 44.086 23.543 44.242 23.996 44.477 24.715 45.617 24.715 46.008 24.715 46.336 24.605 46.789 24.465L46.648 23.543C46.492 23.59 46.305 23.637 46.164 23.637 45.383 23.637 45.383 22.965 45.383 22.309V18.762C45.383 16.84 44.758 15.902 42.398 15.902 40.977 15.902 40.039 16.23 39.352 16.496V17.809C39.836 17.543 40.773 17.059 42.117 17.059 43.836 17.059 43.836 18.137 43.836 18.715V19.449ZM43.836 20.418V22.559C42.977 23.262 42.242 23.48 41.695 23.48 40.477 23.48 40.195 22.637 40.195 22.121 40.195 20.418 42.742 20.418 43.383 20.418ZM43.836 20.418" fill="#005191"/>
<path d="M50.652 26.871H55.465V25.73H51.996V13.387H55.465V12.23H50.652ZM50.652 26.871" fill="#005191"/>
<path d="M61.254 24.574H62.785V16.09H58.16V17.246H61.254ZM61.051 14.152H62.973V12.23H61.051ZM61.051 14.152" fill="#005191"/>
<path d="M72.605 12.23H67.793V13.387H71.262V25.73H67.793V26.871H72.605ZM72.605 12.23" fill="#005191"/>
<path d="M83.918 46.531H32.281V77.238H83.918ZM83.918 77.488H32.281V108.074H83.918ZM83.918 108.324H32.281V138.906H83.918ZM83.918 139.156H32.281V169.738H83.918ZM83.918 169.988H32.281V200.574H83.918ZM83.918 200.824H32.281V231.406H83.918ZM83.918 231.656H32.281V262.238H83.918ZM83.918 262.488H32.281V293.074H83.918ZM83.918 293.324H32.281V323.906H83.918ZM83.918 324.156H32.281V354.738H83.918ZM83.918 354.988H32.281V385.574H83.918ZM83.918 385.824H32.281V416.531H83.918ZM83.918 385.824" fill="#cacaca"/>
<path stroke-width=".25" stroke-linecap="butt" stroke-miterlimit="10" stroke-linejoin="miter" fill="none" stroke="#e6e8eb" d="M32.281 385.699H83.918ZM32.281 385.699"/>
<path stroke-width=".25" stroke-linecap="butt" stroke-miterlimit="10" stroke-linejoin="miter" fill="none" stroke="#e6e8eb" d="M32.281 354.863H83.918ZM32.281 354.863"/>
<path stroke-width=".25" stroke-linecap="butt" stroke-miterlimit="10" stroke-linejoin="miter" fill="none" stroke="#e6e8eb" d="M32.281 324.031H83.918ZM32.281 324.031"/>
<path stroke-width=".25" stroke-linecap="butt" stroke-miterlimit="10" stroke-linejoin="miter" fill="none" stroke="#e6e8eb" d="M32.281 293.199H83.918ZM32.281 293.199"/>
<path stroke-width=".25" stroke-linecap="butt" stroke-miterlimit="10" stroke-linejoin="miter" fill="none" stroke="#e6e8eb" d="M32.281 262.363H83.918ZM32.281 262.363"/>
<path stroke-width=".25" stroke-linecap="butt" stroke-miterlimit="10" stroke-linejoin="miter" fill="none" stroke="#e6e8eb" d="M32.281 231.531H83.918ZM32.281 231.531"/>
<path stroke-width=".25" stroke-linecap="butt" stroke-miterlimit="10" stroke-linejoin="miter" fill="none" stroke="#e6e8eb" d="M32.281 200.699H83.918ZM32.281 200.699"/>
<path stroke-width=".25" stroke-linecap="butt" stroke-miterlimit="10" stroke-linejoin="miter" fill="none" stroke="#e6e8eb" d="M32.281 169.863H83.918ZM32.281 169.863"/>
<path stroke-width=".25" stroke-linecap="butt" stroke-miterlimit="10" stroke-linejoin="miter" fill="none" stroke="#e6e8eb" d="M32.281 139.031H83.918ZM32.281 139.031"/>
<path stroke-width=".25" stroke-linecap="butt" stroke-miterlimit="10" stroke-linejoin="miter" fill="none" stroke="#e6e8eb" d="M32.281 108.199H83.918ZM32.281 108.199"/>
<path stroke-width=".25" stroke-linecap="butt" stroke-miterlimit="10" stroke-linejoin="miter" fill="none" stroke="#e6e8eb" d="M32.281 77.363H83.918ZM32.281 77.363"/>
<path d="M9.215 66.859C12.871 66.859 13.652 62.484 13.652 60.016 13.652 57.531 12.84 53.188 9.215 53.188 5.574 53.188 4.762 57.516 4.762 60.016 4.762 62.5 5.574 66.859 9.215 66.859ZM9.215 65.563C6.652 65.563 6.605 61.453 6.605 60.031 6.605 58.719 6.621 54.484 9.215 54.484 11.809 54.484 11.824 58.703 11.824 60.016 11.824 61.438 11.777 65.563 9.215 65.563ZM9.215 65.563" fill="#5c5c5c"/>
<path d="M60.418 66.531H62.152V52.656H60.418V56.781L60.527 58.078H60.418C60.043 57.609 59.355 56.781 57.809 56.781 55.73 56.781 53.793 58.5 53.793 62.063 53.793 64.75 54.965 66.75 57.293 66.75 59.168 66.75 60.074 65.297 60.418 64.75H60.527ZM60.418 63.438C59.121 65.266 57.824 65.266 57.652 65.266 55.637 65.266 55.637 62.547 55.637 61.906 55.637 60.625 55.84 59.469 56.496 58.766 56.855 58.391 57.402 58.078 58.043 58.078 58.449 58.078 59.324 58.203 60.418 59.375ZM60.418 63.438"/>
<path d="M5.418 97.363H14.09V96.066H10.621V84.02L5.418 85.645V86.723L8.887 85.957V96.066H5.418ZM5.418 97.363" fill="#5c5c5c"/>
<path d="M58.684 91.723C56.324 91.723 53.871 92.707 53.871 95.035 53.871 96.645 55.262 97.645 56.871 97.645 58.449 97.645 59.527 96.754 60.027 96.332 60.215 96.848 60.48 97.645 61.762 97.645 62.184 97.645 62.559 97.52 63.074 97.363L62.902 96.332C62.746 96.379 62.527 96.426 62.371 96.426 61.48 96.426 61.48 95.676 61.48 94.926V90.957C61.48 88.801 60.777 87.738 58.137 87.738 56.543 87.738 55.48 88.113 54.699 88.395V89.879C55.262 89.582 56.309 89.035 57.809 89.035 59.762 89.035 59.762 90.254 59.762 90.895V91.723ZM59.762 92.801V95.223C58.793 96.02 57.965 96.27 57.34 96.27 55.98 96.27 55.652 95.316 55.652 94.738 55.652 92.801 58.512 92.801 59.23 92.801ZM59.762 92.801"/>
<path d="M5.262 128.199H12.652V126.684H7.324C7.434 126.215 7.512 125.855 8.027 125.105 8.418 124.512 8.965 123.809 9.762 123.059L10.512 122.355C11.277 121.637 12.715 120.277 12.715 118.465 12.715 116.793 11.652 114.855 8.746 114.855 7.215 114.855 6.246 115.277 5.59 115.543V117.074C6.371 116.668 7.34 116.152 8.574 116.152 10.105 116.152 10.871 117.23 10.871 118.465 10.871 119.715 10.152 120.824 9.246 121.715L8.48 122.496C7.809 123.137 6.293 124.684 5.262 126.684ZM5.262 128.199" fill="#5c5c5c"/>
<path d="M62.199 119.012C61.371 118.777 60.402 118.574 59.152 118.574 55.418 118.574 54.121 121.059 54.121 123.559 54.121 124.605 54.34 126.09 55.402 127.168 56.121 127.918 57.262 128.543 59.309 128.543 60.84 128.543 61.73 128.23 62.371 128.012V126.652C61.887 126.855 60.809 127.246 59.543 127.246 57.277 127.246 55.965 125.84 55.965 123.559 55.965 121.574 56.949 119.871 59.309 119.871 60.496 119.871 61.527 120.23 62.199 120.48ZM62.199 119.012"/>
<path d="M5.855 158.953C6.449 159.141 7.246 159.359 8.527 159.359 8.84 159.359 10.152 159.359 11.105 158.813 12.512 158.016 13.027 156.578 13.027 155.438 13.027 154.734 12.824 153.938 12.324 153.234 11.715 152.422 10.934 152.156 10.293 151.938 10.762 151.719 11.355 151.453 11.934 150.703 12.48 149.953 12.637 149.234 12.637 148.656 12.637 147.516 11.996 145.688 8.934 145.688 7.465 145.688 6.559 146 6.043 146.203V147.703C6.527 147.453 7.559 146.984 8.855 146.984 10.027 146.984 10.902 147.672 10.902 148.953 10.902 149.719 10.637 150.219 10.418 150.484 9.699 151.438 8.762 151.453 7.559 151.453H7.059V152.688H7.902C9.09 152.688 9.684 152.906 10.324 153.391 10.887 153.828 11.184 154.672 11.184 155.453 11.184 156.328 10.684 158.063 8.559 158.063 7.715 158.063 6.918 157.813 5.855 157.422ZM5.855 158.953" fill="#5c5c5c"/>
<path d="M56.59 159.156H58.324V151.125H62.871V149.828H58.324V148.641C58.324 147.703 58.324 146.359 60.699 146.359 61.949 146.359 62.73 146.625 63.23 146.813V145.438C62.699 145.281 61.965 145.063 60.543 145.063 56.59 145.063 56.59 147.578 56.59 148.828V149.828H53.98V151.125H56.59ZM56.59 159.156"/>
<path d="M10.199 189.863H11.824V186.395H13.543V185.098H11.824V176.848H10.199L4.777 184.926V186.395H10.199ZM10.199 179.191V185.098H6.246ZM10.199 179.191" fill="#5c5c5c"/>
<path d="M56.59 189.988H58.324V181.957H62.871V180.66H58.324V179.473C58.324 178.535 58.324 177.191 60.699 177.191 61.949 177.191 62.73 177.457 63.23 177.645V176.27C62.699 176.113 61.965 175.895 60.543 175.895 56.59 175.895 56.59 178.41 56.59 179.66V180.66H53.98V181.957H56.59ZM56.59 189.988"/>
<path d="M6.184 220.621C6.777 220.809 7.574 221.027 8.605 221.027 10.918 221.027 12.84 219.387 12.84 216.902 12.84 215.637 12.355 214.559 11.652 213.855 10.387 212.621 8.574 212.605 7.887 212.574V209.199H12.512V207.684H6.418V213.902C6.762 213.871 6.918 213.855 7.199 213.855 9.355 213.855 11.012 214.559 11.012 216.777 11.012 218.527 9.965 219.73 8.543 219.73 7.652 219.73 6.73 219.371 6.184 219.152ZM6.184 220.621" fill="#5c5c5c"/>
<path d="M54.215 220.934H55.512L55.84 219.746H55.949C56.324 220.199 56.996 221.043 58.559 221.043 60.605 221.043 62.543 219.324 62.543 215.746 62.543 213.105 61.402 211.074 59.059 211.074 57.199 211.074 56.262 212.559 55.949 213.059H55.84L55.949 211.277V206.949H54.215ZM55.949 214.387C57.23 212.543 58.512 212.543 58.699 212.543 60.715 212.543 60.715 215.262 60.715 215.918 60.715 217.184 60.512 218.34 59.84 219.043 59.512 219.418 58.949 219.746 58.324 219.746 57.902 219.746 57.027 219.621 55.949 218.449ZM55.949 214.387"/>
<path d="M12.949 238.672C12.293 238.484 11.371 238.188 10.309 238.188 8.262 238.188 5.215 239.719 5.215 245.281 5.215 248.063 5.902 251.859 9.574 251.859 12.465 251.859 13.652 249.297 13.652 247.281 13.652 244.75 11.809 243.219 10.027 243.219 9.262 243.219 8.512 243.484 7.918 243.922 7.496 244.219 7.277 244.516 7.027 244.875 7.012 242.094 7.934 239.484 10.465 239.484 11.387 239.484 12.09 239.797 12.949 240.156ZM9.73 250.563C8.043 250.563 7.246 249 7.246 247.266 7.246 244.547 9.324 244.453 9.605 244.453 11.215 244.453 11.98 245.969 11.98 247.625 11.98 248.578 11.59 250.563 9.73 250.563ZM9.73 250.563" fill="#5c5c5c"/>
<path d="M60.418 251.656H62.152V237.781H60.418V241.906L60.527 243.203H60.418C60.043 242.734 59.355 241.906 57.809 241.906 55.73 241.906 53.793 243.625 53.793 247.188 53.793 249.875 54.965 251.875 57.293 251.875 59.168 251.875 60.074 250.422 60.418 249.875H60.527ZM60.418 248.563C59.121 250.391 57.824 250.391 57.652 250.391 55.637 250.391 55.637 247.672 55.637 247.031 55.637 245.75 55.84 244.594 56.496 243.891 56.855 243.516 57.402 243.203 58.043 243.203 58.449 243.203 59.324 243.328 60.418 244.5ZM60.418 248.563"/>
<path d="M9.043 275.754C7.246 278.941 6.512 280.238 6.262 282.363H8.324C8.418 281.66 8.543 280.566 9.434 278.426 10.699 275.379 12.074 273.035 13.402 270.801V269.348H5.559V270.973H11.746ZM9.043 275.754" fill="#5c5c5c"/>
<path d="M54.215 282.598H55.512L55.84 281.41H55.949C56.324 281.863 56.996 282.707 58.559 282.707 60.605 282.707 62.543 280.988 62.543 277.41 62.543 274.77 61.402 272.738 59.059 272.738 57.199 272.738 56.262 274.223 55.949 274.723H55.84L55.949 272.941V268.613H54.215ZM55.949 276.051C57.23 274.207 58.512 274.207 58.699 274.207 60.715 274.207 60.715 276.926 60.715 277.582 60.715 278.848 60.512 280.004 59.84 280.707 59.512 281.082 58.949 281.41 58.324 281.41 57.902 281.41 57.027 281.285 55.949 280.113ZM55.949 276.051"/>
<path d="M7.652 306.105C5.73 307.262 5.199 308.855 5.199 309.918 5.199 311.512 6.277 313.527 9.246 313.527 12.184 313.527 13.48 311.496 13.48 309.762 13.48 307.73 11.871 306.762 10.684 306.043 12.293 305.043 12.949 303.809 12.949 302.668 12.949 302.184 12.84 301.512 12.355 300.902 11.777 300.184 10.902 299.855 9.59 299.855 6.371 299.855 5.855 302.168 5.855 303.121 5.855 304.309 6.496 305.262 7.652 306.105ZM9.73 307.512C11.137 308.34 11.746 309.184 11.746 310.137 11.746 311.199 10.871 312.23 9.402 312.23 7.98 312.23 6.902 311.277 6.902 309.715 6.902 308.184 7.887 307.371 8.559 306.809ZM9.23 305.152C7.746 304.277 7.48 303.512 7.48 302.871 7.48 302.168 7.934 301.152 9.434 301.152 11.105 301.152 11.387 302.434 11.387 302.965 11.387 303.652 10.934 304.652 9.699 305.434ZM9.23 305.152" fill="#5c5c5c"/>
<path d="M56.59 313.324H58.324V305.293H62.871V303.996H58.324V302.809C58.324 301.871 58.324 300.527 60.699 300.527 61.949 300.527 62.73 300.793 63.23 300.98V299.605C62.699 299.449 61.965 299.23 60.543 299.23 56.59 299.23 56.59 301.746 56.59 302.996V303.996H53.98V305.293H56.59ZM56.59 313.324"/>
<path d="M5.809 343.891C6.496 344.078 7.449 344.359 8.48 344.359 10.449 344.359 13.543 342.875 13.543 337.266 13.543 334.484 12.871 330.688 9.199 330.688 6.262 330.688 5.105 333.281 5.105 335.266 5.105 337.781 6.949 339.328 8.746 339.328 9.496 339.328 10.262 339.063 10.855 338.625 11.262 338.328 11.48 338.031 11.73 337.672 11.746 340.547 10.762 343.063 8.309 343.063 7.512 343.063 6.84 342.828 5.809 342.406ZM9.027 331.984C10.699 331.984 11.512 333.531 11.512 335.281 11.512 338 9.434 338.094 9.152 338.094 7.59 338.094 6.777 336.609 6.777 334.922 6.777 333.953 7.184 331.984 9.027 331.984ZM9.027 331.984" fill="#5c5c5c"/>
<path d="M54.215 344.266H55.512L55.84 343.078H55.949C56.324 343.531 56.996 344.375 58.559 344.375 60.605 344.375 62.543 342.656 62.543 339.078 62.543 336.438 61.402 334.406 59.059 334.406 57.199 334.406 56.262 335.891 55.949 336.391H55.84L55.949 334.609V330.281H54.215ZM55.949 337.719C57.23 335.875 58.512 335.875 58.699 335.875 60.715 335.875 60.715 338.594 60.715 339.25 60.715 340.516 60.512 341.672 59.84 342.375 59.512 342.75 58.949 343.078 58.324 343.078 57.902 343.078 57.027 342.953 55.949 341.781ZM55.949 337.719"/>
<path d="M0 374.863H8.672V373.566H5.203V361.52L0 363.145V364.223L3.469 363.457V373.566H0ZM0 374.863" fill="#5c5c5c"/>
<path d="M14.633 375.191C18.289 375.191 19.07 370.816 19.07 368.348 19.07 365.863 18.258 361.52 14.633 361.52 10.992 361.52 10.18 365.848 10.18 368.348 10.18 370.832 10.992 375.191 14.633 375.191ZM14.633 373.895C12.07 373.895 12.023 369.785 12.023 368.363 12.023 367.051 12.039 362.816 14.633 362.816 17.227 362.816 17.242 367.035 17.242 368.348 17.242 369.77 17.195 373.895 14.633 373.895ZM14.633 373.895" fill="#5c5c5c"/>
<path d="M62.262 370.113C62.262 368.348 62.059 365.238 58.402 365.238 55.559 365.238 53.918 367.691 53.918 370.332 53.918 371.27 54.137 372.941 55.324 374.035 56.137 374.77 57.309 375.207 59.043 375.207 60.527 375.207 61.559 374.863 62.309 374.613V373.238C60.652 373.91 59.48 373.91 59.277 373.91 58.949 373.91 57.34 373.879 56.48 372.816 55.855 372.051 55.809 371.207 55.777 370.676H62.262ZM55.84 369.379C56.012 367.254 57.215 366.535 58.277 366.535 60.465 366.535 60.449 368.629 60.418 369.379ZM55.84 369.379"/>
<path d="M0 405.699H8.672V404.402H5.203V392.355L0 393.98V395.059L3.469 394.293V404.402H0ZM0 405.699" fill="#5c5c5c"/>
<path d="M10.836 405.699H19.508V404.402H16.039V392.355L10.836 393.98V395.059L14.305 394.293V404.402H10.836ZM10.836 405.699" fill="#5c5c5c"/>
<path d="M58.684 400.059C56.324 400.059 53.871 401.043 53.871 403.371 53.871 404.98 55.262 405.98 56.871 405.98 58.449 405.98 59.527 405.09 60.027 404.668 60.215 405.184 60.48 405.98 61.762 405.98 62.184 405.98 62.559 405.855 63.074 405.699L62.902 404.668C62.746 404.715 62.527 404.762 62.371 404.762 61.48 404.762 61.48 404.012 61.48 403.262V399.293C61.48 397.137 60.777 396.074 58.137 396.074 56.543 396.074 55.48 396.449 54.699 396.73V398.215C55.262 397.918 56.309 397.371 57.809 397.371 59.762 397.371 59.762 398.59 59.762 399.23V400.059ZM59.762 401.137V403.559C58.793 404.355 57.965 404.605 57.34 404.605 55.98 404.605 55.652 403.652 55.652 403.074 55.652 401.137 58.512 401.137 59.23 401.137ZM59.762 401.137"/>
<path stroke-width="2" stroke-linecap="butt" stroke-linejoin="round" fill="none" stroke="#8c3023" d="M147.16 258.785 165.086 271.402 165.906 271.98"/>
<path d="M160.363 273.949 170.977 275.551 165.887 266.098 165.086 271.406ZM160.363 273.949" fill="#8c3023"/>
<path stroke-width="2" stroke-linecap="butt" stroke-linejoin="round" fill="none" stroke="#8c3023" d="M168.602 93.332V92.332L168.613 58.531"/>
<path d="M163.805 89.93 168.602 99.531 173.402 89.934 168.602 92.332ZM163.805 89.93" fill="#8c3023"/>
<path d="M133.293 12.719C136.777 12.719 137.34 9.688 137.34 8.297 137.34 6.391 136.48 3.859 133.293 3.859 130.121 3.859 129.246 6.391 129.246 8.297 129.246 9.688 129.824 12.719 133.293 12.719ZM133.293 11.578C131.434 11.578 130.887 9.875 130.887 8.297 130.887 6.703 131.434 5.016 133.293 5.016 135.168 5.016 135.715 6.703 135.715 8.297 135.715 9.875 135.168 11.578 133.293 11.578ZM133.293 11.578" fill="#8c3023"/>
<path d="M140.195 12.531H141.727V5.203H143.852V4.047H141.727V2.422C141.727 1.813 142.055 1.156 143.055 1.156 143.617 1.156 144.18 1.297 144.727 1.469V.266C144.164 .094 143.586 0 142.992 0 141.477 0 140.195 .781 140.195 2.578V4.047H138.992V5.203H140.195ZM140.195 12.531" fill="#8c3023"/>
<path d="M145.781 12.531H147.313V5.203H149.438V4.047H147.313V2.422C147.313 1.813 147.641 1.156 148.641 1.156 149.203 1.156 149.766 1.297 150.313 1.469V.266C149.75 .094 149.172 0 148.578 0 147.063 0 145.781 .781 145.781 2.578V4.047H144.578V5.203H145.781ZM145.781 12.531" fill="#8c3023"/>
<path d="M150.902 12.25C151.668 12.484 152.59 12.719 153.418 12.719 154.996 12.719 156.59 11.922 156.59 10.141 156.59 7.406 152.387 7.672 152.387 6.094 152.387 5.297 153.215 5.016 153.887 5.016 154.59 5.016 155.277 5.188 155.949 5.391V4.109C155.105 3.969 154.559 3.859 153.871 3.859 152.137 3.859 150.949 4.625 150.949 6.234 150.949 9.078 155.059 8.531 155.059 10.328 155.059 11.172 154.23 11.578 153.496 11.578 152.637 11.578 151.652 11.203 150.902 10.813ZM150.902 12.25" fill="#8c3023"/>
<path d="M165.594 8.531C165.672 6.344 165.016 3.859 162.344 3.859 159.906 3.859 158.688 6.078 158.688 8.297 158.688 9.688 159.266 12.719 162.734 12.719 163.828 12.719 164.734 12.516 165.594 12.25V11.016C164.797 11.375 164.031 11.578 163.172 11.578 161.313 11.578 160.375 10.313 160.328 8.531ZM160.375 7.469C160.438 6.344 160.938 5.016 162.25 5.016 163.641 5.016 163.984 6.328 163.953 7.469ZM160.375 7.469" fill="#8c3023"/>
<path d="M169.879 4.047V2.344L168.332 2.5V4.047H167.285V5.203H168.332V10.313C168.332 11.156 168.816 12.719 170.848 12.719 171.27 12.719 171.66 12.641 172.066 12.531V11.469C171.816 11.547 171.566 11.578 171.316 11.578 170.051 11.578 169.879 10.797 169.879 9.719V5.203H171.91V4.047ZM169.879 4.047" fill="#8c3023"/>
<path d="M180.688 6.609C181.328 5.859 182.234 5.203 183.234 5.203 184.891 5.203 185.188 6.938 185.188 8.234 185.188 9.656 184.734 11.578 183 11.578 181.984 11.578 181.422 11.156 180.688 10.5ZM179.156 12.625H180.406L180.594 11.578H180.688C181.375 12.406 182.203 12.719 183.25 12.719 185.781 12.719 186.828 10.234 186.828 8.047 186.828 5.938 185.953 3.859 183.531 3.859 182.266 3.859 181.25 4.516 180.688 5.641H180.594L180.688 4.047V.188H179.156ZM179.156 12.625" fill="#8c3023"/>
<path d="M189.938 15.625H191.453L196.797 4.047H195.422L192.375 10.641 189.797 4.047H188.125L191.453 12.531ZM189.938 15.625" fill="#8c3023"/>
<path d="M206.191 12.531H207.738V.875L204.66 1.156V1.922H206.191ZM206.191 12.531" fill="#8c3023"/>
<path d="M125.625 37.844H128.719V36.703H126.969V24.344H128.719V23.188H125.625ZM125.625 37.844" fill="#8c3023"/>
<path d="M130.527 35.25C131.293 35.484 132.215 35.719 133.043 35.719 134.621 35.719 136.215 34.922 136.215 33.141 136.215 30.406 132.012 30.672 132.012 29.094 132.012 28.297 132.84 28.016 133.512 28.016 134.215 28.016 134.902 28.188 135.574 28.391V27.109C134.73 26.969 134.184 26.859 133.496 26.859 131.762 26.859 130.574 27.625 130.574 29.234 130.574 32.078 134.684 31.531 134.684 33.328 134.684 34.172 133.855 34.578 133.121 34.578 132.262 34.578 131.277 34.203 130.527 33.813ZM130.527 35.25" fill="#8c3023"/>
<path d="M140.594 27.047V25.344L139.047 25.5V27.047H138V28.203H139.047V33.313C139.047 34.156 139.531 35.719 141.563 35.719 141.984 35.719 142.375 35.641 142.781 35.531V34.469C142.531 34.547 142.281 34.578 142.031 34.578 140.766 34.578 140.594 33.797 140.594 32.719V28.203H142.625V27.047ZM140.594 27.047" fill="#8c3023"/>
<path d="M149.031 33.609C148.5 34.078 147.797 34.469 147.063 34.469 146.313 34.469 145.672 33.938 145.672 33.156 145.672 31.813 147.391 31.422 148.297 31.422H149.031ZM151.672 34.625H151.391C150.531 34.656 150.578 33.766 150.578 33.141V29.375C150.578 27.688 149.609 26.859 147.844 26.859 146.813 26.859 145.828 27.094 144.875 27.5V28.766C145.625 28.359 146.609 28.016 147.469 28.016 148.875 28.016 149.031 28.719 149.031 29.938V30.5H148.422C145.469 30.5 144.141 31.844 144.141 33.391 144.141 34.797 145.234 35.719 146.625 35.719 147.625 35.719 148.563 35.125 149.234 34.453 149.359 35.188 149.891 35.719 150.656 35.719 151 35.719 151.469 35.641 151.797 35.484ZM151.672 34.625" fill="#8c3023"/>
<path d="M154.348 38.625H155.863L161.207 27.047H159.832L156.785 33.641 154.207 27.047H152.535L155.863 35.531ZM154.348 38.625" fill="#8c3023"/>
<path d="M169.551 27.047V25.344L168.004 25.5V27.047H166.957V28.203H168.004V33.313C168.004 34.156 168.488 35.719 170.52 35.719 170.941 35.719 171.332 35.641 171.738 35.531V34.469C171.488 34.547 171.238 34.578 170.988 34.578 169.723 34.578 169.551 33.797 169.551 32.719V28.203H171.582V27.047ZM169.551 27.047" fill="#8c3023"/>
<path d="M180.832 35.531V27.047H179.285V32.547C178.691 33.484 177.785 34.375 176.598 34.375 175.895 34.375 175.426 33.906 175.426 33.078V27.047H173.879V33.281C173.879 34.547 174.754 35.719 176.254 35.719 177.535 35.719 178.582 34.969 179.285 33.953H179.379L179.285 35.531ZM180.832 35.531" fill="#8c3023"/>
<path d="M185.348 27.047H183.801V35.531H185.348V30.047C185.926 29.094 186.848 28.203 188.035 28.203 188.738 28.203 189.207 28.688 189.207 29.5V35.531H190.754V29.313C190.754 28.047 189.879 26.859 188.379 26.859 187.098 26.859 186.051 27.609 185.348 28.641H185.238ZM185.348 27.047" fill="#8c3023"/>
<path d="M200 31.531C200.078 29.344 199.422 26.859 196.75 26.859 194.313 26.859 193.094 29.078 193.094 31.297 193.094 32.688 193.672 35.719 197.141 35.719 198.234 35.719 199.141 35.516 200 35.25V34.016C199.203 34.375 198.438 34.578 197.578 34.578 195.719 34.578 194.781 33.313 194.734 31.531ZM194.781 30.469C194.844 29.344 195.344 28.016 196.656 28.016 198.047 28.016 198.391 29.328 198.359 30.469ZM194.781 30.469" fill="#8c3023"/>
<path d="M208.133 32.969C207.508 33.719 206.602 34.375 205.602 34.375 203.945 34.375 203.648 32.656 203.648 31.359 203.648 29.938 204.086 28.016 205.836 28.016 206.852 28.016 207.398 28.422 208.133 29.078ZM208.133 35.531H209.68V23.188H208.133V26.859L208.242 28.016H208.133C207.461 27.172 206.633 26.859 205.586 26.859 203.07 26.859 202.008 29.359 202.008 31.531 202.008 33.641 202.898 35.719 205.305 35.719 206.57 35.719 207.586 35.063 208.133 33.953H208.242ZM208.133 35.531" fill="#8c3023"/>
<path d="M214.883 23.188H211.805V24.344H213.539V36.703H211.805V37.844H214.883ZM214.883 23.188" fill="#8c3023"/>
<path stroke-width="2" stroke-linecap="butt" stroke-linejoin="round" fill="none" stroke="#8c3023" d="M144.465 226.445 164.98 240.113 165.816 240.668"/>
<path d="M160.324 242.777 170.977 244.105 165.645 234.789 164.984 240.113ZM160.324 242.777" fill="#8c3023"/>
<path stroke-width="2" stroke-linecap="butt" stroke-linejoin="round" fill="none" stroke="#8c3023" d="M144.465 196.805 164.766 208.742 165.629 209.25"/>
<path d="M160.266 211.664 170.977 212.395 165.133 203.391 164.77 208.742ZM160.266 211.664" fill="#8c3023"/>
<path stroke-width="2" stroke-linecap="butt" stroke-linejoin="round" fill="none" stroke="#8c3023" d="M145.813 165.816 164.773 177.02 165.637 177.527"/>
<path d="M160.27 179.934 170.977 180.684 165.152 171.668 164.777 177.02ZM160.27 179.934" fill="#8c3023"/>
<path stroke-width="2" stroke-linecap="butt" stroke-linejoin="round" fill="none" stroke="#8c3023" d="M145.813 288.426 165.191 302.813 165.996 303.41"/>
<path d="M160.406 305.238 170.977 307.105 166.129 297.527 165.195 302.813ZM160.406 305.238" fill="#8c3023"/>
<path stroke-width="2" stroke-linecap="butt" stroke-linejoin="round" fill="none" stroke="#8c3023" d="M144.465 319.414 165.137 334.336 165.949 334.922"/>
<path d="M160.383 336.824 170.977 338.551 166 329.039 165.137 334.336ZM160.383 336.824" fill="#8c3023"/>
<path d="M126.777 124.133H128.309V118.617C128.652 118.117 129.652 116.773 131.215 116.773 131.512 116.773 131.668 116.805 131.871 116.852V118.07H133.027V115.648C132.637 115.57 132.152 115.461 131.465 115.461 130.855 115.461 129.465 115.492 128.309 117.242H128.215L128.309 115.648H126.777ZM126.777 124.133" fill="#005191"/>
<path d="M152.086 115.867C151.352 115.648 150.477 115.461 149.367 115.461 146.055 115.461 144.898 117.664 144.898 119.898 144.898 120.82 145.086 122.148 146.039 123.102 146.68 123.758 147.68 124.32 149.508 124.32 150.867 124.32 151.664 124.055 152.227 123.867V122.648C151.789 122.82 150.836 123.18 149.711 123.18 147.695 123.18 146.523 121.93 146.523 119.898 146.523 118.133 147.414 116.617 149.508 116.617 150.555 116.617 151.477 116.93 152.086 117.164ZM152.086 115.867" fill="#005191"/>
<path d="M158.063 124.32C160.969 124.32 162.063 122.148 162.063 119.898 162.063 117.695 161.016 115.461 158.063 115.461 155.203 115.461 154.063 117.586 154.063 119.898 154.063 122.055 155.094 124.32 158.063 124.32ZM158.063 123.18C156.297 123.18 155.703 121.523 155.703 119.898 155.703 118.211 156.328 116.617 158.063 116.617 159.813 116.617 160.438 118.211 160.438 119.898 160.438 121.461 159.875 123.18 158.063 123.18ZM158.063 123.18" fill="#005191"/>
<path d="M171.086 115.648H169.555V121.211C168.523 122.57 167.789 122.867 167.133 122.867 165.789 122.867 165.789 121.711 165.789 121.039V115.648H164.258V121.461C164.258 122.555 164.383 122.961 164.789 123.508 165.227 124.086 166.008 124.32 166.68 124.32 167.336 124.32 168.648 124.086 169.555 122.555H169.648L169.555 124.133H171.086ZM171.086 115.648" fill="#005191"/>
<path d="M173.934 124.133H175.465V118.586C176.465 117.273 177.199 116.914 177.887 116.914 179.23 116.914 179.23 118.07 179.23 118.742V124.133H180.762V118.32C180.762 117.242 180.637 116.82 180.246 116.273 179.809 115.695 179.012 115.461 178.355 115.461 177.574 115.461 176.34 115.789 175.465 117.242H175.371L175.465 115.648H173.934ZM173.934 124.133" fill="#005191"/>
<path d="M185.285 121.086C185.285 123.273 185.676 124.32 188.551 124.32 188.738 124.32 189.598 124.32 190.738 124.133V122.945C190.113 123.086 189.473 123.18 188.832 123.18 188.41 123.18 187.645 123.117 187.176 122.727 186.863 122.492 186.816 122.18 186.816 121.352V116.992H190.582V115.852H186.816V114.023H185.285V115.852H183.176V116.992H185.285ZM185.285 121.086" fill="#005191"/>
<path d="M195.246 126.43H200.059V125.289H196.59V112.945H200.059V111.789H195.246ZM195.246 126.43" fill="#005191"/>
<path d="M203.832 124.133H205.363V118.617C205.707 118.117 206.707 116.773 208.27 116.773 208.566 116.773 208.723 116.805 208.926 116.852V118.07H210.082V115.648C209.691 115.57 209.207 115.461 208.52 115.461 207.91 115.461 206.52 115.492 205.363 117.242H205.27L205.363 115.648H203.832ZM203.832 124.133" fill="#005191"/>
<path d="M217.199 111.789H212.387V112.945H215.855V125.289H212.387V126.43H217.199ZM217.199 111.789" fill="#005191"/>
</g>
</svg>
