<svg xmlns="http://www.w3.org/2000/svg" xmlns:xlink="http://www.w3.org/1999/xlink" xmlns:inkscape="http://www.inkscape.org/namespaces/inkscape" version="1.1" width="380.15605" height="45.761037" viewBox="0 0 380.15605 45.761037">
<defs>
<path id="font_1_1" d="M.5361328 .546875V0H.44580079V.4765625H.19921875V0H.10888672V.4765625H.022949219V.546875H.10888672V.58496096C.10888672 .64453127 .12296549 .6885579 .15112305 .717041 .1792806 .7455241 .22249349 .7597656 .28076173 .7597656H.37109376V.6845703H.28515626C.2529297 .6845703 .23055013 .67808029 .21801758 .6651001 .20548503 .6521301 .19921875 .6287791 .19921875 .595047V.546875H.5361328M.44580079 .75878909H.5361328V.64453127H.44580079V.75878909Z"/>
<path id="font_2_1" d="M.4111328 .46289063C.40104167 .46891276 .39005534 .473348 .37817384 .4761963 .36629234 .4790446 .3531901 .48046876 .3388672 .48046876 .28808595 .48046876 .24910482 .4639028 .22192383 .43077088 .19474285 .39764915 .18115235 .3500875 .18115235 .28808595V0H.09082031V.546875H.18115235V.46191407C.20003255 .49527995 .22460938 .52006027 .2548828 .5362549 .28515626 .5524495 .3219401 .5605469 .36523438 .5605469 .37141929 .5605469 .37825523 .56013998 .3857422 .5593262 .39322917 .5585124 .40152995 .5572917 .41064454 .55566409L.4111328 .46289063Z"/>
<path id="font_2_2" d="M.4428711 .53125V.44628907C.41748048 .4593099 .39111329 .46907554 .36376954 .47558595 .33642579 .48209635 .30810548 .48535157 .2788086 .48535157 .23421224 .48535157 .20076497 .47850038 .1784668 .46479798 .15616863 .45109559 .14501953 .430542 .14501953 .4031372 .14501953 .38226319 .1529948 .36587016 .16894531 .35395814 .18489583 .3420461 .21695964 .33070884 .26513673 .3199463L.29589845 .31307984C.35970054 .2993876 .4050293 .2800649 .43188478 .2551117 .45874024 .23016866 .47216798 .19535828 .47216798 .15068054 .47216798 .09980774 .45206706 .05953471 .41186524 .02986145 .37166343 .00018819173 .31640626-.0146484379 .24609375-.0146484379 .21679688-.0146484379 .1862793-.01180013 .15454102-.0061035158 .122802738-.00040690104 .08935547 .0081380209 .05419922 .01953125V.11230469C.087402347 .095052089 .12011719 .08211263 .15234375 .07348633 .18457031 .06486002 .21647136 .060546876 .24804688 .060546876 .2903646 .060546876 .32291667 .06780497 .34570313 .08232117 .3684896 .096837367 .3798828 .11730448 .3798828 .14372254 .3798828 .16818746 .37166343 .1869456 .3552246 .19999695 .3387858 .2130483 .30273438 .22560628 .24707031 .2376709L.21582031 .24501038C.16015625 .25674949 .11995443 .274765 .095214847 .299057 .07047526 .32335917 .05810547 .3567098 .05810547 .3991089 .05810547 .4506429 .07633463 .49043275 .11279297 .5184784 .1492513 .54652407 .20100911 .5605469 .2680664 .5605469 .30126954 .5605469 .33251954 .55810549 .3618164 .55322268 .39111329 .54833987 .4181315 .5410156 .4428711 .53125Z"/>
<path id="font_2_3" d="M.18310547 .70214846V.546875H.36816407V.4765625H.18310547V.18005371C.18310547 .13550823 .18920899 .106892909 .20141602 .09420776 .21362305 .0815328 .23844402 .07519531 .2758789 .07519531H.36816407V0H.2758789C.20654297 0 .1586914 .01292928 .13232422 .03878784 .10595703 .06465658 .09277344 .1117452 .09277344 .18005371V.4765625H.026855469V.546875H.09277344V.70214846H.18310547Z"/>
<path id="font_2_4" d="M.30615235 .484375C.25797526 .484375 .21988933 .4655304 .19189453 .4278412 .16389974 .39016215 .14990235 .3385315 .14990235 .27294923 .14990235 .20736695 .16381836 .1557312 .19165039 .11804199 .21948242 .08036295 .25764976 .061523439 .30615235 .061523439 .3540039 .061523439 .3919271 .080444339 .41992188 .11828613 .44791667 .1561381 .46191407 .20769246 .46191407 .27294923 .46191407 .33788047 .44791667 .38934837 .41992188 .4273529 .3919271 .46536765 .3540039 .484375 .30615235 .484375M.30615235 .5605469C.38427735 .5605469 .44563804 .5351105 .49023438 .48423768 .53483077 .43337504 .5571289 .36294557 .5571289 .27294923 .5571289 .1832784 .53483077 .11292521 .49023438 .06188965 .44563804 .010864258 .38427735-.0146484379 .30615235-.0146484379 .22770183-.0146484379 .16625977 .010864258 .12182617 .06188965 .07739258 .11292521 .05517578 .1832784 .05517578 .27294923 .05517578 .36294557 .07739258 .43337504 .12182617 .48423768 .16625977 .5351105 .22770183 .5605469 .30615235 .5605469Z"/>
<path id="font_2_5" d="M.4868164 .27294923C.4868164 .33918254 .47322593 .3911387 .44604493 .42881776 .41886393 .46650697 .3815104 .48535157 .33398438 .48535157 .28645835 .48535157 .24910482 .46650697 .22192383 .42881776 .19474285 .3911387 .18115235 .33918254 .18115235 .27294923 .18115235 .2067159 .19474285 .15475464 .22192383 .11706543 .24910482 .07938639 .28645835 .060546876 .33398438 .060546876 .3815104 .060546876 .41886393 .07938639 .44604493 .11706543 .47322593 .15475464 .4868164 .2067159 .4868164 .27294923M.18115235 .4638672C.20003255 .49658204 .22387696 .520874 .25268556 .53674319 .28149415 .5526123 .31591798 .5605469 .35595704 .5605469 .42236329 .5605469 .47631837 .5341339 .51782229 .48130799 .5593262 .42848207 .5800781 .35902915 .5800781 .27294923 .5800781 .18686931 .5593262 .11741638 .51782229 .064590457 .47631837 .011764526 .42236329-.0146484379 .35595704-.0146484379 .31591798-.0146484379 .28149415-.006713867 .25268556 .009155273 .22387696 .025024414 .20003255 .049316408 .18115235 .08203125V0H.09082031V.7597656H.18115235V.4638672Z"/>
<path id="font_2_6" d="M.5620117 .29589845V.25195313H.14892578C.15283203 .1899414 .1714681 .1427002 .20483399 .11022949 .23819988 .07775879 .28466798 .061523439 .34423829 .061523439 .3787435 .061523439 .41219078 .06575521 .44458009 .07421875 .4769694 .08268229 .50911459 .0953776 .5410156 .11230469V.02734375C.50878909 .013671875 .4757487 .0032552083 .44189454-.00390625 .40804038-.011067708 .3736979-.0146484379 .3388672-.0146484379 .2516276-.0146484379 .18253581 .010782878 .1315918 .061645509 .08064779 .11251831 .05517578 .18132019 .05517578 .26805116 .05517578 .35772196 .0793457 .42888896 .12768555 .48155213 .17602539 .5342153 .24121094 .5605469 .3232422 .5605469 .3968099 .5605469 .45499674 .53681948 .49780274 .48936463 .5406087 .44191996 .5620117 .37743125 .5620117 .29589845M.47216798 .32226563C.47151695 .37157188 .45776368 .4109141 .4309082 .44029237 .40405274 .4696808 .3684896 .484375 .32421876 .484375 .27408854 .484375 .2339681 .47016908 .20385742 .4417572 .17374675 .4133555 .15641277 .3733622 .15185547 .32177735L.47216798 .32226563Z"/>
<path id="font_2_7" d="M.5488281 .33007813V0H.45898438V.32714845C.45898438 .379069 .44889323 .41792808 .42871095 .4437256 .40852867 .4695231 .37825523 .48242188 .33789063 .48242188 .28938804 .48242188 .2511393 .46691386 .22314453 .43589784 .19514974 .40489198 .18115235 .36262004 .18115235 .30908204V0H.09082031V.546875H.18115235V.46191407C.20263672 .49495445 .22794597 .5196533 .25708009 .53601077 .2862142 .55236819 .31982423 .5605469 .35791017 .5605469 .4207357 .5605469 .46826173 .54105636 .5004883 .5020752 .53271487 .4630941 .5488281 .40576173 .5488281 .33007813Z"/>
<path id="font_2_8" d="M.08496094 .21582031V.546875H.17480469V.21923828C.17480469 .1673177 .18489583 .12837728 .20507813 .10241699 .22526042 .0764567 .25553385 .06347656 .29589845 .06347656 .34440104 .06347656 .3827311 .07897949 .41088868 .10998535 .43904624 .14100139 .453125 .1832784 .453125 .2368164V.546875H.54296877V0H.453125V.083984378C.4313151 .05061849 .40600587 .025838217 .37719728 .009643555 .34838868-.006551107 .3149414-.0146484379 .27685548-.0146484379 .21402996-.0146484379 .16634114 .0049235026 .13378906 .044067384 .10123698 .083211269 .08496094 .14046224 .08496094 .21582031M.31103517 .5605469V.5605469Z"/>
<path id="font_2_9" d="M.09423828 .7597656H.18408203V0H.09423828V.7597656Z"/>
</defs>
<g>
<path d="M117.684 24.094H184.922V45.27H117.684Z" fill="#ffffff"/>
<path stroke-width=".622994" stroke-linecap="butt" stroke-miterlimit="4" stroke-linejoin="miter" fill="none" stroke="#000000" d="M117.684 24.094H184.922V45.27H117.684Z"/>
<path stroke-width=".8" stroke-linecap="butt" stroke-miterlimit="4" stroke-linejoin="miter" fill="none" stroke="#000000" d="M152.742 24.176V45.188"/>
<use data-text="&#xfb01;" xlink:href="#font_1_1" transform="matrix(6.4,0,0,-6.4,-.146875,4.862499)"/>
<use data-text="r" xlink:href="#font_2_1" transform="matrix(6.4,0,0,-6.4,3.878725,4.862499)"/>
<use data-text="s" xlink:href="#font_2_2" transform="matrix(6.4,0,0,-6.4,6.509125,4.862499)"/>
<use data-text="t" xlink:href="#font_2_3" transform="matrix(6.4,0,0,-6.4,9.837126,4.862499)"/>
<use data-text="t" xlink:href="#font_2_3" transform="matrix(6.4,0,0,-6.4,131.60134,36.281797)"/>
<use data-text="o" xlink:href="#font_2_4" transform="matrix(6.4,0,0,-6.4,134.11014,36.281797)"/>
<path d="M214.449 24.27H281.691V45.45H214.449Z" fill="#ffffff"/>
<path stroke-width=".622994" stroke-linecap="butt" stroke-miterlimit="4" stroke-linejoin="miter" fill="none" stroke="#000000" d="M214.449 24.27H281.691V45.45H214.449Z"/>
<path stroke-width=".8" stroke-linecap="butt" stroke-miterlimit="4" stroke-linejoin="miter" fill="none" stroke="#000000" d="M249.508 24.355V45.367"/>
<use data-text="b" xlink:href="#font_2_5" transform="matrix(6.4,0,0,-6.4,228.36789,36.460245)"/>
<use data-text="e" xlink:href="#font_2_6" transform="matrix(6.4,0,0,-6.4,232.42549,36.460245)"/>
<path d="M312.602 23.059H379.844V44.239H312.602Z" fill="#ffffff"/>
<path stroke-width=".622994" stroke-linecap="butt" stroke-miterlimit="4" stroke-linejoin="miter" fill="none" stroke="#000000" d="M312.602 23.059H379.844V44.239H312.602Z"/>
<path stroke-width=".8" stroke-linecap="butt" stroke-miterlimit="4" stroke-linejoin="miter" fill="none" stroke="#000000" d="M347.664 23.141V44.152"/>
<use data-text="o" xlink:href="#font_2_4" transform="matrix(6.4,0,0,-6.4,326.52223,35.248067)"/>
<use data-text="r" xlink:href="#font_2_1" transform="matrix(6.4,0,0,-6.4,330.43263,35.248067)"/>
<path stroke-width=".8" stroke-linecap="butt" stroke-miterlimit="4" stroke-linejoin="miter" fill="none" stroke="#000000" d="M169.484 35.086 213.527 34.684"/>
<path transform="matrix(1,-.00917431,.00917431,1,0,0)" d="M170.719 36.637C170.718 37.519 170.001 38.239 169.118 38.239 168.235 38.239 167.519 37.521 167.519 36.638 167.516 35.756 168.233 35.04 169.116 35.036 169.999 35.036 170.719 35.754 170.719 36.637ZM170.719 36.637" fill-rule="evenodd"/>
<path transform="matrix(1,-.00917431,.00917431,1,0,0)" stroke-width=".399983" stroke-linecap="butt" stroke-miterlimit="4" stroke-linejoin="miter" fill="none" stroke="#000000" d="M170.719 36.637C170.718 37.519 170.001 38.239 169.118 38.239 168.235 38.239 167.519 37.521 167.519 36.638 167.516 35.756 168.233 35.04 169.116 35.036 169.999 35.036 170.719 35.754 170.719 36.637ZM170.719 36.637"/>
<path transform="matrix(-1,.00917431,-.00917431,-1,0,0)" d="M-209.992-36.637-208.391-38.236-213.992-36.639-208.393-35.037ZM-209.992-36.637" fill-rule="evenodd"/>
<path transform="matrix(-1,.00917431,-.00917431,-1,0,0)" stroke-width=".399983" stroke-linecap="butt" stroke-miterlimit="4" stroke-linejoin="miter" fill="none" stroke="#000000" d="M-209.992-36.637-208.391-38.236-213.992-36.639-208.393-35.037ZM-209.992-36.637"/>
<path stroke-width=".8" stroke-linecap="butt" stroke-miterlimit="4" stroke-linejoin="miter" fill="none" stroke="#000000" d="M267.078 35.266 311.121 34.863"/>
<path transform="matrix(1,-.00917431,.00917431,1,0,0)" d="M268.299 37.711C268.302 38.594 267.585 39.314 266.702 39.314 265.819 39.314 265.099 38.596 265.099 37.713 265.1 36.831 265.817 36.114 266.7 36.115 267.583 36.111 268.299 36.829 268.299 37.711ZM268.299 37.711" fill-rule="evenodd"/>
<path transform="matrix(1,-.00917431,.00917431,1,0,0)" stroke-width=".399983" stroke-linecap="butt" stroke-miterlimit="4" stroke-linejoin="miter" fill="none" stroke="#000000" d="M268.299 37.711C268.302 38.594 267.585 39.314 266.702 39.314 265.819 39.314 265.099 38.596 265.099 37.713 265.1 36.831 265.817 36.114 266.7 36.115 267.583 36.111 268.299 36.829 268.299 37.711ZM268.299 37.711"/>
<path transform="matrix(-1,.00917431,-.00917431,-1,0,0)" d="M-307.576-37.712-305.975-39.311-311.576-37.714-305.973-36.112ZM-307.576-37.712" fill-rule="evenodd"/>
<path transform="matrix(-1,.00917431,-.00917431,-1,0,0)" stroke-width=".399983" stroke-linecap="butt" stroke-miterlimit="4" stroke-linejoin="miter" fill="none" stroke="#000000" d="M-307.576-37.712-305.975-39.311-311.576-37.714-305.973-36.112ZM-307.576-37.712"/>
<use data-text="n" xlink:href="#font_2_7" transform="matrix(6.4,0,0,-6.4,358.19837,34.665544)"/>
<use data-text="u" xlink:href="#font_2_8" transform="matrix(6.4,0,0,-6.4,362.24958,34.665544)"/>
<use data-text="l" xlink:href="#font_2_9" transform="matrix(6.4,0,0,-6.4,366.30079,34.665544)"/>
<use data-text="l" xlink:href="#font_2_9" transform="matrix(6.4,0,0,-6.4,368.07359,34.665544)"/>
<path d="M18.527 23.309H85.769V44.489H18.527Z" fill="#ffffff"/>
<path stroke-width=".622994" stroke-linecap="butt" stroke-miterlimit="4" stroke-linejoin="miter" fill="none" stroke="#000000" d="M18.527 23.309H85.769V44.489H18.527Z"/>
<path stroke-width=".8" stroke-linecap="butt" stroke-miterlimit="4" stroke-linejoin="miter" fill="none" stroke="#000000" d="M53.586 23.395V44.406"/>
<path stroke-width=".8" stroke-linecap="butt" stroke-miterlimit="4" stroke-linejoin="miter" fill="none" stroke="#000000" d="M6.891 6.828 16.184 20.566"/>
<path transform="matrix(-.67647,-1,1,-.67647,0,0)" d="M-18.969 1.559-17.644 .236-22.282 1.56-17.643 2.885ZM-18.969 1.559" fill-rule="evenodd"/>
<path transform="matrix(-.67647,-1,1,-.67647,0,0)" stroke-width=".331313" stroke-linecap="butt" stroke-miterlimit="4" stroke-linejoin="miter" fill="none" stroke="#000000" d="M-18.969 1.559-17.644 .236-22.282 1.56-17.643 2.885ZM-18.969 1.559"/>
<use data-text="n" xlink:href="#font_2_7" transform="matrix(6.4,0,0,-6.4,28.73407,36.64743)"/>
<use data-text="o" xlink:href="#font_2_4" transform="matrix(6.4,0,0,-6.4,32.78527,36.64743)"/>
<use data-text="t" xlink:href="#font_2_3" transform="matrix(6.4,0,0,-6.4,36.69567,36.64743)"/>
<path stroke-width=".8" stroke-linecap="butt" stroke-miterlimit="4" stroke-linejoin="miter" fill="none" stroke="#000000" d="M72.891 34.844 116.934 34.441"/>
<path transform="matrix(1,-.00917431,.00917431,1,0,0)" d="M74.135 35.512C74.135 36.395 73.417 37.111 72.535 37.111 71.652 37.11 70.936 36.393 70.932 35.51 70.932 34.627 71.65 33.911 72.533 33.912 73.415 33.912 74.135 34.629 74.135 35.512ZM74.135 35.512" fill-rule="evenodd"/>
<path transform="matrix(1,-.00917431,.00917431,1,0,0)" stroke-width=".399983" stroke-linecap="butt" stroke-miterlimit="4" stroke-linejoin="miter" fill="none" stroke="#000000" d="M74.135 35.512C74.135 36.395 73.417 37.111 72.535 37.111 71.652 37.11 70.936 36.393 70.932 35.51 70.932 34.627 71.65 33.911 72.533 33.912 73.415 33.912 74.135 34.629 74.135 35.512ZM74.135 35.512"/>
<path transform="matrix(-1,.00917431,-.00917431,-1,0,0)" d="M-113.409-35.509-111.808-37.112-117.409-35.511-111.81-33.912ZM-113.409-35.509" fill-rule="evenodd"/>
<path transform="matrix(-1,.00917431,-.00917431,-1,0,0)" stroke-width=".399983" stroke-linecap="butt" stroke-miterlimit="4" stroke-linejoin="miter" fill="none" stroke="#000000" d="M-113.409-35.509-111.808-37.112-117.409-35.511-111.81-33.912ZM-113.409-35.509"/>
</g>
</svg>
