<svg xmlns="http://www.w3.org/2000/svg" xmlns:xlink="http://www.w3.org/1999/xlink" xmlns:inkscape="http://www.inkscape.org/namespaces/inkscape" version="1.1" width="280.956" height="44.242254" viewBox="0 0 280.956 44.242254">
<defs>
<path id="font_1_1" d="M.5361328 .546875V0H.44580079V.4765625H.19921875V0H.10888672V.4765625H.022949219V.546875H.10888672V.58496096C.10888672 .64453127 .12296549 .6885579 .15112305 .717041 .1792806 .7455241 .22249349 .7597656 .28076173 .7597656H.37109376V.6845703H.28515626C.2529297 .6845703 .23055013 .67808029 .21801758 .6651001 .20548503 .6521301 .19921875 .6287791 .19921875 .595047V.546875H.5361328M.44580079 .75878909H.5361328V.64453127H.44580079V.75878909Z"/>
<path id="font_2_1" d="M.4111328 .46289063C.40104167 .46891276 .39005534 .473348 .37817384 .4761963 .36629234 .4790446 .3531901 .48046876 .3388672 .48046876 .28808595 .48046876 .24910482 .4639028 .22192383 .43077088 .19474285 .39764915 .18115235 .3500875 .18115235 .28808595V0H.09082031V.546875H.18115235V.46191407C.20003255 .49527995 .22460938 .52006027 .2548828 .5362549 .28515626 .5524495 .3219401 .5605469 .36523438 .5605469 .37141929 .5605469 .37825523 .56013998 .3857422 .5593262 .39322917 .5585124 .40152995 .5572917 .41064454 .55566409L.4111328 .46289063Z"/>
<path id="font_2_2" d="M.4428711 .53125V.44628907C.41748048 .4593099 .39111329 .46907554 .36376954 .47558595 .33642579 .48209635 .30810548 .48535157 .2788086 .48535157 .23421224 .48535157 .20076497 .47850038 .1784668 .46479798 .15616863 .45109559 .14501953 .430542 .14501953 .4031372 .14501953 .38226319 .1529948 .36587016 .16894531 .35395814 .18489583 .3420461 .21695964 .33070884 .26513673 .3199463L.29589845 .31307984C.35970054 .2993876 .4050293 .2800649 .43188478 .2551117 .45874024 .23016866 .47216798 .19535828 .47216798 .15068054 .47216798 .09980774 .45206706 .05953471 .41186524 .02986145 .37166343 .00018819173 .31640626-.0146484379 .24609375-.0146484379 .21679688-.0146484379 .1862793-.01180013 .15454102-.0061035158 .122802738-.00040690104 .08935547 .0081380209 .05419922 .01953125V.11230469C.087402347 .095052089 .12011719 .08211263 .15234375 .07348633 .18457031 .06486002 .21647136 .060546876 .24804688 .060546876 .2903646 .060546876 .32291667 .06780497 .34570313 .08232117 .3684896 .096837367 .3798828 .11730448 .3798828 .14372254 .3798828 .16818746 .37166343 .1869456 .3552246 .19999695 .3387858 .2130483 .30273438 .22560628 .24707031 .2376709L.21582031 .24501038C.16015625 .25674949 .11995443 .274765 .095214847 .299057 .07047526 .32335917 .05810547 .3567098 .05810547 .3991089 .05810547 .4506429 .07633463 .49043275 .11279297 .5184784 .1492513 .54652407 .20100911 .5605469 .2680664 .5605469 .30126954 .5605469 .33251954 .55810549 .3618164 .55322268 .39111329 .54833987 .4181315 .5410156 .4428711 .53125Z"/>
<path id="font_2_3" d="M.18310547 .70214846V.546875H.36816407V.4765625H.18310547V.18005371C.18310547 .13550823 .18920899 .106892909 .20141602 .09420776 .21362305 .0815328 .23844402 .07519531 .2758789 .07519531H.36816407V0H.2758789C.20654297 0 .1586914 .01292928 .13232422 .03878784 .10595703 .06465658 .09277344 .1117452 .09277344 .18005371V.4765625H.026855469V.546875H.09277344V.70214846H.18310547Z"/>
<path id="font_2_4" d="M.30615235 .484375C.25797526 .484375 .21988933 .4655304 .19189453 .4278412 .16389974 .39016215 .14990235 .3385315 .14990235 .27294923 .14990235 .20736695 .16381836 .1557312 .19165039 .11804199 .21948242 .08036295 .25764976 .061523439 .30615235 .061523439 .3540039 .061523439 .3919271 .080444339 .41992188 .11828613 .44791667 .1561381 .46191407 .20769246 .46191407 .27294923 .46191407 .33788047 .44791667 .38934837 .41992188 .4273529 .3919271 .46536765 .3540039 .484375 .30615235 .484375M.30615235 .5605469C.38427735 .5605469 .44563804 .5351105 .49023438 .48423768 .53483077 .43337504 .5571289 .36294557 .5571289 .27294923 .5571289 .1832784 .53483077 .11292521 .49023438 .06188965 .44563804 .010864258 .38427735-.0146484379 .30615235-.0146484379 .22770183-.0146484379 .16625977 .010864258 .12182617 .06188965 .07739258 .11292521 .05517578 .1832784 .05517578 .27294923 .05517578 .36294557 .07739258 .43337504 .12182617 .48423768 .16625977 .5351105 .22770183 .5605469 .30615235 .5605469Z"/>
<path id="font_2_5" d="M.4868164 .27294923C.4868164 .33918254 .47322593 .3911387 .44604493 .42881776 .41886393 .46650697 .3815104 .48535157 .33398438 .48535157 .28645835 .48535157 .24910482 .46650697 .22192383 .42881776 .19474285 .3911387 .18115235 .33918254 .18115235 .27294923 .18115235 .2067159 .19474285 .15475464 .22192383 .11706543 .24910482 .07938639 .28645835 .060546876 .33398438 .060546876 .3815104 .060546876 .41886393 .07938639 .44604493 .11706543 .47322593 .15475464 .4868164 .2067159 .4868164 .27294923M.18115235 .4638672C.20003255 .49658204 .22387696 .520874 .25268556 .53674319 .28149415 .5526123 .31591798 .5605469 .35595704 .5605469 .42236329 .5605469 .47631837 .5341339 .51782229 .48130799 .5593262 .42848207 .5800781 .35902915 .5800781 .27294923 .5800781 .18686931 .5593262 .11741638 .51782229 .064590457 .47631837 .011764526 .42236329-.0146484379 .35595704-.0146484379 .31591798-.0146484379 .28149415-.006713867 .25268556 .009155273 .22387696 .025024414 .20003255 .049316408 .18115235 .08203125V0H.09082031V.7597656H.18115235V.4638672Z"/>
<path id="font_2_6" d="M.5620117 .29589845V.25195313H.14892578C.15283203 .1899414 .1714681 .1427002 .20483399 .11022949 .23819988 .07775879 .28466798 .061523439 .34423829 .061523439 .3787435 .061523439 .41219078 .06575521 .44458009 .07421875 .4769694 .08268229 .50911459 .0953776 .5410156 .11230469V.02734375C.50878909 .013671875 .4757487 .0032552083 .44189454-.00390625 .40804038-.011067708 .3736979-.0146484379 .3388672-.0146484379 .2516276-.0146484379 .18253581 .010782878 .1315918 .061645509 .08064779 .11251831 .05517578 .18132019 .05517578 .26805116 .05517578 .35772196 .0793457 .42888896 .12768555 .48155213 .17602539 .5342153 .24121094 .5605469 .3232422 .5605469 .3968099 .5605469 .45499674 .53681948 .49780274 .48936463 .5406087 .44191996 .5620117 .37743125 .5620117 .29589845M.47216798 .32226563C.47151695 .37157188 .45776368 .4109141 .4309082 .44029237 .40405274 .4696808 .3684896 .484375 .32421876 .484375 .27408854 .484375 .2339681 .47016908 .20385742 .4417572 .17374675 .4133555 .15641277 .3733622 .15185547 .32177735L.47216798 .32226563Z"/>
<path id="font_2_7" d="M.5488281 .33007813V0H.45898438V.32714845C.45898438 .379069 .44889323 .41792808 .42871095 .4437256 .40852867 .4695231 .37825523 .48242188 .33789063 .48242188 .28938804 .48242188 .2511393 .46691386 .22314453 .43589784 .19514974 .40489198 .18115235 .36262004 .18115235 .30908204V0H.09082031V.546875H.18115235V.46191407C.20263672 .49495445 .22794597 .5196533 .25708009 .53601077 .2862142 .55236819 .31982423 .5605469 .35791017 .5605469 .4207357 .5605469 .46826173 .54105636 .5004883 .5020752 .53271487 .4630941 .5488281 .40576173 .5488281 .33007813Z"/>
<path id="font_2_8" d="M.08496094 .21582031V.546875H.17480469V.21923828C.17480469 .1673177 .18489583 .12837728 .20507813 .10241699 .22526042 .0764567 .25553385 .06347656 .29589845 .06347656 .34440104 .06347656 .3827311 .07897949 .41088868 .10998535 .43904624 .14100139 .453125 .1832784 .453125 .2368164V.546875H.54296877V0H.453125V.083984378C.4313151 .05061849 .40600587 .025838217 .37719728 .009643555 .34838868-.006551107 .3149414-.0146484379 .27685548-.0146484379 .21402996-.0146484379 .16634114 .0049235026 .13378906 .044067384 .10123698 .083211269 .08496094 .14046224 .08496094 .21582031M.31103517 .5605469V.5605469Z"/>
<path id="font_2_9" d="M.09423828 .7597656H.18408203V0H.09423828V.7597656Z"/>
<path id="font_2_10" d="M.45410157 .4638672V.7597656H.5439453V0H.45410157V.08203125C.43522135 .049316408 .41137696 .025024414 .38256837 .009155273 .35375978-.006713867 .3191732-.0146484379 .2788086-.0146484379 .21272786-.0146484379 .15893555 .011764526 .11743164 .064590457 .075927738 .11741638 .05517578 .18686931 .05517578 .27294923 .05517578 .35902915 .075927738 .42848207 .11743164 .48130799 .15893555 .5341339 .21272786 .5605469 .2788086 .5605469 .3191732 .5605469 .35375978 .5526123 .38256837 .53674319 .41137696 .520874 .43522135 .49658204 .45410157 .4638672M.14794922 .27294923C.14794922 .2067159 .16153972 .15475464 .1887207 .11706543 .21590169 .07938639 .25325523 .060546876 .30078126 .060546876 .34830729 .060546876 .3857422 .07938639 .41308595 .11706543 .4404297 .15475464 .45410157 .2067159 .45410157 .27294923 .45410157 .33918254 .4404297 .3911387 .41308595 .42881776 .3857422 .46650697 .34830729 .48535157 .30078126 .48535157 .25325523 .48535157 .21590169 .46650697 .1887207 .42881776 .16153972 .3911387 .14794922 .33918254 .14794922 .27294923Z"/>
</defs>
<g>
<path d="M18.48 22.574H85.722V43.753999H18.48Z" fill="#ffffff"/>
<path stroke-width=".622994" stroke-linecap="butt" stroke-miterlimit="4" stroke-linejoin="miter" fill="none" stroke="#000000" d="M18.48 22.574H85.722V43.753999H18.48Z"/>
<path stroke-width=".8" stroke-linecap="butt" stroke-miterlimit="4" stroke-linejoin="miter" fill="none" stroke="#000000" d="M53.543 22.656V43.668"/>
<use data-text="&#xfb01;" xlink:href="#font_1_1" transform="matrix(6.4,0,0,-6.4,-.146875,4.943718)"/>
<use data-text="r" xlink:href="#font_2_1" transform="matrix(6.4,0,0,-6.4,3.878725,4.943718)"/>
<use data-text="s" xlink:href="#font_2_2" transform="matrix(6.4,0,0,-6.4,6.509125,4.943718)"/>
<use data-text="t" xlink:href="#font_2_3" transform="matrix(6.4,0,0,-6.4,9.837126,4.943718)"/>
<path stroke-width=".8" stroke-linecap="butt" stroke-miterlimit="4" stroke-linejoin="miter" fill="none" stroke="#000000" d="M6.848 6.09 16.141 19.828"/>
<path transform="matrix(-.676471,-1,1,-.676471,0,0)" d="M-18.445 1.87-17.119 .545-21.758 1.871-17.119 3.197ZM-18.445 1.87" fill-rule="evenodd"/>
<path transform="matrix(-.676471,-1,1,-.676471,0,0)" stroke-width=".331313" stroke-linecap="butt" stroke-miterlimit="4" stroke-linejoin="miter" fill="none" stroke="#000000" d="M-18.445 1.87-17.119 .545-21.758 1.871-17.119 3.197ZM-18.445 1.87"/>
<use data-text="t" xlink:href="#font_2_3" transform="matrix(6.4,0,0,-6.4,32.401346,34.76301)"/>
<use data-text="o" xlink:href="#font_2_4" transform="matrix(6.4,0,0,-6.4,34.910146,34.76301)"/>
<path d="M115.25 22.754H182.488V43.93H115.25Z" fill="#ffffff"/>
<path stroke-width=".622994" stroke-linecap="butt" stroke-miterlimit="4" stroke-linejoin="miter" fill="none" stroke="#000000" d="M115.25 22.754H182.488V43.93H115.25Z"/>
<path stroke-width=".8" stroke-linecap="butt" stroke-miterlimit="4" stroke-linejoin="miter" fill="none" stroke="#000000" d="M150.309 22.836V43.848"/>
<use data-text="b" xlink:href="#font_2_5" transform="matrix(6.4,0,0,-6.4,129.1679,34.94146)"/>
<use data-text="e" xlink:href="#font_2_6" transform="matrix(6.4,0,0,-6.4,133.2255,34.94146)"/>
<path d="M213.402 21.539H280.64399V42.719H213.402Z" fill="#ffffff"/>
<path stroke-width=".622994" stroke-linecap="butt" stroke-miterlimit="4" stroke-linejoin="miter" fill="none" stroke="#000000" d="M213.402 21.539H280.64399V42.719H213.402Z"/>
<path stroke-width=".8" stroke-linecap="butt" stroke-miterlimit="4" stroke-linejoin="miter" fill="none" stroke="#000000" d="M248.465 21.625V42.637"/>
<use data-text="o" xlink:href="#font_2_4" transform="matrix(6.4,0,0,-6.4,227.32222,33.729284)"/>
<use data-text="r" xlink:href="#font_2_1" transform="matrix(6.4,0,0,-6.4,231.23262,33.729284)"/>
<path stroke-width=".8" stroke-linecap="butt" stroke-miterlimit="4" stroke-linejoin="miter" fill="none" stroke="#000000" d="M70.285 33.566 114.328 33.164"/>
<path transform="matrix(1,-.00917431,.00917431,1,0,0)" d="M71.542 34.207C71.541 35.094 70.824 35.81 69.941 35.81 69.058 35.809 68.338 35.092 68.338 34.209 68.339 33.326 69.056 32.61 69.939 32.61 70.822 32.611 71.538 33.324 71.542 34.207ZM71.542 34.207" fill-rule="evenodd"/>
<path transform="matrix(1,-.00917431,.00917431,1,0,0)" stroke-width=".399983" stroke-linecap="butt" stroke-miterlimit="4" stroke-linejoin="miter" fill="none" stroke="#000000" d="M71.542 34.207C71.541 35.094 70.824 35.81 69.941 35.81 69.058 35.809 68.338 35.092 68.338 34.209 68.339 33.326 69.056 32.61 69.939 32.61 70.822 32.611 71.538 33.324 71.542 34.207ZM71.542 34.207"/>
<path transform="matrix(-1,.00917431,-.00917431,-1,0,0)" d="M-110.815-34.208-109.214-35.811-114.815-34.21-109.216-32.607ZM-110.815-34.208" fill-rule="evenodd"/>
<path transform="matrix(-1,.00917431,-.00917431,-1,0,0)" stroke-width=".399983" stroke-linecap="butt" stroke-miterlimit="4" stroke-linejoin="miter" fill="none" stroke="#000000" d="M-110.815-34.208-109.214-35.811-114.815-34.21-109.216-32.607ZM-110.815-34.208"/>
<path stroke-width=".8" stroke-linecap="butt" stroke-miterlimit="4" stroke-linejoin="miter" fill="none" stroke="#000000" d="M167.879 33.746 211.922 33.344"/>
<path transform="matrix(1,-.00917431,.00917431,1,0,0)" d="M169.122 35.286C169.121 36.169 168.408 36.885 167.521 36.885 166.638 36.884 165.922 36.167 165.922 35.284 165.923 34.401 166.64 33.685 167.523 33.685 168.406 33.686 169.122 34.399 169.122 35.286ZM169.122 35.286" fill-rule="evenodd"/>
<path transform="matrix(1,-.00917431,.00917431,1,0,0)" stroke-width=".399983" stroke-linecap="butt" stroke-miterlimit="4" stroke-linejoin="miter" fill="none" stroke="#000000" d="M169.122 35.286C169.121 36.169 168.408 36.885 167.521 36.885 166.638 36.884 165.922 36.167 165.922 35.284 165.923 34.401 166.64 33.685 167.523 33.685 168.406 33.686 169.122 34.399 169.122 35.286ZM169.122 35.286"/>
<path transform="matrix(-1,.00917431,-.00917431,-1,0,0)" d="M-208.399-35.283-206.798-36.886-212.399-35.285-206.796-33.682ZM-208.399-35.283" fill-rule="evenodd"/>
<path transform="matrix(-1,.00917431,-.00917431,-1,0,0)" stroke-width=".399983" stroke-linecap="butt" stroke-miterlimit="4" stroke-linejoin="miter" fill="none" stroke="#000000" d="M-208.399-35.283-206.798-36.886-212.399-35.285-206.796-33.682ZM-208.399-35.283"/>
<use data-text="n" xlink:href="#font_2_7" transform="matrix(6.4,0,0,-6.4,258.99836,33.146764)"/>
<use data-text="u" xlink:href="#font_2_8" transform="matrix(6.4,0,0,-6.4,263.04957,33.146764)"/>
<use data-text="l" xlink:href="#font_2_9" transform="matrix(6.4,0,0,-6.4,267.10078,33.146764)"/>
<use data-text="l" xlink:href="#font_2_9" transform="matrix(6.4,0,0,-6.4,268.87358,33.146764)"/>
<path stroke-width=".889014" stroke-linecap="butt" stroke-miterlimit="4" stroke-linejoin="miter" fill="none" stroke="#000000" d="M31.133 5.902 19.586 19.555"/>
<path transform="matrix(.845893,-1,1,.845893,0,0)" d="M.974 21.059 2.329 19.701-2.421 21.059 2.329 22.417ZM.974 21.059" fill-rule="evenodd"/>
<path transform="matrix(.845893,-1,1,.845893,0,0)" stroke-width=".339374" stroke-linecap="butt" stroke-miterlimit="4" stroke-linejoin="miter" fill="none" stroke="#000000" d="M.974 21.059 2.329 19.701-2.421 21.059 2.329 22.417ZM.974 21.059"/>
<use data-text="o" xlink:href="#font_2_4" transform="matrix(6.4,0,0,-6.4,20.586108,4.862499)"/>
<use data-text="l" xlink:href="#font_2_9" transform="matrix(6.4,0,0,-6.4,24.496508,4.862499)"/>
<use data-text="d" xlink:href="#font_2_10" transform="matrix(6.4,0,0,-6.4,26.269309,4.862499)"/>
<use data-text="&#xfb01;" xlink:href="#font_1_1" transform="matrix(6.4,0,0,-6.4,30.326909,4.862499)"/>
<use data-text="r" xlink:href="#font_2_1" transform="matrix(6.4,0,0,-6.4,34.35251,4.862499)"/>
<use data-text="s" xlink:href="#font_2_2" transform="matrix(6.4,0,0,-6.4,36.98291,4.862499)"/>
<use data-text="t" xlink:href="#font_2_3" transform="matrix(6.4,0,0,-6.4,40.31091,4.862499)"/>
</g>
</svg>
