<svg xmlns="http://www.w3.org/2000/svg" xmlns:xlink="http://www.w3.org/1999/xlink" xmlns:inkscape="http://www.inkscape.org/namespaces/inkscape" version="1.1" width="86.03513" height="43.982583" viewBox="0 0 86.03513 43.982583">
<defs>
<path id="font_1_1" d="M.5361328 .546875V0H.44580079V.4765625H.19921875V0H.10888672V.4765625H.022949219V.546875H.10888672V.58496096C.10888672 .64453127 .12296549 .6885579 .15112305 .717041 .1792806 .7455241 .22249349 .7597656 .28076173 .7597656H.37109376V.6845703H.28515626C.2529297 .6845703 .23055013 .67808029 .21801758 .6651001 .20548503 .6521301 .19921875 .6287791 .19921875 .595047V.546875H.5361328M.44580079 .75878909H.5361328V.64453127H.44580079V.75878909Z"/>
<path id="font_2_1" d="M.4111328 .46289063C.40104167 .46891276 .39005534 .473348 .37817384 .4761963 .36629234 .4790446 .3531901 .48046876 .3388672 .48046876 .28808595 .48046876 .24910482 .4639028 .22192383 .43077088 .19474285 .39764915 .18115235 .3500875 .18115235 .28808595V0H.09082031V.546875H.18115235V.46191407C.20003255 .49527995 .22460938 .52006027 .2548828 .5362549 .28515626 .5524495 .3219401 .5605469 .36523438 .5605469 .37141929 .5605469 .37825523 .56013998 .3857422 .5593262 .39322917 .5585124 .40152995 .5572917 .41064454 .55566409L.4111328 .46289063Z"/>
<path id="font_2_2" d="M.4428711 .53125V.44628907C.41748048 .4593099 .39111329 .46907554 .36376954 .47558595 .33642579 .48209635 .30810548 .48535157 .2788086 .48535157 .23421224 .48535157 .20076497 .47850038 .1784668 .46479798 .15616863 .45109559 .14501953 .430542 .14501953 .4031372 .14501953 .38226319 .1529948 .36587016 .16894531 .35395814 .18489583 .3420461 .21695964 .33070884 .26513673 .3199463L.29589845 .31307984C.35970054 .2993876 .4050293 .2800649 .43188478 .2551117 .45874024 .23016866 .47216798 .19535828 .47216798 .15068054 .47216798 .09980774 .45206706 .05953471 .41186524 .02986145 .37166343 .00018819173 .31640626-.0146484379 .24609375-.0146484379 .21679688-.0146484379 .1862793-.01180013 .15454102-.0061035158 .122802738-.00040690104 .08935547 .0081380209 .05419922 .01953125V.11230469C.087402347 .095052089 .12011719 .08211263 .15234375 .07348633 .18457031 .06486002 .21647136 .060546876 .24804688 .060546876 .2903646 .060546876 .32291667 .06780497 .34570313 .08232117 .3684896 .096837367 .3798828 .11730448 .3798828 .14372254 .3798828 .16818746 .37166343 .1869456 .3552246 .19999695 .3387858 .2130483 .30273438 .22560628 .24707031 .2376709L.21582031 .24501038C.16015625 .25674949 .11995443 .274765 .095214847 .299057 .07047526 .32335917 .05810547 .3567098 .05810547 .3991089 .05810547 .4506429 .07633463 .49043275 .11279297 .5184784 .1492513 .54652407 .20100911 .5605469 .2680664 .5605469 .30126954 .5605469 .33251954 .55810549 .3618164 .55322268 .39111329 .54833987 .4181315 .5410156 .4428711 .53125Z"/>
<path id="font_2_3" d="M.18310547 .70214846V.546875H.36816407V.4765625H.18310547V.18005371C.18310547 .13550823 .18920899 .106892909 .20141602 .09420776 .21362305 .0815328 .23844402 .07519531 .2758789 .07519531H.36816407V0H.2758789C.20654297 0 .1586914 .01292928 .13232422 .03878784 .10595703 .06465658 .09277344 .1117452 .09277344 .18005371V.4765625H.026855469V.546875H.09277344V.70214846H.18310547Z"/>
<path id="font_2_4" d="M.30615235 .484375C.25797526 .484375 .21988933 .4655304 .19189453 .4278412 .16389974 .39016215 .14990235 .3385315 .14990235 .27294923 .14990235 .20736695 .16381836 .1557312 .19165039 .11804199 .21948242 .08036295 .25764976 .061523439 .30615235 .061523439 .3540039 .061523439 .3919271 .080444339 .41992188 .11828613 .44791667 .1561381 .46191407 .20769246 .46191407 .27294923 .46191407 .33788047 .44791667 .38934837 .41992188 .4273529 .3919271 .46536765 .3540039 .484375 .30615235 .484375M.30615235 .5605469C.38427735 .5605469 .44563804 .5351105 .49023438 .48423768 .53483077 .43337504 .5571289 .36294557 .5571289 .27294923 .5571289 .1832784 .53483077 .11292521 .49023438 .06188965 .44563804 .010864258 .38427735-.0146484379 .30615235-.0146484379 .22770183-.0146484379 .16625977 .010864258 .12182617 .06188965 .07739258 .11292521 .05517578 .1832784 .05517578 .27294923 .05517578 .36294557 .07739258 .43337504 .12182617 .48423768 .16625977 .5351105 .22770183 .5605469 .30615235 .5605469Z"/>
<path id="font_2_5" d="M.5488281 .33007813V0H.45898438V.32714845C.45898438 .379069 .44889323 .41792808 .42871095 .4437256 .40852867 .4695231 .37825523 .48242188 .33789063 .48242188 .28938804 .48242188 .2511393 .46691386 .22314453 .43589784 .19514974 .40489198 .18115235 .36262004 .18115235 .30908204V0H.09082031V.546875H.18115235V.46191407C.20263672 .49495445 .22794597 .5196533 .25708009 .53601077 .2862142 .55236819 .31982423 .5605469 .35791017 .5605469 .4207357 .5605469 .46826173 .54105636 .5004883 .5020752 .53271487 .4630941 .5488281 .40576173 .5488281 .33007813Z"/>
<path id="font_2_6" d="M.08496094 .21582031V.546875H.17480469V.21923828C.17480469 .1673177 .18489583 .12837728 .20507813 .10241699 .22526042 .0764567 .25553385 .06347656 .29589845 .06347656 .34440104 .06347656 .3827311 .07897949 .41088868 .10998535 .43904624 .14100139 .453125 .1832784 .453125 .2368164V.546875H.54296877V0H.453125V.083984378C.4313151 .05061849 .40600587 .025838217 .37719728 .009643555 .34838868-.006551107 .3149414-.0146484379 .27685548-.0146484379 .21402996-.0146484379 .16634114 .0049235026 .13378906 .044067384 .10123698 .083211269 .08496094 .14046224 .08496094 .21582031M.31103517 .5605469V.5605469Z"/>
<path id="font_2_7" d="M.09423828 .7597656H.18408203V0H.09423828V.7597656Z"/>
</defs>
<g>
<path d="M18.48 22.492H85.722V43.672H18.48Z" fill="#ffffff"/>
<path stroke-width=".622994" stroke-linecap="butt" stroke-miterlimit="4" stroke-linejoin="miter" fill="none" stroke="#000000" d="M18.48 22.492H85.722V43.672H18.48Z"/>
<path stroke-width=".8" stroke-linecap="butt" stroke-miterlimit="4" stroke-linejoin="miter" fill="none" stroke="#000000" d="M53.543 22.578V43.586"/>
<use data-text="&#xfb01;" xlink:href="#font_1_1" transform="matrix(6.4,0,0,-6.4,-.146875,4.862499)"/>
<use data-text="r" xlink:href="#font_2_1" transform="matrix(6.4,0,0,-6.4,3.878725,4.862499)"/>
<use data-text="s" xlink:href="#font_2_2" transform="matrix(6.4,0,0,-6.4,6.509125,4.862499)"/>
<use data-text="t" xlink:href="#font_2_3" transform="matrix(6.4,0,0,-6.4,9.837126,4.862499)"/>
<path stroke-width=".8" stroke-linecap="butt" stroke-miterlimit="4" stroke-linejoin="miter" fill="none" stroke="#000000" d="M6.848 6.008 16.141 19.746"/>
<path transform="matrix(-.676471,-1,1,-.676471,0,0)" d="M-18.389 1.908-17.062 .583-21.702 1.909-17.063 3.235ZM-18.389 1.908" fill-rule="evenodd"/>
<path transform="matrix(-.676471,-1,1,-.676471,0,0)" stroke-width=".331313" stroke-linecap="butt" stroke-miterlimit="4" stroke-linejoin="miter" fill="none" stroke="#000000" d="M-18.389 1.908-17.062 .583-21.702 1.909-17.063 3.235ZM-18.389 1.908"/>
<use data-text="t" xlink:href="#font_2_3" transform="matrix(6.4,0,0,-6.4,32.401346,34.681795)"/>
<use data-text="o" xlink:href="#font_2_4" transform="matrix(6.4,0,0,-6.4,34.910146,34.681795)"/>
<use data-text="n" xlink:href="#font_2_5" transform="matrix(6.4,0,0,-6.4,63.79834,34.665548)"/>
<use data-text="u" xlink:href="#font_2_6" transform="matrix(6.4,0,0,-6.4,67.84954,34.665548)"/>
<use data-text="l" xlink:href="#font_2_7" transform="matrix(6.4,0,0,-6.4,71.90074,34.665548)"/>
<use data-text="l" xlink:href="#font_2_7" transform="matrix(6.4,0,0,-6.4,73.67354,34.665548)"/>
</g>
</svg>
