<svg xmlns="http://www.w3.org/2000/svg" xmlns:xlink="http://www.w3.org/1999/xlink" xmlns:inkscape="http://www.inkscape.org/namespaces/inkscape" version="1.1" width="174.48436" height="57.77735" viewBox="0 0 174.48436 57.77735">
<g>
<path d="M.758 13.926H40.285V57.321H.758Z" fill="#f3f5f5"/>
<path d="M40.285 0H174.48401V13.738H40.285Z" fill="#f3f5f5"/>
<path d="M53.504 8.82H54.223V4.023H55.863V3.43H51.863V4.023H53.504ZM53.504 8.82" fill="#383335"/>
<path d="M58.641 6.445C58.641 5.68 58.359 4.867 57.172 4.867 56.688 4.867 56.219 5.008 55.891 5.211L56.063 5.68C56.328 5.492 56.703 5.383 57.078 5.383 57.859 5.383 57.953 5.961 57.953 6.273V6.352C56.453 6.352 55.625 6.867 55.625 7.789 55.625 8.352 56.031 8.914 56.813 8.914 57.359 8.914 57.781 8.633 57.984 8.336H58.016L58.078 8.82H58.703C58.656 8.555 58.641 8.227 58.641 7.898ZM57.969 7.523C57.969 7.586 57.953 7.664 57.938 7.742 57.828 8.07 57.5 8.383 56.984 8.383 56.625 8.383 56.328 8.18 56.328 7.711 56.328 6.961 57.203 6.836 57.969 6.852ZM57.969 7.523" fill="#383335"/>
<path d="M59.777 8.82H60.48V6.758C60.48 6.648 60.496 6.523 60.512 6.43 60.605 5.898 60.965 5.539 61.449 5.539 61.559 5.539 61.621 5.539 61.699 5.555V4.883C61.637 4.883 61.574 4.867 61.496 4.867 61.027 4.867 60.605 5.195 60.418 5.711H60.402L60.371 4.945H59.746C59.777 5.305 59.777 5.695 59.777 6.164ZM59.777 8.82" fill="#383335"/>
<path d="M65.648 6.008C65.648 5.539 65.664 5.227 65.68 4.945H65.055L65.039 5.539H65.023C64.852 5.211 64.492 4.867 63.82 4.867 62.914 4.867 62.055 5.602 62.055 6.914 62.055 7.992 62.742 8.805 63.711 8.805 64.305 8.805 64.727 8.523 64.945 8.164H64.961V8.586C64.961 9.57 64.43 9.945 63.711 9.945 63.227 9.945 62.836 9.789 62.57 9.633L62.398 10.18C62.711 10.383 63.227 10.492 63.68 10.492 64.18 10.492 64.711 10.367 65.102 10.023 65.477 9.68 65.648 9.148 65.648 8.258ZM64.945 7.18C64.945 7.289 64.93 7.43 64.898 7.555 64.742 7.992 64.352 8.273 63.914 8.273 63.164 8.273 62.773 7.633 62.773 6.883 62.773 5.977 63.258 5.414 63.93 5.414 64.445 5.414 64.789 5.742 64.914 6.164 64.945 6.258 64.945 6.352 64.945 6.477ZM64.945 7.18" fill="#383335"/>
<path d="M69.934 7.008C69.949 6.93 69.949 6.836 69.949 6.68 69.949 5.977 69.621 4.867 68.355 4.867 67.215 4.867 66.527 5.773 66.527 6.945 66.527 8.117 67.246 8.914 68.434 8.914 69.059 8.914 69.48 8.773 69.73 8.664L69.605 8.164C69.355 8.273 69.043 8.352 68.527 8.352 67.824 8.352 67.215 7.961 67.199 7.008ZM67.215 6.508C67.277 6.023 67.574 5.367 68.293 5.367 69.09 5.367 69.277 6.07 69.277 6.508ZM67.215 6.508" fill="#383335"/>
<path d="M70.988 4.227V4.945H70.379V5.477H70.988V7.602C70.988 8.055 71.066 8.398 71.254 8.617 71.426 8.789 71.691 8.914 72.02 8.914 72.285 8.914 72.504 8.867 72.645 8.805L72.613 8.273C72.504 8.305 72.395 8.32 72.191 8.32 71.801 8.32 71.676 8.055 71.676 7.57V5.477H72.676V4.945H71.676V4.023ZM70.988 4.227" fill="#383335"/>
<path d="M75.863 3.133H75.16V8.82H75.863V7.367L76.223 6.961 77.551 8.82H78.41L76.707 6.539 78.191 4.945H77.363L76.207 6.289C76.098 6.414 75.973 6.586 75.879 6.727H75.863ZM75.863 3.133" fill="#383335"/>
<path d="M79.043 8.82H79.746V6.492C79.746 6.367 79.762 6.258 79.809 6.164 79.934 5.773 80.293 5.445 80.746 5.445 81.402 5.445 81.637 5.961 81.637 6.586V8.82H82.34V6.523C82.34 5.195 81.512 4.867 80.98 4.867 80.34 4.867 79.887 5.227 79.699 5.586H79.684L79.637 4.945H79.012C79.043 5.273 79.043 5.586 79.043 5.992ZM79.043 8.82" fill="#383335"/>
<path d="M85.121 4.867C84.059 4.867 83.199 5.633 83.199 6.914 83.199 8.133 84.027 8.914 85.059 8.914 85.996 8.914 86.996 8.289 86.996 6.852 86.996 5.68 86.246 4.867 85.121 4.867ZM85.105 5.398C85.949 5.398 86.277 6.227 86.277 6.883 86.277 7.742 85.762 8.383 85.09 8.383 84.402 8.383 83.934 7.742 83.934 6.898 83.934 6.164 84.293 5.398 85.105 5.398ZM85.105 5.398" fill="#383335"/>
<path d="M87.387 4.945 88.559 8.82H89.199L89.824 6.977C89.965 6.57 90.074 6.164 90.168 5.695H90.184C90.293 6.164 90.402 6.539 90.527 6.977L91.121 8.82H91.762L93.012 4.945H92.324L91.762 6.898C91.637 7.352 91.527 7.758 91.465 8.148H91.449C91.355 7.758 91.246 7.352 91.105 6.883L90.496 4.945H89.902L89.277 6.93C89.152 7.336 89.027 7.758 88.934 8.148H88.902C88.84 7.742 88.73 7.352 88.637 6.914L88.105 4.945ZM87.387 4.945" fill="#383335"/>
<path d="M93.715 8.82H94.418V6.492C94.418 6.367 94.434 6.258 94.48 6.164 94.605 5.773 94.965 5.445 95.418 5.445 96.074 5.445 96.309 5.961 96.309 6.586V8.82H97.012V6.523C97.012 5.195 96.184 4.867 95.652 4.867 95.012 4.867 94.559 5.227 94.371 5.586H94.355L94.309 4.945H93.684C93.715 5.273 93.715 5.586 93.715 5.992ZM93.715 8.82" fill="#383335"/>
<path d="M116.152 10.422H116.871V5.625H118.512V5.031H114.512V5.625H116.152ZM116.152 10.422" fill="#383335"/>
<path d="M121.297 8.047C121.297 7.281 121.016 6.469 119.828 6.469 119.344 6.469 118.875 6.609 118.547 6.813L118.719 7.281C118.984 7.094 119.359 6.984 119.734 6.984 120.516 6.984 120.609 7.563 120.609 7.875V7.953C119.109 7.953 118.281 8.469 118.281 9.391 118.281 9.953 118.688 10.516 119.469 10.516 120.016 10.516 120.438 10.234 120.641 9.938H120.672L120.734 10.422H121.359C121.313 10.156 121.297 9.828 121.297 9.5ZM120.625 9.125C120.625 9.188 120.609 9.266 120.594 9.344 120.484 9.672 120.156 9.984 119.641 9.984 119.281 9.984 118.984 9.781 118.984 9.313 118.984 8.563 119.859 8.438 120.625 8.453ZM120.625 9.125" fill="#383335"/>
<path d="M122.434 10.422H123.137V8.359C123.137 8.25 123.152 8.125 123.168 8.031 123.262 7.5 123.621 7.141 124.105 7.141 124.215 7.141 124.277 7.141 124.355 7.156V6.484C124.293 6.484 124.23 6.469 124.152 6.469 123.684 6.469 123.262 6.797 123.074 7.313H123.059L123.027 6.547H122.402C122.434 6.906 122.434 7.297 122.434 7.766ZM122.434 10.422" fill="#383335"/>
<path d="M128.297 7.609C128.297 7.141 128.313 6.828 128.328 6.547H127.703L127.688 7.141H127.672C127.5 6.813 127.141 6.469 126.469 6.469 125.563 6.469 124.703 7.203 124.703 8.516 124.703 9.594 125.391 10.406 126.359 10.406 126.953 10.406 127.375 10.125 127.594 9.766H127.609V10.188C127.609 11.172 127.078 11.547 126.359 11.547 125.875 11.547 125.484 11.391 125.219 11.234L125.047 11.781C125.359 11.984 125.875 12.094 126.328 12.094 126.828 12.094 127.359 11.969 127.75 11.625 128.125 11.281 128.297 10.75 128.297 9.859ZM127.594 8.781C127.594 8.891 127.578 9.031 127.547 9.156 127.391 9.594 127 9.875 126.563 9.875 125.813 9.875 125.422 9.234 125.422 8.484 125.422 7.578 125.906 7.016 126.578 7.016 127.094 7.016 127.438 7.344 127.563 7.766 127.594 7.859 127.594 7.953 127.594 8.078ZM127.594 8.781" fill="#383335"/>
<path d="M132.582 8.609C132.598 8.531 132.598 8.438 132.598 8.281 132.598 7.578 132.27 6.469 131.004 6.469 129.863 6.469 129.176 7.375 129.176 8.547 129.176 9.719 129.895 10.516 131.082 10.516 131.707 10.516 132.129 10.375 132.379 10.266L132.254 9.766C132.004 9.875 131.691 9.953 131.176 9.953 130.473 9.953 129.863 9.563 129.848 8.609ZM129.863 8.109C129.926 7.625 130.223 6.969 130.941 6.969 131.738 6.969 131.926 7.672 131.926 8.109ZM129.863 8.109" fill="#383335"/>
<path d="M133.637 5.828V6.547H133.027V7.078H133.637V9.203C133.637 9.656 133.715 10 133.902 10.219 134.074 10.391 134.34 10.516 134.668 10.516 134.934 10.516 135.152 10.469 135.293 10.406L135.262 9.875C135.152 9.906 135.043 9.922 134.84 9.922 134.449 9.922 134.324 9.656 134.324 9.172V7.078H135.324V6.547H134.324V5.625ZM133.637 5.828" fill="#383335"/>
<path d="M141.059 6.547H140.355V8.922C140.355 9.047 140.324 9.188 140.293 9.281 140.152 9.594 139.824 9.922 139.355 9.922 138.73 9.922 138.496 9.422 138.496 8.688V6.547H137.793V8.813C137.793 10.172 138.512 10.516 139.121 10.516 139.809 10.516 140.23 10.109 140.402 9.797H140.418L140.465 10.422H141.09C141.059 10.125 141.059 9.766 141.059 9.359ZM141.059 6.547" fill="#383335"/>
<path d="M142.219 10.422H142.922V8.094C142.922 7.969 142.938 7.859 142.984 7.766 143.109 7.375 143.469 7.047 143.922 7.047 144.578 7.047 144.813 7.563 144.813 8.188V10.422H145.516V8.125C145.516 6.797 144.688 6.469 144.156 6.469 143.516 6.469 143.063 6.828 142.875 7.188H142.859L142.813 6.547H142.188C142.219 6.875 142.219 7.188 142.219 7.594ZM142.219 10.422" fill="#383335"/>
<path d="M147.359 4.734H146.656V10.422H147.359V8.969L147.719 8.563 149.047 10.422H149.906L148.203 8.141 149.688 6.547H148.859L147.703 7.891C147.594 8.016 147.469 8.188 147.375 8.328H147.359ZM147.359 4.734" fill="#383335"/>
<path d="M150.547 10.422H151.25V8.094C151.25 7.969 151.266 7.859 151.313 7.766 151.438 7.375 151.797 7.047 152.25 7.047 152.906 7.047 153.141 7.563 153.141 8.188V10.422H153.844V8.125C153.844 6.797 153.016 6.469 152.484 6.469 151.844 6.469 151.391 6.828 151.203 7.188H151.188L151.141 6.547H150.516C150.547 6.875 150.547 7.188 150.547 7.594ZM150.547 10.422" fill="#383335"/>
<path d="M156.625 6.469C155.563 6.469 154.703 7.234 154.703 8.516 154.703 9.734 155.531 10.516 156.563 10.516 157.5 10.516 158.5 9.891 158.5 8.453 158.5 7.281 157.75 6.469 156.625 6.469ZM156.609 7C157.453 7 157.781 7.828 157.781 8.484 157.781 9.344 157.266 9.984 156.594 9.984 155.906 9.984 155.438 9.344 155.438 8.5 155.438 7.766 155.797 7 156.609 7ZM156.609 7" fill="#383335"/>
<path d="M158.891 6.547 160.063 10.422H160.703L161.328 8.578C161.469 8.172 161.578 7.766 161.672 7.297H161.688C161.797 7.766 161.906 8.141 162.031 8.578L162.625 10.422H163.266L164.516 6.547H163.828L163.266 8.5C163.141 8.953 163.031 9.359 162.969 9.75H162.953C162.859 9.359 162.75 8.953 162.609 8.484L162 6.547H161.406L160.781 8.531C160.656 8.938 160.531 9.359 160.438 9.75H160.406C160.344 9.344 160.234 8.953 160.141 8.516L159.609 6.547ZM158.891 6.547" fill="#383335"/>
<path d="M165.219 10.422H165.922V8.094C165.922 7.969 165.938 7.859 165.984 7.766 166.109 7.375 166.469 7.047 166.922 7.047 167.578 7.047 167.813 7.563 167.813 8.188V10.422H168.516V8.125C168.516 6.797 167.688 6.469 167.156 6.469 166.516 6.469 166.063 6.828 165.875 7.188H165.859L165.813 6.547H165.188C165.219 6.875 165.219 7.188 165.219 7.594ZM165.219 10.422" fill="#383335"/>
<path d="M4.898 23.414H7.914V22.836H5.602V18.023H4.898ZM4.898 23.414" fill="#383335"/>
<path d="M10.195 19.461C9.133 19.461 8.273 20.227 8.273 21.508 8.273 22.727 9.102 23.508 10.133 23.508 11.07 23.508 12.07 22.883 12.07 21.445 12.07 20.273 11.32 19.461 10.195 19.461ZM10.18 19.992C11.023 19.992 11.352 20.82 11.352 21.477 11.352 22.336 10.836 22.977 10.164 22.977 9.477 22.977 9.008 22.336 9.008 21.492 9.008 20.758 9.367 19.992 10.18 19.992ZM10.18 19.992" fill="#383335"/>
<path d="M15.586 22.758C15.398 22.836 15.133 22.93 14.727 22.93 13.961 22.93 13.383 22.383 13.383 21.492 13.383 20.68 13.867 20.023 14.758 20.023 15.133 20.023 15.398 20.117 15.57 20.211L15.727 19.664C15.539 19.57 15.164 19.461 14.758 19.461 13.492 19.461 12.664 20.336 12.664 21.523 12.664 22.711 13.43 23.508 14.602 23.508 15.117 23.508 15.523 23.367 15.711 23.273ZM15.586 22.758" fill="#383335"/>
<path d="M19.246 21.039C19.246 20.273 18.965 19.461 17.777 19.461 17.293 19.461 16.824 19.602 16.496 19.805L16.668 20.273C16.934 20.086 17.309 19.977 17.684 19.977 18.465 19.977 18.559 20.555 18.559 20.867V20.945C17.059 20.945 16.23 21.461 16.23 22.383 16.23 22.945 16.637 23.508 17.418 23.508 17.965 23.508 18.387 23.227 18.59 22.93H18.621L18.684 23.414H19.309C19.262 23.148 19.246 22.82 19.246 22.492ZM18.574 22.117C18.574 22.18 18.559 22.258 18.543 22.336 18.434 22.664 18.105 22.977 17.59 22.977 17.23 22.977 16.934 22.773 16.934 22.305 16.934 21.555 17.809 21.43 18.574 21.445ZM18.574 22.117" fill="#383335"/>
<path d="M20.531 18.82V19.539H19.922V20.07H20.531V22.195C20.531 22.648 20.609 22.992 20.797 23.211 20.969 23.383 21.234 23.508 21.563 23.508 21.828 23.508 22.047 23.461 22.188 23.398L22.156 22.867C22.047 22.898 21.938 22.914 21.734 22.914 21.344 22.914 21.219 22.648 21.219 22.164V20.07H22.219V19.539H21.219V18.617ZM20.531 18.82" fill="#383335"/>
<path d="M23.711 23.414V19.539H23.008V23.414ZM23.367 18.008C23.102 18.008 22.93 18.211 22.93 18.461 22.93 18.695 23.086 18.883 23.352 18.883 23.633 18.883 23.805 18.695 23.805 18.461 23.805 18.211 23.617 18.008 23.367 18.008ZM23.367 18.008" fill="#383335"/>
<path d="M26.523 19.461C25.461 19.461 24.602 20.227 24.602 21.508 24.602 22.727 25.43 23.508 26.461 23.508 27.398 23.508 28.398 22.883 28.398 21.445 28.398 20.273 27.648 19.461 26.523 19.461ZM26.508 19.992C27.352 19.992 27.68 20.82 27.68 21.477 27.68 22.336 27.164 22.977 26.492 22.977 25.805 22.977 25.336 22.336 25.336 21.492 25.336 20.758 25.695 19.992 26.508 19.992ZM26.508 19.992" fill="#383335"/>
<path d="M29.273 23.414H29.977V21.086C29.977 20.961 29.992 20.852 30.039 20.758 30.164 20.367 30.523 20.039 30.977 20.039 31.633 20.039 31.867 20.555 31.867 21.18V23.414H32.57V21.117C32.57 19.789 31.742 19.461 31.211 19.461 30.57 19.461 30.117 19.82 29.93 20.18H29.914L29.867 19.539H29.242C29.273 19.867 29.273 20.18 29.273 20.586ZM29.273 23.414" fill="#383335"/>
<path d="M5.586 27.328H4.883V33.016H5.586V31.563L5.945 31.156 7.273 33.016H8.133L6.43 30.734 7.914 29.141H7.086L5.93 30.484C5.82 30.609 5.695 30.781 5.602 30.922H5.586ZM5.586 27.328" fill="#383335"/>
<path d="M8.762 33.016H9.465V30.688C9.465 30.563 9.48 30.453 9.527 30.359 9.652 29.969 10.012 29.641 10.465 29.641 11.121 29.641 11.355 30.156 11.355 30.781V33.016H12.059V30.719C12.059 29.391 11.23 29.063 10.699 29.063 10.059 29.063 9.605 29.422 9.418 29.781H9.402L9.355 29.141H8.73C8.762 29.469 8.762 29.781 8.762 30.188ZM8.762 33.016" fill="#383335"/>
<path d="M14.84 29.063C13.777 29.063 12.918 29.828 12.918 31.109 12.918 32.328 13.746 33.109 14.777 33.109 15.715 33.109 16.715 32.484 16.715 31.047 16.715 29.875 15.965 29.063 14.84 29.063ZM14.824 29.594C15.668 29.594 15.996 30.422 15.996 31.078 15.996 31.938 15.48 32.578 14.809 32.578 14.121 32.578 13.652 31.938 13.652 31.094 13.652 30.359 14.012 29.594 14.824 29.594ZM14.824 29.594" fill="#383335"/>
<path d="M17.109 29.141 18.281 33.016H18.922L19.547 31.172C19.688 30.766 19.797 30.359 19.891 29.891H19.906C20.016 30.359 20.125 30.734 20.25 31.172L20.844 33.016H21.484L22.734 29.141H22.047L21.484 31.094C21.359 31.547 21.25 31.953 21.188 32.344H21.172C21.078 31.953 20.969 31.547 20.828 31.078L20.219 29.141H19.625L19 31.125C18.875 31.531 18.75 31.953 18.656 32.344H18.625C18.563 31.938 18.453 31.547 18.359 31.109L17.828 29.141ZM17.109 29.141" fill="#383335"/>
<path d="M23.434 33.016H24.137V30.688C24.137 30.563 24.152 30.453 24.199 30.359 24.324 29.969 24.684 29.641 25.137 29.641 25.793 29.641 26.027 30.156 26.027 30.781V33.016H26.73V30.719C26.73 29.391 25.902 29.063 25.371 29.063 24.73 29.063 24.277 29.422 24.09 29.781H24.074L24.027 29.141H23.402C23.434 29.469 23.434 29.781 23.434 30.188ZM23.434 33.016" fill="#383335"/>
<path d="M4.898 45.621H7.914V45.043H5.602V40.23H4.898ZM4.898 45.621" fill="#383335"/>
<path d="M10.195 41.668C9.133 41.668 8.273 42.434 8.273 43.715 8.273 44.934 9.102 45.715 10.133 45.715 11.07 45.715 12.07 45.09 12.07 43.652 12.07 42.48 11.32 41.668 10.195 41.668ZM10.18 42.199C11.023 42.199 11.352 43.027 11.352 43.684 11.352 44.543 10.836 45.184 10.164 45.184 9.477 45.184 9.008 44.543 9.008 43.699 9.008 42.965 9.367 42.199 10.18 42.199ZM10.18 42.199" fill="#383335"/>
<path d="M15.586 44.965C15.398 45.043 15.133 45.137 14.727 45.137 13.961 45.137 13.383 44.59 13.383 43.699 13.383 42.887 13.867 42.23 14.758 42.23 15.133 42.23 15.398 42.324 15.57 42.418L15.727 41.871C15.539 41.777 15.164 41.668 14.758 41.668 13.492 41.668 12.664 42.543 12.664 43.73 12.664 44.918 13.43 45.715 14.602 45.715 15.117 45.715 15.523 45.574 15.711 45.48ZM15.586 44.965" fill="#383335"/>
<path d="M19.246 43.246C19.246 42.48 18.965 41.668 17.777 41.668 17.293 41.668 16.824 41.809 16.496 42.012L16.668 42.48C16.934 42.293 17.309 42.184 17.684 42.184 18.465 42.184 18.559 42.762 18.559 43.074V43.152C17.059 43.152 16.23 43.668 16.23 44.59 16.23 45.152 16.637 45.715 17.418 45.715 17.965 45.715 18.387 45.434 18.59 45.137H18.621L18.684 45.621H19.309C19.262 45.355 19.246 45.027 19.246 44.699ZM18.574 44.324C18.574 44.387 18.559 44.465 18.543 44.543 18.434 44.871 18.105 45.184 17.59 45.184 17.23 45.184 16.934 44.98 16.934 44.512 16.934 43.762 17.809 43.637 18.574 43.652ZM18.574 44.324" fill="#383335"/>
<path d="M20.531 41.027V41.746H19.922V42.277H20.531V44.402C20.531 44.855 20.609 45.199 20.797 45.418 20.969 45.59 21.234 45.715 21.563 45.715 21.828 45.715 22.047 45.668 22.188 45.605L22.156 45.074C22.047 45.105 21.938 45.121 21.734 45.121 21.344 45.121 21.219 44.855 21.219 44.371V42.277H22.219V41.746H21.219V40.824ZM20.531 41.027" fill="#383335"/>
<path d="M23.711 45.621V41.746H23.008V45.621ZM23.367 40.215C23.102 40.215 22.93 40.418 22.93 40.668 22.93 40.902 23.086 41.09 23.352 41.09 23.633 41.09 23.805 40.902 23.805 40.668 23.805 40.418 23.617 40.215 23.367 40.215ZM23.367 40.215" fill="#383335"/>
<path d="M26.523 41.668C25.461 41.668 24.602 42.434 24.602 43.715 24.602 44.934 25.43 45.715 26.461 45.715 27.398 45.715 28.398 45.09 28.398 43.652 28.398 42.48 27.648 41.668 26.523 41.668ZM26.508 42.199C27.352 42.199 27.68 43.027 27.68 43.684 27.68 44.543 27.164 45.184 26.492 45.184 25.805 45.184 25.336 44.543 25.336 43.699 25.336 42.965 25.695 42.199 26.508 42.199ZM26.508 42.199" fill="#383335"/>
<path d="M29.273 45.621H29.977V43.293C29.977 43.168 29.992 43.059 30.039 42.965 30.164 42.574 30.523 42.246 30.977 42.246 31.633 42.246 31.867 42.762 31.867 43.387V45.621H32.57V43.324C32.57 41.996 31.742 41.668 31.211 41.668 30.57 41.668 30.117 42.027 29.93 42.387H29.914L29.867 41.746H29.242C29.273 42.074 29.273 42.387 29.273 42.793ZM29.273 45.621" fill="#383335"/>
<path d="M8.133 51.348H7.43V53.723C7.43 53.848 7.398 53.988 7.367 54.082 7.227 54.395 6.898 54.723 6.43 54.723 5.805 54.723 5.57 54.223 5.57 53.488V51.348H4.867V53.613C4.867 54.973 5.586 55.316 6.195 55.316 6.883 55.316 7.305 54.91 7.477 54.598H7.492L7.539 55.223H8.164C8.133 54.926 8.133 54.566 8.133 54.16ZM8.133 51.348" fill="#383335"/>
<path d="M9.289 55.223H9.992V52.895C9.992 52.77 10.008 52.66 10.055 52.566 10.18 52.176 10.539 51.848 10.992 51.848 11.648 51.848 11.883 52.363 11.883 52.988V55.223H12.586V52.926C12.586 51.598 11.758 51.27 11.227 51.27 10.586 51.27 10.133 51.629 9.945 51.988H9.93L9.883 51.348H9.258C9.289 51.676 9.289 51.988 9.289 52.395ZM9.289 55.223" fill="#383335"/>
<path d="M14.434 49.535H13.73V55.223H14.434V53.77L14.793 53.363 16.121 55.223H16.98L15.277 52.941 16.762 51.348H15.934L14.777 52.691C14.668 52.816 14.543 52.988 14.449 53.129H14.434ZM14.434 49.535" fill="#383335"/>
<path d="M17.617 55.223H18.32V52.895C18.32 52.77 18.336 52.66 18.383 52.566 18.508 52.176 18.867 51.848 19.32 51.848 19.977 51.848 20.211 52.363 20.211 52.988V55.223H20.914V52.926C20.914 51.598 20.086 51.27 19.555 51.27 18.914 51.27 18.461 51.629 18.273 51.988H18.258L18.211 51.348H17.586C17.617 51.676 17.617 51.988 17.617 52.395ZM17.617 55.223" fill="#383335"/>
<path d="M23.699 51.27C22.637 51.27 21.777 52.035 21.777 53.316 21.777 54.535 22.605 55.316 23.637 55.316 24.574 55.316 25.574 54.691 25.574 53.254 25.574 52.082 24.824 51.27 23.699 51.27ZM23.684 51.801C24.527 51.801 24.855 52.629 24.855 53.285 24.855 54.145 24.34 54.785 23.668 54.785 22.98 54.785 22.512 54.145 22.512 53.301 22.512 52.566 22.871 51.801 23.684 51.801ZM23.684 51.801" fill="#383335"/>
<path d="M25.965 51.348 27.137 55.223H27.777L28.402 53.379C28.543 52.973 28.652 52.566 28.746 52.098H28.762C28.871 52.566 28.98 52.941 29.105 53.379L29.699 55.223H30.34L31.59 51.348H30.902L30.34 53.301C30.215 53.754 30.105 54.16 30.043 54.551H30.027C29.934 54.16 29.824 53.754 29.684 53.285L29.074 51.348H28.48L27.855 53.332C27.73 53.738 27.605 54.16 27.512 54.551H27.48C27.418 54.145 27.309 53.754 27.215 53.316L26.684 51.348ZM25.965 51.348" fill="#383335"/>
<path d="M32.289 55.223H32.992V52.895C32.992 52.77 33.008 52.66 33.055 52.566 33.18 52.176 33.539 51.848 33.992 51.848 34.648 51.848 34.883 52.363 34.883 52.988V55.223H35.586V52.926C35.586 51.598 34.758 51.27 34.227 51.27 33.586 51.27 33.133 51.629 32.945 51.988H32.93L32.883 51.348H32.258C32.289 51.676 32.289 51.988 32.289 52.395ZM32.289 55.223" fill="#383335"/>
<path d="M67.699 25.746C67.699 26.199 67.332 26.563 66.883 26.563 66.43 26.563 66.066 26.199 66.066 25.746 66.066 25.301 66.43 24.934 66.883 24.934 67.332 24.934 67.699 25.301 67.699 25.746" fill="#383335"/>
<path d="M64.281 23.414C64.281 23.863 63.914 24.23 63.465 24.23 63.016 24.23 62.648 23.863 62.648 23.414 62.648 22.965 63.016 22.598 63.465 22.598 63.914 22.598 64.281 22.965 64.281 23.414" fill="#383335"/>
<path d="M57.449 28.082C57.449 28.531 57.086 28.898 56.633 28.898 56.184 28.898 55.82 28.531 55.82 28.082 55.82 27.633 56.184 27.266 56.633 27.266 57.086 27.266 57.449 27.633 57.449 28.082" fill="#383335"/>
<path d="M54.035 22.246C54.035 22.699 53.668 23.063 53.219 23.063 52.766 23.063 52.402 22.699 52.402 22.246 52.402 21.801 52.766 21.434 53.219 21.434 53.668 21.434 54.035 21.801 54.035 22.246" fill="#383335"/>
<path d="M60.867 24.582C60.867 25.035 60.5 25.395 60.051 25.395 59.598 25.395 59.234 25.035 59.234 24.582 59.234 24.133 59.598 23.766 60.051 23.766 60.5 23.766 60.867 24.133 60.867 24.582" fill="#e8ab0c"/>
<path d="M68.121 47.539C68.121 47.984 67.754 48.352 67.305 48.352 66.852 48.352 66.488 47.984 66.488 47.539 66.488 47.086 66.852 46.723 67.305 46.723 67.754 46.723 68.121 47.086 68.121 47.539" fill="#383335"/>
<path d="M65.27 45.203C65.27 45.652 64.906 46.02 64.453 46.02 64.004 46.02 63.637 45.652 63.637 45.203 63.637 44.754 64.004 44.387 64.453 44.387 64.906 44.387 65.27 44.754 65.27 45.203" fill="#383335"/>
<path d="M57.305 51.039C57.305 51.488 56.938 51.852 56.488 51.852 56.035 51.852 55.672 51.488 55.672 51.039 55.672 50.586 56.035 50.223 56.488 50.223 56.938 50.223 57.305 50.586 57.305 51.039" fill="#383335"/>
<path d="M60.32 43.785C59.602 43.785 58.926 44.066 58.418 44.57 57.367 45.625 57.367 47.336 58.418 48.387 59.434 49.395 61.207 49.402 62.227 48.383 63.277 47.336 63.277 45.625 62.227 44.57 61.719 44.066 61.039 43.785 60.32 43.785M60.32 50.313C59.297 50.313 58.336 49.918 57.609 49.191 56.113 47.695 56.113 45.262 57.609 43.766 59.059 42.313 61.586 42.316 63.035 43.766 64.531 45.262 64.531 47.695 63.035 49.191 62.309 49.918 61.344 50.313 60.32 50.313" fill="#383335"/>
<path d="M64.73 51.691 62.996 49.961 63.805 49.156 65.535 50.887ZM64.73 51.691" fill="#383335"/>
<path d="M70.871 49.242H68.879L71.656 46.371 68.879 43.492H70.871L73.613 46.363V46.387ZM70.871 49.242" fill="#e8ab0c"/>
<path d="M49.227 43.492H51.219L48.441 46.367 51.219 49.242H49.227L46.488 46.379V46.352ZM49.227 43.492" fill="#e8ab0c"/>
<path d="M54.453 42.867C54.453 43.32 54.09 43.684 53.641 43.684 53.188 43.684 52.824 43.32 52.824 42.867 52.824 42.422 53.188 42.055 53.641 42.055 54.09 42.055 54.453 42.422 54.453 42.867" fill="#e8ab0c"/>
<path d="M61.957 46.367C61.957 47.27 61.227 48.004 60.32 48.004 59.418 48.004 58.688 47.27 58.688 46.367 58.688 45.469 59.418 44.734 60.32 44.734 61.227 44.734 61.957 45.469 61.957 46.367" fill="#383335"/>
<path d="M135.992 25.813C135.992 26.266 135.629 26.629 135.176 26.629 134.723 26.629 134.359 26.266 134.359 25.813 134.359 25.367 134.723 25 135.176 25 135.629 25 135.992 25.367 135.992 25.813" fill="#383335"/>
<path d="M132.574 23.48C132.574 23.93 132.211 24.297 131.758 24.297 131.309 24.297 130.941 23.93 130.941 23.48 130.941 23.031 131.309 22.664 131.758 22.664 132.211 22.664 132.574 23.031 132.574 23.48" fill="#383335"/>
<path d="M125.746 28.148C125.746 28.598 125.379 28.965 124.926 28.965 124.477 28.965 124.113 28.598 124.113 28.148 124.113 27.699 124.477 27.332 124.926 27.332 125.379 27.332 125.746 27.699 125.746 28.148" fill="#383335"/>
<path d="M122.328 22.313C122.328 22.766 121.961 23.129 121.512 23.129 121.059 23.129 120.695 22.766 120.695 22.313 120.695 21.867 121.059 21.5 121.512 21.5 121.961 21.5 122.328 21.867 122.328 22.313" fill="#383335"/>
<path d="M129.16 24.648C129.16 25.098 128.793 25.465 128.344 25.465 127.891 25.465 127.527 25.098 127.527 24.648 127.527 24.199 127.891 23.832 128.344 23.832 128.793 23.832 129.16 24.199 129.16 24.648" fill="#383335"/>
<path d="M130.941 19.406C128.246 19.406 126.051 21.598 126.051 24.297 126.051 26.996 128.246 29.188 130.941 29.188 133.641 29.188 135.832 26.996 135.832 24.297 135.832 21.598 133.641 19.406 130.941 19.406M130.941 29.887C127.859 29.887 125.352 27.379 125.352 24.297 125.352 21.215 127.859 18.707 130.941 18.707 134.023 18.707 136.535 21.215 136.535 24.297 136.535 27.379 134.023 29.887 130.941 29.887" fill="#e8ab0c"/>
<path d="M136.684 47.082C136.684 47.531 136.32 47.895 135.867 47.895 135.418 47.895 135.051 47.531 135.051 47.082 135.051 46.629 135.418 46.266 135.867 46.266 136.32 46.266 136.684 46.629 136.684 47.082" fill="#383335"/>
<path d="M133.836 44.746C133.836 45.195 133.469 45.563 133.02 45.563 132.566 45.563 132.203 45.195 132.203 44.746 132.203 44.297 132.566 43.93 133.02 43.93 133.469 43.93 133.836 44.297 133.836 44.746" fill="#383335"/>
<path d="M125.867 50.582C125.867 51.031 125.504 51.395 125.051 51.395 124.602 51.395 124.234 51.031 124.234 50.582 124.234 50.133 124.602 49.766 125.051 49.766 125.504 49.766 125.867 50.133 125.867 50.582" fill="#383335"/>
<path d="M128.887 43.328C128.168 43.328 127.492 43.609 126.98 44.117 125.93 45.168 125.93 46.879 126.98 47.93 127.996 48.938 129.77 48.945 130.793 47.93 131.844 46.879 131.844 45.168 130.793 44.113 130.281 43.609 129.605 43.328 128.887 43.328M128.887 49.855C127.863 49.855 126.898 49.461 126.176 48.734 124.676 47.238 124.676 44.805 126.176 43.309 127.621 41.859 130.152 41.859 131.598 43.305 133.094 44.805 133.094 47.238 131.598 48.734 130.875 49.461 129.91 49.855 128.887 49.855" fill="#383335"/>
<path d="M133.293 51.234 131.563 49.504 132.367 48.699 134.098 50.43ZM133.293 51.234" fill="#383335"/>
<path d="M139.438 48.789H137.445L140.223 45.914 137.445 43.035H139.438L142.176 45.906V45.93ZM139.438 48.789" fill="#e8ab0c"/>
<path d="M117.793 43.039H119.785L117.008 45.914 119.785 48.789H117.793L115.055 45.922V45.895ZM117.793 43.039" fill="#e8ab0c"/>
<path d="M123.02 42.414C123.02 42.863 122.652 43.227 122.203 43.227 121.75 43.227 121.387 42.863 121.387 42.414 121.387 41.965 121.75 41.598 122.203 41.598 122.652 41.598 123.02 41.965 123.02 42.414" fill="#383335"/>
<path d="M130.52 45.914C130.52 46.816 129.789 47.547 128.887 47.547 127.98 47.547 127.25 46.816 127.25 45.914 127.25 45.016 127.98 44.277 128.887 44.277 129.789 44.277 130.52 45.016 130.52 45.914" fill="#383335"/>
<path d="M77.168 27.711H79.996L80.105 27.133H77.934L78.855 22.32H78.184ZM77.168 27.711" fill="#383335"/>
<path d="M82.676 23.758C81.426 23.758 80.535 24.93 80.535 26.211 80.535 27.086 81.082 27.805 82.051 27.805 83.348 27.805 84.191 26.555 84.191 25.352 84.191 24.539 83.723 23.758 82.676 23.758ZM82.613 24.273C83.301 24.273 83.504 24.914 83.504 25.352 83.504 26.258 82.91 27.273 82.129 27.273 81.566 27.273 81.223 26.82 81.223 26.18 81.223 25.289 81.77 24.273 82.613 24.273ZM82.613 24.273" fill="#383335"/>
<path d="M86.875 23.758C85.625 23.758 84.734 24.93 84.734 26.211 84.734 27.086 85.281 27.805 86.25 27.805 87.547 27.805 88.391 26.555 88.391 25.352 88.391 24.539 87.922 23.758 86.875 23.758ZM86.813 24.273C87.5 24.273 87.703 24.914 87.703 25.352 87.703 26.258 87.109 27.273 86.328 27.273 85.766 27.273 85.422 26.82 85.422 26.18 85.422 25.289 85.969 24.273 86.813 24.273ZM86.813 24.273" fill="#383335"/>
<path d="M89.508 27.711 89.789 26.242 90.273 25.805 91.211 27.711H91.945L90.789 25.43 92.477 23.836H91.664L90.289 25.195C90.195 25.305 90.055 25.461 89.93 25.586H89.914L90.602 22.023H89.93L88.852 27.711ZM89.508 27.711" fill="#383335"/>
<path d="M95.621 23.836 95.23 25.82C95.074 26.664 94.465 27.242 93.98 27.242 93.527 27.242 93.371 26.961 93.371 26.57 93.371 26.398 93.387 26.211 93.434 25.992L93.84 23.836H93.184L92.762 26.023C92.715 26.273 92.684 26.492 92.684 26.68 92.684 27.555 93.215 27.805 93.715 27.805 94.215 27.805 94.73 27.492 95.074 26.977H95.09L94.996 27.711H95.574C95.621 27.398 95.668 27.008 95.762 26.586L96.277 23.836ZM95.621 23.836" fill="#383335"/>
<path d="M97.035 29.289 97.348 27.617H97.363C97.52 27.711 97.785 27.805 98.191 27.805 99.473 27.805 100.457 26.523 100.457 25.148 100.457 24.445 100.098 23.758 99.27 23.758 98.738 23.758 98.223 24.055 97.879 24.57H97.863L97.973 23.836H97.363C97.316 24.227 97.238 24.742 97.145 25.211L96.363 29.289ZM97.66 25.977C97.863 24.898 98.504 24.305 99.02 24.305 99.598 24.305 99.77 24.789 99.77 25.195 99.77 26.211 99.051 27.273 98.207 27.273 97.879 27.273 97.629 27.195 97.457 27.07ZM97.66 25.977" fill="#383335"/>
<path d="M77.168 48.801H79.996L80.105 48.223H77.934L78.855 43.41H78.184ZM77.168 48.801" fill="#383335"/>
<path d="M82.676 44.848C81.426 44.848 80.535 46.02 80.535 47.301 80.535 48.176 81.082 48.895 82.051 48.895 83.348 48.895 84.191 47.645 84.191 46.441 84.191 45.629 83.723 44.848 82.676 44.848ZM82.613 45.363C83.301 45.363 83.504 46.004 83.504 46.441 83.504 47.348 82.91 48.363 82.129 48.363 81.566 48.363 81.223 47.91 81.223 47.27 81.223 46.379 81.77 45.363 82.613 45.363ZM82.613 45.363" fill="#383335"/>
<path d="M87.281 48.113C87.078 48.223 86.781 48.332 86.375 48.332 85.75 48.332 85.422 47.926 85.422 47.301 85.422 46.395 86.047 45.395 87.063 45.395 87.344 45.395 87.563 45.473 87.719 45.551L87.906 45.02C87.797 44.957 87.469 44.848 87.094 44.848 85.703 44.848 84.734 46.066 84.734 47.379 84.734 48.207 85.219 48.879 86.219 48.879 86.734 48.879 87.141 48.738 87.344 48.645ZM87.281 48.113" fill="#383335"/>
<path d="M91.148 48.801C91.133 48.363 91.18 47.676 91.305 47.004L91.695 44.988C91.43 44.91 91.023 44.848 90.648 44.848 88.961 44.848 87.977 46.254 87.977 47.613 87.977 48.348 88.398 48.895 89.086 48.895 89.633 48.895 90.18 48.613 90.586 47.801H90.602C90.555 48.207 90.523 48.566 90.523 48.801ZM90.727 46.598C90.539 47.629 89.883 48.348 89.32 48.348 88.82 48.348 88.664 47.926 88.664 47.488 88.664 46.41 89.492 45.363 90.492 45.363 90.711 45.363 90.867 45.395 90.945 45.426ZM90.727 46.598" fill="#383335"/>
<path d="M93.137 44.207 93.012 44.926H92.449L92.355 45.441H92.918L92.527 47.41C92.48 47.691 92.449 47.91 92.449 48.129 92.449 48.535 92.684 48.879 93.262 48.879 93.449 48.879 93.652 48.863 93.777 48.816L93.809 48.285C93.715 48.316 93.621 48.316 93.496 48.316 93.246 48.316 93.121 48.176 93.121 47.941 93.121 47.738 93.152 47.551 93.199 47.332L93.559 45.441H94.48L94.59 44.926H93.668L93.84 44.004ZM93.137 44.207" fill="#383335"/>
<path d="M97.305 48.082C97.07 48.223 96.727 48.348 96.258 48.348 95.867 48.348 95.555 48.191 95.398 47.832 95.305 47.629 95.289 47.27 95.32 47.098 96.758 47.113 97.898 46.863 97.898 45.848 97.898 45.285 97.492 44.848 96.758 44.848 95.508 44.848 94.648 46.16 94.648 47.332 94.648 48.191 95.102 48.895 96.117 48.895 96.633 48.895 97.117 48.738 97.398 48.582ZM97.258 45.848C97.258 46.457 96.445 46.598 95.398 46.582 95.555 45.973 96.023 45.363 96.664 45.363 97.008 45.363 97.258 45.535 97.258 45.848ZM97.258 45.848" fill="#383335"/>
<path d="M146.375 27.664C146.625 27.727 147.016 27.758 147.484 27.758 148.219 27.758 148.813 27.633 149.234 27.305 149.594 27.055 149.875 26.602 149.875 26.055 149.875 25.414 149.484 24.992 149 24.852V24.836C149.609 24.68 150.156 24.18 150.156 23.492 150.156 23.133 150.016 22.852 149.766 22.648 149.484 22.398 149.078 22.273 148.531 22.273 148.078 22.273 147.703 22.32 147.359 22.398ZM147.938 22.852C148.047 22.82 148.25 22.805 148.5 22.805 149.078 22.805 149.469 23.023 149.469 23.555 149.469 24.211 148.875 24.602 148.094 24.602H147.609ZM147.5 25.117H148.047C148.641 25.117 149.188 25.398 149.188 26.023 149.188 26.883 148.453 27.211 147.656 27.211 147.484 27.211 147.281 27.211 147.125 27.18ZM147.5 25.117" fill="#383335"/>
<path d="M151.152 27.711 151.465 26.008C151.637 25.102 152.152 24.414 152.73 24.414 152.793 24.414 152.855 24.414 152.902 24.43L153.043 23.773C152.98 23.758 152.902 23.758 152.84 23.758 152.324 23.758 151.902 24.148 151.668 24.68H151.637C151.684 24.383 151.715 24.117 151.746 23.836H151.152C151.121 24.195 151.059 24.711 150.965 25.211L150.496 27.711ZM151.152 27.711" fill="#383335"/>
<path d="M155.18 23.758C153.93 23.758 153.039 24.93 153.039 26.211 153.039 27.086 153.586 27.805 154.555 27.805 155.852 27.805 156.695 26.555 156.695 25.352 156.695 24.539 156.227 23.758 155.18 23.758ZM155.117 24.273C155.805 24.273 156.008 24.914 156.008 25.352 156.008 26.258 155.414 27.273 154.633 27.273 154.07 27.273 153.727 26.82 153.727 26.18 153.727 25.289 154.273 24.273 155.117 24.273ZM155.117 24.273" fill="#383335"/>
<path d="M157.371 23.836 157.73 27.711H158.355L159.465 25.586C159.637 25.242 159.746 24.945 159.918 24.57H159.934C159.934 24.914 159.949 25.242 159.98 25.602L160.246 27.711H160.855L162.762 23.836H162.09L161.043 26.07C160.887 26.445 160.777 26.742 160.684 27.055H160.668C160.668 26.805 160.637 26.477 160.605 26.055L160.355 23.836H159.777L158.637 26.086C158.434 26.477 158.293 26.805 158.199 27.055H158.184C158.184 26.742 158.199 26.492 158.168 26.008L158.027 23.836ZM157.371 23.836" fill="#383335"/>
<path d="M162.621 27.523C162.793 27.664 163.168 27.789 163.59 27.789 164.402 27.789 165.059 27.336 165.059 26.523 165.059 26.086 164.762 25.742 164.34 25.508 163.98 25.305 163.793 25.133 163.793 24.852 163.793 24.523 164.09 24.273 164.48 24.273 164.777 24.273 165.027 24.367 165.152 24.445L165.34 23.945C165.199 23.852 164.887 23.758 164.527 23.758 163.715 23.758 163.137 24.273 163.137 24.945 163.137 25.336 163.387 25.68 163.824 25.93 164.246 26.164 164.371 26.336 164.371 26.648 164.371 26.992 164.09 27.273 163.637 27.273 163.324 27.273 162.996 27.148 162.809 27.039ZM162.621 27.523" fill="#383335"/>
<path d="M168.449 26.992C168.215 27.133 167.871 27.258 167.402 27.258 167.012 27.258 166.699 27.102 166.543 26.742 166.449 26.539 166.434 26.18 166.465 26.008 167.902 26.023 169.043 25.773 169.043 24.758 169.043 24.195 168.637 23.758 167.902 23.758 166.652 23.758 165.793 25.07 165.793 26.242 165.793 27.102 166.246 27.805 167.262 27.805 167.777 27.805 168.262 27.648 168.543 27.492ZM168.402 24.758C168.402 25.367 167.59 25.508 166.543 25.492 166.699 24.883 167.168 24.273 167.809 24.273 168.152 24.273 168.402 24.445 168.402 24.758ZM168.402 24.758" fill="#383335"/>
<path d="M149.578 45.707H147.609L147.938 43.973H150.016L150.141 43.41H147.375L146.359 48.801H149.234L149.344 48.238H147.141L147.5 46.27H149.469ZM149.578 45.707" fill="#383335"/>
<path d="M150.371 44.926 151.277 46.816 149.574 48.801H150.34L151.121 47.832C151.293 47.598 151.418 47.426 151.527 47.238H151.559C151.637 47.488 151.699 47.645 151.824 47.926L152.215 48.801H152.949L152.027 46.816 153.652 44.926H152.902L152.168 45.816C151.996 46.035 151.902 46.176 151.746 46.395H151.73C151.652 46.223 151.59 46.02 151.465 45.77L151.09 44.926ZM150.371 44.926" fill="#383335"/>
<path d="M153.945 50.379 154.258 48.707H154.273C154.43 48.801 154.695 48.895 155.102 48.895 156.383 48.895 157.367 47.613 157.367 46.238 157.367 45.535 157.008 44.848 156.18 44.848 155.648 44.848 155.133 45.145 154.789 45.66H154.773L154.883 44.926H154.273C154.227 45.316 154.148 45.832 154.055 46.301L153.273 50.379ZM154.57 47.066C154.773 45.988 155.414 45.395 155.93 45.395 156.508 45.395 156.68 45.879 156.68 46.285 156.68 47.301 155.961 48.363 155.117 48.363 154.789 48.363 154.539 48.285 154.367 48.16ZM154.57 47.066" fill="#383335"/>
<path d="M158.488 48.801 159.566 43.113H158.91L157.832 48.801ZM158.488 48.801" fill="#383335"/>
<path d="M161.852 44.848C160.602 44.848 159.711 46.02 159.711 47.301 159.711 48.176 160.258 48.895 161.227 48.895 162.523 48.895 163.367 47.645 163.367 46.441 163.367 45.629 162.898 44.848 161.852 44.848ZM161.789 45.363C162.477 45.363 162.68 46.004 162.68 46.441 162.68 47.348 162.086 48.363 161.305 48.363 160.742 48.363 160.398 47.91 160.398 47.27 160.398 46.379 160.945 45.363 161.789 45.363ZM161.789 45.363" fill="#383335"/>
<path d="M164.496 48.801 164.809 47.098C164.98 46.191 165.496 45.504 166.074 45.504 166.137 45.504 166.199 45.504 166.246 45.52L166.387 44.863C166.324 44.848 166.246 44.848 166.184 44.848 165.668 44.848 165.246 45.238 165.012 45.77H164.98C165.027 45.473 165.059 45.207 165.09 44.926H164.496C164.465 45.285 164.402 45.801 164.309 46.301L163.84 48.801ZM164.496 48.801" fill="#383335"/>
<path d="M169.023 48.082C168.789 48.223 168.445 48.348 167.977 48.348 167.586 48.348 167.273 48.191 167.117 47.832 167.023 47.629 167.008 47.27 167.039 47.098 168.477 47.113 169.617 46.863 169.617 45.848 169.617 45.285 169.211 44.848 168.477 44.848 167.227 44.848 166.367 46.16 166.367 47.332 166.367 48.191 166.82 48.895 167.836 48.895 168.352 48.895 168.836 48.738 169.117 48.582ZM168.977 45.848C168.977 46.457 168.164 46.598 167.117 46.582 167.273 45.973 167.742 45.363 168.383 45.363 168.727 45.363 168.977 45.535 168.977 45.848ZM168.977 45.848" fill="#383335"/>
<path stroke-width=".5" stroke-linecap="butt" stroke-miterlimit="10" stroke-linejoin="miter" fill="none" stroke="#d1d1d1" d="M.254 13.738H173.75"/>
<path stroke-width=".5" stroke-linecap="butt" stroke-miterlimit="10" stroke-linejoin="miter" fill="none" stroke="#d1d1d1" d="M40.285 0V57.316"/>
<path stroke-width=".5" stroke-linecap="butt" stroke-miterlimit="10" stroke-linejoin="miter" fill="none" stroke="#d1d1d1" d="M.254 35.215H173.75"/>
<path stroke-width=".5" stroke-linecap="butt" stroke-miterlimit="10" stroke-linejoin="miter" fill="none" stroke="#d1d1d1" d="M110.148 0V57.316"/>
<path stroke-width=".5" stroke-linecap="butt" stroke-miterlimit="10" stroke-linejoin="miter" fill="none" stroke="#d1d1d1" d="M.25 .367H174.023V57.527H.25Z"/>
</g>
</svg>
