<svg xmlns="http://www.w3.org/2000/svg" xmlns:xlink="http://www.w3.org/1999/xlink" xmlns:inkscape="http://www.inkscape.org/namespaces/inkscape" version="1.1" width="279.9056" height="418.95603" viewBox="0 0 279.9056 418.95603">
<g>
<path d="M179.445 8.512C178.48 8.512 94.676 11.918 88.871 20.09 83.063 28.266 82.75 45.293 88.871 46.316 94.988 47.336 180.738 45.973 180.738 45.973L248.43 45.633C248.43 45.633 239.086 24.176 249.727 17.027 249.727 17.027 186.227 8.512 179.453 8.512ZM179.445 8.512" fill="#26231f"/>
<path d="M179.125 59.941C179.125 59.941 87.254 58.918 81.449 64.027 75.641 69.137 64.047 108.301 84.031 111.363 104.016 114.43 185.891 107.621 185.891 107.621L259.059 104.211C259.059 104.211 249.711 69.816 259.699 61.301L179.113 59.941ZM179.125 59.941" fill="#26231f"/>
<path d="M58.895 129.41C58.895 129.41 69.203 153.59 56.953 163.809 56.953 163.809 156.879 168.918 162.363 161.082 167.852 153.25 166.234 125.664 161.723 123.965 157.211 122.262 63.727 129.754 58.898 129.41ZM58.895 129.41" fill="#26231f"/>
<path d="M88.789 178.371C84.328 185.777 80.496 218.77 88.789 220.789 97.078 222.809 175.457 219.441 175.457 219.441L247.469 198.57C247.469 198.57 235.992 176.352 243.641 167.598 243.641 167.598 93.25 170.961 88.781 178.371ZM88.789 178.371" fill="#26231f"/>
<path d="M176.621 229.262C176.621 229.262 48.203 234.438 43.309 240.762 38.414 247.082 35.148 262.613 45.488 264.906 55.828 267.199 173.898 264.336 179.344 261.457 184.789 258.582 269.672 235.59 269.672 235.59 269.672 235.59 257.152 220.641 263.141 210.871 269.129 201.098 176.621 229.266 176.621 229.266ZM176.621 229.262" fill="#26231f"/>
<path d="M34.602 280.434C34.602 280.434 49.844 306.305 29.168 317.801 29.168 317.801 168.465 330.453 175.543 323.555 182.617 316.652 207.102 281.59 173.906 276.984 140.715 272.387 41.68 274.691 34.605 280.434ZM34.602 280.434" fill="#26231f"/>
<path d="M186.414 343.094C186.414 343.094 37.863 332.172 26.977 341.375 16.094 350.566 15.008 377.02 27.52 381.043 40.039 385.066 186.957 402.305 186.957 402.305L254.438 371.84C254.438 371.84 233.207 339.641 256.066 312.625ZM186.414 343.094" fill="#26231f"/>
<path d="M190.219 332.16C190.219 332.16 36.77 323.539 24.801 325.262 12.824 326.992-19.348 359.324 19.527 392.613 20.641 393.57 185.813 425.906 188.949 415.98 191.129 409.078 193.48 399.43 188.59 397.699 183.684 395.98 28.609 377.586 28.609 377.586 28.609 377.586 10.656 346.535 32.961 341.938 52.262 337.957 182.598 351.715 186.949 347.691 191.297 343.66 193.48 331.016 190.215 332.16ZM190.219 332.16" fill="#26231f"/>
<path d="M190.219 332.16C190.219 332.16 190.367 332.023 190.738 332.043 191.141 332.043 191.605 332.551 191.754 333.285 192.098 334.75 191.938 336.988 191.242 339.77 190.891 341.152 190.398 342.691 189.637 344.281 189.254 345.078 188.801 345.887 188.238 346.672 187.945 347.063 187.637 347.445 187.273 347.797 187.102 348.008 186.77 348.18 186.539 348.242L185.785 348.422C183.789 348.75 181.668 348.773 179.387 348.805 177.105 348.836 174.684 348.781 172.121 348.711 151.605 348.105 122.016 345.789 85.43 343.613 76.285 343.094 66.699 342.574 56.715 342.254 51.719 342.105 46.625 342 41.453 342.117 38.879 342.191 36.258 342.285 33.727 342.699 31.223 343.137 28.723 344.016 26.742 345.629 24.734 347.211 23.426 349.621 22.945 352.285 22.441 354.973 22.633 357.828 23.156 360.629 23.676 363.434 24.531 366.215 25.586 368.941 26.109 370.301 26.684 371.648 27.293 372.984 27.605 373.656 27.926 374.313 28.258 374.973L28.762 375.949 29.145 376.66 63.707 380.766 139.258 389.93C152.352 391.574 165.672 393.23 179.199 395.086L184.273 395.82 186.824 396.234 188.129 396.469C188.531 396.531 189.164 396.723 189.617 396.988 190.602 397.508 191.375 398.461 191.797 399.461 192.211 400.457 192.398 401.477 192.461 402.465 192.59 404.449 192.359 406.34 192.039 408.176 191.707 410.023 191.254 411.828 190.754 413.602 190.5 414.492 190.23 415.375 189.957 416.254 189.867 416.594 189.566 417.07 189.316 417.285 189.043 417.539 188.785 417.699 188.531 417.824 188.031 418.082 187.559 418.23 187.094 418.344 185.234 418.793 183.469 418.867 181.691 418.93 179.922 418.98 178.152 418.949 176.395 418.887 169.352 418.609 162.418 417.891 155.547 417.102 148.672 416.316 141.859 415.383 135.109 414.418 121.605 412.465 108.332 410.301 95.309 408.082 82.289 405.852 69.52 403.547 57.027 401.203 44.527 398.824 32.32 396.531 20.406 393.898L19.84 393.75 19.539 393.676C19.398 393.633 19.199 393.57 19.047 393.473 18.707 393.207 18.656 393.145 18.484 392.996L18.043 392.613C17.461 392.094 16.879 391.574 16.305 391.043 15.168 389.973 14.055 388.879 12.988 387.742 10.848 385.461 8.859 383.051 7.113 380.461 3.605 375.313 1.043 369.398 .27 363.176-.547 356.969 .531 350.652 2.91 345.184 5.281 339.684 8.82 334.93 12.949 331.109 15.027 329.195 17.27 327.508 19.711 326.191 20.926 325.535 22.203 324.984 23.57 324.621 24.977 324.25 26.332 324.262 27.641 324.207 32.875 324.102 37.969 324.25 42.98 324.379 52.98 324.664 62.574 325.059 71.738 325.461 108.359 327.105 137.98 328.816 158.449 330.016 178.918 331.215 190.23 332.012 190.223 332.16 190.211 332.309 178.887 331.82 158.41 330.852 137.934 329.918 108.301 328.453 71.676 327 62.523 326.648 52.93 326.301 42.941 326.055 37.949 325.949 32.832 325.832 27.68 325.949 26.383 326.004 25.105 326.012 23.961 326.332 22.785 326.648 21.609 327.16 20.473 327.773 18.195 329.016 16.055 330.629 14.074 332.469 10.125 336.141 6.758 340.727 4.52 345.949 2.277 351.172 1.293 357.082 2.066 362.91 2.801 368.762 5.242 374.367 8.617 379.313 10.305 381.797 12.234 384.133 14.316 386.34 15.359 387.434 16.445 388.504 17.559 389.547 18.113 390.066 18.688 390.574 19.258 391.074L20 391.723C20.012 391.73 20 391.73 20.043 391.742L20.293 391.809 20.824 391.934C32.633 394.523 44.891 396.809 57.367 399.152 69.848 401.477 82.617 403.762 95.629 405.969 108.641 408.176 121.895 410.332 135.379 412.262 142.121 413.23 148.914 414.152 155.766 414.949 162.617 415.723 169.531 416.445 176.465 416.711 178.191 416.773 179.93 416.805 181.637 416.754 183.344 416.699 185.063 416.605 186.609 416.234 186.984 416.137 187.344 416.008 187.625 415.871 187.766 415.797 187.879 415.723 187.938 415.672 188.008 415.574 187.957 415.672 187.996 415.563 188.27 414.703 188.531 413.844 188.781 412.973 189.262 411.254 189.695 409.512 190.008 407.773 190.316 406.031 190.52 404.289 190.41 402.633 190.309 400.977 189.785 399.473 188.672 398.918 188.371 398.758 188.168 398.684 187.727 398.602L186.5 398.379 183.977 397.973 178.926 397.23C165.43 395.375 152.105 393.695 139.016 392.051L63.484 382.762 45.66 380.598 36.93 379.547 32.598 379.027 30.449 378.762 29.383 378.633 28.691 378.547 28.188 378.484C28.098 378.496 28.027 378.461 27.996 378.367L27.867 378.133 27.445 377.379 27.184 376.871 26.66 375.863C26.32 375.184 25.996 374.504 25.676 373.813 25.051 372.445 24.461 371.055 23.926 369.652 22.852 366.84 21.969 363.953 21.426 360.98 20.883 358.027 20.66 354.949 21.234 351.926 21.777 348.922 23.355 346.023 25.695 344.195 28.016 342.328 30.758 341.414 33.461 340.938 36.164 340.523 38.797 340.438 41.422 340.375 46.645 340.277 51.758 340.406 56.762 340.578 66.77 340.938 76.367 341.5 85.508 342.082 122.102 344.449 151.672 347 172.141 347.859 174.703 347.965 177.113 348.039 179.383 348.059 181.633 348.059 183.773 348.059 185.684 347.785 186.156 347.688 186.629 347.625 186.871 347.34 187.211 347.02 187.512 346.668 187.785 346.297 188.348 345.566 188.789 344.789 189.18 344.027 189.945 342.496 190.465 341 190.84 339.652 191.582 336.945 191.805 334.738 191.551 333.336 191.43 332.637 191.07 332.191 190.727 332.16 190.395 332.094 190.215 332.191 190.215 332.16ZM190.219 332.16" fill="#26231f"/>
<path d="M183.133 333.902C183.133 333.902 258.773 289.633 263.664 294.23 268.555 298.828 266.254 308.02 262.988 310.898 259.723 313.773 189.211 351.227 186.254 349.273 181.293 345.992 183.129 333.902 183.129 333.902ZM183.133 333.902" fill="#26231f"/>
<path d="M184.773 397.707C184.773 397.707 256.605 362.645 259.867 367.242 263.133 371.84 259.688 381.34 259.688 381.34 259.688 381.34 192.398 417.156 188.586 417.156 184.777 417.156 181.512 397.711 184.77 397.711ZM184.773 397.707" fill="#26231f"/>
<path d="M263.137 243.629C263.137 243.629 291.973 260.301 274.016 289.039 274.016 289.039 193.469 333.07 187.488 333.07 181.512 333.07 23.715 330.438 18.816 324.684 13.914 318.941 21.539 313.762 21.539 313.762 21.539 313.762 170.086 321.234 173.895 318.941 173.895 318.941 183.691 289.039 167.363 282.148 151.039 275.262 30.246 283.293 30.246 283.293 30.246 283.293 23.172 273.516 32.969 272.941 35.141 272.813 176.078 265.469 182.07 265.469 188.055 265.469 262.059 238.453 263.145 243.625ZM263.137 243.629" fill="#26231f"/>
<path d="M178.262 220.07C178.262 220.07 184.242 233.293 177.168 233.867 170.094 234.441 50.387 237.895 47.125 243.641 43.859 249.391 42.773 260.316 49.305 260.316 55.824 260.316 177.168 251.684 178.262 255.137 179.355 258.586 177.707 266.633 177.707 266.633 177.707 266.633 43.082 276.938 37.637 273.488 32.191 270.039 27.59 246.195 30.855 241.023 34.121 235.852 72.148 221.793 82.488 223.52 92.828 225.246 178.262 220.07 178.262 220.07ZM178.262 220.07" fill="#26231f"/>
<path d="M178.242 220.07C178.242 220.07 264.758 197.074 268.02 201.676 271.285 206.273 271.836 208.574 267.477 210.875 263.125 213.172 178.234 236.168 177.145 233.867 176.059 231.566 174.422 223.52 177.688 222.371ZM178.242 220.07" fill="#26231f"/>
<path d="M175.527 255.117C175.527 255.117 271.84 226.375 274.016 231.551 276.195 236.723 276.195 241.324 270.75 243.047 265.305 244.773 177.16 270.063 174.438 268.918 171.723 267.77 175.531 255.117 175.531 255.117ZM175.527 255.117" fill="#26231f"/>
<path d="M174.801 165.594C174.801 165.594 87.5 164.918 81.129 172.324 74.758 179.73 56.43 218.512 73 225.918 89.566 233.324 172.262 226.191 174.168 223.496 176.078 220.805 174.168 212.723 174.168 212.723 174.168 212.723 93.234 220.129 89.406 215.418 85.578 210.703 83.668 185.117 91.324 181.078 98.98 177.039 172.258 179.734 174.168 177.715 174.168 177.715 180.535 162.227 174.801 165.594ZM174.801 165.594" fill="#26231f"/>
<path d="M174.801 165.594C174.801 165.594 251.285 152.125 253.191 157.512 255.102 162.898 249.363 167.609 249.363 167.609 249.363 167.609 177.996 178.387 174.168 177.711 170.34 177.039 169.063 164.918 174.801 165.594ZM174.801 165.594" fill="#26231f"/>
<path d="M174.168 212.727C174.168 212.727 250.004 187.813 252.547 193.871 255.09 199.934 253.191 202.625 253.191 202.625 253.191 202.625 178.633 223.496 174.168 223.496 169.703 223.496 174.168 212.727 174.168 212.727ZM174.168 212.727" fill="#26231f"/>
<path d="M58.895 117.148C58.895 117.148 165.59 110.336 171.066 118.852 176.543 127.367 179.125 163.125 173.652 166.871 168.176 170.613 56.633 179.129 54.379 175.043 52.117 170.957 53.734 160.398 53.734 160.398 53.734 160.398 154.309 164.145 158.18 160.742 162.047 157.336 162.371 129.066 158.824 126.344 155.277 123.621 57.605 133.836 55.676 130.434 53.75 127.027 55.355 117.492 58.902 117.148ZM58.895 117.148" fill="#26231f"/>
<path d="M159.477 115.453C159.477 115.453 262.301 111.023 264.242 114.43 266.184 117.836 269.078 151.551 260.695 156.32L252.309 159.043C252.309 159.043 175.914 169.598 170.758 167.215 165.605 164.832 157.547 115.113 159.473 115.453ZM159.477 115.453" fill="#26231f"/>
<path d="M180.109 61.637C179.145 64.023 90.824 63.34 83.41 65.727 75.996 68.109 79.863 102.504 82.77 107.273 85.664 112.043 185.273 103.523 185.273 103.523 185.273 103.523 185.914 111.699 184.621 114.762 183.332 117.828 91.145 122.938 77.281 116.125 63.414 109.313 69.223 61.637 76.637 57.891 83.539 54.406 166.949 51.805 178.473 51.461L179.789 51.418ZM180.109 61.637" fill="#26231f"/>
<path d="M178.469 51.457C178.469 51.457 263.914 50.738 266.172 54.145 268.434 57.551 264.566 62.32 264.566 62.32 264.566 62.32 178.172 66.406 176.238 63.34 174.301 60.273 173.988 53.121 177.855 52.781ZM178.469 51.457" fill="#26231f"/>
<path d="M183.316 103.883C184.281 103.883 258.422 96.73 260.359 102.18 262.297 107.629 260.027 113.418 260.027 113.418 260.027 113.418 185.258 118.867 183.313 116.484 181.375 114.102 179.125 106.945 182.672 105.246L183.313 103.883ZM183.316 103.883" fill="#26231f"/>
<path d="M181.402 .012C181.402 .012 83.727 7.16 80.184 12.27 76.637 17.379 68.898 50.07 83.086 53.477 97.273 56.883 183.336 51.773 183.336 51.773L182.691 41.219C182.691 41.219 90.508 46.668 88.566 41.898 86.625 37.133 86.316 23.168 91.148 20.785 95.98 18.402 179.469 14.652 179.789 11.246 180.109 7.844 186.238-.332 181.406 .012ZM181.402 .012" fill="#26231f"/>
<path d="M181.402 .012C181.402 .012 255.211 7.164 255.539 12.613 255.859 18.063 253.609 19.082 253.609 19.082 253.609 19.082 178.5 13.973 177.539 11.246 176.563 8.523 178.504 .348 181.406 .012ZM181.402 .012" fill="#26231f"/>
<path d="M179.789 42.227C183.363 40.969 247.801 39.844 251.023 43.25 254.25 46.652 256.18 51.422 250.379 52.445 244.582 53.469 178.824 53.805 177.859 52.785 176.883 51.762 176.883 43.25 179.789 42.227ZM179.789 42.227" fill="#26231f"/>
<path d="M28.68 342.422C28.68 342.422 14.313 355.648 29.051 376.285 58.723 381.73 181.18 397.75 181.18 397.75 181.18 397.75 169.645 359.121 179.965 350.566 179.965 350.566 41.574 334.25 29.422 340.863 17.266 347.477 28.68 342.422 28.68 342.422ZM28.68 342.422" fill="#fefbde"/>
<path d="M190.441 350.109C190.441 350.109 186.254 352.617 185.277 358.359 182.695 373.539 188.594 393.785 188.594 393.785L248.641 368.094C248.641 368.094 234.27 347.078 244.961 321.387L190.441 350.113ZM190.441 350.109" fill="#d9b68b"/>
<path d="M185.637 276.242C185.637 276.242 189.695 315.168 179.375 330.348 179.375 330.348 270.008 288.703 272.215 285.582 274.426 282.461 282.285 269.563 268.527 257.559 260.059 250.168 185.633 276.242 185.633 276.242ZM185.637 276.242" fill="#2c559e"/>
<path d="M30.887 275.473C30.887 275.473 29.051 280.918 31.262 280.918 33.469 280.918 121.16 271.973 173.832 281.313 177.742 282.004 180.094 273.137 177.883 273.137 175.672 273.137 58.516 269.242 30.883 275.473ZM30.887 275.473" fill="#078cc9"/>
<path d="M22.805 316.336C22.805 316.336 18.746 320.613 22.063 323.344 25.375 326.07 166.152 331.699 172.746 329.969 175.691 329.184 173.117 323.734 173.117 323.734 173.117 323.734 34.961 321.781 22.801 316.336ZM22.805 316.336" fill="#078cc9"/>
<path d="M40.84 284.813C40.84 284.813 51.891 304.273 38.629 314.398L175.313 318.68C175.313 318.68 183.414 306.227 176.781 289.102 171.254 274.816 57.41 283.266 40.836 284.816ZM40.84 284.813" fill="#fefbde"/>
<path d="M176.984 223.656C176.984 223.656 180.563 230.832 176.621 230.832 172.684 230.832 48.699 235.363 43.691 242.535 38.688 249.707 42.977 259.902 47.621 264.055 52.262 268.207 177.699 259.152 177.699 259.152L176.984 268.207C176.984 268.207 44.766 271.602 41.906 270.848 39.055 270.098 34.402 248.578 34.762 244.422 35.125 240.27 56.559 232.719 56.559 232.719L176.984 223.652ZM176.984 223.656" fill="#009935"/>
<path d="M181.293 223.27C181.293 223.27 181.363 224.785 183.863 224.785 186.367 224.785 264.668 209.434 264.668 207.168 264.668 204.902 265.27 204.395 265.27 204.395 265.27 204.395 181.293 222.516 181.293 223.27ZM181.293 223.27" fill="#007429"/>
<path d="M183.863 258.656C183.863 258.656 181.504 262.5 185.785 261.363 190.063 260.23 269.91 242.895 271.703 240.254 273.488 237.613 267.242 237.652 267.242 237.652 267.242 237.652 184.23 256.016 183.867 258.656ZM183.863 258.656" fill="#007429"/>
<path d="M49.375 248.203C49.375 248.203 48.391 257.457 54.828 259.719 61.262 261.98 176.977 255.75 176.977 255.75 176.977 255.75 170.898 240.266 176.613 235.734 182.332 231.203 177.137 233.867 177.137 233.867 177.137 233.867 52.945 242.535 49.371 248.203ZM49.375 248.203" fill="#fefbde"/>
<path d="M184.137 233.836C184.137 233.836 172.703 240.254 180.57 254.223L264.191 232.328C264.191 232.328 254.184 223.266 258.828 214.961L184.145 233.84ZM184.137 233.836" fill="#d9b68b"/>
<path d="M174.852 216.098C174.852 216.098 176.629 221.387 174.125 221.387 171.625 221.387 88.371 227.426 81.941 224.781 75.504 222.141 72.648 214.211 73 208.926 73.363 203.641 78.367 177.59 83.723 174.945 89.086 172.305 173.066 167.773 173.066 171.172 173.066 174.57 170.566 175.324 170.566 175.324 170.566 175.324 91.227 174.191 87.301 178.723 83.371 183.254 80.508 208.547 85.512 213.836 90.516 219.121 96.23 219.875 96.23 219.875L174.855 216.098ZM174.852 216.098" fill="#302980"/>
<path d="M180.563 214.574C180.563 214.574 180.492 217.02 181.926 216.645 183.363 216.266 249.898 199.703 251.664 202.117 252.57 203.348 249.164 196.832 249.164 196.832 249.164 196.832 183.773 210.801 180.563 214.574ZM180.563 214.574" fill="#21276e"/>
<path d="M178.059 170.789C178.059 170.789 177.695 175.699 178.77 174.945 179.848 174.191 249.527 166.637 249.875 165.504 250.238 164.375 249.523 162.109 249.523 162.109 249.523 162.109 178.77 170.035 178.059 170.789ZM178.059 170.789" fill="#21276e"/>
<path d="M179.492 180.234C179.133 181.367 170.914 198.355 179.492 208.926L242.383 194.957C242.383 194.957 229.059 180.223 236.203 174.184ZM179.492 180.234" fill="#d9b68b"/>
<path d="M178.059 179.098C178.059 179.098 164.836 197.219 178.059 211.566 178.059 211.566 98.367 219.117 91.941 215.34 85.5 211.566 84.434 185.895 89.438 180.609ZM178.059 179.098" fill="#fefbde"/>
<path d="M56.957 163.813C56.957 163.813 54.195 172.094 57.66 172.426 61.137 172.762 151.836 168.754 154.051 167.086 156.262 165.414 153.73 164.746 153.73 164.746 153.73 164.746 75.047 167.418 56.957 163.813ZM56.957 163.813" fill="#ee7500"/>
<path d="M63.039 131.688C63.039 131.688 74.414 147.047 62.406 160.402 62.406 160.402 152.496 163.754 156.574 161.07 168.27 153.391 159.738 128.016 159.738 128.016 155.316 126.68 63.039 131.688 63.039 131.688ZM63.039 131.688" fill="#fefbde"/>
<path d="M176.035 65.379C176.035 65.379 168.559 92.824 172.113 105.234 172.113 105.234 87.414 108.621 83.496 104.105 79.578 99.594 79.586 68.012 84.922 66.133 90.258 64.25 176.031 65.379 176.031 65.379ZM176.035 65.379" fill="#fefbde"/>
<path d="M179.582 65.738C179.582 65.738 171.043 91.309 175.664 101.836L250.133 96.031C250.133 96.031 246.84 72.129 254.664 64.234L179.578 65.738ZM179.582 65.738" fill="#d9b68b"/>
<path d="M177.441 3.34C177.441 3.34 179.582 9.73 176.379 9.73 173.172 9.73 92.504 14.684 88.887 20.105 85.266 25.523 80.996 40.941 89.188 45.074 97.375 49.207 180.746 45.988 180.746 45.988 180.746 45.988 179.582 50.715 177.09 50.715 174.598 50.715 86.691 52.969 82.426 50.34 78.156 47.707 76.375 19.508 82.426 15.746 88.473 11.984 177.445 3.34 177.445 3.34ZM177.441 3.34" fill="#ca0178"/>
<path d="M180.992 2.203C180.992 2.203 178.5 8.598 181.352 8.973 184.207 9.348 252.172 17.242 252.172 17.242L252.535 13.863C252.535 13.863 185.266 .324 180.996 2.203ZM180.992 2.203" fill="#b00179"/>
<path d="M185.613 44.313C185.613 44.313 182.441 52.074 183.313 51.766 184.188 51.457 249.316 52.586 250.031 51.082 250.746 49.578 252.875 45.453 248.422 45.633 243.984 45.816 188.82 42.809 185.617 44.313ZM185.613 44.313" fill="#b00179"/>
<path d="M178.852 13.473C178.852 13.473 177.234 32.082 182.668 41.199 182.668 41.199 93.086 45.809 90.234 42.426 87.379 39.043 85.961 24.379 91.309 22.121 96.645 19.867 178.855 13.473 178.855 13.473ZM178.852 13.473" fill="#fefbde"/>
<path d="M181.703 14.227C181.703 14.227 180.988 36.785 185.973 39.797 190.957 42.805 243.988 41.301 243.988 41.301 243.988 41.301 236.516 24.379 243.629 19.117ZM181.703 14.227" fill="#d9b68b"/>
<path d="M164.898 367.594C164.809 367.91 159.051 366.223 149.578 364.461 144.844 363.578 139.176 362.707 132.859 361.953 126.539 361.199 119.566 360.563 112.23 359.961 104.895 359.355 97.891 358.801 91.531 358.145 85.172 357.484 79.445 356.73 74.672 355.926 65.105 354.313 59.328 352.551 59.391 352.285 59.461 351.965 65.316 353.188 74.871 354.398 79.645 355.012 85.352 355.605 91.703 356.148L112.391 357.793C119.734 358.398 126.738 359.09 133.09 359.961 139.43 360.828 145.125 361.871 149.859 362.953 159.332 365.117 164.969 367.336 164.898 367.59ZM164.898 367.594" fill="#26231f"/>
<path d="M168.359 378.52C168.289 378.816 163.477 377.797 155.738 376.047 148.004 374.305 137.332 371.832 125.465 369.602 113.602 367.352 102.777 365.906 94.922 365.188 87.055 364.441 82.16 364.273 82.16 363.945 82.16 363.68 87.074 363.297 95.012 363.648 102.961 363.977 113.902 365.188 125.828 367.457 137.754 369.707 148.414 372.426 156.082 374.547 163.738 376.691 168.418 378.23 168.359 378.52ZM168.359 378.52" fill="#26231f"/>
<path d="M91.121 291.09C91.121 291.387 88.648 291.641 84.66 292.301 80.68 292.918 75.176 293.926 68.973 294.57 62.805 295.23 57.047 295.199 52.98 294.191 50.949 293.711 49.371 293 48.367 292.363 47.363 291.727 46.918 291.207 46.988 291.09 47.152 290.824 49.313 292.164 53.238 292.672 57.148 293.258 62.684 293.055 68.785 292.406 74.883 291.758 80.438 291.004 84.508 290.773 88.578 290.496 91.129 290.793 91.121 291.09ZM91.121 291.09" fill="#26231f"/>
<path d="M120.766 303.48C120.727 303.789 116.598 303.375 109.934 302.719 103.273 302.082 94.082 301.254 83.902 301.105 78.809 301.031 73.965 301.137 69.563 301.348L66.359 301.52 63.324 301.816C61.355 301.973 59.508 302.09 57.809 302.113 50.996 302.281 46.895 300.84 46.988 300.563 47.047 300.254 51.117 301.137 57.746 300.574 59.395 300.457 61.215 300.254 63.152 300.012L66.188 299.617 69.453 299.34C73.895 299.023 78.789 298.852 83.934 298.926 94.211 299.078 103.465 300.16 110.105 301.188 116.758 302.238 120.805 303.195 120.766 303.48ZM120.766 303.48" fill="#26231f"/>
<path d="M166.977 241.551C167.02 241.848 164.789 242.492 161.16 243.32 157.523 244.145 152.488 245.16 146.852 245.98 141.227 246.82 136.07 247.215 132.336 247.234 128.598 247.258 126.285 246.938 126.285 246.652 126.285 246.344 128.578 246.109 132.254 245.695 135.922 245.293 140.984 244.652 146.57 243.828 152.156 243.004 157.23 242.234 160.93 241.805 164.629 241.371 166.93 241.254 166.977 241.551ZM166.977 241.551" fill="#26231f"/>
<path d="M169.727 187.645C169.727 187.957 167.336 188.195 163.488 188.578L148.445 190.074C142.551 190.617 137.164 190.855 133.254 190.703 129.348 190.57 126.957 190.117 126.977 189.832 126.996 189.52 129.387 189.422 133.234 189.164 137.082 188.926 142.387 188.445 148.266 187.906 154.156 187.367 159.531 187.02 163.43 187.043 167.328 187.047 169.727 187.355 169.727 187.645ZM169.727 187.645" fill="#26231f"/>
<path d="M164.906 195.656C164.898 196.258 160.293 196.723 154.617 197.199 148.941 197.676 144.27 197.727 144.219 197.113 144.156 196.531 148.73 195.5 154.465 195.031 160.203 194.559 164.914 195.055 164.906 195.656ZM164.906 195.656" fill="#26231f"/>
<path d="M103.531 137.379C103.523 137.688 101.602 137.93 98.5 138.313 95.402 138.676 91.113 139.227 86.313 139.543 81.508 139.859 77.098 139.699 73.953 139.109 70.797 138.535 68.969 137.641 69.047 137.379 69.129 137.066 71.039 137.41 74.113 137.578 77.188 137.766 81.449 137.688 86.191 137.371 90.934 137.059 95.262 136.75 98.418 136.777 101.582 136.785 103.531 137.086 103.531 137.379ZM103.531 137.379" fill="#26231f"/>
<path d="M173.188 71.797C173.188 72.113 168.367 72.324 160.578 72.859 152.801 73.363 142.063 74.316 130.184 75.32 118.309 76.32 107.488 76.926 99.648 76.91 91.82 76.926 86.988 76.449 86.988 76.168 86.996 75.848 91.832 75.777 99.617 75.371 107.406 74.992 118.137 74.148 130.023 73.148 141.898 72.148 152.688 71.434 160.516 71.32 168.355 71.18 173.188 71.512 173.188 71.797ZM173.188 71.797" fill="#26231f"/>
<path d="M170.426 80.551C170.445 80.852 169.238 81.234 167.27 81.66 165.301 82.074 162.559 82.555 159.473 82.801 156.387 83.051 153.535 82.918 151.504 82.523 149.477 82.129 148.301 81.559 148.359 81.281 148.422 80.973 149.668 81.008 151.637 80.988 153.605 80.984 156.309 80.875 159.324 80.629 162.336 80.383 165.102 80.156 167.121 80.129 169.129 80.098 170.395 80.254 170.426 80.551ZM170.426 80.551" fill="#26231f"/>
<path d="M174.551 22.266C174.551 22.57 172.859 22.82 170.137 23.152 167.414 23.484 163.656 23.926 159.449 24.242 155.246 24.563 151.391 24.543 148.605 24.191 145.824 23.844 144.164 23.273 144.215 22.992 144.258 22.684 145.965 22.715 148.676 22.656 151.398 22.605 155.137 22.391 159.309 22.07 163.477 21.75 167.297 21.539 170.07 21.613 172.84 21.688 174.559 21.969 174.551 22.266ZM174.551 22.266" fill="#26231f"/>
<path d="M224.207 77.633C224.207 77.945 221.734 78.18 217.766 78.617 213.797 79.035 208.313 79.703 202.195 80.16 196.074 80.629 190.469 80.586 186.438 80.055 182.398 79.547 180.008 78.629 180.078 78.363 180.141 78.043 182.582 78.41 186.551 78.52 190.508 78.652 195.984 78.449 202.055 77.988 208.121 77.535 213.656 77.109 217.688 77.082 221.715 77.035 224.207 77.344 224.207 77.633ZM224.207 77.633" fill="#26231f"/>
<path d="M209.73 192.734C209.809 193.359 202.867 194.738 194.297 195.734 185.727 196.734 178.813 197.684 178.691 197.105 178.563 196.508 185.426 194.566 194.055 193.57 202.668 192.57 209.648 192.172 209.73 192.734ZM209.73 192.734" fill="#26231f"/>
<path d="M219.379 346.461C219.531 347.086 212.516 349.18 204.359 352.938 196.191 356.66 190.082 360.824 189.73 360.305 189.398 359.855 195.133 354.781 203.535 350.941 211.934 347.098 219.277 345.918 219.379 346.461ZM219.379 346.461" fill="#26231f"/>
<path d="M208.34 360.305C208.422 360.602 207.145 361.238 205.035 362.043 202.934 362.871 200.012 363.836 196.906 365.145 193.801 366.438 191.172 367.934 189.371 369.219 187.551 370.484 186.508 371.449 186.277 371.238 186.074 371.055 186.77 369.699 188.469 368.008 190.145 366.32 192.898 364.477 196.145 363.125 199.398 361.758 202.441 361.004 204.652 360.566 206.875 360.133 208.27 360.016 208.34 360.305ZM208.34 360.305" fill="#26231f"/>
<path d="M74.555 351.574C74.555 351.574 60.078 362.5 57.313 377.797L84.211 382.902C84.211 382.902 92.488 358.125 98.688 354.484 98.688 354.484 84.211 346.469 74.555 351.574ZM74.555 351.574" fill="#26231f"/>
<path d="M183.906 336.242C183.906 336.242 186.457 343.609 182.738 345.086 179.023 346.551 35.672 331.34 26.609 339.438 26.609 339.438 7.793 351.711 26.609 380.434L183.91 402.77C183.91 402.77 186.691 412.832 184.832 412.832 182.973 412.832 21.961 387.305 18.945 385.828 15.922 384.363 5 360.543 8.254 349.016 11.512 337.484 19.641 328.887 23.355 328.145 27.074 327.41 183.91 336.242 183.91 336.242ZM183.906 336.242" fill="#e20415"/>
<path d="M186.961 402.289C186.961 402.289 185.645 411.301 189.707 410.906 193.766 410.516 257.484 379.773 258.234 377.82 258.965 375.875 259.336 369.645 258.234 370.43 257.129 371.207 189.762 397.184 186.961 402.289ZM186.961 402.289" fill="#c80015"/>
<path d="M187.844 336.18 191.773 338.789C191.773 338.789 260.43 310.488 262.27 308.152 264.109 305.816 262.641 298.035 262.641 298.035 262.641 298.035 188.949 332.281 187.852 336.18ZM187.844 336.18" fill="#c80015"/>
<path d="M162.574 119.684C162.574 119.684 177.996 146.273 162.684 162.453 162.684 162.453 256.441 153.313 258.238 150.934 260.039 148.555 262.48 120.719 258.883 119.766 255.285 118.813 163.477 115.406 162.574 119.688ZM162.574 119.684" fill="#d2650c"/>
<path d="M58.301 121.012C58.301 121.012 55.426 128.832 58.301 128.359 92.742 122.684 158.801 125.355 159.43 124.02 160.051 122.684 157.527 118.344 157.527 118.344 157.527 118.344 61.461 117.676 58.301 121.012ZM58.301 121.012" fill="#ee7500"/>
<path d="M175.664 54.086C175.664 54.086 177.441 60.852 173.535 60.477 169.617 60.102 83.004 60.426 81.465 64.023 79.93 67.621 69.258 85.293 80.293 107.102 80.293 107.102 80.996 109.355 83.133 110.109 85.273 110.859 164.281 107.477 164.629 110.484 164.98 113.492 164.277 115.75 164.277 115.75 164.277 115.75 83.133 116.121 80.285 114.617 77.441 113.117 66.762 90.555 76.719 60.102 76.719 60.102 141.848 52.957 175.66 54.086ZM175.664 54.086" fill="#fec611"/>
<path d="M179.219 55.219C179.219 55.219 180.254 58.063 182.578 58.777 184.898 59.496 264.281 61.988 264.281 60.484V55.973C264.281 55.973 179.93 52.211 179.219 55.219ZM179.219 55.219" fill="#cd9e00"/>
<path d="M169.25 108.234C169.25 108.234 172.031 111.629 174.887 111.629 177.738 111.629 257.254 112.527 257.609 110.273 257.973 108.02 257.52 104.477 257.52 104.477 257.52 104.477 173.168 105.602 169.25 108.234ZM169.25 108.234" fill="#cd9e00"/>
<path d="M75.262 352.277C75.262 352.277 59.395 371.227 62.84 374.137 66.297 377.055 83.527 374.867 83.527 374.867 83.527 374.867 96.633 355.93 94.563 353.742 92.5 351.559 80.777 350.094 75.258 352.277ZM75.262 352.277" fill="#e20415"/>
<path d="M193.355 282.406C193.355 282.406 259.883 254.863 262.582 259.605L265.273 264.352C265.273 264.352 198.75 294.754 196.051 292.852 193.355 290.953 188.855 282.406 193.355 282.406ZM193.355 282.406" fill="#078cc9"/>
</g>
</svg>
