<?xml version="1.0" encoding="UTF-8" standalone="no"?>
<svg
   xmlns:dc="http://purl.org/dc/elements/1.1/"
   xmlns:cc="http://creativecommons.org/ns#"
   xmlns:rdf="http://www.w3.org/1999/02/22-rdf-syntax-ns#"
   xmlns:svg="http://www.w3.org/2000/svg"
   xmlns="http://www.w3.org/2000/svg"
   xmlns:xlink="http://www.w3.org/1999/xlink"
   xmlns:sodipodi="http://sodipodi.sourceforge.net/DTD/sodipodi-0.dtd"
   xmlns:inkscape="http://www.inkscape.org/namespaces/inkscape"
   inkscape:version="1.0 (4035a4fb49, 2020-05-01)"
   height="135.44838"
   width="383.02853"
   sodipodi:docname="pic-hdd-ram.svg"
   id="svg36"
   version="1.1"
   viewBox="0 0 383.02851 135.44838"
   xml:space="preserve"
   style="clip-rule:evenodd;fill-rule:evenodd;image-rendering:optimizeQuality;shape-rendering:geometricPrecision;text-rendering:geometricPrecision"><sodipodi:namedview
   inkscape:current-layer="svg36"
   inkscape:window-maximized="1"
   inkscape:window-y="-9"
   inkscape:window-x="-9"
   inkscape:cy="194.52473"
   inkscape:cx="593.50916"
   inkscape:zoom="1"
   showgrid="false"
   id="namedview38"
   inkscape:window-height="1001"
   inkscape:window-width="1920"
   inkscape:pageshadow="2"
   inkscape:pageopacity="0"
   guidetolerance="10"
   gridtolerance="10"
   objecttolerance="10"
   borderopacity="1"
   bordercolor="#666666"
   pagecolor="#ffffff" />
 <defs
   id="defs4">
  <style
   id="style2"
   type="text/css">
    .str0 {stroke:#4D4948;stroke-width:0.0123919}
    .str1 {stroke:#838281;stroke-width:0.229479;stroke-linecap:round}
    .fil2 {fill:none}
    .fil0 {fill:#4D4948}
    .fil1 {fill:white;fill-rule:nonzero}
  </style>
 <radialGradient
   inkscape:collect="always"
   xlink:href="#radialGradient4584"
   id="radialGradient1579"
   gradientUnits="userSpaceOnUse"
   gradientTransform="matrix(1,0,0,0.9864,0,3.2551)"
   cx="-541.81"
   cy="239.28"
   r="8.9157" /><radialGradient
   r="8.9157"
   gradientTransform="matrix(1,0,0,0.9864,0,3.2551)"
   cx="-541.81"
   cy="239.28"
   gradientUnits="userSpaceOnUse"
   id="radialGradient4584"><stop
     offset="0"
     stop-color="#e2e7e4"
     id="stop3681" /><stop
     offset="1"
     stop-color="#737373"
     id="stop3683" /></radialGradient><radialGradient
   r="511.98999"
   gradientTransform="matrix(1.7865,-6.1023e-8,4.5384e-8,0.7568,-320.68,94.554)"
   cx="407.70999"
   cy="388.79001"
   gradientUnits="userSpaceOnUse"
   id="radialGradient4586"><stop
     offset="0"
     stop-color="#fff"
     id="stop3621" /><stop
     offset="1"
     stop-color="#d5d5d5"
     id="stop3623" /></radialGradient><radialGradient
   r="128.28999"
   gradientTransform="matrix(1,0,0,0.93307,0,23.818)"
   cx="241.42999"
   cy="355.85999"
   gradientUnits="userSpaceOnUse"
   id="radialGradient4588"><stop
     offset="0"
     stop-color="#a4a4a4"
     id="stop3655" /><stop
     offset="1"
     stop-color="#7e7a6d"
     id="stop3657" /></radialGradient><radialGradient
   r="128.28999"
   gradientTransform="matrix(1,0,0,0.93307,0,23.818)"
   cx="241.42999"
   cy="355.85999"
   gradientUnits="userSpaceOnUse"
   id="radialGradient4590"><stop
     offset="0"
     stop-color="#fff"
     id="stop3637" /><stop
     offset="1"
     stop-color="#dcdcd9"
     id="stop3639" /></radialGradient><radialGradient
   inkscape:collect="always"
   xlink:href="#radialGradient4584"
   id="radialGradient1581"
   gradientUnits="userSpaceOnUse"
   gradientTransform="matrix(1,0,0,0.9864,0,3.2551)"
   cx="-541.81"
   cy="239.28"
   r="8.9157" /><radialGradient
   r="8.9157"
   gradientTransform="matrix(1,0,0,0.9864,0,3.2551)"
   cx="-541.81"
   cy="239.28"
   gradientUnits="userSpaceOnUse"
   id="radialGradient2794"><stop
     offset="0"
     stop-color="#e2e7e4"
     id="stop2790" /><stop
     offset="1"
     stop-color="#737373"
     id="stop2792" /></radialGradient><radialGradient
   inkscape:collect="always"
   xlink:href="#radialGradient4584"
   id="radialGradient1583"
   gradientUnits="userSpaceOnUse"
   gradientTransform="matrix(1,0,0,0.9864,0,3.2551)"
   cx="-541.81"
   cy="239.28"
   r="8.9157" /><radialGradient
   r="8.9157"
   gradientTransform="matrix(1,0,0,0.9864,0,3.2551)"
   cx="-541.81"
   cy="239.28"
   gradientUnits="userSpaceOnUse"
   id="radialGradient2801"><stop
     offset="0"
     stop-color="#e2e7e4"
     id="stop2797" /><stop
     offset="1"
     stop-color="#737373"
     id="stop2799" /></radialGradient><radialGradient
   inkscape:collect="always"
   xlink:href="#radialGradient4584"
   id="radialGradient1585"
   gradientUnits="userSpaceOnUse"
   gradientTransform="matrix(1,0,0,0.9864,0,3.2551)"
   cx="-541.81"
   cy="239.28"
   r="8.9157" /><radialGradient
   r="8.9157"
   gradientTransform="matrix(1,0,0,0.9864,0,3.2551)"
   cx="-541.81"
   cy="239.28"
   gradientUnits="userSpaceOnUse"
   id="radialGradient2808"><stop
     offset="0"
     stop-color="#e2e7e4"
     id="stop2804" /><stop
     offset="1"
     stop-color="#737373"
     id="stop2806" /></radialGradient><radialGradient
   inkscape:collect="always"
   xlink:href="#radialGradient4584"
   id="radialGradient1587"
   gradientUnits="userSpaceOnUse"
   gradientTransform="matrix(1,0,0,0.9864,0,3.2551)"
   cx="-541.81"
   cy="239.28"
   r="8.9157" /><radialGradient
   r="8.9157"
   gradientTransform="matrix(1,0,0,0.9864,0,3.2551)"
   cx="-541.81"
   cy="239.28"
   gradientUnits="userSpaceOnUse"
   id="radialGradient2815"><stop
     offset="0"
     stop-color="#e2e7e4"
     id="stop2811" /><stop
     offset="1"
     stop-color="#737373"
     id="stop2813" /></radialGradient><radialGradient
   inkscape:collect="always"
   xlink:href="#radialGradient4584"
   id="radialGradient1589"
   gradientUnits="userSpaceOnUse"
   gradientTransform="matrix(1,0,0,0.9864,0,3.2551)"
   cx="-541.81"
   cy="239.28"
   r="8.9157" /><radialGradient
   r="8.9157"
   gradientTransform="matrix(1,0,0,0.9864,0,3.2551)"
   cx="-541.81"
   cy="239.28"
   gradientUnits="userSpaceOnUse"
   id="radialGradient2822"><stop
     offset="0"
     stop-color="#e2e7e4"
     id="stop2818" /><stop
     offset="1"
     stop-color="#737373"
     id="stop2820" /></radialGradient><radialGradient
   inkscape:collect="always"
   xlink:href="#radialGradient4584"
   id="radialGradient1591"
   gradientUnits="userSpaceOnUse"
   gradientTransform="matrix(1,0,0,0.9864,0,3.2551)"
   cx="-541.81"
   cy="239.28"
   r="8.9157" /><radialGradient
   r="8.9157"
   gradientTransform="matrix(1,0,0,0.9864,0,3.2551)"
   cx="-541.81"
   cy="239.28"
   gradientUnits="userSpaceOnUse"
   id="radialGradient2829"><stop
     offset="0"
     stop-color="#e2e7e4"
     id="stop2825" /><stop
     offset="1"
     stop-color="#737373"
     id="stop2827" /></radialGradient><radialGradient
   inkscape:collect="always"
   xlink:href="#radialGradient4584"
   id="radialGradient1593"
   gradientUnits="userSpaceOnUse"
   gradientTransform="matrix(1,0,0,0.9864,0,3.2551)"
   cx="-541.81"
   cy="239.28"
   r="8.9157" /><radialGradient
   r="8.9157"
   gradientTransform="matrix(1,0,0,0.9864,0,3.2551)"
   cx="-541.81"
   cy="239.28"
   gradientUnits="userSpaceOnUse"
   id="radialGradient2836"><stop
     offset="0"
     stop-color="#e2e7e4"
     id="stop2832" /><stop
     offset="1"
     stop-color="#737373"
     id="stop2834" /></radialGradient><radialGradient
   inkscape:collect="always"
   xlink:href="#radialGradient4584"
   id="radialGradient1595"
   gradientUnits="userSpaceOnUse"
   gradientTransform="matrix(1,0,0,0.9864,0,3.2551)"
   cx="-541.81"
   cy="239.28"
   r="8.9157" /><radialGradient
   r="8.9157"
   gradientTransform="matrix(1,0,0,0.9864,0,3.2551)"
   cx="-541.81"
   cy="239.28"
   gradientUnits="userSpaceOnUse"
   id="radialGradient2843"><stop
     offset="0"
     stop-color="#e2e7e4"
     id="stop2839" /><stop
     offset="1"
     stop-color="#737373"
     id="stop2841" /></radialGradient><filter
   color-interpolation-filters="sRGB"
   height="1.0538"
   x="-0.10776"
   y="-0.026919"
   width="1.2155"
   id="filter4083"><feGaussianBlur
     stdDeviation="2.5417356"
     id="feGaussianBlur4085" /></filter><radialGradient
   inkscape:collect="always"
   xlink:href="#radialGradient4584"
   id="radialGradient1597"
   gradientUnits="userSpaceOnUse"
   gradientTransform="matrix(1,0,0,0.9864,0,3.2551)"
   cx="-541.81"
   cy="239.28"
   r="8.9157" /><radialGradient
   r="8.9157"
   gradientTransform="matrix(1,0,0,0.9864,0,3.2551)"
   cx="-541.81"
   cy="239.28"
   gradientUnits="userSpaceOnUse"
   id="radialGradient2852"><stop
     offset="0"
     stop-color="#e2e7e4"
     id="stop2848" /><stop
     offset="1"
     stop-color="#737373"
     id="stop2850" /></radialGradient><radialGradient
   inkscape:collect="always"
   xlink:href="#radialGradient4584"
   id="radialGradient1599"
   gradientUnits="userSpaceOnUse"
   gradientTransform="matrix(1,0,0,0.9864,0,3.2551)"
   cx="-541.81"
   cy="239.28"
   r="8.9157" /><radialGradient
   r="8.9157"
   gradientTransform="matrix(1,0,0,0.9864,0,3.2551)"
   cx="-541.81"
   cy="239.28"
   gradientUnits="userSpaceOnUse"
   id="radialGradient2859"><stop
     offset="0"
     stop-color="#e2e7e4"
     id="stop2855" /><stop
     offset="1"
     stop-color="#737373"
     id="stop2857" /></radialGradient><radialGradient
   inkscape:collect="always"
   xlink:href="#radialGradient4584"
   id="radialGradient1601"
   gradientUnits="userSpaceOnUse"
   gradientTransform="matrix(1,0,0,0.9864,0,3.2551)"
   cx="-541.81"
   cy="239.28"
   r="8.9157" /><radialGradient
   r="8.9157"
   gradientTransform="matrix(1,0,0,0.9864,0,3.2551)"
   cx="-541.81"
   cy="239.28"
   gradientUnits="userSpaceOnUse"
   id="radialGradient2866"><stop
     offset="0"
     stop-color="#e2e7e4"
     id="stop2862" /><stop
     offset="1"
     stop-color="#737373"
     id="stop2864" /></radialGradient><filter
   color-interpolation-filters="sRGB"
   height="2.2523999"
   x="-0.55470997"
   y="-0.62621999"
   width="2.1094"
   id="filter4053"><feGaussianBlur
     stdDeviation="83.598341"
     id="feGaussianBlur4055" /></filter><filter
   color-interpolation-filters="sRGB"
   height="1.928"
   x="-0.40187001"
   y="-0.46399"
   width="1.8037"
   id="filter4057"><feGaussianBlur
     stdDeviation="83.598341"
     id="feGaussianBlur4059" /></filter></defs>
 <g
   transform="translate(156.28794,27.205084)"
   id="Diagram">
  <g
   transform="matrix(37.787317,0,0,37.787317,66.500219,-7.0003862)"
   id="_46320264">
   <path
   class="fil0 str0"
   d="m 0.33144,0.44006 3.5777,-6.505e-5 c 0.17915,0 0.32525,0.1461 0.32525,0.32525 V 2.0662449 c 0,0.17915 -0.1461,0.32531 -0.32525,0.32531 l -3.5777,-6.5e-5 c -0.17915,0 -0.32525,-0.1461 -0.32525,-0.32525 v -1.301 c 0,-0.17915 0.1461,-0.32518 0.32525,-0.3251799 z"
   id="_89705936" />
   <path
   class="fil1"
   d="m 1.5015,1.8278 c 0,0.00507 -9.107e-4,0.00917 -0.0028,0.01262 C 1.49688,1.84367 1.49278,1.8464 1.485885,1.84868 1.479245,1.85102 1.469362,1.85258 1.456287,1.85349 1.443407,1.8544007 1.425779,1.85492 1.403272,1.85492 1.384473,1.85492 1.369316,1.8543996 1.358258,1.85349 1.34707,1.8525793 1.338093,1.85076 1.331653,1.84848 1.325213,1.84594 1.32066,1.84276 1.317927,1.83905 1.315127,1.83515 1.312857,1.83059 1.311027,1.82526 L 1.2332356,1.630894 C 1.2238034,1.608907 1.2146316,1.589392 1.2056546,1.572414 1.1964826,1.555436 1.1866606,1.54119 1.1756016,1.529742 1.1646086,1.518228 1.1519886,1.509772 1.1377426,1.503787 1.1233016,1.498067 1.1067786,1.495067 1.0879796,1.495067 h -0.055097 v 0.33162 c 0,0.00436 -0.00163,0.00846 -0.00436,0.011904 -0.00299,0.00364 -0.00781,0.00664 -0.014441,0.00872 -0.0069,0.00228 -0.015872,0.00416 -0.027126,0.00553 -0.010993,0.00137 -0.025434,0.00208 -0.042868,0.00208 -0.016978,0 -0.031224,-7.155e-4 -0.042672,-0.00208 -0.011514,-0.00137 -0.020686,-0.00325 -0.027321,-0.00553 -0.0067,-0.00208 -0.011514,-0.00507 -0.014051,-0.00872 -0.002732,-0.00345 -0.004098,-0.00755 -0.004098,-0.011904 v -0.79016 c 0,-0.01971 0.005074,-0.033956 0.015157,-0.042672 0.010083,-0.008717 0.022507,-0.013075 0.037404,-0.013075 h 0.22514 c 0.022898,0 0.041762,4.5535e-4 0.056463,0.001366 0.014896,9.1069e-4 0.028166,0.002082 0.040331,0.003253 0.034932,0.005009 0.066351,0.01353 0.094582,0.025695 0.027971,0.012164 0.051649,0.027776 0.071164,0.047226 0.01945,0.019515 0.034411,0.042738 0.044689,0.069343 0.010343,0.026605 0.015417,0.057374 0.015417,0.091785 0,0.029142 -0.00371,0.055748 -0.011058,0.079621 -0.00729,0.024133 -0.018344,0.04547 -0.032525,0.064269 -0.014506,0.018799 -0.032134,0.035127 -0.053276,0.049112 -0.020881,0.01379 -0.044949,0.024979 -0.071815,0.0335 0.013075,0.00644 0.025239,0.013986 0.036688,0.022962 0.011254,0.00891 0.022052,0.01971 0.032134,0.03259 0.010083,0.012815 0.019775,0.027256 0.028687,0.043583 0.00898,0.016523 0.017694,0.034867 0.02615,0.055552 l 0.073246,0.17141 c 0.0069,0.016978 0.011254,0.029598 0.01353,0.037404 0.00228,0.00781 0.00345,0.013986 0.00345,0.018344 z M 1.27337,1.2376 C 1.27337,1.208913 1.26693,1.18478 1.253855,1.16507 1.24104,1.145295 1.219704,1.131309 1.190106,1.123308 1.1811292,1.1209662 1.171046,1.1191448 1.159533,1.118039 1.148084,1.1166079 1.132277,1.1159574 1.112047,1.1159574 H 1.032882 v 0.24667 h 0.089964 c 0.025239,0 0.047031,-0.00299 0.06583,-0.00917 0.018864,-0.00598 0.034671,-0.014441 0.047096,-0.025434 0.01262,-0.011058 0.021987,-0.024133 0.028166,-0.03929 0.00644,-0.015352 0.00943,-0.03233 0.00943,-0.051129 z m 1.0705,0.54733 C 2.3492,1.800932 2.35265,1.813812 2.354018,1.823244 2.355128,1.832614 2.3535626,1.839767 2.348488,1.84432 2.343678,1.84913 2.334958,1.85193 2.322338,1.85304 2.309718,1.85421 2.29248,1.85493 2.270494,1.85493 2.247727,1.85493 2.229838,1.8544096 2.217023,1.85376 2.204403,1.8530445 2.194516,1.85168 2.187881,1.84986 2.181181,1.84778 2.176367,1.84505 2.173635,1.84134 2.171095,1.8377 2.168825,1.83308 2.166935,1.827159 l -0.05848,-0.17466 h -0.32681 l -0.055032,0.17004 c -0.00189,0.00618 -0.00416,0.011449 -0.00716,0.015807 -0.00273,0.00416 -0.00755,0.00761 -0.013986,0.010148 -0.00644,0.00228 -0.015807,0.0041 -0.027516,0.00501 -0.011969,9.107e-4 -0.027581,0.00143 -0.046836,0.00143 -0.020686,0 -0.036688,-7.155e-4 -0.048397,-0.00208 C 1.571009,1.851484 1.562943,1.848234 1.558585,1.842964 1.554035,1.837894 1.552405,1.830605 1.553775,1.821172 1.555145,1.811742 1.558585,1.79912 1.563858,1.783508 l 0.26826,-0.77175 c 0.0028,-0.00755 0.00579,-0.013726 0.00943,-0.018604 0.00364,-0.004553 0.00943,-0.008261 0.017238,-0.010733 0.00781,-0.002342 0.018539,-0.003903 0.03259,-0.004618 0.013726,-6.505e-4 0.03233,-0.001171 0.055032,-0.001171 0.02641,0 0.047486,5.204e-4 0.063358,0.001171 0.015612,7.1554e-4 0.027776,0.002277 0.036493,0.004618 0.00872,0.002472 0.015157,0.00618 0.018799,0.011254 0.0039,0.004814 0.00709,0.011449 0.00989,0.020165 l 0.26892,0.7711 z M 1.94433,1.14692 h -6.505e-4 l -0.12301,0.36968 h 0.24667 z m 1.535,0.67977 c 0,0.00436 -0.00117,0.00846 -0.00364,0.011904 -0.00254,0.00364 -0.0069,0.00664 -0.013595,0.00872 -0.00637,0.00228 -0.015092,0.00416 -0.025695,0.00553 -0.010798,0.00137 -0.024524,0.00208 -0.041046,0.00208 -0.016067,0 -0.029598,-7.155e-4 -0.040396,-0.00208 C 3.34416,1.851474 3.335703,1.849594 3.329459,1.847314 3.323089,1.845234 3.318661,1.842244 3.315929,1.838594 3.313199,1.835144 3.312029,1.831044 3.312029,1.82669 v -0.708 h -0.00137 l -0.2522,0.70728 c -0.00182,0.00572 -0.00462,0.010538 -0.00872,0.014441 -0.00416,0.00371 -0.00963,0.0067 -0.016523,0.00898 -0.0069,0.00228 -0.015872,0.00364 -0.026605,0.00436 -0.010603,6.505e-4 -0.023678,0.00117 -0.038835,0.00117 -0.015352,0 -0.028232,-7.155e-4 -0.038965,-0.00189 -0.010798,-0.00111 -0.019775,-0.00273 -0.02667,-0.00527 -0.00683,-0.00254 -0.012359,-0.00553 -0.016523,-0.00917 -0.0039,-0.00345 -0.00664,-0.00781 -0.008,-0.01262 l -0.24348,-0.70728 h -0.00117 v 0.708 c 0,0.00436 -0.00137,0.00846 -0.0039,0.011904 -0.00228,0.00364 -0.00683,0.00664 -0.013726,0.00872 -0.0067,0.00228 -0.015157,0.00416 -0.025695,0.00553 -0.010603,0.00137 -0.024133,0.00208 -0.040851,0.00208 -0.016067,0 -0.029598,-7.155e-4 -0.040201,-0.00208 C 2.497797,1.851475 2.48908,1.849595 2.482705,1.847315 2.476005,1.845235 2.471647,1.842245 2.46911,1.838595 2.46664,1.835145 2.46547,1.831045 2.46547,1.826691 v -0.7752 c 0,-0.022962 0.00598,-0.040396 0.018149,-0.05256 C 2.495783,0.986767 2.511851,0.980782 2.532016,0.980782 h 0.11566 c 0.020686,0 0.038314,0.001626 0.053015,0.005074 0.014896,0.003448 0.027776,0.008912 0.038314,0.016718 0.010798,0.00781 0.019775,0.018149 0.027061,0.030964 0.00716,0.01288 0.013335,0.028492 0.018864,0.047291 l 0.18819,0.51838 H 2.97585 L 3.17067,1.082199 C 3.17665,1.0634 3.183094,1.047593 3.189925,1.034453 3.196825,1.021638 3.204886,1.0111 3.214058,1.003034 3.223228,0.994773 3.234223,0.989308 3.246648,0.985861 3.259268,0.982413 3.273969,0.980787 3.290491,0.980787 h 0.11885 c 0.012164,0 0.022702,0.001626 0.031419,0.004618 0.00872,0.003187 0.015872,0.007741 0.021336,0.013986 0.00579,0.005919 0.00989,0.01327 0.01288,0.021987 0.00299,0.00872 0.00436,0.018864 0.00436,0.030118 v 0.7752 z"
   id="_48856928" />
   <line
   x1="0.65669"
   y1="0.44"
   x2="0.65669"
   class="fil2 str1"
   y2="0.11475"
   id="_89838728" />
   <line
   x1="0.98220003"
   y1="0.44"
   x2="0.98220003"
   class="fil2 str1"
   y2="0.11475"
   id="_90529672" />
   <line
   x1="1.6324"
   y1="0.44"
   x2="1.6324"
   class="fil2 str1"
   y2="0.11475"
   id="_88873184" />
   <line
   x1="1.3074"
   y1="0.44"
   x2="1.3074"
   class="fil2 str1"
   y2="0.11475"
   id="_89047400" />
   <line
   x1="1.9579"
   y1="0.44"
   x2="1.9579"
   class="fil2 str1"
   y2="0.11475"
   id="_48795480" />
   <line
   x1="2.2832"
   y1="0.44"
   x2="2.2832"
   class="fil2 str1"
   y2="0.11475"
   id="_87697416" />
   <line
   x1="0.33157"
   y1="0.44"
   x2="0.33157"
   class="fil2 str1"
   y2="0.11475"
   id="_87460568" />
   <line
   x1="2.6113999"
   y1="0.44"
   x2="2.6113999"
   class="fil2 str1"
   y2="0.11475"
   id="_88111800" />
   <line
   x1="2.9368999"
   y1="0.44"
   x2="2.9368999"
   class="fil2 str1"
   y2="0.11475"
   id="_89779384" />
   <line
   x1="3.2588"
   y1="0.44"
   x2="3.2588"
   class="fil2 str1"
   y2="0.11475"
   id="_91195720" />
   <line
   x1="3.5840001"
   y1="0.44"
   x2="3.5840001"
   class="fil2 str1"
   y2="0.11475"
   id="_89709768" />
   <line
   x1="3.9093001"
   y1="0.44"
   x2="3.9093001"
   class="fil2 str1"
   y2="0.11475"
   id="_48343384" />
   <line
   x1="0.65643001"
   y1="2.7167001"
   x2="0.65643001"
   class="fil2 str1"
   y2="2.3915"
   id="_88726520" />
   <line
   x1="0.98193997"
   y1="2.7167001"
   x2="0.98193997"
   class="fil2 str1"
   y2="2.3915"
   id="_89863896" />
   <line
   x1="1.6322"
   y1="2.7167001"
   x2="1.6322"
   class="fil2 str1"
   y2="2.3915"
   id="_89052328" />
   <line
   x1="1.3072"
   y1="2.7167001"
   x2="1.3072"
   class="fil2 str1"
   y2="2.3915"
   id="_90525016" />
   <line
   x1="1.9577"
   y1="2.7167001"
   x2="1.9577"
   class="fil2 str1"
   y2="2.3915"
   id="_88786464" />
   <line
   x1="2.2829001"
   y1="2.7167001"
   x2="2.2829001"
   class="fil2 str1"
   y2="2.3915"
   id="_48928224" />
   <line
   x1="0.33131"
   y1="2.7167001"
   x2="0.33131"
   class="fil2 str1"
   y2="2.3915"
   id="_90405880" />
   <line
   x1="2.6112001"
   y1="2.7167001"
   x2="2.6112001"
   class="fil2 str1"
   y2="2.3915"
   id="_88963376" />
   <line
   x1="2.9367001"
   y1="2.7167001"
   x2="2.9367001"
   class="fil2 str1"
   y2="2.3915"
   id="_90071336" />
   <line
   x1="3.2586"
   y1="2.7167001"
   x2="3.2586"
   class="fil2 str1"
   y2="2.3915"
   id="_87188792" />
   <line
   x1="3.5838001"
   y1="2.7167001"
   x2="3.5838001"
   class="fil2 str1"
   y2="2.3915"
   id="_89604440" />
   <line
   x1="3.9089999"
   y1="2.7167001"
   x2="3.9089999"
   class="fil2 str1"
   y2="2.3915"
   id="_89011904" />
  </g>
 <g
   transform="matrix(0.23902692,0,0,0.23902692,-177.22915,-73.715036)"
   id="layer1-8"><g
     transform="matrix(0.4189,0,0,0.4189,1088.5,133.38)"
     id="g4410"><g
       transform="matrix(1.3044,0,0,1.3044,-662.92,760.42)"
       id="g3898"><path
         fill="#b6adb2"
         stroke-width="0.2"
         stroke-linecap="square"
         stroke="#e6e6e6"
         transform="translate(-5,2)"
         d="m -517.14,244.86 c 0,8.087 -7.835,14.643 -17.5,14.643 -9.665,0 -17.5,-6.5558 -17.5,-14.643 0,-8.087 7.835,-14.643 17.5,-14.643 9.665,0 17.5,6.5558 17.5,14.643 z"
         stroke-linejoin="round"
         id="path3900" /><path
         fill="#ffffff"
         stroke-width="0.2"
         stroke-linecap="square"
         stroke="#e6e6e6"
         transform="translate(-5,-1.4286)"
         d="m -517.14,244.86 c 0,8.087 -7.835,14.643 -17.5,14.643 -9.665,0 -17.5,-6.5558 -17.5,-14.643 0,-8.087 7.835,-14.643 17.5,-14.643 9.665,0 17.5,6.5558 17.5,14.643 z"
         stroke-linejoin="round"
         id="path3902" /><path
         transform="matrix(1,-0.039977,-0.080307,1.0032,21.359,-19.921)"
         fill="url(#radialGradient4584)"
         d="m -537.5,248.08 -4.6862,-3.4802 -4.749,3.3939 0.67085,-5.7984 -5.3137,-2.4158 5.357,-2.3182 -0.56467,-5.8097 4.6862,3.4802 4.749,-3.3939 -0.67086,5.7984 5.3137,2.4158 -5.357,2.3182 0.56466,5.8097 z"
         id="path3904"
         style="fill:url(#radialGradient1579)" /><path
         d="m -537.5,248.08 -4.6686,-5.4017 -4.7666,5.3154 2.3437,-6.744 -6.9866,-1.4703 7.0123,-1.3422 -2.22,-6.7857 4.6686,5.4017 4.7666,-5.3154 -2.3437,6.744 6.9866,1.4703 -7.0123,1.3423 2.22,6.7857 z"
         fill="#f2f0f1"
         transform="matrix(0.70916,-0.02835,-0.056951,0.71144,-142.31,58.162)"
         id="path3906" /></g><path
       d="m -1477.2,1411.6 -24.904,-20.882 29.233,-27.483 -4.3291,48.365 z"
       fill="#b3b3b3"
       stroke-width="1px"
       stroke="#000000"
       id="path4268" /><path
       d="m -2385,577.69 760.7,844.39 671.07,-478.72 -780.16,-753.66 -651.6,388 z"
       stroke-width="1px"
       stroke="#000000"
       id="path3775" /><path
       d="m 919.7,388.79 c 0,174.76 -229.23,316.43 -511.99,316.43 -282.77,0 -511.99,-141.67 -511.99,-316.43 0,-174.76 229.23,-316.43 511.99,-316.43 282.77,0 511.99,141.67 511.99,316.43 z"
       fill="#333333"
       transform="matrix(0.7726,0,0,1.0237,-2112.7,317.6)"
       stroke="#e6e6e6"
       id="path3665" /><path
       d="m 919.7,388.79 c 0,174.76 -229.23,316.43 -511.99,316.43 -282.77,0 -511.99,-141.67 -511.99,-316.43 0,-174.76 229.23,-316.43 511.99,-316.43 282.77,0 511.99,141.67 511.99,316.43 z"
       fill="#4d4d4d"
       transform="matrix(0.7726,0,0,1.0237,-2112.7,293.6)"
       stroke="#e6e6e6"
       id="path3663" /><path
       fill="#c0bfc7"
       d="m -1671.4,995.93 -23.571,20 70.714,47.143 0.7143,-37.857 -47.857,-29.286 z"
       id="path3854" /><path
       d="m 919.7,388.79 c 0,174.76 -229.23,316.43 -511.99,316.43 -282.77,0 -511.99,-141.67 -511.99,-316.43 0,-174.76 229.23,-316.43 511.99,-316.43 282.77,0 511.99,141.67 511.99,316.43 z"
       fill="#4d4d4d"
       transform="matrix(0.7726,0,0,1.0237,-2112.7,267.6)"
       stroke="#e6e6e6"
       id="path3659" /><path
       d="m -1529.3,997.36 c 0,0 -3.554,36.072 10.714,36.429 14.268,0.3562 11.506,-26.269 15.714,-45 4.2078,-18.731 -4.1681,-50.013 7.1429,-67.143 11.311,-17.13 22.661,-23.719 48.571,-27.143 25.91,-3.4234 39.365,10.686 49.286,28.571 9.9206,17.886 -2.1428,65.714 -2.1428,65.714 l -7.8572,40.714 c 0,0 9.5164,-59.191 -0.7143,-75.714 -10.231,-16.524 -21.468,-18.562 -36.428,-18.571 -14.961,-0.01 -31.572,8.1635 -43.572,22.143 -12,13.979 -19.286,58.571 -19.286,58.571 0,0 2.0946,20.462 -2.1428,29.286 -3.9385,8.2009 -11.054,20.226 -20,18.571 -5.9646,-1.1032 0.7142,-66.429 0.7142,-66.429 z"
       fill="#2f1c15"
       stroke-width="1px"
       stroke="#916f6f"
       id="path4286" /><path
       d="m 919.7,388.79 c 0,174.76 -229.23,316.43 -511.99,316.43 -282.77,0 -511.99,-141.67 -511.99,-316.43 0,-174.76 229.23,-316.43 511.99,-316.43 282.77,0 511.99,141.67 511.99,316.43 z"
       fill="#dfdbdc"
       transform="matrix(0.7726,0,0,1.0237,-2112.7,247.6)"
       id="path2830" /><path
       d="m 369.72,355.86 c 0,66.11 -57.437,119.7 -128.29,119.7 -70.852,0 -128.29,-53.593 -128.29,-119.7 0,-66.11 57.437,-119.7 128.29,-119.7 70.852,0 128.29,53.593 128.29,119.7 z"
       fill="#48423f"
       transform="matrix(1.0413,0,0,0.9135,-2049.2,329.53)"
       id="path3629" /><path
       d="m -1420.6,649.79 c 0,0 26.91,25.192 51.429,28.214 24.166,2.9788 28.4,-8.7281 41.428,-6.7857 13.028,1.9424 12.862,4.0992 21.429,14.286 8.5671,10.186 3.0431,15.146 -3.5714,20.714 -6.6145,5.5681 -24.67,16.569 -53.571,17.857 -29.258,1.3044 -58.572,-8.5714 -58.572,-8.5714 l 1.4286,-65.714 z"
       fill="#808080"
       id="path4116" /><path
       d="m -1420.6,643.79 c 0,0 26.91,25.192 51.429,28.214 24.166,2.9788 28.4,-8.7281 41.428,-6.7857 13.028,1.9424 12.862,4.0992 21.429,14.286 8.5671,10.186 3.0431,15.146 -3.5714,20.714 -6.6145,5.5681 -24.67,16.569 -53.571,17.857 -29.258,1.3044 -58.572,-8.5714 -58.572,-8.5714 l 1.4286,-65.714 z"
       fill="#43464d"
       id="path4118" /><path
       d="m -1420.6,637.79 c 0,0 26.91,25.192 51.429,28.214 24.166,2.9788 28.4,-8.7281 41.428,-6.7857 13.028,1.9424 12.862,4.0992 21.429,14.286 8.5671,10.186 3.0431,15.146 -3.5714,20.714 -6.6145,5.5681 -24.67,16.569 -53.571,17.857 -29.258,1.3044 -58.572,-8.5714 -58.572,-8.5714 l 1.4286,-65.714 z"
       fill="#808080"
       id="path4110" /><path
       d="m -1420.6,631.79 c 0,0 26.91,25.192 51.429,28.214 24.166,2.9788 28.4,-8.7281 41.428,-6.7857 13.028,1.9424 12.862,4.0992 21.429,14.286 8.5671,10.186 3.0431,15.146 -3.5714,20.714 -6.6145,5.5681 -24.67,16.569 -53.571,17.857 -29.258,1.3044 -58.572,-8.5714 -58.572,-8.5714 l 1.4286,-65.714 z"
       fill="#43464d"
       id="path4112" /><path
       d="m -1420.6,623.79 c 0,0 26.91,25.192 51.429,28.214 24.166,2.9788 28.4,-8.7281 41.428,-6.7857 13.028,1.9424 12.862,4.0992 21.429,14.286 8.5671,10.186 3.0431,15.146 -3.5714,20.714 -6.6145,5.5681 -24.67,16.569 -53.571,17.857 -29.258,1.3044 -58.572,-8.5714 -58.572,-8.5714 l 1.4286,-65.714 z"
       fill="#808080"
       id="path4104" /><path
       d="m -1420.6,617.79 c 0,0 26.91,25.192 51.429,28.214 24.166,2.9788 28.4,-8.7281 41.428,-6.7857 13.028,1.9424 12.862,4.0992 21.429,14.286 8.5671,10.186 3.0431,15.146 -3.5714,20.714 -6.6145,5.5681 -24.67,16.569 -53.571,17.857 -29.258,1.3044 -58.572,-8.5714 -58.572,-8.5714 l 1.4286,-65.714 z"
       fill="#43464d"
       id="path4106" /><path
       d="m -1418.6,609.79 c 0,0 26.91,25.192 51.429,28.214 24.166,2.9788 28.4,-8.7281 41.428,-6.7857 13.028,1.9424 12.862,4.0992 21.429,14.286 8.5671,10.186 3.0431,15.146 -3.5714,20.714 -6.6145,5.5681 -24.67,16.569 -53.571,17.857 -29.258,1.3044 -58.572,-8.5714 -58.572,-8.5714 l 1.4286,-65.714 z"
       fill="#808080"
       id="path4096" /><path
       d="m -1418.6,603.79 c 0,0 26.91,25.192 51.429,28.214 24.166,2.9788 28.4,-8.7281 41.428,-6.7857 13.028,1.9424 12.862,4.0992 21.429,14.286 8.5671,10.186 3.0431,15.146 -3.5714,20.714 -6.6145,5.5681 -24.67,16.569 -53.571,17.857 -29.258,1.3044 -58.572,-8.5714 -58.572,-8.5714 l 1.4286,-65.714 z"
       fill="#43464d"
       id="path4094" /><path
       d="m -1411.9,1054.8 c 0,0 8.9699,-51.687 2.1429,-66.429 -6.827,-14.742 -20.756,-10.47 -24.286,-19.286 -3.6364,-9.0826 -4.4175,-15.799 3.5714,-25.714 8.3329,-10.343 104.29,-72.857 104.29,-72.857 0,0 -10.469,-24.256 6.0714,-35.714 16.541,-11.458 41.786,8.5714 41.786,8.5714 l 48.571,50.714 c 0,0 39.028,72.855 33.571,87.857 -5.5444,15.245 -177.14,125 -177.14,125 l -38.571,-52.143 z"
       fill="#666666"
       stroke-width="1px"
       stroke="#666666"
       id="path4284" /><path
       d="m 919.7,388.79 c 0,174.76 -229.23,316.43 -511.99,316.43 -282.77,0 -511.99,-141.67 -511.99,-316.43 0,-174.76 229.23,-316.43 511.99,-316.43 282.77,0 511.99,141.67 511.99,316.43 z"
       fill="url(#radialGradient4586)"
       transform="matrix(0.7726,0,0,1.0237,-2112.7,247.6)"
       id="path3617"
       style="fill:url(#radialGradient4586)" /><path
       d="m 369.72,355.86 c 0,66.11 -57.437,119.7 -128.29,119.7 -70.852,0 -128.29,-53.593 -128.29,-119.7 0,-66.11 57.437,-119.7 128.29,-119.7 70.852,0 128.29,53.593 128.29,119.7 z"
       fill="#dfdade"
       transform="matrix(1.0413,0,0,0.9135,-2048.2,308.32)"
       id="path3627" /><path
       d="m 369.72,355.86 c 0,66.11 -57.437,119.7 -128.29,119.7 -70.852,0 -128.29,-53.593 -128.29,-119.7 0,-66.11 57.437,-119.7 128.29,-119.7 70.852,0 128.29,53.593 128.29,119.7 z"
       fill="url(#radialGradient4588)"
       transform="matrix(0.43307,0,0,0.37975,-1901.6,497)"
       opacity="0.50785"
       id="path3631"
       style="fill:url(#radialGradient4588)" /><path
       d="m 369.72,355.86 c 0,66.11 -57.437,119.7 -128.29,119.7 -70.852,0 -128.29,-53.593 -128.29,-119.7 0,-66.11 57.437,-119.7 128.29,-119.7 70.852,0 128.29,53.593 128.29,119.7 z"
       fill="url(#radialGradient4590)"
       transform="matrix(0.34843,0,0,0.30802,-1880.9,524.04)"
       opacity="0.50785"
       id="path3633"
       style="fill:url(#radialGradient4590)" /><g
       transform="translate(-1305.4,327.88)"
       id="g3695"><path
         fill="#b6adb2"
         stroke-width="0.2"
         stroke-linecap="square"
         stroke="#e6e6e6"
         transform="translate(-5,2)"
         d="m -517.14,244.86 c 0,8.087 -7.835,14.643 -17.5,14.643 -9.665,0 -17.5,-6.5558 -17.5,-14.643 0,-8.087 7.835,-14.643 17.5,-14.643 9.665,0 17.5,6.5558 17.5,14.643 z"
         stroke-linejoin="round"
         id="path3693" /><path
         fill="#ffffff"
         stroke-width="0.2"
         stroke-linecap="square"
         stroke="#e6e6e6"
         transform="translate(-5,-1.4286)"
         d="m -517.14,244.86 c 0,8.087 -7.835,14.643 -17.5,14.643 -9.665,0 -17.5,-6.5558 -17.5,-14.643 0,-8.087 7.835,-14.643 17.5,-14.643 9.665,0 17.5,6.5558 17.5,14.643 z"
         stroke-linejoin="round"
         id="path3667" /><path
         transform="matrix(1,-0.039977,-0.080307,1.0032,21.359,-19.921)"
         fill="url(#radialGradient4584)"
         d="m -537.5,248.08 -4.6862,-3.4802 -4.749,3.3939 0.67085,-5.7984 -5.3137,-2.4158 5.357,-2.3182 -0.56467,-5.8097 4.6862,3.4802 4.749,-3.3939 -0.67086,5.7984 5.3137,2.4158 -5.357,2.3182 0.56466,5.8097 z"
         id="path3669"
         style="fill:url(#radialGradient1581)" /><path
         d="m -537.5,248.08 -4.6686,-5.4017 -4.7666,5.3154 2.3437,-6.744 -6.9866,-1.4703 7.0123,-1.3422 -2.22,-6.7857 4.6686,5.4017 4.7666,-5.3154 -2.3437,6.744 6.9866,1.4703 -7.0123,1.3423 2.22,6.7857 z"
         fill="#f2f0f1"
         transform="matrix(0.70916,-0.02835,-0.056951,0.71144,-142.31,58.162)"
         id="path3687" /></g><g
       transform="translate(-1205.4,447.88)"
       id="g3703"><path
         fill="#b6adb2"
         stroke-width="0.2"
         stroke-linecap="square"
         stroke="#e6e6e6"
         transform="translate(-5,2)"
         d="m -517.14,244.86 c 0,8.087 -7.835,14.643 -17.5,14.643 -9.665,0 -17.5,-6.5558 -17.5,-14.643 0,-8.087 7.835,-14.643 17.5,-14.643 9.665,0 17.5,6.5558 17.5,14.643 z"
         stroke-linejoin="round"
         id="path3705" /><path
         fill="#ffffff"
         stroke-width="0.2"
         stroke-linecap="square"
         stroke="#e6e6e6"
         transform="translate(-5,-1.4286)"
         d="m -517.14,244.86 c 0,8.087 -7.835,14.643 -17.5,14.643 -9.665,0 -17.5,-6.5558 -17.5,-14.643 0,-8.087 7.835,-14.643 17.5,-14.643 9.665,0 17.5,6.5558 17.5,14.643 z"
         stroke-linejoin="round"
         id="path3707" /><path
         d="m -537.5,248.08 -4.6862,-3.4802 -4.749,3.3939 0.67085,-5.7984 -5.3137,-2.4158 5.357,-2.3182 -0.56467,-5.8097 4.6862,3.4802 4.749,-3.3939 -0.67086,5.7984 5.3137,2.4158 -5.357,2.3182 0.56466,5.8097 z"
         fill="url(#radialGradient4584)"
         transform="matrix(1,-0.039977,-0.080307,1.0032,21.359,-19.921)"
         id="path3709"
         style="fill:url(#radialGradient1583)" /><path
         transform="matrix(0.70916,-0.02835,-0.056951,0.71144,-142.31,58.162)"
         fill="#f2f0f1"
         d="m -537.5,248.08 -4.6686,-5.4017 -4.7666,5.3154 2.3437,-6.744 -6.9866,-1.4703 7.0123,-1.3422 -2.22,-6.7857 4.6686,5.4017 4.7666,-5.3154 -2.3437,6.744 6.9866,1.4703 -7.0123,1.3423 2.22,6.7857 z"
         id="path3711" /></g><g
       transform="translate(-1294,453.6)"
       id="g3713"><path
         fill="#b6adb2"
         stroke-width="0.2"
         stroke-linecap="square"
         stroke="#e6e6e6"
         transform="translate(-5,2)"
         d="m -517.14,244.86 c 0,8.087 -7.835,14.643 -17.5,14.643 -9.665,0 -17.5,-6.5558 -17.5,-14.643 0,-8.087 7.835,-14.643 17.5,-14.643 9.665,0 17.5,6.5558 17.5,14.643 z"
         stroke-linejoin="round"
         id="path3715" /><path
         fill="#ffffff"
         stroke-width="0.2"
         stroke-linecap="square"
         stroke="#e6e6e6"
         transform="translate(-5,-1.4286)"
         d="m -517.14,244.86 c 0,8.087 -7.835,14.643 -17.5,14.643 -9.665,0 -17.5,-6.5558 -17.5,-14.643 0,-8.087 7.835,-14.643 17.5,-14.643 9.665,0 17.5,6.5558 17.5,14.643 z"
         stroke-linejoin="round"
         id="path3717" /><path
         transform="matrix(1,-0.039977,-0.080307,1.0032,21.359,-19.921)"
         fill="url(#radialGradient4584)"
         d="m -537.5,248.08 -4.6862,-3.4802 -4.749,3.3939 0.67085,-5.7984 -5.3137,-2.4158 5.357,-2.3182 -0.56467,-5.8097 4.6862,3.4802 4.749,-3.3939 -0.67086,5.7984 5.3137,2.4158 -5.357,2.3182 0.56466,5.8097 z"
         id="path3719"
         style="fill:url(#radialGradient1585)" /><path
         d="m -537.5,248.08 -4.6686,-5.4017 -4.7666,5.3154 2.3437,-6.744 -6.9866,-1.4703 7.0123,-1.3422 -2.22,-6.7857 4.6686,5.4017 4.7666,-5.3154 -2.3437,6.744 6.9866,1.4703 -7.0123,1.3423 2.22,6.7857 z"
         fill="#f2f0f1"
         transform="matrix(0.70916,-0.02835,-0.056951,0.71144,-142.31,58.162)"
         id="path3721" /></g><g
       transform="translate(-1164,389.31)"
       id="g3723"><path
         fill="#b6adb2"
         stroke-width="0.2"
         stroke-linecap="square"
         stroke="#e6e6e6"
         transform="translate(-5,2)"
         d="m -517.14,244.86 c 0,8.087 -7.835,14.643 -17.5,14.643 -9.665,0 -17.5,-6.5558 -17.5,-14.643 0,-8.087 7.835,-14.643 17.5,-14.643 9.665,0 17.5,6.5558 17.5,14.643 z"
         stroke-linejoin="round"
         id="path3725" /><path
         fill="#ffffff"
         stroke-width="0.2"
         stroke-linecap="square"
         stroke="#e6e6e6"
         transform="translate(-5,-1.4286)"
         d="m -517.14,244.86 c 0,8.087 -7.835,14.643 -17.5,14.643 -9.665,0 -17.5,-6.5558 -17.5,-14.643 0,-8.087 7.835,-14.643 17.5,-14.643 9.665,0 17.5,6.5558 17.5,14.643 z"
         stroke-linejoin="round"
         id="path3727" /><path
         d="m -537.5,248.08 -4.6862,-3.4802 -4.749,3.3939 0.67085,-5.7984 -5.3137,-2.4158 5.357,-2.3182 -0.56467,-5.8097 4.6862,3.4802 4.749,-3.3939 -0.67086,5.7984 5.3137,2.4158 -5.357,2.3182 0.56466,5.8097 z"
         fill="url(#radialGradient4584)"
         transform="matrix(1,-0.039977,-0.080307,1.0032,21.359,-19.921)"
         id="path3729"
         style="fill:url(#radialGradient1587)" /><path
         transform="matrix(0.70916,-0.02835,-0.056951,0.71144,-142.31,58.162)"
         fill="#f2f0f1"
         d="m -537.5,248.08 -4.6686,-5.4017 -4.7666,5.3154 2.3437,-6.744 -6.9866,-1.4703 7.0123,-1.3422 -2.22,-6.7857 4.6686,5.4017 4.7666,-5.3154 -2.3437,6.744 6.9866,1.4703 -7.0123,1.3423 2.22,6.7857 z"
         id="path3731" /></g><g
       transform="translate(-1345.4,390.74)"
       id="g3733"><path
         fill="#b6adb2"
         stroke-width="0.2"
         stroke-linecap="square"
         stroke="#e6e6e6"
         transform="translate(-5,2)"
         d="m -517.14,244.86 c 0,8.087 -7.835,14.643 -17.5,14.643 -9.665,0 -17.5,-6.5558 -17.5,-14.643 0,-8.087 7.835,-14.643 17.5,-14.643 9.665,0 17.5,6.5558 17.5,14.643 z"
         stroke-linejoin="round"
         id="path3735" /><path
         fill="#ffffff"
         stroke-width="0.2"
         stroke-linecap="square"
         stroke="#e6e6e6"
         transform="translate(-5,-1.4286)"
         d="m -517.14,244.86 c 0,8.087 -7.835,14.643 -17.5,14.643 -9.665,0 -17.5,-6.5558 -17.5,-14.643 0,-8.087 7.835,-14.643 17.5,-14.643 9.665,0 17.5,6.5558 17.5,14.643 z"
         stroke-linejoin="round"
         id="path3737" /><path
         transform="matrix(1,-0.039977,-0.080307,1.0032,21.359,-19.921)"
         fill="url(#radialGradient4584)"
         d="m -537.5,248.08 -4.6862,-3.4802 -4.749,3.3939 0.67085,-5.7984 -5.3137,-2.4158 5.357,-2.3182 -0.56467,-5.8097 4.6862,3.4802 4.749,-3.3939 -0.67086,5.7984 5.3137,2.4158 -5.357,2.3182 0.56466,5.8097 z"
         id="path3739"
         style="fill:url(#radialGradient1589)" /><path
         d="m -537.5,248.08 -4.6686,-5.4017 -4.7666,5.3154 2.3437,-6.744 -6.9866,-1.4703 7.0123,-1.3422 -2.22,-6.7857 4.6686,5.4017 4.7666,-5.3154 -2.3437,6.744 6.9866,1.4703 -7.0123,1.3423 2.22,6.7857 z"
         fill="#f2f0f1"
         transform="matrix(0.70916,-0.02835,-0.056951,0.71144,-142.31,58.162)"
         id="path3741" /></g><g
       transform="translate(-1211.1,326.46)"
       id="g3743"><path
         fill="#b6adb2"
         stroke-width="0.2"
         stroke-linecap="square"
         stroke="#e6e6e6"
         transform="translate(-5,2)"
         d="m -517.14,244.86 c 0,8.087 -7.835,14.643 -17.5,14.643 -9.665,0 -17.5,-6.5558 -17.5,-14.643 0,-8.087 7.835,-14.643 17.5,-14.643 9.665,0 17.5,6.5558 17.5,14.643 z"
         stroke-linejoin="round"
         id="path3745" /><path
         fill="#ffffff"
         stroke-width="0.2"
         stroke-linecap="square"
         stroke="#e6e6e6"
         transform="translate(-5,-1.4286)"
         d="m -517.14,244.86 c 0,8.087 -7.835,14.643 -17.5,14.643 -9.665,0 -17.5,-6.5558 -17.5,-14.643 0,-8.087 7.835,-14.643 17.5,-14.643 9.665,0 17.5,6.5558 17.5,14.643 z"
         stroke-linejoin="round"
         id="path3747" /><path
         d="m -537.5,248.08 -4.6862,-3.4802 -4.749,3.3939 0.67085,-5.7984 -5.3137,-2.4158 5.357,-2.3182 -0.56467,-5.8097 4.6862,3.4802 4.749,-3.3939 -0.67086,5.7984 5.3137,2.4158 -5.357,2.3182 0.56466,5.8097 z"
         fill="url(#radialGradient4584)"
         transform="matrix(1,-0.039977,-0.080307,1.0032,21.359,-19.921)"
         id="path3749"
         style="fill:url(#radialGradient1591)" /><path
         transform="matrix(0.70916,-0.02835,-0.056951,0.71144,-142.31,58.162)"
         fill="#f2f0f1"
         d="m -537.5,248.08 -4.6686,-5.4017 -4.7666,5.3154 2.3437,-6.744 -6.9866,-1.4703 7.0123,-1.3422 -2.22,-6.7857 4.6686,5.4017 4.7666,-5.3154 -2.3437,6.744 6.9866,1.4703 -7.0123,1.3423 2.22,6.7857 z"
         id="path3751" /></g><g
       transform="translate(-1258.2,387.88)"
       id="g3763"><path
         fill="#b6adb2"
         stroke-width="0.2"
         stroke-linecap="square"
         stroke="#e6e6e6"
         transform="translate(-5,2)"
         d="m -517.14,244.86 c 0,8.087 -7.835,14.643 -17.5,14.643 -9.665,0 -17.5,-6.5558 -17.5,-14.643 0,-8.087 7.835,-14.643 17.5,-14.643 9.665,0 17.5,6.5558 17.5,14.643 z"
         stroke-linejoin="round"
         id="path3765" /><path
         fill="#ffffff"
         stroke-width="0.2"
         stroke-linecap="square"
         stroke="#e6e6e6"
         transform="translate(-5,-1.4286)"
         d="m -517.14,244.86 c 0,8.087 -7.835,14.643 -17.5,14.643 -9.665,0 -17.5,-6.5558 -17.5,-14.643 0,-8.087 7.835,-14.643 17.5,-14.643 9.665,0 17.5,6.5558 17.5,14.643 z"
         stroke-linejoin="round"
         id="path3767" /><path
         d="m -537.5,248.08 -4.6862,-3.4802 -4.749,3.3939 0.67085,-5.7984 -5.3137,-2.4158 5.357,-2.3182 -0.56467,-5.8097 4.6862,3.4802 4.749,-3.3939 -0.67086,5.7984 5.3137,2.4158 -5.357,2.3182 0.56466,5.8097 z"
         fill="url(#radialGradient4584)"
         transform="matrix(1,-0.039977,-0.080307,1.0032,21.359,-19.921)"
         id="path3769"
         style="fill:url(#radialGradient1593)" /><path
         transform="matrix(0.70916,-0.02835,-0.056951,0.71144,-142.31,58.162)"
         fill="#f2f0f1"
         d="m -537.5,248.08 -4.6686,-5.4017 -4.7666,5.3154 2.3437,-6.744 -6.9866,-1.4703 7.0123,-1.3422 -2.22,-6.7857 4.6686,5.4017 4.7666,-5.3154 -2.3437,6.744 6.9866,1.4703 -7.0123,1.3423 2.22,6.7857 z"
         id="path3771" /></g><path
       d="m -1629,1415.4 -3.4489,81.057 668.72,-486.55 11.112,-66.67 -676.38,472.16 z"
       fill="#676266"
       id="path3779" /><path
       d="m -1603.6,1028.1 -1.4285,35.357 70,-43.928 -2.1429,-29.286 -36.755,37.467 -29.674,0.3902 z"
       fill="#c0bfc7"
       id="path3858" /><path
       fill="#727179"
       d="m -1623.9,1026.3 -1.0714,36.071 21.786,2.1429 1.4285,-35.357 -22.143,-2.8571 z"
       id="path3856" /><path
       fill="#4d4d4d"
       stroke-width="0.2"
       stroke-linecap="square"
       stroke="#000000"
       transform="matrix(0.99995,0,0,1.0499,848.46,926.58)"
       d="m -2398.9,54.148 c 0,23.669 -23.825,42.857 -53.214,42.857 -29.39,0 -53.214,-19.188 -53.214,-42.857 0,-23.669 23.825,-42.857 53.214,-42.857 29.389,0 53.214,19.188 53.214,42.857 z"
       stroke-linejoin="round"
       id="path3894" /><path
       fill="#808080"
       stroke-width="0.2"
       stroke-linecap="square"
       stroke="#000000"
       transform="matrix(0.82917,0,0,0.84205,425.56,945.7)"
       d="m -2398.9,54.148 c 0,23.669 -23.825,42.857 -53.214,42.857 -29.39,0 -53.214,-19.188 -53.214,-42.857 0,-23.669 23.825,-42.857 53.214,-42.857 29.389,0 53.214,19.188 53.214,42.857 z"
       stroke-linejoin="round"
       id="path3896" /><path
       fill="#a9adb3"
       d="m -1590.7,1073.8 -11.429,-13.572 67.5,-41.428 -1.7857,45.357 -54.286,9.6429 z"
       id="path3862" /><path
       fill="#a9adb3"
       d="m -1702.9,1026.3 8.5714,-10 60,39.286 -20.357,14.286 -48.214,-43.571 z"
       id="path3860" /><path
       d="m -1760.7,1168.8 -62.857,-72.857 c 0,0 -32.845,13.704 -47.143,-7.1428 -14.298,-20.8468 11.428,-44.286 11.428,-44.286 l -3.5714,-27.857 v -20.357 l 109.64,-12.857 c 0,0 4.1814,15.16 13.928,22.5 9.5729,7.2093 30,2.8572 30,2.8572 l 30,38.571 42.857,8.5714 82.857,8.5715 22.593,-10.404 13.479,-14.239 c 0,0 12.064,-16.937 17.5,-21.786 13.214,-11.786 36.786,-15.714 36.786,-15.714 l 80,80.357 c 0,0 -17.648,9.4195 -22.5,17.5 -4.8516,8.0806 -7.8571,28.214 -7.8571,28.214 l -154.29,46.072 c 0,0 -12.111,7.7623 -7.8571,17.143 4.2541,9.3805 22.5,8.5714 22.5,8.5714 l 18.928,10 c 1.3096,-8.7627 6.5477,0.2381 7.5001,-5 0,0 50.534,-15.336 56.786,-13.928 6.2513,1.4072 28.929,27.5 28.929,27.5 l -3.2143,11.428 -56.429,37.143 -4.2857,4.2857 c 0,0 -5.6674,-3.928 -11.435,-4.0056 -5.768,-0.078 -16.779,8.6485 -16.779,8.6485 l -191.43,-17.143 c 0,0 -54.048,-51.168 -53.571,-58.929 0.4762,-7.7608 21.786,-21.428 21.786,-21.428 l -4.2857,-10 z"
       fill="#a79d9b"
       id="path3852" /><g
       transform="matrix(1.5073,0,0,1.5073,-671.27,854.01)"
       id="g3864"><path
         fill="#b6adb2"
         stroke-width="0.2"
         stroke-linecap="square"
         stroke="#e6e6e6"
         transform="translate(-5,2)"
         d="m -517.14,244.86 c 0,8.087 -7.835,14.643 -17.5,14.643 -9.665,0 -17.5,-6.5558 -17.5,-14.643 0,-8.087 7.835,-14.643 17.5,-14.643 9.665,0 17.5,6.5558 17.5,14.643 z"
         stroke-linejoin="round"
         id="path3866" /><path
         fill="#ffffff"
         stroke-width="0.2"
         stroke-linecap="square"
         stroke="#e6e6e6"
         transform="translate(-5,-1.4286)"
         d="m -517.14,244.86 c 0,8.087 -7.835,14.643 -17.5,14.643 -9.665,0 -17.5,-6.5558 -17.5,-14.643 0,-8.087 7.835,-14.643 17.5,-14.643 9.665,0 17.5,6.5558 17.5,14.643 z"
         stroke-linejoin="round"
         id="path3868" /><path
         d="m -537.5,248.08 -4.6862,-3.4802 -4.749,3.3939 0.67085,-5.7984 -5.3137,-2.4158 5.357,-2.3182 -0.56467,-5.8097 4.6862,3.4802 4.749,-3.3939 -0.67086,5.7984 5.3137,2.4158 -5.357,2.3182 0.56466,5.8097 z"
         fill="url(#radialGradient4584)"
         transform="matrix(1,-0.039977,-0.080307,1.0032,21.359,-19.921)"
         id="path3870"
         style="fill:url(#radialGradient1595)" /><path
         transform="matrix(0.70916,-0.02835,-0.056951,0.71144,-142.31,58.162)"
         fill="#f2f0f1"
         d="m -537.5,248.08 -4.6686,-5.4017 -4.7666,5.3154 2.3437,-6.744 -6.9866,-1.4703 7.0123,-1.3422 -2.22,-6.7857 4.6686,5.4017 4.7666,-5.3154 -2.3437,6.744 6.9866,1.4703 -7.0123,1.3423 2.22,6.7857 z"
         id="path3872" /></g><path
       fill="#4d4d4d"
       stroke-width="0.2"
       stroke-linecap="square"
       stroke="#000000"
       transform="matrix(0.79435,0,0,1.1672,312.37,897.34)"
       d="m -2565.6,210.22 c 0,3.5504 -4.657,6.4286 -10.402,6.4286 -5.7446,0 -10.402,-2.8782 -10.402,-6.4286 0,-3.5504 4.657,-6.4286 10.402,-6.4286 5.7447,0 10.402,2.8782 10.402,6.4286 z"
       stroke-linejoin="round"
       opacity="0.5"
       id="path3876" /><path
       fill="#848081"
       d="m -2386,577.59 18.183,96.975 735.39,824.28 4.0406,-80.812 -757.61,-840.45 z"
       id="path3777" /><path
       fill="#4d4d4d"
       stroke-width="0.2"
       stroke-linecap="square"
       stroke="#000000"
       transform="matrix(0.98099,0,0,1.4415,682.98,774.33)"
       d="m -2565.6,210.22 c 0,3.5504 -4.657,6.4286 -10.402,6.4286 -5.7446,0 -10.402,-2.8782 -10.402,-6.4286 0,-3.5504 4.657,-6.4286 10.402,-6.4286 5.7447,0 10.402,2.8782 10.402,6.4286 z"
       stroke-linejoin="round"
       opacity="0.5"
       id="path3878" /><path
       fill="#4d4d4d"
       stroke-width="0.2"
       stroke-linecap="square"
       stroke="#000000"
       transform="matrix(0.79435,0,0,1.1672,234.51,806.63)"
       d="m -2565.6,210.22 c 0,3.5504 -4.657,6.4286 -10.402,6.4286 -5.7446,0 -10.402,-2.8782 -10.402,-6.4286 0,-3.5504 4.657,-6.4286 10.402,-6.4286 5.7447,0 10.402,2.8782 10.402,6.4286 z"
       stroke-linejoin="round"
       opacity="0.5"
       id="path3880" /><path
       fill="#4d4d4d"
       stroke-width="0.2"
       stroke-linecap="square"
       stroke="#000000"
       transform="matrix(0.65859,0,0,0.96775,-73.062,845.84)"
       d="m -2565.6,210.22 c 0,3.5504 -4.657,6.4286 -10.402,6.4286 -5.7446,0 -10.402,-2.8782 -10.402,-6.4286 0,-3.5504 4.657,-6.4286 10.402,-6.4286 5.7447,0 10.402,2.8782 10.402,6.4286 z"
       stroke-linejoin="round"
       opacity="0.5"
       id="path3882" /><path
       fill="#4d4d4d"
       stroke-width="0.2"
       stroke-linecap="square"
       stroke="#000000"
       transform="matrix(0.93349,0,0,1.3717,968,824.98)"
       d="m -2565.6,210.22 c 0,3.5504 -4.657,6.4286 -10.402,6.4286 -5.7446,0 -10.402,-2.8782 -10.402,-6.4286 0,-3.5504 4.657,-6.4286 10.402,-6.4286 5.7447,0 10.402,2.8782 10.402,6.4286 z"
       stroke-linejoin="round"
       opacity="0.5"
       id="path3884" /><path
       fill="#d1cdce"
       stroke-width="0.18033"
       stroke-linecap="square"
       stroke="#000000"
       d="m -1607.9,964.49 c -3.1568,0 -6.1687,0.50584 -8.9687,1.4375 l 7.5625,10.188 c 0.7031,-0.0879 1.4235,-0.15625 2.1562,-0.15625 7.8749,0 14.25,5.256 14.25,11.75 0,2.5608 -1.0023,4.944 -2.6874,6.875 l 6.9374,9.37495 c 4.2219,-4.19115 6.7813,-9.75505 6.7813,-15.87495 0,-13.024 -11.648,-23.594 -26.031,-23.594 z m -18.781,7.25 c -4.4933,4.2374 -7.25,10.005 -7.25,16.344 0,13.024 11.648,23.562 26.031,23.562 3.924,0 7.6317,-0.7802 10.969,-2.1875 l -8,-10.125 c -0.7227,0.0931 -1.4643,0.15625 -2.2188,0.15625 -7.8746,0 -14.25,-5.2872 -14.25,-11.781 0,-2.3595 0.8616,-4.5336 2.3126,-6.375 l -7.5938,-9.5938 z"
       stroke-linejoin="round"
       opacity="0.5"
       id="path3886" /><g
       fill="#b3b3b3"
       filter="url(#filter4083)"
       id="g4069"><path
         d="m -1592.9,721.65 c 0,-3.7877 -0.2259,-0.52507 0.7142,-4.2857 0.2932,-1.1728 -0.7621,-0.66646 0.7143,-2.1428 0.1684,-0.16836 0.546,0.16835 0.7143,0 0.3765,-0.37647 0.2713,-1.1333 0.7143,-1.4286 0.3962,-0.26414 0.9864,0.17686 1.4286,0 0.797,-0.31882 1.4067,-0.98689 2.1428,-1.4286 0.4566,-0.27391 0.9856,-0.41896 1.4286,-0.71428 0.2802,-0.18678 0.4131,-0.5637 0.7143,-0.71429 0.2129,-0.10648 0.5013,0.10648 0.7143,0 0.3011,-0.15058 0.4131,-0.5637 0.7143,-0.71428 0.2129,-0.10648 0.4833,0.0577 0.7142,0 0.7305,-0.18262 1.4046,-0.56663 2.1429,-0.71429 0.9339,-0.18678 1.9048,0 2.8571,0 h 12.143 c 0.2381,0 0.5013,-0.10648 0.7143,0 0.3012,0.15058 0.4762,0.47619 0.7143,0.71429 0.4762,0.47619 1.1784,0.8033 1.4285,1.4286 0.2653,0.66319 -0.1174,1.4383 0,2.1428 0.1238,0.74268 0.5075,1.4189 0.7143,2.1429 0.2697,0.94392 0.5529,1.8888 0.7143,2.8571 0.1624,0.9743 0,2.5254 0,3.5714 0,0.71429 0.2653,1.4797 0,2.1429 -0.3188,0.79706 -0.8215,1.5358 -1.4286,2.1429 -0.018,0.0178 -3.303,0 -3.5714,0 h -3.5714 c -0.4762,0 -0.9768,0.15058 -1.4286,0 -1.9171,-0.63906 -1.196,-0.81394 -2.8571,-2.1429 -0.6704,-0.53628 -1.4561,-0.91349 -2.1429,-1.4286 -0.2694,-0.20203 -0.4341,-0.52751 -0.7143,-0.71429 -1.4729,-0.98193 -4.057,-1.9357 -5.7143,-2.1428 -0.945,-0.11813 -1.9047,0 -2.8571,0 -0.4762,0 -0.9864,-0.17686 -1.4286,0 -0.797,0.31882 -1.4285,0.95238 -2.1428,1.4286 -1.4286,0.95238 -2.8572,1.9048 -4.2857,0 z"
         id="path4061" /><path
         d="m -1602.1,815.93 c 0.6112,-3.3139 -1.5358,-0.82154 -2.1428,-1.4286 -1.3528,-1.3528 -0.8763,-5.7409 0,-7.1429 0.8923,-1.4277 2.3809,-2.381 3.5714,-3.5714 0.2381,-0.23809 0.4131,-0.5637 0.7143,-0.71428 0.213,-0.10648 0.6078,0.21296 0.7143,0 0.2129,-0.42592 -0.1506,-0.97682 0,-1.4286 0.1065,-0.31944 0.6078,-0.39485 0.7143,-0.71429 0.1506,-0.45175 0,-0.95238 0,-1.4286 v -7.8572 c 0,-0.47619 -0.1155,-0.9666 0,-1.4286 0.1243,-0.49714 0.8062,-1.8317 1.4285,-2.1429 0.213,-0.10648 0.546,0.16836 0.7143,0 2.0113,-0.0443 0.1819,-1.6105 0.7143,-2.1429 0.607,-0.60703 1.4286,-0.95238 2.1429,-1.4286 0.7143,-0.47619 1.375,-1.0446 2.1428,-1.4286 1.4758,-0.73787 2.1642,-0.71429 3.5715,-0.71429 0.2381,0 0.4884,-0.0753 0.7142,0 4.4337,1.4779 -2.3739,-0.0578 3.5715,1.4286 1.4285,0.35715 0,-0.71428 2.1428,0 0.3195,0.10648 0.4341,0.52751 0.7143,0.71429 0.443,0.29532 0.9235,0.54593 1.4286,0.71429 0.403,0.13433 1.6735,0 2.1428,0 h 1.4286 c 0.4762,0 0.9768,0.15058 1.4286,0 0.3194,-0.10648 0.4762,-0.4762 0.7143,-0.71429 0.4762,-0.47619 0.9524,-0.95238 1.4285,-1.4286 0.7143,-0.71429 1.5368,-1.3347 2.1429,-2.1429 0.6389,-0.85183 0.8379,-1.9712 1.4286,-2.8571 0.1867,-0.28017 0.5637,-0.41312 0.7143,-0.71429 0.3367,-0.67343 0.2966,-1.5164 0.7142,-2.1428 0.1321,-0.19811 0.6078,0.21295 0.7143,0 0.213,-0.42592 0,-0.95239 0,-1.4286 0,-0.71428 0.3195,-1.504 0,-2.1428 -0.4632,-0.92644 -2.8726,-2.4689 -3.5714,-2.8572 -1.3962,-0.77566 -2.9313,-1.2963 -4.2857,-2.1428 -0.5711,-0.35692 -0.8132,-1.1551 -1.4286,-1.4286 -3.8287,-1.7017 -5.6347,-1.4286 -9.2857,-1.4286 -1.1905,0 -2.4229,-0.31323 -3.5714,0 -2.86,0.77999 -4.1358,2.1958 -6.4286,3.5714 -0.4565,0.27392 -1.1464,0.26282 -1.4286,0.71429 -9.1652,-0.17346 -1.2331,3.8948 -2.1428,5.7143 -0.1506,0.30117 -0.5275,0.43412 -0.7143,0.71429 -0.2953,0.44298 -0.4404,0.97204 -0.7143,1.4286 -1.0062,1.677 -1.4898,1.9387 -2.1429,3.5714 -0.7457,1.8644 -1.0101,4.0153 -2.1428,5.7143 -1.8107,2.716 0.5224,-3.5359 -2.1429,3.5714 -0.2381,0.95238 -0.4762,1.9048 -0.7143,2.8572 -0.2381,0.23809 -0.5637,0.41311 -0.7142,0.71428 -0.213,0.42592 0.3367,1.0919 0,1.4286 -0.3765,0.37647 -1.0522,0.33783 -1.4286,0.71429 -0.4762,0.71429 -0.9524,1.4286 -1.4286,2.1429 0,0.23809 0.1065,0.50132 0,0.71428 -0.1506,0.30117 -0.5275,0.43412 -0.7143,0.71429 -0.2953,0.44298 -0.4403,0.97204 -0.7143,1.4286 -1.5405,2.5676 -2.0047,2.3049 -2.8571,5.7143 -0.1732,0.69295 0,1.4286 0,2.1428 0,2.0382 -0.1318,3.7401 0.7143,5.7143 0.3381,0.78905 1.0904,1.3538 1.4286,2.1429 0.3867,0.90231 0.2092,2.0153 0.7142,2.8571 0.274,0.45652 0.9856,0.41896 1.4286,0.71428 0.9905,0.66036 2.0154,1.3011 2.8572,2.1429 0.1683,0.16836 -0.1684,0.54593 0,0.71429 0.1683,0.16836 0.4761,0 0.7142,0 h 0.7143 c 0.4371,0 5.2435,0.1345 5.7143,0 1.2329,-0.35225 2.381,-0.95238 -1.4286,-5.7143 z"
         id="path4063" /><path
         d="m -1607.1,885.22 c -0.495,-2.0759 1.5413,-3.1954 2.1429,-5 0.075,-0.22588 0,-0.4762 0,-0.71429 0.9524,-1.9048 1.7615,-3.8882 2.8571,-5.7143 0.3506,-0.5842 2.5605,-2.2638 2.8572,-2.8571 0.2129,-0.42592 -0.3367,-1.0918 0,-1.4286 0.1683,-0.16836 0.4833,0.0577 0.7143,0 0.7304,-0.18261 1.4285,-0.47619 2.1428,-0.71429 0.1891,-0.063 2.8321,-1.084 3.5715,-0.71428 3.3539,1.677 0.8986,1.0737 3.5714,2.1429 0.6991,0.27962 1.5044,0.31523 2.1428,0.71428 0.3608,0.22548 4.4883,3.7953 5.7143,4.2857 1.0895,0.43577 1.9771,-0.27425 2.8572,-0.71429 0.4762,-0.2381 1.0026,-0.39485 1.4285,-0.71429 5.1379,-3.8534 -1.5074,0.79313 2.1429,-2.8571 0.3765,-0.37646 1.1332,-0.2713 1.4286,-0.71428 0.2641,-0.39622 -0.078,-0.95886 0,-1.4286 0.3227,-1.9367 0.9524,-3.8095 1.4285,-5.7143 0.4364,-1.7452 1.0886,-3.843 0.7143,-5.7143 -0.4521,-2.2606 -3.2032,-3.1958 -4.2857,-5 -0.245,-0.40833 0,-0.95238 0,-1.4286 -1.1905,-0.71428 -2.4755,-1.2905 -3.5714,-2.1429 -1.0632,-0.82689 -1.8225,-1.9949 -2.8572,-2.8571 -0.409,-0.34083 -1.0128,-0.3817 -1.4285,-0.71428 -2.6424,-2.1139 -1.209,-2.2418 -4.2857,-2.8572 -0.467,-0.0934 -0.963,-0.0998 -1.4286,0 -2.8797,0.61708 -5.8193,1.0944 -8.5714,2.1429 -2.2908,0.87267 -4.2703,2.4092 -6.4286,3.5714 -2.5114,1.3523 -3.2894,1.1766 -5,3.5714 -0.6189,0.86646 -0.8379,1.9712 -1.4286,2.8571 -0.3735,0.56033 -1.1274,0.82623 -1.4286,1.4286 -0.2129,0.42592 0,0.95238 0,1.4286 v 5.7143 c 0,2.4103 0.1155,0.9666 -0.7142,4.2857 -0.2381,0.95238 -0.4039,1.9258 -0.7143,2.8572 -4.5877,13.763 1.7429,-7.6861 -2.1429,7.8571 -0.1291,0.5165 -0.6099,0.90651 -0.7143,1.4286 -0.1401,0.70041 0.1175,1.4383 0,2.1429 -0.1238,0.74268 -0.5316,1.4124 -0.7143,2.1428 -0.073,0.29388 -0.092,4.6303 0,5 0.1292,0.5165 0.6099,0.90652 0.7143,1.4286 0.1876,0.93763 0,3.1501 0,4.2857 v 0.71429 c 0,0.23809 -0.1065,0.50132 0,0.71428 0.6209,1.2418 1.4286,2.381 9.2857,-10.714 z"
         id="path4065" /><path
         d="m -1580.7,678.08 h 2.8572 c 0.2381,0 0.5459,0.16836 0.7142,0 0.1684,-0.16836 -0.1981,-0.58222 0,-0.71429 0.6265,-0.41764 1.5164,-0.29664 2.1429,-0.71428 0.3962,-0.26415 -0.2641,-1.0324 0,-1.4286 0.3736,-0.56034 1.055,-0.86824 1.4286,-1.4286 0.132,-0.1981 0,-0.47619 0,-0.71428 0,-0.47619 -0.1155,-0.9666 0,-1.4286 0.1291,-0.5165 0.9524,-0.95238 0.7143,-1.4286 -0.213,-0.42592 -0.9524,0 -1.4286,0 -0.4762,0 -1.0567,-0.29748 -1.4286,0 -0.9296,0.74368 -1.3681,1.9533 -2.1428,2.8571 -2.2056,2.5732 -2.5397,2.381 -2.8572,5 z"
         id="path4067" /></g><path
       d="m -1572,643.22 c 0,0 -7.0674,0.66325 -10.036,6.147 -2.9681,5.4837 2.2848,12.477 2.2848,12.477 l -8.9488,27.992 -12.084,4.172 -4.4115,64.679 c 0,0 -29.492,123.21 -44.876,162.1 -15.384,38.885 -39.699,73.141 -39.699,73.141 l 65.122,47.818 15.513,-0.1258 1.4109,-14.808 c -24.348,-1.6693 -44,-20.486 -44.228,-43.626 -0.2403,-24.407 20.804,-44.414 47.024,-44.672 1.73,-0.017 3.571,0.0787 5.251,0.22685 l 3.257,-34.409 c -6.4509,-0.20614 -11.702,-3.514 -11.947,-7.6769 l -0.031,-0.003 -0.017,-0.15841 c 0,-0.0316 0.01,-0.0616 0.01,-0.0934 0,-0.13437 0.025,-0.27206 0.037,-0.40458 l 0.01,-0.43851 0.9505,-26.649 c -0.1596,-0.75349 -0.2494,-1.5496 -0.2573,-2.3455 -0.069,-6.9733 5.9599,-12.662 13.491,-12.736 0.801,-0.008 1.823,0.0582 2.5888,0.17284 l 3.0872,-33.922 v -0.0311 l 0.065,-0.71579 -17.537,-13.144 12.064,-31.191 9.0904,-0.58477 0.5036,-0.0169 3.8039,-40.76 c -5.3297,-0.37598 -9.5961,-4.7324 -9.6495,-10.166 -0.056,-5.7181 4.5842,-10.397 10.302,-10.453 0.4539,-0.004 0.8812,0.007 1.3129,0.0567 l 3.1298,-33.354 c -1.3131,-0.41722 -2.3151,-1.7446 -2.331,-3.35 -0.019,-1.8909 1.3219,-3.4132 2.9881,-3.5249 v -0.0311 l 2.7552,-29.591 z m -16.5,176.83 0.9846,-0.47522 v -0.0311 l -0.9875,0.50634 z m 0.9846,-0.47522 -3.339,34.621 c 0.7737,0.0293 1.5429,0.11843 2.3285,0.27467 7.3869,1.4693 12.387,8.1904 11.027,15.03 -0.1553,0.78057 -0.4113,1.5468 -0.7075,2.2577 l -3.9974,26.34 -0.04,0.4357 c -0.012,0.13233 -0.011,0.27283 -0.037,0.40458 0,0.0314 -0.026,0.0597 -0.039,0.0906 l -0.014,0.15561 -0.031,-0.003 c -1.0123,4.0454 -6.7848,6.3226 -13.162,5.329 l -3.1943,34.415 c 1.6783,0.16592 3.5032,0.4495 5.2001,0.78703 25.717,5.1152 42.682,28.652 37.921,52.591 -4.5143,22.69703 -27.309,37.56403 -51.544,34.69003 l -1.379,14.811 15.23,2.9863 72.87,-34.914 c 0,0 -17.548,-38.16303 -25.455,-79.22703 -7.907,-41.064 -14.025,-167.59 -14.025,-167.59 l 7.651,-64.415 -11.13,-6.316 -3.5902,-29.164 c 0,0 6.4617,-5.9151 4.5618,-11.854 -1.9,-5.939 -8.7247,-7.9171 -8.7247,-7.9171 l -2.7552,29.591 v 0.0311 c 1.6164,0.41872 2.6065,2.1772 2.2375,4.0319 -0.3131,1.5747 -1.5297,2.7077 -2.8975,2.8742 l -3.0951,33.325 c -0.035,-0.002 -0.063,0.0235 -0.096,0.0225 0.4657,0.0289 0.918,0.0949 1.3948,0.1897 5.6085,1.1156 9.2967,6.558 8.181,12.167 -1.06,5.3299 -6.0475,8.8422 -11.354,8.2235 l -3.8039,40.76 0.4923,0.10756 8.8016,2.2444 6.0767,32.874 -19.557,9.7364 z m 12.918,-146.78 c 0.2254,-0.002 0.4349,0.0386 0.6507,0.0906 -0.218,-0.0509 -0.4189,-0.0928 -0.6507,-0.0906 z m 0.5489,0.17547 c -0.2212,-0.0439 -0.4349,-0.0393 -0.6565,-0.0284 0.2238,-0.0102 0.4292,-0.0171 0.6565,0.0284 z"
       fill="#d8d6dc"
       stroke-width="1px"
       stroke="#d3d1d7"
       id="path3785" /><g
       transform="matrix(1.312,0,0,1.312,-593.67,536.53)"
       id="g3910"><path
         fill="#b6adb2"
         stroke-width="0.2"
         stroke-linecap="square"
         stroke="#e6e6e6"
         transform="translate(-5,2)"
         d="m -517.14,244.86 c 0,8.087 -7.835,14.643 -17.5,14.643 -9.665,0 -17.5,-6.5558 -17.5,-14.643 0,-8.087 7.835,-14.643 17.5,-14.643 9.665,0 17.5,6.5558 17.5,14.643 z"
         stroke-linejoin="round"
         id="path3912" /><path
         fill="#ffffff"
         stroke-width="0.2"
         stroke-linecap="square"
         stroke="#e6e6e6"
         transform="translate(-5,-1.4286)"
         d="m -517.14,244.86 c 0,8.087 -7.835,14.643 -17.5,14.643 -9.665,0 -17.5,-6.5558 -17.5,-14.643 0,-8.087 7.835,-14.643 17.5,-14.643 9.665,0 17.5,6.5558 17.5,14.643 z"
         stroke-linejoin="round"
         id="path3914" /><path
         d="m -537.5,248.08 -4.6862,-3.4802 -4.749,3.3939 0.67085,-5.7984 -5.3137,-2.4158 5.357,-2.3182 -0.56467,-5.8097 4.6862,3.4802 4.749,-3.3939 -0.67086,5.7984 5.3137,2.4158 -5.357,2.3182 0.56466,5.8097 z"
         fill="url(#radialGradient4584)"
         transform="matrix(1,-0.039977,-0.080307,1.0032,21.359,-19.921)"
         id="path3916"
         style="fill:url(#radialGradient1597)" /><path
         transform="matrix(0.70916,-0.02835,-0.056951,0.71144,-142.31,58.162)"
         fill="#f2f0f1"
         d="m -537.5,248.08 -4.6686,-5.4017 -4.7666,5.3154 2.3437,-6.744 -6.9866,-1.4703 7.0123,-1.3422 -2.22,-6.7857 4.6686,5.4017 4.7666,-5.3154 -2.3437,6.744 6.9866,1.4703 -7.0123,1.3423 2.22,6.7857 z"
         id="path3918" /></g><g
       transform="matrix(0.93546,0,0,0.93546,-833.14,421.22)"
       id="g3922"><path
         fill="#b6adb2"
         stroke-width="0.2"
         stroke-linecap="square"
         stroke="#e6e6e6"
         transform="translate(-5,2)"
         d="m -517.14,244.86 c 0,8.087 -7.835,14.643 -17.5,14.643 -9.665,0 -17.5,-6.5558 -17.5,-14.643 0,-8.087 7.835,-14.643 17.5,-14.643 9.665,0 17.5,6.5558 17.5,14.643 z"
         stroke-linejoin="round"
         id="path3924" /><path
         fill="#ffffff"
         stroke-width="0.2"
         stroke-linecap="square"
         stroke="#e6e6e6"
         transform="translate(-5,-1.4286)"
         d="m -517.14,244.86 c 0,8.087 -7.835,14.643 -17.5,14.643 -9.665,0 -17.5,-6.5558 -17.5,-14.643 0,-8.087 7.835,-14.643 17.5,-14.643 9.665,0 17.5,6.5558 17.5,14.643 z"
         stroke-linejoin="round"
         id="path3926" /><path
         d="m -537.5,248.08 -4.6862,-3.4802 -4.749,3.3939 0.67085,-5.7984 -5.3137,-2.4158 5.357,-2.3182 -0.56467,-5.8097 4.6862,3.4802 4.749,-3.3939 -0.67086,5.7984 5.3137,2.4158 -5.357,2.3182 0.56466,5.8097 z"
         fill="url(#radialGradient4584)"
         transform="matrix(1,-0.039977,-0.080307,1.0032,21.359,-19.921)"
         id="path3928"
         style="fill:url(#radialGradient1599)" /><path
         transform="matrix(0.70916,-0.02835,-0.056951,0.71144,-142.31,58.162)"
         fill="#f2f0f1"
         d="m -537.5,248.08 -4.6686,-5.4017 -4.7666,5.3154 2.3437,-6.744 -6.9866,-1.4703 7.0123,-1.3422 -2.22,-6.7857 4.6686,5.4017 4.7666,-5.3154 -2.3437,6.744 6.9866,1.4703 -7.0123,1.3423 2.22,6.7857 z"
         id="path3930" /></g><g
       transform="matrix(0.91376,0,0,0.91376,-1750.9,462.43)"
       id="g3934"><path
         fill="#b6adb2"
         stroke-width="0.2"
         stroke-linecap="square"
         stroke="#e6e6e6"
         transform="translate(-5,2)"
         d="m -517.14,244.86 c 0,8.087 -7.835,14.643 -17.5,14.643 -9.665,0 -17.5,-6.5558 -17.5,-14.643 0,-8.087 7.835,-14.643 17.5,-14.643 9.665,0 17.5,6.5558 17.5,14.643 z"
         stroke-linejoin="round"
         id="path3936" /><path
         fill="#ffffff"
         stroke-width="0.2"
         stroke-linecap="square"
         stroke="#e6e6e6"
         transform="translate(-5,-1.4286)"
         d="m -517.14,244.86 c 0,8.087 -7.835,14.643 -17.5,14.643 -9.665,0 -17.5,-6.5558 -17.5,-14.643 0,-8.087 7.835,-14.643 17.5,-14.643 9.665,0 17.5,6.5558 17.5,14.643 z"
         stroke-linejoin="round"
         id="path3938" /><path
         transform="matrix(1,-0.039977,-0.080307,1.0032,21.359,-19.921)"
         fill="url(#radialGradient4584)"
         d="m -537.5,248.08 -4.6862,-3.4802 -4.749,3.3939 0.67085,-5.7984 -5.3137,-2.4158 5.357,-2.3182 -0.56467,-5.8097 4.6862,3.4802 4.749,-3.3939 -0.67086,5.7984 5.3137,2.4158 -5.357,2.3182 0.56466,5.8097 z"
         id="path3940"
         style="fill:url(#radialGradient1601)" /><path
         d="m -537.5,248.08 -4.6686,-5.4017 -4.7666,5.3154 2.3437,-6.744 -6.9866,-1.4703 7.0123,-1.3422 -2.22,-6.7857 4.6686,5.4017 4.7666,-5.3154 -2.3437,6.744 6.9866,1.4703 -7.0123,1.3423 2.22,6.7857 z"
         fill="#f2f0f1"
         transform="matrix(0.70916,-0.02835,-0.056951,0.71144,-142.31,58.162)"
         id="path3942" /></g><path
       fill-opacity="0.45161"
       fill="#ffffff"
       d="m -1862.5,995.93 108.93,-12.5 3.2143,13.571 -110.71,16.429 -1.4286,-17.5 z"
       id="path3954" /><path
       d="m -1424.3,555.37 c -6.2996,-16.691 -16.316,-24.451 -24.244,-42.341 -3.104,-15.898 -11.541,-21.292 -22.223,-34.43 -5.2547,-9.0099 -7.7231,-13.406 -20.203,-24.244 -12.21,-15.955 -19.369,-26.801 -34.345,-38.386 -14.511,-7.4556 -28.729,-16.158 -36.366,-26.264 -18.133,-14.282 -36.963,-16.815 -58.589,-26.264 -21.898,-5.5331 -45.544,-3.7523 -68.69,-4.0406 -22.725,-1.4615 -39.814,-15.139 -64.089,-12.271 -19.366,3.7247 -34.04,16.224 -32.885,32.304 0.2983,19.236 5.6798,26.337 18.183,40.576 15.47,11.145 33.305,11.925 51.082,20.49 22.283,8.8044 43.148,20.606 65.563,31.548 22.272,7.2296 26.829,36.207 42.96,53.018 5.7753,28.56 25.686,51.017 34.345,78.792 10.065,18.065 12.771,44.474 26.264,56.569 7.7573,12.433 34.969,3.6951 50.508,4.0406 15.826,-3.891 40.981,-10.677 36.366,-31.985 1.4404,-10.121 -2.832,-25.955 2.0203,-32.665 3.3028,-12.278 17.566,-15.615 28.284,-26.264 3.3105,-5.55 4.9768,-11.875 6.0609,-18.183 z"
       fill="#aaa4a4"
       filter="url(#filter4053)"
       id="path3967" /><path
       d="m -1745.5,789.72 c -5.7935,3.9586 -20.479,1.2519 -30.305,2.0203 -26.96,-16.669 -61.948,-21.28 -82.832,-42.426 -17.3,-3.7296 -23.998,-20.283 -46.473,-18.071 -30.768,-0.43596 -48.982,-15.956 -72.725,-32.436 -17.648,-13.142 -21.736,-30.432 -22.223,-52.188 v -95.294 c -9.2646,-11.904 -21.171,-20.604 -38.386,-26.264 -25.985,-2.4833 -57.071,-17.392 -70.711,12.122 -10.118,18.909 -21.779,33.696 -28.284,46.467 -8.5419,7.2247 -10.631,28.343 -20.203,32.325 -3.2921,11.632 -17.742,24.835 -20.314,40.008 0.2632,22.354 0.018,44.718 0.1108,67.068 4.3523,7.7695 0.044,24.2 6.0609,30.305 7.8804,9.637 14.807,25.312 28.284,34.345 10.582,11.563 25.755,20.513 30.305,28.284 13.11,3.1697 27.694,15.584 40.406,22.223 17.283,4.4151 28.862,17.788 44.447,26.264 14.174,8.5018 26.567,12.666 43.681,22.02 8.3182,9.1586 33.973,28.098 51.273,38.589 12.595,14.959 27.826,15.317 48.487,20.203 16.62,-0.74234 31.153,1.5521 46.913,4.378 15.6,3.4098 32.049,0.9282 48.042,1.683 14.509,-4.0245 45.929,-10.365 68.69,-20.203 17.465,-4.1102 24.321,-18.78 34.345,-32.325 10.671,-13.139 2.6609,-33.512 8.2169,-48.253 -0.8871,-11.578 1.5587,-26.065 -2.156,-34.579 -4.973,-14.756 -27.71,-18.163 -44.447,-22.223 -7.0241,0.82851 -12.514,-6.454 -20.203,-4.0406 z"
       fill="#aaa4a4"
       filter="url(#filter4057)"
       id="path3969" /><path
       d="m -1733.4,189.69 -651.63,388 757.18,841.38 674.86,-475.6 -780.42,-753.77 z m -62.781,109.19 c 5.2714,-0.0613 10.42,-0.0221 15.344,0.1875 40.104,1.7073 74.712,11.668 99.625,11.094 24.912,-0.57427 26.51,-12.168 46.781,-8.5938 20.618,3.6358 54.656,46.094 54.656,46.094 l 118.94,120.72 c 7.4616,13.724 34.745,46.902 41.625,65.594 6.5487,17.792 15.229,72.033 39.094,85.094 40.021,19.153 52.916,-1.7869 68.188,2.5 15.271,4.2869 232.5,221.09 232.5,221.09 l -9.625,155 -171.78,120.72 c 0,0 -42.872,-24.131 -74.281,-2.875 -31.164,21.091 -14.312,71.438 -14.312,71.438 l -171.41,118.56 -197.16,-15.719 -221.44,-250 c 0,0 14.744,-52.353 7.1563,-74.281 -7.588,-21.929 -165.72,-92.844 -165.72,-92.844 0,0 -160.83,-170.99 -162.84,-177.34 -2.0633,-6.5178 10.786,-30.655 3.2187,-35.531 -7.5675,-4.8761 -25.158,15.189 -32.5,7.875 -7.3424,-7.3142 8.5703,-126.22 36.781,-154.28 28.712,-28.563 326.78,-199.31 326.78,-199.31 l 51.438,-8.5625 c 0,0 42.038,-6.1957 78.938,-6.625 z"
       fill="#313237"
       id="path4089" /><path
       fill="#808080"
       d="m -1642.5,1402.9 30.305,5.0507 -15.657,12.122 -14.647,-17.173 z"
       id="path4356" /><g
       id="g4296"><path
         fill="#b6adb2"
         stroke-width="0.2"
         stroke-linecap="square"
         stroke="#e6e6e6"
         transform="matrix(0.91376,0,0,0.91376,-1845.3,364.11)"
         d="m -517.14,244.86 c 0,8.087 -7.835,14.643 -17.5,14.643 -9.665,0 -17.5,-6.5558 -17.5,-14.643 0,-8.087 7.835,-14.643 17.5,-14.643 9.665,0 17.5,6.5558 17.5,14.643 z"
         stroke-linejoin="round"
         id="path4152" /><path
         d="m -2473.9,699.82 c 0,4.9064 -3.9774,8.8839 -8.8839,8.8839 -4.9065,0 -8.8839,-3.9775 -8.8839,-8.8839 0,-4.9065 3.9774,-8.8839 8.8839,-8.8839 4.9065,0 8.8839,3.9775 8.8839,8.8839 z"
         fill="#808080"
         transform="matrix(1.201,0,0,0.8191,648.25,13.832)"
         id="path4154" /><path
         fill="#ffffff"
         stroke-width="0.2"
         stroke-linecap="square"
         stroke="#e6e6e6"
         transform="matrix(0.91376,0,0,0.91376,-1845.3,360.98)"
         d="m -517.14,244.86 c 0,8.087 -7.835,14.643 -17.5,14.643 -9.665,0 -17.5,-6.5558 -17.5,-14.643 0,-8.087 7.835,-14.643 17.5,-14.643 9.665,0 17.5,6.5558 17.5,14.643 z"
         stroke-linejoin="round"
         id="path4156" /><path
         d="m -2473.9,699.82 c 0,4.9064 -3.9774,8.8839 -8.8839,8.8839 -4.9065,0 -8.8839,-3.9775 -8.8839,-8.8839 0,-4.9065 3.9774,-8.8839 8.8839,-8.8839 4.9065,0 8.8839,3.9775 8.8839,8.8839 z"
         fill="#f2f0f1"
         transform="matrix(0.98492,0,0,0.63414,111.99,144.04)"
         id="path4158" /><path
         d="m -2473.9,699.82 c 0,4.9064 -3.9774,8.8839 -8.8839,8.8839 -4.9065,0 -8.8839,-3.9775 -8.8839,-8.8839 0,-4.9065 3.9774,-8.8839 8.8839,-8.8839 4.9065,0 8.8839,3.9775 8.8839,8.8839 z"
         fill="#808080"
         transform="matrix(1.201,0,0,1.0905,648.25,-178.48)"
         id="path4160" /><path
         d="m -2473.9,699.82 c 0,4.9064 -3.9774,8.8839 -8.8839,8.8839 -4.9065,0 -8.8839,-3.9775 -8.8839,-8.8839 0,-4.9065 3.9774,-8.8839 8.8839,-8.8839 4.9065,0 8.8839,3.9775 8.8839,8.8839 z"
         fill="#f2f0f1"
         transform="matrix(0.98492,0,0,0.84422,111.99,-5.135)"
         id="path4162" /></g><g
       transform="translate(-684.88,135.36)"
       id="g4288"><path
         fill="#b6adb2"
         stroke-width="0.2"
         stroke-linecap="square"
         stroke="#e6e6e6"
         transform="matrix(0.91376,0,0,0.91376,-568.2,-130.17)"
         d="m -517.14,244.86 c 0,8.087 -7.835,14.643 -17.5,14.643 -9.665,0 -17.5,-6.5558 -17.5,-14.643 0,-8.087 7.835,-14.643 17.5,-14.643 9.665,0 17.5,6.5558 17.5,14.643 z"
         stroke-linejoin="round"
         id="path4164" /><path
         d="m -2473.9,699.82 c 0,4.9064 -3.9774,8.8839 -8.8839,8.8839 -4.9065,0 -8.8839,-3.9775 -8.8839,-8.8839 0,-4.9065 3.9774,-8.8839 8.8839,-8.8839 4.9065,0 8.8839,3.9775 8.8839,8.8839 z"
         fill="#808080"
         transform="matrix(1.201,0,0,0.8191,1925.4,-480.45)"
         id="path4166" /><path
         fill="#ffffff"
         stroke-width="0.2"
         stroke-linecap="square"
         stroke="#e6e6e6"
         transform="matrix(0.91376,0,0,0.91376,-568.2,-133.31)"
         d="m -517.14,244.86 c 0,8.087 -7.835,14.643 -17.5,14.643 -9.665,0 -17.5,-6.5558 -17.5,-14.643 0,-8.087 7.835,-14.643 17.5,-14.643 9.665,0 17.5,6.5558 17.5,14.643 z"
         stroke-linejoin="round"
         id="path4168" /><path
         d="m -2473.9,699.82 c 0,4.9064 -3.9774,8.8839 -8.8839,8.8839 -4.9065,0 -8.8839,-3.9775 -8.8839,-8.8839 0,-4.9065 3.9774,-8.8839 8.8839,-8.8839 4.9065,0 8.8839,3.9775 8.8839,8.8839 z"
         fill="#f2f0f1"
         transform="matrix(0.98492,0,0,0.63414,1389.1,-350.25)"
         id="path4170" /><path
         d="m -2473.9,699.82 c 0,4.9064 -3.9774,8.8839 -8.8839,8.8839 -4.9065,0 -8.8839,-3.9775 -8.8839,-8.8839 0,-4.9065 3.9774,-8.8839 8.8839,-8.8839 4.9065,0 8.8839,3.9775 8.8839,8.8839 z"
         fill="#808080"
         transform="matrix(1.201,0,0,1.0905,1925.4,-672.76)"
         id="path4172" /><path
         d="m -2473.9,699.82 c 0,4.9064 -3.9774,8.8839 -8.8839,8.8839 -4.9065,0 -8.8839,-3.9775 -8.8839,-8.8839 0,-4.9065 3.9774,-8.8839 8.8839,-8.8839 4.9065,0 8.8839,3.9775 8.8839,8.8839 z"
         fill="#f2f0f1"
         transform="matrix(0.98492,0,0,0.84422,1389.1,-499.42)"
         id="path4174" /></g><g
       id="g4338"><path
         fill="#b6adb2"
         stroke-width="0.2"
         stroke-linecap="square"
         stroke="#e6e6e6"
         transform="matrix(0.91376,0,0,0.91376,-522.48,712.68)"
         d="m -517.14,244.86 c 0,8.087 -7.835,14.643 -17.5,14.643 -9.665,0 -17.5,-6.5558 -17.5,-14.643 0,-8.087 7.835,-14.643 17.5,-14.643 9.665,0 17.5,6.5558 17.5,14.643 z"
         stroke-linejoin="round"
         id="path4176" /><path
         d="m -2473.9,699.82 c 0,4.9064 -3.9774,8.8839 -8.8839,8.8839 -4.9065,0 -8.8839,-3.9775 -8.8839,-8.8839 0,-4.9065 3.9774,-8.8839 8.8839,-8.8839 4.9065,0 8.8839,3.9775 8.8839,8.8839 z"
         fill="#808080"
         transform="matrix(1.201,0,0,0.8191,1971.1,362.4)"
         id="path4178" /><path
         fill="#ffffff"
         stroke-width="0.2"
         stroke-linecap="square"
         stroke="#e6e6e6"
         transform="matrix(0.91376,0,0,0.91376,-522.48,709.55)"
         d="m -517.14,244.86 c 0,8.087 -7.835,14.643 -17.5,14.643 -9.665,0 -17.5,-6.5558 -17.5,-14.643 0,-8.087 7.835,-14.643 17.5,-14.643 9.665,0 17.5,6.5558 17.5,14.643 z"
         stroke-linejoin="round"
         id="path4180" /><path
         d="m -2473.9,699.82 c 0,4.9064 -3.9774,8.8839 -8.8839,8.8839 -4.9065,0 -8.8839,-3.9775 -8.8839,-8.8839 0,-4.9065 3.9774,-8.8839 8.8839,-8.8839 4.9065,0 8.8839,3.9775 8.8839,8.8839 z"
         fill="#f2f0f1"
         transform="matrix(0.98492,0,0,0.63414,1434.8,492.61)"
         id="path4182" /><path
         d="m -2473.9,699.82 c 0,4.9064 -3.9774,8.8839 -8.8839,8.8839 -4.9065,0 -8.8839,-3.9775 -8.8839,-8.8839 0,-4.9065 3.9774,-8.8839 8.8839,-8.8839 4.9065,0 8.8839,3.9775 8.8839,8.8839 z"
         fill="#808080"
         transform="matrix(1.201,0,0,1.0905,1971.1,170.09)"
         id="path4184" /><path
         d="m -2473.9,699.82 c 0,4.9064 -3.9774,8.8839 -8.8839,8.8839 -4.9065,0 -8.8839,-3.9775 -8.8839,-8.8839 0,-4.9065 3.9774,-8.8839 8.8839,-8.8839 4.9065,0 8.8839,3.9775 8.8839,8.8839 z"
         fill="#f2f0f1"
         transform="matrix(0.98492,0,0,0.84422,1434.8,343.44)"
         id="path4186" /></g><path
       fill="#ffffff"
       d="m -1718.6,1408.4 -1.4014,-41.718 64.041,69.928 -1.1835,50.072 -61.456,-78.282 z"
       id="path4224" /><path
       fill="#b3b3b3"
       d="m -1718.8,1401.4 17.425,-15.657 -19.193,-19.445 1.7677,35.103 z"
       id="path4226" /><g
       id="g4330"><path
         fill="#b6adb2"
         stroke-width="0.2"
         stroke-linecap="square"
         stroke="#e6e6e6"
         transform="matrix(0.91376,0,0,0.91376,-1128.2,1138.4)"
         d="m -517.14,244.86 c 0,8.087 -7.835,14.643 -17.5,14.643 -9.665,0 -17.5,-6.5558 -17.5,-14.643 0,-8.087 7.835,-14.643 17.5,-14.643 9.665,0 17.5,6.5558 17.5,14.643 z"
         stroke-linejoin="round"
         id="path4188" /><path
         d="m -2473.9,699.82 c 0,4.9064 -3.9774,8.8839 -8.8839,8.8839 -4.9065,0 -8.8839,-3.9775 -8.8839,-8.8839 0,-4.9065 3.9774,-8.8839 8.8839,-8.8839 4.9065,0 8.8839,3.9775 8.8839,8.8839 z"
         fill="#808080"
         transform="matrix(1.201,0,0,0.8191,1365.4,788.12)"
         id="path4190" /><path
         fill="#ffffff"
         stroke-width="0.2"
         stroke-linecap="square"
         stroke="#e6e6e6"
         transform="matrix(0.91376,0,0,0.91376,-1128.2,1135.3)"
         d="m -517.14,244.86 c 0,8.087 -7.835,14.643 -17.5,14.643 -9.665,0 -17.5,-6.5558 -17.5,-14.643 0,-8.087 7.835,-14.643 17.5,-14.643 9.665,0 17.5,6.5558 17.5,14.643 z"
         stroke-linejoin="round"
         id="path4192" /><path
         d="m -2473.9,699.82 c 0,4.9064 -3.9774,8.8839 -8.8839,8.8839 -4.9065,0 -8.8839,-3.9775 -8.8839,-8.8839 0,-4.9065 3.9774,-8.8839 8.8839,-8.8839 4.9065,0 8.8839,3.9775 8.8839,8.8839 z"
         fill="#f2f0f1"
         transform="matrix(0.98492,0,0,0.63414,829.13,918.33)"
         id="path4194" /><path
         d="m -2473.9,699.82 c 0,4.9064 -3.9774,8.8839 -8.8839,8.8839 -4.9065,0 -8.8839,-3.9775 -8.8839,-8.8839 0,-4.9065 3.9774,-8.8839 8.8839,-8.8839 4.9065,0 8.8839,3.9775 8.8839,8.8839 z"
         fill="#808080"
         transform="matrix(1.201,0,0,1.0905,1365.4,595.81)"
         id="path4196" /><path
         d="m -2473.9,699.82 c 0,4.9064 -3.9774,8.8839 -8.8839,8.8839 -4.9065,0 -8.8839,-3.9775 -8.8839,-8.8839 0,-4.9065 3.9774,-8.8839 8.8839,-8.8839 4.9065,0 8.8839,3.9775 8.8839,8.8839 z"
         fill="#f2f0f1"
         transform="matrix(0.98492,0,0,0.84422,829.13,769.15)"
         id="path4198" /></g><g
       id="g4304"><path
         fill="#b6adb2"
         stroke-width="0.2"
         stroke-linecap="square"
         stroke="#e6e6e6"
         transform="matrix(0.91376,0,0,0.91376,-1482.5,761.26)"
         d="m -517.14,244.86 c 0,8.087 -7.835,14.643 -17.5,14.643 -9.665,0 -17.5,-6.5558 -17.5,-14.643 0,-8.087 7.835,-14.643 17.5,-14.643 9.665,0 17.5,6.5558 17.5,14.643 z"
         stroke-linejoin="round"
         id="path4200" /><path
         d="m -2473.9,699.82 c 0,4.9064 -3.9774,8.8839 -8.8839,8.8839 -4.9065,0 -8.8839,-3.9775 -8.8839,-8.8839 0,-4.9065 3.9774,-8.8839 8.8839,-8.8839 4.9065,0 8.8839,3.9775 8.8839,8.8839 z"
         fill="#808080"
         transform="matrix(1.201,0,0,0.8191,1011.1,410.98)"
         id="path4202" /><path
         fill="#ffffff"
         stroke-width="0.2"
         stroke-linecap="square"
         stroke="#e6e6e6"
         transform="matrix(0.91376,0,0,0.91376,-1482.5,758.12)"
         d="m -517.14,244.86 c 0,8.087 -7.835,14.643 -17.5,14.643 -9.665,0 -17.5,-6.5558 -17.5,-14.643 0,-8.087 7.835,-14.643 17.5,-14.643 9.665,0 17.5,6.5558 17.5,14.643 z"
         stroke-linejoin="round"
         id="path4204" /><path
         d="m -2473.9,699.82 c 0,4.9064 -3.9774,8.8839 -8.8839,8.8839 -4.9065,0 -8.8839,-3.9775 -8.8839,-8.8839 0,-4.9065 3.9774,-8.8839 8.8839,-8.8839 4.9065,0 8.8839,3.9775 8.8839,8.8839 z"
         fill="#f2f0f1"
         transform="matrix(0.98492,0,0,0.63414,474.85,541.18)"
         id="path4206" /><path
         d="m -2473.9,699.82 c 0,4.9064 -3.9774,8.8839 -8.8839,8.8839 -4.9065,0 -8.8839,-3.9775 -8.8839,-8.8839 0,-4.9065 3.9774,-8.8839 8.8839,-8.8839 4.9065,0 8.8839,3.9775 8.8839,8.8839 z"
         fill="#808080"
         transform="matrix(1.201,0,0,1.0905,1011.1,218.66)"
         id="path4208" /><path
         d="m -2473.9,699.82 c 0,4.9064 -3.9774,8.8839 -8.8839,8.8839 -4.9065,0 -8.8839,-3.9775 -8.8839,-8.8839 0,-4.9065 3.9774,-8.8839 8.8839,-8.8839 4.9065,0 8.8839,3.9775 8.8839,8.8839 z"
         fill="#f2f0f1"
         transform="matrix(0.98492,0,0,0.84422,474.85,392.01)"
         id="path4210" /></g><g
       id="g4346"><path
         fill="#b6adb2"
         stroke-width="0.2"
         stroke-linecap="square"
         stroke="#e6e6e6"
         transform="matrix(0.91376,0,0,0.91376,-882.48,369.83)"
         d="m -517.14,244.86 c 0,8.087 -7.835,14.643 -17.5,14.643 -9.665,0 -17.5,-6.5558 -17.5,-14.643 0,-8.087 7.835,-14.643 17.5,-14.643 9.665,0 17.5,6.5558 17.5,14.643 z"
         stroke-linejoin="round"
         id="path4212" /><path
         d="m -2473.9,699.82 c 0,4.9064 -3.9774,8.8839 -8.8839,8.8839 -4.9065,0 -8.8839,-3.9775 -8.8839,-8.8839 0,-4.9065 3.9774,-8.8839 8.8839,-8.8839 4.9065,0 8.8839,3.9775 8.8839,8.8839 z"
         fill="#808080"
         transform="matrix(1.201,0,0,0.8191,1611.1,19.547)"
         id="path4214" /><path
         fill="#ffffff"
         stroke-width="0.2"
         stroke-linecap="square"
         stroke="#e6e6e6"
         transform="matrix(0.91376,0,0,0.91376,-882.48,366.69)"
         d="m -517.14,244.86 c 0,8.087 -7.835,14.643 -17.5,14.643 -9.665,0 -17.5,-6.5558 -17.5,-14.643 0,-8.087 7.835,-14.643 17.5,-14.643 9.665,0 17.5,6.5558 17.5,14.643 z"
         stroke-linejoin="round"
         id="path4216" /><path
         d="m -2473.9,699.82 c 0,4.9064 -3.9774,8.8839 -8.8839,8.8839 -4.9065,0 -8.8839,-3.9775 -8.8839,-8.8839 0,-4.9065 3.9774,-8.8839 8.8839,-8.8839 4.9065,0 8.8839,3.9775 8.8839,8.8839 z"
         fill="#f2f0f1"
         transform="matrix(0.98492,0,0,0.63414,1074.8,149.75)"
         id="path4218" /><path
         d="m -2473.9,699.82 c 0,4.9064 -3.9774,8.8839 -8.8839,8.8839 -4.9065,0 -8.8839,-3.9775 -8.8839,-8.8839 0,-4.9065 3.9774,-8.8839 8.8839,-8.8839 4.9065,0 8.8839,3.9775 8.8839,8.8839 z"
         fill="#808080"
         transform="matrix(1.201,0,0,1.0905,1611.1,-172.76)"
         id="path4220" /><path
         d="m -2473.9,699.82 c 0,4.9064 -3.9774,8.8839 -8.8839,8.8839 -4.9065,0 -8.8839,-3.9775 -8.8839,-8.8839 0,-4.9065 3.9774,-8.8839 8.8839,-8.8839 4.9065,0 8.8839,3.9775 8.8839,8.8839 z"
         fill="#f2f0f1"
         transform="matrix(0.98492,0,0,0.84422,1074.8,0.5793)"
         id="path4222" /></g><path
       d="m -1472.8,1366.5 116.42,-82.327 -4.0079,42.005 -116.43,85.552 4.0181,-45.23 z"
       fill="#333333"
       stroke-width="1px"
       stroke="#000000"
       id="path4266" /><path
       d="m -1494.5,1396.3 3.5714,-42.054 17.894,11.497 -4.3904,45.717 z"
       stroke-width="1px"
       stroke="#000000"
       id="path4270" /><path
       fill="#d4aa00"
       stroke-width="12"
       stroke-linecap="round"
       stroke="#aa8800"
       d="m -1426.4,1320.2 22.143,13.571"
       id="path4278" /><path
       d="m -1356.4,1285.2 -3.5714,41.429 -32.857,-20.357 18.928,-32.5 17.5,11.428 z"
       fill="#676266"
       stroke-width="1px"
       stroke="#000000"
       id="path4274" /><path
       fill="#d4aa00"
       stroke-width="12"
       stroke-linecap="round"
       stroke="#aa8800"
       d="m -1450.7,1337.4 22.143,13.571"
       id="path4280" /><path
       fill="#d4aa00"
       stroke-width="12"
       stroke-linecap="round"
       stroke="#aa8800"
       d="m -1402.1,1303.1 22.143,13.571"
       id="path4276" /><path
       fill="#d4aa00"
       stroke-width="12"
       stroke-linecap="round"
       stroke="#aa8800"
       d="m -1475,1354.9 22.143,13.571"
       id="path4282" /><path
       d="m -1490.7,1353.6 116.5,-80.628 17.267,10.704 -116.17,81.822 -17.598,-11.898 z"
       stroke-width="1px"
       stroke="#000000"
       id="path4272" /><path
       fill="#cccccc"
       d="m -1641.3,1388.4 30.115,4.6088 -15.657,12.122 -14.458,-16.731 z"
       id="path4354" /><path
       d="m -1610.9,1393 4.5457,13.637 -21.971,15.91 v -18.688 l 17.425,-10.859 z"
       fill="#676266"
       id="path4358" /><path
       d="m -1641.2,1388.5 13.89,14.9 -1.389,22.476 -24.622,-28.284 12.122,-9.0914 z"
       fill="#848081"
       id="path4360" /><path
       fill="#cccccc"
       d="m -2367.4,554.25 -7.7018,24.208 -13.943,-12.6 21.644,-11.608 z"
       id="path4364" /><path
       fill="#808080"
       d="m -969.01,927.4 0.85427,-11.287 8.0148,23.693 -8.869,-12.406 z"
       id="path4378" /><path
       fill="#cccccc"
       d="m -967.8,939.96 -0.33408,-24.341 18.159,14.114 -17.824,10.226 z"
       id="path4380" /><path
       d="m -968.25,939.85 18.32,-10.34 -2.9195,15.568 -28.522,19.787 13.121,-25.016 z"
       fill="#676266"
       id="path4384" /><path
       fill="#cccccc"
       d="m -1747.3,190.56 27.394,2.8571 -13.881,-11.886 -13.513,9.0288 z"
       id="path4392" /><path
       d="m -1746.7,190.05 -23.06,22.371 18.688,-11.112 29.8,3.0305 13.637,9.0914 -13.724,-21.805 -25.34,-1.5765 z"
       fill="#313237"
       id="path4398" /><path
       fill="#848081"
       d="m -2382.9,595.22 -6.4286,-29.643 14.286,12.857 13.571,28.214 -21.428,-11.429 z"
       id="path4404" /><path
       d="m -2367.7,554.33 10.179,6.4286 -5.5357,42.143 -11.964,-24.464 7.3214,-24.107 z"
       fill="#999999"
       id="path4406" /><path
       fill="#999999"
       d="m -1747.1,189.94 -19.446,18.94 58.336,4.0406 -13.006,-21.339 -25.885,-1.6415 z"
       id="path4408" /></g></g></g>
<metadata
   id="metadata34"><rdf:RDF><cc:Work><dc:format>image/svg+xml</dc:format><dc:type
         rdf:resource="http://purl.org/dc/dcmitype/StillImage" /><cc:license
         rdf:resource="http://creativecommons.org/licenses/publicdomain/" /><dc:publisher><cc:Agent
           rdf:about="http://openclipart.org/"><dc:title>Openclipart</dc:title></cc:Agent></dc:publisher><dc:title></dc:title><dc:date>2010-12-15T19:46:59</dc:date><dc:description>RAM chip (stylized)</dc:description><dc:source>https://openclipart.org/detail/100861/ram-chip-by-pgbrandolin</dc:source><dc:creator><cc:Agent><dc:title>pgbrandolin</dc:title></cc:Agent></dc:creator><dc:subject><rdf:Bag><rdf:li>RAM</rdf:li><rdf:li>chip</rdf:li><rdf:li>computer</rdf:li><rdf:li>hardware</rdf:li></rdf:Bag></dc:subject></cc:Work><cc:License
       rdf:about="http://creativecommons.org/licenses/publicdomain/"><cc:permits
         rdf:resource="http://creativecommons.org/ns#Reproduction" /><cc:permits
         rdf:resource="http://creativecommons.org/ns#Distribution" /><cc:permits
         rdf:resource="http://creativecommons.org/ns#DerivativeWorks" /></cc:License></rdf:RDF></metadata></svg>
