<svg xmlns="http://www.w3.org/2000/svg" xmlns:xlink="http://www.w3.org/1999/xlink" xmlns:inkscape="http://www.inkscape.org/namespaces/inkscape" version="1.1" width="510.77418" height="344.74748" viewBox="0 0 510.77418 344.74748">
<g>
<path d="M249.473 87.809C225.578 111.703 225.578 150.445 249.473 174.34 273.367 198.234 312.109 198.234 336.004 174.34 359.898 150.445 359.898 111.703 336.004 87.809 312.109 63.914 273.367 63.914 249.473 87.809" fill="#a6a6a6"/>
<path d="M290.66 128.168C289.398 129.434 289.398 131.477 290.66 132.738 291.922 134 293.969 134 295.23 132.738 296.492 131.477 296.492 129.434 295.23 128.168 293.969 126.906 291.922 126.906 290.66 128.168" fill="#cacaca"/>
<path d="M353.656 148.902C340.152 162.406 340.152 184.301 353.656 197.809 367.16 211.313 389.059 211.313 402.563 197.809 416.066 184.301 416.066 162.406 402.563 148.902 389.059 135.398 367.16 135.398 353.656 148.902" fill="#a6a6a6"/>
<path d="M375.941 171.07C374.707 172.332 374.707 174.379 375.941 175.641 377.176 176.902 379.18 176.902 380.414 175.641 381.648 174.379 381.648 172.332 380.414 171.07 379.18 169.809 377.176 169.809 375.941 171.07" fill="#cacaca"/>
<path d="M354.207 285.715C340.703 299.219 340.703 321.113 354.207 334.621 367.711 348.125 389.605 348.125 403.113 334.621 416.617 321.113 416.617 299.219 403.113 285.715 389.605 272.211 367.711 272.211 354.207 285.715" fill="#cacaca" fill-opacity=".5"/>
<path d="M376.375 307.883C375.113 309.145 375.113 311.191 376.375 312.453 377.637 313.715 379.684 313.715 380.945 312.453 382.207 311.191 382.207 309.145 380.945 307.883 379.684 306.621 377.637 306.621 376.375 307.883" fill="#cacaca"/>
<path stroke-width=".773437" stroke-linecap="butt" stroke-linejoin="round" fill="none" stroke="#000000" d="M377.027 307.898 354.891 285.625"/>
<path d="M361.777 300.125 361.418 301.984H361.184C361.172 301.445 361.059 301.055 360.84 300.813 360.629 300.563 360.375 300.438 360.074 300.438 359.824 300.438 359.621 300.508 359.465 300.641 359.316 300.777 359.246 300.945 359.246 301.141 359.246 301.266 359.277 301.391 359.34 301.516 359.402 301.641 359.527 301.809 359.715 302.016 360.246 302.59 360.582 303.023 360.73 303.313 360.887 303.605 360.965 303.883 360.965 304.141 360.965 304.559 360.785 304.93 360.434 305.25 360.09 305.574 359.652 305.734 359.121 305.734 358.828 305.734 358.496 305.664 358.121 305.531 357.984 305.48 357.879 305.453 357.809 305.453 357.629 305.453 357.496 305.547 357.402 305.734H357.184L357.543 303.781H357.777C357.797 304.398 357.922 304.828 358.152 305.078 358.379 305.328 358.691 305.453 359.09 305.453 359.402 305.453 359.645 305.371 359.824 305.203 360 305.039 360.09 304.828 360.09 304.578 360.09 304.414 360.059 304.262 359.996 304.125 359.879 303.887 359.641 303.555 359.277 303.125 358.922 302.699 358.691 302.383 358.59 302.172 358.484 301.953 358.434 301.734 358.434 301.516 358.434 301.133 358.574 300.805 358.855 300.531 359.145 300.262 359.516 300.125 359.965 300.125 360.09 300.125 360.203 300.137 360.309 300.156 360.359 300.168 360.488 300.215 360.699 300.297 360.906 300.371 361.047 300.406 361.121 300.406 361.285 300.406 361.434 300.313 361.559 300.125ZM361.777 300.125"/>
<path d="M364 302.723C364.113 302.723 364.207 302.766 364.281 302.848 364.363 302.922 364.406 303.016 364.406 303.129 364.406 303.234 364.363 303.328 364.281 303.41 364.207 303.496 364.113 303.535 364 303.535 363.883 303.535 363.785 303.496 363.703 303.41 363.629 303.328 363.594 303.234 363.594 303.129 363.594 303.016 363.629 302.922 363.703 302.848 363.785 302.766 363.883 302.723 364 302.723ZM364.063 304.316 363.016 307.91C362.836 308.555 362.582 309.02 362.25 309.301 361.93 309.59 361.578 309.738 361.203 309.738 361.039 309.738 360.914 309.695 360.828 309.613 360.734 309.539 360.688 309.449 360.688 309.348 360.688 309.262 360.727 309.191 360.797 309.129 360.859 309.066 360.934 309.035 361.016 309.035 361.102 309.035 361.168 309.055 361.219 309.098 361.273 309.137 361.297 309.184 361.297 309.238 361.297 309.309 361.266 309.371 361.203 309.426 361.164 309.457 361.141 309.477 361.141 309.488V309.52C361.152 309.527 361.168 309.535 361.188 309.535 361.199 309.543 361.219 309.551 361.25 309.551 361.469 309.551 361.656 309.477 361.813 309.332 361.969 309.195 362.109 308.926 362.234 308.52L363.125 305.426C363.219 305.113 363.266 304.941 363.266 304.91 363.266 304.848 363.234 304.793 363.172 304.738 363.117 304.688 363.047 304.66 362.953 304.66 362.922 304.66 362.879 304.668 362.828 304.676 362.797 304.688 362.75 304.699 362.688 304.707V304.566ZM364.063 304.316"/>
<path d="M17.922 86.961C-5.973 110.832-5.973 149.527 17.922 173.398 41.816 197.266 80.559 197.266 104.457 173.398 128.352 149.527 128.352 110.832 104.457 86.961 80.559 63.094 41.816 63.094 17.922 86.961" fill="#cacaca" fill-opacity=".5"/>
<path d="M59.109 127.207C57.848 128.469 57.848 130.516 59.109 131.777 60.371 133.039 62.418 133.039 63.68 131.777 64.941 130.516 64.941 128.469 63.68 127.207 62.418 125.945 60.371 125.945 59.109 127.207" fill="#cacaca"/>
<path stroke-width=".773437" stroke-linecap="butt" stroke-linejoin="round" fill="none" stroke="#000000" d="M59.125 127.223 20.352 88.449"/>
<path d="M31.918 110.512 31.559 112.371H31.324C31.313 111.832 31.199 111.441 30.98 111.199 30.77 110.949 30.516 110.824 30.215 110.824 29.965 110.824 29.762 110.895 29.605 111.027 29.457 111.164 29.387 111.332 29.387 111.527 29.387 111.652 29.418 111.777 29.48 111.902 29.543 112.027 29.668 112.195 29.855 112.402 30.387 112.977 30.723 113.41 30.871 113.699 31.027 113.992 31.105 114.27 31.105 114.527 31.105 114.945 30.926 115.316 30.574 115.637 30.23 115.961 29.793 116.121 29.262 116.121 28.969 116.121 28.637 116.051 28.262 115.918 28.125 115.867 28.02 115.84 27.949 115.84 27.77 115.84 27.637 115.934 27.543 116.121H27.324L27.684 114.168H27.918C27.938 114.785 28.063 115.215 28.293 115.465 28.52 115.715 28.832 115.84 29.23 115.84 29.543 115.84 29.785 115.758 29.965 115.59 30.141 115.426 30.23 115.215 30.23 114.965 30.23 114.801 30.199 114.648 30.137 114.512 30.02 114.273 29.781 113.941 29.418 113.512 29.063 113.086 28.832 112.77 28.73 112.559 28.625 112.34 28.574 112.121 28.574 111.902 28.574 111.52 28.715 111.191 28.996 110.918 29.285 110.648 29.656 110.512 30.105 110.512 30.23 110.512 30.344 110.523 30.449 110.543 30.5 110.555 30.629 110.602 30.84 110.684 31.047 110.758 31.188 110.793 31.262 110.793 31.426 110.793 31.574 110.699 31.699 110.512ZM31.918 110.512"/>
<path d="M34.09 113.094C34.203 113.094 34.297 113.137 34.371 113.219 34.453 113.293 34.496 113.387 34.496 113.5 34.496 113.617 34.453 113.715 34.371 113.797 34.297 113.871 34.203 113.906 34.09 113.906 33.984 113.906 33.891 113.871 33.809 113.797 33.723 113.715 33.684 113.617 33.684 113.5 33.684 113.387 33.719 113.293 33.793 113.219 33.875 113.137 33.973 113.094 34.09 113.094ZM34.137 114.703 33.34 117.516C33.285 117.715 33.262 117.828 33.262 117.859 33.262 117.902 33.27 117.938 33.293 117.969 33.324 118 33.355 118.016 33.387 118.016 33.426 118.016 33.48 117.992 33.543 117.938 33.688 117.824 33.84 117.652 33.996 117.422L34.137 117.516C33.957 117.797 33.746 118.039 33.496 118.234 33.316 118.367 33.145 118.438 32.98 118.438 32.863 118.438 32.77 118.406 32.699 118.344 32.637 118.281 32.605 118.199 32.605 118.094 32.605 117.992 32.637 117.824 32.699 117.594L33.23 115.797C33.313 115.496 33.355 115.309 33.355 115.234 33.355 115.184 33.332 115.137 33.293 115.094 33.25 115.055 33.191 115.031 33.121 115.031 33.059 115.031 32.934 115.047 32.746 115.078V114.922ZM34.137 114.703"/>
<path d="M48.875 148.93V149.148C48.27 148.844 47.766 148.492 47.359 148.086 46.773 147.492 46.32 146.797 46 146.008 45.688 145.219 45.531 144.395 45.531 143.539 45.531 142.289 45.836 141.156 46.453 140.133 47.078 139.102 47.883 138.363 48.875 137.914V138.164C48.375 138.445 47.961 138.828 47.641 139.305 47.328 139.773 47.094 140.375 46.938 141.102 46.781 141.832 46.703 142.594 46.703 143.383 46.703 144.25 46.77 145.031 46.906 145.727 47.008 146.289 47.133 146.734 47.281 147.07 47.438 147.402 47.641 147.727 47.891 148.039 48.141 148.352 48.469 148.648 48.875 148.93ZM48.875 148.93"/>
<path d="M49.793 141.383 51.887 141.039 51.012 143.977C51.719 142.77 52.359 141.926 52.934 141.445 53.254 141.176 53.52 141.039 53.73 141.039 53.863 141.039 53.969 141.082 54.043 141.164 54.125 141.238 54.168 141.348 54.168 141.492 54.168 141.766 54.094 142.02 53.949 142.258 53.855 142.445 53.719 142.539 53.543 142.539 53.449 142.539 53.363 142.508 53.293 142.445 53.23 142.383 53.191 142.289 53.184 142.164 53.172 142.094 53.152 142.039 53.121 142.008 53.09 141.977 53.051 141.961 53.012 141.961 52.938 141.961 52.871 141.977 52.809 142.008 52.703 142.07 52.547 142.227 52.34 142.477 52.004 142.875 51.641 143.391 51.246 144.023 51.078 144.285 50.934 144.582 50.809 144.914 50.641 145.375 50.547 145.648 50.527 145.742L50.324 146.508H49.402L50.527 142.758C50.652 142.32 50.715 142.008 50.715 141.82 50.715 141.75 50.684 141.691 50.621 141.648 50.547 141.586 50.441 141.555 50.309 141.555 50.223 141.555 50.066 141.57 49.84 141.602ZM49.793 141.383"/>
<path d="M56.109 141.039C56.305 141.25 56.453 141.457 56.547 141.664 56.617 141.813 56.738 142.191 56.906 142.805L57.438 142.008C57.582 141.82 57.754 141.641 57.953 141.461 58.16 141.285 58.336 141.164 58.484 141.102 58.578 141.063 58.688 141.039 58.813 141.039 58.977 141.039 59.113 141.086 59.219 141.18 59.32 141.273 59.375 141.391 59.375 141.523 59.375 141.672 59.344 141.773 59.281 141.836 59.164 141.93 59.035 141.977 58.891 141.977 58.805 141.977 58.719 141.961 58.625 141.93 58.438 141.867 58.313 141.836 58.25 141.836 58.145 141.836 58.031 141.895 57.906 142.008 57.656 142.219 57.352 142.617 57 143.211L57.5 145.289C57.582 145.613 57.648 145.805 57.703 145.867 57.754 145.93 57.805 145.961 57.859 145.961 57.941 145.961 58.039 145.914 58.156 145.82 58.375 145.633 58.563 145.395 58.719 145.102L58.922 145.195C58.672 145.676 58.352 146.07 57.969 146.383 57.738 146.559 57.551 146.648 57.406 146.648 57.176 146.648 56.992 146.523 56.859 146.273 56.773 146.117 56.602 145.441 56.344 144.242 55.707 145.336 55.203 146.039 54.828 146.352 54.578 146.547 54.336 146.648 54.109 146.648 53.953 146.648 53.809 146.59 53.672 146.477 53.578 146.395 53.531 146.273 53.531 146.117 53.531 145.984 53.578 145.875 53.672 145.789 53.758 145.695 53.859 145.648 53.984 145.648 54.109 145.648 54.242 145.719 54.391 145.852 54.492 145.945 54.578 145.992 54.641 145.992 54.691 145.992 54.754 145.961 54.828 145.898 55.016 145.742 55.27 145.41 55.594 144.898 55.926 144.391 56.141 144.023 56.234 143.805 55.984 142.828 55.848 142.305 55.828 142.242 55.742 141.984 55.625 141.801 55.469 141.695 55.32 141.582 55.102 141.523 54.813 141.523 54.719 141.523 54.613 141.531 54.5 141.539V141.32ZM56.109 141.039"/>
<path d="M61.305 143.617C61.418 143.617 61.512 143.66 61.586 143.742 61.668 143.816 61.711 143.91 61.711 144.023 61.711 144.141 61.668 144.238 61.586 144.32 61.512 144.395 61.418 144.43 61.305 144.43 61.199 144.43 61.105 144.395 61.023 144.32 60.938 144.238 60.898 144.141 60.898 144.023 60.898 143.91 60.934 143.816 61.008 143.742 61.09 143.66 61.188 143.617 61.305 143.617ZM61.352 145.227 60.555 148.039C60.5 148.238 60.477 148.352 60.477 148.383 60.477 148.426 60.484 148.461 60.508 148.492 60.539 148.523 60.57 148.539 60.602 148.539 60.641 148.539 60.695 148.516 60.758 148.461 60.902 148.348 61.055 148.176 61.211 147.945L61.352 148.039C61.172 148.32 60.961 148.563 60.711 148.758 60.531 148.891 60.359 148.961 60.195 148.961 60.078 148.961 59.984 148.93 59.914 148.867 59.852 148.805 59.82 148.723 59.82 148.617 59.82 148.516 59.852 148.348 59.914 148.117L60.445 146.32C60.527 146.02 60.57 145.832 60.57 145.758 60.57 145.707 60.547 145.66 60.508 145.617 60.465 145.578 60.406 145.555 60.336 145.555 60.273 145.555 60.148 145.57 59.961 145.602V145.445ZM61.352 145.227"/>
<path d="M63.691 147.867C63.992 147.73 64.238 147.559 64.426 147.352 64.57 147.184 64.645 147.027 64.645 146.883 64.645 146.809 64.633 146.742 64.613 146.68 64.59 146.648 64.535 146.586 64.441 146.492 64.348 146.398 64.289 146.332 64.27 146.289 64.246 146.227 64.238 146.148 64.238 146.055 64.238 145.879 64.293 145.727 64.41 145.602 64.535 145.477 64.676 145.414 64.832 145.414 64.996 145.414 65.145 145.484 65.27 145.617 65.395 145.754 65.457 145.922 65.457 146.117 65.457 146.484 65.316 146.844 65.035 147.211 64.754 147.574 64.348 147.855 63.816 148.055ZM63.691 147.867"/>
<path d="M70.645 141.383 72.738 141.039 71.863 143.977C72.57 142.77 73.211 141.926 73.785 141.445 74.105 141.176 74.371 141.039 74.582 141.039 74.715 141.039 74.82 141.082 74.895 141.164 74.977 141.238 75.02 141.348 75.02 141.492 75.02 141.766 74.945 142.02 74.801 142.258 74.707 142.445 74.57 142.539 74.395 142.539 74.301 142.539 74.215 142.508 74.145 142.445 74.082 142.383 74.043 142.289 74.035 142.164 74.023 142.094 74.004 142.039 73.973 142.008 73.941 141.977 73.902 141.961 73.863 141.961 73.789 141.961 73.723 141.977 73.66 142.008 73.555 142.07 73.398 142.227 73.191 142.477 72.855 142.875 72.492 143.391 72.098 144.023 71.93 144.285 71.785 144.582 71.66 144.914 71.492 145.375 71.398 145.648 71.379 145.742L71.176 146.508H70.254L71.379 142.758C71.504 142.32 71.566 142.008 71.566 141.82 71.566 141.75 71.535 141.691 71.473 141.648 71.398 141.586 71.293 141.555 71.16 141.555 71.074 141.555 70.918 141.57 70.691 141.602ZM70.645 141.383"/>
<path d="M76.789 141.039C76.922 141.27 77.016 141.488 77.07 141.695 77.121 141.906 77.172 142.305 77.227 142.898L77.492 145.867C77.73 145.578 78.086 145.117 78.555 144.492 78.773 144.18 79.043 143.766 79.367 143.242 79.563 142.922 79.684 142.691 79.727 142.555 79.758 142.492 79.773 142.43 79.773 142.367 79.773 142.316 79.758 142.281 79.727 142.258 79.695 142.227 79.617 142.195 79.492 142.164 79.375 142.125 79.277 142.051 79.195 141.945 79.121 141.844 79.086 141.723 79.086 141.586 79.086 141.422 79.133 141.289 79.227 141.195 79.328 141.094 79.453 141.039 79.602 141.039 79.777 141.039 79.93 141.113 80.055 141.258 80.18 141.406 80.242 141.609 80.242 141.867 80.242 142.191 80.133 142.555 79.914 142.961 79.695 143.367 79.273 143.992 78.648 144.836 78.031 145.68 77.281 146.602 76.398 147.602 75.793 148.297 75.34 148.734 75.039 148.914 74.75 149.09 74.5 149.18 74.289 149.18 74.164 149.18 74.055 149.133 73.961 149.039 73.867 148.945 73.82 148.836 73.82 148.711 73.82 148.555 73.891 148.406 74.023 148.273 74.148 148.148 74.289 148.086 74.445 148.086 74.531 148.086 74.598 148.102 74.648 148.133 74.68 148.152 74.719 148.211 74.758 148.305 74.789 148.406 74.82 148.477 74.852 148.508 74.871 148.527 74.898 148.539 74.93 148.539 74.949 148.539 74.992 148.516 75.055 148.477 75.273 148.34 75.531 148.121 75.836 147.82 76.219 147.422 76.5 147.102 76.68 146.852L76.352 143.023C76.289 142.391 76.199 142.004 76.086 141.867 75.98 141.734 75.793 141.664 75.523 141.664 75.438 141.664 75.289 141.676 75.07 141.695L75.023 141.477ZM76.789 141.039"/>
<path d="M82.156 143.617C82.27 143.617 82.363 143.66 82.438 143.742 82.52 143.816 82.563 143.91 82.563 144.023 82.563 144.141 82.52 144.238 82.438 144.32 82.363 144.395 82.27 144.43 82.156 144.43 82.051 144.43 81.957 144.395 81.875 144.32 81.789 144.238 81.75 144.141 81.75 144.023 81.75 143.91 81.785 143.816 81.859 143.742 81.941 143.66 82.039 143.617 82.156 143.617ZM82.203 145.227 81.406 148.039C81.352 148.238 81.328 148.352 81.328 148.383 81.328 148.426 81.336 148.461 81.359 148.492 81.391 148.523 81.422 148.539 81.453 148.539 81.492 148.539 81.547 148.516 81.609 148.461 81.754 148.348 81.906 148.176 82.063 147.945L82.203 148.039C82.023 148.32 81.813 148.563 81.563 148.758 81.383 148.891 81.211 148.961 81.047 148.961 80.93 148.961 80.836 148.93 80.766 148.867 80.703 148.805 80.672 148.723 80.672 148.617 80.672 148.516 80.703 148.348 80.766 148.117L81.297 146.32C81.379 146.02 81.422 145.832 81.422 145.758 81.422 145.707 81.398 145.66 81.359 145.617 81.316 145.578 81.258 145.555 81.188 145.555 81.125 145.555 81 145.57 80.813 145.602V145.445ZM82.203 145.227"/>
<path d="M82.887 138.164V137.914C83.5 138.219 84.012 138.578 84.418 138.992 84.988 139.578 85.434 140.266 85.746 141.055 86.059 141.848 86.215 142.672 86.215 143.523 86.215 144.773 85.906 145.914 85.293 146.945 84.676 147.977 83.875 148.711 82.887 149.148V148.93C83.375 148.648 83.781 148.273 84.105 147.805 84.426 147.336 84.668 146.734 84.824 146.008 84.98 145.27 85.059 144.504 85.059 143.711 85.059 142.859 84.988 142.078 84.855 141.367 84.75 140.805 84.621 140.359 84.465 140.023 84.316 139.691 84.121 139.367 83.871 139.055 83.621 138.742 83.293 138.445 82.887 138.164ZM82.887 138.164"/>
<path stroke-width=".773437" stroke-linecap="butt" stroke-dasharray="3.093748,2.320311" stroke-linejoin="round" fill="none" stroke="#000000" d="M379.363 306.938 378.961 179.773V179.387"/>
<path d="M377.301 179.781 378.953 176.449 380.625 179.77ZM377.301 179.781"/>
<path stroke-width=".773437" stroke-linecap="butt" stroke-dasharray="3.093748,2.320311" stroke-linejoin="round" fill="none" stroke="#000000" d="M64.625 129.422 286.387 130.234 286.773 130.238"/>
<path d="M286.395 128.574 289.715 130.25 286.383 131.898ZM286.395 128.574"/>
<path d="M44.539 202.102 44.07 203.742H45.008L44.914 204.133H43.961L42.93 207.695C42.813 208.082 42.758 208.328 42.758 208.43 42.758 208.504 42.773 208.563 42.805 208.602 42.836 208.633 42.871 208.648 42.914 208.648 43.016 208.648 43.152 208.578 43.32 208.43 43.414 208.359 43.625 208.113 43.961 207.695L44.164 207.836C43.797 208.379 43.449 208.766 43.117 208.992 42.887 209.137 42.656 209.211 42.43 209.211 42.25 209.211 42.105 209.156 41.992 209.055 41.875 208.941 41.82 208.797 41.82 208.617 41.82 208.398 41.887 208.07 42.023 207.633L43.023 204.133H42.117L42.18 203.898C42.617 203.773 42.98 203.594 43.273 203.352 43.574 203.113 43.906 202.695 44.273 202.102ZM44.539 202.102" fill="#8c3023"/>
<path d="M47.523 201.195C47.688 201.195 47.828 201.258 47.945 201.383 48.07 201.5 48.133 201.641 48.133 201.805 48.133 201.973 48.07 202.117 47.945 202.242 47.828 202.359 47.688 202.414 47.523 202.414 47.355 202.414 47.211 202.359 47.086 202.242 46.969 202.117 46.914 201.973 46.914 201.805 46.914 201.641 46.969 201.5 47.086 201.383 47.211 201.258 47.355 201.195 47.523 201.195ZM47.602 203.602 46.414 207.836C46.328 208.129 46.289 208.301 46.289 208.352 46.289 208.414 46.305 208.469 46.336 208.508 46.375 208.551 46.422 208.57 46.477 208.57 46.539 208.57 46.609 208.539 46.695 208.477 46.922 208.289 47.156 208.031 47.398 207.695L47.602 207.836C47.328 208.254 47.008 208.609 46.633 208.898 46.359 209.105 46.102 209.211 45.852 209.211 45.684 209.211 45.547 209.164 45.445 209.07 45.34 208.969 45.289 208.844 45.289 208.695 45.289 208.551 45.34 208.301 45.445 207.945L46.227 205.242C46.352 204.805 46.414 204.531 46.414 204.414 46.414 204.32 46.383 204.25 46.32 204.195 46.258 204.145 46.172 204.117 46.07 204.117 45.977 204.117 45.793 204.141 45.523 204.18V203.945ZM47.602 203.602" fill="#8c3023"/>
<path d="M50.883 203.602 50.086 206.32C50.438 205.688 50.742 205.207 50.992 204.883 51.367 204.383 51.734 204.02 52.102 203.789 52.32 203.664 52.543 203.602 52.773 203.602 52.969 203.602 53.137 203.672 53.273 203.805 53.406 203.93 53.477 204.094 53.477 204.289 53.477 204.488 53.43 204.75 53.336 205.07L52.914 206.602C53.57 205.375 54.188 204.508 54.773 204.008 55.094 203.738 55.418 203.602 55.742 203.602 55.93 203.602 56.078 203.664 56.195 203.789 56.32 203.914 56.383 204.113 56.383 204.383 56.383 204.613 56.344 204.859 56.273 205.117L55.602 207.477C55.453 207.988 55.383 208.27 55.383 208.32 55.383 208.383 55.402 208.438 55.445 208.477 55.465 208.5 55.496 208.508 55.539 208.508 55.578 208.508 55.648 208.473 55.742 208.398 55.969 208.223 56.188 207.988 56.398 207.695L56.602 207.82C56.496 207.988 56.313 208.211 56.055 208.492 55.805 208.773 55.586 208.969 55.398 209.07 55.219 209.164 55.055 209.211 54.898 209.211 54.762 209.211 54.648 209.164 54.555 209.07 54.461 208.977 54.414 208.859 54.414 208.711 54.414 208.523 54.492 208.141 54.648 207.555L55.211 205.602C55.336 205.156 55.398 204.91 55.398 204.867 55.418 204.785 55.43 204.711 55.43 204.648 55.43 204.547 55.402 204.461 55.352 204.398 55.309 204.348 55.258 204.32 55.195 204.32 55.027 204.32 54.844 204.41 54.648 204.586 54.094 205.098 53.578 205.813 53.102 206.727 52.777 207.344 52.477 208.125 52.195 209.07H51.289L52.32 205.414C52.434 205.02 52.492 204.754 52.492 204.617 52.492 204.516 52.465 204.438 52.414 204.383 52.371 204.332 52.32 204.305 52.258 204.305 52.133 204.305 51.992 204.352 51.836 204.445 51.594 204.602 51.281 204.941 50.898 205.461 50.523 205.973 50.23 206.461 50.023 206.93 49.918 207.16 49.68 207.875 49.305 209.07H48.414L49.523 205.148 49.664 204.648C49.695 204.578 49.711 204.52 49.711 204.477 49.711 204.395 49.668 204.316 49.586 204.242 49.512 204.172 49.414 204.133 49.289 204.133 49.234 204.133 49.09 204.16 48.852 204.211L48.789 203.977ZM50.883 203.602" fill="#8c3023"/>
<path d="M58.602 206.789C58.578 207 58.57 207.164 58.57 207.289 58.57 207.656 58.695 207.961 58.945 208.211 59.195 208.461 59.5 208.586 59.867 208.586 60.156 208.586 60.434 208.531 60.695 208.414 60.965 208.289 61.367 208.023 61.898 207.617L62.023 207.789C61.074 208.738 60.164 209.211 59.289 209.211 58.703 209.211 58.262 209.031 57.961 208.664 57.668 208.289 57.523 207.879 57.523 207.43 57.523 206.836 57.703 206.227 58.07 205.602 58.445 204.969 58.906 204.477 59.461 204.133 60.023 203.781 60.602 203.602 61.195 203.602 61.621 203.602 61.938 203.691 62.148 203.867 62.355 204.035 62.461 204.238 62.461 204.477 62.461 204.813 62.324 205.133 62.055 205.445 61.711 205.844 61.195 206.16 60.508 206.398 60.059 206.566 59.422 206.695 58.602 206.789ZM58.648 206.492C59.242 206.43 59.727 206.316 60.102 206.148 60.602 205.93 60.969 205.664 61.211 205.352 61.461 205.039 61.586 204.75 61.586 204.477 61.586 204.301 61.531 204.16 61.43 204.055 61.324 203.953 61.172 203.898 60.977 203.898 60.57 203.898 60.133 204.117 59.664 204.555 59.203 204.992 58.867 205.641 58.648 206.492ZM58.648 206.492" fill="#8c3023"/>
<path d="M66.922 203.742H73.453V204.227H66.922ZM66.922 205.711H73.453V206.195H66.922ZM66.922 205.711" fill="#8c3023"/>
<path d="M80.383 202.102 79.914 203.742H80.852L80.758 204.133H79.805L78.773 207.695C78.656 208.082 78.602 208.328 78.602 208.43 78.602 208.504 78.617 208.563 78.648 208.602 78.68 208.633 78.715 208.648 78.758 208.648 78.859 208.648 78.996 208.578 79.164 208.43 79.258 208.359 79.469 208.113 79.805 207.695L80.008 207.836C79.641 208.379 79.293 208.766 78.961 208.992 78.73 209.137 78.5 209.211 78.273 209.211 78.094 209.211 77.949 209.156 77.836 209.055 77.719 208.941 77.664 208.797 77.664 208.617 77.664 208.398 77.73 208.07 77.867 207.633L78.867 204.133H77.961L78.023 203.898C78.461 203.773 78.824 203.594 79.117 203.352 79.418 203.113 79.75 202.695 80.117 202.102ZM80.383 202.102" fill="#8c3023"/>
<path d="M159.152 121.566V121.785C158.547 121.48 158.043 121.129 157.637 120.723 157.051 120.129 156.598 119.434 156.277 118.645 155.965 117.855 155.809 117.031 155.809 116.176 155.809 114.926 156.113 113.793 156.73 112.77 157.355 111.738 158.16 111 159.152 110.551V110.801C158.652 111.082 158.238 111.465 157.918 111.941 157.605 112.41 157.371 113.012 157.215 113.738 157.059 114.469 156.98 115.23 156.98 116.02 156.98 116.887 157.047 117.668 157.184 118.363 157.285 118.926 157.41 119.371 157.559 119.707 157.715 120.039 157.918 120.363 158.168 120.676 158.418 120.988 158.746 121.285 159.152 121.566ZM159.152 121.566"/>
<path d="M159.695 114.051 161.445 113.676C161.57 113.98 161.668 114.281 161.742 114.582 161.855 115.043 161.945 115.582 162.008 116.207 162.039 116.52 162.086 117.188 162.148 118.207 162.648 117.645 162.945 117.301 163.039 117.176 163.57 116.449 163.875 116.02 163.961 115.895 164.094 115.688 164.188 115.5 164.242 115.332 164.281 115.219 164.305 115.105 164.305 114.988 164.305 114.887 164.211 114.766 164.023 114.629 163.836 114.496 163.742 114.344 163.742 114.176 163.742 114.043 163.793 113.926 163.898 113.832 164 113.73 164.121 113.676 164.258 113.676 164.434 113.676 164.586 113.75 164.711 113.895 164.836 114.031 164.898 114.199 164.898 114.395 164.898 114.605 164.867 114.801 164.805 114.988 164.699 115.301 164.5 115.676 164.211 116.113 163.93 116.551 163.469 117.145 162.836 117.895 162.75 117.98 162.305 118.441 161.492 119.285H161.273C161.18 116.734 160.977 115.145 160.664 114.52 160.57 114.313 160.402 114.207 160.164 114.207 160.07 114.207 159.93 114.23 159.742 114.27ZM159.695 114.051"/>
<path d="M167.059 113.676C167.254 113.887 167.402 114.094 167.496 114.301 167.566 114.449 167.688 114.828 167.855 115.441L168.387 114.645C168.531 114.457 168.703 114.277 168.902 114.098 169.109 113.922 169.285 113.801 169.434 113.738 169.527 113.699 169.637 113.676 169.762 113.676 169.926 113.676 170.063 113.723 170.168 113.816 170.27 113.91 170.324 114.027 170.324 114.16 170.324 114.309 170.293 114.41 170.23 114.473 170.113 114.566 169.984 114.613 169.84 114.613 169.754 114.613 169.668 114.598 169.574 114.566 169.387 114.504 169.262 114.473 169.199 114.473 169.094 114.473 168.98 114.531 168.855 114.645 168.605 114.855 168.301 115.254 167.949 115.848L168.449 117.926C168.531 118.25 168.598 118.441 168.652 118.504 168.703 118.566 168.754 118.598 168.809 118.598 168.891 118.598 168.988 118.551 169.105 118.457 169.324 118.27 169.512 118.031 169.668 117.738L169.871 117.832C169.621 118.313 169.301 118.707 168.918 119.02 168.688 119.195 168.5 119.285 168.355 119.285 168.125 119.285 167.941 119.16 167.809 118.91 167.723 118.754 167.551 118.078 167.293 116.879 166.656 117.973 166.152 118.676 165.777 118.988 165.527 119.184 165.285 119.285 165.059 119.285 164.902 119.285 164.758 119.227 164.621 119.113 164.527 119.031 164.48 118.91 164.48 118.754 164.48 118.621 164.527 118.512 164.621 118.426 164.707 118.332 164.809 118.285 164.934 118.285 165.059 118.285 165.191 118.355 165.34 118.488 165.441 118.582 165.527 118.629 165.59 118.629 165.641 118.629 165.703 118.598 165.777 118.535 165.965 118.379 166.219 118.047 166.543 117.535 166.875 117.027 167.09 116.66 167.184 116.441 166.934 115.465 166.797 114.941 166.777 114.879 166.691 114.621 166.574 114.438 166.418 114.332 166.27 114.219 166.051 114.16 165.762 114.16 165.668 114.16 165.563 114.168 165.449 114.176V113.957ZM167.059 113.676"/>
<path d="M172.258 116.254C172.371 116.254 172.465 116.297 172.539 116.379 172.621 116.453 172.664 116.547 172.664 116.66 172.664 116.777 172.621 116.875 172.539 116.957 172.465 117.031 172.371 117.066 172.258 117.066 172.152 117.066 172.059 117.031 171.977 116.957 171.891 116.875 171.852 116.777 171.852 116.66 171.852 116.547 171.887 116.453 171.961 116.379 172.043 116.297 172.141 116.254 172.258 116.254ZM172.305 117.863 171.508 120.676C171.453 120.875 171.43 120.988 171.43 121.02 171.43 121.063 171.438 121.098 171.461 121.129 171.492 121.16 171.523 121.176 171.555 121.176 171.594 121.176 171.648 121.152 171.711 121.098 171.855 120.984 172.008 120.813 172.164 120.582L172.305 120.676C172.125 120.957 171.914 121.199 171.664 121.395 171.484 121.527 171.313 121.598 171.148 121.598 171.031 121.598 170.938 121.566 170.867 121.504 170.805 121.441 170.773 121.359 170.773 121.254 170.773 121.152 170.805 120.984 170.867 120.754L171.398 118.957C171.48 118.656 171.523 118.469 171.523 118.395 171.523 118.344 171.5 118.297 171.461 118.254 171.418 118.215 171.359 118.191 171.289 118.191 171.227 118.191 171.102 118.207 170.914 118.238V118.082ZM172.305 117.863"/>
<path d="M174.645 120.504C174.945 120.367 175.191 120.195 175.379 119.988 175.523 119.82 175.598 119.664 175.598 119.52 175.598 119.445 175.586 119.379 175.566 119.316 175.543 119.285 175.488 119.223 175.395 119.129 175.301 119.035 175.242 118.969 175.223 118.926 175.199 118.863 175.191 118.785 175.191 118.691 175.191 118.516 175.246 118.363 175.363 118.238 175.488 118.113 175.629 118.051 175.785 118.051 175.949 118.051 176.098 118.121 176.223 118.254 176.348 118.391 176.41 118.559 176.41 118.754 176.41 119.121 176.27 119.48 175.988 119.848 175.707 120.211 175.301 120.492 174.77 120.691ZM174.645 120.504"/>
<path d="M181.223 114.051 182.973 113.676C183.098 113.98 183.195 114.281 183.27 114.582 183.383 115.043 183.473 115.582 183.535 116.207 183.566 116.52 183.613 117.188 183.676 118.207 184.176 117.645 184.473 117.301 184.566 117.176 185.098 116.449 185.402 116.02 185.488 115.895 185.621 115.688 185.715 115.5 185.77 115.332 185.809 115.219 185.832 115.105 185.832 114.988 185.832 114.887 185.738 114.766 185.551 114.629 185.363 114.496 185.27 114.344 185.27 114.176 185.27 114.043 185.32 113.926 185.426 113.832 185.527 113.73 185.648 113.676 185.785 113.676 185.961 113.676 186.113 113.75 186.238 113.895 186.363 114.031 186.426 114.199 186.426 114.395 186.426 114.605 186.395 114.801 186.332 114.988 186.227 115.301 186.027 115.676 185.738 116.113 185.457 116.551 184.996 117.145 184.363 117.895 184.277 117.98 183.832 118.441 183.02 119.285H182.801C182.707 116.734 182.504 115.145 182.191 114.52 182.098 114.313 181.93 114.207 181.691 114.207 181.598 114.207 181.457 114.23 181.27 114.27ZM181.223 114.051"/>
<path d="M188.414 113.676C188.547 113.906 188.641 114.125 188.695 114.332 188.746 114.543 188.797 114.941 188.852 115.535L189.117 118.504C189.355 118.215 189.711 117.754 190.18 117.129 190.398 116.816 190.668 116.402 190.992 115.879 191.188 115.559 191.309 115.328 191.352 115.191 191.383 115.129 191.398 115.066 191.398 115.004 191.398 114.953 191.383 114.918 191.352 114.895 191.32 114.863 191.242 114.832 191.117 114.801 191 114.762 190.902 114.688 190.82 114.582 190.746 114.48 190.711 114.359 190.711 114.223 190.711 114.059 190.758 113.926 190.852 113.832 190.953 113.73 191.078 113.676 191.227 113.676 191.402 113.676 191.555 113.75 191.68 113.895 191.805 114.043 191.867 114.246 191.867 114.504 191.867 114.828 191.758 115.191 191.539 115.598 191.32 116.004 190.898 116.629 190.273 117.473 189.656 118.316 188.906 119.238 188.023 120.238 187.418 120.934 186.965 121.371 186.664 121.551 186.375 121.727 186.125 121.816 185.914 121.816 185.789 121.816 185.68 121.77 185.586 121.676 185.492 121.582 185.445 121.473 185.445 121.348 185.445 121.191 185.516 121.043 185.648 120.91 185.773 120.785 185.914 120.723 186.07 120.723 186.156 120.723 186.223 120.738 186.273 120.77 186.305 120.789 186.344 120.848 186.383 120.941 186.414 121.043 186.445 121.113 186.477 121.145 186.496 121.164 186.523 121.176 186.555 121.176 186.574 121.176 186.617 121.152 186.68 121.113 186.898 120.977 187.156 120.758 187.461 120.457 187.844 120.059 188.125 119.738 188.305 119.488L187.977 115.66C187.914 115.027 187.824 114.641 187.711 114.504 187.605 114.371 187.418 114.301 187.148 114.301 187.063 114.301 186.914 114.313 186.695 114.332L186.648 114.113ZM188.414 113.676"/>
<path d="M193.785 116.254C193.898 116.254 193.992 116.297 194.066 116.379 194.148 116.453 194.191 116.547 194.191 116.66 194.191 116.777 194.148 116.875 194.066 116.957 193.992 117.031 193.898 117.066 193.785 117.066 193.68 117.066 193.586 117.031 193.504 116.957 193.418 116.875 193.379 116.777 193.379 116.66 193.379 116.547 193.414 116.453 193.488 116.379 193.57 116.297 193.668 116.254 193.785 116.254ZM193.832 117.863 193.035 120.676C192.98 120.875 192.957 120.988 192.957 121.02 192.957 121.063 192.965 121.098 192.988 121.129 193.02 121.16 193.051 121.176 193.082 121.176 193.121 121.176 193.176 121.152 193.238 121.098 193.383 120.984 193.535 120.813 193.691 120.582L193.832 120.676C193.652 120.957 193.441 121.199 193.191 121.395 193.012 121.527 192.84 121.598 192.676 121.598 192.559 121.598 192.465 121.566 192.395 121.504 192.332 121.441 192.301 121.359 192.301 121.254 192.301 121.152 192.332 120.984 192.395 120.754L192.926 118.957C193.008 118.656 193.051 118.469 193.051 118.395 193.051 118.344 193.027 118.297 192.988 118.254 192.945 118.215 192.887 118.191 192.816 118.191 192.754 118.191 192.629 118.207 192.441 118.238V118.082ZM193.832 117.863"/>
<path d="M196.578 110.801V110.551C197.191 110.855 197.703 111.215 198.109 111.629 198.68 112.215 199.125 112.902 199.438 113.691 199.75 114.484 199.906 115.309 199.906 116.16 199.906 117.41 199.598 118.551 198.984 119.582 198.367 120.613 197.566 121.348 196.578 121.785V121.566C197.066 121.285 197.473 120.91 197.797 120.441 198.117 119.973 198.359 119.371 198.516 118.645 198.672 117.906 198.75 117.141 198.75 116.348 198.75 115.496 198.68 114.715 198.547 114.004 198.441 113.441 198.313 112.996 198.156 112.66 198.008 112.328 197.813 112.004 197.563 111.691 197.313 111.379 196.984 111.082 196.578 110.801ZM196.578 110.801"/>
<path d="M60.918 82.738 60.121 85.457C60.473 84.824 60.777 84.344 61.027 84.02 61.402 83.52 61.77 83.156 62.137 82.926 62.355 82.801 62.578 82.738 62.809 82.738 63.004 82.738 63.172 82.809 63.309 82.941 63.441 83.066 63.512 83.23 63.512 83.426 63.512 83.625 63.465 83.887 63.371 84.207L62.949 85.738C63.605 84.512 64.223 83.645 64.809 83.145 65.129 82.875 65.453 82.738 65.777 82.738 65.965 82.738 66.113 82.801 66.23 82.926 66.355 83.051 66.418 83.25 66.418 83.52 66.418 83.75 66.379 83.996 66.309 84.254L65.637 86.613C65.488 87.125 65.418 87.406 65.418 87.457 65.418 87.52 65.438 87.574 65.48 87.613 65.5 87.637 65.531 87.645 65.574 87.645 65.613 87.645 65.684 87.609 65.777 87.535 66.004 87.359 66.223 87.125 66.434 86.832L66.637 86.957C66.531 87.125 66.348 87.348 66.09 87.629 65.84 87.91 65.621 88.105 65.434 88.207 65.254 88.301 65.09 88.348 64.934 88.348 64.797 88.348 64.684 88.301 64.59 88.207 64.496 88.113 64.449 87.996 64.449 87.848 64.449 87.66 64.527 87.277 64.684 86.691L65.246 84.738C65.371 84.293 65.434 84.047 65.434 84.004 65.453 83.922 65.465 83.848 65.465 83.785 65.465 83.684 65.438 83.598 65.387 83.535 65.344 83.484 65.293 83.457 65.23 83.457 65.063 83.457 64.879 83.547 64.684 83.723 64.129 84.234 63.613 84.949 63.137 85.863 62.813 86.48 62.512 87.262 62.23 88.207H61.324L62.355 84.551C62.469 84.156 62.527 83.891 62.527 83.754 62.527 83.652 62.5 83.574 62.449 83.52 62.406 83.469 62.355 83.441 62.293 83.441 62.168 83.441 62.027 83.488 61.871 83.582 61.629 83.738 61.316 84.078 60.934 84.598 60.559 85.109 60.266 85.598 60.059 86.066 59.953 86.297 59.715 87.012 59.34 88.207H58.449L59.559 84.285 59.699 83.785C59.73 83.715 59.746 83.656 59.746 83.613 59.746 83.531 59.703 83.453 59.621 83.379 59.547 83.309 59.449 83.27 59.324 83.27 59.27 83.27 59.125 83.297 58.887 83.348L58.824 83.113ZM60.918 82.738"/>
<path d="M71.074 85.316C71.188 85.316 71.281 85.359 71.355 85.441 71.438 85.516 71.48 85.609 71.48 85.723 71.48 85.84 71.438 85.938 71.355 86.02 71.281 86.094 71.188 86.129 71.074 86.129 70.969 86.129 70.875 86.094 70.793 86.02 70.707 85.938 70.668 85.84 70.668 85.723 70.668 85.609 70.703 85.516 70.777 85.441 70.859 85.359 70.957 85.316 71.074 85.316ZM71.121 86.926 70.324 89.738C70.27 89.938 70.246 90.051 70.246 90.082 70.246 90.125 70.254 90.16 70.277 90.191 70.309 90.223 70.34 90.238 70.371 90.238 70.41 90.238 70.465 90.215 70.527 90.16 70.672 90.047 70.824 89.875 70.98 89.645L71.121 89.738C70.941 90.02 70.73 90.262 70.48 90.457 70.301 90.59 70.129 90.66 69.965 90.66 69.848 90.66 69.754 90.629 69.684 90.566 69.621 90.504 69.59 90.422 69.59 90.316 69.59 90.215 69.621 90.047 69.684 89.816L70.215 88.02C70.297 87.719 70.34 87.531 70.34 87.457 70.34 87.406 70.316 87.359 70.277 87.316 70.234 87.277 70.176 87.254 70.105 87.254 70.043 87.254 69.918 87.27 69.73 87.301V87.145ZM71.121 86.926"/>
<path d="M60.449 176.531C60.613 176.531 60.754 176.594 60.871 176.719 60.996 176.836 61.059 176.977 61.059 177.141 61.059 177.309 60.996 177.453 60.871 177.578 60.754 177.695 60.613 177.75 60.449 177.75 60.281 177.75 60.137 177.695 60.012 177.578 59.895 177.453 59.84 177.309 59.84 177.141 59.84 176.977 59.895 176.836 60.012 176.719 60.137 176.594 60.281 176.531 60.449 176.531ZM60.527 178.938 59.34 183.172C59.254 183.465 59.215 183.637 59.215 183.688 59.215 183.75 59.23 183.805 59.262 183.844 59.301 183.887 59.348 183.906 59.402 183.906 59.465 183.906 59.535 183.875 59.621 183.813 59.848 183.625 60.082 183.367 60.324 183.031L60.527 183.172C60.254 183.59 59.934 183.945 59.559 184.234 59.285 184.441 59.027 184.547 58.777 184.547 58.609 184.547 58.473 184.5 58.371 184.406 58.266 184.305 58.215 184.18 58.215 184.031 58.215 183.887 58.266 183.637 58.371 183.281L59.152 180.578C59.277 180.141 59.34 179.867 59.34 179.75 59.34 179.656 59.309 179.586 59.246 179.531 59.184 179.48 59.098 179.453 58.996 179.453 58.902 179.453 58.719 179.477 58.449 179.516V179.281ZM60.527 178.938"/>
<path d="M378.738 329.086C378.902 329.086 379.043 329.148 379.16 329.273 379.285 329.391 379.348 329.531 379.348 329.695 379.348 329.863 379.285 330.008 379.16 330.133 379.043 330.25 378.902 330.305 378.738 330.305 378.57 330.305 378.426 330.25 378.301 330.133 378.184 330.008 378.129 329.863 378.129 329.695 378.129 329.531 378.184 329.391 378.301 329.273 378.426 329.148 378.57 329.086 378.738 329.086ZM378.832 331.477 377.27 336.883C376.988 337.852 376.602 338.547 376.113 338.977 375.637 339.402 375.113 339.617 374.551 339.617 374.301 339.617 374.109 339.559 373.973 339.445 373.84 339.328 373.77 339.188 373.77 339.023 373.77 338.898 373.824 338.789 373.926 338.695 374.02 338.602 374.137 338.555 374.27 338.555 374.387 338.555 374.484 338.59 374.566 338.664 374.641 338.727 374.676 338.793 374.676 338.867 374.676 338.969 374.629 339.063 374.535 339.148 374.473 339.188 374.441 339.227 374.441 339.258L374.457 339.289C374.469 339.297 374.488 339.309 374.52 339.32 374.543 339.328 374.578 339.336 374.629 339.336 374.953 339.336 375.23 339.23 375.457 339.023 375.688 338.813 375.895 338.398 376.082 337.773L377.426 333.133C377.559 332.688 377.629 332.438 377.629 332.383 377.629 332.289 377.586 332.207 377.504 332.133 377.418 332.051 377.309 332.008 377.176 332.008 377.121 332.008 377.059 332.016 376.988 332.023 376.934 332.035 376.855 332.051 376.754 332.07V331.852ZM378.832 331.477"/>
<path d="M270.938 155.891V156.109C270.332 155.805 269.828 155.453 269.422 155.047 268.836 154.453 268.383 153.758 268.063 152.969 267.75 152.18 267.594 151.355 267.594 150.5 267.594 149.25 267.898 148.117 268.516 147.094 269.141 146.063 269.945 145.324 270.938 144.875V145.125C270.438 145.406 270.023 145.789 269.703 146.266 269.391 146.734 269.156 147.336 269 148.063 268.844 148.793 268.766 149.555 268.766 150.344 268.766 151.211 268.832 151.992 268.969 152.688 269.07 153.25 269.195 153.695 269.344 154.031 269.5 154.363 269.703 154.688 269.953 155 270.203 155.313 270.531 155.609 270.938 155.891ZM270.938 155.891"/>
<path d="M271.855 148.344 273.949 148 273.074 150.938C273.781 149.73 274.422 148.887 274.996 148.406 275.316 148.137 275.582 148 275.793 148 275.926 148 276.031 148.043 276.105 148.125 276.188 148.199 276.23 148.309 276.23 148.453 276.23 148.727 276.156 148.98 276.012 149.219 275.918 149.406 275.781 149.5 275.605 149.5 275.512 149.5 275.426 149.469 275.355 149.406 275.293 149.344 275.254 149.25 275.246 149.125 275.234 149.055 275.215 149 275.184 148.969 275.152 148.938 275.113 148.922 275.074 148.922 275 148.922 274.934 148.938 274.871 148.969 274.766 149.031 274.609 149.188 274.402 149.438 274.066 149.836 273.703 150.352 273.309 150.984 273.141 151.246 272.996 151.543 272.871 151.875 272.703 152.336 272.609 152.609 272.59 152.703L272.387 153.469H271.465L272.59 149.719C272.715 149.281 272.777 148.969 272.777 148.781 272.777 148.711 272.746 148.652 272.684 148.609 272.609 148.547 272.504 148.516 272.371 148.516 272.285 148.516 272.129 148.531 271.902 148.563ZM271.855 148.344"/>
<path d="M278.172 148C278.367 148.211 278.516 148.418 278.609 148.625 278.68 148.773 278.801 149.152 278.969 149.766L279.5 148.969C279.645 148.781 279.816 148.602 280.016 148.422 280.223 148.246 280.398 148.125 280.547 148.063 280.641 148.023 280.75 148 280.875 148 281.039 148 281.176 148.047 281.281 148.141 281.383 148.234 281.438 148.352 281.438 148.484 281.438 148.633 281.406 148.734 281.344 148.797 281.227 148.891 281.098 148.938 280.953 148.938 280.867 148.938 280.781 148.922 280.688 148.891 280.5 148.828 280.375 148.797 280.313 148.797 280.207 148.797 280.094 148.855 279.969 148.969 279.719 149.18 279.414 149.578 279.063 150.172L279.563 152.25C279.645 152.574 279.711 152.766 279.766 152.828 279.816 152.891 279.867 152.922 279.922 152.922 280.004 152.922 280.102 152.875 280.219 152.781 280.438 152.594 280.625 152.355 280.781 152.063L280.984 152.156C280.734 152.637 280.414 153.031 280.031 153.344 279.801 153.52 279.613 153.609 279.469 153.609 279.238 153.609 279.055 153.484 278.922 153.234 278.836 153.078 278.664 152.402 278.406 151.203 277.77 152.297 277.266 153 276.891 153.313 276.641 153.508 276.398 153.609 276.172 153.609 276.016 153.609 275.871 153.551 275.734 153.438 275.641 153.355 275.594 153.234 275.594 153.078 275.594 152.945 275.641 152.836 275.734 152.75 275.82 152.656 275.922 152.609 276.047 152.609 276.172 152.609 276.305 152.68 276.453 152.813 276.555 152.906 276.641 152.953 276.703 152.953 276.754 152.953 276.816 152.922 276.891 152.859 277.078 152.703 277.332 152.371 277.656 151.859 277.988 151.352 278.203 150.984 278.297 150.766 278.047 149.789 277.91 149.266 277.891 149.203 277.805 148.945 277.688 148.762 277.531 148.656 277.383 148.543 277.164 148.484 276.875 148.484 276.781 148.484 276.676 148.492 276.563 148.5V148.281ZM278.172 148"/>
<path d="M283.367 150.578C283.48 150.578 283.574 150.621 283.648 150.703 283.73 150.777 283.773 150.871 283.773 150.984 283.773 151.102 283.73 151.199 283.648 151.281 283.574 151.355 283.48 151.391 283.367 151.391 283.262 151.391 283.168 151.355 283.086 151.281 283 151.199 282.961 151.102 282.961 150.984 282.961 150.871 282.996 150.777 283.07 150.703 283.152 150.621 283.25 150.578 283.367 150.578ZM283.414 152.188 282.617 155C282.563 155.199 282.539 155.313 282.539 155.344 282.539 155.387 282.547 155.422 282.57 155.453 282.602 155.484 282.633 155.5 282.664 155.5 282.703 155.5 282.758 155.477 282.82 155.422 282.965 155.309 283.117 155.137 283.273 154.906L283.414 155C283.234 155.281 283.023 155.523 282.773 155.719 282.594 155.852 282.422 155.922 282.258 155.922 282.141 155.922 282.047 155.891 281.977 155.828 281.914 155.766 281.883 155.684 281.883 155.578 281.883 155.477 281.914 155.309 281.977 155.078L282.508 153.281C282.59 152.98 282.633 152.793 282.633 152.719 282.633 152.668 282.609 152.621 282.57 152.578 282.527 152.539 282.469 152.516 282.398 152.516 282.336 152.516 282.211 152.531 282.023 152.563V152.406ZM283.414 152.188"/>
<path d="M285.441 148.609 285.629 146.828C285.68 146.32 285.73 145.977 285.785 145.797 285.855 145.547 285.961 145.371 286.098 145.266 286.242 145.152 286.402 145.094 286.582 145.094 286.727 145.094 286.84 145.137 286.926 145.219 287.008 145.293 287.051 145.391 287.051 145.516 287.051 145.609 287.027 145.715 286.988 145.828 286.934 145.977 286.785 146.309 286.535 146.828L285.707 148.609ZM285.441 148.609"/>
<path d="M286.34 154.828C286.641 154.691 286.887 154.52 287.074 154.313 287.219 154.145 287.293 153.988 287.293 153.844 287.293 153.77 287.281 153.703 287.262 153.641 287.238 153.609 287.184 153.547 287.09 153.453 286.996 153.359 286.938 153.293 286.918 153.25 286.895 153.188 286.887 153.109 286.887 153.016 286.887 152.84 286.941 152.688 287.059 152.563 287.184 152.438 287.324 152.375 287.48 152.375 287.645 152.375 287.793 152.445 287.918 152.578 288.043 152.715 288.105 152.883 288.105 153.078 288.105 153.445 287.965 153.805 287.684 154.172 287.402 154.535 286.996 154.816 286.465 155.016ZM286.34 154.828"/>
<path d="M293.293 148.344 295.387 148 294.512 150.938C295.219 149.73 295.859 148.887 296.434 148.406 296.754 148.137 297.02 148 297.23 148 297.363 148 297.469 148.043 297.543 148.125 297.625 148.199 297.668 148.309 297.668 148.453 297.668 148.727 297.594 148.98 297.449 149.219 297.355 149.406 297.219 149.5 297.043 149.5 296.949 149.5 296.863 149.469 296.793 149.406 296.73 149.344 296.691 149.25 296.684 149.125 296.672 149.055 296.652 149 296.621 148.969 296.59 148.938 296.551 148.922 296.512 148.922 296.438 148.922 296.371 148.938 296.309 148.969 296.203 149.031 296.047 149.188 295.84 149.438 295.504 149.836 295.141 150.352 294.746 150.984 294.578 151.246 294.434 151.543 294.309 151.875 294.141 152.336 294.047 152.609 294.027 152.703L293.824 153.469H292.902L294.027 149.719C294.152 149.281 294.215 148.969 294.215 148.781 294.215 148.711 294.184 148.652 294.121 148.609 294.047 148.547 293.941 148.516 293.809 148.516 293.723 148.516 293.566 148.531 293.34 148.563ZM293.293 148.344"/>
<path d="M299.434 148C299.566 148.23 299.66 148.449 299.715 148.656 299.766 148.867 299.816 149.266 299.871 149.859L300.137 152.828C300.375 152.539 300.73 152.078 301.199 151.453 301.418 151.141 301.688 150.727 302.012 150.203 302.207 149.883 302.328 149.652 302.371 149.516 302.402 149.453 302.418 149.391 302.418 149.328 302.418 149.277 302.402 149.242 302.371 149.219 302.34 149.188 302.262 149.156 302.137 149.125 302.02 149.086 301.922 149.012 301.84 148.906 301.766 148.805 301.73 148.684 301.73 148.547 301.73 148.383 301.777 148.25 301.871 148.156 301.973 148.055 302.098 148 302.246 148 302.422 148 302.574 148.074 302.699 148.219 302.824 148.367 302.887 148.57 302.887 148.828 302.887 149.152 302.777 149.516 302.559 149.922 302.34 150.328 301.918 150.953 301.293 151.797 300.676 152.641 299.926 153.563 299.043 154.563 298.438 155.258 297.984 155.695 297.684 155.875 297.395 156.051 297.145 156.141 296.934 156.141 296.809 156.141 296.699 156.094 296.605 156 296.512 155.906 296.465 155.797 296.465 155.672 296.465 155.516 296.535 155.367 296.668 155.234 296.793 155.109 296.934 155.047 297.09 155.047 297.176 155.047 297.242 155.063 297.293 155.094 297.324 155.113 297.363 155.172 297.402 155.266 297.434 155.367 297.465 155.438 297.496 155.469 297.516 155.488 297.543 155.5 297.574 155.5 297.594 155.5 297.637 155.477 297.699 155.438 297.918 155.301 298.176 155.082 298.48 154.781 298.863 154.383 299.145 154.063 299.324 153.813L298.996 149.984C298.934 149.352 298.844 148.965 298.73 148.828 298.625 148.695 298.438 148.625 298.168 148.625 298.082 148.625 297.934 148.637 297.715 148.656L297.668 148.438ZM299.434 148"/>
<path d="M304.801 150.578C304.914 150.578 305.008 150.621 305.082 150.703 305.164 150.777 305.207 150.871 305.207 150.984 305.207 151.102 305.164 151.199 305.082 151.281 305.008 151.355 304.914 151.391 304.801 151.391 304.695 151.391 304.602 151.355 304.52 151.281 304.434 151.199 304.395 151.102 304.395 150.984 304.395 150.871 304.43 150.777 304.504 150.703 304.586 150.621 304.684 150.578 304.801 150.578ZM304.848 152.188 304.051 155C303.996 155.199 303.973 155.313 303.973 155.344 303.973 155.387 303.98 155.422 304.004 155.453 304.035 155.484 304.066 155.5 304.098 155.5 304.137 155.5 304.191 155.477 304.254 155.422 304.398 155.309 304.551 155.137 304.707 154.906L304.848 155C304.668 155.281 304.457 155.523 304.207 155.719 304.027 155.852 303.855 155.922 303.691 155.922 303.574 155.922 303.48 155.891 303.41 155.828 303.348 155.766 303.316 155.684 303.316 155.578 303.316 155.477 303.348 155.309 303.41 155.078L303.941 153.281C304.023 152.98 304.066 152.793 304.066 152.719 304.066 152.668 304.043 152.621 304.004 152.578 303.961 152.539 303.902 152.516 303.832 152.516 303.77 152.516 303.645 152.531 303.457 152.563V152.406ZM304.848 152.188"/>
<path d="M306.875 148.609 307.063 146.828C307.113 146.32 307.164 145.977 307.219 145.797 307.289 145.547 307.395 145.371 307.531 145.266 307.676 145.152 307.836 145.094 308.016 145.094 308.16 145.094 308.273 145.137 308.359 145.219 308.441 145.293 308.484 145.391 308.484 145.516 308.484 145.609 308.461 145.715 308.422 145.828 308.367 145.977 308.219 146.309 307.969 146.828L307.141 148.609ZM306.875 148.609"/>
<path d="M308.18 145.125V144.875C308.793 145.18 309.305 145.539 309.711 145.953 310.281 146.539 310.727 147.227 311.039 148.016 311.352 148.809 311.508 149.633 311.508 150.484 311.508 151.734 311.199 152.875 310.586 153.906 309.969 154.938 309.168 155.672 308.18 156.109V155.891C308.668 155.609 309.074 155.234 309.398 154.766 309.719 154.297 309.961 153.695 310.117 152.969 310.273 152.23 310.352 151.465 310.352 150.672 310.352 149.82 310.281 149.039 310.148 148.328 310.043 147.766 309.914 147.32 309.758 146.984 309.609 146.652 309.414 146.328 309.164 146.016 308.914 145.703 308.586 145.406 308.18 145.125ZM308.18 145.125"/>
<path d="M247.063 201.961 246.594 203.602H247.531L247.438 203.992H246.484L245.453 207.555C245.336 207.941 245.281 208.188 245.281 208.289 245.281 208.363 245.297 208.422 245.328 208.461 245.359 208.492 245.395 208.508 245.438 208.508 245.539 208.508 245.676 208.438 245.844 208.289 245.938 208.219 246.148 207.973 246.484 207.555L246.688 207.695C246.32 208.238 245.973 208.625 245.641 208.852 245.41 208.996 245.18 209.07 244.953 209.07 244.773 209.07 244.629 209.016 244.516 208.914 244.398 208.801 244.344 208.656 244.344 208.477 244.344 208.258 244.41 207.93 244.547 207.492L245.547 203.992H244.641L244.703 203.758C245.141 203.633 245.504 203.453 245.797 203.211 246.098 202.973 246.43 202.555 246.797 201.961ZM247.063 201.961" fill="#8c3023"/>
<path d="M250.047 201.055C250.211 201.055 250.352 201.117 250.469 201.242 250.594 201.359 250.656 201.5 250.656 201.664 250.656 201.832 250.594 201.977 250.469 202.102 250.352 202.219 250.211 202.273 250.047 202.273 249.879 202.273 249.734 202.219 249.609 202.102 249.492 201.977 249.438 201.832 249.438 201.664 249.438 201.5 249.492 201.359 249.609 201.242 249.734 201.117 249.879 201.055 250.047 201.055ZM250.125 203.461 248.938 207.695C248.852 207.988 248.813 208.16 248.813 208.211 248.813 208.273 248.828 208.328 248.859 208.367 248.898 208.41 248.945 208.43 249 208.43 249.063 208.43 249.133 208.398 249.219 208.336 249.445 208.148 249.68 207.891 249.922 207.555L250.125 207.695C249.852 208.113 249.531 208.469 249.156 208.758 248.883 208.965 248.625 209.07 248.375 209.07 248.207 209.07 248.07 209.023 247.969 208.93 247.863 208.828 247.813 208.703 247.813 208.555 247.813 208.41 247.863 208.16 247.969 207.805L248.75 205.102C248.875 204.664 248.938 204.391 248.938 204.273 248.938 204.18 248.906 204.109 248.844 204.055 248.781 204.004 248.695 203.977 248.594 203.977 248.5 203.977 248.316 204 248.047 204.039V203.805ZM250.125 203.461" fill="#8c3023"/>
<path d="M253.406 203.461 252.609 206.18C252.961 205.547 253.266 205.066 253.516 204.742 253.891 204.242 254.258 203.879 254.625 203.648 254.844 203.523 255.066 203.461 255.297 203.461 255.492 203.461 255.66 203.531 255.797 203.664 255.93 203.789 256 203.953 256 204.148 256 204.348 255.953 204.609 255.859 204.93L255.438 206.461C256.094 205.234 256.711 204.367 257.297 203.867 257.617 203.598 257.941 203.461 258.266 203.461 258.453 203.461 258.602 203.523 258.719 203.648 258.844 203.773 258.906 203.973 258.906 204.242 258.906 204.473 258.867 204.719 258.797 204.977L258.125 207.336C257.977 207.848 257.906 208.129 257.906 208.18 257.906 208.242 257.926 208.297 257.969 208.336 257.988 208.359 258.02 208.367 258.063 208.367 258.102 208.367 258.172 208.332 258.266 208.258 258.492 208.082 258.711 207.848 258.922 207.555L259.125 207.68C259.02 207.848 258.836 208.07 258.578 208.352 258.328 208.633 258.109 208.828 257.922 208.93 257.742 209.023 257.578 209.07 257.422 209.07 257.285 209.07 257.172 209.023 257.078 208.93 256.984 208.836 256.938 208.719 256.938 208.57 256.938 208.383 257.016 208 257.172 207.414L257.734 205.461C257.859 205.016 257.922 204.77 257.922 204.727 257.941 204.645 257.953 204.57 257.953 204.508 257.953 204.406 257.926 204.32 257.875 204.258 257.832 204.207 257.781 204.18 257.719 204.18 257.551 204.18 257.367 204.27 257.172 204.445 256.617 204.957 256.102 205.672 255.625 206.586 255.301 207.203 255 207.984 254.719 208.93H253.813L254.844 205.273C254.957 204.879 255.016 204.613 255.016 204.477 255.016 204.375 254.988 204.297 254.938 204.242 254.895 204.191 254.844 204.164 254.781 204.164 254.656 204.164 254.516 204.211 254.359 204.305 254.117 204.461 253.805 204.801 253.422 205.32 253.047 205.832 252.754 206.32 252.547 206.789 252.441 207.02 252.203 207.734 251.828 208.93H250.938L252.047 205.008 252.188 204.508C252.219 204.438 252.234 204.379 252.234 204.336 252.234 204.254 252.191 204.176 252.109 204.102 252.035 204.031 251.938 203.992 251.813 203.992 251.758 203.992 251.613 204.02 251.375 204.07L251.313 203.836ZM253.406 203.461" fill="#8c3023"/>
<path d="M261.125 206.648C261.102 206.859 261.094 207.023 261.094 207.148 261.094 207.516 261.219 207.82 261.469 208.07 261.719 208.32 262.023 208.445 262.391 208.445 262.68 208.445 262.957 208.391 263.219 208.273 263.488 208.148 263.891 207.883 264.422 207.477L264.547 207.648C263.598 208.598 262.688 209.07 261.813 209.07 261.227 209.07 260.785 208.891 260.484 208.523 260.191 208.148 260.047 207.738 260.047 207.289 260.047 206.695 260.227 206.086 260.594 205.461 260.969 204.828 261.43 204.336 261.984 203.992 262.547 203.641 263.125 203.461 263.719 203.461 264.145 203.461 264.461 203.551 264.672 203.727 264.879 203.895 264.984 204.098 264.984 204.336 264.984 204.672 264.848 204.992 264.578 205.305 264.234 205.703 263.719 206.02 263.031 206.258 262.582 206.426 261.945 206.555 261.125 206.648ZM261.172 206.352C261.766 206.289 262.25 206.176 262.625 206.008 263.125 205.789 263.492 205.523 263.734 205.211 263.984 204.898 264.109 204.609 264.109 204.336 264.109 204.16 264.055 204.02 263.953 203.914 263.848 203.813 263.695 203.758 263.5 203.758 263.094 203.758 262.656 203.977 262.188 204.414 261.727 204.852 261.391 205.5 261.172 206.352ZM261.172 206.352" fill="#8c3023"/>
<path d="M269.445 203.602H275.977V204.086H269.445ZM269.445 205.57H275.977V206.055H269.445ZM269.445 205.57" fill="#8c3023"/>
<path d="M282.906 201.961 282.438 203.602H283.375L283.281 203.992H282.328L281.297 207.555C281.18 207.941 281.125 208.188 281.125 208.289 281.125 208.363 281.141 208.422 281.172 208.461 281.203 208.492 281.238 208.508 281.281 208.508 281.383 208.508 281.52 208.438 281.688 208.289 281.781 208.219 281.992 207.973 282.328 207.555L282.531 207.695C282.164 208.238 281.816 208.625 281.484 208.852 281.254 208.996 281.023 209.07 280.797 209.07 280.617 209.07 280.473 209.016 280.359 208.914 280.242 208.801 280.188 208.656 280.188 208.477 280.188 208.258 280.254 207.93 280.391 207.492L281.391 203.992H280.484L280.547 203.758C280.984 203.633 281.348 203.453 281.641 203.211 281.941 202.973 282.273 202.555 282.641 201.961ZM282.906 201.961" fill="#8c3023"/>
<path d="M290.375 208.07V205.055H287.359V204.57H290.375V201.57H290.859V204.57H293.875V205.055H290.859V208.07ZM290.375 208.07" fill="#8c3023"/>
<path d="M303.566 200.555H303.77L303.145 208.93H296.91ZM302.145 208.523 302.629 202.398 297.785 208.523ZM302.145 208.523" fill="#8c3023"/>
<path d="M307.922 201.961 307.453 203.602H308.391L308.297 203.992H307.344L306.313 207.555C306.195 207.941 306.141 208.188 306.141 208.289 306.141 208.363 306.156 208.422 306.188 208.461 306.219 208.492 306.254 208.508 306.297 208.508 306.398 208.508 306.535 208.438 306.703 208.289 306.797 208.219 307.008 207.973 307.344 207.555L307.547 207.695C307.18 208.238 306.832 208.625 306.5 208.852 306.27 208.996 306.039 209.07 305.813 209.07 305.633 209.07 305.488 209.016 305.375 208.914 305.258 208.801 305.203 208.656 305.203 208.477 305.203 208.258 305.27 207.93 305.406 207.492L306.406 203.992H305.5L305.563 203.758C306 203.633 306.363 203.453 306.656 203.211 306.957 202.973 307.289 202.555 307.656 201.961ZM307.922 201.961" fill="#8c3023"/>
<path stroke-width=".773437" stroke-linecap="butt" stroke-dasharray="3.093748,2.320311" stroke-linejoin="round" fill="none" stroke="#000000" d="M380.379 171.086 461.914 89.137 462.188 88.863"/>
<path d="M460.738 87.965 464.262 86.777 463.094 90.309ZM460.738 87.965"/>
<path stroke-width=".773437" stroke-linecap="butt" stroke-dasharray="3.093748,2.320311" stroke-linejoin="round" fill="none" stroke="#000000" d="M292.602 127.223 335.641 18.051 335.781 17.688"/>
<path d="M334.094 17.438 336.859 14.953 337.188 18.66ZM334.094 17.438"/>
<path d="M468.852 83.203V83.422C468.246 83.117 467.742 82.766 467.336 82.359 466.75 81.766 466.297 81.07 465.977 80.281 465.664 79.492 465.508 78.668 465.508 77.813 465.508 76.563 465.813 75.43 466.43 74.406 467.055 73.375 467.859 72.637 468.852 72.188V72.438C468.352 72.719 467.938 73.102 467.617 73.578 467.305 74.047 467.07 74.648 466.914 75.375 466.758 76.105 466.68 76.867 466.68 77.656 466.68 78.523 466.746 79.305 466.883 80 466.984 80.563 467.109 81.008 467.258 81.344 467.414 81.676 467.617 82 467.867 82.313 468.117 82.625 468.445 82.922 468.852 83.203ZM468.852 83.203"/>
<path d="M469.395 75.688 471.145 75.313C471.27 75.617 471.367 75.918 471.441 76.219 471.555 76.68 471.645 77.219 471.707 77.844 471.738 78.156 471.785 78.824 471.848 79.844 472.348 79.281 472.645 78.938 472.738 78.813 473.27 78.086 473.574 77.656 473.66 77.531 473.793 77.324 473.887 77.137 473.941 76.969 473.98 76.855 474.004 76.742 474.004 76.625 474.004 76.523 473.91 76.402 473.723 76.266 473.535 76.133 473.441 75.98 473.441 75.813 473.441 75.68 473.492 75.563 473.598 75.469 473.699 75.367 473.82 75.313 473.957 75.313 474.133 75.313 474.285 75.387 474.41 75.531 474.535 75.668 474.598 75.836 474.598 76.031 474.598 76.242 474.566 76.438 474.504 76.625 474.398 76.938 474.199 77.313 473.91 77.75 473.629 78.188 473.168 78.781 472.535 79.531 472.449 79.617 472.004 80.078 471.191 80.922H470.973C470.879 78.371 470.676 76.781 470.363 76.156 470.27 75.949 470.102 75.844 469.863 75.844 469.77 75.844 469.629 75.867 469.441 75.906ZM469.395 75.688"/>
<path d="M476.762 75.313C476.957 75.523 477.105 75.73 477.199 75.938 477.27 76.086 477.391 76.465 477.559 77.078L478.09 76.281C478.234 76.094 478.406 75.914 478.605 75.734 478.813 75.559 478.988 75.438 479.137 75.375 479.23 75.336 479.34 75.313 479.465 75.313 479.629 75.313 479.766 75.359 479.871 75.453 479.973 75.547 480.027 75.664 480.027 75.797 480.027 75.945 479.996 76.047 479.934 76.109 479.816 76.203 479.688 76.25 479.543 76.25 479.457 76.25 479.371 76.234 479.277 76.203 479.09 76.141 478.965 76.109 478.902 76.109 478.797 76.109 478.684 76.168 478.559 76.281 478.309 76.492 478.004 76.891 477.652 77.484L478.152 79.563C478.234 79.887 478.301 80.078 478.355 80.141 478.406 80.203 478.457 80.234 478.512 80.234 478.594 80.234 478.691 80.188 478.809 80.094 479.027 79.906 479.215 79.668 479.371 79.375L479.574 79.469C479.324 79.949 479.004 80.344 478.621 80.656 478.391 80.832 478.203 80.922 478.059 80.922 477.828 80.922 477.645 80.797 477.512 80.547 477.426 80.391 477.254 79.715 476.996 78.516 476.359 79.609 475.855 80.313 475.48 80.625 475.23 80.82 474.988 80.922 474.762 80.922 474.605 80.922 474.461 80.863 474.324 80.75 474.23 80.668 474.184 80.547 474.184 80.391 474.184 80.258 474.23 80.148 474.324 80.063 474.41 79.969 474.512 79.922 474.637 79.922 474.762 79.922 474.895 79.992 475.043 80.125 475.145 80.219 475.23 80.266 475.293 80.266 475.344 80.266 475.406 80.234 475.48 80.172 475.668 80.016 475.922 79.684 476.246 79.172 476.578 78.664 476.793 78.297 476.887 78.078 476.637 77.102 476.5 76.578 476.48 76.516 476.395 76.258 476.277 76.074 476.121 75.969 475.973 75.855 475.754 75.797 475.465 75.797 475.371 75.797 475.266 75.805 475.152 75.813V75.594ZM476.762 75.313"/>
<path d="M482.004 77.91C482.117 77.91 482.211 77.953 482.285 78.035 482.367 78.109 482.41 78.203 482.41 78.316 482.41 78.422 482.367 78.516 482.285 78.598 482.211 78.684 482.117 78.723 482.004 78.723 481.887 78.723 481.789 78.684 481.707 78.598 481.633 78.516 481.598 78.422 481.598 78.316 481.598 78.203 481.633 78.109 481.707 78.035 481.789 77.953 481.887 77.91 482.004 77.91ZM482.066 79.504 481.02 83.098C480.84 83.742 480.586 84.207 480.254 84.488 479.934 84.777 479.582 84.926 479.207 84.926 479.043 84.926 478.918 84.883 478.832 84.801 478.738 84.727 478.691 84.637 478.691 84.535 478.691 84.449 478.73 84.379 478.801 84.316 478.863 84.254 478.938 84.223 479.02 84.223 479.105 84.223 479.172 84.242 479.223 84.285 479.277 84.324 479.301 84.371 479.301 84.426 479.301 84.496 479.27 84.559 479.207 84.613 479.168 84.645 479.145 84.664 479.145 84.676V84.707C479.156 84.715 479.172 84.723 479.191 84.723 479.203 84.73 479.223 84.738 479.254 84.738 479.473 84.738 479.66 84.664 479.816 84.52 479.973 84.383 480.113 84.113 480.238 83.707L481.129 80.613C481.223 80.301 481.27 80.129 481.27 80.098 481.27 80.035 481.238 79.98 481.176 79.926 481.121 79.875 481.051 79.848 480.957 79.848 480.926 79.848 480.883 79.855 480.832 79.863 480.801 79.875 480.754 79.887 480.691 79.895V79.754ZM482.066 79.504"/>
<path d="M484.031 75.922 484.219 74.141C484.27 73.633 484.32 73.289 484.375 73.109 484.445 72.859 484.551 72.684 484.688 72.578 484.832 72.465 484.992 72.406 485.172 72.406 485.316 72.406 485.43 72.449 485.516 72.531 485.598 72.605 485.641 72.703 485.641 72.828 485.641 72.922 485.617 73.027 485.578 73.141 485.523 73.289 485.375 73.621 485.125 74.141L484.297 75.922ZM484.031 75.922"/>
<path d="M484.93 82.141C485.23 82.004 485.477 81.832 485.664 81.625 485.809 81.457 485.883 81.301 485.883 81.156 485.883 81.082 485.871 81.016 485.852 80.953 485.828 80.922 485.773 80.859 485.68 80.766 485.586 80.672 485.527 80.605 485.508 80.563 485.484 80.5 485.477 80.422 485.477 80.328 485.477 80.152 485.531 80 485.648 79.875 485.773 79.75 485.914 79.688 486.07 79.688 486.234 79.688 486.383 79.758 486.508 79.891 486.633 80.027 486.695 80.195 486.695 80.391 486.695 80.758 486.555 81.117 486.273 81.484 485.992 81.848 485.586 82.129 485.055 82.328ZM484.93 82.141"/>
<path d="M491.508 75.688 493.258 75.313C493.383 75.617 493.48 75.918 493.555 76.219 493.668 76.68 493.758 77.219 493.82 77.844 493.852 78.156 493.898 78.824 493.961 79.844 494.461 79.281 494.758 78.938 494.852 78.813 495.383 78.086 495.688 77.656 495.773 77.531 495.906 77.324 496 77.137 496.055 76.969 496.094 76.855 496.117 76.742 496.117 76.625 496.117 76.523 496.023 76.402 495.836 76.266 495.648 76.133 495.555 75.98 495.555 75.813 495.555 75.68 495.605 75.563 495.711 75.469 495.813 75.367 495.934 75.313 496.07 75.313 496.246 75.313 496.398 75.387 496.523 75.531 496.648 75.668 496.711 75.836 496.711 76.031 496.711 76.242 496.68 76.438 496.617 76.625 496.512 76.938 496.313 77.313 496.023 77.75 495.742 78.188 495.281 78.781 494.648 79.531 494.563 79.617 494.117 80.078 493.305 80.922H493.086C492.992 78.371 492.789 76.781 492.477 76.156 492.383 75.949 492.215 75.844 491.977 75.844 491.883 75.844 491.742 75.867 491.555 75.906ZM491.508 75.688"/>
<path d="M498.703 75.313C498.836 75.543 498.93 75.762 498.984 75.969 499.035 76.18 499.086 76.578 499.141 77.172L499.406 80.141C499.645 79.852 500 79.391 500.469 78.766 500.688 78.453 500.957 78.039 501.281 77.516 501.477 77.195 501.598 76.965 501.641 76.828 501.672 76.766 501.688 76.703 501.688 76.641 501.688 76.59 501.672 76.555 501.641 76.531 501.609 76.5 501.531 76.469 501.406 76.438 501.289 76.398 501.191 76.324 501.109 76.219 501.035 76.117 501 75.996 501 75.859 501 75.695 501.047 75.563 501.141 75.469 501.242 75.367 501.367 75.313 501.516 75.313 501.691 75.313 501.844 75.387 501.969 75.531 502.094 75.68 502.156 75.883 502.156 76.141 502.156 76.465 502.047 76.828 501.828 77.234 501.609 77.641 501.188 78.266 500.563 79.109 499.945 79.953 499.195 80.875 498.313 81.875 497.707 82.57 497.254 83.008 496.953 83.188 496.664 83.363 496.414 83.453 496.203 83.453 496.078 83.453 495.969 83.406 495.875 83.313 495.781 83.219 495.734 83.109 495.734 82.984 495.734 82.828 495.805 82.68 495.938 82.547 496.063 82.422 496.203 82.359 496.359 82.359 496.445 82.359 496.512 82.375 496.563 82.406 496.594 82.426 496.633 82.484 496.672 82.578 496.703 82.68 496.734 82.75 496.766 82.781 496.785 82.801 496.813 82.813 496.844 82.813 496.863 82.813 496.906 82.789 496.969 82.75 497.188 82.613 497.445 82.395 497.75 82.094 498.133 81.695 498.414 81.375 498.594 81.125L498.266 77.297C498.203 76.664 498.113 76.277 498 76.141 497.895 76.008 497.707 75.938 497.438 75.938 497.352 75.938 497.203 75.949 496.984 75.969L496.938 75.75ZM498.703 75.313"/>
<path d="M504.117 77.91C504.23 77.91 504.324 77.953 504.398 78.035 504.48 78.109 504.523 78.203 504.523 78.316 504.523 78.422 504.48 78.516 504.398 78.598 504.324 78.684 504.23 78.723 504.117 78.723 504 78.723 503.902 78.684 503.82 78.598 503.746 78.516 503.711 78.422 503.711 78.316 503.711 78.203 503.746 78.109 503.82 78.035 503.902 77.953 504 77.91 504.117 77.91ZM504.18 79.504 503.133 83.098C502.953 83.742 502.699 84.207 502.367 84.488 502.047 84.777 501.695 84.926 501.32 84.926 501.156 84.926 501.031 84.883 500.945 84.801 500.852 84.727 500.805 84.637 500.805 84.535 500.805 84.449 500.844 84.379 500.914 84.316 500.977 84.254 501.051 84.223 501.133 84.223 501.219 84.223 501.285 84.242 501.336 84.285 501.391 84.324 501.414 84.371 501.414 84.426 501.414 84.496 501.383 84.559 501.32 84.613 501.281 84.645 501.258 84.664 501.258 84.676V84.707C501.27 84.715 501.285 84.723 501.305 84.723 501.316 84.73 501.336 84.738 501.367 84.738 501.586 84.738 501.773 84.664 501.93 84.52 502.086 84.383 502.227 84.113 502.352 83.707L503.242 80.613C503.336 80.301 503.383 80.129 503.383 80.098 503.383 80.035 503.352 79.98 503.289 79.926 503.234 79.875 503.164 79.848 503.07 79.848 503.039 79.848 502.996 79.855 502.945 79.863 502.914 79.875 502.867 79.887 502.805 79.895V79.754ZM504.18 79.504"/>
<path d="M506.145 75.922 506.332 74.141C506.383 73.633 506.434 73.289 506.488 73.109 506.559 72.859 506.664 72.684 506.801 72.578 506.945 72.465 507.105 72.406 507.285 72.406 507.43 72.406 507.543 72.449 507.629 72.531 507.711 72.605 507.754 72.703 507.754 72.828 507.754 72.922 507.73 73.027 507.691 73.141 507.637 73.289 507.488 73.621 507.238 74.141L506.41 75.922ZM506.145 75.922"/>
<path d="M507.445 72.438V72.188C508.059 72.492 508.57 72.852 508.977 73.266 509.547 73.852 509.992 74.539 510.305 75.328 510.617 76.121 510.773 76.945 510.773 77.797 510.773 79.047 510.465 80.188 509.852 81.219 509.234 82.25 508.434 82.984 507.445 83.422V83.203C507.934 82.922 508.34 82.547 508.664 82.078 508.984 81.609 509.227 81.008 509.383 80.281 509.539 79.543 509.617 78.777 509.617 77.984 509.617 77.133 509.547 76.352 509.414 75.641 509.309 75.078 509.18 74.633 509.023 74.297 508.875 73.965 508.68 73.641 508.43 73.328 508.18 73.016 507.852 72.719 507.445 72.438ZM507.445 72.438"/>
<path d="M341.75 11.016V11.234C341.145 10.93 340.641 10.578 340.234 10.172 339.648 9.578 339.195 8.883 338.875 8.094 338.563 7.305 338.406 6.48 338.406 5.625 338.406 4.375 338.711 3.242 339.328 2.219 339.953 1.188 340.758 .449 341.75 0V.25C341.25 .531 340.836 .914 340.516 1.391 340.203 1.859 339.969 2.461 339.813 3.188 339.656 3.918 339.578 4.68 339.578 5.469 339.578 6.336 339.645 7.117 339.781 7.813 339.883 8.375 340.008 8.82 340.156 9.156 340.313 9.488 340.516 9.813 340.766 10.125 341.016 10.438 341.344 10.734 341.75 11.016ZM341.75 11.016"/>
<path d="M342.293 3.5 344.043 3.125C344.168 3.43 344.266 3.73 344.34 4.031 344.453 4.492 344.543 5.031 344.605 5.656 344.637 5.969 344.684 6.637 344.746 7.656 345.246 7.094 345.543 6.75 345.637 6.625 346.168 5.898 346.473 5.469 346.559 5.344 346.691 5.137 346.785 4.949 346.84 4.781 346.879 4.668 346.902 4.555 346.902 4.438 346.902 4.336 346.809 4.215 346.621 4.078 346.434 3.945 346.34 3.793 346.34 3.625 346.34 3.492 346.391 3.375 346.496 3.281 346.598 3.18 346.719 3.125 346.855 3.125 347.031 3.125 347.184 3.199 347.309 3.344 347.434 3.48 347.496 3.648 347.496 3.844 347.496 4.055 347.465 4.25 347.402 4.438 347.297 4.75 347.098 5.125 346.809 5.563 346.527 6 346.066 6.594 345.434 7.344 345.348 7.43 344.902 7.891 344.09 8.734H343.871C343.777 6.184 343.574 4.594 343.262 3.969 343.168 3.762 343 3.656 342.762 3.656 342.668 3.656 342.527 3.68 342.34 3.719ZM342.293 3.5"/>
<path d="M349.66 3.125C349.855 3.336 350.004 3.543 350.098 3.75 350.168 3.898 350.289 4.277 350.457 4.891L350.988 4.094C351.133 3.906 351.305 3.727 351.504 3.547 351.711 3.371 351.887 3.25 352.035 3.188 352.129 3.148 352.238 3.125 352.363 3.125 352.527 3.125 352.664 3.172 352.77 3.266 352.871 3.359 352.926 3.477 352.926 3.609 352.926 3.758 352.895 3.859 352.832 3.922 352.715 4.016 352.586 4.063 352.441 4.063 352.355 4.063 352.27 4.047 352.176 4.016 351.988 3.953 351.863 3.922 351.801 3.922 351.695 3.922 351.582 3.98 351.457 4.094 351.207 4.305 350.902 4.703 350.551 5.297L351.051 7.375C351.133 7.699 351.199 7.891 351.254 7.953 351.305 8.016 351.355 8.047 351.41 8.047 351.492 8.047 351.59 8 351.707 7.906 351.926 7.719 352.113 7.48 352.27 7.188L352.473 7.281C352.223 7.762 351.902 8.156 351.52 8.469 351.289 8.645 351.102 8.734 350.957 8.734 350.727 8.734 350.543 8.609 350.41 8.359 350.324 8.203 350.152 7.527 349.895 6.328 349.258 7.422 348.754 8.125 348.379 8.438 348.129 8.633 347.887 8.734 347.66 8.734 347.504 8.734 347.359 8.676 347.223 8.563 347.129 8.48 347.082 8.359 347.082 8.203 347.082 8.07 347.129 7.961 347.223 7.875 347.309 7.781 347.41 7.734 347.535 7.734 347.66 7.734 347.793 7.805 347.941 7.938 348.043 8.031 348.129 8.078 348.191 8.078 348.242 8.078 348.305 8.047 348.379 7.984 348.566 7.828 348.82 7.496 349.145 6.984 349.477 6.477 349.691 6.109 349.785 5.891 349.535 4.914 349.398 4.391 349.379 4.328 349.293 4.07 349.176 3.887 349.02 3.781 348.871 3.668 348.652 3.609 348.363 3.609 348.27 3.609 348.164 3.617 348.051 3.625V3.406ZM349.66 3.125"/>
<path d="M354.855 5.707C354.969 5.707 355.063 5.75 355.137 5.832 355.219 5.906 355.262 6 355.262 6.113 355.262 6.23 355.219 6.328 355.137 6.41 355.063 6.484 354.969 6.52 354.855 6.52 354.75 6.52 354.656 6.484 354.574 6.41 354.488 6.328 354.449 6.23 354.449 6.113 354.449 6 354.484 5.906 354.559 5.832 354.641 5.75 354.738 5.707 354.855 5.707ZM354.902 7.316 354.105 10.129C354.051 10.328 354.027 10.441 354.027 10.473 354.027 10.516 354.035 10.551 354.059 10.582 354.09 10.613 354.121 10.629 354.152 10.629 354.191 10.629 354.246 10.605 354.309 10.551 354.453 10.438 354.605 10.266 354.762 10.035L354.902 10.129C354.723 10.41 354.512 10.652 354.262 10.848 354.082 10.98 353.91 11.051 353.746 11.051 353.629 11.051 353.535 11.02 353.465 10.957 353.402 10.895 353.371 10.813 353.371 10.707 353.371 10.605 353.402 10.438 353.465 10.207L353.996 8.41C354.078 8.109 354.121 7.922 354.121 7.848 354.121 7.797 354.098 7.75 354.059 7.707 354.016 7.668 353.957 7.645 353.887 7.645 353.824 7.645 353.699 7.66 353.512 7.691V7.535ZM354.902 7.316"/>
<path d="M356.93 3.734 357.117 1.953C357.168 1.445 357.219 1.102 357.273 .922 357.344 .672 357.449 .496 357.586 .391 357.73 .277 357.891 .219 358.07 .219 358.215 .219 358.328 .262 358.414 .344 358.496 .418 358.539 .516 358.539 .641 358.539 .734 358.516 .84 358.477 .953 358.422 1.102 358.273 1.434 358.023 1.953L357.195 3.734ZM356.93 3.734"/>
<path d="M357.828 9.953C358.129 9.816 358.375 9.645 358.563 9.438 358.707 9.27 358.781 9.113 358.781 8.969 358.781 8.895 358.77 8.828 358.75 8.766 358.727 8.734 358.672 8.672 358.578 8.578 358.484 8.484 358.426 8.418 358.406 8.375 358.383 8.313 358.375 8.234 358.375 8.141 358.375 7.965 358.43 7.813 358.547 7.688 358.672 7.563 358.813 7.5 358.969 7.5 359.133 7.5 359.281 7.57 359.406 7.703 359.531 7.84 359.594 8.008 359.594 8.203 359.594 8.57 359.453 8.93 359.172 9.297 358.891 9.66 358.484 9.941 357.953 10.141ZM357.828 9.953"/>
<path d="M364.406 3.5 366.156 3.125C366.281 3.43 366.379 3.73 366.453 4.031 366.566 4.492 366.656 5.031 366.719 5.656 366.75 5.969 366.797 6.637 366.859 7.656 367.359 7.094 367.656 6.75 367.75 6.625 368.281 5.898 368.586 5.469 368.672 5.344 368.805 5.137 368.898 4.949 368.953 4.781 368.992 4.668 369.016 4.555 369.016 4.438 369.016 4.336 368.922 4.215 368.734 4.078 368.547 3.945 368.453 3.793 368.453 3.625 368.453 3.492 368.504 3.375 368.609 3.281 368.711 3.18 368.832 3.125 368.969 3.125 369.145 3.125 369.297 3.199 369.422 3.344 369.547 3.48 369.609 3.648 369.609 3.844 369.609 4.055 369.578 4.25 369.516 4.438 369.41 4.75 369.211 5.125 368.922 5.563 368.641 6 368.18 6.594 367.547 7.344 367.461 7.43 367.016 7.891 366.203 8.734H365.984C365.891 6.184 365.688 4.594 365.375 3.969 365.281 3.762 365.113 3.656 364.875 3.656 364.781 3.656 364.641 3.68 364.453 3.719ZM364.406 3.5"/>
<path d="M371.602 3.125C371.734 3.355 371.828 3.574 371.883 3.781 371.934 3.992 371.984 4.391 372.039 4.984L372.305 7.953C372.543 7.664 372.898 7.203 373.367 6.578 373.586 6.266 373.855 5.852 374.18 5.328 374.375 5.008 374.496 4.777 374.539 4.641 374.57 4.578 374.586 4.516 374.586 4.453 374.586 4.402 374.57 4.367 374.539 4.344 374.508 4.313 374.43 4.281 374.305 4.25 374.188 4.211 374.09 4.137 374.008 4.031 373.934 3.93 373.898 3.809 373.898 3.672 373.898 3.508 373.945 3.375 374.039 3.281 374.141 3.18 374.266 3.125 374.414 3.125 374.59 3.125 374.742 3.199 374.867 3.344 374.992 3.492 375.055 3.695 375.055 3.953 375.055 4.277 374.945 4.641 374.727 5.047 374.508 5.453 374.086 6.078 373.461 6.922 372.844 7.766 372.094 8.688 371.211 9.688 370.605 10.383 370.152 10.82 369.852 11 369.563 11.176 369.313 11.266 369.102 11.266 368.977 11.266 368.867 11.219 368.773 11.125 368.68 11.031 368.633 10.922 368.633 10.797 368.633 10.641 368.703 10.492 368.836 10.359 368.961 10.234 369.102 10.172 369.258 10.172 369.344 10.172 369.41 10.188 369.461 10.219 369.492 10.238 369.531 10.297 369.57 10.391 369.602 10.492 369.633 10.563 369.664 10.594 369.684 10.613 369.711 10.625 369.742 10.625 369.762 10.625 369.805 10.602 369.867 10.563 370.086 10.426 370.344 10.207 370.648 9.906 371.031 9.508 371.313 9.188 371.492 8.938L371.164 5.109C371.102 4.477 371.012 4.09 370.898 3.953 370.793 3.82 370.605 3.75 370.336 3.75 370.25 3.75 370.102 3.762 369.883 3.781L369.836 3.563ZM371.602 3.125"/>
<path d="M376.969 5.707C377.082 5.707 377.176 5.75 377.25 5.832 377.332 5.906 377.375 6 377.375 6.113 377.375 6.23 377.332 6.328 377.25 6.41 377.176 6.484 377.082 6.52 376.969 6.52 376.863 6.52 376.77 6.484 376.688 6.41 376.602 6.328 376.563 6.23 376.563 6.113 376.563 6 376.598 5.906 376.672 5.832 376.754 5.75 376.852 5.707 376.969 5.707ZM377.016 7.316 376.219 10.129C376.164 10.328 376.141 10.441 376.141 10.473 376.141 10.516 376.148 10.551 376.172 10.582 376.203 10.613 376.234 10.629 376.266 10.629 376.305 10.629 376.359 10.605 376.422 10.551 376.566 10.438 376.719 10.266 376.875 10.035L377.016 10.129C376.836 10.41 376.625 10.652 376.375 10.848 376.195 10.98 376.023 11.051 375.859 11.051 375.742 11.051 375.648 11.02 375.578 10.957 375.516 10.895 375.484 10.813 375.484 10.707 375.484 10.605 375.516 10.438 375.578 10.207L376.109 8.41C376.191 8.109 376.234 7.922 376.234 7.848 376.234 7.797 376.211 7.75 376.172 7.707 376.129 7.668 376.07 7.645 376 7.645 375.938 7.645 375.813 7.66 375.625 7.691V7.535ZM377.016 7.316"/>
<path d="M379.043 3.734 379.23 1.953C379.281 1.445 379.332 1.102 379.387 .922 379.457 .672 379.563 .496 379.699 .391 379.844 .277 380.004 .219 380.184 .219 380.328 .219 380.441 .262 380.527 .344 380.609 .418 380.652 .516 380.652 .641 380.652 .734 380.629 .84 380.59 .953 380.535 1.102 380.387 1.434 380.137 1.953L379.309 3.734ZM379.043 3.734"/>
<path d="M380.344 .25V0C380.957 .305 381.469 .664 381.875 1.078 382.445 1.664 382.891 2.352 383.203 3.141 383.516 3.934 383.672 4.758 383.672 5.609 383.672 6.859 383.363 8 382.75 9.031 382.133 10.063 381.332 10.797 380.344 11.234V11.016C380.832 10.734 381.238 10.359 381.563 9.891 381.883 9.422 382.125 8.82 382.281 8.094 382.438 7.355 382.516 6.59 382.516 5.797 382.516 4.945 382.445 4.164 382.313 3.453 382.207 2.891 382.078 2.445 381.922 2.109 381.773 1.777 381.578 1.453 381.328 1.141 381.078 .828 380.75 .531 380.344 .25ZM380.344 .25"/>
<path d="M389.379 245.727V245.945C388.773 245.641 388.27 245.289 387.863 244.883 387.277 244.289 386.824 243.594 386.504 242.805 386.191 242.016 386.035 241.191 386.035 240.336 386.035 239.086 386.34 237.953 386.957 236.93 387.582 235.898 388.387 235.16 389.379 234.711V234.961C388.879 235.242 388.465 235.625 388.145 236.102 387.832 236.57 387.598 237.172 387.441 237.898 387.285 238.629 387.207 239.391 387.207 240.18 387.207 241.047 387.273 241.828 387.41 242.523 387.512 243.086 387.637 243.531 387.785 243.867 387.941 244.199 388.145 244.523 388.395 244.836 388.645 245.148 388.973 245.445 389.379 245.727ZM389.379 245.727"/>
<path d="M389.922 238.211 391.672 237.836C391.797 238.141 391.895 238.441 391.969 238.742 392.082 239.203 392.172 239.742 392.234 240.367 392.266 240.68 392.313 241.348 392.375 242.367 392.875 241.805 393.172 241.461 393.266 241.336 393.797 240.609 394.102 240.18 394.188 240.055 394.32 239.848 394.414 239.66 394.469 239.492 394.508 239.379 394.531 239.266 394.531 239.148 394.531 239.047 394.438 238.926 394.25 238.789 394.063 238.656 393.969 238.504 393.969 238.336 393.969 238.203 394.02 238.086 394.125 237.992 394.227 237.891 394.348 237.836 394.484 237.836 394.66 237.836 394.813 237.91 394.938 238.055 395.063 238.191 395.125 238.359 395.125 238.555 395.125 238.766 395.094 238.961 395.031 239.148 394.926 239.461 394.727 239.836 394.438 240.273 394.156 240.711 393.695 241.305 393.063 242.055 392.977 242.141 392.531 242.602 391.719 243.445H391.5C391.406 240.895 391.203 239.305 390.891 238.68 390.797 238.473 390.629 238.367 390.391 238.367 390.297 238.367 390.156 238.391 389.969 238.43ZM389.922 238.211"/>
<path d="M397.285 237.836C397.48 238.047 397.629 238.254 397.723 238.461 397.793 238.609 397.914 238.988 398.082 239.602L398.613 238.805C398.758 238.617 398.93 238.438 399.129 238.258 399.336 238.082 399.512 237.961 399.66 237.898 399.754 237.859 399.863 237.836 399.988 237.836 400.152 237.836 400.289 237.883 400.395 237.977 400.496 238.07 400.551 238.188 400.551 238.32 400.551 238.469 400.52 238.57 400.457 238.633 400.34 238.727 400.211 238.773 400.066 238.773 399.98 238.773 399.895 238.758 399.801 238.727 399.613 238.664 399.488 238.633 399.426 238.633 399.32 238.633 399.207 238.691 399.082 238.805 398.832 239.016 398.527 239.414 398.176 240.008L398.676 242.086C398.758 242.41 398.824 242.602 398.879 242.664 398.93 242.727 398.98 242.758 399.035 242.758 399.117 242.758 399.215 242.711 399.332 242.617 399.551 242.43 399.738 242.191 399.895 241.898L400.098 241.992C399.848 242.473 399.527 242.867 399.145 243.18 398.914 243.355 398.727 243.445 398.582 243.445 398.352 243.445 398.168 243.32 398.035 243.07 397.949 242.914 397.777 242.238 397.52 241.039 396.883 242.133 396.379 242.836 396.004 243.148 395.754 243.344 395.512 243.445 395.285 243.445 395.129 243.445 394.984 243.387 394.848 243.273 394.754 243.191 394.707 243.07 394.707 242.914 394.707 242.781 394.754 242.672 394.848 242.586 394.934 242.492 395.035 242.445 395.16 242.445 395.285 242.445 395.418 242.516 395.566 242.648 395.668 242.742 395.754 242.789 395.816 242.789 395.867 242.789 395.93 242.758 396.004 242.695 396.191 242.539 396.445 242.207 396.77 241.695 397.102 241.188 397.316 240.82 397.41 240.602 397.16 239.625 397.023 239.102 397.004 239.039 396.918 238.781 396.801 238.598 396.645 238.492 396.496 238.379 396.277 238.32 395.988 238.32 395.895 238.32 395.789 238.328 395.676 238.336V238.117ZM397.285 237.836"/>
<path d="M402.531 240.434C402.645 240.434 402.738 240.477 402.813 240.559 402.895 240.633 402.938 240.727 402.938 240.84 402.938 240.945 402.895 241.039 402.813 241.121 402.738 241.207 402.645 241.246 402.531 241.246 402.414 241.246 402.316 241.207 402.234 241.121 402.16 241.039 402.125 240.945 402.125 240.84 402.125 240.727 402.16 240.633 402.234 240.559 402.316 240.477 402.414 240.434 402.531 240.434ZM402.594 242.027 401.547 245.621C401.367 246.266 401.113 246.73 400.781 247.012 400.461 247.301 400.109 247.449 399.734 247.449 399.57 247.449 399.445 247.406 399.359 247.324 399.266 247.25 399.219 247.16 399.219 247.059 399.219 246.973 399.258 246.902 399.328 246.84 399.391 246.777 399.465 246.746 399.547 246.746 399.633 246.746 399.699 246.766 399.75 246.809 399.805 246.848 399.828 246.895 399.828 246.949 399.828 247.02 399.797 247.082 399.734 247.137 399.695 247.168 399.672 247.188 399.672 247.199V247.23C399.684 247.238 399.699 247.246 399.719 247.246 399.73 247.254 399.75 247.262 399.781 247.262 400 247.262 400.188 247.188 400.344 247.043 400.5 246.906 400.641 246.637 400.766 246.23L401.656 243.137C401.75 242.824 401.797 242.652 401.797 242.621 401.797 242.559 401.766 242.504 401.703 242.449 401.648 242.398 401.578 242.371 401.484 242.371 401.453 242.371 401.41 242.379 401.359 242.387 401.328 242.398 401.281 242.41 401.219 242.418V242.277ZM402.594 242.027"/>
<path d="M404.871 244.664C405.172 244.527 405.418 244.355 405.605 244.148 405.75 243.98 405.824 243.824 405.824 243.68 405.824 243.605 405.813 243.539 405.793 243.477 405.77 243.445 405.715 243.383 405.621 243.289 405.527 243.195 405.469 243.129 405.449 243.086 405.426 243.023 405.418 242.945 405.418 242.852 405.418 242.676 405.473 242.523 405.59 242.398 405.715 242.273 405.855 242.211 406.012 242.211 406.176 242.211 406.324 242.281 406.449 242.414 406.574 242.551 406.637 242.719 406.637 242.914 406.637 243.281 406.496 243.641 406.215 244.008 405.934 244.371 405.527 244.652 404.996 244.852ZM404.871 244.664"/>
<path d="M411.449 238.211 413.199 237.836C413.324 238.141 413.422 238.441 413.496 238.742 413.609 239.203 413.699 239.742 413.762 240.367 413.793 240.68 413.84 241.348 413.902 242.367 414.402 241.805 414.699 241.461 414.793 241.336 415.324 240.609 415.629 240.18 415.715 240.055 415.848 239.848 415.941 239.66 415.996 239.492 416.035 239.379 416.059 239.266 416.059 239.148 416.059 239.047 415.965 238.926 415.777 238.789 415.59 238.656 415.496 238.504 415.496 238.336 415.496 238.203 415.547 238.086 415.652 237.992 415.754 237.891 415.875 237.836 416.012 237.836 416.188 237.836 416.34 237.91 416.465 238.055 416.59 238.191 416.652 238.359 416.652 238.555 416.652 238.766 416.621 238.961 416.559 239.148 416.453 239.461 416.254 239.836 415.965 240.273 415.684 240.711 415.223 241.305 414.59 242.055 414.504 242.141 414.059 242.602 413.246 243.445H413.027C412.934 240.895 412.73 239.305 412.418 238.68 412.324 238.473 412.156 238.367 411.918 238.367 411.824 238.367 411.684 238.391 411.496 238.43ZM411.449 238.211"/>
<path d="M418.641 237.836C418.773 238.066 418.867 238.285 418.922 238.492 418.973 238.703 419.023 239.102 419.078 239.695L419.344 242.664C419.582 242.375 419.938 241.914 420.406 241.289 420.625 240.977 420.895 240.563 421.219 240.039 421.414 239.719 421.535 239.488 421.578 239.352 421.609 239.289 421.625 239.227 421.625 239.164 421.625 239.113 421.609 239.078 421.578 239.055 421.547 239.023 421.469 238.992 421.344 238.961 421.227 238.922 421.129 238.848 421.047 238.742 420.973 238.641 420.938 238.52 420.938 238.383 420.938 238.219 420.984 238.086 421.078 237.992 421.18 237.891 421.305 237.836 421.453 237.836 421.629 237.836 421.781 237.91 421.906 238.055 422.031 238.203 422.094 238.406 422.094 238.664 422.094 238.988 421.984 239.352 421.766 239.758 421.547 240.164 421.125 240.789 420.5 241.633 419.883 242.477 419.133 243.398 418.25 244.398 417.645 245.094 417.191 245.531 416.891 245.711 416.602 245.887 416.352 245.977 416.141 245.977 416.016 245.977 415.906 245.93 415.813 245.836 415.719 245.742 415.672 245.633 415.672 245.508 415.672 245.352 415.742 245.203 415.875 245.07 416 244.945 416.141 244.883 416.297 244.883 416.383 244.883 416.449 244.898 416.5 244.93 416.531 244.949 416.57 245.008 416.609 245.102 416.641 245.203 416.672 245.273 416.703 245.305 416.723 245.324 416.75 245.336 416.781 245.336 416.801 245.336 416.844 245.313 416.906 245.273 417.125 245.137 417.383 244.918 417.688 244.617 418.07 244.219 418.352 243.898 418.531 243.648L418.203 239.82C418.141 239.188 418.051 238.801 417.938 238.664 417.832 238.531 417.645 238.461 417.375 238.461 417.289 238.461 417.141 238.473 416.922 238.492L416.875 238.273ZM418.641 237.836"/>
<path d="M424.059 240.434C424.172 240.434 424.266 240.477 424.34 240.559 424.422 240.633 424.465 240.727 424.465 240.84 424.465 240.945 424.422 241.039 424.34 241.121 424.266 241.207 424.172 241.246 424.059 241.246 423.941 241.246 423.844 241.207 423.762 241.121 423.688 241.039 423.652 240.945 423.652 240.84 423.652 240.727 423.688 240.633 423.762 240.559 423.844 240.477 423.941 240.434 424.059 240.434ZM424.121 242.027 423.074 245.621C422.895 246.266 422.641 246.73 422.309 247.012 421.988 247.301 421.637 247.449 421.262 247.449 421.098 247.449 420.973 247.406 420.887 247.324 420.793 247.25 420.746 247.16 420.746 247.059 420.746 246.973 420.785 246.902 420.855 246.84 420.918 246.777 420.992 246.746 421.074 246.746 421.16 246.746 421.227 246.766 421.277 246.809 421.332 246.848 421.355 246.895 421.355 246.949 421.355 247.02 421.324 247.082 421.262 247.137 421.223 247.168 421.199 247.188 421.199 247.199V247.23C421.211 247.238 421.227 247.246 421.246 247.246 421.258 247.254 421.277 247.262 421.309 247.262 421.527 247.262 421.715 247.188 421.871 247.043 422.027 246.906 422.168 246.637 422.293 246.23L423.184 243.137C423.277 242.824 423.324 242.652 423.324 242.621 423.324 242.559 423.293 242.504 423.23 242.449 423.176 242.398 423.105 242.371 423.012 242.371 422.98 242.371 422.938 242.379 422.887 242.387 422.855 242.398 422.809 242.41 422.746 242.418V242.277ZM424.121 242.027"/>
<path d="M424.742 234.961V234.711C425.355 235.016 425.867 235.375 426.273 235.789 426.844 236.375 427.289 237.063 427.602 237.852 427.914 238.645 428.07 239.469 428.07 240.32 428.07 241.57 427.762 242.711 427.148 243.742 426.531 244.773 425.73 245.508 424.742 245.945V245.727C425.23 245.445 425.637 245.07 425.961 244.602 426.281 244.133 426.523 243.531 426.68 242.805 426.836 242.066 426.914 241.301 426.914 240.508 426.914 239.656 426.844 238.875 426.711 238.164 426.605 237.602 426.477 237.156 426.32 236.82 426.172 236.488 425.977 236.164 425.727 235.852 425.477 235.539 425.148 235.242 424.742 234.961ZM424.742 234.961"/>
</g>
</svg>
