<svg xmlns="http://www.w3.org/2000/svg" xmlns:xlink="http://www.w3.org/1999/xlink" xmlns:inkscape="http://www.inkscape.org/namespaces/inkscape" version="1.1" width="644" height="217" viewBox="0 0 644 217">
<defs>
<clipPath id="clip_1">
<path d="M5 5H633V206H5Z"/>
</clipPath>
<clipPath id="clip_2">
<path d="M0 0H644V217H0Z"/>
</clipPath>
<clipPath id="clip_3">
<path d="M23 28.43H287V170.789H23Z"/>
</clipPath>
<clipPath id="clip_4">
<path d="M0 0H644V217H0Z"/>
</clipPath>
<clipPath id="clip_5">
<path d="M119 67H287V166H119Z"/>
</clipPath>
<clipPath id="clip_6">
<path d="M0 0H644V217H0Z"/>
</clipPath>
<clipPath id="clip_7">
<path d="M377 17.602H629V193.946H377Z"/>
</clipPath>
<clipPath id="clip_8">
<path d="M0 0H644V217H0Z"/>
</clipPath>
<clipPath id="clip_9">
<path d="M451 60H629V164H451Z"/>
</clipPath>
<clipPath id="clip_10">
<path d="M0 0H644V217H0Z"/>
</clipPath>
</defs>
<g>
<g clip-path="url(#clip_1)">
<g clip-path="url(#clip_2)">
<path d="M5.766 5.824H632.25V205.371H5.766Z" fill="#ffffff"/>
</g>
</g>
<g clip-path="url(#clip_3)">
<g clip-path="url(#clip_4)">
<path d="M23 28.004H287V419H23Z" fill="#ffffff"/>
</g>
<path transform="matrix(1,0,0,-.999829,0,0)" stroke-width="1.110057" stroke-linecap="butt" stroke-miterlimit="4" stroke-linejoin="miter" fill="none" stroke="#e39e82" d="M64.172-54.908 207.051-160.512"/>
</g>
<g clip-path="url(#clip_5)">
<g clip-path="url(#clip_6)">
<path transform="matrix(1,0,0,-.999829,0,0)" stroke-width="1.110057" stroke-linecap="butt" stroke-miterlimit="4" stroke-linejoin="miter" fill="none" stroke="#e39e82" d="M125.574-159.051 284.781-74.106"/>
</g>
</g>
<path d="M96.516 71.66C96.516 78.707 90.805 84.414 83.758 84.414 76.715 84.414 71.004 78.707 71.004 71.66 71.004 64.613 76.715 58.902 83.758 58.902 90.805 58.902 96.516 64.613 96.516 71.66" fill="#e6e6e8"/>
<path d="M108.777 80.176C108.777 87.223 103.066 92.934 96.02 92.934 88.977 92.934 83.266 87.223 83.266 80.176 83.266 73.133 88.977 67.422 96.02 67.422 103.066 67.422 108.777 73.133 108.777 80.176" fill="#cfd1d4"/>
<path d="M121.039 88.691C121.039 95.738 115.328 101.449 108.281 101.449 101.238 101.449 95.527 95.738 95.527 88.691 95.527 81.648 101.238 75.938 108.281 75.938 115.328 75.938 121.039 81.648 121.039 88.691" fill="#babdbf"/>
<path d="M133.301 97.211C133.301 104.254 127.594 109.965 120.543 109.965 113.5 109.965 107.789 104.254 107.789 97.211 107.789 90.164 113.5 84.453 120.543 84.453 127.594 84.453 133.301 90.164 133.301 97.211" fill="#a6a8ab"/>
<path d="M145.566 105.727C145.566 112.773 139.855 118.48 132.805 118.48 125.766 118.48 120.051 112.773 120.051 105.727 120.051 98.68 125.766 92.973 132.805 92.973 139.855 92.973 145.566 98.68 145.566 105.727" fill="#919497"/>
<path d="M157.828 114.242C157.828 121.289 152.117 127 145.07 127 138.027 127 132.313 121.289 132.313 114.242 132.313 107.199 138.027 101.488 145.07 101.488 152.117 101.488 157.828 107.199 157.828 114.242" fill="#7f7f85"/>
<path d="M170.086 122.758C170.086 129.805 164.375 135.516 157.328 135.516 150.285 135.516 144.574 129.805 144.574 122.758 144.574 115.715 150.285 110.004 157.328 110.004 164.375 110.004 170.086 115.715 170.086 122.758" fill="#6b6e70"/>
<path d="M270.965 94.875C270.965 105.727 262.168 114.523 251.313 114.523 240.457 114.523 231.656 105.727 231.656 94.875 231.656 84.02 240.457 75.227 251.313 75.227 262.168 75.227 270.965 84.02 270.965 94.875" fill="#e6e6e8"/>
<path d="M263.473 98.422C263.473 109.277 254.676 118.074 243.82 118.074 232.965 118.074 224.164 109.277 224.164 98.422 224.164 87.57 232.965 78.773 243.82 78.773 254.676 78.773 263.473 87.57 263.473 98.422" fill="#cfd1d4"/>
<path d="M255.98 101.973C255.98 112.828 247.184 121.621 236.328 121.621 225.473 121.621 216.672 112.828 216.672 101.973 216.672 91.117 225.473 82.324 236.328 82.324 247.184 82.324 255.98 91.117 255.98 101.973" fill="#babdbf"/>
<path d="M248.488 105.523C248.488 116.375 239.691 125.172 228.836 125.172 217.98 125.172 209.18 116.375 209.18 105.523 209.18 94.668 217.98 85.875 228.836 85.875 239.691 85.875 248.488 94.668 248.488 105.523" fill="#a6a8ab"/>
<path d="M240.996 109.07C240.996 119.926 232.199 128.723 221.344 128.723 210.488 128.723 201.688 119.926 201.688 109.07 201.688 98.219 210.488 89.422 221.344 89.422 232.199 89.422 240.996 98.219 240.996 109.07" fill="#919497"/>
<path d="M233.504 112.621C233.504 123.473 224.707 132.27 213.852 132.27 202.996 132.27 194.195 123.473 194.195 112.621 194.195 101.766 202.996 92.973 213.852 92.973 224.707 92.973 233.504 101.766 233.504 112.621" fill="#7f7f85"/>
<path d="M226.012 116.168C226.012 127.023 217.215 135.82 206.359 135.82 195.504 135.82 186.703 127.023 186.703 116.168 186.703 105.316 195.504 96.523 206.359 96.523 217.215 96.523 226.012 105.316 226.012 116.168" fill="#6b6e70"/>
<path d="M33.363 34.91V39.191H33.332C32.988 38.629 32.238 38.207 31.191 38.207 29.379 38.207 27.801 39.707 27.816 42.238 27.816 44.582 29.238 46.113 31.066 46.113 32.145 46.113 33.066 45.582 33.52 44.738H33.551L33.645 45.941H35.332C35.301 45.426 35.27 44.598 35.27 43.816V34.91ZM33.363 42.66C33.363 42.863 33.348 43.051 33.301 43.223 33.113 44.051 32.426 44.582 31.645 44.582 30.441 44.582 29.754 43.566 29.754 42.16 29.754 40.77 30.441 39.676 31.66 39.676 32.535 39.676 33.145 40.285 33.316 41.02 33.348 41.176 33.363 41.379 33.363 41.535ZM33.363 42.66" fill="#bd3019"/>
<path d="M37.621 36.957V38.379H36.559V39.801H37.621V43.363C37.621 44.363 37.809 45.051 38.23 45.488 38.59 45.879 39.168 46.113 39.887 46.113 40.465 46.113 40.98 46.02 41.262 45.91L41.23 44.473C41.012 44.535 40.824 44.551 40.48 44.551 39.762 44.551 39.512 44.082 39.512 43.145V39.801H41.324V38.379H39.512V36.441ZM37.621 36.957" fill="#bd3019"/>
<path d="M46.289 36.957V38.379H45.227V39.801H46.289V43.363C46.289 44.363 46.477 45.051 46.898 45.488 47.258 45.879 47.836 46.113 48.555 46.113 49.133 46.113 49.648 46.02 49.93 45.91L49.898 44.473C49.68 44.535 49.492 44.551 49.148 44.551 48.43 44.551 48.18 44.082 48.18 43.145V39.801H49.992V38.379H48.18V36.441ZM46.289 36.957" fill="#bd3019"/>
<path d="M54.77 38.207C52.488 38.207 50.863 39.723 50.863 42.207 50.863 44.645 52.52 46.113 54.645 46.113 56.582 46.113 58.535 44.863 58.535 42.082 58.535 39.785 57.02 38.207 54.77 38.207ZM54.723 39.582C56.035 39.582 56.566 40.957 56.566 42.129 56.566 43.676 55.801 44.723 54.707 44.723 53.566 44.723 52.832 43.629 52.832 42.16 52.832 40.91 53.379 39.582 54.723 39.582ZM54.723 39.582" fill="#bd3019"/>
<path d="M63.531 38.207C61.25 38.207 59.625 39.723 59.625 42.207 59.625 44.645 61.281 46.113 63.406 46.113 65.344 46.113 67.297 44.863 67.297 42.082 67.297 39.785 65.781 38.207 63.531 38.207ZM63.484 39.582C64.797 39.582 65.328 40.957 65.328 42.129 65.328 43.676 64.563 44.723 63.469 44.723 62.328 44.723 61.594 43.629 61.594 42.16 61.594 40.91 62.141 39.582 63.484 39.582ZM63.484 39.582" fill="#bd3019"/>
<path d="M71.613 45.566C72.176 45.879 72.988 46.098 73.91 46.098 75.91 46.098 76.988 45.098 76.988 43.723 76.973 42.598 76.348 41.91 74.957 41.426 74.004 41.066 73.645 40.848 73.645 40.363 73.645 39.895 74.02 39.551 74.707 39.551 75.363 39.551 75.988 39.801 76.301 39.988L76.691 38.66C76.238 38.41 75.504 38.207 74.676 38.207 72.91 38.207 71.816 39.238 71.816 40.566 71.816 41.473 72.41 42.27 73.895 42.77 74.832 43.113 75.129 43.363 75.129 43.879 75.129 44.379 74.77 44.723 73.926 44.723 73.238 44.723 72.41 44.441 72.004 44.176ZM71.613 45.566" fill="#bd3019"/>
<path d="M78.559 45.941H80.418V41.473C80.418 41.254 80.449 41.035 80.512 40.832 80.699 40.316 81.184 39.754 81.887 39.754 82.777 39.754 83.199 40.504 83.199 41.566V45.941H85.059V41.41C85.059 41.191 85.09 40.941 85.152 40.77 85.355 40.223 85.84 39.754 86.496 39.754 87.402 39.754 87.84 40.504 87.84 41.77V45.941H89.699V41.488C89.699 39.066 88.434 38.207 87.184 38.207 86.559 38.207 86.074 38.363 85.637 38.66 85.293 38.879 84.98 39.191 84.715 39.598H84.684C84.355 38.77 83.59 38.207 82.59 38.207 81.309 38.207 80.621 38.91 80.262 39.488H80.215L80.121 38.379H78.496C78.527 39.035 78.559 39.754 78.559 40.629ZM78.559 45.941" fill="#bd3019"/>
<path d="M97.586 41.41C97.586 39.738 96.898 38.207 94.477 38.207 93.273 38.207 92.289 38.535 91.742 38.879L92.102 40.113C92.617 39.785 93.398 39.551 94.148 39.551 95.477 39.551 95.68 40.379 95.68 40.879V41.004C92.883 40.988 91.195 41.973 91.195 43.863 91.195 45.004 92.039 46.113 93.57 46.113 94.57 46.113 95.352 45.691 95.805 45.098H95.852L95.992 45.941H97.711C97.617 45.473 97.586 44.801 97.586 44.129ZM95.727 43.285C95.727 43.426 95.727 43.566 95.68 43.707 95.492 44.254 94.945 44.738 94.18 44.738 93.57 44.738 93.086 44.41 93.086 43.66 93.086 42.504 94.383 42.223 95.727 42.238ZM95.727 43.285" fill="#bd3019"/>
<path d="M99.617 34.91H101.522998V45.941H99.617Z" fill="#bd3019"/>
<path d="M103.609 34.91H105.515V45.941H103.609Z" fill="#bd3019"/>
<path d="M108.504 40.879C109.238 40.879 109.707 40.348 109.707 39.66 109.707 38.941 109.238 38.441 108.535 38.441 107.848 38.441 107.363 38.957 107.363 39.66 107.363 40.348 107.848 40.879 108.504 40.879ZM108.504 46.113C109.238 46.113 109.707 45.582 109.707 44.895 109.707 44.176 109.238 43.676 108.535 43.676 107.848 43.676 107.363 44.191 107.363 44.895 107.363 45.582 107.848 46.113 108.504 46.113ZM108.504 46.113" fill="#bd3019"/>
<path d="M120.887 42.691C120.918 42.52 120.949 42.238 120.949 41.895 120.949 40.223 120.137 38.207 117.684 38.207 115.262 38.207 113.996 40.176 113.996 42.27 113.996 44.598 115.434 46.098 117.887 46.098 118.98 46.098 119.887 45.895 120.527 45.613L120.246 44.316C119.668 44.52 119.043 44.645 118.152 44.645 116.934 44.645 115.871 44.066 115.824 42.691ZM115.824 41.363C115.902 40.582 116.402 39.504 117.574 39.504 118.855 39.504 119.168 40.66 119.152 41.363ZM115.824 41.363" fill="#bd3019"/>
<path d="M121.508 38.379 124.039 42.082 121.414 45.941H123.523L124.398 44.441C124.633 44.02 124.867 43.645 125.086 43.207H125.117C125.32 43.629 125.539 44.035 125.789 44.441L126.711 45.941H128.883L126.305 42.02 128.836 38.379H126.758L125.914 39.77C125.68 40.16 125.461 40.551 125.242 40.973H125.227C125.008 40.582 124.789 40.207 124.539 39.801L123.633 38.379ZM121.508 38.379" fill="#bd3019"/>
<path d="M135.043 44.301C134.668 44.457 134.184 44.598 133.527 44.598 132.23 44.598 131.215 43.707 131.215 42.145 131.199 40.77 132.074 39.691 133.527 39.691 134.215 39.691 134.668 39.832 134.98 39.988L135.309 38.551C134.887 38.363 134.168 38.207 133.465 38.207 130.809 38.207 129.262 39.957 129.262 42.223 129.262 44.582 130.793 46.098 133.152 46.098 134.105 46.098 134.902 45.895 135.293 45.707ZM135.043 44.301" fill="#bd3019"/>
<path d="M142.984 42.691C143.016 42.52 143.047 42.238 143.047 41.895 143.047 40.223 142.234 38.207 139.781 38.207 137.359 38.207 136.094 40.176 136.094 42.27 136.094 44.598 137.531 46.098 139.984 46.098 141.078 46.098 141.984 45.895 142.625 45.613L142.344 44.316C141.766 44.52 141.141 44.645 140.25 44.645 139.031 44.645 137.969 44.066 137.922 42.691ZM137.922 41.363C138 40.582 138.5 39.504 139.672 39.504 140.953 39.504 141.266 40.66 141.25 41.363ZM137.922 41.363" fill="#bd3019"/>
<path d="M144.125 45.566C144.688 45.879 145.5 46.098 146.422 46.098 148.422 46.098 149.5 45.098 149.5 43.723 149.484 42.598 148.859 41.91 147.469 41.426 146.516 41.066 146.156 40.848 146.156 40.363 146.156 39.895 146.531 39.551 147.219 39.551 147.875 39.551 148.5 39.801 148.813 39.988L149.203 38.66C148.75 38.41 148.016 38.207 147.188 38.207 145.422 38.207 144.328 39.238 144.328 40.566 144.328 41.473 144.922 42.27 146.406 42.77 147.344 43.113 147.641 43.363 147.641 43.879 147.641 44.379 147.281 44.723 146.438 44.723 145.75 44.723 144.922 44.441 144.516 44.176ZM144.125 45.566" fill="#bd3019"/>
<path d="M150.602 45.566C151.164 45.879 151.977 46.098 152.898 46.098 154.898 46.098 155.977 45.098 155.977 43.723 155.961 42.598 155.336 41.91 153.945 41.426 152.992 41.066 152.633 40.848 152.633 40.363 152.633 39.895 153.008 39.551 153.695 39.551 154.352 39.551 154.977 39.801 155.289 39.988L155.68 38.66C155.227 38.41 154.492 38.207 153.664 38.207 151.898 38.207 150.805 39.238 150.805 40.566 150.805 41.473 151.398 42.27 152.883 42.77 153.82 43.113 154.117 43.363 154.117 43.879 154.117 44.379 153.758 44.723 152.914 44.723 152.227 44.723 151.398 44.441 150.992 44.176ZM150.602 45.566" fill="#bd3019"/>
<path d="M159.453 45.941V38.379H157.547V45.941ZM158.5 35.223C157.859 35.223 157.438 35.676 157.438 36.27 157.438 36.832 157.844 37.285 158.484 37.285 159.156 37.285 159.578 36.832 159.578 36.27 159.563 35.676 159.156 35.223 158.5 35.223ZM158.5 35.223" fill="#bd3019"/>
<path d="M160.66 38.379 163.473 45.941H165.348L168.238 38.379H166.238L165.02 42.207C164.816 42.895 164.645 43.488 164.504 44.113H164.457C164.332 43.488 164.176 42.879 163.957 42.207L162.723 38.379ZM160.66 38.379" fill="#bd3019"/>
<path d="M175.613 42.691C175.645 42.52 175.676 42.238 175.676 41.895 175.676 40.223 174.863 38.207 172.41 38.207 169.988 38.207 168.723 40.176 168.723 42.27 168.723 44.598 170.16 46.098 172.613 46.098 173.707 46.098 174.613 45.895 175.254 45.613L174.973 44.316C174.395 44.52 173.77 44.645 172.879 44.645 171.66 44.645 170.598 44.066 170.551 42.691ZM170.551 41.363C170.629 40.582 171.129 39.504 172.301 39.504 173.582 39.504 173.895 40.66 173.879 41.363ZM170.551 41.363" fill="#bd3019"/>
<path d="M185.734 44.301C185.359 44.457 184.875 44.598 184.219 44.598 182.922 44.598 181.906 43.707 181.906 42.145 181.891 40.77 182.766 39.691 184.219 39.691 184.906 39.691 185.359 39.832 185.672 39.988L186 38.551C185.578 38.363 184.859 38.207 184.156 38.207 181.5 38.207 179.953 39.957 179.953 42.223 179.953 44.582 181.484 46.098 183.844 46.098 184.797 46.098 185.594 45.895 185.984 45.707ZM185.734 44.301" fill="#bd3019"/>
<path d="M190.691 38.207C188.41 38.207 186.785 39.723 186.785 42.207 186.785 44.645 188.441 46.113 190.566 46.113 192.504 46.113 194.457 44.863 194.457 42.082 194.457 39.785 192.941 38.207 190.691 38.207ZM190.645 39.582C191.957 39.582 192.488 40.957 192.488 42.129 192.488 43.676 191.723 44.723 190.629 44.723 189.488 44.723 188.754 43.629 188.754 42.16 188.754 40.91 189.301 39.582 190.645 39.582ZM190.645 39.582" fill="#bd3019"/>
<path d="M196.027 45.941H197.887V41.473C197.887 41.254 197.918 41.035 197.98 40.832 198.168 40.316 198.652 39.754 199.355 39.754 200.246 39.754 200.668 40.504 200.668 41.566V45.941H202.527V41.41C202.527 41.191 202.559 40.941 202.621 40.77 202.824 40.223 203.309 39.754 203.965 39.754 204.871 39.754 205.309 40.504 205.309 41.77V45.941H207.168V41.488C207.168 39.066 205.902 38.207 204.652 38.207 204.027 38.207 203.543 38.363 203.105 38.66 202.762 38.879 202.449 39.191 202.184 39.598H202.152C201.824 38.77 201.059 38.207 200.059 38.207 198.777 38.207 198.09 38.91 197.73 39.488H197.684L197.59 38.379H195.965C195.996 39.035 196.027 39.754 196.027 40.629ZM196.027 45.941" fill="#bd3019"/>
<path d="M209.199 49.02H211.105V45.098H211.137C211.527 45.707 212.309 46.113 213.262 46.113 214.98 46.113 216.715 44.785 216.715 42.051 216.715 39.691 215.262 38.207 213.527 38.207 212.371 38.207 211.496 38.691 210.934 39.535H210.902L210.809 38.379H209.137C209.168 39.098 209.199 39.895 209.199 40.895ZM211.105 41.613C211.105 41.457 211.137 41.285 211.168 41.129 211.371 40.285 212.09 39.707 212.887 39.707 214.121 39.707 214.762 40.801 214.762 42.129 214.762 43.629 214.059 44.645 212.84 44.645 212.027 44.645 211.355 44.082 211.152 43.301 211.121 43.129 211.105 42.957 211.105 42.77ZM211.105 41.613" fill="#bd3019"/>
<path d="M225.051 38.379H223.145V42.941C223.145 43.16 223.113 43.379 223.035 43.535 222.848 44.035 222.348 44.566 221.566 44.566 220.566 44.566 220.16 43.754 220.16 42.488V38.379H218.254V42.816C218.254 45.285 219.504 46.113 220.879 46.113 222.238 46.113 222.988 45.332 223.316 44.801H223.363L223.457 45.941H225.113C225.082 45.316 225.051 44.582 225.051 43.676ZM225.051 38.379" fill="#bd3019"/>
<path d="M227.418 36.957V38.379H226.355V39.801H227.418V43.363C227.418 44.363 227.605 45.051 228.027 45.488 228.387 45.879 228.965 46.113 229.684 46.113 230.262 46.113 230.777 46.02 231.059 45.91L231.027 44.473C230.809 44.535 230.621 44.551 230.277 44.551 229.559 44.551 229.309 44.082 229.309 43.145V39.801H231.121V38.379H229.309V36.441ZM227.418 36.957" fill="#bd3019"/>
<path d="M238.43 41.41C238.43 39.738 237.742 38.207 235.32 38.207 234.117 38.207 233.133 38.535 232.586 38.879L232.945 40.113C233.461 39.785 234.242 39.551 234.992 39.551 236.32 39.551 236.523 40.379 236.523 40.879V41.004C233.727 40.988 232.039 41.973 232.039 43.863 232.039 45.004 232.883 46.113 234.414 46.113 235.414 46.113 236.195 45.691 236.648 45.098H236.695L236.836 45.941H238.555C238.461 45.473 238.43 44.801 238.43 44.129ZM236.57 43.285C236.57 43.426 236.57 43.566 236.523 43.707 236.336 44.254 235.789 44.738 235.023 44.738 234.414 44.738 233.93 44.41 233.93 43.66 233.93 42.504 235.227 42.223 236.57 42.238ZM236.57 43.285" fill="#bd3019"/>
<path d="M240.664 36.957V38.379H239.602V39.801H240.664V43.363C240.664 44.363 240.852 45.051 241.273 45.488 241.633 45.879 242.211 46.113 242.93 46.113 243.508 46.113 244.023 46.02 244.305 45.91L244.273 44.473C244.055 44.535 243.867 44.551 243.523 44.551 242.805 44.551 242.555 44.082 242.555 43.145V39.801H244.367V38.379H242.555V36.441ZM240.664 36.957" fill="#bd3019"/>
<path d="M247.727 45.941V38.379H245.82V45.941ZM246.773 35.223C246.133 35.223 245.711 35.676 245.711 36.27 245.711 36.832 246.117 37.285 246.758 37.285 247.43 37.285 247.852 36.832 247.852 36.27 247.836 35.676 247.43 35.223 246.773 35.223ZM246.773 35.223" fill="#bd3019"/>
<path d="M253.219 38.207C250.938 38.207 249.313 39.723 249.313 42.207 249.313 44.645 250.969 46.113 253.094 46.113 255.031 46.113 256.984 44.863 256.984 42.082 256.984 39.785 255.469 38.207 253.219 38.207ZM253.172 39.582C254.484 39.582 255.016 40.957 255.016 42.129 255.016 43.676 254.25 44.723 253.156 44.723 252.016 44.723 251.281 43.629 251.281 42.16 251.281 40.91 251.828 39.582 253.172 39.582ZM253.172 39.582" fill="#bd3019"/>
<path d="M258.555 45.941H260.461V41.488C260.461 41.27 260.492 41.035 260.555 40.879 260.758 40.301 261.289 39.754 262.039 39.754 263.086 39.754 263.492 40.582 263.492 41.676V45.941H265.398V41.457C265.398 39.066 264.023 38.207 262.711 38.207 261.445 38.207 260.633 38.926 260.289 39.504H260.242L260.148 38.379H258.492C258.523 39.035 258.555 39.754 258.555 40.629ZM258.555 45.941" fill="#bd3019"/>
<g clip-path="url(#clip_7)">
<g clip-path="url(#clip_8)">
<path d="M377-124.996H629V248H377Z" fill="#ffffff"/>
</g>
<path transform="matrix(1,0,0,-.99922,0,0)" stroke-width="1.0596" stroke-linecap="butt" stroke-miterlimit="4" stroke-linejoin="miter" fill="none" stroke="#e39e82" d="M416.301-48.358 595.641-180.907"/>
</g>
<g clip-path="url(#clip_9)">
<g clip-path="url(#clip_10)">
<path transform="matrix(1,0,0,-.99922,0,0)" stroke-width="1.0596" stroke-linecap="butt" stroke-miterlimit="4" stroke-linejoin="miter" fill="none" stroke="#e39e82" d="M457.223-157.205 626.883-66.681"/>
</g>
</g>
<path d="M572.125 153.723C572.125 160.445 566.672 165.895 559.945 165.895 553.223 165.895 547.77 160.445 547.77 153.723 547.77 147.004 553.223 141.555 559.945 141.555 566.672 141.555 572.125 147.004 572.125 153.723" fill="#7f7f85"/>
<path d="M447.176 62.73C447.176 69.453 441.723 74.898 434.996 74.898 428.273 74.898 422.82 69.453 422.82 62.73 422.82 56.008 428.273 50.563 434.996 50.563 441.723 50.563 447.176 56.008 447.176 62.73" fill="#e6e6e8"/>
<path d="M613.695 84.875C613.695 95.227 605.297 103.621 594.934 103.621 584.574 103.621 576.172 95.227 576.172 84.875 576.172 74.52 584.574 66.129 594.934 66.129 605.297 66.129 613.695 74.52 613.695 84.875" fill="#e6e6e8"/>
<path d="M504.445 104.738C504.445 111.461 498.992 116.91 492.266 116.91 485.543 116.91 480.09 111.461 480.09 104.738 480.09 98.02 485.543 92.57 492.266 92.57 498.992 92.57 504.445 98.02 504.445 104.738" fill="#babdbf"/>
<path d="M560.848 112.238C560.848 122.59 552.449 130.984 542.09 130.984 531.727 130.984 523.324 122.59 523.324 112.238 523.324 101.883 531.727 93.492 542.09 93.492 552.449 93.492 560.848 101.883 560.848 112.238" fill="#babdbf"/>
<path d="M510.023 138.07C510.023 148.422 501.625 156.813 491.262 156.813 480.898 156.813 472.5 148.422 472.5 138.07 472.5 127.711 480.898 119.32 491.262 119.32 501.625 119.32 510.023 127.711 510.023 138.07" fill="#7f7f85"/>
<path d="M386.891 28.883V32.961H386.859C386.531 32.414 385.828 32.023 384.828 32.023 383.094 32.023 381.578 33.461 381.594 35.867 381.594 38.102 382.969 39.555 384.703 39.555 385.734 39.555 386.609 39.055 387.047 38.258H387.063L387.156 39.398H388.781C388.75 38.914 388.719 38.117 388.719 37.367V28.883ZM386.891 36.273C386.891 36.461 386.875 36.648 386.828 36.805 386.656 37.586 386 38.102 385.266 38.102 384.109 38.102 383.453 37.133 383.453 35.805 383.453 34.461 384.109 33.43 385.281 33.43 386.109 33.43 386.688 34.008 386.844 34.695 386.875 34.852 386.891 35.039 386.891 35.195ZM386.891 36.273" fill="#bd3019"/>
<path d="M390.969 30.836V32.18H389.938V33.555H390.969V36.945C390.969 37.883 391.141 38.555 391.547 38.977 391.875 39.336 392.438 39.555 393.109 39.555 393.672 39.555 394.172 39.477 394.438 39.367L394.406 37.992C394.188 38.055 394.016 38.07 393.688 38.07 393 38.07 392.75 37.617 392.75 36.727V33.555H394.484V32.18H392.75V30.336ZM390.969 30.836" fill="#bd3019"/>
<path d="M399.242 30.836V32.18H398.211V33.555H399.242V36.945C399.242 37.883 399.414 38.555 399.82 38.977 400.148 39.336 400.711 39.555 401.383 39.555 401.945 39.555 402.445 39.477 402.711 39.367L402.68 37.992C402.461 38.055 402.289 38.07 401.961 38.07 401.273 38.07 401.023 37.617 401.023 36.727V33.555H402.758V32.18H401.023V30.336ZM399.242 30.836" fill="#bd3019"/>
<path d="M407.324 32.023C405.152 32.023 403.59 33.477 403.59 35.836 403.59 38.164 405.184 39.555 407.215 39.555 409.043 39.555 410.918 38.383 410.918 35.727 410.918 33.539 409.48 32.023 407.324 32.023ZM407.293 33.336C408.527 33.336 409.043 34.648 409.043 35.773 409.043 37.242 408.309 38.242 407.277 38.242 406.168 38.242 405.48 37.195 405.48 35.805 405.48 34.602 405.996 33.336 407.293 33.336ZM407.293 33.336" fill="#bd3019"/>
<path d="M415.688 32.023C413.516 32.023 411.953 33.477 411.953 35.836 411.953 38.164 413.547 39.555 415.578 39.555 417.406 39.555 419.281 38.383 419.281 35.727 419.281 33.539 417.844 32.023 415.688 32.023ZM415.656 33.336C416.891 33.336 417.406 34.648 417.406 35.773 417.406 37.242 416.672 38.242 415.641 38.242 414.531 38.242 413.844 37.195 413.844 35.805 413.844 34.602 414.359 33.336 415.656 33.336ZM415.656 33.336" fill="#bd3019"/>
<path d="M423.852 28.883H425.66499V39.399H423.852Z" fill="#bd3019"/>
<path d="M433.254 35.07C433.254 33.492 432.598 32.023 430.285 32.023 429.145 32.023 428.207 32.336 427.676 32.664L428.02 33.852C428.52 33.539 429.254 33.305 429.973 33.305 431.238 33.305 431.441 34.102 431.441 34.57V34.695C428.77 34.68 427.145 35.602 427.145 37.414 427.145 38.508 427.973 39.555 429.426 39.555 430.363 39.555 431.129 39.164 431.551 38.602H431.598L431.738 39.398H433.379C433.285 38.961 433.254 38.32 433.254 37.664ZM431.473 36.867C431.473 36.992 431.473 37.133 431.441 37.258 431.254 37.789 430.738 38.258 430.004 38.258 429.426 38.258 428.957 37.93 428.957 37.227 428.957 36.117 430.191 35.852 431.473 35.867ZM431.473 36.867" fill="#bd3019"/>
<path d="M435.191 39.398H437.004V35.648C437.004 35.461 437.02 35.273 437.051 35.102 437.223 34.273 437.832 33.727 438.691 33.727 438.91 33.727 439.066 33.742 439.238 33.773V32.07C439.082 32.039 438.988 32.023 438.801 32.023 438.02 32.023 437.176 32.539 436.816 33.555H436.77L436.691 32.18H435.129C435.176 32.82 435.191 33.539 435.191 34.508ZM435.191 39.398" fill="#bd3019"/>
<path d="M446.883 34.258C446.883 33.273 446.914 32.68 446.945 32.18H445.352L445.289 33.148H445.258C444.914 32.555 444.273 32.023 443.164 32.023 441.43 32.023 439.883 33.461 439.883 35.836 439.883 37.867 441.164 39.352 442.961 39.352 443.914 39.352 444.648 38.93 445.055 38.289H445.086V38.914C445.086 40.461 444.195 41.086 443.008 41.086 442.133 41.086 441.367 40.805 440.914 40.539L440.508 41.914C441.133 42.289 442.117 42.492 443.023 42.492 444.023 42.492 445.07 42.289 445.82 41.617 446.57 40.945 446.883 39.852 446.883 38.352ZM445.055 36.242C445.055 36.445 445.039 36.695 444.992 36.883 444.773 37.555 444.18 37.992 443.508 37.992 442.367 37.992 441.742 36.992 441.742 35.773 441.742 34.305 442.492 33.414 443.523 33.414 444.289 33.414 444.805 33.914 445.008 34.586 445.039 34.727 445.055 34.898 445.055 35.07ZM445.055 36.242" fill="#bd3019"/>
<path d="M454.969 36.305C454.984 36.133 455.016 35.867 455.016 35.539 455.016 33.945 454.25 32.023 451.906 32.023 449.594 32.023 448.375 33.898 448.375 35.898 448.375 38.117 449.75 39.539 452.094 39.539 453.141 39.539 454 39.352 454.625 39.086L454.359 37.836C453.797 38.039 453.203 38.164 452.359 38.164 451.188 38.164 450.172 37.602 450.125 36.305ZM450.125 35.023C450.203 34.289 450.672 33.273 451.797 33.273 453.016 33.273 453.313 34.367 453.297 35.023ZM450.125 35.023" fill="#bd3019"/>
<path d="M457.367 34.57C458.055 34.57 458.508 34.07 458.508 33.414 458.508 32.711 458.055 32.242 457.398 32.242 456.727 32.242 456.258 32.727 456.258 33.414 456.258 34.07 456.727 34.57 457.367 34.57ZM457.367 39.555C458.055 39.555 458.508 39.055 458.508 38.398 458.508 37.711 458.055 37.242 457.398 37.242 456.727 37.242 456.258 37.727 456.258 38.398 456.258 39.055 456.727 39.555 457.367 39.555ZM457.367 39.555" fill="#bd3019"/>
<path d="M463.063 39.398H464.844V35.133C464.844 34.93 464.859 34.711 464.922 34.523 465.109 34.039 465.563 33.508 466.25 33.508 467.094 33.508 467.484 34.211 467.484 35.227V39.398H469.266V35.07C469.266 34.867 469.297 34.633 469.359 34.461 469.547 33.945 470.016 33.508 470.641 33.508 471.516 33.508 471.922 34.211 471.922 35.414V39.398H473.703V35.148C473.703 32.836 472.484 32.023 471.297 32.023 470.688 32.023 470.234 32.164 469.813 32.445 469.5 32.664 469.203 32.961 468.938 33.352H468.906C468.609 32.555 467.859 32.023 466.906 32.023 465.688 32.023 465.031 32.695 464.688 33.258H464.641L464.547 32.18H463C463.031 32.805 463.063 33.508 463.063 34.336ZM463.063 39.398" fill="#bd3019"/>
<path d="M481.227 35.07C481.227 33.492 480.57 32.023 478.258 32.023 477.117 32.023 476.18 32.336 475.648 32.664L475.992 33.852C476.492 33.539 477.227 33.305 477.945 33.305 479.211 33.305 479.414 34.102 479.414 34.57V34.695C476.742 34.68 475.117 35.602 475.117 37.414 475.117 38.508 475.945 39.555 477.398 39.555 478.336 39.555 479.102 39.164 479.523 38.602H479.57L479.711 39.398H481.352C481.258 38.961 481.227 38.32 481.227 37.664ZM479.445 36.867C479.445 36.992 479.445 37.133 479.414 37.258 479.227 37.789 478.711 38.258 477.977 38.258 477.398 38.258 476.93 37.93 476.93 37.227 476.93 36.117 478.164 35.852 479.445 35.867ZM479.445 36.867" fill="#bd3019"/>
<path d="M482.156 32.18 484.797 38.805C484.875 38.977 484.891 39.086 484.891 39.164 484.891 39.258 484.859 39.352 484.797 39.492 484.531 39.977 484.141 40.398 483.781 40.633 483.406 40.898 483.047 41.055 482.734 41.133L483.141 42.664C483.594 42.602 484.328 42.367 485.063 41.742 485.906 40.992 486.563 39.805 487.563 37.102L489.375 32.18H487.422L486.297 36.039C486.156 36.492 486.016 37.039 485.922 37.445H485.875C485.766 37.039 485.609 36.492 485.453 36.055L484.172 32.18ZM482.156 32.18" fill="#bd3019"/>
<path d="M493.496 39.398H495.277V35.133C495.277 34.93 495.293 34.711 495.355 34.523 495.543 34.039 495.996 33.508 496.684 33.508 497.527 33.508 497.918 34.211 497.918 35.227V39.398H499.699V35.07C499.699 34.867 499.73 34.633 499.793 34.461 499.98 33.945 500.449 33.508 501.074 33.508 501.949 33.508 502.355 34.211 502.355 35.414V39.398H504.137V35.148C504.137 32.836 502.918 32.023 501.73 32.023 501.121 32.023 500.668 32.164 500.246 32.445 499.934 32.664 499.637 32.961 499.371 33.352H499.34C499.043 32.555 498.293 32.023 497.34 32.023 496.121 32.023 495.465 32.695 495.121 33.258H495.074L494.98 32.18H493.434C493.465 32.805 493.496 33.508 493.496 34.336ZM493.496 39.398" fill="#bd3019"/>
<path d="M507.879 39.398V32.18H506.066V39.398ZM506.973 29.18C506.379 29.18 505.957 29.602 505.957 30.164 505.957 30.711 506.363 31.148 506.973 31.148 507.598 31.148 508.004 30.711 508.004 30.164 507.988 29.602 507.598 29.18 506.973 29.18ZM506.973 29.18" fill="#bd3019"/>
<path d="M509.41 39.039C509.941 39.336 510.738 39.539 511.613 39.539 513.52 39.539 514.551 38.602 514.551 37.273 514.535 36.211 513.941 35.555 512.613 35.086 511.691 34.742 511.348 34.539 511.348 34.086 511.348 33.633 511.707 33.305 512.363 33.305 513.004 33.305 513.598 33.555 513.895 33.727L514.254 32.445C513.832 32.211 513.129 32.023 512.332 32.023 510.66 32.023 509.613 32.992 509.613 34.273 509.613 35.133 510.191 35.898 511.598 36.383 512.488 36.695 512.785 36.945 512.785 37.43 512.785 37.898 512.426 38.242 511.629 38.242 510.973 38.242 510.191 37.961 509.785 37.711ZM509.41 39.039" fill="#bd3019"/>
<path d="M515.59 39.039C516.121 39.336 516.918 39.539 517.793 39.539 519.699 39.539 520.73 38.602 520.73 37.273 520.715 36.211 520.121 35.555 518.793 35.086 517.871 34.742 517.527 34.539 517.527 34.086 517.527 33.633 517.887 33.305 518.543 33.305 519.184 33.305 519.777 33.555 520.074 33.727L520.434 32.445C520.012 32.211 519.309 32.023 518.512 32.023 516.84 32.023 515.793 32.992 515.793 34.273 515.793 35.133 516.371 35.898 517.777 36.383 518.668 36.695 518.965 36.945 518.965 37.43 518.965 37.898 518.605 38.242 517.809 38.242 517.152 38.242 516.371 37.961 515.965 37.711ZM515.59 39.039" fill="#bd3019"/>
<path d="M530.34 37.836C529.98 37.977 529.527 38.117 528.902 38.117 527.652 38.117 526.699 37.258 526.699 35.789 526.684 34.461 527.512 33.445 528.902 33.445 529.559 33.445 529.98 33.57 530.277 33.727L530.605 32.352C530.199 32.164 529.512 32.023 528.84 32.023 526.309 32.023 524.824 33.695 524.824 35.852 524.824 38.102 526.293 39.539 528.543 39.539 529.449 39.539 530.215 39.352 530.59 39.18ZM530.34 37.836" fill="#bd3019"/>
<path d="M535.082 32.023C532.91 32.023 531.348 33.477 531.348 35.836 531.348 38.164 532.941 39.555 534.973 39.555 536.801 39.555 538.676 38.383 538.676 35.727 538.676 33.539 537.238 32.023 535.082 32.023ZM535.051 33.336C536.285 33.336 536.801 34.648 536.801 35.773 536.801 37.242 536.066 38.242 535.035 38.242 533.926 38.242 533.238 37.195 533.238 35.805 533.238 34.602 533.754 33.336 535.051 33.336ZM535.051 33.336" fill="#bd3019"/>
<path d="M540.18 28.883H541.993V39.399H540.18Z" fill="#bd3019"/>
<path d="M543.988 28.883H545.80099V39.399H543.988Z" fill="#bd3019"/>
<path d="M549.609 39.398V32.18H547.797V39.398ZM548.703 29.18C548.109 29.18 547.688 29.602 547.688 30.164 547.688 30.711 548.094 31.148 548.703 31.148 549.328 31.148 549.734 30.711 549.734 30.164 549.719 29.602 549.328 29.18 548.703 29.18ZM548.703 29.18" fill="#bd3019"/>
<path d="M551.141 39.039C551.672 39.336 552.469 39.539 553.344 39.539 555.25 39.539 556.281 38.602 556.281 37.273 556.266 36.211 555.672 35.555 554.344 35.086 553.422 34.742 553.078 34.539 553.078 34.086 553.078 33.633 553.438 33.305 554.094 33.305 554.734 33.305 555.328 33.555 555.625 33.727L555.984 32.445C555.563 32.211 554.859 32.023 554.063 32.023 552.391 32.023 551.344 32.992 551.344 34.273 551.344 35.133 551.922 35.898 553.328 36.383 554.219 36.695 554.516 36.945 554.516 37.43 554.516 37.898 554.156 38.242 553.359 38.242 552.703 38.242 551.922 37.961 551.516 37.711ZM551.141 39.039" fill="#bd3019"/>
<path d="M559.586 39.398V32.18H557.773V39.398ZM558.68 29.18C558.086 29.18 557.664 29.602 557.664 30.164 557.664 30.711 558.07 31.148 558.68 31.148 559.305 31.148 559.711 30.711 559.711 30.164 559.695 29.602 559.305 29.18 558.68 29.18ZM558.68 29.18" fill="#bd3019"/>
<path d="M564.836 32.023C562.664 32.023 561.102 33.477 561.102 35.836 561.102 38.164 562.695 39.555 564.727 39.555 566.555 39.555 568.43 38.383 568.43 35.727 568.43 33.539 566.992 32.023 564.836 32.023ZM564.805 33.336C566.039 33.336 566.555 34.648 566.555 35.773 566.555 37.242 565.82 38.242 564.789 38.242 563.68 38.242 562.992 37.195 562.992 35.805 562.992 34.602 563.508 33.336 564.805 33.336ZM564.805 33.336" fill="#bd3019"/>
<path d="M569.93 39.398H571.742V35.148C571.742 34.945 571.773 34.711 571.836 34.57 572.023 34.023 572.539 33.508 573.258 33.508 574.258 33.508 574.633 34.289 574.633 35.32V39.398H576.461V35.117C576.461 32.836 575.164 32.023 573.898 32.023 572.695 32.023 571.914 32.711 571.586 33.273H571.539L571.445 32.18H569.867C569.898 32.805 569.93 33.508 569.93 34.336ZM569.93 39.398" fill="#bd3019"/>
<path d="M577.957 39.039C578.488 39.336 579.285 39.539 580.16 39.539 582.066 39.539 583.098 38.602 583.098 37.273 583.082 36.211 582.488 35.555 581.16 35.086 580.238 34.742 579.895 34.539 579.895 34.086 579.895 33.633 580.254 33.305 580.91 33.305 581.551 33.305 582.145 33.555 582.441 33.727L582.801 32.445C582.379 32.211 581.676 32.023 580.879 32.023 579.207 32.023 578.16 32.992 578.16 34.273 578.16 35.133 578.738 35.898 580.145 36.383 581.035 36.695 581.332 36.945 581.332 37.43 581.332 37.898 580.973 38.242 580.176 38.242 579.52 38.242 578.738 37.961 578.332 37.711ZM577.957 39.039" fill="#bd3019"/>
</g>
</svg>
