<svg xmlns="http://www.w3.org/2000/svg" xmlns:xlink="http://www.w3.org/1999/xlink" xmlns:inkscape="http://www.inkscape.org/namespaces/inkscape" version="1.1" width="659" height="170.28125" viewBox="0 0 659 170.28125">
<defs>
<clipPath id="clip_1">
<path d="M5 5H150V125H5Z"/>
</clipPath>
<clipPath id="clip_2">
<path d="M0 0H659V171H0Z"/>
</clipPath>
<clipPath id="clip_3">
<path d="M170 6H315V126H170Z"/>
</clipPath>
<clipPath id="clip_4">
<path d="M0 0H659V171H0Z"/>
</clipPath>
<clipPath id="clip_5">
<path d="M335 5H480V125H335Z"/>
</clipPath>
<clipPath id="clip_6">
<path d="M0 0H659V171H0Z"/>
</clipPath>
<clipPath id="clip_7">
<path d="M410 58H447V95H410Z"/>
</clipPath>
<clipPath id="clip_8">
<path d="M0 0H659V171H0Z"/>
</clipPath>
<clipPath id="clip_9">
<path d="M503 6H648V126H503Z"/>
</clipPath>
<clipPath id="clip_10">
<path d="M0 0H659V171H0Z"/>
</clipPath>
</defs>
<g>
<g clip-path="url(#clip_1)">
<g clip-path="url(#clip_2)">
<path d="M5.16 5.719H149.019V124.793H5.16Z" fill="#cacaca"/>
</g>
<path d="M45.195 65.098C51.582 71.488 51.582 81.848 45.195 88.238 38.805 94.629 28.445 94.629 22.055 88.238 15.664 81.848 15.664 71.488 22.055 65.098 28.445 58.707 38.805 58.707 45.195 65.098" fill="#8a8a8a"/>
</g>
<path d="M75.465 140.402V139.074L74.277 139.199V140.402H73.465V141.293H74.277V145.246C74.277 145.902 74.652 147.121 76.23 147.121 76.543 147.121 76.855 147.059 77.168 146.965V146.152C76.965 146.199 76.777 146.215 76.59 146.215 75.605 146.215 75.465 145.621 75.465 144.793V141.293H77.043V140.402ZM75.465 140.402" fill="#8c3023"/>
<path d="M121.508 42.566C127.895 48.957 127.895 59.316 121.508 65.707 115.117 72.098 104.758 72.098 98.367 65.707 91.977 59.316 91.977 48.957 98.367 42.566 104.758 36.176 115.117 36.176 121.508 42.566" fill="#5e5e5e"/>
<path d="M232.223 140.266V138.938L231.035 139.063V140.266H230.223V141.156H231.035V145.109C231.035 145.766 231.41 146.984 232.988 146.984 233.301 146.984 233.613 146.922 233.926 146.828V146.016C233.723 146.063 233.535 146.078 233.348 146.078 232.363 146.078 232.223 145.484 232.223 144.656V141.156H233.801V140.266ZM232.223 140.266" fill="#8c3023"/>
<path d="M241.809 146.828H242.699V143.703H245.824V142.813H242.699V139.672H241.809V142.813H238.668V143.703H241.809ZM241.809 146.828" fill="#8c3023"/>
<path d="M255.488 144.844C254.988 145.438 254.301 145.938 253.52 145.938 252.254 145.938 252.02 144.594 252.02 143.594 252.02 142.5 252.363 141.016 253.707 141.016 254.488 141.016 254.926 141.328 255.488 141.844ZM255.488 146.828H256.676V137.281H255.488V140.125L255.566 141.016H255.488C254.973 140.375 254.332 140.125 253.504 140.125 251.566 140.125 250.754 142.047 250.754 143.734 250.754 145.375 251.426 146.984 253.301 146.984 254.27 146.984 255.051 146.469 255.488 145.609H255.566ZM255.488 146.828" fill="#8c3023"/>
<path d="M260.301 140.266V138.938L259.113 139.063V140.266H258.301V141.156H259.113V145.109C259.113 145.766 259.488 146.984 261.066 146.984 261.379 146.984 261.691 146.922 262.004 146.828V146.016C261.801 146.063 261.613 146.078 261.426 146.078 260.441 146.078 260.301 145.484 260.301 144.656V141.156H261.879V140.266ZM260.301 140.266" fill="#8c3023"/>
<path d="M390.246 141.367V140.039L389.059 140.164V141.367H388.246V142.258H389.059V146.211C389.059 146.867 389.434 148.086 391.012 148.086 391.324 148.086 391.637 148.023 391.949 147.93V147.117C391.746 147.164 391.559 147.18 391.371 147.18 390.387 147.18 390.246 146.586 390.246 145.758V142.258H391.824V141.367ZM390.246 141.367" fill="#8c3023"/>
<path d="M399.832 147.93H400.723V144.805H403.848V143.914H400.723V140.773H399.832V143.914H396.691V144.805H399.832ZM399.832 147.93" fill="#8c3023"/>
<path d="M409.137 147.93H414.449V146.883H410.574C411.152 144.461 414.496 143.789 414.496 141.227 414.496 139.617 413.23 138.758 411.715 138.758 410.902 138.758 410.09 138.961 409.355 139.336V140.383C410.043 139.977 410.746 139.648 411.574 139.648 412.59 139.648 413.246 140.258 413.246 141.289 413.246 143.352 410.184 144.367 409.137 146.883ZM409.137 147.93" fill="#8c3023"/>
<path d="M425.258 145.945C424.758 146.539 424.07 147.039 423.289 147.039 422.023 147.039 421.789 145.695 421.789 144.695 421.789 143.602 422.133 142.117 423.477 142.117 424.258 142.117 424.695 142.43 425.258 142.945ZM425.258 147.93H426.445V138.383H425.258V141.227L425.336 142.117H425.258C424.742 141.477 424.102 141.227 423.273 141.227 421.336 141.227 420.523 143.148 420.523 144.836 420.523 146.477 421.195 148.086 423.07 148.086 424.039 148.086 424.82 147.57 425.258 146.711H425.336ZM425.258 147.93" fill="#8c3023"/>
<path d="M430.066 141.367V140.039L428.879 140.164V141.367H428.066V142.258H428.879V146.211C428.879 146.867 429.254 148.086 430.832 148.086 431.145 148.086 431.457 148.023 431.77 147.93V147.117C431.566 147.164 431.379 147.18 431.191 147.18 430.207 147.18 430.066 146.586 430.066 145.758V142.258H431.645V141.367ZM430.066 141.367" fill="#8c3023"/>
<path d="M356.164 166.703C354.867 165.406 354.523 163.609 354.523 161.844 354.523 160.094 354.867 158.281 356.164 157V156.172C354.352 157.297 353.336 159.797 353.336 161.844 353.336 163.906 354.352 166.406 356.164 167.516ZM356.164 166.703" fill="#8c3023"/>
<path d="M362.281 159.219C361.672 159.094 361.047 159.016 360.406 159.016 357.953 159.016 357.281 160.969 357.281 162.438 357.281 163.516 357.719 165.875 360.406 165.875 361.063 165.875 361.719 165.703 362.344 165.516V164.563C361.828 164.844 361.234 164.969 360.641 164.969 359.172 164.969 358.547 163.781 358.547 162.453 358.547 161.188 359.125 159.906 360.547 159.906 361.141 159.906 361.719 160.031 362.281 160.219ZM362.281 159.219" fill="#8c3023"/>
<path d="M366.816 165.875C369.504 165.875 369.957 163.516 369.957 162.438 369.957 160.969 369.285 159.016 366.816 159.016 364.363 159.016 363.691 160.969 363.691 162.438 363.691 163.516 364.129 165.875 366.816 165.875ZM366.816 164.969C365.363 164.969 364.957 163.672 364.957 162.438 364.957 161.219 365.363 159.906 366.816 159.906 368.27 159.906 368.691 161.219 368.691 162.438 368.691 163.672 368.27 164.969 366.816 164.969ZM366.816 164.969" fill="#8c3023"/>
<path d="M371.805 156.172H372.99299V165.719H371.805Z" fill="#8c3023"/>
<path d="M375.379 156.172H376.567V165.719H375.379Z" fill="#8c3023"/>
<path d="M378.957 165.719H380.145V159.156H378.957ZM378.957 157.953H380.145V156.766H378.957ZM378.957 157.953" fill="#8c3023"/>
<path d="M382.297 165.5C382.891 165.688 383.609 165.875 384.234 165.875 385.469 165.875 386.703 165.25 386.703 163.875 386.703 161.766 383.453 161.953 383.453 160.75 383.453 160.125 384.094 159.906 384.609 159.906 385.156 159.906 385.688 160.031 386.203 160.203V159.203C385.547 159.094 385.125 159.016 384.594 159.016 383.25 159.016 382.328 159.609 382.328 160.844 382.328 163.047 385.516 162.625 385.516 164.016 385.516 164.672 384.875 164.969 384.297 164.969 383.641 164.969 382.875 164.688 382.297 164.391ZM382.297 165.5" fill="#8c3023"/>
<path d="M388.844 165.719H390.031V159.156H388.844ZM388.844 157.953H390.031V156.766H388.844ZM388.844 157.953" fill="#8c3023"/>
<path d="M395.031 165.875C397.719 165.875 398.172 163.516 398.172 162.438 398.172 160.969 397.5 159.016 395.031 159.016 392.578 159.016 391.906 160.969 391.906 162.438 391.906 163.516 392.344 165.875 395.031 165.875ZM395.031 164.969C393.578 164.969 393.172 163.672 393.172 162.438 393.172 161.219 393.578 159.906 395.031 159.906 396.484 159.906 396.906 161.219 396.906 162.438 396.906 163.672 396.484 164.969 395.031 164.969ZM395.031 164.969" fill="#8c3023"/>
<path d="M401.176 159.156H399.988V165.719H401.176V161.469C401.629 160.75 402.332 160.047 403.254 160.047 403.801 160.047 404.16 160.422 404.16 161.047V165.719H405.348V160.906C405.348 159.922 404.691 159.016 403.52 159.016 402.535 159.016 401.723 159.594 401.176 160.391H401.098ZM401.176 159.156" fill="#8c3023"/>
<path d="M415.82 163.734C415.32 164.328 414.633 164.828 413.852 164.828 412.586 164.828 412.352 163.484 412.352 162.484 412.352 161.391 412.695 159.906 414.039 159.906 414.82 159.906 415.258 160.219 415.82 160.734ZM415.82 165.719H417.008V156.172H415.82V159.016L415.898 159.906H415.82C415.305 159.266 414.664 159.016 413.836 159.016 411.898 159.016 411.086 160.938 411.086 162.625 411.086 164.266 411.758 165.875 413.633 165.875 414.602 165.875 415.383 165.359 415.82 164.5H415.898ZM415.82 165.719" fill="#8c3023"/>
<path d="M424.211 162.625C424.273 160.922 423.773 159.016 421.695 159.016 419.82 159.016 418.883 160.734 418.883 162.438 418.883 163.516 419.32 165.875 422.008 165.875 422.852 165.875 423.555 165.703 424.211 165.5V164.547C423.602 164.828 423.008 164.969 422.352 164.969 420.914 164.969 420.18 164 420.148 162.625ZM420.18 161.813C420.227 160.922 420.617 159.906 421.633 159.906 422.695 159.906 422.977 160.922 422.945 161.813ZM420.18 161.813" fill="#8c3023"/>
<path d="M427.523 159.156V157.828L426.336 157.953V159.156H425.523V160.047H426.336V164C426.336 164.656 426.711 165.875 428.289 165.875 428.602 165.875 428.914 165.813 429.227 165.719V164.906C429.023 164.953 428.836 164.969 428.648 164.969 427.664 164.969 427.523 164.375 427.523 163.547V160.047H429.102V159.156ZM427.523 159.156" fill="#8c3023"/>
<path d="M435.73 162.625C435.793 160.922 435.293 159.016 433.215 159.016 431.34 159.016 430.402 160.734 430.402 162.438 430.402 163.516 430.84 165.875 433.527 165.875 434.371 165.875 435.074 165.703 435.73 165.5V164.547C435.121 164.828 434.527 164.969 433.871 164.969 432.434 164.969 431.699 164 431.668 162.625ZM431.699 161.813C431.746 160.922 432.137 159.906 433.152 159.906 434.215 159.906 434.496 160.922 434.465 161.813ZM431.699 161.813" fill="#8c3023"/>
<path d="M442.297 159.219C441.688 159.094 441.063 159.016 440.422 159.016 437.969 159.016 437.297 160.969 437.297 162.438 437.297 163.516 437.734 165.875 440.422 165.875 441.078 165.875 441.734 165.703 442.359 165.516V164.563C441.844 164.844 441.25 164.969 440.656 164.969 439.188 164.969 438.563 163.781 438.563 162.453 438.563 161.188 439.141 159.906 440.563 159.906 441.156 159.906 441.734 160.031 442.297 160.219ZM442.297 159.219" fill="#8c3023"/>
<path d="M445.457 159.156V157.828L444.27 157.953V159.156H443.457V160.047H444.27V164C444.27 164.656 444.645 165.875 446.223 165.875 446.535 165.875 446.848 165.813 447.16 165.719V164.906C446.957 164.953 446.77 164.969 446.582 164.969 445.598 164.969 445.457 164.375 445.457 163.547V160.047H447.035V159.156ZM445.457 159.156" fill="#8c3023"/>
<path d="M453.664 162.625C453.727 160.922 453.227 159.016 451.148 159.016 449.273 159.016 448.336 160.734 448.336 162.438 448.336 163.516 448.773 165.875 451.461 165.875 452.305 165.875 453.008 165.703 453.664 165.5V164.547C453.055 164.828 452.461 164.969 451.805 164.969 450.367 164.969 449.633 164 449.602 162.625ZM449.633 161.813C449.68 160.922 450.07 159.906 451.086 159.906 452.148 159.906 452.43 160.922 452.398 161.813ZM449.633 161.813" fill="#8c3023"/>
<path d="M459.961 163.734C459.461 164.328 458.773 164.828 457.992 164.828 456.727 164.828 456.492 163.484 456.492 162.484 456.492 161.391 456.836 159.906 458.18 159.906 458.961 159.906 459.398 160.219 459.961 160.734ZM459.961 165.719H461.148V156.172H459.961V159.016L460.039 159.906H459.961C459.445 159.266 458.805 159.016 457.977 159.016 456.039 159.016 455.227 160.938 455.227 162.625 455.227 164.266 455.898 165.875 457.773 165.875 458.742 165.875 459.523 165.359 459.961 164.5H460.039ZM459.961 165.719" fill="#8c3023"/>
<path d="M462.805 157C464.102 158.281 464.445 160.094 464.445 161.844 464.445 163.609 464.102 165.406 462.805 166.688V167.516C464.602 166.391 465.633 163.906 465.633 161.844 465.633 159.781 464.602 157.297 462.805 156.172ZM462.805 157" fill="#8c3023"/>
<g clip-path="url(#clip_3)">
<g clip-path="url(#clip_4)">
<path d="M170.16 6.133H314.01899V125.207H170.16Z" fill="#cacaca"/>
</g>
<path d="M243.195 65.512C249.582 71.902 249.582 82.262 243.195 88.652 236.805 95.043 226.445 95.043 220.055 88.652 213.664 82.262 213.664 71.902 220.055 65.512 226.445 59.121 236.805 59.121 243.195 65.512" fill="#8a8a8a"/>
<path d="M286.508 43.098C292.895 49.488 292.895 59.848 286.508 66.238 280.117 72.629 269.758 72.629 263.367 66.238 256.977 59.848 256.977 49.488 263.367 43.098 269.758 36.707 280.117 36.707 286.508 43.098" fill="#5e5e5e"/>
</g>
<g clip-path="url(#clip_5)">
<g clip-path="url(#clip_6)">
<path d="M335.984 5.855H479.84303V124.929H335.984Z" fill="#cacaca"/>
</g>
</g>
<g clip-path="url(#clip_7)">
<g clip-path="url(#clip_8)">
<path d="M439.957 65.234C446.348 71.625 446.348 81.984 439.957 88.375 433.566 94.766 423.207 94.766 416.816 88.375 410.426 81.984 410.426 71.625 416.816 65.234 423.207 58.848 433.566 58.848 439.957 65.234" fill="#8a8a8a"/>
</g>
</g>
<path d="M452.332 42.824C458.723 49.215 458.723 59.574 452.332 65.965 445.941 72.355 435.582 72.355 429.191 65.965 422.801 59.574 422.801 49.215 429.191 42.824 435.582 36.434 445.941 36.434 452.332 42.824" fill="#5e5e5e"/>
<path d="M566.023 143.359V142.031L564.836 142.156V143.359H564.023V144.25H564.836V148.203C564.836 148.859 565.211 150.078 566.789 150.078 567.102 150.078 567.414 150.016 567.727 149.922V149.109C567.523 149.156 567.336 149.172 567.148 149.172 566.164 149.172 566.023 148.578 566.023 147.75V144.25H567.602V143.359ZM566.023 143.359" fill="#8c3023"/>
<path d="M575.609 149.922H576.5V146.797H579.625V145.906H576.5V142.766H575.609V145.906H572.469V146.797H575.609ZM575.609 149.922" fill="#8c3023"/>
<path d="M584.18 149.922 587.852 141.547H588.07L591.539 149.922ZM590.086 149.406 587.648 143.391 584.992 149.406ZM590.086 149.406" fill="#8c3023"/>
<path d="M594.262 143.359V142.031L593.074 142.156V143.359H592.262V144.25H593.074V148.203C593.074 148.859 593.449 150.078 595.027 150.078 595.34 150.078 595.652 150.016 595.965 149.922V149.109C595.762 149.156 595.574 149.172 595.387 149.172 594.402 149.172 594.262 148.578 594.262 147.75V144.25H595.84V143.359ZM594.262 143.359" fill="#8c3023"/>
<path d="M535.949 169.469C534.652 168.172 534.309 166.375 534.309 164.609 534.309 162.859 534.652 161.047 535.949 159.766V158.938C534.137 160.063 533.121 162.563 533.121 164.609 533.121 166.672 534.137 169.172 535.949 170.281ZM535.949 169.469" fill="#8c3023"/>
<path d="M538.77 161.922H537.582V168.484H538.77V164.172C539.16 163.438 539.816 162.813 540.676 162.813 540.863 162.813 541.035 162.859 541.207 162.922V161.781H540.848C539.926 161.781 539.176 162.344 538.77 163.156H538.691ZM538.77 161.922" fill="#8c3023"/>
<path d="M545.004 168.641C547.691 168.641 548.145 166.281 548.145 165.203 548.145 163.734 547.473 161.781 545.004 161.781 542.551 161.781 541.879 163.734 541.879 165.203 541.879 166.281 542.316 168.641 545.004 168.641ZM545.004 167.734C543.551 167.734 543.145 166.438 543.145 165.203 543.145 163.984 543.551 162.672 545.004 162.672 546.457 162.672 546.879 163.984 546.879 165.203 546.879 166.438 546.457 167.734 545.004 167.734ZM545.004 167.734" fill="#8c3023"/>
<path d="M549.992 158.938H551.18V168.485H549.992Z" fill="#8c3023"/>
<path d="M553.57 158.938H554.758V168.485H553.57Z" fill="#8c3023"/>
<path d="M562.117 163.906C562.617 163.328 563.305 162.813 564.086 162.813 565.367 162.813 565.602 164.156 565.602 165.156 565.602 166.25 565.258 167.734 563.898 167.734 563.117 167.734 562.695 167.422 562.117 166.906ZM560.93 168.563H561.898L562.039 167.734H562.117C562.648 168.391 563.289 168.641 564.102 168.641 566.055 168.641 566.852 166.703 566.852 165.016 566.852 163.391 566.195 161.781 564.305 161.781 563.336 161.781 562.555 162.281 562.117 163.156H562.039L562.117 161.922V158.938H560.93ZM560.93 168.563" fill="#8c3023"/>
<path d="M571.992 167C571.57 167.359 571.023 167.672 570.477 167.672 569.898 167.672 569.398 167.25 569.398 166.656 569.398 165.609 570.727 165.297 571.43 165.297H571.992ZM574.039 167.781H573.82C573.148 167.797 573.18 167.125 573.18 166.641V163.719C573.18 162.422 572.445 161.781 571.07 161.781 570.273 161.781 569.508 161.969 568.773 162.266V163.25C569.367 162.938 570.117 162.672 570.789 162.672 571.867 162.672 571.992 163.219 571.992 164.156V164.594H571.523C569.242 164.594 568.211 165.641 568.211 166.828 568.211 167.922 569.055 168.641 570.133 168.641 570.914 168.641 571.617 168.172 572.148 167.656 572.242 168.219 572.648 168.641 573.242 168.641 573.523 168.641 573.883 168.578 574.117 168.453ZM574.039 167.781" fill="#8c3023"/>
<path d="M580.168 161.984C579.559 161.859 578.934 161.781 578.293 161.781 575.84 161.781 575.168 163.734 575.168 165.203 575.168 166.281 575.605 168.641 578.293 168.641 578.949 168.641 579.605 168.469 580.23 168.281V167.328C579.715 167.609 579.121 167.734 578.527 167.734 577.059 167.734 576.434 166.547 576.434 165.219 576.434 163.953 577.012 162.672 578.434 162.672 579.027 162.672 579.605 162.797 580.168 162.984ZM580.168 161.984" fill="#8c3023"/>
<path d="M582.094 168.484H583.281V165.063L586.344 168.484H587.953L584.688 164.828 587.297 161.922H586.094L583.281 165.063V158.938H582.094ZM582.094 168.484" fill="#8c3023"/>
<path d="M597.727 161.984C597.117 161.859 596.492 161.781 595.852 161.781 593.398 161.781 592.727 163.734 592.727 165.203 592.727 166.281 593.164 168.641 595.852 168.641 596.508 168.641 597.164 168.469 597.789 168.281V167.328C597.273 167.609 596.68 167.734 596.086 167.734 594.617 167.734 593.992 166.547 593.992 165.219 593.992 163.953 594.57 162.672 595.992 162.672 596.586 162.672 597.164 162.797 597.727 162.984ZM597.727 161.984" fill="#8c3023"/>
<path d="M599.652 158.938H600.83999V168.485H599.652Z" fill="#8c3023"/>
<path d="M605.84 168.641C608.527 168.641 608.98 166.281 608.98 165.203 608.98 163.734 608.309 161.781 605.84 161.781 603.387 161.781 602.715 163.734 602.715 165.203 602.715 166.281 603.152 168.641 605.84 168.641ZM605.84 167.734C604.387 167.734 603.98 166.438 603.98 165.203 603.98 163.984 604.387 162.672 605.84 162.672 607.293 162.672 607.715 163.984 607.715 165.203 607.715 166.438 607.293 167.734 605.84 167.734ZM605.84 167.734" fill="#8c3023"/>
<path d="M615.313 161.984C614.703 161.859 614.078 161.781 613.438 161.781 610.984 161.781 610.313 163.734 610.313 165.203 610.313 166.281 610.75 168.641 613.438 168.641 614.094 168.641 614.75 168.469 615.375 168.281V167.328C614.859 167.609 614.266 167.734 613.672 167.734 612.203 167.734 611.578 166.547 611.578 165.219 611.578 163.953 612.156 162.672 613.578 162.672 614.172 162.672 614.75 162.797 615.313 162.984ZM615.313 161.984" fill="#8c3023"/>
<path d="M617.238 168.484H618.426V165.063L621.488 168.484H623.098L619.832 164.828 622.441 161.922H621.238L618.426 165.063V158.938H617.238ZM617.238 168.484" fill="#8c3023"/>
<path d="M623.742 159.766C625.039 161.047 625.383 162.859 625.383 164.609 625.383 166.375 625.039 168.172 623.742 169.453V170.281C625.539 169.156 626.57 166.672 626.57 164.609 626.57 162.547 625.539 160.063 623.742 158.938ZM623.742 159.766" fill="#8c3023"/>
<g clip-path="url(#clip_9)">
<g clip-path="url(#clip_10)">
<path d="M503.875 6.063H647.734V125.137H503.875Z" fill="#cacaca"/>
</g>
<path d="M595.469 65.375C601.859 71.766 601.859 82.125 595.469 88.516 589.078 94.902 578.719 94.902 572.328 88.516 565.938 82.125 565.938 71.766 572.328 65.375 578.719 58.984 589.078 58.984 595.469 65.375" fill="#8a8a8a"/>
<path d="M619.445 43.734C625.836 50.125 625.836 60.484 619.445 66.875 613.055 73.266 602.695 73.266 596.305 66.875 589.914 60.484 589.914 50.125 596.305 43.734 602.695 37.344 613.055 37.344 619.445 43.734" fill="#5e5e5e"/>
</g>
<path stroke-width=".773437" stroke-linecap="butt" stroke-dasharray="3.093748,2.320311" stroke-linejoin="round" fill="none" stroke="#000000" d="M32.938 76.805 74.316 76.934H74.703"/>
<path d="M73.148 79.25 77.797 76.941 73.16 74.609 74.316 76.934ZM73.148 79.25"/>
<path stroke-width=".773437" stroke-linecap="butt" stroke-dasharray="3.093748,2.320311" stroke-linejoin="round" fill="none" stroke="#000000" d="M229.563 77.77 270.941 77.895H271.328"/>
<path d="M269.773 80.211 274.422 77.906 269.785 75.57 270.941 77.895ZM269.773 80.211"/>
<path stroke-width=".773437" stroke-linecap="butt" stroke-dasharray="3.093748,2.320311" stroke-linejoin="round" fill="none" stroke="#000000" d="M584.723 75.57 605.805 92.629 606.105 92.871"/>
<path d="M603.445 93.703 608.512 94.82 606.363 90.098 605.805 92.629ZM603.445 93.703"/>
<path stroke-width=".773437" stroke-linecap="butt" stroke-dasharray="3.093748,2.320311" stroke-linejoin="round" fill="none" stroke="#000000" d="M609.836 56.609 630.703 34.137 630.965 33.852"/>
<path d="M631.613 36.566 633.07 31.586 628.215 33.406 630.703 34.137ZM631.613 36.566"/>
</g>
</svg>
