<svg xmlns="http://www.w3.org/2000/svg" xmlns:xlink="http://www.w3.org/1999/xlink" xmlns:inkscape="http://www.inkscape.org/namespaces/inkscape" version="1.1" width="720.95999" height="281.04" viewBox="0 0 720.95999 281.04">
<defs>
<clipPath id="clip_1">
<path transform="matrix(.24,0,0,.24,0,0)" d="M0 0H3004.1668V1168.1206H0Z" clip-rule="evenodd"/>
</clipPath>
<clipPath id="clip_2">
<path transform="matrix(.24,0,0,.24,0,0)" d="M0 0H3004.1668V1165.1255H0Z" clip-rule="evenodd"/>
</clipPath>
<path id="font_3_40" d="M.07910156 0V.7158203H.5966797V.63134768H.17382813V.41210938H.5698242V.32910157H.17382813V.084472659H.61328127V0H.07910156Z"/>
<path id="font_3_54" d="M.044921876 .23046875 .13427735 .23828125C.13850911 .20247396 .14835613 .1730957 .16381836 .15014649 .1792806 .12719727 .20328777 .10864258 .23583985 .09448242 .26839195 .080322269 .30501304 .07324219 .34570313 .07324219 .38183595 .07324219 .41373698 .07861328 .44140626 .08935547 .46907554 .100097659 .4896647 .11482748 .5031738 .13354492 .5166829 .15226238 .5234375 .1726888 .5234375 .19482422 .5234375 .21728516 .51692709 .23689778 .50390627 .2536621 .4908854 .27042643 .46940104 .28450523 .43945313 .29589845 .4202474 .3033854 .37776695 .3150228 .31201173 .33081056 .24625652 .3465983 .20019531 .36149089 .17382813 .37548829 .13964844 .39339195 .11417643 .41560874 .09741211 .44213868 .08064779 .4686686 .072265628 .4983724 .072265628 .53125 .072265628 .5673828 .08251953 .6011556 .103027347 .63256838 .123535159 .66398116 .15348308 .6878255 .1928711 .70410159 .23225911 .7203776 .27604167 .7285156 .32421876 .7285156 .37727867 .7285156 .42407228 .7199707 .4645996 .70288088 .50512698 .685791 .5362956 .66064456 .55810549 .6274414 .57991537 .5942383 .5916341 .5566406 .5932617 .51464846L.5024414 .5078125C.4975586 .55322268 .48103843 .5875244 .45288087 .6107178 .4247233 .63391116 .38313804 .6455078 .328125 .6455078 .27083335 .6455078 .22908528 .6349996 .20288086 .61398318 .17667644 .59297689 .16357422 .5676524 .16357422 .53800967 .16357422 .51227316 .17285156 .49109904 .19140625 .4744873 .20963542 .4578654 .25724284 .44084168 .33422853 .42341615 .4112142 .4059906 .46402995 .39076234 .49267579 .37773133 .53434249 .3585154 .5651042 .33416239 .58496096 .30467225 .6048177 .27519227 .6147461 .24123128 .6147461 .2027893 .6147461 .16468303 .6038411 .12876892 .58203127 .095047 .5602214 .061335248 .52888998 .035110475 .4880371 .01637268 .44718424-.0023549398 .40120445-.01171875 .35009767-.01171875 .285319-.01171875 .2310384-.0022786458 .18725586 .016601563 .14347331 .03548177 .10913086 .06388346 .084228519 .10180664 .059326173 .13972982 .046223958 .18261719 .044921876 .23046875Z"/>
<path id="font_3_36" d="M-.0014648438 0 .2734375 .7158203H.37548829L.66845706 0H.5605469L.47705079 .21582031H.17773438L.099121097 0H-.0014648438M.20507813 .2939453H.4477539L.37304688 .4921875C.3502604 .5524089 .33333335 .601888 .32226563 .640625 .31315104 .59472659 .30029298 .5491536 .2836914 .50390627L.20507813 .2939453Z"/>
</defs>
<g clip-path="url(#clip_1)">
<path transform="matrix(.71884348,0,0,.71884348,0,0)" d="M0 0H1003V390H0Z" fill="#ffffff"/>
</g>
<g clip-path="url(#clip_2)">
<path transform="matrix(.71884348,0,0,.71884348,.35942174,.35942174)" d="M521 388 761 28 1001 388H521Z" fill="#ffffff"/>
<path transform="matrix(.71884348,0,0,.71884348,.35942174,.35942174)" stroke-width="1" stroke-linecap="butt" stroke-miterlimit="10" stroke-linejoin="miter" fill="none" stroke="#dbdbdb" d="M521 388 761 28 1001 388H521Z"/>
<path transform="matrix(.71884348,0,0,.71884348,.35942174,.35942174)" stroke-width="1" stroke-linecap="butt" stroke-miterlimit="10" stroke-linejoin="miter" fill="none" stroke="#0000ff" d="M750.99 105.31 704.29 185.23"/>
<path transform="matrix(.71884348,0,0,.71884348,.35942174,.35942174)" d="M701.64 189.76 702.15 181.95 704.29 185.23 708.19 185.48 701.64 189.76Z" fill="#0000ff"/>
<path transform="matrix(.71884348,0,0,.71884348,.35942174,.35942174)" stroke-width="1" stroke-linecap="butt" stroke-miterlimit="10" stroke-linejoin="miter" fill="none" stroke="#0000ff" d="M701.64 189.76 702.15 181.95 704.29 185.23 708.19 185.48 701.64 189.76Z"/>
<path transform="matrix(.71884348,0,0,.71884348,.35942174,.35942174)" stroke-width="1" stroke-linecap="butt" stroke-miterlimit="10" stroke-linejoin="miter" fill="none" stroke="#0000ff" d="M771.01 105.31 817.71 185.23"/>
<path transform="matrix(.71884348,0,0,.71884348,.35942174,.35942174)" d="M820.36 189.76 813.81 185.48 817.71 185.23 819.85 181.95 820.36 189.76Z" fill="#0000ff"/>
<path transform="matrix(.71884348,0,0,.71884348,.35942174,.35942174)" stroke-width="1" stroke-linecap="butt" stroke-miterlimit="10" stroke-linejoin="miter" fill="none" stroke="#0000ff" d="M820.36 189.76 813.81 185.48 817.71 185.23 819.85 181.95 820.36 189.76Z"/>
<path transform="matrix(.71884348,0,0,.71884348,.35942174,.35942174)" stroke-width="1" stroke-linecap="butt" stroke-miterlimit="10" stroke-linejoin="miter" fill="none" stroke="#0000ff" d="M761 61.63V8"/>
<path transform="matrix(.71884348,0,0,.71884348,.35942174,.35942174)" d="M761 66.88 757.5 59.88 761 61.63 764.5 59.88 761 66.88Z" fill="#0000ff"/>
<path transform="matrix(.71884348,0,0,.71884348,.35942174,.35942174)" stroke-width="1" stroke-linecap="butt" stroke-miterlimit="10" stroke-linejoin="miter" fill="none" stroke="#0000ff" d="M761 66.88 757.5 59.88 761 61.63 764.5 59.88 761 66.88Z"/>
<path transform="matrix(.71884348,0,0,.71884348,.35942174,.35942174)" d="M781 88C780.99996 89.31322 780.8718 90.613819 780.6156 91.9018 780.35946 93.18978 779.98007 94.4404 779.4775 95.653659 778.9749 96.86691 778.3588 98.019489 777.6293 99.11138 776.8997 100.20329 776.0706 101.21354 775.1421 102.14212 774.21347 103.0707 773.2032 103.89979 772.11129 104.62937 771.0194 105.358959 769.8668 105.97502 768.65359 106.47757 767.4403 106.98012 766.1897 107.35949 764.9018 107.615688 763.6138 107.87189 762.3132 107.99999 761 108 759.6867 107.99999 758.3861 107.871898 757.0981 107.61569 755.81008 107.35949 754.55947 106.98012 753.3462 106.47757 752.13296 105.97502 750.98037 105.358959 749.8885 104.62937 748.79666 103.89979 747.7864 103.0707 746.8578 102.14212 745.9292 101.21354 745.1001 100.20329 744.37057 99.11138 743.641 98.019489 743.0249 96.86691 742.52236 95.653659 742.0198 94.4404 741.6404 93.18978 741.3842 91.901798 741.12808 90.613819 740.99996 89.31322 741 88 740.99996 86.68678 741.12808 85.38618 741.3842 84.09819 741.6404 82.8102 742.0198 81.559589 742.52236 80.34632 743.0249 79.133068 743.641 77.980487 744.37057 76.88858 745.1001 75.796688 745.9292 74.78644 746.8578 73.85786 747.7864 72.929279 748.79666 72.10019 749.8885 71.370609 750.98037 70.64102 752.13296 70.024959 753.3462 69.52241 754.55947 69.01986 755.81008 68.64049 757.0981 68.38429 758.3861 68.1281 759.6867 68 761 68 762.3132 68 763.6138 68.1281 764.90176 68.384288 766.1897 68.64048 767.4403 69.01985 768.65359 69.5224 769.8668 70.024959 771.0194 70.64102 772.11129 71.370609 773.2032 72.10019 774.21347 72.929279 775.1421 73.85786 776.0706 74.78644 776.8997 75.796688 777.6293 76.88858 778.3588 77.980487 778.9749 79.133068 779.4775 80.34632 779.98007 81.559589 780.35946 82.8102 780.6156 84.09819 780.8718 85.38618 780.99996 86.68678 781 88Z" fill="#ff0000"/>
<path transform="matrix(.71884348,0,0,.71884348,.35942174,.35942174)" stroke-width="1" stroke-linecap="butt" stroke-miterlimit="4" stroke-linejoin="miter" fill="none" stroke="#666666" d="M781 88C780.99996 89.31322 780.8718 90.613819 780.6156 91.9018 780.35946 93.18978 779.98007 94.4404 779.4775 95.653659 778.9749 96.86691 778.3588 98.019489 777.6293 99.11138 776.8997 100.20329 776.0706 101.21354 775.1421 102.14212 774.21347 103.0707 773.2032 103.89979 772.11129 104.62937 771.0194 105.358959 769.8668 105.97502 768.65359 106.47757 767.4403 106.98012 766.1897 107.35949 764.9018 107.615688 763.6138 107.87189 762.3132 107.99999 761 108 759.6867 107.99999 758.3861 107.871898 757.0981 107.61569 755.81008 107.35949 754.55947 106.98012 753.3462 106.47757 752.13296 105.97502 750.98037 105.358959 749.8885 104.62937 748.79666 103.89979 747.7864 103.0707 746.8578 102.14212 745.9292 101.21354 745.1001 100.20329 744.37057 99.11138 743.641 98.019489 743.0249 96.86691 742.52236 95.653659 742.0198 94.4404 741.6404 93.18978 741.3842 91.901798 741.12808 90.613819 740.99996 89.31322 741 88 740.99996 86.68678 741.12808 85.38618 741.3842 84.09819 741.6404 82.8102 742.0198 81.559589 742.52236 80.34632 743.0249 79.133068 743.641 77.980487 744.37057 76.88858 745.1001 75.796688 745.9292 74.78644 746.8578 73.85786 747.7864 72.929279 748.79666 72.10019 749.8885 71.370609 750.98037 70.64102 752.13296 70.024959 753.3462 69.52241 754.55947 69.01986 755.81008 68.64049 757.0981 68.38429 758.3861 68.1281 759.6867 68 761 68 762.3132 68 763.6138 68.1281 764.90176 68.384288 766.1897 68.64048 767.4403 69.01985 768.65359 69.5224 769.8668 70.024959 771.0194 70.64102 772.11129 71.370609 773.2032 72.10019 774.21347 72.929279 775.1421 73.85786 776.0706 74.78644 776.8997 75.796688 777.6293 76.88858 778.3588 77.980487 778.9749 79.133068 779.4775 80.34632 779.98007 81.559589 780.35946 82.8102 780.6156 84.09819 780.8718 85.38618 780.99996 86.68678 781 88Z"/>
<use data-text="E" xlink:href="#font_3_40" transform="matrix(12.939182,0,0,-12.939182,542.7156,67.57129)" fill="#ffffff"/>
<path transform="matrix(.71884348,0,0,.71884348,.35942174,.35942174)" stroke-width="1" stroke-linecap="butt" stroke-miterlimit="10" stroke-linejoin="miter" fill="none" stroke="#0000ff" d="M825.2 227.14 802.85 300.91"/>
<path transform="matrix(.71884348,0,0,.71884348,.35942174,.35942174)" d="M801.32 305.93 800 298.22 802.85 300.91 806.7 300.25 801.32 305.93Z" fill="#0000ff"/>
<path transform="matrix(.71884348,0,0,.71884348,.35942174,.35942174)" stroke-width="1" stroke-linecap="butt" stroke-miterlimit="10" stroke-linejoin="miter" fill="none" stroke="#0000ff" d="M801.32 305.93 800 298.22 802.85 300.91 806.7 300.25 801.32 305.93Z"/>
<path transform="matrix(.71884348,0,0,.71884348,.35942174,.35942174)" stroke-width="1" stroke-linecap="butt" stroke-miterlimit="10" stroke-linejoin="miter" fill="none" stroke="#0000ff" d="M838.49 226.54 868.61 301.1"/>
<path transform="matrix(.71884348,0,0,.71884348,.35942174,.35942174)" d="M870.58 305.96 864.71 300.78 868.61 301.1 871.2 298.16 870.58 305.96Z" fill="#0000ff"/>
<path transform="matrix(.71884348,0,0,.71884348,.35942174,.35942174)" stroke-width="1" stroke-linecap="butt" stroke-miterlimit="10" stroke-linejoin="miter" fill="none" stroke="#0000ff" d="M870.58 305.96 864.71 300.78 868.61 301.1 871.2 298.16 870.58 305.96Z"/>
<path transform="matrix(.71884348,0,0,.71884348,.35942174,.35942174)" d="M851 208C850.99996 209.31322 850.8718 210.61382 850.61569 211.9018 850.35946 213.18978 849.98007 214.44039 849.4775 215.65364 848.975 216.8669 848.3589 218.01947 847.62936 219.11136 846.8997 220.20328 846.0706 221.21353 845.142 222.14212 844.21347 223.07071 843.2032 223.8998 842.11129 224.62937 841.01937 225.35895 839.86679 225.975 838.6535 226.47756 837.4403 226.9801 836.1897 227.35948 834.90176 227.61569 833.6138 227.87189 832.3132 227.99999 831 228 829.6867 227.99999 828.3861 227.87189 827.0981 227.61568 825.8101 227.35948 824.5595 226.9801 823.34628 226.47756 822.133 225.975 820.9804 225.35895 819.88858 224.62938 818.79666 223.8998 817.7864 223.07071 816.85787 222.14212 815.92929 221.21353 815.10018 220.20328 814.37057 219.11138 813.641 218.01947 813.0249 216.8669 812.52236 215.65364 812.01986 214.44039 811.64047 213.18978 811.3842 211.9018 811.12808 210.61382 810.99996 209.31322 811 208 810.99996 206.68677 811.12808 205.38616 811.3842 204.09818 811.64047 202.81018 812.01986 201.55956 812.5224 200.3463 813.0249 199.13304 813.641 197.98046 814.37057 196.88855 815.10018 195.79666 815.92929 194.78643 816.85787 193.85785 817.7864 192.92926 818.79666 192.10018 819.8885 191.37059 820.9804 190.641 822.133 190.02495 823.34628 189.5224 824.5595 189.01985 825.8101 188.64049 827.09817 188.3843 828.3861 188.1281 829.6867 188 831 188 832.3132 188 833.6138 188.1281 834.90176 188.3843 836.1897 188.64049 837.4403 189.01985 838.6535 189.5224 839.86679 190.02495 841.01937 190.641 842.11129 191.37059 843.2032 192.10018 844.21347 192.92926 845.142 193.85785 846.0706 194.78643 846.8997 195.79666 847.62936 196.88855 848.3589 197.98047 848.975 199.13306 849.4775 200.34632 849.98007 201.55956 850.35946 202.81018 850.61569 204.09818 850.8718 205.38616 850.99996 206.68677 851 208Z"/>
<path transform="matrix(.71884348,0,0,.71884348,.35942174,.35942174)" stroke-width="1" stroke-linecap="butt" stroke-miterlimit="4" stroke-linejoin="miter" fill="none" stroke="#d6b656" d="M851 208C850.99996 209.31322 850.8718 210.61382 850.61569 211.9018 850.35946 213.18978 849.98007 214.44039 849.4775 215.65364 848.975 216.8669 848.3589 218.01947 847.62936 219.11136 846.8997 220.20328 846.0706 221.21353 845.142 222.14212 844.21347 223.07071 843.2032 223.8998 842.11129 224.62937 841.01937 225.35895 839.86679 225.975 838.6535 226.47756 837.4403 226.9801 836.1897 227.35948 834.90176 227.61569 833.6138 227.87189 832.3132 227.99999 831 228 829.6867 227.99999 828.3861 227.87189 827.0981 227.61568 825.8101 227.35948 824.5595 226.9801 823.34628 226.47756 822.133 225.975 820.9804 225.35895 819.88858 224.62938 818.79666 223.8998 817.7864 223.07071 816.85787 222.14212 815.92929 221.21353 815.10018 220.20328 814.37057 219.11138 813.641 218.01947 813.0249 216.8669 812.52236 215.65364 812.01986 214.44039 811.64047 213.18978 811.3842 211.9018 811.12808 210.61382 810.99996 209.31322 811 208 810.99996 206.68677 811.12808 205.38616 811.3842 204.09818 811.64047 202.81018 812.01986 201.55956 812.5224 200.3463 813.0249 199.13304 813.641 197.98046 814.37057 196.88855 815.10018 195.79666 815.92929 194.78643 816.85787 193.85785 817.7864 192.92926 818.79666 192.10018 819.8885 191.37059 820.9804 190.641 822.133 190.02495 823.34628 189.5224 824.5595 189.01985 825.8101 188.64049 827.09817 188.3843 828.3861 188.1281 829.6867 188 831 188 832.3132 188 833.6138 188.1281 834.90176 188.3843 836.1897 188.64049 837.4403 189.01985 838.6535 189.5224 839.86679 190.02495 841.01937 190.641 842.11129 191.37059 843.2032 192.10018 844.21347 192.92926 845.142 193.85785 846.0706 194.78643 846.8997 195.79666 847.62936 196.88855 848.3589 197.98047 848.975 199.13306 849.4775 200.34632 849.98007 201.55956 850.35946 202.81018 850.61569 204.09818 850.8718 205.38616 850.99996 206.68677 851 208Z"/>
<use data-text="S" xlink:href="#font_3_54" transform="matrix(12.939182,0,0,-12.939182,593.0346,153.8325)" fill="#ffffff"/>
<path transform="matrix(.71884348,0,0,.71884348,0,0)" stroke-width="2" stroke-linecap="butt" stroke-miterlimit="10" stroke-linejoin="miter" fill="none" stroke="#000000" d="M481 208C481 208 491.58668 208 512.76 208"/>
<path transform="matrix(.71884348,0,0,.71884348,0,0)" d="M518.76 208 510.76 212 512.76 208 510.76 204 518.76 208Z"/>
<path transform="matrix(.71884348,0,0,.71884348,0,0)" stroke-width="2" stroke-linecap="butt" stroke-miterlimit="10" stroke-linejoin="miter" fill="none" stroke="#000000" d="M518.76 208 510.76 212 512.76 208 510.76 204 518.76 208Z"/>
<path transform="matrix(.71884348,0,0,.71884348,.35942174,.35942174)" stroke-width="1" stroke-linecap="butt" stroke-miterlimit="10" stroke-linejoin="miter" fill="none" stroke="#0000ff" d="M685.2 227.14 662.85 300.91"/>
<path transform="matrix(.71884348,0,0,.71884348,.35942174,.35942174)" d="M661.32 305.93 660 298.22 662.85 300.91 666.7 300.25 661.32 305.93Z" fill="#0000ff"/>
<path transform="matrix(.71884348,0,0,.71884348,.35942174,.35942174)" stroke-width="1" stroke-linecap="butt" stroke-miterlimit="10" stroke-linejoin="miter" fill="none" stroke="#0000ff" d="M661.32 305.93 660 298.22 662.85 300.91 666.7 300.25 661.32 305.93Z"/>
<path transform="matrix(.71884348,0,0,.71884348,.35942174,.35942174)" stroke-width="1" stroke-linecap="butt" stroke-miterlimit="10" stroke-linejoin="miter" fill="none" stroke="#0000ff" d="M698.49 226.54 728.61 301.1"/>
<path transform="matrix(.71884348,0,0,.71884348,.35942174,.35942174)" d="M730.58 305.96 724.71 300.78 728.61 301.1 731.2 298.16 730.58 305.96Z" fill="#0000ff"/>
<path transform="matrix(.71884348,0,0,.71884348,.35942174,.35942174)" stroke-width="1" stroke-linecap="butt" stroke-miterlimit="10" stroke-linejoin="miter" fill="none" stroke="#0000ff" d="M730.58 305.96 724.71 300.78 728.61 301.1 731.2 298.16 730.58 305.96Z"/>
<path transform="matrix(.71884348,0,0,.71884348,.35942174,.35942174)" d="M711 208C711 209.31322 710.8719 210.61382 710.6157 211.9018 710.35946 213.18978 709.98007 214.44039 709.4775 215.65364 708.9749 216.8669 708.3589 218.01947 707.62936 219.11136 706.8997 220.20328 706.0706 221.21353 705.1421 222.14212 704.2135 223.07071 703.20327 223.8998 702.1113 224.62937 701.0194 225.35895 699.8668 225.975 698.6536 226.47756 697.44039 226.9801 696.18978 227.35948 694.90176 227.61569 693.6138 227.87189 692.3132 227.99999 691 228 689.68679 227.99999 688.38619 227.87189 687.09817 227.61568 685.8101 227.35948 684.5595 226.9801 683.34628 226.47756 682.13296 225.975 680.98037 225.35895 679.8885 224.62938 678.7966 223.8998 677.7863 223.07071 676.8578 222.14212 675.9292 221.21353 675.1001 220.20328 674.3705 219.11138 673.6409 218.01947 673.02487 216.8669 672.52236 215.65364 672.0198 214.44039 671.6404 213.18978 671.38418 211.9018 671.128 210.61382 670.99996 209.31322 671 208 670.99996 206.68677 671.128 205.38616 671.38418 204.09818 671.6404 202.81018 672.0198 201.55956 672.52236 200.3463 673.02487 199.13304 673.6409 197.98046 674.3705 196.88855 675.1001 195.79666 675.9292 194.78643 676.8578 193.85785 677.7863 192.92926 678.7966 192.10018 679.8885 191.37059 680.98037 190.641 682.13296 190.02495 683.34628 189.5224 684.5595 189.01985 685.8101 188.64049 687.09817 188.3843 688.38619 188.1281 689.68679 188 691 188 692.3132 188 693.6138 188.1281 694.90176 188.3843 696.18978 188.64049 697.44039 189.01985 698.6536 189.5224 699.8668 190.02495 701.0194 190.641 702.1113 191.37059 703.20327 192.10018 704.2135 192.92926 705.1421 193.85785 706.0706 194.78643 706.8997 195.79666 707.62936 196.88855 708.3589 197.98047 708.9749 199.13306 709.4775 200.34632 709.98007 201.55956 710.35946 202.81018 710.61569 204.09818 710.8719 205.38616 711 206.68677 711 208Z"/>
<path transform="matrix(.71884348,0,0,.71884348,.35942174,.35942174)" stroke-width="1" stroke-linecap="butt" stroke-miterlimit="4" stroke-linejoin="miter" fill="none" stroke="#d6b656" d="M711 208C711 209.31322 710.8719 210.61382 710.6157 211.9018 710.35946 213.18978 709.98007 214.44039 709.4775 215.65364 708.9749 216.8669 708.3589 218.01947 707.62936 219.11136 706.8997 220.20328 706.0706 221.21353 705.1421 222.14212 704.2135 223.07071 703.20327 223.8998 702.1113 224.62937 701.0194 225.35895 699.8668 225.975 698.6536 226.47756 697.44039 226.9801 696.18978 227.35948 694.90176 227.61569 693.6138 227.87189 692.3132 227.99999 691 228 689.68679 227.99999 688.38619 227.87189 687.09817 227.61568 685.8101 227.35948 684.5595 226.9801 683.34628 226.47756 682.13296 225.975 680.98037 225.35895 679.8885 224.62938 678.7966 223.8998 677.7863 223.07071 676.8578 222.14212 675.9292 221.21353 675.1001 220.20328 674.3705 219.11138 673.6409 218.01947 673.02487 216.8669 672.52236 215.65364 672.0198 214.44039 671.6404 213.18978 671.38418 211.9018 671.128 210.61382 670.99996 209.31322 671 208 670.99996 206.68677 671.128 205.38616 671.38418 204.09818 671.6404 202.81018 672.0198 201.55956 672.52236 200.3463 673.02487 199.13304 673.6409 197.98046 674.3705 196.88855 675.1001 195.79666 675.9292 194.78643 676.8578 193.85785 677.7863 192.92926 678.7966 192.10018 679.8885 191.37059 680.98037 190.641 682.13296 190.02495 683.34628 189.5224 684.5595 189.01985 685.8101 188.64049 687.09817 188.3843 688.38619 188.1281 689.68679 188 691 188 692.3132 188 693.6138 188.1281 694.90176 188.3843 696.18978 188.64049 697.44039 189.01985 698.6536 189.5224 699.8668 190.02495 701.0194 190.641 702.1113 191.37059 703.20327 192.10018 704.2135 192.92926 705.1421 193.85785 706.0706 194.78643 706.8997 195.79666 707.62936 196.88855 708.3589 197.98047 708.9749 199.13306 709.4775 200.34632 709.98007 201.55956 710.35946 202.81018 710.61569 204.09818 710.8719 205.38616 711 206.68677 711 208Z"/>
<use data-text="A" xlink:href="#font_3_36" transform="matrix(12.939182,0,0,-12.939182,492.39656,153.8325)" fill="#ffffff"/>
<path transform="matrix(.71884348,0,0,.71884348,.35942174,.35942174)" d="M641 377 661 307 681 377H641Z" fill="#ffffff"/>
<path transform="matrix(.71884348,0,0,.71884348,.35942174,.35942174)" stroke-width="1" stroke-linecap="butt" stroke-miterlimit="10" stroke-linejoin="miter" fill="none" stroke="#616161" d="M641 377 661 307 681 377H641Z"/>
<path transform="matrix(.71884348,0,0,.71884348,.35942174,.35942174)" d="M711 377 731 307 751 377H711Z" fill="#ffffff"/>
<path transform="matrix(.71884348,0,0,.71884348,.35942174,.35942174)" stroke-width="1" stroke-linecap="butt" stroke-miterlimit="10" stroke-linejoin="miter" fill="none" stroke="#616161" d="M711 377 731 307 751 377H711Z"/>
<path transform="matrix(.71884348,0,0,.71884348,.35942174,.35942174)" d="M781 377 801 307 821 377H781Z" fill="#ffffff"/>
<path transform="matrix(.71884348,0,0,.71884348,.35942174,.35942174)" stroke-width="1" stroke-linecap="butt" stroke-miterlimit="10" stroke-linejoin="miter" fill="none" stroke="#616161" d="M781 377 801 307 821 377H781Z"/>
<path transform="matrix(.71884348,0,0,.71884348,.35942174,.35942174)" d="M851 377 871 307 891 377H851Z" fill="#ffffff"/>
<path transform="matrix(.71884348,0,0,.71884348,.35942174,.35942174)" stroke-width="1" stroke-linecap="butt" stroke-miterlimit="10" stroke-linejoin="miter" fill="none" stroke="#616161" d="M851 377 871 307 891 377H851Z"/>
<path transform="matrix(.71884348,0,0,.71884348,.35942174,.35942174)" d="M1 388 241 28 481 388H1Z" fill="#ffffff"/>
<path transform="matrix(.71884348,0,0,.71884348,.35942174,.35942174)" stroke-width="1" stroke-linecap="butt" stroke-miterlimit="10" stroke-linejoin="miter" fill="none" stroke="#dbdbdb" d="M1 388 241 28 481 388H1Z"/>
<path transform="matrix(.71884348,0,0,.71884348,.35942174,.35942174)" stroke-width="1" stroke-linecap="butt" stroke-miterlimit="10" stroke-linejoin="miter" fill="none" stroke="#0000ff" d="M230.99 105.31 184.29 185.23"/>
<path transform="matrix(.71884348,0,0,.71884348,.35942174,.35942174)" d="M181.64 189.76 182.15 181.95 184.29 185.23 188.19 185.48 181.64 189.76Z" fill="#0000ff"/>
<path transform="matrix(.71884348,0,0,.71884348,.35942174,.35942174)" stroke-width="1" stroke-linecap="butt" stroke-miterlimit="10" stroke-linejoin="miter" fill="none" stroke="#0000ff" d="M181.64 189.76 182.15 181.95 184.29 185.23 188.19 185.48 181.64 189.76Z"/>
<path transform="matrix(.71884348,0,0,.71884348,.35942174,.35942174)" stroke-width="1" stroke-linecap="butt" stroke-miterlimit="10" stroke-linejoin="miter" fill="none" stroke="#0000ff" d="M251.01 105.31 297.71 185.23"/>
<path transform="matrix(.71884348,0,0,.71884348,.35942174,.35942174)" d="M300.36 189.76 293.81 185.48 297.71 185.23 299.85 181.95 300.36 189.76Z" fill="#0000ff"/>
<path transform="matrix(.71884348,0,0,.71884348,.35942174,.35942174)" stroke-width="1" stroke-linecap="butt" stroke-miterlimit="10" stroke-linejoin="miter" fill="none" stroke="#0000ff" d="M300.36 189.76 293.81 185.48 297.71 185.23 299.85 181.95 300.36 189.76Z"/>
<path transform="matrix(.71884348,0,0,.71884348,.35942174,.35942174)" stroke-width="1" stroke-linecap="butt" stroke-miterlimit="10" stroke-linejoin="miter" fill="none" stroke="#0000ff" d="M241 61.63V8"/>
<path transform="matrix(.71884348,0,0,.71884348,.35942174,.35942174)" d="M241 66.88 237.5 59.88 241 61.63 244.5 59.88 241 66.88Z" fill="#0000ff"/>
<path transform="matrix(.71884348,0,0,.71884348,.35942174,.35942174)" stroke-width="1" stroke-linecap="butt" stroke-miterlimit="10" stroke-linejoin="miter" fill="none" stroke="#0000ff" d="M241 66.88 237.5 59.88 241 61.63 244.5 59.88 241 66.88Z"/>
<path transform="matrix(.71884348,0,0,.71884348,.35942174,.35942174)" d="M261 88C260.99998 89.31322 260.87187 90.613819 260.61567 91.9018 260.35948 93.18978 259.9801 94.4404 259.47758 95.653659 258.97505 96.86691 258.35896 98.019489 257.62937 99.11138 256.89979 100.20329 256.0707 101.21354 255.14212 102.14212 254.21352 103.0707 253.20328 103.89979 252.11138 104.62937 251.01947 105.358959 249.8669 105.97502 248.65364 106.47757 247.44039 106.98012 246.18978 107.35949 244.9018 107.615688 243.61382 107.87189 242.31322 107.99999 241 108 239.68677 107.99999 238.38616 107.871898 237.09816 107.61569 235.81018 107.35949 234.55956 106.98012 233.3463 106.47757 232.13304 105.97502 230.98047 105.358959 229.88857 104.62937 228.79666 103.89979 227.78643 103.0707 226.85785 102.14212 225.92926 101.21354 225.10018 100.20329 224.37059 99.11138 223.64099 98.019489 223.02494 96.86691 222.52239 95.653659 222.01984 94.4404 221.64046 93.18978 221.38426 91.901798 221.12808 90.613819 220.99999 89.31322 221 88 220.99999 86.68678 221.12808 85.38618 221.38428 84.09819 221.64046 82.8102 222.01984 81.559589 222.52239 80.34632 223.02494 79.133068 223.64099 77.980487 224.37059 76.88858 225.10018 75.796688 225.92926 74.78644 226.85785 73.85786 227.78643 72.929279 228.79666 72.10019 229.88857 71.370609 230.98047 70.64102 232.13304 70.024959 233.34632 69.52241 234.55956 69.01986 235.81018 68.64049 237.09816 68.38429 238.38616 68.1281 239.68677 68 241 68 242.31322 68 243.61382 68.1281 244.9018 68.384288 246.18978 68.64048 247.44039 69.01985 248.65364 69.5224 249.8669 70.024959 251.01949 70.64102 252.11139 71.370609 253.20328 72.10019 254.21352 72.929279 255.14212 73.85786 256.0707 74.78644 256.89979 75.796688 257.62937 76.88858 258.35896 77.980487 258.97505 79.133068 259.47758 80.34632 259.9801 81.559589 260.3595 82.8102 260.6157 84.09819 260.8719 85.38618 260.99998 86.68678 261 88Z"/>
<path transform="matrix(.71884348,0,0,.71884348,.35942174,.35942174)" stroke-width="1" stroke-linecap="butt" stroke-miterlimit="4" stroke-linejoin="miter" fill="none" stroke="#666666" d="M261 88C260.99998 89.31322 260.87187 90.613819 260.61567 91.9018 260.35948 93.18978 259.9801 94.4404 259.47758 95.653659 258.97505 96.86691 258.35896 98.019489 257.62937 99.11138 256.89979 100.20329 256.0707 101.21354 255.14212 102.14212 254.21352 103.0707 253.20328 103.89979 252.11138 104.62937 251.01947 105.358959 249.8669 105.97502 248.65364 106.47757 247.44039 106.98012 246.18978 107.35949 244.9018 107.615688 243.61382 107.87189 242.31322 107.99999 241 108 239.68677 107.99999 238.38616 107.871898 237.09816 107.61569 235.81018 107.35949 234.55956 106.98012 233.3463 106.47757 232.13304 105.97502 230.98047 105.358959 229.88857 104.62937 228.79666 103.89979 227.78643 103.0707 226.85785 102.14212 225.92926 101.21354 225.10018 100.20329 224.37059 99.11138 223.64099 98.019489 223.02494 96.86691 222.52239 95.653659 222.01984 94.4404 221.64046 93.18978 221.38426 91.901798 221.12808 90.613819 220.99999 89.31322 221 88 220.99999 86.68678 221.12808 85.38618 221.38428 84.09819 221.64046 82.8102 222.01984 81.559589 222.52239 80.34632 223.02494 79.133068 223.64099 77.980487 224.37059 76.88858 225.10018 75.796688 225.92926 74.78644 226.85785 73.85786 227.78643 72.929279 228.79666 72.10019 229.88857 71.370609 230.98047 70.64102 232.13304 70.024959 233.34632 69.52241 234.55956 69.01986 235.81018 68.64049 237.09816 68.38429 238.38616 68.1281 239.68677 68 241 68 242.31322 68 243.61382 68.1281 244.9018 68.384288 246.18978 68.64048 247.44039 69.01985 248.65364 69.5224 249.8669 70.024959 251.01949 70.64102 252.11139 71.370609 253.20328 72.10019 254.21352 72.929279 255.14212 73.85786 256.0707 74.78644 256.89979 75.796688 257.62937 76.88858 258.35896 77.980487 258.97505 79.133068 259.47758 80.34632 259.9801 81.559589 260.3595 82.8102 260.6157 84.09819 260.8719 85.38618 260.99998 86.68678 261 88Z"/>
<use data-text="E" xlink:href="#font_3_40" transform="matrix(12.939182,0,0,-12.939182,168.91698,67.57129)" fill="#ffffff"/>
<path transform="matrix(.71884348,0,0,.71884348,.35942174,.35942174)" stroke-width="1" stroke-linecap="butt" stroke-miterlimit="10" stroke-linejoin="miter" fill="none" stroke="#0000ff" d="M305.2 227.14 282.85 300.91"/>
<path transform="matrix(.71884348,0,0,.71884348,.35942174,.35942174)" d="M281.32 305.93 280 298.22 282.85 300.91 286.7 300.25 281.32 305.93Z" fill="#0000ff"/>
<path transform="matrix(.71884348,0,0,.71884348,.35942174,.35942174)" stroke-width="1" stroke-linecap="butt" stroke-miterlimit="10" stroke-linejoin="miter" fill="none" stroke="#0000ff" d="M281.32 305.93 280 298.22 282.85 300.91 286.7 300.25 281.32 305.93Z"/>
<path transform="matrix(.71884348,0,0,.71884348,.35942174,.35942174)" stroke-width="1" stroke-linecap="butt" stroke-miterlimit="10" stroke-linejoin="miter" fill="none" stroke="#0000ff" d="M318.49 226.54 348.61 301.1"/>
<path transform="matrix(.71884348,0,0,.71884348,.35942174,.35942174)" d="M350.58 305.96 344.71 300.78 348.61 301.1 351.2 298.16 350.58 305.96Z" fill="#0000ff"/>
<path transform="matrix(.71884348,0,0,.71884348,.35942174,.35942174)" stroke-width="1" stroke-linecap="butt" stroke-miterlimit="10" stroke-linejoin="miter" fill="none" stroke="#0000ff" d="M350.58 305.96 344.71 300.78 348.61 301.1 351.2 298.16 350.58 305.96Z"/>
<path transform="matrix(.71884348,0,0,.71884348,.35942174,.35942174)" d="M331 208C330.99998 209.31322 330.87187 210.61382 330.61567 211.9018 330.35948 213.18978 329.9801 214.44039 329.47758 215.65364 328.97505 216.8669 328.35899 218.01947 327.62937 219.11136 326.8998 220.20328 326.07075 221.21353 325.14213 222.14212 324.21354 223.07071 323.20329 223.8998 322.11137 224.62937 321.01945 225.35895 319.86686 225.975 318.65364 226.47756 317.44038 226.9801 316.18977 227.35948 314.90177 227.61569 313.6138 227.87189 312.3132 227.99999 311 228 309.6868 227.99999 308.38618 227.87189 307.09819 227.61568 305.81019 227.35948 304.55958 226.9801 303.3463 226.47756 302.13307 225.975 300.98048 225.35895 299.88859 224.62938 298.79667 223.8998 297.7864 223.07071 296.85786 222.14212 295.92924 221.21353 295.10017 220.20328 294.37059 219.11138 293.64097 218.01947 293.0249 216.8669 292.52238 215.65364 292.01985 214.44039 291.64048 213.18978 291.38429 211.9018 291.12809 210.61382 291 209.31322 291 208 291 206.68677 291.12809 205.38616 291.38429 204.09818 291.64048 202.81018 292.01985 201.55956 292.52238 200.3463 293.0249 199.13304 293.64097 197.98046 294.37055 196.88855 295.10014 195.79666 295.92924 194.78643 296.85786 193.85785 297.7864 192.92926 298.79667 192.10018 299.88859 191.37059 300.98048 190.641 302.13307 190.02495 303.3463 189.5224 304.55958 189.01985 305.81019 188.64049 307.09819 188.3843 308.38618 188.1281 309.6868 188 311 188 312.3132 188 313.6138 188.1281 314.90177 188.3843 316.18977 188.64049 317.44038 189.01985 318.65364 189.5224 319.86686 190.02495 321.01945 190.641 322.11137 191.37059 323.20329 192.10018 324.21354 192.92926 325.14213 193.85785 326.07075 194.78643 326.8998 195.79666 327.62937 196.88855 328.35899 197.98047 328.97505 199.13306 329.47758 200.34632 329.9801 201.55956 330.35948 202.81018 330.61567 204.09818 330.87187 205.38616 330.99998 206.68677 331 208Z" fill="#ff0000"/>
<path transform="matrix(.71884348,0,0,.71884348,.35942174,.35942174)" stroke-width="1" stroke-linecap="butt" stroke-miterlimit="4" stroke-linejoin="miter" fill="none" stroke="#d6b656" d="M331 208C330.99998 209.31322 330.87187 210.61382 330.61567 211.9018 330.35948 213.18978 329.9801 214.44039 329.47758 215.65364 328.97505 216.8669 328.35899 218.01947 327.62937 219.11136 326.8998 220.20328 326.07075 221.21353 325.14213 222.14212 324.21354 223.07071 323.20329 223.8998 322.11137 224.62937 321.01945 225.35895 319.86686 225.975 318.65364 226.47756 317.44038 226.9801 316.18977 227.35948 314.90177 227.61569 313.6138 227.87189 312.3132 227.99999 311 228 309.6868 227.99999 308.38618 227.87189 307.09819 227.61568 305.81019 227.35948 304.55958 226.9801 303.3463 226.47756 302.13307 225.975 300.98048 225.35895 299.88859 224.62938 298.79667 223.8998 297.7864 223.07071 296.85786 222.14212 295.92924 221.21353 295.10017 220.20328 294.37059 219.11138 293.64097 218.01947 293.0249 216.8669 292.52238 215.65364 292.01985 214.44039 291.64048 213.18978 291.38429 211.9018 291.12809 210.61382 291 209.31322 291 208 291 206.68677 291.12809 205.38616 291.38429 204.09818 291.64048 202.81018 292.01985 201.55956 292.52238 200.3463 293.0249 199.13304 293.64097 197.98046 294.37055 196.88855 295.10014 195.79666 295.92924 194.78643 296.85786 193.85785 297.7864 192.92926 298.79667 192.10018 299.88859 191.37059 300.98048 190.641 302.13307 190.02495 303.3463 189.5224 304.55958 189.01985 305.81019 188.64049 307.09819 188.3843 308.38618 188.1281 309.6868 188 311 188 312.3132 188 313.6138 188.1281 314.90177 188.3843 316.18977 188.64049 317.44038 189.01985 318.65364 189.5224 319.86686 190.02495 321.01945 190.641 322.11137 191.37059 323.20329 192.10018 324.21354 192.92926 325.14213 193.85785 326.07075 194.78643 326.8998 195.79666 327.62937 196.88855 328.35899 197.98047 328.97505 199.13306 329.47758 200.34632 329.9801 201.55956 330.35948 202.81018 330.61567 204.09818 330.87187 205.38616 330.99998 206.68677 331 208Z"/>
<use data-text="S" xlink:href="#font_3_54" transform="matrix(12.939182,0,0,-12.939182,219.23603,153.8325)" fill="#ffffff"/>
<path transform="matrix(.71884348,0,0,.71884348,.35942174,.35942174)" stroke-width="1" stroke-linecap="butt" stroke-miterlimit="10" stroke-linejoin="miter" fill="none" stroke="#0000ff" d="M165.2 227.14 142.85 300.91"/>
<path transform="matrix(.71884348,0,0,.71884348,.35942174,.35942174)" d="M141.32 305.93 140 298.22 142.85 300.91 146.7 300.25 141.32 305.93Z" fill="#0000ff"/>
<path transform="matrix(.71884348,0,0,.71884348,.35942174,.35942174)" stroke-width="1" stroke-linecap="butt" stroke-miterlimit="10" stroke-linejoin="miter" fill="none" stroke="#0000ff" d="M141.32 305.93 140 298.22 142.85 300.91 146.7 300.25 141.32 305.93Z"/>
<path transform="matrix(.71884348,0,0,.71884348,.35942174,.35942174)" stroke-width="1" stroke-linecap="butt" stroke-miterlimit="10" stroke-linejoin="miter" fill="none" stroke="#0000ff" d="M178.49 226.54 208.61 301.1"/>
<path transform="matrix(.71884348,0,0,.71884348,.35942174,.35942174)" d="M210.58 305.96 204.71 300.78 208.61 301.1 211.2 298.16 210.58 305.96Z" fill="#0000ff"/>
<path transform="matrix(.71884348,0,0,.71884348,.35942174,.35942174)" stroke-width="1" stroke-linecap="butt" stroke-miterlimit="10" stroke-linejoin="miter" fill="none" stroke="#0000ff" d="M210.58 305.96 204.71 300.78 208.61 301.1 211.2 298.16 210.58 305.96Z"/>
<path transform="matrix(.71884348,0,0,.71884348,.35942174,.35942174)" d="M191 208C190.99999 209.31322 190.87189 210.61382 190.61568 211.9018 190.35948 213.18978 189.9801 214.44039 189.47756 215.65364 188.975 216.8669 188.35894 218.01947 187.62935 219.11136 186.89977 220.20328 186.07068 221.21353 185.1421 222.14212 184.2135 223.07071 183.20326 223.8998 182.11136 224.62937 181.01946 225.35895 179.86688 225.975 178.65364 226.47756 177.44039 226.9801 176.18976 227.35948 174.90178 227.61569 173.6138 227.87189 172.3132 227.99999 171 228 169.68679 227.99999 168.38617 227.87189 167.09818 227.61568 165.8102 227.35948 164.55957 226.9801 163.34632 226.47756 162.13307 225.975 160.9805 225.35895 159.8886 224.62938 158.79669 223.8998 157.78646 223.07071 156.85787 222.14212 155.92928 221.21353 155.10019 220.20328 154.3706 219.11138 153.64102 218.01947 153.02495 216.8669 152.5224 215.65364 152.01985 214.44039 151.64049 213.18978 151.3843 211.9018 151.1281 210.61382 151 209.31322 151 208 151 206.68677 151.1281 205.38616 151.3843 204.09818 151.64049 202.81018 152.01985 201.55956 152.5224 200.3463 153.02495 199.13304 153.64102 197.98046 154.3706 196.88855 155.10019 195.79666 155.92928 194.78643 156.85787 193.85785 157.78646 192.92926 158.79669 192.10018 159.8886 191.37059 160.9805 190.641 162.13307 190.02495 163.34632 189.5224 164.55957 189.01985 165.8102 188.64049 167.09818 188.3843 168.38617 188.1281 169.68679 188 171 188 172.3132 188 173.6138 188.1281 174.90178 188.3843 176.18976 188.64049 177.44039 189.01985 178.65364 189.5224 179.86688 190.02495 181.01946 190.641 182.11136 191.37059 183.20326 192.10018 184.2135 192.92926 185.1421 193.85785 186.07068 194.78643 186.89977 195.79666 187.62935 196.88855 188.35894 197.98047 188.975 199.13306 189.47756 200.34632 189.9801 201.55956 190.35948 202.81018 190.61569 204.09818 190.87189 205.38616 190.99999 206.68677 191 208Z" fill="#ff0000"/>
<path transform="matrix(.71884348,0,0,.71884348,.35942174,.35942174)" stroke-width="1" stroke-linecap="butt" stroke-miterlimit="4" stroke-linejoin="miter" fill="none" stroke="#d6b656" d="M191 208C190.99999 209.31322 190.87189 210.61382 190.61568 211.9018 190.35948 213.18978 189.9801 214.44039 189.47756 215.65364 188.975 216.8669 188.35894 218.01947 187.62935 219.11136 186.89977 220.20328 186.07068 221.21353 185.1421 222.14212 184.2135 223.07071 183.20326 223.8998 182.11136 224.62937 181.01946 225.35895 179.86688 225.975 178.65364 226.47756 177.44039 226.9801 176.18976 227.35948 174.90178 227.61569 173.6138 227.87189 172.3132 227.99999 171 228 169.68679 227.99999 168.38617 227.87189 167.09818 227.61568 165.8102 227.35948 164.55957 226.9801 163.34632 226.47756 162.13307 225.975 160.9805 225.35895 159.8886 224.62938 158.79669 223.8998 157.78646 223.07071 156.85787 222.14212 155.92928 221.21353 155.10019 220.20328 154.3706 219.11138 153.64102 218.01947 153.02495 216.8669 152.5224 215.65364 152.01985 214.44039 151.64049 213.18978 151.3843 211.9018 151.1281 210.61382 151 209.31322 151 208 151 206.68677 151.1281 205.38616 151.3843 204.09818 151.64049 202.81018 152.01985 201.55956 152.5224 200.3463 153.02495 199.13304 153.64102 197.98046 154.3706 196.88855 155.10019 195.79666 155.92928 194.78643 156.85787 193.85785 157.78646 192.92926 158.79669 192.10018 159.8886 191.37059 160.9805 190.641 162.13307 190.02495 163.34632 189.5224 164.55957 189.01985 165.8102 188.64049 167.09818 188.3843 168.38617 188.1281 169.68679 188 171 188 172.3132 188 173.6138 188.1281 174.90178 188.3843 176.18976 188.64049 177.44039 189.01985 178.65364 189.5224 179.86688 190.02495 181.01946 190.641 182.11136 191.37059 183.20326 192.10018 184.2135 192.92926 185.1421 193.85785 186.07068 194.78643 186.89977 195.79666 187.62935 196.88855 188.35894 197.98047 188.975 199.13306 189.47756 200.34632 189.9801 201.55956 190.35948 202.81018 190.61569 204.09818 190.87189 205.38616 190.99999 206.68677 191 208Z"/>
<use data-text="A" xlink:href="#font_3_36" transform="matrix(12.939182,0,0,-12.939182,118.59794,153.8325)" fill="#ffffff"/>
<path transform="matrix(.71884348,0,0,.71884348,.35942174,.35942174)" d="M121 377 141 307 161 377H121Z" fill="#ffffff"/>
<path transform="matrix(.71884348,0,0,.71884348,.35942174,.35942174)" stroke-width="1" stroke-linecap="butt" stroke-miterlimit="10" stroke-linejoin="miter" fill="none" stroke="#616161" d="M121 377 141 307 161 377H121Z"/>
<path transform="matrix(.71884348,0,0,.71884348,.35942174,.35942174)" d="M191 377 211 307 231 377H191Z" fill="#ffffff"/>
<path transform="matrix(.71884348,0,0,.71884348,.35942174,.35942174)" stroke-width="1" stroke-linecap="butt" stroke-miterlimit="10" stroke-linejoin="miter" fill="none" stroke="#616161" d="M191 377 211 307 231 377H191Z"/>
<path transform="matrix(.71884348,0,0,.71884348,.35942174,.35942174)" d="M261 377 281 307 301 377H261Z" fill="#ffffff"/>
<path transform="matrix(.71884348,0,0,.71884348,.35942174,.35942174)" stroke-width="1" stroke-linecap="butt" stroke-miterlimit="10" stroke-linejoin="miter" fill="none" stroke="#616161" d="M261 377 281 307 301 377H261Z"/>
<path transform="matrix(.71884348,0,0,.71884348,.35942174,.35942174)" d="M331 377 351 307 371 377H331Z" fill="#ffffff"/>
<path transform="matrix(.71884348,0,0,.71884348,.35942174,.35942174)" stroke-width="1" stroke-linecap="butt" stroke-miterlimit="10" stroke-linejoin="miter" fill="none" stroke="#616161" d="M331 377 351 307 371 377H331Z"/>
</g>
</svg>
