<svg xmlns="http://www.w3.org/2000/svg" xmlns:xlink="http://www.w3.org/1999/xlink" xmlns:inkscape="http://www.inkscape.org/namespaces/inkscape" version="1.1" width="720.95999" height="282" viewBox="0 0 720.95999 282">
<defs>
<clipPath id="clip_1">
<path transform="matrix(.24,0,0,.24,0,0)" d="M0 0H3004.1668V1174.111H0Z" clip-rule="evenodd"/>
</clipPath>
<clipPath id="clip_2">
<path transform="matrix(.24,0,0,.24,0,0)" d="M0 0H3004.1668V1165.1255H0Z" clip-rule="evenodd"/>
</clipPath>
<path id="font_3_21" d="M.50341799 .084472659V0H.030273438C.029622397 .021148682 .033040365 .041483564 .040527345 .06100464 .052571615 .09321085 .07185873 .124928798 .09838867 .15615845 .12491862 .1873881 .1632487 .22350057 .2133789 .26449586 .29117839 .3282369 .34375 .37872825 .37109376 .41596986 .3984375 .45321147 .41210938 .48841859 .41210938 .5215912 .41210938 .5563914 .3996582 .5857442 .37475587 .60964968 .34985353 .6335551 .3173828 .6455078 .27734376 .6455078 .23502605 .6455078 .20117188 .6328125 .17578125 .6074219 .15039063 .58203127 .13753255 .546875 .13720703 .5019531L.046875 .5112457C.053059896 .5787811 .07633463 .630249 .11669922 .6656494 .1570638 .7010498 .21126302 .71875 .27929688 .71875 .34798179 .71875 .40234376 .69970199 .4423828 .66160586 .48242188 .6235097 .5024414 .57629397 .5024414 .5199585 .5024414 .4913025 .49658204 .46313478 .48486329 .43545533 .47314454 .40777589 .45369468 .3786316 .42651368 .34802247 .39933268 .3174235 .35416667 .27542115 .29101563 .22201538 .23828125 .17779541 .20442708 .14779663 .18945313 .13201905 .17447917 .116251628 .16210938 .10040283 .15234375 .084472659H.50341799Z"/>
<path id="font_3_20" d="M.3725586 0H.28466798V.5600586C.26350913 .5398763 .23575847 .51969406 .20141602 .49951173 .16707357 .47932945 .13623047 .46419273 .10888672 .45410157V.5390625C.15804036 .5621745 .20100911 .59016928 .23779297 .6230469 .2745768 .6559245 .3006185 .6878255 .31591798 .71875H.3725586V0Z"/>
<path id="font_3_40" d="M.07910156 0V.7158203H.5966797V.63134768H.17382813V.41210938H.5698242V.32910157H.17382813V.084472659H.61328127V0H.07910156Z"/>
<path id="font_3_22" d="M.041992189 .19042969 .12988281 .20214844C.13997396 .15234375 .15714519 .11645508 .18139649 .09448242 .20564778 .072509769 .2351888 .061523439 .27001954 .061523439 .3113607 .061523439 .3462728 .07582092 .37475587 .10441589 .40323893 .13301087 .41748048 .1684316 .41748048 .2106781 .41748048 .25098167 .40429688 .2842102 .3779297 .31036378 .3515625 .3365275 .31803385 .34960938 .27734376 .34960938 .2607422 .34960938 .24007161 .34635417 .21533203 .33984376L.22509766 .4169922C.23095703 .41634117 .23567708 .41601563 .23925781 .41601563 .27669273 .41601563 .31038413 .42569987 .34033204 .44506837 .37027995 .46443687 .3852539 .4942932 .3852539 .53463748 .3852539 .56658938 .37434898 .59305319 .35253907 .61402896 .33072917 .63501486 .30257163 .6455078 .2680664 .6455078 .23388672 .6455078 .20540364 .6347656 .18261719 .61328127 .15983074 .5917969 .1451823 .5595703 .13867188 .51660159L.05078125 .53222659C.061523439 .591451 .0859375 .63734439 .12402344 .6699066 .16210938 .7024689 .20947266 .71875 .26611329 .71875 .30517579 .71875 .34114585 .71039327 .37402345 .6936798 .40690104 .67696639 .43204753 .6541646 .4494629 .62527468 .46687828 .59639486 .47558595 .5657247 .47558595 .53326418 .47558595 .5024312 .46728517 .47435508 .4506836 .44903565 .43408204 .4237264 .40950523 .40360514 .37695313 .38867188 .41927085 .37890626 .45214845 .35864259 .47558595 .32788087 .49902345 .29711915 .5107422 .2586263 .5107422 .21240235 .5107422 .14990235 .48795573 .09692383 .4423828 .053466798 .3968099 .010009766 .33919273-.01171875 .26953126-.01171875 .20670574-.01171875 .15454102 .007044474 .11303711 .044570924 .0715332 .082097377 .047851564 .13071697 .041992189 .19042969Z"/>
<path id="font_3_54" d="M.044921876 .23046875 .13427735 .23828125C.13850911 .20247396 .14835613 .1730957 .16381836 .15014649 .1792806 .12719727 .20328777 .10864258 .23583985 .09448242 .26839195 .080322269 .30501304 .07324219 .34570313 .07324219 .38183595 .07324219 .41373698 .07861328 .44140626 .08935547 .46907554 .100097659 .4896647 .11482748 .5031738 .13354492 .5166829 .15226238 .5234375 .1726888 .5234375 .19482422 .5234375 .21728516 .51692709 .23689778 .50390627 .2536621 .4908854 .27042643 .46940104 .28450523 .43945313 .29589845 .4202474 .3033854 .37776695 .3150228 .31201173 .33081056 .24625652 .3465983 .20019531 .36149089 .17382813 .37548829 .13964844 .39339195 .11417643 .41560874 .09741211 .44213868 .08064779 .4686686 .072265628 .4983724 .072265628 .53125 .072265628 .5673828 .08251953 .6011556 .103027347 .63256838 .123535159 .66398116 .15348308 .6878255 .1928711 .70410159 .23225911 .7203776 .27604167 .7285156 .32421876 .7285156 .37727867 .7285156 .42407228 .7199707 .4645996 .70288088 .50512698 .685791 .5362956 .66064456 .55810549 .6274414 .57991537 .5942383 .5916341 .5566406 .5932617 .51464846L.5024414 .5078125C.4975586 .55322268 .48103843 .5875244 .45288087 .6107178 .4247233 .63391116 .38313804 .6455078 .328125 .6455078 .27083335 .6455078 .22908528 .6349996 .20288086 .61398318 .17667644 .59297689 .16357422 .5676524 .16357422 .53800967 .16357422 .51227316 .17285156 .49109904 .19140625 .4744873 .20963542 .4578654 .25724284 .44084168 .33422853 .42341615 .4112142 .4059906 .46402995 .39076234 .49267579 .37773133 .53434249 .3585154 .5651042 .33416239 .58496096 .30467225 .6048177 .27519227 .6147461 .24123128 .6147461 .2027893 .6147461 .16468303 .6038411 .12876892 .58203127 .095047 .5602214 .061335248 .52888998 .035110475 .4880371 .01637268 .44718424-.0023549398 .40120445-.01171875 .35009767-.01171875 .285319-.01171875 .2310384-.0022786458 .18725586 .016601563 .14347331 .03548177 .10913086 .06388346 .084228519 .10180664 .059326173 .13972982 .046223958 .18261719 .044921876 .23046875Z"/>
</defs>
<g clip-path="url(#clip_1)">
<path transform="matrix(.71884348,0,0,.71884348,0,0)" d="M0 0H1003V392H0Z" fill="#ffffff"/>
</g>
<g clip-path="url(#clip_2)">
<path transform="matrix(.71884348,0,0,.71884348,.35942174,.35942174)" d="M1 388 241 28 481 388H1Z" fill="#ffffff"/>
<path transform="matrix(.71884348,0,0,.71884348,.35942174,.35942174)" stroke-width="1" stroke-linecap="butt" stroke-miterlimit="10" stroke-linejoin="miter" fill="none" stroke="#dbdbdb" d="M1 388 241 28 481 388H1Z"/>
<path transform="matrix(.71884348,0,0,.71884348,.35942174,.35942174)" d="M121 258 171 188 221 258H121Z" fill="#ffffff"/>
<path transform="matrix(.71884348,0,0,.71884348,.35942174,.35942174)" stroke-width="1" stroke-linecap="butt" stroke-miterlimit="10" stroke-linejoin="miter" fill="none" stroke="#616161" d="M121 258 171 188 221 258H121Z"/>
<path transform="matrix(.71884348,0,0,.71884348,.35942174,.35942174)" stroke-width="1" stroke-linecap="butt" stroke-miterlimit="10" stroke-linejoin="miter" fill="none" stroke="#0000ff" d="M229.53 104.38 174.65 182.78"/>
<path transform="matrix(.71884348,0,0,.71884348,.35942174,.35942174)" d="M171.64 187.08 172.79 179.34 174.65 182.78 178.52 183.36 171.64 187.08Z" fill="#0000ff"/>
<path transform="matrix(.71884348,0,0,.71884348,.35942174,.35942174)" stroke-width="1" stroke-linecap="butt" stroke-miterlimit="10" stroke-linejoin="miter" fill="none" stroke="#0000ff" d="M171.64 187.08 172.79 179.34 174.65 182.78 178.52 183.36 171.64 187.08Z"/>
<path transform="matrix(.71884348,0,0,.71884348,0,0)" stroke-width="2" stroke-linecap="butt" stroke-miterlimit="10" stroke-linejoin="miter" fill="none" stroke="#0000ff" d="M252.02 104.69 305.33 184.51"/>
<path transform="matrix(.71884348,0,0,.71884348,0,0)" d="M308.66 189.5 300.89 185.07 305.33 184.51 307.55 180.63 308.66 189.5Z" fill="#0000ff"/>
<path transform="matrix(.71884348,0,0,.71884348,0,0)" stroke-width="2" stroke-linecap="butt" stroke-miterlimit="10" stroke-linejoin="miter" fill="none" stroke="#0000ff" d="M308.66 189.5 300.89 185.07 305.33 184.51 307.55 180.63 308.66 189.5Z"/>
<path transform="matrix(.71884348,0,0,.71884348,0,0)" d="M278 142H285V155H278Z" fill="#ffffff"/>
<use data-text="2" xlink:href="#font_3_21" transform="matrix(7.907278,0,0,-7.907278,200.15297,109.264209)"/>
<path transform="matrix(.71884348,0,0,.71884348,0,0)" stroke-width="2" stroke-linecap="butt" stroke-miterlimit="10" stroke-linejoin="miter" fill="none" stroke="#0000ff" d="M241 59.76V8"/>
<path transform="matrix(.71884348,0,0,.71884348,0,0)" d="M241 65.76 237 57.76 241 59.76 245 57.76 241 65.76Z" fill="#0000ff"/>
<path transform="matrix(.71884348,0,0,.71884348,0,0)" stroke-width="2" stroke-linecap="butt" stroke-miterlimit="10" stroke-linejoin="miter" fill="none" stroke="#0000ff" d="M241 65.76 237 57.76 241 59.76 245 57.76 241 65.76Z"/>
<path transform="matrix(.71884348,0,0,.71884348,0,0)" d="M238 32H245V45H238Z" fill="#ffffff"/>
<use data-text="1" xlink:href="#font_3_20" transform="matrix(7.907278,0,0,-7.907278,171.39923,30.191426)"/>
<path transform="matrix(.71884348,0,0,.71884348,.35942174,.35942174)" d="M261 88C260.99998 89.31322 260.87187 90.613819 260.61567 91.9018 260.35948 93.18978 259.9801 94.4404 259.47758 95.653659 258.97505 96.86691 258.35896 98.019489 257.62937 99.11138 256.89979 100.20329 256.0707 101.21354 255.14212 102.14212 254.21352 103.0707 253.20328 103.89979 252.11138 104.62937 251.01947 105.358959 249.8669 105.97502 248.65364 106.47757 247.44039 106.98012 246.18978 107.35949 244.9018 107.615688 243.61382 107.87189 242.31322 107.99999 241 108 239.68677 107.99999 238.38616 107.871898 237.09816 107.61569 235.81018 107.35949 234.55956 106.98012 233.3463 106.47757 232.13304 105.97502 230.98047 105.358959 229.88857 104.62937 228.79666 103.89979 227.78643 103.0707 226.85785 102.14212 225.92926 101.21354 225.10018 100.20329 224.37059 99.11138 223.64099 98.019489 223.02494 96.86691 222.52239 95.653659 222.01984 94.4404 221.64046 93.18978 221.38426 91.901798 221.12808 90.613819 220.99999 89.31322 221 88 220.99999 86.68678 221.12808 85.38618 221.38428 84.09819 221.64046 82.8102 222.01984 81.559589 222.52239 80.34632 223.02494 79.133068 223.64099 77.980487 224.37059 76.88858 225.10018 75.796688 225.92926 74.78644 226.85785 73.85786 227.78643 72.929279 228.79666 72.10019 229.88857 71.370609 230.98047 70.64102 232.13304 70.024959 233.34632 69.52241 234.55956 69.01986 235.81018 68.64049 237.09816 68.38429 238.38616 68.1281 239.68677 68 241 68 242.31322 68 243.61382 68.1281 244.9018 68.384288 246.18978 68.64048 247.44039 69.01985 248.65364 69.5224 249.8669 70.024959 251.01949 70.64102 252.11139 71.370609 253.20328 72.10019 254.21352 72.929279 255.14212 73.85786 256.0707 74.78644 256.89979 75.796688 257.62937 76.88858 258.35896 77.980487 258.97505 79.133068 259.47758 80.34632 259.9801 81.559589 260.3595 82.8102 260.6157 84.09819 260.8719 85.38618 260.99998 86.68678 261 88Z" fill="#f5f5f5"/>
<path transform="matrix(.71884348,0,0,.71884348,.35942174,.35942174)" stroke-width="1" stroke-linecap="butt" stroke-miterlimit="4" stroke-linejoin="miter" fill="none" stroke="#666666" d="M261 88C260.99998 89.31322 260.87187 90.613819 260.61567 91.9018 260.35948 93.18978 259.9801 94.4404 259.47758 95.653659 258.97505 96.86691 258.35896 98.019489 257.62937 99.11138 256.89979 100.20329 256.0707 101.21354 255.14212 102.14212 254.21352 103.0707 253.20328 103.89979 252.11138 104.62937 251.01947 105.358959 249.8669 105.97502 248.65364 106.47757 247.44039 106.98012 246.18978 107.35949 244.9018 107.615688 243.61382 107.87189 242.31322 107.99999 241 108 239.68677 107.99999 238.38616 107.871898 237.09816 107.61569 235.81018 107.35949 234.55956 106.98012 233.3463 106.47757 232.13304 105.97502 230.98047 105.358959 229.88857 104.62937 228.79666 103.89979 227.78643 103.0707 226.85785 102.14212 225.92926 101.21354 225.10018 100.20329 224.37059 99.11138 223.64099 98.019489 223.02494 96.86691 222.52239 95.653659 222.01984 94.4404 221.64046 93.18978 221.38426 91.901798 221.12808 90.613819 220.99999 89.31322 221 88 220.99999 86.68678 221.12808 85.38618 221.38428 84.09819 221.64046 82.8102 222.01984 81.559589 222.52239 80.34632 223.02494 79.133068 223.64099 77.980487 224.37059 76.88858 225.10018 75.796688 225.92926 74.78644 226.85785 73.85786 227.78643 72.929279 228.79666 72.10019 229.88857 71.370609 230.98047 70.64102 232.13304 70.024959 233.34632 69.52241 234.55956 69.01986 235.81018 68.64049 237.09816 68.38429 238.38616 68.1281 239.68677 68 241 68 242.31322 68 243.61382 68.1281 244.9018 68.384288 246.18978 68.64048 247.44039 69.01985 248.65364 69.5224 249.8669 70.024959 251.01949 70.64102 252.11139 71.370609 253.20328 72.10019 254.21352 72.929279 255.14212 73.85786 256.0707 74.78644 256.89979 75.796688 257.62937 76.88858 258.35896 77.980487 258.97505 79.133068 259.47758 80.34632 259.9801 81.559589 260.3595 82.8102 260.6157 84.09819 260.8719 85.38618 260.99998 86.68678 261 88Z"/>
<use data-text="E" xlink:href="#font_3_40" transform="matrix(12.939182,0,0,-12.939182,168.91698,67.57129)" fill="#333333"/>
<path transform="matrix(.71884348,0,0,.71884348,0,0)" stroke-width="2" stroke-linecap="butt" stroke-miterlimit="10" stroke-linejoin="miter" fill="none" stroke="#0000ff" d="M310.71 225.15 265.24 300.94"/>
<path transform="matrix(.71884348,0,0,.71884348,0,0)" d="M262.15 306.08 262.84 297.16 265.24 300.94 269.7 301.28 262.15 306.08Z" fill="#0000ff"/>
<path transform="matrix(.71884348,0,0,.71884348,0,0)" stroke-width="2" stroke-linecap="butt" stroke-miterlimit="10" stroke-linejoin="miter" fill="none" stroke="#0000ff" d="M262.15 306.08 262.84 297.16 265.24 300.94 269.7 301.28 262.15 306.08Z"/>
<path transform="matrix(.71884348,0,0,.71884348,0,0)" d="M283 260H290V273H283Z" fill="#ffffff"/>
<use data-text="3" xlink:href="#font_3_22" transform="matrix(7.907278,0,0,-7.907278,203.7472,194.08774)"/>
<path transform="matrix(.71884348,0,0,.71884348,.35942174,.35942174)" stroke-width="1" stroke-linecap="butt" stroke-miterlimit="10" stroke-linejoin="miter" fill="none" stroke="#0000ff" d="M331.29 225.15 377.72 302.54"/>
<path transform="matrix(.71884348,0,0,.71884348,.35942174,.35942174)" d="M380.42 307.04 373.82 302.84 377.72 302.54 379.82 299.24 380.42 307.04Z" fill="#0000ff"/>
<path transform="matrix(.71884348,0,0,.71884348,.35942174,.35942174)" stroke-width="1" stroke-linecap="butt" stroke-miterlimit="10" stroke-linejoin="miter" fill="none" stroke="#0000ff" d="M380.42 307.04 373.82 302.84 377.72 302.54 379.82 299.24 380.42 307.04Z"/>
<path transform="matrix(.71884348,0,0,.71884348,.35942174,.35942174)" d="M341 208C340.99998 209.31322 340.87187 210.61382 340.61567 211.9018 340.35948 213.18978 339.98008 214.44039 339.47755 215.65364 338.975 216.8669 338.35893 218.01947 337.62934 219.11136 336.89976 220.20328 336.07069 221.21353 335.14213 222.14212 334.21354 223.07071 333.20329 223.8998 332.11137 224.62937 331.01945 225.35895 329.86686 225.975 328.65364 226.47756 327.44038 226.9801 326.18977 227.35948 324.90177 227.61569 323.6138 227.87189 322.3132 227.99999 321 228 319.68678 227.99999 318.38618 227.87189 317.09819 227.61568 315.81019 227.35948 314.55955 226.9801 313.34629 226.47756 312.13304 225.975 310.98045 225.35895 309.88856 224.62938 308.79667 223.8998 307.7864 223.07071 306.85783 222.14212 305.9292 221.21353 305.10014 220.20328 304.37055 219.11138 303.64097 218.01947 303.02488 216.8669 302.52235 215.65364 302.0198 214.44039 301.64045 213.18978 301.38429 211.9018 301.12809 210.61382 300.99998 209.31322 301 208 300.99998 206.68677 301.12809 205.38616 301.38429 204.09818 301.64045 202.81018 302.0198 201.55956 302.52235 200.3463 303.02488 199.13304 303.64097 197.98046 304.37055 196.88855 305.10014 195.79666 305.9292 194.78643 306.85783 193.85785 307.7864 192.92926 308.79667 192.10018 309.88856 191.37059 310.98045 190.641 312.13304 190.02495 313.34629 189.5224 314.55955 189.01985 315.81019 188.64049 317.09819 188.3843 318.38618 188.1281 319.68678 188 321 188 322.3132 188 323.6138 188.1281 324.90177 188.3843 326.18977 188.64049 327.44038 189.01985 328.65364 189.5224 329.86686 190.02495 331.01945 190.641 332.11137 191.37059 333.20329 192.10018 334.21354 192.92926 335.14213 193.85785 336.07069 194.78643 336.89976 195.79666 337.62934 196.88855 338.35893 197.98047 338.975 199.13306 339.47755 200.34632 339.98008 201.55956 340.35948 202.81018 340.61567 204.09818 340.87187 205.38616 340.99998 206.68677 341 208Z" fill="#ff0000"/>
<path transform="matrix(.71884348,0,0,.71884348,.35942174,.35942174)" stroke-width="1" stroke-linecap="butt" stroke-miterlimit="4" stroke-linejoin="miter" fill="none" stroke="#d6b656" d="M341 208C340.99998 209.31322 340.87187 210.61382 340.61567 211.9018 340.35948 213.18978 339.98008 214.44039 339.47755 215.65364 338.975 216.8669 338.35893 218.01947 337.62934 219.11136 336.89976 220.20328 336.07069 221.21353 335.14213 222.14212 334.21354 223.07071 333.20329 223.8998 332.11137 224.62937 331.01945 225.35895 329.86686 225.975 328.65364 226.47756 327.44038 226.9801 326.18977 227.35948 324.90177 227.61569 323.6138 227.87189 322.3132 227.99999 321 228 319.68678 227.99999 318.38618 227.87189 317.09819 227.61568 315.81019 227.35948 314.55955 226.9801 313.34629 226.47756 312.13304 225.975 310.98045 225.35895 309.88856 224.62938 308.79667 223.8998 307.7864 223.07071 306.85783 222.14212 305.9292 221.21353 305.10014 220.20328 304.37055 219.11138 303.64097 218.01947 303.02488 216.8669 302.52235 215.65364 302.0198 214.44039 301.64045 213.18978 301.38429 211.9018 301.12809 210.61382 300.99998 209.31322 301 208 300.99998 206.68677 301.12809 205.38616 301.38429 204.09818 301.64045 202.81018 302.0198 201.55956 302.52235 200.3463 303.02488 199.13304 303.64097 197.98046 304.37055 196.88855 305.10014 195.79666 305.9292 194.78643 306.85783 193.85785 307.7864 192.92926 308.79667 192.10018 309.88856 191.37059 310.98045 190.641 312.13304 190.02495 313.34629 189.5224 314.55955 189.01985 315.81019 188.64049 317.09819 188.3843 318.38618 188.1281 319.68678 188 321 188 322.3132 188 323.6138 188.1281 324.90177 188.3843 326.18977 188.64049 327.44038 189.01985 328.65364 189.5224 329.86686 190.02495 331.01945 190.641 332.11137 191.37059 333.20329 192.10018 334.21354 192.92926 335.14213 193.85785 336.07069 194.78643 336.89976 195.79666 337.62934 196.88855 338.35893 197.98047 338.975 199.13306 339.47755 200.34632 339.98008 201.55956 340.35948 202.81018 340.61567 204.09818 340.87187 205.38616 340.99998 206.68677 341 208Z"/>
<use data-text="S" xlink:href="#font_3_54" transform="matrix(12.939182,0,0,-12.939182,226.42446,153.8325)" fill="#ffffff"/>
<path transform="matrix(.71884348,0,0,.71884348,.35942174,.35942174)" d="M211 378 261 308 311 378H211Z" fill="#ffffff"/>
<path transform="matrix(.71884348,0,0,.71884348,.35942174,.35942174)" stroke-width="1" stroke-linecap="butt" stroke-miterlimit="10" stroke-linejoin="miter" fill="none" stroke="#616161" d="M211 378 261 308 311 378H211Z"/>
<path transform="matrix(.71884348,0,0,.71884348,.35942174,.35942174)" d="M331 378 381 308 431 378H331Z" fill="#ffffff"/>
<path transform="matrix(.71884348,0,0,.71884348,.35942174,.35942174)" stroke-width="1" stroke-linecap="butt" stroke-miterlimit="10" stroke-linejoin="miter" fill="none" stroke="#616161" d="M331 378 381 308 431 378H331Z"/>
<path transform="matrix(.71884348,0,0,.71884348,.35942174,.35942174)" d="M521 388 761 28 1001 388H521Z" fill="#ffffff"/>
<path transform="matrix(.71884348,0,0,.71884348,.35942174,.35942174)" stroke-width="1" stroke-linecap="butt" stroke-miterlimit="10" stroke-linejoin="miter" fill="none" stroke="#dbdbdb" d="M521 388 761 28 1001 388H521Z"/>
<path transform="matrix(.71884348,0,0,.71884348,.35942174,.35942174)" d="M781 258 831 188 881 258H781Z" fill="#ffffff"/>
<path transform="matrix(.71884348,0,0,.71884348,.35942174,.35942174)" stroke-width="1" stroke-linecap="butt" stroke-miterlimit="10" stroke-linejoin="miter" fill="none" stroke="#616161" d="M781 258 831 188 881 258H781Z"/>
<path transform="matrix(.71884348,0,0,.71884348,.35942174,.35942174)" stroke-width="1" stroke-linecap="butt" stroke-miterlimit="10" stroke-linejoin="miter" fill="none" stroke="#0000ff" d="M772.47 104.38 827.35 182.78"/>
<path transform="matrix(.71884348,0,0,.71884348,.35942174,.35942174)" d="M830.36 187.08 823.48 183.36 827.35 182.78 829.21 179.34 830.36 187.08Z" fill="#0000ff"/>
<path transform="matrix(.71884348,0,0,.71884348,.35942174,.35942174)" stroke-width="1" stroke-linecap="butt" stroke-miterlimit="10" stroke-linejoin="miter" fill="none" stroke="#0000ff" d="M830.36 187.08 823.48 183.36 827.35 182.78 829.21 179.34 830.36 187.08Z"/>
<path transform="matrix(.71884348,0,0,.71884348,0,0)" stroke-width="2" stroke-linecap="butt" stroke-miterlimit="10" stroke-linejoin="miter" fill="none" stroke="#0000ff" d="M749.98 104.69 696.67 184.51"/>
<path transform="matrix(.71884348,0,0,.71884348,0,0)" d="M693.34 189.5 694.45 180.63 696.67 184.51 701.11 185.07 693.34 189.5Z" fill="#0000ff"/>
<path transform="matrix(.71884348,0,0,.71884348,0,0)" stroke-width="2" stroke-linecap="butt" stroke-miterlimit="10" stroke-linejoin="miter" fill="none" stroke="#0000ff" d="M693.34 189.5 694.45 180.63 696.67 184.51 701.11 185.07 693.34 189.5Z"/>
<path transform="matrix(.71884348,0,0,.71884348,0,0)" d="M718 142H725V155H718Z" fill="#ffffff"/>
<use data-text="3" xlink:href="#font_3_22" transform="matrix(7.907278,0,0,-7.907278,516.4441,109.264209)"/>
<path transform="matrix(.71884348,0,0,.71884348,0,0)" stroke-width="2" stroke-linecap="butt" stroke-miterlimit="10" stroke-linejoin="miter" fill="none" stroke="#0000ff" d="M761 59.76V8"/>
<path transform="matrix(.71884348,0,0,.71884348,0,0)" d="M761 65.76 757 57.76 761 59.76 765 57.76 761 65.76Z" fill="#0000ff"/>
<path transform="matrix(.71884348,0,0,.71884348,0,0)" stroke-width="2" stroke-linecap="butt" stroke-miterlimit="10" stroke-linejoin="miter" fill="none" stroke="#0000ff" d="M761 65.76 757 57.76 761 59.76 765 57.76 761 65.76Z"/>
<path transform="matrix(.71884348,0,0,.71884348,0,0)" d="M758 32H765V45H758Z" fill="#ffffff"/>
<use data-text="1" xlink:href="#font_3_20" transform="matrix(7.907278,0,0,-7.907278,545.1978,30.191426)"/>
<path transform="matrix(.71884348,0,0,.71884348,.35942174,.35942174)" d="M781 88C780.99996 89.31322 780.8718 90.613819 780.6156 91.9018 780.35946 93.18978 779.98007 94.4404 779.4775 95.653659 778.9749 96.86691 778.3588 98.019489 777.6293 99.11138 776.8997 100.20329 776.0706 101.21354 775.1421 102.14212 774.21347 103.0707 773.2032 103.89979 772.11129 104.62937 771.0194 105.358959 769.8668 105.97502 768.65359 106.47757 767.4403 106.98012 766.1897 107.35949 764.9018 107.615688 763.6138 107.87189 762.3132 107.99999 761 108 759.6867 107.99999 758.3861 107.871898 757.0981 107.61569 755.81008 107.35949 754.55947 106.98012 753.3462 106.47757 752.13296 105.97502 750.98037 105.358959 749.8885 104.62937 748.79666 103.89979 747.7864 103.0707 746.8578 102.14212 745.9292 101.21354 745.1001 100.20329 744.37057 99.11138 743.641 98.019489 743.0249 96.86691 742.52236 95.653659 742.0198 94.4404 741.6404 93.18978 741.3842 91.901798 741.12808 90.613819 740.99996 89.31322 741 88 740.99996 86.68678 741.12808 85.38618 741.3842 84.09819 741.6404 82.8102 742.0198 81.559589 742.52236 80.34632 743.0249 79.133068 743.641 77.980487 744.37057 76.88858 745.1001 75.796688 745.9292 74.78644 746.8578 73.85786 747.7864 72.929279 748.79666 72.10019 749.8885 71.370609 750.98037 70.64102 752.13296 70.024959 753.3462 69.52241 754.55947 69.01986 755.81008 68.64049 757.0981 68.38429 758.3861 68.1281 759.6867 68 761 68 762.3132 68 763.6138 68.1281 764.90176 68.384288 766.1897 68.64048 767.4403 69.01985 768.65359 69.5224 769.8668 70.024959 771.0194 70.64102 772.11129 71.370609 773.2032 72.10019 774.21347 72.929279 775.1421 73.85786 776.0706 74.78644 776.8997 75.796688 777.6293 76.88858 778.3588 77.980487 778.9749 79.133068 779.4775 80.34632 779.98007 81.559589 780.35946 82.8102 780.6156 84.09819 780.8718 85.38618 780.99996 86.68678 781 88Z" fill="#f5f5f5"/>
<path transform="matrix(.71884348,0,0,.71884348,.35942174,.35942174)" stroke-width="1" stroke-linecap="butt" stroke-miterlimit="4" stroke-linejoin="miter" fill="none" stroke="#666666" d="M781 88C780.99996 89.31322 780.8718 90.613819 780.6156 91.9018 780.35946 93.18978 779.98007 94.4404 779.4775 95.653659 778.9749 96.86691 778.3588 98.019489 777.6293 99.11138 776.8997 100.20329 776.0706 101.21354 775.1421 102.14212 774.21347 103.0707 773.2032 103.89979 772.11129 104.62937 771.0194 105.358959 769.8668 105.97502 768.65359 106.47757 767.4403 106.98012 766.1897 107.35949 764.9018 107.615688 763.6138 107.87189 762.3132 107.99999 761 108 759.6867 107.99999 758.3861 107.871898 757.0981 107.61569 755.81008 107.35949 754.55947 106.98012 753.3462 106.47757 752.13296 105.97502 750.98037 105.358959 749.8885 104.62937 748.79666 103.89979 747.7864 103.0707 746.8578 102.14212 745.9292 101.21354 745.1001 100.20329 744.37057 99.11138 743.641 98.019489 743.0249 96.86691 742.52236 95.653659 742.0198 94.4404 741.6404 93.18978 741.3842 91.901798 741.12808 90.613819 740.99996 89.31322 741 88 740.99996 86.68678 741.12808 85.38618 741.3842 84.09819 741.6404 82.8102 742.0198 81.559589 742.52236 80.34632 743.0249 79.133068 743.641 77.980487 744.37057 76.88858 745.1001 75.796688 745.9292 74.78644 746.8578 73.85786 747.7864 72.929279 748.79666 72.10019 749.8885 71.370609 750.98037 70.64102 752.13296 70.024959 753.3462 69.52241 754.55947 69.01986 755.81008 68.64049 757.0981 68.38429 758.3861 68.1281 759.6867 68 761 68 762.3132 68 763.6138 68.1281 764.90176 68.384288 766.1897 68.64048 767.4403 69.01985 768.65359 69.5224 769.8668 70.024959 771.0194 70.64102 772.11129 71.370609 773.2032 72.10019 774.21347 72.929279 775.1421 73.85786 776.0706 74.78644 776.8997 75.796688 777.6293 76.88858 778.3588 77.980487 778.9749 79.133068 779.4775 80.34632 779.98007 81.559589 780.35946 82.8102 780.6156 84.09819 780.8718 85.38618 780.99996 86.68678 781 88Z"/>
<use data-text="S" xlink:href="#font_3_54" transform="matrix(12.939182,0,0,-12.939182,542.7156,67.57129)" fill="#333333"/>
<path transform="matrix(.71884348,0,0,.71884348,.35942174,.35942174)" stroke-width="1" stroke-linecap="butt" stroke-miterlimit="10" stroke-linejoin="miter" fill="none" stroke="#0000ff" d="M670.71 225.15 624.28 302.54"/>
<path transform="matrix(.71884348,0,0,.71884348,.35942174,.35942174)" d="M621.58 307.04 622.18 299.24 624.28 302.54 628.18 302.84 621.58 307.04Z" fill="#0000ff"/>
<path transform="matrix(.71884348,0,0,.71884348,.35942174,.35942174)" stroke-width="1" stroke-linecap="butt" stroke-miterlimit="10" stroke-linejoin="miter" fill="none" stroke="#0000ff" d="M621.58 307.04 622.18 299.24 624.28 302.54 628.18 302.84 621.58 307.04Z"/>
<path transform="matrix(.71884348,0,0,.71884348,0,0)" stroke-width="2" stroke-linecap="butt" stroke-miterlimit="10" stroke-linejoin="miter" fill="none" stroke="#0000ff" d="M691.29 225.15 736.76 300.94"/>
<path transform="matrix(.71884348,0,0,.71884348,0,0)" d="M739.85 306.08 732.3 301.28 736.76 300.94 739.16 297.16 739.85 306.08Z" fill="#0000ff"/>
<path transform="matrix(.71884348,0,0,.71884348,0,0)" stroke-width="2" stroke-linecap="butt" stroke-miterlimit="10" stroke-linejoin="miter" fill="none" stroke="#0000ff" d="M739.85 306.08 732.3 301.28 736.76 300.94 739.16 297.16 739.85 306.08Z"/>
<path transform="matrix(.71884348,0,0,.71884348,0,0)" d="M713 260H720V273H713Z" fill="#ffffff"/>
<use data-text="2" xlink:href="#font_3_21" transform="matrix(7.907278,0,0,-7.907278,512.84988,194.08774)"/>
<path transform="matrix(.71884348,0,0,.71884348,.35942174,.35942174)" d="M701 208C701 209.31322 700.8719 210.61382 700.6157 211.9018 700.3595 213.18978 699.9801 214.44039 699.47756 215.65364 698.97506 216.8669 698.35897 218.01947 697.6294 219.11136 696.8998 220.20328 696.0707 221.21353 695.1421 222.14212 694.2135 223.07071 693.20327 223.8998 692.1113 224.62937 691.0194 225.35895 689.8668 225.975 688.6536 226.47756 687.44039 226.9801 686.18978 227.35948 684.9018 227.61569 683.61386 227.87189 682.31326 227.99999 681 228 679.68679 227.99999 678.38619 227.87189 677.09817 227.61568 675.8102 227.35948 674.5596 226.9801 673.3463 226.47756 672.13308 225.975 670.98049 225.35895 669.8886 224.62938 668.7967 223.8998 667.78646 223.07071 666.85787 222.14212 665.92929 221.21353 665.10018 220.20328 664.3705 219.11138 663.6409 218.01947 663.02487 216.8669 662.52236 215.65364 662.0198 214.44039 661.6404 213.18978 661.3842 211.9018 661.12808 210.61382 661 209.31322 661 208 661 206.68677 661.12808 205.38616 661.3842 204.09818 661.6404 202.81018 662.0198 201.55956 662.52236 200.3463 663.02487 199.13304 663.6409 197.98046 664.37057 196.88855 665.10018 195.79666 665.92929 194.78643 666.85787 193.85785 667.78646 192.92926 668.7967 192.10018 669.8886 191.37059 670.98049 190.641 672.13308 190.02495 673.3463 189.5224 674.5596 189.01985 675.8102 188.64049 677.09817 188.3843 678.38619 188.1281 679.68679 188 681 188 682.31326 188 683.61386 188.1281 684.9018 188.3843 686.18978 188.64049 687.44039 189.01985 688.6536 189.5224 689.8668 190.02495 691.0194 190.641 692.1113 191.37059 693.20327 192.10018 694.2135 192.92926 695.1421 193.85785 696.0707 194.78643 696.8998 195.79666 697.6294 196.88855 698.35897 197.98047 698.97506 199.13306 699.47756 200.34632 699.9801 201.55956 700.3595 202.81018 700.6157 204.09818 700.8719 205.38616 701 206.68677 701 208Z" fill="#ff0000"/>
<path transform="matrix(.71884348,0,0,.71884348,.35942174,.35942174)" stroke-width="1" stroke-linecap="butt" stroke-miterlimit="4" stroke-linejoin="miter" fill="none" stroke="#d6b656" d="M701 208C701 209.31322 700.8719 210.61382 700.6157 211.9018 700.3595 213.18978 699.9801 214.44039 699.47756 215.65364 698.97506 216.8669 698.35897 218.01947 697.6294 219.11136 696.8998 220.20328 696.0707 221.21353 695.1421 222.14212 694.2135 223.07071 693.20327 223.8998 692.1113 224.62937 691.0194 225.35895 689.8668 225.975 688.6536 226.47756 687.44039 226.9801 686.18978 227.35948 684.9018 227.61569 683.61386 227.87189 682.31326 227.99999 681 228 679.68679 227.99999 678.38619 227.87189 677.09817 227.61568 675.8102 227.35948 674.5596 226.9801 673.3463 226.47756 672.13308 225.975 670.98049 225.35895 669.8886 224.62938 668.7967 223.8998 667.78646 223.07071 666.85787 222.14212 665.92929 221.21353 665.10018 220.20328 664.3705 219.11138 663.6409 218.01947 663.02487 216.8669 662.52236 215.65364 662.0198 214.44039 661.6404 213.18978 661.3842 211.9018 661.12808 210.61382 661 209.31322 661 208 661 206.68677 661.12808 205.38616 661.3842 204.09818 661.6404 202.81018 662.0198 201.55956 662.52236 200.3463 663.02487 199.13304 663.6409 197.98046 664.37057 196.88855 665.10018 195.79666 665.92929 194.78643 666.85787 193.85785 667.78646 192.92926 668.7967 192.10018 669.8886 191.37059 670.98049 190.641 672.13308 190.02495 673.3463 189.5224 674.5596 189.01985 675.8102 188.64049 677.09817 188.3843 678.38619 188.1281 679.68679 188 681 188 682.31326 188 683.61386 188.1281 684.9018 188.3843 686.18978 188.64049 687.44039 189.01985 688.6536 189.5224 689.8668 190.02495 691.0194 190.641 692.1113 191.37059 693.20327 192.10018 694.2135 192.92926 695.1421 193.85785 696.0707 194.78643 696.8998 195.79666 697.6294 196.88855 698.35897 197.98047 698.97506 199.13306 699.47756 200.34632 699.9801 201.55956 700.3595 202.81018 700.6157 204.09818 700.8719 205.38616 701 206.68677 701 208Z"/>
<use data-text="E" xlink:href="#font_3_40" transform="matrix(12.939182,0,0,-12.939182,485.2081,153.8325)" fill="#ffffff"/>
<path transform="matrix(.71884348,0,0,.71884348,.35942174,.35942174)" d="M571 378 621 308 671 378H571Z" fill="#ffffff"/>
<path transform="matrix(.71884348,0,0,.71884348,.35942174,.35942174)" stroke-width="1" stroke-linecap="butt" stroke-miterlimit="10" stroke-linejoin="miter" fill="none" stroke="#616161" d="M571 378 621 308 671 378H571Z"/>
<path transform="matrix(.71884348,0,0,.71884348,.35942174,.35942174)" d="M691 378 741 308 791 378H691Z" fill="#ffffff"/>
<path transform="matrix(.71884348,0,0,.71884348,.35942174,.35942174)" stroke-width="1" stroke-linecap="butt" stroke-miterlimit="10" stroke-linejoin="miter" fill="none" stroke="#616161" d="M691 378 741 308 791 378H691Z"/>
<path transform="matrix(-.71884348,0,0,.71884348,433.10316,.35942174)" d="M314.2 78 331 85.5 314.2 93V89.72C290.34 89.72 271 129.24 271 178 271 124.58 290.34 81.28 314.2 81.28V78Z" fill="#ffffff"/>
<path transform="matrix(-.71884348,0,0,.71884348,433.10316,.35942174)" stroke-width="1" stroke-linecap="butt" stroke-miterlimit="10" stroke-linejoin="miter" fill="none" stroke="#616161" d="M314.2 78 331 85.5 314.2 93V89.72C290.34 89.72 271 129.24 271 178 271 124.58 290.34 81.28 314.2 81.28V78Z"/>
<path transform="matrix(.71884348,0,0,.71884348,0,0)" stroke-width="2" stroke-linecap="butt" stroke-miterlimit="10" stroke-linejoin="miter" fill="none" stroke="#000000" d="M481 208H512.76"/>
<path transform="matrix(.71884348,0,0,.71884348,0,0)" d="M518.76 208 510.76 212 512.76 208 510.76 204 518.76 208Z"/>
<path transform="matrix(.71884348,0,0,.71884348,0,0)" stroke-width="2" stroke-linecap="butt" stroke-miterlimit="10" stroke-linejoin="miter" fill="none" stroke="#000000" d="M518.76 208 510.76 212 512.76 208 510.76 204 518.76 208Z"/>
</g>
</svg>
