<svg xmlns="http://www.w3.org/2000/svg" xmlns:xlink="http://www.w3.org/1999/xlink" xmlns:inkscape="http://www.inkscape.org/namespaces/inkscape" version="1.1" width="351.76954" height="130.5625" viewBox="0 0 351.76954 130.5625">
<defs>
<clipPath id="clip_1">
<path d="M0 82.801H5.609V88.801H0Z"/>
</clipPath>
<clipPath id="clip_2">
<path d="M0 0H352V131H0Z"/>
</clipPath>
</defs>
<g>
<path transform="matrix(1,0,0,-1,0,0)" stroke-width="1.28" stroke-linecap="square" stroke-linejoin="round" fill="none" stroke="#211e1e" d="M4.652-72.262 9.07-86.227"/>
<path transform="matrix(1,0,0,-1,0,0)" stroke-width="1.28" stroke-linecap="square" stroke-linejoin="round" fill="none" stroke="#211e1e" d="M4.652-72.262 2.445-86.227"/>
<path transform="matrix(1,0,0,-1,0,0)" stroke-width="1.28" stroke-linecap="square" stroke-linejoin="round" fill="none" stroke="#bd2317" d="M9.07-86.227 6.863-100.191"/>
<path transform="matrix(1,0,0,-1,0,0)" stroke-width="1.28" stroke-linecap="square" stroke-linejoin="round" fill="none" stroke="#211e1e" d="M11.281-58.297 17.91-72.262"/>
<path transform="matrix(1,0,0,-1,0,0)" stroke-width="1.28" stroke-linecap="square" stroke-linejoin="round" fill="none" stroke="#211e1e" d="M11.281-58.297 4.652-72.262"/>
<path transform="matrix(1,0,0,-1,0,0)" stroke-width="1.28" stroke-linecap="square" stroke-linejoin="round" fill="none" stroke="#bd2317" d="M15.699-86.227 13.492-100.191"/>
<path transform="matrix(1,0,0,-1,0,0)" stroke-width="1.28" stroke-linecap="square" stroke-linejoin="round" fill="none" stroke="#211e1e" d="M17.91-72.262 22.328-86.227"/>
<path transform="matrix(1,0,0,-1,0,0)" stroke-width="1.28" stroke-linecap="square" stroke-linejoin="round" fill="none" stroke="#211e1e" d="M17.91-72.262 15.699-86.227"/>
<path transform="matrix(1,0,0,-1,0,0)" stroke-width="1.28" stroke-linecap="square" stroke-linejoin="round" fill="none" stroke="#bd2317" d="M22.328-86.227 20.121-100.191"/>
<path transform="matrix(1,0,0,-1,0,0)" stroke-width="1.28" stroke-linecap="square" stroke-linejoin="round" fill="none" stroke="#211e1e" d="M28.957-100.191 33.375-114.152"/>
<path transform="matrix(1,0,0,-1,0,0)" stroke-width="1.28" stroke-linecap="square" stroke-linejoin="round" fill="none" stroke="#211e1e" d="M28.957-100.191 26.746-114.152"/>
<path transform="matrix(1,0,0,-1,0,0)" stroke-width="1.28" stroke-linecap="square" stroke-linejoin="round" fill="none" stroke="#211e1e" d="M24.539-44.336 51.051-58.297"/>
<path transform="matrix(1,0,0,-1,0,0)" stroke-width="1.28" stroke-linecap="square" stroke-linejoin="round" fill="none" stroke="#211e1e" d="M24.539-44.336 11.281-58.297"/>
<path transform="matrix(1,0,0,-1,0,0)" stroke-width="1.28" stroke-linecap="square" stroke-linejoin="round" fill="none" stroke="#bd2317" d="M35.586-86.227 28.957-100.191"/>
<path transform="matrix(1,0,0,-1,0,0)" stroke-width="1.28" stroke-linecap="square" stroke-linejoin="round" fill="none" stroke="#bd2317" d="M33.375-114.152 31.164-128.117"/>
<path transform="matrix(1,0,0,-1,0,0)" stroke-width="1.28" stroke-linecap="square" stroke-linejoin="round" fill="none" stroke="#211e1e" d="M44.422-86.227 48.84-100.191"/>
<path transform="matrix(1,0,0,-1,0,0)" stroke-width="1.28" stroke-linecap="square" stroke-linejoin="round" fill="none" stroke="#211e1e" d="M44.422-86.227 42.215-100.191"/>
<path transform="matrix(1,0,0,-1,0,0)" stroke-width="1.28" stroke-linecap="square" stroke-linejoin="round" fill="none" stroke="#211e1e" d="M40.004-72.262 44.422-86.227"/>
<path transform="matrix(1,0,0,-1,0,0)" stroke-width="1.28" stroke-linecap="square" stroke-linejoin="round" fill="none" stroke="#211e1e" d="M40.004-72.262 35.586-86.227 37.793-100.191"/>
<path transform="matrix(1,0,0,-1,0,0)" stroke-width="1.28" stroke-linecap="square" stroke-linejoin="round" fill="none" stroke="#bd2317" d="M51.051-58.297 40.004-72.262"/>
<path transform="matrix(1,0,0,-1,0,0)" stroke-width="1.28" stroke-linecap="square" stroke-linejoin="round" fill="none" stroke="#bd2317" d="M48.844-100.191 46.633-114.152"/>
<path transform="matrix(1,0,0,-1,0,0)" stroke-width="1.28" stroke-linecap="square" stroke-linejoin="round" fill="none" stroke="#211e1e" d="M55.469-72.262 57.68-86.227"/>
<path transform="matrix(1,0,0,-1,0,0)" stroke-width="1.28" stroke-linecap="square" stroke-linejoin="round" fill="none" stroke="#211e1e" d="M55.469-72.262 53.262-86.227"/>
<path transform="matrix(1,0,0,-1,0,0)" stroke-width="1.28" stroke-linecap="square" stroke-linejoin="round" fill="none" stroke="#211e1e" d="M51.051-58.297 55.469-72.262"/>
<path transform="matrix(1,0,0,-1,0,0)" stroke-width="1.28" stroke-linecap="square" stroke-linejoin="round" fill="none" stroke="#bd2317" d="M59.887-30.371 24.539-44.336"/>
<path transform="matrix(1,0,0,-1,0,0)" stroke-width="1.28" stroke-linecap="square" stroke-linejoin="round" fill="none" stroke="#211e1e" d="M59.887-30.371 86.402-44.336"/>
<path transform="matrix(1,0,0,-1,0,0)" stroke-width="1.28" stroke-linecap="square" stroke-linejoin="round" fill="none" stroke="#bd2317" d="M64.309-100.191 62.098-114.152"/>
<path transform="matrix(1,0,0,-1,0,0)" stroke-width="1.28" stroke-linecap="square" stroke-linejoin="round" fill="none" stroke="#211e1e" d="M66.516-86.227 68.727-100.191"/>
<path transform="matrix(1,0,0,-1,0,0)" stroke-width="1.28" stroke-linecap="square" stroke-linejoin="round" fill="none" stroke="#211e1e" d="M66.516-86.227 64.309-100.191"/>
<path transform="matrix(1,0,0,-1,0,0)" stroke-width="1.28" stroke-linecap="square" stroke-linejoin="round" fill="none" stroke="#bd2317" d="M70.938-72.262 66.516-86.227"/>
<path transform="matrix(1,0,0,-1,0,0)" stroke-width="1.28" stroke-linecap="square" stroke-linejoin="round" fill="none" stroke="#211e1e" d="M79.773-72.262 84.191-86.227"/>
<path transform="matrix(1,0,0,-1,0,0)" stroke-width="1.28" stroke-linecap="square" stroke-linejoin="round" fill="none" stroke="#211e1e" d="M79.773-72.262 77.563-86.227"/>
<path transform="matrix(1,0,0,-1,0,0)" stroke-width="1.28" stroke-linecap="square" stroke-linejoin="round" fill="none" stroke="#211e1e" d="M75.355-58.297 79.773-72.262"/>
<path transform="matrix(1,0,0,-1,0,0)" stroke-width="1.28" stroke-linecap="square" stroke-linejoin="round" fill="none" stroke="#211e1e" d="M75.355-58.297 70.934-72.262 73.145-86.227"/>
<path transform="matrix(1,0,0,-1,0,0)" stroke-width="1.28" stroke-linecap="square" stroke-linejoin="round" fill="none" stroke="#bd2317" d="M86.402-44.336 75.355-58.297"/>
<path transform="matrix(1,0,0,-1,0,0)" stroke-width="1.28" stroke-linecap="square" stroke-linejoin="round" fill="none" stroke="#bd2317" d="M84.191-86.227 81.98-100.188"/>
<path transform="matrix(1,0,0,-1,0,0)" stroke-width="1.28" stroke-linecap="square" stroke-linejoin="round" fill="none" stroke="#211e1e" d="M86.402-44.336 93.031-58.297"/>
<path transform="matrix(1,0,0,-1,0,0)" stroke-width="1.28" stroke-linecap="square" stroke-linejoin="round" fill="none" stroke="#bd2317" d="M90.82-72.262 88.613-86.227"/>
<path transform="matrix(1,0,0,-1,0,0)" stroke-width="1.28" stroke-linecap="square" stroke-linejoin="round" fill="none" stroke="#211e1e" d="M93.031-58.297 97.449-72.262"/>
<path transform="matrix(1,0,0,-1,0,0)" stroke-width="1.28" stroke-linecap="square" stroke-linejoin="round" fill="none" stroke="#211e1e" d="M93.031-58.297 90.82-72.262"/>
<path transform="matrix(1,0,0,-1,0,0)" stroke-width="1.28" stroke-linecap="square" stroke-linejoin="round" fill="none" stroke="#bd2317" d="M97.449-72.262 95.242-86.227"/>
<path transform="matrix(1,0,0,-1,0,0)" stroke-width="1.28" stroke-linecap="square" stroke-linejoin="round" fill="none" stroke="#211e1e" d="M99.66-16.406 163.73-30.371"/>
<path transform="matrix(1,0,0,-1,0,0)" stroke-width="1.28" stroke-linecap="square" stroke-linejoin="round" fill="none" stroke="#211e1e" d="M99.66-16.406 59.887-30.371"/>
<path transform="matrix(1,0,0,-1,0,0)" stroke-width="1.28" stroke-linecap="square" stroke-linejoin="round" fill="none" stroke="#bd2317" d="M104.078-100.191 101.867-114.152"/>
<path transform="matrix(1,0,0,-1,0,0)" stroke-width="1.28" stroke-linecap="square" stroke-linejoin="round" fill="none" stroke="#211e1e" d="M115.125-100.191 119.543-114.152"/>
<path transform="matrix(1,0,0,-1,0,0)" stroke-width="1.28" stroke-linecap="square" stroke-linejoin="round" fill="none" stroke="#211e1e" d="M115.125-100.191 112.914-114.152"/>
<path transform="matrix(1,0,0,-1,0,0)" stroke-width="1.28" stroke-linecap="square" stroke-linejoin="round" fill="none" stroke="#211e1e" d="M110.707-72.262 121.754-86.227"/>
<path transform="matrix(1,0,0,-1,0,0)" stroke-width="1.28" stroke-linecap="square" stroke-linejoin="round" fill="none" stroke="#211e1e" d="M110.707-72.262 106.289-86.227 108.496-100.191"/>
<path transform="matrix(1,0,0,-1,0,0)" stroke-width="1.28" stroke-linecap="square" stroke-linejoin="round" fill="none" stroke="#211e1e" d="M106.289-86.227 104.078-100.191"/>
<path transform="matrix(1,0,0,-1,0,0)" stroke-width="1.28" stroke-linecap="square" stroke-linejoin="round" fill="none" stroke="#bd2317" d="M121.754-86.227 115.125-100.191"/>
<path transform="matrix(1,0,0,-1,0,0)" stroke-width="1.28" stroke-linecap="square" stroke-linejoin="round" fill="none" stroke="#bd2317" d="M119.543-114.152 117.336-128.117"/>
<path transform="matrix(1,0,0,-1,0,0)" stroke-width="1.28" stroke-linecap="square" stroke-linejoin="round" fill="none" stroke="#211e1e" d="M121.754-86.227 123.961-100.191"/>
<path transform="matrix(1,0,0,-1,0,0)" stroke-width="1.28" stroke-linecap="square" stroke-linejoin="round" fill="none" stroke="#bd2317" d="M126.172-58.297 110.707-72.262"/>
<path transform="matrix(1,0,0,-1,0,0)" stroke-width="1.28" stroke-linecap="square" stroke-linejoin="round" fill="none" stroke="#211e1e" d="M148.266-86.227 150.477-100.191"/>
<path transform="matrix(1,0,0,-1,0,0)" stroke-width="1.28" stroke-linecap="square" stroke-linejoin="round" fill="none" stroke="#211e1e" d="M148.266-86.227 146.059-100.191"/>
<path transform="matrix(1,0,0,-1,0,0)" stroke-width="1.28" stroke-linecap="square" stroke-linejoin="round" fill="none" stroke="#211e1e" d="M143.848-72.262 148.266-86.227"/>
<path transform="matrix(1,0,0,-1,0,0)" stroke-width="1.28" stroke-linecap="square" stroke-linejoin="round" fill="none" stroke="#211e1e" d="M143.848-72.262 139.43-86.227 141.637-100.191"/>
<path transform="matrix(1,0,0,-1,0,0)" stroke-width="1.28" stroke-linecap="square" stroke-linejoin="round" fill="none" stroke="#211e1e" d="M139.43-86.227 137.219-100.191"/>
<path transform="matrix(1,0,0,-1,0,0)" stroke-width="1.28" stroke-linecap="square" stroke-linejoin="round" fill="none" stroke="#211e1e" d="M135.008-44.336 152.684-58.297"/>
<path transform="matrix(1,0,0,-1,0,0)" stroke-width="1.28" stroke-linecap="square" stroke-linejoin="round" fill="none" stroke="#211e1e" d="M135.008-44.336 126.172-58.297"/>
<path transform="matrix(1,0,0,-1,0,0)" stroke-width="1.28" stroke-linecap="square" stroke-linejoin="round" fill="none" stroke="#211e1e" d="M130.59-72.262 132.801-86.227"/>
<path transform="matrix(1,0,0,-1,0,0)" stroke-width="1.28" stroke-linecap="square" stroke-linejoin="round" fill="none" stroke="#211e1e" d="M130.59-72.262 128.383-86.227"/>
<path transform="matrix(1,0,0,-1,0,0)" stroke-width="1.28" stroke-linecap="square" stroke-linejoin="round" fill="none" stroke="#211e1e" d="M126.172-58.297 130.59-72.262"/>
<path transform="matrix(1,0,0,-1,0,0)" stroke-width="1.28" stroke-linecap="square" stroke-linejoin="round" fill="none" stroke="#bd2317" d="M152.684-58.297 143.848-72.262"/>
<path transform="matrix(1,0,0,-1,0,0)" stroke-width="1.28" stroke-linecap="square" stroke-linejoin="round" fill="none" stroke="#211e1e" d="M152.684-58.297 159.313-72.262"/>
<path transform="matrix(1,0,0,-1,0,0)" stroke-width="1.28" stroke-linecap="square" stroke-linejoin="round" fill="none" stroke="#bd2317" d="M157.102-86.227 154.895-100.191"/>
<path transform="matrix(1,0,0,-1,0,0)" stroke-width="1.28" stroke-linecap="square" stroke-linejoin="round" fill="none" stroke="#211e1e" d="M159.313-72.262 161.523-86.227"/>
<path transform="matrix(1,0,0,-1,0,0)" stroke-width="1.28" stroke-linecap="square" stroke-linejoin="round" fill="none" stroke="#211e1e" d="M159.313-72.262 157.102-86.227"/>
<path transform="matrix(1,0,0,-1,0,0)" stroke-width="1.28" stroke-linecap="square" stroke-linejoin="round" fill="none" stroke="#bd2317" d="M163.73-30.371 135.008-44.336"/>
<path transform="matrix(1,0,0,-1,0,0)" stroke-width="1.28" stroke-linecap="square" stroke-linejoin="round" fill="none" stroke="#211e1e" d="M168.152-86.227 172.57-100.191"/>
<path transform="matrix(1,0,0,-1,0,0)" stroke-width="1.28" stroke-linecap="square" stroke-linejoin="round" fill="none" stroke="#211e1e" d="M168.152-86.227 165.941-100.191"/>
<path transform="matrix(1,0,0,-1,0,0)" stroke-width="1.28" stroke-linecap="square" stroke-linejoin="round" fill="none" stroke="#211e1e" d="M163.73-30.371 190.246-44.336"/>
<path transform="matrix(1,0,0,-1,0,0)" stroke-width="1.28" stroke-linecap="square" stroke-linejoin="round" fill="none" stroke="#bd2317" d="M174.781-72.262 168.152-86.227"/>
<path transform="matrix(1,0,0,-1,0,0)" stroke-width="1.28" stroke-linecap="square" stroke-linejoin="round" fill="none" stroke="#bd2317" d="M172.57-100.191 170.359-114.152"/>
<path transform="matrix(1,0,0,-1,0,0)" stroke-width="1.28" stroke-linecap="square" stroke-linejoin="round" fill="none" stroke="#211e1e" d="M174.781-72.262 179.199-86.227"/>
<path transform="matrix(1,0,0,-1,0,0)" stroke-width="1.28" stroke-linecap="square" stroke-linejoin="round" fill="none" stroke="#bd2317" d="M179.199-86.227 176.988-100.191"/>
<path transform="matrix(1,0,0,-1,0,0)" stroke-width="1.28" stroke-linecap="square" stroke-linejoin="round" fill="none" stroke="#211e1e" d="M185.824-72.262 188.035-86.227"/>
<path transform="matrix(1,0,0,-1,0,0)" stroke-width="1.28" stroke-linecap="square" stroke-linejoin="round" fill="none" stroke="#211e1e" d="M185.824-72.262 183.617-86.227"/>
<path transform="matrix(1,0,0,-1,0,0)" stroke-width="1.28" stroke-linecap="square" stroke-linejoin="round" fill="none" stroke="#211e1e" d="M181.406-58.297 185.824-72.262"/>
<path transform="matrix(1,0,0,-1,0,0)" stroke-width="1.28" stroke-linecap="square" stroke-linejoin="round" fill="none" stroke="#211e1e" d="M181.406-58.297 174.781-72.262"/>
<path transform="matrix(1,0,0,-1,0,0)" stroke-width="1.28" stroke-linecap="square" stroke-linejoin="round" fill="none" stroke="#bd2317" d="M190.246-44.336 181.406-58.297"/>
<path transform="matrix(1,0,0,-1,0,0)" stroke-width="1.28" stroke-linecap="square" stroke-linejoin="round" fill="none" stroke="#211e1e" d="M190.246-44.336 196.875-58.297"/>
<path transform="matrix(1,0,0,-1,0,0)" stroke-width="1.28" stroke-linecap="square" stroke-linejoin="round" fill="none" stroke="#bd2317" d="M194.664-72.262 192.453-86.227"/>
<path transform="matrix(1,0,0,-1,0,0)" stroke-width="1.28" stroke-linecap="square" stroke-linejoin="round" fill="none" stroke="#211e1e" d="M205.711-100.191 207.922-114.152"/>
<path transform="matrix(1,0,0,-1,0,0)" stroke-width="1.28" stroke-linecap="square" stroke-linejoin="round" fill="none" stroke="#211e1e" d="M205.711-100.191 203.504-114.152"/>
<path transform="matrix(1,0,0,-1,0,0)" stroke-width="1.28" stroke-linecap="square" stroke-linejoin="round" fill="none" stroke="#211e1e" d="M201.293-2.445 278.621-16.406"/>
<path transform="matrix(1,0,0,-1,0,0)" stroke-width="1.28" stroke-linecap="square" stroke-linejoin="round" fill="none" stroke="#211e1e" d="M201.293-2.445 99.66-16.406"/>
<path transform="matrix(1,0,0,-1,0,0)" stroke-width="1.28" stroke-linecap="square" stroke-linejoin="round" fill="none" stroke="#211e1e" d="M196.875-58.297 199.082-72.262"/>
<path transform="matrix(1,0,0,-1,0,0)" stroke-width="1.28" stroke-linecap="square" stroke-linejoin="round" fill="none" stroke="#211e1e" d="M196.875-58.297 194.664-72.262"/>
<path transform="matrix(1,0,0,-1,0,0)" stroke-width="1.28" stroke-linecap="square" stroke-linejoin="round" fill="none" stroke="#bd2317" d="M210.129-86.227 205.711-100.191"/>
<path transform="matrix(1,0,0,-1,0,0)" stroke-width="1.28" stroke-linecap="square" stroke-linejoin="round" fill="none" stroke="#211e1e" d="M218.969-86.227 223.387-100.191"/>
<path transform="matrix(1,0,0,-1,0,0)" stroke-width="1.28" stroke-linecap="square" stroke-linejoin="round" fill="none" stroke="#211e1e" d="M218.969-86.227 216.758-100.191"/>
<path transform="matrix(1,0,0,-1,0,0)" stroke-width="1.28" stroke-linecap="square" stroke-linejoin="round" fill="none" stroke="#211e1e" d="M214.547-72.262 218.969-86.227"/>
<path transform="matrix(1,0,0,-1,0,0)" stroke-width="1.28" stroke-linecap="square" stroke-linejoin="round" fill="none" stroke="#211e1e" d="M214.547-72.262 210.129-86.227 212.34-100.191"/>
<path transform="matrix(1,0,0,-1,0,0)" stroke-width="1.28" stroke-linecap="square" stroke-linejoin="round" fill="none" stroke="#bd2317" d="M225.598-58.297 214.547-72.262"/>
<path transform="matrix(1,0,0,-1,0,0)" stroke-width="1.28" stroke-linecap="square" stroke-linejoin="round" fill="none" stroke="#bd2317" d="M223.387-100.191 221.176-114.152"/>
<path transform="matrix(1,0,0,-1,0,0)" stroke-width="1.28" stroke-linecap="square" stroke-linejoin="round" fill="none" stroke="#211e1e" d="M230.016-86.227 234.434-100.191"/>
<path transform="matrix(1,0,0,-1,0,0)" stroke-width="1.28" stroke-linecap="square" stroke-linejoin="round" fill="none" stroke="#211e1e" d="M230.016-86.227 227.805-100.191"/>
<path transform="matrix(1,0,0,-1,0,0)" stroke-width="1.28" stroke-linecap="square" stroke-linejoin="round" fill="none" stroke="#211e1e" d="M225.598-58.297 236.645-72.262"/>
<path transform="matrix(1,0,0,-1,0,0)" stroke-width="1.28" stroke-linecap="square" stroke-linejoin="round" fill="none" stroke="#bd2317" d="M236.645-72.262 230.016-86.227"/>
<path transform="matrix(1,0,0,-1,0,0)" stroke-width="1.28" stroke-linecap="square" stroke-linejoin="round" fill="none" stroke="#bd2317" d="M234.434-100.191 232.227-114.152"/>
<path transform="matrix(1,0,0,-1,0,0)" stroke-width="1.28" stroke-linecap="square" stroke-linejoin="round" fill="none" stroke="#211e1e" d="M241.063-44.336 252.109-58.297"/>
<path transform="matrix(1,0,0,-1,0,0)" stroke-width="1.28" stroke-linecap="square" stroke-linejoin="round" fill="none" stroke="#211e1e" d="M241.063-44.336 225.598-58.297"/>
<path transform="matrix(1,0,0,-1,0,0)" stroke-width="1.28" stroke-linecap="square" stroke-linejoin="round" fill="none" stroke="#211e1e" d="M236.641-72.262 238.852-86.227"/>
<path transform="matrix(1,0,0,-1,0,0)" stroke-width="1.28" stroke-linecap="square" stroke-linejoin="round" fill="none" stroke="#bd2317" d="M245.48-86.227 243.27-100.191"/>
<path transform="matrix(1,0,0,-1,0,0)" stroke-width="1.28" stroke-linecap="square" stroke-linejoin="round" fill="none" stroke="#211e1e" d="M256.527-72.262 258.738-86.227"/>
<path transform="matrix(1,0,0,-1,0,0)" stroke-width="1.28" stroke-linecap="square" stroke-linejoin="round" fill="none" stroke="#211e1e" d="M256.527-72.262 254.32-86.227"/>
<path transform="matrix(1,0,0,-1,0,0)" stroke-width="1.28" stroke-linecap="square" stroke-linejoin="round" fill="none" stroke="#211e1e" d="M252.109-58.297 256.527-72.262"/>
<path transform="matrix(1,0,0,-1,0,0)" stroke-width="1.28" stroke-linecap="square" stroke-linejoin="round" fill="none" stroke="#211e1e" d="M252.109-58.297 247.691-72.262 249.898-86.227"/>
<path transform="matrix(1,0,0,-1,0,0)" stroke-width="1.28" stroke-linecap="square" stroke-linejoin="round" fill="none" stroke="#211e1e" d="M247.691-72.262 245.48-86.227"/>
<path transform="matrix(1,0,0,-1,0,0)" stroke-width="1.28" stroke-linecap="square" stroke-linejoin="round" fill="none" stroke="#bd2317" d="M260.949-30.371 241.063-44.336"/>
<path transform="matrix(1,0,0,-1,0,0)" stroke-width="1.28" stroke-linecap="square" stroke-linejoin="round" fill="none" stroke="#211e1e" d="M283.043-86.227 287.461-100.191"/>
<path transform="matrix(1,0,0,-1,0,0)" stroke-width="1.28" stroke-linecap="square" stroke-linejoin="round" fill="none" stroke="#211e1e" d="M283.043-86.227 280.832-100.191"/>
<path transform="matrix(1,0,0,-1,0,0)" stroke-width="1.28" stroke-linecap="square" stroke-linejoin="round" fill="none" stroke="#211e1e" d="M278.621-16.406 329.438-30.371"/>
<path transform="matrix(1,0,0,-1,0,0)" stroke-width="1.28" stroke-linecap="square" stroke-linejoin="round" fill="none" stroke="#211e1e" d="M278.621-16.406 260.949-30.371"/>
<path transform="matrix(1,0,0,-1,0,0)" stroke-width="1.28" stroke-linecap="square" stroke-linejoin="round" fill="none" stroke="#211e1e" d="M274.203-58.297 276.414-72.262"/>
<path transform="matrix(1,0,0,-1,0,0)" stroke-width="1.28" stroke-linecap="square" stroke-linejoin="round" fill="none" stroke="#211e1e" d="M274.203-58.297 271.992-72.262"/>
<path transform="matrix(1,0,0,-1,0,0)" stroke-width="1.28" stroke-linecap="square" stroke-linejoin="round" fill="none" stroke="#211e1e" d="M269.785-44.336 274.203-58.297"/>
<path transform="matrix(1,0,0,-1,0,0)" stroke-width="1.28" stroke-linecap="square" stroke-linejoin="round" fill="none" stroke="#211e1e" d="M269.785-44.336 265.367-58.297 267.574-72.262"/>
<path transform="matrix(1,0,0,-1,0,0)" stroke-width="1.28" stroke-linecap="square" stroke-linejoin="round" fill="none" stroke="#211e1e" d="M265.367-58.297 263.156-72.262"/>
<path transform="matrix(1,0,0,-1,0,0)" stroke-width="1.28" stroke-linecap="square" stroke-linejoin="round" fill="none" stroke="#211e1e" d="M260.949-30.371 269.785-44.336"/>
<path transform="matrix(1,0,0,-1,0,0)" stroke-width="1.28" stroke-linecap="square" stroke-linejoin="round" fill="none" stroke="#bd2317" d="M287.461-100.191 285.25-114.152"/>
<path transform="matrix(1,0,0,-1,0,0)" stroke-width="1.28" stroke-linecap="square" stroke-linejoin="round" fill="none" stroke="#211e1e" d="M294.09-86.227 296.297-100.191"/>
<path transform="matrix(1,0,0,-1,0,0)" stroke-width="1.28" stroke-linecap="square" stroke-linejoin="round" fill="none" stroke="#211e1e" d="M294.09-86.227 291.879-100.191"/>
<path transform="matrix(1,0,0,-1,0,0)" stroke-width="1.28" stroke-linecap="square" stroke-linejoin="round" fill="none" stroke="#211e1e" d="M289.672-72.262 294.09-86.227"/>
<path transform="matrix(1,0,0,-1,0,0)" stroke-width="1.28" stroke-linecap="square" stroke-linejoin="round" fill="none" stroke="#211e1e" d="M289.672-72.262 283.043-86.227"/>
<path transform="matrix(1,0,0,-1,0,0)" stroke-width="1.28" stroke-linecap="square" stroke-linejoin="round" fill="none" stroke="#bd2317" d="M298.508-58.297 289.672-72.262"/>
<path transform="matrix(1,0,0,-1,0,0)" stroke-width="1.28" stroke-linecap="square" stroke-linejoin="round" fill="none" stroke="#211e1e" d="M298.508-58.297 305.137-72.262"/>
<path transform="matrix(1,0,0,-1,0,0)" stroke-width="1.28" stroke-linecap="square" stroke-linejoin="round" fill="none" stroke="#bd2317" d="M302.926-86.227 300.715-100.191"/>
<path transform="matrix(1,0,0,-1,0,0)" stroke-width="1.28" stroke-linecap="square" stroke-linejoin="round" fill="none" stroke="#211e1e" d="M318.395-58.297 325.02-72.262"/>
<path transform="matrix(1,0,0,-1,0,0)" stroke-width="1.28" stroke-linecap="square" stroke-linejoin="round" fill="none" stroke="#211e1e" d="M318.395-58.297 313.973-72.262 316.184-86.227"/>
<path transform="matrix(1,0,0,-1,0,0)" stroke-width="1.28" stroke-linecap="square" stroke-linejoin="round" fill="none" stroke="#211e1e" d="M313.973-72.262 311.766-86.227"/>
<path transform="matrix(1,0,0,-1,0,0)" stroke-width="1.28" stroke-linecap="square" stroke-linejoin="round" fill="none" stroke="#211e1e" d="M309.555-44.336 318.395-58.297"/>
<path transform="matrix(1,0,0,-1,0,0)" stroke-width="1.28" stroke-linecap="square" stroke-linejoin="round" fill="none" stroke="#211e1e" d="M309.555-44.336 298.508-58.297"/>
<path transform="matrix(1,0,0,-1,0,0)" stroke-width="1.28" stroke-linecap="square" stroke-linejoin="round" fill="none" stroke="#211e1e" d="M305.137-72.262 307.344-86.227"/>
<path transform="matrix(1,0,0,-1,0,0)" stroke-width="1.28" stroke-linecap="square" stroke-linejoin="round" fill="none" stroke="#211e1e" d="M305.137-72.262 302.926-86.227"/>
<path transform="matrix(1,0,0,-1,0,0)" stroke-width="1.28" stroke-linecap="square" stroke-linejoin="round" fill="none" stroke="#bd2317" d="M322.813-86.227 320.602-100.191"/>
<path transform="matrix(1,0,0,-1,0,0)" stroke-width="1.28" stroke-linecap="square" stroke-linejoin="round" fill="none" stroke="#211e1e" d="M325.02-72.262 327.23-86.227"/>
<path transform="matrix(1,0,0,-1,0,0)" stroke-width="1.28" stroke-linecap="square" stroke-linejoin="round" fill="none" stroke="#211e1e" d="M325.02-72.262 322.809-86.227"/>
<path transform="matrix(1,0,0,-1,0,0)" stroke-width="1.28" stroke-linecap="square" stroke-linejoin="round" fill="none" stroke="#bd2317" d="M329.438-30.371 309.555-44.336"/>
<path transform="matrix(1,0,0,-1,0,0)" stroke-width="1.28" stroke-linecap="square" stroke-linejoin="round" fill="none" stroke="#211e1e" d="M329.438-30.371 340.488-44.336"/>
<path transform="matrix(1,0,0,-1,0,0)" stroke-width="1.28" stroke-linecap="square" stroke-linejoin="round" fill="none" stroke="#bd2317" d="M333.859-72.262 331.648-86.227"/>
<path transform="matrix(1,0,0,-1,0,0)" stroke-width="1.28" stroke-linecap="square" stroke-linejoin="round" fill="none" stroke="#211e1e" d="M344.906-58.297 349.324-72.262"/>
<path transform="matrix(1,0,0,-1,0,0)" stroke-width="1.28" stroke-linecap="square" stroke-linejoin="round" fill="none" stroke="#211e1e" d="M344.906-58.297 342.695-72.262"/>
<path transform="matrix(1,0,0,-1,0,0)" stroke-width="1.28" stroke-linecap="square" stroke-linejoin="round" fill="none" stroke="#211e1e" d="M340.488-44.336 344.906-58.297"/>
<path transform="matrix(1,0,0,-1,0,0)" stroke-width="1.28" stroke-linecap="square" stroke-linejoin="round" fill="none" stroke="#211e1e" d="M340.488-44.336 336.066-58.297 338.277-72.262"/>
<path transform="matrix(1,0,0,-1,0,0)" stroke-width="1.28" stroke-linecap="square" stroke-linejoin="round" fill="none" stroke="#211e1e" d="M336.066-58.297 333.859-72.262"/>
<path transform="matrix(1,0,0,-1,0,0)" stroke-width="1.28" stroke-linecap="square" stroke-linejoin="round" fill="none" stroke="#bd2317" d="M349.324-72.262 347.117-86.227"/>
<g clip-path="url(#clip_1)">
<g clip-path="url(#clip_2)">
<path d="M4.887 86.227C4.887 87.574 3.793 88.668 2.445 88.668 1.094 88.668 0 87.574 0 86.227 0 84.875 1.094 83.781 2.445 83.781 3.793 83.781 4.887 84.875 4.887 86.227" fill="#211e1e"/>
</g>
</g>
<path d="M7.098 72.262C7.098 73.613 6.004 74.707 4.652 74.707 3.305 74.707 2.207 73.613 2.207 72.262 2.207 70.914 3.305 69.82 4.652 69.82 6.004 69.82 7.098 70.914 7.098 72.262" fill="#211e1e"/>
<path d="M9.305 100.191C9.305 101.539 8.211 102.633 6.863 102.633 5.512 102.633 4.418 101.539 4.418 100.191 4.418 98.84 5.512 97.746 6.863 97.746 8.211 97.746 9.305 98.84 9.305 100.191" fill="#bd2317"/>
<path d="M11.516 86.227C11.516 87.574 10.422 88.668 9.074 88.668 7.723 88.668 6.629 87.574 6.629 86.227 6.629 84.875 7.723 83.781 9.074 83.781 10.422 83.781 11.516 84.875 11.516 86.227" fill="#211e1e"/>
<path d="M13.723 58.297C13.723 59.648 12.629 60.742 11.281 60.742 9.93 60.742 8.836 59.648 8.836 58.297 8.836 56.949 9.93 55.855 11.281 55.855 12.629 55.855 13.723 56.949 13.723 58.297" fill="#211e1e"/>
<path d="M15.934 100.191C15.934 101.539 14.84 102.633 13.492 102.633 12.141 102.633 11.047 101.539 11.047 100.191 11.047 98.84 12.141 97.746 13.492 97.746 14.84 97.746 15.934 98.84 15.934 100.191" fill="#bd2317"/>
<path d="M18.145 86.227C18.145 87.574 17.051 88.668 15.699 88.668 14.352 88.668 13.258 87.574 13.258 86.227 13.258 84.875 14.352 83.781 15.699 83.781 17.051 83.781 18.145 84.875 18.145 86.227" fill="#211e1e"/>
<path d="M20.352 72.262C20.352 73.613 19.258 74.707 17.91 74.707 16.559 74.707 15.465 73.613 15.465 72.262 15.465 70.914 16.559 69.82 17.91 69.82 19.258 69.82 20.352 70.914 20.352 72.262" fill="#211e1e"/>
<path d="M22.563 100.191C22.563 101.539 21.469 102.633 20.121 102.633 18.77 102.633 17.676 101.539 17.676 100.191 17.676 98.84 18.77 97.746 20.121 97.746 21.469 97.746 22.563 98.84 22.563 100.191" fill="#bd2317"/>
<path d="M24.77 86.227C24.77 87.574 23.676 88.668 22.328 88.668 20.977 88.668 19.883 87.574 19.883 86.227 19.883 84.875 20.977 83.781 22.328 83.781 23.676 83.781 24.77 84.875 24.77 86.227" fill="#211e1e"/>
<path d="M26.98 44.336C26.98 45.684 25.887 46.777 24.539 46.777 23.188 46.777 22.094 45.684 22.094 44.336 22.094 42.984 23.188 41.891 24.539 41.891 25.887 41.891 26.98 42.984 26.98 44.336" fill="#bd2317"/>
<path d="M29.191 114.152C29.191 115.504 28.098 116.598 26.746 116.598 25.398 116.598 24.305 115.504 24.305 114.152 24.305 112.805 25.398 111.711 26.746 111.711 28.098 111.711 29.191 112.805 29.191 114.152" fill="#211e1e"/>
<path d="M31.398 100.191C31.398 101.539 30.305 102.633 28.957 102.633 27.605 102.633 26.512 101.539 26.512 100.191 26.512 98.84 27.605 97.746 28.957 97.746 30.305 97.746 31.398 98.84 31.398 100.191" fill="#bd2317"/>
<path d="M33.609 128.117C33.609 129.465 32.516 130.563 31.168 130.563 29.816 130.563 28.723 129.465 28.723 128.117 28.723 126.766 29.816 125.672 31.168 125.672 32.516 125.672 33.609 126.766 33.609 128.117" fill="#bd2317"/>
<path d="M35.82 114.152C35.82 115.504 34.727 116.598 33.375 116.598 32.027 116.598 30.93 115.504 30.93 114.152 30.93 112.805 32.027 111.711 33.375 111.711 34.727 111.711 35.82 112.805 35.82 114.152" fill="#211e1e"/>
<path d="M38.027 86.227C38.027 87.574 36.934 88.668 35.586 88.668 34.234 88.668 33.141 87.574 33.141 86.227 33.141 84.875 34.234 83.781 35.586 83.781 36.934 83.781 38.027 84.875 38.027 86.227" fill="#211e1e"/>
<path d="M40.238 100.191C40.238 101.539 39.145 102.633 37.793 102.633 36.445 102.633 35.352 101.539 35.352 100.191 35.352 98.84 36.445 97.746 37.793 97.746 39.145 97.746 40.238 98.84 40.238 100.191" fill="#211e1e"/>
<path d="M42.449 72.262C42.449 73.613 41.352 74.707 40.004 74.707 38.656 74.707 37.559 73.613 37.559 72.262 37.559 70.914 38.656 69.82 40.004 69.82 41.352 69.82 42.449 70.914 42.449 72.262" fill="#bd2317"/>
<path d="M44.656 100.191C44.656 101.539 43.563 102.633 42.215 102.633 40.863 102.633 39.77 101.539 39.77 100.191 39.77 98.84 40.863 97.746 42.215 97.746 43.563 97.746 44.656 98.84 44.656 100.191" fill="#211e1e"/>
<path d="M46.867 86.227C46.867 87.574 45.773 88.668 44.422 88.668 43.074 88.668 41.98 87.574 41.98 86.227 41.98 84.875 43.074 83.781 44.422 83.781 45.773 83.781 46.867 84.875 46.867 86.227" fill="#211e1e"/>
<path d="M49.074 114.152C49.074 115.504 47.98 116.598 46.633 116.598 45.281 116.598 44.188 115.504 44.188 114.152 44.188 112.805 45.281 111.711 46.633 111.711 47.98 111.711 49.074 112.805 49.074 114.152" fill="#bd2317"/>
<path d="M51.285 100.191C51.285 101.539 50.191 102.633 48.844 102.633 47.492 102.633 46.398 101.539 46.398 100.191 46.398 98.84 47.492 97.746 48.844 97.746 50.191 97.746 51.285 98.84 51.285 100.191" fill="#211e1e"/>
<path d="M53.496 58.297C53.496 59.648 52.398 60.742 51.051 60.742 49.703 60.742 48.605 59.648 48.605 58.297 48.605 56.949 49.703 55.855 51.051 55.855 52.398 55.855 53.496 56.949 53.496 58.297" fill="#211e1e"/>
<path d="M55.703 86.227C55.703 87.574 54.609 88.668 53.262 88.668 51.91 88.668 50.816 87.574 50.816 86.227 50.816 84.875 51.91 83.781 53.262 83.781 54.609 83.781 55.703 84.875 55.703 86.227" fill="#211e1e"/>
<path d="M57.914 72.262C57.914 73.613 56.82 74.707 55.469 74.707 54.121 74.707 53.027 73.613 53.027 72.262 53.027 70.914 54.121 69.82 55.469 69.82 56.82 69.82 57.914 70.914 57.914 72.262" fill="#211e1e"/>
<path d="M60.121 86.227C60.121 87.574 59.027 88.668 57.68 88.668 56.328 88.668 55.234 87.574 55.234 86.227 55.234 84.875 56.328 83.781 57.68 83.781 59.027 83.781 60.121 84.875 60.121 86.227" fill="#211e1e"/>
<path d="M62.332 30.371C62.332 31.723 61.238 32.816 59.887 32.816 58.539 32.816 57.445 31.723 57.445 30.371 57.445 29.02 58.539 27.93 59.887 27.93 61.238 27.93 62.332 29.02 62.332 30.371" fill="#211e1e"/>
<path d="M64.543 114.152C64.543 115.504 63.449 116.598 62.098 116.598 60.75 116.598 59.652 115.504 59.652 114.152 59.652 112.805 60.75 111.711 62.098 111.711 63.449 111.711 64.543 112.805 64.543 114.152" fill="#bd2317"/>
<path d="M66.75 100.191C66.75 101.539 65.656 102.633 64.309 102.633 62.957 102.633 61.863 101.539 61.863 100.191 61.863 98.84 62.957 97.746 64.309 97.746 65.656 97.746 66.75 98.84 66.75 100.191" fill="#211e1e"/>
<path d="M68.961 86.227C68.961 87.574 67.867 88.668 66.516 88.668 65.168 88.668 64.074 87.574 64.074 86.227 64.074 84.875 65.168 83.781 66.516 83.781 67.867 83.781 68.961 84.875 68.961 86.227" fill="#bd2317"/>
<path d="M71.168 100.191C71.168 101.539 70.074 102.633 68.727 102.633 67.375 102.633 66.281 101.539 66.281 100.191 66.281 98.84 67.375 97.746 68.727 97.746 70.074 97.746 71.168 98.84 71.168 100.191" fill="#211e1e"/>
<path d="M73.379 72.262C73.379 73.613 72.285 74.707 70.938 74.707 69.586 74.707 68.492 73.613 68.492 72.262 68.492 70.914 69.586 69.82 70.938 69.82 72.285 69.82 73.379 70.914 73.379 72.262" fill="#211e1e"/>
<path d="M75.59 86.227C75.59 87.574 74.496 88.668 73.145 88.668 71.797 88.668 70.703 87.574 70.703 86.227 70.703 84.875 71.797 83.781 73.145 83.781 74.496 83.781 75.59 84.875 75.59 86.227" fill="#211e1e"/>
<path d="M77.797 58.297C77.797 59.648 76.703 60.742 75.355 60.742 74.004 60.742 72.91 59.648 72.91 58.297 72.91 56.949 74.004 55.855 75.355 55.855 76.703 55.855 77.797 56.949 77.797 58.297" fill="#bd2317"/>
<path d="M80.008 86.227C80.008 87.574 78.914 88.668 77.563 88.668 76.215 88.668 75.121 87.574 75.121 86.227 75.121 84.875 76.215 83.781 77.563 83.781 78.914 83.781 80.008 84.875 80.008 86.227" fill="#211e1e"/>
<path d="M82.219 72.262C82.219 73.613 81.125 74.707 79.773 74.707 78.426 74.707 77.332 73.613 77.332 72.262 77.332 70.914 78.426 69.82 79.773 69.82 81.125 69.82 82.219 70.914 82.219 72.262" fill="#211e1e"/>
<path d="M84.426 100.191C84.426 101.539 83.332 102.633 81.98 102.633 80.633 102.633 79.539 101.539 79.539 100.191 79.539 98.84 80.633 97.746 81.98 97.746 83.332 97.746 84.426 98.84 84.426 100.191" fill="#bd2317"/>
<path d="M86.637 86.227C86.637 87.574 85.543 88.668 84.191 88.668 82.844 88.668 81.75 87.574 81.75 86.227 81.75 84.875 82.844 83.781 84.191 83.781 85.543 83.781 86.637 84.875 86.637 86.227" fill="#211e1e"/>
<path d="M88.844 44.336C88.844 45.684 87.75 46.777 86.402 46.777 85.051 46.777 83.957 45.684 83.957 44.336 83.957 42.984 85.051 41.891 86.402 41.891 87.75 41.891 88.844 42.984 88.844 44.336" fill="#211e1e"/>
<path d="M91.055 86.227C91.055 87.574 89.961 88.668 88.613 88.668 87.262 88.668 86.168 87.574 86.168 86.227 86.168 84.875 87.262 83.781 88.613 83.781 89.961 83.781 91.055 84.875 91.055 86.227" fill="#bd2317"/>
<path d="M93.266 72.262C93.266 73.613 92.172 74.707 90.82 74.707 89.473 74.707 88.375 73.613 88.375 72.262 88.375 70.914 89.473 69.82 90.82 69.82 92.172 69.82 93.266 70.914 93.266 72.262" fill="#211e1e"/>
<path d="M95.473 58.297C95.473 59.648 94.379 60.742 93.031 60.742 91.68 60.742 90.586 59.648 90.586 58.297 90.586 56.949 91.68 55.855 93.031 55.855 94.379 55.855 95.473 56.949 95.473 58.297" fill="#211e1e"/>
<path d="M97.684 86.227C97.684 87.574 96.59 88.668 95.242 88.668 93.891 88.668 92.797 87.574 92.797 86.227 92.797 84.875 93.891 83.781 95.242 83.781 96.59 83.781 97.684 84.875 97.684 86.227" fill="#bd2317"/>
<path d="M99.895 72.262C99.895 73.613 98.801 74.707 97.449 74.707 96.102 74.707 95.004 73.613 95.004 72.262 95.004 70.914 96.102 69.82 97.449 69.82 98.801 69.82 99.895 70.914 99.895 72.262" fill="#211e1e"/>
<path d="M102.102 16.406C102.102 17.758 101.008 18.852 99.66 18.852 98.309 18.852 97.215 17.758 97.215 16.406 97.215 15.059 98.309 13.965 99.66 13.965 101.008 13.965 102.102 15.059 102.102 16.406" fill="#211e1e"/>
<path d="M104.313 114.152C104.313 115.504 103.219 116.598 101.867 116.598 100.52 116.598 99.426 115.504 99.426 114.152 99.426 112.805 100.52 111.711 101.867 111.711 103.219 111.711 104.313 112.805 104.313 114.152" fill="#bd2317"/>
<path d="M106.52 100.191C106.52 101.539 105.426 102.633 104.078 102.633 102.727 102.633 101.633 101.539 101.633 100.191 101.633 98.84 102.727 97.746 104.078 97.746 105.426 97.746 106.52 98.84 106.52 100.191" fill="#211e1e"/>
<path d="M108.73 86.227C108.73 87.574 107.637 88.668 106.289 88.668 104.938 88.668 103.844 87.574 103.844 86.227 103.844 84.875 104.938 83.781 106.289 83.781 107.637 83.781 108.73 84.875 108.73 86.227" fill="#211e1e"/>
<path d="M110.938 100.191C110.938 101.539 109.844 102.633 108.496 102.633 107.145 102.633 106.051 101.539 106.051 100.191 106.051 98.84 107.145 97.746 108.496 97.746 109.844 97.746 110.938 98.84 110.938 100.191" fill="#211e1e"/>
<path d="M113.148 72.262C113.148 73.613 112.055 74.707 110.707 74.707 109.355 74.707 108.262 73.613 108.262 72.262 108.262 70.914 109.355 69.82 110.707 69.82 112.055 69.82 113.148 70.914 113.148 72.262" fill="#bd2317"/>
<path d="M115.359 114.152C115.359 115.504 114.266 116.598 112.914 116.598 111.566 116.598 110.469 115.504 110.469 114.152 110.469 112.805 111.566 111.711 112.914 111.711 114.266 111.711 115.359 112.805 115.359 114.152" fill="#211e1e"/>
<path d="M117.57 100.191C117.57 101.539 116.473 102.633 115.125 102.633 113.773 102.633 112.68 101.539 112.68 100.191 112.68 98.84 113.773 97.746 115.125 97.746 116.473 97.746 117.57 98.84 117.57 100.191" fill="#bd2317"/>
<path d="M119.777 128.117C119.777 129.465 118.684 130.563 117.332 130.563 115.984 130.563 114.891 129.465 114.891 128.117 114.891 126.766 115.984 125.672 117.332 125.672 118.684 125.672 119.777 126.766 119.777 128.117" fill="#bd2317"/>
<path d="M121.988 114.152C121.988 115.504 120.891 116.598 119.543 116.598 118.195 116.598 117.098 115.504 117.098 114.152 117.098 112.805 118.195 111.711 119.543 111.711 120.891 111.711 121.988 112.805 121.988 114.152" fill="#211e1e"/>
<path d="M124.199 86.227C124.199 87.574 123.102 88.668 121.754 88.668 120.402 88.668 119.309 87.574 119.309 86.227 119.309 84.875 120.402 83.781 121.754 83.781 123.102 83.781 124.199 84.875 124.199 86.227" fill="#211e1e"/>
<path d="M126.406 100.191C126.406 101.539 125.313 102.633 123.965 102.633 122.613 102.633 121.52 101.539 121.52 100.191 121.52 98.84 122.613 97.746 123.965 97.746 125.313 97.746 126.406 98.84 126.406 100.191" fill="#211e1e"/>
<path d="M128.617 58.297C128.617 59.648 127.52 60.742 126.172 60.742 124.824 60.742 123.727 59.648 123.727 58.297 123.727 56.949 124.824 55.855 126.172 55.855 127.52 55.855 128.617 56.949 128.617 58.297" fill="#211e1e"/>
<path d="M130.824 86.227C130.824 87.574 129.73 88.668 128.383 88.668 127.031 88.668 125.938 87.574 125.938 86.227 125.938 84.875 127.031 83.781 128.383 83.781 129.73 83.781 130.824 84.875 130.824 86.227" fill="#211e1e"/>
<path d="M133.035 72.262C133.035 73.613 131.941 74.707 130.59 74.707 129.242 74.707 128.145 73.613 128.145 72.262 128.145 70.914 129.242 69.82 130.59 69.82 131.941 69.82 133.035 70.914 133.035 72.262" fill="#211e1e"/>
<path d="M135.242 86.227C135.242 87.574 134.148 88.668 132.801 88.668 131.453 88.668 130.355 87.574 130.355 86.227 130.355 84.875 131.453 83.781 132.801 83.781 134.148 83.781 135.242 84.875 135.242 86.227" fill="#211e1e"/>
<path d="M137.453 44.336C137.453 45.684 136.359 46.777 135.008 46.777 133.66 46.777 132.566 45.684 132.566 44.336 132.566 42.984 133.66 41.891 135.008 41.891 136.359 41.891 137.453 42.984 137.453 44.336" fill="#bd2317"/>
<path d="M139.664 100.191C139.664 101.539 138.57 102.633 137.219 102.633 135.871 102.633 134.773 101.539 134.773 100.191 134.773 98.84 135.871 97.746 137.219 97.746 138.57 97.746 139.664 98.84 139.664 100.191" fill="#211e1e"/>
<path d="M141.871 86.227C141.871 87.574 140.777 88.668 139.43 88.668 138.078 88.668 136.984 87.574 136.984 86.227 136.984 84.875 138.078 83.781 139.43 83.781 140.777 83.781 141.871 84.875 141.871 86.227" fill="#211e1e"/>
<path d="M144.082 100.191C144.082 101.539 142.988 102.633 141.637 102.633 140.289 102.633 139.195 101.539 139.195 100.191 139.195 98.84 140.289 97.746 141.637 97.746 142.988 97.746 144.082 98.84 144.082 100.191" fill="#211e1e"/>
<path d="M146.293 72.262C146.293 73.613 145.199 74.707 143.848 74.707 142.496 74.707 141.402 73.613 141.402 72.262 141.402 70.914 142.496 69.82 143.848 69.82 145.199 69.82 146.293 70.914 146.293 72.262" fill="#bd2317"/>
<path d="M148.5 100.191C148.5 101.539 147.406 102.633 146.059 102.633 144.707 102.633 143.613 101.539 143.613 100.191 143.613 98.84 144.707 97.746 146.059 97.746 147.406 97.746 148.5 98.84 148.5 100.191" fill="#211e1e"/>
<path d="M150.711 86.227C150.711 87.574 149.617 88.668 148.266 88.668 146.918 88.668 145.824 87.574 145.824 86.227 145.824 84.875 146.918 83.781 148.266 83.781 149.617 83.781 150.711 84.875 150.711 86.227" fill="#211e1e"/>
<path d="M152.918 100.191C152.918 101.539 151.824 102.633 150.473 102.633 149.125 102.633 148.031 101.539 148.031 100.191 148.031 98.84 149.125 97.746 150.473 97.746 151.824 97.746 152.918 98.84 152.918 100.191" fill="#211e1e"/>
<path d="M155.129 58.297C155.129 59.648 154.035 60.742 152.684 60.742 151.336 60.742 150.242 59.648 150.242 58.297 150.242 56.949 151.336 55.855 152.684 55.855 154.035 55.855 155.129 56.949 155.129 58.297" fill="#211e1e"/>
<path d="M157.336 100.191C157.336 101.539 156.242 102.633 154.895 102.633 153.547 102.633 152.449 101.539 152.449 100.191 152.449 98.84 153.547 97.746 154.895 97.746 156.242 97.746 157.336 98.84 157.336 100.191" fill="#bd2317"/>
<path d="M159.547 86.227C159.547 87.574 158.453 88.668 157.102 88.668 155.754 88.668 154.66 87.574 154.66 86.227 154.66 84.875 155.754 83.781 157.102 83.781 158.453 83.781 159.547 84.875 159.547 86.227" fill="#211e1e"/>
<path d="M161.758 72.262C161.758 73.613 160.664 74.707 159.313 74.707 157.965 74.707 156.871 73.613 156.871 72.262 156.871 70.914 157.965 69.82 159.313 69.82 160.664 69.82 161.758 70.914 161.758 72.262" fill="#211e1e"/>
<path d="M163.965 86.227C163.965 87.574 162.871 88.668 161.523 88.668 160.176 88.668 159.078 87.574 159.078 86.227 159.078 84.875 160.176 83.781 161.523 83.781 162.871 83.781 163.965 84.875 163.965 86.227" fill="#211e1e"/>
<path d="M166.176 30.371C166.176 31.723 165.082 32.816 163.73 32.816 162.383 32.816 161.289 31.723 161.289 30.371 161.289 29.02 162.383 27.93 163.73 27.93 165.082 27.93 166.176 29.02 166.176 30.371" fill="#211e1e"/>
<path d="M168.387 100.191C168.387 101.539 167.293 102.633 165.941 102.633 164.594 102.633 163.496 101.539 163.496 100.191 163.496 98.84 164.594 97.746 165.941 97.746 167.293 97.746 168.387 98.84 168.387 100.191" fill="#211e1e"/>
<path d="M170.594 86.227C170.594 87.574 169.5 88.668 168.152 88.668 166.801 88.668 165.707 87.574 165.707 86.227 165.707 84.875 166.801 83.781 168.152 83.781 169.5 83.781 170.594 84.875 170.594 86.227" fill="#bd2317"/>
<path d="M172.805 114.152C172.805 115.504 171.711 116.598 170.363 116.598 169.012 116.598 167.918 115.504 167.918 114.152 167.918 112.805 169.012 111.711 170.363 111.711 171.711 111.711 172.805 112.805 172.805 114.152" fill="#bd2317"/>
<path d="M175.016 100.191C175.016 101.539 173.918 102.633 172.57 102.633 171.219 102.633 170.125 101.539 170.125 100.191 170.125 98.84 171.219 97.746 172.57 97.746 173.918 97.746 175.016 98.84 175.016 100.191" fill="#211e1e"/>
<path d="M177.223 72.262C177.223 73.613 176.129 74.707 174.781 74.707 173.43 74.707 172.336 73.613 172.336 72.262 172.336 70.914 173.43 69.82 174.781 69.82 176.129 69.82 177.223 70.914 177.223 72.262" fill="#211e1e"/>
<path d="M179.434 100.191C179.434 101.539 178.336 102.633 176.988 102.633 175.641 102.633 174.547 101.539 174.547 100.191 174.547 98.84 175.641 97.746 176.988 97.746 178.336 97.746 179.434 98.84 179.434 100.191" fill="#bd2317"/>
<path d="M181.641 86.227C181.641 87.574 180.547 88.668 179.199 88.668 177.848 88.668 176.754 87.574 176.754 86.227 176.754 84.875 177.848 83.781 179.199 83.781 180.547 83.781 181.641 84.875 181.641 86.227" fill="#211e1e"/>
<path d="M183.852 58.297C183.852 59.648 182.758 60.742 181.41 60.742 180.059 60.742 178.965 59.648 178.965 58.297 178.965 56.949 180.059 55.855 181.41 55.855 182.758 55.855 183.852 56.949 183.852 58.297" fill="#bd2317"/>
<path d="M186.059 86.227C186.059 87.574 184.965 88.668 183.617 88.668 182.27 88.668 181.172 87.574 181.172 86.227 181.172 84.875 182.27 83.781 183.617 83.781 184.965 83.781 186.059 84.875 186.059 86.227" fill="#211e1e"/>
<path d="M188.27 72.262C188.27 73.613 187.176 74.707 185.828 74.707 184.477 74.707 183.383 73.613 183.383 72.262 183.383 70.914 184.477 69.82 185.828 69.82 187.176 69.82 188.27 70.914 188.27 72.262" fill="#211e1e"/>
<path d="M190.48 86.227C190.48 87.574 189.387 88.668 188.035 88.668 186.684 88.668 185.59 87.574 185.59 86.227 185.59 84.875 186.684 83.781 188.035 83.781 189.387 83.781 190.48 84.875 190.48 86.227" fill="#211e1e"/>
<path d="M192.688 44.336C192.688 45.684 191.594 46.777 190.246 46.777 188.895 46.777 187.801 45.684 187.801 44.336 187.801 42.984 188.895 41.891 190.246 41.891 191.594 41.891 192.688 42.984 192.688 44.336" fill="#211e1e"/>
<path d="M194.898 86.227C194.898 87.574 193.805 88.668 192.453 88.668 191.105 88.668 190.012 87.574 190.012 86.227 190.012 84.875 191.105 83.781 192.453 83.781 193.805 83.781 194.898 84.875 194.898 86.227" fill="#bd2317"/>
<path d="M197.109 72.262C197.109 73.613 196.012 74.707 194.664 74.707 193.313 74.707 192.219 73.613 192.219 72.262 192.219 70.914 193.313 69.82 194.664 69.82 196.012 69.82 197.109 70.914 197.109 72.262" fill="#211e1e"/>
<path d="M199.316 58.297C199.316 59.648 198.223 60.742 196.875 60.742 195.523 60.742 194.43 59.648 194.43 58.297 194.43 56.949 195.523 55.855 196.875 55.855 198.223 55.855 199.316 56.949 199.316 58.297" fill="#211e1e"/>
<path d="M201.527 72.262C201.527 73.613 200.43 74.707 199.082 74.707 197.734 74.707 196.641 73.613 196.641 72.262 196.641 70.914 197.734 69.82 199.082 69.82 200.43 69.82 201.527 70.914 201.527 72.262" fill="#211e1e"/>
<path d="M203.738 2.445C203.738 3.793 202.641 4.887 201.293 4.887 199.941 4.887 198.848 3.793 198.848 2.445 198.848 1.094 199.941 0 201.293 0 202.641 0 203.738 1.094 203.738 2.445" fill="#211e1e"/>
<path d="M205.945 114.152C205.945 115.504 204.852 116.598 203.504 116.598 202.152 116.598 201.059 115.504 201.059 114.152 201.059 112.805 202.152 111.711 203.504 111.711 204.852 111.711 205.945 112.805 205.945 114.152" fill="#211e1e"/>
<path d="M208.156 100.191C208.156 101.539 207.059 102.633 205.711 102.633 204.363 102.633 203.266 101.539 203.266 100.191 203.266 98.84 204.363 97.746 205.711 97.746 207.059 97.746 208.156 98.84 208.156 100.191" fill="#bd2317"/>
<path d="M210.363 114.152C210.363 115.504 209.27 116.598 207.922 116.598 206.57 116.598 205.477 115.504 205.477 114.152 205.477 112.805 206.57 111.711 207.922 111.711 209.27 111.711 210.363 112.805 210.363 114.152" fill="#211e1e"/>
<path d="M212.574 86.227C212.574 87.574 211.48 88.668 210.129 88.668 208.781 88.668 207.684 87.574 207.684 86.227 207.684 84.875 208.781 83.781 210.129 83.781 211.48 83.781 212.574 84.875 212.574 86.227" fill="#211e1e"/>
<path d="M214.781 100.191C214.781 101.539 213.688 102.633 212.34 102.633 210.992 102.633 209.895 101.539 209.895 100.191 209.895 98.84 210.992 97.746 212.34 97.746 213.688 97.746 214.781 98.84 214.781 100.191" fill="#211e1e"/>
<path d="M216.992 72.262C216.992 73.613 215.898 74.707 214.547 74.707 213.199 74.707 212.105 73.613 212.105 72.262 212.105 70.914 213.199 69.82 214.547 69.82 215.898 69.82 216.992 70.914 216.992 72.262" fill="#bd2317"/>
<path d="M219.203 100.191C219.203 101.539 218.109 102.633 216.758 102.633 215.41 102.633 214.313 101.539 214.313 100.191 214.313 98.84 215.41 97.746 216.758 97.746 218.109 97.746 219.203 98.84 219.203 100.191" fill="#211e1e"/>
<path d="M221.41 86.227C221.41 87.574 220.316 88.668 218.969 88.668 217.617 88.668 216.523 87.574 216.523 86.227 216.523 84.875 217.617 83.781 218.969 83.781 220.316 83.781 221.41 84.875 221.41 86.227" fill="#211e1e"/>
<path d="M223.621 114.152C223.621 115.504 222.527 116.598 221.176 116.598 219.828 116.598 218.734 115.504 218.734 114.152 218.734 112.805 219.828 111.711 221.176 111.711 222.527 111.711 223.621 112.805 223.621 114.152" fill="#bd2317"/>
<path d="M225.832 100.191C225.832 101.539 224.738 102.633 223.387 102.633 222.035 102.633 220.941 101.539 220.941 100.191 220.941 98.84 222.035 97.746 223.387 97.746 224.738 97.746 225.832 98.84 225.832 100.191" fill="#211e1e"/>
<path d="M228.039 58.297C228.039 59.648 226.945 60.742 225.598 60.742 224.246 60.742 223.152 59.648 223.152 58.297 223.152 56.949 224.246 55.855 225.598 55.855 226.945 55.855 228.039 56.949 228.039 58.297" fill="#211e1e"/>
<path d="M230.25 100.191C230.25 101.539 229.156 102.633 227.805 102.633 226.457 102.633 225.363 101.539 225.363 100.191 225.363 98.84 226.457 97.746 227.805 97.746 229.156 97.746 230.25 98.84 230.25 100.191" fill="#211e1e"/>
<path d="M232.461 86.227C232.461 87.574 231.363 88.668 230.016 88.668 228.664 88.668 227.57 87.574 227.57 86.227 227.57 84.875 228.664 83.781 230.016 83.781 231.363 83.781 232.461 84.875 232.461 86.227" fill="#bd2317"/>
<path d="M234.668 114.152C234.668 115.504 233.574 116.598 232.227 116.598 230.875 116.598 229.781 115.504 229.781 114.152 229.781 112.805 230.875 111.711 232.227 111.711 233.574 111.711 234.668 112.805 234.668 114.152" fill="#bd2317"/>
<path d="M236.879 100.191C236.879 101.539 235.781 102.633 234.434 102.633 233.086 102.633 231.992 101.539 231.992 100.191 231.992 98.84 233.086 97.746 234.434 97.746 235.781 97.746 236.879 98.84 236.879 100.191" fill="#211e1e"/>
<path d="M239.086 72.262C239.086 73.613 237.992 74.707 236.645 74.707 235.293 74.707 234.199 73.613 234.199 72.262 234.199 70.914 235.293 69.82 236.645 69.82 237.992 69.82 239.086 70.914 239.086 72.262" fill="#211e1e"/>
<path d="M241.297 86.227C241.297 87.574 240.203 88.668 238.852 88.668 237.504 88.668 236.41 87.574 236.41 86.227 236.41 84.875 237.504 83.781 238.852 83.781 240.203 83.781 241.297 84.875 241.297 86.227" fill="#211e1e"/>
<path d="M243.504 44.336C243.504 45.684 242.41 46.777 241.063 46.777 239.715 46.777 238.617 45.684 238.617 44.336 238.617 42.984 239.715 41.891 241.063 41.891 242.41 41.891 243.504 42.984 243.504 44.336" fill="#bd2317"/>
<path d="M245.715 100.191C245.715 101.539 244.621 102.633 243.27 102.633 241.922 102.633 240.828 101.539 240.828 100.191 240.828 98.84 241.922 97.746 243.27 97.746 244.621 97.746 245.715 98.84 245.715 100.191" fill="#bd2317"/>
<path d="M247.926 86.227C247.926 87.574 246.832 88.668 245.48 88.668 244.133 88.668 243.035 87.574 243.035 86.227 243.035 84.875 244.133 83.781 245.48 83.781 246.832 83.781 247.926 84.875 247.926 86.227" fill="#211e1e"/>
<path d="M250.133 72.262C250.133 73.613 249.039 74.707 247.691 74.707 246.34 74.707 245.246 73.613 245.246 72.262 245.246 70.914 246.34 69.82 247.691 69.82 249.039 69.82 250.133 70.914 250.133 72.262" fill="#211e1e"/>
<path d="M252.344 86.227C252.344 87.574 251.25 88.668 249.898 88.668 248.551 88.668 247.457 87.574 247.457 86.227 247.457 84.875 248.551 83.781 249.898 83.781 251.25 83.781 252.344 84.875 252.344 86.227" fill="#211e1e"/>
<path d="M254.555 58.297C254.555 59.648 253.461 60.742 252.113 60.742 250.758 60.742 249.664 59.648 249.664 58.297 249.664 56.949 250.758 55.855 252.113 55.855 253.461 55.855 254.555 56.949 254.555 58.297" fill="#211e1e"/>
<path d="M256.762 86.227C256.762 87.574 255.668 88.668 254.32 88.668 252.969 88.668 251.875 87.574 251.875 86.227 251.875 84.875 252.969 83.781 254.32 83.781 255.668 83.781 256.762 84.875 256.762 86.227" fill="#211e1e"/>
<path d="M258.973 72.262C258.973 73.613 257.879 74.707 256.531 74.707 255.18 74.707 254.086 73.613 254.086 72.262 254.086 70.914 255.18 69.82 256.531 69.82 257.879 69.82 258.973 70.914 258.973 72.262" fill="#211e1e"/>
<path d="M261.184 86.227C261.184 87.574 260.086 88.668 258.738 88.668 257.387 88.668 256.293 87.574 256.293 86.227 256.293 84.875 257.387 83.781 258.738 83.781 260.086 83.781 261.184 84.875 261.184 86.227" fill="#211e1e"/>
<path d="M263.391 30.371C263.391 31.723 262.297 32.816 260.949 32.816 259.598 32.816 258.504 31.723 258.504 30.371 258.504 29.02 259.598 27.93 260.949 27.93 262.297 27.93 263.391 29.02 263.391 30.371" fill="#211e1e"/>
<path d="M265.602 72.262C265.602 73.613 264.504 74.707 263.156 74.707 261.809 74.707 260.715 73.613 260.715 72.262 260.715 70.914 261.809 69.82 263.156 69.82 264.504 69.82 265.602 70.914 265.602 72.262" fill="#211e1e"/>
<path d="M267.809 58.297C267.809 59.648 266.715 60.742 265.367 60.742 264.016 60.742 262.922 59.648 262.922 58.297 262.922 56.949 264.016 55.855 265.367 55.855 266.715 55.855 267.809 56.949 267.809 58.297" fill="#211e1e"/>
<path d="M270.02 72.262C270.02 73.613 268.926 74.707 267.578 74.707 266.227 74.707 265.133 73.613 265.133 72.262 265.133 70.914 266.227 69.82 267.578 69.82 268.926 69.82 270.02 70.914 270.02 72.262" fill="#211e1e"/>
<path d="M272.227 44.336C272.227 45.684 271.133 46.777 269.785 46.777 268.438 46.777 267.34 45.684 267.34 44.336 267.34 42.984 268.438 41.891 269.785 41.891 271.133 41.891 272.227 42.984 272.227 44.336" fill="#211e1e"/>
<path d="M274.438 72.262C274.438 73.613 273.344 74.707 271.992 74.707 270.645 74.707 269.551 73.613 269.551 72.262 269.551 70.914 270.645 69.82 271.992 69.82 273.344 69.82 274.438 70.914 274.438 72.262" fill="#211e1e"/>
<path d="M276.648 58.297C276.648 59.648 275.555 60.742 274.203 60.742 272.852 60.742 271.758 59.648 271.758 58.297 271.758 56.949 272.852 55.855 274.203 55.855 275.555 55.855 276.648 56.949 276.648 58.297" fill="#211e1e"/>
<path d="M278.855 72.262C278.855 73.613 277.762 74.707 276.414 74.707 275.063 74.707 273.969 73.613 273.969 72.262 273.969 70.914 275.063 69.82 276.414 69.82 277.762 69.82 278.855 70.914 278.855 72.262" fill="#211e1e"/>
<path d="M281.066 16.406C281.066 17.758 279.973 18.852 278.621 18.852 277.273 18.852 276.18 17.758 276.18 16.406 276.18 15.059 277.273 13.965 278.621 13.965 279.973 13.965 281.066 15.059 281.066 16.406" fill="#211e1e"/>
<path d="M283.277 100.191C283.277 101.539 282.18 102.633 280.832 102.633 279.48 102.633 278.387 101.539 278.387 100.191 278.387 98.84 279.48 97.746 280.832 97.746 282.18 97.746 283.277 98.84 283.277 100.191" fill="#211e1e"/>
<path d="M285.484 86.227C285.484 87.574 284.391 88.668 283.043 88.668 281.691 88.668 280.598 87.574 280.598 86.227 280.598 84.875 281.691 83.781 283.043 83.781 284.391 83.781 285.484 84.875 285.484 86.227" fill="#211e1e"/>
<path d="M287.695 114.152C287.695 115.504 286.598 116.598 285.25 116.598 283.902 116.598 282.809 115.504 282.809 114.152 282.809 112.805 283.902 111.711 285.25 111.711 286.598 111.711 287.695 112.805 287.695 114.152" fill="#bd2317"/>
<path d="M289.906 100.191C289.906 101.539 288.809 102.633 287.461 102.633 286.109 102.633 285.016 101.539 285.016 100.191 285.016 98.84 286.109 97.746 287.461 97.746 288.809 97.746 289.906 98.84 289.906 100.191" fill="#211e1e"/>
<path d="M292.113 72.262C292.113 73.613 291.02 74.707 289.672 74.707 288.32 74.707 287.227 73.613 287.227 72.262 287.227 70.914 288.32 69.82 289.672 69.82 291.02 69.82 292.113 70.914 292.113 72.262" fill="#bd2317"/>
<path d="M294.324 100.191C294.324 101.539 293.227 102.633 291.879 102.633 290.531 102.633 289.434 101.539 289.434 100.191 289.434 98.84 290.531 97.746 291.879 97.746 293.227 97.746 294.324 98.84 294.324 100.191" fill="#211e1e"/>
<path d="M296.531 86.227C296.531 87.574 295.438 88.668 294.09 88.668 292.738 88.668 291.645 87.574 291.645 86.227 291.645 84.875 292.738 83.781 294.09 83.781 295.438 83.781 296.531 84.875 296.531 86.227" fill="#211e1e"/>
<path d="M298.742 100.191C298.742 101.539 297.648 102.633 296.297 102.633 294.949 102.633 293.855 101.539 293.855 100.191 293.855 98.84 294.949 97.746 296.297 97.746 297.648 97.746 298.742 98.84 298.742 100.191" fill="#211e1e"/>
<path d="M300.949 58.297C300.949 59.648 299.855 60.742 298.508 60.742 297.16 60.742 296.063 59.648 296.063 58.297 296.063 56.949 297.16 55.855 298.508 55.855 299.855 55.855 300.949 56.949 300.949 58.297" fill="#211e1e"/>
<path d="M303.16 100.191C303.16 101.539 302.066 102.633 300.715 102.633 299.367 102.633 298.273 101.539 298.273 100.191 298.273 98.84 299.367 97.746 300.715 97.746 302.066 97.746 303.16 98.84 303.16 100.191" fill="#bd2317"/>
<path d="M305.371 86.227C305.371 87.574 304.277 88.668 302.926 88.668 301.578 88.668 300.48 87.574 300.48 86.227 300.48 84.875 301.578 83.781 302.926 83.781 304.277 83.781 305.371 84.875 305.371 86.227" fill="#211e1e"/>
<path d="M307.578 72.262C307.578 73.613 306.484 74.707 305.137 74.707 303.785 74.707 302.691 73.613 302.691 72.262 302.691 70.914 303.785 69.82 305.137 69.82 306.484 69.82 307.578 70.914 307.578 72.262" fill="#211e1e"/>
<path d="M309.789 86.227C309.789 87.574 308.695 88.668 307.344 88.668 305.996 88.668 304.902 87.574 304.902 86.227 304.902 84.875 305.996 83.781 307.344 83.781 308.695 83.781 309.789 84.875 309.789 86.227" fill="#211e1e"/>
<path d="M312 44.336C312 45.684 310.906 46.777 309.555 46.777 308.203 46.777 307.109 45.684 307.109 44.336 307.109 42.984 308.203 41.891 309.555 41.891 310.906 41.891 312 42.984 312 44.336" fill="#bd2317"/>
<path d="M314.207 86.227C314.207 87.574 313.113 88.668 311.766 88.668 310.414 88.668 309.32 87.574 309.32 86.227 309.32 84.875 310.414 83.781 311.766 83.781 313.113 83.781 314.207 84.875 314.207 86.227" fill="#211e1e"/>
<path d="M316.418 72.262C316.418 73.613 315.324 74.707 313.973 74.707 312.625 74.707 311.531 73.613 311.531 72.262 311.531 70.914 312.625 69.82 313.973 69.82 315.324 69.82 316.418 70.914 316.418 72.262" fill="#211e1e"/>
<path d="M318.629 86.227C318.629 87.574 317.531 88.668 316.184 88.668 314.832 88.668 313.738 87.574 313.738 86.227 313.738 84.875 314.832 83.781 316.184 83.781 317.531 83.781 318.629 84.875 318.629 86.227" fill="#211e1e"/>
<path d="M320.836 58.297C320.836 59.648 319.742 60.742 318.395 60.742 317.043 60.742 315.949 59.648 315.949 58.297 315.949 56.949 317.043 55.855 318.395 55.855 319.742 55.855 320.836 56.949 320.836 58.297" fill="#211e1e"/>
<path d="M323.047 100.191C323.047 101.539 321.949 102.633 320.602 102.633 319.254 102.633 318.16 101.539 318.16 100.191 318.16 98.84 319.254 97.746 320.602 97.746 321.949 97.746 323.047 98.84 323.047 100.191" fill="#bd2317"/>
<path d="M325.254 86.227C325.254 87.574 324.16 88.668 322.813 88.668 321.461 88.668 320.367 87.574 320.367 86.227 320.367 84.875 321.461 83.781 322.813 83.781 324.16 83.781 325.254 84.875 325.254 86.227" fill="#211e1e"/>
<path d="M327.465 72.262C327.465 73.613 326.371 74.707 325.02 74.707 323.672 74.707 322.578 73.613 322.578 72.262 322.578 70.914 323.672 69.82 325.02 69.82 326.371 69.82 327.465 70.914 327.465 72.262" fill="#211e1e"/>
<path d="M329.672 86.227C329.672 87.574 328.578 88.668 327.23 88.668 325.883 88.668 324.785 87.574 324.785 86.227 324.785 84.875 325.883 83.781 327.23 83.781 328.578 83.781 329.672 84.875 329.672 86.227" fill="#211e1e"/>
<path d="M331.883 30.371C331.883 31.723 330.789 32.816 329.438 32.816 328.09 32.816 326.996 31.723 326.996 30.371 326.996 29.02 328.09 27.93 329.438 27.93 330.789 27.93 331.883 29.02 331.883 30.371" fill="#211e1e"/>
<path d="M334.094 86.227C334.094 87.574 333 88.668 331.648 88.668 330.301 88.668 329.203 87.574 329.203 86.227 329.203 84.875 330.301 83.781 331.648 83.781 333 83.781 334.094 84.875 334.094 86.227" fill="#bd2317"/>
<path d="M336.301 72.262C336.301 73.613 335.207 74.707 333.859 74.707 332.508 74.707 331.414 73.613 331.414 72.262 331.414 70.914 332.508 69.82 333.859 69.82 335.207 69.82 336.301 70.914 336.301 72.262" fill="#211e1e"/>
<path d="M338.512 58.297C338.512 59.648 337.418 60.742 336.07 60.742 334.719 60.742 333.625 59.648 333.625 58.297 333.625 56.949 334.719 55.855 336.07 55.855 337.418 55.855 338.512 56.949 338.512 58.297" fill="#211e1e"/>
<path d="M340.723 72.262C340.723 73.613 339.629 74.707 338.281 74.707 336.926 74.707 335.832 73.613 335.832 72.262 335.832 70.914 336.926 69.82 338.281 69.82 339.629 69.82 340.723 70.914 340.723 72.262" fill="#211e1e"/>
<path d="M342.93 44.336C342.93 45.684 341.836 46.777 340.488 46.777 339.137 46.777 338.043 45.684 338.043 44.336 338.043 42.984 339.137 41.891 340.488 41.891 341.836 41.891 342.93 42.984 342.93 44.336" fill="#211e1e"/>
<path d="M345.141 72.262C345.141 73.613 344.047 74.707 342.699 74.707 341.348 74.707 340.254 73.613 340.254 72.262 340.254 70.914 341.348 69.82 342.699 69.82 344.047 69.82 345.141 70.914 345.141 72.262" fill="#211e1e"/>
<path d="M347.352 58.297C347.352 59.648 346.254 60.742 344.906 60.742 343.555 60.742 342.461 59.648 342.461 58.297 342.461 56.949 343.555 55.855 344.906 55.855 346.254 55.855 347.352 56.949 347.352 58.297" fill="#211e1e"/>
<path d="M349.559 86.227C349.559 87.574 348.465 88.668 347.117 88.668 345.766 88.668 344.672 87.574 344.672 86.227 344.672 84.875 345.766 83.781 347.117 83.781 348.465 83.781 349.559 84.875 349.559 86.227" fill="#bd2317"/>
<path d="M351.77 72.262C351.77 73.613 350.672 74.707 349.324 74.707 347.977 74.707 346.883 73.613 346.883 72.262 346.883 70.914 347.977 69.82 349.324 69.82 350.672 69.82 351.77 70.914 351.77 72.262" fill="#211e1e"/>
</g>
</svg>
