<svg xmlns="http://www.w3.org/2000/svg" xmlns:xlink="http://www.w3.org/1999/xlink" xmlns:inkscape="http://www.inkscape.org/namespaces/inkscape" version="1.1" width="720.95999" height="282" viewBox="0 0 720.95999 282">
<defs>
<clipPath id="clip_1">
<path transform="matrix(.24,0,0,.24,0,0)" d="M0 0H3004.1668V1174.111H0Z" clip-rule="evenodd"/>
</clipPath>
<clipPath id="clip_2">
<path transform="matrix(.24,0,0,.24,0,0)" d="M0 0H3004.1668V1165.1255H0Z" clip-rule="evenodd"/>
</clipPath>
<path id="font_3_20" d="M.3725586 0H.28466798V.5600586C.26350913 .5398763 .23575847 .51969406 .20141602 .49951173 .16707357 .47932945 .13623047 .46419273 .10888672 .45410157V.5390625C.15804036 .5621745 .20100911 .59016928 .23779297 .6230469 .2745768 .6559245 .3006185 .6878255 .31591798 .71875H.3725586V0Z"/>
<path id="font_3_21" d="M.50341799 .084472659V0H.030273438C.029622397 .021148682 .033040365 .041483564 .040527345 .06100464 .052571615 .09321085 .07185873 .124928798 .09838867 .15615845 .12491862 .1873881 .1632487 .22350057 .2133789 .26449586 .29117839 .3282369 .34375 .37872825 .37109376 .41596986 .3984375 .45321147 .41210938 .48841859 .41210938 .5215912 .41210938 .5563914 .3996582 .5857442 .37475587 .60964968 .34985353 .6335551 .3173828 .6455078 .27734376 .6455078 .23502605 .6455078 .20117188 .6328125 .17578125 .6074219 .15039063 .58203127 .13753255 .546875 .13720703 .5019531L.046875 .5112457C.053059896 .5787811 .07633463 .630249 .11669922 .6656494 .1570638 .7010498 .21126302 .71875 .27929688 .71875 .34798179 .71875 .40234376 .69970199 .4423828 .66160586 .48242188 .6235097 .5024414 .57629397 .5024414 .5199585 .5024414 .4913025 .49658204 .46313478 .48486329 .43545533 .47314454 .40777589 .45369468 .3786316 .42651368 .34802247 .39933268 .3174235 .35416667 .27542115 .29101563 .22201538 .23828125 .17779541 .20442708 .14779663 .18945313 .13201905 .17447917 .116251628 .16210938 .10040283 .15234375 .084472659H.50341799Z"/>
<path id="font_3_54" d="M.044921876 .23046875 .13427735 .23828125C.13850911 .20247396 .14835613 .1730957 .16381836 .15014649 .1792806 .12719727 .20328777 .10864258 .23583985 .09448242 .26839195 .080322269 .30501304 .07324219 .34570313 .07324219 .38183595 .07324219 .41373698 .07861328 .44140626 .08935547 .46907554 .100097659 .4896647 .11482748 .5031738 .13354492 .5166829 .15226238 .5234375 .1726888 .5234375 .19482422 .5234375 .21728516 .51692709 .23689778 .50390627 .2536621 .4908854 .27042643 .46940104 .28450523 .43945313 .29589845 .4202474 .3033854 .37776695 .3150228 .31201173 .33081056 .24625652 .3465983 .20019531 .36149089 .17382813 .37548829 .13964844 .39339195 .11417643 .41560874 .09741211 .44213868 .08064779 .4686686 .072265628 .4983724 .072265628 .53125 .072265628 .5673828 .08251953 .6011556 .103027347 .63256838 .123535159 .66398116 .15348308 .6878255 .1928711 .70410159 .23225911 .7203776 .27604167 .7285156 .32421876 .7285156 .37727867 .7285156 .42407228 .7199707 .4645996 .70288088 .50512698 .685791 .5362956 .66064456 .55810549 .6274414 .57991537 .5942383 .5916341 .5566406 .5932617 .51464846L.5024414 .5078125C.4975586 .55322268 .48103843 .5875244 .45288087 .6107178 .4247233 .63391116 .38313804 .6455078 .328125 .6455078 .27083335 .6455078 .22908528 .6349996 .20288086 .61398318 .17667644 .59297689 .16357422 .5676524 .16357422 .53800967 .16357422 .51227316 .17285156 .49109904 .19140625 .4744873 .20963542 .4578654 .25724284 .44084168 .33422853 .42341615 .4112142 .4059906 .46402995 .39076234 .49267579 .37773133 .53434249 .3585154 .5651042 .33416239 .58496096 .30467225 .6048177 .27519227 .6147461 .24123128 .6147461 .2027893 .6147461 .16468303 .6038411 .12876892 .58203127 .095047 .5602214 .061335248 .52888998 .035110475 .4880371 .01637268 .44718424-.0023549398 .40120445-.01171875 .35009767-.01171875 .285319-.01171875 .2310384-.0022786458 .18725586 .016601563 .14347331 .03548177 .10913086 .06388346 .084228519 .10180664 .059326173 .13972982 .046223958 .18261719 .044921876 .23046875Z"/>
<path id="font_3_23" d="M.3232422 0V.17138672H.0126953129V.25195313L.33935548 .7158203H.4111328V.25195313H.5078125V.17138672H.4111328V0H.3232422M.3232422 .25195313V.57470706L.099121097 .25195313H.3232422Z"/>
<path id="font_3_40" d="M.07910156 0V.7158203H.5966797V.63134768H.17382813V.41210938H.5698242V.32910157H.17382813V.084472659H.61328127V0H.07910156Z"/>
<path id="font_3_24" d="M.041503908 .18847656 .13378906 .19628906C.140625 .15151978 .15649414 .117863979 .18139649 .095321658 .20629883 .07278951 .23632813 .061523439 .27148438 .061523439 .3138021 .061523439 .34960938 .077448528 .37890626 .109298709 .40820313 .14115906 .42285157 .18341573 .42285157 .23606873 .42285157 .28612773 .4087728 .32562257 .38061524 .35455323 .35245768 .3834839 .31559245 .39794923 .27001954 .39794923 .24169922 .39794923 .21614583 .39156596 .19335938 .37879945 .17057292 .36603294 .15266927 .34946696 .13964844 .32910157L.057128908 .33984376 .12646485 .70703127H.48242188V.62402346H.19677735L.15820313 .43115235C.20117188 .46077476 .24625652 .47558595 .29345704 .47558595 .35595704 .47558595 .4086914 .45391337 .45166017 .41056825 .4946289 .36723329 .5161133 .31151835 .5161133 .24342346 .5161133 .17857361 .49723307 .122528079 .45947267 .075286868 .41357423 .017283122 .35091148-.01171875 .27148438-.01171875 .2063802-.01171875 .15323894 .006556193 .11206055 .04310608 .070882167 .07965597 .04736328 .1281128 .041503908 .18847656Z"/>
<path id="font_3_36" d="M-.0014648438 0 .2734375 .7158203H.37548829L.66845706 0H.5605469L.47705079 .21582031H.17773438L.099121097 0H-.0014648438M.20507813 .2939453H.4477539L.37304688 .4921875C.3502604 .5524089 .33333335 .601888 .32226563 .640625 .31315104 .59472659 .30029298 .5491536 .2836914 .50390627L.20507813 .2939453Z"/>
<path id="font_3_22" d="M.041992189 .19042969 .12988281 .20214844C.13997396 .15234375 .15714519 .11645508 .18139649 .09448242 .20564778 .072509769 .2351888 .061523439 .27001954 .061523439 .3113607 .061523439 .3462728 .07582092 .37475587 .10441589 .40323893 .13301087 .41748048 .1684316 .41748048 .2106781 .41748048 .25098167 .40429688 .2842102 .3779297 .31036378 .3515625 .3365275 .31803385 .34960938 .27734376 .34960938 .2607422 .34960938 .24007161 .34635417 .21533203 .33984376L.22509766 .4169922C.23095703 .41634117 .23567708 .41601563 .23925781 .41601563 .27669273 .41601563 .31038413 .42569987 .34033204 .44506837 .37027995 .46443687 .3852539 .4942932 .3852539 .53463748 .3852539 .56658938 .37434898 .59305319 .35253907 .61402896 .33072917 .63501486 .30257163 .6455078 .2680664 .6455078 .23388672 .6455078 .20540364 .6347656 .18261719 .61328127 .15983074 .5917969 .1451823 .5595703 .13867188 .51660159L.05078125 .53222659C.061523439 .591451 .0859375 .63734439 .12402344 .6699066 .16210938 .7024689 .20947266 .71875 .26611329 .71875 .30517579 .71875 .34114585 .71039327 .37402345 .6936798 .40690104 .67696639 .43204753 .6541646 .4494629 .62527468 .46687828 .59639486 .47558595 .5657247 .47558595 .53326418 .47558595 .5024312 .46728517 .47435508 .4506836 .44903565 .43408204 .4237264 .40950523 .40360514 .37695313 .38867188 .41927085 .37890626 .45214845 .35864259 .47558595 .32788087 .49902345 .29711915 .5107422 .2586263 .5107422 .21240235 .5107422 .14990235 .48795573 .09692383 .4423828 .053466798 .3968099 .010009766 .33919273-.01171875 .26953126-.01171875 .20670574-.01171875 .15454102 .007044474 .11303711 .044570924 .0715332 .082097377 .047851564 .13071697 .041992189 .19042969Z"/>
</defs>
<g clip-path="url(#clip_1)">
<path transform="matrix(.71884348,0,0,.71884348,0,0)" d="M0 0H1003V392H0Z" fill="#ffffff"/>
</g>
<g clip-path="url(#clip_2)">
<path transform="matrix(.71884348,0,0,.71884348,.35942174,.35942174)" d="M521 388 761 28 1001 388H521Z" fill="#ffffff"/>
<path transform="matrix(.71884348,0,0,.71884348,.35942174,.35942174)" stroke-width="1" stroke-linecap="butt" stroke-miterlimit="10" stroke-linejoin="miter" fill="none" stroke="#dbdbdb" d="M521 388 761 28 1001 388H521Z"/>
<path transform="matrix(.71884348,0,0,.71884348,0,0)" stroke-width="2" stroke-linecap="butt" stroke-miterlimit="10" stroke-linejoin="miter" fill="none" stroke="#000000" d="M481 208C481 208 491.58668 208 512.76 208"/>
<path transform="matrix(.71884348,0,0,.71884348,0,0)" d="M518.76 208 510.76 212 512.76 208 510.76 204 518.76 208Z"/>
<path transform="matrix(.71884348,0,0,.71884348,0,0)" stroke-width="2" stroke-linecap="butt" stroke-miterlimit="10" stroke-linejoin="miter" fill="none" stroke="#000000" d="M518.76 208 510.76 212 512.76 208 510.76 204 518.76 208Z"/>
<path transform="matrix(.71884348,0,0,.71884348,.35942174,.35942174)" d="M1 388 241 28 481 388H1Z" fill="#ffffff"/>
<path transform="matrix(.71884348,0,0,.71884348,.35942174,.35942174)" stroke-width="1" stroke-linecap="butt" stroke-miterlimit="10" stroke-linejoin="miter" fill="none" stroke="#dbdbdb" d="M1 388 241 28 481 388H1Z"/>
<path transform="matrix(.71884348,0,0,.71884348,0,0)" stroke-width="2" stroke-linecap="butt" stroke-miterlimit="10" stroke-linejoin="miter" fill="none" stroke="#0000ff" d="M241 59.76V8"/>
<path transform="matrix(.71884348,0,0,.71884348,0,0)" d="M241 65.76 237 57.76 241 59.76 245 57.76 241 65.76Z" fill="#0000ff"/>
<path transform="matrix(.71884348,0,0,.71884348,0,0)" stroke-width="2" stroke-linecap="butt" stroke-miterlimit="10" stroke-linejoin="miter" fill="none" stroke="#0000ff" d="M241 65.76 237 57.76 241 59.76 245 57.76 241 65.76Z"/>
<path transform="matrix(.71884348,0,0,.71884348,0,0)" d="M238 32H245V45H238Z" fill="#ffffff"/>
<use data-text="1" xlink:href="#font_3_20" transform="matrix(7.907278,0,0,-7.907278,171.39923,30.191426)"/>
<path transform="matrix(.71884348,0,0,.71884348,.35942174,.35942174)" stroke-width="1" stroke-linecap="butt" stroke-miterlimit="10" stroke-linejoin="miter" fill="none" stroke="#0000ff" d="M253.8 103.36 286.92 143.11"/>
<path transform="matrix(.71884348,0,0,.71884348,.35942174,.35942174)" d="M290.28 147.14 283.11 144 286.92 143.11 288.49 139.52 290.28 147.14Z" fill="#0000ff"/>
<path transform="matrix(.71884348,0,0,.71884348,.35942174,.35942174)" stroke-width="1" stroke-linecap="butt" stroke-miterlimit="10" stroke-linejoin="miter" fill="none" stroke="#0000ff" d="M290.28 147.14 283.11 144 286.92 143.11 288.49 139.52 290.28 147.14Z"/>
<path transform="matrix(.71884348,0,0,.71884348,0,0)" stroke-width="2" stroke-linecap="butt" stroke-miterlimit="10" stroke-linejoin="miter" fill="none" stroke="#0000ff" d="M230.47 105.01 205.98 144.06"/>
<path transform="matrix(.71884348,0,0,.71884348,0,0)" d="M202.79 149.15 203.65 140.24 205.98 144.06 210.43 144.49 202.79 149.15Z" fill="#0000ff"/>
<path transform="matrix(.71884348,0,0,.71884348,0,0)" stroke-width="2" stroke-linecap="butt" stroke-miterlimit="10" stroke-linejoin="miter" fill="none" stroke="#0000ff" d="M202.79 149.15 203.65 140.24 205.98 144.06 210.43 144.49 202.79 149.15Z"/>
<path transform="matrix(.71884348,0,0,.71884348,0,0)" d="M213 122H220V135H213Z" fill="#ffffff"/>
<use data-text="2" xlink:href="#font_3_21" transform="matrix(7.907278,0,0,-7.907278,153.42815,94.88734)"/>
<path transform="matrix(.71884348,0,0,.71884348,.35942174,.35942174)" d="M261 88C260.99998 89.31322 260.87187 90.613819 260.61567 91.9018 260.35948 93.18978 259.9801 94.4404 259.47758 95.653659 258.97505 96.86691 258.35896 98.019489 257.62937 99.11138 256.89979 100.20329 256.0707 101.21354 255.14212 102.14212 254.21352 103.0707 253.20328 103.89979 252.11138 104.62937 251.01947 105.358959 249.8669 105.97502 248.65364 106.47757 247.44039 106.98012 246.18978 107.35949 244.9018 107.615688 243.61382 107.87189 242.31322 107.99999 241 108 239.68677 107.99999 238.38616 107.871898 237.09816 107.61569 235.81018 107.35949 234.55956 106.98012 233.3463 106.47757 232.13304 105.97502 230.98047 105.358959 229.88857 104.62937 228.79666 103.89979 227.78643 103.0707 226.85785 102.14212 225.92926 101.21354 225.10018 100.20329 224.37059 99.11138 223.64099 98.019489 223.02494 96.86691 222.52239 95.653659 222.01984 94.4404 221.64046 93.18978 221.38426 91.901798 221.12808 90.613819 220.99999 89.31322 221 88 220.99999 86.68678 221.12808 85.38618 221.38428 84.09819 221.64046 82.8102 222.01984 81.559589 222.52239 80.34632 223.02494 79.133068 223.64099 77.980487 224.37059 76.88858 225.10018 75.796688 225.92926 74.78644 226.85785 73.85786 227.78643 72.929279 228.79666 72.10019 229.88857 71.370609 230.98047 70.64102 232.13304 70.024959 233.34632 69.52241 234.55956 69.01986 235.81018 68.64049 237.09816 68.38429 238.38616 68.1281 239.68677 68 241 68 242.31322 68 243.61382 68.1281 244.9018 68.384288 246.18978 68.64048 247.44039 69.01985 248.65364 69.5224 249.8669 70.024959 251.01949 70.64102 252.11139 71.370609 253.20328 72.10019 254.21352 72.929279 255.14212 73.85786 256.0707 74.78644 256.89979 75.796688 257.62937 76.88858 258.35896 77.980487 258.97505 79.133068 259.47758 80.34632 259.9801 81.559589 260.3595 82.8102 260.6157 84.09819 260.8719 85.38618 260.99998 86.68678 261 88Z" fill="#fff2cc"/>
<path transform="matrix(.71884348,0,0,.71884348,.35942174,.35942174)" stroke-width="1" stroke-linecap="butt" stroke-miterlimit="4" stroke-linejoin="miter" fill="none" stroke="#d6b656" d="M261 88C260.99998 89.31322 260.87187 90.613819 260.61567 91.9018 260.35948 93.18978 259.9801 94.4404 259.47758 95.653659 258.97505 96.86691 258.35896 98.019489 257.62937 99.11138 256.89979 100.20329 256.0707 101.21354 255.14212 102.14212 254.21352 103.0707 253.20328 103.89979 252.11138 104.62937 251.01947 105.358959 249.8669 105.97502 248.65364 106.47757 247.44039 106.98012 246.18978 107.35949 244.9018 107.615688 243.61382 107.87189 242.31322 107.99999 241 108 239.68677 107.99999 238.38616 107.871898 237.09816 107.61569 235.81018 107.35949 234.55956 106.98012 233.3463 106.47757 232.13304 105.97502 230.98047 105.358959 229.88857 104.62937 228.79666 103.89979 227.78643 103.0707 226.85785 102.14212 225.92926 101.21354 225.10018 100.20329 224.37059 99.11138 223.64099 98.019489 223.02494 96.86691 222.52239 95.653659 222.01984 94.4404 221.64046 93.18978 221.38426 91.901798 221.12808 90.613819 220.99999 89.31322 221 88 220.99999 86.68678 221.12808 85.38618 221.38428 84.09819 221.64046 82.8102 222.01984 81.559589 222.52239 80.34632 223.02494 79.133068 223.64099 77.980487 224.37059 76.88858 225.10018 75.796688 225.92926 74.78644 226.85785 73.85786 227.78643 72.929279 228.79666 72.10019 229.88857 71.370609 230.98047 70.64102 232.13304 70.024959 233.34632 69.52241 234.55956 69.01986 235.81018 68.64049 237.09816 68.38429 238.38616 68.1281 239.68677 68 241 68 242.31322 68 243.61382 68.1281 244.9018 68.384288 246.18978 68.64048 247.44039 69.01985 248.65364 69.5224 249.8669 70.024959 251.01949 70.64102 252.11139 71.370609 253.20328 72.10019 254.21352 72.929279 255.14212 73.85786 256.0707 74.78644 256.89979 75.796688 257.62937 76.88858 258.35896 77.980487 258.97505 79.133068 259.47758 80.34632 259.9801 81.559589 260.3595 82.8102 260.6157 84.09819 260.8719 85.38618 260.99998 86.68678 261 88Z"/>
<use data-text="S" xlink:href="#font_3_54" transform="matrix(12.939182,0,0,-12.939182,168.91698,67.57129)"/>
<path transform="matrix(.71884348,0,0,.71884348,.35942174,.35942174)" stroke-width="1" stroke-linecap="butt" stroke-miterlimit="10" stroke-linejoin="miter" fill="none" stroke="#0000ff" d="M131.94 265.83 113.89 301.32"/>
<path transform="matrix(.71884348,0,0,.71884348,.35942174,.35942174)" d="M111.51 306 111.56 298.18 113.89 301.32 117.8 301.35 111.51 306Z" fill="#0000ff"/>
<path transform="matrix(.71884348,0,0,.71884348,.35942174,.35942174)" stroke-width="1" stroke-linecap="butt" stroke-miterlimit="10" stroke-linejoin="miter" fill="none" stroke="#0000ff" d="M111.51 306 111.56 298.18 113.89 301.32 117.8 301.35 111.51 306Z"/>
<path transform="matrix(.71884348,0,0,.71884348,0,0)" stroke-width="2" stroke-linecap="butt" stroke-miterlimit="10" stroke-linejoin="miter" fill="none" stroke="#0000ff" d="M202.09 184.64 226.43 221.15"/>
<path transform="matrix(.71884348,0,0,.71884348,0,0)" d="M229.76 226.14 221.99 221.7 226.43 221.15 228.65 217.26 229.76 226.14Z" fill="#0000ff"/>
<path transform="matrix(.71884348,0,0,.71884348,0,0)" stroke-width="2" stroke-linecap="butt" stroke-miterlimit="10" stroke-linejoin="miter" fill="none" stroke="#0000ff" d="M229.76 226.14 221.99 221.7 226.43 221.15 228.65 217.26 229.76 226.14Z"/>
<path transform="matrix(.71884348,0,0,.71884348,0,0)" d="M214 200H221V213H214Z" fill="#ffffff"/>
<use data-text="4" xlink:href="#font_3_23" transform="matrix(7.907278,0,0,-7.907278,154.14699,150.95713)"/>
<path transform="matrix(.71884348,0,0,.71884348,.35942174,.35942174)" d="M211 168C210.99999 169.31322 210.87189 170.61382 210.61568 171.9018 210.35947 173.18978 209.9801 174.44039 209.47757 175.65364 208.97502 176.86688 208.35897 178.01947 207.62938 179.11138 206.8998 180.20328 206.07071 181.21353 205.14212 182.14212 204.21353 183.07071 203.20328 183.8998 202.11138 184.62937 201.01947 185.35897 199.8669 185.97502 198.65366 186.47757 197.4404 186.98012 196.18978 187.35948 194.90178 187.61569 193.6138 187.87189 192.31322 187.99999 191 188 189.68677 187.99999 188.38616 187.87189 187.09818 187.61568 185.8102 187.35948 184.55957 186.9801 183.34632 186.47756 182.13306 185.975 180.98049 185.35895 179.88858 184.62937 178.79668 183.8998 177.78643 183.07071 176.85785 182.14212 175.92925 181.21353 175.10016 180.20328 174.37059 179.11136 173.64099 178.01946 173.02494 176.86688 172.52239 175.65364 172.01984 174.44039 171.64048 173.18978 171.38428 171.9018 171.1281 170.61382 171 169.31322 171 168 171 166.68679 171.1281 165.38617 171.38428 164.09819 171.64048 162.8102 172.01984 161.55957 172.52239 160.3463 173.02494 159.13306 173.64099 157.98049 174.37058 156.88858 175.10016 155.79668 175.92925 154.78644 176.85785 153.85785 177.78643 152.92926 178.79668 152.10018 179.88858 151.37059 180.98049 150.641 182.13306 150.02494 183.34632 149.52239 184.55957 149.01984 185.8102 148.64048 187.09818 148.3843 188.38616 148.1281 189.68677 148 191 148 192.31322 148 193.6138 148.1281 194.90178 148.3843 196.18978 148.64048 197.4404 149.01984 198.65366 149.52239 199.8669 150.02494 201.01947 150.641 202.11138 151.37059 203.20328 152.10018 204.21353 152.92926 205.14212 153.85785 206.07071 154.78644 206.8998 155.79668 207.62938 156.88858 208.35897 157.98049 208.97502 159.13306 209.47757 160.3463 209.9801 161.55957 210.35947 162.8102 210.61568 164.09819 210.87189 165.38617 210.99999 166.68679 211 168Z" fill="#fff2cc"/>
<path transform="matrix(.71884348,0,0,.71884348,.35942174,.35942174)" stroke-width="1" stroke-linecap="butt" stroke-miterlimit="4" stroke-linejoin="miter" fill="none" stroke="#d6b656" d="M211 168C210.99999 169.31322 210.87189 170.61382 210.61568 171.9018 210.35947 173.18978 209.9801 174.44039 209.47757 175.65364 208.97502 176.86688 208.35897 178.01947 207.62938 179.11138 206.8998 180.20328 206.07071 181.21353 205.14212 182.14212 204.21353 183.07071 203.20328 183.8998 202.11138 184.62937 201.01947 185.35897 199.8669 185.97502 198.65366 186.47757 197.4404 186.98012 196.18978 187.35948 194.90178 187.61569 193.6138 187.87189 192.31322 187.99999 191 188 189.68677 187.99999 188.38616 187.87189 187.09818 187.61568 185.8102 187.35948 184.55957 186.9801 183.34632 186.47756 182.13306 185.975 180.98049 185.35895 179.88858 184.62937 178.79668 183.8998 177.78643 183.07071 176.85785 182.14212 175.92925 181.21353 175.10016 180.20328 174.37059 179.11136 173.64099 178.01946 173.02494 176.86688 172.52239 175.65364 172.01984 174.44039 171.64048 173.18978 171.38428 171.9018 171.1281 170.61382 171 169.31322 171 168 171 166.68679 171.1281 165.38617 171.38428 164.09819 171.64048 162.8102 172.01984 161.55957 172.52239 160.3463 173.02494 159.13306 173.64099 157.98049 174.37058 156.88858 175.10016 155.79668 175.92925 154.78644 176.85785 153.85785 177.78643 152.92926 178.79668 152.10018 179.88858 151.37059 180.98049 150.641 182.13306 150.02494 183.34632 149.52239 184.55957 149.01984 185.8102 148.64048 187.09818 148.3843 188.38616 148.1281 189.68677 148 191 148 192.31322 148 193.6138 148.1281 194.90178 148.3843 196.18978 148.64048 197.4404 149.01984 198.65366 149.52239 199.8669 150.02494 201.01947 150.641 202.11138 151.37059 203.20328 152.10018 204.21353 152.92926 205.14212 153.85785 206.07071 154.78644 206.8998 155.79668 207.62938 156.88858 208.35897 157.98049 208.97502 159.13306 209.47757 160.3463 209.9801 161.55957 210.35947 162.8102 210.61568 164.09819 210.87189 165.38617 210.99999 166.68679 211 168Z"/>
<use data-text="E" xlink:href="#font_3_40" transform="matrix(12.939182,0,0,-12.939182,132.97481,125.078769)"/>
<path transform="matrix(.71884348,0,0,.71884348,.35942174,.35942174)" d="M91 377 111 307 131 377H91Z" fill="#ff0000"/>
<path transform="matrix(.71884348,0,0,.71884348,.35942174,.35942174)" stroke-width="1" stroke-linecap="butt" stroke-miterlimit="10" stroke-linejoin="miter" fill="none" stroke="#616161" d="M91 377 111 307 131 377H91Z"/>
<path transform="matrix(.71884348,0,0,.71884348,.35942174,.35942174)" d="M201.66 78 211 86.26 201.66 94.52V88.49C168.16 88.49 141 146.47 141 218 141 144.01 168.16 84.03 201.66 84.03V78Z" fill="#ffffff"/>
<path transform="matrix(.71884348,0,0,.71884348,.35942174,.35942174)" stroke-width="1" stroke-linecap="butt" stroke-miterlimit="10" stroke-linejoin="miter" fill="none" stroke="#616161" d="M201.66 78 211 86.26 201.66 94.52V88.49C168.16 88.49 141 146.47 141 218 141 144.01 168.16 84.03 201.66 84.03V78Z"/>
<path transform="matrix(.71884348,0,0,.71884348,0,0)" stroke-width="2" stroke-linecap="butt" stroke-miterlimit="10" stroke-linejoin="miter" fill="none" stroke="#0000ff" d="M150.06 265.83 167.27 299.66"/>
<path transform="matrix(.71884348,0,0,.71884348,0,0)" d="M169.99 305.01 162.8 299.69 167.27 299.66 169.93 296.06 169.99 305.01Z" fill="#0000ff"/>
<path transform="matrix(.71884348,0,0,.71884348,0,0)" stroke-width="2" stroke-linecap="butt" stroke-miterlimit="10" stroke-linejoin="miter" fill="none" stroke="#0000ff" d="M169.99 305.01 162.8 299.69 167.27 299.66 169.93 296.06 169.99 305.01Z"/>
<path transform="matrix(.71884348,0,0,.71884348,0,0)" d="M157 280H164V293H157Z" fill="#ffffff"/>
<use data-text="5" xlink:href="#font_3_24" transform="matrix(7.907278,0,0,-7.907278,113.17292,208.4646)"/>
<path transform="matrix(.71884348,0,0,.71884348,.35942174,.35942174)" d="M161 248C161 249.31322 160.8719 250.6138 160.61569 251.90178 160.3595 253.18975 159.98014 254.44036 159.47759 255.65361 158.97504 256.86689 158.35897 258.01948 157.62937 259.1114 156.89978 260.20329 156.0707 261.21354 155.14212 262.14213 154.21355 263.07069 153.2033 263.89979 152.11138 264.62937 151.01947 265.35896 149.8669 265.975 148.65364 266.47758 147.44039 266.9801 146.18978 267.3595 144.9018 267.6157 143.61382 267.8719 142.31322 268 141 268 139.68679 268 138.38617 267.8719 137.09819 267.6157 135.8102 267.3595 134.55957 266.9801 133.34632 266.47758 132.13307 265.975 130.98049 265.35896 129.88858 264.62937 128.79668 263.89979 127.78644 263.07069 126.85786 262.14213 125.92926 261.21354 125.100177 260.20329 124.37059 259.1114 123.64101 258.01948 123.02494 256.86689 122.5224 255.65363 122.01985 254.44037 121.64048 253.18975 121.38429 251.90177 121.1281 250.6138 121 249.31322 121 248 121 246.68679 121.1281 245.38617 121.38429 244.09819 121.64048 242.81018 122.01985 241.55956 122.5224 240.3463 123.02494 239.13304 123.64101 237.98047 124.37059 236.88857 125.100177 235.79666 125.92926 234.78643 126.85786 233.85785 127.78644 232.92926 128.79668 232.10018 129.88858 231.37058 130.98049 230.641 132.13307 230.02495 133.34633 229.5224 134.55957 229.01985 135.8102 228.64049 137.09819 228.3843 138.38617 228.1281 139.68679 228 141 228 142.31322 228 143.61382 228.1281 144.9018 228.3843 146.18978 228.64048 147.44039 229.01984 148.65364 229.52239 149.8669 230.02494 151.01947 230.64099 152.11138 231.37058 153.2033 232.10018 154.21355 232.92926 155.14212 233.85785 156.0707 234.78643 156.89978 235.79666 157.62938 236.88857 158.35897 237.98047 158.97504 239.13304 159.47759 240.3463 159.98014 241.55956 160.3595 242.81018 160.61569 244.09818 160.8719 245.38617 161 246.68679 161 248Z" fill="#fff2cc"/>
<path transform="matrix(.71884348,0,0,.71884348,.35942174,.35942174)" stroke-width="1" stroke-linecap="butt" stroke-miterlimit="4" stroke-linejoin="miter" fill="none" stroke="#d6b656" d="M161 248C161 249.31322 160.8719 250.6138 160.61569 251.90178 160.3595 253.18975 159.98014 254.44036 159.47759 255.65361 158.97504 256.86689 158.35897 258.01948 157.62937 259.1114 156.89978 260.20329 156.0707 261.21354 155.14212 262.14213 154.21355 263.07069 153.2033 263.89979 152.11138 264.62937 151.01947 265.35896 149.8669 265.975 148.65364 266.47758 147.44039 266.9801 146.18978 267.3595 144.9018 267.6157 143.61382 267.8719 142.31322 268 141 268 139.68679 268 138.38617 267.8719 137.09819 267.6157 135.8102 267.3595 134.55957 266.9801 133.34632 266.47758 132.13307 265.975 130.98049 265.35896 129.88858 264.62937 128.79668 263.89979 127.78644 263.07069 126.85786 262.14213 125.92926 261.21354 125.100177 260.20329 124.37059 259.1114 123.64101 258.01948 123.02494 256.86689 122.5224 255.65363 122.01985 254.44037 121.64048 253.18975 121.38429 251.90177 121.1281 250.6138 121 249.31322 121 248 121 246.68679 121.1281 245.38617 121.38429 244.09819 121.64048 242.81018 122.01985 241.55956 122.5224 240.3463 123.02494 239.13304 123.64101 237.98047 124.37059 236.88857 125.100177 235.79666 125.92926 234.78643 126.85786 233.85785 127.78644 232.92926 128.79668 232.10018 129.88858 231.37058 130.98049 230.641 132.13307 230.02495 133.34633 229.5224 134.55957 229.01985 135.8102 228.64049 137.09819 228.3843 138.38617 228.1281 139.68679 228 141 228 142.31322 228 143.61382 228.1281 144.9018 228.3843 146.18978 228.64048 147.44039 229.01984 148.65364 229.52239 149.8669 230.02494 151.01947 230.64099 152.11138 231.37058 153.2033 232.10018 154.21355 232.92926 155.14212 233.85785 156.0707 234.78643 156.89978 235.79666 157.62938 236.88857 158.35897 237.98047 158.97504 239.13304 159.47759 240.3463 159.98014 241.55956 160.3595 242.81018 160.61569 244.09818 160.8719 245.38617 161 246.68679 161 248Z"/>
<use data-text="A" xlink:href="#font_3_36" transform="matrix(12.939182,0,0,-12.939182,97.03264,182.58625)"/>
<path transform="matrix(.71884348,0,0,.71884348,0,0)" stroke-width="2" stroke-linecap="butt" stroke-miterlimit="10" stroke-linejoin="miter" fill="none" stroke="#0000ff" d="M180.47 185.01 155.98 224.06"/>
<path transform="matrix(.71884348,0,0,.71884348,0,0)" d="M152.79 229.15 153.65 220.24 155.98 224.06 160.43 224.49 152.79 229.15Z" fill="#0000ff"/>
<path transform="matrix(.71884348,0,0,.71884348,0,0)" stroke-width="2" stroke-linecap="butt" stroke-miterlimit="10" stroke-linejoin="miter" fill="none" stroke="#0000ff" d="M152.79 229.15 153.65 220.24 155.98 224.06 160.43 224.49 152.79 229.15Z"/>
<path transform="matrix(.71884348,0,0,.71884348,0,0)" d="M163 202H170V215H163Z" fill="#ffffff"/>
<use data-text="3" xlink:href="#font_3_22" transform="matrix(7.907278,0,0,-7.907278,117.48598,152.3948)"/>
<path transform="matrix(.71884348,0,0,.71884348,.35942174,.35942174)" d="M151 377 171 307 191 377H151Z" fill="#00ff00"/>
<path transform="matrix(.71884348,0,0,.71884348,.35942174,.35942174)" stroke-width="1" stroke-linecap="butt" stroke-miterlimit="10" stroke-linejoin="miter" fill="none" stroke="#616161" d="M151 377 171 307 191 377H151Z"/>
<path transform="matrix(.71884348,0,0,.71884348,.35942174,.35942174)" d="M211 298 231 228 251 298H211Z" fill="#0000ff"/>
<path transform="matrix(.71884348,0,0,.71884348,.35942174,.35942174)" stroke-width="1" stroke-linecap="butt" stroke-miterlimit="10" stroke-linejoin="miter" fill="none" stroke="#616161" d="M211 298 231 228 251 298H211Z"/>
<path transform="matrix(.71884348,0,0,.71884348,.35942174,.35942174)" d="M271 218 291 148 311 218H271Z"/>
<path transform="matrix(.71884348,0,0,.71884348,.35942174,.35942174)" stroke-width="1" stroke-linecap="butt" stroke-miterlimit="10" stroke-linejoin="miter" fill="none" stroke="#616161" d="M271 218 291 148 311 218H271Z"/>
<path transform="matrix(.71884348,0,0,.71884348,0,0)" stroke-width="2" stroke-linecap="butt" stroke-miterlimit="10" stroke-linejoin="miter" fill="none" stroke="#0000ff" d="M761 59.76V8"/>
<path transform="matrix(.71884348,0,0,.71884348,0,0)" d="M761 65.76 757 57.76 761 59.76 765 57.76 761 65.76Z" fill="#0000ff"/>
<path transform="matrix(.71884348,0,0,.71884348,0,0)" stroke-width="2" stroke-linecap="butt" stroke-miterlimit="10" stroke-linejoin="miter" fill="none" stroke="#0000ff" d="M761 65.76 757 57.76 761 59.76 765 57.76 761 65.76Z"/>
<path transform="matrix(.71884348,0,0,.71884348,0,0)" d="M758 32H765V45H758Z" fill="#ffffff"/>
<use data-text="1" xlink:href="#font_3_20" transform="matrix(7.907278,0,0,-7.907278,545.1978,30.191426)"/>
<path transform="matrix(.71884348,0,0,.71884348,.35942174,.35942174)" stroke-width="1" stroke-linecap="butt" stroke-miterlimit="10" stroke-linejoin="miter" fill="none" stroke="#0000ff" d="M748.2 103.36 715.08 143.11"/>
<path transform="matrix(.71884348,0,0,.71884348,.35942174,.35942174)" d="M711.72 147.14 713.51 139.52 715.08 143.11 718.89 144 711.72 147.14Z" fill="#0000ff"/>
<path transform="matrix(.71884348,0,0,.71884348,.35942174,.35942174)" stroke-width="1" stroke-linecap="butt" stroke-miterlimit="10" stroke-linejoin="miter" fill="none" stroke="#0000ff" d="M711.72 147.14 713.51 139.52 715.08 143.11 718.89 144 711.72 147.14Z"/>
<path transform="matrix(.71884348,0,0,.71884348,0,0)" stroke-width="2" stroke-linecap="butt" stroke-miterlimit="10" stroke-linejoin="miter" fill="none" stroke="#0000ff" d="M771.53 105.01 796.02 144.06"/>
<path transform="matrix(.71884348,0,0,.71884348,0,0)" d="M799.21 149.15 791.57 144.49 796.02 144.06 798.35 140.24 799.21 149.15Z" fill="#0000ff"/>
<path transform="matrix(.71884348,0,0,.71884348,0,0)" stroke-width="2" stroke-linecap="butt" stroke-miterlimit="10" stroke-linejoin="miter" fill="none" stroke="#0000ff" d="M799.21 149.15 791.57 144.49 796.02 144.06 798.35 140.24 799.21 149.15Z"/>
<path transform="matrix(.71884348,0,0,.71884348,0,0)" d="M783 122H790V135H783Z" fill="#ffffff"/>
<use data-text="5" xlink:href="#font_3_24" transform="matrix(7.907278,0,0,-7.907278,563.16897,94.88734)"/>
<path transform="matrix(.71884348,0,0,.71884348,.35942174,.35942174)" d="M781 88C780.99996 89.31322 780.8718 90.613819 780.6156 91.9018 780.35946 93.18978 779.98007 94.4404 779.4775 95.653659 778.9749 96.86691 778.3588 98.019489 777.6293 99.11138 776.8997 100.20329 776.0706 101.21354 775.1421 102.14212 774.21347 103.0707 773.2032 103.89979 772.11129 104.62937 771.0194 105.358959 769.8668 105.97502 768.65359 106.47757 767.4403 106.98012 766.1897 107.35949 764.9018 107.615688 763.6138 107.87189 762.3132 107.99999 761 108 759.6867 107.99999 758.3861 107.871898 757.0981 107.61569 755.81008 107.35949 754.55947 106.98012 753.3462 106.47757 752.13296 105.97502 750.98037 105.358959 749.8885 104.62937 748.79666 103.89979 747.7864 103.0707 746.8578 102.14212 745.9292 101.21354 745.1001 100.20329 744.37057 99.11138 743.641 98.019489 743.0249 96.86691 742.52236 95.653659 742.0198 94.4404 741.6404 93.18978 741.3842 91.901798 741.12808 90.613819 740.99996 89.31322 741 88 740.99996 86.68678 741.12808 85.38618 741.3842 84.09819 741.6404 82.8102 742.0198 81.559589 742.52236 80.34632 743.0249 79.133068 743.641 77.980487 744.37057 76.88858 745.1001 75.796688 745.9292 74.78644 746.8578 73.85786 747.7864 72.929279 748.79666 72.10019 749.8885 71.370609 750.98037 70.64102 752.13296 70.024959 753.3462 69.52241 754.55947 69.01986 755.81008 68.64049 757.0981 68.38429 758.3861 68.1281 759.6867 68 761 68 762.3132 68 763.6138 68.1281 764.90176 68.384288 766.1897 68.64048 767.4403 69.01985 768.65359 69.5224 769.8668 70.024959 771.0194 70.64102 772.11129 71.370609 773.2032 72.10019 774.21347 72.929279 775.1421 73.85786 776.0706 74.78644 776.8997 75.796688 777.6293 76.88858 778.3588 77.980487 778.9749 79.133068 779.4775 80.34632 779.98007 81.559589 780.35946 82.8102 780.6156 84.09819 780.8718 85.38618 780.99996 86.68678 781 88Z" fill="#fff2cc"/>
<path transform="matrix(.71884348,0,0,.71884348,.35942174,.35942174)" stroke-width="1" stroke-linecap="butt" stroke-miterlimit="4" stroke-linejoin="miter" fill="none" stroke="#d6b656" d="M781 88C780.99996 89.31322 780.8718 90.613819 780.6156 91.9018 780.35946 93.18978 779.98007 94.4404 779.4775 95.653659 778.9749 96.86691 778.3588 98.019489 777.6293 99.11138 776.8997 100.20329 776.0706 101.21354 775.1421 102.14212 774.21347 103.0707 773.2032 103.89979 772.11129 104.62937 771.0194 105.358959 769.8668 105.97502 768.65359 106.47757 767.4403 106.98012 766.1897 107.35949 764.9018 107.615688 763.6138 107.87189 762.3132 107.99999 761 108 759.6867 107.99999 758.3861 107.871898 757.0981 107.61569 755.81008 107.35949 754.55947 106.98012 753.3462 106.47757 752.13296 105.97502 750.98037 105.358959 749.8885 104.62937 748.79666 103.89979 747.7864 103.0707 746.8578 102.14212 745.9292 101.21354 745.1001 100.20329 744.37057 99.11138 743.641 98.019489 743.0249 96.86691 742.52236 95.653659 742.0198 94.4404 741.6404 93.18978 741.3842 91.901798 741.12808 90.613819 740.99996 89.31322 741 88 740.99996 86.68678 741.12808 85.38618 741.3842 84.09819 741.6404 82.8102 742.0198 81.559589 742.52236 80.34632 743.0249 79.133068 743.641 77.980487 744.37057 76.88858 745.1001 75.796688 745.9292 74.78644 746.8578 73.85786 747.7864 72.929279 748.79666 72.10019 749.8885 71.370609 750.98037 70.64102 752.13296 70.024959 753.3462 69.52241 754.55947 69.01986 755.81008 68.64049 757.0981 68.38429 758.3861 68.1281 759.6867 68 761 68 762.3132 68 763.6138 68.1281 764.90176 68.384288 766.1897 68.64048 767.4403 69.01985 768.65359 69.5224 769.8668 70.024959 771.0194 70.64102 772.11129 71.370609 773.2032 72.10019 774.21347 72.929279 775.1421 73.85786 776.0706 74.78644 776.8997 75.796688 777.6293 76.88858 778.3588 77.980487 778.9749 79.133068 779.4775 80.34632 779.98007 81.559589 780.35946 82.8102 780.6156 84.09819 780.8718 85.38618 780.99996 86.68678 781 88Z"/>
<use data-text="A" xlink:href="#font_3_36" transform="matrix(12.939182,0,0,-12.939182,542.7156,67.57129)"/>
<path transform="matrix(.71884348,0,0,.71884348,0,0)" stroke-width="2" stroke-linecap="butt" stroke-miterlimit="10" stroke-linejoin="miter" fill="none" stroke="#0000ff" d="M851.94 265.83 834.73 299.66"/>
<path transform="matrix(.71884348,0,0,.71884348,0,0)" d="M832.01 305.01 832.07 296.06 834.73 299.66 839.2 299.69 832.01 305.01Z" fill="#0000ff"/>
<path transform="matrix(.71884348,0,0,.71884348,0,0)" stroke-width="2" stroke-linecap="butt" stroke-miterlimit="10" stroke-linejoin="miter" fill="none" stroke="#0000ff" d="M832.01 305.01 832.07 296.06 834.73 299.66 839.2 299.69 832.01 305.01Z"/>
<path transform="matrix(.71884348,0,0,.71884348,0,0)" d="M839 280H846V293H839Z" fill="#ffffff"/>
<use data-text="2" xlink:href="#font_3_21" transform="matrix(7.907278,0,0,-7.907278,603.42416,208.4646)"/>
<path transform="matrix(.71884348,0,0,.71884348,0,0)" stroke-width="2" stroke-linecap="butt" stroke-miterlimit="10" stroke-linejoin="miter" fill="none" stroke="#0000ff" d="M799.91 184.64 775.57 221.15"/>
<path transform="matrix(.71884348,0,0,.71884348,0,0)" d="M772.24 226.14 773.35 217.26 775.57 221.15 780.01 221.7 772.24 226.14Z" fill="#0000ff"/>
<path transform="matrix(.71884348,0,0,.71884348,0,0)" stroke-width="2" stroke-linecap="butt" stroke-miterlimit="10" stroke-linejoin="miter" fill="none" stroke="#0000ff" d="M772.24 226.14 773.35 217.26 775.57 221.15 780.01 221.7 772.24 226.14Z"/>
<path transform="matrix(.71884348,0,0,.71884348,0,0)" d="M782 200H789V213H782Z" fill="#ffffff"/>
<use data-text="3" xlink:href="#font_3_22" transform="matrix(7.907278,0,0,-7.907278,562.4501,150.95713)"/>
<path transform="matrix(.71884348,0,0,.71884348,.35942174,.35942174)" d="M831 168C830.99996 169.31322 830.8718 170.61382 830.6156 171.9018 830.35946 173.18978 829.98007 174.44039 829.47756 175.65364 828.975 176.86688 828.3589 178.01947 827.6293 179.11138 826.8997 180.20328 826.0706 181.21353 825.1421 182.14212 824.2135 183.07071 823.20327 183.8998 822.1113 184.62937 821.0194 185.35897 819.8668 185.97502 818.65359 186.47757 817.4403 186.98012 816.1897 187.35948 814.90176 187.61569 813.6138 187.87189 812.3132 187.99999 811 188 809.68679 187.99999 808.38619 187.87189 807.09817 187.61568 805.8102 187.35948 804.5596 186.9801 803.34628 186.47756 802.133 185.975 800.9804 185.35895 799.88858 184.62937 798.7967 183.8998 797.78646 183.07071 796.85787 182.14212 795.9292 181.21353 795.1001 180.20328 794.37057 179.11136 793.641 178.01946 793.0249 176.86688 792.52236 175.65364 792.01986 174.44039 791.64047 173.18978 791.3843 171.9018 791.1281 170.61382 791.00009 169.31322 791 168 791.00009 166.68679 791.1282 165.38617 791.38436 164.09819 791.6405 162.8102 792.0199 161.55957 792.5224 160.3463 793.0249 159.13306 793.641 157.98049 794.37057 156.88858 795.1001 155.79668 795.9292 154.78644 796.85787 153.85785 797.78646 152.92926 798.7967 152.10018 799.88858 151.37059 800.9804 150.641 802.133 150.02494 803.34628 149.52239 804.5596 149.01984 805.8102 148.64048 807.09817 148.3843 808.38619 148.1281 809.68679 148 811 148 812.3132 148 813.6138 148.1281 814.90176 148.3843 816.1897 148.64048 817.4403 149.01984 818.65359 149.52239 819.8668 150.02494 821.0194 150.641 822.1113 151.37059 823.20327 152.10018 824.2135 152.92926 825.1421 153.85785 826.0706 154.78644 826.8997 155.79668 827.6293 156.88858 828.3589 157.98049 828.975 159.13306 829.47756 160.3463 829.98007 161.55957 830.35946 162.8102 830.6156 164.09819 830.8718 165.38617 830.99996 166.68679 831 168Z" fill="#fff2cc"/>
<path transform="matrix(.71884348,0,0,.71884348,.35942174,.35942174)" stroke-width="1" stroke-linecap="butt" stroke-miterlimit="4" stroke-linejoin="miter" fill="none" stroke="#d6b656" d="M831 168C830.99996 169.31322 830.8718 170.61382 830.6156 171.9018 830.35946 173.18978 829.98007 174.44039 829.47756 175.65364 828.975 176.86688 828.3589 178.01947 827.6293 179.11138 826.8997 180.20328 826.0706 181.21353 825.1421 182.14212 824.2135 183.07071 823.20327 183.8998 822.1113 184.62937 821.0194 185.35897 819.8668 185.97502 818.65359 186.47757 817.4403 186.98012 816.1897 187.35948 814.90176 187.61569 813.6138 187.87189 812.3132 187.99999 811 188 809.68679 187.99999 808.38619 187.87189 807.09817 187.61568 805.8102 187.35948 804.5596 186.9801 803.34628 186.47756 802.133 185.975 800.9804 185.35895 799.88858 184.62937 798.7967 183.8998 797.78646 183.07071 796.85787 182.14212 795.9292 181.21353 795.1001 180.20328 794.37057 179.11136 793.641 178.01946 793.0249 176.86688 792.52236 175.65364 792.01986 174.44039 791.64047 173.18978 791.3843 171.9018 791.1281 170.61382 791.00009 169.31322 791 168 791.00009 166.68679 791.1282 165.38617 791.38436 164.09819 791.6405 162.8102 792.0199 161.55957 792.5224 160.3463 793.0249 159.13306 793.641 157.98049 794.37057 156.88858 795.1001 155.79668 795.9292 154.78644 796.85787 153.85785 797.78646 152.92926 798.7967 152.10018 799.88858 151.37059 800.9804 150.641 802.133 150.02494 803.34628 149.52239 804.5596 149.01984 805.8102 148.64048 807.09817 148.3843 808.38619 148.1281 809.68679 148 811 148 812.3132 148 813.6138 148.1281 814.90176 148.3843 816.1897 148.64048 817.4403 149.01984 818.65359 149.52239 819.8668 150.02494 821.0194 150.641 822.1113 151.37059 823.20327 152.10018 824.2135 152.92926 825.1421 153.85785 826.0706 154.78644 826.8997 155.79668 827.6293 156.88858 828.3589 157.98049 828.975 159.13306 829.47756 160.3463 829.98007 161.55957 830.35946 162.8102 830.6156 164.09819 830.8718 165.38617 830.99996 166.68679 831 168Z"/>
<use data-text="E" xlink:href="#font_3_40" transform="matrix(12.939182,0,0,-12.939182,578.6578,125.078769)"/>
<path transform="matrix(.71884348,0,0,.71884348,.35942174,.35942174)" d="M811 377 831 307 851 377H811Z" fill="#0000ff"/>
<path transform="matrix(.71884348,0,0,.71884348,.35942174,.35942174)" stroke-width="1" stroke-linecap="butt" stroke-miterlimit="10" stroke-linejoin="miter" fill="none" stroke="#616161" d="M811 377 831 307 851 377H811Z"/>
<path transform="matrix(.71884348,0,0,.71884348,.35942174,.35942174)" stroke-width="1" stroke-linecap="butt" stroke-miterlimit="10" stroke-linejoin="miter" fill="none" stroke="#0000ff" d="M870.06 265.83 888.11 301.32"/>
<path transform="matrix(.71884348,0,0,.71884348,.35942174,.35942174)" d="M890.49 306 884.2 301.35 888.11 301.32 890.44 298.18 890.49 306Z" fill="#0000ff"/>
<path transform="matrix(.71884348,0,0,.71884348,.35942174,.35942174)" stroke-width="1" stroke-linecap="butt" stroke-miterlimit="10" stroke-linejoin="miter" fill="none" stroke="#0000ff" d="M890.49 306 884.2 301.35 888.11 301.32 890.44 298.18 890.49 306Z"/>
<path transform="matrix(.71884348,0,0,.71884348,.35942174,.35942174)" d="M881 248C880.99996 249.31322 880.8718 250.6138 880.61569 251.90178 880.35946 253.18975 879.98007 254.44036 879.4775 255.65361 878.975 256.86689 878.3589 258.01948 877.62936 259.1114 876.8997 260.20329 876.0706 261.21354 875.1421 262.14213 874.21347 263.07069 873.2032 263.89979 872.11129 264.62937 871.01937 265.35896 869.86679 265.975 868.65359 266.47758 867.4403 266.9801 866.1897 267.3595 864.9017 267.6157 863.6138 267.8719 862.3132 268 861 268 859.6867 268 858.3861 267.8719 857.0981 267.6157 855.8102 267.3595 854.5596 266.9801 853.3463 266.47758 852.133 265.975 850.9804 265.35896 849.88858 264.62937 848.7966 263.89979 847.7863 263.07069 846.8578 262.14213 845.92916 261.21354 845.10006 260.20329 844.3705 259.1114 843.64089 258.01948 843.02487 256.86689 842.52236 255.65363 842.01986 254.44037 841.64047 253.18975 841.3842 251.90177 841.12808 250.6138 840.99996 249.31322 841 248 840.99996 246.68679 841.12808 245.38617 841.3842 244.09819 841.64047 242.81018 842.01986 241.55956 842.52236 240.3463 843.02487 239.13304 843.64089 237.98047 844.3705 236.88857 845.10006 235.79666 845.92916 234.78643 846.8578 233.85785 847.7863 232.92926 848.7966 232.10018 849.8884 231.37058 850.9804 230.641 852.133 230.02495 853.34628 229.5224 854.5595 229.01985 855.8101 228.64049 857.09817 228.3843 858.3861 228.1281 859.6867 228 861 228 862.3132 228 863.6138 228.1281 864.90176 228.3843 866.1897 228.64048 867.4403 229.01984 868.65359 229.52239 869.86679 230.02494 871.01937 230.64099 872.1113 231.37058 873.2032 232.10018 874.21347 232.92926 875.1421 233.85785 876.0706 234.78643 876.8997 235.79666 877.62936 236.88857 878.3589 237.98047 878.975 239.13304 879.4775 240.3463 879.98007 241.55956 880.35946 242.81018 880.61569 244.09818 880.8718 245.38617 880.99996 246.68679 881 248Z" fill="#fff2cc"/>
<path transform="matrix(.71884348,0,0,.71884348,.35942174,.35942174)" stroke-width="1" stroke-linecap="butt" stroke-miterlimit="4" stroke-linejoin="miter" fill="none" stroke="#d6b656" d="M881 248C880.99996 249.31322 880.8718 250.6138 880.61569 251.90178 880.35946 253.18975 879.98007 254.44036 879.4775 255.65361 878.975 256.86689 878.3589 258.01948 877.62936 259.1114 876.8997 260.20329 876.0706 261.21354 875.1421 262.14213 874.21347 263.07069 873.2032 263.89979 872.11129 264.62937 871.01937 265.35896 869.86679 265.975 868.65359 266.47758 867.4403 266.9801 866.1897 267.3595 864.9017 267.6157 863.6138 267.8719 862.3132 268 861 268 859.6867 268 858.3861 267.8719 857.0981 267.6157 855.8102 267.3595 854.5596 266.9801 853.3463 266.47758 852.133 265.975 850.9804 265.35896 849.88858 264.62937 848.7966 263.89979 847.7863 263.07069 846.8578 262.14213 845.92916 261.21354 845.10006 260.20329 844.3705 259.1114 843.64089 258.01948 843.02487 256.86689 842.52236 255.65363 842.01986 254.44037 841.64047 253.18975 841.3842 251.90177 841.12808 250.6138 840.99996 249.31322 841 248 840.99996 246.68679 841.12808 245.38617 841.3842 244.09819 841.64047 242.81018 842.01986 241.55956 842.52236 240.3463 843.02487 239.13304 843.64089 237.98047 844.3705 236.88857 845.10006 235.79666 845.92916 234.78643 846.8578 233.85785 847.7863 232.92926 848.7966 232.10018 849.8884 231.37058 850.9804 230.641 852.133 230.02495 853.34628 229.5224 854.5595 229.01985 855.8101 228.64049 857.09817 228.3843 858.3861 228.1281 859.6867 228 861 228 862.3132 228 863.6138 228.1281 864.90176 228.3843 866.1897 228.64048 867.4403 229.01984 868.65359 229.52239 869.86679 230.02494 871.01937 230.64099 872.1113 231.37058 873.2032 232.10018 874.21347 232.92926 875.1421 233.85785 876.0706 234.78643 876.8997 235.79666 877.62936 236.88857 878.3589 237.98047 878.975 239.13304 879.4775 240.3463 879.98007 241.55956 880.35946 242.81018 880.61569 244.09818 880.8718 245.38617 880.99996 246.68679 881 248Z"/>
<use data-text="S" xlink:href="#font_3_54" transform="matrix(12.939182,0,0,-12.939182,614.5999,182.58625)"/>
<path transform="matrix(.71884348,0,0,.71884348,0,0)" stroke-width="2" stroke-linecap="butt" stroke-miterlimit="10" stroke-linejoin="miter" fill="none" stroke="#0000ff" d="M821.53 185.01 846.02 224.06"/>
<path transform="matrix(.71884348,0,0,.71884348,0,0)" d="M849.21 229.15 841.57 224.49 846.02 224.06 848.35 220.24 849.21 229.15Z" fill="#0000ff"/>
<path transform="matrix(.71884348,0,0,.71884348,0,0)" stroke-width="2" stroke-linecap="butt" stroke-miterlimit="10" stroke-linejoin="miter" fill="none" stroke="#0000ff" d="M849.21 229.15 841.57 224.49 846.02 224.06 848.35 220.24 849.21 229.15Z"/>
<path transform="matrix(.71884348,0,0,.71884348,0,0)" d="M833 202H840V215H833Z" fill="#ffffff"/>
<use data-text="4" xlink:href="#font_3_23" transform="matrix(7.907278,0,0,-7.907278,599.1111,152.3948)"/>
<path transform="matrix(.71884348,0,0,.71884348,.35942174,.35942174)" d="M871 377 891 307 911 377H871Z"/>
<path transform="matrix(.71884348,0,0,.71884348,.35942174,.35942174)" stroke-width="1" stroke-linecap="butt" stroke-miterlimit="10" stroke-linejoin="miter" fill="none" stroke="#616161" d="M871 377 891 307 911 377H871Z"/>
<path transform="matrix(.71884348,0,0,.71884348,.35942174,.35942174)" d="M751 298 771 228 791 298H751Z" fill="#00ff00"/>
<path transform="matrix(.71884348,0,0,.71884348,.35942174,.35942174)" stroke-width="1" stroke-linecap="butt" stroke-miterlimit="10" stroke-linejoin="miter" fill="none" stroke="#616161" d="M751 298 771 228 791 298H751Z"/>
<path transform="matrix(.71884348,0,0,.71884348,.35942174,.35942174)" d="M691 218 711 148 731 218H691Z" fill="#ff0000"/>
<path transform="matrix(.71884348,0,0,.71884348,.35942174,.35942174)" stroke-width="1" stroke-linecap="butt" stroke-miterlimit="10" stroke-linejoin="miter" fill="none" stroke="#616161" d="M691 218 711 148 731 218H691Z"/>
</g>
</svg>
