<svg xmlns="http://www.w3.org/2000/svg" xmlns:xlink="http://www.w3.org/1999/xlink" xmlns:inkscape="http://www.inkscape.org/namespaces/inkscape" version="1.1" width="720.95999" height="282" viewBox="0 0 720.95999 282">
<defs>
<clipPath id="clip_1">
<path transform="matrix(.24,0,0,.24,0,0)" d="M0 0H3004.1668V1174.111H0Z" clip-rule="evenodd"/>
</clipPath>
<clipPath id="clip_2">
<path transform="matrix(.24,0,0,.24,0,0)" d="M0 0H3004.1668V1165.1255H0Z" clip-rule="evenodd"/>
</clipPath>
<path id="font_3_22" d="M.041992189 .19042969 .12988281 .20214844C.13997396 .15234375 .15714519 .11645508 .18139649 .09448242 .20564778 .072509769 .2351888 .061523439 .27001954 .061523439 .3113607 .061523439 .3462728 .07582092 .37475587 .10441589 .40323893 .13301087 .41748048 .1684316 .41748048 .2106781 .41748048 .25098167 .40429688 .2842102 .3779297 .31036378 .3515625 .3365275 .31803385 .34960938 .27734376 .34960938 .2607422 .34960938 .24007161 .34635417 .21533203 .33984376L.22509766 .4169922C.23095703 .41634117 .23567708 .41601563 .23925781 .41601563 .27669273 .41601563 .31038413 .42569987 .34033204 .44506837 .37027995 .46443687 .3852539 .4942932 .3852539 .53463748 .3852539 .56658938 .37434898 .59305319 .35253907 .61402896 .33072917 .63501486 .30257163 .6455078 .2680664 .6455078 .23388672 .6455078 .20540364 .6347656 .18261719 .61328127 .15983074 .5917969 .1451823 .5595703 .13867188 .51660159L.05078125 .53222659C.061523439 .591451 .0859375 .63734439 .12402344 .6699066 .16210938 .7024689 .20947266 .71875 .26611329 .71875 .30517579 .71875 .34114585 .71039327 .37402345 .6936798 .40690104 .67696639 .43204753 .6541646 .4494629 .62527468 .46687828 .59639486 .47558595 .5657247 .47558595 .53326418 .47558595 .5024312 .46728517 .47435508 .4506836 .44903565 .43408204 .4237264 .40950523 .40360514 .37695313 .38867188 .41927085 .37890626 .45214845 .35864259 .47558595 .32788087 .49902345 .29711915 .5107422 .2586263 .5107422 .21240235 .5107422 .14990235 .48795573 .09692383 .4423828 .053466798 .3968099 .010009766 .33919273-.01171875 .26953126-.01171875 .20670574-.01171875 .15454102 .007044474 .11303711 .044570924 .0715332 .082097377 .047851564 .13071697 .041992189 .19042969Z"/>
<path id="font_3_20" d="M.3725586 0H.28466798V.5600586C.26350913 .5398763 .23575847 .51969406 .20141602 .49951173 .16707357 .47932945 .13623047 .46419273 .10888672 .45410157V.5390625C.15804036 .5621745 .20100911 .59016928 .23779297 .6230469 .2745768 .6559245 .3006185 .6878255 .31591798 .71875H.3725586V0Z"/>
<path id="font_3_40" d="M.07910156 0V.7158203H.5966797V.63134768H.17382813V.41210938H.5698242V.32910157H.17382813V.084472659H.61328127V0H.07910156Z"/>
<path id="font_3_21" d="M.50341799 .084472659V0H.030273438C.029622397 .021148682 .033040365 .041483564 .040527345 .06100464 .052571615 .09321085 .07185873 .124928798 .09838867 .15615845 .12491862 .1873881 .1632487 .22350057 .2133789 .26449586 .29117839 .3282369 .34375 .37872825 .37109376 .41596986 .3984375 .45321147 .41210938 .48841859 .41210938 .5215912 .41210938 .5563914 .3996582 .5857442 .37475587 .60964968 .34985353 .6335551 .3173828 .6455078 .27734376 .6455078 .23502605 .6455078 .20117188 .6328125 .17578125 .6074219 .15039063 .58203127 .13753255 .546875 .13720703 .5019531L.046875 .5112457C.053059896 .5787811 .07633463 .630249 .11669922 .6656494 .1570638 .7010498 .21126302 .71875 .27929688 .71875 .34798179 .71875 .40234376 .69970199 .4423828 .66160586 .48242188 .6235097 .5024414 .57629397 .5024414 .5199585 .5024414 .4913025 .49658204 .46313478 .48486329 .43545533 .47314454 .40777589 .45369468 .3786316 .42651368 .34802247 .39933268 .3174235 .35416667 .27542115 .29101563 .22201538 .23828125 .17779541 .20442708 .14779663 .18945313 .13201905 .17447917 .116251628 .16210938 .10040283 .15234375 .084472659H.50341799Z"/>
<path id="font_3_54" d="M.044921876 .23046875 .13427735 .23828125C.13850911 .20247396 .14835613 .1730957 .16381836 .15014649 .1792806 .12719727 .20328777 .10864258 .23583985 .09448242 .26839195 .080322269 .30501304 .07324219 .34570313 .07324219 .38183595 .07324219 .41373698 .07861328 .44140626 .08935547 .46907554 .100097659 .4896647 .11482748 .5031738 .13354492 .5166829 .15226238 .5234375 .1726888 .5234375 .19482422 .5234375 .21728516 .51692709 .23689778 .50390627 .2536621 .4908854 .27042643 .46940104 .28450523 .43945313 .29589845 .4202474 .3033854 .37776695 .3150228 .31201173 .33081056 .24625652 .3465983 .20019531 .36149089 .17382813 .37548829 .13964844 .39339195 .11417643 .41560874 .09741211 .44213868 .08064779 .4686686 .072265628 .4983724 .072265628 .53125 .072265628 .5673828 .08251953 .6011556 .103027347 .63256838 .123535159 .66398116 .15348308 .6878255 .1928711 .70410159 .23225911 .7203776 .27604167 .7285156 .32421876 .7285156 .37727867 .7285156 .42407228 .7199707 .4645996 .70288088 .50512698 .685791 .5362956 .66064456 .55810549 .6274414 .57991537 .5942383 .5916341 .5566406 .5932617 .51464846L.5024414 .5078125C.4975586 .55322268 .48103843 .5875244 .45288087 .6107178 .4247233 .63391116 .38313804 .6455078 .328125 .6455078 .27083335 .6455078 .22908528 .6349996 .20288086 .61398318 .17667644 .59297689 .16357422 .5676524 .16357422 .53800967 .16357422 .51227316 .17285156 .49109904 .19140625 .4744873 .20963542 .4578654 .25724284 .44084168 .33422853 .42341615 .4112142 .4059906 .46402995 .39076234 .49267579 .37773133 .53434249 .3585154 .5651042 .33416239 .58496096 .30467225 .6048177 .27519227 .6147461 .24123128 .6147461 .2027893 .6147461 .16468303 .6038411 .12876892 .58203127 .095047 .5602214 .061335248 .52888998 .035110475 .4880371 .01637268 .44718424-.0023549398 .40120445-.01171875 .35009767-.01171875 .285319-.01171875 .2310384-.0022786458 .18725586 .016601563 .14347331 .03548177 .10913086 .06388346 .084228519 .10180664 .059326173 .13972982 .046223958 .18261719 .044921876 .23046875Z"/>
<path id="font_3_79" d="M.063964847 0V.7158203H.15185547V0H.063964847Z"/>
<path id="font_3_72" d="M.42089845 .16699219 .51171877 .15576172C.49739585 .10270182 .47086589 .061523439 .4321289 .032226564 .39339195 .0029296876 .34391276-.01171875 .2836914-.01171875 .20784505-.01171875 .14770508 .01163737 .103271488 .05834961 .05883789 .10506185 .036621095 .17057292 .036621095 .2548828 .036621095 .3421224 .05908203 .40983073 .104003909 .4580078 .14892578 .5061849 .20719402 .53027346 .2788086 .53027346 .34814454 .53027346 .40478517 .5067088 .44873048 .45957948 .49267579 .41246034 .51464846 .34616599 .51464846 .2606964 .51464846 .25549827 .51448568 .247701 .51416018 .23730469H.1274414C.13069661 .1805013 .14680989 .13700359 .17578125 .10681152 .20475261 .07661947 .24088542 .061523439 .2841797 .061523439 .31640626 .061523439 .34391276 .0699056 .36669923 .08666992 .3894857 .10344442 .4075521 .1302185 .42089845 .16699219M.13232422 .31054688H.421875C.41796876 .3534546 .40690104 .38563539 .38867188 .40708924 .3606771 .4403839 .3243815 .45703126 .27978517 .45703126 .23942058 .45703126 .20548503 .44374085 .17797852 .41716004 .150472 .3905894 .1352539 .35505168 .13232422 .31054688Z"/>
<path id="font_3_86" d="M.030761719 .15527344 .11767578 .16894531C.122558597 .13426717 .1361491 .107691448 .15844727 .08921814 .18074544 .070755008 .21191406 .061523439 .25195313 .061523439 .29231773 .061523439 .32226563 .06967672 .34179688 .08598328 .36132813 .10230001 .37109376 .12143453 .37109376 .14338684 .37109376 .16309102 .36246745 .17859395 .34521485 .18989563 .33317057 .1976471 .30322267 .20749919 .2553711 .2194519 .19091797 .23573812 .14624024 .24982707 .12133789 .26171876 .09643555 .27361045 .077555339 .29006449 .064697269 .31108094 .05183919 .33209739 .045410158 .35531108 .045410158 .38072206 .045410158 .40385438 .05069987 .4252777 .061279298 .44499208 .07185873 .46470643 .08626302 .4810791 .10449219 .4941101 .11816406 .5042114 .13680013 .5127614 .16040039 .51976016 .18400066 .526769 .20930989 .53027346 .23632813 .53027346 .27701823 .53027346 .31274415 .52437338 .34350587 .51257327 .37426759 .50078329 .39697267 .48480735 .4116211 .4646454 .42626954 .44449363 .4363607 .4175415 .44189454 .38378907L.35595704 .3720703C.35205079 .39876304 .34073893 .41959635 .32202149 .4345703 .30330406 .44954429 .27685548 .45703126 .24267578 .45703126 .2023112 .45703126 .17350261 .45038859 .15625 .43710328 .13899739 .42382813 .1303711 .40827943 .1303711 .39045716 .1303711 .37912498 .13395183 .3689219 .14111328 .35984803 .14827474 .35045878 .1595052 .34268699 .17480469 .3365326 .18359375 .33328758 .20947266 .32583619 .2524414 .31417848 .31461589 .29758708 .35799156 .28400675 .38256837 .2734375 .40714518 .26286827 .42643229 .24749756 .4404297 .22732544 .4544271 .2071635 .46142579 .18212383 .46142579 .15220642 .46142579 .12292989 .45288087 .09536234 .43579103 .069503787 .41870118 .043655397 .39404298 .02365621 .3618164 .009506226 .32958985-.0046437585 .2931315-.01171875 .2524414-.01171875 .1850586-.01171875 .13370769 .002319336 .09838867 .030395508 .063069667 .05847168 .040527345 .100097659 .030761719 .15527344Z"/>
<path id="font_3_3" d="M0 0Z"/>
<path id="font_3_87" d="M.2578125 .07763672 .2705078 0C.24576824-.0045572917 .22363281-.0068359377 .20410156-.0068359377 .17220052-.0068359377 .14746094-.0017903646 .12988281 .008300781 .11230469 .018391928 .0999349 .031656904 .09277344 .048095704 .08561198 .06453451 .08203125 .099121097 .08203125 .15185547V.4501953H.017578125V.5185547H.08203125V.6473236L.1694336 .7001953V.5185547H.2578125V.4501953H.1694336V.14697266C.1694336 .121907558 .17097982 .10579427 .17407227 .09863281 .17716472 .09147135 .18221028 .08577474 .18920899 .08154297 .19620769 .077311199 .20621746 .07519531 .21923828 .07519531 .2290039 .07519531 .24186199 .07600912 .2578125 .07763672Z"/>
<path id="font_3_75" d="M.06591797 0V.7158203H.1538086V.45898438C.19482422 .50651046 .24658203 .53027346 .30908204 .53027346 .3474935 .53027346 .38085938 .5227051 .4091797 .50756838 .4375 .49243165 .45776368 .47151695 .4699707 .44482423 .48217774 .4181315 .48828126 .37939454 .48828126 .32861329V0H.40039063V.32861329C.40039063 .3725586 .39086915 .40454103 .37182618 .42456056 .3527832 .44458009 .32584635 .45458985 .29101563 .45458985 .26497398 .45458985 .24047852 .4478353 .2175293 .43432618 .19458008 .42081706 .17822266 .4025065 .16845703 .37939454 .1586914 .35628257 .1538086 .3243815 .1538086 .2836914V0H.06591797Z"/>
<path id="font_3_68" d="M.40429688 .06402588C.37174479 .03633626 .34041343 .016789755 .31030274 .0053863527 .28019206-.0060170495 .24788411-.01171875 .2133789-.01171875 .15641277-.01171875 .11263021 .0022074383 .08203125 .030059815 .051432294 .05791219 .036132814 .09350077 .036132814 .13682556 .036132814 .16222637 .04191081 .18542989 .053466798 .20643616 .06502279 .22745259 .08015951 .24431356 .09887695 .25701905 .1175944 .26972453 .13867188 .2793325 .16210938 .2858429 .17936199 .29041038 .20540364 .29480998 .24023438 .29904176 .3111979 .30744425 .363444 .3174642 .39697267 .32910157 .3972982 .34109498 .39746095 .3487142 .39746095 .35195924 .39746095 .38763429 .38916017 .4127655 .3725586 .4273529 .35009767 .44713847 .31673179 .45703126 .27246095 .45703126 .2311198 .45703126 .20060222 .44978843 .1809082 .43530274 .16121419 .42081706 .14664714 .39518229 .13720703 .35839845L.05126953 .3701172C.05908203 .40701295 .0719401 .43680827 .08984375 .45950318 .1077474 .4821981 .1336263 .4996643 .16748047 .51190188 .20133464 .5241496 .24055989 .53027346 .28515626 .53027346 .3294271 .53027346 .36539714 .5250651 .3930664 .51464846 .4207357 .50423178 .44108073 .49112956 .45410157 .4753418 .4671224 .45955406 .47623698 .43961589 .4814453 .41552735 .484375 .40055339 .48583985 .37353517 .48583985 .33447267V.21728516C.48583985 .13557942 .48771159 .08390299 .49145509 .06225586 .49519859 .040608724 .5026042 .019856772 .5136719 0H.421875C.4127604 .018249512 .40690104 .039591474 .40429688 .06402588M.39697267 .2607422C.36507163 .24760945 .31722007 .2364502 .25341798 .2272644 .21728516 .22203572 .19173177 .21615093 .17675781 .20960999 .16178386 .20307923 .15022786 .19351705 .14208985 .18092346 .13395183 .16834004 .12988281 .15436809 .12988281 .13900757 .12988281 .115478519 .13875325 .09586588 .15649414 .08016968 .17423503 .06448364 .20019531 .056640626 .234375 .056640626 .26822917 .056640626 .29833985 .064081829 .32470704 .07896423 .35107423 .09384664 .37044273 .11420695 .3828125 .14004517 .3922526 .16000366 .39697267 .18944295 .39697267 .22836304V.2607422Z"/>
<path id="font_3_81" d="M.06591797 0V.5185547H.14501953V.4453125C.18310547 .5019531 .23811849 .53027346 .3100586 .53027346 .3413086 .53027346 .3700358 .5246582 .39624024 .51342776 .42244468 .50219729 .44205729 .48746745 .45507813 .46923829 .46809898 .45100913 .47721354 .42936198 .48242188 .40429688 .4856771 .38802085 .4873047 .35953776 .4873047 .31884767V0H.39941407V.31576539C.39941407 .35161338 .3959961 .37841798 .38916017 .3961792 .38232423 .41394044 .37019859 .42811585 .3527832 .43870545 .33536784 .44929505 .3149414 .45458985 .2915039 .45458985 .254069 .45458985 .22176107 .44269309 .19458008 .41889955 .1673991 .39511619 .1538086 .34998576 .1538086 .2835083V0H.06591797Z"/>
<path id="font_3_69" d="M.14697266 0H.06542969V.7158203H.15332031V.45950318C.19042969 .50668337 .23779297 .53027346 .29541017 .53027346 .3273112 .53027346 .35750328 .5238444 .38598634 .5109863 .4144694 .49812828 .4379069 .48006187 .45629884 .4567871 .47469078 .43351237 .48909507 .4054362 .49951173 .3725586 .5099284 .339681 .5151367 .30452476 .5151367 .26708985 .5151367 .17822266 .49316407 .10953776 .44921876 .061035158 .40527345 .012532552 .35253907-.01171875 .29101563-.01171875 .2298177-.01171875 .18180339 .014160156 .14697266 .06591797V0M.1459961 .26316834C.1459961 .20129903 .15445964 .15659587 .17138672 .12905884 .19905599 .08403524 .23649089 .061523439 .2836914 .061523439 .32210288 .061523439 .355306 .078125 .38330079 .111328128 .41129557 .14453125 .42529298 .19401042 .42529298 .25976563 .42529298 .32713828 .41186524 .37685649 .38500978 .4089203 .3581543 .44099427 .3256836 .45703126 .28759767 .45703126 .2491862 .45703126 .21598308 .4404297 .18798828 .40722657 .15999349 .37402345 .1459961 .32600404 .1459961 .26316834Z"/>
<path id="font_3_90" d="M.1616211 0 .0029296876 .5185547H.09375L.17626953 .21928406 .20703125 .107910159C.20833333 .11343384 .21728516 .14904277 .23388672 .21473694L.31640626 .5185547H.40673829L.484375 .21783448 .5102539 .118652347 .54003909 .21876526 .62890627 .5185547H.71435549L.5522461 0H.4609375L.37841798 .31071473 .35839845 .39892579 .25341798 0H.1616211Z"/>
<path id="font_3_71" d="M.40234376 0V.06542969C.36946617 .0139973959 .3211263-.01171875 .25732423-.01171875 .21598308-.01171875 .17797852-.00032552085 .14331055 .022460938 .10864258 .045247396 .08178711 .077067058 .06274414 .11791992 .043701173 .15877278 .034179689 .20572917 .034179689 .25878907 .034179689 .31054688 .04280599 .35750328 .060058595 .3996582 .077311199 .44181315 .1031901 .4741211 .13769531 .49658204 .17220052 .51904299 .21077474 .53027346 .25341798 .53027346 .28466798 .53027346 .3125 .52368167 .33691407 .51049807 .36132813 .49731446 .3811849 .48014323 .39648438 .45898438V.7158203H.48388673V0H.40234376M.12451172 .2590332C.12451172 .1928711 .13850911 .14341228 .1665039 .11065674 .1944987 .07790121 .22753906 .061523439 .265625 .061523439 .30403648 .061523439 .33666993 .077168788 .3635254 .10845947 .39038087 .13976033 .4038086 .18752034 .4038086 .2517395 .4038086 .32243858 .39013673 .3743286 .36279298 .40740968 .33544923 .44049073 .3017578 .45703126 .26171876 .45703126 .22265625 .45703126 .19002278 .4411367 .16381836 .40934754 .13761394 .37756858 .12451172 .32746379 .12451172 .2590332Z"/>
<path id="font_3_74" d="M.049804689-.04296875 .1352539-.055664064C.13883464-.08203125 .14876302-.10123698 .16503906-.11328125 .18684896-.1295573 .21663411-.13769531 .25439454-.13769531 .29508464-.13769531 .3264974-.12953694 .3486328-.113220218 .37076823-.09691366 .3857422-.07407633 .3935547-.044708253 .39811198-.026774088 .40022788 .010904948 .39990235 .06832886 .36149089 .022776286 .3136393 0 .25634767 0 .1850586 0 .12988281 .025716147 .09082031 .07714844 .051757814 .12858074 .032226564 .19026692 .032226564 .26220704 .032226564 .3116862 .041178388 .35734049 .05908203 .39916993 .07698568 .44099937 .10294596 .47330729 .13696289 .49609376 .17097982 .5188802 .2109375 .53027346 .25683595 .53027346 .31803385 .53027346 .3684896 .5053711 .40820313 .4555664V.5185547H.4892578V.070007327C.4892578-.010772705 .48103843-.06801859 .4645996-.10173035 .4481608-.1354421 .42211915-.16206868 .3864746-.1816101 .35083009-.2011617 .30696617-.2109375 .2548828-.2109375 .19303386-.2109375 .1430664-.19698079 .10498047-.16906739 .06689453-.14115398 .048502607-.099121097 .049804689-.04296875M.122558597 .26853944C.122558597 .20067851 .1360677 .15116374 .16308594 .11999512 .19010417 .0888265 .22395833 .07324219 .26464845 .07324219 .30501304 .07324219 .3388672 .08874512 .36621095 .11975098 .3935547 .15075684 .40722657 .19938152 .40722657 .265625 .40722657 .3289388 .3931478 .3766683 .36499024 .40881349 .33683268 .44095866 .30289714 .45703126 .2631836 .45703126 .2241211 .45703126 .19091797 .4412028 .16357422 .4095459 .13623047 .377889 .122558597 .33088685 .122558597 .26853944Z"/>
<path id="font_3_85" d="M.064941409 0V.5185547H.14404297V.4404297C.16422527 .4770101 .18286133 .50112918 .19995117 .51278689 .21704102 .5244446 .23583985 .53027346 .25634767 .53027346 .28597007 .53027346 .31608073 .520874 .3466797 .5020752L.31640626 .42089845C.29492188 .43359376 .2734375 .4399414 .25195313 .4399414 .23274739 .4399414 .2154948 .43415324 .20019531 .4225769 .18489583 .41101075 .17399089 .3949636 .16748047 .37443543 .15771485 .3431549 .15283203 .3089396 .15283203 .27178956V0H.064941409Z"/>
</defs>
<g clip-path="url(#clip_1)">
<path transform="matrix(.71884348,0,0,.71884348,0,0)" d="M0 0H1003V392H0Z" fill="#ffffff"/>
</g>
<g clip-path="url(#clip_2)">
<path transform="matrix(.71884348,0,0,.71884348,.35942174,.35942174)" d="M521 388 761 28 1001 388H521Z" fill="#ffffff"/>
<path transform="matrix(.71884348,0,0,.71884348,.35942174,.35942174)" stroke-width="1" stroke-linecap="butt" stroke-miterlimit="10" stroke-linejoin="miter" fill="none" stroke="#dbdbdb" d="M521 388 761 28 1001 388H521Z"/>
<path transform="matrix(.71884348,0,0,.71884348,.35942174,.35942174)" d="M641 258 691 188 741 258H641Z" fill="#ffffff"/>
<path transform="matrix(.71884348,0,0,.71884348,.35942174,.35942174)" stroke-width="1" stroke-linecap="butt" stroke-miterlimit="10" stroke-linejoin="miter" fill="none" stroke="#616161" d="M641 258 691 188 741 258H641Z"/>
<path transform="matrix(.71884348,0,0,.71884348,.35942174,.35942174)" stroke-width="1" stroke-linecap="butt" stroke-miterlimit="10" stroke-linejoin="miter" fill="none" stroke="#0000ff" d="M749.53 104.38 694.65 182.78"/>
<path transform="matrix(.71884348,0,0,.71884348,.35942174,.35942174)" d="M691.64 187.08 692.79 179.34 694.65 182.78 698.52 183.36 691.64 187.08Z" fill="#0000ff"/>
<path transform="matrix(.71884348,0,0,.71884348,.35942174,.35942174)" stroke-width="1" stroke-linecap="butt" stroke-miterlimit="10" stroke-linejoin="miter" fill="none" stroke="#0000ff" d="M691.64 187.08 692.79 179.34 694.65 182.78 698.52 183.36 691.64 187.08Z"/>
<path transform="matrix(.71884348,0,0,.71884348,0,0)" stroke-width="2" stroke-linecap="butt" stroke-miterlimit="10" stroke-linejoin="miter" fill="none" stroke="#0000ff" d="M772.02 104.69 825.33 184.51"/>
<path transform="matrix(.71884348,0,0,.71884348,0,0)" d="M828.66 189.5 820.89 185.07 825.33 184.51 827.55 180.63 828.66 189.5Z" fill="#0000ff"/>
<path transform="matrix(.71884348,0,0,.71884348,0,0)" stroke-width="2" stroke-linecap="butt" stroke-miterlimit="10" stroke-linejoin="miter" fill="none" stroke="#0000ff" d="M828.66 189.5 820.89 185.07 825.33 184.51 827.55 180.63 828.66 189.5Z"/>
<path transform="matrix(.71884348,0,0,.71884348,0,0)" d="M798 142H805V155H798Z" fill="#ffffff"/>
<use data-text="3" xlink:href="#font_3_22" transform="matrix(7.907278,0,0,-7.907278,573.9516,109.264209)"/>
<path transform="matrix(.71884348,0,0,.71884348,0,0)" stroke-width="2" stroke-linecap="butt" stroke-miterlimit="10" stroke-linejoin="miter" fill="none" stroke="#0000ff" d="M761 59.76V8"/>
<path transform="matrix(.71884348,0,0,.71884348,0,0)" d="M761 65.76 757 57.76 761 59.76 765 57.76 761 65.76Z" fill="#0000ff"/>
<path transform="matrix(.71884348,0,0,.71884348,0,0)" stroke-width="2" stroke-linecap="butt" stroke-miterlimit="10" stroke-linejoin="miter" fill="none" stroke="#0000ff" d="M761 65.76 757 57.76 761 59.76 765 57.76 761 65.76Z"/>
<path transform="matrix(.71884348,0,0,.71884348,0,0)" d="M758 32H765V45H758Z" fill="#ffffff"/>
<use data-text="1" xlink:href="#font_3_20" transform="matrix(7.907278,0,0,-7.907278,545.1978,30.191426)"/>
<path transform="matrix(.71884348,0,0,.71884348,.35942174,.35942174)" d="M781 88C780.99996 89.31322 780.8718 90.613819 780.6156 91.9018 780.35946 93.18978 779.98007 94.4404 779.4775 95.653659 778.9749 96.86691 778.3588 98.019489 777.6293 99.11138 776.8997 100.20329 776.0706 101.21354 775.1421 102.14212 774.21347 103.0707 773.2032 103.89979 772.11129 104.62937 771.0194 105.358959 769.8668 105.97502 768.65359 106.47757 767.4403 106.98012 766.1897 107.35949 764.9018 107.615688 763.6138 107.87189 762.3132 107.99999 761 108 759.6867 107.99999 758.3861 107.871898 757.0981 107.61569 755.81008 107.35949 754.55947 106.98012 753.3462 106.47757 752.13296 105.97502 750.98037 105.358959 749.8885 104.62937 748.79666 103.89979 747.7864 103.0707 746.8578 102.14212 745.9292 101.21354 745.1001 100.20329 744.37057 99.11138 743.641 98.019489 743.0249 96.86691 742.52236 95.653659 742.0198 94.4404 741.6404 93.18978 741.3842 91.901798 741.12808 90.613819 740.99996 89.31322 741 88 740.99996 86.68678 741.12808 85.38618 741.3842 84.09819 741.6404 82.8102 742.0198 81.559589 742.52236 80.34632 743.0249 79.133068 743.641 77.980487 744.37057 76.88858 745.1001 75.796688 745.9292 74.78644 746.8578 73.85786 747.7864 72.929279 748.79666 72.10019 749.8885 71.370609 750.98037 70.64102 752.13296 70.024959 753.3462 69.52241 754.55947 69.01986 755.81008 68.64049 757.0981 68.38429 758.3861 68.1281 759.6867 68 761 68 762.3132 68 763.6138 68.1281 764.90176 68.384288 766.1897 68.64048 767.4403 69.01985 768.65359 69.5224 769.8668 70.024959 771.0194 70.64102 772.11129 71.370609 773.2032 72.10019 774.21347 72.929279 775.1421 73.85786 776.0706 74.78644 776.8997 75.796688 777.6293 76.88858 778.3588 77.980487 778.9749 79.133068 779.4775 80.34632 779.98007 81.559589 780.35946 82.8102 780.6156 84.09819 780.8718 85.38618 780.99996 86.68678 781 88Z" fill="#fff2cc"/>
<path transform="matrix(.71884348,0,0,.71884348,.35942174,.35942174)" stroke-width="1" stroke-linecap="butt" stroke-miterlimit="4" stroke-linejoin="miter" fill="none" stroke="#d6b656" d="M781 88C780.99996 89.31322 780.8718 90.613819 780.6156 91.9018 780.35946 93.18978 779.98007 94.4404 779.4775 95.653659 778.9749 96.86691 778.3588 98.019489 777.6293 99.11138 776.8997 100.20329 776.0706 101.21354 775.1421 102.14212 774.21347 103.0707 773.2032 103.89979 772.11129 104.62937 771.0194 105.358959 769.8668 105.97502 768.65359 106.47757 767.4403 106.98012 766.1897 107.35949 764.9018 107.615688 763.6138 107.87189 762.3132 107.99999 761 108 759.6867 107.99999 758.3861 107.871898 757.0981 107.61569 755.81008 107.35949 754.55947 106.98012 753.3462 106.47757 752.13296 105.97502 750.98037 105.358959 749.8885 104.62937 748.79666 103.89979 747.7864 103.0707 746.8578 102.14212 745.9292 101.21354 745.1001 100.20329 744.37057 99.11138 743.641 98.019489 743.0249 96.86691 742.52236 95.653659 742.0198 94.4404 741.6404 93.18978 741.3842 91.901798 741.12808 90.613819 740.99996 89.31322 741 88 740.99996 86.68678 741.12808 85.38618 741.3842 84.09819 741.6404 82.8102 742.0198 81.559589 742.52236 80.34632 743.0249 79.133068 743.641 77.980487 744.37057 76.88858 745.1001 75.796688 745.9292 74.78644 746.8578 73.85786 747.7864 72.929279 748.79666 72.10019 749.8885 71.370609 750.98037 70.64102 752.13296 70.024959 753.3462 69.52241 754.55947 69.01986 755.81008 68.64049 757.0981 68.38429 758.3861 68.1281 759.6867 68 761 68 762.3132 68 763.6138 68.1281 764.90176 68.384288 766.1897 68.64048 767.4403 69.01985 768.65359 69.5224 769.8668 70.024959 771.0194 70.64102 772.11129 71.370609 773.2032 72.10019 774.21347 72.929279 775.1421 73.85786 776.0706 74.78644 776.8997 75.796688 777.6293 76.88858 778.3588 77.980487 778.9749 79.133068 779.4775 80.34632 779.98007 81.559589 780.35946 82.8102 780.6156 84.09819 780.8718 85.38618 780.99996 86.68678 781 88Z"/>
<use data-text="E" xlink:href="#font_3_40" transform="matrix(12.939182,0,0,-12.939182,542.7156,67.57129)"/>
<path transform="matrix(.71884348,0,0,.71884348,0,0)" stroke-width="2" stroke-linecap="butt" stroke-miterlimit="10" stroke-linejoin="miter" fill="none" stroke="#0000ff" d="M830.71 225.15 785.24 300.94"/>
<path transform="matrix(.71884348,0,0,.71884348,0,0)" d="M782.15 306.08 782.84 297.16 785.24 300.94 789.7 301.28 782.15 306.08Z" fill="#0000ff"/>
<path transform="matrix(.71884348,0,0,.71884348,0,0)" stroke-width="2" stroke-linecap="butt" stroke-miterlimit="10" stroke-linejoin="miter" fill="none" stroke="#0000ff" d="M782.15 306.08 782.84 297.16 785.24 300.94 789.7 301.28 782.15 306.08Z"/>
<path transform="matrix(.71884348,0,0,.71884348,0,0)" d="M803 260H810V273H803Z" fill="#ffffff"/>
<use data-text="2" xlink:href="#font_3_21" transform="matrix(7.907278,0,0,-7.907278,577.5458,194.08774)"/>
<path transform="matrix(.71884348,0,0,.71884348,.35942174,.35942174)" stroke-width="1" stroke-linecap="butt" stroke-miterlimit="10" stroke-linejoin="miter" fill="none" stroke="#0000ff" d="M851.29 225.15 897.72 302.54"/>
<path transform="matrix(.71884348,0,0,.71884348,.35942174,.35942174)" d="M900.42 307.04 893.82 302.84 897.72 302.54 899.82 299.24 900.42 307.04Z" fill="#0000ff"/>
<path transform="matrix(.71884348,0,0,.71884348,.35942174,.35942174)" stroke-width="1" stroke-linecap="butt" stroke-miterlimit="10" stroke-linejoin="miter" fill="none" stroke="#0000ff" d="M900.42 307.04 893.82 302.84 897.72 302.54 899.82 299.24 900.42 307.04Z"/>
<path transform="matrix(.71884348,0,0,.71884348,.35942174,.35942174)" d="M861 208C860.99996 209.31322 860.8718 210.61382 860.61569 211.9018 860.35946 213.18978 859.98007 214.44039 859.4775 215.65364 858.9749 216.8669 858.3588 218.01947 857.6293 219.11136 856.89968 220.20328 856.07058 221.21353 855.142 222.14212 854.21347 223.07071 853.2032 223.8998 852.11129 224.62937 851.01937 225.35895 849.86679 225.975 848.6535 226.47756 847.44027 226.9801 846.18966 227.35948 844.9017 227.61569 843.6138 227.87189 842.3132 227.99999 841 228 839.68679 227.99999 838.38619 227.87189 837.0982 227.61568 835.8102 227.35948 834.5596 226.9801 833.3463 226.47756 832.133 225.975 830.9804 225.35895 829.88858 224.62938 828.7966 223.8998 827.7863 223.07071 826.8578 222.14212 825.9292 221.21353 825.1001 220.20328 824.3705 219.11138 823.64089 218.01947 823.0248 216.8669 822.5223 215.65364 822.0198 214.44039 821.6404 213.18978 821.3842 211.9018 821.12808 210.61382 820.99996 209.31322 821 208 820.99996 206.68677 821.12808 205.38616 821.3842 204.09818 821.64047 202.81018 822.01986 201.55956 822.52236 200.3463 823.02487 199.13304 823.6409 197.98046 824.37057 196.88855 825.1001 195.79666 825.9292 194.78643 826.8578 193.85785 827.7863 192.92926 828.7966 192.10018 829.8884 191.37059 830.9804 190.641 832.133 190.02495 833.34628 189.5224 834.5596 189.01985 835.8102 188.64049 837.09817 188.3843 838.38619 188.1281 839.68679 188 841 188 842.3132 188 843.6138 188.1281 844.90176 188.3843 846.18966 188.64049 847.44027 189.01985 848.6535 189.5224 849.86679 190.02495 851.01937 190.641 852.11129 191.37059 853.2032 192.10018 854.21347 192.92926 855.142 193.85785 856.07058 194.78643 856.89968 195.79666 857.6293 196.88855 858.3588 197.98047 858.9749 199.13306 859.4775 200.34632 859.98007 201.55956 860.35946 202.81018 860.61569 204.09818 860.8718 205.38616 860.99996 206.68677 861 208Z" fill="#fff2cc"/>
<path transform="matrix(.71884348,0,0,.71884348,.35942174,.35942174)" stroke-width="1" stroke-linecap="butt" stroke-miterlimit="4" stroke-linejoin="miter" fill="none" stroke="#d6b656" d="M861 208C860.99996 209.31322 860.8718 210.61382 860.61569 211.9018 860.35946 213.18978 859.98007 214.44039 859.4775 215.65364 858.9749 216.8669 858.3588 218.01947 857.6293 219.11136 856.89968 220.20328 856.07058 221.21353 855.142 222.14212 854.21347 223.07071 853.2032 223.8998 852.11129 224.62937 851.01937 225.35895 849.86679 225.975 848.6535 226.47756 847.44027 226.9801 846.18966 227.35948 844.9017 227.61569 843.6138 227.87189 842.3132 227.99999 841 228 839.68679 227.99999 838.38619 227.87189 837.0982 227.61568 835.8102 227.35948 834.5596 226.9801 833.3463 226.47756 832.133 225.975 830.9804 225.35895 829.88858 224.62938 828.7966 223.8998 827.7863 223.07071 826.8578 222.14212 825.9292 221.21353 825.1001 220.20328 824.3705 219.11138 823.64089 218.01947 823.0248 216.8669 822.5223 215.65364 822.0198 214.44039 821.6404 213.18978 821.3842 211.9018 821.12808 210.61382 820.99996 209.31322 821 208 820.99996 206.68677 821.12808 205.38616 821.3842 204.09818 821.64047 202.81018 822.01986 201.55956 822.52236 200.3463 823.02487 199.13304 823.6409 197.98046 824.37057 196.88855 825.1001 195.79666 825.9292 194.78643 826.8578 193.85785 827.7863 192.92926 828.7966 192.10018 829.8884 191.37059 830.9804 190.641 832.133 190.02495 833.34628 189.5224 834.5596 189.01985 835.8102 188.64049 837.09817 188.3843 838.38619 188.1281 839.68679 188 841 188 842.3132 188 843.6138 188.1281 844.90176 188.3843 846.18966 188.64049 847.44027 189.01985 848.6535 189.5224 849.86679 190.02495 851.01937 190.641 852.11129 191.37059 853.2032 192.10018 854.21347 192.92926 855.142 193.85785 856.07058 194.78643 856.89968 195.79666 857.6293 196.88855 858.3588 197.98047 858.9749 199.13306 859.4775 200.34632 859.98007 201.55956 860.35946 202.81018 860.61569 204.09818 860.8718 205.38616 860.99996 206.68677 861 208Z"/>
<use data-text="S" xlink:href="#font_3_54" transform="matrix(12.939182,0,0,-12.939182,600.2231,153.8325)"/>
<path transform="matrix(.71884348,0,0,.71884348,.35942174,.35942174)" d="M731 378 781 308 831 378H731Z" fill="#ffffff"/>
<path transform="matrix(.71884348,0,0,.71884348,.35942174,.35942174)" stroke-width="1" stroke-linecap="butt" stroke-miterlimit="10" stroke-linejoin="miter" fill="none" stroke="#616161" d="M731 378 781 308 831 378H731Z"/>
<path transform="matrix(.71884348,0,0,.71884348,.35942174,.35942174)" d="M851 378 901 308 951 378H851Z" fill="#ffffff"/>
<path transform="matrix(.71884348,0,0,.71884348,.35942174,.35942174)" stroke-width="1" stroke-linecap="butt" stroke-miterlimit="10" stroke-linejoin="miter" fill="none" stroke="#616161" d="M851 378 901 308 951 378H851Z"/>
<path transform="matrix(.71884348,0,0,.71884348,0,0)" stroke-width="2" stroke-linecap="butt" stroke-miterlimit="10" stroke-linejoin="miter" fill="none" stroke="#000000" d="M481 208C481 208 491.58668 208 512.76 208"/>
<path transform="matrix(.71884348,0,0,.71884348,0,0)" d="M518.76 208 510.76 212 512.76 208 510.76 204 518.76 208Z"/>
<path transform="matrix(.71884348,0,0,.71884348,0,0)" stroke-width="2" stroke-linecap="butt" stroke-miterlimit="10" stroke-linejoin="miter" fill="none" stroke="#000000" d="M518.76 208 510.76 212 512.76 208 510.76 204 518.76 208Z"/>
<path transform="matrix(.71884348,0,0,.71884348,.35942174,.35942174)" d="M1 388 241 28 481 388H1Z" fill="#ffffff"/>
<path transform="matrix(.71884348,0,0,.71884348,.35942174,.35942174)" stroke-width="1" stroke-linecap="butt" stroke-miterlimit="10" stroke-linejoin="miter" fill="none" stroke="#dbdbdb" d="M1 388 241 28 481 388H1Z"/>
<path transform="matrix(.71884348,0,0,.71884348,.35942174,.35942174)" d="M261 258 311 188 361 258H261Z" fill="#ffffff"/>
<path transform="matrix(.71884348,0,0,.71884348,.35942174,.35942174)" stroke-width="1" stroke-linecap="butt" stroke-miterlimit="10" stroke-linejoin="miter" fill="none" stroke="#616161" d="M261 258 311 188 361 258H261Z"/>
<path transform="matrix(.71884348,0,0,.71884348,.35942174,.35942174)" stroke-width="1" stroke-linecap="butt" stroke-miterlimit="10" stroke-linejoin="miter" fill="none" stroke="#0000ff" d="M252.47 104.38 307.35 182.78"/>
<path transform="matrix(.71884348,0,0,.71884348,.35942174,.35942174)" d="M310.36 187.08 303.48 183.36 307.35 182.78 309.21 179.34 310.36 187.08Z" fill="#0000ff"/>
<path transform="matrix(.71884348,0,0,.71884348,.35942174,.35942174)" stroke-width="1" stroke-linecap="butt" stroke-miterlimit="10" stroke-linejoin="miter" fill="none" stroke="#0000ff" d="M310.36 187.08 303.48 183.36 307.35 182.78 309.21 179.34 310.36 187.08Z"/>
<path transform="matrix(.71884348,0,0,.71884348,0,0)" stroke-width="2" stroke-linecap="butt" stroke-miterlimit="10" stroke-linejoin="miter" fill="none" stroke="#0000ff" d="M229.98 104.69 176.67 184.51"/>
<path transform="matrix(.71884348,0,0,.71884348,0,0)" d="M173.34 189.5 174.45 180.63 176.67 184.51 181.11 185.07 173.34 189.5Z" fill="#0000ff"/>
<path transform="matrix(.71884348,0,0,.71884348,0,0)" stroke-width="2" stroke-linecap="butt" stroke-miterlimit="10" stroke-linejoin="miter" fill="none" stroke="#0000ff" d="M173.34 189.5 174.45 180.63 176.67 184.51 181.11 185.07 173.34 189.5Z"/>
<path transform="matrix(.71884348,0,0,.71884348,0,0)" d="M198 142H205V155H198Z" fill="#ffffff"/>
<use data-text="2" xlink:href="#font_3_21" transform="matrix(7.907278,0,0,-7.907278,142.6455,109.264209)"/>
<path transform="matrix(.71884348,0,0,.71884348,0,0)" stroke-width="2" stroke-linecap="butt" stroke-miterlimit="10" stroke-linejoin="miter" fill="none" stroke="#0000ff" d="M241 59.76V8"/>
<path transform="matrix(.71884348,0,0,.71884348,0,0)" d="M241 65.76 237 57.76 241 59.76 245 57.76 241 65.76Z" fill="#0000ff"/>
<path transform="matrix(.71884348,0,0,.71884348,0,0)" stroke-width="2" stroke-linecap="butt" stroke-miterlimit="10" stroke-linejoin="miter" fill="none" stroke="#0000ff" d="M241 65.76 237 57.76 241 59.76 245 57.76 241 65.76Z"/>
<path transform="matrix(.71884348,0,0,.71884348,0,0)" d="M238 32H245V45H238Z" fill="#ffffff"/>
<use data-text="1" xlink:href="#font_3_20" transform="matrix(7.907278,0,0,-7.907278,171.39923,30.191426)"/>
<path transform="matrix(.71884348,0,0,.71884348,.35942174,.35942174)" d="M261 88C260.99998 89.31322 260.87187 90.613819 260.61567 91.9018 260.35948 93.18978 259.9801 94.4404 259.47758 95.653659 258.97505 96.86691 258.35896 98.019489 257.62937 99.11138 256.89979 100.20329 256.0707 101.21354 255.14212 102.14212 254.21352 103.0707 253.20328 103.89979 252.11138 104.62937 251.01947 105.358959 249.8669 105.97502 248.65364 106.47757 247.44039 106.98012 246.18978 107.35949 244.9018 107.615688 243.61382 107.87189 242.31322 107.99999 241 108 239.68677 107.99999 238.38616 107.871898 237.09816 107.61569 235.81018 107.35949 234.55956 106.98012 233.3463 106.47757 232.13304 105.97502 230.98047 105.358959 229.88857 104.62937 228.79666 103.89979 227.78643 103.0707 226.85785 102.14212 225.92926 101.21354 225.10018 100.20329 224.37059 99.11138 223.64099 98.019489 223.02494 96.86691 222.52239 95.653659 222.01984 94.4404 221.64046 93.18978 221.38426 91.901798 221.12808 90.613819 220.99999 89.31322 221 88 220.99999 86.68678 221.12808 85.38618 221.38428 84.09819 221.64046 82.8102 222.01984 81.559589 222.52239 80.34632 223.02494 79.133068 223.64099 77.980487 224.37059 76.88858 225.10018 75.796688 225.92926 74.78644 226.85785 73.85786 227.78643 72.929279 228.79666 72.10019 229.88857 71.370609 230.98047 70.64102 232.13304 70.024959 233.34632 69.52241 234.55956 69.01986 235.81018 68.64049 237.09816 68.38429 238.38616 68.1281 239.68677 68 241 68 242.31322 68 243.61382 68.1281 244.9018 68.384288 246.18978 68.64048 247.44039 69.01985 248.65364 69.5224 249.8669 70.024959 251.01949 70.64102 252.11139 71.370609 253.20328 72.10019 254.21352 72.929279 255.14212 73.85786 256.0707 74.78644 256.89979 75.796688 257.62937 76.88858 258.35896 77.980487 258.97505 79.133068 259.47758 80.34632 259.9801 81.559589 260.3595 82.8102 260.6157 84.09819 260.8719 85.38618 260.99998 86.68678 261 88Z" fill="#fff2cc"/>
<path transform="matrix(.71884348,0,0,.71884348,.35942174,.35942174)" stroke-width="1" stroke-linecap="butt" stroke-miterlimit="4" stroke-linejoin="miter" fill="none" stroke="#d6b656" d="M261 88C260.99998 89.31322 260.87187 90.613819 260.61567 91.9018 260.35948 93.18978 259.9801 94.4404 259.47758 95.653659 258.97505 96.86691 258.35896 98.019489 257.62937 99.11138 256.89979 100.20329 256.0707 101.21354 255.14212 102.14212 254.21352 103.0707 253.20328 103.89979 252.11138 104.62937 251.01947 105.358959 249.8669 105.97502 248.65364 106.47757 247.44039 106.98012 246.18978 107.35949 244.9018 107.615688 243.61382 107.87189 242.31322 107.99999 241 108 239.68677 107.99999 238.38616 107.871898 237.09816 107.61569 235.81018 107.35949 234.55956 106.98012 233.3463 106.47757 232.13304 105.97502 230.98047 105.358959 229.88857 104.62937 228.79666 103.89979 227.78643 103.0707 226.85785 102.14212 225.92926 101.21354 225.10018 100.20329 224.37059 99.11138 223.64099 98.019489 223.02494 96.86691 222.52239 95.653659 222.01984 94.4404 221.64046 93.18978 221.38426 91.901798 221.12808 90.613819 220.99999 89.31322 221 88 220.99999 86.68678 221.12808 85.38618 221.38428 84.09819 221.64046 82.8102 222.01984 81.559589 222.52239 80.34632 223.02494 79.133068 223.64099 77.980487 224.37059 76.88858 225.10018 75.796688 225.92926 74.78644 226.85785 73.85786 227.78643 72.929279 228.79666 72.10019 229.88857 71.370609 230.98047 70.64102 232.13304 70.024959 233.34632 69.52241 234.55956 69.01986 235.81018 68.64049 237.09816 68.38429 238.38616 68.1281 239.68677 68 241 68 242.31322 68 243.61382 68.1281 244.9018 68.384288 246.18978 68.64048 247.44039 69.01985 248.65364 69.5224 249.8669 70.024959 251.01949 70.64102 252.11139 71.370609 253.20328 72.10019 254.21352 72.929279 255.14212 73.85786 256.0707 74.78644 256.89979 75.796688 257.62937 76.88858 258.35896 77.980487 258.97505 79.133068 259.47758 80.34632 259.9801 81.559589 260.3595 82.8102 260.6157 84.09819 260.8719 85.38618 260.99998 86.68678 261 88Z"/>
<use data-text="S" xlink:href="#font_3_54" transform="matrix(12.939182,0,0,-12.939182,168.91698,67.57129)"/>
<path transform="matrix(.71884348,0,0,.71884348,.35942174,.35942174)" stroke-width="1" stroke-linecap="butt" stroke-miterlimit="10" stroke-linejoin="miter" fill="none" stroke="#0000ff" d="M150.71 225.15 104.28 302.54"/>
<path transform="matrix(.71884348,0,0,.71884348,.35942174,.35942174)" d="M101.58 307.04 102.18 299.24 104.28 302.54 108.18 302.84 101.58 307.04Z" fill="#0000ff"/>
<path transform="matrix(.71884348,0,0,.71884348,.35942174,.35942174)" stroke-width="1" stroke-linecap="butt" stroke-miterlimit="10" stroke-linejoin="miter" fill="none" stroke="#0000ff" d="M101.58 307.04 102.18 299.24 104.28 302.54 108.18 302.84 101.58 307.04Z"/>
<path transform="matrix(.71884348,0,0,.71884348,0,0)" stroke-width="2" stroke-linecap="butt" stroke-miterlimit="10" stroke-linejoin="miter" fill="none" stroke="#0000ff" d="M171.29 225.15 216.76 300.94"/>
<path transform="matrix(.71884348,0,0,.71884348,0,0)" d="M219.85 306.08 212.3 301.28 216.76 300.94 219.16 297.16 219.85 306.08Z" fill="#0000ff"/>
<path transform="matrix(.71884348,0,0,.71884348,0,0)" stroke-width="2" stroke-linecap="butt" stroke-miterlimit="10" stroke-linejoin="miter" fill="none" stroke="#0000ff" d="M219.85 306.08 212.3 301.28 216.76 300.94 219.16 297.16 219.85 306.08Z"/>
<path transform="matrix(.71884348,0,0,.71884348,0,0)" d="M193 260H200V273H193Z" fill="#ffffff"/>
<use data-text="3" xlink:href="#font_3_22" transform="matrix(7.907278,0,0,-7.907278,139.05129,194.08774)"/>
<path transform="matrix(.71884348,0,0,.71884348,.35942174,.35942174)" d="M181 208C180.99999 209.31322 180.87187 210.61382 180.61566 211.9018 180.35947 213.18978 179.9801 214.44039 179.47756 215.65364 178.975 216.8669 178.35895 218.01947 177.62937 219.11136 176.89978 220.20328 176.0707 221.21353 175.14212 222.14212 174.21353 223.07071 173.20328 223.8998 172.11138 224.62937 171.01947 225.35895 169.8669 225.975 168.65364 226.47756 167.44039 226.9801 166.18978 227.35948 164.9018 227.61569 163.61382 227.87189 162.31322 227.99999 161 228 159.68679 227.99999 158.38619 227.87189 157.09818 227.61568 155.8102 227.35948 154.55957 226.9801 153.3463 226.47756 152.13304 225.975 150.98047 225.35895 149.88858 224.62938 148.79668 223.8998 147.78644 223.07071 146.85785 222.14212 145.92926 221.21353 145.10018 220.20328 144.37059 219.11138 143.64099 218.01947 143.02494 216.8669 142.52239 215.65364 142.01984 214.44039 141.64048 213.18978 141.38428 211.9018 141.12808 210.61382 140.99999 209.31322 141 208 140.99999 206.68677 141.12808 205.38616 141.38428 204.09818 141.64048 202.81018 142.01984 201.55956 142.52239 200.3463 143.02494 199.13304 143.64099 197.98046 144.37059 196.88855 145.10018 195.79666 145.92926 194.78643 146.85785 193.85785 147.78644 192.92926 148.79668 192.10018 149.88858 191.37059 150.98047 190.641 152.13304 190.02495 153.3463 189.5224 154.55957 189.01985 155.8102 188.64049 157.09818 188.3843 158.38619 188.1281 159.68679 188 161 188 162.31322 188 163.61382 188.1281 164.9018 188.3843 166.18978 188.64049 167.44039 189.01985 168.65364 189.5224 169.8669 190.02495 171.01949 190.641 172.11139 191.37059 173.2033 192.10018 174.21353 192.92926 175.14212 193.85785 176.0707 194.78643 176.89978 195.79666 177.62937 196.88855 178.35895 197.98047 178.97502 199.13306 179.47757 200.34632 179.98012 201.55956 180.35948 202.81018 180.61568 204.09818 180.87187 205.38616 180.99999 206.68677 181 208Z" fill="#fff2cc"/>
<path transform="matrix(.71884348,0,0,.71884348,.35942174,.35942174)" stroke-width="1" stroke-linecap="butt" stroke-miterlimit="4" stroke-linejoin="miter" fill="none" stroke="#d6b656" d="M181 208C180.99999 209.31322 180.87187 210.61382 180.61566 211.9018 180.35947 213.18978 179.9801 214.44039 179.47756 215.65364 178.975 216.8669 178.35895 218.01947 177.62937 219.11136 176.89978 220.20328 176.0707 221.21353 175.14212 222.14212 174.21353 223.07071 173.20328 223.8998 172.11138 224.62937 171.01947 225.35895 169.8669 225.975 168.65364 226.47756 167.44039 226.9801 166.18978 227.35948 164.9018 227.61569 163.61382 227.87189 162.31322 227.99999 161 228 159.68679 227.99999 158.38619 227.87189 157.09818 227.61568 155.8102 227.35948 154.55957 226.9801 153.3463 226.47756 152.13304 225.975 150.98047 225.35895 149.88858 224.62938 148.79668 223.8998 147.78644 223.07071 146.85785 222.14212 145.92926 221.21353 145.10018 220.20328 144.37059 219.11138 143.64099 218.01947 143.02494 216.8669 142.52239 215.65364 142.01984 214.44039 141.64048 213.18978 141.38428 211.9018 141.12808 210.61382 140.99999 209.31322 141 208 140.99999 206.68677 141.12808 205.38616 141.38428 204.09818 141.64048 202.81018 142.01984 201.55956 142.52239 200.3463 143.02494 199.13304 143.64099 197.98046 144.37059 196.88855 145.10018 195.79666 145.92926 194.78643 146.85785 193.85785 147.78644 192.92926 148.79668 192.10018 149.88858 191.37059 150.98047 190.641 152.13304 190.02495 153.3463 189.5224 154.55957 189.01985 155.8102 188.64049 157.09818 188.3843 158.38619 188.1281 159.68679 188 161 188 162.31322 188 163.61382 188.1281 164.9018 188.3843 166.18978 188.64049 167.44039 189.01985 168.65364 189.5224 169.8669 190.02495 171.01949 190.641 172.11139 191.37059 173.2033 192.10018 174.21353 192.92926 175.14212 193.85785 176.0707 194.78643 176.89978 195.79666 177.62937 196.88855 178.35895 197.98047 178.97502 199.13306 179.47757 200.34632 179.98012 201.55956 180.35948 202.81018 180.61568 204.09818 180.87187 205.38616 180.99999 206.68677 181 208Z"/>
<use data-text="E" xlink:href="#font_3_40" transform="matrix(12.939182,0,0,-12.939182,111.40951,153.8325)"/>
<path transform="matrix(.71884348,0,0,.71884348,.35942174,.35942174)" d="M51 378 101 308 151 378H51Z" fill="#ffffff"/>
<path transform="matrix(.71884348,0,0,.71884348,.35942174,.35942174)" stroke-width="1" stroke-linecap="butt" stroke-miterlimit="10" stroke-linejoin="miter" fill="none" stroke="#616161" d="M51 378 101 308 151 378H51Z"/>
<path transform="matrix(.71884348,0,0,.71884348,.35942174,.35942174)" d="M171 378 221 308 271 378H171Z" fill="#ffffff"/>
<path transform="matrix(.71884348,0,0,.71884348,.35942174,.35942174)" stroke-width="1" stroke-linecap="butt" stroke-miterlimit="10" stroke-linejoin="miter" fill="none" stroke="#616161" d="M171 378 221 308 271 378H171Z"/>
<use data-text="l" xlink:href="#font_3_79" transform="matrix(8.6261219,0,0,-8.6261219,478.61497,173.24127)"/>
<use data-text="e" xlink:href="#font_3_72" transform="matrix(8.6261219,0,0,-8.6261219,480.52998,173.24127)"/>
<use data-text="s" xlink:href="#font_3_86" transform="matrix(8.6261219,0,0,-8.6261219,485.32609,173.24127)"/>
<use data-text="s" xlink:href="#font_3_86" transform="matrix(8.6261219,0,0,-8.6261219,489.63914,173.24127)"/>
<use data-text=" " xlink:href="#font_3_3" transform="matrix(8.6261219,0,0,-8.6261219,493.9522,173.24127)"/>
<use data-text="t" xlink:href="#font_3_87" transform="matrix(8.6261219,0,0,-8.6261219,496.35026,173.24127)"/>
<use data-text="h" xlink:href="#font_3_75" transform="matrix(8.6261219,0,0,-8.6261219,498.74833,173.24127)"/>
<use data-text="a" xlink:href="#font_3_68" transform="matrix(8.6261219,0,0,-8.6261219,503.54444,173.24127)"/>
<use data-text="n" xlink:href="#font_3_81" transform="matrix(8.6261219,0,0,-8.6261219,508.34059,173.24127)"/>
<use data-text=" " xlink:href="#font_3_3" transform="matrix(8.6261219,0,0,-8.6261219,513.1367,173.24127)"/>
<use data-text="E" xlink:href="#font_3_40" transform="matrix(8.6261219,0,0,-8.6261219,494.20487,183.30509)"/>
<use data-text="b" xlink:href="#font_3_69" transform="matrix(8.6261219,0,0,-8.6261219,545.4674,258.78364)"/>
<use data-text="e" xlink:href="#font_3_72" transform="matrix(8.6261219,0,0,-8.6261219,550.26358,258.78364)"/>
<use data-text="t" xlink:href="#font_3_87" transform="matrix(8.6261219,0,0,-8.6261219,555.05966,258.78364)"/>
<use data-text="w" xlink:href="#font_3_90" transform="matrix(8.6261219,0,0,-8.6261219,557.4577,258.78364)"/>
<use data-text="e" xlink:href="#font_3_72" transform="matrix(8.6261219,0,0,-8.6261219,563.6858,258.78364)"/>
<use data-text="e" xlink:href="#font_3_72" transform="matrix(8.6261219,0,0,-8.6261219,568.4819,258.78364)"/>
<use data-text="n" xlink:href="#font_3_81" transform="matrix(8.6261219,0,0,-8.6261219,573.278,258.78364)"/>
<use data-text="E" xlink:href="#font_3_40" transform="matrix(8.6261219,0,0,-8.6261219,546.43338,268.84745)"/>
<use data-text=" " xlink:href="#font_3_3" transform="matrix(8.6261219,0,0,-8.6261219,552.187,268.84745)"/>
<use data-text="a" xlink:href="#font_3_68" transform="matrix(8.6261219,0,0,-8.6261219,554.5851,268.84745)"/>
<use data-text="n" xlink:href="#font_3_81" transform="matrix(8.6261219,0,0,-8.6261219,559.38119,268.84745)"/>
<use data-text="d" xlink:href="#font_3_71" transform="matrix(8.6261219,0,0,-8.6261219,564.1773,268.84745)"/>
<use data-text=" " xlink:href="#font_3_3" transform="matrix(8.6261219,0,0,-8.6261219,568.9734,268.84745)"/>
<use data-text="S" xlink:href="#font_3_54" transform="matrix(8.6261219,0,0,-8.6261219,571.37149,268.84745)"/>
<use data-text="g" xlink:href="#font_3_74" transform="matrix(8.6261219,0,0,-8.6261219,623.58547,259.5025)"/>
<use data-text="r" xlink:href="#font_3_85" transform="matrix(8.6261219,0,0,-8.6261219,628.3816,259.5025)"/>
<use data-text="e" xlink:href="#font_3_72" transform="matrix(8.6261219,0,0,-8.6261219,631.2541,259.5025)"/>
<use data-text="a" xlink:href="#font_3_68" transform="matrix(8.6261219,0,0,-8.6261219,636.0502,259.5025)"/>
<use data-text="t" xlink:href="#font_3_87" transform="matrix(8.6261219,0,0,-8.6261219,640.8463,259.5025)"/>
<use data-text="e" xlink:href="#font_3_72" transform="matrix(8.6261219,0,0,-8.6261219,643.2444,259.5025)"/>
<use data-text="r" xlink:href="#font_3_85" transform="matrix(8.6261219,0,0,-8.6261219,648.04049,259.5025)"/>
<use data-text=" " xlink:href="#font_3_3" transform="matrix(8.6261219,0,0,-8.6261219,650.91299,259.5025)"/>
<use data-text="t" xlink:href="#font_3_87" transform="matrix(8.6261219,0,0,-8.6261219,653.31106,259.5025)"/>
<use data-text="h" xlink:href="#font_3_75" transform="matrix(8.6261219,0,0,-8.6261219,655.7091,259.5025)"/>
<use data-text="a" xlink:href="#font_3_68" transform="matrix(8.6261219,0,0,-8.6261219,660.5052,259.5025)"/>
<use data-text="n" xlink:href="#font_3_81" transform="matrix(8.6261219,0,0,-8.6261219,665.30136,259.5025)"/>
<use data-text=" " xlink:href="#font_3_3" transform="matrix(8.6261219,0,0,-8.6261219,670.0975,259.5025)"/>
<use data-text="S" xlink:href="#font_3_54" transform="matrix(8.6261219,0,0,-8.6261219,645.162,269.56629)"/>
<use data-text="l" xlink:href="#font_3_79" transform="matrix(8.6261219,0,0,-8.6261219,54.49732,259.5025)"/>
<use data-text="e" xlink:href="#font_3_72" transform="matrix(8.6261219,0,0,-8.6261219,56.41232,259.5025)"/>
<use data-text="s" xlink:href="#font_3_86" transform="matrix(8.6261219,0,0,-8.6261219,61.208444,259.5025)"/>
<use data-text="s" xlink:href="#font_3_86" transform="matrix(8.6261219,0,0,-8.6261219,65.5215,259.5025)"/>
<use data-text=" " xlink:href="#font_3_3" transform="matrix(8.6261219,0,0,-8.6261219,69.834568,259.5025)"/>
<use data-text="t" xlink:href="#font_3_87" transform="matrix(8.6261219,0,0,-8.6261219,72.23262,259.5025)"/>
<use data-text="h" xlink:href="#font_3_75" transform="matrix(8.6261219,0,0,-8.6261219,74.630687,259.5025)"/>
<use data-text="a" xlink:href="#font_3_68" transform="matrix(8.6261219,0,0,-8.6261219,79.4268,259.5025)"/>
<use data-text="n" xlink:href="#font_3_81" transform="matrix(8.6261219,0,0,-8.6261219,84.22293,259.5025)"/>
<use data-text=" " xlink:href="#font_3_3" transform="matrix(8.6261219,0,0,-8.6261219,89.01905,259.5025)"/>
<use data-text="E" xlink:href="#font_3_40" transform="matrix(8.6261219,0,0,-8.6261219,70.087238,269.56629)"/>
<use data-text="b" xlink:href="#font_3_69" transform="matrix(8.6261219,0,0,-8.6261219,142.91507,258.78364)"/>
<use data-text="e" xlink:href="#font_3_72" transform="matrix(8.6261219,0,0,-8.6261219,147.71118,258.78364)"/>
<use data-text="t" xlink:href="#font_3_87" transform="matrix(8.6261219,0,0,-8.6261219,152.50731,258.78364)"/>
<use data-text="w" xlink:href="#font_3_90" transform="matrix(8.6261219,0,0,-8.6261219,154.90537,258.78364)"/>
<use data-text="e" xlink:href="#font_3_72" transform="matrix(8.6261219,0,0,-8.6261219,161.13343,258.78364)"/>
<use data-text="e" xlink:href="#font_3_72" transform="matrix(8.6261219,0,0,-8.6261219,165.92955,258.78364)"/>
<use data-text="n" xlink:href="#font_3_81" transform="matrix(8.6261219,0,0,-8.6261219,170.72568,258.78364)"/>
<use data-text="E" xlink:href="#font_3_40" transform="matrix(8.6261219,0,0,-8.6261219,143.88101,268.84745)"/>
<use data-text=" " xlink:href="#font_3_3" transform="matrix(8.6261219,0,0,-8.6261219,149.63463,268.84745)"/>
<use data-text="a" xlink:href="#font_3_68" transform="matrix(8.6261219,0,0,-8.6261219,152.0327,268.84745)"/>
<use data-text="n" xlink:href="#font_3_81" transform="matrix(8.6261219,0,0,-8.6261219,156.82881,268.84745)"/>
<use data-text="d" xlink:href="#font_3_71" transform="matrix(8.6261219,0,0,-8.6261219,161.62494,268.84745)"/>
<use data-text=" " xlink:href="#font_3_3" transform="matrix(8.6261219,0,0,-8.6261219,166.42105,268.84745)"/>
<use data-text="S" xlink:href="#font_3_54" transform="matrix(8.6261219,0,0,-8.6261219,168.81912,268.84745)"/>
<use data-text="g" xlink:href="#font_3_74" transform="matrix(8.6261219,0,0,-8.6261219,199.46784,173.24127)"/>
<use data-text="r" xlink:href="#font_3_85" transform="matrix(8.6261219,0,0,-8.6261219,204.26395,173.24127)"/>
<use data-text="e" xlink:href="#font_3_72" transform="matrix(8.6261219,0,0,-8.6261219,207.13645,173.24127)"/>
<use data-text="a" xlink:href="#font_3_68" transform="matrix(8.6261219,0,0,-8.6261219,211.93257,173.24127)"/>
<use data-text="t" xlink:href="#font_3_87" transform="matrix(8.6261219,0,0,-8.6261219,216.7287,173.24127)"/>
<use data-text="e" xlink:href="#font_3_72" transform="matrix(8.6261219,0,0,-8.6261219,219.12676,173.24127)"/>
<use data-text="r" xlink:href="#font_3_85" transform="matrix(8.6261219,0,0,-8.6261219,223.92288,173.24127)"/>
<use data-text=" " xlink:href="#font_3_3" transform="matrix(8.6261219,0,0,-8.6261219,226.79538,173.24127)"/>
<use data-text="t" xlink:href="#font_3_87" transform="matrix(8.6261219,0,0,-8.6261219,229.19344,173.24127)"/>
<use data-text="h" xlink:href="#font_3_75" transform="matrix(8.6261219,0,0,-8.6261219,231.59149,173.24127)"/>
<use data-text="a" xlink:href="#font_3_68" transform="matrix(8.6261219,0,0,-8.6261219,236.38762,173.24127)"/>
<use data-text="n" xlink:href="#font_3_81" transform="matrix(8.6261219,0,0,-8.6261219,241.18375,173.24127)"/>
<use data-text=" " xlink:href="#font_3_3" transform="matrix(8.6261219,0,0,-8.6261219,245.97986,173.24127)"/>
<use data-text="S" xlink:href="#font_3_54" transform="matrix(8.6261219,0,0,-8.6261219,221.04436,183.30509)"/>
<path transform="matrix(.71884348,0,0,.71884348,.35942174,.35942174)" d="M194.2 78 211 85.5 194.2 93V89.72C170.34 89.72 151 129.24 151 178 151 124.58 170.34 81.28 194.2 81.28V78Z" fill="#ffffff"/>
<path transform="matrix(.71884348,0,0,.71884348,.35942174,.35942174)" stroke-width="1" stroke-linecap="butt" stroke-miterlimit="10" stroke-linejoin="miter" fill="none" stroke="#616161" d="M194.2 78 211 85.5 194.2 93V89.72C170.34 89.72 151 129.24 151 178 151 124.58 170.34 81.28 194.2 81.28V78Z"/>
</g>
</svg>
