<svg xmlns="http://www.w3.org/2000/svg" xmlns:xlink="http://www.w3.org/1999/xlink" xmlns:inkscape="http://www.inkscape.org/namespaces/inkscape" version="1.1" width="534.95999" height="183.12" viewBox="0 0 534.95999 183.12">
<defs>
<clipPath id="clip_1">
<path transform="matrix(.24,0,0,.24,0,0)" d="M0 0H2229.1668V761.0327H0Z" clip-rule="evenodd"/>
</clipPath>
<clipPath id="clip_2">
<path transform="matrix(.24,0,0,.24,0,0)" d="M0 0H2229.1668V758.0365H0Z" clip-rule="evenodd"/>
</clipPath>
<path id="font_3_48" d="M.07421875 0V.7158203H.21679688L.38623048 .20898438C.40185548 .16178386 .4132487 .12646485 .42041017 .103027347 .4285482 .12906902 .4412435 .1673177 .4584961 .21777344L.6298828 .7158203H.7573242V0H.6660156V.5991211L.4580078 0H.3725586L.16552735 .609375V0H.07421875Z"/>
<path id="font_3_40" d="M.07910156 0V.7158203H.5966797V.63134768H.17382813V.41210938H.5698242V.32910157H.17382813V.084472659H.61328127V0H.07910156Z"/>
</defs>
<g clip-path="url(#clip_1)">
<path transform="matrix(.719086,0,0,.719086,0,0)" d="M0 0H744V254H0Z" fill="#ffffff"/>
</g>
<g clip-path="url(#clip_2)">
<path transform="matrix(.719086,0,0,.719086,.359543,.359543)" stroke-width="1" stroke-linecap="butt" stroke-miterlimit="10" stroke-linejoin="miter" fill="none" stroke="#000000" d="M172.03 15.42 115.64 43.68"/>
<path transform="matrix(.719086,0,0,.719086,.359543,.359543)" d="M110.94 46.03 115.63 39.76 115.64 43.68 118.77 46.02 110.94 46.03Z"/>
<path transform="matrix(.719086,0,0,.719086,.359543,.359543)" stroke-width="1" stroke-linecap="butt" stroke-miterlimit="10" stroke-linejoin="miter" fill="none" stroke="#000000" d="M110.94 46.03 115.63 39.76 115.64 43.68 118.77 46.02 110.94 46.03Z"/>
<path transform="matrix(.719086,0,0,.719086,.359543,.359543)" stroke-width="1" stroke-linecap="butt" stroke-miterlimit="10" stroke-linejoin="miter" fill="none" stroke="#000000" d="M189.94 15.47 255.3 48.15"/>
<path transform="matrix(.719086,0,0,.719086,.359543,.359543)" d="M260 50.5H252.17L255.3 48.15V44.24L260 50.5Z"/>
<path transform="matrix(.719086,0,0,.719086,.359543,.359543)" stroke-width="1" stroke-linecap="butt" stroke-miterlimit="10" stroke-linejoin="miter" fill="none" stroke="#000000" d="M260 50.5H252.17L255.3 48.15V44.24L260 50.5Z"/>
<path transform="matrix(.719086,0,0,.719086,.359543,.359543)" d="M191 11C190.99999 11.656609 190.93593 12.30691 190.80783 12.950903 190.67974 13.594895 190.49004 14.220205 190.23876 14.826834 189.98749 15.433461 189.67946 16.00975 189.31467 16.5557 188.94988 17.10165 188.53533 17.606774 188.07105 18.071068 187.60675 18.53536 187.10163 18.949902 186.55567 19.314694 186.00972 19.679488 185.43343 19.98752 184.8268 20.238795 184.22017 20.490067 183.59487 20.679753 182.95088 20.80785 182.3069 20.93595 181.6566 20.999999 181 21 180.34339 20.999999 179.69309 20.93595 179.04909 20.80785 178.40509 20.679753 177.77979 20.490067 177.17314 20.238795 176.56652 19.98752 175.99022 19.679488 175.44428 19.314694 174.89833 18.949902 174.3932 18.53536 173.92893 18.071068 173.46463 17.606774 173.05008 17.10165 172.68529 16.5557 172.3205 16.00975 172.01247 15.433461 171.7612 14.826834 171.50992 14.220205 171.32024 13.594895 171.19214 12.950903 171.06404 12.30691 171 11.656609 171 11 171 10.34339 171.06404 9.693089 171.19214 9.049096 171.32024 8.405103 171.50992 7.7797925 171.7612 7.173165 172.01247 6.566537 172.3205 5.9902479 172.68529 5.4442975 173.05008 4.8983466 173.46463 4.3932249 173.92893 3.928932 174.3932 3.464639 174.89833 3.050096 175.44428 2.6853035 175.99022 2.3205109 176.56652 2.0124779 177.17314 1.7612045 177.77979 1.509931 178.40509 1.3202453 179.04909 1.1921471 179.69309 1.064049 180.34339 1 181 1 181.6566 1 182.3069 1.0640491 182.95088 1.1921473 183.59487 1.3202453 184.22017 1.5099311 184.8268 1.7612046 185.43343 2.0124779 186.00972 2.3205109 186.55567 2.6853035 187.10163 3.050096 187.60675 3.464639 188.07105 3.928932 188.53533 4.3932249 188.94988 4.8983466 189.31467 5.4442975 189.67946 5.9902479 189.98749 6.566537 190.23876 7.173165 190.49004 7.7797925 190.67974 8.405103 190.80783 9.049096 190.93593 9.693089 190.99999 10.34339 191 11Z" fill="#fff2cc"/>
<path transform="matrix(.719086,0,0,.719086,.359543,.359543)" stroke-width="1" stroke-linecap="butt" stroke-miterlimit="4" stroke-linejoin="miter" fill="none" stroke="#d6b656" d="M191 11C190.99999 11.656609 190.93593 12.30691 190.80783 12.950903 190.67974 13.594895 190.49004 14.220205 190.23876 14.826834 189.98749 15.433461 189.67946 16.00975 189.31467 16.5557 188.94988 17.10165 188.53533 17.606774 188.07105 18.071068 187.60675 18.53536 187.10163 18.949902 186.55567 19.314694 186.00972 19.679488 185.43343 19.98752 184.8268 20.238795 184.22017 20.490067 183.59487 20.679753 182.95088 20.80785 182.3069 20.93595 181.6566 20.999999 181 21 180.34339 20.999999 179.69309 20.93595 179.04909 20.80785 178.40509 20.679753 177.77979 20.490067 177.17314 20.238795 176.56652 19.98752 175.99022 19.679488 175.44428 19.314694 174.89833 18.949902 174.3932 18.53536 173.92893 18.071068 173.46463 17.606774 173.05008 17.10165 172.68529 16.5557 172.3205 16.00975 172.01247 15.433461 171.7612 14.826834 171.50992 14.220205 171.32024 13.594895 171.19214 12.950903 171.06404 12.30691 171 11.656609 171 11 171 10.34339 171.06404 9.693089 171.19214 9.049096 171.32024 8.405103 171.50992 7.7797925 171.7612 7.173165 172.01247 6.566537 172.3205 5.9902479 172.68529 5.4442975 173.05008 4.8983466 173.46463 4.3932249 173.92893 3.928932 174.3932 3.464639 174.89833 3.050096 175.44428 2.6853035 175.99022 2.3205109 176.56652 2.0124779 177.17314 1.7612045 177.77979 1.509931 178.40509 1.3202453 179.04909 1.1921471 179.69309 1.064049 180.34339 1 181 1 181.6566 1 182.3069 1.0640491 182.95088 1.1921473 183.59487 1.3202453 184.22017 1.5099311 184.8268 1.7612046 185.43343 2.0124779 186.00972 2.3205109 186.55567 2.6853035 187.10163 3.050096 187.60675 3.464639 188.07105 3.928932 188.53533 4.3932249 188.94988 4.8983466 189.31467 5.4442975 189.67946 5.9902479 189.98749 6.566537 190.23876 7.173165 190.49004 7.7797925 190.67974 8.405103 190.80783 9.049096 190.93593 9.693089 190.99999 10.34339 191 11Z"/>
<use data-text="M" xlink:href="#font_3_48" transform="matrix(8.629032,0,0,-8.629032,126.559139,11.505376)"/>
<path transform="matrix(.719086,0,0,.719086,.359543,.359543)" d="M341 251.5H338V250.5H341M335 251.5H332V250.5H335M329 251.5H326V250.5H329M323 251.5H320V250.5H323M317 251.5H314V250.5H317M311 251.5H308V250.5H311M305 251.5H302V250.5H305M299 251.5H296V250.5H299M293 251.5H290V250.5H293M287 251.5H284V250.5H287M281 251.5H278V250.5H281M275 251.5H272V250.5H275M269 251.5H266V250.5H269M263 251.5H260V250.5H263M257 251.5H254V250.5H257M251 251.5H248V250.5H251M245 251.5H242V250.5H245M239 251.5H236V250.5H239M233 251.5H230V250.5H233M227 251.5H224V250.5H227M221 251.5H218V250.5H221M215 251.5H212V250.5H215M209 251.5H206V250.5H209M203 251.5H200V250.5H203M197 251.5H194V250.5H197M191 251.5H188V250.5H191M185 251.5H182V250.5H185M179 251.5H176V250.5H179M173 251.5H170V250.5H173M167 251.5H164V250.5H167M161 251.5H158V250.5H161M155 251.5H152V250.5H155M149 251.5H146V250.5H149M143 251.5H140V250.5H143M137 251.5H134V250.5H137M131 251.5H128V250.5H131M125 251.5H122V250.5H125M119 251.5H116V250.5H119M113 251.5H110V250.5H113M107 251.5H104V250.5H107M101 251.5H98V250.5H101M95 251.5H92V250.5H95M89 251.5H86V250.5H89M83 251.5H80V250.5H83M77 251.5H74V250.5H77M71 251.5H68V250.5H71M65 251.5H62V250.5H65M59 251.5H56V250.5H59M53 251.5H50V250.5H53M47 251.5H44V250.5H47M41 251.5H38V250.5H41M35 251.5H32V250.5H35M29 251.5H26V250.5H29M23 251.5H20V250.5H23M17 251.5H14V250.5H17M11 251.5H8V250.5H11M5 251.5H2V250.5H5"/>
<path transform="matrix(.719086,0,0,.719086,.359543,.359543)" d="M341 211.5H338V210.5H341M335 211.5H332V210.5H335M329 211.5H326V210.5H329M323 211.5H320V210.5H323M317 211.5H314V210.5H317M311 211.5H308V210.5H311M305 211.5H302V210.5H305M299 211.5H296V210.5H299M293 211.5H290V210.5H293M287 211.5H284V210.5H287M281 211.5H278V210.5H281M275 211.5H272V210.5H275M269 211.5H266V210.5H269M263 211.5H260V210.5H263M257 211.5H254V210.5H257M251 211.5H248V210.5H251M245 211.5H242V210.5H245M239 211.5H236V210.5H239M233 211.5H230V210.5H233M227 211.5H224V210.5H227M221 211.5H218V210.5H221M215 211.5H212V210.5H215M209 211.5H206V210.5H209M203 211.5H200V210.5H203M197 211.5H194V210.5H197M191 211.5H188V210.5H191M185 211.5H182V210.5H185M179 211.5H176V210.5H179M173 211.5H170V210.5H173M167 211.5H164V210.5H167M161 211.5H158V210.5H161M155 211.5H152V210.5H155M149 211.5H146V210.5H149M143 211.5H140V210.5H143M137 211.5H134V210.5H137M131 211.5H128V210.5H131M125 211.5H122V210.5H125M119 211.5H116V210.5H119M113 211.5H110V210.5H113M107 211.5H104V210.5H107M101 211.5H98V210.5H101M95 211.5H92V210.5H95M89 211.5H86V210.5H89M83 211.5H80V210.5H83M77 211.5H74V210.5H77M71 211.5H68V210.5H71M65 211.5H62V210.5H65M59 211.5H56V210.5H59M53 211.5H50V210.5H53M47 211.5H44V210.5H47M41 211.5H38V210.5H41M35 211.5H32V210.5H35M29 211.5H26V210.5H29M23 211.5H20V210.5H23M17 211.5H14V210.5H17M11 211.5H8V210.5H11M5 211.5H2V210.5H5"/>
<path transform="matrix(.719086,0,0,.719086,.359543,.359543)" d="M341 171.5H338V170.5H341M335 171.5H332V170.5H335M329 171.5H326V170.5H329M323 171.5H320V170.5H323M317 171.5H314V170.5H317M311 171.5H308V170.5H311M305 171.5H302V170.5H305M299 171.5H296V170.5H299M293 171.5H290V170.5H293M287 171.5H284V170.5H287M281 171.5H278V170.5H281M275 171.5H272V170.5H275M269 171.5H266V170.5H269M263 171.5H260V170.5H263M257 171.5H254V170.5H257M251 171.5H248V170.5H251M245 171.5H242V170.5H245M239 171.5H236V170.5H239M233 171.5H230V170.5H233M227 171.5H224V170.5H227M221 171.5H218V170.5H221M215 171.5H212V170.5H215M209 171.5H206V170.5H209M203 171.5H200V170.5H203M197 171.5H194V170.5H197M191 171.5H188V170.5H191M185 171.5H182V170.5H185M179 171.5H176V170.5H179M173 171.5H170V170.5H173M167 171.5H164V170.5H167M161 171.5H158V170.5H161M155 171.5H152V170.5H155M149 171.5H146V170.5H149M143 171.5H140V170.5H143M137 171.5H134V170.5H137M131 171.5H128V170.5H131M125 171.5H122V170.5H125M119 171.5H116V170.5H119M113 171.5H110V170.5H113M107 171.5H104V170.5H107M101 171.5H98V170.5H101M95 171.5H92V170.5H95M89 171.5H86V170.5H89M83 171.5H80V170.5H83M77 171.5H74V170.5H77M71 171.5H68V170.5H71M65 171.5H62V170.5H65M59 171.5H56V170.5H59M53 171.5H50V170.5H53M47 171.5H44V170.5H47M41 171.5H38V170.5H41M35 171.5H32V170.5H35M29 171.5H26V170.5H29M23 171.5H20V170.5H23M17 171.5H14V170.5H17M11 171.5H8V170.5H11M5 171.5H2V170.5H5"/>
<path transform="matrix(.719086,0,0,.719086,.359543,.359543)" stroke-width="1" stroke-linecap="butt" stroke-miterlimit="10" stroke-linejoin="miter" fill="none" stroke="#000000" d="M93.93 58.07 65.5 86.5"/>
<path transform="matrix(.719086,0,0,.719086,.359543,.359543)" d="M61.79 90.21 64.27 82.78 65.5 86.5 69.22 87.73 61.79 90.21Z"/>
<path transform="matrix(.719086,0,0,.719086,.359543,.359543)" stroke-width="1" stroke-linecap="butt" stroke-miterlimit="10" stroke-linejoin="miter" fill="none" stroke="#000000" d="M61.79 90.21 64.27 82.78 65.5 86.5 69.22 87.73 61.79 90.21Z"/>
<path transform="matrix(.719086,0,0,.719086,.359543,.359543)" stroke-width="1" stroke-linecap="butt" stroke-miterlimit="10" stroke-linejoin="miter" fill="none" stroke="#000000" d="M108.07 58.07 136.5 86.5"/>
<path transform="matrix(.719086,0,0,.719086,.359543,.359543)" d="M140.21 90.21 132.78 87.73 136.5 86.5 137.73 82.78 140.21 90.21Z"/>
<path transform="matrix(.719086,0,0,.719086,.359543,.359543)" stroke-width="1" stroke-linecap="butt" stroke-miterlimit="10" stroke-linejoin="miter" fill="none" stroke="#000000" d="M140.21 90.21 132.78 87.73 136.5 86.5 137.73 82.78 140.21 90.21Z"/>
<path transform="matrix(.719086,0,0,.719086,.359543,.359543)" d="M111 51C110.99999 51.656606 110.93594 52.306905 110.80784 52.950899 110.67975 53.59489 110.49006 54.2202 110.238788 54.826826 109.98751 55.433454 109.67948 56.009744 109.3147 56.555696 108.9499 57.101644 108.535358 57.606767 108.07107 58.071065 107.60678 58.535356 107.101657 58.949899 106.5557 59.314687 106.00975 59.67948 105.43346 59.98752 104.82683 60.23879 104.2202 60.490064 103.59489 60.67975 102.9509 60.80785 102.30691 60.935949 101.65661 60.999998 101 61 100.34338 60.999998 99.69308 60.935949 99.04909 60.807847 98.40509 60.67975 97.77978 60.490064 97.17315 60.23879 96.56652 59.98752 95.990238 59.67948 95.44428 59.314687 94.89833 58.949899 94.39321 58.535356 93.928928 58.071065 93.46462 57.606767 93.05008 57.101644 92.685298 56.555696 92.320499 56.009744 92.01247 55.433454 91.7612 54.826826 91.509929 54.2202 91.32024 53.59489 91.19214 52.950899 91.06404 52.306905 90.99999 51.656606 91 51 90.99999 50.343389 91.06404 49.69308 91.19214 49.049089 91.32023 48.405096 91.50992 47.779787 91.76119 47.173158 92.01247 46.56653 92.320499 45.99024 92.68529 45.44429 93.05008 44.898344 93.46462 44.39322 93.928928 43.92893 94.39321 43.464635 94.89833 43.05009 95.44428 42.6853 95.990238 42.320508 96.56653 42.012475 97.17316 41.761205 97.77978 41.509935 98.40509 41.320249 99.04909 41.192148 99.69308 41.06405 100.34338 41 101 41 101.65661 41 102.306919 41.06405 102.950908 41.192148 103.594898 41.320249 104.2202 41.509935 104.82683 41.761205 105.43346 42.012475 106.00975 42.320508 106.55571 42.6853 107.10166 43.05009 107.60678 43.464635 108.07107 43.92893 108.535358 44.39322 108.9499 44.898344 109.31469 45.444295 109.67948 45.990243 109.98751 46.566534 110.238788 47.17316 110.49006 47.779787 110.67975 48.405096 110.807849 49.049089 110.93594 49.69308 110.99999 50.343389 111 51Z" fill="#fff2cc"/>
<path transform="matrix(.719086,0,0,.719086,.359543,.359543)" stroke-width="1" stroke-linecap="butt" stroke-miterlimit="4" stroke-linejoin="miter" fill="none" stroke="#d6b656" d="M111 51C110.99999 51.656606 110.93594 52.306905 110.80784 52.950899 110.67975 53.59489 110.49006 54.2202 110.238788 54.826826 109.98751 55.433454 109.67948 56.009744 109.3147 56.555696 108.9499 57.101644 108.535358 57.606767 108.07107 58.071065 107.60678 58.535356 107.101657 58.949899 106.5557 59.314687 106.00975 59.67948 105.43346 59.98752 104.82683 60.23879 104.2202 60.490064 103.59489 60.67975 102.9509 60.80785 102.30691 60.935949 101.65661 60.999998 101 61 100.34338 60.999998 99.69308 60.935949 99.04909 60.807847 98.40509 60.67975 97.77978 60.490064 97.17315 60.23879 96.56652 59.98752 95.990238 59.67948 95.44428 59.314687 94.89833 58.949899 94.39321 58.535356 93.928928 58.071065 93.46462 57.606767 93.05008 57.101644 92.685298 56.555696 92.320499 56.009744 92.01247 55.433454 91.7612 54.826826 91.509929 54.2202 91.32024 53.59489 91.19214 52.950899 91.06404 52.306905 90.99999 51.656606 91 51 90.99999 50.343389 91.06404 49.69308 91.19214 49.049089 91.32023 48.405096 91.50992 47.779787 91.76119 47.173158 92.01247 46.56653 92.320499 45.99024 92.68529 45.44429 93.05008 44.898344 93.46462 44.39322 93.928928 43.92893 94.39321 43.464635 94.89833 43.05009 95.44428 42.6853 95.990238 42.320508 96.56653 42.012475 97.17316 41.761205 97.77978 41.509935 98.40509 41.320249 99.04909 41.192148 99.69308 41.06405 100.34338 41 101 41 101.65661 41 102.306919 41.06405 102.950908 41.192148 103.594898 41.320249 104.2202 41.509935 104.82683 41.761205 105.43346 42.012475 106.00975 42.320508 106.55571 42.6853 107.10166 43.05009 107.60678 43.464635 108.07107 43.92893 108.535358 44.39322 108.9499 44.898344 109.31469 45.444295 109.67948 45.990243 109.98751 46.566534 110.238788 47.17316 110.49006 47.779787 110.67975 48.405096 110.807849 49.049089 110.93594 49.69308 110.99999 50.343389 111 51Z"/>
<use data-text="E" xlink:href="#font_3_40" transform="matrix(8.629032,0,0,-8.629032,69.740108,40.268815)"/>
<path transform="matrix(.719086,0,0,.719086,.359543,.359543)" d="M41 251 61 91 81 251H41Z" fill="#ff0000"/>
<path transform="matrix(.719086,0,0,.719086,.359543,.359543)" stroke-width="1" stroke-linecap="butt" stroke-miterlimit="10" stroke-linejoin="miter" fill="none" stroke="#666666" d="M41 251 61 91 81 251H41Z"/>
<path transform="matrix(.719086,0,0,.719086,.359543,.359543)" d="M121 211 141 91 161 211H121Z" fill="#00ff00"/>
<path transform="matrix(.719086,0,0,.719086,.359543,.359543)" stroke-width="1" stroke-linecap="butt" stroke-miterlimit="10" stroke-linejoin="miter" fill="none" stroke="#666666" d="M121 211 141 91 161 211H121Z"/>
<path transform="matrix(.719086,0,0,.719086,.359543,.359543)" d="M221 171 261 51 301 171H221Z" fill="#0000ff"/>
<path transform="matrix(.719086,0,0,.719086,.359543,.359543)" stroke-width="1" stroke-linecap="butt" stroke-miterlimit="10" stroke-linejoin="miter" fill="none" stroke="#666666" d="M221 171 261 51 301 171H221Z"/>
<path transform="matrix(.719086,0,0,.719086,.359543,.359543)" stroke-width="1" stroke-linecap="butt" stroke-miterlimit="10" stroke-linejoin="miter" fill="none" stroke="#000000" d="M668.07 58.07 696.5 86.5"/>
<path transform="matrix(.719086,0,0,.719086,.359543,.359543)" d="M700.21 90.21 692.78 87.73 696.5 86.5 697.73 82.78 700.21 90.21Z"/>
<path transform="matrix(.719086,0,0,.719086,.359543,.359543)" stroke-width="1" stroke-linecap="butt" stroke-miterlimit="10" stroke-linejoin="miter" fill="none" stroke="#000000" d="M700.21 90.21 692.78 87.73 696.5 86.5 697.73 82.78 700.21 90.21Z"/>
<path transform="matrix(.719086,0,0,.719086,.359543,.359543)" stroke-width="1" stroke-linecap="butt" stroke-miterlimit="10" stroke-linejoin="miter" fill="none" stroke="#000000" d="M653.93 58.07 625.5 86.5"/>
<path transform="matrix(.719086,0,0,.719086,.359543,.359543)" d="M621.79 90.21 624.27 82.78 625.5 86.5 629.22 87.73 621.79 90.21Z"/>
<path transform="matrix(.719086,0,0,.719086,.359543,.359543)" stroke-width="1" stroke-linecap="butt" stroke-miterlimit="10" stroke-linejoin="miter" fill="none" stroke="#000000" d="M621.79 90.21 624.27 82.78 625.5 86.5 629.22 87.73 621.79 90.21Z"/>
<path transform="matrix(.719086,0,0,.719086,.359543,.359543)" d="M671 51C670.99996 51.656606 670.9359 52.306905 670.8078 52.950899 670.6797 53.59489 670.49 54.2202 670.2388 54.826826 669.9875 55.433454 669.67947 56.009744 669.31466 56.555696 668.9498 57.101644 668.5353 57.606767 668.07107 58.071065 667.60678 58.535356 667.10159 58.949899 666.5556 59.314687 666.00967 59.67948 665.43338 59.98752 664.8267 60.23879 664.2201 60.490064 663.59487 60.67975 662.95089 60.80785 662.3069 60.935949 661.6566 60.999998 661 61 660.3434 60.999998 659.69308 60.935949 659.0491 60.807847 658.4051 60.67975 657.7797 60.490064 657.1731 60.23879 656.56649 59.98752 655.9902 59.67948 655.4442 59.314687 654.89828 58.949899 654.3931 58.535356 653.9289 58.071065 653.4646 57.606767 653.05007 57.101644 652.68527 56.555696 652.32046 56.009744 652.01248 55.433454 651.76119 54.826826 651.5099 54.2202 651.3202 53.59489 651.1921 52.950899 651.064 52.306905 651 51.656606 651 51 651 50.343389 651.064 49.69308 651.1921 49.049089 651.3202 48.405096 651.5099 47.779787 651.76119 47.173158 652.01248 46.56653 652.32046 45.99024 652.68527 45.44429 653.05007 44.898344 653.4646 44.39322 653.9289 43.92893 654.3931 43.464635 654.89828 43.05009 655.4442 42.6853 655.9902 42.320508 656.56649 42.012475 657.1731 41.761205 657.7797 41.509935 658.4051 41.320249 659.0491 41.192148 659.69308 41.06405 660.3434 41 661 41 661.6566 41 662.3069 41.06405 662.95089 41.192148 663.59487 41.320249 664.2201 41.509935 664.8267 41.761205 665.43338 42.012475 666.00967 42.320508 666.5556 42.6853 667.10159 43.05009 667.60678 43.464635 668.07107 43.92893 668.5353 44.39322 668.9498 44.898344 669.31466 45.444295 669.67947 45.990243 669.9875 46.566534 670.2388 47.17316 670.49 47.779787 670.6797 48.405096 670.8078 49.049089 670.9359 49.69308 670.99996 50.343389 671 51Z" fill="#fff2cc"/>
<path transform="matrix(.719086,0,0,.719086,.359543,.359543)" stroke-width="1" stroke-linecap="butt" stroke-miterlimit="4" stroke-linejoin="miter" fill="none" stroke="#d6b656" d="M671 51C670.99996 51.656606 670.9359 52.306905 670.8078 52.950899 670.6797 53.59489 670.49 54.2202 670.2388 54.826826 669.9875 55.433454 669.67947 56.009744 669.31466 56.555696 668.9498 57.101644 668.5353 57.606767 668.07107 58.071065 667.60678 58.535356 667.10159 58.949899 666.5556 59.314687 666.00967 59.67948 665.43338 59.98752 664.8267 60.23879 664.2201 60.490064 663.59487 60.67975 662.95089 60.80785 662.3069 60.935949 661.6566 60.999998 661 61 660.3434 60.999998 659.69308 60.935949 659.0491 60.807847 658.4051 60.67975 657.7797 60.490064 657.1731 60.23879 656.56649 59.98752 655.9902 59.67948 655.4442 59.314687 654.89828 58.949899 654.3931 58.535356 653.9289 58.071065 653.4646 57.606767 653.05007 57.101644 652.68527 56.555696 652.32046 56.009744 652.01248 55.433454 651.76119 54.826826 651.5099 54.2202 651.3202 53.59489 651.1921 52.950899 651.064 52.306905 651 51.656606 651 51 651 50.343389 651.064 49.69308 651.1921 49.049089 651.3202 48.405096 651.5099 47.779787 651.76119 47.173158 652.01248 46.56653 652.32046 45.99024 652.68527 45.44429 653.05007 44.898344 653.4646 44.39322 653.9289 43.92893 654.3931 43.464635 654.89828 43.05009 655.4442 42.6853 655.9902 42.320508 656.56649 42.012475 657.1731 41.761205 657.7797 41.509935 658.4051 41.320249 659.0491 41.192148 659.69308 41.06405 660.3434 41 661 41 661.6566 41 662.3069 41.06405 662.95089 41.192148 663.59487 41.320249 664.2201 41.509935 664.8267 41.761205 665.43338 42.012475 666.00967 42.320508 666.5556 42.6853 667.10159 43.05009 667.60678 43.464635 668.07107 43.92893 668.5353 44.39322 668.9498 44.898344 669.31466 45.444295 669.67947 45.990243 669.9875 46.566534 670.2388 47.17316 670.49 47.779787 670.6797 48.405096 670.8078 49.049089 670.9359 49.69308 670.99996 50.343389 671 51Z"/>
<use data-text="M" xlink:href="#font_3_48" transform="matrix(8.629032,0,0,-8.629032,471.7204,40.268815)"/>
<path transform="matrix(.719086,0,0,.719086,.359543,.359543)" d="M741 251.5H738V250.5H741M735 251.5H732V250.5H735M729 251.5H726V250.5H729M723 251.5H720V250.5H723M717 251.5H714V250.5H717M711 251.5H708V250.5H711M705 251.5H702V250.5H705M699 251.5H696V250.5H699M693 251.5H690V250.5H693M687 251.5H684V250.5H687M681 251.5H678V250.5H681M675 251.5H672V250.5H675M669 251.5H666V250.5H669M663 251.5H660V250.5H663M657 251.5H654V250.5H657M651 251.5H648V250.5H651M645 251.5H642V250.5H645M639 251.5H636V250.5H639M633 251.5H630V250.5H633M627 251.5H624V250.5H627M621 251.5H618V250.5H621M615 251.5H612V250.5H615M609 251.5H606V250.5H609M603 251.5H600V250.5H603M597 251.5H594V250.5H597M591 251.5H588V250.5H591M585 251.5H582V250.5H585M579 251.5H576V250.5H579M573 251.5H570V250.5H573M567 251.5H564V250.5H567M561 251.5H558V250.5H561M555 251.5H552V250.5H555M549 251.5H546V250.5H549M543 251.5H540V250.5H543M537 251.5H534V250.5H537M531 251.5H528V250.5H531M525 251.5H522V250.5H525M519 251.5H516V250.5H519M513 251.5H510V250.5H513M507 251.5H504V250.5H507M501 251.5H498V250.5H501M495 251.5H492V250.5H495M489 251.5H486V250.5H489M483 251.5H480V250.5H483M477 251.5H474V250.5H477M471 251.5H468V250.5H471M465 251.5H462V250.5H465M459 251.5H456V250.5H459M453 251.5H450V250.5H453M447 251.5H444V250.5H447M441 251.5H438V250.5H441M435 251.5H432V250.5H435M429 251.5H426V250.5H429M423 251.5H420V250.5H423M417 251.5H414V250.5H417M411 251.5H408V250.5H411M405 251.5H402V250.5H405"/>
<path transform="matrix(.719086,0,0,.719086,.359543,.359543)" d="M741 211.5H738V210.5H741M735 211.5H732V210.5H735M729 211.5H726V210.5H729M723 211.5H720V210.5H723M717 211.5H714V210.5H717M711 211.5H708V210.5H711M705 211.5H702V210.5H705M699 211.5H696V210.5H699M693 211.5H690V210.5H693M687 211.5H684V210.5H687M681 211.5H678V210.5H681M675 211.5H672V210.5H675M669 211.5H666V210.5H669M663 211.5H660V210.5H663M657 211.5H654V210.5H657M651 211.5H648V210.5H651M645 211.5H642V210.5H645M639 211.5H636V210.5H639M633 211.5H630V210.5H633M627 211.5H624V210.5H627M621 211.5H618V210.5H621M615 211.5H612V210.5H615M609 211.5H606V210.5H609M603 211.5H600V210.5H603M597 211.5H594V210.5H597M591 211.5H588V210.5H591M585 211.5H582V210.5H585M579 211.5H576V210.5H579M573 211.5H570V210.5H573M567 211.5H564V210.5H567M561 211.5H558V210.5H561M555 211.5H552V210.5H555M549 211.5H546V210.5H549M543 211.5H540V210.5H543M537 211.5H534V210.5H537M531 211.5H528V210.5H531M525 211.5H522V210.5H525M519 211.5H516V210.5H519M513 211.5H510V210.5H513M507 211.5H504V210.5H507M501 211.5H498V210.5H501M495 211.5H492V210.5H495M489 211.5H486V210.5H489M483 211.5H480V210.5H483M477 211.5H474V210.5H477M471 211.5H468V210.5H471M465 211.5H462V210.5H465M459 211.5H456V210.5H459M453 211.5H450V210.5H453M447 211.5H444V210.5H447M441 211.5H438V210.5H441M435 211.5H432V210.5H435M429 211.5H426V210.5H429M423 211.5H420V210.5H423M417 211.5H414V210.5H417M411 211.5H408V210.5H411M405 211.5H402V210.5H405"/>
<path transform="matrix(.719086,0,0,.719086,.359543,.359543)" d="M741 171.5H738V170.5H741M735 171.5H732V170.5H735M729 171.5H726V170.5H729M723 171.5H720V170.5H723M717 171.5H714V170.5H717M711 171.5H708V170.5H711M705 171.5H702V170.5H705M699 171.5H696V170.5H699M693 171.5H690V170.5H693M687 171.5H684V170.5H687M681 171.5H678V170.5H681M675 171.5H672V170.5H675M669 171.5H666V170.5H669M663 171.5H660V170.5H663M657 171.5H654V170.5H657M651 171.5H648V170.5H651M645 171.5H642V170.5H645M639 171.5H636V170.5H639M633 171.5H630V170.5H633M627 171.5H624V170.5H627M621 171.5H618V170.5H621M615 171.5H612V170.5H615M609 171.5H606V170.5H609M603 171.5H600V170.5H603M597 171.5H594V170.5H597M591 171.5H588V170.5H591M585 171.5H582V170.5H585M579 171.5H576V170.5H579M573 171.5H570V170.5H573M567 171.5H564V170.5H567M561 171.5H558V170.5H561M555 171.5H552V170.5H555M549 171.5H546V170.5H549M543 171.5H540V170.5H543M537 171.5H534V170.5H537M531 171.5H528V170.5H531M525 171.5H522V170.5H525M519 171.5H516V170.5H519M513 171.5H510V170.5H513M507 171.5H504V170.5H507M501 171.5H498V170.5H501M495 171.5H492V170.5H495M489 171.5H486V170.5H489M483 171.5H480V170.5H483M477 171.5H474V170.5H477M471 171.5H468V170.5H471M465 171.5H462V170.5H465M459 171.5H456V170.5H459M453 171.5H450V170.5H453M447 171.5H444V170.5H447M441 171.5H438V170.5H441M435 171.5H432V170.5H435M429 171.5H426V170.5H429M423 171.5H420V170.5H423M417 171.5H414V170.5H417M411 171.5H408V170.5H411M405 171.5H402V170.5H405"/>
<path transform="matrix(.719086,0,0,.719086,.359543,.359543)" stroke-width="1" stroke-linecap="butt" stroke-miterlimit="10" stroke-linejoin="miter" fill="none" stroke="#000000" d="M551.72 14.71 466.91 48.63"/>
<path transform="matrix(.719086,0,0,.719086,.359543,.359543)" d="M462.04 50.58 467.24 44.74 466.91 48.63 469.84 51.23 462.04 50.58Z"/>
<path transform="matrix(.719086,0,0,.719086,.359543,.359543)" stroke-width="1" stroke-linecap="butt" stroke-miterlimit="10" stroke-linejoin="miter" fill="none" stroke="#000000" d="M462.04 50.58 467.24 44.74 466.91 48.63 469.84 51.23 462.04 50.58Z"/>
<path transform="matrix(.719086,0,0,.719086,.359543,.359543)" stroke-width="1" stroke-linecap="butt" stroke-miterlimit="10" stroke-linejoin="miter" fill="none" stroke="#000000" d="M570.28 14.71 645.8 44.92"/>
<path transform="matrix(.719086,0,0,.719086,.359543,.359543)" d="M650.68 46.87 642.88 47.52 645.8 44.92 645.48 41.02 650.68 46.87Z"/>
<path transform="matrix(.719086,0,0,.719086,.359543,.359543)" stroke-width="1" stroke-linecap="butt" stroke-miterlimit="10" stroke-linejoin="miter" fill="none" stroke="#000000" d="M650.68 46.87 642.88 47.52 645.8 44.92 645.48 41.02 650.68 46.87Z"/>
<path transform="matrix(.719086,0,0,.719086,.359543,.359543)" d="M571 11C570.99996 11.656609 570.9359 12.30691 570.8078 12.950903 570.6797 13.594895 570.49 14.220205 570.2387 14.826834 569.9874 15.433461 569.67947 16.00975 569.31466 16.5557 568.9498 17.10165 568.5353 17.606774 568.071 18.071068 567.6067 18.53536 567.10159 18.949902 566.5556 19.314694 566.00967 19.679488 565.43338 19.98752 564.8267 20.238795 564.2201 20.490067 563.5948 20.679753 562.9508 20.80785 562.3068 20.93595 561.65658 20.999999 561 21 560.3434 20.999999 559.69308 20.93595 559.0491 20.80785 558.4051 20.679753 557.7798 20.490067 557.17318 20.238795 556.5665 19.98752 555.99026 19.679488 555.4443 19.314694 554.8983 18.949902 554.3932 18.53536 553.9289 18.071068 553.4646 17.606774 553.05007 17.10165 552.6853 16.5557 552.3205 16.00975 552.01248 15.433461 551.76119 14.826834 551.5099 14.220205 551.3202 13.594895 551.1921 12.950903 551.06399 12.30691 550.99996 11.656609 551 11 550.99996 10.34339 551.06399 9.693089 551.1921 9.049096 551.3202 8.405103 551.5099 7.7797925 551.76119 7.173165 552.01248 6.566537 552.3205 5.9902479 552.6853 5.4442975 553.05007 4.8983466 553.4646 4.3932249 553.9289 3.928932 554.3932 3.464639 554.8983 3.050096 555.4443 2.6853035 555.99026 2.3205109 556.5665 2.0124779 557.17318 1.7612045 557.7798 1.509931 558.4051 1.3202453 559.0491 1.1921471 559.69308 1.064049 560.3434 1 561 1 561.65658 1 562.3068 1.0640491 562.9508 1.1921473 563.5948 1.3202453 564.2201 1.5099311 564.8267 1.7612046 565.43338 2.0124779 566.00967 2.3205109 566.5556 2.6853035 567.10159 3.050096 567.6067 3.464639 568.071 3.928932 568.5353 4.3932249 568.9498 4.8983466 569.31466 5.4442975 569.67947 5.9902479 569.9874 6.566537 570.2387 7.173165 570.49 7.7797925 570.6797 8.405103 570.8078 9.049096 570.9359 9.693089 570.99996 10.34339 571 11Z" fill="#fff2cc"/>
<path transform="matrix(.719086,0,0,.719086,.359543,.359543)" stroke-width="1" stroke-linecap="butt" stroke-miterlimit="4" stroke-linejoin="miter" fill="none" stroke="#d6b656" d="M571 11C570.99996 11.656609 570.9359 12.30691 570.8078 12.950903 570.6797 13.594895 570.49 14.220205 570.2387 14.826834 569.9874 15.433461 569.67947 16.00975 569.31466 16.5557 568.9498 17.10165 568.5353 17.606774 568.071 18.071068 567.6067 18.53536 567.10159 18.949902 566.5556 19.314694 566.00967 19.679488 565.43338 19.98752 564.8267 20.238795 564.2201 20.490067 563.5948 20.679753 562.9508 20.80785 562.3068 20.93595 561.65658 20.999999 561 21 560.3434 20.999999 559.69308 20.93595 559.0491 20.80785 558.4051 20.679753 557.7798 20.490067 557.17318 20.238795 556.5665 19.98752 555.99026 19.679488 555.4443 19.314694 554.8983 18.949902 554.3932 18.53536 553.9289 18.071068 553.4646 17.606774 553.05007 17.10165 552.6853 16.5557 552.3205 16.00975 552.01248 15.433461 551.76119 14.826834 551.5099 14.220205 551.3202 13.594895 551.1921 12.950903 551.06399 12.30691 550.99996 11.656609 551 11 550.99996 10.34339 551.06399 9.693089 551.1921 9.049096 551.3202 8.405103 551.5099 7.7797925 551.76119 7.173165 552.01248 6.566537 552.3205 5.9902479 552.6853 5.4442975 553.05007 4.8983466 553.4646 4.3932249 553.9289 3.928932 554.3932 3.464639 554.8983 3.050096 555.4443 2.6853035 555.99026 2.3205109 556.5665 2.0124779 557.17318 1.7612045 557.7798 1.509931 558.4051 1.3202453 559.0491 1.1921471 559.69308 1.064049 560.3434 1 561 1 561.65658 1 562.3068 1.0640491 562.9508 1.1921473 563.5948 1.3202453 564.2201 1.5099311 564.8267 1.7612046 565.43338 2.0124779 566.00967 2.3205109 566.5556 2.6853035 567.10159 3.050096 567.6067 3.464639 568.071 3.928932 568.5353 4.3932249 568.9498 4.8983466 569.31466 5.4442975 569.67947 5.9902479 569.9874 6.566537 570.2387 7.173165 570.49 7.7797925 570.6797 8.405103 570.8078 9.049096 570.9359 9.693089 570.99996 10.34339 571 11Z"/>
<use data-text="E" xlink:href="#font_3_40" transform="matrix(8.629032,0,0,-8.629032,400.51966,11.505376)"/>
<path transform="matrix(.719086,0,0,.719086,.359543,.359543)" d="M441 211 461 51 481 211H441Z" fill="#ff0000"/>
<path transform="matrix(.719086,0,0,.719086,.359543,.359543)" stroke-width="1" stroke-linecap="butt" stroke-miterlimit="10" stroke-linejoin="miter" fill="none" stroke="#666666" d="M441 211 461 51 481 211H441Z"/>
<path transform="matrix(.719086,0,0,.719086,.359543,.359543)" d="M601 211 621 91 641 211H601Z" fill="#00ff00"/>
<path transform="matrix(.719086,0,0,.719086,.359543,.359543)" stroke-width="1" stroke-linecap="butt" stroke-miterlimit="10" stroke-linejoin="miter" fill="none" stroke="#666666" d="M601 211 621 91 641 211H601Z"/>
<path transform="matrix(.719086,0,0,.719086,.359543,.359543)" d="M681 211 701 91 721 211H681Z" fill="#0000ff"/>
<path transform="matrix(.719086,0,0,.719086,.359543,.359543)" stroke-width="1" stroke-linecap="butt" stroke-miterlimit="10" stroke-linejoin="miter" fill="none" stroke="#666666" d="M681 211 701 91 721 211H681Z"/>
<path transform="matrix(.719086,0,0,.719086,.359543,.359543)" stroke-width="3" stroke-linecap="butt" stroke-miterlimit="10" stroke-linejoin="miter" fill="none" stroke="#000000" d="M341 121H400.9"/>
<path transform="matrix(.719086,0,0,.719086,.359543,.359543)" d="M407.65 121 398.65 125.5 400.9 121 398.65 116.5 407.65 121Z"/>
<path transform="matrix(.719086,0,0,.719086,.359543,.359543)" stroke-width="3" stroke-linecap="butt" stroke-miterlimit="10" stroke-linejoin="miter" fill="none" stroke="#000000" d="M407.65 121 398.65 125.5 400.9 121 398.65 116.5 407.65 121Z"/>
</g>
</svg>
