<svg xmlns="http://www.w3.org/2000/svg" xmlns:xlink="http://www.w3.org/1999/xlink" xmlns:inkscape="http://www.inkscape.org/namespaces/inkscape" version="1.1" width="286.45704" height="108.95703" viewBox="0 0 286.45704 108.95703">
<g>
<path transform="matrix(1,0,0,-1,0,0)" stroke-width="1" stroke-linecap="butt" stroke-miterlimit="4" stroke-linejoin="miter" fill="none" stroke="#211e1e" d="M8.48-100.477 29.48-52.477 49.5-100.477M107.332-101.227 128.332-53.227 148.352-101.227M29.48-52.477 128.48-8.477 234.48-44.727M186.98-92.645 225.203-60.68M234.98-60.727 235-95.227M244.48-60.477 277.98-100.477M128.48-8.477V-52.477"/>
<path d="M128.48 60.457C132.887 60.457 136.461 56.887 136.461 52.477 136.461 48.07 132.887 44.5 128.48 44.5 124.07 44.5 120.5 48.07 120.5 52.477 120.5 56.887 124.07 60.457 128.48 60.457" fill="#d4eefa"/>
<path transform="matrix(1,0,0,-1,0,0)" stroke-width="1" stroke-linecap="butt" stroke-miterlimit="4" stroke-linejoin="miter" fill="none" stroke="#211e1e" d="M128.48-60.457C132.887-60.457 136.461-56.887 136.461-52.477 136.461-48.07 132.887-44.5 128.48-44.5 124.07-44.5 120.5-48.07 120.5-52.477 120.5-56.887 124.07-60.457 128.48-60.457ZM128.48-60.457"/>
<path d="M29.48 60.457C33.887 60.457 37.461 56.887 37.461 52.477 37.461 48.07 33.887 44.5 29.48 44.5 25.07 44.5 21.5 48.07 21.5 52.477 21.5 56.887 25.07 60.457 29.48 60.457" fill="#d4eefa"/>
<path transform="matrix(1,0,0,-1,0,0)" stroke-width="1" stroke-linecap="butt" stroke-miterlimit="4" stroke-linejoin="miter" fill="none" stroke="#211e1e" d="M29.48-60.457C33.887-60.457 37.461-56.887 37.461-52.477 37.461-48.07 33.887-44.5 29.48-44.5 25.07-44.5 21.5-48.07 21.5-52.477 21.5-56.887 25.07-60.457 29.48-60.457ZM29.48-60.457"/>
<path d="M8.48 108.457C12.887 108.457 16.461 104.887 16.461 100.477 16.461 96.07 12.887 92.5 8.48 92.5 4.07 92.5 .5 96.07 .5 100.477 .5 104.887 4.07 108.457 8.48 108.457" fill="#d4eefa"/>
<path transform="matrix(1,0,0,-1,0,0)" stroke-width="1" stroke-linecap="butt" stroke-miterlimit="4" stroke-linejoin="miter" fill="none" stroke="#211e1e" d="M8.48-108.457C12.887-108.457 16.461-104.887 16.461-100.477 16.461-96.07 12.887-92.5 8.48-92.5 4.07-92.5 .5-96.07 .5-100.477 .5-104.887 4.07-108.457 8.48-108.457ZM8.48-108.457"/>
<path d="M4.617 98.773 4.914 99.133 5.82 98.352V103.305H6.383V97.727H5.883ZM4.617 98.773" fill="#211e1e"/>
<path d="M10.297 98.148C11.469 98.148 11.578 99.586 11.578 100.508 11.578 101.445 11.469 102.883 10.297 102.883 9.141 102.883 9.016 101.445 9.016 100.508 9.016 99.586 9.141 98.148 10.297 98.148ZM10.297 97.664C8.813 97.664 8.469 99.211 8.469 100.508 8.469 101.68 8.703 103.367 10.297 103.367 11.891 103.367 12.141 101.68 12.141 100.508 12.141 99.211 11.797 97.664 10.297 97.664ZM10.297 97.664" fill="#211e1e"/>
<path d="M107.98 108.457C112.387 108.457 115.961 104.887 115.961 100.477 115.961 96.07 112.387 92.5 107.98 92.5 103.57 92.5 100 96.07 100 100.477 100 104.887 103.57 108.457 107.98 108.457" fill="#d4eefa"/>
<path transform="matrix(1,0,0,-1,0,0)" stroke-width="1" stroke-linecap="butt" stroke-miterlimit="4" stroke-linejoin="miter" fill="none" stroke="#211e1e" d="M107.98-108.457C112.387-108.457 115.961-104.887 115.961-100.477 115.961-96.07 112.387-92.5 107.98-92.5 103.57-92.5 100-96.07 100-100.477 100-104.887 103.57-108.457 107.98-108.457ZM107.98-108.457"/>
<path d="M105.367 103.367C106.508 103.367 107.195 102.602 107.195 101.523 107.195 100.133 106.195 99.773 105.445 99.773 104.93 99.773 104.43 99.992 104.148 100.461H104.117C104.117 99.336 104.57 98.117 106.023 98.148 106.336 98.148 106.711 98.211 106.945 98.32L106.992 97.789C106.695 97.727 106.398 97.664 106.086 97.664 104.211 97.664 103.57 99.023 103.57 100.711 103.57 102.023 103.883 103.367 105.367 103.367ZM105.445 100.258C106.227 100.258 106.633 100.742 106.633 101.555 106.633 102.32 106.195 102.883 105.383 102.883 104.555 102.883 104.18 102.18 104.18 101.492 104.18 100.758 104.648 100.258 105.445 100.258ZM105.445 100.258" fill="#211e1e"/>
<path d="M109.797 98.148C110.969 98.148 111.078 99.586 111.078 100.508 111.078 101.445 110.969 102.883 109.797 102.883 108.641 102.883 108.516 101.445 108.516 100.508 108.516 99.586 108.641 98.148 109.797 98.148ZM109.797 97.664C108.313 97.664 107.969 99.211 107.969 100.508 107.969 101.68 108.203 103.367 109.797 103.367 111.391 103.367 111.641 101.68 111.641 100.508 111.641 99.211 111.297 97.664 109.797 97.664ZM109.797 97.664" fill="#211e1e"/>
<path d="M147.98 108.457C152.387 108.457 155.961 104.887 155.961 100.477 155.961 96.07 152.387 92.5 147.98 92.5 143.57 92.5 140 96.07 140 100.477 140 104.887 143.57 108.457 147.98 108.457" fill="#d4eefa"/>
<path transform="matrix(1,0,0,-1,0,0)" stroke-width="1" stroke-linecap="butt" stroke-miterlimit="4" stroke-linejoin="miter" fill="none" stroke="#211e1e" d="M147.98-108.457C152.387-108.457 155.961-104.887 155.961-100.477 155.961-96.07 152.387-92.5 147.98-92.5 143.57-92.5 140-96.07 140-100.477 140-104.887 143.57-108.457 147.98-108.457ZM147.98-108.457"/>
<path d="M144.078 98.961C144.078 99.711 144.609 100.133 145.188 100.398 144.453 100.664 143.906 101.023 143.906 101.867 143.906 102.898 144.875 103.367 145.75 103.367 146.656 103.367 147.609 102.961 147.609 101.867 147.609 100.992 147.047 100.68 146.281 100.398 146.813 100.117 147.422 99.664 147.422 98.961 147.422 98.055 146.625 97.664 145.75 97.664 145.078 97.664 144.078 98.039 144.078 98.961ZM147.063 101.82C147.063 102.586 146.406 102.883 145.75 102.883 145.109 102.883 144.453 102.492 144.453 101.867 144.453 101.102 145.109 100.867 145.75 100.602 146.266 100.867 147.063 101.117 147.063 101.82ZM144.625 99.023C144.625 98.43 145.172 98.148 145.75 98.148 146.281 98.148 146.875 98.43 146.875 99.023 146.875 99.586 146.266 99.945 145.75 100.195 145.297 99.977 144.625 99.664 144.625 99.023ZM144.625 99.023" fill="#211e1e"/>
<path d="M150.199 98.148C151.371 98.148 151.48 99.586 151.48 100.508 151.48 101.445 151.371 102.883 150.199 102.883 149.043 102.883 148.918 101.445 148.918 100.508 148.918 99.586 149.043 98.148 150.199 98.148ZM150.199 97.664C148.715 97.664 148.371 99.211 148.371 100.508 148.371 101.68 148.605 103.367 150.199 103.367 151.793 103.367 152.043 101.68 152.043 100.508 152.043 99.211 151.699 97.664 150.199 97.664ZM150.199 97.664" fill="#211e1e"/>
<path d="M277.98 108.457C282.387 108.457 285.957 104.887 285.957 100.477 285.957 96.07 282.387 92.5 277.98 92.5 273.57 92.5 270 96.07 270 100.477 270 104.887 273.57 108.457 277.98 108.457" fill="#d4eefa"/>
<path transform="matrix(1,0,0,-1,0,0)" stroke-width="1" stroke-linecap="butt" stroke-miterlimit="4" stroke-linejoin="miter" fill="none" stroke="#211e1e" d="M277.98-108.457C282.387-108.457 285.957-104.887 285.957-100.477 285.957-96.07 282.387-92.5 277.98-92.5 273.57-92.5 270-96.07 270-100.477 270-104.887 273.57-108.457 277.98-108.457ZM277.98-108.457"/>
<path d="M272.293 98.773 272.59 99.133 273.496 98.352V103.305H274.059V97.727H273.559ZM272.293 98.773" fill="#211e1e"/>
<path d="M277.988 103.367C279.129 103.367 279.816 102.602 279.816 101.523 279.816 100.133 278.816 99.773 278.066 99.773 277.551 99.773 277.051 99.992 276.77 100.461H276.738C276.738 99.336 277.191 98.117 278.645 98.148 278.957 98.148 279.332 98.211 279.566 98.32L279.613 97.789C279.316 97.727 279.02 97.664 278.707 97.664 276.832 97.664 276.191 99.023 276.191 100.711 276.191 102.023 276.504 103.367 277.988 103.367ZM278.066 100.258C278.848 100.258 279.254 100.742 279.254 101.555 279.254 102.32 278.816 102.883 278.004 102.883 277.176 102.883 276.801 102.18 276.801 101.492 276.801 100.758 277.27 100.258 278.066 100.258ZM278.066 100.258" fill="#211e1e"/>
<path d="M282.422 98.148C283.594 98.148 283.703 99.586 283.703 100.508 283.703 101.445 283.594 102.883 282.422 102.883 281.266 102.883 281.141 101.445 281.141 100.508 281.141 99.586 281.266 98.148 282.422 98.148ZM282.422 97.664C280.938 97.664 280.594 99.211 280.594 100.508 280.594 101.68 280.828 103.367 282.422 103.367 284.016 103.367 284.266 101.68 284.266 100.508 284.266 99.211 283.922 97.664 282.422 97.664ZM282.422 97.664" fill="#211e1e"/>
<path d="M143.5 16.457C147.906 16.457 151.48 12.887 151.48 8.477 151.48 4.07 147.906 .5 143.5 .5H113.461C109.051 .5 105.48 4.07 105.48 8.477 105.48 12.887 109.051 16.457 113.461 16.457H143.5" fill="#d4eefa"/>
<path transform="matrix(1,0,0,-1,0,0)" stroke-width="1" stroke-linecap="butt" stroke-miterlimit="4" stroke-linejoin="miter" fill="none" stroke="#211e1e" d="M143.5-16.457C147.906-16.457 151.48-12.887 151.48-8.477 151.48-4.07 147.906-.5 143.5-.5H113.461C109.051-.5 105.48-4.07 105.48-8.477 105.48-12.887 109.051-16.457 113.461-16.457ZM143.5-16.457"/>
<path d="M250 60.457C254.406 60.457 257.98 56.887 257.98 52.477 257.98 48.07 254.406 44.5 250 44.5H219.957C215.551 44.5 211.98 48.07 211.98 52.477 211.98 56.887 215.551 60.457 219.957 60.457H250" fill="#d4eefa"/>
<path transform="matrix(1,0,0,-1,0,0)" stroke-width="1" stroke-linecap="butt" stroke-miterlimit="4" stroke-linejoin="miter" fill="none" stroke="#211e1e" d="M250-60.457C254.406-60.457 257.98-56.887 257.98-52.477 257.98-48.07 254.406-44.5 250-44.5H219.957C215.551-44.5 211.98-48.07 211.98-52.477 211.98-56.887 215.551-60.457 219.957-60.457ZM250-60.457"/>
<path d="M64.52 108.457C68.926 108.457 72.5 104.887 72.5 100.477 72.5 96.07 68.926 92.5 64.52 92.5H34.48C30.07 92.5 26.5 96.07 26.5 100.477 26.5 104.887 30.07 108.457 34.48 108.457H64.52" fill="#d4eefa"/>
<path transform="matrix(1,0,0,-1,0,0)" stroke-width="1" stroke-linecap="butt" stroke-miterlimit="4" stroke-linejoin="miter" fill="none" stroke="#211e1e" d="M64.52-108.457C68.926-108.457 72.5-104.887 72.5-100.477 72.5-96.07 68.926-92.5 64.52-92.5H34.48C30.07-92.5 26.5-96.07 26.5-100.477 26.5-104.887 30.07-108.457 34.48-108.457ZM64.52-108.457"/>
<path d="M33.234 100.648H33.75C34.344 100.648 35.266 100.742 35.266 101.711 35.266 102.555 34.516 102.883 33.844 102.883 33.438 102.883 32.953 102.82 32.5 102.602L32.438 103.133C32.875 103.305 33.328 103.367 33.813 103.367 34.922 103.367 35.828 102.773 35.828 101.758 35.828 101.008 35.406 100.43 34.656 100.398V100.383C35.344 100.211 35.828 99.727 35.828 99.055 35.828 98.055 34.969 97.664 34.047 97.664 33.578 97.664 33.109 97.773 32.688 97.914L32.75 98.445C33.141 98.258 33.547 98.148 33.984 98.148 34.594 98.148 35.266 98.43 35.266 99.055 35.266 100.086 34.141 100.164 33.375 100.164H33.234ZM33.234 100.648" fill="#211e1e"/>
<path d="M38.699 98.148C39.871 98.148 39.98 99.586 39.98 100.508 39.98 101.445 39.871 102.883 38.699 102.883 37.543 102.883 37.418 101.445 37.418 100.508 37.418 99.586 37.543 98.148 38.699 98.148ZM38.699 97.664C37.215 97.664 36.871 99.211 36.871 100.508 36.871 101.68 37.105 103.367 38.699 103.367 40.293 103.367 40.543 101.68 40.543 100.508 40.543 99.211 40.199 97.664 38.699 97.664ZM38.699 97.664" fill="#211e1e"/>
<path d="M60.914 101.539H58.758L60.898 98.273H60.914ZM58.258 102.023H60.914V103.305H61.477V102.023H62.289V101.539H61.477V97.727H60.773L58.258 101.477ZM58.258 102.023" fill="#211e1e"/>
<path d="M64.738 98.148C65.91 98.148 66.02 99.586 66.02 100.508 66.02 101.445 65.91 102.883 64.738 102.883 63.582 102.883 63.457 101.445 63.457 100.508 63.457 99.586 63.582 98.148 64.738 98.148ZM64.738 97.664C63.254 97.664 62.91 99.211 62.91 100.508 62.91 101.68 63.145 103.367 64.738 103.367 66.332 103.367 66.582 101.68 66.582 100.508 66.582 99.211 66.238 97.664 64.738 97.664ZM64.738 97.664" fill="#211e1e"/>
<path d="M201.02 108.457C205.426 108.457 209 104.887 209 100.477 209 96.07 205.426 92.5 201.02 92.5H170.98C166.57 92.5 163 96.07 163 100.477 163 104.887 166.57 108.457 170.98 108.457H201.02" fill="#d4eefa"/>
<path transform="matrix(1,0,0,-1,0,0)" stroke-width="1" stroke-linecap="butt" stroke-miterlimit="4" stroke-linejoin="miter" fill="none" stroke="#211e1e" d="M201.02-108.457C205.426-108.457 209-104.887 209-100.477 209-96.07 205.426-92.5 201.02-92.5H170.98C166.57-92.5 163-96.07 163-100.477 163-104.887 166.57-108.457 170.98-108.457ZM201.02-108.457"/>
<path d="M167.293 98.773 167.59 99.133 168.496 98.352V103.305H169.059V97.727H168.559ZM167.293 98.773" fill="#211e1e"/>
<path d="M172.973 98.148C174.145 98.148 174.254 99.586 174.254 100.508 174.254 101.445 174.145 102.883 172.973 102.883 171.816 102.883 171.691 101.445 171.691 100.508 171.691 99.586 171.816 98.148 172.973 98.148ZM172.973 97.664C171.488 97.664 171.145 99.211 171.145 100.508 171.145 101.68 171.379 103.367 172.973 103.367 174.566 103.367 174.816 101.68 174.816 100.508 174.816 99.211 174.473 97.664 172.973 97.664ZM172.973 97.664" fill="#211e1e"/>
<path d="M177.422 98.148C178.594 98.148 178.703 99.586 178.703 100.508 178.703 101.445 178.594 102.883 177.422 102.883 176.266 102.883 176.141 101.445 176.141 100.508 176.141 99.586 176.266 98.148 177.422 98.148ZM177.422 97.664C175.938 97.664 175.594 99.211 175.594 100.508 175.594 101.68 175.828 103.367 177.422 103.367 179.016 103.367 179.266 101.68 179.266 100.508 179.266 99.211 178.922 97.664 177.422 97.664ZM177.422 97.664" fill="#211e1e"/>
<path d="M193.332 98.773 193.629 99.133 194.535 98.352V103.305H195.098V97.727H194.598ZM193.332 98.773" fill="#211e1e"/>
<path d="M197.781 98.773 198.078 99.133 198.984 98.352V103.305H199.547V97.727H199.047ZM197.781 98.773" fill="#211e1e"/>
<path d="M203.461 98.148C204.633 98.148 204.742 99.586 204.742 100.508 204.742 101.445 204.633 102.883 203.461 102.883 202.305 102.883 202.18 101.445 202.18 100.508 202.18 99.586 202.305 98.148 203.461 98.148ZM203.461 97.664C201.977 97.664 201.633 99.211 201.633 100.508 201.633 101.68 201.867 103.367 203.461 103.367 205.055 103.367 205.305 101.68 205.305 100.508 205.305 99.211 204.961 97.664 203.461 97.664ZM203.461 97.664" fill="#211e1e"/>
<path d="M250.52 108.457C254.926 108.457 258.5 104.887 258.5 100.477 258.5 96.07 254.926 92.5 250.52 92.5H220.48C216.07 92.5 212.5 96.07 212.5 100.477 212.5 104.887 216.07 108.457 220.48 108.457H250.52" fill="#d4eefa"/>
<path transform="matrix(1,0,0,-1,0,0)" stroke-width="1" stroke-linecap="butt" stroke-miterlimit="4" stroke-linejoin="miter" fill="none" stroke="#211e1e" d="M250.52-108.457C254.926-108.457 258.5-104.887 258.5-100.477 258.5-96.07 254.926-92.5 250.52-92.5H220.48C216.07-92.5 212.5-96.07 212.5-100.477 212.5-104.887 216.07-108.457 220.48-108.457ZM250.52-108.457"/>
<path d="M216.793 98.773 217.09 99.133 217.996 98.352V103.305H218.559V97.727H218.059ZM216.793 98.773" fill="#211e1e"/>
<path d="M221.457 100.648H221.973C222.566 100.648 223.488 100.742 223.488 101.711 223.488 102.555 222.738 102.883 222.066 102.883 221.66 102.883 221.176 102.82 220.723 102.602L220.66 103.133C221.098 103.305 221.551 103.367 222.035 103.367 223.145 103.367 224.051 102.773 224.051 101.758 224.051 101.008 223.629 100.43 222.879 100.398V100.383C223.566 100.211 224.051 99.727 224.051 99.055 224.051 98.055 223.191 97.664 222.27 97.664 221.801 97.664 221.332 97.773 220.91 97.914L220.973 98.445C221.363 98.258 221.77 98.148 222.207 98.148 222.816 98.148 223.488 98.43 223.488 99.055 223.488 100.086 222.363 100.164 221.598 100.164H221.457ZM221.457 100.648" fill="#211e1e"/>
<path d="M226.922 98.148C228.094 98.148 228.203 99.586 228.203 100.508 228.203 101.445 228.094 102.883 226.922 102.883 225.766 102.883 225.641 101.445 225.641 100.508 225.641 99.586 225.766 98.148 226.922 98.148ZM226.922 97.664C225.438 97.664 225.094 99.211 225.094 100.508 225.094 101.68 225.328 103.367 226.922 103.367 228.516 103.367 228.766 101.68 228.766 100.508 228.766 99.211 228.422 97.664 226.922 97.664ZM226.922 97.664" fill="#211e1e"/>
<path d="M242.832 98.773 243.129 99.133 244.035 98.352V103.305H244.598V97.727H244.098ZM242.832 98.773" fill="#211e1e"/>
<path d="M249.141 101.539H246.984L249.125 98.273H249.141ZM246.484 102.023H249.141V103.305H249.703V102.023H250.516V101.539H249.703V97.727H249L246.484 101.477ZM246.484 102.023" fill="#211e1e"/>
<path d="M252.961 98.148C254.133 98.148 254.242 99.586 254.242 100.508 254.242 101.445 254.133 102.883 252.961 102.883 251.805 102.883 251.68 101.445 251.68 100.508 251.68 99.586 251.805 98.148 252.961 98.148ZM252.961 97.664C251.477 97.664 251.133 99.211 251.133 100.508 251.133 101.68 251.367 103.367 252.961 103.367 254.555 103.367 254.805 101.68 254.805 100.508 254.805 99.211 254.461 97.664 252.961 97.664ZM252.961 97.664" fill="#211e1e"/>
<path d="M125.141 55.305H125.75L127.906 50.195V49.727H124.5V50.195H127.359ZM125.141 55.305" fill="#211e1e"/>
<path d="M130.699 50.148C131.871 50.148 131.98 51.586 131.98 52.508 131.98 53.445 131.871 54.883 130.699 54.883 129.543 54.883 129.418 53.445 129.418 52.508 129.418 51.586 129.543 50.148 130.699 50.148ZM130.699 49.664C129.215 49.664 128.871 51.211 128.871 52.508 128.871 53.68 129.105 55.367 130.699 55.367 132.293 55.367 132.543 53.68 132.543 52.508 132.543 51.211 132.199 49.664 130.699 49.664ZM130.699 49.664" fill="#211e1e"/>
<path d="M25.133 55.305H28.477V54.82H25.805L26.82 53.727C27.539 52.93 28.352 51.961 28.352 51.133 28.352 50.117 27.633 49.664 26.742 49.664 26.273 49.664 25.742 49.836 25.32 50.039L25.43 50.539C25.867 50.289 26.258 50.148 26.773 50.148 27.32 50.148 27.758 50.555 27.758 51.148 27.758 51.836 27.086 52.664 26.414 53.414L25.133 54.82ZM25.133 55.305" fill="#211e1e"/>
<path d="M31.395 50.148C32.566 50.148 32.676 51.586 32.676 52.508 32.676 53.445 32.566 54.883 31.395 54.883 30.238 54.883 30.113 53.445 30.113 52.508 30.113 51.586 30.238 50.148 31.395 50.148ZM31.395 49.664C29.91 49.664 29.566 51.211 29.566 52.508 29.566 53.68 29.801 55.367 31.395 55.367 32.988 55.367 33.238 53.68 33.238 52.508 33.238 51.211 32.895 49.664 31.395 49.664ZM31.395 49.664" fill="#211e1e"/>
<path d="M114.664 5.727H111.82L111.758 8.523C112.164 8.414 112.492 8.352 112.961 8.352 113.914 8.352 114.367 8.758 114.367 9.617 114.367 10.492 113.617 10.883 112.883 10.883 112.492 10.883 112.055 10.789 111.695 10.586V11.164C112.07 11.305 112.492 11.367 112.883 11.367 114.086 11.367 114.914 10.742 114.914 9.508 114.914 8.477 114.242 7.867 113.164 7.867 112.742 7.867 112.508 7.93 112.32 7.992L112.367 6.195H114.664ZM114.664 5.727" fill="#211e1e"/>
<path d="M117.672 6.148C118.844 6.148 118.953 7.586 118.953 8.508 118.953 9.445 118.844 10.883 117.672 10.883 116.516 10.883 116.391 9.445 116.391 8.508 116.391 7.586 116.516 6.148 117.672 6.148ZM117.672 5.664C116.188 5.664 115.844 7.211 115.844 8.508 115.844 9.68 116.078 11.367 117.672 11.367 119.266 11.367 119.516 9.68 119.516 8.508 119.516 7.211 119.172 5.664 117.672 5.664ZM117.672 5.664" fill="#211e1e"/>
<path d="M139.266 5.664C138.125 5.664 137.438 6.414 137.438 7.508 137.438 8.883 138.438 9.242 139.172 9.242 139.688 9.242 140.203 9.039 140.484 8.555H140.5C140.5 9.695 140.063 10.898 138.609 10.883 138.281 10.883 137.922 10.805 137.688 10.711L137.641 11.227C137.938 11.305 138.234 11.367 138.531 11.367 140.422 11.367 141.063 10.008 141.063 8.32 141.063 7.008 140.75 5.664 139.266 5.664ZM139.172 8.773C138.406 8.773 137.984 8.273 137.984 7.461 137.984 6.711 138.438 6.148 139.25 6.148 140.078 6.148 140.453 6.836 140.453 7.523 140.453 8.258 139.969 8.773 139.172 8.773ZM139.172 8.773" fill="#211e1e"/>
<path d="M143.715 6.148C144.887 6.148 144.996 7.586 144.996 8.508 144.996 9.445 144.887 10.883 143.715 10.883 142.559 10.883 142.434 9.445 142.434 8.508 142.434 7.586 142.559 6.148 143.715 6.148ZM143.715 5.664C142.23 5.664 141.887 7.211 141.887 8.508 141.887 9.68 142.121 11.367 143.715 11.367 145.309 11.367 145.559 9.68 145.559 8.508 145.559 7.211 145.215 5.664 143.715 5.664ZM143.715 5.664" fill="#211e1e"/>
<path d="M216.262 50.773 216.559 51.133 217.465 50.352V55.305H218.027V49.727H217.527ZM216.262 50.773" fill="#211e1e"/>
<path d="M220.133 55.305H223.477V54.82H220.805L221.82 53.727C222.539 52.93 223.352 51.961 223.352 51.133 223.352 50.117 222.633 49.664 221.742 49.664 221.273 49.664 220.742 49.836 220.32 50.039L220.43 50.539C220.867 50.289 221.258 50.148 221.773 50.148 222.32 50.148 222.758 50.555 222.758 51.148 222.758 51.836 222.086 52.664 221.414 53.414L220.133 54.82ZM220.133 55.305" fill="#211e1e"/>
<path d="M226.395 50.148C227.566 50.148 227.676 51.586 227.676 52.508 227.676 53.445 227.566 54.883 226.395 54.883 225.238 54.883 225.113 53.445 225.113 52.508 225.113 51.586 225.238 50.148 226.395 50.148ZM226.395 49.664C224.91 49.664 224.566 51.211 224.566 52.508 224.566 53.68 224.801 55.367 226.395 55.367 227.988 55.367 228.238 53.68 228.238 52.508 228.238 51.211 227.895 49.664 226.395 49.664ZM226.395 49.664" fill="#211e1e"/>
<path d="M242.305 50.773 242.602 51.133 243.508 50.352V55.305H244.07V49.727H243.57ZM242.305 50.773" fill="#211e1e"/>
<path d="M249.422 49.727H246.578L246.516 52.523C246.922 52.414 247.25 52.352 247.719 52.352 248.672 52.352 249.125 52.758 249.125 53.617 249.125 54.492 248.375 54.883 247.641 54.883 247.25 54.883 246.813 54.789 246.453 54.586V55.164C246.828 55.305 247.25 55.367 247.641 55.367 248.844 55.367 249.672 54.742 249.672 53.508 249.672 52.477 249 51.867 247.922 51.867 247.5 51.867 247.266 51.93 247.078 51.992L247.125 50.195H249.422ZM249.422 49.727" fill="#211e1e"/>
<path d="M252.434 50.148C253.605 50.148 253.715 51.586 253.715 52.508 253.715 53.445 253.605 54.883 252.434 54.883 251.277 54.883 251.152 53.445 251.152 52.508 251.152 51.586 251.277 50.148 252.434 50.148ZM252.434 49.664C250.949 49.664 250.605 51.211 250.605 52.508 250.605 53.68 250.84 55.367 252.434 55.367 254.027 55.367 254.277 53.68 254.277 52.508 254.277 51.211 253.934 49.664 252.434 49.664ZM252.434 49.664" fill="#211e1e"/>
</g>
</svg>
