<?xml version="1.0" encoding="UTF-8" standalone="no"?>
<!-- Created with Inkscape (http://www.inkscape.org/) -->

<svg
   version="1.1"
   id="svg1"
   width="156.61867"
   height="133.30267"
   viewBox="0 0 156.61867 133.30267"
   sodipodi:docname="tree-complete.svg"
   inkscape:version="1.4 (86a8ad7, 2024-10-11)"
   xmlns:inkscape="http://www.inkscape.org/namespaces/inkscape"
   xmlns:sodipodi="http://sodipodi.sourceforge.net/DTD/sodipodi-0.dtd"
   xmlns="http://www.w3.org/2000/svg"
   xmlns:svg="http://www.w3.org/2000/svg">
  <defs
     id="defs1" />
  <sodipodi:namedview
     id="namedview1"
     pagecolor="#ffffff"
     bordercolor="#000000"
     borderopacity="0.25"
     inkscape:showpageshadow="2"
     inkscape:pageopacity="0.0"
     inkscape:pagecheckerboard="0"
     inkscape:deskcolor="#d1d1d1"
     inkscape:zoom="5.9863764"
     inkscape:cx="78.344556"
     inkscape:cy="66.651338"
     inkscape:window-width="1920"
     inkscape:window-height="991"
     inkscape:window-x="1911"
     inkscape:window-y="-9"
     inkscape:window-maximized="1"
     inkscape:current-layer="g1">
    <inkscape:page
       x="0"
       y="0"
       inkscape:label="35"
       id="page1"
       width="156.61867"
       height="133.30267"
       margin="0"
       bleed="0" />
  </sodipodi:namedview>
  <g
     id="g1"
     inkscape:groupmode="layer"
     inkscape:label="35">
    <path
       id="path1"
       d="M -7.16801,-7.16801 -20.897,-20.897"
       style="fill:none;stroke:#000000;stroke-width:0.3985;stroke-linecap:butt;stroke-linejoin:miter;stroke-miterlimit:10;stroke-dasharray:none;stroke-opacity:1"
       transform="matrix(1.3333333,0,0,-1.3333333,87.758667,9.9586667)" />
    <path
       id="path2"
       d="M -2.07224,2.39104 C -1.69365,0.95639 -0.84999,0.27895 0,0 -0.84999,-0.27895 -1.69365,-0.95639 -2.07224,-2.39104"
       style="fill:none;stroke:#000000;stroke-width:0.3985;stroke-linecap:round;stroke-linejoin:round;stroke-miterlimit:10;stroke-dasharray:none;stroke-opacity:1"
       transform="matrix(-0.9428,0.9428,0.9428,0.9428,59.708147,38.009187)" />
    <path
       id="path3"
       d="M 7.16801,-7.16801 20.897,-20.897"
       style="fill:none;stroke:#000000;stroke-width:0.3985;stroke-linecap:butt;stroke-linejoin:miter;stroke-miterlimit:10;stroke-dasharray:none;stroke-opacity:1"
       transform="matrix(1.3333333,0,0,-1.3333333,87.758667,9.9586667)" />
    <path
       id="path4"
       d="M -2.07224,2.39104 C -1.69365,0.95639 -0.84999,0.27895 0,0 -0.84999,-0.27895 -1.69365,-0.95639 -2.07224,-2.39104"
       style="fill:none;stroke:#000000;stroke-width:0.3985;stroke-linecap:round;stroke-linejoin:round;stroke-miterlimit:10;stroke-dasharray:none;stroke-opacity:1"
       transform="matrix(0.9428,0.9428,0.9428,-0.9428,115.80919,38.009187)" />
    <path
       id="path5"
       d="M -31.9308,-35.51482 -38.758,-49.16917"
       style="fill:none;stroke:#000000;stroke-width:0.3985;stroke-linecap:butt;stroke-linejoin:miter;stroke-miterlimit:10;stroke-dasharray:none;stroke-opacity:1"
       transform="matrix(1.3333333,0,0,-1.3333333,87.758667,9.9586667)" />
    <path
       id="path6"
       d="M -2.07224,2.39104 C -1.69365,0.95639 -0.84999,0.27895 0,0 -0.84999,-0.27895 -1.69365,-0.95639 -2.07224,-2.39104"
       style="fill:none;stroke:#000000;stroke-width:0.3985;stroke-linecap:round;stroke-linejoin:round;stroke-miterlimit:10;stroke-dasharray:none;stroke-opacity:1"
       transform="matrix(-0.59622667,1.19248,1.19248,0.59622667,35.962547,75.75516)" />
    <path
       id="path7"
       d="m -24.76279,-35.51482 6.82718,-13.65435"
       style="fill:none;stroke:#000000;stroke-width:0.3985;stroke-linecap:butt;stroke-linejoin:miter;stroke-miterlimit:10;stroke-dasharray:none;stroke-opacity:1"
       transform="matrix(1.3333333,0,0,-1.3333333,87.758667,9.9586667)" />
    <path
       id="path8"
       d="M -2.07224,2.39104 C -1.69365,0.95639 -0.84999,0.27895 0,0 -0.84999,-0.27895 -1.69365,-0.95639 -2.07224,-2.39104"
       style="fill:none;stroke:#000000;stroke-width:0.3985;stroke-linecap:round;stroke-linejoin:round;stroke-miterlimit:10;stroke-dasharray:none;stroke-opacity:1"
       transform="matrix(0.59622667,1.19248,1.19248,-0.59622667,63.96332,75.75516)" />
    <path
       id="path9"
       d="M 24.76279,-35.51482 17.93561,-49.16917"
       style="fill:none;stroke:#000000;stroke-width:0.3985;stroke-linecap:butt;stroke-linejoin:miter;stroke-miterlimit:10;stroke-dasharray:none;stroke-opacity:1"
       transform="matrix(1.3333333,0,0,-1.3333333,87.758667,9.9586667)" />
    <path
       id="path10"
       d="M -2.07224,2.39104 C -1.69365,0.95639 -0.84999,0.27895 0,0 -0.84999,-0.27895 -1.69365,-0.95639 -2.07224,-2.39104"
       style="fill:none;stroke:#000000;stroke-width:0.3985;stroke-linecap:round;stroke-linejoin:round;stroke-miterlimit:10;stroke-dasharray:none;stroke-opacity:1"
       transform="matrix(-0.59622667,1.19248,1.19248,0.59622667,111.55401,75.75516)" />
    <path
       id="path11"
       d="M 31.9308,-35.51482 38.758,-49.16917"
       style="fill:none;stroke:#000000;stroke-width:0.3985;stroke-linecap:butt;stroke-linejoin:miter;stroke-miterlimit:10;stroke-dasharray:none;stroke-opacity:1"
       transform="matrix(1.3333333,0,0,-1.3333333,87.758667,9.9586667)" />
    <path
       id="path12"
       d="M -2.07224,2.39104 C -1.69365,0.95639 -0.84999,0.27895 0,0 -0.84999,-0.27895 -1.69365,-0.95639 -2.07224,-2.39104"
       style="fill:none;stroke:#000000;stroke-width:0.3985;stroke-linecap:round;stroke-linejoin:round;stroke-miterlimit:10;stroke-dasharray:none;stroke-opacity:1"
       transform="matrix(0.59622667,1.19248,1.19248,-0.59622667,139.55479,75.75516)" />
    <path
       id="path13"
       d="M -46.10422,-63.86163 -52.9314,-77.51599"
       style="fill:none;stroke:#000000;stroke-width:0.3985;stroke-linecap:butt;stroke-linejoin:miter;stroke-miterlimit:10;stroke-dasharray:none;stroke-opacity:1"
       transform="matrix(1.3333333,0,0,-1.3333333,87.758667,9.9586667)" />
    <path
       id="path14"
       d="M -2.07224,2.39104 C -1.69365,0.95639 -0.84999,0.27895 0,0 -0.84999,-0.27895 -1.69365,-0.95639 -2.07224,-2.39104"
       style="fill:none;stroke:#000000;stroke-width:0.3985;stroke-linecap:round;stroke-linejoin:round;stroke-miterlimit:10;stroke-dasharray:none;stroke-opacity:1"
       transform="matrix(-0.59622667,1.19248,1.19248,0.59622667,17.064667,113.55089)" />
    <path
       id="path15"
       d="m -38.9362,-63.86163 6.82719,-13.65436"
       style="fill:none;stroke:#000000;stroke-width:0.3985;stroke-linecap:butt;stroke-linejoin:miter;stroke-miterlimit:10;stroke-dasharray:none;stroke-opacity:1"
       transform="matrix(1.3333333,0,0,-1.3333333,87.758667,9.9586667)" />
    <path
       id="path16"
       d="M -2.07224,2.39104 C -1.69365,0.95639 -0.84999,0.27895 0,0 -0.84999,-0.27895 -1.69365,-0.95639 -2.07224,-2.39104"
       style="fill:none;stroke:#000000;stroke-width:0.3985;stroke-linecap:round;stroke-linejoin:round;stroke-miterlimit:10;stroke-dasharray:none;stroke-opacity:1"
       transform="matrix(0.59622667,1.19248,1.19248,-0.59622667,45.065467,113.55089)" />
    <path
       id="path17"
       d="m 4.4649453,-9.375e-4 0.6679688,-3.1523437 c 0.234375,-1.1132813 -0.3984375,-1.875 -1.40625,-1.875 -0.703125,0 -1.2304688,0.1757812 -1.8046875,0.46875 l -0.09375,0.7148437 C 2.4844766,-4.243125 3.0586953,-4.38375 3.5860391,-4.38375 c 0.515625,0 0.8671875,0.4335938 0.6914062,1.2421875 l -0.09375,0.46875 C 2.5430703,-2.649375 1.0547891,-2.1923437 0.85557031,-1.2314062 0.75010156,-0.76265625 0.86728906,0.11625 1.8165078,0.11625 c 0.1523438,0 1.171875,-0.0234375 1.9101563,-0.515625 L 3.6446328,-9.375e-4 Z M 3.9141641,-1.4423437 c -0.035156,0.2109375 -0.09375,0.4804687 -0.515625,0.6914062 -0.3515625,0.19921875 -0.7734375,0.19921875 -0.890625,0.19921875 -0.5273438,0 -0.9609375,-0.24609375 -0.8671875,-0.70312495 0.1640625,-0.7617188 1.9453125,-0.84375 2.4140625,-0.8671875 z m 0,0"
       style="fill:#000000;fill-opacity:1;fill-rule:nonzero;stroke:none"
       aria-label="a"
       transform="matrix(1.3333333,0,0,1.3333333,81.105333,12.22)" />
    <path
       id="path18"
       d="m 3.9025156,-2.5432109 c 0,-0.8554688 -0.09375,-1.3710938 -0.3515625,-1.875 -0.3515625,-0.703125 -0.9960937,-0.8789063 -1.4414062,-0.8789063 -0.9960938,0 -1.37109377,0.75 -1.47656252,0.9726563 -0.29296875,0.5742187 -0.3046875,1.3710937 -0.3046875,1.78125 0,0.5273437 0.0234375,1.3359375 0.41015625,1.96874996 0.36328127,0.5859375 0.94921877,0.73828125 1.37109377,0.73828125 0.3867187,0 1.0664062,-0.1171875 1.4648437,-0.90234375 0.2929688,-0.57421876 0.328125,-1.28906246 0.328125,-1.80468746 z m -1.7929687,2.48437496 c -0.2695313,0 -0.8203125,-0.12890625 -0.984375,-0.96093746 -0.09375,-0.4570313 -0.09375,-1.2070313 -0.09375,-1.6171875 0,-0.5507813 0,-1.1132813 0.09375,-1.546875 0.1640625,-0.8085938 0.7851562,-0.890625 0.984375,-0.890625 0.2695312,0 0.8203125,0.1289062 0.984375,0.8554687 0.09375,0.4453125 0.09375,1.0429688 0.09375,1.5820313 0,0.46875 0,1.1835937 -0.09375,1.6289062 -0.1640625,0.84375001 -0.7148438,0.94921876 -0.984375,0.94921876 z m 0,0"
       style="fill:#000000;fill-opacity:1;fill-rule:nonzero;stroke:none"
       aria-label="0"
       transform="matrix(1.3333333,0,0,1.3333333,88.101333,14.402667)" />
    <path
       id="path19"
       d="M 4.4642891,-2.8125e-4 5.1322578,-3.152625 c 0.234375,-1.1132812 -0.3984375,-1.875 -1.40625,-1.875 -0.703125,0 -1.2304687,0.1757813 -1.8046875,0.46875 l -0.09375,0.7148438 c 0.65625,-0.3984375 1.2304688,-0.5390625 1.7578125,-0.5390625 0.515625,0 0.8671875,0.4335937 0.6914063,1.2421875 l -0.09375,0.46875 c -1.640625,0.023437 -3.1289063,0.4804687 -3.32812504,1.4414062 -0.10546875,0.46875 0.0117188,1.34765625 0.96093754,1.34765625 0.1523437,0 1.171875,-0.0234375 1.9101562,-0.515625 l -0.082031,0.3984375 z M 3.9135078,-1.4416875 c -0.035156,0.2109375 -0.09375,0.48046875 -0.515625,0.69140625 -0.3515625,0.19921875 -0.7734375,0.19921875 -0.890625,0.19921875 -0.5273437,0 -0.9609375,-0.24609375 -0.8671875,-0.703125 0.1640625,-0.7617187 1.9453125,-0.84375 2.4140625,-0.8671875 z m 0,0"
       style="fill:#000000;fill-opacity:1;fill-rule:nonzero;stroke:none"
       aria-label="a"
       transform="matrix(1.3333333,0,0,1.3333333,43.309333,50.016)" />
    <path
       id="path20"
       d="m 2.5092578,-5.0728047 c 0,-0.2226562 -0.023437,-0.2226562 -0.234375,-0.2226562 -0.328125,0.3164062 -0.75,0.5039062 -1.51171874,0.5039062 v 0.2695313 c 0.22265625,0 0.64453124,0 1.11328124,-0.2226563 v 4.08984376 c 0,0.29296875 -0.023437,0.3984375 -0.7851562,0.3984375 H 0.81003906 v 0.2578125 c 0.32812504,-0.0234375 1.01953124,-0.0234375 1.37109374,-0.0234375 0.3632813,0 1.0546875,0 1.3828125,0.0234375 v -0.2578125 h -0.28125 c -0.75,0 -0.7734375,-0.10546875 -0.7734375,-0.3984375 z m 0,0"
       style="fill:#000000;fill-opacity:1;fill-rule:nonzero;stroke:none"
       aria-label="1"
       transform="matrix(1.3333333,0,0,1.3333333,50.306667,52.197333)" />
    <path
       id="path21"
       d="M 4.4636719,-2.8125e-4 5.1316406,-3.152625 c 0.234375,-1.1132812 -0.3984375,-1.875 -1.40625,-1.875 -0.703125,0 -1.2304687,0.1757813 -1.8046875,0.46875 l -0.09375,0.7148438 c 0.65625,-0.3984375 1.2304688,-0.5390625 1.7578125,-0.5390625 0.515625,0 0.8671875,0.4335937 0.6914063,1.2421875 l -0.09375,0.46875 c -1.640625,0.023437 -3.1289063,0.4804687 -3.32812503,1.4414062 -0.10546875,0.46875 0.0117188,1.34765625 0.96093753,1.34765625 0.1523437,0 1.171875,-0.0234375 1.9101562,-0.515625 l -0.082031,0.3984375 z M 3.9128906,-1.4416875 c -0.035156,0.2109375 -0.09375,0.48046875 -0.515625,0.69140625 -0.3515625,0.19921875 -0.7734375,0.19921875 -0.890625,0.19921875 -0.5273437,0 -0.9609375,-0.24609375 -0.8671875,-0.703125 0.1640625,-0.7617187 1.9453125,-0.84375 2.4140625,-0.8671875 z m 0,0"
       style="fill:#000000;fill-opacity:1;fill-rule:nonzero;stroke:none"
       aria-label="a"
       transform="matrix(1.3333333,0,0,1.3333333,118.9,50.016)" />
    <path
       id="path22"
       d="m 2.2508281,-1.6274922 c 0.1289063,-0.1171875 0.4570313,-0.375 0.5859375,-0.4921875 0.4921875,-0.4570312 0.9609375,-0.890625 0.9609375,-1.6171875 0,-0.9492187 -0.796875,-1.5585937 -1.7929687,-1.5585937 -0.9492188,0 -1.58203128,0.7265625 -1.58203128,1.4296875 0,0.3984375 0.31640625,0.4453125 0.421875,0.4453125 0.16406248,0 0.41015628,-0.1171875 0.41015628,-0.421875 0,-0.4101563 -0.39843753,-0.4101563 -0.49218753,-0.4101563 0.234375,-0.5859375 0.77343753,-0.7851562 1.16015623,-0.7851562 0.7382813,0 1.125,0.6328125 1.125,1.3007812 0,0.8320313 -0.5859375,1.4296875 -1.5234375,2.4023438 l -1.00781248,1.03124996 c -0.09375,0.09375 -0.09375,0.10546875 -0.09375,0.3046875 H 3.5750469 L 3.7977031,-1.4282734 H 3.5516094 c -0.023437,0.1640625 -0.082031,0.56249996 -0.1757813,0.71484371 -0.046875,0.0585938 -0.65625,0.0585938 -0.7851562,0.0585938 H 1.1727031 Z m 0,0"
       style="fill:#000000;fill-opacity:1;fill-rule:nonzero;stroke:none"
       aria-label="2"
       transform="matrix(1.3333333,0,0,1.3333333,125.89733,52.197333)" />
    <path
       id="path23"
       d="m 4.4634609,0.001375 0.6679688,-3.1523438 c 0.234375,-1.1132812 -0.3984375,-1.875 -1.40625,-1.875 -0.703125,0 -1.2304688,0.1757813 -1.8046875,0.46875 l -0.09375,0.7148438 c 0.65625,-0.3984375 1.2304687,-0.5390625 1.7578125,-0.5390625 0.515625,0 0.8671875,0.4335937 0.6914062,1.2421875 l -0.09375,0.46875 c -1.640625,0.023437 -3.1289062,0.4804687 -3.32812496,1.4414062 -0.10546875,0.46875005 0.0117188,1.3476563 0.96093746,1.3476563 0.1523438,0 1.171875,-0.0234375 1.9101563,-0.515625 L 3.6431484,0.001375 Z M 3.9126797,-1.4400313 c -0.035156,0.2109375 -0.09375,0.4804688 -0.515625,0.6914063 -0.3515625,0.19921875 -0.7734375,0.19921875 -0.890625,0.19921875 -0.5273438,0 -0.9609375,-0.24609375 -0.8671875,-0.70312505 0.1640625,-0.7617187 1.9453125,-0.84375 2.4140625,-0.8671875 z m 0,0"
       style="fill:#000000;fill-opacity:1;fill-rule:nonzero;stroke:none"
       aria-label="a"
       transform="matrix(1.3333333,0,0,1.3333333,24.412,87.810667)" />
    <path
       id="path24"
       d="m 2.0143125,-2.6610156 c 0.6328125,0 1.03125,0.4570312 1.03125,1.3007812 0,0.99609378 -0.5742188,1.28906253 -0.9960938,1.28906253 -0.4335937,0 -1.03125,-0.1640625 -1.31249995,-0.5859375 0.29296875,0 0.49218745,-0.17578125 0.49218745,-0.44531253 0,-0.2578125 -0.1875,-0.4335937 -0.44531245,-0.4335937 -0.2109375,0 -0.43359375,0.1289062 -0.43359375,0.4570312 0,0.75000003 0.8085937,1.24218753 1.7226562,1.24218753 1.0546875,0 1.7929688,-0.7265625 1.7929688,-1.52343753 0,-0.6679687 -0.515625,-1.265625 -1.3359375,-1.4414062 C 3.16275,-3.0242969 3.6315,-3.5750781 3.6315,-4.2078906 c 0,-0.6328125 -0.7148438,-1.0898438 -1.546875,-1.0898438 -0.8554688,0 -1.5,0.4570313 -1.5,1.0664063 0,0.2929687 0.19921875,0.421875 0.41015625,0.421875 0.24609375,0 0.41015625,-0.1757813 0.41015625,-0.4101563 0,-0.2929687 -0.2578125,-0.3984375 -0.43359375,-0.4101562 0.33984375,-0.4335938 0.94921875,-0.46875 1.08984375,-0.46875 0.2109375,0 0.8085937,0.070312 0.8085937,0.890625 0,0.5625 -0.2226562,0.890625 -0.3398437,1.0195312 -0.234375,0.2460938 -0.421875,0.2578125 -0.9023438,0.2929688 -0.1523437,0.011719 -0.2226562,0.023437 -0.2226562,0.1171875 0,0.1171875 0.070312,0.1171875 0.2109375,0.1171875 z m 0,0"
       style="fill:#000000;fill-opacity:1;fill-rule:nonzero;stroke:none"
       aria-label="3"
       transform="matrix(1.3333333,0,0,1.3333333,31.408,89.993333)" />
    <path
       id="path25"
       d="m 4.4641172,0.001375 0.6679687,-3.1523438 c 0.234375,-1.1132812 -0.3984375,-1.875 -1.40625,-1.875 -0.703125,0 -1.2304687,0.1757813 -1.8046875,0.46875 l -0.09375,0.7148438 c 0.65625,-0.3984375 1.2304688,-0.5390625 1.7578125,-0.5390625 0.515625,0 0.8671875,0.4335937 0.6914063,1.2421875 l -0.09375,0.46875 c -1.640625,0.023437 -3.1289063,0.4804687 -3.32812501,1.4414062 -0.10546875,0.46875005 0.0117188,1.3476563 0.96093751,1.3476563 0.1523437,0 1.171875,-0.0234375 1.9101562,-0.515625 L 3.6438047,0.001375 Z M 3.9133359,-1.4400313 c -0.035156,0.2109375 -0.09375,0.4804688 -0.515625,0.6914063 -0.3515625,0.19921875 -0.7734375,0.19921875 -0.890625,0.19921875 -0.5273437,0 -0.9609375,-0.24609375 -0.8671875,-0.70312505 0.1640625,-0.7617187 1.9453125,-0.84375 2.4140625,-0.8671875 z m 0,0"
       style="fill:#000000;fill-opacity:1;fill-rule:nonzero;stroke:none"
       aria-label="a"
       transform="matrix(1.3333333,0,0,1.3333333,62.208,87.810667)" />
    <path
       id="path26"
       d="m 3.1399687,-5.1571094 c 0,-0.1640625 0,-0.2226562 -0.1640625,-0.2226562 -0.1054687,0 -0.1171875,0.011719 -0.1992187,0.1171875 l -2.54296875,3.6914062 v 0.2578125 H 2.4837187 v 0.66796878 c 0,0.29296875 -0.023437,0.38671875 -0.6328125,0.38671875 h -0.1875 V -8.59375e-4 C 2.3430937,-0.02429687 2.3548125,-0.02429687 2.8118437,-0.02429687 c 0.4570313,0 0.46875,0 1.1484375,0.023437495 V -0.25867187 h -0.1875 c -0.609375,0 -0.6328125,-0.09375 -0.6328125,-0.38671875 V -1.3133594 h 0.84375 v -0.2578125 h -0.84375 z m -0.5976562,0.6445313 v 2.9414062 H 0.51496875 Z m 0,0"
       style="fill:#000000;fill-opacity:1;fill-rule:nonzero;stroke:none"
       aria-label="4"
       transform="matrix(1.3333333,0,0,1.3333333,69.204,89.993333)" />
    <path
       id="path27"
       d="m 4.4657734,0.001375 0.6679688,-3.1523438 c 0.234375,-1.1132812 -0.3984375,-1.875 -1.40625,-1.875 -0.703125,0 -1.2304688,0.1757813 -1.8046875,0.46875 l -0.09375,0.7148438 c 0.65625,-0.3984375 1.2304687,-0.5390625 1.7578125,-0.5390625 0.515625,0 0.8671875,0.4335937 0.6914062,1.2421875 l -0.09375,0.46875 c -1.640625,0.023437 -3.1289062,0.4804687 -3.32812496,1.4414062 -0.10546875,0.46875005 0.0117188,1.3476563 0.96093746,1.3476563 0.1523438,0 1.171875,-0.0234375 1.9101563,-0.515625 L 3.6454609,0.001375 Z M 3.9149922,-1.4400313 c -0.035156,0.2109375 -0.09375,0.4804688 -0.515625,0.6914063 -0.3515625,0.19921875 -0.7734375,0.19921875 -0.890625,0.19921875 -0.5273438,0 -0.9609375,-0.24609375 -0.8671875,-0.70312505 0.1640625,-0.7617187 1.9453125,-0.84375 2.4140625,-0.8671875 z m 0,0"
       style="fill:#000000;fill-opacity:1;fill-rule:nonzero;stroke:none"
       aria-label="a"
       transform="matrix(1.3333333,0,0,1.3333333,100.00267,87.810667)" />
    <path
       id="path28"
       d="m 1.1142812,-4.4774219 c 0.1054688,0.035156 0.421875,0.1054688 0.7617188,0.1054688 0.9960937,0 1.59375,-0.6914063 1.59375,-0.8203125 0,-0.082031 -0.046875,-0.1054688 -0.09375,-0.1054688 -0.011719,0 -0.023437,0 -0.1054688,0.035156 -0.3046875,0.1171875 -0.6679687,0.2226562 -1.1015625,0.2226562 -0.46875,0 -0.8554687,-0.1289062 -1.1132812,-0.2226562 -0.0703125,-0.035156 -0.09375,-0.035156 -0.09375,-0.035156 -0.10546875,0 -0.10546875,0.082031 -0.10546875,0.234375 v 2.3320313 c 0,0.140625 0,0.234375 0.12890625,0.234375 0.0585937,0 0.0820312,-0.035156 0.1289062,-0.09375 0.09375,-0.1171875 0.3984375,-0.5273438 1.0664063,-0.5273438 0.4453125,0 0.6679687,0.3632813 0.7382812,0.515625 0.1289063,0.2929688 0.1523438,0.65625 0.1523438,0.9726563 0,0.2929687 -0.011719,0.71484373 -0.234375,1.06640623 -0.1523438,0.24609375 -0.46875,0.4921875 -0.890625,0.4921875 -0.515625,0 -1.03125,-0.328125 -1.20703125,-0.84375 0.0234375,0 0.0703125,0 0.0703125,0 0.22265625,0 0.39843745,-0.14062503 0.39843745,-0.38671873 0,-0.2929688 -0.2226562,-0.3984375 -0.3867187,-0.3984375 -0.140625,0 -0.3984375,0.082031 -0.3984375,0.421875 0,0.71484373 0.6210937,1.44140623 1.5351562,1.44140623 0.9960938,0 1.8398438,-0.7734375 1.8398438,-1.75781253 0,-0.9257812 -0.6679688,-1.7460937 -1.6054688,-1.7460937 -0.3984375,0 -0.7734375,0.1289062 -1.078125,0.3984375 z m 0,0"
       style="fill:#000000;fill-opacity:1;fill-rule:nonzero;stroke:none"
       aria-label="5"
       transform="matrix(1.3333333,0,0,1.3333333,106.99867,89.993333)" />
    <path
       id="path29"
       d="m 4.4635,0.001375 0.6679687,-3.1523438 c 0.234375,-1.1132812 -0.3984375,-1.875 -1.40625,-1.875 -0.703125,0 -1.2304687,0.1757813 -1.8046875,0.46875 l -0.09375,0.7148438 c 0.65625,-0.3984375 1.2304688,-0.5390625 1.7578125,-0.5390625 0.515625,0 0.8671875,0.4335937 0.6914063,1.2421875 L 4.18225,-2.6705 c -1.640625,0.023437 -3.1289063,0.4804687 -3.328125,1.4414062 -0.10546875,0.46875005 0.0117188,1.3476563 0.9609375,1.3476563 0.1523437,0 1.171875,-0.0234375 1.9101562,-0.515625 L 3.6431875,0.001375 Z M 3.9127187,-1.4400313 c -0.035156,0.2109375 -0.09375,0.4804688 -0.515625,0.6914063 -0.3515625,0.19921875 -0.7734375,0.19921875 -0.890625,0.19921875 -0.5273437,0 -0.9609375,-0.24609375 -0.8671875,-0.70312505 0.1640625,-0.7617187 1.9453125,-0.84375 2.4140625,-0.8671875 z m 0,0"
       style="fill:#000000;fill-opacity:1;fill-rule:nonzero;stroke:none"
       aria-label="a"
       transform="matrix(1.3333333,0,0,1.3333333,137.79867,87.810667)" />
    <path
       id="path30"
       d="m 1.1002891,-2.6375781 c 0,-0.6679688 0.058594,-1.2421875 0.3398437,-1.734375 0.234375,-0.3984375 0.6445313,-0.7265625 1.1484375,-0.7265625 0.1640625,0 0.5273438,0.035156 0.7148438,0.3046875 -0.3632813,0.023437 -0.3984375,0.2929687 -0.3984375,0.375 0,0.2460937 0.1875,0.375 0.375,0.375 0.140625,0 0.375,-0.082031 0.375,-0.3867188 0,-0.4804687 -0.3515625,-0.8671875 -1.078125,-0.8671875 -1.1015625,0 -2.22656254,1.0546875 -2.22656254,2.765625 0,2.16796878 1.00781254,2.69531253 1.78125004,2.69531253 0.375,0 0.796875,-0.10546875 1.1484375,-0.4453125 0.3164062,-0.3046875 0.5859375,-0.64453125 0.5859375,-1.33593753 0,-1.0429687 -0.7851563,-1.78125 -1.6640625,-1.78125 -0.5742188,0 -0.9257813,0.375 -1.1015625,0.7617188 z m 1.03125,2.56640623 c -0.421875,0 -0.6914063,-0.29296875 -0.8085938,-0.515625 -0.1875,-0.36328125 -0.1992187,-0.90234373 -0.1992187,-1.20703123 0,-0.7851563 0.4335937,-1.3828125 1.0429687,-1.3828125 0.3984375,0 0.6328125,0.2109375 0.7851563,0.4921875 0.1757812,0.2929687 0.1757812,0.65625 0.1757812,1.0546875 0,0.4101562 0,0.76171873 -0.1640625,1.04296873 -0.2109375,0.375 -0.4921875,0.515625 -0.8320312,0.515625 z m 0,0"
       style="fill:#000000;fill-opacity:1;fill-rule:nonzero;stroke:none"
       aria-label="6"
       transform="matrix(1.3333333,0,0,1.3333333,144.79467,89.993333)" />
    <path
       id="path31"
       d="M 4.4655625,-8.984375e-4 5.1335312,-3.1532422 c 0.234375,-1.1132812 -0.3984375,-1.875 -1.40625,-1.875 -0.703125,0 -1.2304687,0.1757813 -1.8046875,0.46875 l -0.09375,0.7148438 c 0.65625,-0.3984375 1.2304688,-0.5390625 1.7578125,-0.5390625 0.515625,0 0.8671875,0.4335937 0.6914063,1.2421875 l -0.09375,0.46875 c -1.640625,0.023437 -3.1289063,0.4804687 -3.328125,1.4414062 -0.10546875,0.46875001 0.0117188,1.34765626 0.9609375,1.34765626 0.1523437,0 1.171875,-0.0234375 1.9101562,-0.515625 L 3.64525,-8.984375e-4 Z M 3.9147812,-1.4423047 c -0.035156,0.2109375 -0.09375,0.48046876 -0.515625,0.69140626 -0.3515625,0.19921875 -0.7734375,0.19921875 -0.890625,0.19921875 -0.5273437,0 -0.9609375,-0.24609375 -0.8671875,-0.70312501 0.1640625,-0.7617187 1.9453125,-0.84375 2.4140625,-0.8671875 z m 0,0"
       style="fill:#000000;fill-opacity:1;fill-rule:nonzero;stroke:none"
       aria-label="a"
       transform="matrix(1.3333333,0,0,1.3333333,5.5146667,125.60667)" />
    <path
       id="path32"
       d="m 4.0320391,-4.8507656 c 0.070312,-0.09375 0.070312,-0.1054688 0.070312,-0.28125 H 2.0750078 c -0.1992187,0 -0.4453125,-0.011719 -0.6445312,-0.023437 -0.4101563,-0.035156 -0.421875,-0.1054688 -0.44531254,-0.234375 H 0.73907031 l -0.26953125,1.6875 h 0.24609375 c 0.0234375,-0.1171875 0.10546875,-0.6679688 0.22265625,-0.7382813 0.0820312,-0.035156 0.67968754,-0.035156 0.79687504,-0.035156 h 1.6875 l -0.8203125,1.1015625 c -0.9023438,1.2070312 -1.0898438,2.46093748 -1.0898438,3.09374998 0,0.0820313 0,0.4453125 0.3632813,0.4453125 0.375,0 0.375,-0.3515625 0.375,-0.4453125 v -0.38671875 c 0,-1.14843753 0.1992187,-2.08593753 0.5859375,-2.60156253 z m 0,0"
       style="fill:#000000;fill-opacity:1;fill-rule:nonzero;stroke:none"
       aria-label="7"
       transform="matrix(1.3333333,0,0,1.3333333,12.510667,127.788)" />
    <path
       id="path33"
       d="M 4.4642891,-8.984375e-4 5.1322578,-3.1532422 c 0.234375,-1.1132812 -0.3984375,-1.875 -1.40625,-1.875 -0.703125,0 -1.2304687,0.1757813 -1.8046875,0.46875 l -0.09375,0.7148438 c 0.65625,-0.3984375 1.2304688,-0.5390625 1.7578125,-0.5390625 0.515625,0 0.8671875,0.4335937 0.6914063,1.2421875 l -0.09375,0.46875 c -1.640625,0.023437 -3.1289063,0.4804687 -3.32812504,1.4414062 -0.10546875,0.46875001 0.0117188,1.34765626 0.96093754,1.34765626 0.1523437,0 1.171875,-0.0234375 1.9101562,-0.515625 L 3.6439766,-8.984375e-4 Z M 3.9135078,-1.4423047 c -0.035156,0.2109375 -0.09375,0.48046876 -0.515625,0.69140626 -0.3515625,0.19921875 -0.7734375,0.19921875 -0.890625,0.19921875 -0.5273437,0 -0.9609375,-0.24609375 -0.8671875,-0.70312501 0.1640625,-0.7617187 1.9453125,-0.84375 2.4140625,-0.8671875 z m 0,0"
       style="fill:#000000;fill-opacity:1;fill-rule:nonzero;stroke:none"
       aria-label="a"
       transform="matrix(1.3333333,0,0,1.3333333,43.309333,125.60667)" />
    <path
       id="path34"
       d="m 2.6498828,-2.8702969 c 0.4453125,-0.2226562 0.984375,-0.6210937 0.984375,-1.2421875 0,-0.75 -0.7734375,-1.1835937 -1.5117187,-1.1835937 -0.84375,0 -1.53515629,0.5742187 -1.53515629,1.3242187 0,0.3046875 0.10546875,0.5742188 0.3046875,0.796875 0.14062499,0.1757813 0.16406249,0.1875 0.66796879,0.5039063 -0.99609379,0.4335937 -1.20703129,1.0195312 -1.20703129,1.4648437 0,0.86718753 0.87890629,1.37109378 1.75781249,1.37109378 0.9726563,0 1.7578125,-0.65625 1.7578125,-1.49999998 0,-0.5039063 -0.2695312,-0.84375 -0.3984375,-0.9726563 -0.1289062,-0.1289062 -0.140625,-0.140625 -0.8203125,-0.5625 z m -1.2421875,-0.75 c -0.2226562,-0.140625 -0.42187499,-0.375 -0.42187499,-0.6445312 0,-0.5039063 0.55078129,-0.8320313 1.12499999,-0.8320313 0.6210938,0 1.125,0.4335938 1.125,0.984375 0,0.46875 -0.3632812,0.8554688 -0.8320312,1.0898438 z m 0.3984375,1.0898438 c 0.023437,0.011719 0.9375,0.5742187 1.0664063,0.65625 0.1289062,0.070312 0.5507812,0.328125 0.5507812,0.8085937 0,0.60937503 -0.6445312,0.99609378 -1.3007812,0.99609378 -0.7148438,0 -1.31250004,-0.4921875 -1.31250004,-1.13671878 0,-0.5976562 0.44531254,-1.0664062 0.99609374,-1.3242187 z m 0,0"
       style="fill:#000000;fill-opacity:1;fill-rule:nonzero;stroke:none"
       aria-label="8"
       transform="matrix(1.3333333,0,0,1.3333333,50.306667,127.788)" />
  </g>
</svg>
