<svg xmlns="http://www.w3.org/2000/svg" xmlns:xlink="http://www.w3.org/1999/xlink" xmlns:inkscape="http://www.inkscape.org/namespaces/inkscape" version="1.1" width="256.26564" height="88.08594" viewBox="0 0 256.26564 88.08594">
<defs>
<clipPath id="clip_1">
<path d="M233.547 64.984H256.266V88.086H233.547Z"/>
</clipPath>
<clipPath id="clip_2">
<path d="M0 0H257V89H0Z"/>
</clipPath>
</defs>
<g>
<path transform="matrix(1,0,0,-1,0,0)" stroke-width="1" stroke-linecap="butt" stroke-miterlimit="4" stroke-linejoin="miter" fill="none" stroke="#211e1e" d="M112.5-82.605 70.5-44.605 18.375-72.105M221.828-44.605 154.199-8.605 70.5-44.605M247.785-79.605 231.848-44.605M211.805-44.605 195.867-79.605M221.828-44.605V-79.605"/>
<path d="M28.52 87.586C32.926 87.586 36.5 84.012 36.5 79.605 36.5 75.199 32.926 71.625 28.52 71.625H8.48C4.07 71.625 .5 75.199 .5 79.605 .5 84.012 4.07 87.586 8.48 87.586H28.52" fill="#d4eefa"/>
<path transform="matrix(1,0,0,-1,0,0)" stroke-width="1" stroke-linecap="butt" stroke-miterlimit="4" stroke-linejoin="miter" fill="none" stroke="#211e1e" d="M28.52-87.586C32.926-87.586 36.5-84.012 36.5-79.605 36.5-75.199 32.926-71.625 28.52-71.625H8.48C4.07-71.625 .5-75.199 .5-79.605 .5-84.012 4.07-87.586 8.48-87.586ZM28.52-87.586"/>
<path d="M7.016 77.898 7.313 78.258 8.219 77.477V82.43H8.781V76.852H8.281ZM7.016 77.898" fill="#211e1e"/>
<path d="M12.699 77.273C13.871 77.273 13.98 78.711 13.98 79.633 13.98 80.57 13.871 82.008 12.699 82.008 11.543 82.008 11.418 80.57 11.418 79.633 11.418 78.711 11.543 77.273 12.699 77.273ZM12.699 76.789C11.215 76.789 10.871 78.336 10.871 79.633 10.871 80.805 11.105 82.492 12.699 82.492 14.293 82.492 14.543 80.805 14.543 79.633 14.543 78.336 14.199 76.789 12.699 76.789ZM12.699 76.789" fill="#211e1e"/>
<path d="M22.477 82.43H25.82V81.945H23.148L24.164 80.852C24.883 80.055 25.695 79.086 25.695 78.258 25.695 77.242 24.977 76.789 24.086 76.789 23.617 76.789 23.086 76.961 22.664 77.164L22.773 77.664C23.211 77.414 23.602 77.273 24.117 77.273 24.664 77.273 25.102 77.68 25.102 78.273 25.102 78.961 24.43 79.789 23.758 80.539L22.477 81.945ZM22.477 82.43" fill="#211e1e"/>
<path d="M28.738 77.273C29.91 77.273 30.02 78.711 30.02 79.633 30.02 80.57 29.91 82.008 28.738 82.008 27.582 82.008 27.457 80.57 27.457 79.633 27.457 78.711 27.582 77.273 28.738 77.273ZM28.738 76.789C27.254 76.789 26.91 78.336 26.91 79.633 26.91 80.805 27.145 82.492 28.738 82.492 30.332 82.492 30.582 80.805 30.582 79.633 30.582 78.336 30.238 76.789 28.738 76.789ZM28.738 76.789" fill="#211e1e"/>
<path d="M221.828 87.586C226.23 87.586 229.805 84.012 229.805 79.605 229.805 75.199 226.23 71.625 221.828 71.625 217.418 71.625 213.848 75.199 213.848 79.605 213.848 84.012 217.418 87.586 221.828 87.586" fill="#d4eefa"/>
<path transform="matrix(1,0,0,-1,0,0)" stroke-width="1" stroke-linecap="butt" stroke-miterlimit="4" stroke-linejoin="miter" fill="none" stroke="#211e1e" d="M221.828-87.586C226.23-87.586 229.805-84.012 229.805-79.605 229.805-75.199 226.23-71.625 221.828-71.625 217.418-71.625 213.848-75.199 213.848-79.605 213.848-84.012 217.418-87.586 221.828-87.586ZM221.828-87.586"/>
<path d="M217.523 78.086C217.523 78.836 218.055 79.258 218.633 79.523 217.898 79.789 217.352 80.148 217.352 80.992 217.352 82.023 218.32 82.492 219.195 82.492 220.102 82.492 221.055 82.086 221.055 80.992 221.055 80.117 220.492 79.805 219.727 79.523 220.258 79.242 220.867 78.789 220.867 78.086 220.867 77.18 220.07 76.789 219.195 76.789 218.523 76.789 217.523 77.164 217.523 78.086ZM220.508 80.945C220.508 81.711 219.852 82.008 219.195 82.008 218.555 82.008 217.898 81.617 217.898 80.992 217.898 80.227 218.555 79.992 219.195 79.727 219.711 79.992 220.508 80.242 220.508 80.945ZM218.07 78.148C218.07 77.555 218.617 77.273 219.195 77.273 219.727 77.273 220.32 77.555 220.32 78.148 220.32 78.711 219.711 79.07 219.195 79.32 218.742 79.102 218.07 78.789 218.07 78.148ZM218.07 78.148" fill="#211e1e"/>
<path d="M223.645 77.273C224.816 77.273 224.926 78.711 224.926 79.633 224.926 80.57 224.816 82.008 223.645 82.008 222.488 82.008 222.363 80.57 222.363 79.633 222.363 78.711 222.488 77.273 223.645 77.273ZM223.645 76.789C222.16 76.789 221.816 78.336 221.816 79.633 221.816 80.805 222.051 82.492 223.645 82.492 225.238 82.492 225.488 80.805 225.488 79.633 225.488 78.336 225.145 76.789 223.645 76.789ZM223.645 76.789" fill="#211e1e"/>
<path d="M231.848 52.586C236.254 52.586 239.828 49.012 239.828 44.605 239.828 40.199 236.254 36.625 231.848 36.625H211.805C207.398 36.625 203.828 40.199 203.828 44.605 203.828 49.012 207.398 52.586 211.805 52.586H231.848" fill="#d4eefa"/>
<path transform="matrix(1,0,0,-1,0,0)" stroke-width="1" stroke-linecap="butt" stroke-miterlimit="4" stroke-linejoin="miter" fill="none" stroke="#211e1e" d="M231.848-52.586C236.254-52.586 239.828-49.012 239.828-44.605 239.828-40.199 236.254-36.625 231.848-36.625H211.805C207.398-36.625 203.828-40.199 203.828-44.605 203.828-49.012 207.398-52.586 211.805-52.586ZM231.848-52.586"/>
<path d="M210.469 47.43H211.078L213.234 42.32V41.852H209.828V42.32H212.688ZM210.469 47.43" fill="#211e1e"/>
<path d="M216.023 42.273C217.195 42.273 217.305 43.711 217.305 44.633 217.305 45.57 217.195 47.008 216.023 47.008 214.867 47.008 214.742 45.57 214.742 44.633 214.742 43.711 214.867 42.273 216.023 42.273ZM216.023 41.789C214.539 41.789 214.195 43.336 214.195 44.633 214.195 45.805 214.43 47.492 216.023 47.492 217.617 47.492 217.867 45.805 217.867 44.633 217.867 43.336 217.523 41.789 216.023 41.789ZM216.023 41.789" fill="#211e1e"/>
<path d="M227.617 41.789C226.477 41.789 225.789 42.539 225.789 43.633 225.789 45.008 226.789 45.367 227.523 45.367 228.039 45.367 228.555 45.164 228.836 44.68H228.852C228.852 45.82 228.414 47.023 226.961 47.008 226.633 47.008 226.273 46.93 226.039 46.836L225.992 47.352C226.289 47.43 226.586 47.492 226.883 47.492 228.773 47.492 229.414 46.133 229.414 44.445 229.414 43.133 229.102 41.789 227.617 41.789ZM227.523 44.898C226.758 44.898 226.336 44.398 226.336 43.586 226.336 42.836 226.789 42.273 227.602 42.273 228.43 42.273 228.805 42.961 228.805 43.648 228.805 44.383 228.32 44.898 227.523 44.898ZM227.523 44.898" fill="#211e1e"/>
<path d="M232.066 42.273C233.238 42.273 233.348 43.711 233.348 44.633 233.348 45.57 233.238 47.008 232.066 47.008 230.91 47.008 230.785 45.57 230.785 44.633 230.785 43.711 230.91 42.273 232.066 42.273ZM232.066 41.789C230.582 41.789 230.238 43.336 230.238 44.633 230.238 45.805 230.473 47.492 232.066 47.492 233.66 47.492 233.91 45.805 233.91 44.633 233.91 43.336 233.566 41.789 232.066 41.789ZM232.066 41.789" fill="#211e1e"/>
<path d="M195.867 87.586C200.273 87.586 203.848 84.012 203.848 79.605 203.848 75.199 200.273 71.625 195.867 71.625 191.457 71.625 187.887 75.199 187.887 79.605 187.887 84.012 191.457 87.586 195.867 87.586" fill="#d4eefa"/>
<path transform="matrix(1,0,0,-1,0,0)" stroke-width="1" stroke-linecap="butt" stroke-miterlimit="4" stroke-linejoin="miter" fill="none" stroke="#211e1e" d="M195.867-87.586C200.273-87.586 203.848-84.012 203.848-79.605 203.848-75.199 200.273-71.625 195.867-71.625 191.457-71.625 187.887-75.199 187.887-79.605 187.887-84.012 191.457-87.586 195.867-87.586ZM195.867-87.586"/>
<path d="M193.254 82.492C194.395 82.492 195.082 81.727 195.082 80.648 195.082 79.258 194.082 78.898 193.332 78.898 192.816 78.898 192.316 79.117 192.035 79.586H192.004C192.004 78.461 192.457 77.242 193.91 77.273 194.223 77.273 194.598 77.336 194.832 77.445L194.879 76.914C194.582 76.852 194.285 76.789 193.973 76.789 192.098 76.789 191.457 78.148 191.457 79.836 191.457 81.148 191.77 82.492 193.254 82.492ZM193.332 79.383C194.113 79.383 194.52 79.867 194.52 80.68 194.52 81.445 194.082 82.008 193.27 82.008 192.441 82.008 192.066 81.305 192.066 80.617 192.066 79.883 192.535 79.383 193.332 79.383ZM193.332 79.383" fill="#211e1e"/>
<path d="M197.684 77.273C198.855 77.273 198.965 78.711 198.965 79.633 198.965 80.57 198.855 82.008 197.684 82.008 196.527 82.008 196.402 80.57 196.402 79.633 196.402 78.711 196.527 77.273 197.684 77.273ZM197.684 76.789C196.199 76.789 195.855 78.336 195.855 79.633 195.855 80.805 196.09 82.492 197.684 82.492 199.277 82.492 199.527 80.805 199.527 79.633 199.527 78.336 199.184 76.789 197.684 76.789ZM197.684 76.789" fill="#211e1e"/>
<path d="M247.785 87.586C252.191 87.586 255.766 84.012 255.766 79.605 255.766 75.199 252.191 71.625 247.785 71.625 243.379 71.625 239.805 75.199 239.805 79.605 239.805 84.012 243.379 87.586 247.785 87.586" fill="#d4eefa"/>
<g clip-path="url(#clip_1)">
<g clip-path="url(#clip_2)">
<path transform="matrix(1,0,0,-1,0,0)" stroke-width="1" stroke-linecap="butt" stroke-miterlimit="4" stroke-linejoin="miter" fill="none" stroke="#211e1e" d="M247.785-87.586C252.191-87.586 255.766-84.012 255.766-79.605 255.766-75.199 252.191-71.625 247.785-71.625 243.379-71.625 239.805-75.199 239.805-79.605 239.805-84.012 243.379-87.586 247.785-87.586ZM247.785-87.586"/>
</g>
<path d="M241.699 77.898 241.996 78.258 242.902 77.477V82.43H243.465V76.852H242.965ZM241.699 77.898" fill="#211e1e"/>
<path d="M247.379 77.273C248.551 77.273 248.66 78.711 248.66 79.633 248.66 80.57 248.551 82.008 247.379 82.008 246.223 82.008 246.098 80.57 246.098 79.633 246.098 78.711 246.223 77.273 247.379 77.273ZM247.379 76.789C245.895 76.789 245.551 78.336 245.551 79.633 245.551 80.805 245.785 82.492 247.379 82.492 248.973 82.492 249.223 80.805 249.223 79.633 249.223 78.336 248.879 76.789 247.379 76.789ZM247.379 76.789" fill="#211e1e"/>
<path d="M251.828 77.273C253 77.273 253.109 78.711 253.109 79.633 253.109 80.57 253 82.008 251.828 82.008 250.672 82.008 250.547 80.57 250.547 79.633 250.547 78.711 250.672 77.273 251.828 77.273ZM251.828 76.789C250.344 76.789 250 78.336 250 79.633 250 80.805 250.234 82.492 251.828 82.492 253.422 82.492 253.672 80.805 253.672 79.633 253.672 78.336 253.328 76.789 251.828 76.789ZM251.828 76.789" fill="#211e1e"/>
</g>
<path d="M112.5 87.586C116.906 87.586 120.48 84.012 120.48 79.605 120.48 75.199 116.906 71.625 112.5 71.625 108.09 71.625 104.52 75.199 104.52 79.605 104.52 84.012 108.09 87.586 112.5 87.586" fill="#d4eefa"/>
<path transform="matrix(1,0,0,-1,0,0)" stroke-width="1" stroke-linecap="butt" stroke-miterlimit="4" stroke-linejoin="miter" fill="none" stroke="#211e1e" d="M112.5-87.586C116.906-87.586 120.48-84.012 120.48-79.605 120.48-75.199 116.906-71.625 112.5-71.625 108.09-71.625 104.52-75.199 104.52-79.605 104.52-84.012 108.09-87.586 112.5-87.586ZM112.5-87.586"/>
<path d="M108.855 79.773H109.371C109.965 79.773 110.887 79.867 110.887 80.836 110.887 81.68 110.137 82.008 109.465 82.008 109.059 82.008 108.574 81.945 108.121 81.727L108.059 82.258C108.496 82.43 108.949 82.492 109.434 82.492 110.543 82.492 111.449 81.898 111.449 80.883 111.449 80.133 111.027 79.555 110.277 79.523V79.508C110.965 79.336 111.449 78.852 111.449 78.18 111.449 77.18 110.59 76.789 109.668 76.789 109.199 76.789 108.73 76.898 108.309 77.039L108.371 77.57C108.762 77.383 109.168 77.273 109.605 77.273 110.215 77.273 110.887 77.555 110.887 78.18 110.887 79.211 109.762 79.289 108.996 79.289H108.855ZM108.855 79.773" fill="#211e1e"/>
<path d="M114.332 82.492C115.473 82.492 116.16 81.727 116.16 80.648 116.16 79.258 115.16 78.898 114.41 78.898 113.895 78.898 113.395 79.117 113.113 79.586H113.082C113.082 78.461 113.535 77.242 114.988 77.273 115.301 77.273 115.676 77.336 115.91 77.445L115.957 76.914C115.66 76.852 115.363 76.789 115.051 76.789 113.176 76.789 112.535 78.148 112.535 79.836 112.535 81.148 112.848 82.492 114.332 82.492ZM114.41 79.383C115.191 79.383 115.598 79.867 115.598 80.68 115.598 81.445 115.16 82.008 114.348 82.008 113.52 82.008 113.145 81.305 113.145 80.617 113.145 79.883 113.613 79.383 114.41 79.383ZM114.41 79.383" fill="#211e1e"/>
<path transform="matrix(1,0,0,-1,0,0)" stroke-width="1" stroke-linecap="butt" stroke-miterlimit="4" stroke-linejoin="miter" fill="none" stroke="#211e1e" d="M166.199-79.605 154.199-44.605 142.199-79.605"/>
<path d="M154.199 52.586C158.605 52.586 162.18 49.012 162.18 44.605 162.18 40.199 158.605 36.625 154.199 36.625 149.789 36.625 146.219 40.199 146.219 44.605 146.219 49.012 149.789 52.586 154.199 52.586" fill="#d4eefa"/>
<path transform="matrix(1,0,0,-1,0,0)" stroke-width="1" stroke-linecap="butt" stroke-miterlimit="4" stroke-linejoin="miter" fill="none" stroke="#211e1e" d="M154.199-52.586C158.605-52.586 162.18-49.012 162.18-44.605 162.18-40.199 158.605-36.625 154.199-36.625 149.789-36.625 146.219-40.199 146.219-44.605 146.219-49.012 149.789-52.586 154.199-52.586ZM154.199-52.586"/>
<path d="M150.652 44.773H151.168C151.762 44.773 152.684 44.867 152.684 45.836 152.684 46.68 151.934 47.008 151.262 47.008 150.855 47.008 150.371 46.945 149.918 46.727L149.855 47.258C150.293 47.43 150.746 47.492 151.23 47.492 152.34 47.492 153.246 46.898 153.246 45.883 153.246 45.133 152.824 44.555 152.074 44.523V44.508C152.762 44.336 153.246 43.852 153.246 43.18 153.246 42.18 152.387 41.789 151.465 41.789 150.996 41.789 150.527 41.898 150.105 42.039L150.168 42.57C150.559 42.383 150.965 42.273 151.402 42.273 152.012 42.273 152.684 42.555 152.684 43.18 152.684 44.211 151.559 44.289 150.793 44.289H150.652ZM150.652 44.773" fill="#211e1e"/>
<path d="M156.117 41.789C154.977 41.789 154.289 42.539 154.289 43.633 154.289 45.008 155.289 45.367 156.023 45.367 156.539 45.367 157.055 45.164 157.336 44.68H157.352C157.352 45.82 156.914 47.023 155.461 47.008 155.133 47.008 154.773 46.93 154.539 46.836L154.492 47.352C154.789 47.43 155.086 47.492 155.383 47.492 157.273 47.492 157.914 46.133 157.914 44.445 157.914 43.133 157.602 41.789 156.117 41.789ZM156.023 44.898C155.258 44.898 154.836 44.398 154.836 43.586 154.836 42.836 155.289 42.273 156.102 42.273 156.93 42.273 157.305 42.961 157.305 43.648 157.305 44.383 156.82 44.898 156.023 44.898ZM156.023 44.898" fill="#211e1e"/>
<path d="M166.199 87.586C170.605 87.586 174.18 84.012 174.18 79.605 174.18 75.199 170.605 71.625 166.199 71.625 161.789 71.625 158.219 75.199 158.219 79.605 158.219 84.012 161.789 87.586 166.199 87.586" fill="#d4eefa"/>
<path transform="matrix(1,0,0,-1,0,0)" stroke-width="1" stroke-linecap="butt" stroke-miterlimit="4" stroke-linejoin="miter" fill="none" stroke="#211e1e" d="M166.199-87.586C170.605-87.586 174.18-84.012 174.18-79.605 174.18-75.199 170.605-71.625 166.199-71.625 161.789-71.625 158.219-75.199 158.219-79.605 158.219-84.012 161.789-87.586 166.199-87.586ZM166.199-87.586"/>
<path d="M164.195 80.664H162.039L164.18 77.398H164.195ZM161.539 81.148H164.195V82.43H164.758V81.148H165.57V80.664H164.758V76.852H164.055L161.539 80.602ZM161.539 81.148" fill="#211e1e"/>
<path d="M168.02 77.273C169.191 77.273 169.301 78.711 169.301 79.633 169.301 80.57 169.191 82.008 168.02 82.008 166.863 82.008 166.738 80.57 166.738 79.633 166.738 78.711 166.863 77.273 168.02 77.273ZM168.02 76.789C166.535 76.789 166.191 78.336 166.191 79.633 166.191 80.805 166.426 82.492 168.02 82.492 169.613 82.492 169.863 80.805 169.863 79.633 169.863 78.336 169.52 76.789 168.02 76.789ZM168.02 76.789" fill="#211e1e"/>
<path d="M142.449 87.461C146.855 87.461 150.43 83.887 150.43 79.48 150.43 75.074 146.855 71.5 142.449 71.5 138.039 71.5 134.469 75.074 134.469 79.48 134.469 83.887 138.039 87.461 142.449 87.461" fill="#d4eefa"/>
<path transform="matrix(1,0,0,-1,0,0)" stroke-width="1" stroke-linecap="butt" stroke-miterlimit="4" stroke-linejoin="miter" fill="none" stroke="#211e1e" d="M142.449-87.461C146.855-87.461 150.43-83.887 150.43-79.48 150.43-75.074 146.855-71.5 142.449-71.5 138.039-71.5 134.469-75.074 134.469-79.48 134.469-83.887 138.039-87.461 142.449-87.461ZM142.449-87.461"/>
<path d="M138.805 79.648H139.32C139.914 79.648 140.836 79.742 140.836 80.711 140.836 81.555 140.086 81.883 139.414 81.883 139.008 81.883 138.523 81.82 138.07 81.602L138.008 82.133C138.445 82.305 138.898 82.367 139.383 82.367 140.492 82.367 141.398 81.773 141.398 80.758 141.398 80.008 140.977 79.43 140.227 79.398V79.383C140.914 79.211 141.398 78.727 141.398 78.055 141.398 77.055 140.539 76.664 139.617 76.664 139.148 76.664 138.68 76.773 138.258 76.914L138.32 77.445C138.711 77.258 139.117 77.148 139.555 77.148 140.164 77.148 140.836 77.43 140.836 78.055 140.836 79.086 139.711 79.164 138.945 79.164H138.805ZM138.805 79.648" fill="#211e1e"/>
<path d="M142.598 77.961C142.598 78.711 143.129 79.133 143.707 79.398 142.973 79.664 142.426 80.023 142.426 80.867 142.426 81.898 143.395 82.367 144.27 82.367 145.176 82.367 146.129 81.961 146.129 80.867 146.129 79.992 145.566 79.68 144.801 79.398 145.332 79.117 145.941 78.664 145.941 77.961 145.941 77.055 145.145 76.664 144.27 76.664 143.598 76.664 142.598 77.039 142.598 77.961ZM145.582 80.82C145.582 81.586 144.926 81.883 144.27 81.883 143.629 81.883 142.973 81.492 142.973 80.867 142.973 80.102 143.629 79.867 144.27 79.602 144.785 79.867 145.582 80.117 145.582 80.82ZM143.145 78.023C143.145 77.43 143.691 77.148 144.27 77.148 144.801 77.148 145.395 77.43 145.395 78.023 145.395 78.586 144.785 78.945 144.27 79.195 143.816 78.977 143.145 78.664 143.145 78.023ZM143.145 78.023" fill="#211e1e"/>
<path d="M163.848 16.461C168.254 16.461 171.828 12.887 171.828 8.48 171.828 4.074 168.254 .5 163.848 .5H143.805C139.398 .5 135.824 4.074 135.824 8.48 135.824 12.887 139.398 16.461 143.805 16.461H163.848" fill="#d4eefa"/>
<path transform="matrix(1,0,0,-1,0,0)" stroke-width="1" stroke-linecap="butt" stroke-miterlimit="4" stroke-linejoin="miter" fill="none" stroke="#211e1e" d="M163.848-16.461C168.254-16.461 171.828-12.887 171.828-8.48 171.828-4.074 168.254-.5 163.848-.5H143.805C139.398-.5 135.824-4.074 135.824-8.48 135.824-12.887 139.398-16.461 143.805-16.461ZM163.848-16.461"/>
<path d="M142.563 8.648H143.078C143.672 8.648 144.594 8.742 144.594 9.711 144.594 10.555 143.844 10.883 143.172 10.883 142.766 10.883 142.281 10.82 141.828 10.602L141.766 11.133C142.203 11.305 142.656 11.367 143.141 11.367 144.25 11.367 145.156 10.773 145.156 9.758 145.156 9.008 144.734 8.43 143.984 8.398V8.383C144.672 8.211 145.156 7.727 145.156 7.055 145.156 6.055 144.297 5.664 143.375 5.664 142.906 5.664 142.438 5.773 142.016 5.914L142.078 6.445C142.469 6.258 142.875 6.148 143.313 6.148 143.922 6.148 144.594 6.43 144.594 7.055 144.594 8.086 143.469 8.164 142.703 8.164H142.563ZM142.563 8.648" fill="#211e1e"/>
<path d="M146.914 11.305H147.523L149.68 6.195V5.727H146.273V6.195H149.133ZM146.914 11.305" fill="#211e1e"/>
<path d="M161.055 5.727H158.211L158.148 8.523C158.555 8.414 158.883 8.352 159.352 8.352 160.305 8.352 160.758 8.758 160.758 9.617 160.758 10.492 160.008 10.883 159.273 10.883 158.883 10.883 158.445 10.789 158.086 10.586V11.164C158.461 11.305 158.883 11.367 159.273 11.367 160.477 11.367 161.305 10.742 161.305 9.508 161.305 8.477 160.633 7.867 159.555 7.867 159.133 7.867 158.898 7.93 158.711 7.992L158.758 6.195H161.055ZM161.055 5.727" fill="#211e1e"/>
<path d="M164.066 6.148C165.238 6.148 165.348 7.586 165.348 8.508 165.348 9.445 165.238 10.883 164.066 10.883 162.91 10.883 162.785 9.445 162.785 8.508 162.785 7.586 162.91 6.148 164.066 6.148ZM164.066 5.664C162.582 5.664 162.238 7.211 162.238 8.508 162.238 9.68 162.473 11.367 164.066 11.367 165.66 11.367 165.91 9.68 165.91 8.508 165.91 7.211 165.566 5.664 164.066 5.664ZM164.066 5.664" fill="#211e1e"/>
<path d="M86.145 87.461C90.555 87.461 94.125 83.887 94.125 79.48 94.125 75.074 90.555 71.5 86.145 71.5H54.105C49.699 71.5 46.125 75.074 46.125 79.48 46.125 83.887 49.699 87.461 54.105 87.461H86.145" fill="#d4eefa"/>
<path transform="matrix(1,0,0,-1,0,0)" stroke-width="1" stroke-linecap="butt" stroke-miterlimit="4" stroke-linejoin="miter" fill="none" stroke="#211e1e" d="M86.145-87.461C90.555-87.461 94.125-83.887 94.125-79.48 94.125-75.074 90.555-71.5 86.145-71.5H54.105C49.699-71.5 46.125-75.074 46.125-79.48 46.125-83.887 49.699-87.461 54.105-87.461ZM86.145-87.461"/>
<path d="M54.859 79.648H55.375C55.969 79.648 56.891 79.742 56.891 80.711 56.891 81.555 56.141 81.883 55.469 81.883 55.063 81.883 54.578 81.82 54.125 81.602L54.063 82.133C54.5 82.305 54.953 82.367 55.438 82.367 56.547 82.367 57.453 81.773 57.453 80.758 57.453 80.008 57.031 79.43 56.281 79.398V79.383C56.969 79.211 57.453 78.727 57.453 78.055 57.453 77.055 56.594 76.664 55.672 76.664 55.203 76.664 54.734 76.773 54.313 76.914L54.375 77.445C54.766 77.258 55.172 77.148 55.609 77.148 56.219 77.148 56.891 77.43 56.891 78.055 56.891 79.086 55.766 79.164 55 79.164H54.859ZM54.859 79.648" fill="#211e1e"/>
<path d="M58.512 82.305H61.855V81.82H59.184L60.199 80.727C60.918 79.93 61.73 78.961 61.73 78.133 61.73 77.117 61.012 76.664 60.121 76.664 59.652 76.664 59.121 76.836 58.699 77.039L58.809 77.539C59.246 77.289 59.637 77.148 60.152 77.148 60.699 77.148 61.137 77.555 61.137 78.148 61.137 78.836 60.465 79.664 59.793 80.414L58.512 81.82ZM58.512 82.305" fill="#211e1e"/>
<path d="M78.902 79.648H79.418C80.012 79.648 80.934 79.742 80.934 80.711 80.934 81.555 80.184 81.883 79.512 81.883 79.105 81.883 78.621 81.82 78.168 81.602L78.105 82.133C78.543 82.305 78.996 82.367 79.48 82.367 80.59 82.367 81.496 81.773 81.496 80.758 81.496 80.008 81.074 79.43 80.324 79.398V79.383C81.012 79.211 81.496 78.727 81.496 78.055 81.496 77.055 80.637 76.664 79.715 76.664 79.246 76.664 78.777 76.773 78.355 76.914L78.418 77.445C78.809 77.258 79.215 77.148 79.652 77.148 80.262 77.148 80.934 77.43 80.934 78.055 80.934 79.086 79.809 79.164 79.043 79.164H78.902ZM78.902 79.648" fill="#211e1e"/>
<path d="M84.988 80.539H82.832L84.973 77.273H84.988ZM82.332 81.023H84.988V82.305H85.551V81.023H86.363V80.539H85.551V76.727H84.848L82.332 80.477ZM82.332 81.023" fill="#211e1e"/>
<path d="M66.918 79.563H67.434C68.027 79.563 68.949 79.656 68.949 80.625 68.949 81.469 68.199 81.797 67.527 81.797 67.121 81.797 66.637 81.734 66.184 81.516L66.121 82.047C66.559 82.219 67.012 82.281 67.496 82.281 68.605 82.281 69.512 81.688 69.512 80.672 69.512 79.922 69.09 79.344 68.34 79.313V79.297C69.027 79.125 69.512 78.641 69.512 77.969 69.512 76.969 68.652 76.578 67.73 76.578 67.262 76.578 66.793 76.688 66.371 76.828L66.434 77.359C66.824 77.172 67.23 77.063 67.668 77.063 68.277 77.063 68.949 77.344 68.949 77.969 68.949 79 67.824 79.078 67.059 79.078H66.918ZM66.918 79.563" fill="#211e1e"/>
<path d="M71.363 79.563H71.879C72.473 79.563 73.395 79.656 73.395 80.625 73.395 81.469 72.645 81.797 71.973 81.797 71.566 81.797 71.082 81.734 70.629 81.516L70.566 82.047C71.004 82.219 71.457 82.281 71.941 82.281 73.051 82.281 73.957 81.688 73.957 80.672 73.957 79.922 73.535 79.344 72.785 79.313V79.297C73.473 79.125 73.957 78.641 73.957 77.969 73.957 76.969 73.098 76.578 72.176 76.578 71.707 76.578 71.238 76.688 70.816 76.828L70.879 77.359C71.27 77.172 71.676 77.063 72.113 77.063 72.723 77.063 73.395 77.344 73.395 77.969 73.395 79 72.27 79.078 71.504 79.078H71.363ZM71.363 79.563" fill="#211e1e"/>
<path transform="matrix(1,0,0,-1,0,0)" stroke-width="1" stroke-linecap="butt" stroke-miterlimit="4" stroke-linejoin="miter" fill="none" stroke="#211e1e" d="M70.363-52.469V-71.469M153.863-16.469V-36.469"/>
<path d="M80.52 52.285C84.926 52.285 88.5 48.711 88.5 44.305 88.5 39.898 84.926 36.324 80.52 36.324H60.48C56.07 36.324 52.5 39.898 52.5 44.305 52.5 48.711 56.07 52.285 60.48 52.285H80.52" fill="#d4eefa"/>
<path transform="matrix(1,0,0,-1,0,0)" stroke-width="1" stroke-linecap="butt" stroke-miterlimit="4" stroke-linejoin="miter" fill="none" stroke="#211e1e" d="M80.52-52.285C84.926-52.285 88.5-48.711 88.5-44.305 88.5-39.898 84.926-36.324 80.52-36.324H60.48C56.07-36.324 52.5-39.898 52.5-44.305 52.5-48.711 56.07-52.285 60.48-52.285ZM80.52-52.285"/>
<path d="M59.234 44.473H59.75C60.344 44.473 61.266 44.566 61.266 45.535 61.266 46.379 60.516 46.707 59.844 46.707 59.438 46.707 58.953 46.645 58.5 46.426L58.438 46.957C58.875 47.129 59.328 47.191 59.813 47.191 60.922 47.191 61.828 46.598 61.828 45.582 61.828 44.832 61.406 44.254 60.656 44.223V44.207C61.344 44.035 61.828 43.551 61.828 42.879 61.828 41.879 60.969 41.488 60.047 41.488 59.578 41.488 59.109 41.598 58.688 41.738L58.75 42.27C59.141 42.082 59.547 41.973 59.984 41.973 60.594 41.973 61.266 42.254 61.266 42.879 61.266 43.91 60.141 43.988 59.375 43.988H59.234ZM59.234 44.473" fill="#211e1e"/>
<path d="M64.699 41.973C65.871 41.973 65.98 43.41 65.98 44.332 65.98 45.27 65.871 46.707 64.699 46.707 63.543 46.707 63.418 45.27 63.418 44.332 63.418 43.41 63.543 41.973 64.699 41.973ZM64.699 41.488C63.215 41.488 62.871 43.035 62.871 44.332 62.871 45.504 63.105 47.191 64.699 47.191 66.293 47.191 66.543 45.504 66.543 44.332 66.543 43.035 66.199 41.488 64.699 41.488ZM64.699 41.488" fill="#211e1e"/>
<path d="M75.273 44.473H75.789C76.383 44.473 77.305 44.566 77.305 45.535 77.305 46.379 76.555 46.707 75.883 46.707 75.477 46.707 74.992 46.645 74.539 46.426L74.477 46.957C74.914 47.129 75.367 47.191 75.852 47.191 76.961 47.191 77.867 46.598 77.867 45.582 77.867 44.832 77.445 44.254 76.695 44.223V44.207C77.383 44.035 77.867 43.551 77.867 42.879 77.867 41.879 77.008 41.488 76.086 41.488 75.617 41.488 75.148 41.598 74.727 41.738L74.789 42.27C75.18 42.082 75.586 41.973 76.023 41.973 76.633 41.973 77.305 42.254 77.305 42.879 77.305 43.91 76.18 43.988 75.414 43.988H75.273ZM75.273 44.473" fill="#211e1e"/>
<path d="M82.176 41.551H79.332L79.27 44.348C79.676 44.238 80.004 44.176 80.473 44.176 81.426 44.176 81.879 44.582 81.879 45.441 81.879 46.316 81.129 46.707 80.395 46.707 80.004 46.707 79.566 46.613 79.207 46.41V46.988C79.582 47.129 80.004 47.191 80.395 47.191 81.598 47.191 82.426 46.566 82.426 45.332 82.426 44.301 81.754 43.691 80.676 43.691 80.254 43.691 80.02 43.754 79.832 43.816L79.879 42.02H82.176ZM82.176 41.551" fill="#211e1e"/>
</g>
</svg>
