<svg xmlns="http://www.w3.org/2000/svg" xmlns:xlink="http://www.w3.org/1999/xlink" xmlns:inkscape="http://www.inkscape.org/namespaces/inkscape" version="1.1" width="353.28126" height="195.25643" viewBox="0 0 353.28126 195.25643">
<defs>
<clipPath id="clip_1">
<path d="M148.84 0H340.84V22.02H148.84Z"/>
</clipPath>
<clipPath id="clip_2">
<path d="M0 0H354V196H0Z"/>
</clipPath>
<clipPath id="clip_3">
<path d="M13.84 0H160.84V22.02H13.84Z"/>
</clipPath>
<clipPath id="clip_4">
<path d="M0 0H354V196H0Z"/>
</clipPath>
<clipPath id="clip_5">
<path d="M0 10.02H26.84V36.02H0Z"/>
</clipPath>
<clipPath id="clip_6">
<path d="M0 0H354V196H0Z"/>
</clipPath>
<clipPath id="clip_7">
<path d="M0 52.02H17.84V78.020008H0Z"/>
</clipPath>
<clipPath id="clip_8">
<path d="M0 0H354V196H0Z"/>
</clipPath>
<clipPath id="clip_9">
<path d="M0 80.02H12.84V103.02H0Z"/>
</clipPath>
<clipPath id="clip_10">
<path d="M0 0H354V196H0Z"/>
</clipPath>
<clipPath id="clip_11">
<path d="M0 66.02H12.84V93.02H0Z"/>
</clipPath>
<clipPath id="clip_12">
<path d="M0 0H354V196H0Z"/>
</clipPath>
<clipPath id="clip_13">
<path d="M0 66.02H10.84V89.02H0Z"/>
</clipPath>
<clipPath id="clip_14">
<path d="M0 0H354V196H0Z"/>
</clipPath>
<clipPath id="clip_15">
<path d="M0 24.02H21.84V50.02H0Z"/>
</clipPath>
<clipPath id="clip_16">
<path d="M0 0H354V196H0Z"/>
</clipPath>
<clipPath id="clip_17">
<path d="M0 24.02H8.84V47.02H0Z"/>
</clipPath>
<clipPath id="clip_18">
<path d="M0 0H354V196H0Z"/>
</clipPath>
<clipPath id="clip_19">
<path d="M349.84 99.02H353.281V112.02H349.84Z"/>
</clipPath>
<clipPath id="clip_20">
<path d="M0 0H354V196H0Z"/>
</clipPath>
</defs>
<g>
<path transform="matrix(1,0,0,-1,0,0)" stroke-width="1.006" stroke-linecap="butt" stroke-miterlimit="4" stroke-linejoin="miter" fill="none" stroke="#211e1e" d="M227.895-100.387 229.605-110.918"/>
<path transform="matrix(1,0,0,-1,0,0)" stroke-width="1.006" stroke-linecap="butt" stroke-miterlimit="4" stroke-linejoin="miter" fill="none" stroke="#211e1e" d="M227.895-100.387 225.613-114.43 227.324-124.961"/>
<path transform="matrix(1,0,0,-1,0,0)" stroke-width="1.006" stroke-linecap="butt" stroke-miterlimit="4" stroke-linejoin="miter" fill="none" stroke="#211e1e" d="M225.613-114.43 223.902-124.961"/>
<path transform="matrix(1,0,0,-1,0,0)" stroke-width="1.006" stroke-linecap="butt" stroke-miterlimit="4" stroke-linejoin="miter" fill="none" stroke="#211e1e" d="M223.332-72.301 230.176-86.344"/>
<path transform="matrix(1,0,0,-1,0,0)" stroke-width="1.006" stroke-linecap="butt" stroke-miterlimit="4" stroke-linejoin="miter" fill="none" stroke="#211e1e" d="M223.332-72.301 221.055-86.344 222.762-96.875"/>
<path transform="matrix(1,0,0,-1,0,0)" stroke-width="1.006" stroke-linecap="butt" stroke-miterlimit="4" stroke-linejoin="miter" fill="none" stroke="#211e1e" d="M221.055-86.344 219.344-96.875"/>
<path transform="matrix(1,0,0,-1,0,0)" stroke-width="1.006" stroke-linecap="butt" stroke-miterlimit="4" stroke-linejoin="miter" fill="none" stroke="#211e1e" d="M218.773-44.215 232.449-58.258"/>
<path transform="matrix(1,0,0,-1,0,0)" stroke-width="1.006" stroke-linecap="butt" stroke-miterlimit="4" stroke-linejoin="miter" fill="none" stroke="#211e1e" d="M218.773-44.215 191.418-58.258"/>
<path transform="matrix(1,0,0,-1,0,0)" stroke-width="1.006" stroke-linecap="butt" stroke-miterlimit="4" stroke-linejoin="miter" fill="none" stroke="#211e1e" d="M216.492-128.473 218.203-139.004"/>
<path transform="matrix(1,0,0,-1,0,0)" stroke-width="1.006" stroke-linecap="butt" stroke-miterlimit="4" stroke-linejoin="miter" fill="none" stroke="#211e1e" d="M216.492-128.473 214.785-139.004"/>
<path transform="matrix(1,0,0,-1,0,0)" stroke-width="1.006" stroke-linecap="butt" stroke-miterlimit="4" stroke-linejoin="miter" fill="none" stroke="#211e1e" d="M214.211-114.43 216.492-128.473"/>
<path transform="matrix(1,0,0,-1,0,0)" stroke-width="1.006" stroke-linecap="butt" stroke-miterlimit="4" stroke-linejoin="miter" fill="none" stroke="#211e1e" d="M214.211-114.43 209.652-128.473"/>
<path transform="matrix(1,0,0,-1,0,0)" stroke-width="1.006" stroke-linecap="butt" stroke-miterlimit="4" stroke-linejoin="miter" fill="none" stroke="#211e1e" d="M211.934-142.516 213.645-153.047"/>
<path transform="matrix(1,0,0,-1,0,0)" stroke-width="1.006" stroke-linecap="butt" stroke-miterlimit="4" stroke-linejoin="miter" fill="none" stroke="#211e1e" d="M211.934-142.516 210.223-153.047"/>
<path transform="matrix(1,0,0,-1,0,0)" stroke-width="1.006" stroke-linecap="butt" stroke-miterlimit="4" stroke-linejoin="miter" fill="none" stroke="#211e1e" d="M209.652-128.473 211.934-142.516"/>
<path transform="matrix(1,0,0,-1,0,0)" stroke-width="1.006" stroke-linecap="butt" stroke-miterlimit="4" stroke-linejoin="miter" fill="none" stroke="#211e1e" d="M209.652-128.473 207.945-139.004"/>
<path transform="matrix(1,0,0,-1,0,0)" stroke-width="1.006" stroke-linecap="butt" stroke-miterlimit="4" stroke-linejoin="miter" fill="none" stroke="#211e1e" d="M207.375-100.387 214.211-114.43"/>
<path transform="matrix(1,0,0,-1,0,0)" stroke-width="1.006" stroke-linecap="butt" stroke-miterlimit="4" stroke-linejoin="miter" fill="none" stroke="#211e1e" d="M207.375-100.387 205.094-114.43 206.805-124.965"/>
<path transform="matrix(1,0,0,-1,0,0)" stroke-width="1.006" stroke-linecap="butt" stroke-miterlimit="4" stroke-linejoin="miter" fill="none" stroke="#211e1e" d="M205.094-114.43 203.387-124.961"/>
<path transform="matrix(1,0,0,-1,0,0)" stroke-width="1.006" stroke-linecap="butt" stroke-miterlimit="4" stroke-linejoin="miter" fill="none" stroke="#211e1e" d="M202.816-86.344 207.375-100.387"/>
<path transform="matrix(1,0,0,-1,0,0)" stroke-width="1.006" stroke-linecap="butt" stroke-miterlimit="4" stroke-linejoin="miter" fill="none" stroke="#211e1e" d="M202.816-86.344 200.535-100.387 202.246-110.918"/>
<path transform="matrix(1,0,0,-1,0,0)" stroke-width="1.006" stroke-linecap="butt" stroke-miterlimit="4" stroke-linejoin="miter" fill="none" stroke="#211e1e" d="M200.535-100.387 198.824-110.918"/>
<path transform="matrix(1,0,0,-1,0,0)" stroke-width="1.006" stroke-linecap="butt" stroke-miterlimit="4" stroke-linejoin="miter" fill="none" stroke="#211e1e" d="M198.254-72.301 202.816-86.344"/>
<path transform="matrix(1,0,0,-1,0,0)" stroke-width="1.006" stroke-linecap="butt" stroke-miterlimit="4" stroke-linejoin="miter" fill="none" stroke="#211e1e" d="M198.254-72.301 195.977-86.344 197.688-96.875"/>
<path transform="matrix(1,0,0,-1,0,0)" stroke-width="1.006" stroke-linecap="butt" stroke-miterlimit="4" stroke-linejoin="miter" fill="none" stroke="#211e1e" d="M195.977-86.344 193.695-100.387 195.406-110.918"/>
<path transform="matrix(1,0,0,-1,0,0)" stroke-width="1.006" stroke-linecap="butt" stroke-miterlimit="4" stroke-linejoin="miter" fill="none" stroke="#211e1e" d="M193.695-100.387 191.984-110.918"/>
<path transform="matrix(1,0,0,-1,0,0)" stroke-width="1.006" stroke-linecap="butt" stroke-miterlimit="4" stroke-linejoin="miter" fill="none" stroke="#211e1e" d="M191.414-58.258 198.254-72.301"/>
<path transform="matrix(1,0,0,-1,0,0)" stroke-width="1.006" stroke-linecap="butt" stroke-miterlimit="4" stroke-linejoin="miter" fill="none" stroke="#211e1e" d="M191.414-58.258 182.297-72.301"/>
<path transform="matrix(1,0,0,-1,0,0)" stroke-width="1.006" stroke-linecap="butt" stroke-miterlimit="4" stroke-linejoin="miter" fill="none" stroke="#211e1e" d="M189.137-86.344 190.848-96.875"/>
<path transform="matrix(1,0,0,-1,0,0)" stroke-width="1.006" stroke-linecap="butt" stroke-miterlimit="4" stroke-linejoin="miter" fill="none" stroke="#211e1e" d="M189.137-86.344 184.578-100.387"/>
<path transform="matrix(1,0,0,-1,0,0)" stroke-width="1.006" stroke-linecap="butt" stroke-miterlimit="4" stroke-linejoin="miter" fill="none" stroke="#211e1e" d="M186.855-114.43 188.566-124.961"/>
<path transform="matrix(1,0,0,-1,0,0)" stroke-width="1.006" stroke-linecap="butt" stroke-miterlimit="4" stroke-linejoin="miter" fill="none" stroke="#211e1e" d="M186.855-114.43 185.148-124.961"/>
<path transform="matrix(1,0,0,-1,0,0)" stroke-width="1.006" stroke-linecap="butt" stroke-miterlimit="4" stroke-linejoin="miter" fill="none" stroke="#211e1e" d="M184.578-100.387 186.855-114.43"/>
<path transform="matrix(1,0,0,-1,0,0)" stroke-width="1.006" stroke-linecap="butt" stroke-miterlimit="4" stroke-linejoin="miter" fill="none" stroke="#211e1e" d="M184.578-100.387 182.867-110.918"/>
<path transform="matrix(1,0,0,-1,0,0)" stroke-width="1.006" stroke-linecap="butt" stroke-miterlimit="4" stroke-linejoin="miter" fill="none" stroke="#211e1e" d="M182.297-72.301 189.137-86.344"/>
<path transform="matrix(1,0,0,-1,0,0)" stroke-width="1.006" stroke-linecap="butt" stroke-miterlimit="4" stroke-linejoin="miter" fill="none" stroke="#211e1e" d="M182.297-72.301 157.223-86.344"/>
<path transform="matrix(1,0,0,-1,0,0)" stroke-width="1.006" stroke-linecap="butt" stroke-miterlimit="4" stroke-linejoin="miter" fill="none" stroke="#211e1e" d="M180.016-142.516 181.727-153.047"/>
<path transform="matrix(1,0,0,-1,0,0)" stroke-width="1.006" stroke-linecap="butt" stroke-miterlimit="4" stroke-linejoin="miter" fill="none" stroke="#211e1e" d="M180.016-142.516 178.305-153.047"/>
<path transform="matrix(1,0,0,-1,0,0)" stroke-width="1.006" stroke-linecap="butt" stroke-miterlimit="4" stroke-linejoin="miter" fill="none" stroke="#211e1e" d="M177.734-128.473 180.016-142.516"/>
<path transform="matrix(1,0,0,-1,0,0)" stroke-width="1.006" stroke-linecap="butt" stroke-miterlimit="4" stroke-linejoin="miter" fill="none" stroke="#211e1e" d="M177.734-128.473 175.457-142.516 177.168-153.047"/>
<path transform="matrix(1,0,0,-1,0,0)" stroke-width="1.006" stroke-linecap="butt" stroke-miterlimit="4" stroke-linejoin="miter" fill="none" stroke="#211e1e" d="M175.457-142.516 173.746-153.047"/>
<path transform="matrix(1,0,0,-1,0,0)" stroke-width="1.006" stroke-linecap="butt" stroke-miterlimit="4" stroke-linejoin="miter" fill="none" stroke="#211e1e" d="M173.176-114.43 177.734-128.473"/>
<path transform="matrix(1,0,0,-1,0,0)" stroke-width="1.006" stroke-linecap="butt" stroke-miterlimit="4" stroke-linejoin="miter" fill="none" stroke="#211e1e" d="M173.176-114.43 171.469-124.965"/>
<path transform="matrix(1,0,0,-1,0,0)" stroke-width="1.006" stroke-linecap="butt" stroke-miterlimit="4" stroke-linejoin="miter" fill="none" stroke="#211e1e" d="M170.898-100.387 173.176-114.43"/>
<path transform="matrix(1,0,0,-1,0,0)" stroke-width="1.006" stroke-linecap="butt" stroke-miterlimit="4" stroke-linejoin="miter" fill="none" stroke="#211e1e" d="M170.898-100.387 166.336-114.43"/>
<path transform="matrix(1,0,0,-1,0,0)" stroke-width="1.006" stroke-linecap="butt" stroke-miterlimit="4" stroke-linejoin="miter" fill="none" stroke="#211e1e" d="M168.617-128.473 170.328-139.004"/>
<path transform="matrix(1,0,0,-1,0,0)" stroke-width="1.006" stroke-linecap="butt" stroke-miterlimit="4" stroke-linejoin="miter" fill="none" stroke="#211e1e" d="M168.617-128.473 166.906-139.004"/>
<path transform="matrix(1,0,0,-1,0,0)" stroke-width="1.006" stroke-linecap="butt" stroke-miterlimit="4" stroke-linejoin="miter" fill="none" stroke="#211e1e" d="M166.336-114.43 168.617-128.473"/>
<path transform="matrix(1,0,0,-1,0,0)" stroke-width="1.006" stroke-linecap="butt" stroke-miterlimit="4" stroke-linejoin="miter" fill="none" stroke="#211e1e" d="M166.336-114.43 164.059-128.473 165.77-139.004"/>
<path transform="matrix(1,0,0,-1,0,0)" stroke-width="1.006" stroke-linecap="butt" stroke-miterlimit="4" stroke-linejoin="miter" fill="none" stroke="#211e1e" d="M164.059-128.473 161.777-142.516 163.488-153.047"/>
<path transform="matrix(1,0,0,-1,0,0)" stroke-width="1.006" stroke-linecap="butt" stroke-miterlimit="4" stroke-linejoin="miter" fill="none" stroke="#211e1e" d="M161.777-142.516 159.5-156.559 161.207-167.09"/>
<path transform="matrix(1,0,0,-1,0,0)" stroke-width="1.006" stroke-linecap="butt" stroke-miterlimit="4" stroke-linejoin="miter" fill="none" stroke="#211e1e" d="M159.5-156.559 157.789-167.09"/>
<path transform="matrix(1,0,0,-1,0,0)" stroke-width="1.006" stroke-linecap="butt" stroke-miterlimit="4" stroke-linejoin="miter" fill="none" stroke="#211e1e" d="M157.219-86.344 170.898-100.387"/>
<path transform="matrix(1,0,0,-1,0,0)" stroke-width="1.006" stroke-linecap="butt" stroke-miterlimit="4" stroke-linejoin="miter" fill="none" stroke="#211e1e" d="M157.219-86.344 155.508-96.875"/>
<g clip-path="url(#clip_1)">
<g clip-path="url(#clip_2)">
<path transform="matrix(1,0,0,-1,0,0)" stroke-width="1.006" stroke-linecap="butt" stroke-miterlimit="4" stroke-linejoin="miter" fill="none" stroke="#211e1e" d="M154.941-2.086 335.031-16.129"/>
</g>
</g>
<g clip-path="url(#clip_3)">
<g clip-path="url(#clip_4)">
<path transform="matrix(1,0,0,-1,0,0)" stroke-width="1.006" stroke-linecap="butt" stroke-miterlimit="4" stroke-linejoin="miter" fill="none" stroke="#211e1e" d="M154.941-2.086 20.438-16.129"/>
</g>
</g>
<path transform="matrix(1,0,0,-1,0,0)" stroke-width="1.006" stroke-linecap="butt" stroke-miterlimit="4" stroke-linejoin="miter" fill="none" stroke="#211e1e" d="M152.66-114.43 154.371-124.961"/>
<path transform="matrix(1,0,0,-1,0,0)" stroke-width="1.006" stroke-linecap="butt" stroke-miterlimit="4" stroke-linejoin="miter" fill="none" stroke="#211e1e" d="M152.66-114.43 150.379-128.473 152.09-139.004"/>
<path transform="matrix(1,0,0,-1,0,0)" stroke-width="1.006" stroke-linecap="butt" stroke-miterlimit="4" stroke-linejoin="miter" fill="none" stroke="#211e1e" d="M150.379-128.473 148.668-139.004"/>
<path transform="matrix(1,0,0,-1,0,0)" stroke-width="1.006" stroke-linecap="butt" stroke-miterlimit="4" stroke-linejoin="miter" fill="none" stroke="#211e1e" d="M148.098-100.387 152.66-114.43"/>
<path transform="matrix(1,0,0,-1,0,0)" stroke-width="1.006" stroke-linecap="butt" stroke-miterlimit="4" stroke-linejoin="miter" fill="none" stroke="#211e1e" d="M148.098-100.387 146.391-110.918"/>
<path transform="matrix(1,0,0,-1,0,0)" stroke-width="1.006" stroke-linecap="butt" stroke-miterlimit="4" stroke-linejoin="miter" fill="none" stroke="#211e1e" d="M145.82-86.344 148.098-100.387"/>
<path transform="matrix(1,0,0,-1,0,0)" stroke-width="1.006" stroke-linecap="butt" stroke-miterlimit="4" stroke-linejoin="miter" fill="none" stroke="#211e1e" d="M145.82-86.344 143.539-100.387 145.25-110.918"/>
<path transform="matrix(1,0,0,-1,0,0)" stroke-width="1.006" stroke-linecap="butt" stroke-miterlimit="4" stroke-linejoin="miter" fill="none" stroke="#211e1e" d="M143.539-100.387 141.828-110.918"/>
<path transform="matrix(1,0,0,-1,0,0)" stroke-width="1.006" stroke-linecap="butt" stroke-miterlimit="4" stroke-linejoin="miter" fill="none" stroke="#211e1e" d="M141.262-72.301 145.82-86.344"/>
<path transform="matrix(1,0,0,-1,0,0)" stroke-width="1.006" stroke-linecap="butt" stroke-miterlimit="4" stroke-linejoin="miter" fill="none" stroke="#211e1e" d="M141.262-72.301 139.551-82.832"/>
<path transform="matrix(1,0,0,-1,0,0)" stroke-width="1.006" stroke-linecap="butt" stroke-miterlimit="4" stroke-linejoin="miter" fill="none" stroke="#211e1e" d="M138.98-58.258 141.262-72.301"/>
<path transform="matrix(1,0,0,-1,0,0)" stroke-width="1.006" stroke-linecap="butt" stroke-miterlimit="4" stroke-linejoin="miter" fill="none" stroke="#211e1e" d="M138.98-58.258 132.141-72.301"/>
<path transform="matrix(1,0,0,-1,0,0)" stroke-width="1.006" stroke-linecap="butt" stroke-miterlimit="4" stroke-linejoin="miter" fill="none" stroke="#211e1e" d="M136.699-86.344 138.41-96.875"/>
<path transform="matrix(1,0,0,-1,0,0)" stroke-width="1.006" stroke-linecap="butt" stroke-miterlimit="4" stroke-linejoin="miter" fill="none" stroke="#211e1e" d="M136.699-86.344 134.422-100.387 136.129-110.918"/>
<path transform="matrix(1,0,0,-1,0,0)" stroke-width="1.006" stroke-linecap="butt" stroke-miterlimit="4" stroke-linejoin="miter" fill="none" stroke="#211e1e" d="M134.422-100.387 132.711-110.918"/>
<path transform="matrix(1,0,0,-1,0,0)" stroke-width="1.006" stroke-linecap="butt" stroke-miterlimit="4" stroke-linejoin="miter" fill="none" stroke="#211e1e" d="M132.141-72.301 136.699-86.344"/>
<path transform="matrix(1,0,0,-1,0,0)" stroke-width="1.006" stroke-linecap="butt" stroke-miterlimit="4" stroke-linejoin="miter" fill="none" stroke="#211e1e" d="M132.141-72.301 129.859-86.344 131.57-96.875"/>
<path transform="matrix(1,0,0,-1,0,0)" stroke-width="1.006" stroke-linecap="butt" stroke-miterlimit="4" stroke-linejoin="miter" fill="none" stroke="#211e1e" d="M129.859-86.344 127.582-100.387 129.289-110.918"/>
<path transform="matrix(1,0,0,-1,0,0)" stroke-width="1.006" stroke-linecap="butt" stroke-miterlimit="4" stroke-linejoin="miter" fill="none" stroke="#211e1e" d="M127.582-100.387 125.871-110.918"/>
<path transform="matrix(1,0,0,-1,0,0)" stroke-width="1.006" stroke-linecap="butt" stroke-miterlimit="4" stroke-linejoin="miter" fill="none" stroke="#211e1e" d="M125.301-44.215 138.98-58.258"/>
<path transform="matrix(1,0,0,-1,0,0)" stroke-width="1.006" stroke-linecap="butt" stroke-miterlimit="4" stroke-linejoin="miter" fill="none" stroke="#211e1e" d="M125.301-44.215 40.953-58.258"/>
<path transform="matrix(1,0,0,-1,0,0)" stroke-width="1.006" stroke-linecap="butt" stroke-miterlimit="4" stroke-linejoin="miter" fill="none" stroke="#211e1e" d="M123.023-86.344 124.73-96.875"/>
<path transform="matrix(1,0,0,-1,0,0)" stroke-width="1.006" stroke-linecap="butt" stroke-miterlimit="4" stroke-linejoin="miter" fill="none" stroke="#211e1e" d="M123.023-86.344 97.945-100.387"/>
<path transform="matrix(1,0,0,-1,0,0)" stroke-width="1.006" stroke-linecap="butt" stroke-miterlimit="4" stroke-linejoin="miter" fill="none" stroke="#211e1e" d="M120.742-142.516 122.453-153.047"/>
<path transform="matrix(1,0,0,-1,0,0)" stroke-width="1.006" stroke-linecap="butt" stroke-miterlimit="4" stroke-linejoin="miter" fill="none" stroke="#211e1e" d="M120.742-142.516 119.031-153.047"/>
<path transform="matrix(1,0,0,-1,0,0)" stroke-width="1.006" stroke-linecap="butt" stroke-miterlimit="4" stroke-linejoin="miter" fill="none" stroke="#211e1e" d="M118.461-128.473 120.742-142.516"/>
<path transform="matrix(1,0,0,-1,0,0)" stroke-width="1.006" stroke-linecap="butt" stroke-miterlimit="4" stroke-linejoin="miter" fill="none" stroke="#211e1e" d="M118.461-128.473 116.184-142.516 117.891-153.047"/>
<path transform="matrix(1,0,0,-1,0,0)" stroke-width="1.006" stroke-linecap="butt" stroke-miterlimit="4" stroke-linejoin="miter" fill="none" stroke="#211e1e" d="M116.184-142.516 114.473-153.047"/>
<path transform="matrix(1,0,0,-1,0,0)" stroke-width="1.006" stroke-linecap="butt" stroke-miterlimit="4" stroke-linejoin="miter" fill="none" stroke="#211e1e" d="M113.902-114.43 118.461-128.473"/>
<path transform="matrix(1,0,0,-1,0,0)" stroke-width="1.006" stroke-linecap="butt" stroke-miterlimit="4" stroke-linejoin="miter" fill="none" stroke="#211e1e" d="M113.902-114.43 104.785-128.473"/>
<path transform="matrix(1,0,0,-1,0,0)" stroke-width="1.006" stroke-linecap="butt" stroke-miterlimit="4" stroke-linejoin="miter" fill="none" stroke="#211e1e" d="M111.621-142.516 113.332-153.047"/>
<path transform="matrix(1,0,0,-1,0,0)" stroke-width="1.006" stroke-linecap="butt" stroke-miterlimit="4" stroke-linejoin="miter" fill="none" stroke="#211e1e" d="M111.621-142.516 107.063-156.559"/>
<path transform="matrix(1,0,0,-1,0,0)" stroke-width="1.006" stroke-linecap="butt" stroke-miterlimit="4" stroke-linejoin="miter" fill="none" stroke="#211e1e" d="M109.344-170.602 111.051-181.133"/>
<path transform="matrix(1,0,0,-1,0,0)" stroke-width="1.006" stroke-linecap="butt" stroke-miterlimit="4" stroke-linejoin="miter" fill="none" stroke="#211e1e" d="M109.344-170.602 107.633-181.133"/>
<path transform="matrix(1,0,0,-1,0,0)" stroke-width="1.006" stroke-linecap="butt" stroke-miterlimit="4" stroke-linejoin="miter" fill="none" stroke="#211e1e" d="M107.063-156.559 109.344-170.602"/>
<path transform="matrix(1,0,0,-1,0,0)" stroke-width="1.006" stroke-linecap="butt" stroke-miterlimit="4" stroke-linejoin="miter" fill="none" stroke="#211e1e" d="M107.063-156.559 105.352-167.09"/>
<path transform="matrix(1,0,0,-1,0,0)" stroke-width="1.006" stroke-linecap="butt" stroke-miterlimit="4" stroke-linejoin="miter" fill="none" stroke="#211e1e" d="M104.781-128.473 111.621-142.516"/>
<path transform="matrix(1,0,0,-1,0,0)" stroke-width="1.006" stroke-linecap="butt" stroke-miterlimit="4" stroke-linejoin="miter" fill="none" stroke="#211e1e" d="M104.781-128.473 100.223-142.516"/>
<path transform="matrix(1,0,0,-1,0,0)" stroke-width="1.006" stroke-linecap="butt" stroke-miterlimit="4" stroke-linejoin="miter" fill="none" stroke="#211e1e" d="M102.504-156.559 104.211-167.09"/>
<path transform="matrix(1,0,0,-1,0,0)" stroke-width="1.006" stroke-linecap="butt" stroke-miterlimit="4" stroke-linejoin="miter" fill="none" stroke="#211e1e" d="M102.504-156.559 100.793-167.09"/>
<path transform="matrix(1,0,0,-1,0,0)" stroke-width="1.006" stroke-linecap="butt" stroke-miterlimit="4" stroke-linejoin="miter" fill="none" stroke="#211e1e" d="M100.223-142.516 102.504-156.559"/>
<path transform="matrix(1,0,0,-1,0,0)" stroke-width="1.006" stroke-linecap="butt" stroke-miterlimit="4" stroke-linejoin="miter" fill="none" stroke="#211e1e" d="M100.223-142.516 98.512-153.047"/>
<path transform="matrix(1,0,0,-1,0,0)" stroke-width="1.006" stroke-linecap="butt" stroke-miterlimit="4" stroke-linejoin="miter" fill="none" stroke="#211e1e" d="M97.941-100.387 113.902-114.43"/>
<path transform="matrix(1,0,0,-1,0,0)" stroke-width="1.006" stroke-linecap="butt" stroke-miterlimit="4" stroke-linejoin="miter" fill="none" stroke="#211e1e" d="M97.941-100.387 95.664-114.43 97.375-124.965"/>
<path transform="matrix(1,0,0,-1,0,0)" stroke-width="1.006" stroke-linecap="butt" stroke-miterlimit="4" stroke-linejoin="miter" fill="none" stroke="#211e1e" d="M95.664-114.43 81.984-128.473"/>
<path transform="matrix(1,0,0,-1,0,0)" stroke-width="1.006" stroke-linecap="butt" stroke-miterlimit="4" stroke-linejoin="miter" fill="none" stroke="#211e1e" d="M93.383-142.516 95.094-153.047"/>
<path transform="matrix(1,0,0,-1,0,0)" stroke-width="1.006" stroke-linecap="butt" stroke-miterlimit="4" stroke-linejoin="miter" fill="none" stroke="#211e1e" d="M93.383-142.516 86.543-156.559"/>
<path transform="matrix(1,0,0,-1,0,0)" stroke-width="1.006" stroke-linecap="butt" stroke-miterlimit="4" stroke-linejoin="miter" fill="none" stroke="#211e1e" d="M91.102-184.641 92.813-195.176"/>
<path transform="matrix(1,0,0,-1,0,0)" stroke-width="1.006" stroke-linecap="butt" stroke-miterlimit="4" stroke-linejoin="miter" fill="none" stroke="#211e1e" d="M91.102-184.641 89.395-195.176"/>
<path transform="matrix(1,0,0,-1,0,0)" stroke-width="1.006" stroke-linecap="butt" stroke-miterlimit="4" stroke-linejoin="miter" fill="none" stroke="#211e1e" d="M88.824-170.602 91.102-184.641"/>
<path transform="matrix(1,0,0,-1,0,0)" stroke-width="1.006" stroke-linecap="butt" stroke-miterlimit="4" stroke-linejoin="miter" fill="none" stroke="#211e1e" d="M88.824-170.602 87.113-181.133"/>
<path transform="matrix(1,0,0,-1,0,0)" stroke-width="1.006" stroke-linecap="butt" stroke-miterlimit="4" stroke-linejoin="miter" fill="none" stroke="#211e1e" d="M86.543-156.559 88.824-170.602"/>
<path transform="matrix(1,0,0,-1,0,0)" stroke-width="1.006" stroke-linecap="butt" stroke-miterlimit="4" stroke-linejoin="miter" fill="none" stroke="#211e1e" d="M86.543-156.559 84.266-170.602 85.977-181.133"/>
<path transform="matrix(1,0,0,-1,0,0)" stroke-width="1.006" stroke-linecap="butt" stroke-miterlimit="4" stroke-linejoin="miter" fill="none" stroke="#211e1e" d="M84.266-170.602 82.555-181.133"/>
<path transform="matrix(1,0,0,-1,0,0)" stroke-width="1.006" stroke-linecap="butt" stroke-miterlimit="4" stroke-linejoin="miter" fill="none" stroke="#211e1e" d="M81.984-128.473 93.383-142.516"/>
<path transform="matrix(1,0,0,-1,0,0)" stroke-width="1.006" stroke-linecap="butt" stroke-miterlimit="4" stroke-linejoin="miter" fill="none" stroke="#211e1e" d="M81.984-128.473 79.703-142.516 81.414-153.047"/>
<path transform="matrix(1,0,0,-1,0,0)" stroke-width="1.006" stroke-linecap="butt" stroke-miterlimit="4" stroke-linejoin="miter" fill="none" stroke="#211e1e" d="M79.703-142.516 77.426-156.559 79.137-167.09"/>
<path transform="matrix(1,0,0,-1,0,0)" stroke-width="1.006" stroke-linecap="butt" stroke-miterlimit="4" stroke-linejoin="miter" fill="none" stroke="#211e1e" d="M77.426-156.559 75.145-170.602 76.855-181.133"/>
<path transform="matrix(1,0,0,-1,0,0)" stroke-width="1.006" stroke-linecap="butt" stroke-miterlimit="4" stroke-linejoin="miter" fill="none" stroke="#211e1e" d="M75.145-170.602 73.434-181.133"/>
<path transform="matrix(1,0,0,-1,0,0)" stroke-width="1.006" stroke-linecap="butt" stroke-miterlimit="4" stroke-linejoin="miter" fill="none" stroke="#211e1e" d="M72.863-72.301 123.02-86.344"/>
<path transform="matrix(1,0,0,-1,0,0)" stroke-width="1.006" stroke-linecap="butt" stroke-miterlimit="4" stroke-linejoin="miter" fill="none" stroke="#211e1e" d="M72.863-72.301 59.188-86.344"/>
<path transform="matrix(1,0,0,-1,0,0)" stroke-width="1.006" stroke-linecap="butt" stroke-miterlimit="4" stroke-linejoin="miter" fill="none" stroke="#211e1e" d="M70.586-114.43 72.297-124.961"/>
<path transform="matrix(1,0,0,-1,0,0)" stroke-width="1.006" stroke-linecap="butt" stroke-miterlimit="4" stroke-linejoin="miter" fill="none" stroke="#211e1e" d="M70.586-114.43 68.875-124.961"/>
<path transform="matrix(1,0,0,-1,0,0)" stroke-width="1.006" stroke-linecap="butt" stroke-miterlimit="4" stroke-linejoin="miter" fill="none" stroke="#211e1e" d="M68.305-100.387 70.586-114.43"/>
<path transform="matrix(1,0,0,-1,0,0)" stroke-width="1.006" stroke-linecap="butt" stroke-miterlimit="4" stroke-linejoin="miter" fill="none" stroke="#211e1e" d="M68.305-100.387 63.746-114.43"/>
<path transform="matrix(1,0,0,-1,0,0)" stroke-width="1.006" stroke-linecap="butt" stroke-miterlimit="4" stroke-linejoin="miter" fill="none" stroke="#211e1e" d="M66.027-128.473 67.734-139.004"/>
<path transform="matrix(1,0,0,-1,0,0)" stroke-width="1.006" stroke-linecap="butt" stroke-miterlimit="4" stroke-linejoin="miter" fill="none" stroke="#211e1e" d="M66.027-128.473 64.316-139.004"/>
<path transform="matrix(1,0,0,-1,0,0)" stroke-width="1.006" stroke-linecap="butt" stroke-miterlimit="4" stroke-linejoin="miter" fill="none" stroke="#211e1e" d="M63.746-114.43 66.027-128.473"/>
<path transform="matrix(1,0,0,-1,0,0)" stroke-width="1.006" stroke-linecap="butt" stroke-miterlimit="4" stroke-linejoin="miter" fill="none" stroke="#211e1e" d="M63.746-114.43 61.465-128.473 63.176-139.004"/>
<path transform="matrix(1,0,0,-1,0,0)" stroke-width="1.006" stroke-linecap="butt" stroke-miterlimit="4" stroke-linejoin="miter" fill="none" stroke="#211e1e" d="M61.465-128.473 59.754-139.004"/>
<path transform="matrix(1,0,0,-1,0,0)" stroke-width="1.006" stroke-linecap="butt" stroke-miterlimit="4" stroke-linejoin="miter" fill="none" stroke="#211e1e" d="M59.188-86.344 68.305-100.387"/>
<path transform="matrix(1,0,0,-1,0,0)" stroke-width="1.006" stroke-linecap="butt" stroke-miterlimit="4" stroke-linejoin="miter" fill="none" stroke="#211e1e" d="M59.188-86.344 56.906-100.387 58.617-110.918"/>
<path transform="matrix(1,0,0,-1,0,0)" stroke-width="1.006" stroke-linecap="butt" stroke-miterlimit="4" stroke-linejoin="miter" fill="none" stroke="#211e1e" d="M56.906-100.387 47.789-114.43"/>
<path transform="matrix(1,0,0,-1,0,0)" stroke-width="1.006" stroke-linecap="butt" stroke-miterlimit="4" stroke-linejoin="miter" fill="none" stroke="#211e1e" d="M54.625-128.473 56.336-139.004"/>
<path transform="matrix(1,0,0,-1,0,0)" stroke-width="1.006" stroke-linecap="butt" stroke-miterlimit="4" stroke-linejoin="miter" fill="none" stroke="#211e1e" d="M54.625-128.473 52.348-142.516 54.059-153.047"/>
<path transform="matrix(1,0,0,-1,0,0)" stroke-width="1.006" stroke-linecap="butt" stroke-miterlimit="4" stroke-linejoin="miter" fill="none" stroke="#211e1e" d="M52.348-142.516 50.066-156.555 51.777-167.09"/>
<path transform="matrix(1,0,0,-1,0,0)" stroke-width="1.006" stroke-linecap="butt" stroke-miterlimit="4" stroke-linejoin="miter" fill="none" stroke="#211e1e" d="M50.066-156.555 48.355-167.09"/>
<path transform="matrix(1,0,0,-1,0,0)" stroke-width="1.006" stroke-linecap="butt" stroke-miterlimit="4" stroke-linejoin="miter" fill="none" stroke="#211e1e" d="M47.785-114.43 54.625-128.473"/>
<path transform="matrix(1,0,0,-1,0,0)" stroke-width="1.006" stroke-linecap="butt" stroke-miterlimit="4" stroke-linejoin="miter" fill="none" stroke="#211e1e" d="M47.785-114.43 43.227-128.473"/>
<path transform="matrix(1,0,0,-1,0,0)" stroke-width="1.006" stroke-linecap="butt" stroke-miterlimit="4" stroke-linejoin="miter" fill="none" stroke="#211e1e" d="M45.508-142.516 47.219-153.047"/>
<path transform="matrix(1,0,0,-1,0,0)" stroke-width="1.006" stroke-linecap="butt" stroke-miterlimit="4" stroke-linejoin="miter" fill="none" stroke="#211e1e" d="M45.508-142.516 43.797-153.047"/>
<path transform="matrix(1,0,0,-1,0,0)" stroke-width="1.006" stroke-linecap="butt" stroke-miterlimit="4" stroke-linejoin="miter" fill="none" stroke="#211e1e" d="M43.227-128.473 45.508-142.516"/>
<path transform="matrix(1,0,0,-1,0,0)" stroke-width="1.006" stroke-linecap="butt" stroke-miterlimit="4" stroke-linejoin="miter" fill="none" stroke="#211e1e" d="M43.227-128.473 41.516-139.004"/>
<path transform="matrix(1,0,0,-1,0,0)" stroke-width="1.006" stroke-linecap="butt" stroke-miterlimit="4" stroke-linejoin="miter" fill="none" stroke="#211e1e" d="M40.949-58.258 72.863-72.301"/>
<path transform="matrix(1,0,0,-1,0,0)" stroke-width="1.006" stroke-linecap="butt" stroke-miterlimit="4" stroke-linejoin="miter" fill="none" stroke="#211e1e" d="M40.949-58.258 39.238-68.789"/>
<path transform="matrix(1,0,0,-1,0,0)" stroke-width="1.006" stroke-linecap="butt" stroke-miterlimit="4" stroke-linejoin="miter" fill="none" stroke="#211e1e" d="M38.668-30.172 125.293-44.215"/>
<path transform="matrix(1,0,0,-1,0,0)" stroke-width="1.006" stroke-linecap="butt" stroke-miterlimit="4" stroke-linejoin="miter" fill="none" stroke="#211e1e" d="M38.668-30.172 34.109-44.215"/>
<path transform="matrix(1,0,0,-1,0,0)" stroke-width="1.006" stroke-linecap="butt" stroke-miterlimit="4" stroke-linejoin="miter" fill="none" stroke="#211e1e" d="M36.387-58.258 38.098-68.789"/>
<path transform="matrix(1,0,0,-1,0,0)" stroke-width="1.006" stroke-linecap="butt" stroke-miterlimit="4" stroke-linejoin="miter" fill="none" stroke="#211e1e" d="M36.387-58.258 34.68-68.789"/>
<path transform="matrix(1,0,0,-1,0,0)" stroke-width="1.006" stroke-linecap="butt" stroke-miterlimit="4" stroke-linejoin="miter" fill="none" stroke="#211e1e" d="M34.109-44.215 36.387-58.258"/>
<path transform="matrix(1,0,0,-1,0,0)" stroke-width="1.006" stroke-linecap="butt" stroke-miterlimit="4" stroke-linejoin="miter" fill="none" stroke="#211e1e" d="M34.109-44.215 31.828-58.258 33.539-68.789"/>
<path transform="matrix(1,0,0,-1,0,0)" stroke-width="1.006" stroke-linecap="butt" stroke-miterlimit="4" stroke-linejoin="miter" fill="none" stroke="#211e1e" d="M31.828-58.258 27.27-72.301"/>
<path transform="matrix(1,0,0,-1,0,0)" stroke-width="1.006" stroke-linecap="butt" stroke-miterlimit="4" stroke-linejoin="miter" fill="none" stroke="#211e1e" d="M29.547-86.344 31.258-96.875"/>
<path transform="matrix(1,0,0,-1,0,0)" stroke-width="1.006" stroke-linecap="butt" stroke-miterlimit="4" stroke-linejoin="miter" fill="none" stroke="#211e1e" d="M29.547-86.344 27.836-96.875"/>
<path transform="matrix(1,0,0,-1,0,0)" stroke-width="1.006" stroke-linecap="butt" stroke-miterlimit="4" stroke-linejoin="miter" fill="none" stroke="#211e1e" d="M27.27-72.301 29.547-86.344"/>
<path transform="matrix(1,0,0,-1,0,0)" stroke-width="1.006" stroke-linecap="butt" stroke-miterlimit="4" stroke-linejoin="miter" fill="none" stroke="#211e1e" d="M27.27-72.301 22.707-86.344"/>
<path transform="matrix(1,0,0,-1,0,0)" stroke-width="1.006" stroke-linecap="butt" stroke-miterlimit="4" stroke-linejoin="miter" fill="none" stroke="#211e1e" d="M24.988-100.387 26.699-110.918"/>
<path transform="matrix(1,0,0,-1,0,0)" stroke-width="1.006" stroke-linecap="butt" stroke-miterlimit="4" stroke-linejoin="miter" fill="none" stroke="#211e1e" d="M24.988-100.387 23.277-110.918"/>
<path transform="matrix(1,0,0,-1,0,0)" stroke-width="1.006" stroke-linecap="butt" stroke-miterlimit="4" stroke-linejoin="miter" fill="none" stroke="#211e1e" d="M22.707-86.344 24.988-100.387"/>
<path transform="matrix(1,0,0,-1,0,0)" stroke-width="1.006" stroke-linecap="butt" stroke-miterlimit="4" stroke-linejoin="miter" fill="none" stroke="#211e1e" d="M22.707-86.344 21-96.875"/>
<path transform="matrix(1,0,0,-1,0,0)" stroke-width="1.006" stroke-linecap="butt" stroke-miterlimit="4" stroke-linejoin="miter" fill="none" stroke="#211e1e" d="M20.43-16.129 38.668-30.172"/>
<g clip-path="url(#clip_5)">
<g clip-path="url(#clip_6)">
<path transform="matrix(1,0,0,-1,0,0)" stroke-width="1.006" stroke-linecap="butt" stroke-miterlimit="4" stroke-linejoin="miter" fill="none" stroke="#211e1e" d="M20.43-16.129 2.191-30.172"/>
</g>
</g>
<path transform="matrix(1,0,0,-1,0,0)" stroke-width="1.006" stroke-linecap="butt" stroke-miterlimit="4" stroke-linejoin="miter" fill="none" stroke="#211e1e" d="M18.148-58.258 19.859-68.789"/>
<path transform="matrix(1,0,0,-1,0,0)" stroke-width="1.006" stroke-linecap="butt" stroke-miterlimit="4" stroke-linejoin="miter" fill="none" stroke="#211e1e" d="M18.148-58.258 16.438-68.789"/>
<path transform="matrix(1,0,0,-1,0,0)" stroke-width="1.006" stroke-linecap="butt" stroke-miterlimit="4" stroke-linejoin="miter" fill="none" stroke="#211e1e" d="M15.871-44.215 18.148-58.258"/>
<path transform="matrix(1,0,0,-1,0,0)" stroke-width="1.006" stroke-linecap="butt" stroke-miterlimit="4" stroke-linejoin="miter" fill="none" stroke="#211e1e" d="M15.871-44.215 11.309-58.258"/>
<path transform="matrix(1,0,0,-1,0,0)" stroke-width="1.006" stroke-linecap="butt" stroke-miterlimit="4" stroke-linejoin="miter" fill="none" stroke="#211e1e" d="M13.59-72.301 15.301-82.832"/>
<path transform="matrix(1,0,0,-1,0,0)" stroke-width="1.006" stroke-linecap="butt" stroke-miterlimit="4" stroke-linejoin="miter" fill="none" stroke="#211e1e" d="M13.59-72.301 11.879-82.832"/>
<path transform="matrix(1,0,0,-1,0,0)" stroke-width="1.006" stroke-linecap="butt" stroke-miterlimit="4" stroke-linejoin="miter" fill="none" stroke="#211e1e" d="M11.309-58.258 13.59-72.301"/>
<g clip-path="url(#clip_7)">
<g clip-path="url(#clip_8)">
<path transform="matrix(1,0,0,-1,0,0)" stroke-width="1.006" stroke-linecap="butt" stroke-miterlimit="4" stroke-linejoin="miter" fill="none" stroke="#211e1e" d="M11.309-58.258 4.473-72.301"/>
</g>
</g>
<path transform="matrix(1,0,0,-1,0,0)" stroke-width="1.006" stroke-linecap="butt" stroke-miterlimit="4" stroke-linejoin="miter" fill="none" stroke="#211e1e" d="M9.031-100.383 10.738-110.918"/>
<path transform="matrix(1,0,0,-1,0,0)" stroke-width="1.006" stroke-linecap="butt" stroke-miterlimit="4" stroke-linejoin="miter" fill="none" stroke="#211e1e" d="M9.031-100.383 7.32-110.918"/>
<path transform="matrix(1,0,0,-1,0,0)" stroke-width="1.006" stroke-linecap="butt" stroke-miterlimit="4" stroke-linejoin="miter" fill="none" stroke="#211e1e" d="M6.75-86.344 9.031-100.383"/>
<g clip-path="url(#clip_9)">
<g clip-path="url(#clip_10)">
<path transform="matrix(1,0,0,-1,0,0)" stroke-width="1.006" stroke-linecap="butt" stroke-miterlimit="4" stroke-linejoin="miter" fill="none" stroke="#211e1e" d="M6.75-86.344 5.039-96.875"/>
</g>
</g>
<g clip-path="url(#clip_11)">
<g clip-path="url(#clip_12)">
<path transform="matrix(1,0,0,-1,0,0)" stroke-width="1.006" stroke-linecap="butt" stroke-miterlimit="4" stroke-linejoin="miter" fill="none" stroke="#211e1e" d="M4.473-72.301 6.75-86.344"/>
</g>
</g>
<g clip-path="url(#clip_13)">
<g clip-path="url(#clip_14)">
<path transform="matrix(1,0,0,-1,0,0)" stroke-width="1.006" stroke-linecap="butt" stroke-miterlimit="4" stroke-linejoin="miter" fill="none" stroke="#211e1e" d="M4.473-72.301 2.762-82.832"/>
</g>
</g>
<g clip-path="url(#clip_15)">
<g clip-path="url(#clip_16)">
<path transform="matrix(1,0,0,-1,0,0)" stroke-width="1.006" stroke-linecap="butt" stroke-miterlimit="4" stroke-linejoin="miter" fill="none" stroke="#211e1e" d="M2.191-30.172 15.867-44.215"/>
</g>
</g>
<g clip-path="url(#clip_17)">
<g clip-path="url(#clip_18)">
<path transform="matrix(1,0,0,-1,0,0)" stroke-width="1.006" stroke-linecap="butt" stroke-miterlimit="4" stroke-linejoin="miter" fill="none" stroke="#211e1e" d="M2.191-30.172 .48-40.703"/>
</g>
</g>
<g clip-path="url(#clip_19)">
<g clip-path="url(#clip_20)">
<path transform="matrix(1,0,0,-1,0,0)" stroke-width="1.006" stroke-linecap="square" stroke-linejoin="round" fill="none" stroke="#211e1e" d="M350.996-100.387 352.707-110.918"/>
</g>
</g>
<path transform="matrix(1,0,0,-1,0,0)" stroke-width="1.006" stroke-linecap="square" stroke-linejoin="round" fill="none" stroke="#211e1e" d="M350.996-100.387 349.285-110.918"/>
<path transform="matrix(1,0,0,-1,0,0)" stroke-width="1.006" stroke-linecap="square" stroke-linejoin="round" fill="none" stroke="#211e1e" d="M348.715-86.344 350.996-100.387"/>
<path transform="matrix(1,0,0,-1,0,0)" stroke-width="1.006" stroke-linecap="square" stroke-linejoin="round" fill="none" stroke="#211e1e" d="M348.715-86.344 347.004-96.875"/>
<path transform="matrix(1,0,0,-1,0,0)" stroke-width="1.006" stroke-linecap="square" stroke-linejoin="round" fill="none" stroke="#211e1e" d="M346.438-72.301 348.715-86.344"/>
<path transform="matrix(1,0,0,-1,0,0)" stroke-width="1.006" stroke-linecap="square" stroke-linejoin="round" fill="none" stroke="#211e1e" d="M346.438-72.301 344.727-82.832"/>
<path transform="matrix(1,0,0,-1,0,0)" stroke-width="1.006" stroke-linecap="square" stroke-linejoin="round" fill="none" stroke="#211e1e" d="M344.156-58.258 346.438-72.301"/>
<path transform="matrix(1,0,0,-1,0,0)" stroke-width="1.006" stroke-linecap="square" stroke-linejoin="round" fill="none" stroke="#211e1e" d="M344.156-58.258 342.445-68.789"/>
<path transform="matrix(1,0,0,-1,0,0)" stroke-width="1.006" stroke-linecap="square" stroke-linejoin="round" fill="none" stroke="#211e1e" d="M341.875-44.215 344.156-58.258"/>
<path transform="matrix(1,0,0,-1,0,0)" stroke-width="1.006" stroke-linecap="square" stroke-linejoin="round" fill="none" stroke="#211e1e" d="M341.875-44.215 339.598-58.258 341.305-68.793"/>
<path transform="matrix(1,0,0,-1,0,0)" stroke-width="1.006" stroke-linecap="square" stroke-linejoin="round" fill="none" stroke="#211e1e" d="M339.598-58.258 337.887-68.789"/>
<path transform="matrix(1,0,0,-1,0,0)" stroke-width="1.006" stroke-linecap="square" stroke-linejoin="round" fill="none" stroke="#211e1e" d="M337.316-30.172 341.875-44.215"/>
<path transform="matrix(1,0,0,-1,0,0)" stroke-width="1.006" stroke-linecap="square" stroke-linejoin="round" fill="none" stroke="#211e1e" d="M337.316-30.172 335.605-40.707"/>
<path transform="matrix(1,0,0,-1,0,0)" stroke-width="1.006" stroke-linecap="square" stroke-linejoin="round" fill="none" stroke="#211e1e" d="M335.035-16.129 337.316-30.172"/>
<path transform="matrix(1,0,0,-1,0,0)" stroke-width="1.006" stroke-linecap="square" stroke-linejoin="round" fill="none" stroke="#211e1e" d="M335.035-16.129 262.086-30.172"/>
<path transform="matrix(1,0,0,-1,0,0)" stroke-width="1.006" stroke-linecap="square" stroke-linejoin="round" fill="none" stroke="#211e1e" d="M332.754-58.258 334.469-68.789"/>
<path transform="matrix(1,0,0,-1,0,0)" stroke-width="1.006" stroke-linecap="square" stroke-linejoin="round" fill="none" stroke="#211e1e" d="M332.754-58.258 331.047-68.789"/>
<path transform="matrix(1,0,0,-1,0,0)" stroke-width="1.006" stroke-linecap="square" stroke-linejoin="round" fill="none" stroke="#211e1e" d="M330.477-44.215 332.754-58.258"/>
<path transform="matrix(1,0,0,-1,0,0)" stroke-width="1.006" stroke-linecap="square" stroke-linejoin="round" fill="none" stroke="#211e1e" d="M330.477-44.215 282.605-58.258"/>
<path transform="matrix(1,0,0,-1,0,0)" stroke-width="1.006" stroke-linecap="square" stroke-linejoin="round" fill="none" stroke="#211e1e" d="M328.195-114.43 329.906-124.961"/>
<path transform="matrix(1,0,0,-1,0,0)" stroke-width="1.006" stroke-linecap="square" stroke-linejoin="round" fill="none" stroke="#211e1e" d="M328.195-114.43 325.918-128.473 327.629-139.004"/>
<path transform="matrix(1,0,0,-1,0,0)" stroke-width="1.006" stroke-linecap="square" stroke-linejoin="round" fill="none" stroke="#211e1e" d="M325.918-128.473 319.078-142.516"/>
<path transform="matrix(1,0,0,-1,0,0)" stroke-width="1.006" stroke-linecap="square" stroke-linejoin="round" fill="none" stroke="#211e1e" d="M323.637-170.602 325.348-181.133"/>
<path transform="matrix(1,0,0,-1,0,0)" stroke-width="1.006" stroke-linecap="square" stroke-linejoin="round" fill="none" stroke="#211e1e" d="M323.637-170.602 321.93-181.133"/>
<path transform="matrix(1,0,0,-1,0,0)" stroke-width="1.006" stroke-linecap="square" stroke-linejoin="round" fill="none" stroke="#211e1e" d="M321.355-156.559 323.637-170.602"/>
<path transform="matrix(1,0,0,-1,0,0)" stroke-width="1.006" stroke-linecap="square" stroke-linejoin="round" fill="none" stroke="#211e1e" d="M321.355-156.559 319.648-167.09"/>
<path transform="matrix(1,0,0,-1,0,0)" stroke-width="1.006" stroke-linecap="square" stroke-linejoin="round" fill="none" stroke="#211e1e" d="M319.078-142.516 321.355-156.559"/>
<path transform="matrix(1,0,0,-1,0,0)" stroke-width="1.006" stroke-linecap="square" stroke-linejoin="round" fill="none" stroke="#211e1e" d="M319.078-142.516 317.367-153.047"/>
<path transform="matrix(1,0,0,-1,0,0)" stroke-width="1.006" stroke-linecap="square" stroke-linejoin="round" fill="none" stroke="#211e1e" d="M316.797-100.387 328.195-114.43"/>
<path transform="matrix(1,0,0,-1,0,0)" stroke-width="1.006" stroke-linecap="square" stroke-linejoin="round" fill="none" stroke="#211e1e" d="M316.797-100.387 314.52-114.43 316.23-124.965"/>
<path transform="matrix(1,0,0,-1,0,0)" stroke-width="1.006" stroke-linecap="square" stroke-linejoin="round" fill="none" stroke="#211e1e" d="M314.52-114.43 312.809-124.961"/>
<path transform="matrix(1,0,0,-1,0,0)" stroke-width="1.006" stroke-linecap="square" stroke-linejoin="round" fill="none" stroke="#211e1e" d="M312.238-86.344 316.797-100.387"/>
<path transform="matrix(1,0,0,-1,0,0)" stroke-width="1.006" stroke-linecap="square" stroke-linejoin="round" fill="none" stroke="#211e1e" d="M312.238-86.344 303.117-100.387"/>
<path transform="matrix(1,0,0,-1,0,0)" stroke-width="1.006" stroke-linecap="square" stroke-linejoin="round" fill="none" stroke="#211e1e" d="M309.957-128.473 311.668-139.004"/>
<path transform="matrix(1,0,0,-1,0,0)" stroke-width="1.006" stroke-linecap="square" stroke-linejoin="round" fill="none" stroke="#211e1e" d="M309.957-128.473 308.25-139.004"/>
<path transform="matrix(1,0,0,-1,0,0)" stroke-width="1.006" stroke-linecap="square" stroke-linejoin="round" fill="none" stroke="#211e1e" d="M307.68-114.43 309.957-128.473"/>
<path transform="matrix(1,0,0,-1,0,0)" stroke-width="1.006" stroke-linecap="square" stroke-linejoin="round" fill="none" stroke="#211e1e" d="M307.68-114.43 305.398-128.473 307.109-139.004"/>
<path transform="matrix(1,0,0,-1,0,0)" stroke-width="1.006" stroke-linecap="square" stroke-linejoin="round" fill="none" stroke="#211e1e" d="M305.398-128.473 303.688-139.004"/>
<path transform="matrix(1,0,0,-1,0,0)" stroke-width="1.006" stroke-linecap="square" stroke-linejoin="round" fill="none" stroke="#211e1e" d="M303.117-100.387 307.68-114.43"/>
<path transform="matrix(1,0,0,-1,0,0)" stroke-width="1.006" stroke-linecap="square" stroke-linejoin="round" fill="none" stroke="#211e1e" d="M303.117-100.387 296.281-114.43"/>
<path transform="matrix(1,0,0,-1,0,0)" stroke-width="1.006" stroke-linecap="square" stroke-linejoin="round" fill="none" stroke="#211e1e" d="M300.84-142.516 302.551-153.047"/>
<path transform="matrix(1,0,0,-1,0,0)" stroke-width="1.006" stroke-linecap="square" stroke-linejoin="round" fill="none" stroke="#211e1e" d="M300.84-142.516 299.129-153.047"/>
<path transform="matrix(1,0,0,-1,0,0)" stroke-width="1.006" stroke-linecap="square" stroke-linejoin="round" fill="none" stroke="#211e1e" d="M298.559-128.473 300.84-142.516"/>
<path transform="matrix(1,0,0,-1,0,0)" stroke-width="1.006" stroke-linecap="square" stroke-linejoin="round" fill="none" stroke="#211e1e" d="M298.559-128.473 296.852-139.004"/>
<path transform="matrix(1,0,0,-1,0,0)" stroke-width="1.006" stroke-linecap="square" stroke-linejoin="round" fill="none" stroke="#211e1e" d="M296.281-114.43 298.559-128.473"/>
<path transform="matrix(1,0,0,-1,0,0)" stroke-width="1.006" stroke-linecap="square" stroke-linejoin="round" fill="none" stroke="#211e1e" d="M296.281-114.43 289.441-128.473"/>
<path transform="matrix(1,0,0,-1,0,0)" stroke-width="1.006" stroke-linecap="square" stroke-linejoin="round" fill="none" stroke="#211e1e" d="M294-156.559 295.711-167.09"/>
<path transform="matrix(1,0,0,-1,0,0)" stroke-width="1.006" stroke-linecap="square" stroke-linejoin="round" fill="none" stroke="#211e1e" d="M294-156.559 292.289-167.09"/>
<path transform="matrix(1,0,0,-1,0,0)" stroke-width="1.006" stroke-linecap="square" stroke-linejoin="round" fill="none" stroke="#211e1e" d="M291.719-142.516 294-156.559"/>
<path transform="matrix(1,0,0,-1,0,0)" stroke-width="1.006" stroke-linecap="square" stroke-linejoin="round" fill="none" stroke="#211e1e" d="M291.719-142.516 290.012-153.047"/>
<path transform="matrix(1,0,0,-1,0,0)" stroke-width="1.006" stroke-linecap="square" stroke-linejoin="round" fill="none" stroke="#211e1e" d="M289.441-128.473 291.719-142.516"/>
<path transform="matrix(1,0,0,-1,0,0)" stroke-width="1.006" stroke-linecap="square" stroke-linejoin="round" fill="none" stroke="#211e1e" d="M289.441-128.473 287.73-139.004"/>
<path transform="matrix(1,0,0,-1,0,0)" stroke-width="1.006" stroke-linecap="square" stroke-linejoin="round" fill="none" stroke="#211e1e" d="M287.16-72.301 312.238-86.344"/>
<path transform="matrix(1,0,0,-1,0,0)" stroke-width="1.006" stroke-linecap="square" stroke-linejoin="round" fill="none" stroke="#211e1e" d="M287.16-72.301 284.879-86.344 286.59-96.875"/>
<path transform="matrix(1,0,0,-1,0,0)" stroke-width="1.006" stroke-linecap="square" stroke-linejoin="round" fill="none" stroke="#211e1e" d="M284.879-86.344 283.168-96.875"/>
<path transform="matrix(1,0,0,-1,0,0)" stroke-width="1.006" stroke-linecap="square" stroke-linejoin="round" fill="none" stroke="#211e1e" d="M282.602-58.258 287.16-72.301"/>
<path transform="matrix(1,0,0,-1,0,0)" stroke-width="1.006" stroke-linecap="square" stroke-linejoin="round" fill="none" stroke="#211e1e" d="M282.602-58.258 278.043-72.301"/>
<path transform="matrix(1,0,0,-1,0,0)" stroke-width="1.006" stroke-linecap="square" stroke-linejoin="round" fill="none" stroke="#211e1e" d="M280.32-86.344 282.031-96.875"/>
<path transform="matrix(1,0,0,-1,0,0)" stroke-width="1.006" stroke-linecap="square" stroke-linejoin="round" fill="none" stroke="#211e1e" d="M280.32-86.344 278.609-96.875"/>
<path transform="matrix(1,0,0,-1,0,0)" stroke-width="1.006" stroke-linecap="square" stroke-linejoin="round" fill="none" stroke="#211e1e" d="M278.043-72.301 280.32-86.344"/>
<path transform="matrix(1,0,0,-1,0,0)" stroke-width="1.006" stroke-linecap="square" stroke-linejoin="round" fill="none" stroke="#211e1e" d="M278.043-72.301 271.199-86.344"/>
<path transform="matrix(1,0,0,-1,0,0)" stroke-width="1.006" stroke-linecap="square" stroke-linejoin="round" fill="none" stroke="#211e1e" d="M275.762-114.43 277.473-124.961"/>
<path transform="matrix(1,0,0,-1,0,0)" stroke-width="1.006" stroke-linecap="square" stroke-linejoin="round" fill="none" stroke="#211e1e" d="M275.762-114.43 274.051-124.961"/>
<path transform="matrix(1,0,0,-1,0,0)" stroke-width="1.006" stroke-linecap="square" stroke-linejoin="round" fill="none" stroke="#211e1e" d="M273.48-100.387 275.762-114.43"/>
<path transform="matrix(1,0,0,-1,0,0)" stroke-width="1.006" stroke-linecap="square" stroke-linejoin="round" fill="none" stroke="#211e1e" d="M273.48-100.387 271.773-110.918"/>
<path transform="matrix(1,0,0,-1,0,0)" stroke-width="1.006" stroke-linecap="square" stroke-linejoin="round" fill="none" stroke="#211e1e" d="M271.199-86.344 273.48-100.387"/>
<path transform="matrix(1,0,0,-1,0,0)" stroke-width="1.006" stroke-linecap="square" stroke-linejoin="round" fill="none" stroke="#211e1e" d="M271.199-86.344 264.363-100.387"/>
<path transform="matrix(1,0,0,-1,0,0)" stroke-width="1.006" stroke-linecap="square" stroke-linejoin="round" fill="none" stroke="#211e1e" d="M268.922-114.43 270.629-124.961"/>
<path transform="matrix(1,0,0,-1,0,0)" stroke-width="1.006" stroke-linecap="square" stroke-linejoin="round" fill="none" stroke="#211e1e" d="M268.922-114.43 266.641-128.473 268.352-139.004"/>
<path transform="matrix(1,0,0,-1,0,0)" stroke-width="1.006" stroke-linecap="square" stroke-linejoin="round" fill="none" stroke="#211e1e" d="M266.641-128.473 264.934-139.004"/>
<path transform="matrix(1,0,0,-1,0,0)" stroke-width="1.006" stroke-linecap="square" stroke-linejoin="round" fill="none" stroke="#211e1e" d="M264.363-100.387 268.922-114.43"/>
<path transform="matrix(1,0,0,-1,0,0)" stroke-width="1.006" stroke-linecap="square" stroke-linejoin="round" fill="none" stroke="#211e1e" d="M264.363-100.387 262.652-110.918"/>
<path transform="matrix(1,0,0,-1,0,0)" stroke-width="1.006" stroke-linecap="square" stroke-linejoin="round" fill="none" stroke="#211e1e" d="M262.082-30.172 330.473-44.215"/>
<path transform="matrix(1,0,0,-1,0,0)" stroke-width="1.006" stroke-linecap="square" stroke-linejoin="round" fill="none" stroke="#211e1e" d="M262.082-30.172 218.77-44.215"/>
<path transform="matrix(1,0,0,-1,0,0)" stroke-width="1.006" stroke-linecap="square" stroke-linejoin="round" fill="none" stroke="#211e1e" d="M259.805-100.387 261.512-110.918"/>
<path transform="matrix(1,0,0,-1,0,0)" stroke-width="1.006" stroke-linecap="square" stroke-linejoin="round" fill="none" stroke="#211e1e" d="M259.805-100.387 258.094-110.918"/>
<path transform="matrix(1,0,0,-1,0,0)" stroke-width="1.006" stroke-linecap="square" stroke-linejoin="round" fill="none" stroke="#211e1e" d="M257.523-86.344 259.805-100.387"/>
<path transform="matrix(1,0,0,-1,0,0)" stroke-width="1.006" stroke-linecap="square" stroke-linejoin="round" fill="none" stroke="#211e1e" d="M257.523-86.344 255.813-96.875"/>
<path transform="matrix(1,0,0,-1,0,0)" stroke-width="1.006" stroke-linecap="square" stroke-linejoin="round" fill="none" stroke="#211e1e" d="M255.242-72.301 257.523-86.344"/>
<path transform="matrix(1,0,0,-1,0,0)" stroke-width="1.006" stroke-linecap="square" stroke-linejoin="round" fill="none" stroke="#211e1e" d="M255.242-72.301 246.125-86.344"/>
<path transform="matrix(1,0,0,-1,0,0)" stroke-width="1.006" stroke-linecap="square" stroke-linejoin="round" fill="none" stroke="#211e1e" d="M252.961-114.43 254.672-124.961"/>
<path transform="matrix(1,0,0,-1,0,0)" stroke-width="1.006" stroke-linecap="square" stroke-linejoin="round" fill="none" stroke="#211e1e" d="M252.961-114.43 250.684-128.473 252.395-139.004"/>
<path transform="matrix(1,0,0,-1,0,0)" stroke-width="1.006" stroke-linecap="square" stroke-linejoin="round" fill="none" stroke="#211e1e" d="M250.684-128.473 248.973-139.004"/>
<path transform="matrix(1,0,0,-1,0,0)" stroke-width="1.006" stroke-linecap="square" stroke-linejoin="round" fill="none" stroke="#211e1e" d="M248.402-100.387 252.961-114.43"/>
<path transform="matrix(1,0,0,-1,0,0)" stroke-width="1.006" stroke-linecap="square" stroke-linejoin="round" fill="none" stroke="#211e1e" d="M248.402-100.387 246.691-110.918"/>
<path transform="matrix(1,0,0,-1,0,0)" stroke-width="1.006" stroke-linecap="square" stroke-linejoin="round" fill="none" stroke="#211e1e" d="M246.125-86.344 248.402-100.387"/>
<path transform="matrix(1,0,0,-1,0,0)" stroke-width="1.006" stroke-linecap="square" stroke-linejoin="round" fill="none" stroke="#211e1e" d="M246.125-86.344 234.727-100.387"/>
<path transform="matrix(1,0,0,-1,0,0)" stroke-width="1.006" stroke-linecap="square" stroke-linejoin="round" fill="none" stroke="#211e1e" d="M243.844-114.43 245.555-124.961"/>
<path transform="matrix(1,0,0,-1,0,0)" stroke-width="1.006" stroke-linecap="square" stroke-linejoin="round" fill="none" stroke="#211e1e" d="M243.844-114.43 237.004-128.473"/>
<path transform="matrix(1,0,0,-1,0,0)" stroke-width="1.006" stroke-linecap="square" stroke-linejoin="round" fill="none" stroke="#211e1e" d="M241.563-156.555 243.273-167.09"/>
<path transform="matrix(1,0,0,-1,0,0)" stroke-width="1.006" stroke-linecap="square" stroke-linejoin="round" fill="none" stroke="#211e1e" d="M241.563-156.555 239.852-167.09"/>
<path transform="matrix(1,0,0,-1,0,0)" stroke-width="1.006" stroke-linecap="square" stroke-linejoin="round" fill="none" stroke="#211e1e" d="M239.285-142.516 241.563-156.555"/>
<path transform="matrix(1,0,0,-1,0,0)" stroke-width="1.006" stroke-linecap="square" stroke-linejoin="round" fill="none" stroke="#211e1e" d="M239.285-142.516 237.574-153.047"/>
<path transform="matrix(1,0,0,-1,0,0)" stroke-width="1.006" stroke-linecap="square" stroke-linejoin="round" fill="none" stroke="#211e1e" d="M237.004-128.473 239.285-142.516"/>
<path transform="matrix(1,0,0,-1,0,0)" stroke-width="1.006" stroke-linecap="square" stroke-linejoin="round" fill="none" stroke="#211e1e" d="M237.004-128.473 235.293-139.004"/>
<path transform="matrix(1,0,0,-1,0,0)" stroke-width="1.006" stroke-linecap="square" stroke-linejoin="round" fill="none" stroke="#211e1e" d="M234.727-100.387 243.844-114.43"/>
<path transform="matrix(1,0,0,-1,0,0)" stroke-width="1.006" stroke-linecap="square" stroke-linejoin="round" fill="none" stroke="#211e1e" d="M234.727-100.387 233.016-110.918"/>
<path transform="matrix(1,0,0,-1,0,0)" stroke-width="1.006" stroke-linecap="square" stroke-linejoin="round" fill="none" stroke="#211e1e" d="M232.445-58.258 255.242-72.301"/>
<path transform="matrix(1,0,0,-1,0,0)" stroke-width="1.006" stroke-linecap="square" stroke-linejoin="round" fill="none" stroke="#211e1e" d="M232.445-58.258 223.328-72.301"/>
<path transform="matrix(1,0,0,-1,0,0)" stroke-width="1.006" stroke-linecap="square" stroke-linejoin="round" fill="none" stroke="#211e1e" d="M230.164-86.344 231.875-96.875"/>
<path transform="matrix(1,0,0,-1,0,0)" stroke-width="1.006" stroke-linecap="square" stroke-linejoin="round" fill="none" stroke="#211e1e" d="M230.164-86.344 227.887-100.387"/>
<path d="M4.293 30.172C4.293 31.328 3.359 32.262 2.207 32.262 1.055 32.262 .117 31.328 .117 30.172 .117 29.02 1.055 28.082 2.207 28.082 3.359 28.082 4.293 29.02 4.293 30.172" fill="#211e1e"/>
<path d="M6.574 72.301C6.574 73.453 5.641 74.391 4.484 74.391 3.332 74.391 2.395 73.453 2.395 72.301 2.395 71.148 3.332 70.211 4.484 70.211 5.641 70.211 6.574 71.148 6.574 72.301" fill="#211e1e"/>
<path d="M8.855 86.344C8.855 87.5 7.918 88.434 6.766 88.434 5.613 88.434 4.676 87.5 4.676 86.344 4.676 85.191 5.613 84.254 6.766 84.254 7.918 84.254 8.855 85.191 8.855 86.344" fill="#211e1e"/>
<path d="M11.133 100.387C11.133 101.539 10.199 102.477 9.043 102.477 7.891 102.477 6.957 101.539 6.957 100.387 6.957 99.234 7.891 98.297 9.043 98.297 10.199 98.297 11.133 99.234 11.133 100.387" fill="#211e1e"/>
<path d="M13.414 58.258C13.414 59.414 12.477 60.348 11.324 60.348 10.172 60.348 9.234 59.414 9.234 58.258 9.234 57.105 10.172 56.168 11.324 56.168 12.477 56.168 13.414 57.105 13.414 58.258" fill="#211e1e"/>
<path d="M15.691 72.301C15.691 73.453 14.758 74.391 13.605 74.391 12.449 74.391 11.516 73.453 11.516 72.301 11.516 71.148 12.449 70.211 13.605 70.211 14.758 70.211 15.691 71.148 15.691 72.301" fill="#211e1e"/>
<path d="M17.973 44.215C17.973 45.371 17.039 46.305 15.883 46.305 14.73 46.305 13.793 45.371 13.793 44.215 13.793 43.063 14.73 42.125 15.883 42.125 17.039 42.125 17.973 43.063 17.973 44.215" fill="#211e1e"/>
<path d="M20.25 58.258C20.25 59.414 19.316 60.348 18.164 60.348 17.012 60.348 16.074 59.414 16.074 58.258 16.074 57.105 17.012 56.168 18.164 56.168 19.316 56.168 20.25 57.105 20.25 58.258" fill="#211e1e"/>
<path d="M22.531 16.129C22.531 17.285 21.598 18.219 20.441 18.219 19.289 18.219 18.355 17.285 18.355 16.129 18.355 14.977 19.289 14.039 20.441 14.039 21.598 14.039 22.531 14.977 22.531 16.129" fill="#211e1e"/>
<path d="M24.813 86.344C24.813 87.5 23.875 88.434 22.723 88.434 21.57 88.434 20.633 87.5 20.633 86.344 20.633 85.191 21.57 84.254 22.723 84.254 23.875 84.254 24.813 85.191 24.813 86.344" fill="#211e1e"/>
<path d="M27.09 100.387C27.09 101.539 26.156 102.477 25 102.477 23.848 102.477 22.914 101.539 22.914 100.387 22.914 99.234 23.848 98.297 25 98.297 26.156 98.297 27.09 99.234 27.09 100.387" fill="#211e1e"/>
<path d="M29.371 72.301C29.371 73.453 28.438 74.391 27.281 74.391 26.129 74.391 25.195 73.453 25.195 72.301 25.195 71.148 26.129 70.211 27.281 70.211 28.438 70.211 29.371 71.148 29.371 72.301" fill="#211e1e"/>
<path d="M31.652 86.344C31.652 87.5 30.715 88.434 29.563 88.434 28.41 88.434 27.473 87.5 27.473 86.344 27.473 85.191 28.41 84.254 29.563 84.254 30.715 84.254 31.652 85.191 31.652 86.344" fill="#211e1e"/>
<path d="M33.93 58.258C33.93 59.414 32.996 60.348 31.84 60.348 30.688 60.348 29.75 59.414 29.75 58.258 29.75 57.105 30.688 56.168 31.84 56.168 32.996 56.168 33.93 57.105 33.93 58.258" fill="#211e1e"/>
<path d="M36.211 44.215C36.211 45.371 35.273 46.305 34.121 46.305 32.969 46.305 32.031 45.371 32.031 44.215 32.031 43.063 32.969 42.125 34.121 42.125 35.273 42.125 36.211 43.063 36.211 44.215" fill="#211e1e"/>
<path d="M38.488 58.258C38.488 59.414 37.555 60.348 36.398 60.348 35.246 60.348 34.313 59.414 34.313 58.258 34.313 57.105 35.246 56.168 36.398 56.168 37.555 56.168 38.488 57.105 38.488 58.258" fill="#211e1e"/>
<path d="M40.77 30.172C40.77 31.328 39.832 32.262 38.68 32.262 37.527 32.262 36.59 31.328 36.59 30.172 36.59 29.02 37.527 28.082 38.68 28.082 39.832 28.082 40.77 29.02 40.77 30.172" fill="#211e1e"/>
<path d="M43.051 58.258C43.051 59.414 42.113 60.348 40.961 60.348 39.809 60.348 38.871 59.414 38.871 58.258 38.871 57.105 39.809 56.168 40.961 56.168 42.113 56.168 43.051 57.105 43.051 58.258" fill="#211e1e"/>
<path d="M45.328 128.473C45.328 129.625 44.395 130.563 43.238 130.563 42.086 130.563 41.152 129.625 41.152 128.473 41.152 127.32 42.086 126.383 43.238 126.383 44.395 126.383 45.328 127.32 45.328 128.473" fill="#211e1e"/>
<path d="M47.609 142.516C47.609 143.668 46.672 144.605 45.52 144.605 44.367 144.605 43.43 143.668 43.43 142.516 43.43 141.363 44.367 140.426 45.52 140.426 46.672 140.426 47.609 141.363 47.609 142.516" fill="#211e1e"/>
<path d="M49.887 114.43C49.887 115.582 48.953 116.52 47.801 116.52 46.645 116.52 45.711 115.582 45.711 114.43 45.711 113.277 46.645 112.34 47.801 112.34 48.953 112.34 49.887 113.277 49.887 114.43" fill="#211e1e"/>
<path d="M52.168 156.559C52.168 157.711 51.234 158.648 50.078 158.648 48.926 158.648 47.988 157.711 47.988 156.559 47.988 155.402 48.926 154.469 50.078 154.469 51.234 154.469 52.168 155.402 52.168 156.559" fill="#211e1e"/>
<path d="M54.445 142.516C54.445 143.668 53.512 144.605 52.359 144.605 51.203 144.605 50.27 143.668 50.27 142.516 50.27 141.363 51.203 140.426 52.359 140.426 53.512 140.426 54.445 141.363 54.445 142.516" fill="#211e1e"/>
<path d="M56.727 128.473C56.727 129.625 55.793 130.563 54.637 130.563 53.484 130.563 52.551 129.625 52.551 128.473 52.551 127.32 53.484 126.383 54.637 126.383 55.793 126.383 56.727 127.32 56.727 128.473" fill="#211e1e"/>
<path d="M59.004 100.387C59.004 101.539 58.07 102.477 56.918 102.477 55.766 102.477 54.828 101.539 54.828 100.387 54.828 99.234 55.766 98.297 56.918 98.297 58.07 98.297 59.004 99.234 59.004 100.387" fill="#211e1e"/>
<path d="M61.285 86.344C61.285 87.5 60.352 88.434 59.195 88.434 58.043 88.434 57.109 87.5 57.109 86.344 57.109 85.191 58.043 84.254 59.195 84.254 60.352 84.254 61.285 85.191 61.285 86.344" fill="#211e1e"/>
<path d="M63.566 128.473C63.566 129.625 62.629 130.563 61.477 130.563 60.324 130.563 59.387 129.625 59.387 128.473 59.387 127.32 60.324 126.383 61.477 126.383 62.629 126.383 63.566 127.32 63.566 128.473" fill="#211e1e"/>
<path d="M65.848 114.43C65.848 115.582 64.91 116.52 63.758 116.52 62.605 116.52 61.668 115.582 61.668 114.43 61.668 113.277 62.605 112.34 63.758 112.34 64.91 112.34 65.848 113.277 65.848 114.43" fill="#211e1e"/>
<path d="M68.125 128.473C68.125 129.625 67.191 130.563 66.035 130.563 64.883 130.563 63.949 129.625 63.949 128.473 63.949 127.32 64.883 126.383 66.035 126.383 67.191 126.383 68.125 127.32 68.125 128.473" fill="#211e1e"/>
<path d="M70.406 100.387C70.406 101.539 69.469 102.477 68.316 102.477 67.164 102.477 66.227 101.539 66.227 100.387 66.227 99.234 67.164 98.297 68.316 98.297 69.469 98.297 70.406 99.234 70.406 100.387" fill="#211e1e"/>
<path d="M72.684 114.43C72.684 115.582 71.75 116.52 70.594 116.52 69.441 116.52 68.504 115.582 68.504 114.43 68.504 113.277 69.441 112.34 70.594 112.34 71.75 112.34 72.684 113.277 72.684 114.43" fill="#211e1e"/>
<path d="M74.965 72.301C74.965 73.453 74.027 74.391 72.875 74.391 71.723 74.391 70.785 73.453 70.785 72.301 70.785 71.148 71.723 70.211 72.875 70.211 74.027 70.211 74.965 71.148 74.965 72.301" fill="#211e1e"/>
<path d="M77.242 170.602C77.242 171.754 76.309 172.691 75.156 172.691 74 172.691 73.066 171.754 73.066 170.602 73.066 169.449 74 168.512 75.156 168.512 76.309 168.512 77.242 169.449 77.242 170.602" fill="#211e1e"/>
<path d="M79.523 156.559C79.523 157.711 78.59 158.648 77.434 158.648 76.281 158.648 75.348 157.711 75.348 156.559 75.348 155.402 76.281 154.469 77.434 154.469 78.59 154.469 79.523 155.402 79.523 156.559" fill="#211e1e"/>
<path d="M81.805 142.516C81.805 143.668 80.867 144.605 79.715 144.605 78.563 144.605 77.625 143.668 77.625 142.516 77.625 141.363 78.563 140.426 79.715 140.426 80.867 140.426 81.805 141.363 81.805 142.516" fill="#211e1e"/>
<path d="M84.082 128.473C84.082 129.625 83.148 130.563 81.992 130.563 80.84 130.563 79.906 129.625 79.906 128.473 79.906 127.32 80.84 126.383 81.992 126.383 83.148 126.383 84.082 127.32 84.082 128.473" fill="#211e1e"/>
<path d="M86.363 170.602C86.363 171.754 85.43 172.691 84.273 172.691 83.121 172.691 82.184 171.754 82.184 170.602 82.184 169.449 83.121 168.512 84.273 168.512 85.43 168.512 86.363 169.449 86.363 170.602" fill="#211e1e"/>
<path d="M88.641 156.559C88.641 157.711 87.707 158.648 86.555 158.648 85.398 158.648 84.465 157.711 84.465 156.559 84.465 155.402 85.398 154.469 86.555 154.469 87.707 154.469 88.641 155.402 88.641 156.559" fill="#211e1e"/>
<path d="M90.922 170.602C90.922 171.754 89.988 172.691 88.832 172.691 87.68 172.691 86.746 171.754 86.746 170.602 86.746 169.449 87.68 168.512 88.832 168.512 89.988 168.512 90.922 169.449 90.922 170.602" fill="#211e1e"/>
<path d="M93.203 184.641C93.203 185.797 92.266 186.734 91.113 186.734 89.957 186.734 89.023 185.797 89.023 184.641 89.023 183.492 89.957 182.555 91.113 182.555 92.266 182.555 93.203 183.492 93.203 184.641" fill="#211e1e"/>
<path d="M95.48 142.516C95.48 143.668 94.547 144.605 93.391 144.605 92.238 144.605 91.305 143.668 91.305 142.516 91.305 141.363 92.238 140.426 93.391 140.426 94.547 140.426 95.48 141.363 95.48 142.516" fill="#211e1e"/>
<path d="M97.762 114.43C97.762 115.582 96.824 116.52 95.672 116.52 94.52 116.52 93.582 115.582 93.582 114.43 93.582 113.277 94.52 112.34 95.672 112.34 96.824 112.34 97.762 113.277 97.762 114.43" fill="#211e1e"/>
<path d="M100.039 100.387C100.039 101.539 99.105 102.477 97.949 102.477 96.797 102.477 95.863 101.539 95.863 100.387 95.863 99.234 96.797 98.297 97.949 98.297 99.105 98.297 100.039 99.234 100.039 100.387" fill="#211e1e"/>
<path d="M102.32 142.516C102.32 143.668 101.387 144.605 100.23 144.605 99.078 144.605 98.145 143.668 98.145 142.516 98.145 141.363 99.078 140.426 100.23 140.426 101.387 140.426 102.32 141.363 102.32 142.516" fill="#211e1e"/>
<path d="M104.602 156.559C104.602 157.711 103.664 158.648 102.512 158.648 101.355 158.648 100.422 157.711 100.422 156.559 100.422 155.402 101.355 154.469 102.512 154.469 103.664 154.469 104.602 155.402 104.602 156.559" fill="#211e1e"/>
<path d="M106.879 128.473C106.879 129.625 105.945 130.563 104.789 130.563 103.637 130.563 102.703 129.625 102.703 128.473 102.703 127.32 103.637 126.383 104.789 126.383 105.945 126.383 106.879 127.32 106.879 128.473" fill="#211e1e"/>
<path d="M109.16 156.559C109.16 157.711 108.227 158.648 107.07 158.648 105.918 158.648 104.98 157.711 104.98 156.559 104.98 155.402 105.918 154.469 107.07 154.469 108.227 154.469 109.16 155.402 109.16 156.559" fill="#211e1e"/>
<path d="M111.438 170.602C111.438 171.754 110.504 172.691 109.348 172.691 108.195 172.691 107.262 171.754 107.262 170.602 107.262 169.449 108.195 168.512 109.348 168.512 110.504 168.512 111.438 169.449 111.438 170.602" fill="#211e1e"/>
<path d="M113.719 142.516C113.719 143.668 112.785 144.605 111.629 144.605 110.477 144.605 109.539 143.668 109.539 142.516 109.539 141.363 110.477 140.426 111.629 140.426 112.785 140.426 113.719 141.363 113.719 142.516" fill="#211e1e"/>
<path d="M115.996 114.43C115.996 115.582 115.063 116.52 113.91 116.52 112.758 116.52 111.82 115.582 111.82 114.43 111.82 113.277 112.758 112.34 113.91 112.34 115.063 112.34 115.996 113.277 115.996 114.43" fill="#211e1e"/>
<path d="M118.277 142.516C118.277 143.668 117.344 144.605 116.188 144.605 115.035 144.605 114.102 143.668 114.102 142.516 114.102 141.363 115.035 140.426 116.188 140.426 117.344 140.426 118.277 141.363 118.277 142.516" fill="#211e1e"/>
<path d="M120.559 128.473C120.559 129.625 119.621 130.563 118.469 130.563 117.313 130.563 116.379 129.625 116.379 128.473 116.379 127.32 117.313 126.383 118.469 126.383 119.621 126.383 120.559 127.32 120.559 128.473" fill="#211e1e"/>
<path d="M122.836 142.516C122.836 143.668 121.902 144.605 120.746 144.605 119.594 144.605 118.66 143.668 118.66 142.516 118.66 141.363 119.594 140.426 120.746 140.426 121.902 140.426 122.836 141.363 122.836 142.516" fill="#211e1e"/>
<path d="M125.117 86.344C125.117 87.5 124.184 88.434 123.027 88.434 121.875 88.434 120.941 87.5 120.941 86.344 120.941 85.191 121.875 84.254 123.027 84.254 124.184 84.254 125.117 85.191 125.117 86.344" fill="#211e1e"/>
<path d="M127.395 44.215C127.395 45.371 126.461 46.305 125.309 46.305 124.156 46.305 123.219 45.371 123.219 44.215 123.219 43.063 124.156 42.125 125.309 42.125 126.461 42.125 127.395 43.063 127.395 44.215" fill="#211e1e"/>
<path d="M129.676 100.387C129.676 101.539 128.742 102.477 127.586 102.477 126.434 102.477 125.5 101.539 125.5 100.387 125.5 99.234 126.434 98.297 127.586 98.297 128.742 98.297 129.676 99.234 129.676 100.387" fill="#211e1e"/>
<path d="M131.953 86.344C131.953 87.5 131.02 88.434 129.867 88.434 128.715 88.434 127.777 87.5 127.777 86.344 127.777 85.191 128.715 84.254 129.867 84.254 131.02 84.254 131.953 85.191 131.953 86.344" fill="#211e1e"/>
<path d="M134.234 72.301C134.234 73.453 133.301 74.391 132.148 74.391 130.992 74.391 130.059 73.453 130.059 72.301 130.059 71.148 130.992 70.211 132.148 70.211 133.301 70.211 134.234 71.148 134.234 72.301" fill="#211e1e"/>
<path d="M136.516 100.387C136.516 101.539 135.578 102.477 134.426 102.477 133.273 102.477 132.336 101.539 132.336 100.387 132.336 99.234 133.273 98.297 134.426 98.297 135.578 98.297 136.516 99.234 136.516 100.387" fill="#211e1e"/>
<path d="M138.797 86.344C138.797 87.5 137.859 88.434 136.707 88.434 135.551 88.434 134.617 87.5 134.617 86.344 134.617 85.191 135.551 84.254 136.707 84.254 137.859 84.254 138.797 85.191 138.797 86.344" fill="#211e1e"/>
<path d="M141.074 58.258C141.074 59.414 140.141 60.348 138.984 60.348 137.832 60.348 136.898 59.414 136.898 58.258 136.898 57.105 137.832 56.168 138.984 56.168 140.141 56.168 141.074 57.105 141.074 58.258" fill="#211e1e"/>
<path d="M143.355 72.301C143.355 73.453 142.418 74.391 141.266 74.391 140.113 74.391 139.176 73.453 139.176 72.301 139.176 71.148 140.113 70.211 141.266 70.211 142.418 70.211 143.355 71.148 143.355 72.301" fill="#211e1e"/>
<path d="M145.633 100.387C145.633 101.539 144.699 102.477 143.543 102.477 142.391 102.477 141.457 101.539 141.457 100.387 141.457 99.234 142.391 98.297 143.543 98.297 144.699 98.297 145.633 99.234 145.633 100.387" fill="#211e1e"/>
<path d="M147.914 86.344C147.914 87.5 146.98 88.434 145.824 88.434 144.672 88.434 143.734 87.5 143.734 86.344 143.734 85.191 144.672 84.254 145.824 84.254 146.98 84.254 147.914 85.191 147.914 86.344" fill="#211e1e"/>
<path d="M150.191 100.387C150.191 101.539 149.258 102.477 148.105 102.477 146.953 102.477 146.016 101.539 146.016 100.387 146.016 99.234 146.953 98.297 148.105 98.297 149.258 98.297 150.191 99.234 150.191 100.387" fill="#211e1e"/>
<path d="M152.473 128.473C152.473 129.625 151.539 130.563 150.383 130.563 149.23 130.563 148.293 129.625 148.293 128.473 148.293 127.32 149.23 126.383 150.383 126.383 151.539 126.383 152.473 127.32 152.473 128.473" fill="#211e1e"/>
<path d="M154.754 114.43C154.754 115.582 153.816 116.52 152.664 116.52 151.512 116.52 150.574 115.582 150.574 114.43 150.574 113.277 151.512 112.34 152.664 112.34 153.816 112.34 154.754 113.277 154.754 114.43" fill="#211e1e"/>
<path d="M157.031 2.086C157.031 3.242 156.098 4.176 154.945 4.176 153.789 4.176 152.855 3.242 152.855 2.086 152.855 .934 153.789 0 154.945 0 156.098 0 157.031 .934 157.031 2.086" fill="#211e1e"/>
<path d="M159.313 86.344C159.313 87.5 158.375 88.434 157.223 88.434 156.07 88.434 155.137 87.5 155.137 86.344 155.137 85.191 156.07 84.254 157.223 84.254 158.375 84.254 159.313 85.191 159.313 86.344" fill="#211e1e"/>
<path d="M161.594 156.559C161.594 157.711 160.656 158.648 159.504 158.648 158.348 158.648 157.414 157.711 157.414 156.559 157.414 155.402 158.348 154.469 159.504 154.469 160.656 154.469 161.594 155.402 161.594 156.559" fill="#211e1e"/>
<path d="M163.871 142.516C163.871 143.668 162.938 144.605 161.781 144.605 160.629 144.605 159.695 143.668 159.695 142.516 159.695 141.363 160.629 140.426 161.781 140.426 162.938 140.426 163.871 141.363 163.871 142.516" fill="#211e1e"/>
<path d="M166.152 128.473C166.152 129.625 165.215 130.563 164.063 130.563 162.91 130.563 161.973 129.625 161.973 128.473 161.973 127.32 162.91 126.383 164.063 126.383 165.215 126.383 166.152 127.32 166.152 128.473" fill="#211e1e"/>
<path d="M168.43 114.43C168.43 115.582 167.496 116.52 166.34 116.52 165.188 116.52 164.254 115.582 164.254 114.43 164.254 113.277 165.188 112.34 166.34 112.34 167.496 112.34 168.43 113.277 168.43 114.43" fill="#211e1e"/>
<path d="M170.711 128.473C170.711 129.625 169.777 130.563 168.621 130.563 167.469 130.563 166.531 129.625 166.531 128.473 166.531 127.32 167.469 126.383 168.621 126.383 169.777 126.383 170.711 127.32 170.711 128.473" fill="#211e1e"/>
<path d="M172.988 100.387C172.988 101.539 172.055 102.477 170.902 102.477 169.746 102.477 168.813 101.539 168.813 100.387 168.813 99.234 169.746 98.297 170.902 98.297 172.055 98.297 172.988 99.234 172.988 100.387" fill="#211e1e"/>
<path d="M175.27 114.43C175.27 115.582 174.336 116.52 173.18 116.52 172.027 116.52 171.094 115.582 171.094 114.43 171.094 113.277 172.027 112.34 173.18 112.34 174.336 112.34 175.27 113.277 175.27 114.43" fill="#211e1e"/>
<path d="M177.551 142.516C177.551 143.668 176.613 144.605 175.461 144.605 174.309 144.605 173.371 143.668 173.371 142.516 173.371 141.363 174.309 140.426 175.461 140.426 176.613 140.426 177.551 141.363 177.551 142.516" fill="#211e1e"/>
<path d="M179.828 128.473C179.828 129.625 178.895 130.563 177.738 130.563 176.586 130.563 175.648 129.625 175.648 128.473 175.648 127.32 176.586 126.383 177.738 126.383 178.895 126.383 179.828 127.32 179.828 128.473" fill="#211e1e"/>
<path d="M182.109 142.516C182.109 143.668 181.176 144.605 180.02 144.605 178.867 144.605 177.934 143.668 177.934 142.516 177.934 141.363 178.867 140.426 180.02 140.426 181.176 140.426 182.109 141.363 182.109 142.516" fill="#211e1e"/>
<path d="M184.391 72.301C184.391 73.453 183.453 74.391 182.301 74.391 181.145 74.391 180.211 73.453 180.211 72.301 180.211 71.148 181.145 70.211 182.301 70.211 183.453 70.211 184.391 71.148 184.391 72.301" fill="#211e1e"/>
<path d="M186.668 100.387C186.668 101.539 185.734 102.477 184.578 102.477 183.426 102.477 182.492 101.539 182.492 100.387 182.492 99.234 183.426 98.297 184.578 98.297 185.734 98.297 186.668 99.234 186.668 100.387" fill="#211e1e"/>
<path d="M188.949 114.43C188.949 115.582 188.012 116.52 186.859 116.52 185.703 116.52 184.77 115.582 184.77 114.43 184.77 113.277 185.703 112.34 186.859 112.34 188.012 112.34 188.949 113.277 188.949 114.43" fill="#211e1e"/>
<path d="M191.227 86.344C191.227 87.5 190.293 88.434 189.141 88.434 187.984 88.434 187.051 87.5 187.051 86.344 187.051 85.191 187.984 84.254 189.141 84.254 190.293 84.254 191.227 85.191 191.227 86.344" fill="#211e1e"/>
<path d="M193.508 58.258C193.508 59.414 192.574 60.348 191.418 60.348 190.266 60.348 189.328 59.414 189.328 58.258 189.328 57.105 190.266 56.168 191.418 56.168 192.574 56.168 193.508 57.105 193.508 58.258" fill="#211e1e"/>
<path d="M195.785 100.387C195.785 101.539 194.852 102.477 193.699 102.477 192.543 102.477 191.609 101.539 191.609 100.387 191.609 99.234 192.543 98.297 193.699 98.297 194.852 98.297 195.785 99.234 195.785 100.387" fill="#211e1e"/>
<path d="M198.066 86.344C198.066 87.5 197.133 88.434 195.977 88.434 194.824 88.434 193.887 87.5 193.887 86.344 193.887 85.191 194.824 84.254 195.977 84.254 197.133 84.254 198.066 85.191 198.066 86.344" fill="#211e1e"/>
<path d="M200.348 72.301C200.348 73.453 199.41 74.391 198.258 74.391 197.102 74.391 196.168 73.453 196.168 72.301 196.168 71.148 197.102 70.211 198.258 70.211 199.41 70.211 200.348 71.148 200.348 72.301" fill="#211e1e"/>
<path d="M202.625 100.387C202.625 101.539 201.691 102.477 200.535 102.477 199.383 102.477 198.449 101.539 198.449 100.387 198.449 99.234 199.383 98.297 200.535 98.297 201.691 98.297 202.625 99.234 202.625 100.387" fill="#211e1e"/>
<path d="M204.906 86.344C204.906 87.5 203.969 88.434 202.816 88.434 201.66 88.434 200.73 87.5 200.73 86.344 200.73 85.191 201.66 84.254 202.816 84.254 203.969 84.254 204.906 85.191 204.906 86.344" fill="#211e1e"/>
<path d="M207.188 114.43C207.188 115.582 206.25 116.52 205.098 116.52 203.941 116.52 203.008 115.582 203.008 114.43 203.008 113.277 203.941 112.34 205.098 112.34 206.25 112.34 207.188 113.277 207.188 114.43" fill="#211e1e"/>
<path d="M209.465 100.387C209.465 101.539 208.531 102.477 207.375 102.477 206.223 102.477 205.289 101.539 205.289 100.387 205.289 99.234 206.223 98.297 207.375 98.297 208.531 98.297 209.465 99.234 209.465 100.387" fill="#211e1e"/>
<path d="M211.742 128.473C211.742 129.625 210.809 130.563 209.656 130.563 208.5 130.563 207.566 129.625 207.566 128.473 207.566 127.32 208.5 126.383 209.656 126.383 210.809 126.383 211.742 127.32 211.742 128.473" fill="#211e1e"/>
<path d="M214.023 142.516C214.023 143.668 213.09 144.605 211.938 144.605 210.781 144.605 209.844 143.668 209.844 142.516 209.844 141.363 210.781 140.426 211.938 140.426 213.09 140.426 214.023 141.363 214.023 142.516" fill="#211e1e"/>
<path d="M216.305 114.43C216.305 115.582 215.367 116.52 214.215 116.52 213.063 116.52 212.125 115.582 212.125 114.43 212.125 113.277 213.063 112.34 214.215 112.34 215.367 112.34 216.305 113.277 216.305 114.43" fill="#211e1e"/>
<path d="M218.582 128.473C218.582 129.625 217.648 130.563 216.496 130.563 215.34 130.563 214.406 129.625 214.406 128.473 214.406 127.32 215.34 126.383 216.496 126.383 217.648 126.383 218.582 127.32 218.582 128.473" fill="#211e1e"/>
<path d="M220.863 44.215C220.863 45.371 219.926 46.305 218.773 46.305 217.621 46.305 216.684 45.371 216.684 44.215 216.684 43.063 217.621 42.125 218.773 42.125 219.926 42.125 220.863 43.063 220.863 44.215" fill="#211e1e"/>
<path d="M223.145 86.344C223.145 87.5 222.207 88.434 221.055 88.434 219.898 88.434 218.965 87.5 218.965 86.344 218.965 85.191 219.898 84.254 221.055 84.254 222.207 84.254 223.145 85.191 223.145 86.344" fill="#211e1e"/>
<path d="M225.422 72.301C225.422 73.453 224.488 74.391 223.332 74.391 222.18 74.391 221.246 73.453 221.246 72.301 221.246 71.148 222.18 70.211 223.332 70.211 224.488 70.211 225.422 71.148 225.422 72.301" fill="#211e1e"/>
<path d="M227.703 114.43C227.703 115.582 226.766 116.52 225.613 116.52 224.457 116.52 223.523 115.582 223.523 114.43 223.523 113.277 224.457 112.34 225.613 112.34 226.766 112.34 227.703 113.277 227.703 114.43" fill="#211e1e"/>
<path d="M229.98 100.387C229.98 101.539 229.047 102.477 227.895 102.477 226.738 102.477 225.805 101.539 225.805 100.387 225.805 99.234 226.738 98.297 227.895 98.297 229.047 98.297 229.98 99.234 229.98 100.387" fill="#211e1e"/>
<path d="M232.262 86.344C232.262 87.5 231.328 88.434 230.172 88.434 229.02 88.434 228.082 87.5 228.082 86.344 228.082 85.191 229.02 84.254 230.172 84.254 231.328 84.254 232.262 85.191 232.262 86.344" fill="#211e1e"/>
<path d="M234.539 58.258C234.539 59.414 233.605 60.348 232.453 60.348 231.301 60.348 230.363 59.414 230.363 58.258 230.363 57.105 231.301 56.168 232.453 56.168 233.605 56.168 234.539 57.105 234.539 58.258" fill="#211e1e"/>
<path d="M236.82 100.387C236.82 101.539 235.887 102.477 234.73 102.477 233.578 102.477 232.641 101.539 232.641 100.387 232.641 99.234 233.578 98.297 234.73 98.297 235.887 98.297 236.82 99.234 236.82 100.387" fill="#211e1e"/>
<path d="M239.102 128.473C239.102 129.625 238.164 130.563 237.012 130.563 235.859 130.563 234.922 129.625 234.922 128.473 234.922 127.32 235.859 126.383 237.012 126.383 238.164 126.383 239.102 127.32 239.102 128.473" fill="#211e1e"/>
<path d="M241.379 142.516C241.379 143.668 240.445 144.605 239.289 144.605 238.137 144.605 237.203 143.668 237.203 142.516 237.203 141.363 238.137 140.426 239.289 140.426 240.445 140.426 241.379 141.363 241.379 142.516" fill="#211e1e"/>
<path d="M243.66 156.559C243.66 157.711 242.727 158.648 241.57 158.648 240.418 158.648 239.484 157.711 239.484 156.559 239.484 155.402 240.418 154.469 241.57 154.469 242.727 154.469 243.66 155.402 243.66 156.559" fill="#211e1e"/>
<path d="M245.941 114.43C245.941 115.582 245.004 116.52 243.852 116.52 242.695 116.52 241.762 115.582 241.762 114.43 241.762 113.277 242.695 112.34 243.852 112.34 245.004 112.34 245.941 113.277 245.941 114.43" fill="#211e1e"/>
<path d="M248.219 86.344C248.219 87.5 247.285 88.434 246.129 88.434 244.977 88.434 244.039 87.5 244.039 86.344 244.039 85.191 244.977 84.254 246.129 84.254 247.285 84.254 248.219 85.191 248.219 86.344" fill="#211e1e"/>
<path d="M250.5 100.387C250.5 101.539 249.566 102.477 248.41 102.477 247.254 102.477 246.32 101.539 246.32 100.387 246.32 99.234 247.254 98.297 248.41 98.297 249.566 98.297 250.5 99.234 250.5 100.387" fill="#211e1e"/>
<path d="M252.777 128.473C252.777 129.625 251.844 130.563 250.688 130.563 249.535 130.563 248.602 129.625 248.602 128.473 248.602 127.32 249.535 126.383 250.688 126.383 251.844 126.383 252.777 127.32 252.777 128.473" fill="#211e1e"/>
<path d="M255.059 114.43C255.059 115.582 254.125 116.52 252.969 116.52 251.816 116.52 250.879 115.582 250.879 114.43 250.879 113.277 251.816 112.34 252.969 112.34 254.125 112.34 255.059 113.277 255.059 114.43" fill="#211e1e"/>
<path d="M257.336 72.301C257.336 73.453 256.402 74.391 255.25 74.391 254.098 74.391 253.16 73.453 253.16 72.301 253.16 71.148 254.098 70.211 255.25 70.211 256.402 70.211 257.336 71.148 257.336 72.301" fill="#211e1e"/>
<path d="M259.617 86.344C259.617 87.5 258.684 88.434 257.527 88.434 256.375 88.434 255.441 87.5 255.441 86.344 255.441 85.191 256.375 84.254 257.527 84.254 258.684 84.254 259.617 85.191 259.617 86.344" fill="#211e1e"/>
<path d="M261.898 100.387C261.898 101.539 260.961 102.477 259.809 102.477 258.656 102.477 257.719 101.539 257.719 100.387 257.719 99.234 258.656 98.297 259.809 98.297 260.961 98.297 261.898 99.234 261.898 100.387" fill="#211e1e"/>
<path d="M264.18 30.172C264.18 31.328 263.242 32.262 262.086 32.262 260.934 32.262 260 31.328 260 30.172 260 29.02 260.934 28.082 262.086 28.082 263.242 28.082 264.18 29.02 264.18 30.172" fill="#211e1e"/>
<path d="M266.457 100.387C266.457 101.539 265.523 102.477 264.367 102.477 263.215 102.477 262.277 101.539 262.277 100.387 262.277 99.234 263.215 98.297 264.367 98.297 265.523 98.297 266.457 99.234 266.457 100.387" fill="#211e1e"/>
<path d="M268.734 128.473C268.734 129.625 267.801 130.563 266.645 130.563 265.492 130.563 264.559 129.625 264.559 128.473 264.559 127.32 265.492 126.383 266.645 126.383 267.801 126.383 268.734 127.32 268.734 128.473" fill="#211e1e"/>
<path d="M271.016 114.43C271.016 115.582 270.082 116.52 268.926 116.52 267.773 116.52 266.836 115.582 266.836 114.43 266.836 113.277 267.773 112.34 268.926 112.34 270.082 112.34 271.016 113.277 271.016 114.43" fill="#211e1e"/>
<path d="M273.293 86.344C273.293 87.5 272.359 88.434 271.207 88.434 270.055 88.434 269.117 87.5 269.117 86.344 269.117 85.191 270.055 84.254 271.207 84.254 272.359 84.254 273.293 85.191 273.293 86.344" fill="#211e1e"/>
<path d="M275.574 100.387C275.574 101.539 274.641 102.477 273.488 102.477 272.332 102.477 271.398 101.539 271.398 100.387 271.398 99.234 272.332 98.297 273.488 98.297 274.641 98.297 275.574 99.234 275.574 100.387" fill="#211e1e"/>
<path d="M277.855 114.43C277.855 115.582 276.918 116.52 275.766 116.52 274.613 116.52 273.676 115.582 273.676 114.43 273.676 113.277 274.613 112.34 275.766 112.34 276.918 112.34 277.855 113.277 277.855 114.43" fill="#211e1e"/>
<path d="M280.137 72.301C280.137 73.453 279.199 74.391 278.047 74.391 276.891 74.391 275.957 73.453 275.957 72.301 275.957 71.148 276.891 70.211 278.047 70.211 279.199 70.211 280.137 71.148 280.137 72.301" fill="#211e1e"/>
<path d="M282.414 86.344C282.414 87.5 281.48 88.434 280.324 88.434 279.172 88.434 278.234 87.5 278.234 86.344 278.234 85.191 279.172 84.254 280.324 84.254 281.48 84.254 282.414 85.191 282.414 86.344" fill="#211e1e"/>
<path d="M284.695 58.258C284.695 59.414 283.762 60.348 282.605 60.348 281.449 60.348 280.516 59.414 280.516 58.258 280.516 57.105 281.449 56.168 282.605 56.168 283.762 56.168 284.695 57.105 284.695 58.258" fill="#211e1e"/>
<path d="M286.973 86.344C286.973 87.5 286.039 88.434 284.883 88.434 283.73 88.434 282.793 87.5 282.793 86.344 282.793 85.191 283.73 84.254 284.883 84.254 286.039 84.254 286.973 85.191 286.973 86.344" fill="#211e1e"/>
<path d="M289.254 72.301C289.254 73.453 288.316 74.391 287.164 74.391 286.012 74.391 285.074 73.453 285.074 72.301 285.074 71.148 286.012 70.211 287.164 70.211 288.316 70.211 289.254 71.148 289.254 72.301" fill="#211e1e"/>
<path d="M291.531 128.473C291.531 129.625 290.598 130.563 289.445 130.563 288.289 130.563 287.355 129.625 287.355 128.473 287.355 127.32 288.289 126.383 289.445 126.383 290.598 126.383 291.531 127.32 291.531 128.473" fill="#211e1e"/>
<path d="M293.813 142.516C293.813 143.668 292.875 144.605 291.723 144.605 290.57 144.605 289.633 143.668 289.633 142.516 289.633 141.363 290.57 140.426 291.723 140.426 292.875 140.426 293.813 141.363 293.813 142.516" fill="#211e1e"/>
<path d="M296.094 156.559C296.094 157.711 295.156 158.648 294.004 158.648 292.852 158.648 291.914 157.711 291.914 156.559 291.914 155.402 292.852 154.469 294.004 154.469 295.156 154.469 296.094 155.402 296.094 156.559" fill="#211e1e"/>
<path d="M298.371 114.43C298.371 115.582 297.438 116.52 296.285 116.52 295.129 116.52 294.191 115.582 294.191 114.43 294.191 113.277 295.129 112.34 296.285 112.34 297.438 112.34 298.371 113.277 298.371 114.43" fill="#211e1e"/>
<path d="M300.652 128.473C300.652 129.625 299.719 130.563 298.563 130.563 297.41 130.563 296.473 129.625 296.473 128.473 296.473 127.32 297.41 126.383 298.563 126.383 299.719 126.383 300.652 127.32 300.652 128.473" fill="#211e1e"/>
<path d="M302.934 142.516C302.934 143.668 301.996 144.605 300.844 144.605 299.688 144.605 298.75 143.668 298.75 142.516 298.75 141.363 299.688 140.426 300.844 140.426 301.996 140.426 302.934 141.363 302.934 142.516" fill="#211e1e"/>
<path d="M305.211 100.387C305.211 101.539 304.277 102.477 303.121 102.477 301.969 102.477 301.031 101.539 301.031 100.387 301.031 99.234 301.969 98.297 303.121 98.297 304.277 98.297 305.211 99.234 305.211 100.387" fill="#211e1e"/>
<path d="M307.492 128.473C307.492 129.625 306.555 130.563 305.402 130.563 304.246 130.563 303.313 129.625 303.313 128.473 303.313 127.32 304.246 126.383 305.402 126.383 306.555 126.383 307.492 127.32 307.492 128.473" fill="#211e1e"/>
<path d="M309.77 114.43C309.77 115.582 308.832 116.52 307.68 116.52 306.527 116.52 305.594 115.582 305.594 114.43 305.594 113.277 306.527 112.34 307.68 112.34 308.832 112.34 309.77 113.277 309.77 114.43" fill="#211e1e"/>
<path d="M312.051 128.473C312.051 129.625 311.113 130.563 309.961 130.563 308.809 130.563 307.871 129.625 307.871 128.473 307.871 127.32 308.809 126.383 309.961 126.383 311.113 126.383 312.051 127.32 312.051 128.473" fill="#211e1e"/>
<path d="M314.328 86.344C314.328 87.5 313.395 88.434 312.242 88.434 311.086 88.434 310.152 87.5 310.152 86.344 310.152 85.191 311.086 84.254 312.242 84.254 313.395 84.254 314.328 85.191 314.328 86.344" fill="#211e1e"/>
<path d="M316.609 114.43C316.609 115.582 315.676 116.52 314.523 116.52 313.367 116.52 312.43 115.582 312.43 114.43 312.43 113.277 313.367 112.34 314.523 112.34 315.676 112.34 316.609 113.277 316.609 114.43" fill="#211e1e"/>
<path d="M318.891 100.387C318.891 101.539 317.953 102.477 316.801 102.477 315.645 102.477 314.711 101.539 314.711 100.387 314.711 99.234 315.645 98.297 316.801 98.297 317.953 98.297 318.891 99.234 318.891 100.387" fill="#211e1e"/>
<path d="M321.168 142.516C321.168 143.668 320.234 144.605 319.078 144.605 317.926 144.605 316.988 143.668 316.988 142.516 316.988 141.363 317.926 140.426 319.078 140.426 320.234 140.426 321.168 141.363 321.168 142.516" fill="#211e1e"/>
<path d="M323.449 156.559C323.449 157.711 322.512 158.648 321.359 158.648 320.207 158.648 319.27 157.711 319.27 156.559 319.27 155.402 320.207 154.469 321.359 154.469 322.512 154.469 323.449 155.402 323.449 156.559" fill="#211e1e"/>
<path d="M325.73 170.602C325.73 171.754 324.793 172.691 323.641 172.691 322.484 172.691 321.551 171.754 321.551 170.602 321.551 169.449 322.484 168.512 323.641 168.512 324.793 168.512 325.73 169.449 325.73 170.602" fill="#211e1e"/>
<path d="M328.008 128.473C328.008 129.625 327.07 130.563 325.918 130.563 324.766 130.563 323.828 129.625 323.828 128.473 323.828 127.32 324.766 126.383 325.918 126.383 327.07 126.383 328.008 127.32 328.008 128.473" fill="#211e1e"/>
<path d="M330.289 114.43C330.289 115.582 329.352 116.52 328.199 116.52 327.043 116.52 326.109 115.582 326.109 114.43 326.109 113.277 327.043 112.34 328.199 112.34 329.352 112.34 330.289 113.277 330.289 114.43" fill="#211e1e"/>
<path d="M332.566 44.215C332.566 45.371 331.633 46.305 330.48 46.305 329.324 46.305 328.391 45.371 328.391 44.215 328.391 43.063 329.324 42.125 330.48 42.125 331.633 42.125 332.566 43.063 332.566 44.215" fill="#211e1e"/>
<path d="M334.848 58.258C334.848 59.414 333.91 60.348 332.758 60.348 331.602 60.348 330.668 59.414 330.668 58.258 330.668 57.105 331.602 56.168 332.758 56.168 333.91 56.168 334.848 57.105 334.848 58.258" fill="#211e1e"/>
<path d="M337.125 16.129C337.125 17.285 336.191 18.219 335.039 18.219 333.883 18.219 332.949 17.285 332.949 16.129 332.949 14.977 333.883 14.039 335.039 14.039 336.191 14.039 337.125 14.977 337.125 16.129" fill="#211e1e"/>
<path d="M339.406 30.172C339.406 31.328 338.473 32.262 337.316 32.262 336.164 32.262 335.227 31.328 335.227 30.172 335.227 29.02 336.164 28.082 337.316 28.082 338.473 28.082 339.406 29.02 339.406 30.172" fill="#211e1e"/>
<path d="M341.688 58.258C341.688 59.414 340.75 60.348 339.598 60.348 338.445 60.348 337.508 59.414 337.508 58.258 337.508 57.105 338.445 56.168 339.598 56.168 340.75 56.168 341.688 57.105 341.688 58.258" fill="#211e1e"/>
<path d="M343.965 44.215C343.965 45.371 343.031 46.305 341.875 46.305 340.723 46.305 339.785 45.371 339.785 44.215 339.785 43.063 340.723 42.125 341.875 42.125 343.031 42.125 343.965 43.063 343.965 44.215" fill="#211e1e"/>
<path d="M346.246 58.258C346.246 59.414 345.309 60.348 344.156 60.348 343 60.348 342.066 59.414 342.066 58.258 342.066 57.105 343 56.168 344.156 56.168 345.309 56.168 346.246 57.105 346.246 58.258" fill="#211e1e"/>
<path d="M348.523 72.301C348.523 73.453 347.59 74.391 346.438 74.391 345.281 74.391 344.348 73.453 344.348 72.301 344.348 71.148 345.281 70.211 346.438 70.211 347.59 70.211 348.523 71.148 348.523 72.301" fill="#211e1e"/>
<path d="M350.805 86.344C350.805 87.5 349.867 88.434 348.715 88.434 347.563 88.434 346.625 87.5 346.625 86.344 346.625 85.191 347.563 84.254 348.715 84.254 349.867 84.254 350.805 85.191 350.805 86.344" fill="#211e1e"/>
<path d="M353.082 100.387C353.082 101.539 352.148 102.477 350.996 102.477 349.84 102.477 348.906 101.539 348.906 100.387 348.906 99.234 349.84 98.297 350.996 98.297 352.148 98.297 353.082 99.234 353.082 100.387" fill="#211e1e"/>
</g>
</svg>
